G04 #@! TF.GenerationSoftware,KiCad,Pcbnew,(5.1.5-0)*
G04 #@! TF.CreationDate,2021-01-12T22:51:55-08:00*
G04 #@! TF.ProjectId,slygrogan,736c7967-726f-4676-916e-2e6b69636164,rev?*
G04 #@! TF.SameCoordinates,Original*
G04 #@! TF.FileFunction,Soldermask,Bot*
G04 #@! TF.FilePolarity,Negative*
%FSLAX46Y46*%
G04 Gerber Fmt 4.6, Leading zero omitted, Abs format (unit mm)*
G04 Created by KiCad (PCBNEW (5.1.5-0)) date 2021-01-12 22:51:55*
%MOMM*%
%LPD*%
G04 APERTURE LIST*
%ADD10C,1.000000*%
%ADD11C,0.150000*%
%ADD12C,0.100000*%
G04 APERTURE END LIST*
D10*
X38500000Y-97500000D02*
G75*
G03X38500000Y-97500000I-3500000J0D01*
G01*
X8500000Y-82000000D02*
G75*
G03X8500000Y-82000000I-3500000J0D01*
G01*
X38500000Y-82000000D02*
G75*
G03X38500000Y-82000000I-3500000J0D01*
G01*
X28500000Y-82000000D02*
G75*
G03X28500000Y-82000000I-3500000J0D01*
G01*
D11*
X22726190Y-121452380D02*
X22726190Y-120785714D01*
X22726190Y-120976190D02*
X22678571Y-120880952D01*
X22630952Y-120833333D01*
X22535714Y-120785714D01*
X22440476Y-120785714D01*
X21726190Y-121404761D02*
X21821428Y-121452380D01*
X22011904Y-121452380D01*
X22107142Y-121404761D01*
X22154761Y-121309523D01*
X22154761Y-120928571D01*
X22107142Y-120833333D01*
X22011904Y-120785714D01*
X21821428Y-120785714D01*
X21726190Y-120833333D01*
X21678571Y-120928571D01*
X21678571Y-121023809D01*
X22154761Y-121119047D01*
X21250000Y-120785714D02*
X21250000Y-121785714D01*
X21250000Y-120833333D02*
X21154761Y-120785714D01*
X20964285Y-120785714D01*
X20869047Y-120833333D01*
X20821428Y-120880952D01*
X20773809Y-120976190D01*
X20773809Y-121261904D01*
X20821428Y-121357142D01*
X20869047Y-121404761D01*
X20964285Y-121452380D01*
X21154761Y-121452380D01*
X21250000Y-121404761D01*
X19916666Y-121452380D02*
X19916666Y-120928571D01*
X19964285Y-120833333D01*
X20059523Y-120785714D01*
X20250000Y-120785714D01*
X20345238Y-120833333D01*
X19916666Y-121404761D02*
X20011904Y-121452380D01*
X20250000Y-121452380D01*
X20345238Y-121404761D01*
X20392857Y-121309523D01*
X20392857Y-121214285D01*
X20345238Y-121119047D01*
X20250000Y-121071428D01*
X20011904Y-121071428D01*
X19916666Y-121023809D01*
X19440476Y-120785714D02*
X19440476Y-121452380D01*
X19440476Y-120880952D02*
X19392857Y-120833333D01*
X19297619Y-120785714D01*
X19154761Y-120785714D01*
X19059523Y-120833333D01*
X19011904Y-120928571D01*
X19011904Y-121452380D01*
X18154761Y-121404761D02*
X18250000Y-121452380D01*
X18440476Y-121452380D01*
X18535714Y-121404761D01*
X18583333Y-121309523D01*
X18583333Y-120928571D01*
X18535714Y-120833333D01*
X18440476Y-120785714D01*
X18250000Y-120785714D01*
X18154761Y-120833333D01*
X18107142Y-120928571D01*
X18107142Y-121023809D01*
X18583333Y-121119047D01*
X17535714Y-121452380D02*
X17630952Y-121404761D01*
X17678571Y-121309523D01*
X17678571Y-120452380D01*
X16392857Y-121452380D02*
X16392857Y-120452380D01*
X16392857Y-120833333D02*
X16297619Y-120785714D01*
X16107142Y-120785714D01*
X16011904Y-120833333D01*
X15964285Y-120880952D01*
X15916666Y-120976190D01*
X15916666Y-121261904D01*
X15964285Y-121357142D01*
X16011904Y-121404761D01*
X16107142Y-121452380D01*
X16297619Y-121452380D01*
X16392857Y-121404761D01*
X15583333Y-120785714D02*
X15345238Y-121452380D01*
X15107142Y-120785714D02*
X15345238Y-121452380D01*
X15440476Y-121690476D01*
X15488095Y-121738095D01*
X15583333Y-121785714D01*
X13964285Y-120785714D02*
X13964285Y-121642857D01*
X14011904Y-121738095D01*
X14107142Y-121785714D01*
X14154761Y-121785714D01*
X13964285Y-120452380D02*
X14011904Y-120500000D01*
X13964285Y-120547619D01*
X13916666Y-120500000D01*
X13964285Y-120452380D01*
X13964285Y-120547619D01*
X13059523Y-121452380D02*
X13059523Y-120928571D01*
X13107142Y-120833333D01*
X13202380Y-120785714D01*
X13392857Y-120785714D01*
X13488095Y-120833333D01*
X13059523Y-121404761D02*
X13154761Y-121452380D01*
X13392857Y-121452380D01*
X13488095Y-121404761D01*
X13535714Y-121309523D01*
X13535714Y-121214285D01*
X13488095Y-121119047D01*
X13392857Y-121071428D01*
X13154761Y-121071428D01*
X13059523Y-121023809D01*
X12154761Y-121404761D02*
X12250000Y-121452380D01*
X12440476Y-121452380D01*
X12535714Y-121404761D01*
X12583333Y-121357142D01*
X12630952Y-121261904D01*
X12630952Y-120976190D01*
X12583333Y-120880952D01*
X12535714Y-120833333D01*
X12440476Y-120785714D01*
X12250000Y-120785714D01*
X12154761Y-120833333D01*
X11726190Y-121452380D02*
X11726190Y-120452380D01*
X11630952Y-121071428D02*
X11345238Y-121452380D01*
X11345238Y-120785714D02*
X11726190Y-121166666D01*
X10202380Y-121404761D02*
X10107142Y-121452380D01*
X9916666Y-121452380D01*
X9821428Y-121404761D01*
X9773809Y-121309523D01*
X9773809Y-121261904D01*
X9821428Y-121166666D01*
X9916666Y-121119047D01*
X10059523Y-121119047D01*
X10154761Y-121071428D01*
X10202380Y-120976190D01*
X10202380Y-120928571D01*
X10154761Y-120833333D01*
X10059523Y-120785714D01*
X9916666Y-120785714D01*
X9821428Y-120833333D01*
X9345238Y-121357142D02*
X9297619Y-121404761D01*
X9345238Y-121452380D01*
X9392857Y-121404761D01*
X9345238Y-121357142D01*
X9345238Y-121452380D01*
X8154761Y-120547619D02*
X8107142Y-120500000D01*
X8011904Y-120452380D01*
X7773809Y-120452380D01*
X7678571Y-120500000D01*
X7630952Y-120547619D01*
X7583333Y-120642857D01*
X7583333Y-120738095D01*
X7630952Y-120880952D01*
X8202380Y-121452380D01*
X7583333Y-121452380D01*
X6964285Y-120452380D02*
X6869047Y-120452380D01*
X6773809Y-120500000D01*
X6726190Y-120547619D01*
X6678571Y-120642857D01*
X6630952Y-120833333D01*
X6630952Y-121071428D01*
X6678571Y-121261904D01*
X6726190Y-121357142D01*
X6773809Y-121404761D01*
X6869047Y-121452380D01*
X6964285Y-121452380D01*
X7059523Y-121404761D01*
X7107142Y-121357142D01*
X7154761Y-121261904D01*
X7202380Y-121071428D01*
X7202380Y-120833333D01*
X7154761Y-120642857D01*
X7107142Y-120547619D01*
X7059523Y-120500000D01*
X6964285Y-120452380D01*
X6250000Y-120547619D02*
X6202380Y-120500000D01*
X6107142Y-120452380D01*
X5869047Y-120452380D01*
X5773809Y-120500000D01*
X5726190Y-120547619D01*
X5678571Y-120642857D01*
X5678571Y-120738095D01*
X5726190Y-120880952D01*
X6297619Y-121452380D01*
X5678571Y-121452380D01*
X4726190Y-121452380D02*
X5297619Y-121452380D01*
X5011904Y-121452380D02*
X5011904Y-120452380D01*
X5107142Y-120595238D01*
X5202380Y-120690476D01*
X5297619Y-120738095D01*
D10*
X18500000Y-82000000D02*
G75*
G03X18500000Y-82000000I-3500000J0D01*
G01*
X8500000Y-97500000D02*
G75*
G03X8500000Y-97500000I-3500000J0D01*
G01*
X18500000Y-97500000D02*
G75*
G03X18500000Y-97500000I-3500000J0D01*
G01*
X28500000Y-97500000D02*
G75*
G03X28500000Y-97500000I-3500000J0D01*
G01*
D12*
G36*
X35604975Y-94458585D02*
G01*
X35904528Y-94518170D01*
X36468874Y-94751930D01*
X36976772Y-95091296D01*
X37408704Y-95523228D01*
X37748070Y-96031126D01*
X37981830Y-96595472D01*
X38101000Y-97194578D01*
X38101000Y-97805422D01*
X37981830Y-98404528D01*
X37748070Y-98968874D01*
X37408704Y-99476772D01*
X36976772Y-99908704D01*
X36468874Y-100248070D01*
X35904528Y-100481830D01*
X35604975Y-100541415D01*
X35305423Y-100601000D01*
X34694577Y-100601000D01*
X34395025Y-100541415D01*
X34095472Y-100481830D01*
X33531126Y-100248070D01*
X33023228Y-99908704D01*
X32591296Y-99476772D01*
X32251930Y-98968874D01*
X32018170Y-98404528D01*
X31899000Y-97805422D01*
X31899000Y-97194578D01*
X32018170Y-96595472D01*
X32251930Y-96031126D01*
X32591296Y-95523228D01*
X33023228Y-95091296D01*
X33531126Y-94751930D01*
X34095472Y-94518170D01*
X34395025Y-94458585D01*
X34694577Y-94399000D01*
X35305423Y-94399000D01*
X35604975Y-94458585D01*
G37*
G36*
X25604975Y-94458585D02*
G01*
X25904528Y-94518170D01*
X26468874Y-94751930D01*
X26976772Y-95091296D01*
X27408704Y-95523228D01*
X27748070Y-96031126D01*
X27981830Y-96595472D01*
X28101000Y-97194578D01*
X28101000Y-97805422D01*
X27981830Y-98404528D01*
X27748070Y-98968874D01*
X27408704Y-99476772D01*
X26976772Y-99908704D01*
X26468874Y-100248070D01*
X25904528Y-100481830D01*
X25604975Y-100541415D01*
X25305423Y-100601000D01*
X24694577Y-100601000D01*
X24395025Y-100541415D01*
X24095472Y-100481830D01*
X23531126Y-100248070D01*
X23023228Y-99908704D01*
X22591296Y-99476772D01*
X22251930Y-98968874D01*
X22018170Y-98404528D01*
X21899000Y-97805422D01*
X21899000Y-97194578D01*
X22018170Y-96595472D01*
X22251930Y-96031126D01*
X22591296Y-95523228D01*
X23023228Y-95091296D01*
X23531126Y-94751930D01*
X24095472Y-94518170D01*
X24395025Y-94458585D01*
X24694577Y-94399000D01*
X25305423Y-94399000D01*
X25604975Y-94458585D01*
G37*
G36*
X15604975Y-94458585D02*
G01*
X15904528Y-94518170D01*
X16468874Y-94751930D01*
X16976772Y-95091296D01*
X17408704Y-95523228D01*
X17748070Y-96031126D01*
X17981830Y-96595472D01*
X18101000Y-97194578D01*
X18101000Y-97805422D01*
X17981830Y-98404528D01*
X17748070Y-98968874D01*
X17408704Y-99476772D01*
X16976772Y-99908704D01*
X16468874Y-100248070D01*
X15904528Y-100481830D01*
X15604975Y-100541415D01*
X15305423Y-100601000D01*
X14694577Y-100601000D01*
X14395025Y-100541415D01*
X14095472Y-100481830D01*
X13531126Y-100248070D01*
X13023228Y-99908704D01*
X12591296Y-99476772D01*
X12251930Y-98968874D01*
X12018170Y-98404528D01*
X11899000Y-97805422D01*
X11899000Y-97194578D01*
X12018170Y-96595472D01*
X12251930Y-96031126D01*
X12591296Y-95523228D01*
X13023228Y-95091296D01*
X13531126Y-94751930D01*
X14095472Y-94518170D01*
X14395025Y-94458585D01*
X14694577Y-94399000D01*
X15305423Y-94399000D01*
X15604975Y-94458585D01*
G37*
G36*
X5604975Y-94458585D02*
G01*
X5904528Y-94518170D01*
X6468874Y-94751930D01*
X6976772Y-95091296D01*
X7408704Y-95523228D01*
X7748070Y-96031126D01*
X7981830Y-96595472D01*
X8101000Y-97194578D01*
X8101000Y-97805422D01*
X7981830Y-98404528D01*
X7748070Y-98968874D01*
X7408704Y-99476772D01*
X6976772Y-99908704D01*
X6468874Y-100248070D01*
X5904528Y-100481830D01*
X5604975Y-100541415D01*
X5305423Y-100601000D01*
X4694577Y-100601000D01*
X4395025Y-100541415D01*
X4095472Y-100481830D01*
X3531126Y-100248070D01*
X3023228Y-99908704D01*
X2591296Y-99476772D01*
X2251930Y-98968874D01*
X2018170Y-98404528D01*
X1899000Y-97805422D01*
X1899000Y-97194578D01*
X2018170Y-96595472D01*
X2251930Y-96031126D01*
X2591296Y-95523228D01*
X3023228Y-95091296D01*
X3531126Y-94751930D01*
X4095472Y-94518170D01*
X4395025Y-94458585D01*
X4694577Y-94399000D01*
X5305423Y-94399000D01*
X5604975Y-94458585D01*
G37*
G36*
X35604975Y-78958585D02*
G01*
X35904528Y-79018170D01*
X36468874Y-79251930D01*
X36976772Y-79591296D01*
X37408704Y-80023228D01*
X37748070Y-80531126D01*
X37981830Y-81095472D01*
X38101000Y-81694578D01*
X38101000Y-82305422D01*
X37981830Y-82904528D01*
X37748070Y-83468874D01*
X37408704Y-83976772D01*
X36976772Y-84408704D01*
X36468874Y-84748070D01*
X35904528Y-84981830D01*
X35604975Y-85041415D01*
X35305423Y-85101000D01*
X34694577Y-85101000D01*
X34395025Y-85041415D01*
X34095472Y-84981830D01*
X33531126Y-84748070D01*
X33023228Y-84408704D01*
X32591296Y-83976772D01*
X32251930Y-83468874D01*
X32018170Y-82904528D01*
X31899000Y-82305422D01*
X31899000Y-81694578D01*
X32018170Y-81095472D01*
X32251930Y-80531126D01*
X32591296Y-80023228D01*
X33023228Y-79591296D01*
X33531126Y-79251930D01*
X34095472Y-79018170D01*
X34395025Y-78958585D01*
X34694577Y-78899000D01*
X35305423Y-78899000D01*
X35604975Y-78958585D01*
G37*
G36*
X25604975Y-78958585D02*
G01*
X25904528Y-79018170D01*
X26468874Y-79251930D01*
X26976772Y-79591296D01*
X27408704Y-80023228D01*
X27748070Y-80531126D01*
X27981830Y-81095472D01*
X28101000Y-81694578D01*
X28101000Y-82305422D01*
X27981830Y-82904528D01*
X27748070Y-83468874D01*
X27408704Y-83976772D01*
X26976772Y-84408704D01*
X26468874Y-84748070D01*
X25904528Y-84981830D01*
X25604975Y-85041415D01*
X25305423Y-85101000D01*
X24694577Y-85101000D01*
X24395025Y-85041415D01*
X24095472Y-84981830D01*
X23531126Y-84748070D01*
X23023228Y-84408704D01*
X22591296Y-83976772D01*
X22251930Y-83468874D01*
X22018170Y-82904528D01*
X21899000Y-82305422D01*
X21899000Y-81694578D01*
X22018170Y-81095472D01*
X22251930Y-80531126D01*
X22591296Y-80023228D01*
X23023228Y-79591296D01*
X23531126Y-79251930D01*
X24095472Y-79018170D01*
X24395025Y-78958585D01*
X24694577Y-78899000D01*
X25305423Y-78899000D01*
X25604975Y-78958585D01*
G37*
G36*
X15604975Y-78958585D02*
G01*
X15904528Y-79018170D01*
X16468874Y-79251930D01*
X16976772Y-79591296D01*
X17408704Y-80023228D01*
X17748070Y-80531126D01*
X17981830Y-81095472D01*
X18101000Y-81694578D01*
X18101000Y-82305422D01*
X17981830Y-82904528D01*
X17748070Y-83468874D01*
X17408704Y-83976772D01*
X16976772Y-84408704D01*
X16468874Y-84748070D01*
X15904528Y-84981830D01*
X15604975Y-85041415D01*
X15305423Y-85101000D01*
X14694577Y-85101000D01*
X14395025Y-85041415D01*
X14095472Y-84981830D01*
X13531126Y-84748070D01*
X13023228Y-84408704D01*
X12591296Y-83976772D01*
X12251930Y-83468874D01*
X12018170Y-82904528D01*
X11899000Y-82305422D01*
X11899000Y-81694578D01*
X12018170Y-81095472D01*
X12251930Y-80531126D01*
X12591296Y-80023228D01*
X13023228Y-79591296D01*
X13531126Y-79251930D01*
X14095472Y-79018170D01*
X14395025Y-78958585D01*
X14694577Y-78899000D01*
X15305423Y-78899000D01*
X15604975Y-78958585D01*
G37*
G36*
X5604975Y-78958585D02*
G01*
X5904528Y-79018170D01*
X6468874Y-79251930D01*
X6976772Y-79591296D01*
X7408704Y-80023228D01*
X7748070Y-80531126D01*
X7981830Y-81095472D01*
X8101000Y-81694578D01*
X8101000Y-82305422D01*
X7981830Y-82904528D01*
X7748070Y-83468874D01*
X7408704Y-83976772D01*
X6976772Y-84408704D01*
X6468874Y-84748070D01*
X5904528Y-84981830D01*
X5604975Y-85041415D01*
X5305423Y-85101000D01*
X4694577Y-85101000D01*
X4395025Y-85041415D01*
X4095472Y-84981830D01*
X3531126Y-84748070D01*
X3023228Y-84408704D01*
X2591296Y-83976772D01*
X2251930Y-83468874D01*
X2018170Y-82904528D01*
X1899000Y-82305422D01*
X1899000Y-81694578D01*
X2018170Y-81095472D01*
X2251930Y-80531126D01*
X2591296Y-80023228D01*
X3023228Y-79591296D01*
X3531126Y-79251930D01*
X4095472Y-79018170D01*
X4395025Y-78958585D01*
X4694577Y-78899000D01*
X5305423Y-78899000D01*
X5604975Y-78958585D01*
G37*
G36*
X30196217Y-54906665D02*
G01*
X30466995Y-54960525D01*
X30758358Y-55081212D01*
X31020578Y-55256422D01*
X31243578Y-55479422D01*
X31418788Y-55741642D01*
X31539475Y-56033005D01*
X31601000Y-56342315D01*
X31601000Y-56657685D01*
X31539475Y-56966995D01*
X31418788Y-57258358D01*
X31243578Y-57520578D01*
X31020578Y-57743578D01*
X30758358Y-57918788D01*
X30466995Y-58039475D01*
X30196217Y-58093335D01*
X30157686Y-58101000D01*
X29842314Y-58101000D01*
X29803783Y-58093335D01*
X29533005Y-58039475D01*
X29241642Y-57918788D01*
X28979422Y-57743578D01*
X28756422Y-57520578D01*
X28581212Y-57258358D01*
X28460525Y-56966995D01*
X28399000Y-56657685D01*
X28399000Y-56342315D01*
X28460525Y-56033005D01*
X28581212Y-55741642D01*
X28756422Y-55479422D01*
X28979422Y-55256422D01*
X29241642Y-55081212D01*
X29533005Y-54960525D01*
X29803783Y-54906665D01*
X29842314Y-54899000D01*
X30157686Y-54899000D01*
X30196217Y-54906665D01*
G37*
M02*
