G04 #@! TF.GenerationSoftware,KiCad,Pcbnew,(5.1.5-0)*
G04 #@! TF.CreationDate,2021-01-11T19:03:55-08:00*
G04 #@! TF.ProjectId,slygrogan,736c7967-726f-4676-916e-2e6b69636164,rev?*
G04 #@! TF.SameCoordinates,Original*
G04 #@! TF.FileFunction,Copper,L2,Bot*
G04 #@! TF.FilePolarity,Positive*
%FSLAX46Y46*%
G04 Gerber Fmt 4.6, Leading zero omitted, Abs format (unit mm)*
G04 Created by KiCad (PCBNEW (5.1.5-0)) date 2021-01-11 19:03:55*
%MOMM*%
%LPD*%
G04 APERTURE LIST*
%ADD10C,3.100000*%
%ADD11C,6.100000*%
%ADD12C,0.254000*%
G04 APERTURE END LIST*
D10*
X30000000Y-56500000D03*
D11*
X35000000Y-97500000D03*
X5000000Y-82000000D03*
X35000000Y-82000000D03*
X25000000Y-82000000D03*
X15000000Y-82000000D03*
X5000000Y-97500000D03*
X25000000Y-97500000D03*
X15000000Y-97500000D03*
D12*
G36*
X39640001Y-127840000D02*
G01*
X660000Y-127840000D01*
X660000Y-125451353D01*
X4242755Y-125451353D01*
X4243173Y-125511171D01*
X4242755Y-125570988D01*
X4243655Y-125580160D01*
X4276296Y-125890715D01*
X4288320Y-125949291D01*
X4299532Y-126008070D01*
X4302196Y-126016892D01*
X4394535Y-126315192D01*
X4417715Y-126370335D01*
X4440124Y-126425800D01*
X4444451Y-126433937D01*
X4592972Y-126708621D01*
X4626417Y-126758205D01*
X4659177Y-126808268D01*
X4665001Y-126815409D01*
X4864047Y-127056013D01*
X4906482Y-127098154D01*
X4948346Y-127140903D01*
X4955446Y-127146777D01*
X5197435Y-127344138D01*
X5247259Y-127377241D01*
X5296615Y-127411036D01*
X5304721Y-127415419D01*
X5580435Y-127562019D01*
X5635704Y-127584799D01*
X5690724Y-127608381D01*
X5699527Y-127611105D01*
X5998465Y-127701359D01*
X6057138Y-127712976D01*
X6115655Y-127725415D01*
X6124820Y-127726378D01*
X6435594Y-127756850D01*
X6435598Y-127756850D01*
X6467581Y-127760000D01*
X8532419Y-127760000D01*
X8565986Y-127756694D01*
X8586744Y-127756694D01*
X8595909Y-127755731D01*
X8906228Y-127720923D01*
X8964731Y-127708487D01*
X9023419Y-127696867D01*
X9032222Y-127694142D01*
X9329870Y-127599723D01*
X9384792Y-127576183D01*
X9440159Y-127553363D01*
X9448265Y-127548979D01*
X9721904Y-127398544D01*
X9771217Y-127364779D01*
X9821088Y-127331645D01*
X9828188Y-127325770D01*
X10067397Y-127125049D01*
X10109241Y-127082320D01*
X10151694Y-127040162D01*
X10157519Y-127033020D01*
X10353185Y-126789660D01*
X10385938Y-126739608D01*
X10419391Y-126690013D01*
X10423714Y-126681881D01*
X10423717Y-126681877D01*
X10423719Y-126681873D01*
X10568388Y-126405146D01*
X10590785Y-126349711D01*
X10613978Y-126294539D01*
X10616641Y-126285717D01*
X10704807Y-125986156D01*
X10716007Y-125927440D01*
X10728045Y-125868798D01*
X10728944Y-125859627D01*
X10757245Y-125548647D01*
X10756827Y-125488830D01*
X10757088Y-125451353D01*
X29542755Y-125451353D01*
X29543173Y-125511171D01*
X29542755Y-125570988D01*
X29543655Y-125580160D01*
X29576296Y-125890715D01*
X29588320Y-125949291D01*
X29599532Y-126008070D01*
X29602196Y-126016892D01*
X29694535Y-126315192D01*
X29717715Y-126370335D01*
X29740124Y-126425800D01*
X29744451Y-126433937D01*
X29892972Y-126708621D01*
X29926417Y-126758205D01*
X29959177Y-126808268D01*
X29965001Y-126815409D01*
X30164047Y-127056013D01*
X30206482Y-127098154D01*
X30248346Y-127140903D01*
X30255446Y-127146777D01*
X30497435Y-127344138D01*
X30547259Y-127377241D01*
X30596615Y-127411036D01*
X30604721Y-127415419D01*
X30880435Y-127562019D01*
X30935704Y-127584799D01*
X30990724Y-127608381D01*
X30999527Y-127611105D01*
X31298465Y-127701359D01*
X31357138Y-127712976D01*
X31415655Y-127725415D01*
X31424820Y-127726378D01*
X31735594Y-127756850D01*
X31735598Y-127756850D01*
X31767581Y-127760000D01*
X33832419Y-127760000D01*
X33865986Y-127756694D01*
X33886744Y-127756694D01*
X33895909Y-127755731D01*
X34206228Y-127720923D01*
X34264731Y-127708487D01*
X34323419Y-127696867D01*
X34332222Y-127694142D01*
X34629870Y-127599723D01*
X34684792Y-127576183D01*
X34740159Y-127553363D01*
X34748265Y-127548979D01*
X35021904Y-127398544D01*
X35071217Y-127364779D01*
X35121088Y-127331645D01*
X35128188Y-127325770D01*
X35367397Y-127125049D01*
X35409241Y-127082320D01*
X35451694Y-127040162D01*
X35457519Y-127033020D01*
X35653185Y-126789660D01*
X35685938Y-126739608D01*
X35719391Y-126690013D01*
X35723714Y-126681881D01*
X35723717Y-126681877D01*
X35723719Y-126681873D01*
X35868388Y-126405146D01*
X35890785Y-126349711D01*
X35913978Y-126294539D01*
X35916641Y-126285717D01*
X36004807Y-125986156D01*
X36016007Y-125927440D01*
X36028045Y-125868798D01*
X36028944Y-125859627D01*
X36057245Y-125548647D01*
X36056827Y-125488829D01*
X36057245Y-125429012D01*
X36056345Y-125419841D01*
X36023704Y-125109285D01*
X36011680Y-125050709D01*
X36000468Y-124991930D01*
X35997804Y-124983108D01*
X35905465Y-124684808D01*
X35882280Y-124629653D01*
X35859876Y-124574200D01*
X35855549Y-124566064D01*
X35855549Y-124566063D01*
X35855546Y-124566059D01*
X35707028Y-124291379D01*
X35673583Y-124241795D01*
X35640823Y-124191732D01*
X35634999Y-124184591D01*
X35435954Y-123943987D01*
X35393535Y-123901863D01*
X35351655Y-123859097D01*
X35344554Y-123853223D01*
X35102565Y-123655862D01*
X35052741Y-123622759D01*
X35003385Y-123588964D01*
X34995279Y-123584581D01*
X34719566Y-123437981D01*
X34664269Y-123415189D01*
X34609275Y-123391619D01*
X34600472Y-123388895D01*
X34301535Y-123298641D01*
X34242862Y-123287024D01*
X34184345Y-123274585D01*
X34175180Y-123273622D01*
X33864405Y-123243150D01*
X33864402Y-123243150D01*
X33832419Y-123240000D01*
X31767581Y-123240000D01*
X31734014Y-123243306D01*
X31713256Y-123243306D01*
X31704091Y-123244269D01*
X31393771Y-123279077D01*
X31335298Y-123291506D01*
X31276581Y-123303132D01*
X31267778Y-123305858D01*
X30970130Y-123400277D01*
X30915147Y-123423843D01*
X30859841Y-123446638D01*
X30851735Y-123451021D01*
X30578095Y-123601456D01*
X30528748Y-123635245D01*
X30478913Y-123668355D01*
X30471812Y-123674229D01*
X30232603Y-123874951D01*
X30190759Y-123917681D01*
X30148305Y-123959839D01*
X30142481Y-123966980D01*
X29946814Y-124210340D01*
X29914055Y-124260400D01*
X29880609Y-124309986D01*
X29876283Y-124318123D01*
X29731612Y-124594854D01*
X29709215Y-124650289D01*
X29686022Y-124705461D01*
X29683359Y-124714283D01*
X29595193Y-125013844D01*
X29583993Y-125072560D01*
X29571955Y-125131202D01*
X29571056Y-125140373D01*
X29542755Y-125451353D01*
X10757088Y-125451353D01*
X10757245Y-125429012D01*
X10756345Y-125419841D01*
X10723704Y-125109285D01*
X10711680Y-125050709D01*
X10700468Y-124991930D01*
X10697804Y-124983108D01*
X10605465Y-124684808D01*
X10582280Y-124629653D01*
X10559876Y-124574200D01*
X10555549Y-124566064D01*
X10555549Y-124566063D01*
X10555546Y-124566059D01*
X10407028Y-124291379D01*
X10373583Y-124241795D01*
X10340823Y-124191732D01*
X10334999Y-124184591D01*
X10135954Y-123943987D01*
X10093535Y-123901863D01*
X10051655Y-123859097D01*
X10044554Y-123853223D01*
X9802565Y-123655862D01*
X9752741Y-123622759D01*
X9703385Y-123588964D01*
X9695279Y-123584581D01*
X9419566Y-123437981D01*
X9364269Y-123415189D01*
X9309275Y-123391619D01*
X9300472Y-123388895D01*
X9001535Y-123298641D01*
X8942862Y-123287024D01*
X8884345Y-123274585D01*
X8875180Y-123273622D01*
X8564405Y-123243150D01*
X8564402Y-123243150D01*
X8532419Y-123240000D01*
X6467581Y-123240000D01*
X6434014Y-123243306D01*
X6413256Y-123243306D01*
X6404091Y-123244269D01*
X6093771Y-123279077D01*
X6035298Y-123291506D01*
X5976581Y-123303132D01*
X5967778Y-123305858D01*
X5670130Y-123400277D01*
X5615147Y-123423843D01*
X5559841Y-123446638D01*
X5551735Y-123451021D01*
X5278095Y-123601456D01*
X5228748Y-123635245D01*
X5178913Y-123668355D01*
X5171812Y-123674229D01*
X4932603Y-123874951D01*
X4890759Y-123917681D01*
X4848305Y-123959839D01*
X4842481Y-123966980D01*
X4646814Y-124210340D01*
X4614055Y-124260400D01*
X4580609Y-124309986D01*
X4576283Y-124318123D01*
X4431612Y-124594854D01*
X4409215Y-124650289D01*
X4386022Y-124705461D01*
X4383359Y-124714283D01*
X4295193Y-125013844D01*
X4283993Y-125072560D01*
X4271955Y-125131202D01*
X4271056Y-125140373D01*
X4242755Y-125451353D01*
X660000Y-125451353D01*
X660000Y-56065784D01*
X5341332Y-56065784D01*
X5341332Y-56934216D01*
X5510754Y-57785961D01*
X5843089Y-58588288D01*
X6325564Y-59310362D01*
X6939638Y-59924436D01*
X7661712Y-60406911D01*
X8464039Y-60739246D01*
X9315784Y-60908668D01*
X10184216Y-60908668D01*
X11035961Y-60739246D01*
X11838288Y-60406911D01*
X12560362Y-59924436D01*
X13174436Y-59310362D01*
X13656911Y-58588288D01*
X13989246Y-57785961D01*
X14158668Y-56934216D01*
X14158668Y-56065784D01*
X13989246Y-55214039D01*
X13656911Y-54411712D01*
X13174436Y-53689638D01*
X12560362Y-53075564D01*
X11838288Y-52593089D01*
X11035961Y-52260754D01*
X10184216Y-52091332D01*
X9315784Y-52091332D01*
X8464039Y-52260754D01*
X7661712Y-52593089D01*
X6939638Y-53075564D01*
X6325564Y-53689638D01*
X5843089Y-54411712D01*
X5510754Y-55214039D01*
X5341332Y-56065784D01*
X660000Y-56065784D01*
X660000Y-40315784D01*
X5341332Y-40315784D01*
X5341332Y-41184216D01*
X5510754Y-42035961D01*
X5843089Y-42838288D01*
X6325564Y-43560362D01*
X6939638Y-44174436D01*
X7661712Y-44656911D01*
X8464039Y-44989246D01*
X9315784Y-45158668D01*
X10184216Y-45158668D01*
X11035961Y-44989246D01*
X11838288Y-44656911D01*
X12560362Y-44174436D01*
X13174436Y-43560362D01*
X13656911Y-42838288D01*
X13989246Y-42035961D01*
X14158668Y-41184216D01*
X14158668Y-40315784D01*
X25591332Y-40315784D01*
X25591332Y-41184216D01*
X25760754Y-42035961D01*
X26093089Y-42838288D01*
X26575564Y-43560362D01*
X27189638Y-44174436D01*
X27911712Y-44656911D01*
X28714039Y-44989246D01*
X29565784Y-45158668D01*
X30434216Y-45158668D01*
X31285961Y-44989246D01*
X32088288Y-44656911D01*
X32810362Y-44174436D01*
X33424436Y-43560362D01*
X33906911Y-42838288D01*
X34239246Y-42035961D01*
X34408668Y-41184216D01*
X34408668Y-40315784D01*
X34239246Y-39464039D01*
X33906911Y-38661712D01*
X33424436Y-37939638D01*
X32810362Y-37325564D01*
X32088288Y-36843089D01*
X31285961Y-36510754D01*
X30434216Y-36341332D01*
X29565784Y-36341332D01*
X28714039Y-36510754D01*
X27911712Y-36843089D01*
X27189638Y-37325564D01*
X26575564Y-37939638D01*
X26093089Y-38661712D01*
X25760754Y-39464039D01*
X25591332Y-40315784D01*
X14158668Y-40315784D01*
X13989246Y-39464039D01*
X13656911Y-38661712D01*
X13174436Y-37939638D01*
X12560362Y-37325564D01*
X11838288Y-36843089D01*
X11035961Y-36510754D01*
X10184216Y-36341332D01*
X9315784Y-36341332D01*
X8464039Y-36510754D01*
X7661712Y-36843089D01*
X6939638Y-37325564D01*
X6325564Y-37939638D01*
X5843089Y-38661712D01*
X5510754Y-39464039D01*
X5341332Y-40315784D01*
X660000Y-40315784D01*
X660000Y-24315784D01*
X5341332Y-24315784D01*
X5341332Y-25184216D01*
X5510754Y-26035961D01*
X5843089Y-26838288D01*
X6325564Y-27560362D01*
X6939638Y-28174436D01*
X7661712Y-28656911D01*
X8464039Y-28989246D01*
X9315784Y-29158668D01*
X10184216Y-29158668D01*
X11035961Y-28989246D01*
X11838288Y-28656911D01*
X12560362Y-28174436D01*
X13174436Y-27560362D01*
X13656911Y-26838288D01*
X13989246Y-26035961D01*
X14158668Y-25184216D01*
X14158668Y-24315784D01*
X25591332Y-24315784D01*
X25591332Y-25184216D01*
X25760754Y-26035961D01*
X26093089Y-26838288D01*
X26575564Y-27560362D01*
X27189638Y-28174436D01*
X27911712Y-28656911D01*
X28714039Y-28989246D01*
X29565784Y-29158668D01*
X30434216Y-29158668D01*
X31285961Y-28989246D01*
X32088288Y-28656911D01*
X32810362Y-28174436D01*
X33424436Y-27560362D01*
X33906911Y-26838288D01*
X34239246Y-26035961D01*
X34408668Y-25184216D01*
X34408668Y-24315784D01*
X34239246Y-23464039D01*
X33906911Y-22661712D01*
X33424436Y-21939638D01*
X32810362Y-21325564D01*
X32088288Y-20843089D01*
X31285961Y-20510754D01*
X30434216Y-20341332D01*
X29565784Y-20341332D01*
X28714039Y-20510754D01*
X27911712Y-20843089D01*
X27189638Y-21325564D01*
X26575564Y-21939638D01*
X26093089Y-22661712D01*
X25760754Y-23464039D01*
X25591332Y-24315784D01*
X14158668Y-24315784D01*
X13989246Y-23464039D01*
X13656911Y-22661712D01*
X13174436Y-21939638D01*
X12560362Y-21325564D01*
X11838288Y-20843089D01*
X11035961Y-20510754D01*
X10184216Y-20341332D01*
X9315784Y-20341332D01*
X8464039Y-20510754D01*
X7661712Y-20843089D01*
X6939638Y-21325564D01*
X6325564Y-21939638D01*
X5843089Y-22661712D01*
X5510754Y-23464039D01*
X5341332Y-24315784D01*
X660000Y-24315784D01*
X660000Y-2951353D01*
X4242755Y-2951353D01*
X4243173Y-3011171D01*
X4242755Y-3070988D01*
X4243655Y-3080160D01*
X4276296Y-3390715D01*
X4288320Y-3449291D01*
X4299532Y-3508070D01*
X4302196Y-3516892D01*
X4394535Y-3815192D01*
X4417715Y-3870335D01*
X4440124Y-3925800D01*
X4444451Y-3933937D01*
X4592972Y-4208621D01*
X4626417Y-4258205D01*
X4659177Y-4308268D01*
X4665001Y-4315409D01*
X4864047Y-4556013D01*
X4906482Y-4598154D01*
X4948346Y-4640903D01*
X4955446Y-4646777D01*
X5197435Y-4844138D01*
X5247259Y-4877241D01*
X5296615Y-4911036D01*
X5304721Y-4915419D01*
X5580435Y-5062019D01*
X5635704Y-5084799D01*
X5690724Y-5108381D01*
X5699527Y-5111105D01*
X5998465Y-5201359D01*
X6057138Y-5212976D01*
X6115655Y-5225415D01*
X6124820Y-5226378D01*
X6435594Y-5256850D01*
X6435598Y-5256850D01*
X6467581Y-5260000D01*
X8532419Y-5260000D01*
X8565986Y-5256694D01*
X8586744Y-5256694D01*
X8595909Y-5255731D01*
X8906228Y-5220923D01*
X8964731Y-5208487D01*
X9023419Y-5196867D01*
X9032222Y-5194142D01*
X9329870Y-5099723D01*
X9384792Y-5076183D01*
X9440159Y-5053363D01*
X9448265Y-5048979D01*
X9721904Y-4898544D01*
X9771217Y-4864779D01*
X9821088Y-4831645D01*
X9828188Y-4825770D01*
X10067397Y-4625049D01*
X10109241Y-4582320D01*
X10151694Y-4540162D01*
X10157519Y-4533020D01*
X10353185Y-4289660D01*
X10385938Y-4239608D01*
X10419391Y-4190013D01*
X10423714Y-4181881D01*
X10423717Y-4181877D01*
X10423719Y-4181873D01*
X10568388Y-3905146D01*
X10590785Y-3849711D01*
X10613978Y-3794539D01*
X10616641Y-3785717D01*
X10704807Y-3486156D01*
X10716007Y-3427440D01*
X10728045Y-3368798D01*
X10728944Y-3359627D01*
X10757245Y-3048647D01*
X10756827Y-2988830D01*
X10757088Y-2951353D01*
X29542755Y-2951353D01*
X29543173Y-3011171D01*
X29542755Y-3070988D01*
X29543655Y-3080160D01*
X29576296Y-3390715D01*
X29588320Y-3449291D01*
X29599532Y-3508070D01*
X29602196Y-3516892D01*
X29694535Y-3815192D01*
X29717715Y-3870335D01*
X29740124Y-3925800D01*
X29744451Y-3933937D01*
X29892972Y-4208621D01*
X29926417Y-4258205D01*
X29959177Y-4308268D01*
X29965001Y-4315409D01*
X30164047Y-4556013D01*
X30206482Y-4598154D01*
X30248346Y-4640903D01*
X30255446Y-4646777D01*
X30497435Y-4844138D01*
X30547259Y-4877241D01*
X30596615Y-4911036D01*
X30604721Y-4915419D01*
X30880435Y-5062019D01*
X30935704Y-5084799D01*
X30990724Y-5108381D01*
X30999527Y-5111105D01*
X31298465Y-5201359D01*
X31357138Y-5212976D01*
X31415655Y-5225415D01*
X31424820Y-5226378D01*
X31735594Y-5256850D01*
X31735598Y-5256850D01*
X31767581Y-5260000D01*
X33832419Y-5260000D01*
X33865986Y-5256694D01*
X33886744Y-5256694D01*
X33895909Y-5255731D01*
X34206228Y-5220923D01*
X34264731Y-5208487D01*
X34323419Y-5196867D01*
X34332222Y-5194142D01*
X34629870Y-5099723D01*
X34684792Y-5076183D01*
X34740159Y-5053363D01*
X34748265Y-5048979D01*
X35021904Y-4898544D01*
X35071217Y-4864779D01*
X35121088Y-4831645D01*
X35128188Y-4825770D01*
X35367397Y-4625049D01*
X35409241Y-4582320D01*
X35451694Y-4540162D01*
X35457519Y-4533020D01*
X35653185Y-4289660D01*
X35685938Y-4239608D01*
X35719391Y-4190013D01*
X35723714Y-4181881D01*
X35723717Y-4181877D01*
X35723719Y-4181873D01*
X35868388Y-3905146D01*
X35890785Y-3849711D01*
X35913978Y-3794539D01*
X35916641Y-3785717D01*
X36004807Y-3486156D01*
X36016007Y-3427440D01*
X36028045Y-3368798D01*
X36028944Y-3359627D01*
X36057245Y-3048647D01*
X36056827Y-2988829D01*
X36057245Y-2929012D01*
X36056345Y-2919841D01*
X36023704Y-2609285D01*
X36011680Y-2550709D01*
X36000468Y-2491930D01*
X35997804Y-2483108D01*
X35905465Y-2184808D01*
X35882280Y-2129653D01*
X35859876Y-2074200D01*
X35855549Y-2066064D01*
X35855549Y-2066063D01*
X35855546Y-2066059D01*
X35707028Y-1791379D01*
X35673583Y-1741795D01*
X35640823Y-1691732D01*
X35634999Y-1684591D01*
X35435954Y-1443987D01*
X35393535Y-1401863D01*
X35351655Y-1359097D01*
X35344554Y-1353223D01*
X35102565Y-1155862D01*
X35052741Y-1122759D01*
X35003385Y-1088964D01*
X34995279Y-1084581D01*
X34719566Y-937981D01*
X34664269Y-915189D01*
X34609275Y-891619D01*
X34600472Y-888895D01*
X34301535Y-798641D01*
X34242862Y-787024D01*
X34184345Y-774585D01*
X34175180Y-773622D01*
X33864405Y-743150D01*
X33864402Y-743150D01*
X33832419Y-740000D01*
X31767581Y-740000D01*
X31734014Y-743306D01*
X31713256Y-743306D01*
X31704091Y-744269D01*
X31393771Y-779077D01*
X31335298Y-791506D01*
X31276581Y-803132D01*
X31267778Y-805858D01*
X30970130Y-900277D01*
X30915147Y-923843D01*
X30859841Y-946638D01*
X30851735Y-951021D01*
X30578095Y-1101456D01*
X30528748Y-1135245D01*
X30478913Y-1168355D01*
X30471812Y-1174229D01*
X30232603Y-1374951D01*
X30190759Y-1417681D01*
X30148305Y-1459839D01*
X30142481Y-1466980D01*
X29946814Y-1710340D01*
X29914055Y-1760400D01*
X29880609Y-1809986D01*
X29876283Y-1818123D01*
X29731612Y-2094854D01*
X29709215Y-2150289D01*
X29686022Y-2205461D01*
X29683359Y-2214283D01*
X29595193Y-2513844D01*
X29583993Y-2572560D01*
X29571955Y-2631202D01*
X29571056Y-2640373D01*
X29542755Y-2951353D01*
X10757088Y-2951353D01*
X10757245Y-2929012D01*
X10756345Y-2919841D01*
X10723704Y-2609285D01*
X10711680Y-2550709D01*
X10700468Y-2491930D01*
X10697804Y-2483108D01*
X10605465Y-2184808D01*
X10582280Y-2129653D01*
X10559876Y-2074200D01*
X10555549Y-2066064D01*
X10555549Y-2066063D01*
X10555546Y-2066059D01*
X10407028Y-1791379D01*
X10373583Y-1741795D01*
X10340823Y-1691732D01*
X10334999Y-1684591D01*
X10135954Y-1443987D01*
X10093535Y-1401863D01*
X10051655Y-1359097D01*
X10044554Y-1353223D01*
X9802565Y-1155862D01*
X9752741Y-1122759D01*
X9703385Y-1088964D01*
X9695279Y-1084581D01*
X9419566Y-937981D01*
X9364269Y-915189D01*
X9309275Y-891619D01*
X9300472Y-888895D01*
X9001535Y-798641D01*
X8942862Y-787024D01*
X8884345Y-774585D01*
X8875180Y-773622D01*
X8564405Y-743150D01*
X8564402Y-743150D01*
X8532419Y-740000D01*
X6467581Y-740000D01*
X6434014Y-743306D01*
X6413256Y-743306D01*
X6404091Y-744269D01*
X6093771Y-779077D01*
X6035298Y-791506D01*
X5976581Y-803132D01*
X5967778Y-805858D01*
X5670130Y-900277D01*
X5615147Y-923843D01*
X5559841Y-946638D01*
X5551735Y-951021D01*
X5278095Y-1101456D01*
X5228748Y-1135245D01*
X5178913Y-1168355D01*
X5171812Y-1174229D01*
X4932603Y-1374951D01*
X4890759Y-1417681D01*
X4848305Y-1459839D01*
X4842481Y-1466980D01*
X4646814Y-1710340D01*
X4614055Y-1760400D01*
X4580609Y-1809986D01*
X4576283Y-1818123D01*
X4431612Y-2094854D01*
X4409215Y-2150289D01*
X4386022Y-2205461D01*
X4383359Y-2214283D01*
X4295193Y-2513844D01*
X4283993Y-2572560D01*
X4271955Y-2631202D01*
X4271056Y-2640373D01*
X4242755Y-2951353D01*
X660000Y-2951353D01*
X660000Y-660000D01*
X39640000Y-660000D01*
X39640001Y-127840000D01*
G37*
X39640001Y-127840000D02*
X660000Y-127840000D01*
X660000Y-125451353D01*
X4242755Y-125451353D01*
X4243173Y-125511171D01*
X4242755Y-125570988D01*
X4243655Y-125580160D01*
X4276296Y-125890715D01*
X4288320Y-125949291D01*
X4299532Y-126008070D01*
X4302196Y-126016892D01*
X4394535Y-126315192D01*
X4417715Y-126370335D01*
X4440124Y-126425800D01*
X4444451Y-126433937D01*
X4592972Y-126708621D01*
X4626417Y-126758205D01*
X4659177Y-126808268D01*
X4665001Y-126815409D01*
X4864047Y-127056013D01*
X4906482Y-127098154D01*
X4948346Y-127140903D01*
X4955446Y-127146777D01*
X5197435Y-127344138D01*
X5247259Y-127377241D01*
X5296615Y-127411036D01*
X5304721Y-127415419D01*
X5580435Y-127562019D01*
X5635704Y-127584799D01*
X5690724Y-127608381D01*
X5699527Y-127611105D01*
X5998465Y-127701359D01*
X6057138Y-127712976D01*
X6115655Y-127725415D01*
X6124820Y-127726378D01*
X6435594Y-127756850D01*
X6435598Y-127756850D01*
X6467581Y-127760000D01*
X8532419Y-127760000D01*
X8565986Y-127756694D01*
X8586744Y-127756694D01*
X8595909Y-127755731D01*
X8906228Y-127720923D01*
X8964731Y-127708487D01*
X9023419Y-127696867D01*
X9032222Y-127694142D01*
X9329870Y-127599723D01*
X9384792Y-127576183D01*
X9440159Y-127553363D01*
X9448265Y-127548979D01*
X9721904Y-127398544D01*
X9771217Y-127364779D01*
X9821088Y-127331645D01*
X9828188Y-127325770D01*
X10067397Y-127125049D01*
X10109241Y-127082320D01*
X10151694Y-127040162D01*
X10157519Y-127033020D01*
X10353185Y-126789660D01*
X10385938Y-126739608D01*
X10419391Y-126690013D01*
X10423714Y-126681881D01*
X10423717Y-126681877D01*
X10423719Y-126681873D01*
X10568388Y-126405146D01*
X10590785Y-126349711D01*
X10613978Y-126294539D01*
X10616641Y-126285717D01*
X10704807Y-125986156D01*
X10716007Y-125927440D01*
X10728045Y-125868798D01*
X10728944Y-125859627D01*
X10757245Y-125548647D01*
X10756827Y-125488830D01*
X10757088Y-125451353D01*
X29542755Y-125451353D01*
X29543173Y-125511171D01*
X29542755Y-125570988D01*
X29543655Y-125580160D01*
X29576296Y-125890715D01*
X29588320Y-125949291D01*
X29599532Y-126008070D01*
X29602196Y-126016892D01*
X29694535Y-126315192D01*
X29717715Y-126370335D01*
X29740124Y-126425800D01*
X29744451Y-126433937D01*
X29892972Y-126708621D01*
X29926417Y-126758205D01*
X29959177Y-126808268D01*
X29965001Y-126815409D01*
X30164047Y-127056013D01*
X30206482Y-127098154D01*
X30248346Y-127140903D01*
X30255446Y-127146777D01*
X30497435Y-127344138D01*
X30547259Y-127377241D01*
X30596615Y-127411036D01*
X30604721Y-127415419D01*
X30880435Y-127562019D01*
X30935704Y-127584799D01*
X30990724Y-127608381D01*
X30999527Y-127611105D01*
X31298465Y-127701359D01*
X31357138Y-127712976D01*
X31415655Y-127725415D01*
X31424820Y-127726378D01*
X31735594Y-127756850D01*
X31735598Y-127756850D01*
X31767581Y-127760000D01*
X33832419Y-127760000D01*
X33865986Y-127756694D01*
X33886744Y-127756694D01*
X33895909Y-127755731D01*
X34206228Y-127720923D01*
X34264731Y-127708487D01*
X34323419Y-127696867D01*
X34332222Y-127694142D01*
X34629870Y-127599723D01*
X34684792Y-127576183D01*
X34740159Y-127553363D01*
X34748265Y-127548979D01*
X35021904Y-127398544D01*
X35071217Y-127364779D01*
X35121088Y-127331645D01*
X35128188Y-127325770D01*
X35367397Y-127125049D01*
X35409241Y-127082320D01*
X35451694Y-127040162D01*
X35457519Y-127033020D01*
X35653185Y-126789660D01*
X35685938Y-126739608D01*
X35719391Y-126690013D01*
X35723714Y-126681881D01*
X35723717Y-126681877D01*
X35723719Y-126681873D01*
X35868388Y-126405146D01*
X35890785Y-126349711D01*
X35913978Y-126294539D01*
X35916641Y-126285717D01*
X36004807Y-125986156D01*
X36016007Y-125927440D01*
X36028045Y-125868798D01*
X36028944Y-125859627D01*
X36057245Y-125548647D01*
X36056827Y-125488829D01*
X36057245Y-125429012D01*
X36056345Y-125419841D01*
X36023704Y-125109285D01*
X36011680Y-125050709D01*
X36000468Y-124991930D01*
X35997804Y-124983108D01*
X35905465Y-124684808D01*
X35882280Y-124629653D01*
X35859876Y-124574200D01*
X35855549Y-124566064D01*
X35855549Y-124566063D01*
X35855546Y-124566059D01*
X35707028Y-124291379D01*
X35673583Y-124241795D01*
X35640823Y-124191732D01*
X35634999Y-124184591D01*
X35435954Y-123943987D01*
X35393535Y-123901863D01*
X35351655Y-123859097D01*
X35344554Y-123853223D01*
X35102565Y-123655862D01*
X35052741Y-123622759D01*
X35003385Y-123588964D01*
X34995279Y-123584581D01*
X34719566Y-123437981D01*
X34664269Y-123415189D01*
X34609275Y-123391619D01*
X34600472Y-123388895D01*
X34301535Y-123298641D01*
X34242862Y-123287024D01*
X34184345Y-123274585D01*
X34175180Y-123273622D01*
X33864405Y-123243150D01*
X33864402Y-123243150D01*
X33832419Y-123240000D01*
X31767581Y-123240000D01*
X31734014Y-123243306D01*
X31713256Y-123243306D01*
X31704091Y-123244269D01*
X31393771Y-123279077D01*
X31335298Y-123291506D01*
X31276581Y-123303132D01*
X31267778Y-123305858D01*
X30970130Y-123400277D01*
X30915147Y-123423843D01*
X30859841Y-123446638D01*
X30851735Y-123451021D01*
X30578095Y-123601456D01*
X30528748Y-123635245D01*
X30478913Y-123668355D01*
X30471812Y-123674229D01*
X30232603Y-123874951D01*
X30190759Y-123917681D01*
X30148305Y-123959839D01*
X30142481Y-123966980D01*
X29946814Y-124210340D01*
X29914055Y-124260400D01*
X29880609Y-124309986D01*
X29876283Y-124318123D01*
X29731612Y-124594854D01*
X29709215Y-124650289D01*
X29686022Y-124705461D01*
X29683359Y-124714283D01*
X29595193Y-125013844D01*
X29583993Y-125072560D01*
X29571955Y-125131202D01*
X29571056Y-125140373D01*
X29542755Y-125451353D01*
X10757088Y-125451353D01*
X10757245Y-125429012D01*
X10756345Y-125419841D01*
X10723704Y-125109285D01*
X10711680Y-125050709D01*
X10700468Y-124991930D01*
X10697804Y-124983108D01*
X10605465Y-124684808D01*
X10582280Y-124629653D01*
X10559876Y-124574200D01*
X10555549Y-124566064D01*
X10555549Y-124566063D01*
X10555546Y-124566059D01*
X10407028Y-124291379D01*
X10373583Y-124241795D01*
X10340823Y-124191732D01*
X10334999Y-124184591D01*
X10135954Y-123943987D01*
X10093535Y-123901863D01*
X10051655Y-123859097D01*
X10044554Y-123853223D01*
X9802565Y-123655862D01*
X9752741Y-123622759D01*
X9703385Y-123588964D01*
X9695279Y-123584581D01*
X9419566Y-123437981D01*
X9364269Y-123415189D01*
X9309275Y-123391619D01*
X9300472Y-123388895D01*
X9001535Y-123298641D01*
X8942862Y-123287024D01*
X8884345Y-123274585D01*
X8875180Y-123273622D01*
X8564405Y-123243150D01*
X8564402Y-123243150D01*
X8532419Y-123240000D01*
X6467581Y-123240000D01*
X6434014Y-123243306D01*
X6413256Y-123243306D01*
X6404091Y-123244269D01*
X6093771Y-123279077D01*
X6035298Y-123291506D01*
X5976581Y-123303132D01*
X5967778Y-123305858D01*
X5670130Y-123400277D01*
X5615147Y-123423843D01*
X5559841Y-123446638D01*
X5551735Y-123451021D01*
X5278095Y-123601456D01*
X5228748Y-123635245D01*
X5178913Y-123668355D01*
X5171812Y-123674229D01*
X4932603Y-123874951D01*
X4890759Y-123917681D01*
X4848305Y-123959839D01*
X4842481Y-123966980D01*
X4646814Y-124210340D01*
X4614055Y-124260400D01*
X4580609Y-124309986D01*
X4576283Y-124318123D01*
X4431612Y-124594854D01*
X4409215Y-124650289D01*
X4386022Y-124705461D01*
X4383359Y-124714283D01*
X4295193Y-125013844D01*
X4283993Y-125072560D01*
X4271955Y-125131202D01*
X4271056Y-125140373D01*
X4242755Y-125451353D01*
X660000Y-125451353D01*
X660000Y-56065784D01*
X5341332Y-56065784D01*
X5341332Y-56934216D01*
X5510754Y-57785961D01*
X5843089Y-58588288D01*
X6325564Y-59310362D01*
X6939638Y-59924436D01*
X7661712Y-60406911D01*
X8464039Y-60739246D01*
X9315784Y-60908668D01*
X10184216Y-60908668D01*
X11035961Y-60739246D01*
X11838288Y-60406911D01*
X12560362Y-59924436D01*
X13174436Y-59310362D01*
X13656911Y-58588288D01*
X13989246Y-57785961D01*
X14158668Y-56934216D01*
X14158668Y-56065784D01*
X13989246Y-55214039D01*
X13656911Y-54411712D01*
X13174436Y-53689638D01*
X12560362Y-53075564D01*
X11838288Y-52593089D01*
X11035961Y-52260754D01*
X10184216Y-52091332D01*
X9315784Y-52091332D01*
X8464039Y-52260754D01*
X7661712Y-52593089D01*
X6939638Y-53075564D01*
X6325564Y-53689638D01*
X5843089Y-54411712D01*
X5510754Y-55214039D01*
X5341332Y-56065784D01*
X660000Y-56065784D01*
X660000Y-40315784D01*
X5341332Y-40315784D01*
X5341332Y-41184216D01*
X5510754Y-42035961D01*
X5843089Y-42838288D01*
X6325564Y-43560362D01*
X6939638Y-44174436D01*
X7661712Y-44656911D01*
X8464039Y-44989246D01*
X9315784Y-45158668D01*
X10184216Y-45158668D01*
X11035961Y-44989246D01*
X11838288Y-44656911D01*
X12560362Y-44174436D01*
X13174436Y-43560362D01*
X13656911Y-42838288D01*
X13989246Y-42035961D01*
X14158668Y-41184216D01*
X14158668Y-40315784D01*
X25591332Y-40315784D01*
X25591332Y-41184216D01*
X25760754Y-42035961D01*
X26093089Y-42838288D01*
X26575564Y-43560362D01*
X27189638Y-44174436D01*
X27911712Y-44656911D01*
X28714039Y-44989246D01*
X29565784Y-45158668D01*
X30434216Y-45158668D01*
X31285961Y-44989246D01*
X32088288Y-44656911D01*
X32810362Y-44174436D01*
X33424436Y-43560362D01*
X33906911Y-42838288D01*
X34239246Y-42035961D01*
X34408668Y-41184216D01*
X34408668Y-40315784D01*
X34239246Y-39464039D01*
X33906911Y-38661712D01*
X33424436Y-37939638D01*
X32810362Y-37325564D01*
X32088288Y-36843089D01*
X31285961Y-36510754D01*
X30434216Y-36341332D01*
X29565784Y-36341332D01*
X28714039Y-36510754D01*
X27911712Y-36843089D01*
X27189638Y-37325564D01*
X26575564Y-37939638D01*
X26093089Y-38661712D01*
X25760754Y-39464039D01*
X25591332Y-40315784D01*
X14158668Y-40315784D01*
X13989246Y-39464039D01*
X13656911Y-38661712D01*
X13174436Y-37939638D01*
X12560362Y-37325564D01*
X11838288Y-36843089D01*
X11035961Y-36510754D01*
X10184216Y-36341332D01*
X9315784Y-36341332D01*
X8464039Y-36510754D01*
X7661712Y-36843089D01*
X6939638Y-37325564D01*
X6325564Y-37939638D01*
X5843089Y-38661712D01*
X5510754Y-39464039D01*
X5341332Y-40315784D01*
X660000Y-40315784D01*
X660000Y-24315784D01*
X5341332Y-24315784D01*
X5341332Y-25184216D01*
X5510754Y-26035961D01*
X5843089Y-26838288D01*
X6325564Y-27560362D01*
X6939638Y-28174436D01*
X7661712Y-28656911D01*
X8464039Y-28989246D01*
X9315784Y-29158668D01*
X10184216Y-29158668D01*
X11035961Y-28989246D01*
X11838288Y-28656911D01*
X12560362Y-28174436D01*
X13174436Y-27560362D01*
X13656911Y-26838288D01*
X13989246Y-26035961D01*
X14158668Y-25184216D01*
X14158668Y-24315784D01*
X25591332Y-24315784D01*
X25591332Y-25184216D01*
X25760754Y-26035961D01*
X26093089Y-26838288D01*
X26575564Y-27560362D01*
X27189638Y-28174436D01*
X27911712Y-28656911D01*
X28714039Y-28989246D01*
X29565784Y-29158668D01*
X30434216Y-29158668D01*
X31285961Y-28989246D01*
X32088288Y-28656911D01*
X32810362Y-28174436D01*
X33424436Y-27560362D01*
X33906911Y-26838288D01*
X34239246Y-26035961D01*
X34408668Y-25184216D01*
X34408668Y-24315784D01*
X34239246Y-23464039D01*
X33906911Y-22661712D01*
X33424436Y-21939638D01*
X32810362Y-21325564D01*
X32088288Y-20843089D01*
X31285961Y-20510754D01*
X30434216Y-20341332D01*
X29565784Y-20341332D01*
X28714039Y-20510754D01*
X27911712Y-20843089D01*
X27189638Y-21325564D01*
X26575564Y-21939638D01*
X26093089Y-22661712D01*
X25760754Y-23464039D01*
X25591332Y-24315784D01*
X14158668Y-24315784D01*
X13989246Y-23464039D01*
X13656911Y-22661712D01*
X13174436Y-21939638D01*
X12560362Y-21325564D01*
X11838288Y-20843089D01*
X11035961Y-20510754D01*
X10184216Y-20341332D01*
X9315784Y-20341332D01*
X8464039Y-20510754D01*
X7661712Y-20843089D01*
X6939638Y-21325564D01*
X6325564Y-21939638D01*
X5843089Y-22661712D01*
X5510754Y-23464039D01*
X5341332Y-24315784D01*
X660000Y-24315784D01*
X660000Y-2951353D01*
X4242755Y-2951353D01*
X4243173Y-3011171D01*
X4242755Y-3070988D01*
X4243655Y-3080160D01*
X4276296Y-3390715D01*
X4288320Y-3449291D01*
X4299532Y-3508070D01*
X4302196Y-3516892D01*
X4394535Y-3815192D01*
X4417715Y-3870335D01*
X4440124Y-3925800D01*
X4444451Y-3933937D01*
X4592972Y-4208621D01*
X4626417Y-4258205D01*
X4659177Y-4308268D01*
X4665001Y-4315409D01*
X4864047Y-4556013D01*
X4906482Y-4598154D01*
X4948346Y-4640903D01*
X4955446Y-4646777D01*
X5197435Y-4844138D01*
X5247259Y-4877241D01*
X5296615Y-4911036D01*
X5304721Y-4915419D01*
X5580435Y-5062019D01*
X5635704Y-5084799D01*
X5690724Y-5108381D01*
X5699527Y-5111105D01*
X5998465Y-5201359D01*
X6057138Y-5212976D01*
X6115655Y-5225415D01*
X6124820Y-5226378D01*
X6435594Y-5256850D01*
X6435598Y-5256850D01*
X6467581Y-5260000D01*
X8532419Y-5260000D01*
X8565986Y-5256694D01*
X8586744Y-5256694D01*
X8595909Y-5255731D01*
X8906228Y-5220923D01*
X8964731Y-5208487D01*
X9023419Y-5196867D01*
X9032222Y-5194142D01*
X9329870Y-5099723D01*
X9384792Y-5076183D01*
X9440159Y-5053363D01*
X9448265Y-5048979D01*
X9721904Y-4898544D01*
X9771217Y-4864779D01*
X9821088Y-4831645D01*
X9828188Y-4825770D01*
X10067397Y-4625049D01*
X10109241Y-4582320D01*
X10151694Y-4540162D01*
X10157519Y-4533020D01*
X10353185Y-4289660D01*
X10385938Y-4239608D01*
X10419391Y-4190013D01*
X10423714Y-4181881D01*
X10423717Y-4181877D01*
X10423719Y-4181873D01*
X10568388Y-3905146D01*
X10590785Y-3849711D01*
X10613978Y-3794539D01*
X10616641Y-3785717D01*
X10704807Y-3486156D01*
X10716007Y-3427440D01*
X10728045Y-3368798D01*
X10728944Y-3359627D01*
X10757245Y-3048647D01*
X10756827Y-2988830D01*
X10757088Y-2951353D01*
X29542755Y-2951353D01*
X29543173Y-3011171D01*
X29542755Y-3070988D01*
X29543655Y-3080160D01*
X29576296Y-3390715D01*
X29588320Y-3449291D01*
X29599532Y-3508070D01*
X29602196Y-3516892D01*
X29694535Y-3815192D01*
X29717715Y-3870335D01*
X29740124Y-3925800D01*
X29744451Y-3933937D01*
X29892972Y-4208621D01*
X29926417Y-4258205D01*
X29959177Y-4308268D01*
X29965001Y-4315409D01*
X30164047Y-4556013D01*
X30206482Y-4598154D01*
X30248346Y-4640903D01*
X30255446Y-4646777D01*
X30497435Y-4844138D01*
X30547259Y-4877241D01*
X30596615Y-4911036D01*
X30604721Y-4915419D01*
X30880435Y-5062019D01*
X30935704Y-5084799D01*
X30990724Y-5108381D01*
X30999527Y-5111105D01*
X31298465Y-5201359D01*
X31357138Y-5212976D01*
X31415655Y-5225415D01*
X31424820Y-5226378D01*
X31735594Y-5256850D01*
X31735598Y-5256850D01*
X31767581Y-5260000D01*
X33832419Y-5260000D01*
X33865986Y-5256694D01*
X33886744Y-5256694D01*
X33895909Y-5255731D01*
X34206228Y-5220923D01*
X34264731Y-5208487D01*
X34323419Y-5196867D01*
X34332222Y-5194142D01*
X34629870Y-5099723D01*
X34684792Y-5076183D01*
X34740159Y-5053363D01*
X34748265Y-5048979D01*
X35021904Y-4898544D01*
X35071217Y-4864779D01*
X35121088Y-4831645D01*
X35128188Y-4825770D01*
X35367397Y-4625049D01*
X35409241Y-4582320D01*
X35451694Y-4540162D01*
X35457519Y-4533020D01*
X35653185Y-4289660D01*
X35685938Y-4239608D01*
X35719391Y-4190013D01*
X35723714Y-4181881D01*
X35723717Y-4181877D01*
X35723719Y-4181873D01*
X35868388Y-3905146D01*
X35890785Y-3849711D01*
X35913978Y-3794539D01*
X35916641Y-3785717D01*
X36004807Y-3486156D01*
X36016007Y-3427440D01*
X36028045Y-3368798D01*
X36028944Y-3359627D01*
X36057245Y-3048647D01*
X36056827Y-2988829D01*
X36057245Y-2929012D01*
X36056345Y-2919841D01*
X36023704Y-2609285D01*
X36011680Y-2550709D01*
X36000468Y-2491930D01*
X35997804Y-2483108D01*
X35905465Y-2184808D01*
X35882280Y-2129653D01*
X35859876Y-2074200D01*
X35855549Y-2066064D01*
X35855549Y-2066063D01*
X35855546Y-2066059D01*
X35707028Y-1791379D01*
X35673583Y-1741795D01*
X35640823Y-1691732D01*
X35634999Y-1684591D01*
X35435954Y-1443987D01*
X35393535Y-1401863D01*
X35351655Y-1359097D01*
X35344554Y-1353223D01*
X35102565Y-1155862D01*
X35052741Y-1122759D01*
X35003385Y-1088964D01*
X34995279Y-1084581D01*
X34719566Y-937981D01*
X34664269Y-915189D01*
X34609275Y-891619D01*
X34600472Y-888895D01*
X34301535Y-798641D01*
X34242862Y-787024D01*
X34184345Y-774585D01*
X34175180Y-773622D01*
X33864405Y-743150D01*
X33864402Y-743150D01*
X33832419Y-740000D01*
X31767581Y-740000D01*
X31734014Y-743306D01*
X31713256Y-743306D01*
X31704091Y-744269D01*
X31393771Y-779077D01*
X31335298Y-791506D01*
X31276581Y-803132D01*
X31267778Y-805858D01*
X30970130Y-900277D01*
X30915147Y-923843D01*
X30859841Y-946638D01*
X30851735Y-951021D01*
X30578095Y-1101456D01*
X30528748Y-1135245D01*
X30478913Y-1168355D01*
X30471812Y-1174229D01*
X30232603Y-1374951D01*
X30190759Y-1417681D01*
X30148305Y-1459839D01*
X30142481Y-1466980D01*
X29946814Y-1710340D01*
X29914055Y-1760400D01*
X29880609Y-1809986D01*
X29876283Y-1818123D01*
X29731612Y-2094854D01*
X29709215Y-2150289D01*
X29686022Y-2205461D01*
X29683359Y-2214283D01*
X29595193Y-2513844D01*
X29583993Y-2572560D01*
X29571955Y-2631202D01*
X29571056Y-2640373D01*
X29542755Y-2951353D01*
X10757088Y-2951353D01*
X10757245Y-2929012D01*
X10756345Y-2919841D01*
X10723704Y-2609285D01*
X10711680Y-2550709D01*
X10700468Y-2491930D01*
X10697804Y-2483108D01*
X10605465Y-2184808D01*
X10582280Y-2129653D01*
X10559876Y-2074200D01*
X10555549Y-2066064D01*
X10555549Y-2066063D01*
X10555546Y-2066059D01*
X10407028Y-1791379D01*
X10373583Y-1741795D01*
X10340823Y-1691732D01*
X10334999Y-1684591D01*
X10135954Y-1443987D01*
X10093535Y-1401863D01*
X10051655Y-1359097D01*
X10044554Y-1353223D01*
X9802565Y-1155862D01*
X9752741Y-1122759D01*
X9703385Y-1088964D01*
X9695279Y-1084581D01*
X9419566Y-937981D01*
X9364269Y-915189D01*
X9309275Y-891619D01*
X9300472Y-888895D01*
X9001535Y-798641D01*
X8942862Y-787024D01*
X8884345Y-774585D01*
X8875180Y-773622D01*
X8564405Y-743150D01*
X8564402Y-743150D01*
X8532419Y-740000D01*
X6467581Y-740000D01*
X6434014Y-743306D01*
X6413256Y-743306D01*
X6404091Y-744269D01*
X6093771Y-779077D01*
X6035298Y-791506D01*
X5976581Y-803132D01*
X5967778Y-805858D01*
X5670130Y-900277D01*
X5615147Y-923843D01*
X5559841Y-946638D01*
X5551735Y-951021D01*
X5278095Y-1101456D01*
X5228748Y-1135245D01*
X5178913Y-1168355D01*
X5171812Y-1174229D01*
X4932603Y-1374951D01*
X4890759Y-1417681D01*
X4848305Y-1459839D01*
X4842481Y-1466980D01*
X4646814Y-1710340D01*
X4614055Y-1760400D01*
X4580609Y-1809986D01*
X4576283Y-1818123D01*
X4431612Y-2094854D01*
X4409215Y-2150289D01*
X4386022Y-2205461D01*
X4383359Y-2214283D01*
X4295193Y-2513844D01*
X4283993Y-2572560D01*
X4271955Y-2631202D01*
X4271056Y-2640373D01*
X4242755Y-2951353D01*
X660000Y-2951353D01*
X660000Y-660000D01*
X39640000Y-660000D01*
X39640001Y-127840000D01*
M02*
