G04 #@! TF.GenerationSoftware,KiCad,Pcbnew,(5.1.5-0)*
G04 #@! TF.CreationDate,2021-01-12T22:51:54-08:00*
G04 #@! TF.ProjectId,slygrogan,736c7967-726f-4676-916e-2e6b69636164,rev?*
G04 #@! TF.SameCoordinates,Original*
G04 #@! TF.FileFunction,Soldermask,Top*
G04 #@! TF.FilePolarity,Negative*
%FSLAX46Y46*%
G04 Gerber Fmt 4.6, Leading zero omitted, Abs format (unit mm)*
G04 Created by KiCad (PCBNEW (5.1.5-0)) date 2021-01-12 22:51:54*
%MOMM*%
%LPD*%
G04 APERTURE LIST*
%ADD10C,2.000000*%
%ADD11C,1.000000*%
%ADD12C,0.100000*%
%ADD13C,0.000002*%
%ADD14C,0.001000*%
G04 APERTURE END LIST*
D10*
X35000000Y-82000000D02*
X5000000Y-82000000D01*
D11*
X32000000Y-56500000D02*
G75*
G03X32000000Y-56500000I-2000000J0D01*
G01*
D10*
X35000000Y-97500000D02*
X5000000Y-97500000D01*
D12*
G36*
X20660400Y-123947650D02*
G01*
X21212850Y-124227050D01*
X21539875Y-124554075D01*
X21674813Y-124784263D01*
X21906588Y-125054138D01*
X21600200Y-124970000D01*
X21346200Y-124893800D01*
X21168400Y-124830300D01*
X20793750Y-124696950D01*
X20434975Y-124503275D01*
X20174625Y-124217525D01*
X20050800Y-124055600D01*
X20114300Y-124093700D01*
X20088900Y-124030200D01*
X20152400Y-123858750D01*
X20660400Y-123947650D01*
G37*
X20660400Y-123947650D02*
X21212850Y-124227050D01*
X21539875Y-124554075D01*
X21674813Y-124784263D01*
X21906588Y-125054138D01*
X21600200Y-124970000D01*
X21346200Y-124893800D01*
X21168400Y-124830300D01*
X20793750Y-124696950D01*
X20434975Y-124503275D01*
X20174625Y-124217525D01*
X20050800Y-124055600D01*
X20114300Y-124093700D01*
X20088900Y-124030200D01*
X20152400Y-123858750D01*
X20660400Y-123947650D01*
G36*
X19866650Y-123966700D02*
G01*
X19498350Y-124398500D01*
X19060200Y-124671550D01*
X18679200Y-124811250D01*
X17929900Y-124976350D01*
X18412500Y-124449300D01*
X18806200Y-124182600D01*
X19174500Y-123979400D01*
X19644400Y-123903200D01*
X19669800Y-123903200D01*
X19866650Y-123966700D01*
G37*
X19866650Y-123966700D02*
X19498350Y-124398500D01*
X19060200Y-124671550D01*
X18679200Y-124811250D01*
X17929900Y-124976350D01*
X18412500Y-124449300D01*
X18806200Y-124182600D01*
X19174500Y-123979400D01*
X19644400Y-123903200D01*
X19669800Y-123903200D01*
X19866650Y-123966700D01*
G36*
X23073400Y-122938000D02*
G01*
X23505200Y-122963400D01*
X24083207Y-122973943D01*
X23403600Y-123128500D01*
X22971800Y-123319000D01*
X22628900Y-123534900D01*
X22209800Y-123700000D01*
X21676400Y-123788900D01*
X21231900Y-123814300D01*
X20654050Y-123795250D01*
X20076200Y-123776200D01*
X20012700Y-123700000D01*
X20228600Y-123636500D01*
X20235585Y-123585700D01*
X20551815Y-123458700D01*
X21085850Y-123230100D01*
X21638300Y-123026900D01*
X22032000Y-122912600D01*
X22476500Y-122912600D01*
X23073400Y-122938000D01*
G37*
X23073400Y-122938000D02*
X23505200Y-122963400D01*
X24083207Y-122973943D01*
X23403600Y-123128500D01*
X22971800Y-123319000D01*
X22628900Y-123534900D01*
X22209800Y-123700000D01*
X21676400Y-123788900D01*
X21231900Y-123814300D01*
X20654050Y-123795250D01*
X20076200Y-123776200D01*
X20012700Y-123700000D01*
X20228600Y-123636500D01*
X20235585Y-123585700D01*
X20551815Y-123458700D01*
X21085850Y-123230100D01*
X21638300Y-123026900D01*
X22032000Y-122912600D01*
X22476500Y-122912600D01*
X23073400Y-122938000D01*
G36*
X23060700Y-120283700D02*
G01*
X22819400Y-120779000D01*
X22616200Y-121236200D01*
X22355850Y-121756900D01*
X22082800Y-122112500D01*
X21771650Y-122525250D01*
X21301750Y-122918950D01*
X20800100Y-123255500D01*
X19695200Y-123852400D01*
X19720600Y-123522200D01*
X20025400Y-123471400D01*
X20273050Y-123033250D01*
X20488950Y-122569700D01*
X20654050Y-122239500D01*
X20838200Y-121947400D01*
X21003300Y-121629900D01*
X21282700Y-121274300D01*
X21562100Y-120956800D01*
X21892300Y-120664700D01*
X22235200Y-120436100D01*
X22616200Y-120182100D01*
X23009900Y-119915400D01*
X23543300Y-119521700D01*
X23060700Y-120283700D01*
G37*
X23060700Y-120283700D02*
X22819400Y-120779000D01*
X22616200Y-121236200D01*
X22355850Y-121756900D01*
X22082800Y-122112500D01*
X21771650Y-122525250D01*
X21301750Y-122918950D01*
X20800100Y-123255500D01*
X19695200Y-123852400D01*
X19720600Y-123522200D01*
X20025400Y-123471400D01*
X20273050Y-123033250D01*
X20488950Y-122569700D01*
X20654050Y-122239500D01*
X20838200Y-121947400D01*
X21003300Y-121629900D01*
X21282700Y-121274300D01*
X21562100Y-120956800D01*
X21892300Y-120664700D01*
X22235200Y-120436100D01*
X22616200Y-120182100D01*
X23009900Y-119915400D01*
X23543300Y-119521700D01*
X23060700Y-120283700D01*
G36*
X20215900Y-118150100D02*
G01*
X20317500Y-118632700D01*
X20431800Y-119089900D01*
X20514350Y-119420100D01*
X20577850Y-119801100D01*
X20622300Y-120321800D01*
X20622300Y-120855200D01*
X20571500Y-121439400D01*
X20508000Y-121960100D01*
X20365125Y-122455400D01*
X20066675Y-123471400D01*
X19853950Y-123420600D01*
X19619000Y-122506200D01*
X19445962Y-121642600D01*
X19461837Y-120855200D01*
X19514225Y-120194800D01*
X19676150Y-119420100D01*
X19911100Y-118607300D01*
X20038100Y-117832600D01*
X20101600Y-117311900D01*
X20215900Y-118150100D01*
G37*
X20215900Y-118150100D02*
X20317500Y-118632700D01*
X20431800Y-119089900D01*
X20514350Y-119420100D01*
X20577850Y-119801100D01*
X20622300Y-120321800D01*
X20622300Y-120855200D01*
X20571500Y-121439400D01*
X20508000Y-121960100D01*
X20365125Y-122455400D01*
X20066675Y-123471400D01*
X19853950Y-123420600D01*
X19619000Y-122506200D01*
X19445962Y-121642600D01*
X19461837Y-120855200D01*
X19514225Y-120194800D01*
X19676150Y-119420100D01*
X19911100Y-118607300D01*
X20038100Y-117832600D01*
X20101600Y-117311900D01*
X20215900Y-118150100D01*
G36*
X16596400Y-119724900D02*
G01*
X16913900Y-119966200D01*
X17479050Y-120283700D01*
X18075950Y-120715500D01*
X18450600Y-121096500D01*
X18850650Y-121661650D01*
X19447550Y-122842750D01*
X19746000Y-123407900D01*
X19758700Y-123420600D01*
X19428500Y-123446000D01*
X19326900Y-123395200D01*
X18971300Y-123147550D01*
X18564900Y-122779250D01*
X18234700Y-122430000D01*
X17879100Y-121998200D01*
X17599700Y-121579100D01*
X17409200Y-121325100D01*
X17155200Y-120867900D01*
X16901200Y-120499600D01*
X16659900Y-120080500D01*
X16380500Y-119521700D01*
X16596400Y-119724900D01*
G37*
X16596400Y-119724900D02*
X16913900Y-119966200D01*
X17479050Y-120283700D01*
X18075950Y-120715500D01*
X18450600Y-121096500D01*
X18850650Y-121661650D01*
X19447550Y-122842750D01*
X19746000Y-123407900D01*
X19758700Y-123420600D01*
X19428500Y-123446000D01*
X19326900Y-123395200D01*
X18971300Y-123147550D01*
X18564900Y-122779250D01*
X18234700Y-122430000D01*
X17879100Y-121998200D01*
X17599700Y-121579100D01*
X17409200Y-121325100D01*
X17155200Y-120867900D01*
X16901200Y-120499600D01*
X16659900Y-120080500D01*
X16380500Y-119521700D01*
X16596400Y-119724900D01*
G36*
X18002925Y-122903075D02*
G01*
X18339475Y-122998325D01*
X18603000Y-123090400D01*
X19301500Y-123496800D01*
X19331980Y-123524740D01*
X19339600Y-123509500D01*
X19339600Y-123522200D01*
X19331980Y-123524740D01*
X19250700Y-123687300D01*
X19644400Y-123827000D01*
X19434850Y-123852400D01*
X19041150Y-123877800D01*
X18564900Y-123877800D01*
X18120400Y-123814300D01*
X17637800Y-123700000D01*
X17244100Y-123585700D01*
X16837700Y-123357100D01*
X16520200Y-123128500D01*
X16113800Y-123001500D01*
X16761500Y-122950700D01*
X17294900Y-122912600D01*
X17758450Y-122906250D01*
X18002925Y-122903075D01*
G37*
X18002925Y-122903075D02*
X18339475Y-122998325D01*
X18603000Y-123090400D01*
X19301500Y-123496800D01*
X19331980Y-123524740D01*
X19339600Y-123509500D01*
X19339600Y-123522200D01*
X19331980Y-123524740D01*
X19250700Y-123687300D01*
X19644400Y-123827000D01*
X19434850Y-123852400D01*
X19041150Y-123877800D01*
X18564900Y-123877800D01*
X18120400Y-123814300D01*
X17637800Y-123700000D01*
X17244100Y-123585700D01*
X16837700Y-123357100D01*
X16520200Y-123128500D01*
X16113800Y-123001500D01*
X16761500Y-122950700D01*
X17294900Y-122912600D01*
X17758450Y-122906250D01*
X18002925Y-122903075D01*
G36*
X20000000Y-123484100D02*
G01*
X19788862Y-123677775D01*
X20007937Y-123773025D01*
X20758825Y-124315950D01*
X20577850Y-124411200D01*
X20000000Y-123954000D01*
X20012700Y-125046200D01*
X19898400Y-124906500D01*
X19892050Y-124017500D01*
X19936500Y-124017500D01*
X19555500Y-123801600D01*
X19269750Y-123649200D01*
X19434850Y-123369800D01*
X20000000Y-123484100D01*
G37*
X20000000Y-123484100D02*
X19788862Y-123677775D01*
X20007937Y-123773025D01*
X20758825Y-124315950D01*
X20577850Y-124411200D01*
X20000000Y-123954000D01*
X20012700Y-125046200D01*
X19898400Y-124906500D01*
X19892050Y-124017500D01*
X19936500Y-124017500D01*
X19555500Y-123801600D01*
X19269750Y-123649200D01*
X19434850Y-123369800D01*
X20000000Y-123484100D01*
D13*
X19479586Y-121796968D02*
X19486414Y-121863404D01*
X16060628Y-122985206D02*
G75*
G02X16062745Y-122980474I8833J-1112D01*
G01*
X16062745Y-122980475D02*
G75*
G02X16067170Y-122977659I6961J-6056D01*
G01*
X16067171Y-122977659D02*
G75*
G02X16076272Y-122975641I21302J-74534D01*
G01*
X16119176Y-122969928D02*
X16076272Y-122975641D01*
X16175382Y-122964579D02*
X16119176Y-122969928D01*
X16249523Y-122959059D02*
X16175382Y-122964579D01*
X16350810Y-122952773D02*
X16249523Y-122959059D01*
X16464250Y-122945535D02*
X16350810Y-122952773D01*
X16555159Y-122938329D02*
X16464250Y-122945535D01*
X16635946Y-122930142D02*
X16555159Y-122938329D01*
X16717522Y-122919967D02*
X16635946Y-122930142D01*
X16795588Y-122910763D02*
X16717522Y-122919967D01*
X16894548Y-122901810D02*
X16795588Y-122910763D01*
X17002731Y-122893949D02*
X16894548Y-122901810D01*
X17110022Y-122888039D02*
X17002731Y-122893949D01*
X17158893Y-122885783D02*
X17110022Y-122888039D01*
X17228084Y-122882592D02*
X17158893Y-122885783D01*
X17303746Y-122879104D02*
X17228084Y-122882592D01*
X17375022Y-122875821D02*
X17303746Y-122879104D01*
X17542892Y-122868843D02*
X17375022Y-122875821D01*
X17717753Y-122863052D02*
X17542892Y-122868843D01*
X17891324Y-122858069D02*
X17717753Y-122863052D01*
X17891324Y-122858069D02*
G75*
G02X17900393Y-122860507I462J-16364D01*
G01*
X17903889Y-122861762D02*
G75*
G02X17900393Y-122860507I1209J8867D01*
G01*
X17919388Y-122863775D02*
X17903889Y-122861762D01*
X17937771Y-122865819D02*
X17919388Y-122863775D01*
X17958715Y-122867713D02*
X17937771Y-122865819D01*
X19470054Y-121687481D02*
X19472649Y-121717124D01*
X20612378Y-123847086D02*
X20657522Y-123850622D01*
X20563537Y-123843388D02*
X20612378Y-123847086D01*
X20518194Y-123840058D02*
X20563537Y-123843388D01*
X20485022Y-123837755D02*
X20518194Y-123840058D01*
X20453615Y-123835486D02*
X20485022Y-123837755D01*
X20414584Y-123832326D02*
X20453615Y-123835486D01*
X20374606Y-123828849D02*
X20414584Y-123832326D01*
X20340022Y-123825579D02*
X20374606Y-123828849D01*
X20278512Y-123820402D02*
X20340022Y-123825579D01*
X20226901Y-123818134D02*
X20278512Y-123820402D01*
X18831364Y-121580665D02*
X18702584Y-121373051D01*
X18960123Y-121810277D02*
X18831364Y-121580665D01*
X20263811Y-123844985D02*
X20225611Y-123837712D01*
X20301820Y-123851668D02*
X20263811Y-123844985D01*
X20327522Y-123855429D02*
X20301820Y-123851668D01*
X20327522Y-123855429D02*
G75*
G02X20415850Y-123871576I-96572J-777952D01*
G01*
X20542223Y-123904860D02*
X20415850Y-123871576D01*
X20681550Y-123947366D02*
X20542223Y-123904860D01*
X20815022Y-123994009D02*
X20681550Y-123947366D01*
X20858649Y-124011046D02*
X20815022Y-123994009D01*
X20904637Y-124030487D02*
X20858649Y-124011046D01*
X20952079Y-124051930D02*
X20904637Y-124030487D01*
X21000085Y-124074987D02*
X20952079Y-124051930D01*
X21000085Y-124074988D02*
G75*
G02X21152408Y-124162179I-639105J-1293158D01*
G01*
X19600081Y-122547260D02*
X19602098Y-122557528D01*
X22620021Y-121215299D02*
G75*
G02X22619743Y-121216562I-3003J0D01*
G01*
X22611209Y-121234952D02*
X22619743Y-121216562D01*
X22601523Y-121255632D02*
X22611209Y-121234952D01*
X22590022Y-121279870D02*
X22601523Y-121255632D01*
X22578521Y-121304146D02*
X22590022Y-121279870D01*
X22568834Y-121324951D02*
X22578521Y-121304146D01*
X22560385Y-121343329D02*
X22568834Y-121324951D01*
X22560021Y-121344995D02*
G75*
G02X22560385Y-121343329I3995J0D01*
G01*
X22560021Y-121344995D02*
G75*
G02X22559292Y-121348297I-7840J0D01*
G01*
X22520677Y-121431421D02*
X22559292Y-121348297D01*
X22477758Y-121523339D02*
X22520677Y-121431421D01*
X22427442Y-121630277D02*
X22477758Y-121523339D01*
X22404537Y-121678174D02*
X22427442Y-121630277D01*
X22376801Y-121734980D02*
X22404537Y-121678174D01*
X22347730Y-121793998D02*
X22376801Y-121734980D01*
X22347731Y-121793997D02*
G75*
G02X22345022Y-121797777I-12801J6311D01*
G01*
X22343589Y-121799614D02*
G75*
G02X22345022Y-121797777I8150J-4881D01*
G01*
X22340177Y-121805418D02*
X22343588Y-121799615D01*
X22336238Y-121812435D02*
X22340177Y-121805418D01*
X22332041Y-121820277D02*
X22336238Y-121812435D01*
X22323008Y-121837116D02*
X22332041Y-121820277D01*
X22312309Y-121856309D02*
X22323008Y-121837116D01*
X22301117Y-121875799D02*
X22312309Y-121856309D01*
X22290563Y-121893576D02*
X22301117Y-121875799D01*
X22286359Y-121900601D02*
X22290563Y-121893576D01*
X22279895Y-121911546D02*
X22286359Y-121900601D01*
X22272630Y-121923921D02*
X22279895Y-121911546D01*
X22265538Y-121936076D02*
X22272630Y-121923921D01*
X22265539Y-121936076D02*
G75*
G02X22176513Y-122074537I-1594117J927112D01*
G01*
X22060765Y-122228716D02*
X22176513Y-122074537D01*
X21929379Y-122385115D02*
X22060765Y-122228716D01*
X21792561Y-122530767D02*
X21929379Y-122385115D01*
X21792561Y-122530767D02*
G75*
G02X21512462Y-122788051I-2992746J2977019D01*
G01*
X21202444Y-123026945D02*
X21512462Y-122788051D01*
X20846530Y-123258868D02*
X21202444Y-123026945D01*
X20427522Y-123495384D02*
X20846530Y-123258868D01*
X20407210Y-123506206D02*
X20427522Y-123495384D01*
X20383256Y-123519049D02*
X20407210Y-123506206D01*
X20359541Y-123531825D02*
X20383256Y-123519049D01*
X20340022Y-123542411D02*
X20359541Y-123531825D01*
X20322766Y-123551769D02*
X20340022Y-123542411D01*
X20306062Y-123560749D02*
X20322766Y-123551769D01*
X20291782Y-123568359D02*
X20306062Y-123560749D01*
X20284097Y-123572337D02*
X20291782Y-123568359D01*
X20267847Y-123582144D02*
G75*
G02X20284097Y-123572337I73169J-102870D01*
G01*
X20251467Y-123595234D02*
G75*
G02X20267847Y-123582145I125077J-139731D01*
G01*
X20238112Y-123608375D02*
G75*
G02X20251467Y-123595234I145858J-134885D01*
G01*
X20235021Y-123616267D02*
G75*
G02X20238111Y-123608375I11624J0D01*
G01*
X20235871Y-123619781D02*
G75*
G02X20235022Y-123616267I6849J3514D01*
G01*
X20238155Y-123621737D02*
G75*
G02X20235870Y-123619780I1247J3768D01*
G01*
X20242397Y-123622198D02*
G75*
G02X20238155Y-123621737I-1044J10127D01*
G01*
X20249641Y-123621103D02*
G75*
G02X20242398Y-123622199I-15184J75919D01*
G01*
X20268149Y-123615366D02*
G75*
G02X20249641Y-123621104I-36945J86448D01*
G01*
X20328992Y-123589023D02*
X20268149Y-123615366D01*
X20396972Y-123558528D02*
X20328992Y-123589023D01*
X20465022Y-123526643D02*
X20396972Y-123558528D01*
X20488044Y-123515656D02*
X20465022Y-123526643D01*
X20513850Y-123503400D02*
X20488044Y-123515656D01*
X20538478Y-123491750D02*
X20513850Y-123503400D01*
X20557522Y-123482798D02*
X20538478Y-123491750D01*
X20577497Y-123473393D02*
X20557522Y-123482798D01*
X20605600Y-123460054D02*
X20577497Y-123473393D01*
X20636247Y-123445444D02*
X20605600Y-123460054D01*
X20665022Y-123431661D02*
X20636247Y-123445444D01*
X20719936Y-123405361D02*
X20665022Y-123431661D01*
X20761702Y-123385535D02*
X20719936Y-123405361D01*
X20796707Y-123369148D02*
X20761702Y-123385535D01*
X20830022Y-123353816D02*
X20796707Y-123369148D01*
X20865354Y-123337574D02*
X20830022Y-123353816D01*
X20931774Y-123306749D02*
X20865354Y-123337574D01*
X20999694Y-123275132D02*
X20931774Y-123306749D01*
X21047522Y-123252733D02*
X20999694Y-123275132D01*
X21194502Y-123184657D02*
X21047522Y-123252733D01*
X21345333Y-123116903D02*
X21194502Y-123184657D01*
X21483653Y-123056658D02*
X21345333Y-123116903D01*
X21590022Y-123012680D02*
X21483653Y-123056658D01*
X21643337Y-122991611D02*
X21590022Y-123012680D01*
X21678135Y-122978359D02*
X21643337Y-122991611D01*
X21707932Y-122967769D02*
X21678135Y-122978359D01*
X21742522Y-122956289D02*
X21707932Y-122967769D01*
X21801620Y-122938467D02*
X21742522Y-122956289D01*
X21863071Y-122922384D02*
X21801620Y-122938467D01*
X21924574Y-122908597D02*
X21863071Y-122922384D01*
X21983822Y-122897669D02*
X21924574Y-122908597D01*
X22025789Y-122891782D02*
X21983822Y-122897669D01*
X22061324Y-122888975D02*
X22025789Y-122891782D01*
X22105896Y-122888261D02*
X22061324Y-122888975D01*
X22186322Y-122889370D02*
X22105896Y-122888261D01*
X22243234Y-122890735D02*
X22186322Y-122889370D01*
X22301607Y-122892737D02*
X22243234Y-122890735D01*
X22353546Y-122895032D02*
X22301607Y-122892737D01*
X22387522Y-122897267D02*
X22353546Y-122895032D01*
X22418287Y-122899702D02*
X22387522Y-122897267D01*
X22457662Y-122902627D02*
X22418287Y-122899702D01*
X22498691Y-122905545D02*
X22457662Y-122902627D01*
X22535022Y-122907990D02*
X22498691Y-122905545D01*
X22572057Y-122910418D02*
X22535022Y-122907990D01*
X22615318Y-122913293D02*
X22572057Y-122910418D01*
X22657867Y-122916150D02*
X22615318Y-122913293D01*
X22692522Y-122918510D02*
X22657867Y-122916150D01*
X22745145Y-122920680D02*
X22692522Y-122918510D01*
X22937897Y-122923130D02*
X22745145Y-122920680D01*
X23166132Y-122925346D02*
X22937897Y-122923130D01*
X23422522Y-122926997D02*
X23166132Y-122925346D01*
X23760194Y-122928974D02*
X23422522Y-122926997D01*
X23946598Y-122930953D02*
X23760194Y-122928974D01*
X24075267Y-122933028D02*
X23946598Y-122930953D01*
X24075267Y-122933028D02*
G75*
G02X24088772Y-122936729I-500J-28318D01*
G01*
X24088772Y-122936728D02*
G75*
G02X24097766Y-122945160I-13045J-22929D01*
G01*
X24097766Y-122945160D02*
G75*
G02X24100023Y-122955412I-12281J-8079D01*
G01*
X24100023Y-122955413D02*
G75*
G02X24094871Y-122965674I-18220J2725D01*
G01*
X24094870Y-122965673D02*
G75*
G02X24083207Y-122973943I-29662J29474D01*
G01*
X24083208Y-122973944D02*
G75*
G02X24065174Y-122981131I-63623J133418D01*
G01*
X24000776Y-123001805D02*
X24065174Y-122981131D01*
X23938093Y-123021392D02*
X24000776Y-123001805D01*
X23902522Y-123031377D02*
X23938093Y-123021392D01*
X23773171Y-123068169D02*
X23902522Y-123031377D01*
X23598786Y-123125203D02*
X23773171Y-123068169D01*
X23419767Y-123188251D02*
X23598786Y-123125203D01*
X23272522Y-123245274D02*
X23419767Y-123188251D01*
X23149199Y-123298078D02*
X23272522Y-123245274D01*
X23003927Y-123364591D02*
X23149199Y-123298078D01*
X22862600Y-123432490D02*
X23003927Y-123364591D01*
X22752522Y-123489199D02*
X22862600Y-123432490D01*
X22618504Y-123560433D02*
X22752522Y-123489199D01*
X22533440Y-123602696D02*
X22618504Y-123560433D01*
X22458987Y-123635131D02*
X22533440Y-123602696D01*
X22367522Y-123670178D02*
X22458987Y-123635131D01*
X22292423Y-123697307D02*
X22367522Y-123670178D01*
X22252851Y-123710723D02*
X22292423Y-123697307D01*
X22213400Y-123722598D02*
X22252851Y-123710723D01*
X22140022Y-123743034D02*
X22213400Y-123722598D01*
X22020804Y-123772545D02*
X22140022Y-123743034D01*
X21883620Y-123800279D02*
X22020804Y-123772545D01*
X21745884Y-123823156D02*
X21883620Y-123800279D01*
X21625022Y-123837838D02*
X21745884Y-123823156D01*
X21601013Y-123840138D02*
X21625022Y-123837838D01*
X21566506Y-123843487D02*
X21601013Y-123840138D01*
X21528547Y-123847195D02*
X21566506Y-123843487D01*
X21492522Y-123850739D02*
X21528547Y-123847195D01*
X21358935Y-123858145D02*
X21492522Y-123850739D01*
X21086190Y-123859806D02*
X21358935Y-123858145D01*
X20813070Y-123857895D02*
X21086190Y-123859806D01*
X20657522Y-123850622D02*
X20813070Y-123857895D01*
X20184700Y-123817876D02*
X20226901Y-123818134D01*
X20180021Y-123822584D02*
G75*
G02X20184700Y-123817876I4709J-1D01*
G01*
X20181145Y-123824719D02*
G75*
G02X20180022Y-123822585I1466J2134D01*
G01*
X20185529Y-123827293D02*
G75*
G02X20181144Y-123824719I15819J31971D01*
G01*
X19110636Y-122088155D02*
X19094341Y-122058062D01*
X19121221Y-122107777D02*
X19110636Y-122088155D01*
X20511249Y-122483226D02*
X20464982Y-122580277D01*
X20596807Y-122312328D02*
X20511249Y-122483226D01*
X20683548Y-122141636D02*
X20596807Y-122312328D01*
X20724269Y-122066527D02*
X20683548Y-122141636D01*
X20738678Y-122041366D02*
X20724269Y-122066527D01*
X20749929Y-122021636D02*
X20738678Y-122041366D01*
X20759609Y-122004555D02*
X20749929Y-122021636D01*
X20769048Y-121987777D02*
X20759609Y-122004555D01*
X20775983Y-121975624D02*
X20769048Y-121987777D01*
X20787590Y-121955731D02*
X20775983Y-121975624D01*
X20800976Y-121932985D02*
X20787590Y-121955731D01*
X20814458Y-121910277D02*
X20800976Y-121932985D01*
X20827575Y-121888268D02*
X20814458Y-121910277D01*
X20839864Y-121867624D02*
X20827575Y-121888268D01*
X20850197Y-121850243D02*
X20839864Y-121867624D01*
X20854889Y-121842307D02*
X20850197Y-121850243D01*
X20899259Y-121770233D02*
X20854889Y-121842307D01*
X20962393Y-121673837D02*
X20899259Y-121770233D01*
X21029939Y-121574271D02*
X20962393Y-121673837D01*
X21089543Y-121490277D02*
X21029939Y-121574271D01*
X21146819Y-121413641D02*
X21089543Y-121490277D01*
X21217177Y-121323061D02*
X21146819Y-121413641D01*
X21284639Y-121238542D02*
X21217177Y-121323061D01*
X21327847Y-121187777D02*
X21284639Y-121238542D01*
X22635064Y-121181889D02*
X22644416Y-121161958D01*
X22627187Y-121198945D02*
X22635064Y-121181889D01*
X22620294Y-121214044D02*
X22627187Y-121198945D01*
X22620022Y-121215299D02*
G75*
G02X22620294Y-121214044I3026J0D01*
G01*
X19075985Y-122024222D02*
X19058037Y-121991194D01*
X19094341Y-122058062D02*
X19075985Y-122024222D01*
X21912904Y-125082618D02*
G75*
G02X21912962Y-125090934I-10582J-4233D01*
G01*
X21912961Y-125090934D02*
G75*
G02X21910571Y-125093771I-5287J2029D01*
G01*
X21910571Y-125093771D02*
G75*
G02X21905675Y-125095933I-11328J19028D01*
G01*
X21905675Y-125095934D02*
G75*
G02X21898837Y-125097326I-10822J35655D01*
G01*
X21898838Y-125097325D02*
G75*
G02X21890414Y-125097777I-8424J78322D01*
G01*
X20393609Y-122741378D02*
X20385721Y-122760277D01*
X20420843Y-122679384D02*
X20393609Y-122741378D01*
X20447720Y-122618594D02*
X20420843Y-122679384D01*
X20464982Y-122580277D02*
X20447720Y-122618594D01*
X21890414Y-125097778D02*
G75*
G02X21875921Y-125096825I0J110737D01*
G01*
X21875921Y-125096825D02*
G75*
G02X21863016Y-125093965I9971J75534D01*
G01*
X21863016Y-125093965D02*
G75*
G02X21846281Y-125087761I53575J170197D01*
G01*
X21815022Y-125074046D02*
X21846281Y-125087761D01*
X21751838Y-125047762D02*
X21815022Y-125074046D01*
X21685736Y-125024319D02*
X21751838Y-125047762D01*
X21614120Y-125002862D02*
X21685736Y-125024319D01*
X21534294Y-124982548D02*
X21614120Y-125002862D01*
X21397606Y-124949292D02*
X21534294Y-124982548D01*
X19130128Y-122124323D02*
X19121221Y-122107777D01*
X19140235Y-122143074D02*
X19130128Y-122124323D01*
X20253305Y-123086243D02*
X20244490Y-123106661D01*
X20263179Y-123062378D02*
X20253305Y-123086243D01*
X20274497Y-123034151D02*
X20263179Y-123062378D01*
X20287768Y-123000277D02*
X20274497Y-123034151D01*
X20293655Y-122985324D02*
X20287768Y-123000277D01*
X20300109Y-122969333D02*
X20293655Y-122985324D01*
X20306173Y-122954627D02*
X20300109Y-122969333D01*
X21152408Y-124162178D02*
G75*
G02X21290509Y-124265987I-743206J-1132487D01*
G01*
X21290509Y-124265987D02*
G75*
G02X21408604Y-124381641I-808447J-943632D01*
G01*
X21408604Y-124381641D02*
G75*
G02X21501099Y-124504225I-691614J-618042D01*
G01*
X21593113Y-124647827D02*
X21501099Y-124504225D01*
X21658325Y-124744131D02*
X21593113Y-124647827D01*
X21719278Y-124826381D02*
X21658325Y-124744131D01*
X21794380Y-124920045D02*
X21719278Y-124826381D01*
X21837947Y-124972822D02*
X21794380Y-124920045D01*
X21851771Y-124989809D02*
X21837947Y-124972822D01*
X21862079Y-125003035D02*
X21851771Y-124989809D01*
X19634498Y-119470277D02*
X19620636Y-119520269D01*
X20310691Y-122944082D02*
X20306173Y-122954627D01*
X20314264Y-122935606D02*
X20310691Y-122944082D01*
X20317281Y-122927667D02*
X20314264Y-122935606D01*
X20319553Y-122920959D02*
X20317281Y-122927667D01*
X20320021Y-122917966D02*
G75*
G02X20319553Y-122920959I-9805J0D01*
G01*
X20320021Y-122917965D02*
G75*
G02X20320501Y-122914968I9600J-1D01*
G01*
X20322848Y-122908209D02*
X20320501Y-122914968D01*
X20325958Y-122900210D02*
X20322848Y-122908209D01*
X20329642Y-122891661D02*
X20325958Y-122900210D01*
X20343866Y-122859784D02*
X20329642Y-122891661D01*
X20352969Y-122838632D02*
X20343866Y-122859784D01*
X20359166Y-122823491D02*
X20352969Y-122838632D01*
X20360007Y-122819082D02*
G75*
G02X20359166Y-122823491I-11749J-43D01*
G01*
X20360007Y-122819082D02*
G75*
G02X20360459Y-122816632I6738J25D01*
G01*
X20363194Y-122809786D02*
X20360459Y-122816632D01*
X20366707Y-122801673D02*
X20363194Y-122809786D01*
X20370874Y-122792777D02*
X20366707Y-122801673D01*
X20375330Y-122783430D02*
X20370874Y-122792777D01*
X20379723Y-122773949D02*
X20375330Y-122783430D01*
X20383495Y-122765577D02*
X20379723Y-122773949D01*
X20385721Y-122760277D02*
X20383495Y-122765577D01*
X21877281Y-125023316D02*
X21862079Y-125003035D01*
X21893683Y-125046689D02*
X21877281Y-125023316D01*
X21893683Y-125046690D02*
G75*
G02X21905528Y-125066666I-194982J-129113D01*
G01*
X21905528Y-125066666D02*
G75*
G02X21912903Y-125082618I-148143J-78170D01*
G01*
X21337272Y-121177192D02*
X21327847Y-121187777D01*
X21357031Y-121154856D02*
X21337272Y-121177192D01*
X21380430Y-121128361D02*
X21357031Y-121154856D01*
X21405193Y-121100277D02*
X21380430Y-121128361D01*
X21513704Y-120983304D02*
X21405193Y-121100277D01*
X21646053Y-120852079D02*
X21513704Y-120983304D01*
X21777297Y-120730085D02*
X21646053Y-120852079D01*
X21880250Y-120644220D02*
X21777297Y-120730085D01*
X21967428Y-120578727D02*
X21880250Y-120644220D01*
X22046415Y-120523278D02*
X21967428Y-120578727D01*
X22148457Y-120456351D02*
X22046415Y-120523278D01*
X22327522Y-120342769D02*
X22148457Y-120456351D01*
X22389629Y-120303344D02*
X22327522Y-120342769D01*
X22456365Y-120260469D02*
X22389629Y-120303344D01*
X22517965Y-120220471D02*
X22456365Y-120260469D01*
X22562522Y-120190991D02*
X22517965Y-120220471D01*
X22697222Y-120099298D02*
X22562522Y-120190991D01*
X22820866Y-120012251D02*
X22697222Y-120099298D01*
X22968690Y-119904774D02*
X22820866Y-120012251D01*
X23190022Y-119740957D02*
X22968690Y-119904774D01*
X23233928Y-119708350D02*
X23190022Y-119740957D01*
X23276959Y-119676446D02*
X23233928Y-119708350D01*
X23314011Y-119649020D02*
X23276959Y-119676446D01*
X23335022Y-119633543D02*
X23314011Y-119649020D01*
X23351209Y-119621646D02*
X23335022Y-119633543D01*
X23368850Y-119608643D02*
X23351209Y-119621646D01*
X23385320Y-119596471D02*
X23368850Y-119608643D01*
X23397522Y-119587414D02*
X23385320Y-119596471D01*
X23437477Y-119559270D02*
X23397522Y-119587414D01*
X23492952Y-119523208D02*
X23437477Y-119559270D01*
X23549438Y-119487759D02*
X23492952Y-119523208D01*
X23549438Y-119487760D02*
G75*
G02X23564761Y-119481269I28471J-45884D01*
G01*
X23564761Y-119481268D02*
G75*
G02X23577504Y-119479947I10974J-43717D01*
G01*
X23577504Y-119479947D02*
G75*
G02X23584070Y-119484069I-305J-7776D01*
G01*
X23584070Y-119484070D02*
G75*
G02X23584527Y-119492656I-8997J-4784D01*
G01*
X23584527Y-119492655D02*
G75*
G02X23577667Y-119505539I-63438J25510D01*
G01*
X23565329Y-119522507D02*
X23577667Y-119505539D01*
X23545976Y-119546851D02*
X23565329Y-119522507D01*
X23526429Y-119570518D02*
X23545976Y-119546851D01*
X23526429Y-119570517D02*
G75*
G02X23516963Y-119580277I-72727J61071D01*
G01*
X23499895Y-119598072D02*
G75*
G02X23516963Y-119580277I123500J-101373D01*
G01*
X23445948Y-119664257D02*
X23499895Y-119598072D01*
X23391922Y-119731904D02*
X23445948Y-119664257D01*
X23351038Y-119785277D02*
X23391922Y-119731904D01*
X23274034Y-119893698D02*
X23351038Y-119785277D01*
X23213980Y-119989678D02*
X23274034Y-119893698D01*
X23148409Y-120110452D02*
X23213980Y-119989678D01*
X23045463Y-120315277D02*
X23148409Y-120110452D01*
X23012314Y-120382396D02*
X23045463Y-120315277D01*
X22982337Y-120443418D02*
X23012314Y-120382396D01*
X22957300Y-120494652D02*
X22982337Y-120443418D01*
X22948740Y-120512777D02*
X22957300Y-120494652D01*
X22933870Y-120544997D02*
X22948740Y-120512777D01*
X22898656Y-120620485D02*
X22933870Y-120544997D01*
X22863434Y-120695815D02*
X22898656Y-120620485D01*
X22842505Y-120740277D02*
X22863434Y-120695815D01*
X22836270Y-120753483D02*
X22842505Y-120740277D01*
X22826572Y-120774090D02*
X22836270Y-120753483D01*
X22815623Y-120797387D02*
X22826572Y-120774090D01*
X22804881Y-120820277D02*
X22815623Y-120797387D01*
X22752656Y-120931614D02*
X22804881Y-120820277D01*
X22705466Y-121032138D02*
X22752656Y-120931614D01*
X22666565Y-121114935D02*
X22705466Y-121032138D01*
X22644416Y-121161958D02*
X22666565Y-121114935D01*
X19456089Y-120470173D02*
X19450432Y-120547777D01*
X19491414Y-120134273D02*
X19489359Y-120151746D01*
X19499812Y-121975277D02*
X19502112Y-121991881D01*
X17220022Y-123604199D02*
X17285345Y-123631444D01*
X17172193Y-123582386D02*
X17220022Y-123604199D01*
X17096008Y-123545116D02*
X17172193Y-123582386D01*
X17013874Y-123504229D02*
X17096008Y-123545116D01*
X17958715Y-122867712D02*
G75*
G02X18037077Y-122877867I-68767J-838110D01*
G01*
X18134167Y-122897547D02*
X18037077Y-122877867D01*
X18238541Y-122923880D02*
X18134167Y-122897547D01*
X18340022Y-122954629D02*
X18238541Y-122923880D01*
X18411345Y-122978648D02*
X18340022Y-122954629D01*
X18462918Y-122997344D02*
X18411345Y-122978648D01*
X18514767Y-123018060D02*
X18462918Y-122997344D01*
X18587522Y-123048978D02*
X18514767Y-123018060D01*
X18636095Y-123071297D02*
X18587522Y-123048978D01*
X18722054Y-123113707D02*
X18636095Y-123071297D01*
X18807800Y-123157003D02*
X18722054Y-123113707D01*
X18857522Y-123183724D02*
X18807800Y-123157003D01*
X18874485Y-123193290D02*
X18857522Y-123183724D01*
X18892381Y-123203359D02*
X18874485Y-123193290D01*
X18908665Y-123212503D02*
X18892381Y-123203359D01*
X18920022Y-123218855D02*
X18908665Y-123212503D01*
X18967579Y-123246350D02*
X18920022Y-123218855D01*
X19029264Y-123283880D02*
X18967579Y-123246350D01*
X19094127Y-123324579D02*
X19029264Y-123283880D01*
X19152522Y-123362529D02*
X19094127Y-123324579D01*
X19269621Y-123439782D02*
X19152522Y-123362529D01*
X19284217Y-123442895D02*
G75*
G02X19269621Y-123439782I-3296J20324D01*
G01*
X19285880Y-123436626D02*
G75*
G02X19284217Y-123442894I-2231J-2763D01*
G01*
X19186635Y-123356997D02*
X19285879Y-123436626D01*
X19076355Y-123268615D02*
X19186635Y-123356997D01*
X18955655Y-123171064D02*
X19076355Y-123268615D01*
X18846190Y-123082022D02*
X18955655Y-123171064D01*
X18797522Y-123041366D02*
X18846190Y-123082022D01*
X18560218Y-122828564D02*
X18797522Y-123041366D01*
X18331976Y-122603889D02*
X18560218Y-122828564D01*
X18126302Y-122381368D02*
X18331976Y-122603889D01*
X17957522Y-122175413D02*
X18126302Y-122381368D01*
X17947035Y-122161730D02*
X17957522Y-122175413D01*
X17930933Y-122140881D02*
X17947035Y-122161730D01*
X17912804Y-122117489D02*
X17930933Y-122140881D01*
X17895094Y-122094720D02*
X17912804Y-122117489D01*
X17850771Y-122036679D02*
X17895094Y-122094720D01*
X17798022Y-121965362D02*
X17850771Y-122036679D01*
X17743294Y-121889659D02*
X17798022Y-121965362D01*
X17692611Y-121817777D02*
X17743294Y-121889659D01*
X17615794Y-121705183D02*
X17692611Y-121817777D01*
X17503314Y-121536047D02*
X17615794Y-121705183D01*
X17392960Y-121368079D02*
X17503314Y-121536047D01*
X17327810Y-121265811D02*
X17392960Y-121368079D01*
X17312852Y-121241839D02*
X17327810Y-121265811D01*
X17293501Y-121211028D02*
X17312852Y-121241839D01*
X17273210Y-121178853D02*
X17293501Y-121211028D01*
X17255098Y-121150277D02*
X17273210Y-121178853D01*
X17232466Y-121114465D02*
X17255098Y-121150277D01*
X17194344Y-121053699D02*
X17232466Y-121114465D01*
X17150478Y-120983586D02*
X17194344Y-121053699D01*
X17106299Y-120912777D02*
X17150478Y-120983586D01*
X17063762Y-120844522D02*
X17106299Y-120912777D01*
X17024866Y-120782137D02*
X17063762Y-120844522D01*
X16992249Y-120729846D02*
X17024866Y-120782137D01*
X16980010Y-120710277D02*
X16992249Y-120729846D01*
X16937630Y-120641590D02*
X16980010Y-120710277D01*
X16867790Y-120526106D02*
X16937630Y-120641590D01*
X16797729Y-120409490D02*
X16867790Y-120526106D01*
X16772165Y-120365277D02*
X16797729Y-120409490D01*
X16769328Y-120360248D02*
X16772165Y-120365277D01*
X16765217Y-120353074D02*
X16769328Y-120360248D01*
X16760674Y-120345211D02*
X16765217Y-120353074D01*
X16756342Y-120337777D02*
X16760674Y-120345211D01*
X16727044Y-120287083D02*
X16756342Y-120337777D01*
X16668968Y-120185057D02*
X16727044Y-120287083D01*
X16610346Y-120081702D02*
X16668968Y-120185057D01*
X16588754Y-120042777D02*
X16610346Y-120081702D01*
X16579351Y-120025536D02*
X16588754Y-120042777D01*
X16567835Y-120004543D02*
X16579351Y-120025536D01*
X16556140Y-119983314D02*
X16567835Y-120004543D01*
X16546150Y-119965277D02*
X16556140Y-119983314D01*
X16517394Y-119910797D02*
X16546150Y-119965277D01*
X16462647Y-119800518D02*
X16517394Y-119910797D01*
X16402078Y-119677345D02*
X16462647Y-119800518D01*
X16402079Y-119677345D02*
G75*
G02X16400022Y-119668491I18028J8854D01*
G01*
X16399530Y-119665636D02*
G75*
G02X16400022Y-119668491I-8045J-2855D01*
G01*
X16397209Y-119659477D02*
X16399530Y-119665636D01*
X16394113Y-119652210D02*
X16397209Y-119659477D01*
X16390446Y-119644500D02*
X16394113Y-119652210D01*
X16390446Y-119644500D02*
G75*
G02X16375567Y-119610779I353949J176315D01*
G01*
X16362376Y-119572674D02*
X16375567Y-119610779D01*
X16352797Y-119537022D02*
X16362376Y-119572674D01*
X16352798Y-119537021D02*
G75*
G02X16350022Y-119512709I105091J24312D01*
G01*
X16350022Y-119512709D02*
G75*
G02X16352313Y-119501889I26694J0D01*
G01*
X16352313Y-119501889D02*
G75*
G02X16358734Y-119493767I19006J-8428D01*
G01*
X16358734Y-119493767D02*
G75*
G02X16368045Y-119489963I11741J-15439D01*
G01*
X16368045Y-119489963D02*
G75*
G02X16378409Y-119491121I2783J-22042D01*
G01*
X19299378Y-123449505D02*
G75*
G02X19307816Y-123455118I-42084J-72409D01*
G01*
X19293690Y-123448010D02*
G75*
G02X19299378Y-123449505I137J-11046D01*
G01*
X19292163Y-123450169D02*
G75*
G02X19293690Y-123448010I1547J525D01*
G01*
X19295021Y-123455277D02*
G75*
G02X19292163Y-123450169I12406J10295D01*
G01*
X19298004Y-123458135D02*
G75*
G02X19295022Y-123455277I10995J14458D01*
G01*
X19301808Y-123460528D02*
G75*
G02X19298004Y-123458136I11528J22553D01*
G01*
X19305813Y-123462133D02*
G75*
G02X19301808Y-123460528I6762J22671D01*
G01*
X19309384Y-123462619D02*
G75*
G02X19305813Y-123462133I-229J11691D01*
G01*
X19313439Y-123462263D02*
G75*
G02X19309384Y-123462618I-4642J29680D01*
G01*
X19314221Y-123461131D02*
G75*
G02X19313438Y-123462263I-929J-194D01*
G01*
X19313100Y-123459282D02*
G75*
G02X19314221Y-123461131I-2062J-2515D01*
G01*
X19307816Y-123455118D02*
X19313100Y-123459282D01*
X20082574Y-117269496D02*
G75*
G02X20091771Y-117260571I24520J-16067D01*
G01*
X20091771Y-117260571D02*
G75*
G02X20102879Y-117257745I10107J-16484D01*
G01*
X20102879Y-117257745D02*
G75*
G02X20113607Y-117261707I-996J-19203D01*
G01*
X20113606Y-117261707D02*
G75*
G02X20121759Y-117271527I-17650J-22947D01*
G01*
X20121760Y-117271527D02*
G75*
G02X20133695Y-117304885I-124673J-63421D01*
G01*
X20149153Y-117380779D02*
X20133695Y-117304885D01*
X20166249Y-117480893D02*
X20149153Y-117380779D01*
X20184771Y-117607777D02*
X20166249Y-117480893D01*
X20189195Y-117639649D02*
X20184771Y-117607777D01*
X20193664Y-117671324D02*
X20189195Y-117639649D01*
X20197609Y-117698853D02*
X20193664Y-117671324D01*
X20200058Y-117715277D02*
X20197609Y-117698853D01*
X20202198Y-117729274D02*
X20200058Y-117715277D01*
X20204846Y-117746746D02*
X20202198Y-117729274D01*
X20207550Y-117764693D02*
X20204846Y-117746746D01*
X20209879Y-117780277D02*
X20207550Y-117764693D01*
X20250474Y-118045675D02*
X20209879Y-117780277D01*
X20282146Y-118233530D02*
X20250474Y-118045675D01*
X20312899Y-118391341D02*
X20282146Y-118233530D01*
X20349454Y-118555379D02*
X20312899Y-118391341D01*
X20374492Y-118658731D02*
X20349454Y-118555379D01*
X20406786Y-118786990D02*
X20374492Y-118658731D01*
X20438947Y-118912230D02*
X20406786Y-118786990D01*
X20449546Y-118947777D02*
X20438947Y-118912230D01*
X20451577Y-118954390D02*
X20449546Y-118947777D01*
X20454324Y-118964684D02*
X20451577Y-118954390D01*
X20457226Y-118976332D02*
X20454324Y-118964684D01*
X20459866Y-118987777D02*
X20457226Y-118976332D01*
X20462509Y-118999406D02*
X20459866Y-118987777D01*
X20465418Y-119011606D02*
X20462509Y-118999406D01*
X20468167Y-119022654D02*
X20465418Y-119011606D01*
X20470219Y-119030277D02*
X20468167Y-119022654D01*
X20491211Y-119111306D02*
X20470219Y-119030277D01*
X20520319Y-119239530D02*
X20491211Y-119111306D01*
X20547583Y-119367148D02*
X20520319Y-119239530D01*
X20560471Y-119440277D02*
X20547583Y-119367148D01*
X20562659Y-119454272D02*
X20560471Y-119440277D01*
X20565675Y-119471746D02*
X20562659Y-119454272D01*
X20568972Y-119489692D02*
X20565675Y-119471746D01*
X20572053Y-119505277D02*
X20568972Y-119489692D01*
X20583969Y-119571401D02*
X20572053Y-119505277D01*
X20598521Y-119670705D02*
X20583969Y-119571401D01*
X20613047Y-119782002D02*
X20598521Y-119670705D01*
X20625375Y-119890277D02*
X20613047Y-119782002D01*
X20633692Y-119977355D02*
X20625375Y-119890277D01*
X20641238Y-120073355D02*
X20633692Y-119977355D01*
X20649412Y-120196795D02*
X20641238Y-120073355D01*
X20659993Y-120375277D02*
X20649412Y-120196795D01*
X20664428Y-120511801D02*
X20659993Y-120375277D01*
X20663207Y-120673699D02*
X20664428Y-120511801D01*
D14*
X20656205Y-120880188D02*
X20663207Y-120673699D01*
X20642243Y-121160277D02*
X20656205Y-120880188D01*
D13*
X20638309Y-121213260D02*
X20642243Y-121160277D01*
X20629073Y-121307488D02*
X20638309Y-121213260D01*
X20618702Y-121404897D02*
X20629073Y-121307488D01*
X20609856Y-121477777D02*
X20618702Y-121404897D01*
X20607613Y-121495020D02*
X20609856Y-121477777D01*
X20604937Y-121516012D02*
X20607613Y-121495020D01*
X20602271Y-121537241D02*
X20604937Y-121516012D01*
X20600050Y-121555277D02*
X20602271Y-121537241D01*
X20597806Y-121572962D02*
X20600050Y-121555277D01*
X20595075Y-121593074D02*
X20597806Y-121572962D01*
X20592299Y-121612476D02*
X20595075Y-121593074D01*
X20589942Y-121627777D02*
X20592299Y-121612476D01*
X20587622Y-121642744D02*
X20589942Y-121627777D01*
X20584972Y-121661012D02*
X20587622Y-121642744D01*
X20582418Y-121679518D02*
X20584972Y-121661012D01*
X20580389Y-121695277D02*
X20582418Y-121679518D01*
X20561335Y-121817675D02*
X20580389Y-121695277D01*
X20521650Y-122019623D02*
X20561335Y-121817675D01*
X20478766Y-122221371D02*
X20521650Y-122019623D01*
X20447485Y-122345277D02*
X20478766Y-122221371D01*
X20444512Y-122355948D02*
X20447485Y-122345277D01*
X20441467Y-122367340D02*
X20444512Y-122355948D01*
X20438776Y-122377807D02*
X20441467Y-122367340D01*
X20436995Y-122385277D02*
X20438776Y-122377807D01*
X20427390Y-122423770D02*
X20436995Y-122385277D01*
X20397648Y-122531388D02*
X20427390Y-122423770D01*
X20367938Y-122637284D02*
X20397648Y-122531388D01*
X20350778Y-122695277D02*
X20367938Y-122637284D01*
X20346460Y-122709274D02*
X20350778Y-122695277D01*
X20341080Y-122726746D02*
X20346460Y-122709274D01*
X20335561Y-122744693D02*
X20341080Y-122726746D01*
X20330776Y-122760277D02*
X20335561Y-122744693D01*
X20313681Y-122814093D02*
X20330776Y-122760277D01*
X20282504Y-122908295D02*
X20313681Y-122814093D01*
X20249871Y-123005470D02*
X20282504Y-122908295D01*
X20224966Y-123077777D02*
X20249871Y-123005470D01*
X20214918Y-123106638D02*
X20224966Y-123077777D01*
X20205745Y-123133387D02*
X20214918Y-123106638D01*
X20198156Y-123155862D02*
X20205745Y-123133387D01*
X20195217Y-123165277D02*
X20198156Y-123155862D01*
X20192515Y-123174002D02*
X20195217Y-123165277D01*
X20186887Y-123190861D02*
X20192515Y-123174002D01*
X20180133Y-123210670D02*
X20186887Y-123190861D01*
X20172951Y-123231307D02*
X20180133Y-123210670D01*
X20155426Y-123284707D02*
X20172951Y-123231307D01*
X20155298Y-123304677D02*
G75*
G02X20155426Y-123284707I33535J9771D01*
G01*
X20162456Y-123305327D02*
G75*
G02X20155299Y-123304677I-3451J1730D01*
G01*
X20182120Y-123262777D02*
X20162455Y-123305327D01*
X20188098Y-123248783D02*
X20182120Y-123262777D01*
X20194664Y-123233598D02*
X20188098Y-123248783D01*
X20200839Y-123219472D02*
X20194664Y-123233598D01*
X20205464Y-123209082D02*
X20200839Y-123219472D01*
X20209124Y-123200664D02*
X20205464Y-123209082D01*
X20212214Y-123192904D02*
X20209124Y-123200664D01*
X20214584Y-123186362D02*
X20212214Y-123192904D01*
X20215021Y-123183771D02*
G75*
G02X20214584Y-123186362I-7897J0D01*
G01*
X20215021Y-123183771D02*
G75*
G02X20215482Y-123181197I7424J0D01*
G01*
X20217959Y-123174785D02*
X20215482Y-123181197D01*
X20221191Y-123167186D02*
X20217959Y-123174785D01*
X20225022Y-123158958D02*
X20221191Y-123167186D01*
X20228851Y-123150659D02*
X20225022Y-123158958D01*
X20232084Y-123142840D02*
X20228851Y-123150659D01*
X20234508Y-123136216D02*
X20232084Y-123142840D01*
X20235021Y-123133153D02*
G75*
G02X20234508Y-123136216I-9398J0D01*
G01*
X20235022Y-123133153D02*
G75*
G02X20235503Y-123130064I10154J0D01*
G01*
X20237803Y-123123264D02*
X20235503Y-123130064D01*
X20240864Y-123115223D02*
X20237803Y-123123264D01*
X20244490Y-123106661D02*
X20240864Y-123115223D01*
X19014682Y-121908855D02*
X19010103Y-121900347D01*
X19014682Y-121908855D02*
G75*
G02X19015022Y-121910212I-2538J-1357D01*
G01*
X19004695Y-121890555D02*
X18998277Y-121879295D01*
X19010103Y-121900347D02*
X19004695Y-121890555D01*
X17013874Y-123504228D02*
G75*
G02X17005022Y-123497537I13556J27135D01*
G01*
X17003092Y-123495897D02*
G75*
G02X17005022Y-123497537I-5453J-8377D01*
G01*
X16995912Y-123491285D02*
X17003091Y-123495898D01*
X16987281Y-123485930D02*
X16995912Y-123491285D01*
X16977522Y-123480101D02*
X16987281Y-123485930D01*
X16967356Y-123474103D02*
X16977522Y-123480101D01*
X16957487Y-123468234D02*
X16967356Y-123474103D01*
X16949047Y-123463177D02*
X16957487Y-123468234D01*
X16944424Y-123460341D02*
X16949047Y-123463177D01*
X16940259Y-123457797D02*
X16944424Y-123460341D01*
X16934094Y-123454150D02*
X16940259Y-123457797D01*
X16927233Y-123450155D02*
X16934094Y-123454150D01*
X16920629Y-123446375D02*
X16927233Y-123450155D01*
X16920629Y-123446375D02*
G75*
G02X16910474Y-123439975I63669J112281D01*
G01*
X16882016Y-123420005D02*
X16910474Y-123439975D01*
X16848261Y-123395940D02*
X16882016Y-123420005D01*
X16811226Y-123369103D02*
X16848261Y-123395940D01*
X16633114Y-123246773D02*
X16811226Y-123369103D01*
X16486099Y-123163678D02*
G75*
G02X16633114Y-123246773I-631554J-1288984D01*
G01*
X16326951Y-123096610D02*
G75*
G02X16486098Y-123163679I-510715J-1434241D01*
G01*
X16108826Y-123024954D02*
X16326951Y-123096611D01*
X16076926Y-123015042D02*
X16108826Y-123024954D01*
X16076927Y-123015042D02*
G75*
G02X16066329Y-123010106I14167J44263D01*
G01*
X16066329Y-123010106D02*
G75*
G02X16061681Y-123004159I5938J9430D01*
G01*
X16061681Y-123004159D02*
G75*
G02X16060076Y-122994254I30438J10015D01*
G01*
X16060076Y-122994254D02*
G75*
G02X16060628Y-122985206I70514J241D01*
G01*
X21285632Y-124919595D02*
X21397606Y-124949292D01*
X21198054Y-124893690D02*
X21285632Y-124919595D01*
X21198055Y-124893690D02*
G75*
G02X21142522Y-124873101I169046J541143D01*
G01*
X21137486Y-124871027D02*
X21142522Y-124873101D01*
X21130318Y-124868265D02*
X21137486Y-124871027D01*
X21122455Y-124865344D02*
X21130318Y-124868265D01*
X21115022Y-124862696D02*
X21122455Y-124865344D01*
X21107177Y-124859863D02*
X21115022Y-124862696D01*
X21098034Y-124856363D02*
X21107177Y-124859863D01*
X21089059Y-124852778D02*
X21098034Y-124856363D01*
X21081766Y-124849691D02*
X21089059Y-124852778D01*
X21075511Y-124847043D02*
X21081766Y-124849691D01*
X21069752Y-124844808D02*
X21075511Y-124847043D01*
X21064899Y-124843092D02*
X21069752Y-124844808D01*
X21062993Y-124842777D02*
G75*
G02X21064899Y-124843092I0J-5933D01*
G01*
X21062993Y-124842778D02*
G75*
G02X21059189Y-124842029I0J10037D01*
G01*
X20964667Y-124803305D02*
X21059189Y-124842029D01*
X20881032Y-124768860D02*
X20964667Y-124803305D01*
X20835022Y-124749343D02*
X20881032Y-124768860D01*
X20784226Y-124726283D02*
X20835022Y-124749343D01*
X20714035Y-124692512D02*
X20784226Y-124726283D01*
X20646005Y-124658811D02*
X20714035Y-124692512D01*
X20610022Y-124639386D02*
X20646005Y-124658811D01*
X20584250Y-124624488D02*
X20610022Y-124639386D01*
X20565712Y-124613819D02*
X20584250Y-124624488D01*
X20552040Y-124606010D02*
X20565712Y-124613819D01*
X20542522Y-124600665D02*
X20552040Y-124606010D01*
X20502423Y-124576144D02*
X20542522Y-124600665D01*
X20452352Y-124541071D02*
X20502423Y-124576144D01*
X20399465Y-124500893D02*
X20452352Y-124541071D01*
X20350022Y-124460105D02*
X20399465Y-124500893D01*
X20350022Y-124460106D02*
G75*
G02X20270238Y-124383873I695822J808099D01*
G01*
X20270238Y-124383873D02*
G75*
G02X20198595Y-124299661I781638J737557D01*
G01*
X20198596Y-124299661D02*
G75*
G02X20135002Y-124207259I878955J673003D01*
G01*
X20135001Y-124207258D02*
G75*
G02X20079292Y-124106527I1044989J643704D01*
G01*
X20066672Y-124082136D02*
X20079292Y-124106527D01*
X20058836Y-124071479D02*
G75*
G02X20066672Y-124082136I-34612J-33661D01*
G01*
X20052757Y-124069559D02*
G75*
G02X20058835Y-124071478I1254J-6611D01*
G01*
X20047112Y-124073439D02*
G75*
G02X20052758Y-124069558I7228J-4468D01*
G01*
X20045653Y-124078424D02*
G75*
G02X20047112Y-124073440I9773J-154D01*
G01*
X20043420Y-124221549D02*
X20045654Y-124078424D01*
X20041301Y-124381187D02*
X20043420Y-124221549D01*
X20039456Y-124569690D02*
X20041301Y-124381187D01*
X20037665Y-124758576D02*
X20039456Y-124569690D01*
X20035717Y-124919472D02*
X20037665Y-124758576D01*
X20033721Y-125062425D02*
X20035717Y-124919472D01*
X20033721Y-125062424D02*
G75*
G02X20032565Y-125071527I-41009J581D01*
G01*
X20032565Y-125071527D02*
G75*
G02X20031012Y-125075830I-20606J5007D01*
G01*
X20031011Y-125075830D02*
G75*
G02X20028627Y-125079473I-15676J7660D01*
G01*
X20028628Y-125079473D02*
G75*
G02X20025815Y-125081944I-9855J8380D01*
G01*
X20025814Y-125081943D02*
G75*
G02X20022998Y-125082777I-2816J4339D01*
G01*
X20022998Y-125082778D02*
G75*
G02X20018527Y-125081046I0J6637D01*
G01*
X19995478Y-125059837D02*
X20018527Y-125081046D01*
X19969013Y-125034616D02*
X19995478Y-125059837D01*
X19938906Y-125004683D02*
X19969013Y-125034616D01*
X19861648Y-124926588D02*
X19938906Y-125004683D01*
X19858335Y-124626359D02*
X19861648Y-124926588D01*
X19857066Y-124501023D02*
X19858335Y-124626359D01*
X19855995Y-124372704D02*
X19857066Y-124501023D01*
X19855237Y-124258674D02*
X19855995Y-124372704D01*
X19855022Y-124184454D02*
X19855237Y-124258674D01*
X19854720Y-124123849D02*
X19855022Y-124184454D01*
X19853728Y-124079717D02*
X19854720Y-124123849D01*
X19852369Y-124044990D02*
X19853728Y-124079717D01*
X19850060Y-124042777D02*
G75*
G02X19852369Y-124044990I-1J-2312D01*
G01*
X19847054Y-124044088D02*
G75*
G02X19850059Y-124042777I3005J-2787D01*
G01*
X19836630Y-124055560D02*
X19847055Y-124044089D01*
X19824618Y-124069615D02*
X19836630Y-124055560D01*
X19811309Y-124086292D02*
X19824618Y-124069615D01*
X19719679Y-124196929D02*
X19811309Y-124086292D01*
X19621336Y-124301497D02*
X19719679Y-124196929D01*
X19522618Y-124393723D02*
X19621336Y-124301497D01*
X19522618Y-124393723D02*
G75*
G02X19430022Y-124466907I-785138J898227D01*
G01*
X19293872Y-124557727D02*
X19430022Y-124466907D01*
X19160543Y-124634003D02*
X19293872Y-124557727D01*
X19020115Y-124700989D02*
X19160543Y-124634003D01*
X18862522Y-124763854D02*
X19020115Y-124700989D01*
X18806592Y-124783017D02*
X18862522Y-124763854D01*
X18714001Y-124812067D02*
X18806592Y-124783017D01*
X18620530Y-124840489D02*
X18714001Y-124812067D01*
X18620531Y-124840489D02*
G75*
G02X18585022Y-124849348I-111894J372905D01*
G01*
X18575788Y-124851427D02*
X18585022Y-124849348D01*
X18526256Y-124863853D02*
X18575788Y-124851427D01*
X18468574Y-124878414D02*
X18526256Y-124863853D01*
X18402522Y-124895214D02*
X18468574Y-124878414D01*
X18335223Y-124912309D02*
X18402522Y-124895214D01*
X18273647Y-124927802D02*
X18335223Y-124912309D01*
X18222000Y-124940673D02*
X18273647Y-124927802D01*
X18202522Y-124945258D02*
X18222000Y-124940673D01*
X18189392Y-124948201D02*
X18202522Y-124945258D01*
X18174725Y-124951527D02*
X18189392Y-124948201D01*
X18160765Y-124954724D02*
X18174725Y-124951527D01*
X18150022Y-124957222D02*
X18160765Y-124954724D01*
X18126495Y-124962411D02*
X18150022Y-124957222D01*
X18069890Y-124974006D02*
X18126495Y-124962411D01*
X18006655Y-124986751D02*
X18069890Y-124974006D01*
X17946570Y-124998613D02*
X18006655Y-124986751D01*
X17930754Y-125001291D02*
X17946570Y-124998613D01*
X17930754Y-125001291D02*
G75*
G02X17919488Y-125002124I-11660J81132D01*
G01*
X17919487Y-125002124D02*
G75*
G02X17910662Y-125001315I-221J46104D01*
G01*
X17910662Y-125001315D02*
G75*
G02X17902820Y-124998823I6419J33790D01*
G01*
X17902820Y-124998822D02*
G75*
G02X17893799Y-124985506I6402J14050D01*
G01*
X17893799Y-124985506D02*
G75*
G02X17899252Y-124966313I31269J1487D01*
G01*
X17899252Y-124966313D02*
G75*
G02X17927331Y-124931110I257590J-176662D01*
G01*
X18009998Y-124842550D02*
X17927331Y-124931110D01*
X18047172Y-124803045D02*
X18009998Y-124842550D01*
X18086499Y-124761019D02*
X18047172Y-124803045D01*
X18122351Y-124722510D02*
X18086499Y-124761019D01*
X18147522Y-124695213D02*
X18122351Y-124722510D01*
X18190178Y-124649392D02*
X18147522Y-124695213D01*
X18226361Y-124612256D02*
X18190178Y-124649392D01*
X18263224Y-124576564D02*
X18226361Y-124612256D01*
X18307926Y-124535277D02*
X18263224Y-124576564D01*
X18327115Y-124517823D02*
X18307926Y-124535277D01*
X18343687Y-124502653D02*
X18327115Y-124517823D01*
X18358008Y-124489477D02*
X18343687Y-124502653D01*
X18360021Y-124487406D02*
G75*
G02X18358008Y-124489477I-19819J17259D01*
G01*
X18360021Y-124487407D02*
G75*
G02X18362103Y-124485349I14795J-12883D01*
G01*
X18380147Y-124470015D02*
X18362103Y-124485349D01*
X18400885Y-124452487D02*
X18380147Y-124470015D01*
X18425022Y-124432231D02*
X18400885Y-124452487D01*
X18530470Y-124347248D02*
X18425022Y-124432231D01*
X18630076Y-124273754D02*
X18530470Y-124347248D01*
X18730113Y-124207287D02*
X18630076Y-124273754D01*
X18836795Y-124143515D02*
X18730113Y-124207287D01*
X18870714Y-124125268D02*
X18836795Y-124143515D01*
X18926262Y-124097389D02*
X18870714Y-124125268D01*
X18982493Y-124069994D02*
X18926262Y-124097389D01*
X19020022Y-124052890D02*
X18982493Y-124069994D01*
X19059757Y-124035775D02*
X19020022Y-124052890D01*
X19079737Y-124027382D02*
X19059757Y-124035775D01*
X19095779Y-124021025D02*
X19079737Y-124027382D01*
X19116272Y-124013347D02*
X19095779Y-124021025D01*
X19129186Y-124008599D02*
X19116272Y-124013347D01*
X19144287Y-124003046D02*
X19129186Y-124008599D01*
X19159151Y-123997580D02*
X19144287Y-124003046D01*
X19171272Y-123993122D02*
X19159151Y-123997580D01*
X19206104Y-123981114D02*
X19171272Y-123993122D01*
X19263274Y-123963030D02*
X19206104Y-123981114D01*
X19320340Y-123945577D02*
X19263274Y-123963030D01*
X19347522Y-123938372D02*
X19320340Y-123945577D01*
X19403341Y-123924277D02*
X19347522Y-123938372D01*
X19468904Y-123905292D02*
X19403341Y-123924277D01*
X19530034Y-123886296D02*
X19468904Y-123905292D01*
X19529691Y-123883050D02*
G75*
G02X19530034Y-123886296I-161J-1658D01*
G01*
X19527681Y-123883099D02*
G75*
G02X19529690Y-123883051I1204J-8298D01*
G01*
X19519709Y-123884287D02*
X19527681Y-123883099D01*
X19510305Y-123885799D02*
X19519709Y-123884287D01*
X19499690Y-123887644D02*
X19510305Y-123885799D01*
X19474754Y-123891359D02*
X19499690Y-123887644D01*
X19430359Y-123896376D02*
X19474754Y-123891359D01*
X19365074Y-123903070D02*
X19430359Y-123896376D01*
X19263645Y-123912894D02*
X19365074Y-123903070D01*
X19235352Y-123915035D02*
X19263645Y-123912894D01*
X19181795Y-123917839D02*
X19235352Y-123915035D01*
X19118915Y-123920681D02*
X19181795Y-123917839D01*
X19053645Y-123923169D02*
X19118915Y-123920681D01*
X18908340Y-123926041D02*
X19053645Y-123923169D01*
X18781748Y-123923781D02*
X18908340Y-123926041D01*
X18636661Y-123915269D02*
X18781748Y-123923781D01*
X18425022Y-123897707D02*
X18636661Y-123915269D01*
X18364771Y-123891119D02*
X18425022Y-123897707D01*
X18281738Y-123879690D02*
X18364771Y-123891119D01*
X18184250Y-123864788D02*
X18281738Y-123879690D01*
X18077522Y-123847109D02*
X18184250Y-123864788D01*
X17971857Y-123827377D02*
X18077522Y-123847109D01*
X17854034Y-123802215D02*
X17971857Y-123827377D01*
X17737305Y-123774654D02*
X17854034Y-123802215D01*
X17635022Y-123747637D02*
X17737305Y-123774654D01*
X17619381Y-123743300D02*
X17635022Y-123747637D01*
X17603397Y-123738981D02*
X17619381Y-123743300D01*
X17589207Y-123735245D02*
X17603397Y-123738981D01*
X17580022Y-123732966D02*
X17589207Y-123735245D01*
X17571722Y-123730851D02*
X17580022Y-123732966D01*
X17561053Y-123727839D02*
X17571722Y-123730851D01*
X17549914Y-123724499D02*
X17561053Y-123727839D01*
X17540022Y-123721321D02*
X17549914Y-123724499D01*
X17528663Y-123717567D02*
X17540022Y-123721321D01*
X17512381Y-123712256D02*
X17528663Y-123717567D01*
X17494485Y-123706458D02*
X17512381Y-123712256D01*
X17477522Y-123701004D02*
X17494485Y-123706458D01*
X17413400Y-123679584D02*
X17477522Y-123701004D01*
X17349573Y-123656485D02*
X17413400Y-123679584D01*
X17285345Y-123631444D02*
X17349573Y-123656485D01*
X20191588Y-123829800D02*
G75*
G02X20185529Y-123827293I15601J46284D01*
G01*
X20198772Y-123831862D02*
G75*
G02X20191589Y-123829800I19033J79840D01*
G01*
X20225611Y-123837712D02*
X20198772Y-123831862D01*
X16378409Y-119491121D02*
G75*
G02X16393800Y-119499519I-19851J-54684D01*
G01*
X16433573Y-119530444D02*
X16393800Y-119499519D01*
X16480950Y-119569163D02*
X16433573Y-119530444D01*
X16533636Y-119614359D02*
X16480950Y-119569163D01*
X16698174Y-119752127D02*
X16533636Y-119614359D01*
X16843791Y-119860502D02*
X16698174Y-119752127D01*
X17012714Y-119969733D02*
X16843791Y-119860502D01*
X17257522Y-120114069D02*
X17012714Y-119969733D01*
X19571306Y-119706615D02*
X19547577Y-119815220D01*
X19494593Y-120106118D02*
X19492916Y-120120277D01*
X19286280Y-122420659D02*
X19246362Y-122342777D01*
X19400735Y-122649065D02*
X19286280Y-122420659D01*
X19593793Y-119622863D02*
X19590420Y-119635871D01*
X19609796Y-122590277D02*
X19612223Y-122599554D01*
X17980696Y-120596196D02*
X17949731Y-120571569D01*
X18034121Y-120640261D02*
X17980696Y-120596196D01*
X19655296Y-119399293D02*
X19640717Y-119448596D01*
X19041545Y-121960738D02*
X19027657Y-121934784D01*
X19058037Y-121991194D02*
X19041545Y-121960738D01*
X19607389Y-122580966D02*
X19609796Y-122590277D01*
X19530667Y-122912450D02*
G75*
G02X19530022Y-122909625I5867J2825D01*
G01*
X19570128Y-122994375D02*
X19530666Y-122912451D01*
X19493686Y-121928002D02*
X19499812Y-121975277D01*
X19590420Y-119635871D02*
X19587276Y-119647511D01*
X19610559Y-119557297D02*
X19602925Y-119586256D01*
X19622102Y-122643678D02*
X19625424Y-122658215D01*
X19619792Y-122632777D02*
X19622102Y-122643678D01*
X19617434Y-123092202D02*
X19570128Y-122994375D01*
X19680900Y-123222769D02*
X19617434Y-123092202D01*
X19994836Y-117795277D02*
X19983743Y-117888355D01*
X18390510Y-120969449D02*
X18307249Y-120884817D01*
X18457941Y-121043323D02*
X18390510Y-120969449D01*
X19015378Y-121911643D02*
G75*
G02X19015022Y-121910212I2699J1431D01*
G01*
X19027657Y-121934784D02*
X19015377Y-121911643D01*
X19457431Y-121534943D02*
X19460146Y-121574262D01*
X19436197Y-120990776D02*
X19441200Y-121210800D01*
X17312323Y-120145700D02*
X17257522Y-120114069D01*
X17365350Y-120176582D02*
X17312323Y-120145700D01*
X17410594Y-120203170D02*
X17365350Y-120176582D01*
X19462884Y-121610118D02*
X19465155Y-121635277D01*
X20064571Y-117313376D02*
G75*
G02X20082574Y-117269496I122645J-24684D01*
G01*
X19983743Y-117888355D02*
X19966692Y-118018323D01*
X19966692Y-118018323D02*
X19948247Y-118152128D01*
X19948247Y-118152128D02*
X19932296Y-118260277D01*
X19594799Y-122521609D02*
X19597913Y-122536189D01*
X19672754Y-119340648D02*
X19655296Y-119399293D01*
X19665004Y-122816641D02*
X19688021Y-122905658D01*
X19652687Y-122767777D02*
X19665004Y-122816641D01*
X19439221Y-120785430D02*
X19436197Y-120990776D01*
X19497211Y-120088074D02*
X19494593Y-120106118D01*
X19596912Y-119610277D02*
X19593793Y-119622863D01*
X18091890Y-120688546D02*
X18034121Y-120640261D01*
X18142522Y-120731589D02*
X18091890Y-120688546D01*
X19640717Y-119448596D02*
X19634498Y-119470277D01*
X19546332Y-122282567D02*
X19569739Y-122408706D01*
X19472649Y-121717124D02*
X19474772Y-121742777D01*
X19602098Y-122557528D02*
X19604678Y-122569391D01*
X19620636Y-119520269D02*
X19610559Y-119557297D01*
X19612223Y-122599554D02*
X19614997Y-122611012D01*
X19774298Y-118990004D02*
X19691595Y-119277777D01*
X19524401Y-122153232D02*
X19546332Y-122282567D01*
X19486414Y-121863404D02*
X19493686Y-121928002D01*
X17435022Y-120217924D02*
X17410594Y-120203170D01*
X17452943Y-120228971D02*
X17435022Y-120217924D01*
X17471647Y-120240441D02*
X17452943Y-120228971D01*
X17488524Y-120250743D02*
X17471647Y-120240441D01*
X17500022Y-120257694D02*
X17488524Y-120250743D01*
X19597913Y-122536189D02*
X19600081Y-122547260D01*
X19455160Y-121497777D02*
X19457431Y-121534943D01*
X19891058Y-118496192D02*
X19839522Y-118734580D01*
X19602925Y-119586256D02*
X19596912Y-119610277D01*
X19932296Y-118260277D02*
X19891058Y-118496192D01*
X19614997Y-122611012D02*
X19617668Y-122622709D01*
X19465155Y-121635277D02*
X19467410Y-121658549D01*
X19510387Y-122055277D02*
X19524401Y-122153232D01*
X19647592Y-122747213D02*
X19652687Y-122767777D01*
X19641964Y-122724684D02*
X19647592Y-122747213D01*
X17838770Y-120488408D02*
X17712111Y-120398124D01*
X17949731Y-120571569D02*
X17838770Y-120488408D01*
X19466010Y-120360768D02*
X19456089Y-120470173D01*
X19585002Y-119655277D02*
X19571306Y-119706615D01*
X18990348Y-121865352D02*
X18980163Y-121847052D01*
X18998277Y-121879295D02*
X18990348Y-121865352D01*
X19175179Y-122207925D02*
X19157627Y-122175277D01*
X19196050Y-122247166D02*
X19175179Y-122207925D01*
X19793771Y-123403775D02*
G75*
G02X19778450Y-123404191I-7814J5438D01*
G01*
X19801642Y-123377617D02*
G75*
G02X19793772Y-123403776I-43965J-1036D01*
G01*
X19591336Y-122506189D02*
X19594799Y-122521609D01*
X19504965Y-122013215D02*
X19507876Y-122035494D01*
X19500258Y-120069324D02*
X19497211Y-120088074D01*
X19492916Y-120120277D02*
X19491414Y-120134273D01*
X19474772Y-121742777D02*
X19479586Y-121796968D01*
X19219842Y-122292235D02*
X19196050Y-122247166D01*
X19246362Y-122342777D02*
X19219842Y-122292235D01*
X19476782Y-120253128D02*
X19466010Y-120360768D01*
X19839522Y-118734580D02*
X19774298Y-118990004D01*
X19547577Y-119815220D02*
X19525096Y-119924104D01*
X19529044Y-122905488D02*
X19400735Y-122649065D01*
X19529045Y-122905488D02*
G75*
G02X19530022Y-122909625I-8269J-4137D01*
G01*
X17590998Y-120315371D02*
X17500022Y-120257694D01*
X17712111Y-120398124D02*
X17590998Y-120315371D01*
X18576981Y-121192044D02*
X18457941Y-121043323D01*
X18702584Y-121373051D02*
X18576981Y-121192044D01*
X19525096Y-119924104D02*
X19514785Y-119985277D01*
X19691595Y-119277777D02*
X19672754Y-119340648D01*
X19467410Y-121658549D02*
X19470054Y-121687481D01*
X19503300Y-120052777D02*
X19500258Y-120069324D01*
X19512686Y-119999437D02*
X19509713Y-120017481D01*
X19485041Y-120185277D02*
X19476782Y-120253128D01*
X19762789Y-123190486D02*
X19784316Y-123278882D01*
X19729915Y-123065277D02*
X19762789Y-123190486D01*
X19629114Y-122673688D02*
X19632635Y-122687777D01*
X19625424Y-122658215D02*
X19629114Y-122673688D01*
X19588031Y-122492260D02*
X19591336Y-122506189D01*
X19506422Y-120036231D02*
X19503300Y-120052777D01*
X20042634Y-117432589D02*
X20019274Y-117590793D01*
X19489359Y-120151746D02*
X19487122Y-120169693D01*
X19604678Y-122569391D02*
X19607389Y-122580966D01*
X19569739Y-122408706D02*
X19588031Y-122492260D01*
X19450432Y-120547777D02*
X19439221Y-120785430D01*
X20064571Y-117313377D02*
X20042634Y-117432589D01*
X19514785Y-119985277D02*
X19512686Y-119999437D01*
X19711965Y-122997481D02*
X19729915Y-123065277D01*
X19688021Y-122905658D02*
X19711965Y-122997481D01*
X19507876Y-122035494D02*
X19510387Y-122055277D01*
X19636652Y-122703561D02*
X19641964Y-122724684D01*
X19632635Y-122687777D02*
X19636652Y-122703561D01*
X19460146Y-121574262D02*
X19462884Y-121610118D01*
X19797789Y-123342241D02*
G75*
G02X19801641Y-123377617I-205937J-40320D01*
G01*
X19784316Y-123278882D02*
X19797790Y-123342241D01*
X19149971Y-122161116D02*
X19140235Y-122143074D01*
X19157627Y-122175277D02*
X19149971Y-122161116D01*
X19617668Y-122622709D02*
X19619792Y-122632777D01*
X19509713Y-120017481D02*
X19506422Y-120036231D01*
X18220584Y-120801527D02*
X18142522Y-120731589D01*
X18307249Y-120884817D02*
X18220584Y-120801527D01*
X19502112Y-121991881D02*
X19504965Y-122013215D01*
X19487122Y-120169693D02*
X19485041Y-120185277D01*
X19587276Y-119647511D02*
X19585002Y-119655277D01*
X20019274Y-117590793D02*
X19994836Y-117795277D01*
X18969544Y-121827713D02*
X18960123Y-121810277D01*
X18980163Y-121847052D02*
X18969544Y-121827713D01*
X19745824Y-123352971D02*
X19680900Y-123222769D01*
X19778449Y-123404191D02*
G75*
G02X19745824Y-123352971I252153J196613D01*
G01*
X19441200Y-121210800D02*
X19455160Y-121497777D01*
D12*
G36*
X35604975Y-94458585D02*
G01*
X35904528Y-94518170D01*
X36468874Y-94751930D01*
X36976772Y-95091296D01*
X37408704Y-95523228D01*
X37748070Y-96031126D01*
X37981830Y-96595472D01*
X38101000Y-97194578D01*
X38101000Y-97805422D01*
X37981830Y-98404528D01*
X37748070Y-98968874D01*
X37408704Y-99476772D01*
X36976772Y-99908704D01*
X36468874Y-100248070D01*
X35904528Y-100481830D01*
X35604975Y-100541415D01*
X35305423Y-100601000D01*
X34694577Y-100601000D01*
X34395025Y-100541415D01*
X34095472Y-100481830D01*
X33531126Y-100248070D01*
X33023228Y-99908704D01*
X32591296Y-99476772D01*
X32251930Y-98968874D01*
X32018170Y-98404528D01*
X31899000Y-97805422D01*
X31899000Y-97194578D01*
X32018170Y-96595472D01*
X32251930Y-96031126D01*
X32591296Y-95523228D01*
X33023228Y-95091296D01*
X33531126Y-94751930D01*
X34095472Y-94518170D01*
X34395025Y-94458585D01*
X34694577Y-94399000D01*
X35305423Y-94399000D01*
X35604975Y-94458585D01*
G37*
G36*
X25604975Y-94458585D02*
G01*
X25904528Y-94518170D01*
X26468874Y-94751930D01*
X26976772Y-95091296D01*
X27408704Y-95523228D01*
X27748070Y-96031126D01*
X27981830Y-96595472D01*
X28101000Y-97194578D01*
X28101000Y-97805422D01*
X27981830Y-98404528D01*
X27748070Y-98968874D01*
X27408704Y-99476772D01*
X26976772Y-99908704D01*
X26468874Y-100248070D01*
X25904528Y-100481830D01*
X25604975Y-100541415D01*
X25305423Y-100601000D01*
X24694577Y-100601000D01*
X24395025Y-100541415D01*
X24095472Y-100481830D01*
X23531126Y-100248070D01*
X23023228Y-99908704D01*
X22591296Y-99476772D01*
X22251930Y-98968874D01*
X22018170Y-98404528D01*
X21899000Y-97805422D01*
X21899000Y-97194578D01*
X22018170Y-96595472D01*
X22251930Y-96031126D01*
X22591296Y-95523228D01*
X23023228Y-95091296D01*
X23531126Y-94751930D01*
X24095472Y-94518170D01*
X24395025Y-94458585D01*
X24694577Y-94399000D01*
X25305423Y-94399000D01*
X25604975Y-94458585D01*
G37*
G36*
X15604975Y-94458585D02*
G01*
X15904528Y-94518170D01*
X16468874Y-94751930D01*
X16976772Y-95091296D01*
X17408704Y-95523228D01*
X17748070Y-96031126D01*
X17981830Y-96595472D01*
X18101000Y-97194578D01*
X18101000Y-97805422D01*
X17981830Y-98404528D01*
X17748070Y-98968874D01*
X17408704Y-99476772D01*
X16976772Y-99908704D01*
X16468874Y-100248070D01*
X15904528Y-100481830D01*
X15604975Y-100541415D01*
X15305423Y-100601000D01*
X14694577Y-100601000D01*
X14395025Y-100541415D01*
X14095472Y-100481830D01*
X13531126Y-100248070D01*
X13023228Y-99908704D01*
X12591296Y-99476772D01*
X12251930Y-98968874D01*
X12018170Y-98404528D01*
X11899000Y-97805422D01*
X11899000Y-97194578D01*
X12018170Y-96595472D01*
X12251930Y-96031126D01*
X12591296Y-95523228D01*
X13023228Y-95091296D01*
X13531126Y-94751930D01*
X14095472Y-94518170D01*
X14395025Y-94458585D01*
X14694577Y-94399000D01*
X15305423Y-94399000D01*
X15604975Y-94458585D01*
G37*
G36*
X5604975Y-94458585D02*
G01*
X5904528Y-94518170D01*
X6468874Y-94751930D01*
X6976772Y-95091296D01*
X7408704Y-95523228D01*
X7748070Y-96031126D01*
X7981830Y-96595472D01*
X8101000Y-97194578D01*
X8101000Y-97805422D01*
X7981830Y-98404528D01*
X7748070Y-98968874D01*
X7408704Y-99476772D01*
X6976772Y-99908704D01*
X6468874Y-100248070D01*
X5904528Y-100481830D01*
X5604975Y-100541415D01*
X5305423Y-100601000D01*
X4694577Y-100601000D01*
X4395025Y-100541415D01*
X4095472Y-100481830D01*
X3531126Y-100248070D01*
X3023228Y-99908704D01*
X2591296Y-99476772D01*
X2251930Y-98968874D01*
X2018170Y-98404528D01*
X1899000Y-97805422D01*
X1899000Y-97194578D01*
X2018170Y-96595472D01*
X2251930Y-96031126D01*
X2591296Y-95523228D01*
X3023228Y-95091296D01*
X3531126Y-94751930D01*
X4095472Y-94518170D01*
X4395025Y-94458585D01*
X4694577Y-94399000D01*
X5305423Y-94399000D01*
X5604975Y-94458585D01*
G37*
G36*
X35604975Y-78958585D02*
G01*
X35904528Y-79018170D01*
X36468874Y-79251930D01*
X36976772Y-79591296D01*
X37408704Y-80023228D01*
X37748070Y-80531126D01*
X37981830Y-81095472D01*
X38101000Y-81694578D01*
X38101000Y-82305422D01*
X37981830Y-82904528D01*
X37748070Y-83468874D01*
X37408704Y-83976772D01*
X36976772Y-84408704D01*
X36468874Y-84748070D01*
X35904528Y-84981830D01*
X35604975Y-85041415D01*
X35305423Y-85101000D01*
X34694577Y-85101000D01*
X34395025Y-85041415D01*
X34095472Y-84981830D01*
X33531126Y-84748070D01*
X33023228Y-84408704D01*
X32591296Y-83976772D01*
X32251930Y-83468874D01*
X32018170Y-82904528D01*
X31899000Y-82305422D01*
X31899000Y-81694578D01*
X32018170Y-81095472D01*
X32251930Y-80531126D01*
X32591296Y-80023228D01*
X33023228Y-79591296D01*
X33531126Y-79251930D01*
X34095472Y-79018170D01*
X34395025Y-78958585D01*
X34694577Y-78899000D01*
X35305423Y-78899000D01*
X35604975Y-78958585D01*
G37*
G36*
X25604975Y-78958585D02*
G01*
X25904528Y-79018170D01*
X26468874Y-79251930D01*
X26976772Y-79591296D01*
X27408704Y-80023228D01*
X27748070Y-80531126D01*
X27981830Y-81095472D01*
X28101000Y-81694578D01*
X28101000Y-82305422D01*
X27981830Y-82904528D01*
X27748070Y-83468874D01*
X27408704Y-83976772D01*
X26976772Y-84408704D01*
X26468874Y-84748070D01*
X25904528Y-84981830D01*
X25604975Y-85041415D01*
X25305423Y-85101000D01*
X24694577Y-85101000D01*
X24395025Y-85041415D01*
X24095472Y-84981830D01*
X23531126Y-84748070D01*
X23023228Y-84408704D01*
X22591296Y-83976772D01*
X22251930Y-83468874D01*
X22018170Y-82904528D01*
X21899000Y-82305422D01*
X21899000Y-81694578D01*
X22018170Y-81095472D01*
X22251930Y-80531126D01*
X22591296Y-80023228D01*
X23023228Y-79591296D01*
X23531126Y-79251930D01*
X24095472Y-79018170D01*
X24395025Y-78958585D01*
X24694577Y-78899000D01*
X25305423Y-78899000D01*
X25604975Y-78958585D01*
G37*
G36*
X15604975Y-78958585D02*
G01*
X15904528Y-79018170D01*
X16468874Y-79251930D01*
X16976772Y-79591296D01*
X17408704Y-80023228D01*
X17748070Y-80531126D01*
X17981830Y-81095472D01*
X18101000Y-81694578D01*
X18101000Y-82305422D01*
X17981830Y-82904528D01*
X17748070Y-83468874D01*
X17408704Y-83976772D01*
X16976772Y-84408704D01*
X16468874Y-84748070D01*
X15904528Y-84981830D01*
X15604975Y-85041415D01*
X15305423Y-85101000D01*
X14694577Y-85101000D01*
X14395025Y-85041415D01*
X14095472Y-84981830D01*
X13531126Y-84748070D01*
X13023228Y-84408704D01*
X12591296Y-83976772D01*
X12251930Y-83468874D01*
X12018170Y-82904528D01*
X11899000Y-82305422D01*
X11899000Y-81694578D01*
X12018170Y-81095472D01*
X12251930Y-80531126D01*
X12591296Y-80023228D01*
X13023228Y-79591296D01*
X13531126Y-79251930D01*
X14095472Y-79018170D01*
X14395025Y-78958585D01*
X14694577Y-78899000D01*
X15305423Y-78899000D01*
X15604975Y-78958585D01*
G37*
G36*
X5604975Y-78958585D02*
G01*
X5904528Y-79018170D01*
X6468874Y-79251930D01*
X6976772Y-79591296D01*
X7408704Y-80023228D01*
X7748070Y-80531126D01*
X7981830Y-81095472D01*
X8101000Y-81694578D01*
X8101000Y-82305422D01*
X7981830Y-82904528D01*
X7748070Y-83468874D01*
X7408704Y-83976772D01*
X6976772Y-84408704D01*
X6468874Y-84748070D01*
X5904528Y-84981830D01*
X5604975Y-85041415D01*
X5305423Y-85101000D01*
X4694577Y-85101000D01*
X4395025Y-85041415D01*
X4095472Y-84981830D01*
X3531126Y-84748070D01*
X3023228Y-84408704D01*
X2591296Y-83976772D01*
X2251930Y-83468874D01*
X2018170Y-82904528D01*
X1899000Y-82305422D01*
X1899000Y-81694578D01*
X2018170Y-81095472D01*
X2251930Y-80531126D01*
X2591296Y-80023228D01*
X3023228Y-79591296D01*
X3531126Y-79251930D01*
X4095472Y-79018170D01*
X4395025Y-78958585D01*
X4694577Y-78899000D01*
X5305423Y-78899000D01*
X5604975Y-78958585D01*
G37*
G36*
X30196217Y-54906665D02*
G01*
X30466995Y-54960525D01*
X30758358Y-55081212D01*
X31020578Y-55256422D01*
X31243578Y-55479422D01*
X31418788Y-55741642D01*
X31539475Y-56033005D01*
X31601000Y-56342315D01*
X31601000Y-56657685D01*
X31539475Y-56966995D01*
X31418788Y-57258358D01*
X31243578Y-57520578D01*
X31020578Y-57743578D01*
X30758358Y-57918788D01*
X30466995Y-58039475D01*
X30196217Y-58093335D01*
X30157686Y-58101000D01*
X29842314Y-58101000D01*
X29803783Y-58093335D01*
X29533005Y-58039475D01*
X29241642Y-57918788D01*
X28979422Y-57743578D01*
X28756422Y-57520578D01*
X28581212Y-57258358D01*
X28460525Y-56966995D01*
X28399000Y-56657685D01*
X28399000Y-56342315D01*
X28460525Y-56033005D01*
X28581212Y-55741642D01*
X28756422Y-55479422D01*
X28979422Y-55256422D01*
X29241642Y-55081212D01*
X29533005Y-54960525D01*
X29803783Y-54906665D01*
X29842314Y-54899000D01*
X30157686Y-54899000D01*
X30196217Y-54906665D01*
G37*
M02*
