G04 #@! TF.GenerationSoftware,KiCad,Pcbnew,(5.1.9-0-10_14)*
G04 #@! TF.CreationDate,2021-02-15T21:42:09-08:00*
G04 #@! TF.ProjectId,shatnoir,73686174-6e6f-4697-922e-6b696361645f,rev?*
G04 #@! TF.SameCoordinates,Original*
G04 #@! TF.FileFunction,Copper,L1,Top*
G04 #@! TF.FilePolarity,Positive*
%FSLAX46Y46*%
G04 Gerber Fmt 4.6, Leading zero omitted, Abs format (unit mm)*
G04 Created by KiCad (PCBNEW (5.1.9-0-10_14)) date 2021-02-15 21:42:09*
%MOMM*%
%LPD*%
G01*
G04 APERTURE LIST*
G04 #@! TA.AperFunction,NonConductor*
%ADD10C,2.000000*%
G04 #@! TD*
G04 #@! TA.AperFunction,EtchedComponent*
%ADD11C,0.100000*%
G04 #@! TD*
G04 #@! TA.AperFunction,ComponentPad*
%ADD12C,6.100000*%
G04 #@! TD*
G04 APERTURE END LIST*
D10*
X42750000Y-104750000D02*
X9500000Y-104750000D01*
X17750000Y-88750000D02*
X7750000Y-88750000D01*
D11*
G36*
X25215900Y-117950100D02*
G01*
X25317500Y-118432700D01*
X25431800Y-118889900D01*
X25514350Y-119220100D01*
X25577850Y-119601100D01*
X25622300Y-120121800D01*
X25622300Y-120655200D01*
X25571500Y-121239400D01*
X25508000Y-121760100D01*
X25365125Y-122255400D01*
X25066675Y-123271400D01*
X24853950Y-123220600D01*
X24619000Y-122306200D01*
X24445962Y-121442600D01*
X24461837Y-120655200D01*
X24514225Y-119994800D01*
X24676150Y-119220100D01*
X24911100Y-118407300D01*
X25038100Y-117632600D01*
X25101600Y-117111900D01*
X25215900Y-117950100D01*
G37*
X25215900Y-117950100D02*
X25317500Y-118432700D01*
X25431800Y-118889900D01*
X25514350Y-119220100D01*
X25577850Y-119601100D01*
X25622300Y-120121800D01*
X25622300Y-120655200D01*
X25571500Y-121239400D01*
X25508000Y-121760100D01*
X25365125Y-122255400D01*
X25066675Y-123271400D01*
X24853950Y-123220600D01*
X24619000Y-122306200D01*
X24445962Y-121442600D01*
X24461837Y-120655200D01*
X24514225Y-119994800D01*
X24676150Y-119220100D01*
X24911100Y-118407300D01*
X25038100Y-117632600D01*
X25101600Y-117111900D01*
X25215900Y-117950100D01*
G36*
X28060700Y-120083700D02*
G01*
X27819400Y-120579000D01*
X27616200Y-121036200D01*
X27355850Y-121556900D01*
X27082800Y-121912500D01*
X26771650Y-122325250D01*
X26301750Y-122718950D01*
X25800100Y-123055500D01*
X24695200Y-123652400D01*
X24720600Y-123322200D01*
X25025400Y-123271400D01*
X25273050Y-122833250D01*
X25488950Y-122369700D01*
X25654050Y-122039500D01*
X25838200Y-121747400D01*
X26003300Y-121429900D01*
X26282700Y-121074300D01*
X26562100Y-120756800D01*
X26892300Y-120464700D01*
X27235200Y-120236100D01*
X27616200Y-119982100D01*
X28009900Y-119715400D01*
X28543300Y-119321700D01*
X28060700Y-120083700D01*
G37*
X28060700Y-120083700D02*
X27819400Y-120579000D01*
X27616200Y-121036200D01*
X27355850Y-121556900D01*
X27082800Y-121912500D01*
X26771650Y-122325250D01*
X26301750Y-122718950D01*
X25800100Y-123055500D01*
X24695200Y-123652400D01*
X24720600Y-123322200D01*
X25025400Y-123271400D01*
X25273050Y-122833250D01*
X25488950Y-122369700D01*
X25654050Y-122039500D01*
X25838200Y-121747400D01*
X26003300Y-121429900D01*
X26282700Y-121074300D01*
X26562100Y-120756800D01*
X26892300Y-120464700D01*
X27235200Y-120236100D01*
X27616200Y-119982100D01*
X28009900Y-119715400D01*
X28543300Y-119321700D01*
X28060700Y-120083700D01*
G36*
X28073400Y-122738000D02*
G01*
X28505200Y-122763400D01*
X29083207Y-122773943D01*
X28403600Y-122928500D01*
X27971800Y-123119000D01*
X27628900Y-123334900D01*
X27209800Y-123500000D01*
X26676400Y-123588900D01*
X26231900Y-123614300D01*
X25654050Y-123595250D01*
X25076200Y-123576200D01*
X25012700Y-123500000D01*
X25228600Y-123436500D01*
X25235585Y-123385700D01*
X25551815Y-123258700D01*
X26085850Y-123030100D01*
X26638300Y-122826900D01*
X27032000Y-122712600D01*
X27476500Y-122712600D01*
X28073400Y-122738000D01*
G37*
X28073400Y-122738000D02*
X28505200Y-122763400D01*
X29083207Y-122773943D01*
X28403600Y-122928500D01*
X27971800Y-123119000D01*
X27628900Y-123334900D01*
X27209800Y-123500000D01*
X26676400Y-123588900D01*
X26231900Y-123614300D01*
X25654050Y-123595250D01*
X25076200Y-123576200D01*
X25012700Y-123500000D01*
X25228600Y-123436500D01*
X25235585Y-123385700D01*
X25551815Y-123258700D01*
X26085850Y-123030100D01*
X26638300Y-122826900D01*
X27032000Y-122712600D01*
X27476500Y-122712600D01*
X28073400Y-122738000D01*
G36*
X25641350Y-123741300D02*
G01*
X26193800Y-124020700D01*
X26520825Y-124347725D01*
X26655763Y-124577913D01*
X26887538Y-124847788D01*
X26581150Y-124763650D01*
X26327150Y-124687450D01*
X26149350Y-124623950D01*
X25774700Y-124490600D01*
X25415925Y-124296925D01*
X25155575Y-124011175D01*
X25031750Y-123849250D01*
X25095250Y-123887350D01*
X25069850Y-123823850D01*
X25133350Y-123652400D01*
X25641350Y-123741300D01*
G37*
X25641350Y-123741300D02*
X26193800Y-124020700D01*
X26520825Y-124347725D01*
X26655763Y-124577913D01*
X26887538Y-124847788D01*
X26581150Y-124763650D01*
X26327150Y-124687450D01*
X26149350Y-124623950D01*
X25774700Y-124490600D01*
X25415925Y-124296925D01*
X25155575Y-124011175D01*
X25031750Y-123849250D01*
X25095250Y-123887350D01*
X25069850Y-123823850D01*
X25133350Y-123652400D01*
X25641350Y-123741300D01*
G36*
X25000000Y-123284100D02*
G01*
X24788862Y-123477775D01*
X25007937Y-123573025D01*
X25758825Y-124115950D01*
X25577850Y-124211200D01*
X25000000Y-123754000D01*
X25012700Y-124846200D01*
X24898400Y-124706500D01*
X24892050Y-123817500D01*
X24936500Y-123817500D01*
X24555500Y-123601600D01*
X24269750Y-123449200D01*
X24434850Y-123169800D01*
X25000000Y-123284100D01*
G37*
X25000000Y-123284100D02*
X24788862Y-123477775D01*
X25007937Y-123573025D01*
X25758825Y-124115950D01*
X25577850Y-124211200D01*
X25000000Y-123754000D01*
X25012700Y-124846200D01*
X24898400Y-124706500D01*
X24892050Y-123817500D01*
X24936500Y-123817500D01*
X24555500Y-123601600D01*
X24269750Y-123449200D01*
X24434850Y-123169800D01*
X25000000Y-123284100D01*
G36*
X24866650Y-123766700D02*
G01*
X24498350Y-124198500D01*
X24060200Y-124471550D01*
X23679200Y-124611250D01*
X22929900Y-124776350D01*
X23412500Y-124249300D01*
X23806200Y-123982600D01*
X24174500Y-123779400D01*
X24644400Y-123703200D01*
X24669800Y-123703200D01*
X24866650Y-123766700D01*
G37*
X24866650Y-123766700D02*
X24498350Y-124198500D01*
X24060200Y-124471550D01*
X23679200Y-124611250D01*
X22929900Y-124776350D01*
X23412500Y-124249300D01*
X23806200Y-123982600D01*
X24174500Y-123779400D01*
X24644400Y-123703200D01*
X24669800Y-123703200D01*
X24866650Y-123766700D01*
G36*
X23002925Y-122703075D02*
G01*
X23339475Y-122798325D01*
X23603000Y-122890400D01*
X24301500Y-123296800D01*
X24331980Y-123324740D01*
X24339600Y-123309500D01*
X24339600Y-123322200D01*
X24331980Y-123324740D01*
X24250700Y-123487300D01*
X24644400Y-123627000D01*
X24434850Y-123652400D01*
X24041150Y-123677800D01*
X23564900Y-123677800D01*
X23120400Y-123614300D01*
X22637800Y-123500000D01*
X22244100Y-123385700D01*
X21837700Y-123157100D01*
X21520200Y-122928500D01*
X21113800Y-122801500D01*
X21761500Y-122750700D01*
X22294900Y-122712600D01*
X22758450Y-122706250D01*
X23002925Y-122703075D01*
G37*
X23002925Y-122703075D02*
X23339475Y-122798325D01*
X23603000Y-122890400D01*
X24301500Y-123296800D01*
X24331980Y-123324740D01*
X24339600Y-123309500D01*
X24339600Y-123322200D01*
X24331980Y-123324740D01*
X24250700Y-123487300D01*
X24644400Y-123627000D01*
X24434850Y-123652400D01*
X24041150Y-123677800D01*
X23564900Y-123677800D01*
X23120400Y-123614300D01*
X22637800Y-123500000D01*
X22244100Y-123385700D01*
X21837700Y-123157100D01*
X21520200Y-122928500D01*
X21113800Y-122801500D01*
X21761500Y-122750700D01*
X22294900Y-122712600D01*
X22758450Y-122706250D01*
X23002925Y-122703075D01*
G36*
X21596400Y-119524900D02*
G01*
X21913900Y-119766200D01*
X22479050Y-120083700D01*
X23075950Y-120515500D01*
X23450600Y-120896500D01*
X23850650Y-121461650D01*
X24447550Y-122642750D01*
X24746000Y-123207900D01*
X24758700Y-123220600D01*
X24428500Y-123246000D01*
X24326900Y-123195200D01*
X23971300Y-122947550D01*
X23564900Y-122579250D01*
X23234700Y-122230000D01*
X22879100Y-121798200D01*
X22599700Y-121379100D01*
X22409200Y-121125100D01*
X22155200Y-120667900D01*
X21901200Y-120299600D01*
X21659900Y-119880500D01*
X21380500Y-119321700D01*
X21596400Y-119524900D01*
G37*
X21596400Y-119524900D02*
X21913900Y-119766200D01*
X22479050Y-120083700D01*
X23075950Y-120515500D01*
X23450600Y-120896500D01*
X23850650Y-121461650D01*
X24447550Y-122642750D01*
X24746000Y-123207900D01*
X24758700Y-123220600D01*
X24428500Y-123246000D01*
X24326900Y-123195200D01*
X23971300Y-122947550D01*
X23564900Y-122579250D01*
X23234700Y-122230000D01*
X22879100Y-121798200D01*
X22599700Y-121379100D01*
X22409200Y-121125100D01*
X22155200Y-120667900D01*
X21901200Y-120299600D01*
X21659900Y-119880500D01*
X21380500Y-119321700D01*
X21596400Y-119524900D01*
D12*
X42750000Y-104750000D03*
X6750000Y-88750000D03*
X42750000Y-88750000D03*
X30750000Y-88750000D03*
X18750000Y-88750000D03*
X6750000Y-104750000D03*
X30750000Y-104750000D03*
X18750000Y-104750000D03*
M02*
