G04 #@! TF.GenerationSoftware,KiCad,Pcbnew,(5.1.9-0-10_14)*
G04 #@! TF.CreationDate,2021-02-15T21:42:09-08:00*
G04 #@! TF.ProjectId,shatnoir,73686174-6e6f-4697-922e-6b696361645f,rev?*
G04 #@! TF.SameCoordinates,Original*
G04 #@! TF.FileFunction,Profile,NP*
%FSLAX46Y46*%
G04 Gerber Fmt 4.6, Leading zero omitted, Abs format (unit mm)*
G04 Created by KiCad (PCBNEW (5.1.9-0-10_14)) date 2021-02-15 21:42:09*
%MOMM*%
%LPD*%
G01*
G04 APERTURE LIST*
G04 #@! TA.AperFunction,Profile*
%ADD10C,0.050000*%
G04 #@! TD*
G04 APERTURE END LIST*
D10*
X45000000Y-46750000D02*
G75*
G03*
X45000000Y-46750000I-3750000J0D01*
G01*
X29000000Y-46750000D02*
G75*
G03*
X29000000Y-46750000I-3750000J0D01*
G01*
X13000000Y-46750000D02*
G75*
G03*
X13000000Y-46750000I-3750000J0D01*
G01*
X45000000Y-24750000D02*
G75*
G03*
X45000000Y-24750000I-3750000J0D01*
G01*
X29000000Y-24750000D02*
G75*
G03*
X29000000Y-24750000I-3750000J0D01*
G01*
X13000000Y-24750000D02*
G75*
G03*
X13000000Y-24750000I-3750000J0D01*
G01*
X8500000Y-123900000D02*
G75*
G02*
X8500000Y-127100000I0J-1600000D01*
G01*
X6500000Y-123900000D02*
X8500000Y-123900000D01*
X6500000Y-127100000D02*
G75*
G02*
X6500000Y-123900000I0J1600000D01*
G01*
X6500000Y-127100000D02*
X8500000Y-127100000D01*
X8500000Y-1400000D02*
G75*
G02*
X8500000Y-4600000I0J-1600000D01*
G01*
X6500000Y-1400000D02*
X8500000Y-1400000D01*
X6500000Y-4600000D02*
G75*
G02*
X6500000Y-1400000I0J1600000D01*
G01*
X6500000Y-4600000D02*
X8500000Y-4600000D01*
X44000000Y-123900000D02*
G75*
G02*
X44000000Y-127100000I0J-1600000D01*
G01*
X42000000Y-123900000D02*
X44000000Y-123900000D01*
X42000000Y-127100000D02*
G75*
G02*
X42000000Y-123900000I0J1600000D01*
G01*
X42000000Y-127100000D02*
X44000000Y-127100000D01*
X42000000Y-1400000D02*
X44000000Y-1400000D01*
X42000000Y-4600000D02*
X44000000Y-4600000D01*
X42000000Y-4600000D02*
G75*
G02*
X42000000Y-1400000I0J1600000D01*
G01*
X44000000Y-1400000D02*
G75*
G02*
X44000000Y-4600000I0J-1600000D01*
G01*
X0Y-128500000D02*
X0Y0D01*
X50500000Y-128500000D02*
X0Y-128500000D01*
X50500000Y0D02*
X50500000Y-128500000D01*
X0Y0D02*
X50500000Y0D01*
M02*
