G04 #@! TF.GenerationSoftware,KiCad,Pcbnew,(5.1.5-0)*
G04 #@! TF.CreationDate,2021-01-11T19:05:57-08:00*
G04 #@! TF.ProjectId,sloths,736c6f74-6873-42e6-9b69-6361645f7063,rev?*
G04 #@! TF.SameCoordinates,Original*
G04 #@! TF.FileFunction,Copper,L1,Top*
G04 #@! TF.FilePolarity,Positive*
%FSLAX46Y46*%
G04 Gerber Fmt 4.6, Leading zero omitted, Abs format (unit mm)*
G04 Created by KiCad (PCBNEW (5.1.5-0)) date 2021-01-11 19:05:57*
%MOMM*%
%LPD*%
G04 APERTURE LIST*
%ADD10C,5.100000*%
%ADD11C,6.100000*%
%ADD12C,0.254000*%
G04 APERTURE END LIST*
D10*
X8250000Y-51000000D03*
X20250000Y-51000000D03*
X32250000Y-51000000D03*
D11*
X8250000Y-39000000D03*
X32250000Y-39000000D03*
X8250000Y-63000000D03*
X20250000Y-63000000D03*
X32250000Y-63000000D03*
X32250000Y-78000000D03*
X20250000Y-78000000D03*
X27500000Y-107750000D03*
X13250000Y-108000000D03*
X8250000Y-78000000D03*
X8250000Y-93000000D03*
X32250000Y-93000000D03*
X20250000Y-93000000D03*
D12*
G36*
X39640001Y-127840000D02*
G01*
X660000Y-127840000D01*
X660000Y-125451353D01*
X4242755Y-125451353D01*
X4243173Y-125511171D01*
X4242755Y-125570988D01*
X4243655Y-125580160D01*
X4276296Y-125890715D01*
X4288320Y-125949291D01*
X4299532Y-126008070D01*
X4302196Y-126016892D01*
X4394535Y-126315192D01*
X4417715Y-126370335D01*
X4440124Y-126425800D01*
X4444451Y-126433937D01*
X4592972Y-126708621D01*
X4626417Y-126758205D01*
X4659177Y-126808268D01*
X4665001Y-126815409D01*
X4864047Y-127056013D01*
X4906482Y-127098154D01*
X4948346Y-127140903D01*
X4955446Y-127146777D01*
X5197435Y-127344138D01*
X5247259Y-127377241D01*
X5296615Y-127411036D01*
X5304721Y-127415419D01*
X5580435Y-127562019D01*
X5635704Y-127584799D01*
X5690724Y-127608381D01*
X5699527Y-127611105D01*
X5998465Y-127701359D01*
X6057138Y-127712976D01*
X6115655Y-127725415D01*
X6124820Y-127726378D01*
X6435594Y-127756850D01*
X6435598Y-127756850D01*
X6467581Y-127760000D01*
X8532419Y-127760000D01*
X8565986Y-127756694D01*
X8586744Y-127756694D01*
X8595909Y-127755731D01*
X8906228Y-127720923D01*
X8964731Y-127708487D01*
X9023419Y-127696867D01*
X9032222Y-127694142D01*
X9329870Y-127599723D01*
X9384792Y-127576183D01*
X9440159Y-127553363D01*
X9448265Y-127548979D01*
X9721904Y-127398544D01*
X9771217Y-127364779D01*
X9821088Y-127331645D01*
X9828188Y-127325770D01*
X10067397Y-127125049D01*
X10109241Y-127082320D01*
X10151694Y-127040162D01*
X10157519Y-127033020D01*
X10353185Y-126789660D01*
X10385938Y-126739608D01*
X10419391Y-126690013D01*
X10423714Y-126681881D01*
X10423717Y-126681877D01*
X10423719Y-126681873D01*
X10568388Y-126405146D01*
X10590785Y-126349711D01*
X10613978Y-126294539D01*
X10616641Y-126285717D01*
X10704807Y-125986156D01*
X10716007Y-125927440D01*
X10728045Y-125868798D01*
X10728944Y-125859627D01*
X10757245Y-125548647D01*
X10756827Y-125488830D01*
X10757088Y-125451353D01*
X30042755Y-125451353D01*
X30043173Y-125511171D01*
X30042755Y-125570988D01*
X30043655Y-125580160D01*
X30076296Y-125890715D01*
X30088320Y-125949291D01*
X30099532Y-126008070D01*
X30102196Y-126016892D01*
X30194535Y-126315192D01*
X30217715Y-126370335D01*
X30240124Y-126425800D01*
X30244451Y-126433937D01*
X30392972Y-126708621D01*
X30426417Y-126758205D01*
X30459177Y-126808268D01*
X30465001Y-126815409D01*
X30664047Y-127056013D01*
X30706482Y-127098154D01*
X30748346Y-127140903D01*
X30755446Y-127146777D01*
X30997435Y-127344138D01*
X31047259Y-127377241D01*
X31096615Y-127411036D01*
X31104721Y-127415419D01*
X31380435Y-127562019D01*
X31435704Y-127584799D01*
X31490724Y-127608381D01*
X31499527Y-127611105D01*
X31798465Y-127701359D01*
X31857138Y-127712976D01*
X31915655Y-127725415D01*
X31924820Y-127726378D01*
X32235594Y-127756850D01*
X32235598Y-127756850D01*
X32267581Y-127760000D01*
X34332419Y-127760000D01*
X34365986Y-127756694D01*
X34386744Y-127756694D01*
X34395909Y-127755731D01*
X34706228Y-127720923D01*
X34764731Y-127708487D01*
X34823419Y-127696867D01*
X34832222Y-127694142D01*
X35129870Y-127599723D01*
X35184792Y-127576183D01*
X35240159Y-127553363D01*
X35248265Y-127548979D01*
X35521904Y-127398544D01*
X35571217Y-127364779D01*
X35621088Y-127331645D01*
X35628188Y-127325770D01*
X35867397Y-127125049D01*
X35909241Y-127082320D01*
X35951694Y-127040162D01*
X35957519Y-127033020D01*
X36153185Y-126789660D01*
X36185938Y-126739608D01*
X36219391Y-126690013D01*
X36223714Y-126681881D01*
X36223717Y-126681877D01*
X36223719Y-126681873D01*
X36368388Y-126405146D01*
X36390785Y-126349711D01*
X36413978Y-126294539D01*
X36416641Y-126285717D01*
X36504807Y-125986156D01*
X36516007Y-125927440D01*
X36528045Y-125868798D01*
X36528944Y-125859627D01*
X36557245Y-125548647D01*
X36556827Y-125488829D01*
X36557245Y-125429012D01*
X36556345Y-125419841D01*
X36523704Y-125109285D01*
X36511680Y-125050709D01*
X36500468Y-124991930D01*
X36497804Y-124983108D01*
X36405465Y-124684808D01*
X36382280Y-124629653D01*
X36359876Y-124574200D01*
X36355549Y-124566064D01*
X36355549Y-124566063D01*
X36355546Y-124566059D01*
X36207028Y-124291379D01*
X36173583Y-124241795D01*
X36140823Y-124191732D01*
X36134999Y-124184591D01*
X35935954Y-123943987D01*
X35893535Y-123901863D01*
X35851655Y-123859097D01*
X35844554Y-123853223D01*
X35602565Y-123655862D01*
X35552741Y-123622759D01*
X35503385Y-123588964D01*
X35495279Y-123584581D01*
X35219566Y-123437981D01*
X35164269Y-123415189D01*
X35109275Y-123391619D01*
X35100472Y-123388895D01*
X34801535Y-123298641D01*
X34742862Y-123287024D01*
X34684345Y-123274585D01*
X34675180Y-123273622D01*
X34364405Y-123243150D01*
X34364402Y-123243150D01*
X34332419Y-123240000D01*
X32267581Y-123240000D01*
X32234014Y-123243306D01*
X32213256Y-123243306D01*
X32204091Y-123244269D01*
X31893771Y-123279077D01*
X31835298Y-123291506D01*
X31776581Y-123303132D01*
X31767778Y-123305858D01*
X31470130Y-123400277D01*
X31415147Y-123423843D01*
X31359841Y-123446638D01*
X31351735Y-123451021D01*
X31078095Y-123601456D01*
X31028748Y-123635245D01*
X30978913Y-123668355D01*
X30971812Y-123674229D01*
X30732603Y-123874951D01*
X30690759Y-123917681D01*
X30648305Y-123959839D01*
X30642481Y-123966980D01*
X30446814Y-124210340D01*
X30414055Y-124260400D01*
X30380609Y-124309986D01*
X30376283Y-124318123D01*
X30231612Y-124594854D01*
X30209215Y-124650289D01*
X30186022Y-124705461D01*
X30183359Y-124714283D01*
X30095193Y-125013844D01*
X30083993Y-125072560D01*
X30071955Y-125131202D01*
X30071056Y-125140373D01*
X30042755Y-125451353D01*
X10757088Y-125451353D01*
X10757245Y-125429012D01*
X10756345Y-125419841D01*
X10723704Y-125109285D01*
X10711680Y-125050709D01*
X10700468Y-124991930D01*
X10697804Y-124983108D01*
X10605465Y-124684808D01*
X10582280Y-124629653D01*
X10559876Y-124574200D01*
X10555549Y-124566064D01*
X10555549Y-124566063D01*
X10555546Y-124566059D01*
X10407028Y-124291379D01*
X10373583Y-124241795D01*
X10340823Y-124191732D01*
X10334999Y-124184591D01*
X10135954Y-123943987D01*
X10093535Y-123901863D01*
X10051655Y-123859097D01*
X10044554Y-123853223D01*
X9802565Y-123655862D01*
X9752741Y-123622759D01*
X9703385Y-123588964D01*
X9695279Y-123584581D01*
X9419566Y-123437981D01*
X9364269Y-123415189D01*
X9309275Y-123391619D01*
X9300472Y-123388895D01*
X9001535Y-123298641D01*
X8942862Y-123287024D01*
X8884345Y-123274585D01*
X8875180Y-123273622D01*
X8564405Y-123243150D01*
X8564402Y-123243150D01*
X8532419Y-123240000D01*
X6467581Y-123240000D01*
X6434014Y-123243306D01*
X6413256Y-123243306D01*
X6404091Y-123244269D01*
X6093771Y-123279077D01*
X6035298Y-123291506D01*
X5976581Y-123303132D01*
X5967778Y-123305858D01*
X5670130Y-123400277D01*
X5615147Y-123423843D01*
X5559841Y-123446638D01*
X5551735Y-123451021D01*
X5278095Y-123601456D01*
X5228748Y-123635245D01*
X5178913Y-123668355D01*
X5171812Y-123674229D01*
X4932603Y-123874951D01*
X4890759Y-123917681D01*
X4848305Y-123959839D01*
X4842481Y-123966980D01*
X4646814Y-124210340D01*
X4614055Y-124260400D01*
X4580609Y-124309986D01*
X4576283Y-124318123D01*
X4431612Y-124594854D01*
X4409215Y-124650289D01*
X4386022Y-124705461D01*
X4383359Y-124714283D01*
X4295193Y-125013844D01*
X4283993Y-125072560D01*
X4271955Y-125131202D01*
X4271056Y-125140373D01*
X4242755Y-125451353D01*
X660000Y-125451353D01*
X660000Y-23315784D01*
X5091332Y-23315784D01*
X5091332Y-24184216D01*
X5260754Y-25035961D01*
X5593089Y-25838288D01*
X6075564Y-26560362D01*
X6689638Y-27174436D01*
X7411712Y-27656911D01*
X8214039Y-27989246D01*
X9065784Y-28158668D01*
X9934216Y-28158668D01*
X10785961Y-27989246D01*
X11588288Y-27656911D01*
X12310362Y-27174436D01*
X12924436Y-26560362D01*
X13406911Y-25838288D01*
X13739246Y-25035961D01*
X13908668Y-24184216D01*
X13908668Y-23315784D01*
X26091332Y-23315784D01*
X26091332Y-24184216D01*
X26260754Y-25035961D01*
X26593089Y-25838288D01*
X27075564Y-26560362D01*
X27689638Y-27174436D01*
X28411712Y-27656911D01*
X29214039Y-27989246D01*
X30065784Y-28158668D01*
X30934216Y-28158668D01*
X31785961Y-27989246D01*
X32588288Y-27656911D01*
X33310362Y-27174436D01*
X33924436Y-26560362D01*
X34406911Y-25838288D01*
X34739246Y-25035961D01*
X34908668Y-24184216D01*
X34908668Y-23315784D01*
X34739246Y-22464039D01*
X34406911Y-21661712D01*
X33924436Y-20939638D01*
X33310362Y-20325564D01*
X32588288Y-19843089D01*
X31785961Y-19510754D01*
X30934216Y-19341332D01*
X30065784Y-19341332D01*
X29214039Y-19510754D01*
X28411712Y-19843089D01*
X27689638Y-20325564D01*
X27075564Y-20939638D01*
X26593089Y-21661712D01*
X26260754Y-22464039D01*
X26091332Y-23315784D01*
X13908668Y-23315784D01*
X13739246Y-22464039D01*
X13406911Y-21661712D01*
X12924436Y-20939638D01*
X12310362Y-20325564D01*
X11588288Y-19843089D01*
X10785961Y-19510754D01*
X9934216Y-19341332D01*
X9065784Y-19341332D01*
X8214039Y-19510754D01*
X7411712Y-19843089D01*
X6689638Y-20325564D01*
X6075564Y-20939638D01*
X5593089Y-21661712D01*
X5260754Y-22464039D01*
X5091332Y-23315784D01*
X660000Y-23315784D01*
X660000Y-2951353D01*
X4242755Y-2951353D01*
X4243173Y-3011171D01*
X4242755Y-3070988D01*
X4243655Y-3080160D01*
X4276296Y-3390715D01*
X4288320Y-3449291D01*
X4299532Y-3508070D01*
X4302196Y-3516892D01*
X4394535Y-3815192D01*
X4417715Y-3870335D01*
X4440124Y-3925800D01*
X4444451Y-3933937D01*
X4592972Y-4208621D01*
X4626417Y-4258205D01*
X4659177Y-4308268D01*
X4665001Y-4315409D01*
X4864047Y-4556013D01*
X4906482Y-4598154D01*
X4948346Y-4640903D01*
X4955446Y-4646777D01*
X5197435Y-4844138D01*
X5247259Y-4877241D01*
X5296615Y-4911036D01*
X5304721Y-4915419D01*
X5580435Y-5062019D01*
X5635704Y-5084799D01*
X5690724Y-5108381D01*
X5699527Y-5111105D01*
X5998465Y-5201359D01*
X6057138Y-5212976D01*
X6115655Y-5225415D01*
X6124820Y-5226378D01*
X6435594Y-5256850D01*
X6435598Y-5256850D01*
X6467581Y-5260000D01*
X8532419Y-5260000D01*
X8565986Y-5256694D01*
X8586744Y-5256694D01*
X8595909Y-5255731D01*
X8906228Y-5220923D01*
X8964731Y-5208487D01*
X9023419Y-5196867D01*
X9032222Y-5194142D01*
X9329870Y-5099723D01*
X9384792Y-5076183D01*
X9440159Y-5053363D01*
X9448265Y-5048979D01*
X9721904Y-4898544D01*
X9771217Y-4864779D01*
X9821088Y-4831645D01*
X9828188Y-4825770D01*
X10067397Y-4625049D01*
X10109241Y-4582320D01*
X10151694Y-4540162D01*
X10157519Y-4533020D01*
X10353185Y-4289660D01*
X10385938Y-4239608D01*
X10419391Y-4190013D01*
X10423714Y-4181881D01*
X10423717Y-4181877D01*
X10423719Y-4181873D01*
X10568388Y-3905146D01*
X10590785Y-3849711D01*
X10613978Y-3794539D01*
X10616641Y-3785717D01*
X10704807Y-3486156D01*
X10716007Y-3427440D01*
X10728045Y-3368798D01*
X10728944Y-3359627D01*
X10757245Y-3048647D01*
X10756827Y-2988830D01*
X10757088Y-2951353D01*
X30042755Y-2951353D01*
X30043173Y-3011171D01*
X30042755Y-3070988D01*
X30043655Y-3080160D01*
X30076296Y-3390715D01*
X30088320Y-3449291D01*
X30099532Y-3508070D01*
X30102196Y-3516892D01*
X30194535Y-3815192D01*
X30217715Y-3870335D01*
X30240124Y-3925800D01*
X30244451Y-3933937D01*
X30392972Y-4208621D01*
X30426417Y-4258205D01*
X30459177Y-4308268D01*
X30465001Y-4315409D01*
X30664047Y-4556013D01*
X30706482Y-4598154D01*
X30748346Y-4640903D01*
X30755446Y-4646777D01*
X30997435Y-4844138D01*
X31047259Y-4877241D01*
X31096615Y-4911036D01*
X31104721Y-4915419D01*
X31380435Y-5062019D01*
X31435704Y-5084799D01*
X31490724Y-5108381D01*
X31499527Y-5111105D01*
X31798465Y-5201359D01*
X31857138Y-5212976D01*
X31915655Y-5225415D01*
X31924820Y-5226378D01*
X32235594Y-5256850D01*
X32235598Y-5256850D01*
X32267581Y-5260000D01*
X34332419Y-5260000D01*
X34365986Y-5256694D01*
X34386744Y-5256694D01*
X34395909Y-5255731D01*
X34706228Y-5220923D01*
X34764731Y-5208487D01*
X34823419Y-5196867D01*
X34832222Y-5194142D01*
X35129870Y-5099723D01*
X35184792Y-5076183D01*
X35240159Y-5053363D01*
X35248265Y-5048979D01*
X35521904Y-4898544D01*
X35571217Y-4864779D01*
X35621088Y-4831645D01*
X35628188Y-4825770D01*
X35867397Y-4625049D01*
X35909241Y-4582320D01*
X35951694Y-4540162D01*
X35957519Y-4533020D01*
X36153185Y-4289660D01*
X36185938Y-4239608D01*
X36219391Y-4190013D01*
X36223714Y-4181881D01*
X36223717Y-4181877D01*
X36223719Y-4181873D01*
X36368388Y-3905146D01*
X36390785Y-3849711D01*
X36413978Y-3794539D01*
X36416641Y-3785717D01*
X36504807Y-3486156D01*
X36516007Y-3427440D01*
X36528045Y-3368798D01*
X36528944Y-3359627D01*
X36557245Y-3048647D01*
X36556827Y-2988829D01*
X36557245Y-2929012D01*
X36556345Y-2919841D01*
X36523704Y-2609285D01*
X36511680Y-2550709D01*
X36500468Y-2491930D01*
X36497804Y-2483108D01*
X36405465Y-2184808D01*
X36382280Y-2129653D01*
X36359876Y-2074200D01*
X36355549Y-2066064D01*
X36355549Y-2066063D01*
X36355546Y-2066059D01*
X36207028Y-1791379D01*
X36173583Y-1741795D01*
X36140823Y-1691732D01*
X36134999Y-1684591D01*
X35935954Y-1443987D01*
X35893535Y-1401863D01*
X35851655Y-1359097D01*
X35844554Y-1353223D01*
X35602565Y-1155862D01*
X35552741Y-1122759D01*
X35503385Y-1088964D01*
X35495279Y-1084581D01*
X35219566Y-937981D01*
X35164269Y-915189D01*
X35109275Y-891619D01*
X35100472Y-888895D01*
X34801535Y-798641D01*
X34742862Y-787024D01*
X34684345Y-774585D01*
X34675180Y-773622D01*
X34364405Y-743150D01*
X34364402Y-743150D01*
X34332419Y-740000D01*
X32267581Y-740000D01*
X32234014Y-743306D01*
X32213256Y-743306D01*
X32204091Y-744269D01*
X31893771Y-779077D01*
X31835298Y-791506D01*
X31776581Y-803132D01*
X31767778Y-805858D01*
X31470130Y-900277D01*
X31415147Y-923843D01*
X31359841Y-946638D01*
X31351735Y-951021D01*
X31078095Y-1101456D01*
X31028748Y-1135245D01*
X30978913Y-1168355D01*
X30971812Y-1174229D01*
X30732603Y-1374951D01*
X30690759Y-1417681D01*
X30648305Y-1459839D01*
X30642481Y-1466980D01*
X30446814Y-1710340D01*
X30414055Y-1760400D01*
X30380609Y-1809986D01*
X30376283Y-1818123D01*
X30231612Y-2094854D01*
X30209215Y-2150289D01*
X30186022Y-2205461D01*
X30183359Y-2214283D01*
X30095193Y-2513844D01*
X30083993Y-2572560D01*
X30071955Y-2631202D01*
X30071056Y-2640373D01*
X30042755Y-2951353D01*
X10757088Y-2951353D01*
X10757245Y-2929012D01*
X10756345Y-2919841D01*
X10723704Y-2609285D01*
X10711680Y-2550709D01*
X10700468Y-2491930D01*
X10697804Y-2483108D01*
X10605465Y-2184808D01*
X10582280Y-2129653D01*
X10559876Y-2074200D01*
X10555549Y-2066064D01*
X10555549Y-2066063D01*
X10555546Y-2066059D01*
X10407028Y-1791379D01*
X10373583Y-1741795D01*
X10340823Y-1691732D01*
X10334999Y-1684591D01*
X10135954Y-1443987D01*
X10093535Y-1401863D01*
X10051655Y-1359097D01*
X10044554Y-1353223D01*
X9802565Y-1155862D01*
X9752741Y-1122759D01*
X9703385Y-1088964D01*
X9695279Y-1084581D01*
X9419566Y-937981D01*
X9364269Y-915189D01*
X9309275Y-891619D01*
X9300472Y-888895D01*
X9001535Y-798641D01*
X8942862Y-787024D01*
X8884345Y-774585D01*
X8875180Y-773622D01*
X8564405Y-743150D01*
X8564402Y-743150D01*
X8532419Y-740000D01*
X6467581Y-740000D01*
X6434014Y-743306D01*
X6413256Y-743306D01*
X6404091Y-744269D01*
X6093771Y-779077D01*
X6035298Y-791506D01*
X5976581Y-803132D01*
X5967778Y-805858D01*
X5670130Y-900277D01*
X5615147Y-923843D01*
X5559841Y-946638D01*
X5551735Y-951021D01*
X5278095Y-1101456D01*
X5228748Y-1135245D01*
X5178913Y-1168355D01*
X5171812Y-1174229D01*
X4932603Y-1374951D01*
X4890759Y-1417681D01*
X4848305Y-1459839D01*
X4842481Y-1466980D01*
X4646814Y-1710340D01*
X4614055Y-1760400D01*
X4580609Y-1809986D01*
X4576283Y-1818123D01*
X4431612Y-2094854D01*
X4409215Y-2150289D01*
X4386022Y-2205461D01*
X4383359Y-2214283D01*
X4295193Y-2513844D01*
X4283993Y-2572560D01*
X4271955Y-2631202D01*
X4271056Y-2640373D01*
X4242755Y-2951353D01*
X660000Y-2951353D01*
X660000Y-660000D01*
X39640000Y-660000D01*
X39640001Y-127840000D01*
G37*
X39640001Y-127840000D02*
X660000Y-127840000D01*
X660000Y-125451353D01*
X4242755Y-125451353D01*
X4243173Y-125511171D01*
X4242755Y-125570988D01*
X4243655Y-125580160D01*
X4276296Y-125890715D01*
X4288320Y-125949291D01*
X4299532Y-126008070D01*
X4302196Y-126016892D01*
X4394535Y-126315192D01*
X4417715Y-126370335D01*
X4440124Y-126425800D01*
X4444451Y-126433937D01*
X4592972Y-126708621D01*
X4626417Y-126758205D01*
X4659177Y-126808268D01*
X4665001Y-126815409D01*
X4864047Y-127056013D01*
X4906482Y-127098154D01*
X4948346Y-127140903D01*
X4955446Y-127146777D01*
X5197435Y-127344138D01*
X5247259Y-127377241D01*
X5296615Y-127411036D01*
X5304721Y-127415419D01*
X5580435Y-127562019D01*
X5635704Y-127584799D01*
X5690724Y-127608381D01*
X5699527Y-127611105D01*
X5998465Y-127701359D01*
X6057138Y-127712976D01*
X6115655Y-127725415D01*
X6124820Y-127726378D01*
X6435594Y-127756850D01*
X6435598Y-127756850D01*
X6467581Y-127760000D01*
X8532419Y-127760000D01*
X8565986Y-127756694D01*
X8586744Y-127756694D01*
X8595909Y-127755731D01*
X8906228Y-127720923D01*
X8964731Y-127708487D01*
X9023419Y-127696867D01*
X9032222Y-127694142D01*
X9329870Y-127599723D01*
X9384792Y-127576183D01*
X9440159Y-127553363D01*
X9448265Y-127548979D01*
X9721904Y-127398544D01*
X9771217Y-127364779D01*
X9821088Y-127331645D01*
X9828188Y-127325770D01*
X10067397Y-127125049D01*
X10109241Y-127082320D01*
X10151694Y-127040162D01*
X10157519Y-127033020D01*
X10353185Y-126789660D01*
X10385938Y-126739608D01*
X10419391Y-126690013D01*
X10423714Y-126681881D01*
X10423717Y-126681877D01*
X10423719Y-126681873D01*
X10568388Y-126405146D01*
X10590785Y-126349711D01*
X10613978Y-126294539D01*
X10616641Y-126285717D01*
X10704807Y-125986156D01*
X10716007Y-125927440D01*
X10728045Y-125868798D01*
X10728944Y-125859627D01*
X10757245Y-125548647D01*
X10756827Y-125488830D01*
X10757088Y-125451353D01*
X30042755Y-125451353D01*
X30043173Y-125511171D01*
X30042755Y-125570988D01*
X30043655Y-125580160D01*
X30076296Y-125890715D01*
X30088320Y-125949291D01*
X30099532Y-126008070D01*
X30102196Y-126016892D01*
X30194535Y-126315192D01*
X30217715Y-126370335D01*
X30240124Y-126425800D01*
X30244451Y-126433937D01*
X30392972Y-126708621D01*
X30426417Y-126758205D01*
X30459177Y-126808268D01*
X30465001Y-126815409D01*
X30664047Y-127056013D01*
X30706482Y-127098154D01*
X30748346Y-127140903D01*
X30755446Y-127146777D01*
X30997435Y-127344138D01*
X31047259Y-127377241D01*
X31096615Y-127411036D01*
X31104721Y-127415419D01*
X31380435Y-127562019D01*
X31435704Y-127584799D01*
X31490724Y-127608381D01*
X31499527Y-127611105D01*
X31798465Y-127701359D01*
X31857138Y-127712976D01*
X31915655Y-127725415D01*
X31924820Y-127726378D01*
X32235594Y-127756850D01*
X32235598Y-127756850D01*
X32267581Y-127760000D01*
X34332419Y-127760000D01*
X34365986Y-127756694D01*
X34386744Y-127756694D01*
X34395909Y-127755731D01*
X34706228Y-127720923D01*
X34764731Y-127708487D01*
X34823419Y-127696867D01*
X34832222Y-127694142D01*
X35129870Y-127599723D01*
X35184792Y-127576183D01*
X35240159Y-127553363D01*
X35248265Y-127548979D01*
X35521904Y-127398544D01*
X35571217Y-127364779D01*
X35621088Y-127331645D01*
X35628188Y-127325770D01*
X35867397Y-127125049D01*
X35909241Y-127082320D01*
X35951694Y-127040162D01*
X35957519Y-127033020D01*
X36153185Y-126789660D01*
X36185938Y-126739608D01*
X36219391Y-126690013D01*
X36223714Y-126681881D01*
X36223717Y-126681877D01*
X36223719Y-126681873D01*
X36368388Y-126405146D01*
X36390785Y-126349711D01*
X36413978Y-126294539D01*
X36416641Y-126285717D01*
X36504807Y-125986156D01*
X36516007Y-125927440D01*
X36528045Y-125868798D01*
X36528944Y-125859627D01*
X36557245Y-125548647D01*
X36556827Y-125488829D01*
X36557245Y-125429012D01*
X36556345Y-125419841D01*
X36523704Y-125109285D01*
X36511680Y-125050709D01*
X36500468Y-124991930D01*
X36497804Y-124983108D01*
X36405465Y-124684808D01*
X36382280Y-124629653D01*
X36359876Y-124574200D01*
X36355549Y-124566064D01*
X36355549Y-124566063D01*
X36355546Y-124566059D01*
X36207028Y-124291379D01*
X36173583Y-124241795D01*
X36140823Y-124191732D01*
X36134999Y-124184591D01*
X35935954Y-123943987D01*
X35893535Y-123901863D01*
X35851655Y-123859097D01*
X35844554Y-123853223D01*
X35602565Y-123655862D01*
X35552741Y-123622759D01*
X35503385Y-123588964D01*
X35495279Y-123584581D01*
X35219566Y-123437981D01*
X35164269Y-123415189D01*
X35109275Y-123391619D01*
X35100472Y-123388895D01*
X34801535Y-123298641D01*
X34742862Y-123287024D01*
X34684345Y-123274585D01*
X34675180Y-123273622D01*
X34364405Y-123243150D01*
X34364402Y-123243150D01*
X34332419Y-123240000D01*
X32267581Y-123240000D01*
X32234014Y-123243306D01*
X32213256Y-123243306D01*
X32204091Y-123244269D01*
X31893771Y-123279077D01*
X31835298Y-123291506D01*
X31776581Y-123303132D01*
X31767778Y-123305858D01*
X31470130Y-123400277D01*
X31415147Y-123423843D01*
X31359841Y-123446638D01*
X31351735Y-123451021D01*
X31078095Y-123601456D01*
X31028748Y-123635245D01*
X30978913Y-123668355D01*
X30971812Y-123674229D01*
X30732603Y-123874951D01*
X30690759Y-123917681D01*
X30648305Y-123959839D01*
X30642481Y-123966980D01*
X30446814Y-124210340D01*
X30414055Y-124260400D01*
X30380609Y-124309986D01*
X30376283Y-124318123D01*
X30231612Y-124594854D01*
X30209215Y-124650289D01*
X30186022Y-124705461D01*
X30183359Y-124714283D01*
X30095193Y-125013844D01*
X30083993Y-125072560D01*
X30071955Y-125131202D01*
X30071056Y-125140373D01*
X30042755Y-125451353D01*
X10757088Y-125451353D01*
X10757245Y-125429012D01*
X10756345Y-125419841D01*
X10723704Y-125109285D01*
X10711680Y-125050709D01*
X10700468Y-124991930D01*
X10697804Y-124983108D01*
X10605465Y-124684808D01*
X10582280Y-124629653D01*
X10559876Y-124574200D01*
X10555549Y-124566064D01*
X10555549Y-124566063D01*
X10555546Y-124566059D01*
X10407028Y-124291379D01*
X10373583Y-124241795D01*
X10340823Y-124191732D01*
X10334999Y-124184591D01*
X10135954Y-123943987D01*
X10093535Y-123901863D01*
X10051655Y-123859097D01*
X10044554Y-123853223D01*
X9802565Y-123655862D01*
X9752741Y-123622759D01*
X9703385Y-123588964D01*
X9695279Y-123584581D01*
X9419566Y-123437981D01*
X9364269Y-123415189D01*
X9309275Y-123391619D01*
X9300472Y-123388895D01*
X9001535Y-123298641D01*
X8942862Y-123287024D01*
X8884345Y-123274585D01*
X8875180Y-123273622D01*
X8564405Y-123243150D01*
X8564402Y-123243150D01*
X8532419Y-123240000D01*
X6467581Y-123240000D01*
X6434014Y-123243306D01*
X6413256Y-123243306D01*
X6404091Y-123244269D01*
X6093771Y-123279077D01*
X6035298Y-123291506D01*
X5976581Y-123303132D01*
X5967778Y-123305858D01*
X5670130Y-123400277D01*
X5615147Y-123423843D01*
X5559841Y-123446638D01*
X5551735Y-123451021D01*
X5278095Y-123601456D01*
X5228748Y-123635245D01*
X5178913Y-123668355D01*
X5171812Y-123674229D01*
X4932603Y-123874951D01*
X4890759Y-123917681D01*
X4848305Y-123959839D01*
X4842481Y-123966980D01*
X4646814Y-124210340D01*
X4614055Y-124260400D01*
X4580609Y-124309986D01*
X4576283Y-124318123D01*
X4431612Y-124594854D01*
X4409215Y-124650289D01*
X4386022Y-124705461D01*
X4383359Y-124714283D01*
X4295193Y-125013844D01*
X4283993Y-125072560D01*
X4271955Y-125131202D01*
X4271056Y-125140373D01*
X4242755Y-125451353D01*
X660000Y-125451353D01*
X660000Y-23315784D01*
X5091332Y-23315784D01*
X5091332Y-24184216D01*
X5260754Y-25035961D01*
X5593089Y-25838288D01*
X6075564Y-26560362D01*
X6689638Y-27174436D01*
X7411712Y-27656911D01*
X8214039Y-27989246D01*
X9065784Y-28158668D01*
X9934216Y-28158668D01*
X10785961Y-27989246D01*
X11588288Y-27656911D01*
X12310362Y-27174436D01*
X12924436Y-26560362D01*
X13406911Y-25838288D01*
X13739246Y-25035961D01*
X13908668Y-24184216D01*
X13908668Y-23315784D01*
X26091332Y-23315784D01*
X26091332Y-24184216D01*
X26260754Y-25035961D01*
X26593089Y-25838288D01*
X27075564Y-26560362D01*
X27689638Y-27174436D01*
X28411712Y-27656911D01*
X29214039Y-27989246D01*
X30065784Y-28158668D01*
X30934216Y-28158668D01*
X31785961Y-27989246D01*
X32588288Y-27656911D01*
X33310362Y-27174436D01*
X33924436Y-26560362D01*
X34406911Y-25838288D01*
X34739246Y-25035961D01*
X34908668Y-24184216D01*
X34908668Y-23315784D01*
X34739246Y-22464039D01*
X34406911Y-21661712D01*
X33924436Y-20939638D01*
X33310362Y-20325564D01*
X32588288Y-19843089D01*
X31785961Y-19510754D01*
X30934216Y-19341332D01*
X30065784Y-19341332D01*
X29214039Y-19510754D01*
X28411712Y-19843089D01*
X27689638Y-20325564D01*
X27075564Y-20939638D01*
X26593089Y-21661712D01*
X26260754Y-22464039D01*
X26091332Y-23315784D01*
X13908668Y-23315784D01*
X13739246Y-22464039D01*
X13406911Y-21661712D01*
X12924436Y-20939638D01*
X12310362Y-20325564D01*
X11588288Y-19843089D01*
X10785961Y-19510754D01*
X9934216Y-19341332D01*
X9065784Y-19341332D01*
X8214039Y-19510754D01*
X7411712Y-19843089D01*
X6689638Y-20325564D01*
X6075564Y-20939638D01*
X5593089Y-21661712D01*
X5260754Y-22464039D01*
X5091332Y-23315784D01*
X660000Y-23315784D01*
X660000Y-2951353D01*
X4242755Y-2951353D01*
X4243173Y-3011171D01*
X4242755Y-3070988D01*
X4243655Y-3080160D01*
X4276296Y-3390715D01*
X4288320Y-3449291D01*
X4299532Y-3508070D01*
X4302196Y-3516892D01*
X4394535Y-3815192D01*
X4417715Y-3870335D01*
X4440124Y-3925800D01*
X4444451Y-3933937D01*
X4592972Y-4208621D01*
X4626417Y-4258205D01*
X4659177Y-4308268D01*
X4665001Y-4315409D01*
X4864047Y-4556013D01*
X4906482Y-4598154D01*
X4948346Y-4640903D01*
X4955446Y-4646777D01*
X5197435Y-4844138D01*
X5247259Y-4877241D01*
X5296615Y-4911036D01*
X5304721Y-4915419D01*
X5580435Y-5062019D01*
X5635704Y-5084799D01*
X5690724Y-5108381D01*
X5699527Y-5111105D01*
X5998465Y-5201359D01*
X6057138Y-5212976D01*
X6115655Y-5225415D01*
X6124820Y-5226378D01*
X6435594Y-5256850D01*
X6435598Y-5256850D01*
X6467581Y-5260000D01*
X8532419Y-5260000D01*
X8565986Y-5256694D01*
X8586744Y-5256694D01*
X8595909Y-5255731D01*
X8906228Y-5220923D01*
X8964731Y-5208487D01*
X9023419Y-5196867D01*
X9032222Y-5194142D01*
X9329870Y-5099723D01*
X9384792Y-5076183D01*
X9440159Y-5053363D01*
X9448265Y-5048979D01*
X9721904Y-4898544D01*
X9771217Y-4864779D01*
X9821088Y-4831645D01*
X9828188Y-4825770D01*
X10067397Y-4625049D01*
X10109241Y-4582320D01*
X10151694Y-4540162D01*
X10157519Y-4533020D01*
X10353185Y-4289660D01*
X10385938Y-4239608D01*
X10419391Y-4190013D01*
X10423714Y-4181881D01*
X10423717Y-4181877D01*
X10423719Y-4181873D01*
X10568388Y-3905146D01*
X10590785Y-3849711D01*
X10613978Y-3794539D01*
X10616641Y-3785717D01*
X10704807Y-3486156D01*
X10716007Y-3427440D01*
X10728045Y-3368798D01*
X10728944Y-3359627D01*
X10757245Y-3048647D01*
X10756827Y-2988830D01*
X10757088Y-2951353D01*
X30042755Y-2951353D01*
X30043173Y-3011171D01*
X30042755Y-3070988D01*
X30043655Y-3080160D01*
X30076296Y-3390715D01*
X30088320Y-3449291D01*
X30099532Y-3508070D01*
X30102196Y-3516892D01*
X30194535Y-3815192D01*
X30217715Y-3870335D01*
X30240124Y-3925800D01*
X30244451Y-3933937D01*
X30392972Y-4208621D01*
X30426417Y-4258205D01*
X30459177Y-4308268D01*
X30465001Y-4315409D01*
X30664047Y-4556013D01*
X30706482Y-4598154D01*
X30748346Y-4640903D01*
X30755446Y-4646777D01*
X30997435Y-4844138D01*
X31047259Y-4877241D01*
X31096615Y-4911036D01*
X31104721Y-4915419D01*
X31380435Y-5062019D01*
X31435704Y-5084799D01*
X31490724Y-5108381D01*
X31499527Y-5111105D01*
X31798465Y-5201359D01*
X31857138Y-5212976D01*
X31915655Y-5225415D01*
X31924820Y-5226378D01*
X32235594Y-5256850D01*
X32235598Y-5256850D01*
X32267581Y-5260000D01*
X34332419Y-5260000D01*
X34365986Y-5256694D01*
X34386744Y-5256694D01*
X34395909Y-5255731D01*
X34706228Y-5220923D01*
X34764731Y-5208487D01*
X34823419Y-5196867D01*
X34832222Y-5194142D01*
X35129870Y-5099723D01*
X35184792Y-5076183D01*
X35240159Y-5053363D01*
X35248265Y-5048979D01*
X35521904Y-4898544D01*
X35571217Y-4864779D01*
X35621088Y-4831645D01*
X35628188Y-4825770D01*
X35867397Y-4625049D01*
X35909241Y-4582320D01*
X35951694Y-4540162D01*
X35957519Y-4533020D01*
X36153185Y-4289660D01*
X36185938Y-4239608D01*
X36219391Y-4190013D01*
X36223714Y-4181881D01*
X36223717Y-4181877D01*
X36223719Y-4181873D01*
X36368388Y-3905146D01*
X36390785Y-3849711D01*
X36413978Y-3794539D01*
X36416641Y-3785717D01*
X36504807Y-3486156D01*
X36516007Y-3427440D01*
X36528045Y-3368798D01*
X36528944Y-3359627D01*
X36557245Y-3048647D01*
X36556827Y-2988829D01*
X36557245Y-2929012D01*
X36556345Y-2919841D01*
X36523704Y-2609285D01*
X36511680Y-2550709D01*
X36500468Y-2491930D01*
X36497804Y-2483108D01*
X36405465Y-2184808D01*
X36382280Y-2129653D01*
X36359876Y-2074200D01*
X36355549Y-2066064D01*
X36355549Y-2066063D01*
X36355546Y-2066059D01*
X36207028Y-1791379D01*
X36173583Y-1741795D01*
X36140823Y-1691732D01*
X36134999Y-1684591D01*
X35935954Y-1443987D01*
X35893535Y-1401863D01*
X35851655Y-1359097D01*
X35844554Y-1353223D01*
X35602565Y-1155862D01*
X35552741Y-1122759D01*
X35503385Y-1088964D01*
X35495279Y-1084581D01*
X35219566Y-937981D01*
X35164269Y-915189D01*
X35109275Y-891619D01*
X35100472Y-888895D01*
X34801535Y-798641D01*
X34742862Y-787024D01*
X34684345Y-774585D01*
X34675180Y-773622D01*
X34364405Y-743150D01*
X34364402Y-743150D01*
X34332419Y-740000D01*
X32267581Y-740000D01*
X32234014Y-743306D01*
X32213256Y-743306D01*
X32204091Y-744269D01*
X31893771Y-779077D01*
X31835298Y-791506D01*
X31776581Y-803132D01*
X31767778Y-805858D01*
X31470130Y-900277D01*
X31415147Y-923843D01*
X31359841Y-946638D01*
X31351735Y-951021D01*
X31078095Y-1101456D01*
X31028748Y-1135245D01*
X30978913Y-1168355D01*
X30971812Y-1174229D01*
X30732603Y-1374951D01*
X30690759Y-1417681D01*
X30648305Y-1459839D01*
X30642481Y-1466980D01*
X30446814Y-1710340D01*
X30414055Y-1760400D01*
X30380609Y-1809986D01*
X30376283Y-1818123D01*
X30231612Y-2094854D01*
X30209215Y-2150289D01*
X30186022Y-2205461D01*
X30183359Y-2214283D01*
X30095193Y-2513844D01*
X30083993Y-2572560D01*
X30071955Y-2631202D01*
X30071056Y-2640373D01*
X30042755Y-2951353D01*
X10757088Y-2951353D01*
X10757245Y-2929012D01*
X10756345Y-2919841D01*
X10723704Y-2609285D01*
X10711680Y-2550709D01*
X10700468Y-2491930D01*
X10697804Y-2483108D01*
X10605465Y-2184808D01*
X10582280Y-2129653D01*
X10559876Y-2074200D01*
X10555549Y-2066064D01*
X10555549Y-2066063D01*
X10555546Y-2066059D01*
X10407028Y-1791379D01*
X10373583Y-1741795D01*
X10340823Y-1691732D01*
X10334999Y-1684591D01*
X10135954Y-1443987D01*
X10093535Y-1401863D01*
X10051655Y-1359097D01*
X10044554Y-1353223D01*
X9802565Y-1155862D01*
X9752741Y-1122759D01*
X9703385Y-1088964D01*
X9695279Y-1084581D01*
X9419566Y-937981D01*
X9364269Y-915189D01*
X9309275Y-891619D01*
X9300472Y-888895D01*
X9001535Y-798641D01*
X8942862Y-787024D01*
X8884345Y-774585D01*
X8875180Y-773622D01*
X8564405Y-743150D01*
X8564402Y-743150D01*
X8532419Y-740000D01*
X6467581Y-740000D01*
X6434014Y-743306D01*
X6413256Y-743306D01*
X6404091Y-744269D01*
X6093771Y-779077D01*
X6035298Y-791506D01*
X5976581Y-803132D01*
X5967778Y-805858D01*
X5670130Y-900277D01*
X5615147Y-923843D01*
X5559841Y-946638D01*
X5551735Y-951021D01*
X5278095Y-1101456D01*
X5228748Y-1135245D01*
X5178913Y-1168355D01*
X5171812Y-1174229D01*
X4932603Y-1374951D01*
X4890759Y-1417681D01*
X4848305Y-1459839D01*
X4842481Y-1466980D01*
X4646814Y-1710340D01*
X4614055Y-1760400D01*
X4580609Y-1809986D01*
X4576283Y-1818123D01*
X4431612Y-2094854D01*
X4409215Y-2150289D01*
X4386022Y-2205461D01*
X4383359Y-2214283D01*
X4295193Y-2513844D01*
X4283993Y-2572560D01*
X4271955Y-2631202D01*
X4271056Y-2640373D01*
X4242755Y-2951353D01*
X660000Y-2951353D01*
X660000Y-660000D01*
X39640000Y-660000D01*
X39640001Y-127840000D01*
M02*
