G04 #@! TF.GenerationSoftware,KiCad,Pcbnew,(5.1.5-0)*
G04 #@! TF.CreationDate,2021-01-12T22:48:58-08:00*
G04 #@! TF.ProjectId,sloths,736c6f74-6873-42e6-9b69-6361645f7063,rev?*
G04 #@! TF.SameCoordinates,Original*
G04 #@! TF.FileFunction,Copper,L1,Top*
G04 #@! TF.FilePolarity,Positive*
%FSLAX46Y46*%
G04 Gerber Fmt 4.6, Leading zero omitted, Abs format (unit mm)*
G04 Created by KiCad (PCBNEW (5.1.5-0)) date 2021-01-12 22:48:58*
%MOMM*%
%LPD*%
G04 APERTURE LIST*
%ADD10C,1.000000*%
%ADD11C,0.100000*%
%ADD12C,5.100000*%
%ADD13C,6.100000*%
G04 APERTURE END LIST*
D10*
X32250000Y-39000000D02*
X32250000Y-93250000D01*
X8250000Y-38500000D02*
X8250000Y-92750000D01*
X20250000Y-63000000D02*
X20250000Y-93250000D01*
X8250000Y-92750000D02*
X13250000Y-108250000D01*
X13250000Y-108250000D02*
X20500000Y-93250000D01*
X32250000Y-93250000D02*
X27500000Y-108250000D01*
X27500000Y-108250000D02*
X20250000Y-93500000D01*
X13250000Y-108000000D02*
X27500000Y-108000000D01*
D11*
G36*
X17196400Y-119524900D02*
G01*
X17513900Y-119766200D01*
X18079050Y-120083700D01*
X18675950Y-120515500D01*
X19050600Y-120896500D01*
X19450650Y-121461650D01*
X20047550Y-122642750D01*
X20346000Y-123207900D01*
X20358700Y-123220600D01*
X20028500Y-123246000D01*
X19926900Y-123195200D01*
X19571300Y-122947550D01*
X19164900Y-122579250D01*
X18834700Y-122230000D01*
X18479100Y-121798200D01*
X18199700Y-121379100D01*
X18009200Y-121125100D01*
X17755200Y-120667900D01*
X17501200Y-120299600D01*
X17259900Y-119880500D01*
X16980500Y-119321700D01*
X17196400Y-119524900D01*
G37*
X17196400Y-119524900D02*
X17513900Y-119766200D01*
X18079050Y-120083700D01*
X18675950Y-120515500D01*
X19050600Y-120896500D01*
X19450650Y-121461650D01*
X20047550Y-122642750D01*
X20346000Y-123207900D01*
X20358700Y-123220600D01*
X20028500Y-123246000D01*
X19926900Y-123195200D01*
X19571300Y-122947550D01*
X19164900Y-122579250D01*
X18834700Y-122230000D01*
X18479100Y-121798200D01*
X18199700Y-121379100D01*
X18009200Y-121125100D01*
X17755200Y-120667900D01*
X17501200Y-120299600D01*
X17259900Y-119880500D01*
X16980500Y-119321700D01*
X17196400Y-119524900D01*
G36*
X18602925Y-122703075D02*
G01*
X18939475Y-122798325D01*
X19203000Y-122890400D01*
X19901500Y-123296800D01*
X19931980Y-123324740D01*
X19939600Y-123309500D01*
X19939600Y-123322200D01*
X19931980Y-123324740D01*
X19850700Y-123487300D01*
X20244400Y-123627000D01*
X20034850Y-123652400D01*
X19641150Y-123677800D01*
X19164900Y-123677800D01*
X18720400Y-123614300D01*
X18237800Y-123500000D01*
X17844100Y-123385700D01*
X17437700Y-123157100D01*
X17120200Y-122928500D01*
X16713800Y-122801500D01*
X17361500Y-122750700D01*
X17894900Y-122712600D01*
X18358450Y-122706250D01*
X18602925Y-122703075D01*
G37*
X18602925Y-122703075D02*
X18939475Y-122798325D01*
X19203000Y-122890400D01*
X19901500Y-123296800D01*
X19931980Y-123324740D01*
X19939600Y-123309500D01*
X19939600Y-123322200D01*
X19931980Y-123324740D01*
X19850700Y-123487300D01*
X20244400Y-123627000D01*
X20034850Y-123652400D01*
X19641150Y-123677800D01*
X19164900Y-123677800D01*
X18720400Y-123614300D01*
X18237800Y-123500000D01*
X17844100Y-123385700D01*
X17437700Y-123157100D01*
X17120200Y-122928500D01*
X16713800Y-122801500D01*
X17361500Y-122750700D01*
X17894900Y-122712600D01*
X18358450Y-122706250D01*
X18602925Y-122703075D01*
G36*
X20466650Y-123766700D02*
G01*
X20098350Y-124198500D01*
X19660200Y-124471550D01*
X19279200Y-124611250D01*
X18529900Y-124776350D01*
X19012500Y-124249300D01*
X19406200Y-123982600D01*
X19774500Y-123779400D01*
X20244400Y-123703200D01*
X20269800Y-123703200D01*
X20466650Y-123766700D01*
G37*
X20466650Y-123766700D02*
X20098350Y-124198500D01*
X19660200Y-124471550D01*
X19279200Y-124611250D01*
X18529900Y-124776350D01*
X19012500Y-124249300D01*
X19406200Y-123982600D01*
X19774500Y-123779400D01*
X20244400Y-123703200D01*
X20269800Y-123703200D01*
X20466650Y-123766700D01*
G36*
X20600000Y-123284100D02*
G01*
X20388862Y-123477775D01*
X20607937Y-123573025D01*
X21358825Y-124115950D01*
X21177850Y-124211200D01*
X20600000Y-123754000D01*
X20612700Y-124846200D01*
X20498400Y-124706500D01*
X20492050Y-123817500D01*
X20536500Y-123817500D01*
X20155500Y-123601600D01*
X19869750Y-123449200D01*
X20034850Y-123169800D01*
X20600000Y-123284100D01*
G37*
X20600000Y-123284100D02*
X20388862Y-123477775D01*
X20607937Y-123573025D01*
X21358825Y-124115950D01*
X21177850Y-124211200D01*
X20600000Y-123754000D01*
X20612700Y-124846200D01*
X20498400Y-124706500D01*
X20492050Y-123817500D01*
X20536500Y-123817500D01*
X20155500Y-123601600D01*
X19869750Y-123449200D01*
X20034850Y-123169800D01*
X20600000Y-123284100D01*
G36*
X21241350Y-123741300D02*
G01*
X21793800Y-124020700D01*
X22120825Y-124347725D01*
X22255763Y-124577913D01*
X22487538Y-124847788D01*
X22181150Y-124763650D01*
X21927150Y-124687450D01*
X21749350Y-124623950D01*
X21374700Y-124490600D01*
X21015925Y-124296925D01*
X20755575Y-124011175D01*
X20631750Y-123849250D01*
X20695250Y-123887350D01*
X20669850Y-123823850D01*
X20733350Y-123652400D01*
X21241350Y-123741300D01*
G37*
X21241350Y-123741300D02*
X21793800Y-124020700D01*
X22120825Y-124347725D01*
X22255763Y-124577913D01*
X22487538Y-124847788D01*
X22181150Y-124763650D01*
X21927150Y-124687450D01*
X21749350Y-124623950D01*
X21374700Y-124490600D01*
X21015925Y-124296925D01*
X20755575Y-124011175D01*
X20631750Y-123849250D01*
X20695250Y-123887350D01*
X20669850Y-123823850D01*
X20733350Y-123652400D01*
X21241350Y-123741300D01*
G36*
X23673400Y-122738000D02*
G01*
X24105200Y-122763400D01*
X24683207Y-122773943D01*
X24003600Y-122928500D01*
X23571800Y-123119000D01*
X23228900Y-123334900D01*
X22809800Y-123500000D01*
X22276400Y-123588900D01*
X21831900Y-123614300D01*
X21254050Y-123595250D01*
X20676200Y-123576200D01*
X20612700Y-123500000D01*
X20828600Y-123436500D01*
X20835585Y-123385700D01*
X21151815Y-123258700D01*
X21685850Y-123030100D01*
X22238300Y-122826900D01*
X22632000Y-122712600D01*
X23076500Y-122712600D01*
X23673400Y-122738000D01*
G37*
X23673400Y-122738000D02*
X24105200Y-122763400D01*
X24683207Y-122773943D01*
X24003600Y-122928500D01*
X23571800Y-123119000D01*
X23228900Y-123334900D01*
X22809800Y-123500000D01*
X22276400Y-123588900D01*
X21831900Y-123614300D01*
X21254050Y-123595250D01*
X20676200Y-123576200D01*
X20612700Y-123500000D01*
X20828600Y-123436500D01*
X20835585Y-123385700D01*
X21151815Y-123258700D01*
X21685850Y-123030100D01*
X22238300Y-122826900D01*
X22632000Y-122712600D01*
X23076500Y-122712600D01*
X23673400Y-122738000D01*
G36*
X23660700Y-120083700D02*
G01*
X23419400Y-120579000D01*
X23216200Y-121036200D01*
X22955850Y-121556900D01*
X22682800Y-121912500D01*
X22371650Y-122325250D01*
X21901750Y-122718950D01*
X21400100Y-123055500D01*
X20295200Y-123652400D01*
X20320600Y-123322200D01*
X20625400Y-123271400D01*
X20873050Y-122833250D01*
X21088950Y-122369700D01*
X21254050Y-122039500D01*
X21438200Y-121747400D01*
X21603300Y-121429900D01*
X21882700Y-121074300D01*
X22162100Y-120756800D01*
X22492300Y-120464700D01*
X22835200Y-120236100D01*
X23216200Y-119982100D01*
X23609900Y-119715400D01*
X24143300Y-119321700D01*
X23660700Y-120083700D01*
G37*
X23660700Y-120083700D02*
X23419400Y-120579000D01*
X23216200Y-121036200D01*
X22955850Y-121556900D01*
X22682800Y-121912500D01*
X22371650Y-122325250D01*
X21901750Y-122718950D01*
X21400100Y-123055500D01*
X20295200Y-123652400D01*
X20320600Y-123322200D01*
X20625400Y-123271400D01*
X20873050Y-122833250D01*
X21088950Y-122369700D01*
X21254050Y-122039500D01*
X21438200Y-121747400D01*
X21603300Y-121429900D01*
X21882700Y-121074300D01*
X22162100Y-120756800D01*
X22492300Y-120464700D01*
X22835200Y-120236100D01*
X23216200Y-119982100D01*
X23609900Y-119715400D01*
X24143300Y-119321700D01*
X23660700Y-120083700D01*
G36*
X20815900Y-117950100D02*
G01*
X20917500Y-118432700D01*
X21031800Y-118889900D01*
X21114350Y-119220100D01*
X21177850Y-119601100D01*
X21222300Y-120121800D01*
X21222300Y-120655200D01*
X21171500Y-121239400D01*
X21108000Y-121760100D01*
X20965125Y-122255400D01*
X20666675Y-123271400D01*
X20453950Y-123220600D01*
X20219000Y-122306200D01*
X20045962Y-121442600D01*
X20061837Y-120655200D01*
X20114225Y-119994800D01*
X20276150Y-119220100D01*
X20511100Y-118407300D01*
X20638100Y-117632600D01*
X20701600Y-117111900D01*
X20815900Y-117950100D01*
G37*
X20815900Y-117950100D02*
X20917500Y-118432700D01*
X21031800Y-118889900D01*
X21114350Y-119220100D01*
X21177850Y-119601100D01*
X21222300Y-120121800D01*
X21222300Y-120655200D01*
X21171500Y-121239400D01*
X21108000Y-121760100D01*
X20965125Y-122255400D01*
X20666675Y-123271400D01*
X20453950Y-123220600D01*
X20219000Y-122306200D01*
X20045962Y-121442600D01*
X20061837Y-120655200D01*
X20114225Y-119994800D01*
X20276150Y-119220100D01*
X20511100Y-118407300D01*
X20638100Y-117632600D01*
X20701600Y-117111900D01*
X20815900Y-117950100D01*
D12*
X8250000Y-51000000D03*
X20250000Y-51000000D03*
X32250000Y-51000000D03*
D13*
X8250000Y-39000000D03*
X32250000Y-39000000D03*
X8250000Y-63000000D03*
X20250000Y-63000000D03*
X32250000Y-63000000D03*
X32250000Y-78000000D03*
X20250000Y-78000000D03*
X27500000Y-107750000D03*
X13250000Y-108000000D03*
X8250000Y-78000000D03*
X8250000Y-93000000D03*
X32250000Y-93000000D03*
X20250000Y-93000000D03*
M02*
