G04 #@! TF.GenerationSoftware,KiCad,Pcbnew,(5.1.5-0)*
G04 #@! TF.CreationDate,2021-01-11T19:05:57-08:00*
G04 #@! TF.ProjectId,sloths,736c6f74-6873-42e6-9b69-6361645f7063,rev?*
G04 #@! TF.SameCoordinates,Original*
G04 #@! TF.FileFunction,Soldermask,Bot*
G04 #@! TF.FilePolarity,Negative*
%FSLAX46Y46*%
G04 Gerber Fmt 4.6, Leading zero omitted, Abs format (unit mm)*
G04 Created by KiCad (PCBNEW (5.1.5-0)) date 2021-01-11 19:05:57*
%MOMM*%
%LPD*%
G04 APERTURE LIST*
%ADD10C,1.000000*%
%ADD11C,0.150000*%
%ADD12C,0.100000*%
G04 APERTURE END LIST*
D10*
X11750000Y-39000000D02*
G75*
G03X11750000Y-39000000I-3500000J0D01*
G01*
X35750000Y-39000000D02*
G75*
G03X35750000Y-39000000I-3500000J0D01*
G01*
X11750000Y-63000000D02*
G75*
G03X11750000Y-63000000I-3500000J0D01*
G01*
X35750000Y-63000000D02*
G75*
G03X35750000Y-63000000I-3500000J0D01*
G01*
X23750000Y-63000000D02*
G75*
G03X23750000Y-63000000I-3500000J0D01*
G01*
X35750000Y-78000000D02*
G75*
G03X35750000Y-78000000I-3500000J0D01*
G01*
X23750000Y-78000000D02*
G75*
G03X23750000Y-78000000I-3500000J0D01*
G01*
D11*
X22726190Y-121452380D02*
X22726190Y-120785714D01*
X22726190Y-120976190D02*
X22678571Y-120880952D01*
X22630952Y-120833333D01*
X22535714Y-120785714D01*
X22440476Y-120785714D01*
X21726190Y-121404761D02*
X21821428Y-121452380D01*
X22011904Y-121452380D01*
X22107142Y-121404761D01*
X22154761Y-121309523D01*
X22154761Y-120928571D01*
X22107142Y-120833333D01*
X22011904Y-120785714D01*
X21821428Y-120785714D01*
X21726190Y-120833333D01*
X21678571Y-120928571D01*
X21678571Y-121023809D01*
X22154761Y-121119047D01*
X21250000Y-120785714D02*
X21250000Y-121785714D01*
X21250000Y-120833333D02*
X21154761Y-120785714D01*
X20964285Y-120785714D01*
X20869047Y-120833333D01*
X20821428Y-120880952D01*
X20773809Y-120976190D01*
X20773809Y-121261904D01*
X20821428Y-121357142D01*
X20869047Y-121404761D01*
X20964285Y-121452380D01*
X21154761Y-121452380D01*
X21250000Y-121404761D01*
X19916666Y-121452380D02*
X19916666Y-120928571D01*
X19964285Y-120833333D01*
X20059523Y-120785714D01*
X20250000Y-120785714D01*
X20345238Y-120833333D01*
X19916666Y-121404761D02*
X20011904Y-121452380D01*
X20250000Y-121452380D01*
X20345238Y-121404761D01*
X20392857Y-121309523D01*
X20392857Y-121214285D01*
X20345238Y-121119047D01*
X20250000Y-121071428D01*
X20011904Y-121071428D01*
X19916666Y-121023809D01*
X19440476Y-120785714D02*
X19440476Y-121452380D01*
X19440476Y-120880952D02*
X19392857Y-120833333D01*
X19297619Y-120785714D01*
X19154761Y-120785714D01*
X19059523Y-120833333D01*
X19011904Y-120928571D01*
X19011904Y-121452380D01*
X18154761Y-121404761D02*
X18250000Y-121452380D01*
X18440476Y-121452380D01*
X18535714Y-121404761D01*
X18583333Y-121309523D01*
X18583333Y-120928571D01*
X18535714Y-120833333D01*
X18440476Y-120785714D01*
X18250000Y-120785714D01*
X18154761Y-120833333D01*
X18107142Y-120928571D01*
X18107142Y-121023809D01*
X18583333Y-121119047D01*
X17535714Y-121452380D02*
X17630952Y-121404761D01*
X17678571Y-121309523D01*
X17678571Y-120452380D01*
X16392857Y-121452380D02*
X16392857Y-120452380D01*
X16392857Y-120833333D02*
X16297619Y-120785714D01*
X16107142Y-120785714D01*
X16011904Y-120833333D01*
X15964285Y-120880952D01*
X15916666Y-120976190D01*
X15916666Y-121261904D01*
X15964285Y-121357142D01*
X16011904Y-121404761D01*
X16107142Y-121452380D01*
X16297619Y-121452380D01*
X16392857Y-121404761D01*
X15583333Y-120785714D02*
X15345238Y-121452380D01*
X15107142Y-120785714D02*
X15345238Y-121452380D01*
X15440476Y-121690476D01*
X15488095Y-121738095D01*
X15583333Y-121785714D01*
X13964285Y-120785714D02*
X13964285Y-121642857D01*
X14011904Y-121738095D01*
X14107142Y-121785714D01*
X14154761Y-121785714D01*
X13964285Y-120452380D02*
X14011904Y-120500000D01*
X13964285Y-120547619D01*
X13916666Y-120500000D01*
X13964285Y-120452380D01*
X13964285Y-120547619D01*
X13059523Y-121452380D02*
X13059523Y-120928571D01*
X13107142Y-120833333D01*
X13202380Y-120785714D01*
X13392857Y-120785714D01*
X13488095Y-120833333D01*
X13059523Y-121404761D02*
X13154761Y-121452380D01*
X13392857Y-121452380D01*
X13488095Y-121404761D01*
X13535714Y-121309523D01*
X13535714Y-121214285D01*
X13488095Y-121119047D01*
X13392857Y-121071428D01*
X13154761Y-121071428D01*
X13059523Y-121023809D01*
X12154761Y-121404761D02*
X12250000Y-121452380D01*
X12440476Y-121452380D01*
X12535714Y-121404761D01*
X12583333Y-121357142D01*
X12630952Y-121261904D01*
X12630952Y-120976190D01*
X12583333Y-120880952D01*
X12535714Y-120833333D01*
X12440476Y-120785714D01*
X12250000Y-120785714D01*
X12154761Y-120833333D01*
X11726190Y-121452380D02*
X11726190Y-120452380D01*
X11630952Y-121071428D02*
X11345238Y-121452380D01*
X11345238Y-120785714D02*
X11726190Y-121166666D01*
X10202380Y-121404761D02*
X10107142Y-121452380D01*
X9916666Y-121452380D01*
X9821428Y-121404761D01*
X9773809Y-121309523D01*
X9773809Y-121261904D01*
X9821428Y-121166666D01*
X9916666Y-121119047D01*
X10059523Y-121119047D01*
X10154761Y-121071428D01*
X10202380Y-120976190D01*
X10202380Y-120928571D01*
X10154761Y-120833333D01*
X10059523Y-120785714D01*
X9916666Y-120785714D01*
X9821428Y-120833333D01*
X9345238Y-121357142D02*
X9297619Y-121404761D01*
X9345238Y-121452380D01*
X9392857Y-121404761D01*
X9345238Y-121357142D01*
X9345238Y-121452380D01*
X8154761Y-120547619D02*
X8107142Y-120500000D01*
X8011904Y-120452380D01*
X7773809Y-120452380D01*
X7678571Y-120500000D01*
X7630952Y-120547619D01*
X7583333Y-120642857D01*
X7583333Y-120738095D01*
X7630952Y-120880952D01*
X8202380Y-121452380D01*
X7583333Y-121452380D01*
X6964285Y-120452380D02*
X6869047Y-120452380D01*
X6773809Y-120500000D01*
X6726190Y-120547619D01*
X6678571Y-120642857D01*
X6630952Y-120833333D01*
X6630952Y-121071428D01*
X6678571Y-121261904D01*
X6726190Y-121357142D01*
X6773809Y-121404761D01*
X6869047Y-121452380D01*
X6964285Y-121452380D01*
X7059523Y-121404761D01*
X7107142Y-121357142D01*
X7154761Y-121261904D01*
X7202380Y-121071428D01*
X7202380Y-120833333D01*
X7154761Y-120642857D01*
X7107142Y-120547619D01*
X7059523Y-120500000D01*
X6964285Y-120452380D01*
X6250000Y-120547619D02*
X6202380Y-120500000D01*
X6107142Y-120452380D01*
X5869047Y-120452380D01*
X5773809Y-120500000D01*
X5726190Y-120547619D01*
X5678571Y-120642857D01*
X5678571Y-120738095D01*
X5726190Y-120880952D01*
X6297619Y-121452380D01*
X5678571Y-121452380D01*
X4726190Y-121452380D02*
X5297619Y-121452380D01*
X5011904Y-121452380D02*
X5011904Y-120452380D01*
X5107142Y-120595238D01*
X5202380Y-120690476D01*
X5297619Y-120738095D01*
D10*
X11750000Y-78000000D02*
G75*
G03X11750000Y-78000000I-3500000J0D01*
G01*
X11750000Y-93000000D02*
G75*
G03X11750000Y-93000000I-3500000J0D01*
G01*
X23750000Y-93000000D02*
G75*
G03X23750000Y-93000000I-3500000J0D01*
G01*
X35750000Y-93000000D02*
G75*
G03X35750000Y-93000000I-3500000J0D01*
G01*
X31000000Y-107750000D02*
G75*
G03X31000000Y-107750000I-3500000J0D01*
G01*
X16750000Y-108000000D02*
G75*
G03X16750000Y-108000000I-3500000J0D01*
G01*
D12*
G36*
X13854975Y-104958585D02*
G01*
X14154528Y-105018170D01*
X14718874Y-105251930D01*
X15226772Y-105591296D01*
X15658704Y-106023228D01*
X15998070Y-106531126D01*
X16231830Y-107095472D01*
X16351000Y-107694578D01*
X16351000Y-108305422D01*
X16231830Y-108904528D01*
X15998070Y-109468874D01*
X15658704Y-109976772D01*
X15226772Y-110408704D01*
X14718874Y-110748070D01*
X14154528Y-110981830D01*
X13854975Y-111041415D01*
X13555423Y-111101000D01*
X12944577Y-111101000D01*
X12645025Y-111041415D01*
X12345472Y-110981830D01*
X11781126Y-110748070D01*
X11273228Y-110408704D01*
X10841296Y-109976772D01*
X10501930Y-109468874D01*
X10268170Y-108904528D01*
X10149000Y-108305422D01*
X10149000Y-107694578D01*
X10268170Y-107095472D01*
X10501930Y-106531126D01*
X10841296Y-106023228D01*
X11273228Y-105591296D01*
X11781126Y-105251930D01*
X12345472Y-105018170D01*
X12645025Y-104958585D01*
X12944577Y-104899000D01*
X13555423Y-104899000D01*
X13854975Y-104958585D01*
G37*
G36*
X28104975Y-104708585D02*
G01*
X28404528Y-104768170D01*
X28968874Y-105001930D01*
X29476772Y-105341296D01*
X29908704Y-105773228D01*
X30248070Y-106281126D01*
X30481830Y-106845472D01*
X30601000Y-107444578D01*
X30601000Y-108055422D01*
X30481830Y-108654528D01*
X30248070Y-109218874D01*
X29908704Y-109726772D01*
X29476772Y-110158704D01*
X28968874Y-110498070D01*
X28404528Y-110731830D01*
X28322884Y-110748070D01*
X27805423Y-110851000D01*
X27194577Y-110851000D01*
X26677116Y-110748070D01*
X26595472Y-110731830D01*
X26031126Y-110498070D01*
X25523228Y-110158704D01*
X25091296Y-109726772D01*
X24751930Y-109218874D01*
X24518170Y-108654528D01*
X24399000Y-108055422D01*
X24399000Y-107444578D01*
X24518170Y-106845472D01*
X24751930Y-106281126D01*
X25091296Y-105773228D01*
X25523228Y-105341296D01*
X26031126Y-105001930D01*
X26595472Y-104768170D01*
X26895025Y-104708585D01*
X27194577Y-104649000D01*
X27805423Y-104649000D01*
X28104975Y-104708585D01*
G37*
G36*
X8854975Y-89958585D02*
G01*
X9154528Y-90018170D01*
X9718874Y-90251930D01*
X10226772Y-90591296D01*
X10658704Y-91023228D01*
X10998070Y-91531126D01*
X11231830Y-92095472D01*
X11351000Y-92694578D01*
X11351000Y-93305422D01*
X11231830Y-93904528D01*
X10998070Y-94468874D01*
X10658704Y-94976772D01*
X10226772Y-95408704D01*
X9718874Y-95748070D01*
X9154528Y-95981830D01*
X8854975Y-96041415D01*
X8555423Y-96101000D01*
X7944577Y-96101000D01*
X7645025Y-96041415D01*
X7345472Y-95981830D01*
X6781126Y-95748070D01*
X6273228Y-95408704D01*
X5841296Y-94976772D01*
X5501930Y-94468874D01*
X5268170Y-93904528D01*
X5149000Y-93305422D01*
X5149000Y-92694578D01*
X5268170Y-92095472D01*
X5501930Y-91531126D01*
X5841296Y-91023228D01*
X6273228Y-90591296D01*
X6781126Y-90251930D01*
X7345472Y-90018170D01*
X7645025Y-89958585D01*
X7944577Y-89899000D01*
X8555423Y-89899000D01*
X8854975Y-89958585D01*
G37*
G36*
X20854975Y-89958585D02*
G01*
X21154528Y-90018170D01*
X21718874Y-90251930D01*
X22226772Y-90591296D01*
X22658704Y-91023228D01*
X22998070Y-91531126D01*
X23231830Y-92095472D01*
X23351000Y-92694578D01*
X23351000Y-93305422D01*
X23231830Y-93904528D01*
X22998070Y-94468874D01*
X22658704Y-94976772D01*
X22226772Y-95408704D01*
X21718874Y-95748070D01*
X21154528Y-95981830D01*
X20854975Y-96041415D01*
X20555423Y-96101000D01*
X19944577Y-96101000D01*
X19645025Y-96041415D01*
X19345472Y-95981830D01*
X18781126Y-95748070D01*
X18273228Y-95408704D01*
X17841296Y-94976772D01*
X17501930Y-94468874D01*
X17268170Y-93904528D01*
X17149000Y-93305422D01*
X17149000Y-92694578D01*
X17268170Y-92095472D01*
X17501930Y-91531126D01*
X17841296Y-91023228D01*
X18273228Y-90591296D01*
X18781126Y-90251930D01*
X19345472Y-90018170D01*
X19645025Y-89958585D01*
X19944577Y-89899000D01*
X20555423Y-89899000D01*
X20854975Y-89958585D01*
G37*
G36*
X32854975Y-89958585D02*
G01*
X33154528Y-90018170D01*
X33718874Y-90251930D01*
X34226772Y-90591296D01*
X34658704Y-91023228D01*
X34998070Y-91531126D01*
X35231830Y-92095472D01*
X35351000Y-92694578D01*
X35351000Y-93305422D01*
X35231830Y-93904528D01*
X34998070Y-94468874D01*
X34658704Y-94976772D01*
X34226772Y-95408704D01*
X33718874Y-95748070D01*
X33154528Y-95981830D01*
X32854975Y-96041415D01*
X32555423Y-96101000D01*
X31944577Y-96101000D01*
X31645025Y-96041415D01*
X31345472Y-95981830D01*
X30781126Y-95748070D01*
X30273228Y-95408704D01*
X29841296Y-94976772D01*
X29501930Y-94468874D01*
X29268170Y-93904528D01*
X29149000Y-93305422D01*
X29149000Y-92694578D01*
X29268170Y-92095472D01*
X29501930Y-91531126D01*
X29841296Y-91023228D01*
X30273228Y-90591296D01*
X30781126Y-90251930D01*
X31345472Y-90018170D01*
X31645025Y-89958585D01*
X31944577Y-89899000D01*
X32555423Y-89899000D01*
X32854975Y-89958585D01*
G37*
G36*
X32854975Y-74958585D02*
G01*
X33154528Y-75018170D01*
X33718874Y-75251930D01*
X34226772Y-75591296D01*
X34658704Y-76023228D01*
X34998070Y-76531126D01*
X35231830Y-77095472D01*
X35351000Y-77694578D01*
X35351000Y-78305422D01*
X35231830Y-78904528D01*
X34998070Y-79468874D01*
X34658704Y-79976772D01*
X34226772Y-80408704D01*
X33718874Y-80748070D01*
X33154528Y-80981830D01*
X32854975Y-81041415D01*
X32555423Y-81101000D01*
X31944577Y-81101000D01*
X31645025Y-81041415D01*
X31345472Y-80981830D01*
X30781126Y-80748070D01*
X30273228Y-80408704D01*
X29841296Y-79976772D01*
X29501930Y-79468874D01*
X29268170Y-78904528D01*
X29149000Y-78305422D01*
X29149000Y-77694578D01*
X29268170Y-77095472D01*
X29501930Y-76531126D01*
X29841296Y-76023228D01*
X30273228Y-75591296D01*
X30781126Y-75251930D01*
X31345472Y-75018170D01*
X31645025Y-74958585D01*
X31944577Y-74899000D01*
X32555423Y-74899000D01*
X32854975Y-74958585D01*
G37*
G36*
X20854975Y-74958585D02*
G01*
X21154528Y-75018170D01*
X21718874Y-75251930D01*
X22226772Y-75591296D01*
X22658704Y-76023228D01*
X22998070Y-76531126D01*
X23231830Y-77095472D01*
X23351000Y-77694578D01*
X23351000Y-78305422D01*
X23231830Y-78904528D01*
X22998070Y-79468874D01*
X22658704Y-79976772D01*
X22226772Y-80408704D01*
X21718874Y-80748070D01*
X21154528Y-80981830D01*
X20854975Y-81041415D01*
X20555423Y-81101000D01*
X19944577Y-81101000D01*
X19645025Y-81041415D01*
X19345472Y-80981830D01*
X18781126Y-80748070D01*
X18273228Y-80408704D01*
X17841296Y-79976772D01*
X17501930Y-79468874D01*
X17268170Y-78904528D01*
X17149000Y-78305422D01*
X17149000Y-77694578D01*
X17268170Y-77095472D01*
X17501930Y-76531126D01*
X17841296Y-76023228D01*
X18273228Y-75591296D01*
X18781126Y-75251930D01*
X19345472Y-75018170D01*
X19645025Y-74958585D01*
X19944577Y-74899000D01*
X20555423Y-74899000D01*
X20854975Y-74958585D01*
G37*
G36*
X8854975Y-74958585D02*
G01*
X9154528Y-75018170D01*
X9718874Y-75251930D01*
X10226772Y-75591296D01*
X10658704Y-76023228D01*
X10998070Y-76531126D01*
X11231830Y-77095472D01*
X11351000Y-77694578D01*
X11351000Y-78305422D01*
X11231830Y-78904528D01*
X10998070Y-79468874D01*
X10658704Y-79976772D01*
X10226772Y-80408704D01*
X9718874Y-80748070D01*
X9154528Y-80981830D01*
X8854975Y-81041415D01*
X8555423Y-81101000D01*
X7944577Y-81101000D01*
X7645025Y-81041415D01*
X7345472Y-80981830D01*
X6781126Y-80748070D01*
X6273228Y-80408704D01*
X5841296Y-79976772D01*
X5501930Y-79468874D01*
X5268170Y-78904528D01*
X5149000Y-78305422D01*
X5149000Y-77694578D01*
X5268170Y-77095472D01*
X5501930Y-76531126D01*
X5841296Y-76023228D01*
X6273228Y-75591296D01*
X6781126Y-75251930D01*
X7345472Y-75018170D01*
X7645025Y-74958585D01*
X7944577Y-74899000D01*
X8555423Y-74899000D01*
X8854975Y-74958585D01*
G37*
G36*
X32854975Y-59958585D02*
G01*
X33154528Y-60018170D01*
X33718874Y-60251930D01*
X34226772Y-60591296D01*
X34658704Y-61023228D01*
X34998070Y-61531126D01*
X35231830Y-62095472D01*
X35351000Y-62694578D01*
X35351000Y-63305422D01*
X35231830Y-63904528D01*
X34998070Y-64468874D01*
X34658704Y-64976772D01*
X34226772Y-65408704D01*
X33718874Y-65748070D01*
X33154528Y-65981830D01*
X32854975Y-66041415D01*
X32555423Y-66101000D01*
X31944577Y-66101000D01*
X31645025Y-66041415D01*
X31345472Y-65981830D01*
X30781126Y-65748070D01*
X30273228Y-65408704D01*
X29841296Y-64976772D01*
X29501930Y-64468874D01*
X29268170Y-63904528D01*
X29149000Y-63305422D01*
X29149000Y-62694578D01*
X29268170Y-62095472D01*
X29501930Y-61531126D01*
X29841296Y-61023228D01*
X30273228Y-60591296D01*
X30781126Y-60251930D01*
X31345472Y-60018170D01*
X31645025Y-59958585D01*
X31944577Y-59899000D01*
X32555423Y-59899000D01*
X32854975Y-59958585D01*
G37*
G36*
X20854975Y-59958585D02*
G01*
X21154528Y-60018170D01*
X21718874Y-60251930D01*
X22226772Y-60591296D01*
X22658704Y-61023228D01*
X22998070Y-61531126D01*
X23231830Y-62095472D01*
X23351000Y-62694578D01*
X23351000Y-63305422D01*
X23231830Y-63904528D01*
X22998070Y-64468874D01*
X22658704Y-64976772D01*
X22226772Y-65408704D01*
X21718874Y-65748070D01*
X21154528Y-65981830D01*
X20854975Y-66041415D01*
X20555423Y-66101000D01*
X19944577Y-66101000D01*
X19645025Y-66041415D01*
X19345472Y-65981830D01*
X18781126Y-65748070D01*
X18273228Y-65408704D01*
X17841296Y-64976772D01*
X17501930Y-64468874D01*
X17268170Y-63904528D01*
X17149000Y-63305422D01*
X17149000Y-62694578D01*
X17268170Y-62095472D01*
X17501930Y-61531126D01*
X17841296Y-61023228D01*
X18273228Y-60591296D01*
X18781126Y-60251930D01*
X19345472Y-60018170D01*
X19645025Y-59958585D01*
X19944577Y-59899000D01*
X20555423Y-59899000D01*
X20854975Y-59958585D01*
G37*
G36*
X8854975Y-59958585D02*
G01*
X9154528Y-60018170D01*
X9718874Y-60251930D01*
X10226772Y-60591296D01*
X10658704Y-61023228D01*
X10998070Y-61531126D01*
X11231830Y-62095472D01*
X11351000Y-62694578D01*
X11351000Y-63305422D01*
X11231830Y-63904528D01*
X10998070Y-64468874D01*
X10658704Y-64976772D01*
X10226772Y-65408704D01*
X9718874Y-65748070D01*
X9154528Y-65981830D01*
X8854975Y-66041415D01*
X8555423Y-66101000D01*
X7944577Y-66101000D01*
X7645025Y-66041415D01*
X7345472Y-65981830D01*
X6781126Y-65748070D01*
X6273228Y-65408704D01*
X5841296Y-64976772D01*
X5501930Y-64468874D01*
X5268170Y-63904528D01*
X5149000Y-63305422D01*
X5149000Y-62694578D01*
X5268170Y-62095472D01*
X5501930Y-61531126D01*
X5841296Y-61023228D01*
X6273228Y-60591296D01*
X6781126Y-60251930D01*
X7345472Y-60018170D01*
X7645025Y-59958585D01*
X7944577Y-59899000D01*
X8555423Y-59899000D01*
X8854975Y-59958585D01*
G37*
G36*
X32757430Y-48448977D02*
G01*
X33008684Y-48498955D01*
X33204752Y-48580169D01*
X33482034Y-48695023D01*
X33482035Y-48695024D01*
X33908041Y-48979671D01*
X34270329Y-49341959D01*
X34460524Y-49626607D01*
X34554977Y-49767966D01*
X34751045Y-50241317D01*
X34851000Y-50743823D01*
X34851000Y-51256177D01*
X34751045Y-51758683D01*
X34554977Y-52232034D01*
X34554976Y-52232035D01*
X34270329Y-52658041D01*
X33908041Y-53020329D01*
X33623393Y-53210524D01*
X33482034Y-53304977D01*
X33204752Y-53419831D01*
X33008684Y-53501045D01*
X32757430Y-53551023D01*
X32506177Y-53601000D01*
X31993823Y-53601000D01*
X31742570Y-53551023D01*
X31491316Y-53501045D01*
X31295248Y-53419831D01*
X31017966Y-53304977D01*
X30876607Y-53210524D01*
X30591959Y-53020329D01*
X30229671Y-52658041D01*
X29945024Y-52232035D01*
X29945023Y-52232034D01*
X29748955Y-51758683D01*
X29649000Y-51256177D01*
X29649000Y-50743823D01*
X29748955Y-50241317D01*
X29945023Y-49767966D01*
X30039476Y-49626607D01*
X30229671Y-49341959D01*
X30591959Y-48979671D01*
X31017965Y-48695024D01*
X31017966Y-48695023D01*
X31295248Y-48580169D01*
X31491316Y-48498955D01*
X31742570Y-48448977D01*
X31993823Y-48399000D01*
X32506177Y-48399000D01*
X32757430Y-48448977D01*
G37*
G36*
X20757430Y-48448977D02*
G01*
X21008684Y-48498955D01*
X21204752Y-48580169D01*
X21482034Y-48695023D01*
X21482035Y-48695024D01*
X21908041Y-48979671D01*
X22270329Y-49341959D01*
X22460524Y-49626607D01*
X22554977Y-49767966D01*
X22751045Y-50241317D01*
X22851000Y-50743823D01*
X22851000Y-51256177D01*
X22751045Y-51758683D01*
X22554977Y-52232034D01*
X22554976Y-52232035D01*
X22270329Y-52658041D01*
X21908041Y-53020329D01*
X21623393Y-53210524D01*
X21482034Y-53304977D01*
X21204752Y-53419831D01*
X21008684Y-53501045D01*
X20757430Y-53551023D01*
X20506177Y-53601000D01*
X19993823Y-53601000D01*
X19742570Y-53551023D01*
X19491316Y-53501045D01*
X19295248Y-53419831D01*
X19017966Y-53304977D01*
X18876607Y-53210524D01*
X18591959Y-53020329D01*
X18229671Y-52658041D01*
X17945024Y-52232035D01*
X17945023Y-52232034D01*
X17748955Y-51758683D01*
X17649000Y-51256177D01*
X17649000Y-50743823D01*
X17748955Y-50241317D01*
X17945023Y-49767966D01*
X18039476Y-49626607D01*
X18229671Y-49341959D01*
X18591959Y-48979671D01*
X19017965Y-48695024D01*
X19017966Y-48695023D01*
X19295248Y-48580169D01*
X19491316Y-48498955D01*
X19742570Y-48448977D01*
X19993823Y-48399000D01*
X20506177Y-48399000D01*
X20757430Y-48448977D01*
G37*
G36*
X8757430Y-48448977D02*
G01*
X9008684Y-48498955D01*
X9204752Y-48580169D01*
X9482034Y-48695023D01*
X9482035Y-48695024D01*
X9908041Y-48979671D01*
X10270329Y-49341959D01*
X10460524Y-49626607D01*
X10554977Y-49767966D01*
X10751045Y-50241317D01*
X10851000Y-50743823D01*
X10851000Y-51256177D01*
X10751045Y-51758683D01*
X10554977Y-52232034D01*
X10554976Y-52232035D01*
X10270329Y-52658041D01*
X9908041Y-53020329D01*
X9623393Y-53210524D01*
X9482034Y-53304977D01*
X9204752Y-53419831D01*
X9008684Y-53501045D01*
X8757430Y-53551023D01*
X8506177Y-53601000D01*
X7993823Y-53601000D01*
X7742570Y-53551023D01*
X7491316Y-53501045D01*
X7295248Y-53419831D01*
X7017966Y-53304977D01*
X6876607Y-53210524D01*
X6591959Y-53020329D01*
X6229671Y-52658041D01*
X5945024Y-52232035D01*
X5945023Y-52232034D01*
X5748955Y-51758683D01*
X5649000Y-51256177D01*
X5649000Y-50743823D01*
X5748955Y-50241317D01*
X5945023Y-49767966D01*
X6039476Y-49626607D01*
X6229671Y-49341959D01*
X6591959Y-48979671D01*
X7017965Y-48695024D01*
X7017966Y-48695023D01*
X7295248Y-48580169D01*
X7491316Y-48498955D01*
X7742570Y-48448977D01*
X7993823Y-48399000D01*
X8506177Y-48399000D01*
X8757430Y-48448977D01*
G37*
G36*
X32854975Y-35958585D02*
G01*
X33154528Y-36018170D01*
X33718874Y-36251930D01*
X34226772Y-36591296D01*
X34658704Y-37023228D01*
X34998070Y-37531126D01*
X35231830Y-38095472D01*
X35351000Y-38694578D01*
X35351000Y-39305422D01*
X35231830Y-39904528D01*
X34998070Y-40468874D01*
X34658704Y-40976772D01*
X34226772Y-41408704D01*
X33718874Y-41748070D01*
X33154528Y-41981830D01*
X32854975Y-42041415D01*
X32555423Y-42101000D01*
X31944577Y-42101000D01*
X31645025Y-42041415D01*
X31345472Y-41981830D01*
X30781126Y-41748070D01*
X30273228Y-41408704D01*
X29841296Y-40976772D01*
X29501930Y-40468874D01*
X29268170Y-39904528D01*
X29149000Y-39305422D01*
X29149000Y-38694578D01*
X29268170Y-38095472D01*
X29501930Y-37531126D01*
X29841296Y-37023228D01*
X30273228Y-36591296D01*
X30781126Y-36251930D01*
X31345472Y-36018170D01*
X31645025Y-35958585D01*
X31944577Y-35899000D01*
X32555423Y-35899000D01*
X32854975Y-35958585D01*
G37*
G36*
X8854975Y-35958585D02*
G01*
X9154528Y-36018170D01*
X9718874Y-36251930D01*
X10226772Y-36591296D01*
X10658704Y-37023228D01*
X10998070Y-37531126D01*
X11231830Y-38095472D01*
X11351000Y-38694578D01*
X11351000Y-39305422D01*
X11231830Y-39904528D01*
X10998070Y-40468874D01*
X10658704Y-40976772D01*
X10226772Y-41408704D01*
X9718874Y-41748070D01*
X9154528Y-41981830D01*
X8854975Y-42041415D01*
X8555423Y-42101000D01*
X7944577Y-42101000D01*
X7645025Y-42041415D01*
X7345472Y-41981830D01*
X6781126Y-41748070D01*
X6273228Y-41408704D01*
X5841296Y-40976772D01*
X5501930Y-40468874D01*
X5268170Y-39904528D01*
X5149000Y-39305422D01*
X5149000Y-38694578D01*
X5268170Y-38095472D01*
X5501930Y-37531126D01*
X5841296Y-37023228D01*
X6273228Y-36591296D01*
X6781126Y-36251930D01*
X7345472Y-36018170D01*
X7645025Y-35958585D01*
X7944577Y-35899000D01*
X8555423Y-35899000D01*
X8854975Y-35958585D01*
G37*
M02*
