G04 #@! TF.GenerationSoftware,KiCad,Pcbnew,(5.1.5-0)*
G04 #@! TF.CreationDate,2021-01-11T19:05:57-08:00*
G04 #@! TF.ProjectId,sloths,736c6f74-6873-42e6-9b69-6361645f7063,rev?*
G04 #@! TF.SameCoordinates,Original*
G04 #@! TF.FileFunction,Legend,Top*
G04 #@! TF.FilePolarity,Positive*
%FSLAX46Y46*%
G04 Gerber Fmt 4.6, Leading zero omitted, Abs format (unit mm)*
G04 Created by KiCad (PCBNEW (5.1.5-0)) date 2021-01-11 19:05:57*
%MOMM*%
%LPD*%
G04 APERTURE LIST*
%ADD10C,0.200000*%
%ADD11C,0.400000*%
G04 APERTURE END LIST*
D10*
X26488095Y-114142857D02*
X28011904Y-114142857D01*
X27250000Y-114904761D02*
X27250000Y-113380952D01*
X12488095Y-114142857D02*
X14011904Y-114142857D01*
X38750000Y-78452380D02*
X38750000Y-79404761D01*
X38083333Y-77404761D02*
X38750000Y-78452380D01*
X39416666Y-77404761D01*
X38083333Y-62154761D02*
X39416666Y-64154761D01*
X39416666Y-62154761D02*
X38083333Y-64154761D01*
D11*
X11416666Y-4666666D02*
X11916666Y-4833333D01*
X12750000Y-4833333D01*
X13083333Y-4666666D01*
X13250000Y-4500000D01*
X13416666Y-4166666D01*
X13416666Y-3833333D01*
X13250000Y-3500000D01*
X13083333Y-3333333D01*
X12750000Y-3166666D01*
X12083333Y-3000000D01*
X11750000Y-2833333D01*
X11583333Y-2666666D01*
X11416666Y-2333333D01*
X11416666Y-2000000D01*
X11583333Y-1666666D01*
X11750000Y-1500000D01*
X12083333Y-1333333D01*
X12916666Y-1333333D01*
X13416666Y-1500000D01*
X16583333Y-4833333D02*
X14916666Y-4833333D01*
X14916666Y-1333333D01*
X18416666Y-1333333D02*
X19083333Y-1333333D01*
X19416666Y-1500000D01*
X19750000Y-1833333D01*
X19916666Y-2500000D01*
X19916666Y-3666666D01*
X19750000Y-4333333D01*
X19416666Y-4666666D01*
X19083333Y-4833333D01*
X18416666Y-4833333D01*
X18083333Y-4666666D01*
X17750000Y-4333333D01*
X17583333Y-3666666D01*
X17583333Y-2500000D01*
X17750000Y-1833333D01*
X18083333Y-1500000D01*
X18416666Y-1333333D01*
X20916666Y-1333333D02*
X22916666Y-1333333D01*
X21916666Y-4833333D02*
X21916666Y-1333333D01*
X24083333Y-4833333D02*
X24083333Y-1333333D01*
X24083333Y-3000000D02*
X26083333Y-3000000D01*
X26083333Y-4833333D02*
X26083333Y-1333333D01*
X27583333Y-4666666D02*
X28083333Y-4833333D01*
X28916666Y-4833333D01*
X29249999Y-4666666D01*
X29416666Y-4500000D01*
X29583333Y-4166666D01*
X29583333Y-3833333D01*
X29416666Y-3500000D01*
X29249999Y-3333333D01*
X28916666Y-3166666D01*
X28249999Y-3000000D01*
X27916666Y-2833333D01*
X27749999Y-2666666D01*
X27583333Y-2333333D01*
X27583333Y-2000000D01*
X27749999Y-1666666D01*
X27916666Y-1500000D01*
X28249999Y-1333333D01*
X29083333Y-1333333D01*
X29583333Y-1500000D01*
D10*
X29476190Y-33714285D02*
X29380952Y-33809523D01*
X29095238Y-33904761D01*
X28904761Y-33904761D01*
X28619047Y-33809523D01*
X28428571Y-33619047D01*
X28333333Y-33428571D01*
X28238095Y-33047619D01*
X28238095Y-32761904D01*
X28333333Y-32380952D01*
X28428571Y-32190476D01*
X28619047Y-32000000D01*
X28904761Y-31904761D01*
X29095238Y-31904761D01*
X29380952Y-32000000D01*
X29476190Y-32095238D01*
X30047619Y-31904761D02*
X30714285Y-33904761D01*
X31380952Y-31904761D01*
X33571428Y-33904761D02*
X33571428Y-31904761D01*
X34523809Y-33904761D02*
X34523809Y-31904761D01*
X35666666Y-33904761D01*
X35666666Y-31904761D01*
X24833333Y-13904761D02*
X25976190Y-13904761D01*
X25404761Y-15904761D02*
X25404761Y-13904761D01*
X27023809Y-13904761D02*
X27404761Y-13904761D01*
X27595238Y-14000000D01*
X27785714Y-14190476D01*
X27880952Y-14571428D01*
X27880952Y-15238095D01*
X27785714Y-15619047D01*
X27595238Y-15809523D01*
X27404761Y-15904761D01*
X27023809Y-15904761D01*
X26833333Y-15809523D01*
X26642857Y-15619047D01*
X26547619Y-15238095D01*
X26547619Y-14571428D01*
X26642857Y-14190476D01*
X26833333Y-14000000D01*
X27023809Y-13904761D01*
X29880952Y-15904761D02*
X29214285Y-14952380D01*
X28738095Y-15904761D02*
X28738095Y-13904761D01*
X29500000Y-13904761D01*
X29690476Y-14000000D01*
X29785714Y-14095238D01*
X29880952Y-14285714D01*
X29880952Y-14571428D01*
X29785714Y-14761904D01*
X29690476Y-14857142D01*
X29500000Y-14952380D01*
X28738095Y-14952380D01*
X30738095Y-15904761D02*
X30738095Y-13904761D01*
X31500000Y-13904761D01*
X31690476Y-14000000D01*
X31785714Y-14095238D01*
X31880952Y-14285714D01*
X31880952Y-14571428D01*
X31785714Y-14761904D01*
X31690476Y-14857142D01*
X31500000Y-14952380D01*
X30738095Y-14952380D01*
X33119047Y-13904761D02*
X33500000Y-13904761D01*
X33690476Y-14000000D01*
X33880952Y-14190476D01*
X33976190Y-14571428D01*
X33976190Y-15238095D01*
X33880952Y-15619047D01*
X33690476Y-15809523D01*
X33500000Y-15904761D01*
X33119047Y-15904761D01*
X32928571Y-15809523D01*
X32738095Y-15619047D01*
X32642857Y-15238095D01*
X32642857Y-14571428D01*
X32738095Y-14190476D01*
X32928571Y-14000000D01*
X33119047Y-13904761D01*
X35976190Y-15904761D02*
X35309523Y-14952380D01*
X34833333Y-15904761D02*
X34833333Y-13904761D01*
X35595238Y-13904761D01*
X35785714Y-14000000D01*
X35880952Y-14095238D01*
X35976190Y-14285714D01*
X35976190Y-14571428D01*
X35880952Y-14761904D01*
X35785714Y-14857142D01*
X35595238Y-14952380D01*
X34833333Y-14952380D01*
X4500000Y-15333333D02*
X5452380Y-15333333D01*
X4309523Y-15904761D02*
X4976190Y-13904761D01*
X5642857Y-15904761D01*
X6309523Y-15904761D02*
X6309523Y-13904761D01*
X7071428Y-13904761D01*
X7261904Y-14000000D01*
X7357142Y-14095238D01*
X7452380Y-14285714D01*
X7452380Y-14571428D01*
X7357142Y-14761904D01*
X7261904Y-14857142D01*
X7071428Y-14952380D01*
X6309523Y-14952380D01*
X8214285Y-15333333D02*
X9166666Y-15333333D01*
X8023809Y-15904761D02*
X8690476Y-13904761D01*
X9357142Y-15904761D01*
X9738095Y-13904761D02*
X10880952Y-13904761D01*
X10309523Y-15904761D02*
X10309523Y-13904761D01*
X11547619Y-15904761D02*
X11547619Y-13904761D01*
X11547619Y-14857142D02*
X12690476Y-14857142D01*
X12690476Y-15904761D02*
X12690476Y-13904761D01*
X14023809Y-14952380D02*
X14023809Y-15904761D01*
X13357142Y-13904761D02*
X14023809Y-14952380D01*
X14690476Y-13904761D01*
X5726190Y-33714285D02*
X5630952Y-33809523D01*
X5345238Y-33904761D01*
X5154761Y-33904761D01*
X4869047Y-33809523D01*
X4678571Y-33619047D01*
X4583333Y-33428571D01*
X4488095Y-33047619D01*
X4488095Y-32761904D01*
X4583333Y-32380952D01*
X4678571Y-32190476D01*
X4869047Y-32000000D01*
X5154761Y-31904761D01*
X5345238Y-31904761D01*
X5630952Y-32000000D01*
X5726190Y-32095238D01*
X6297619Y-31904761D02*
X6964285Y-33904761D01*
X7630952Y-31904761D01*
X9821428Y-33904761D02*
X9821428Y-31904761D01*
X10773809Y-33904761D02*
X10773809Y-31904761D01*
X11916666Y-33904761D01*
X11916666Y-31904761D01*
X15202380Y-45904761D02*
X15202380Y-43904761D01*
X16154761Y-45904761D02*
X16154761Y-43904761D01*
X17297619Y-45904761D01*
X17297619Y-43904761D01*
X18250000Y-44857142D02*
X18916666Y-44857142D01*
X19202380Y-45904761D02*
X18250000Y-45904761D01*
X18250000Y-43904761D01*
X19202380Y-43904761D01*
X21202380Y-45904761D02*
X20535714Y-44952380D01*
X20059523Y-45904761D02*
X20059523Y-43904761D01*
X20821428Y-43904761D01*
X21011904Y-44000000D01*
X21107142Y-44095238D01*
X21202380Y-44285714D01*
X21202380Y-44571428D01*
X21107142Y-44761904D01*
X21011904Y-44857142D01*
X20821428Y-44952380D01*
X20059523Y-44952380D01*
X21773809Y-43904761D02*
X22916666Y-43904761D01*
X22345238Y-45904761D02*
X22345238Y-43904761D01*
X23583333Y-45904761D02*
X23583333Y-43904761D01*
X24440476Y-45333333D02*
X25392857Y-45333333D01*
X24250000Y-45904761D02*
X24916666Y-43904761D01*
X25583333Y-45904761D01*
X38083333Y-92154761D02*
X39416666Y-92154761D01*
X38083333Y-94154761D01*
X39416666Y-94154761D01*
X1083333Y-92154761D02*
X2416666Y-92154761D01*
X1083333Y-94154761D01*
X2416666Y-94154761D01*
X1083333Y-62154761D02*
X2416666Y-64154761D01*
X2416666Y-62154761D02*
X1083333Y-64154761D01*
X1750000Y-78452380D02*
X1750000Y-79404761D01*
X1083333Y-77404761D02*
X1750000Y-78452380D01*
X2416666Y-77404761D01*
M02*
