G04 #@! TF.GenerationSoftware,KiCad,Pcbnew,(5.1.5-0)*
G04 #@! TF.CreationDate,2021-01-12T22:26:57-08:00*
G04 #@! TF.ProjectId,feague,66656167-7565-42e6-9b69-6361645f7063,rev?*
G04 #@! TF.SameCoordinates,Original*
G04 #@! TF.FileFunction,Copper,L1,Top*
G04 #@! TF.FilePolarity,Positive*
%FSLAX46Y46*%
G04 Gerber Fmt 4.6, Leading zero omitted, Abs format (unit mm)*
G04 Created by KiCad (PCBNEW (5.1.5-0)) date 2021-01-12 22:26:57*
%MOMM*%
%LPD*%
G04 APERTURE LIST*
%ADD10C,1.000000*%
%ADD11C,4.000000*%
%ADD12C,3.000000*%
%ADD13C,2.500000*%
%ADD14C,0.100000*%
%ADD15C,6.400000*%
%ADD16C,5.100000*%
%ADD17C,6.100000*%
G04 APERTURE END LIST*
D10*
X136750000Y-98750000D02*
X136750000Y-126250000D01*
D11*
X138550000Y-126250000D02*
G75*
G03X138550000Y-126250000I-1800000J0D01*
G01*
D12*
X138250000Y-111000000D02*
G75*
G03X138250000Y-111000000I-1500000J0D01*
G01*
D13*
X137850000Y-98750000D02*
G75*
G03X137850000Y-98750000I-1100000J0D01*
G01*
D14*
G36*
X121846400Y-149524900D02*
G01*
X122163900Y-149766200D01*
X122729050Y-150083700D01*
X123325950Y-150515500D01*
X123700600Y-150896500D01*
X124100650Y-151461650D01*
X124697550Y-152642750D01*
X124996000Y-153207900D01*
X125008700Y-153220600D01*
X124678500Y-153246000D01*
X124576900Y-153195200D01*
X124221300Y-152947550D01*
X123814900Y-152579250D01*
X123484700Y-152230000D01*
X123129100Y-151798200D01*
X122849700Y-151379100D01*
X122659200Y-151125100D01*
X122405200Y-150667900D01*
X122151200Y-150299600D01*
X121909900Y-149880500D01*
X121630500Y-149321700D01*
X121846400Y-149524900D01*
G37*
X121846400Y-149524900D02*
X122163900Y-149766200D01*
X122729050Y-150083700D01*
X123325950Y-150515500D01*
X123700600Y-150896500D01*
X124100650Y-151461650D01*
X124697550Y-152642750D01*
X124996000Y-153207900D01*
X125008700Y-153220600D01*
X124678500Y-153246000D01*
X124576900Y-153195200D01*
X124221300Y-152947550D01*
X123814900Y-152579250D01*
X123484700Y-152230000D01*
X123129100Y-151798200D01*
X122849700Y-151379100D01*
X122659200Y-151125100D01*
X122405200Y-150667900D01*
X122151200Y-150299600D01*
X121909900Y-149880500D01*
X121630500Y-149321700D01*
X121846400Y-149524900D01*
G36*
X123252925Y-152703075D02*
G01*
X123589475Y-152798325D01*
X123853000Y-152890400D01*
X124551500Y-153296800D01*
X124581980Y-153324740D01*
X124589600Y-153309500D01*
X124589600Y-153322200D01*
X124581980Y-153324740D01*
X124500700Y-153487300D01*
X124894400Y-153627000D01*
X124684850Y-153652400D01*
X124291150Y-153677800D01*
X123814900Y-153677800D01*
X123370400Y-153614300D01*
X122887800Y-153500000D01*
X122494100Y-153385700D01*
X122087700Y-153157100D01*
X121770200Y-152928500D01*
X121363800Y-152801500D01*
X122011500Y-152750700D01*
X122544900Y-152712600D01*
X123008450Y-152706250D01*
X123252925Y-152703075D01*
G37*
X123252925Y-152703075D02*
X123589475Y-152798325D01*
X123853000Y-152890400D01*
X124551500Y-153296800D01*
X124581980Y-153324740D01*
X124589600Y-153309500D01*
X124589600Y-153322200D01*
X124581980Y-153324740D01*
X124500700Y-153487300D01*
X124894400Y-153627000D01*
X124684850Y-153652400D01*
X124291150Y-153677800D01*
X123814900Y-153677800D01*
X123370400Y-153614300D01*
X122887800Y-153500000D01*
X122494100Y-153385700D01*
X122087700Y-153157100D01*
X121770200Y-152928500D01*
X121363800Y-152801500D01*
X122011500Y-152750700D01*
X122544900Y-152712600D01*
X123008450Y-152706250D01*
X123252925Y-152703075D01*
G36*
X125116650Y-153766700D02*
G01*
X124748350Y-154198500D01*
X124310200Y-154471550D01*
X123929200Y-154611250D01*
X123179900Y-154776350D01*
X123662500Y-154249300D01*
X124056200Y-153982600D01*
X124424500Y-153779400D01*
X124894400Y-153703200D01*
X124919800Y-153703200D01*
X125116650Y-153766700D01*
G37*
X125116650Y-153766700D02*
X124748350Y-154198500D01*
X124310200Y-154471550D01*
X123929200Y-154611250D01*
X123179900Y-154776350D01*
X123662500Y-154249300D01*
X124056200Y-153982600D01*
X124424500Y-153779400D01*
X124894400Y-153703200D01*
X124919800Y-153703200D01*
X125116650Y-153766700D01*
G36*
X125250000Y-153284100D02*
G01*
X125038862Y-153477775D01*
X125257937Y-153573025D01*
X126008825Y-154115950D01*
X125827850Y-154211200D01*
X125250000Y-153754000D01*
X125262700Y-154846200D01*
X125148400Y-154706500D01*
X125142050Y-153817500D01*
X125186500Y-153817500D01*
X124805500Y-153601600D01*
X124519750Y-153449200D01*
X124684850Y-153169800D01*
X125250000Y-153284100D01*
G37*
X125250000Y-153284100D02*
X125038862Y-153477775D01*
X125257937Y-153573025D01*
X126008825Y-154115950D01*
X125827850Y-154211200D01*
X125250000Y-153754000D01*
X125262700Y-154846200D01*
X125148400Y-154706500D01*
X125142050Y-153817500D01*
X125186500Y-153817500D01*
X124805500Y-153601600D01*
X124519750Y-153449200D01*
X124684850Y-153169800D01*
X125250000Y-153284100D01*
G36*
X125891350Y-153741300D02*
G01*
X126443800Y-154020700D01*
X126770825Y-154347725D01*
X126905763Y-154577913D01*
X127137538Y-154847788D01*
X126831150Y-154763650D01*
X126577150Y-154687450D01*
X126399350Y-154623950D01*
X126024700Y-154490600D01*
X125665925Y-154296925D01*
X125405575Y-154011175D01*
X125281750Y-153849250D01*
X125345250Y-153887350D01*
X125319850Y-153823850D01*
X125383350Y-153652400D01*
X125891350Y-153741300D01*
G37*
X125891350Y-153741300D02*
X126443800Y-154020700D01*
X126770825Y-154347725D01*
X126905763Y-154577913D01*
X127137538Y-154847788D01*
X126831150Y-154763650D01*
X126577150Y-154687450D01*
X126399350Y-154623950D01*
X126024700Y-154490600D01*
X125665925Y-154296925D01*
X125405575Y-154011175D01*
X125281750Y-153849250D01*
X125345250Y-153887350D01*
X125319850Y-153823850D01*
X125383350Y-153652400D01*
X125891350Y-153741300D01*
G36*
X128323400Y-152738000D02*
G01*
X128755200Y-152763400D01*
X129333207Y-152773943D01*
X128653600Y-152928500D01*
X128221800Y-153119000D01*
X127878900Y-153334900D01*
X127459800Y-153500000D01*
X126926400Y-153588900D01*
X126481900Y-153614300D01*
X125904050Y-153595250D01*
X125326200Y-153576200D01*
X125262700Y-153500000D01*
X125478600Y-153436500D01*
X125485585Y-153385700D01*
X125801815Y-153258700D01*
X126335850Y-153030100D01*
X126888300Y-152826900D01*
X127282000Y-152712600D01*
X127726500Y-152712600D01*
X128323400Y-152738000D01*
G37*
X128323400Y-152738000D02*
X128755200Y-152763400D01*
X129333207Y-152773943D01*
X128653600Y-152928500D01*
X128221800Y-153119000D01*
X127878900Y-153334900D01*
X127459800Y-153500000D01*
X126926400Y-153588900D01*
X126481900Y-153614300D01*
X125904050Y-153595250D01*
X125326200Y-153576200D01*
X125262700Y-153500000D01*
X125478600Y-153436500D01*
X125485585Y-153385700D01*
X125801815Y-153258700D01*
X126335850Y-153030100D01*
X126888300Y-152826900D01*
X127282000Y-152712600D01*
X127726500Y-152712600D01*
X128323400Y-152738000D01*
G36*
X128310700Y-150083700D02*
G01*
X128069400Y-150579000D01*
X127866200Y-151036200D01*
X127605850Y-151556900D01*
X127332800Y-151912500D01*
X127021650Y-152325250D01*
X126551750Y-152718950D01*
X126050100Y-153055500D01*
X124945200Y-153652400D01*
X124970600Y-153322200D01*
X125275400Y-153271400D01*
X125523050Y-152833250D01*
X125738950Y-152369700D01*
X125904050Y-152039500D01*
X126088200Y-151747400D01*
X126253300Y-151429900D01*
X126532700Y-151074300D01*
X126812100Y-150756800D01*
X127142300Y-150464700D01*
X127485200Y-150236100D01*
X127866200Y-149982100D01*
X128259900Y-149715400D01*
X128793300Y-149321700D01*
X128310700Y-150083700D01*
G37*
X128310700Y-150083700D02*
X128069400Y-150579000D01*
X127866200Y-151036200D01*
X127605850Y-151556900D01*
X127332800Y-151912500D01*
X127021650Y-152325250D01*
X126551750Y-152718950D01*
X126050100Y-153055500D01*
X124945200Y-153652400D01*
X124970600Y-153322200D01*
X125275400Y-153271400D01*
X125523050Y-152833250D01*
X125738950Y-152369700D01*
X125904050Y-152039500D01*
X126088200Y-151747400D01*
X126253300Y-151429900D01*
X126532700Y-151074300D01*
X126812100Y-150756800D01*
X127142300Y-150464700D01*
X127485200Y-150236100D01*
X127866200Y-149982100D01*
X128259900Y-149715400D01*
X128793300Y-149321700D01*
X128310700Y-150083700D01*
G36*
X125465900Y-147950100D02*
G01*
X125567500Y-148432700D01*
X125681800Y-148889900D01*
X125764350Y-149220100D01*
X125827850Y-149601100D01*
X125872300Y-150121800D01*
X125872300Y-150655200D01*
X125821500Y-151239400D01*
X125758000Y-151760100D01*
X125615125Y-152255400D01*
X125316675Y-153271400D01*
X125103950Y-153220600D01*
X124869000Y-152306200D01*
X124695962Y-151442600D01*
X124711837Y-150655200D01*
X124764225Y-149994800D01*
X124926150Y-149220100D01*
X125161100Y-148407300D01*
X125288100Y-147632600D01*
X125351600Y-147111900D01*
X125465900Y-147950100D01*
G37*
X125465900Y-147950100D02*
X125567500Y-148432700D01*
X125681800Y-148889900D01*
X125764350Y-149220100D01*
X125827850Y-149601100D01*
X125872300Y-150121800D01*
X125872300Y-150655200D01*
X125821500Y-151239400D01*
X125758000Y-151760100D01*
X125615125Y-152255400D01*
X125316675Y-153271400D01*
X125103950Y-153220600D01*
X124869000Y-152306200D01*
X124695962Y-151442600D01*
X124711837Y-150655200D01*
X124764225Y-149994800D01*
X124926150Y-149220100D01*
X125161100Y-148407300D01*
X125288100Y-147632600D01*
X125351600Y-147111900D01*
X125465900Y-147950100D01*
D15*
X112750000Y-98750000D03*
D16*
X131750000Y-103750000D03*
X141750000Y-93750000D03*
X131750000Y-93750000D03*
X141750000Y-103750000D03*
D17*
X142750000Y-134750000D03*
X130750000Y-134750000D03*
X118750000Y-134750000D03*
X106750000Y-134750000D03*
X106750000Y-118750000D03*
X118750000Y-118750000D03*
X142750000Y-118750000D03*
X130750000Y-118750000D03*
M02*
