G04 #@! TF.GenerationSoftware,KiCad,Pcbnew,(5.1.5-0)*
G04 #@! TF.CreationDate,2021-01-12T22:26:57-08:00*
G04 #@! TF.ProjectId,feague,66656167-7565-42e6-9b69-6361645f7063,rev?*
G04 #@! TF.SameCoordinates,Original*
G04 #@! TF.FileFunction,Soldermask,Bot*
G04 #@! TF.FilePolarity,Negative*
%FSLAX46Y46*%
G04 Gerber Fmt 4.6, Leading zero omitted, Abs format (unit mm)*
G04 Created by KiCad (PCBNEW (5.1.5-0)) date 2021-01-12 22:26:57*
%MOMM*%
%LPD*%
G04 APERTURE LIST*
%ADD10C,0.150000*%
%ADD11C,1.000000*%
%ADD12C,0.100000*%
G04 APERTURE END LIST*
D10*
X122726190Y-151452380D02*
X122726190Y-150785714D01*
X122726190Y-150976190D02*
X122678571Y-150880952D01*
X122630952Y-150833333D01*
X122535714Y-150785714D01*
X122440476Y-150785714D01*
X121726190Y-151404761D02*
X121821428Y-151452380D01*
X122011904Y-151452380D01*
X122107142Y-151404761D01*
X122154761Y-151309523D01*
X122154761Y-150928571D01*
X122107142Y-150833333D01*
X122011904Y-150785714D01*
X121821428Y-150785714D01*
X121726190Y-150833333D01*
X121678571Y-150928571D01*
X121678571Y-151023809D01*
X122154761Y-151119047D01*
X121250000Y-150785714D02*
X121250000Y-151785714D01*
X121250000Y-150833333D02*
X121154761Y-150785714D01*
X120964285Y-150785714D01*
X120869047Y-150833333D01*
X120821428Y-150880952D01*
X120773809Y-150976190D01*
X120773809Y-151261904D01*
X120821428Y-151357142D01*
X120869047Y-151404761D01*
X120964285Y-151452380D01*
X121154761Y-151452380D01*
X121250000Y-151404761D01*
X119916666Y-151452380D02*
X119916666Y-150928571D01*
X119964285Y-150833333D01*
X120059523Y-150785714D01*
X120250000Y-150785714D01*
X120345238Y-150833333D01*
X119916666Y-151404761D02*
X120011904Y-151452380D01*
X120250000Y-151452380D01*
X120345238Y-151404761D01*
X120392857Y-151309523D01*
X120392857Y-151214285D01*
X120345238Y-151119047D01*
X120250000Y-151071428D01*
X120011904Y-151071428D01*
X119916666Y-151023809D01*
X119440476Y-150785714D02*
X119440476Y-151452380D01*
X119440476Y-150880952D02*
X119392857Y-150833333D01*
X119297619Y-150785714D01*
X119154761Y-150785714D01*
X119059523Y-150833333D01*
X119011904Y-150928571D01*
X119011904Y-151452380D01*
X118154761Y-151404761D02*
X118250000Y-151452380D01*
X118440476Y-151452380D01*
X118535714Y-151404761D01*
X118583333Y-151309523D01*
X118583333Y-150928571D01*
X118535714Y-150833333D01*
X118440476Y-150785714D01*
X118250000Y-150785714D01*
X118154761Y-150833333D01*
X118107142Y-150928571D01*
X118107142Y-151023809D01*
X118583333Y-151119047D01*
X117535714Y-151452380D02*
X117630952Y-151404761D01*
X117678571Y-151309523D01*
X117678571Y-150452380D01*
X116392857Y-151452380D02*
X116392857Y-150452380D01*
X116392857Y-150833333D02*
X116297619Y-150785714D01*
X116107142Y-150785714D01*
X116011904Y-150833333D01*
X115964285Y-150880952D01*
X115916666Y-150976190D01*
X115916666Y-151261904D01*
X115964285Y-151357142D01*
X116011904Y-151404761D01*
X116107142Y-151452380D01*
X116297619Y-151452380D01*
X116392857Y-151404761D01*
X115583333Y-150785714D02*
X115345238Y-151452380D01*
X115107142Y-150785714D02*
X115345238Y-151452380D01*
X115440476Y-151690476D01*
X115488095Y-151738095D01*
X115583333Y-151785714D01*
X113964285Y-150785714D02*
X113964285Y-151642857D01*
X114011904Y-151738095D01*
X114107142Y-151785714D01*
X114154761Y-151785714D01*
X113964285Y-150452380D02*
X114011904Y-150500000D01*
X113964285Y-150547619D01*
X113916666Y-150500000D01*
X113964285Y-150452380D01*
X113964285Y-150547619D01*
X113059523Y-151452380D02*
X113059523Y-150928571D01*
X113107142Y-150833333D01*
X113202380Y-150785714D01*
X113392857Y-150785714D01*
X113488095Y-150833333D01*
X113059523Y-151404761D02*
X113154761Y-151452380D01*
X113392857Y-151452380D01*
X113488095Y-151404761D01*
X113535714Y-151309523D01*
X113535714Y-151214285D01*
X113488095Y-151119047D01*
X113392857Y-151071428D01*
X113154761Y-151071428D01*
X113059523Y-151023809D01*
X112154761Y-151404761D02*
X112250000Y-151452380D01*
X112440476Y-151452380D01*
X112535714Y-151404761D01*
X112583333Y-151357142D01*
X112630952Y-151261904D01*
X112630952Y-150976190D01*
X112583333Y-150880952D01*
X112535714Y-150833333D01*
X112440476Y-150785714D01*
X112250000Y-150785714D01*
X112154761Y-150833333D01*
X111726190Y-151452380D02*
X111726190Y-150452380D01*
X111630952Y-151071428D02*
X111345238Y-151452380D01*
X111345238Y-150785714D02*
X111726190Y-151166666D01*
X110202380Y-151404761D02*
X110107142Y-151452380D01*
X109916666Y-151452380D01*
X109821428Y-151404761D01*
X109773809Y-151309523D01*
X109773809Y-151261904D01*
X109821428Y-151166666D01*
X109916666Y-151119047D01*
X110059523Y-151119047D01*
X110154761Y-151071428D01*
X110202380Y-150976190D01*
X110202380Y-150928571D01*
X110154761Y-150833333D01*
X110059523Y-150785714D01*
X109916666Y-150785714D01*
X109821428Y-150833333D01*
X109345238Y-151357142D02*
X109297619Y-151404761D01*
X109345238Y-151452380D01*
X109392857Y-151404761D01*
X109345238Y-151357142D01*
X109345238Y-151452380D01*
X108154761Y-150547619D02*
X108107142Y-150500000D01*
X108011904Y-150452380D01*
X107773809Y-150452380D01*
X107678571Y-150500000D01*
X107630952Y-150547619D01*
X107583333Y-150642857D01*
X107583333Y-150738095D01*
X107630952Y-150880952D01*
X108202380Y-151452380D01*
X107583333Y-151452380D01*
X106964285Y-150452380D02*
X106869047Y-150452380D01*
X106773809Y-150500000D01*
X106726190Y-150547619D01*
X106678571Y-150642857D01*
X106630952Y-150833333D01*
X106630952Y-151071428D01*
X106678571Y-151261904D01*
X106726190Y-151357142D01*
X106773809Y-151404761D01*
X106869047Y-151452380D01*
X106964285Y-151452380D01*
X107059523Y-151404761D01*
X107107142Y-151357142D01*
X107154761Y-151261904D01*
X107202380Y-151071428D01*
X107202380Y-150833333D01*
X107154761Y-150642857D01*
X107107142Y-150547619D01*
X107059523Y-150500000D01*
X106964285Y-150452380D01*
X106250000Y-150547619D02*
X106202380Y-150500000D01*
X106107142Y-150452380D01*
X105869047Y-150452380D01*
X105773809Y-150500000D01*
X105726190Y-150547619D01*
X105678571Y-150642857D01*
X105678571Y-150738095D01*
X105726190Y-150880952D01*
X106297619Y-151452380D01*
X105678571Y-151452380D01*
X104726190Y-151452380D02*
X105297619Y-151452380D01*
X105011904Y-151452380D02*
X105011904Y-150452380D01*
X105107142Y-150595238D01*
X105202380Y-150690476D01*
X105297619Y-150738095D01*
D11*
X110250000Y-118750000D02*
G75*
G03X110250000Y-118750000I-3500000J0D01*
G01*
X122250000Y-118750000D02*
G75*
G03X122250000Y-118750000I-3500000J0D01*
G01*
X134250000Y-118750000D02*
G75*
G03X134250000Y-118750000I-3500000J0D01*
G01*
X146250000Y-118750000D02*
G75*
G03X146250000Y-118750000I-3500000J0D01*
G01*
X146250000Y-134750000D02*
G75*
G03X146250000Y-134750000I-3500000J0D01*
G01*
X110250000Y-134750000D02*
G75*
G03X110250000Y-134750000I-3500000J0D01*
G01*
X122250000Y-134750000D02*
G75*
G03X122250000Y-134750000I-3500000J0D01*
G01*
X134250000Y-134750000D02*
G75*
G03X134250000Y-134750000I-3500000J0D01*
G01*
D12*
G36*
X143354975Y-131708585D02*
G01*
X143654528Y-131768170D01*
X144218874Y-132001930D01*
X144726772Y-132341296D01*
X145158704Y-132773228D01*
X145498070Y-133281126D01*
X145731830Y-133845472D01*
X145851000Y-134444578D01*
X145851000Y-135055422D01*
X145731830Y-135654528D01*
X145498070Y-136218874D01*
X145158704Y-136726772D01*
X144726772Y-137158704D01*
X144218874Y-137498070D01*
X143654528Y-137731830D01*
X143354975Y-137791415D01*
X143055423Y-137851000D01*
X142444577Y-137851000D01*
X142145025Y-137791415D01*
X141845472Y-137731830D01*
X141281126Y-137498070D01*
X140773228Y-137158704D01*
X140341296Y-136726772D01*
X140001930Y-136218874D01*
X139768170Y-135654528D01*
X139649000Y-135055422D01*
X139649000Y-134444578D01*
X139768170Y-133845472D01*
X140001930Y-133281126D01*
X140341296Y-132773228D01*
X140773228Y-132341296D01*
X141281126Y-132001930D01*
X141845472Y-131768170D01*
X142145025Y-131708585D01*
X142444577Y-131649000D01*
X143055423Y-131649000D01*
X143354975Y-131708585D01*
G37*
G36*
X131354975Y-131708585D02*
G01*
X131654528Y-131768170D01*
X132218874Y-132001930D01*
X132726772Y-132341296D01*
X133158704Y-132773228D01*
X133498070Y-133281126D01*
X133731830Y-133845472D01*
X133851000Y-134444578D01*
X133851000Y-135055422D01*
X133731830Y-135654528D01*
X133498070Y-136218874D01*
X133158704Y-136726772D01*
X132726772Y-137158704D01*
X132218874Y-137498070D01*
X131654528Y-137731830D01*
X131354975Y-137791415D01*
X131055423Y-137851000D01*
X130444577Y-137851000D01*
X130145025Y-137791415D01*
X129845472Y-137731830D01*
X129281126Y-137498070D01*
X128773228Y-137158704D01*
X128341296Y-136726772D01*
X128001930Y-136218874D01*
X127768170Y-135654528D01*
X127649000Y-135055422D01*
X127649000Y-134444578D01*
X127768170Y-133845472D01*
X128001930Y-133281126D01*
X128341296Y-132773228D01*
X128773228Y-132341296D01*
X129281126Y-132001930D01*
X129845472Y-131768170D01*
X130145025Y-131708585D01*
X130444577Y-131649000D01*
X131055423Y-131649000D01*
X131354975Y-131708585D01*
G37*
G36*
X119354975Y-131708585D02*
G01*
X119654528Y-131768170D01*
X120218874Y-132001930D01*
X120726772Y-132341296D01*
X121158704Y-132773228D01*
X121498070Y-133281126D01*
X121731830Y-133845472D01*
X121851000Y-134444578D01*
X121851000Y-135055422D01*
X121731830Y-135654528D01*
X121498070Y-136218874D01*
X121158704Y-136726772D01*
X120726772Y-137158704D01*
X120218874Y-137498070D01*
X119654528Y-137731830D01*
X119354975Y-137791415D01*
X119055423Y-137851000D01*
X118444577Y-137851000D01*
X118145025Y-137791415D01*
X117845472Y-137731830D01*
X117281126Y-137498070D01*
X116773228Y-137158704D01*
X116341296Y-136726772D01*
X116001930Y-136218874D01*
X115768170Y-135654528D01*
X115649000Y-135055422D01*
X115649000Y-134444578D01*
X115768170Y-133845472D01*
X116001930Y-133281126D01*
X116341296Y-132773228D01*
X116773228Y-132341296D01*
X117281126Y-132001930D01*
X117845472Y-131768170D01*
X118145025Y-131708585D01*
X118444577Y-131649000D01*
X119055423Y-131649000D01*
X119354975Y-131708585D01*
G37*
G36*
X107354975Y-131708585D02*
G01*
X107654528Y-131768170D01*
X108218874Y-132001930D01*
X108726772Y-132341296D01*
X109158704Y-132773228D01*
X109498070Y-133281126D01*
X109731830Y-133845472D01*
X109851000Y-134444578D01*
X109851000Y-135055422D01*
X109731830Y-135654528D01*
X109498070Y-136218874D01*
X109158704Y-136726772D01*
X108726772Y-137158704D01*
X108218874Y-137498070D01*
X107654528Y-137731830D01*
X107354975Y-137791415D01*
X107055423Y-137851000D01*
X106444577Y-137851000D01*
X106145025Y-137791415D01*
X105845472Y-137731830D01*
X105281126Y-137498070D01*
X104773228Y-137158704D01*
X104341296Y-136726772D01*
X104001930Y-136218874D01*
X103768170Y-135654528D01*
X103649000Y-135055422D01*
X103649000Y-134444578D01*
X103768170Y-133845472D01*
X104001930Y-133281126D01*
X104341296Y-132773228D01*
X104773228Y-132341296D01*
X105281126Y-132001930D01*
X105845472Y-131768170D01*
X106145025Y-131708585D01*
X106444577Y-131649000D01*
X107055423Y-131649000D01*
X107354975Y-131708585D01*
G37*
G36*
X143354975Y-115708585D02*
G01*
X143654528Y-115768170D01*
X144218874Y-116001930D01*
X144726772Y-116341296D01*
X145158704Y-116773228D01*
X145498070Y-117281126D01*
X145731830Y-117845472D01*
X145851000Y-118444578D01*
X145851000Y-119055422D01*
X145731830Y-119654528D01*
X145498070Y-120218874D01*
X145158704Y-120726772D01*
X144726772Y-121158704D01*
X144218874Y-121498070D01*
X143654528Y-121731830D01*
X143354975Y-121791415D01*
X143055423Y-121851000D01*
X142444577Y-121851000D01*
X142145025Y-121791415D01*
X141845472Y-121731830D01*
X141281126Y-121498070D01*
X140773228Y-121158704D01*
X140341296Y-120726772D01*
X140001930Y-120218874D01*
X139768170Y-119654528D01*
X139649000Y-119055422D01*
X139649000Y-118444578D01*
X139768170Y-117845472D01*
X140001930Y-117281126D01*
X140341296Y-116773228D01*
X140773228Y-116341296D01*
X141281126Y-116001930D01*
X141845472Y-115768170D01*
X142145025Y-115708585D01*
X142444577Y-115649000D01*
X143055423Y-115649000D01*
X143354975Y-115708585D01*
G37*
G36*
X131354975Y-115708585D02*
G01*
X131654528Y-115768170D01*
X132218874Y-116001930D01*
X132726772Y-116341296D01*
X133158704Y-116773228D01*
X133498070Y-117281126D01*
X133731830Y-117845472D01*
X133851000Y-118444578D01*
X133851000Y-119055422D01*
X133731830Y-119654528D01*
X133498070Y-120218874D01*
X133158704Y-120726772D01*
X132726772Y-121158704D01*
X132218874Y-121498070D01*
X131654528Y-121731830D01*
X131354975Y-121791415D01*
X131055423Y-121851000D01*
X130444577Y-121851000D01*
X130145025Y-121791415D01*
X129845472Y-121731830D01*
X129281126Y-121498070D01*
X128773228Y-121158704D01*
X128341296Y-120726772D01*
X128001930Y-120218874D01*
X127768170Y-119654528D01*
X127649000Y-119055422D01*
X127649000Y-118444578D01*
X127768170Y-117845472D01*
X128001930Y-117281126D01*
X128341296Y-116773228D01*
X128773228Y-116341296D01*
X129281126Y-116001930D01*
X129845472Y-115768170D01*
X130145025Y-115708585D01*
X130444577Y-115649000D01*
X131055423Y-115649000D01*
X131354975Y-115708585D01*
G37*
G36*
X119354975Y-115708585D02*
G01*
X119654528Y-115768170D01*
X120218874Y-116001930D01*
X120726772Y-116341296D01*
X121158704Y-116773228D01*
X121498070Y-117281126D01*
X121731830Y-117845472D01*
X121851000Y-118444578D01*
X121851000Y-119055422D01*
X121731830Y-119654528D01*
X121498070Y-120218874D01*
X121158704Y-120726772D01*
X120726772Y-121158704D01*
X120218874Y-121498070D01*
X119654528Y-121731830D01*
X119354975Y-121791415D01*
X119055423Y-121851000D01*
X118444577Y-121851000D01*
X118145025Y-121791415D01*
X117845472Y-121731830D01*
X117281126Y-121498070D01*
X116773228Y-121158704D01*
X116341296Y-120726772D01*
X116001930Y-120218874D01*
X115768170Y-119654528D01*
X115649000Y-119055422D01*
X115649000Y-118444578D01*
X115768170Y-117845472D01*
X116001930Y-117281126D01*
X116341296Y-116773228D01*
X116773228Y-116341296D01*
X117281126Y-116001930D01*
X117845472Y-115768170D01*
X118145025Y-115708585D01*
X118444577Y-115649000D01*
X119055423Y-115649000D01*
X119354975Y-115708585D01*
G37*
G36*
X107354975Y-115708585D02*
G01*
X107654528Y-115768170D01*
X108218874Y-116001930D01*
X108726772Y-116341296D01*
X109158704Y-116773228D01*
X109498070Y-117281126D01*
X109731830Y-117845472D01*
X109851000Y-118444578D01*
X109851000Y-119055422D01*
X109731830Y-119654528D01*
X109498070Y-120218874D01*
X109158704Y-120726772D01*
X108726772Y-121158704D01*
X108218874Y-121498070D01*
X107654528Y-121731830D01*
X107354975Y-121791415D01*
X107055423Y-121851000D01*
X106444577Y-121851000D01*
X106145025Y-121791415D01*
X105845472Y-121731830D01*
X105281126Y-121498070D01*
X104773228Y-121158704D01*
X104341296Y-120726772D01*
X104001930Y-120218874D01*
X103768170Y-119654528D01*
X103649000Y-119055422D01*
X103649000Y-118444578D01*
X103768170Y-117845472D01*
X104001930Y-117281126D01*
X104341296Y-116773228D01*
X104773228Y-116341296D01*
X105281126Y-116001930D01*
X105845472Y-115768170D01*
X106145025Y-115708585D01*
X106444577Y-115649000D01*
X107055423Y-115649000D01*
X107354975Y-115708585D01*
G37*
G36*
X142257430Y-101198978D02*
G01*
X142508684Y-101248955D01*
X142704752Y-101330169D01*
X142982034Y-101445023D01*
X142982035Y-101445024D01*
X143408041Y-101729671D01*
X143770329Y-102091959D01*
X143960524Y-102376607D01*
X144054977Y-102517966D01*
X144251045Y-102991317D01*
X144351000Y-103493823D01*
X144351000Y-104006177D01*
X144251045Y-104508683D01*
X144054977Y-104982034D01*
X144054976Y-104982035D01*
X143770329Y-105408041D01*
X143408041Y-105770329D01*
X143123393Y-105960524D01*
X142982034Y-106054977D01*
X142704752Y-106169831D01*
X142508684Y-106251045D01*
X142257430Y-106301023D01*
X142006177Y-106351000D01*
X141493823Y-106351000D01*
X141242570Y-106301023D01*
X140991316Y-106251045D01*
X140795248Y-106169831D01*
X140517966Y-106054977D01*
X140376607Y-105960524D01*
X140091959Y-105770329D01*
X139729671Y-105408041D01*
X139445024Y-104982035D01*
X139445023Y-104982034D01*
X139248955Y-104508683D01*
X139149000Y-104006177D01*
X139149000Y-103493823D01*
X139248955Y-102991317D01*
X139445023Y-102517966D01*
X139539476Y-102376607D01*
X139729671Y-102091959D01*
X140091959Y-101729671D01*
X140517965Y-101445024D01*
X140517966Y-101445023D01*
X140795248Y-101330169D01*
X140991316Y-101248955D01*
X141242570Y-101198978D01*
X141493823Y-101149000D01*
X142006177Y-101149000D01*
X142257430Y-101198978D01*
G37*
G36*
X132257430Y-101198978D02*
G01*
X132508684Y-101248955D01*
X132704752Y-101330169D01*
X132982034Y-101445023D01*
X132982035Y-101445024D01*
X133408041Y-101729671D01*
X133770329Y-102091959D01*
X133960524Y-102376607D01*
X134054977Y-102517966D01*
X134251045Y-102991317D01*
X134351000Y-103493823D01*
X134351000Y-104006177D01*
X134251045Y-104508683D01*
X134054977Y-104982034D01*
X134054976Y-104982035D01*
X133770329Y-105408041D01*
X133408041Y-105770329D01*
X133123393Y-105960524D01*
X132982034Y-106054977D01*
X132704752Y-106169831D01*
X132508684Y-106251045D01*
X132257430Y-106301023D01*
X132006177Y-106351000D01*
X131493823Y-106351000D01*
X131242570Y-106301023D01*
X130991316Y-106251045D01*
X130795248Y-106169831D01*
X130517966Y-106054977D01*
X130376607Y-105960524D01*
X130091959Y-105770329D01*
X129729671Y-105408041D01*
X129445024Y-104982035D01*
X129445023Y-104982034D01*
X129248955Y-104508683D01*
X129149000Y-104006177D01*
X129149000Y-103493823D01*
X129248955Y-102991317D01*
X129445023Y-102517966D01*
X129539476Y-102376607D01*
X129729671Y-102091959D01*
X130091959Y-101729671D01*
X130517965Y-101445024D01*
X130517966Y-101445023D01*
X130795248Y-101330169D01*
X130991316Y-101248955D01*
X131242570Y-101198978D01*
X131493823Y-101149000D01*
X132006177Y-101149000D01*
X132257430Y-101198978D01*
G37*
G36*
X113384239Y-95561467D02*
G01*
X113698282Y-95623934D01*
X114289926Y-95869001D01*
X114822392Y-96224784D01*
X115275216Y-96677608D01*
X115630999Y-97210074D01*
X115876066Y-97801718D01*
X116001000Y-98429804D01*
X116001000Y-99070196D01*
X115876066Y-99698282D01*
X115630999Y-100289926D01*
X115275216Y-100822392D01*
X114822392Y-101275216D01*
X114289926Y-101630999D01*
X113698282Y-101876066D01*
X113384239Y-101938533D01*
X113070197Y-102001000D01*
X112429803Y-102001000D01*
X112115761Y-101938533D01*
X111801718Y-101876066D01*
X111210074Y-101630999D01*
X110677608Y-101275216D01*
X110224784Y-100822392D01*
X109869001Y-100289926D01*
X109623934Y-99698282D01*
X109499000Y-99070196D01*
X109499000Y-98429804D01*
X109623934Y-97801718D01*
X109869001Y-97210074D01*
X110224784Y-96677608D01*
X110677608Y-96224784D01*
X111210074Y-95869001D01*
X111801718Y-95623934D01*
X112115761Y-95561467D01*
X112429803Y-95499000D01*
X113070197Y-95499000D01*
X113384239Y-95561467D01*
G37*
G36*
X142257430Y-91198977D02*
G01*
X142508684Y-91248955D01*
X142704752Y-91330169D01*
X142982034Y-91445023D01*
X142982035Y-91445024D01*
X143408041Y-91729671D01*
X143770329Y-92091959D01*
X143960524Y-92376607D01*
X144054977Y-92517966D01*
X144251045Y-92991317D01*
X144351000Y-93493823D01*
X144351000Y-94006177D01*
X144251045Y-94508683D01*
X144054977Y-94982034D01*
X144054976Y-94982035D01*
X143770329Y-95408041D01*
X143408041Y-95770329D01*
X143260367Y-95869001D01*
X142982034Y-96054977D01*
X142704752Y-96169831D01*
X142508684Y-96251045D01*
X142257430Y-96301022D01*
X142006177Y-96351000D01*
X141493823Y-96351000D01*
X141242570Y-96301022D01*
X140991316Y-96251045D01*
X140795248Y-96169831D01*
X140517966Y-96054977D01*
X140239633Y-95869001D01*
X140091959Y-95770329D01*
X139729671Y-95408041D01*
X139445024Y-94982035D01*
X139445023Y-94982034D01*
X139248955Y-94508683D01*
X139149000Y-94006177D01*
X139149000Y-93493823D01*
X139248955Y-92991317D01*
X139445023Y-92517966D01*
X139539476Y-92376607D01*
X139729671Y-92091959D01*
X140091959Y-91729671D01*
X140517965Y-91445024D01*
X140517966Y-91445023D01*
X140795248Y-91330169D01*
X140991316Y-91248955D01*
X141242570Y-91198977D01*
X141493823Y-91149000D01*
X142006177Y-91149000D01*
X142257430Y-91198977D01*
G37*
G36*
X132257430Y-91198977D02*
G01*
X132508684Y-91248955D01*
X132704752Y-91330169D01*
X132982034Y-91445023D01*
X132982035Y-91445024D01*
X133408041Y-91729671D01*
X133770329Y-92091959D01*
X133960524Y-92376607D01*
X134054977Y-92517966D01*
X134251045Y-92991317D01*
X134351000Y-93493823D01*
X134351000Y-94006177D01*
X134251045Y-94508683D01*
X134054977Y-94982034D01*
X134054976Y-94982035D01*
X133770329Y-95408041D01*
X133408041Y-95770329D01*
X133260367Y-95869001D01*
X132982034Y-96054977D01*
X132704752Y-96169831D01*
X132508684Y-96251045D01*
X132257430Y-96301022D01*
X132006177Y-96351000D01*
X131493823Y-96351000D01*
X131242570Y-96301022D01*
X130991316Y-96251045D01*
X130795248Y-96169831D01*
X130517966Y-96054977D01*
X130239633Y-95869001D01*
X130091959Y-95770329D01*
X129729671Y-95408041D01*
X129445024Y-94982035D01*
X129445023Y-94982034D01*
X129248955Y-94508683D01*
X129149000Y-94006177D01*
X129149000Y-93493823D01*
X129248955Y-92991317D01*
X129445023Y-92517966D01*
X129539476Y-92376607D01*
X129729671Y-92091959D01*
X130091959Y-91729671D01*
X130517965Y-91445024D01*
X130517966Y-91445023D01*
X130795248Y-91330169D01*
X130991316Y-91248955D01*
X131242570Y-91198977D01*
X131493823Y-91149000D01*
X132006177Y-91149000D01*
X132257430Y-91198977D01*
G37*
M02*
