G04 #@! TF.GenerationSoftware,KiCad,Pcbnew,(5.1.5-0)*
G04 #@! TF.CreationDate,2021-01-12T22:26:57-08:00*
G04 #@! TF.ProjectId,feague,66656167-7565-42e6-9b69-6361645f7063,rev?*
G04 #@! TF.SameCoordinates,Original*
G04 #@! TF.FileFunction,Profile,NP*
%FSLAX46Y46*%
G04 Gerber Fmt 4.6, Leading zero omitted, Abs format (unit mm)*
G04 Created by KiCad (PCBNEW (5.1.5-0)) date 2021-01-12 22:26:57*
%MOMM*%
%LPD*%
G04 APERTURE LIST*
%ADD10C,0.050000*%
G04 APERTURE END LIST*
D10*
X144750000Y-76750000D02*
G75*
G03X144750000Y-76750000I-3750000J0D01*
G01*
X128750000Y-76750000D02*
G75*
G03X128750000Y-76750000I-3750000J0D01*
G01*
X112750000Y-76750000D02*
G75*
G03X112750000Y-76750000I-3750000J0D01*
G01*
X113000000Y-54750000D02*
G75*
G03X113000000Y-54750000I-3750000J0D01*
G01*
X128750000Y-54750000D02*
G75*
G03X128750000Y-54750000I-3750000J0D01*
G01*
X144750000Y-54750000D02*
G75*
G03X144750000Y-54750000I-3750000J0D01*
G01*
X108500000Y-153900000D02*
G75*
G02X108500000Y-157100000I0J-1600000D01*
G01*
X106500000Y-153900000D02*
X108500000Y-153900000D01*
X106500000Y-157100000D02*
G75*
G02X106500000Y-153900000I0J1600000D01*
G01*
X106500000Y-157100000D02*
X108500000Y-157100000D01*
X108500000Y-31400000D02*
G75*
G02X108500000Y-34600000I0J-1600000D01*
G01*
X106500000Y-31400000D02*
X108500000Y-31400000D01*
X106500000Y-34600000D02*
G75*
G02X106500000Y-31400000I0J1600000D01*
G01*
X106500000Y-34600000D02*
X108500000Y-34600000D01*
X144000000Y-153900000D02*
G75*
G02X144000000Y-157100000I0J-1600000D01*
G01*
X142000000Y-153900000D02*
X144000000Y-153900000D01*
X142000000Y-157100000D02*
G75*
G02X142000000Y-153900000I0J1600000D01*
G01*
X142000000Y-157100000D02*
X144000000Y-157100000D01*
X142000000Y-31400000D02*
X144000000Y-31400000D01*
X142000000Y-34600000D02*
X144000000Y-34600000D01*
X142000000Y-34600000D02*
G75*
G02X142000000Y-31400000I0J1600000D01*
G01*
X144000000Y-31400000D02*
G75*
G02X144000000Y-34600000I0J-1600000D01*
G01*
X100000000Y-158500000D02*
X100000000Y-30000000D01*
X150500000Y-158500000D02*
X100000000Y-158500000D01*
X150500000Y-30000000D02*
X150500000Y-158500000D01*
X100000000Y-30000000D02*
X150500000Y-30000000D01*
M02*
