G04 #@! TF.GenerationSoftware,KiCad,Pcbnew,(5.1.5-0)*
G04 #@! TF.CreationDate,2021-01-12T22:26:57-08:00*
G04 #@! TF.ProjectId,feague,66656167-7565-42e6-9b69-6361645f7063,rev?*
G04 #@! TF.SameCoordinates,Original*
G04 #@! TF.FileFunction,Soldermask,Top*
G04 #@! TF.FilePolarity,Negative*
%FSLAX46Y46*%
G04 Gerber Fmt 4.6, Leading zero omitted, Abs format (unit mm)*
G04 Created by KiCad (PCBNEW (5.1.5-0)) date 2021-01-12 22:26:57*
%MOMM*%
%LPD*%
G04 APERTURE LIST*
%ADD10C,1.000000*%
%ADD11C,4.000000*%
%ADD12C,3.000000*%
%ADD13C,2.500000*%
%ADD14C,0.100000*%
%ADD15C,0.000002*%
%ADD16C,0.001000*%
G04 APERTURE END LIST*
D10*
X136750000Y-98750000D02*
X136750000Y-126250000D01*
D11*
X138550000Y-126250000D02*
G75*
G03X138550000Y-126250000I-1800000J0D01*
G01*
D12*
X138250000Y-111000000D02*
G75*
G03X138250000Y-111000000I-1500000J0D01*
G01*
D13*
X137850000Y-98750000D02*
G75*
G03X137850000Y-98750000I-1100000J0D01*
G01*
D14*
G36*
X125910400Y-153747650D02*
G01*
X126462850Y-154027050D01*
X126789875Y-154354075D01*
X126924813Y-154584263D01*
X127156588Y-154854138D01*
X126850200Y-154770000D01*
X126596200Y-154693800D01*
X126418400Y-154630300D01*
X126043750Y-154496950D01*
X125684975Y-154303275D01*
X125424625Y-154017525D01*
X125300800Y-153855600D01*
X125364300Y-153893700D01*
X125338900Y-153830200D01*
X125402400Y-153658750D01*
X125910400Y-153747650D01*
G37*
X125910400Y-153747650D02*
X126462850Y-154027050D01*
X126789875Y-154354075D01*
X126924813Y-154584263D01*
X127156588Y-154854138D01*
X126850200Y-154770000D01*
X126596200Y-154693800D01*
X126418400Y-154630300D01*
X126043750Y-154496950D01*
X125684975Y-154303275D01*
X125424625Y-154017525D01*
X125300800Y-153855600D01*
X125364300Y-153893700D01*
X125338900Y-153830200D01*
X125402400Y-153658750D01*
X125910400Y-153747650D01*
G36*
X125116650Y-153766700D02*
G01*
X124748350Y-154198500D01*
X124310200Y-154471550D01*
X123929200Y-154611250D01*
X123179900Y-154776350D01*
X123662500Y-154249300D01*
X124056200Y-153982600D01*
X124424500Y-153779400D01*
X124894400Y-153703200D01*
X124919800Y-153703200D01*
X125116650Y-153766700D01*
G37*
X125116650Y-153766700D02*
X124748350Y-154198500D01*
X124310200Y-154471550D01*
X123929200Y-154611250D01*
X123179900Y-154776350D01*
X123662500Y-154249300D01*
X124056200Y-153982600D01*
X124424500Y-153779400D01*
X124894400Y-153703200D01*
X124919800Y-153703200D01*
X125116650Y-153766700D01*
G36*
X128323400Y-152738000D02*
G01*
X128755200Y-152763400D01*
X129333207Y-152773943D01*
X128653600Y-152928500D01*
X128221800Y-153119000D01*
X127878900Y-153334900D01*
X127459800Y-153500000D01*
X126926400Y-153588900D01*
X126481900Y-153614300D01*
X125904050Y-153595250D01*
X125326200Y-153576200D01*
X125262700Y-153500000D01*
X125478600Y-153436500D01*
X125485585Y-153385700D01*
X125801815Y-153258700D01*
X126335850Y-153030100D01*
X126888300Y-152826900D01*
X127282000Y-152712600D01*
X127726500Y-152712600D01*
X128323400Y-152738000D01*
G37*
X128323400Y-152738000D02*
X128755200Y-152763400D01*
X129333207Y-152773943D01*
X128653600Y-152928500D01*
X128221800Y-153119000D01*
X127878900Y-153334900D01*
X127459800Y-153500000D01*
X126926400Y-153588900D01*
X126481900Y-153614300D01*
X125904050Y-153595250D01*
X125326200Y-153576200D01*
X125262700Y-153500000D01*
X125478600Y-153436500D01*
X125485585Y-153385700D01*
X125801815Y-153258700D01*
X126335850Y-153030100D01*
X126888300Y-152826900D01*
X127282000Y-152712600D01*
X127726500Y-152712600D01*
X128323400Y-152738000D01*
G36*
X128310700Y-150083700D02*
G01*
X128069400Y-150579000D01*
X127866200Y-151036200D01*
X127605850Y-151556900D01*
X127332800Y-151912500D01*
X127021650Y-152325250D01*
X126551750Y-152718950D01*
X126050100Y-153055500D01*
X124945200Y-153652400D01*
X124970600Y-153322200D01*
X125275400Y-153271400D01*
X125523050Y-152833250D01*
X125738950Y-152369700D01*
X125904050Y-152039500D01*
X126088200Y-151747400D01*
X126253300Y-151429900D01*
X126532700Y-151074300D01*
X126812100Y-150756800D01*
X127142300Y-150464700D01*
X127485200Y-150236100D01*
X127866200Y-149982100D01*
X128259900Y-149715400D01*
X128793300Y-149321700D01*
X128310700Y-150083700D01*
G37*
X128310700Y-150083700D02*
X128069400Y-150579000D01*
X127866200Y-151036200D01*
X127605850Y-151556900D01*
X127332800Y-151912500D01*
X127021650Y-152325250D01*
X126551750Y-152718950D01*
X126050100Y-153055500D01*
X124945200Y-153652400D01*
X124970600Y-153322200D01*
X125275400Y-153271400D01*
X125523050Y-152833250D01*
X125738950Y-152369700D01*
X125904050Y-152039500D01*
X126088200Y-151747400D01*
X126253300Y-151429900D01*
X126532700Y-151074300D01*
X126812100Y-150756800D01*
X127142300Y-150464700D01*
X127485200Y-150236100D01*
X127866200Y-149982100D01*
X128259900Y-149715400D01*
X128793300Y-149321700D01*
X128310700Y-150083700D01*
G36*
X125465900Y-147950100D02*
G01*
X125567500Y-148432700D01*
X125681800Y-148889900D01*
X125764350Y-149220100D01*
X125827850Y-149601100D01*
X125872300Y-150121800D01*
X125872300Y-150655200D01*
X125821500Y-151239400D01*
X125758000Y-151760100D01*
X125615125Y-152255400D01*
X125316675Y-153271400D01*
X125103950Y-153220600D01*
X124869000Y-152306200D01*
X124695962Y-151442600D01*
X124711837Y-150655200D01*
X124764225Y-149994800D01*
X124926150Y-149220100D01*
X125161100Y-148407300D01*
X125288100Y-147632600D01*
X125351600Y-147111900D01*
X125465900Y-147950100D01*
G37*
X125465900Y-147950100D02*
X125567500Y-148432700D01*
X125681800Y-148889900D01*
X125764350Y-149220100D01*
X125827850Y-149601100D01*
X125872300Y-150121800D01*
X125872300Y-150655200D01*
X125821500Y-151239400D01*
X125758000Y-151760100D01*
X125615125Y-152255400D01*
X125316675Y-153271400D01*
X125103950Y-153220600D01*
X124869000Y-152306200D01*
X124695962Y-151442600D01*
X124711837Y-150655200D01*
X124764225Y-149994800D01*
X124926150Y-149220100D01*
X125161100Y-148407300D01*
X125288100Y-147632600D01*
X125351600Y-147111900D01*
X125465900Y-147950100D01*
G36*
X121846400Y-149524900D02*
G01*
X122163900Y-149766200D01*
X122729050Y-150083700D01*
X123325950Y-150515500D01*
X123700600Y-150896500D01*
X124100650Y-151461650D01*
X124697550Y-152642750D01*
X124996000Y-153207900D01*
X125008700Y-153220600D01*
X124678500Y-153246000D01*
X124576900Y-153195200D01*
X124221300Y-152947550D01*
X123814900Y-152579250D01*
X123484700Y-152230000D01*
X123129100Y-151798200D01*
X122849700Y-151379100D01*
X122659200Y-151125100D01*
X122405200Y-150667900D01*
X122151200Y-150299600D01*
X121909900Y-149880500D01*
X121630500Y-149321700D01*
X121846400Y-149524900D01*
G37*
X121846400Y-149524900D02*
X122163900Y-149766200D01*
X122729050Y-150083700D01*
X123325950Y-150515500D01*
X123700600Y-150896500D01*
X124100650Y-151461650D01*
X124697550Y-152642750D01*
X124996000Y-153207900D01*
X125008700Y-153220600D01*
X124678500Y-153246000D01*
X124576900Y-153195200D01*
X124221300Y-152947550D01*
X123814900Y-152579250D01*
X123484700Y-152230000D01*
X123129100Y-151798200D01*
X122849700Y-151379100D01*
X122659200Y-151125100D01*
X122405200Y-150667900D01*
X122151200Y-150299600D01*
X121909900Y-149880500D01*
X121630500Y-149321700D01*
X121846400Y-149524900D01*
G36*
X123252925Y-152703075D02*
G01*
X123589475Y-152798325D01*
X123853000Y-152890400D01*
X124551500Y-153296800D01*
X124581980Y-153324740D01*
X124589600Y-153309500D01*
X124589600Y-153322200D01*
X124581980Y-153324740D01*
X124500700Y-153487300D01*
X124894400Y-153627000D01*
X124684850Y-153652400D01*
X124291150Y-153677800D01*
X123814900Y-153677800D01*
X123370400Y-153614300D01*
X122887800Y-153500000D01*
X122494100Y-153385700D01*
X122087700Y-153157100D01*
X121770200Y-152928500D01*
X121363800Y-152801500D01*
X122011500Y-152750700D01*
X122544900Y-152712600D01*
X123008450Y-152706250D01*
X123252925Y-152703075D01*
G37*
X123252925Y-152703075D02*
X123589475Y-152798325D01*
X123853000Y-152890400D01*
X124551500Y-153296800D01*
X124581980Y-153324740D01*
X124589600Y-153309500D01*
X124589600Y-153322200D01*
X124581980Y-153324740D01*
X124500700Y-153487300D01*
X124894400Y-153627000D01*
X124684850Y-153652400D01*
X124291150Y-153677800D01*
X123814900Y-153677800D01*
X123370400Y-153614300D01*
X122887800Y-153500000D01*
X122494100Y-153385700D01*
X122087700Y-153157100D01*
X121770200Y-152928500D01*
X121363800Y-152801500D01*
X122011500Y-152750700D01*
X122544900Y-152712600D01*
X123008450Y-152706250D01*
X123252925Y-152703075D01*
G36*
X125250000Y-153284100D02*
G01*
X125038862Y-153477775D01*
X125257937Y-153573025D01*
X126008825Y-154115950D01*
X125827850Y-154211200D01*
X125250000Y-153754000D01*
X125262700Y-154846200D01*
X125148400Y-154706500D01*
X125142050Y-153817500D01*
X125186500Y-153817500D01*
X124805500Y-153601600D01*
X124519750Y-153449200D01*
X124684850Y-153169800D01*
X125250000Y-153284100D01*
G37*
X125250000Y-153284100D02*
X125038862Y-153477775D01*
X125257937Y-153573025D01*
X126008825Y-154115950D01*
X125827850Y-154211200D01*
X125250000Y-153754000D01*
X125262700Y-154846200D01*
X125148400Y-154706500D01*
X125142050Y-153817500D01*
X125186500Y-153817500D01*
X124805500Y-153601600D01*
X124519750Y-153449200D01*
X124684850Y-153169800D01*
X125250000Y-153284100D01*
D15*
X124729586Y-151596968D02*
X124736414Y-151663404D01*
X121310628Y-152785206D02*
G75*
G02X121312745Y-152780474I8833J-1112D01*
G01*
X121312745Y-152780475D02*
G75*
G02X121317170Y-152777659I6961J-6056D01*
G01*
X121317171Y-152777659D02*
G75*
G02X121326272Y-152775641I21302J-74534D01*
G01*
X121369176Y-152769928D02*
X121326272Y-152775641D01*
X121425382Y-152764579D02*
X121369176Y-152769928D01*
X121499523Y-152759059D02*
X121425382Y-152764579D01*
X121600810Y-152752773D02*
X121499523Y-152759059D01*
X121714250Y-152745535D02*
X121600810Y-152752773D01*
X121805159Y-152738329D02*
X121714250Y-152745535D01*
X121885946Y-152730142D02*
X121805159Y-152738329D01*
X121967522Y-152719967D02*
X121885946Y-152730142D01*
X122045588Y-152710763D02*
X121967522Y-152719967D01*
X122144548Y-152701810D02*
X122045588Y-152710763D01*
X122252731Y-152693949D02*
X122144548Y-152701810D01*
X122360022Y-152688039D02*
X122252731Y-152693949D01*
X122408893Y-152685783D02*
X122360022Y-152688039D01*
X122478084Y-152682592D02*
X122408893Y-152685783D01*
X122553746Y-152679104D02*
X122478084Y-152682592D01*
X122625022Y-152675821D02*
X122553746Y-152679104D01*
X122792892Y-152668843D02*
X122625022Y-152675821D01*
X122967753Y-152663052D02*
X122792892Y-152668843D01*
X123141324Y-152658069D02*
X122967753Y-152663052D01*
X123141324Y-152658069D02*
G75*
G02X123150393Y-152660507I462J-16364D01*
G01*
X123153889Y-152661762D02*
G75*
G02X123150393Y-152660507I1209J8867D01*
G01*
X123169388Y-152663775D02*
X123153889Y-152661762D01*
X123187771Y-152665819D02*
X123169388Y-152663775D01*
X123208715Y-152667713D02*
X123187771Y-152665819D01*
X124720054Y-151487481D02*
X124722649Y-151517124D01*
X125862378Y-153647086D02*
X125907522Y-153650622D01*
X125813537Y-153643388D02*
X125862378Y-153647086D01*
X125768194Y-153640058D02*
X125813537Y-153643388D01*
X125735022Y-153637755D02*
X125768194Y-153640058D01*
X125703615Y-153635486D02*
X125735022Y-153637755D01*
X125664584Y-153632326D02*
X125703615Y-153635486D01*
X125624606Y-153628849D02*
X125664584Y-153632326D01*
X125590022Y-153625579D02*
X125624606Y-153628849D01*
X125528512Y-153620402D02*
X125590022Y-153625579D01*
X125476901Y-153618134D02*
X125528512Y-153620402D01*
X124081364Y-151380665D02*
X123952584Y-151173051D01*
X124210123Y-151610277D02*
X124081364Y-151380665D01*
X125513811Y-153644985D02*
X125475611Y-153637712D01*
X125551820Y-153651668D02*
X125513811Y-153644985D01*
X125577522Y-153655429D02*
X125551820Y-153651668D01*
X125577522Y-153655429D02*
G75*
G02X125665850Y-153671576I-96572J-777952D01*
G01*
X125792223Y-153704860D02*
X125665850Y-153671576D01*
X125931550Y-153747366D02*
X125792223Y-153704860D01*
X126065022Y-153794009D02*
X125931550Y-153747366D01*
X126108649Y-153811046D02*
X126065022Y-153794009D01*
X126154637Y-153830487D02*
X126108649Y-153811046D01*
X126202079Y-153851930D02*
X126154637Y-153830487D01*
X126250085Y-153874987D02*
X126202079Y-153851930D01*
X126250085Y-153874988D02*
G75*
G02X126402408Y-153962179I-639105J-1293158D01*
G01*
X124850081Y-152347260D02*
X124852098Y-152357528D01*
X127870021Y-151015299D02*
G75*
G02X127869743Y-151016562I-3003J0D01*
G01*
X127861209Y-151034952D02*
X127869743Y-151016562D01*
X127851523Y-151055632D02*
X127861209Y-151034952D01*
X127840022Y-151079870D02*
X127851523Y-151055632D01*
X127828521Y-151104146D02*
X127840022Y-151079870D01*
X127818834Y-151124951D02*
X127828521Y-151104146D01*
X127810385Y-151143329D02*
X127818834Y-151124951D01*
X127810021Y-151144995D02*
G75*
G02X127810385Y-151143329I3995J0D01*
G01*
X127810021Y-151144995D02*
G75*
G02X127809292Y-151148297I-7840J0D01*
G01*
X127770677Y-151231421D02*
X127809292Y-151148297D01*
X127727758Y-151323339D02*
X127770677Y-151231421D01*
X127677442Y-151430277D02*
X127727758Y-151323339D01*
X127654537Y-151478174D02*
X127677442Y-151430277D01*
X127626801Y-151534980D02*
X127654537Y-151478174D01*
X127597730Y-151593998D02*
X127626801Y-151534980D01*
X127597731Y-151593997D02*
G75*
G02X127595022Y-151597777I-12801J6311D01*
G01*
X127593589Y-151599614D02*
G75*
G02X127595022Y-151597777I8150J-4881D01*
G01*
X127590177Y-151605418D02*
X127593588Y-151599615D01*
X127586238Y-151612435D02*
X127590177Y-151605418D01*
X127582041Y-151620277D02*
X127586238Y-151612435D01*
X127573008Y-151637116D02*
X127582041Y-151620277D01*
X127562309Y-151656309D02*
X127573008Y-151637116D01*
X127551117Y-151675799D02*
X127562309Y-151656309D01*
X127540563Y-151693576D02*
X127551117Y-151675799D01*
X127536359Y-151700601D02*
X127540563Y-151693576D01*
X127529895Y-151711546D02*
X127536359Y-151700601D01*
X127522630Y-151723921D02*
X127529895Y-151711546D01*
X127515538Y-151736076D02*
X127522630Y-151723921D01*
X127515539Y-151736076D02*
G75*
G02X127426513Y-151874537I-1594117J927112D01*
G01*
X127310765Y-152028716D02*
X127426513Y-151874537D01*
X127179379Y-152185115D02*
X127310765Y-152028716D01*
X127042561Y-152330767D02*
X127179379Y-152185115D01*
X127042561Y-152330767D02*
G75*
G02X126762462Y-152588051I-2992746J2977019D01*
G01*
X126452444Y-152826945D02*
X126762462Y-152588051D01*
X126096530Y-153058868D02*
X126452444Y-152826945D01*
X125677522Y-153295384D02*
X126096530Y-153058868D01*
X125657210Y-153306206D02*
X125677522Y-153295384D01*
X125633256Y-153319049D02*
X125657210Y-153306206D01*
X125609541Y-153331825D02*
X125633256Y-153319049D01*
X125590022Y-153342411D02*
X125609541Y-153331825D01*
X125572766Y-153351769D02*
X125590022Y-153342411D01*
X125556062Y-153360749D02*
X125572766Y-153351769D01*
X125541782Y-153368359D02*
X125556062Y-153360749D01*
X125534097Y-153372337D02*
X125541782Y-153368359D01*
X125517847Y-153382144D02*
G75*
G02X125534097Y-153372337I73169J-102870D01*
G01*
X125501467Y-153395234D02*
G75*
G02X125517847Y-153382145I125077J-139731D01*
G01*
X125488112Y-153408375D02*
G75*
G02X125501467Y-153395234I145858J-134885D01*
G01*
X125485021Y-153416267D02*
G75*
G02X125488111Y-153408375I11624J0D01*
G01*
X125485871Y-153419781D02*
G75*
G02X125485022Y-153416267I6849J3514D01*
G01*
X125488155Y-153421737D02*
G75*
G02X125485870Y-153419780I1247J3768D01*
G01*
X125492397Y-153422198D02*
G75*
G02X125488155Y-153421737I-1044J10127D01*
G01*
X125499641Y-153421103D02*
G75*
G02X125492398Y-153422199I-15184J75919D01*
G01*
X125518149Y-153415366D02*
G75*
G02X125499641Y-153421104I-36945J86448D01*
G01*
X125578992Y-153389023D02*
X125518149Y-153415366D01*
X125646972Y-153358528D02*
X125578992Y-153389023D01*
X125715022Y-153326643D02*
X125646972Y-153358528D01*
X125738044Y-153315656D02*
X125715022Y-153326643D01*
X125763850Y-153303400D02*
X125738044Y-153315656D01*
X125788478Y-153291750D02*
X125763850Y-153303400D01*
X125807522Y-153282798D02*
X125788478Y-153291750D01*
X125827497Y-153273393D02*
X125807522Y-153282798D01*
X125855600Y-153260054D02*
X125827497Y-153273393D01*
X125886247Y-153245444D02*
X125855600Y-153260054D01*
X125915022Y-153231661D02*
X125886247Y-153245444D01*
X125969936Y-153205361D02*
X125915022Y-153231661D01*
X126011702Y-153185535D02*
X125969936Y-153205361D01*
X126046707Y-153169148D02*
X126011702Y-153185535D01*
X126080022Y-153153816D02*
X126046707Y-153169148D01*
X126115354Y-153137574D02*
X126080022Y-153153816D01*
X126181774Y-153106749D02*
X126115354Y-153137574D01*
X126249694Y-153075132D02*
X126181774Y-153106749D01*
X126297522Y-153052733D02*
X126249694Y-153075132D01*
X126444502Y-152984657D02*
X126297522Y-153052733D01*
X126595333Y-152916903D02*
X126444502Y-152984657D01*
X126733653Y-152856658D02*
X126595333Y-152916903D01*
X126840022Y-152812680D02*
X126733653Y-152856658D01*
X126893337Y-152791611D02*
X126840022Y-152812680D01*
X126928135Y-152778359D02*
X126893337Y-152791611D01*
X126957932Y-152767769D02*
X126928135Y-152778359D01*
X126992522Y-152756289D02*
X126957932Y-152767769D01*
X127051620Y-152738467D02*
X126992522Y-152756289D01*
X127113071Y-152722384D02*
X127051620Y-152738467D01*
X127174574Y-152708597D02*
X127113071Y-152722384D01*
X127233822Y-152697669D02*
X127174574Y-152708597D01*
X127275789Y-152691782D02*
X127233822Y-152697669D01*
X127311324Y-152688975D02*
X127275789Y-152691782D01*
X127355896Y-152688261D02*
X127311324Y-152688975D01*
X127436322Y-152689370D02*
X127355896Y-152688261D01*
X127493234Y-152690735D02*
X127436322Y-152689370D01*
X127551607Y-152692737D02*
X127493234Y-152690735D01*
X127603546Y-152695032D02*
X127551607Y-152692737D01*
X127637522Y-152697267D02*
X127603546Y-152695032D01*
X127668287Y-152699702D02*
X127637522Y-152697267D01*
X127707662Y-152702627D02*
X127668287Y-152699702D01*
X127748691Y-152705545D02*
X127707662Y-152702627D01*
X127785022Y-152707990D02*
X127748691Y-152705545D01*
X127822057Y-152710418D02*
X127785022Y-152707990D01*
X127865318Y-152713293D02*
X127822057Y-152710418D01*
X127907867Y-152716150D02*
X127865318Y-152713293D01*
X127942522Y-152718510D02*
X127907867Y-152716150D01*
X127995145Y-152720680D02*
X127942522Y-152718510D01*
X128187897Y-152723130D02*
X127995145Y-152720680D01*
X128416132Y-152725346D02*
X128187897Y-152723130D01*
X128672522Y-152726997D02*
X128416132Y-152725346D01*
X129010194Y-152728974D02*
X128672522Y-152726997D01*
X129196598Y-152730953D02*
X129010194Y-152728974D01*
X129325267Y-152733028D02*
X129196598Y-152730953D01*
X129325267Y-152733028D02*
G75*
G02X129338772Y-152736729I-500J-28318D01*
G01*
X129338772Y-152736728D02*
G75*
G02X129347766Y-152745160I-13045J-22929D01*
G01*
X129347766Y-152745160D02*
G75*
G02X129350023Y-152755412I-12281J-8079D01*
G01*
X129350023Y-152755413D02*
G75*
G02X129344871Y-152765674I-18220J2725D01*
G01*
X129344870Y-152765673D02*
G75*
G02X129333207Y-152773943I-29662J29474D01*
G01*
X129333208Y-152773944D02*
G75*
G02X129315174Y-152781131I-63623J133418D01*
G01*
X129250776Y-152801805D02*
X129315174Y-152781131D01*
X129188093Y-152821392D02*
X129250776Y-152801805D01*
X129152522Y-152831377D02*
X129188093Y-152821392D01*
X129023171Y-152868169D02*
X129152522Y-152831377D01*
X128848786Y-152925203D02*
X129023171Y-152868169D01*
X128669767Y-152988251D02*
X128848786Y-152925203D01*
X128522522Y-153045274D02*
X128669767Y-152988251D01*
X128399199Y-153098078D02*
X128522522Y-153045274D01*
X128253927Y-153164591D02*
X128399199Y-153098078D01*
X128112600Y-153232490D02*
X128253927Y-153164591D01*
X128002522Y-153289199D02*
X128112600Y-153232490D01*
X127868504Y-153360433D02*
X128002522Y-153289199D01*
X127783440Y-153402696D02*
X127868504Y-153360433D01*
X127708987Y-153435131D02*
X127783440Y-153402696D01*
X127617522Y-153470178D02*
X127708987Y-153435131D01*
X127542423Y-153497307D02*
X127617522Y-153470178D01*
X127502851Y-153510723D02*
X127542423Y-153497307D01*
X127463400Y-153522598D02*
X127502851Y-153510723D01*
X127390022Y-153543034D02*
X127463400Y-153522598D01*
X127270804Y-153572545D02*
X127390022Y-153543034D01*
X127133620Y-153600279D02*
X127270804Y-153572545D01*
X126995884Y-153623156D02*
X127133620Y-153600279D01*
X126875022Y-153637838D02*
X126995884Y-153623156D01*
X126851013Y-153640138D02*
X126875022Y-153637838D01*
X126816506Y-153643487D02*
X126851013Y-153640138D01*
X126778547Y-153647195D02*
X126816506Y-153643487D01*
X126742522Y-153650739D02*
X126778547Y-153647195D01*
X126608935Y-153658145D02*
X126742522Y-153650739D01*
X126336190Y-153659806D02*
X126608935Y-153658145D01*
X126063070Y-153657895D02*
X126336190Y-153659806D01*
X125907522Y-153650622D02*
X126063070Y-153657895D01*
X125434700Y-153617876D02*
X125476901Y-153618134D01*
X125430021Y-153622584D02*
G75*
G02X125434700Y-153617876I4709J-1D01*
G01*
X125431145Y-153624719D02*
G75*
G02X125430022Y-153622585I1466J2134D01*
G01*
X125435529Y-153627293D02*
G75*
G02X125431144Y-153624719I15819J31971D01*
G01*
X124360636Y-151888155D02*
X124344341Y-151858062D01*
X124371221Y-151907777D02*
X124360636Y-151888155D01*
X125761249Y-152283226D02*
X125714982Y-152380277D01*
X125846807Y-152112328D02*
X125761249Y-152283226D01*
X125933548Y-151941636D02*
X125846807Y-152112328D01*
X125974269Y-151866527D02*
X125933548Y-151941636D01*
X125988678Y-151841366D02*
X125974269Y-151866527D01*
X125999929Y-151821636D02*
X125988678Y-151841366D01*
X126009609Y-151804555D02*
X125999929Y-151821636D01*
X126019048Y-151787777D02*
X126009609Y-151804555D01*
X126025983Y-151775624D02*
X126019048Y-151787777D01*
X126037590Y-151755731D02*
X126025983Y-151775624D01*
X126050976Y-151732985D02*
X126037590Y-151755731D01*
X126064458Y-151710277D02*
X126050976Y-151732985D01*
X126077575Y-151688268D02*
X126064458Y-151710277D01*
X126089864Y-151667624D02*
X126077575Y-151688268D01*
X126100197Y-151650243D02*
X126089864Y-151667624D01*
X126104889Y-151642307D02*
X126100197Y-151650243D01*
X126149259Y-151570233D02*
X126104889Y-151642307D01*
X126212393Y-151473837D02*
X126149259Y-151570233D01*
X126279939Y-151374271D02*
X126212393Y-151473837D01*
X126339543Y-151290277D02*
X126279939Y-151374271D01*
X126396819Y-151213641D02*
X126339543Y-151290277D01*
X126467177Y-151123061D02*
X126396819Y-151213641D01*
X126534639Y-151038542D02*
X126467177Y-151123061D01*
X126577847Y-150987777D02*
X126534639Y-151038542D01*
X127885064Y-150981889D02*
X127894416Y-150961958D01*
X127877187Y-150998945D02*
X127885064Y-150981889D01*
X127870294Y-151014044D02*
X127877187Y-150998945D01*
X127870022Y-151015299D02*
G75*
G02X127870294Y-151014044I3026J0D01*
G01*
X124325985Y-151824222D02*
X124308037Y-151791194D01*
X124344341Y-151858062D02*
X124325985Y-151824222D01*
X127162904Y-154882618D02*
G75*
G02X127162962Y-154890934I-10582J-4233D01*
G01*
X127162961Y-154890934D02*
G75*
G02X127160571Y-154893771I-5287J2029D01*
G01*
X127160571Y-154893771D02*
G75*
G02X127155675Y-154895933I-11328J19028D01*
G01*
X127155675Y-154895934D02*
G75*
G02X127148837Y-154897326I-10822J35655D01*
G01*
X127148838Y-154897325D02*
G75*
G02X127140414Y-154897777I-8424J78322D01*
G01*
X125643609Y-152541378D02*
X125635721Y-152560277D01*
X125670843Y-152479384D02*
X125643609Y-152541378D01*
X125697720Y-152418594D02*
X125670843Y-152479384D01*
X125714982Y-152380277D02*
X125697720Y-152418594D01*
X127140414Y-154897778D02*
G75*
G02X127125921Y-154896825I0J110737D01*
G01*
X127125921Y-154896825D02*
G75*
G02X127113016Y-154893965I9971J75534D01*
G01*
X127113016Y-154893965D02*
G75*
G02X127096281Y-154887761I53575J170197D01*
G01*
X127065022Y-154874046D02*
X127096281Y-154887761D01*
X127001838Y-154847762D02*
X127065022Y-154874046D01*
X126935736Y-154824319D02*
X127001838Y-154847762D01*
X126864120Y-154802862D02*
X126935736Y-154824319D01*
X126784294Y-154782548D02*
X126864120Y-154802862D01*
X126647606Y-154749292D02*
X126784294Y-154782548D01*
X124380128Y-151924323D02*
X124371221Y-151907777D01*
X124390235Y-151943074D02*
X124380128Y-151924323D01*
X125503305Y-152886243D02*
X125494490Y-152906661D01*
X125513179Y-152862378D02*
X125503305Y-152886243D01*
X125524497Y-152834151D02*
X125513179Y-152862378D01*
X125537768Y-152800277D02*
X125524497Y-152834151D01*
X125543655Y-152785324D02*
X125537768Y-152800277D01*
X125550109Y-152769333D02*
X125543655Y-152785324D01*
X125556173Y-152754627D02*
X125550109Y-152769333D01*
X126402408Y-153962178D02*
G75*
G02X126540509Y-154065987I-743206J-1132487D01*
G01*
X126540509Y-154065987D02*
G75*
G02X126658604Y-154181641I-808447J-943632D01*
G01*
X126658604Y-154181641D02*
G75*
G02X126751099Y-154304225I-691614J-618042D01*
G01*
X126843113Y-154447827D02*
X126751099Y-154304225D01*
X126908325Y-154544131D02*
X126843113Y-154447827D01*
X126969278Y-154626381D02*
X126908325Y-154544131D01*
X127044380Y-154720045D02*
X126969278Y-154626381D01*
X127087947Y-154772822D02*
X127044380Y-154720045D01*
X127101771Y-154789809D02*
X127087947Y-154772822D01*
X127112079Y-154803035D02*
X127101771Y-154789809D01*
X124884498Y-149270277D02*
X124870636Y-149320269D01*
X125560691Y-152744082D02*
X125556173Y-152754627D01*
X125564264Y-152735606D02*
X125560691Y-152744082D01*
X125567281Y-152727667D02*
X125564264Y-152735606D01*
X125569553Y-152720959D02*
X125567281Y-152727667D01*
X125570021Y-152717966D02*
G75*
G02X125569553Y-152720959I-9805J0D01*
G01*
X125570021Y-152717965D02*
G75*
G02X125570501Y-152714968I9600J-1D01*
G01*
X125572848Y-152708209D02*
X125570501Y-152714968D01*
X125575958Y-152700210D02*
X125572848Y-152708209D01*
X125579642Y-152691661D02*
X125575958Y-152700210D01*
X125593866Y-152659784D02*
X125579642Y-152691661D01*
X125602969Y-152638632D02*
X125593866Y-152659784D01*
X125609166Y-152623491D02*
X125602969Y-152638632D01*
X125610007Y-152619082D02*
G75*
G02X125609166Y-152623491I-11749J-43D01*
G01*
X125610007Y-152619082D02*
G75*
G02X125610459Y-152616632I6738J25D01*
G01*
X125613194Y-152609786D02*
X125610459Y-152616632D01*
X125616707Y-152601673D02*
X125613194Y-152609786D01*
X125620874Y-152592777D02*
X125616707Y-152601673D01*
X125625330Y-152583430D02*
X125620874Y-152592777D01*
X125629723Y-152573949D02*
X125625330Y-152583430D01*
X125633495Y-152565577D02*
X125629723Y-152573949D01*
X125635721Y-152560277D02*
X125633495Y-152565577D01*
X127127281Y-154823316D02*
X127112079Y-154803035D01*
X127143683Y-154846689D02*
X127127281Y-154823316D01*
X127143683Y-154846690D02*
G75*
G02X127155528Y-154866666I-194982J-129113D01*
G01*
X127155528Y-154866666D02*
G75*
G02X127162903Y-154882618I-148143J-78170D01*
G01*
X126587272Y-150977192D02*
X126577847Y-150987777D01*
X126607031Y-150954856D02*
X126587272Y-150977192D01*
X126630430Y-150928361D02*
X126607031Y-150954856D01*
X126655193Y-150900277D02*
X126630430Y-150928361D01*
X126763704Y-150783304D02*
X126655193Y-150900277D01*
X126896053Y-150652079D02*
X126763704Y-150783304D01*
X127027297Y-150530085D02*
X126896053Y-150652079D01*
X127130250Y-150444220D02*
X127027297Y-150530085D01*
X127217428Y-150378727D02*
X127130250Y-150444220D01*
X127296415Y-150323278D02*
X127217428Y-150378727D01*
X127398457Y-150256351D02*
X127296415Y-150323278D01*
X127577522Y-150142769D02*
X127398457Y-150256351D01*
X127639629Y-150103344D02*
X127577522Y-150142769D01*
X127706365Y-150060469D02*
X127639629Y-150103344D01*
X127767965Y-150020471D02*
X127706365Y-150060469D01*
X127812522Y-149990991D02*
X127767965Y-150020471D01*
X127947222Y-149899298D02*
X127812522Y-149990991D01*
X128070866Y-149812251D02*
X127947222Y-149899298D01*
X128218690Y-149704774D02*
X128070866Y-149812251D01*
X128440022Y-149540957D02*
X128218690Y-149704774D01*
X128483928Y-149508350D02*
X128440022Y-149540957D01*
X128526959Y-149476446D02*
X128483928Y-149508350D01*
X128564011Y-149449020D02*
X128526959Y-149476446D01*
X128585022Y-149433543D02*
X128564011Y-149449020D01*
X128601209Y-149421646D02*
X128585022Y-149433543D01*
X128618850Y-149408643D02*
X128601209Y-149421646D01*
X128635320Y-149396471D02*
X128618850Y-149408643D01*
X128647522Y-149387414D02*
X128635320Y-149396471D01*
X128687477Y-149359270D02*
X128647522Y-149387414D01*
X128742952Y-149323208D02*
X128687477Y-149359270D01*
X128799438Y-149287759D02*
X128742952Y-149323208D01*
X128799438Y-149287760D02*
G75*
G02X128814761Y-149281269I28471J-45884D01*
G01*
X128814761Y-149281268D02*
G75*
G02X128827504Y-149279947I10974J-43717D01*
G01*
X128827504Y-149279947D02*
G75*
G02X128834070Y-149284069I-305J-7776D01*
G01*
X128834070Y-149284070D02*
G75*
G02X128834527Y-149292656I-8997J-4784D01*
G01*
X128834527Y-149292655D02*
G75*
G02X128827667Y-149305539I-63438J25510D01*
G01*
X128815329Y-149322507D02*
X128827667Y-149305539D01*
X128795976Y-149346851D02*
X128815329Y-149322507D01*
X128776429Y-149370518D02*
X128795976Y-149346851D01*
X128776429Y-149370517D02*
G75*
G02X128766963Y-149380277I-72727J61071D01*
G01*
X128749895Y-149398072D02*
G75*
G02X128766963Y-149380277I123500J-101373D01*
G01*
X128695948Y-149464257D02*
X128749895Y-149398072D01*
X128641922Y-149531904D02*
X128695948Y-149464257D01*
X128601038Y-149585277D02*
X128641922Y-149531904D01*
X128524034Y-149693698D02*
X128601038Y-149585277D01*
X128463980Y-149789678D02*
X128524034Y-149693698D01*
X128398409Y-149910452D02*
X128463980Y-149789678D01*
X128295463Y-150115277D02*
X128398409Y-149910452D01*
X128262314Y-150182396D02*
X128295463Y-150115277D01*
X128232337Y-150243418D02*
X128262314Y-150182396D01*
X128207300Y-150294652D02*
X128232337Y-150243418D01*
X128198740Y-150312777D02*
X128207300Y-150294652D01*
X128183870Y-150344997D02*
X128198740Y-150312777D01*
X128148656Y-150420485D02*
X128183870Y-150344997D01*
X128113434Y-150495815D02*
X128148656Y-150420485D01*
X128092505Y-150540277D02*
X128113434Y-150495815D01*
X128086270Y-150553483D02*
X128092505Y-150540277D01*
X128076572Y-150574090D02*
X128086270Y-150553483D01*
X128065623Y-150597387D02*
X128076572Y-150574090D01*
X128054881Y-150620277D02*
X128065623Y-150597387D01*
X128002656Y-150731614D02*
X128054881Y-150620277D01*
X127955466Y-150832138D02*
X128002656Y-150731614D01*
X127916565Y-150914935D02*
X127955466Y-150832138D01*
X127894416Y-150961958D02*
X127916565Y-150914935D01*
X124706089Y-150270173D02*
X124700432Y-150347777D01*
X124741414Y-149934273D02*
X124739359Y-149951746D01*
X124749812Y-151775277D02*
X124752112Y-151791881D01*
X122470022Y-153404199D02*
X122535345Y-153431444D01*
X122422193Y-153382386D02*
X122470022Y-153404199D01*
X122346008Y-153345116D02*
X122422193Y-153382386D01*
X122263874Y-153304229D02*
X122346008Y-153345116D01*
X123208715Y-152667712D02*
G75*
G02X123287077Y-152677867I-68767J-838110D01*
G01*
X123384167Y-152697547D02*
X123287077Y-152677867D01*
X123488541Y-152723880D02*
X123384167Y-152697547D01*
X123590022Y-152754629D02*
X123488541Y-152723880D01*
X123661345Y-152778648D02*
X123590022Y-152754629D01*
X123712918Y-152797344D02*
X123661345Y-152778648D01*
X123764767Y-152818060D02*
X123712918Y-152797344D01*
X123837522Y-152848978D02*
X123764767Y-152818060D01*
X123886095Y-152871297D02*
X123837522Y-152848978D01*
X123972054Y-152913707D02*
X123886095Y-152871297D01*
X124057800Y-152957003D02*
X123972054Y-152913707D01*
X124107522Y-152983724D02*
X124057800Y-152957003D01*
X124124485Y-152993290D02*
X124107522Y-152983724D01*
X124142381Y-153003359D02*
X124124485Y-152993290D01*
X124158665Y-153012503D02*
X124142381Y-153003359D01*
X124170022Y-153018855D02*
X124158665Y-153012503D01*
X124217579Y-153046350D02*
X124170022Y-153018855D01*
X124279264Y-153083880D02*
X124217579Y-153046350D01*
X124344127Y-153124579D02*
X124279264Y-153083880D01*
X124402522Y-153162529D02*
X124344127Y-153124579D01*
X124519621Y-153239782D02*
X124402522Y-153162529D01*
X124534217Y-153242895D02*
G75*
G02X124519621Y-153239782I-3296J20324D01*
G01*
X124535880Y-153236626D02*
G75*
G02X124534217Y-153242894I-2231J-2763D01*
G01*
X124436635Y-153156997D02*
X124535879Y-153236626D01*
X124326355Y-153068615D02*
X124436635Y-153156997D01*
X124205655Y-152971064D02*
X124326355Y-153068615D01*
X124096190Y-152882022D02*
X124205655Y-152971064D01*
X124047522Y-152841366D02*
X124096190Y-152882022D01*
X123810218Y-152628564D02*
X124047522Y-152841366D01*
X123581976Y-152403889D02*
X123810218Y-152628564D01*
X123376302Y-152181368D02*
X123581976Y-152403889D01*
X123207522Y-151975413D02*
X123376302Y-152181368D01*
X123197035Y-151961730D02*
X123207522Y-151975413D01*
X123180933Y-151940881D02*
X123197035Y-151961730D01*
X123162804Y-151917489D02*
X123180933Y-151940881D01*
X123145094Y-151894720D02*
X123162804Y-151917489D01*
X123100771Y-151836679D02*
X123145094Y-151894720D01*
X123048022Y-151765362D02*
X123100771Y-151836679D01*
X122993294Y-151689659D02*
X123048022Y-151765362D01*
X122942611Y-151617777D02*
X122993294Y-151689659D01*
X122865794Y-151505183D02*
X122942611Y-151617777D01*
X122753314Y-151336047D02*
X122865794Y-151505183D01*
X122642960Y-151168079D02*
X122753314Y-151336047D01*
X122577810Y-151065811D02*
X122642960Y-151168079D01*
X122562852Y-151041839D02*
X122577810Y-151065811D01*
X122543501Y-151011028D02*
X122562852Y-151041839D01*
X122523210Y-150978853D02*
X122543501Y-151011028D01*
X122505098Y-150950277D02*
X122523210Y-150978853D01*
X122482466Y-150914465D02*
X122505098Y-150950277D01*
X122444344Y-150853699D02*
X122482466Y-150914465D01*
X122400478Y-150783586D02*
X122444344Y-150853699D01*
X122356299Y-150712777D02*
X122400478Y-150783586D01*
X122313762Y-150644522D02*
X122356299Y-150712777D01*
X122274866Y-150582137D02*
X122313762Y-150644522D01*
X122242249Y-150529846D02*
X122274866Y-150582137D01*
X122230010Y-150510277D02*
X122242249Y-150529846D01*
X122187630Y-150441590D02*
X122230010Y-150510277D01*
X122117790Y-150326106D02*
X122187630Y-150441590D01*
X122047729Y-150209490D02*
X122117790Y-150326106D01*
X122022165Y-150165277D02*
X122047729Y-150209490D01*
X122019328Y-150160248D02*
X122022165Y-150165277D01*
X122015217Y-150153074D02*
X122019328Y-150160248D01*
X122010674Y-150145211D02*
X122015217Y-150153074D01*
X122006342Y-150137777D02*
X122010674Y-150145211D01*
X121977044Y-150087083D02*
X122006342Y-150137777D01*
X121918968Y-149985057D02*
X121977044Y-150087083D01*
X121860346Y-149881702D02*
X121918968Y-149985057D01*
X121838754Y-149842777D02*
X121860346Y-149881702D01*
X121829351Y-149825536D02*
X121838754Y-149842777D01*
X121817835Y-149804543D02*
X121829351Y-149825536D01*
X121806140Y-149783314D02*
X121817835Y-149804543D01*
X121796150Y-149765277D02*
X121806140Y-149783314D01*
X121767394Y-149710797D02*
X121796150Y-149765277D01*
X121712647Y-149600518D02*
X121767394Y-149710797D01*
X121652078Y-149477345D02*
X121712647Y-149600518D01*
X121652079Y-149477345D02*
G75*
G02X121650022Y-149468491I18028J8854D01*
G01*
X121649530Y-149465636D02*
G75*
G02X121650022Y-149468491I-8045J-2855D01*
G01*
X121647209Y-149459477D02*
X121649530Y-149465636D01*
X121644113Y-149452210D02*
X121647209Y-149459477D01*
X121640446Y-149444500D02*
X121644113Y-149452210D01*
X121640446Y-149444500D02*
G75*
G02X121625567Y-149410779I353949J176315D01*
G01*
X121612376Y-149372674D02*
X121625567Y-149410779D01*
X121602797Y-149337022D02*
X121612376Y-149372674D01*
X121602798Y-149337021D02*
G75*
G02X121600022Y-149312709I105091J24312D01*
G01*
X121600022Y-149312709D02*
G75*
G02X121602313Y-149301889I26694J0D01*
G01*
X121602313Y-149301889D02*
G75*
G02X121608734Y-149293767I19006J-8428D01*
G01*
X121608734Y-149293767D02*
G75*
G02X121618045Y-149289963I11741J-15439D01*
G01*
X121618045Y-149289963D02*
G75*
G02X121628409Y-149291121I2783J-22042D01*
G01*
X124549378Y-153249505D02*
G75*
G02X124557816Y-153255118I-42084J-72409D01*
G01*
X124543690Y-153248010D02*
G75*
G02X124549378Y-153249505I137J-11046D01*
G01*
X124542163Y-153250169D02*
G75*
G02X124543690Y-153248010I1547J525D01*
G01*
X124545021Y-153255277D02*
G75*
G02X124542163Y-153250169I12406J10295D01*
G01*
X124548004Y-153258135D02*
G75*
G02X124545022Y-153255277I10995J14458D01*
G01*
X124551808Y-153260528D02*
G75*
G02X124548004Y-153258136I11528J22553D01*
G01*
X124555813Y-153262133D02*
G75*
G02X124551808Y-153260528I6762J22671D01*
G01*
X124559384Y-153262619D02*
G75*
G02X124555813Y-153262133I-229J11691D01*
G01*
X124563439Y-153262263D02*
G75*
G02X124559384Y-153262618I-4642J29680D01*
G01*
X124564221Y-153261131D02*
G75*
G02X124563438Y-153262263I-929J-194D01*
G01*
X124563100Y-153259282D02*
G75*
G02X124564221Y-153261131I-2062J-2515D01*
G01*
X124557816Y-153255118D02*
X124563100Y-153259282D01*
X125332574Y-147069496D02*
G75*
G02X125341771Y-147060571I24520J-16067D01*
G01*
X125341771Y-147060571D02*
G75*
G02X125352879Y-147057745I10107J-16484D01*
G01*
X125352879Y-147057745D02*
G75*
G02X125363607Y-147061707I-996J-19203D01*
G01*
X125363606Y-147061707D02*
G75*
G02X125371759Y-147071527I-17650J-22947D01*
G01*
X125371760Y-147071527D02*
G75*
G02X125383695Y-147104885I-124673J-63421D01*
G01*
X125399153Y-147180779D02*
X125383695Y-147104885D01*
X125416249Y-147280893D02*
X125399153Y-147180779D01*
X125434771Y-147407777D02*
X125416249Y-147280893D01*
X125439195Y-147439649D02*
X125434771Y-147407777D01*
X125443664Y-147471324D02*
X125439195Y-147439649D01*
X125447609Y-147498853D02*
X125443664Y-147471324D01*
X125450058Y-147515277D02*
X125447609Y-147498853D01*
X125452198Y-147529274D02*
X125450058Y-147515277D01*
X125454846Y-147546746D02*
X125452198Y-147529274D01*
X125457550Y-147564693D02*
X125454846Y-147546746D01*
X125459879Y-147580277D02*
X125457550Y-147564693D01*
X125500474Y-147845675D02*
X125459879Y-147580277D01*
X125532146Y-148033530D02*
X125500474Y-147845675D01*
X125562899Y-148191341D02*
X125532146Y-148033530D01*
X125599454Y-148355379D02*
X125562899Y-148191341D01*
X125624492Y-148458731D02*
X125599454Y-148355379D01*
X125656786Y-148586990D02*
X125624492Y-148458731D01*
X125688947Y-148712230D02*
X125656786Y-148586990D01*
X125699546Y-148747777D02*
X125688947Y-148712230D01*
X125701577Y-148754390D02*
X125699546Y-148747777D01*
X125704324Y-148764684D02*
X125701577Y-148754390D01*
X125707226Y-148776332D02*
X125704324Y-148764684D01*
X125709866Y-148787777D02*
X125707226Y-148776332D01*
X125712509Y-148799406D02*
X125709866Y-148787777D01*
X125715418Y-148811606D02*
X125712509Y-148799406D01*
X125718167Y-148822654D02*
X125715418Y-148811606D01*
X125720219Y-148830277D02*
X125718167Y-148822654D01*
X125741211Y-148911306D02*
X125720219Y-148830277D01*
X125770319Y-149039530D02*
X125741211Y-148911306D01*
X125797583Y-149167148D02*
X125770319Y-149039530D01*
X125810471Y-149240277D02*
X125797583Y-149167148D01*
X125812659Y-149254272D02*
X125810471Y-149240277D01*
X125815675Y-149271746D02*
X125812659Y-149254272D01*
X125818972Y-149289692D02*
X125815675Y-149271746D01*
X125822053Y-149305277D02*
X125818972Y-149289692D01*
X125833969Y-149371401D02*
X125822053Y-149305277D01*
X125848521Y-149470705D02*
X125833969Y-149371401D01*
X125863047Y-149582002D02*
X125848521Y-149470705D01*
X125875375Y-149690277D02*
X125863047Y-149582002D01*
X125883692Y-149777355D02*
X125875375Y-149690277D01*
X125891238Y-149873355D02*
X125883692Y-149777355D01*
X125899412Y-149996795D02*
X125891238Y-149873355D01*
X125909993Y-150175277D02*
X125899412Y-149996795D01*
X125914428Y-150311801D02*
X125909993Y-150175277D01*
X125913207Y-150473699D02*
X125914428Y-150311801D01*
D16*
X125906205Y-150680188D02*
X125913207Y-150473699D01*
X125892243Y-150960277D02*
X125906205Y-150680188D01*
D15*
X125888309Y-151013260D02*
X125892243Y-150960277D01*
X125879073Y-151107488D02*
X125888309Y-151013260D01*
X125868702Y-151204897D02*
X125879073Y-151107488D01*
X125859856Y-151277777D02*
X125868702Y-151204897D01*
X125857613Y-151295020D02*
X125859856Y-151277777D01*
X125854937Y-151316012D02*
X125857613Y-151295020D01*
X125852271Y-151337241D02*
X125854937Y-151316012D01*
X125850050Y-151355277D02*
X125852271Y-151337241D01*
X125847806Y-151372962D02*
X125850050Y-151355277D01*
X125845075Y-151393074D02*
X125847806Y-151372962D01*
X125842299Y-151412476D02*
X125845075Y-151393074D01*
X125839942Y-151427777D02*
X125842299Y-151412476D01*
X125837622Y-151442744D02*
X125839942Y-151427777D01*
X125834972Y-151461012D02*
X125837622Y-151442744D01*
X125832418Y-151479518D02*
X125834972Y-151461012D01*
X125830389Y-151495277D02*
X125832418Y-151479518D01*
X125811335Y-151617675D02*
X125830389Y-151495277D01*
X125771650Y-151819623D02*
X125811335Y-151617675D01*
X125728766Y-152021371D02*
X125771650Y-151819623D01*
X125697485Y-152145277D02*
X125728766Y-152021371D01*
X125694512Y-152155948D02*
X125697485Y-152145277D01*
X125691467Y-152167340D02*
X125694512Y-152155948D01*
X125688776Y-152177807D02*
X125691467Y-152167340D01*
X125686995Y-152185277D02*
X125688776Y-152177807D01*
X125677390Y-152223770D02*
X125686995Y-152185277D01*
X125647648Y-152331388D02*
X125677390Y-152223770D01*
X125617938Y-152437284D02*
X125647648Y-152331388D01*
X125600778Y-152495277D02*
X125617938Y-152437284D01*
X125596460Y-152509274D02*
X125600778Y-152495277D01*
X125591080Y-152526746D02*
X125596460Y-152509274D01*
X125585561Y-152544693D02*
X125591080Y-152526746D01*
X125580776Y-152560277D02*
X125585561Y-152544693D01*
X125563681Y-152614093D02*
X125580776Y-152560277D01*
X125532504Y-152708295D02*
X125563681Y-152614093D01*
X125499871Y-152805470D02*
X125532504Y-152708295D01*
X125474966Y-152877777D02*
X125499871Y-152805470D01*
X125464918Y-152906638D02*
X125474966Y-152877777D01*
X125455745Y-152933387D02*
X125464918Y-152906638D01*
X125448156Y-152955862D02*
X125455745Y-152933387D01*
X125445217Y-152965277D02*
X125448156Y-152955862D01*
X125442515Y-152974002D02*
X125445217Y-152965277D01*
X125436887Y-152990861D02*
X125442515Y-152974002D01*
X125430133Y-153010670D02*
X125436887Y-152990861D01*
X125422951Y-153031307D02*
X125430133Y-153010670D01*
X125405426Y-153084707D02*
X125422951Y-153031307D01*
X125405298Y-153104677D02*
G75*
G02X125405426Y-153084707I33535J9771D01*
G01*
X125412456Y-153105327D02*
G75*
G02X125405299Y-153104677I-3451J1730D01*
G01*
X125432120Y-153062777D02*
X125412455Y-153105327D01*
X125438098Y-153048783D02*
X125432120Y-153062777D01*
X125444664Y-153033598D02*
X125438098Y-153048783D01*
X125450839Y-153019472D02*
X125444664Y-153033598D01*
X125455464Y-153009082D02*
X125450839Y-153019472D01*
X125459124Y-153000664D02*
X125455464Y-153009082D01*
X125462214Y-152992904D02*
X125459124Y-153000664D01*
X125464584Y-152986362D02*
X125462214Y-152992904D01*
X125465021Y-152983771D02*
G75*
G02X125464584Y-152986362I-7897J0D01*
G01*
X125465021Y-152983771D02*
G75*
G02X125465482Y-152981197I7424J0D01*
G01*
X125467959Y-152974785D02*
X125465482Y-152981197D01*
X125471191Y-152967186D02*
X125467959Y-152974785D01*
X125475022Y-152958958D02*
X125471191Y-152967186D01*
X125478851Y-152950659D02*
X125475022Y-152958958D01*
X125482084Y-152942840D02*
X125478851Y-152950659D01*
X125484508Y-152936216D02*
X125482084Y-152942840D01*
X125485021Y-152933153D02*
G75*
G02X125484508Y-152936216I-9398J0D01*
G01*
X125485022Y-152933153D02*
G75*
G02X125485503Y-152930064I10154J0D01*
G01*
X125487803Y-152923264D02*
X125485503Y-152930064D01*
X125490864Y-152915223D02*
X125487803Y-152923264D01*
X125494490Y-152906661D02*
X125490864Y-152915223D01*
X124264682Y-151708855D02*
X124260103Y-151700347D01*
X124264682Y-151708855D02*
G75*
G02X124265022Y-151710212I-2538J-1357D01*
G01*
X124254695Y-151690555D02*
X124248277Y-151679295D01*
X124260103Y-151700347D02*
X124254695Y-151690555D01*
X122263874Y-153304228D02*
G75*
G02X122255022Y-153297537I13556J27135D01*
G01*
X122253092Y-153295897D02*
G75*
G02X122255022Y-153297537I-5453J-8377D01*
G01*
X122245912Y-153291285D02*
X122253091Y-153295898D01*
X122237281Y-153285930D02*
X122245912Y-153291285D01*
X122227522Y-153280101D02*
X122237281Y-153285930D01*
X122217356Y-153274103D02*
X122227522Y-153280101D01*
X122207487Y-153268234D02*
X122217356Y-153274103D01*
X122199047Y-153263177D02*
X122207487Y-153268234D01*
X122194424Y-153260341D02*
X122199047Y-153263177D01*
X122190259Y-153257797D02*
X122194424Y-153260341D01*
X122184094Y-153254150D02*
X122190259Y-153257797D01*
X122177233Y-153250155D02*
X122184094Y-153254150D01*
X122170629Y-153246375D02*
X122177233Y-153250155D01*
X122170629Y-153246375D02*
G75*
G02X122160474Y-153239975I63669J112281D01*
G01*
X122132016Y-153220005D02*
X122160474Y-153239975D01*
X122098261Y-153195940D02*
X122132016Y-153220005D01*
X122061226Y-153169103D02*
X122098261Y-153195940D01*
X121883114Y-153046773D02*
X122061226Y-153169103D01*
X121736099Y-152963678D02*
G75*
G02X121883114Y-153046773I-631554J-1288984D01*
G01*
X121576951Y-152896610D02*
G75*
G02X121736098Y-152963679I-510715J-1434241D01*
G01*
X121358826Y-152824954D02*
X121576951Y-152896611D01*
X121326926Y-152815042D02*
X121358826Y-152824954D01*
X121326927Y-152815042D02*
G75*
G02X121316329Y-152810106I14167J44263D01*
G01*
X121316329Y-152810106D02*
G75*
G02X121311681Y-152804159I5938J9430D01*
G01*
X121311681Y-152804159D02*
G75*
G02X121310076Y-152794254I30438J10015D01*
G01*
X121310076Y-152794254D02*
G75*
G02X121310628Y-152785206I70514J241D01*
G01*
X126535632Y-154719595D02*
X126647606Y-154749292D01*
X126448054Y-154693690D02*
X126535632Y-154719595D01*
X126448055Y-154693690D02*
G75*
G02X126392522Y-154673101I169046J541143D01*
G01*
X126387486Y-154671027D02*
X126392522Y-154673101D01*
X126380318Y-154668265D02*
X126387486Y-154671027D01*
X126372455Y-154665344D02*
X126380318Y-154668265D01*
X126365022Y-154662696D02*
X126372455Y-154665344D01*
X126357177Y-154659863D02*
X126365022Y-154662696D01*
X126348034Y-154656363D02*
X126357177Y-154659863D01*
X126339059Y-154652778D02*
X126348034Y-154656363D01*
X126331766Y-154649691D02*
X126339059Y-154652778D01*
X126325511Y-154647043D02*
X126331766Y-154649691D01*
X126319752Y-154644808D02*
X126325511Y-154647043D01*
X126314899Y-154643092D02*
X126319752Y-154644808D01*
X126312993Y-154642777D02*
G75*
G02X126314899Y-154643092I0J-5933D01*
G01*
X126312993Y-154642778D02*
G75*
G02X126309189Y-154642029I0J10037D01*
G01*
X126214667Y-154603305D02*
X126309189Y-154642029D01*
X126131032Y-154568860D02*
X126214667Y-154603305D01*
X126085022Y-154549343D02*
X126131032Y-154568860D01*
X126034226Y-154526283D02*
X126085022Y-154549343D01*
X125964035Y-154492512D02*
X126034226Y-154526283D01*
X125896005Y-154458811D02*
X125964035Y-154492512D01*
X125860022Y-154439386D02*
X125896005Y-154458811D01*
X125834250Y-154424488D02*
X125860022Y-154439386D01*
X125815712Y-154413819D02*
X125834250Y-154424488D01*
X125802040Y-154406010D02*
X125815712Y-154413819D01*
X125792522Y-154400665D02*
X125802040Y-154406010D01*
X125752423Y-154376144D02*
X125792522Y-154400665D01*
X125702352Y-154341071D02*
X125752423Y-154376144D01*
X125649465Y-154300893D02*
X125702352Y-154341071D01*
X125600022Y-154260105D02*
X125649465Y-154300893D01*
X125600022Y-154260106D02*
G75*
G02X125520238Y-154183873I695822J808099D01*
G01*
X125520238Y-154183873D02*
G75*
G02X125448595Y-154099661I781638J737557D01*
G01*
X125448596Y-154099661D02*
G75*
G02X125385002Y-154007259I878955J673003D01*
G01*
X125385001Y-154007258D02*
G75*
G02X125329292Y-153906527I1044989J643704D01*
G01*
X125316672Y-153882136D02*
X125329292Y-153906527D01*
X125308836Y-153871479D02*
G75*
G02X125316672Y-153882136I-34612J-33661D01*
G01*
X125302757Y-153869559D02*
G75*
G02X125308835Y-153871478I1254J-6611D01*
G01*
X125297112Y-153873439D02*
G75*
G02X125302758Y-153869558I7228J-4468D01*
G01*
X125295653Y-153878424D02*
G75*
G02X125297112Y-153873440I9773J-154D01*
G01*
X125293420Y-154021549D02*
X125295654Y-153878424D01*
X125291301Y-154181187D02*
X125293420Y-154021549D01*
X125289456Y-154369690D02*
X125291301Y-154181187D01*
X125287665Y-154558576D02*
X125289456Y-154369690D01*
X125285717Y-154719472D02*
X125287665Y-154558576D01*
X125283721Y-154862425D02*
X125285717Y-154719472D01*
X125283721Y-154862424D02*
G75*
G02X125282565Y-154871527I-41009J581D01*
G01*
X125282565Y-154871527D02*
G75*
G02X125281012Y-154875830I-20606J5007D01*
G01*
X125281011Y-154875830D02*
G75*
G02X125278627Y-154879473I-15676J7660D01*
G01*
X125278628Y-154879473D02*
G75*
G02X125275815Y-154881944I-9855J8380D01*
G01*
X125275814Y-154881943D02*
G75*
G02X125272998Y-154882777I-2816J4339D01*
G01*
X125272998Y-154882778D02*
G75*
G02X125268527Y-154881046I0J6637D01*
G01*
X125245478Y-154859837D02*
X125268527Y-154881046D01*
X125219013Y-154834616D02*
X125245478Y-154859837D01*
X125188906Y-154804683D02*
X125219013Y-154834616D01*
X125111648Y-154726588D02*
X125188906Y-154804683D01*
X125108335Y-154426359D02*
X125111648Y-154726588D01*
X125107066Y-154301023D02*
X125108335Y-154426359D01*
X125105995Y-154172704D02*
X125107066Y-154301023D01*
X125105237Y-154058674D02*
X125105995Y-154172704D01*
X125105022Y-153984454D02*
X125105237Y-154058674D01*
X125104720Y-153923849D02*
X125105022Y-153984454D01*
X125103728Y-153879717D02*
X125104720Y-153923849D01*
X125102369Y-153844990D02*
X125103728Y-153879717D01*
X125100060Y-153842777D02*
G75*
G02X125102369Y-153844990I-1J-2312D01*
G01*
X125097054Y-153844088D02*
G75*
G02X125100059Y-153842777I3005J-2787D01*
G01*
X125086630Y-153855560D02*
X125097055Y-153844089D01*
X125074618Y-153869615D02*
X125086630Y-153855560D01*
X125061309Y-153886292D02*
X125074618Y-153869615D01*
X124969679Y-153996929D02*
X125061309Y-153886292D01*
X124871336Y-154101497D02*
X124969679Y-153996929D01*
X124772618Y-154193723D02*
X124871336Y-154101497D01*
X124772618Y-154193723D02*
G75*
G02X124680022Y-154266907I-785138J898227D01*
G01*
X124543872Y-154357727D02*
X124680022Y-154266907D01*
X124410543Y-154434003D02*
X124543872Y-154357727D01*
X124270115Y-154500989D02*
X124410543Y-154434003D01*
X124112522Y-154563854D02*
X124270115Y-154500989D01*
X124056592Y-154583017D02*
X124112522Y-154563854D01*
X123964001Y-154612067D02*
X124056592Y-154583017D01*
X123870530Y-154640489D02*
X123964001Y-154612067D01*
X123870531Y-154640489D02*
G75*
G02X123835022Y-154649348I-111894J372905D01*
G01*
X123825788Y-154651427D02*
X123835022Y-154649348D01*
X123776256Y-154663853D02*
X123825788Y-154651427D01*
X123718574Y-154678414D02*
X123776256Y-154663853D01*
X123652522Y-154695214D02*
X123718574Y-154678414D01*
X123585223Y-154712309D02*
X123652522Y-154695214D01*
X123523647Y-154727802D02*
X123585223Y-154712309D01*
X123472000Y-154740673D02*
X123523647Y-154727802D01*
X123452522Y-154745258D02*
X123472000Y-154740673D01*
X123439392Y-154748201D02*
X123452522Y-154745258D01*
X123424725Y-154751527D02*
X123439392Y-154748201D01*
X123410765Y-154754724D02*
X123424725Y-154751527D01*
X123400022Y-154757222D02*
X123410765Y-154754724D01*
X123376495Y-154762411D02*
X123400022Y-154757222D01*
X123319890Y-154774006D02*
X123376495Y-154762411D01*
X123256655Y-154786751D02*
X123319890Y-154774006D01*
X123196570Y-154798613D02*
X123256655Y-154786751D01*
X123180754Y-154801291D02*
X123196570Y-154798613D01*
X123180754Y-154801291D02*
G75*
G02X123169488Y-154802124I-11660J81132D01*
G01*
X123169487Y-154802124D02*
G75*
G02X123160662Y-154801315I-221J46104D01*
G01*
X123160662Y-154801315D02*
G75*
G02X123152820Y-154798823I6419J33790D01*
G01*
X123152820Y-154798822D02*
G75*
G02X123143799Y-154785506I6402J14050D01*
G01*
X123143799Y-154785506D02*
G75*
G02X123149252Y-154766313I31269J1487D01*
G01*
X123149252Y-154766313D02*
G75*
G02X123177331Y-154731110I257590J-176662D01*
G01*
X123259998Y-154642550D02*
X123177331Y-154731110D01*
X123297172Y-154603045D02*
X123259998Y-154642550D01*
X123336499Y-154561019D02*
X123297172Y-154603045D01*
X123372351Y-154522510D02*
X123336499Y-154561019D01*
X123397522Y-154495213D02*
X123372351Y-154522510D01*
X123440178Y-154449392D02*
X123397522Y-154495213D01*
X123476361Y-154412256D02*
X123440178Y-154449392D01*
X123513224Y-154376564D02*
X123476361Y-154412256D01*
X123557926Y-154335277D02*
X123513224Y-154376564D01*
X123577115Y-154317823D02*
X123557926Y-154335277D01*
X123593687Y-154302653D02*
X123577115Y-154317823D01*
X123608008Y-154289477D02*
X123593687Y-154302653D01*
X123610021Y-154287406D02*
G75*
G02X123608008Y-154289477I-19819J17259D01*
G01*
X123610021Y-154287407D02*
G75*
G02X123612103Y-154285349I14795J-12883D01*
G01*
X123630147Y-154270015D02*
X123612103Y-154285349D01*
X123650885Y-154252487D02*
X123630147Y-154270015D01*
X123675022Y-154232231D02*
X123650885Y-154252487D01*
X123780470Y-154147248D02*
X123675022Y-154232231D01*
X123880076Y-154073754D02*
X123780470Y-154147248D01*
X123980113Y-154007287D02*
X123880076Y-154073754D01*
X124086795Y-153943515D02*
X123980113Y-154007287D01*
X124120714Y-153925268D02*
X124086795Y-153943515D01*
X124176262Y-153897389D02*
X124120714Y-153925268D01*
X124232493Y-153869994D02*
X124176262Y-153897389D01*
X124270022Y-153852890D02*
X124232493Y-153869994D01*
X124309757Y-153835775D02*
X124270022Y-153852890D01*
X124329737Y-153827382D02*
X124309757Y-153835775D01*
X124345779Y-153821025D02*
X124329737Y-153827382D01*
X124366272Y-153813347D02*
X124345779Y-153821025D01*
X124379186Y-153808599D02*
X124366272Y-153813347D01*
X124394287Y-153803046D02*
X124379186Y-153808599D01*
X124409151Y-153797580D02*
X124394287Y-153803046D01*
X124421272Y-153793122D02*
X124409151Y-153797580D01*
X124456104Y-153781114D02*
X124421272Y-153793122D01*
X124513274Y-153763030D02*
X124456104Y-153781114D01*
X124570340Y-153745577D02*
X124513274Y-153763030D01*
X124597522Y-153738372D02*
X124570340Y-153745577D01*
X124653341Y-153724277D02*
X124597522Y-153738372D01*
X124718904Y-153705292D02*
X124653341Y-153724277D01*
X124780034Y-153686296D02*
X124718904Y-153705292D01*
X124779691Y-153683050D02*
G75*
G02X124780034Y-153686296I-161J-1658D01*
G01*
X124777681Y-153683099D02*
G75*
G02X124779690Y-153683051I1204J-8298D01*
G01*
X124769709Y-153684287D02*
X124777681Y-153683099D01*
X124760305Y-153685799D02*
X124769709Y-153684287D01*
X124749690Y-153687644D02*
X124760305Y-153685799D01*
X124724754Y-153691359D02*
X124749690Y-153687644D01*
X124680359Y-153696376D02*
X124724754Y-153691359D01*
X124615074Y-153703070D02*
X124680359Y-153696376D01*
X124513645Y-153712894D02*
X124615074Y-153703070D01*
X124485352Y-153715035D02*
X124513645Y-153712894D01*
X124431795Y-153717839D02*
X124485352Y-153715035D01*
X124368915Y-153720681D02*
X124431795Y-153717839D01*
X124303645Y-153723169D02*
X124368915Y-153720681D01*
X124158340Y-153726041D02*
X124303645Y-153723169D01*
X124031748Y-153723781D02*
X124158340Y-153726041D01*
X123886661Y-153715269D02*
X124031748Y-153723781D01*
X123675022Y-153697707D02*
X123886661Y-153715269D01*
X123614771Y-153691119D02*
X123675022Y-153697707D01*
X123531738Y-153679690D02*
X123614771Y-153691119D01*
X123434250Y-153664788D02*
X123531738Y-153679690D01*
X123327522Y-153647109D02*
X123434250Y-153664788D01*
X123221857Y-153627377D02*
X123327522Y-153647109D01*
X123104034Y-153602215D02*
X123221857Y-153627377D01*
X122987305Y-153574654D02*
X123104034Y-153602215D01*
X122885022Y-153547637D02*
X122987305Y-153574654D01*
X122869381Y-153543300D02*
X122885022Y-153547637D01*
X122853397Y-153538981D02*
X122869381Y-153543300D01*
X122839207Y-153535245D02*
X122853397Y-153538981D01*
X122830022Y-153532966D02*
X122839207Y-153535245D01*
X122821722Y-153530851D02*
X122830022Y-153532966D01*
X122811053Y-153527839D02*
X122821722Y-153530851D01*
X122799914Y-153524499D02*
X122811053Y-153527839D01*
X122790022Y-153521321D02*
X122799914Y-153524499D01*
X122778663Y-153517567D02*
X122790022Y-153521321D01*
X122762381Y-153512256D02*
X122778663Y-153517567D01*
X122744485Y-153506458D02*
X122762381Y-153512256D01*
X122727522Y-153501004D02*
X122744485Y-153506458D01*
X122663400Y-153479584D02*
X122727522Y-153501004D01*
X122599573Y-153456485D02*
X122663400Y-153479584D01*
X122535345Y-153431444D02*
X122599573Y-153456485D01*
X125441588Y-153629800D02*
G75*
G02X125435529Y-153627293I15601J46284D01*
G01*
X125448772Y-153631862D02*
G75*
G02X125441589Y-153629800I19033J79840D01*
G01*
X125475611Y-153637712D02*
X125448772Y-153631862D01*
X121628409Y-149291121D02*
G75*
G02X121643800Y-149299519I-19851J-54684D01*
G01*
X121683573Y-149330444D02*
X121643800Y-149299519D01*
X121730950Y-149369163D02*
X121683573Y-149330444D01*
X121783636Y-149414359D02*
X121730950Y-149369163D01*
X121948174Y-149552127D02*
X121783636Y-149414359D01*
X122093791Y-149660502D02*
X121948174Y-149552127D01*
X122262714Y-149769733D02*
X122093791Y-149660502D01*
X122507522Y-149914069D02*
X122262714Y-149769733D01*
X124821306Y-149506615D02*
X124797577Y-149615220D01*
X124744593Y-149906118D02*
X124742916Y-149920277D01*
X124536280Y-152220659D02*
X124496362Y-152142777D01*
X124650735Y-152449065D02*
X124536280Y-152220659D01*
X124843793Y-149422863D02*
X124840420Y-149435871D01*
X124859796Y-152390277D02*
X124862223Y-152399554D01*
X123230696Y-150396196D02*
X123199731Y-150371569D01*
X123284121Y-150440261D02*
X123230696Y-150396196D01*
X124905296Y-149199293D02*
X124890717Y-149248596D01*
X124291545Y-151760738D02*
X124277657Y-151734784D01*
X124308037Y-151791194D02*
X124291545Y-151760738D01*
X124857389Y-152380966D02*
X124859796Y-152390277D01*
X124780667Y-152712450D02*
G75*
G02X124780022Y-152709625I5867J2825D01*
G01*
X124820128Y-152794375D02*
X124780666Y-152712451D01*
X124743686Y-151728002D02*
X124749812Y-151775277D01*
X124840420Y-149435871D02*
X124837276Y-149447511D01*
X124860559Y-149357297D02*
X124852925Y-149386256D01*
X124872102Y-152443678D02*
X124875424Y-152458215D01*
X124869792Y-152432777D02*
X124872102Y-152443678D01*
X124867434Y-152892202D02*
X124820128Y-152794375D01*
X124930900Y-153022769D02*
X124867434Y-152892202D01*
X125244836Y-147595277D02*
X125233743Y-147688355D01*
X123640510Y-150769449D02*
X123557249Y-150684817D01*
X123707941Y-150843323D02*
X123640510Y-150769449D01*
X124265378Y-151711643D02*
G75*
G02X124265022Y-151710212I2699J1431D01*
G01*
X124277657Y-151734784D02*
X124265377Y-151711643D01*
X124707431Y-151334943D02*
X124710146Y-151374262D01*
X124686197Y-150790776D02*
X124691200Y-151010800D01*
X122562323Y-149945700D02*
X122507522Y-149914069D01*
X122615350Y-149976582D02*
X122562323Y-149945700D01*
X122660594Y-150003170D02*
X122615350Y-149976582D01*
X124712884Y-151410118D02*
X124715155Y-151435277D01*
X125314571Y-147113376D02*
G75*
G02X125332574Y-147069496I122645J-24684D01*
G01*
X125233743Y-147688355D02*
X125216692Y-147818323D01*
X125216692Y-147818323D02*
X125198247Y-147952128D01*
X125198247Y-147952128D02*
X125182296Y-148060277D01*
X124844799Y-152321609D02*
X124847913Y-152336189D01*
X124922754Y-149140648D02*
X124905296Y-149199293D01*
X124915004Y-152616641D02*
X124938021Y-152705658D01*
X124902687Y-152567777D02*
X124915004Y-152616641D01*
X124689221Y-150585430D02*
X124686197Y-150790776D01*
X124747211Y-149888074D02*
X124744593Y-149906118D01*
X124846912Y-149410277D02*
X124843793Y-149422863D01*
X123341890Y-150488546D02*
X123284121Y-150440261D01*
X123392522Y-150531589D02*
X123341890Y-150488546D01*
X124890717Y-149248596D02*
X124884498Y-149270277D01*
X124796332Y-152082567D02*
X124819739Y-152208706D01*
X124722649Y-151517124D02*
X124724772Y-151542777D01*
X124852098Y-152357528D02*
X124854678Y-152369391D01*
X124870636Y-149320269D02*
X124860559Y-149357297D01*
X124862223Y-152399554D02*
X124864997Y-152411012D01*
X125024298Y-148790004D02*
X124941595Y-149077777D01*
X124774401Y-151953232D02*
X124796332Y-152082567D01*
X124736414Y-151663404D02*
X124743686Y-151728002D01*
X122685022Y-150017924D02*
X122660594Y-150003170D01*
X122702943Y-150028971D02*
X122685022Y-150017924D01*
X122721647Y-150040441D02*
X122702943Y-150028971D01*
X122738524Y-150050743D02*
X122721647Y-150040441D01*
X122750022Y-150057694D02*
X122738524Y-150050743D01*
X124847913Y-152336189D02*
X124850081Y-152347260D01*
X124705160Y-151297777D02*
X124707431Y-151334943D01*
X125141058Y-148296192D02*
X125089522Y-148534580D01*
X124852925Y-149386256D02*
X124846912Y-149410277D01*
X125182296Y-148060277D02*
X125141058Y-148296192D01*
X124864997Y-152411012D02*
X124867668Y-152422709D01*
X124715155Y-151435277D02*
X124717410Y-151458549D01*
X124760387Y-151855277D02*
X124774401Y-151953232D01*
X124897592Y-152547213D02*
X124902687Y-152567777D01*
X124891964Y-152524684D02*
X124897592Y-152547213D01*
X123088770Y-150288408D02*
X122962111Y-150198124D01*
X123199731Y-150371569D02*
X123088770Y-150288408D01*
X124716010Y-150160768D02*
X124706089Y-150270173D01*
X124835002Y-149455277D02*
X124821306Y-149506615D01*
X124240348Y-151665352D02*
X124230163Y-151647052D01*
X124248277Y-151679295D02*
X124240348Y-151665352D01*
X124425179Y-152007925D02*
X124407627Y-151975277D01*
X124446050Y-152047166D02*
X124425179Y-152007925D01*
X125043771Y-153203775D02*
G75*
G02X125028450Y-153204191I-7814J5438D01*
G01*
X125051642Y-153177617D02*
G75*
G02X125043772Y-153203776I-43965J-1036D01*
G01*
X124841336Y-152306189D02*
X124844799Y-152321609D01*
X124754965Y-151813215D02*
X124757876Y-151835494D01*
X124750258Y-149869324D02*
X124747211Y-149888074D01*
X124742916Y-149920277D02*
X124741414Y-149934273D01*
X124724772Y-151542777D02*
X124729586Y-151596968D01*
X124469842Y-152092235D02*
X124446050Y-152047166D01*
X124496362Y-152142777D02*
X124469842Y-152092235D01*
X124726782Y-150053128D02*
X124716010Y-150160768D01*
X125089522Y-148534580D02*
X125024298Y-148790004D01*
X124797577Y-149615220D02*
X124775096Y-149724104D01*
X124779044Y-152705488D02*
X124650735Y-152449065D01*
X124779045Y-152705488D02*
G75*
G02X124780022Y-152709625I-8269J-4137D01*
G01*
X122840998Y-150115371D02*
X122750022Y-150057694D01*
X122962111Y-150198124D02*
X122840998Y-150115371D01*
X123826981Y-150992044D02*
X123707941Y-150843323D01*
X123952584Y-151173051D02*
X123826981Y-150992044D01*
X124775096Y-149724104D02*
X124764785Y-149785277D01*
X124941595Y-149077777D02*
X124922754Y-149140648D01*
X124717410Y-151458549D02*
X124720054Y-151487481D01*
X124753300Y-149852777D02*
X124750258Y-149869324D01*
X124762686Y-149799437D02*
X124759713Y-149817481D01*
X124735041Y-149985277D02*
X124726782Y-150053128D01*
X125012789Y-152990486D02*
X125034316Y-153078882D01*
X124979915Y-152865277D02*
X125012789Y-152990486D01*
X124879114Y-152473688D02*
X124882635Y-152487777D01*
X124875424Y-152458215D02*
X124879114Y-152473688D01*
X124838031Y-152292260D02*
X124841336Y-152306189D01*
X124756422Y-149836231D02*
X124753300Y-149852777D01*
X125292634Y-147232589D02*
X125269274Y-147390793D01*
X124739359Y-149951746D02*
X124737122Y-149969693D01*
X124854678Y-152369391D02*
X124857389Y-152380966D01*
X124819739Y-152208706D02*
X124838031Y-152292260D01*
X124700432Y-150347777D02*
X124689221Y-150585430D01*
X125314571Y-147113377D02*
X125292634Y-147232589D01*
X124764785Y-149785277D02*
X124762686Y-149799437D01*
X124961965Y-152797481D02*
X124979915Y-152865277D01*
X124938021Y-152705658D02*
X124961965Y-152797481D01*
X124757876Y-151835494D02*
X124760387Y-151855277D01*
X124886652Y-152503561D02*
X124891964Y-152524684D01*
X124882635Y-152487777D02*
X124886652Y-152503561D01*
X124710146Y-151374262D02*
X124712884Y-151410118D01*
X125047789Y-153142241D02*
G75*
G02X125051641Y-153177617I-205937J-40320D01*
G01*
X125034316Y-153078882D02*
X125047790Y-153142241D01*
X124399971Y-151961116D02*
X124390235Y-151943074D01*
X124407627Y-151975277D02*
X124399971Y-151961116D01*
X124867668Y-152422709D02*
X124869792Y-152432777D01*
X124759713Y-149817481D02*
X124756422Y-149836231D01*
X123470584Y-150601527D02*
X123392522Y-150531589D01*
X123557249Y-150684817D02*
X123470584Y-150601527D01*
X124752112Y-151791881D02*
X124754965Y-151813215D01*
X124737122Y-149969693D02*
X124735041Y-149985277D01*
X124837276Y-149447511D02*
X124835002Y-149455277D01*
X125269274Y-147390793D02*
X125244836Y-147595277D01*
X124219544Y-151627713D02*
X124210123Y-151610277D01*
X124230163Y-151647052D02*
X124219544Y-151627713D01*
X124995824Y-153152971D02*
X124930900Y-153022769D01*
X125028449Y-153204191D02*
G75*
G02X124995824Y-153152971I252153J196613D01*
G01*
X124691200Y-151010800D02*
X124705160Y-151297777D01*
D14*
G36*
X143354975Y-131708585D02*
G01*
X143654528Y-131768170D01*
X144218874Y-132001930D01*
X144726772Y-132341296D01*
X145158704Y-132773228D01*
X145498070Y-133281126D01*
X145731830Y-133845472D01*
X145851000Y-134444578D01*
X145851000Y-135055422D01*
X145731830Y-135654528D01*
X145498070Y-136218874D01*
X145158704Y-136726772D01*
X144726772Y-137158704D01*
X144218874Y-137498070D01*
X143654528Y-137731830D01*
X143354975Y-137791415D01*
X143055423Y-137851000D01*
X142444577Y-137851000D01*
X142145025Y-137791415D01*
X141845472Y-137731830D01*
X141281126Y-137498070D01*
X140773228Y-137158704D01*
X140341296Y-136726772D01*
X140001930Y-136218874D01*
X139768170Y-135654528D01*
X139649000Y-135055422D01*
X139649000Y-134444578D01*
X139768170Y-133845472D01*
X140001930Y-133281126D01*
X140341296Y-132773228D01*
X140773228Y-132341296D01*
X141281126Y-132001930D01*
X141845472Y-131768170D01*
X142145025Y-131708585D01*
X142444577Y-131649000D01*
X143055423Y-131649000D01*
X143354975Y-131708585D01*
G37*
G36*
X131354975Y-131708585D02*
G01*
X131654528Y-131768170D01*
X132218874Y-132001930D01*
X132726772Y-132341296D01*
X133158704Y-132773228D01*
X133498070Y-133281126D01*
X133731830Y-133845472D01*
X133851000Y-134444578D01*
X133851000Y-135055422D01*
X133731830Y-135654528D01*
X133498070Y-136218874D01*
X133158704Y-136726772D01*
X132726772Y-137158704D01*
X132218874Y-137498070D01*
X131654528Y-137731830D01*
X131354975Y-137791415D01*
X131055423Y-137851000D01*
X130444577Y-137851000D01*
X130145025Y-137791415D01*
X129845472Y-137731830D01*
X129281126Y-137498070D01*
X128773228Y-137158704D01*
X128341296Y-136726772D01*
X128001930Y-136218874D01*
X127768170Y-135654528D01*
X127649000Y-135055422D01*
X127649000Y-134444578D01*
X127768170Y-133845472D01*
X128001930Y-133281126D01*
X128341296Y-132773228D01*
X128773228Y-132341296D01*
X129281126Y-132001930D01*
X129845472Y-131768170D01*
X130145025Y-131708585D01*
X130444577Y-131649000D01*
X131055423Y-131649000D01*
X131354975Y-131708585D01*
G37*
G36*
X119354975Y-131708585D02*
G01*
X119654528Y-131768170D01*
X120218874Y-132001930D01*
X120726772Y-132341296D01*
X121158704Y-132773228D01*
X121498070Y-133281126D01*
X121731830Y-133845472D01*
X121851000Y-134444578D01*
X121851000Y-135055422D01*
X121731830Y-135654528D01*
X121498070Y-136218874D01*
X121158704Y-136726772D01*
X120726772Y-137158704D01*
X120218874Y-137498070D01*
X119654528Y-137731830D01*
X119354975Y-137791415D01*
X119055423Y-137851000D01*
X118444577Y-137851000D01*
X118145025Y-137791415D01*
X117845472Y-137731830D01*
X117281126Y-137498070D01*
X116773228Y-137158704D01*
X116341296Y-136726772D01*
X116001930Y-136218874D01*
X115768170Y-135654528D01*
X115649000Y-135055422D01*
X115649000Y-134444578D01*
X115768170Y-133845472D01*
X116001930Y-133281126D01*
X116341296Y-132773228D01*
X116773228Y-132341296D01*
X117281126Y-132001930D01*
X117845472Y-131768170D01*
X118145025Y-131708585D01*
X118444577Y-131649000D01*
X119055423Y-131649000D01*
X119354975Y-131708585D01*
G37*
G36*
X107354975Y-131708585D02*
G01*
X107654528Y-131768170D01*
X108218874Y-132001930D01*
X108726772Y-132341296D01*
X109158704Y-132773228D01*
X109498070Y-133281126D01*
X109731830Y-133845472D01*
X109851000Y-134444578D01*
X109851000Y-135055422D01*
X109731830Y-135654528D01*
X109498070Y-136218874D01*
X109158704Y-136726772D01*
X108726772Y-137158704D01*
X108218874Y-137498070D01*
X107654528Y-137731830D01*
X107354975Y-137791415D01*
X107055423Y-137851000D01*
X106444577Y-137851000D01*
X106145025Y-137791415D01*
X105845472Y-137731830D01*
X105281126Y-137498070D01*
X104773228Y-137158704D01*
X104341296Y-136726772D01*
X104001930Y-136218874D01*
X103768170Y-135654528D01*
X103649000Y-135055422D01*
X103649000Y-134444578D01*
X103768170Y-133845472D01*
X104001930Y-133281126D01*
X104341296Y-132773228D01*
X104773228Y-132341296D01*
X105281126Y-132001930D01*
X105845472Y-131768170D01*
X106145025Y-131708585D01*
X106444577Y-131649000D01*
X107055423Y-131649000D01*
X107354975Y-131708585D01*
G37*
G36*
X143354975Y-115708585D02*
G01*
X143654528Y-115768170D01*
X144218874Y-116001930D01*
X144726772Y-116341296D01*
X145158704Y-116773228D01*
X145498070Y-117281126D01*
X145731830Y-117845472D01*
X145851000Y-118444578D01*
X145851000Y-119055422D01*
X145731830Y-119654528D01*
X145498070Y-120218874D01*
X145158704Y-120726772D01*
X144726772Y-121158704D01*
X144218874Y-121498070D01*
X143654528Y-121731830D01*
X143354975Y-121791415D01*
X143055423Y-121851000D01*
X142444577Y-121851000D01*
X142145025Y-121791415D01*
X141845472Y-121731830D01*
X141281126Y-121498070D01*
X140773228Y-121158704D01*
X140341296Y-120726772D01*
X140001930Y-120218874D01*
X139768170Y-119654528D01*
X139649000Y-119055422D01*
X139649000Y-118444578D01*
X139768170Y-117845472D01*
X140001930Y-117281126D01*
X140341296Y-116773228D01*
X140773228Y-116341296D01*
X141281126Y-116001930D01*
X141845472Y-115768170D01*
X142145025Y-115708585D01*
X142444577Y-115649000D01*
X143055423Y-115649000D01*
X143354975Y-115708585D01*
G37*
G36*
X131354975Y-115708585D02*
G01*
X131654528Y-115768170D01*
X132218874Y-116001930D01*
X132726772Y-116341296D01*
X133158704Y-116773228D01*
X133498070Y-117281126D01*
X133731830Y-117845472D01*
X133851000Y-118444578D01*
X133851000Y-119055422D01*
X133731830Y-119654528D01*
X133498070Y-120218874D01*
X133158704Y-120726772D01*
X132726772Y-121158704D01*
X132218874Y-121498070D01*
X131654528Y-121731830D01*
X131354975Y-121791415D01*
X131055423Y-121851000D01*
X130444577Y-121851000D01*
X130145025Y-121791415D01*
X129845472Y-121731830D01*
X129281126Y-121498070D01*
X128773228Y-121158704D01*
X128341296Y-120726772D01*
X128001930Y-120218874D01*
X127768170Y-119654528D01*
X127649000Y-119055422D01*
X127649000Y-118444578D01*
X127768170Y-117845472D01*
X128001930Y-117281126D01*
X128341296Y-116773228D01*
X128773228Y-116341296D01*
X129281126Y-116001930D01*
X129845472Y-115768170D01*
X130145025Y-115708585D01*
X130444577Y-115649000D01*
X131055423Y-115649000D01*
X131354975Y-115708585D01*
G37*
G36*
X119354975Y-115708585D02*
G01*
X119654528Y-115768170D01*
X120218874Y-116001930D01*
X120726772Y-116341296D01*
X121158704Y-116773228D01*
X121498070Y-117281126D01*
X121731830Y-117845472D01*
X121851000Y-118444578D01*
X121851000Y-119055422D01*
X121731830Y-119654528D01*
X121498070Y-120218874D01*
X121158704Y-120726772D01*
X120726772Y-121158704D01*
X120218874Y-121498070D01*
X119654528Y-121731830D01*
X119354975Y-121791415D01*
X119055423Y-121851000D01*
X118444577Y-121851000D01*
X118145025Y-121791415D01*
X117845472Y-121731830D01*
X117281126Y-121498070D01*
X116773228Y-121158704D01*
X116341296Y-120726772D01*
X116001930Y-120218874D01*
X115768170Y-119654528D01*
X115649000Y-119055422D01*
X115649000Y-118444578D01*
X115768170Y-117845472D01*
X116001930Y-117281126D01*
X116341296Y-116773228D01*
X116773228Y-116341296D01*
X117281126Y-116001930D01*
X117845472Y-115768170D01*
X118145025Y-115708585D01*
X118444577Y-115649000D01*
X119055423Y-115649000D01*
X119354975Y-115708585D01*
G37*
G36*
X107354975Y-115708585D02*
G01*
X107654528Y-115768170D01*
X108218874Y-116001930D01*
X108726772Y-116341296D01*
X109158704Y-116773228D01*
X109498070Y-117281126D01*
X109731830Y-117845472D01*
X109851000Y-118444578D01*
X109851000Y-119055422D01*
X109731830Y-119654528D01*
X109498070Y-120218874D01*
X109158704Y-120726772D01*
X108726772Y-121158704D01*
X108218874Y-121498070D01*
X107654528Y-121731830D01*
X107354975Y-121791415D01*
X107055423Y-121851000D01*
X106444577Y-121851000D01*
X106145025Y-121791415D01*
X105845472Y-121731830D01*
X105281126Y-121498070D01*
X104773228Y-121158704D01*
X104341296Y-120726772D01*
X104001930Y-120218874D01*
X103768170Y-119654528D01*
X103649000Y-119055422D01*
X103649000Y-118444578D01*
X103768170Y-117845472D01*
X104001930Y-117281126D01*
X104341296Y-116773228D01*
X104773228Y-116341296D01*
X105281126Y-116001930D01*
X105845472Y-115768170D01*
X106145025Y-115708585D01*
X106444577Y-115649000D01*
X107055423Y-115649000D01*
X107354975Y-115708585D01*
G37*
G36*
X142257430Y-101198978D02*
G01*
X142508684Y-101248955D01*
X142704752Y-101330169D01*
X142982034Y-101445023D01*
X142982035Y-101445024D01*
X143408041Y-101729671D01*
X143770329Y-102091959D01*
X143960524Y-102376607D01*
X144054977Y-102517966D01*
X144251045Y-102991317D01*
X144351000Y-103493823D01*
X144351000Y-104006177D01*
X144251045Y-104508683D01*
X144054977Y-104982034D01*
X144054976Y-104982035D01*
X143770329Y-105408041D01*
X143408041Y-105770329D01*
X143123393Y-105960524D01*
X142982034Y-106054977D01*
X142704752Y-106169831D01*
X142508684Y-106251045D01*
X142257430Y-106301023D01*
X142006177Y-106351000D01*
X141493823Y-106351000D01*
X141242570Y-106301023D01*
X140991316Y-106251045D01*
X140795248Y-106169831D01*
X140517966Y-106054977D01*
X140376607Y-105960524D01*
X140091959Y-105770329D01*
X139729671Y-105408041D01*
X139445024Y-104982035D01*
X139445023Y-104982034D01*
X139248955Y-104508683D01*
X139149000Y-104006177D01*
X139149000Y-103493823D01*
X139248955Y-102991317D01*
X139445023Y-102517966D01*
X139539476Y-102376607D01*
X139729671Y-102091959D01*
X140091959Y-101729671D01*
X140517965Y-101445024D01*
X140517966Y-101445023D01*
X140795248Y-101330169D01*
X140991316Y-101248955D01*
X141242570Y-101198978D01*
X141493823Y-101149000D01*
X142006177Y-101149000D01*
X142257430Y-101198978D01*
G37*
G36*
X132257430Y-101198978D02*
G01*
X132508684Y-101248955D01*
X132704752Y-101330169D01*
X132982034Y-101445023D01*
X132982035Y-101445024D01*
X133408041Y-101729671D01*
X133770329Y-102091959D01*
X133960524Y-102376607D01*
X134054977Y-102517966D01*
X134251045Y-102991317D01*
X134351000Y-103493823D01*
X134351000Y-104006177D01*
X134251045Y-104508683D01*
X134054977Y-104982034D01*
X134054976Y-104982035D01*
X133770329Y-105408041D01*
X133408041Y-105770329D01*
X133123393Y-105960524D01*
X132982034Y-106054977D01*
X132704752Y-106169831D01*
X132508684Y-106251045D01*
X132257430Y-106301023D01*
X132006177Y-106351000D01*
X131493823Y-106351000D01*
X131242570Y-106301023D01*
X130991316Y-106251045D01*
X130795248Y-106169831D01*
X130517966Y-106054977D01*
X130376607Y-105960524D01*
X130091959Y-105770329D01*
X129729671Y-105408041D01*
X129445024Y-104982035D01*
X129445023Y-104982034D01*
X129248955Y-104508683D01*
X129149000Y-104006177D01*
X129149000Y-103493823D01*
X129248955Y-102991317D01*
X129445023Y-102517966D01*
X129539476Y-102376607D01*
X129729671Y-102091959D01*
X130091959Y-101729671D01*
X130517965Y-101445024D01*
X130517966Y-101445023D01*
X130795248Y-101330169D01*
X130991316Y-101248955D01*
X131242570Y-101198978D01*
X131493823Y-101149000D01*
X132006177Y-101149000D01*
X132257430Y-101198978D01*
G37*
G36*
X113384239Y-95561467D02*
G01*
X113698282Y-95623934D01*
X114289926Y-95869001D01*
X114822392Y-96224784D01*
X115275216Y-96677608D01*
X115630999Y-97210074D01*
X115876066Y-97801718D01*
X116001000Y-98429804D01*
X116001000Y-99070196D01*
X115876066Y-99698282D01*
X115630999Y-100289926D01*
X115275216Y-100822392D01*
X114822392Y-101275216D01*
X114289926Y-101630999D01*
X113698282Y-101876066D01*
X113384239Y-101938533D01*
X113070197Y-102001000D01*
X112429803Y-102001000D01*
X112115761Y-101938533D01*
X111801718Y-101876066D01*
X111210074Y-101630999D01*
X110677608Y-101275216D01*
X110224784Y-100822392D01*
X109869001Y-100289926D01*
X109623934Y-99698282D01*
X109499000Y-99070196D01*
X109499000Y-98429804D01*
X109623934Y-97801718D01*
X109869001Y-97210074D01*
X110224784Y-96677608D01*
X110677608Y-96224784D01*
X111210074Y-95869001D01*
X111801718Y-95623934D01*
X112115761Y-95561467D01*
X112429803Y-95499000D01*
X113070197Y-95499000D01*
X113384239Y-95561467D01*
G37*
G36*
X142257430Y-91198977D02*
G01*
X142508684Y-91248955D01*
X142704752Y-91330169D01*
X142982034Y-91445023D01*
X142982035Y-91445024D01*
X143408041Y-91729671D01*
X143770329Y-92091959D01*
X143960524Y-92376607D01*
X144054977Y-92517966D01*
X144251045Y-92991317D01*
X144351000Y-93493823D01*
X144351000Y-94006177D01*
X144251045Y-94508683D01*
X144054977Y-94982034D01*
X144054976Y-94982035D01*
X143770329Y-95408041D01*
X143408041Y-95770329D01*
X143260367Y-95869001D01*
X142982034Y-96054977D01*
X142704752Y-96169831D01*
X142508684Y-96251045D01*
X142257430Y-96301022D01*
X142006177Y-96351000D01*
X141493823Y-96351000D01*
X141242570Y-96301022D01*
X140991316Y-96251045D01*
X140795248Y-96169831D01*
X140517966Y-96054977D01*
X140239633Y-95869001D01*
X140091959Y-95770329D01*
X139729671Y-95408041D01*
X139445024Y-94982035D01*
X139445023Y-94982034D01*
X139248955Y-94508683D01*
X139149000Y-94006177D01*
X139149000Y-93493823D01*
X139248955Y-92991317D01*
X139445023Y-92517966D01*
X139539476Y-92376607D01*
X139729671Y-92091959D01*
X140091959Y-91729671D01*
X140517965Y-91445024D01*
X140517966Y-91445023D01*
X140795248Y-91330169D01*
X140991316Y-91248955D01*
X141242570Y-91198977D01*
X141493823Y-91149000D01*
X142006177Y-91149000D01*
X142257430Y-91198977D01*
G37*
G36*
X132257430Y-91198977D02*
G01*
X132508684Y-91248955D01*
X132704752Y-91330169D01*
X132982034Y-91445023D01*
X132982035Y-91445024D01*
X133408041Y-91729671D01*
X133770329Y-92091959D01*
X133960524Y-92376607D01*
X134054977Y-92517966D01*
X134251045Y-92991317D01*
X134351000Y-93493823D01*
X134351000Y-94006177D01*
X134251045Y-94508683D01*
X134054977Y-94982034D01*
X134054976Y-94982035D01*
X133770329Y-95408041D01*
X133408041Y-95770329D01*
X133260367Y-95869001D01*
X132982034Y-96054977D01*
X132704752Y-96169831D01*
X132508684Y-96251045D01*
X132257430Y-96301022D01*
X132006177Y-96351000D01*
X131493823Y-96351000D01*
X131242570Y-96301022D01*
X130991316Y-96251045D01*
X130795248Y-96169831D01*
X130517966Y-96054977D01*
X130239633Y-95869001D01*
X130091959Y-95770329D01*
X129729671Y-95408041D01*
X129445024Y-94982035D01*
X129445023Y-94982034D01*
X129248955Y-94508683D01*
X129149000Y-94006177D01*
X129149000Y-93493823D01*
X129248955Y-92991317D01*
X129445023Y-92517966D01*
X129539476Y-92376607D01*
X129729671Y-92091959D01*
X130091959Y-91729671D01*
X130517965Y-91445024D01*
X130517966Y-91445023D01*
X130795248Y-91330169D01*
X130991316Y-91248955D01*
X131242570Y-91198977D01*
X131493823Y-91149000D01*
X132006177Y-91149000D01*
X132257430Y-91198977D01*
G37*
M02*
