G04 #@! TF.GenerationSoftware,KiCad,Pcbnew,(5.1.5-0)*
G04 #@! TF.CreationDate,2021-01-20T00:49:02-08:00*
G04 #@! TF.ProjectId,bong0,626f6e67-302e-46b6-9963-61645f706362,rev?*
G04 #@! TF.SameCoordinates,Original*
G04 #@! TF.FileFunction,Soldermask,Top*
G04 #@! TF.FilePolarity,Negative*
%FSLAX46Y46*%
G04 Gerber Fmt 4.6, Leading zero omitted, Abs format (unit mm)*
G04 Created by KiCad (PCBNEW (5.1.5-0)) date 2021-01-20 00:49:02*
%MOMM*%
%LPD*%
G04 APERTURE LIST*
%ADD10C,2.000000*%
%ADD11C,0.100000*%
%ADD12C,0.000002*%
%ADD13C,0.001000*%
G04 APERTURE END LIST*
D10*
X10350000Y-23000000D02*
G75*
G02X10350000Y-38000000I0J-7500000D01*
G01*
X9600000Y-38000000D02*
G75*
G02X9600000Y-23000000I0J7500000D01*
G01*
D11*
G36*
X10910400Y-117997650D02*
G01*
X11462850Y-118277050D01*
X11789875Y-118604075D01*
X11924813Y-118834263D01*
X12156588Y-119104138D01*
X11850200Y-119020000D01*
X11596200Y-118943800D01*
X11418400Y-118880300D01*
X11043750Y-118746950D01*
X10684975Y-118553275D01*
X10424625Y-118267525D01*
X10300800Y-118105600D01*
X10364300Y-118143700D01*
X10338900Y-118080200D01*
X10402400Y-117908750D01*
X10910400Y-117997650D01*
G37*
X10910400Y-117997650D02*
X11462850Y-118277050D01*
X11789875Y-118604075D01*
X11924813Y-118834263D01*
X12156588Y-119104138D01*
X11850200Y-119020000D01*
X11596200Y-118943800D01*
X11418400Y-118880300D01*
X11043750Y-118746950D01*
X10684975Y-118553275D01*
X10424625Y-118267525D01*
X10300800Y-118105600D01*
X10364300Y-118143700D01*
X10338900Y-118080200D01*
X10402400Y-117908750D01*
X10910400Y-117997650D01*
G36*
X10116650Y-118016700D02*
G01*
X9748350Y-118448500D01*
X9310200Y-118721550D01*
X8929200Y-118861250D01*
X8179900Y-119026350D01*
X8662500Y-118499300D01*
X9056200Y-118232600D01*
X9424500Y-118029400D01*
X9894400Y-117953200D01*
X9919800Y-117953200D01*
X10116650Y-118016700D01*
G37*
X10116650Y-118016700D02*
X9748350Y-118448500D01*
X9310200Y-118721550D01*
X8929200Y-118861250D01*
X8179900Y-119026350D01*
X8662500Y-118499300D01*
X9056200Y-118232600D01*
X9424500Y-118029400D01*
X9894400Y-117953200D01*
X9919800Y-117953200D01*
X10116650Y-118016700D01*
G36*
X13323400Y-116988000D02*
G01*
X13755200Y-117013400D01*
X14333207Y-117023943D01*
X13653600Y-117178500D01*
X13221800Y-117369000D01*
X12878900Y-117584900D01*
X12459800Y-117750000D01*
X11926400Y-117838900D01*
X11481900Y-117864300D01*
X10904050Y-117845250D01*
X10326200Y-117826200D01*
X10262700Y-117750000D01*
X10478600Y-117686500D01*
X10485585Y-117635700D01*
X10801815Y-117508700D01*
X11335850Y-117280100D01*
X11888300Y-117076900D01*
X12282000Y-116962600D01*
X12726500Y-116962600D01*
X13323400Y-116988000D01*
G37*
X13323400Y-116988000D02*
X13755200Y-117013400D01*
X14333207Y-117023943D01*
X13653600Y-117178500D01*
X13221800Y-117369000D01*
X12878900Y-117584900D01*
X12459800Y-117750000D01*
X11926400Y-117838900D01*
X11481900Y-117864300D01*
X10904050Y-117845250D01*
X10326200Y-117826200D01*
X10262700Y-117750000D01*
X10478600Y-117686500D01*
X10485585Y-117635700D01*
X10801815Y-117508700D01*
X11335850Y-117280100D01*
X11888300Y-117076900D01*
X12282000Y-116962600D01*
X12726500Y-116962600D01*
X13323400Y-116988000D01*
G36*
X13310700Y-114333700D02*
G01*
X13069400Y-114829000D01*
X12866200Y-115286200D01*
X12605850Y-115806900D01*
X12332800Y-116162500D01*
X12021650Y-116575250D01*
X11551750Y-116968950D01*
X11050100Y-117305500D01*
X9945200Y-117902400D01*
X9970600Y-117572200D01*
X10275400Y-117521400D01*
X10523050Y-117083250D01*
X10738950Y-116619700D01*
X10904050Y-116289500D01*
X11088200Y-115997400D01*
X11253300Y-115679900D01*
X11532700Y-115324300D01*
X11812100Y-115006800D01*
X12142300Y-114714700D01*
X12485200Y-114486100D01*
X12866200Y-114232100D01*
X13259900Y-113965400D01*
X13793300Y-113571700D01*
X13310700Y-114333700D01*
G37*
X13310700Y-114333700D02*
X13069400Y-114829000D01*
X12866200Y-115286200D01*
X12605850Y-115806900D01*
X12332800Y-116162500D01*
X12021650Y-116575250D01*
X11551750Y-116968950D01*
X11050100Y-117305500D01*
X9945200Y-117902400D01*
X9970600Y-117572200D01*
X10275400Y-117521400D01*
X10523050Y-117083250D01*
X10738950Y-116619700D01*
X10904050Y-116289500D01*
X11088200Y-115997400D01*
X11253300Y-115679900D01*
X11532700Y-115324300D01*
X11812100Y-115006800D01*
X12142300Y-114714700D01*
X12485200Y-114486100D01*
X12866200Y-114232100D01*
X13259900Y-113965400D01*
X13793300Y-113571700D01*
X13310700Y-114333700D01*
G36*
X10465900Y-112200100D02*
G01*
X10567500Y-112682700D01*
X10681800Y-113139900D01*
X10764350Y-113470100D01*
X10827850Y-113851100D01*
X10872300Y-114371800D01*
X10872300Y-114905200D01*
X10821500Y-115489400D01*
X10758000Y-116010100D01*
X10615125Y-116505400D01*
X10316675Y-117521400D01*
X10103950Y-117470600D01*
X9869000Y-116556200D01*
X9695962Y-115692600D01*
X9711837Y-114905200D01*
X9764225Y-114244800D01*
X9926150Y-113470100D01*
X10161100Y-112657300D01*
X10288100Y-111882600D01*
X10351600Y-111361900D01*
X10465900Y-112200100D01*
G37*
X10465900Y-112200100D02*
X10567500Y-112682700D01*
X10681800Y-113139900D01*
X10764350Y-113470100D01*
X10827850Y-113851100D01*
X10872300Y-114371800D01*
X10872300Y-114905200D01*
X10821500Y-115489400D01*
X10758000Y-116010100D01*
X10615125Y-116505400D01*
X10316675Y-117521400D01*
X10103950Y-117470600D01*
X9869000Y-116556200D01*
X9695962Y-115692600D01*
X9711837Y-114905200D01*
X9764225Y-114244800D01*
X9926150Y-113470100D01*
X10161100Y-112657300D01*
X10288100Y-111882600D01*
X10351600Y-111361900D01*
X10465900Y-112200100D01*
G36*
X6846400Y-113774900D02*
G01*
X7163900Y-114016200D01*
X7729050Y-114333700D01*
X8325950Y-114765500D01*
X8700600Y-115146500D01*
X9100650Y-115711650D01*
X9697550Y-116892750D01*
X9996000Y-117457900D01*
X10008700Y-117470600D01*
X9678500Y-117496000D01*
X9576900Y-117445200D01*
X9221300Y-117197550D01*
X8814900Y-116829250D01*
X8484700Y-116480000D01*
X8129100Y-116048200D01*
X7849700Y-115629100D01*
X7659200Y-115375100D01*
X7405200Y-114917900D01*
X7151200Y-114549600D01*
X6909900Y-114130500D01*
X6630500Y-113571700D01*
X6846400Y-113774900D01*
G37*
X6846400Y-113774900D02*
X7163900Y-114016200D01*
X7729050Y-114333700D01*
X8325950Y-114765500D01*
X8700600Y-115146500D01*
X9100650Y-115711650D01*
X9697550Y-116892750D01*
X9996000Y-117457900D01*
X10008700Y-117470600D01*
X9678500Y-117496000D01*
X9576900Y-117445200D01*
X9221300Y-117197550D01*
X8814900Y-116829250D01*
X8484700Y-116480000D01*
X8129100Y-116048200D01*
X7849700Y-115629100D01*
X7659200Y-115375100D01*
X7405200Y-114917900D01*
X7151200Y-114549600D01*
X6909900Y-114130500D01*
X6630500Y-113571700D01*
X6846400Y-113774900D01*
G36*
X8252925Y-116953075D02*
G01*
X8589475Y-117048325D01*
X8853000Y-117140400D01*
X9551500Y-117546800D01*
X9581980Y-117574740D01*
X9589600Y-117559500D01*
X9589600Y-117572200D01*
X9581980Y-117574740D01*
X9500700Y-117737300D01*
X9894400Y-117877000D01*
X9684850Y-117902400D01*
X9291150Y-117927800D01*
X8814900Y-117927800D01*
X8370400Y-117864300D01*
X7887800Y-117750000D01*
X7494100Y-117635700D01*
X7087700Y-117407100D01*
X6770200Y-117178500D01*
X6363800Y-117051500D01*
X7011500Y-117000700D01*
X7544900Y-116962600D01*
X8008450Y-116956250D01*
X8252925Y-116953075D01*
G37*
X8252925Y-116953075D02*
X8589475Y-117048325D01*
X8853000Y-117140400D01*
X9551500Y-117546800D01*
X9581980Y-117574740D01*
X9589600Y-117559500D01*
X9589600Y-117572200D01*
X9581980Y-117574740D01*
X9500700Y-117737300D01*
X9894400Y-117877000D01*
X9684850Y-117902400D01*
X9291150Y-117927800D01*
X8814900Y-117927800D01*
X8370400Y-117864300D01*
X7887800Y-117750000D01*
X7494100Y-117635700D01*
X7087700Y-117407100D01*
X6770200Y-117178500D01*
X6363800Y-117051500D01*
X7011500Y-117000700D01*
X7544900Y-116962600D01*
X8008450Y-116956250D01*
X8252925Y-116953075D01*
G36*
X10250000Y-117534100D02*
G01*
X10038862Y-117727775D01*
X10257937Y-117823025D01*
X11008825Y-118365950D01*
X10827850Y-118461200D01*
X10250000Y-118004000D01*
X10262700Y-119096200D01*
X10148400Y-118956500D01*
X10142050Y-118067500D01*
X10186500Y-118067500D01*
X9805500Y-117851600D01*
X9519750Y-117699200D01*
X9684850Y-117419800D01*
X10250000Y-117534100D01*
G37*
X10250000Y-117534100D02*
X10038862Y-117727775D01*
X10257937Y-117823025D01*
X11008825Y-118365950D01*
X10827850Y-118461200D01*
X10250000Y-118004000D01*
X10262700Y-119096200D01*
X10148400Y-118956500D01*
X10142050Y-118067500D01*
X10186500Y-118067500D01*
X9805500Y-117851600D01*
X9519750Y-117699200D01*
X9684850Y-117419800D01*
X10250000Y-117534100D01*
D12*
X9729586Y-115846968D02*
X9736414Y-115913404D01*
X6310628Y-117035206D02*
G75*
G02X6312745Y-117030474I8833J-1112D01*
G01*
X6312745Y-117030475D02*
G75*
G02X6317170Y-117027659I6961J-6056D01*
G01*
X6317171Y-117027659D02*
G75*
G02X6326272Y-117025641I21302J-74534D01*
G01*
X6369176Y-117019928D02*
X6326272Y-117025641D01*
X6425382Y-117014579D02*
X6369176Y-117019928D01*
X6499523Y-117009059D02*
X6425382Y-117014579D01*
X6600810Y-117002773D02*
X6499523Y-117009059D01*
X6714250Y-116995535D02*
X6600810Y-117002773D01*
X6805159Y-116988329D02*
X6714250Y-116995535D01*
X6885946Y-116980142D02*
X6805159Y-116988329D01*
X6967522Y-116969967D02*
X6885946Y-116980142D01*
X7045588Y-116960763D02*
X6967522Y-116969967D01*
X7144548Y-116951810D02*
X7045588Y-116960763D01*
X7252731Y-116943949D02*
X7144548Y-116951810D01*
X7360022Y-116938039D02*
X7252731Y-116943949D01*
X7408893Y-116935783D02*
X7360022Y-116938039D01*
X7478084Y-116932592D02*
X7408893Y-116935783D01*
X7553746Y-116929104D02*
X7478084Y-116932592D01*
X7625022Y-116925821D02*
X7553746Y-116929104D01*
X7792892Y-116918843D02*
X7625022Y-116925821D01*
X7967753Y-116913052D02*
X7792892Y-116918843D01*
X8141324Y-116908069D02*
X7967753Y-116913052D01*
X8141324Y-116908069D02*
G75*
G02X8150393Y-116910507I462J-16364D01*
G01*
X8153889Y-116911762D02*
G75*
G02X8150393Y-116910507I1209J8867D01*
G01*
X8169388Y-116913775D02*
X8153889Y-116911762D01*
X8187771Y-116915819D02*
X8169388Y-116913775D01*
X8208715Y-116917713D02*
X8187771Y-116915819D01*
X9720054Y-115737481D02*
X9722649Y-115767124D01*
X10862378Y-117897086D02*
X10907522Y-117900622D01*
X10813537Y-117893388D02*
X10862378Y-117897086D01*
X10768194Y-117890058D02*
X10813537Y-117893388D01*
X10735022Y-117887755D02*
X10768194Y-117890058D01*
X10703615Y-117885486D02*
X10735022Y-117887755D01*
X10664584Y-117882326D02*
X10703615Y-117885486D01*
X10624606Y-117878849D02*
X10664584Y-117882326D01*
X10590022Y-117875579D02*
X10624606Y-117878849D01*
X10528512Y-117870402D02*
X10590022Y-117875579D01*
X10476901Y-117868134D02*
X10528512Y-117870402D01*
X9081364Y-115630665D02*
X8952584Y-115423051D01*
X9210123Y-115860277D02*
X9081364Y-115630665D01*
X10513811Y-117894985D02*
X10475611Y-117887712D01*
X10551820Y-117901668D02*
X10513811Y-117894985D01*
X10577522Y-117905429D02*
X10551820Y-117901668D01*
X10577522Y-117905429D02*
G75*
G02X10665850Y-117921576I-96572J-777952D01*
G01*
X10792223Y-117954860D02*
X10665850Y-117921576D01*
X10931550Y-117997366D02*
X10792223Y-117954860D01*
X11065022Y-118044009D02*
X10931550Y-117997366D01*
X11108649Y-118061046D02*
X11065022Y-118044009D01*
X11154637Y-118080487D02*
X11108649Y-118061046D01*
X11202079Y-118101930D02*
X11154637Y-118080487D01*
X11250085Y-118124987D02*
X11202079Y-118101930D01*
X11250085Y-118124988D02*
G75*
G02X11402408Y-118212179I-639105J-1293158D01*
G01*
X9850081Y-116597260D02*
X9852098Y-116607528D01*
X12870021Y-115265299D02*
G75*
G02X12869743Y-115266562I-3003J0D01*
G01*
X12861209Y-115284952D02*
X12869743Y-115266562D01*
X12851523Y-115305632D02*
X12861209Y-115284952D01*
X12840022Y-115329870D02*
X12851523Y-115305632D01*
X12828521Y-115354146D02*
X12840022Y-115329870D01*
X12818834Y-115374951D02*
X12828521Y-115354146D01*
X12810385Y-115393329D02*
X12818834Y-115374951D01*
X12810021Y-115394995D02*
G75*
G02X12810385Y-115393329I3995J0D01*
G01*
X12810021Y-115394995D02*
G75*
G02X12809292Y-115398297I-7840J0D01*
G01*
X12770677Y-115481421D02*
X12809292Y-115398297D01*
X12727758Y-115573339D02*
X12770677Y-115481421D01*
X12677442Y-115680277D02*
X12727758Y-115573339D01*
X12654537Y-115728174D02*
X12677442Y-115680277D01*
X12626801Y-115784980D02*
X12654537Y-115728174D01*
X12597730Y-115843998D02*
X12626801Y-115784980D01*
X12597731Y-115843997D02*
G75*
G02X12595022Y-115847777I-12801J6311D01*
G01*
X12593589Y-115849614D02*
G75*
G02X12595022Y-115847777I8150J-4881D01*
G01*
X12590177Y-115855418D02*
X12593588Y-115849615D01*
X12586238Y-115862435D02*
X12590177Y-115855418D01*
X12582041Y-115870277D02*
X12586238Y-115862435D01*
X12573008Y-115887116D02*
X12582041Y-115870277D01*
X12562309Y-115906309D02*
X12573008Y-115887116D01*
X12551117Y-115925799D02*
X12562309Y-115906309D01*
X12540563Y-115943576D02*
X12551117Y-115925799D01*
X12536359Y-115950601D02*
X12540563Y-115943576D01*
X12529895Y-115961546D02*
X12536359Y-115950601D01*
X12522630Y-115973921D02*
X12529895Y-115961546D01*
X12515538Y-115986076D02*
X12522630Y-115973921D01*
X12515539Y-115986076D02*
G75*
G02X12426513Y-116124537I-1594117J927112D01*
G01*
X12310765Y-116278716D02*
X12426513Y-116124537D01*
X12179379Y-116435115D02*
X12310765Y-116278716D01*
X12042561Y-116580767D02*
X12179379Y-116435115D01*
X12042561Y-116580767D02*
G75*
G02X11762462Y-116838051I-2992746J2977019D01*
G01*
X11452444Y-117076945D02*
X11762462Y-116838051D01*
X11096530Y-117308868D02*
X11452444Y-117076945D01*
X10677522Y-117545384D02*
X11096530Y-117308868D01*
X10657210Y-117556206D02*
X10677522Y-117545384D01*
X10633256Y-117569049D02*
X10657210Y-117556206D01*
X10609541Y-117581825D02*
X10633256Y-117569049D01*
X10590022Y-117592411D02*
X10609541Y-117581825D01*
X10572766Y-117601769D02*
X10590022Y-117592411D01*
X10556062Y-117610749D02*
X10572766Y-117601769D01*
X10541782Y-117618359D02*
X10556062Y-117610749D01*
X10534097Y-117622337D02*
X10541782Y-117618359D01*
X10517847Y-117632144D02*
G75*
G02X10534097Y-117622337I73169J-102870D01*
G01*
X10501467Y-117645234D02*
G75*
G02X10517847Y-117632145I125077J-139731D01*
G01*
X10488112Y-117658375D02*
G75*
G02X10501467Y-117645234I145858J-134885D01*
G01*
X10485021Y-117666267D02*
G75*
G02X10488111Y-117658375I11624J0D01*
G01*
X10485871Y-117669781D02*
G75*
G02X10485022Y-117666267I6849J3514D01*
G01*
X10488155Y-117671737D02*
G75*
G02X10485870Y-117669780I1247J3768D01*
G01*
X10492397Y-117672198D02*
G75*
G02X10488155Y-117671737I-1044J10127D01*
G01*
X10499641Y-117671103D02*
G75*
G02X10492398Y-117672199I-15184J75919D01*
G01*
X10518149Y-117665366D02*
G75*
G02X10499641Y-117671104I-36945J86448D01*
G01*
X10578992Y-117639023D02*
X10518149Y-117665366D01*
X10646972Y-117608528D02*
X10578992Y-117639023D01*
X10715022Y-117576643D02*
X10646972Y-117608528D01*
X10738044Y-117565656D02*
X10715022Y-117576643D01*
X10763850Y-117553400D02*
X10738044Y-117565656D01*
X10788478Y-117541750D02*
X10763850Y-117553400D01*
X10807522Y-117532798D02*
X10788478Y-117541750D01*
X10827497Y-117523393D02*
X10807522Y-117532798D01*
X10855600Y-117510054D02*
X10827497Y-117523393D01*
X10886247Y-117495444D02*
X10855600Y-117510054D01*
X10915022Y-117481661D02*
X10886247Y-117495444D01*
X10969936Y-117455361D02*
X10915022Y-117481661D01*
X11011702Y-117435535D02*
X10969936Y-117455361D01*
X11046707Y-117419148D02*
X11011702Y-117435535D01*
X11080022Y-117403816D02*
X11046707Y-117419148D01*
X11115354Y-117387574D02*
X11080022Y-117403816D01*
X11181774Y-117356749D02*
X11115354Y-117387574D01*
X11249694Y-117325132D02*
X11181774Y-117356749D01*
X11297522Y-117302733D02*
X11249694Y-117325132D01*
X11444502Y-117234657D02*
X11297522Y-117302733D01*
X11595333Y-117166903D02*
X11444502Y-117234657D01*
X11733653Y-117106658D02*
X11595333Y-117166903D01*
X11840022Y-117062680D02*
X11733653Y-117106658D01*
X11893337Y-117041611D02*
X11840022Y-117062680D01*
X11928135Y-117028359D02*
X11893337Y-117041611D01*
X11957932Y-117017769D02*
X11928135Y-117028359D01*
X11992522Y-117006289D02*
X11957932Y-117017769D01*
X12051620Y-116988467D02*
X11992522Y-117006289D01*
X12113071Y-116972384D02*
X12051620Y-116988467D01*
X12174574Y-116958597D02*
X12113071Y-116972384D01*
X12233822Y-116947669D02*
X12174574Y-116958597D01*
X12275789Y-116941782D02*
X12233822Y-116947669D01*
X12311324Y-116938975D02*
X12275789Y-116941782D01*
X12355896Y-116938261D02*
X12311324Y-116938975D01*
X12436322Y-116939370D02*
X12355896Y-116938261D01*
X12493234Y-116940735D02*
X12436322Y-116939370D01*
X12551607Y-116942737D02*
X12493234Y-116940735D01*
X12603546Y-116945032D02*
X12551607Y-116942737D01*
X12637522Y-116947267D02*
X12603546Y-116945032D01*
X12668287Y-116949702D02*
X12637522Y-116947267D01*
X12707662Y-116952627D02*
X12668287Y-116949702D01*
X12748691Y-116955545D02*
X12707662Y-116952627D01*
X12785022Y-116957990D02*
X12748691Y-116955545D01*
X12822057Y-116960418D02*
X12785022Y-116957990D01*
X12865318Y-116963293D02*
X12822057Y-116960418D01*
X12907867Y-116966150D02*
X12865318Y-116963293D01*
X12942522Y-116968510D02*
X12907867Y-116966150D01*
X12995145Y-116970680D02*
X12942522Y-116968510D01*
X13187897Y-116973130D02*
X12995145Y-116970680D01*
X13416132Y-116975346D02*
X13187897Y-116973130D01*
X13672522Y-116976997D02*
X13416132Y-116975346D01*
X14010194Y-116978974D02*
X13672522Y-116976997D01*
X14196598Y-116980953D02*
X14010194Y-116978974D01*
X14325267Y-116983028D02*
X14196598Y-116980953D01*
X14325267Y-116983028D02*
G75*
G02X14338772Y-116986729I-500J-28318D01*
G01*
X14338772Y-116986728D02*
G75*
G02X14347766Y-116995160I-13045J-22929D01*
G01*
X14347766Y-116995160D02*
G75*
G02X14350023Y-117005412I-12281J-8079D01*
G01*
X14350023Y-117005413D02*
G75*
G02X14344871Y-117015674I-18220J2725D01*
G01*
X14344870Y-117015673D02*
G75*
G02X14333207Y-117023943I-29662J29474D01*
G01*
X14333208Y-117023944D02*
G75*
G02X14315174Y-117031131I-63623J133418D01*
G01*
X14250776Y-117051805D02*
X14315174Y-117031131D01*
X14188093Y-117071392D02*
X14250776Y-117051805D01*
X14152522Y-117081377D02*
X14188093Y-117071392D01*
X14023171Y-117118169D02*
X14152522Y-117081377D01*
X13848786Y-117175203D02*
X14023171Y-117118169D01*
X13669767Y-117238251D02*
X13848786Y-117175203D01*
X13522522Y-117295274D02*
X13669767Y-117238251D01*
X13399199Y-117348078D02*
X13522522Y-117295274D01*
X13253927Y-117414591D02*
X13399199Y-117348078D01*
X13112600Y-117482490D02*
X13253927Y-117414591D01*
X13002522Y-117539199D02*
X13112600Y-117482490D01*
X12868504Y-117610433D02*
X13002522Y-117539199D01*
X12783440Y-117652696D02*
X12868504Y-117610433D01*
X12708987Y-117685131D02*
X12783440Y-117652696D01*
X12617522Y-117720178D02*
X12708987Y-117685131D01*
X12542423Y-117747307D02*
X12617522Y-117720178D01*
X12502851Y-117760723D02*
X12542423Y-117747307D01*
X12463400Y-117772598D02*
X12502851Y-117760723D01*
X12390022Y-117793034D02*
X12463400Y-117772598D01*
X12270804Y-117822545D02*
X12390022Y-117793034D01*
X12133620Y-117850279D02*
X12270804Y-117822545D01*
X11995884Y-117873156D02*
X12133620Y-117850279D01*
X11875022Y-117887838D02*
X11995884Y-117873156D01*
X11851013Y-117890138D02*
X11875022Y-117887838D01*
X11816506Y-117893487D02*
X11851013Y-117890138D01*
X11778547Y-117897195D02*
X11816506Y-117893487D01*
X11742522Y-117900739D02*
X11778547Y-117897195D01*
X11608935Y-117908145D02*
X11742522Y-117900739D01*
X11336190Y-117909806D02*
X11608935Y-117908145D01*
X11063070Y-117907895D02*
X11336190Y-117909806D01*
X10907522Y-117900622D02*
X11063070Y-117907895D01*
X10434700Y-117867876D02*
X10476901Y-117868134D01*
X10430021Y-117872584D02*
G75*
G02X10434700Y-117867876I4709J-1D01*
G01*
X10431145Y-117874719D02*
G75*
G02X10430022Y-117872585I1466J2134D01*
G01*
X10435529Y-117877293D02*
G75*
G02X10431144Y-117874719I15819J31971D01*
G01*
X9360636Y-116138155D02*
X9344341Y-116108062D01*
X9371221Y-116157777D02*
X9360636Y-116138155D01*
X10761249Y-116533226D02*
X10714982Y-116630277D01*
X10846807Y-116362328D02*
X10761249Y-116533226D01*
X10933548Y-116191636D02*
X10846807Y-116362328D01*
X10974269Y-116116527D02*
X10933548Y-116191636D01*
X10988678Y-116091366D02*
X10974269Y-116116527D01*
X10999929Y-116071636D02*
X10988678Y-116091366D01*
X11009609Y-116054555D02*
X10999929Y-116071636D01*
X11019048Y-116037777D02*
X11009609Y-116054555D01*
X11025983Y-116025624D02*
X11019048Y-116037777D01*
X11037590Y-116005731D02*
X11025983Y-116025624D01*
X11050976Y-115982985D02*
X11037590Y-116005731D01*
X11064458Y-115960277D02*
X11050976Y-115982985D01*
X11077575Y-115938268D02*
X11064458Y-115960277D01*
X11089864Y-115917624D02*
X11077575Y-115938268D01*
X11100197Y-115900243D02*
X11089864Y-115917624D01*
X11104889Y-115892307D02*
X11100197Y-115900243D01*
X11149259Y-115820233D02*
X11104889Y-115892307D01*
X11212393Y-115723837D02*
X11149259Y-115820233D01*
X11279939Y-115624271D02*
X11212393Y-115723837D01*
X11339543Y-115540277D02*
X11279939Y-115624271D01*
X11396819Y-115463641D02*
X11339543Y-115540277D01*
X11467177Y-115373061D02*
X11396819Y-115463641D01*
X11534639Y-115288542D02*
X11467177Y-115373061D01*
X11577847Y-115237777D02*
X11534639Y-115288542D01*
X12885064Y-115231889D02*
X12894416Y-115211958D01*
X12877187Y-115248945D02*
X12885064Y-115231889D01*
X12870294Y-115264044D02*
X12877187Y-115248945D01*
X12870022Y-115265299D02*
G75*
G02X12870294Y-115264044I3026J0D01*
G01*
X9325985Y-116074222D02*
X9308037Y-116041194D01*
X9344341Y-116108062D02*
X9325985Y-116074222D01*
X12162904Y-119132618D02*
G75*
G02X12162962Y-119140934I-10582J-4233D01*
G01*
X12162961Y-119140934D02*
G75*
G02X12160571Y-119143771I-5287J2029D01*
G01*
X12160571Y-119143771D02*
G75*
G02X12155675Y-119145933I-11328J19028D01*
G01*
X12155675Y-119145934D02*
G75*
G02X12148837Y-119147326I-10822J35655D01*
G01*
X12148838Y-119147325D02*
G75*
G02X12140414Y-119147777I-8424J78322D01*
G01*
X10643609Y-116791378D02*
X10635721Y-116810277D01*
X10670843Y-116729384D02*
X10643609Y-116791378D01*
X10697720Y-116668594D02*
X10670843Y-116729384D01*
X10714982Y-116630277D02*
X10697720Y-116668594D01*
X12140414Y-119147778D02*
G75*
G02X12125921Y-119146825I0J110737D01*
G01*
X12125921Y-119146825D02*
G75*
G02X12113016Y-119143965I9971J75534D01*
G01*
X12113016Y-119143965D02*
G75*
G02X12096281Y-119137761I53575J170197D01*
G01*
X12065022Y-119124046D02*
X12096281Y-119137761D01*
X12001838Y-119097762D02*
X12065022Y-119124046D01*
X11935736Y-119074319D02*
X12001838Y-119097762D01*
X11864120Y-119052862D02*
X11935736Y-119074319D01*
X11784294Y-119032548D02*
X11864120Y-119052862D01*
X11647606Y-118999292D02*
X11784294Y-119032548D01*
X9380128Y-116174323D02*
X9371221Y-116157777D01*
X9390235Y-116193074D02*
X9380128Y-116174323D01*
X10503305Y-117136243D02*
X10494490Y-117156661D01*
X10513179Y-117112378D02*
X10503305Y-117136243D01*
X10524497Y-117084151D02*
X10513179Y-117112378D01*
X10537768Y-117050277D02*
X10524497Y-117084151D01*
X10543655Y-117035324D02*
X10537768Y-117050277D01*
X10550109Y-117019333D02*
X10543655Y-117035324D01*
X10556173Y-117004627D02*
X10550109Y-117019333D01*
X11402408Y-118212178D02*
G75*
G02X11540509Y-118315987I-743206J-1132487D01*
G01*
X11540509Y-118315987D02*
G75*
G02X11658604Y-118431641I-808447J-943632D01*
G01*
X11658604Y-118431641D02*
G75*
G02X11751099Y-118554225I-691614J-618042D01*
G01*
X11843113Y-118697827D02*
X11751099Y-118554225D01*
X11908325Y-118794131D02*
X11843113Y-118697827D01*
X11969278Y-118876381D02*
X11908325Y-118794131D01*
X12044380Y-118970045D02*
X11969278Y-118876381D01*
X12087947Y-119022822D02*
X12044380Y-118970045D01*
X12101771Y-119039809D02*
X12087947Y-119022822D01*
X12112079Y-119053035D02*
X12101771Y-119039809D01*
X9884498Y-113520277D02*
X9870636Y-113570269D01*
X10560691Y-116994082D02*
X10556173Y-117004627D01*
X10564264Y-116985606D02*
X10560691Y-116994082D01*
X10567281Y-116977667D02*
X10564264Y-116985606D01*
X10569553Y-116970959D02*
X10567281Y-116977667D01*
X10570021Y-116967966D02*
G75*
G02X10569553Y-116970959I-9805J0D01*
G01*
X10570021Y-116967965D02*
G75*
G02X10570501Y-116964968I9600J-1D01*
G01*
X10572848Y-116958209D02*
X10570501Y-116964968D01*
X10575958Y-116950210D02*
X10572848Y-116958209D01*
X10579642Y-116941661D02*
X10575958Y-116950210D01*
X10593866Y-116909784D02*
X10579642Y-116941661D01*
X10602969Y-116888632D02*
X10593866Y-116909784D01*
X10609166Y-116873491D02*
X10602969Y-116888632D01*
X10610007Y-116869082D02*
G75*
G02X10609166Y-116873491I-11749J-43D01*
G01*
X10610007Y-116869082D02*
G75*
G02X10610459Y-116866632I6738J25D01*
G01*
X10613194Y-116859786D02*
X10610459Y-116866632D01*
X10616707Y-116851673D02*
X10613194Y-116859786D01*
X10620874Y-116842777D02*
X10616707Y-116851673D01*
X10625330Y-116833430D02*
X10620874Y-116842777D01*
X10629723Y-116823949D02*
X10625330Y-116833430D01*
X10633495Y-116815577D02*
X10629723Y-116823949D01*
X10635721Y-116810277D02*
X10633495Y-116815577D01*
X12127281Y-119073316D02*
X12112079Y-119053035D01*
X12143683Y-119096689D02*
X12127281Y-119073316D01*
X12143683Y-119096690D02*
G75*
G02X12155528Y-119116666I-194982J-129113D01*
G01*
X12155528Y-119116666D02*
G75*
G02X12162903Y-119132618I-148143J-78170D01*
G01*
X11587272Y-115227192D02*
X11577847Y-115237777D01*
X11607031Y-115204856D02*
X11587272Y-115227192D01*
X11630430Y-115178361D02*
X11607031Y-115204856D01*
X11655193Y-115150277D02*
X11630430Y-115178361D01*
X11763704Y-115033304D02*
X11655193Y-115150277D01*
X11896053Y-114902079D02*
X11763704Y-115033304D01*
X12027297Y-114780085D02*
X11896053Y-114902079D01*
X12130250Y-114694220D02*
X12027297Y-114780085D01*
X12217428Y-114628727D02*
X12130250Y-114694220D01*
X12296415Y-114573278D02*
X12217428Y-114628727D01*
X12398457Y-114506351D02*
X12296415Y-114573278D01*
X12577522Y-114392769D02*
X12398457Y-114506351D01*
X12639629Y-114353344D02*
X12577522Y-114392769D01*
X12706365Y-114310469D02*
X12639629Y-114353344D01*
X12767965Y-114270471D02*
X12706365Y-114310469D01*
X12812522Y-114240991D02*
X12767965Y-114270471D01*
X12947222Y-114149298D02*
X12812522Y-114240991D01*
X13070866Y-114062251D02*
X12947222Y-114149298D01*
X13218690Y-113954774D02*
X13070866Y-114062251D01*
X13440022Y-113790957D02*
X13218690Y-113954774D01*
X13483928Y-113758350D02*
X13440022Y-113790957D01*
X13526959Y-113726446D02*
X13483928Y-113758350D01*
X13564011Y-113699020D02*
X13526959Y-113726446D01*
X13585022Y-113683543D02*
X13564011Y-113699020D01*
X13601209Y-113671646D02*
X13585022Y-113683543D01*
X13618850Y-113658643D02*
X13601209Y-113671646D01*
X13635320Y-113646471D02*
X13618850Y-113658643D01*
X13647522Y-113637414D02*
X13635320Y-113646471D01*
X13687477Y-113609270D02*
X13647522Y-113637414D01*
X13742952Y-113573208D02*
X13687477Y-113609270D01*
X13799438Y-113537759D02*
X13742952Y-113573208D01*
X13799438Y-113537760D02*
G75*
G02X13814761Y-113531269I28471J-45884D01*
G01*
X13814761Y-113531268D02*
G75*
G02X13827504Y-113529947I10974J-43717D01*
G01*
X13827504Y-113529947D02*
G75*
G02X13834070Y-113534069I-305J-7776D01*
G01*
X13834070Y-113534070D02*
G75*
G02X13834527Y-113542656I-8997J-4784D01*
G01*
X13834527Y-113542655D02*
G75*
G02X13827667Y-113555539I-63438J25510D01*
G01*
X13815329Y-113572507D02*
X13827667Y-113555539D01*
X13795976Y-113596851D02*
X13815329Y-113572507D01*
X13776429Y-113620518D02*
X13795976Y-113596851D01*
X13776429Y-113620517D02*
G75*
G02X13766963Y-113630277I-72727J61071D01*
G01*
X13749895Y-113648072D02*
G75*
G02X13766963Y-113630277I123500J-101373D01*
G01*
X13695948Y-113714257D02*
X13749895Y-113648072D01*
X13641922Y-113781904D02*
X13695948Y-113714257D01*
X13601038Y-113835277D02*
X13641922Y-113781904D01*
X13524034Y-113943698D02*
X13601038Y-113835277D01*
X13463980Y-114039678D02*
X13524034Y-113943698D01*
X13398409Y-114160452D02*
X13463980Y-114039678D01*
X13295463Y-114365277D02*
X13398409Y-114160452D01*
X13262314Y-114432396D02*
X13295463Y-114365277D01*
X13232337Y-114493418D02*
X13262314Y-114432396D01*
X13207300Y-114544652D02*
X13232337Y-114493418D01*
X13198740Y-114562777D02*
X13207300Y-114544652D01*
X13183870Y-114594997D02*
X13198740Y-114562777D01*
X13148656Y-114670485D02*
X13183870Y-114594997D01*
X13113434Y-114745815D02*
X13148656Y-114670485D01*
X13092505Y-114790277D02*
X13113434Y-114745815D01*
X13086270Y-114803483D02*
X13092505Y-114790277D01*
X13076572Y-114824090D02*
X13086270Y-114803483D01*
X13065623Y-114847387D02*
X13076572Y-114824090D01*
X13054881Y-114870277D02*
X13065623Y-114847387D01*
X13002656Y-114981614D02*
X13054881Y-114870277D01*
X12955466Y-115082138D02*
X13002656Y-114981614D01*
X12916565Y-115164935D02*
X12955466Y-115082138D01*
X12894416Y-115211958D02*
X12916565Y-115164935D01*
X9706089Y-114520173D02*
X9700432Y-114597777D01*
X9741414Y-114184273D02*
X9739359Y-114201746D01*
X9749812Y-116025277D02*
X9752112Y-116041881D01*
X7470022Y-117654199D02*
X7535345Y-117681444D01*
X7422193Y-117632386D02*
X7470022Y-117654199D01*
X7346008Y-117595116D02*
X7422193Y-117632386D01*
X7263874Y-117554229D02*
X7346008Y-117595116D01*
X8208715Y-116917712D02*
G75*
G02X8287077Y-116927867I-68767J-838110D01*
G01*
X8384167Y-116947547D02*
X8287077Y-116927867D01*
X8488541Y-116973880D02*
X8384167Y-116947547D01*
X8590022Y-117004629D02*
X8488541Y-116973880D01*
X8661345Y-117028648D02*
X8590022Y-117004629D01*
X8712918Y-117047344D02*
X8661345Y-117028648D01*
X8764767Y-117068060D02*
X8712918Y-117047344D01*
X8837522Y-117098978D02*
X8764767Y-117068060D01*
X8886095Y-117121297D02*
X8837522Y-117098978D01*
X8972054Y-117163707D02*
X8886095Y-117121297D01*
X9057800Y-117207003D02*
X8972054Y-117163707D01*
X9107522Y-117233724D02*
X9057800Y-117207003D01*
X9124485Y-117243290D02*
X9107522Y-117233724D01*
X9142381Y-117253359D02*
X9124485Y-117243290D01*
X9158665Y-117262503D02*
X9142381Y-117253359D01*
X9170022Y-117268855D02*
X9158665Y-117262503D01*
X9217579Y-117296350D02*
X9170022Y-117268855D01*
X9279264Y-117333880D02*
X9217579Y-117296350D01*
X9344127Y-117374579D02*
X9279264Y-117333880D01*
X9402522Y-117412529D02*
X9344127Y-117374579D01*
X9519621Y-117489782D02*
X9402522Y-117412529D01*
X9534217Y-117492895D02*
G75*
G02X9519621Y-117489782I-3296J20324D01*
G01*
X9535880Y-117486626D02*
G75*
G02X9534217Y-117492894I-2231J-2763D01*
G01*
X9436635Y-117406997D02*
X9535879Y-117486626D01*
X9326355Y-117318615D02*
X9436635Y-117406997D01*
X9205655Y-117221064D02*
X9326355Y-117318615D01*
X9096190Y-117132022D02*
X9205655Y-117221064D01*
X9047522Y-117091366D02*
X9096190Y-117132022D01*
X8810218Y-116878564D02*
X9047522Y-117091366D01*
X8581976Y-116653889D02*
X8810218Y-116878564D01*
X8376302Y-116431368D02*
X8581976Y-116653889D01*
X8207522Y-116225413D02*
X8376302Y-116431368D01*
X8197035Y-116211730D02*
X8207522Y-116225413D01*
X8180933Y-116190881D02*
X8197035Y-116211730D01*
X8162804Y-116167489D02*
X8180933Y-116190881D01*
X8145094Y-116144720D02*
X8162804Y-116167489D01*
X8100771Y-116086679D02*
X8145094Y-116144720D01*
X8048022Y-116015362D02*
X8100771Y-116086679D01*
X7993294Y-115939659D02*
X8048022Y-116015362D01*
X7942611Y-115867777D02*
X7993294Y-115939659D01*
X7865794Y-115755183D02*
X7942611Y-115867777D01*
X7753314Y-115586047D02*
X7865794Y-115755183D01*
X7642960Y-115418079D02*
X7753314Y-115586047D01*
X7577810Y-115315811D02*
X7642960Y-115418079D01*
X7562852Y-115291839D02*
X7577810Y-115315811D01*
X7543501Y-115261028D02*
X7562852Y-115291839D01*
X7523210Y-115228853D02*
X7543501Y-115261028D01*
X7505098Y-115200277D02*
X7523210Y-115228853D01*
X7482466Y-115164465D02*
X7505098Y-115200277D01*
X7444344Y-115103699D02*
X7482466Y-115164465D01*
X7400478Y-115033586D02*
X7444344Y-115103699D01*
X7356299Y-114962777D02*
X7400478Y-115033586D01*
X7313762Y-114894522D02*
X7356299Y-114962777D01*
X7274866Y-114832137D02*
X7313762Y-114894522D01*
X7242249Y-114779846D02*
X7274866Y-114832137D01*
X7230010Y-114760277D02*
X7242249Y-114779846D01*
X7187630Y-114691590D02*
X7230010Y-114760277D01*
X7117790Y-114576106D02*
X7187630Y-114691590D01*
X7047729Y-114459490D02*
X7117790Y-114576106D01*
X7022165Y-114415277D02*
X7047729Y-114459490D01*
X7019328Y-114410248D02*
X7022165Y-114415277D01*
X7015217Y-114403074D02*
X7019328Y-114410248D01*
X7010674Y-114395211D02*
X7015217Y-114403074D01*
X7006342Y-114387777D02*
X7010674Y-114395211D01*
X6977044Y-114337083D02*
X7006342Y-114387777D01*
X6918968Y-114235057D02*
X6977044Y-114337083D01*
X6860346Y-114131702D02*
X6918968Y-114235057D01*
X6838754Y-114092777D02*
X6860346Y-114131702D01*
X6829351Y-114075536D02*
X6838754Y-114092777D01*
X6817835Y-114054543D02*
X6829351Y-114075536D01*
X6806140Y-114033314D02*
X6817835Y-114054543D01*
X6796150Y-114015277D02*
X6806140Y-114033314D01*
X6767394Y-113960797D02*
X6796150Y-114015277D01*
X6712647Y-113850518D02*
X6767394Y-113960797D01*
X6652078Y-113727345D02*
X6712647Y-113850518D01*
X6652079Y-113727345D02*
G75*
G02X6650022Y-113718491I18028J8854D01*
G01*
X6649530Y-113715636D02*
G75*
G02X6650022Y-113718491I-8045J-2855D01*
G01*
X6647209Y-113709477D02*
X6649530Y-113715636D01*
X6644113Y-113702210D02*
X6647209Y-113709477D01*
X6640446Y-113694500D02*
X6644113Y-113702210D01*
X6640446Y-113694500D02*
G75*
G02X6625567Y-113660779I353949J176315D01*
G01*
X6612376Y-113622674D02*
X6625567Y-113660779D01*
X6602797Y-113587022D02*
X6612376Y-113622674D01*
X6602798Y-113587021D02*
G75*
G02X6600022Y-113562709I105091J24312D01*
G01*
X6600022Y-113562709D02*
G75*
G02X6602313Y-113551889I26694J0D01*
G01*
X6602313Y-113551889D02*
G75*
G02X6608734Y-113543767I19006J-8428D01*
G01*
X6608734Y-113543767D02*
G75*
G02X6618045Y-113539963I11741J-15439D01*
G01*
X6618045Y-113539963D02*
G75*
G02X6628409Y-113541121I2783J-22042D01*
G01*
X9549378Y-117499505D02*
G75*
G02X9557816Y-117505118I-42084J-72409D01*
G01*
X9543690Y-117498010D02*
G75*
G02X9549378Y-117499505I137J-11046D01*
G01*
X9542163Y-117500169D02*
G75*
G02X9543690Y-117498010I1547J525D01*
G01*
X9545021Y-117505277D02*
G75*
G02X9542163Y-117500169I12406J10295D01*
G01*
X9548004Y-117508135D02*
G75*
G02X9545022Y-117505277I10995J14458D01*
G01*
X9551808Y-117510528D02*
G75*
G02X9548004Y-117508136I11528J22553D01*
G01*
X9555813Y-117512133D02*
G75*
G02X9551808Y-117510528I6762J22671D01*
G01*
X9559384Y-117512619D02*
G75*
G02X9555813Y-117512133I-229J11691D01*
G01*
X9563439Y-117512263D02*
G75*
G02X9559384Y-117512618I-4642J29680D01*
G01*
X9564221Y-117511131D02*
G75*
G02X9563438Y-117512263I-929J-194D01*
G01*
X9563100Y-117509282D02*
G75*
G02X9564221Y-117511131I-2062J-2515D01*
G01*
X9557816Y-117505118D02*
X9563100Y-117509282D01*
X10332574Y-111319496D02*
G75*
G02X10341771Y-111310571I24520J-16067D01*
G01*
X10341771Y-111310571D02*
G75*
G02X10352879Y-111307745I10107J-16484D01*
G01*
X10352879Y-111307745D02*
G75*
G02X10363607Y-111311707I-996J-19203D01*
G01*
X10363606Y-111311707D02*
G75*
G02X10371759Y-111321527I-17650J-22947D01*
G01*
X10371760Y-111321527D02*
G75*
G02X10383695Y-111354885I-124673J-63421D01*
G01*
X10399153Y-111430779D02*
X10383695Y-111354885D01*
X10416249Y-111530893D02*
X10399153Y-111430779D01*
X10434771Y-111657777D02*
X10416249Y-111530893D01*
X10439195Y-111689649D02*
X10434771Y-111657777D01*
X10443664Y-111721324D02*
X10439195Y-111689649D01*
X10447609Y-111748853D02*
X10443664Y-111721324D01*
X10450058Y-111765277D02*
X10447609Y-111748853D01*
X10452198Y-111779274D02*
X10450058Y-111765277D01*
X10454846Y-111796746D02*
X10452198Y-111779274D01*
X10457550Y-111814693D02*
X10454846Y-111796746D01*
X10459879Y-111830277D02*
X10457550Y-111814693D01*
X10500474Y-112095675D02*
X10459879Y-111830277D01*
X10532146Y-112283530D02*
X10500474Y-112095675D01*
X10562899Y-112441341D02*
X10532146Y-112283530D01*
X10599454Y-112605379D02*
X10562899Y-112441341D01*
X10624492Y-112708731D02*
X10599454Y-112605379D01*
X10656786Y-112836990D02*
X10624492Y-112708731D01*
X10688947Y-112962230D02*
X10656786Y-112836990D01*
X10699546Y-112997777D02*
X10688947Y-112962230D01*
X10701577Y-113004390D02*
X10699546Y-112997777D01*
X10704324Y-113014684D02*
X10701577Y-113004390D01*
X10707226Y-113026332D02*
X10704324Y-113014684D01*
X10709866Y-113037777D02*
X10707226Y-113026332D01*
X10712509Y-113049406D02*
X10709866Y-113037777D01*
X10715418Y-113061606D02*
X10712509Y-113049406D01*
X10718167Y-113072654D02*
X10715418Y-113061606D01*
X10720219Y-113080277D02*
X10718167Y-113072654D01*
X10741211Y-113161306D02*
X10720219Y-113080277D01*
X10770319Y-113289530D02*
X10741211Y-113161306D01*
X10797583Y-113417148D02*
X10770319Y-113289530D01*
X10810471Y-113490277D02*
X10797583Y-113417148D01*
X10812659Y-113504272D02*
X10810471Y-113490277D01*
X10815675Y-113521746D02*
X10812659Y-113504272D01*
X10818972Y-113539692D02*
X10815675Y-113521746D01*
X10822053Y-113555277D02*
X10818972Y-113539692D01*
X10833969Y-113621401D02*
X10822053Y-113555277D01*
X10848521Y-113720705D02*
X10833969Y-113621401D01*
X10863047Y-113832002D02*
X10848521Y-113720705D01*
X10875375Y-113940277D02*
X10863047Y-113832002D01*
X10883692Y-114027355D02*
X10875375Y-113940277D01*
X10891238Y-114123355D02*
X10883692Y-114027355D01*
X10899412Y-114246795D02*
X10891238Y-114123355D01*
X10909993Y-114425277D02*
X10899412Y-114246795D01*
X10914428Y-114561801D02*
X10909993Y-114425277D01*
X10913207Y-114723699D02*
X10914428Y-114561801D01*
D13*
X10906205Y-114930188D02*
X10913207Y-114723699D01*
X10892243Y-115210277D02*
X10906205Y-114930188D01*
D12*
X10888309Y-115263260D02*
X10892243Y-115210277D01*
X10879073Y-115357488D02*
X10888309Y-115263260D01*
X10868702Y-115454897D02*
X10879073Y-115357488D01*
X10859856Y-115527777D02*
X10868702Y-115454897D01*
X10857613Y-115545020D02*
X10859856Y-115527777D01*
X10854937Y-115566012D02*
X10857613Y-115545020D01*
X10852271Y-115587241D02*
X10854937Y-115566012D01*
X10850050Y-115605277D02*
X10852271Y-115587241D01*
X10847806Y-115622962D02*
X10850050Y-115605277D01*
X10845075Y-115643074D02*
X10847806Y-115622962D01*
X10842299Y-115662476D02*
X10845075Y-115643074D01*
X10839942Y-115677777D02*
X10842299Y-115662476D01*
X10837622Y-115692744D02*
X10839942Y-115677777D01*
X10834972Y-115711012D02*
X10837622Y-115692744D01*
X10832418Y-115729518D02*
X10834972Y-115711012D01*
X10830389Y-115745277D02*
X10832418Y-115729518D01*
X10811335Y-115867675D02*
X10830389Y-115745277D01*
X10771650Y-116069623D02*
X10811335Y-115867675D01*
X10728766Y-116271371D02*
X10771650Y-116069623D01*
X10697485Y-116395277D02*
X10728766Y-116271371D01*
X10694512Y-116405948D02*
X10697485Y-116395277D01*
X10691467Y-116417340D02*
X10694512Y-116405948D01*
X10688776Y-116427807D02*
X10691467Y-116417340D01*
X10686995Y-116435277D02*
X10688776Y-116427807D01*
X10677390Y-116473770D02*
X10686995Y-116435277D01*
X10647648Y-116581388D02*
X10677390Y-116473770D01*
X10617938Y-116687284D02*
X10647648Y-116581388D01*
X10600778Y-116745277D02*
X10617938Y-116687284D01*
X10596460Y-116759274D02*
X10600778Y-116745277D01*
X10591080Y-116776746D02*
X10596460Y-116759274D01*
X10585561Y-116794693D02*
X10591080Y-116776746D01*
X10580776Y-116810277D02*
X10585561Y-116794693D01*
X10563681Y-116864093D02*
X10580776Y-116810277D01*
X10532504Y-116958295D02*
X10563681Y-116864093D01*
X10499871Y-117055470D02*
X10532504Y-116958295D01*
X10474966Y-117127777D02*
X10499871Y-117055470D01*
X10464918Y-117156638D02*
X10474966Y-117127777D01*
X10455745Y-117183387D02*
X10464918Y-117156638D01*
X10448156Y-117205862D02*
X10455745Y-117183387D01*
X10445217Y-117215277D02*
X10448156Y-117205862D01*
X10442515Y-117224002D02*
X10445217Y-117215277D01*
X10436887Y-117240861D02*
X10442515Y-117224002D01*
X10430133Y-117260670D02*
X10436887Y-117240861D01*
X10422951Y-117281307D02*
X10430133Y-117260670D01*
X10405426Y-117334707D02*
X10422951Y-117281307D01*
X10405298Y-117354677D02*
G75*
G02X10405426Y-117334707I33535J9771D01*
G01*
X10412456Y-117355327D02*
G75*
G02X10405299Y-117354677I-3451J1730D01*
G01*
X10432120Y-117312777D02*
X10412455Y-117355327D01*
X10438098Y-117298783D02*
X10432120Y-117312777D01*
X10444664Y-117283598D02*
X10438098Y-117298783D01*
X10450839Y-117269472D02*
X10444664Y-117283598D01*
X10455464Y-117259082D02*
X10450839Y-117269472D01*
X10459124Y-117250664D02*
X10455464Y-117259082D01*
X10462214Y-117242904D02*
X10459124Y-117250664D01*
X10464584Y-117236362D02*
X10462214Y-117242904D01*
X10465021Y-117233771D02*
G75*
G02X10464584Y-117236362I-7897J0D01*
G01*
X10465021Y-117233771D02*
G75*
G02X10465482Y-117231197I7424J0D01*
G01*
X10467959Y-117224785D02*
X10465482Y-117231197D01*
X10471191Y-117217186D02*
X10467959Y-117224785D01*
X10475022Y-117208958D02*
X10471191Y-117217186D01*
X10478851Y-117200659D02*
X10475022Y-117208958D01*
X10482084Y-117192840D02*
X10478851Y-117200659D01*
X10484508Y-117186216D02*
X10482084Y-117192840D01*
X10485021Y-117183153D02*
G75*
G02X10484508Y-117186216I-9398J0D01*
G01*
X10485022Y-117183153D02*
G75*
G02X10485503Y-117180064I10154J0D01*
G01*
X10487803Y-117173264D02*
X10485503Y-117180064D01*
X10490864Y-117165223D02*
X10487803Y-117173264D01*
X10494490Y-117156661D02*
X10490864Y-117165223D01*
X9264682Y-115958855D02*
X9260103Y-115950347D01*
X9264682Y-115958855D02*
G75*
G02X9265022Y-115960212I-2538J-1357D01*
G01*
X9254695Y-115940555D02*
X9248277Y-115929295D01*
X9260103Y-115950347D02*
X9254695Y-115940555D01*
X7263874Y-117554228D02*
G75*
G02X7255022Y-117547537I13556J27135D01*
G01*
X7253092Y-117545897D02*
G75*
G02X7255022Y-117547537I-5453J-8377D01*
G01*
X7245912Y-117541285D02*
X7253091Y-117545898D01*
X7237281Y-117535930D02*
X7245912Y-117541285D01*
X7227522Y-117530101D02*
X7237281Y-117535930D01*
X7217356Y-117524103D02*
X7227522Y-117530101D01*
X7207487Y-117518234D02*
X7217356Y-117524103D01*
X7199047Y-117513177D02*
X7207487Y-117518234D01*
X7194424Y-117510341D02*
X7199047Y-117513177D01*
X7190259Y-117507797D02*
X7194424Y-117510341D01*
X7184094Y-117504150D02*
X7190259Y-117507797D01*
X7177233Y-117500155D02*
X7184094Y-117504150D01*
X7170629Y-117496375D02*
X7177233Y-117500155D01*
X7170629Y-117496375D02*
G75*
G02X7160474Y-117489975I63669J112281D01*
G01*
X7132016Y-117470005D02*
X7160474Y-117489975D01*
X7098261Y-117445940D02*
X7132016Y-117470005D01*
X7061226Y-117419103D02*
X7098261Y-117445940D01*
X6883114Y-117296773D02*
X7061226Y-117419103D01*
X6736099Y-117213678D02*
G75*
G02X6883114Y-117296773I-631554J-1288984D01*
G01*
X6576951Y-117146610D02*
G75*
G02X6736098Y-117213679I-510715J-1434241D01*
G01*
X6358826Y-117074954D02*
X6576951Y-117146611D01*
X6326926Y-117065042D02*
X6358826Y-117074954D01*
X6326927Y-117065042D02*
G75*
G02X6316329Y-117060106I14167J44263D01*
G01*
X6316329Y-117060106D02*
G75*
G02X6311681Y-117054159I5938J9430D01*
G01*
X6311681Y-117054159D02*
G75*
G02X6310076Y-117044254I30438J10015D01*
G01*
X6310076Y-117044254D02*
G75*
G02X6310628Y-117035206I70514J241D01*
G01*
X11535632Y-118969595D02*
X11647606Y-118999292D01*
X11448054Y-118943690D02*
X11535632Y-118969595D01*
X11448055Y-118943690D02*
G75*
G02X11392522Y-118923101I169046J541143D01*
G01*
X11387486Y-118921027D02*
X11392522Y-118923101D01*
X11380318Y-118918265D02*
X11387486Y-118921027D01*
X11372455Y-118915344D02*
X11380318Y-118918265D01*
X11365022Y-118912696D02*
X11372455Y-118915344D01*
X11357177Y-118909863D02*
X11365022Y-118912696D01*
X11348034Y-118906363D02*
X11357177Y-118909863D01*
X11339059Y-118902778D02*
X11348034Y-118906363D01*
X11331766Y-118899691D02*
X11339059Y-118902778D01*
X11325511Y-118897043D02*
X11331766Y-118899691D01*
X11319752Y-118894808D02*
X11325511Y-118897043D01*
X11314899Y-118893092D02*
X11319752Y-118894808D01*
X11312993Y-118892777D02*
G75*
G02X11314899Y-118893092I0J-5933D01*
G01*
X11312993Y-118892778D02*
G75*
G02X11309189Y-118892029I0J10037D01*
G01*
X11214667Y-118853305D02*
X11309189Y-118892029D01*
X11131032Y-118818860D02*
X11214667Y-118853305D01*
X11085022Y-118799343D02*
X11131032Y-118818860D01*
X11034226Y-118776283D02*
X11085022Y-118799343D01*
X10964035Y-118742512D02*
X11034226Y-118776283D01*
X10896005Y-118708811D02*
X10964035Y-118742512D01*
X10860022Y-118689386D02*
X10896005Y-118708811D01*
X10834250Y-118674488D02*
X10860022Y-118689386D01*
X10815712Y-118663819D02*
X10834250Y-118674488D01*
X10802040Y-118656010D02*
X10815712Y-118663819D01*
X10792522Y-118650665D02*
X10802040Y-118656010D01*
X10752423Y-118626144D02*
X10792522Y-118650665D01*
X10702352Y-118591071D02*
X10752423Y-118626144D01*
X10649465Y-118550893D02*
X10702352Y-118591071D01*
X10600022Y-118510105D02*
X10649465Y-118550893D01*
X10600022Y-118510106D02*
G75*
G02X10520238Y-118433873I695822J808099D01*
G01*
X10520238Y-118433873D02*
G75*
G02X10448595Y-118349661I781638J737557D01*
G01*
X10448596Y-118349661D02*
G75*
G02X10385002Y-118257259I878955J673003D01*
G01*
X10385001Y-118257258D02*
G75*
G02X10329292Y-118156527I1044989J643704D01*
G01*
X10316672Y-118132136D02*
X10329292Y-118156527D01*
X10308836Y-118121479D02*
G75*
G02X10316672Y-118132136I-34612J-33661D01*
G01*
X10302757Y-118119559D02*
G75*
G02X10308835Y-118121478I1254J-6611D01*
G01*
X10297112Y-118123439D02*
G75*
G02X10302758Y-118119558I7228J-4468D01*
G01*
X10295653Y-118128424D02*
G75*
G02X10297112Y-118123440I9773J-154D01*
G01*
X10293420Y-118271549D02*
X10295654Y-118128424D01*
X10291301Y-118431187D02*
X10293420Y-118271549D01*
X10289456Y-118619690D02*
X10291301Y-118431187D01*
X10287665Y-118808576D02*
X10289456Y-118619690D01*
X10285717Y-118969472D02*
X10287665Y-118808576D01*
X10283721Y-119112425D02*
X10285717Y-118969472D01*
X10283721Y-119112424D02*
G75*
G02X10282565Y-119121527I-41009J581D01*
G01*
X10282565Y-119121527D02*
G75*
G02X10281012Y-119125830I-20606J5007D01*
G01*
X10281011Y-119125830D02*
G75*
G02X10278627Y-119129473I-15676J7660D01*
G01*
X10278628Y-119129473D02*
G75*
G02X10275815Y-119131944I-9855J8380D01*
G01*
X10275814Y-119131943D02*
G75*
G02X10272998Y-119132777I-2816J4339D01*
G01*
X10272998Y-119132778D02*
G75*
G02X10268527Y-119131046I0J6637D01*
G01*
X10245478Y-119109837D02*
X10268527Y-119131046D01*
X10219013Y-119084616D02*
X10245478Y-119109837D01*
X10188906Y-119054683D02*
X10219013Y-119084616D01*
X10111648Y-118976588D02*
X10188906Y-119054683D01*
X10108335Y-118676359D02*
X10111648Y-118976588D01*
X10107066Y-118551023D02*
X10108335Y-118676359D01*
X10105995Y-118422704D02*
X10107066Y-118551023D01*
X10105237Y-118308674D02*
X10105995Y-118422704D01*
X10105022Y-118234454D02*
X10105237Y-118308674D01*
X10104720Y-118173849D02*
X10105022Y-118234454D01*
X10103728Y-118129717D02*
X10104720Y-118173849D01*
X10102369Y-118094990D02*
X10103728Y-118129717D01*
X10100060Y-118092777D02*
G75*
G02X10102369Y-118094990I-1J-2312D01*
G01*
X10097054Y-118094088D02*
G75*
G02X10100059Y-118092777I3005J-2787D01*
G01*
X10086630Y-118105560D02*
X10097055Y-118094089D01*
X10074618Y-118119615D02*
X10086630Y-118105560D01*
X10061309Y-118136292D02*
X10074618Y-118119615D01*
X9969679Y-118246929D02*
X10061309Y-118136292D01*
X9871336Y-118351497D02*
X9969679Y-118246929D01*
X9772618Y-118443723D02*
X9871336Y-118351497D01*
X9772618Y-118443723D02*
G75*
G02X9680022Y-118516907I-785138J898227D01*
G01*
X9543872Y-118607727D02*
X9680022Y-118516907D01*
X9410543Y-118684003D02*
X9543872Y-118607727D01*
X9270115Y-118750989D02*
X9410543Y-118684003D01*
X9112522Y-118813854D02*
X9270115Y-118750989D01*
X9056592Y-118833017D02*
X9112522Y-118813854D01*
X8964001Y-118862067D02*
X9056592Y-118833017D01*
X8870530Y-118890489D02*
X8964001Y-118862067D01*
X8870531Y-118890489D02*
G75*
G02X8835022Y-118899348I-111894J372905D01*
G01*
X8825788Y-118901427D02*
X8835022Y-118899348D01*
X8776256Y-118913853D02*
X8825788Y-118901427D01*
X8718574Y-118928414D02*
X8776256Y-118913853D01*
X8652522Y-118945214D02*
X8718574Y-118928414D01*
X8585223Y-118962309D02*
X8652522Y-118945214D01*
X8523647Y-118977802D02*
X8585223Y-118962309D01*
X8472000Y-118990673D02*
X8523647Y-118977802D01*
X8452522Y-118995258D02*
X8472000Y-118990673D01*
X8439392Y-118998201D02*
X8452522Y-118995258D01*
X8424725Y-119001527D02*
X8439392Y-118998201D01*
X8410765Y-119004724D02*
X8424725Y-119001527D01*
X8400022Y-119007222D02*
X8410765Y-119004724D01*
X8376495Y-119012411D02*
X8400022Y-119007222D01*
X8319890Y-119024006D02*
X8376495Y-119012411D01*
X8256655Y-119036751D02*
X8319890Y-119024006D01*
X8196570Y-119048613D02*
X8256655Y-119036751D01*
X8180754Y-119051291D02*
X8196570Y-119048613D01*
X8180754Y-119051291D02*
G75*
G02X8169488Y-119052124I-11660J81132D01*
G01*
X8169487Y-119052124D02*
G75*
G02X8160662Y-119051315I-221J46104D01*
G01*
X8160662Y-119051315D02*
G75*
G02X8152820Y-119048823I6419J33790D01*
G01*
X8152820Y-119048822D02*
G75*
G02X8143799Y-119035506I6402J14050D01*
G01*
X8143799Y-119035506D02*
G75*
G02X8149252Y-119016313I31269J1487D01*
G01*
X8149252Y-119016313D02*
G75*
G02X8177331Y-118981110I257590J-176662D01*
G01*
X8259998Y-118892550D02*
X8177331Y-118981110D01*
X8297172Y-118853045D02*
X8259998Y-118892550D01*
X8336499Y-118811019D02*
X8297172Y-118853045D01*
X8372351Y-118772510D02*
X8336499Y-118811019D01*
X8397522Y-118745213D02*
X8372351Y-118772510D01*
X8440178Y-118699392D02*
X8397522Y-118745213D01*
X8476361Y-118662256D02*
X8440178Y-118699392D01*
X8513224Y-118626564D02*
X8476361Y-118662256D01*
X8557926Y-118585277D02*
X8513224Y-118626564D01*
X8577115Y-118567823D02*
X8557926Y-118585277D01*
X8593687Y-118552653D02*
X8577115Y-118567823D01*
X8608008Y-118539477D02*
X8593687Y-118552653D01*
X8610021Y-118537406D02*
G75*
G02X8608008Y-118539477I-19819J17259D01*
G01*
X8610021Y-118537407D02*
G75*
G02X8612103Y-118535349I14795J-12883D01*
G01*
X8630147Y-118520015D02*
X8612103Y-118535349D01*
X8650885Y-118502487D02*
X8630147Y-118520015D01*
X8675022Y-118482231D02*
X8650885Y-118502487D01*
X8780470Y-118397248D02*
X8675022Y-118482231D01*
X8880076Y-118323754D02*
X8780470Y-118397248D01*
X8980113Y-118257287D02*
X8880076Y-118323754D01*
X9086795Y-118193515D02*
X8980113Y-118257287D01*
X9120714Y-118175268D02*
X9086795Y-118193515D01*
X9176262Y-118147389D02*
X9120714Y-118175268D01*
X9232493Y-118119994D02*
X9176262Y-118147389D01*
X9270022Y-118102890D02*
X9232493Y-118119994D01*
X9309757Y-118085775D02*
X9270022Y-118102890D01*
X9329737Y-118077382D02*
X9309757Y-118085775D01*
X9345779Y-118071025D02*
X9329737Y-118077382D01*
X9366272Y-118063347D02*
X9345779Y-118071025D01*
X9379186Y-118058599D02*
X9366272Y-118063347D01*
X9394287Y-118053046D02*
X9379186Y-118058599D01*
X9409151Y-118047580D02*
X9394287Y-118053046D01*
X9421272Y-118043122D02*
X9409151Y-118047580D01*
X9456104Y-118031114D02*
X9421272Y-118043122D01*
X9513274Y-118013030D02*
X9456104Y-118031114D01*
X9570340Y-117995577D02*
X9513274Y-118013030D01*
X9597522Y-117988372D02*
X9570340Y-117995577D01*
X9653341Y-117974277D02*
X9597522Y-117988372D01*
X9718904Y-117955292D02*
X9653341Y-117974277D01*
X9780034Y-117936296D02*
X9718904Y-117955292D01*
X9779691Y-117933050D02*
G75*
G02X9780034Y-117936296I-161J-1658D01*
G01*
X9777681Y-117933099D02*
G75*
G02X9779690Y-117933051I1204J-8298D01*
G01*
X9769709Y-117934287D02*
X9777681Y-117933099D01*
X9760305Y-117935799D02*
X9769709Y-117934287D01*
X9749690Y-117937644D02*
X9760305Y-117935799D01*
X9724754Y-117941359D02*
X9749690Y-117937644D01*
X9680359Y-117946376D02*
X9724754Y-117941359D01*
X9615074Y-117953070D02*
X9680359Y-117946376D01*
X9513645Y-117962894D02*
X9615074Y-117953070D01*
X9485352Y-117965035D02*
X9513645Y-117962894D01*
X9431795Y-117967839D02*
X9485352Y-117965035D01*
X9368915Y-117970681D02*
X9431795Y-117967839D01*
X9303645Y-117973169D02*
X9368915Y-117970681D01*
X9158340Y-117976041D02*
X9303645Y-117973169D01*
X9031748Y-117973781D02*
X9158340Y-117976041D01*
X8886661Y-117965269D02*
X9031748Y-117973781D01*
X8675022Y-117947707D02*
X8886661Y-117965269D01*
X8614771Y-117941119D02*
X8675022Y-117947707D01*
X8531738Y-117929690D02*
X8614771Y-117941119D01*
X8434250Y-117914788D02*
X8531738Y-117929690D01*
X8327522Y-117897109D02*
X8434250Y-117914788D01*
X8221857Y-117877377D02*
X8327522Y-117897109D01*
X8104034Y-117852215D02*
X8221857Y-117877377D01*
X7987305Y-117824654D02*
X8104034Y-117852215D01*
X7885022Y-117797637D02*
X7987305Y-117824654D01*
X7869381Y-117793300D02*
X7885022Y-117797637D01*
X7853397Y-117788981D02*
X7869381Y-117793300D01*
X7839207Y-117785245D02*
X7853397Y-117788981D01*
X7830022Y-117782966D02*
X7839207Y-117785245D01*
X7821722Y-117780851D02*
X7830022Y-117782966D01*
X7811053Y-117777839D02*
X7821722Y-117780851D01*
X7799914Y-117774499D02*
X7811053Y-117777839D01*
X7790022Y-117771321D02*
X7799914Y-117774499D01*
X7778663Y-117767567D02*
X7790022Y-117771321D01*
X7762381Y-117762256D02*
X7778663Y-117767567D01*
X7744485Y-117756458D02*
X7762381Y-117762256D01*
X7727522Y-117751004D02*
X7744485Y-117756458D01*
X7663400Y-117729584D02*
X7727522Y-117751004D01*
X7599573Y-117706485D02*
X7663400Y-117729584D01*
X7535345Y-117681444D02*
X7599573Y-117706485D01*
X10441588Y-117879800D02*
G75*
G02X10435529Y-117877293I15601J46284D01*
G01*
X10448772Y-117881862D02*
G75*
G02X10441589Y-117879800I19033J79840D01*
G01*
X10475611Y-117887712D02*
X10448772Y-117881862D01*
X6628409Y-113541121D02*
G75*
G02X6643800Y-113549519I-19851J-54684D01*
G01*
X6683573Y-113580444D02*
X6643800Y-113549519D01*
X6730950Y-113619163D02*
X6683573Y-113580444D01*
X6783636Y-113664359D02*
X6730950Y-113619163D01*
X6948174Y-113802127D02*
X6783636Y-113664359D01*
X7093791Y-113910502D02*
X6948174Y-113802127D01*
X7262714Y-114019733D02*
X7093791Y-113910502D01*
X7507522Y-114164069D02*
X7262714Y-114019733D01*
X9821306Y-113756615D02*
X9797577Y-113865220D01*
X9744593Y-114156118D02*
X9742916Y-114170277D01*
X9536280Y-116470659D02*
X9496362Y-116392777D01*
X9650735Y-116699065D02*
X9536280Y-116470659D01*
X9843793Y-113672863D02*
X9840420Y-113685871D01*
X9859796Y-116640277D02*
X9862223Y-116649554D01*
X8230696Y-114646196D02*
X8199731Y-114621569D01*
X8284121Y-114690261D02*
X8230696Y-114646196D01*
X9905296Y-113449293D02*
X9890717Y-113498596D01*
X9291545Y-116010738D02*
X9277657Y-115984784D01*
X9308037Y-116041194D02*
X9291545Y-116010738D01*
X9857389Y-116630966D02*
X9859796Y-116640277D01*
X9780667Y-116962450D02*
G75*
G02X9780022Y-116959625I5867J2825D01*
G01*
X9820128Y-117044375D02*
X9780666Y-116962451D01*
X9743686Y-115978002D02*
X9749812Y-116025277D01*
X9840420Y-113685871D02*
X9837276Y-113697511D01*
X9860559Y-113607297D02*
X9852925Y-113636256D01*
X9872102Y-116693678D02*
X9875424Y-116708215D01*
X9869792Y-116682777D02*
X9872102Y-116693678D01*
X9867434Y-117142202D02*
X9820128Y-117044375D01*
X9930900Y-117272769D02*
X9867434Y-117142202D01*
X10244836Y-111845277D02*
X10233743Y-111938355D01*
X8640510Y-115019449D02*
X8557249Y-114934817D01*
X8707941Y-115093323D02*
X8640510Y-115019449D01*
X9265378Y-115961643D02*
G75*
G02X9265022Y-115960212I2699J1431D01*
G01*
X9277657Y-115984784D02*
X9265377Y-115961643D01*
X9707431Y-115584943D02*
X9710146Y-115624262D01*
X9686197Y-115040776D02*
X9691200Y-115260800D01*
X7562323Y-114195700D02*
X7507522Y-114164069D01*
X7615350Y-114226582D02*
X7562323Y-114195700D01*
X7660594Y-114253170D02*
X7615350Y-114226582D01*
X9712884Y-115660118D02*
X9715155Y-115685277D01*
X10314571Y-111363376D02*
G75*
G02X10332574Y-111319496I122645J-24684D01*
G01*
X10233743Y-111938355D02*
X10216692Y-112068323D01*
X10216692Y-112068323D02*
X10198247Y-112202128D01*
X10198247Y-112202128D02*
X10182296Y-112310277D01*
X9844799Y-116571609D02*
X9847913Y-116586189D01*
X9922754Y-113390648D02*
X9905296Y-113449293D01*
X9915004Y-116866641D02*
X9938021Y-116955658D01*
X9902687Y-116817777D02*
X9915004Y-116866641D01*
X9689221Y-114835430D02*
X9686197Y-115040776D01*
X9747211Y-114138074D02*
X9744593Y-114156118D01*
X9846912Y-113660277D02*
X9843793Y-113672863D01*
X8341890Y-114738546D02*
X8284121Y-114690261D01*
X8392522Y-114781589D02*
X8341890Y-114738546D01*
X9890717Y-113498596D02*
X9884498Y-113520277D01*
X9796332Y-116332567D02*
X9819739Y-116458706D01*
X9722649Y-115767124D02*
X9724772Y-115792777D01*
X9852098Y-116607528D02*
X9854678Y-116619391D01*
X9870636Y-113570269D02*
X9860559Y-113607297D01*
X9862223Y-116649554D02*
X9864997Y-116661012D01*
X10024298Y-113040004D02*
X9941595Y-113327777D01*
X9774401Y-116203232D02*
X9796332Y-116332567D01*
X9736414Y-115913404D02*
X9743686Y-115978002D01*
X7685022Y-114267924D02*
X7660594Y-114253170D01*
X7702943Y-114278971D02*
X7685022Y-114267924D01*
X7721647Y-114290441D02*
X7702943Y-114278971D01*
X7738524Y-114300743D02*
X7721647Y-114290441D01*
X7750022Y-114307694D02*
X7738524Y-114300743D01*
X9847913Y-116586189D02*
X9850081Y-116597260D01*
X9705160Y-115547777D02*
X9707431Y-115584943D01*
X10141058Y-112546192D02*
X10089522Y-112784580D01*
X9852925Y-113636256D02*
X9846912Y-113660277D01*
X10182296Y-112310277D02*
X10141058Y-112546192D01*
X9864997Y-116661012D02*
X9867668Y-116672709D01*
X9715155Y-115685277D02*
X9717410Y-115708549D01*
X9760387Y-116105277D02*
X9774401Y-116203232D01*
X9897592Y-116797213D02*
X9902687Y-116817777D01*
X9891964Y-116774684D02*
X9897592Y-116797213D01*
X8088770Y-114538408D02*
X7962111Y-114448124D01*
X8199731Y-114621569D02*
X8088770Y-114538408D01*
X9716010Y-114410768D02*
X9706089Y-114520173D01*
X9835002Y-113705277D02*
X9821306Y-113756615D01*
X9240348Y-115915352D02*
X9230163Y-115897052D01*
X9248277Y-115929295D02*
X9240348Y-115915352D01*
X9425179Y-116257925D02*
X9407627Y-116225277D01*
X9446050Y-116297166D02*
X9425179Y-116257925D01*
X10043771Y-117453775D02*
G75*
G02X10028450Y-117454191I-7814J5438D01*
G01*
X10051642Y-117427617D02*
G75*
G02X10043772Y-117453776I-43965J-1036D01*
G01*
X9841336Y-116556189D02*
X9844799Y-116571609D01*
X9754965Y-116063215D02*
X9757876Y-116085494D01*
X9750258Y-114119324D02*
X9747211Y-114138074D01*
X9742916Y-114170277D02*
X9741414Y-114184273D01*
X9724772Y-115792777D02*
X9729586Y-115846968D01*
X9469842Y-116342235D02*
X9446050Y-116297166D01*
X9496362Y-116392777D02*
X9469842Y-116342235D01*
X9726782Y-114303128D02*
X9716010Y-114410768D01*
X10089522Y-112784580D02*
X10024298Y-113040004D01*
X9797577Y-113865220D02*
X9775096Y-113974104D01*
X9779044Y-116955488D02*
X9650735Y-116699065D01*
X9779045Y-116955488D02*
G75*
G02X9780022Y-116959625I-8269J-4137D01*
G01*
X7840998Y-114365371D02*
X7750022Y-114307694D01*
X7962111Y-114448124D02*
X7840998Y-114365371D01*
X8826981Y-115242044D02*
X8707941Y-115093323D01*
X8952584Y-115423051D02*
X8826981Y-115242044D01*
X9775096Y-113974104D02*
X9764785Y-114035277D01*
X9941595Y-113327777D02*
X9922754Y-113390648D01*
X9717410Y-115708549D02*
X9720054Y-115737481D01*
X9753300Y-114102777D02*
X9750258Y-114119324D01*
X9762686Y-114049437D02*
X9759713Y-114067481D01*
X9735041Y-114235277D02*
X9726782Y-114303128D01*
X10012789Y-117240486D02*
X10034316Y-117328882D01*
X9979915Y-117115277D02*
X10012789Y-117240486D01*
X9879114Y-116723688D02*
X9882635Y-116737777D01*
X9875424Y-116708215D02*
X9879114Y-116723688D01*
X9838031Y-116542260D02*
X9841336Y-116556189D01*
X9756422Y-114086231D02*
X9753300Y-114102777D01*
X10292634Y-111482589D02*
X10269274Y-111640793D01*
X9739359Y-114201746D02*
X9737122Y-114219693D01*
X9854678Y-116619391D02*
X9857389Y-116630966D01*
X9819739Y-116458706D02*
X9838031Y-116542260D01*
X9700432Y-114597777D02*
X9689221Y-114835430D01*
X10314571Y-111363377D02*
X10292634Y-111482589D01*
X9764785Y-114035277D02*
X9762686Y-114049437D01*
X9961965Y-117047481D02*
X9979915Y-117115277D01*
X9938021Y-116955658D02*
X9961965Y-117047481D01*
X9757876Y-116085494D02*
X9760387Y-116105277D01*
X9886652Y-116753561D02*
X9891964Y-116774684D01*
X9882635Y-116737777D02*
X9886652Y-116753561D01*
X9710146Y-115624262D02*
X9712884Y-115660118D01*
X10047789Y-117392241D02*
G75*
G02X10051641Y-117427617I-205937J-40320D01*
G01*
X10034316Y-117328882D02*
X10047790Y-117392241D01*
X9399971Y-116211116D02*
X9390235Y-116193074D01*
X9407627Y-116225277D02*
X9399971Y-116211116D01*
X9867668Y-116672709D02*
X9869792Y-116682777D01*
X9759713Y-114067481D02*
X9756422Y-114086231D01*
X8470584Y-114851527D02*
X8392522Y-114781589D01*
X8557249Y-114934817D02*
X8470584Y-114851527D01*
X9752112Y-116041881D02*
X9754965Y-116063215D01*
X9737122Y-114219693D02*
X9735041Y-114235277D01*
X9837276Y-113697511D02*
X9835002Y-113705277D01*
X10269274Y-111640793D02*
X10244836Y-111845277D01*
X9219544Y-115877713D02*
X9210123Y-115860277D01*
X9230163Y-115897052D02*
X9219544Y-115877713D01*
X9995824Y-117402971D02*
X9930900Y-117272769D01*
X10028449Y-117454191D02*
G75*
G02X9995824Y-117402971I252153J196613D01*
G01*
X9691200Y-115260800D02*
X9705160Y-115547777D01*
D11*
G36*
X15604975Y-97708585D02*
G01*
X15904528Y-97768170D01*
X16468874Y-98001930D01*
X16976772Y-98341296D01*
X17408704Y-98773228D01*
X17748070Y-99281126D01*
X17981830Y-99845472D01*
X18101000Y-100444578D01*
X18101000Y-101055422D01*
X17981830Y-101654528D01*
X17748070Y-102218874D01*
X17408704Y-102726772D01*
X16976772Y-103158704D01*
X16468874Y-103498070D01*
X15904528Y-103731830D01*
X15604975Y-103791415D01*
X15305423Y-103851000D01*
X14694577Y-103851000D01*
X14395025Y-103791415D01*
X14095472Y-103731830D01*
X13531126Y-103498070D01*
X13023228Y-103158704D01*
X12591296Y-102726772D01*
X12251930Y-102218874D01*
X12018170Y-101654528D01*
X11899000Y-101055422D01*
X11899000Y-100444578D01*
X12018170Y-99845472D01*
X12251930Y-99281126D01*
X12591296Y-98773228D01*
X13023228Y-98341296D01*
X13531126Y-98001930D01*
X14095472Y-97768170D01*
X14395025Y-97708585D01*
X14694577Y-97649000D01*
X15305423Y-97649000D01*
X15604975Y-97708585D01*
G37*
G36*
X5604975Y-97708585D02*
G01*
X5904528Y-97768170D01*
X6468874Y-98001930D01*
X6976772Y-98341296D01*
X7408704Y-98773228D01*
X7748070Y-99281126D01*
X7981830Y-99845472D01*
X8101000Y-100444578D01*
X8101000Y-101055422D01*
X7981830Y-101654528D01*
X7748070Y-102218874D01*
X7408704Y-102726772D01*
X6976772Y-103158704D01*
X6468874Y-103498070D01*
X5904528Y-103731830D01*
X5604975Y-103791415D01*
X5305423Y-103851000D01*
X4694577Y-103851000D01*
X4395025Y-103791415D01*
X4095472Y-103731830D01*
X3531126Y-103498070D01*
X3023228Y-103158704D01*
X2591296Y-102726772D01*
X2251930Y-102218874D01*
X2018170Y-101654528D01*
X1899000Y-101055422D01*
X1899000Y-100444578D01*
X2018170Y-99845472D01*
X2251930Y-99281126D01*
X2591296Y-98773228D01*
X3023228Y-98341296D01*
X3531126Y-98001930D01*
X4095472Y-97768170D01*
X4395025Y-97708585D01*
X4694577Y-97649000D01*
X5305423Y-97649000D01*
X5604975Y-97708585D01*
G37*
G36*
X5604975Y-73208585D02*
G01*
X5904528Y-73268170D01*
X6468874Y-73501930D01*
X6976772Y-73841296D01*
X7408704Y-74273228D01*
X7748070Y-74781126D01*
X7981830Y-75345472D01*
X8101000Y-75944578D01*
X8101000Y-76555422D01*
X7981830Y-77154528D01*
X7748070Y-77718874D01*
X7408704Y-78226772D01*
X6976772Y-78658704D01*
X6468874Y-78998070D01*
X5904528Y-79231830D01*
X5604975Y-79291415D01*
X5305423Y-79351000D01*
X4694577Y-79351000D01*
X4395025Y-79291415D01*
X4095472Y-79231830D01*
X3531126Y-78998070D01*
X3023228Y-78658704D01*
X2591296Y-78226772D01*
X2251930Y-77718874D01*
X2018170Y-77154528D01*
X1899000Y-76555422D01*
X1899000Y-75944578D01*
X2018170Y-75345472D01*
X2251930Y-74781126D01*
X2591296Y-74273228D01*
X3023228Y-73841296D01*
X3531126Y-73501930D01*
X4095472Y-73268170D01*
X4395025Y-73208585D01*
X4694577Y-73149000D01*
X5305423Y-73149000D01*
X5604975Y-73208585D01*
G37*
G36*
X5757430Y-52448978D02*
G01*
X6008684Y-52498955D01*
X6204752Y-52580169D01*
X6482034Y-52695023D01*
X6482035Y-52695024D01*
X6908041Y-52979671D01*
X7270329Y-53341959D01*
X7460524Y-53626607D01*
X7554977Y-53767966D01*
X7751045Y-54241317D01*
X7851000Y-54743823D01*
X7851000Y-55256177D01*
X7751045Y-55758683D01*
X7554977Y-56232034D01*
X7554976Y-56232035D01*
X7270329Y-56658041D01*
X6908041Y-57020329D01*
X6623393Y-57210524D01*
X6482034Y-57304977D01*
X6204752Y-57419831D01*
X6008684Y-57501045D01*
X5757430Y-57551023D01*
X5506177Y-57601000D01*
X4993823Y-57601000D01*
X4742570Y-57551023D01*
X4491316Y-57501045D01*
X4295248Y-57419831D01*
X4017966Y-57304977D01*
X3876607Y-57210524D01*
X3591959Y-57020329D01*
X3229671Y-56658041D01*
X2945024Y-56232035D01*
X2945023Y-56232034D01*
X2748955Y-55758683D01*
X2649000Y-55256177D01*
X2649000Y-54743823D01*
X2748955Y-54241317D01*
X2945023Y-53767966D01*
X3039476Y-53626607D01*
X3229671Y-53341959D01*
X3591959Y-52979671D01*
X4017965Y-52695024D01*
X4017966Y-52695023D01*
X4295248Y-52580169D01*
X4491316Y-52498955D01*
X4742570Y-52448978D01*
X4993823Y-52399000D01*
X5506177Y-52399000D01*
X5757430Y-52448978D01*
G37*
M02*
