G04 #@! TF.GenerationSoftware,KiCad,Pcbnew,(5.1.5-0)*
G04 #@! TF.CreationDate,2021-01-20T00:49:02-08:00*
G04 #@! TF.ProjectId,bong0,626f6e67-302e-46b6-9963-61645f706362,rev?*
G04 #@! TF.SameCoordinates,Original*
G04 #@! TF.FileFunction,Legend,Top*
G04 #@! TF.FilePolarity,Positive*
%FSLAX46Y46*%
G04 Gerber Fmt 4.6, Leading zero omitted, Abs format (unit mm)*
G04 Created by KiCad (PCBNEW (5.1.5-0)) date 2021-01-20 00:49:02*
%MOMM*%
%LPD*%
G04 APERTURE LIST*
%ADD10C,0.400000*%
%ADD11C,0.200000*%
G04 APERTURE END LIST*
D10*
X15600000Y-83800000D02*
X16800000Y-81200000D01*
D11*
X1952380Y-91704761D02*
X3095238Y-91704761D01*
X2523809Y-93704761D02*
X2523809Y-91704761D01*
X4904761Y-93704761D02*
X4238095Y-92752380D01*
X3761904Y-93704761D02*
X3761904Y-91704761D01*
X4523809Y-91704761D01*
X4714285Y-91800000D01*
X4809523Y-91895238D01*
X4904761Y-92085714D01*
X4904761Y-92371428D01*
X4809523Y-92561904D01*
X4714285Y-92657142D01*
X4523809Y-92752380D01*
X3761904Y-92752380D01*
X5761904Y-93704761D02*
X5761904Y-91704761D01*
X7761904Y-91800000D02*
X7571428Y-91704761D01*
X7285714Y-91704761D01*
X7000000Y-91800000D01*
X6809523Y-91990476D01*
X6714285Y-92180952D01*
X6619047Y-92561904D01*
X6619047Y-92847619D01*
X6714285Y-93228571D01*
X6809523Y-93419047D01*
X7000000Y-93609523D01*
X7285714Y-93704761D01*
X7476190Y-93704761D01*
X7761904Y-93609523D01*
X7857142Y-93514285D01*
X7857142Y-92847619D01*
X7476190Y-92847619D01*
D10*
X16450000Y-59650000D02*
X16950000Y-59816666D01*
X17116666Y-59983333D01*
X17283333Y-60316666D01*
X17283333Y-60816666D01*
X17116666Y-61150000D01*
X16950000Y-61316666D01*
X16616666Y-61483333D01*
X15283333Y-61483333D01*
X15283333Y-57983333D01*
X16450000Y-57983333D01*
X16783333Y-58150000D01*
X16950000Y-58316666D01*
X17116666Y-58650000D01*
X17116666Y-58983333D01*
X16950000Y-59316666D01*
X16783333Y-59483333D01*
X16450000Y-59650000D01*
X15283333Y-59650000D01*
X15866666Y-63633333D02*
X16533333Y-63633333D01*
X16866666Y-63800000D01*
X17200000Y-64133333D01*
X17366666Y-64800000D01*
X17366666Y-65966666D01*
X17200000Y-66633333D01*
X16866666Y-66966666D01*
X16533333Y-67133333D01*
X15866666Y-67133333D01*
X15533333Y-66966666D01*
X15200000Y-66633333D01*
X15033333Y-65966666D01*
X15033333Y-64800000D01*
X15200000Y-64133333D01*
X15533333Y-63800000D01*
X15866666Y-63633333D01*
X15200000Y-72783333D02*
X15200000Y-69283333D01*
X17200000Y-72783333D01*
X17200000Y-69283333D01*
X17116666Y-75100000D02*
X16783333Y-74933333D01*
X16283333Y-74933333D01*
X15783333Y-75100000D01*
X15450000Y-75433333D01*
X15283333Y-75766666D01*
X15116666Y-76433333D01*
X15116666Y-76933333D01*
X15283333Y-77600000D01*
X15450000Y-77933333D01*
X15783333Y-78266666D01*
X16283333Y-78433333D01*
X16616666Y-78433333D01*
X17116666Y-78266666D01*
X17283333Y-78100000D01*
X17283333Y-76933333D01*
X16616666Y-76933333D01*
X16033333Y-80583333D02*
X16366666Y-80583333D01*
X16700000Y-80750000D01*
X16866666Y-80916666D01*
X17033333Y-81250000D01*
X17200000Y-81916666D01*
X17200000Y-82750000D01*
X17033333Y-83416666D01*
X16866666Y-83750000D01*
X16700000Y-83916666D01*
X16366666Y-84083333D01*
X16033333Y-84083333D01*
X15700000Y-83916666D01*
X15533333Y-83750000D01*
X15366666Y-83416666D01*
X15200000Y-82750000D01*
X15200000Y-81916666D01*
X15366666Y-81250000D01*
X15533333Y-80916666D01*
X15700000Y-80750000D01*
X16033333Y-80583333D01*
D11*
X7266666Y-11257142D02*
X7933333Y-11257142D01*
X8219047Y-12304761D02*
X7266666Y-12304761D01*
X7266666Y-10304761D01*
X8219047Y-10304761D01*
X9076190Y-12304761D02*
X9076190Y-10304761D01*
X10219047Y-12304761D01*
X10219047Y-10304761D01*
X10885714Y-10304761D02*
X11552380Y-12304761D01*
X12219047Y-10304761D01*
X7133333Y-48457142D02*
X6466666Y-48457142D01*
X6466666Y-49504761D02*
X6466666Y-47504761D01*
X7419047Y-47504761D01*
X9323809Y-49504761D02*
X8657142Y-48552380D01*
X8180952Y-49504761D02*
X8180952Y-47504761D01*
X8942857Y-47504761D01*
X9133333Y-47600000D01*
X9228571Y-47695238D01*
X9323809Y-47885714D01*
X9323809Y-48171428D01*
X9228571Y-48361904D01*
X9133333Y-48457142D01*
X8942857Y-48552380D01*
X8180952Y-48552380D01*
X10180952Y-48457142D02*
X10847619Y-48457142D01*
X11133333Y-49504761D02*
X10180952Y-49504761D01*
X10180952Y-47504761D01*
X11133333Y-47504761D01*
X13323809Y-49695238D02*
X13133333Y-49600000D01*
X12942857Y-49409523D01*
X12657142Y-49123809D01*
X12466666Y-49028571D01*
X12276190Y-49028571D01*
X12371428Y-49504761D02*
X12180952Y-49409523D01*
X11990476Y-49219047D01*
X11895238Y-48838095D01*
X11895238Y-48171428D01*
X11990476Y-47790476D01*
X12180952Y-47600000D01*
X12371428Y-47504761D01*
X12752380Y-47504761D01*
X12942857Y-47600000D01*
X13133333Y-47790476D01*
X13228571Y-48171428D01*
X13228571Y-48838095D01*
X13133333Y-49219047D01*
X12942857Y-49409523D01*
X12752380Y-49504761D01*
X12371428Y-49504761D01*
X12750000Y-91704761D02*
X13130952Y-91704761D01*
X13321428Y-91800000D01*
X13511904Y-91990476D01*
X13607142Y-92371428D01*
X13607142Y-93038095D01*
X13511904Y-93419047D01*
X13321428Y-93609523D01*
X13130952Y-93704761D01*
X12750000Y-93704761D01*
X12559523Y-93609523D01*
X12369047Y-93419047D01*
X12273809Y-93038095D01*
X12273809Y-92371428D01*
X12369047Y-91990476D01*
X12559523Y-91800000D01*
X12750000Y-91704761D01*
X14464285Y-91704761D02*
X14464285Y-93323809D01*
X14559523Y-93514285D01*
X14654761Y-93609523D01*
X14845238Y-93704761D01*
X15226190Y-93704761D01*
X15416666Y-93609523D01*
X15511904Y-93514285D01*
X15607142Y-93323809D01*
X15607142Y-91704761D01*
X16273809Y-91704761D02*
X17416666Y-91704761D01*
X16845238Y-93704761D02*
X16845238Y-91704761D01*
X4202380Y-69654761D02*
X4202380Y-67654761D01*
X5154761Y-69654761D02*
X5154761Y-67654761D01*
X6297619Y-69654761D01*
X6297619Y-67654761D01*
M02*
