M48
; DRILL file {KiCad (5.1.5-0)} date Wednesday, January 20, 2021 at 05:05:52 PM
; FORMAT={2:4/ absolute / inch / keep zeros}
; #@! TF.CreationDate,2021-01-20T17:05:52-08:00
; #@! TF.GenerationSoftware,Kicad,Pcbnew,(5.1.5-0)
FMAT,2
INCH
T1C0.1969
T2C0.2362
T3C0.2500
%
G90
G05
T1
X016142Y-015846
X013976Y-013878
X017913Y-009941
X019980Y-011909
X017913Y-013878
X012008Y-011909
X013976Y-009941
X016142Y-007972
T2
X028937Y-010374
X003051Y-010374
X003445Y-040157
X028937Y-030610
X007382Y-040157
X012697Y-040157
X028937Y-023917
X028937Y-017067
X003051Y-023917
X003051Y-017067
X028543Y-040157
X003051Y-030610
X024606Y-040157
X016732Y-040157
X020669Y-040157
T3
X016142Y-033661
X016142Y-027165
T0
M30
