G04 #@! TF.GenerationSoftware,KiCad,Pcbnew,(5.1.5-0)*
G04 #@! TF.CreationDate,2021-01-20T17:05:57-08:00*
G04 #@! TF.ProjectId,1050mixerseq,31303530-6d69-4786-9572-7365712e6b69,rev?*
G04 #@! TF.SameCoordinates,Original*
G04 #@! TF.FileFunction,Soldermask,Top*
G04 #@! TF.FilePolarity,Negative*
%FSLAX46Y46*%
G04 Gerber Fmt 4.6, Leading zero omitted, Abs format (unit mm)*
G04 Created by KiCad (PCBNEW (5.1.5-0)) date 2021-01-20 17:05:57*
%MOMM*%
%LPD*%
G04 APERTURE LIST*
%ADD10C,2.000000*%
%ADD11C,1.000000*%
%ADD12C,0.100000*%
%ADD13C,0.000002*%
%ADD14C,0.001000*%
G04 APERTURE END LIST*
D10*
X7750000Y-26500000D02*
X7750000Y-78500000D01*
X73500000Y-26500000D02*
X73500000Y-78500000D01*
D11*
X41000000Y-69000000D02*
X24250000Y-74000000D01*
X41000000Y-69000000D02*
X23750000Y-61250000D01*
X41000000Y-69000000D02*
X22750000Y-46000000D01*
X41000000Y-69000000D02*
X58500000Y-46000000D01*
X41000000Y-69000000D02*
X57500000Y-61250000D01*
X41000000Y-69000000D02*
X56750000Y-74000000D01*
X41250000Y-68750000D02*
X59000000Y-29750000D01*
X41000000Y-69000000D02*
X22000000Y-30000000D01*
D10*
X41000000Y-85750000D02*
X41000000Y-31250000D01*
D12*
G36*
X50750000Y-30250000D02*
G01*
X41000000Y-40250000D01*
X30500000Y-30250000D01*
X41000000Y-20000000D01*
X50750000Y-30250000D01*
G37*
X50750000Y-30250000D02*
X41000000Y-40250000D01*
X30500000Y-30250000D01*
X41000000Y-20000000D01*
X50750000Y-30250000D01*
G36*
X41160400Y-123747650D02*
G01*
X41712850Y-124027050D01*
X42039875Y-124354075D01*
X42174813Y-124584263D01*
X42406588Y-124854138D01*
X42100200Y-124770000D01*
X41846200Y-124693800D01*
X41668400Y-124630300D01*
X41293750Y-124496950D01*
X40934975Y-124303275D01*
X40674625Y-124017525D01*
X40550800Y-123855600D01*
X40614300Y-123893700D01*
X40588900Y-123830200D01*
X40652400Y-123658750D01*
X41160400Y-123747650D01*
G37*
X41160400Y-123747650D02*
X41712850Y-124027050D01*
X42039875Y-124354075D01*
X42174813Y-124584263D01*
X42406588Y-124854138D01*
X42100200Y-124770000D01*
X41846200Y-124693800D01*
X41668400Y-124630300D01*
X41293750Y-124496950D01*
X40934975Y-124303275D01*
X40674625Y-124017525D01*
X40550800Y-123855600D01*
X40614300Y-123893700D01*
X40588900Y-123830200D01*
X40652400Y-123658750D01*
X41160400Y-123747650D01*
G36*
X40366650Y-123766700D02*
G01*
X39998350Y-124198500D01*
X39560200Y-124471550D01*
X39179200Y-124611250D01*
X38429900Y-124776350D01*
X38912500Y-124249300D01*
X39306200Y-123982600D01*
X39674500Y-123779400D01*
X40144400Y-123703200D01*
X40169800Y-123703200D01*
X40366650Y-123766700D01*
G37*
X40366650Y-123766700D02*
X39998350Y-124198500D01*
X39560200Y-124471550D01*
X39179200Y-124611250D01*
X38429900Y-124776350D01*
X38912500Y-124249300D01*
X39306200Y-123982600D01*
X39674500Y-123779400D01*
X40144400Y-123703200D01*
X40169800Y-123703200D01*
X40366650Y-123766700D01*
G36*
X43573400Y-122738000D02*
G01*
X44005200Y-122763400D01*
X44583207Y-122773943D01*
X43903600Y-122928500D01*
X43471800Y-123119000D01*
X43128900Y-123334900D01*
X42709800Y-123500000D01*
X42176400Y-123588900D01*
X41731900Y-123614300D01*
X41154050Y-123595250D01*
X40576200Y-123576200D01*
X40512700Y-123500000D01*
X40728600Y-123436500D01*
X40735585Y-123385700D01*
X41051815Y-123258700D01*
X41585850Y-123030100D01*
X42138300Y-122826900D01*
X42532000Y-122712600D01*
X42976500Y-122712600D01*
X43573400Y-122738000D01*
G37*
X43573400Y-122738000D02*
X44005200Y-122763400D01*
X44583207Y-122773943D01*
X43903600Y-122928500D01*
X43471800Y-123119000D01*
X43128900Y-123334900D01*
X42709800Y-123500000D01*
X42176400Y-123588900D01*
X41731900Y-123614300D01*
X41154050Y-123595250D01*
X40576200Y-123576200D01*
X40512700Y-123500000D01*
X40728600Y-123436500D01*
X40735585Y-123385700D01*
X41051815Y-123258700D01*
X41585850Y-123030100D01*
X42138300Y-122826900D01*
X42532000Y-122712600D01*
X42976500Y-122712600D01*
X43573400Y-122738000D01*
G36*
X43560700Y-120083700D02*
G01*
X43319400Y-120579000D01*
X43116200Y-121036200D01*
X42855850Y-121556900D01*
X42582800Y-121912500D01*
X42271650Y-122325250D01*
X41801750Y-122718950D01*
X41300100Y-123055500D01*
X40195200Y-123652400D01*
X40220600Y-123322200D01*
X40525400Y-123271400D01*
X40773050Y-122833250D01*
X40988950Y-122369700D01*
X41154050Y-122039500D01*
X41338200Y-121747400D01*
X41503300Y-121429900D01*
X41782700Y-121074300D01*
X42062100Y-120756800D01*
X42392300Y-120464700D01*
X42735200Y-120236100D01*
X43116200Y-119982100D01*
X43509900Y-119715400D01*
X44043300Y-119321700D01*
X43560700Y-120083700D01*
G37*
X43560700Y-120083700D02*
X43319400Y-120579000D01*
X43116200Y-121036200D01*
X42855850Y-121556900D01*
X42582800Y-121912500D01*
X42271650Y-122325250D01*
X41801750Y-122718950D01*
X41300100Y-123055500D01*
X40195200Y-123652400D01*
X40220600Y-123322200D01*
X40525400Y-123271400D01*
X40773050Y-122833250D01*
X40988950Y-122369700D01*
X41154050Y-122039500D01*
X41338200Y-121747400D01*
X41503300Y-121429900D01*
X41782700Y-121074300D01*
X42062100Y-120756800D01*
X42392300Y-120464700D01*
X42735200Y-120236100D01*
X43116200Y-119982100D01*
X43509900Y-119715400D01*
X44043300Y-119321700D01*
X43560700Y-120083700D01*
G36*
X40715900Y-117950100D02*
G01*
X40817500Y-118432700D01*
X40931800Y-118889900D01*
X41014350Y-119220100D01*
X41077850Y-119601100D01*
X41122300Y-120121800D01*
X41122300Y-120655200D01*
X41071500Y-121239400D01*
X41008000Y-121760100D01*
X40865125Y-122255400D01*
X40566675Y-123271400D01*
X40353950Y-123220600D01*
X40119000Y-122306200D01*
X39945962Y-121442600D01*
X39961837Y-120655200D01*
X40014225Y-119994800D01*
X40176150Y-119220100D01*
X40411100Y-118407300D01*
X40538100Y-117632600D01*
X40601600Y-117111900D01*
X40715900Y-117950100D01*
G37*
X40715900Y-117950100D02*
X40817500Y-118432700D01*
X40931800Y-118889900D01*
X41014350Y-119220100D01*
X41077850Y-119601100D01*
X41122300Y-120121800D01*
X41122300Y-120655200D01*
X41071500Y-121239400D01*
X41008000Y-121760100D01*
X40865125Y-122255400D01*
X40566675Y-123271400D01*
X40353950Y-123220600D01*
X40119000Y-122306200D01*
X39945962Y-121442600D01*
X39961837Y-120655200D01*
X40014225Y-119994800D01*
X40176150Y-119220100D01*
X40411100Y-118407300D01*
X40538100Y-117632600D01*
X40601600Y-117111900D01*
X40715900Y-117950100D01*
G36*
X37096400Y-119524900D02*
G01*
X37413900Y-119766200D01*
X37979050Y-120083700D01*
X38575950Y-120515500D01*
X38950600Y-120896500D01*
X39350650Y-121461650D01*
X39947550Y-122642750D01*
X40246000Y-123207900D01*
X40258700Y-123220600D01*
X39928500Y-123246000D01*
X39826900Y-123195200D01*
X39471300Y-122947550D01*
X39064900Y-122579250D01*
X38734700Y-122230000D01*
X38379100Y-121798200D01*
X38099700Y-121379100D01*
X37909200Y-121125100D01*
X37655200Y-120667900D01*
X37401200Y-120299600D01*
X37159900Y-119880500D01*
X36880500Y-119321700D01*
X37096400Y-119524900D01*
G37*
X37096400Y-119524900D02*
X37413900Y-119766200D01*
X37979050Y-120083700D01*
X38575950Y-120515500D01*
X38950600Y-120896500D01*
X39350650Y-121461650D01*
X39947550Y-122642750D01*
X40246000Y-123207900D01*
X40258700Y-123220600D01*
X39928500Y-123246000D01*
X39826900Y-123195200D01*
X39471300Y-122947550D01*
X39064900Y-122579250D01*
X38734700Y-122230000D01*
X38379100Y-121798200D01*
X38099700Y-121379100D01*
X37909200Y-121125100D01*
X37655200Y-120667900D01*
X37401200Y-120299600D01*
X37159900Y-119880500D01*
X36880500Y-119321700D01*
X37096400Y-119524900D01*
G36*
X38502925Y-122703075D02*
G01*
X38839475Y-122798325D01*
X39103000Y-122890400D01*
X39801500Y-123296800D01*
X39831980Y-123324740D01*
X39839600Y-123309500D01*
X39839600Y-123322200D01*
X39831980Y-123324740D01*
X39750700Y-123487300D01*
X40144400Y-123627000D01*
X39934850Y-123652400D01*
X39541150Y-123677800D01*
X39064900Y-123677800D01*
X38620400Y-123614300D01*
X38137800Y-123500000D01*
X37744100Y-123385700D01*
X37337700Y-123157100D01*
X37020200Y-122928500D01*
X36613800Y-122801500D01*
X37261500Y-122750700D01*
X37794900Y-122712600D01*
X38258450Y-122706250D01*
X38502925Y-122703075D01*
G37*
X38502925Y-122703075D02*
X38839475Y-122798325D01*
X39103000Y-122890400D01*
X39801500Y-123296800D01*
X39831980Y-123324740D01*
X39839600Y-123309500D01*
X39839600Y-123322200D01*
X39831980Y-123324740D01*
X39750700Y-123487300D01*
X40144400Y-123627000D01*
X39934850Y-123652400D01*
X39541150Y-123677800D01*
X39064900Y-123677800D01*
X38620400Y-123614300D01*
X38137800Y-123500000D01*
X37744100Y-123385700D01*
X37337700Y-123157100D01*
X37020200Y-122928500D01*
X36613800Y-122801500D01*
X37261500Y-122750700D01*
X37794900Y-122712600D01*
X38258450Y-122706250D01*
X38502925Y-122703075D01*
G36*
X40500000Y-123284100D02*
G01*
X40288862Y-123477775D01*
X40507937Y-123573025D01*
X41258825Y-124115950D01*
X41077850Y-124211200D01*
X40500000Y-123754000D01*
X40512700Y-124846200D01*
X40398400Y-124706500D01*
X40392050Y-123817500D01*
X40436500Y-123817500D01*
X40055500Y-123601600D01*
X39769750Y-123449200D01*
X39934850Y-123169800D01*
X40500000Y-123284100D01*
G37*
X40500000Y-123284100D02*
X40288862Y-123477775D01*
X40507937Y-123573025D01*
X41258825Y-124115950D01*
X41077850Y-124211200D01*
X40500000Y-123754000D01*
X40512700Y-124846200D01*
X40398400Y-124706500D01*
X40392050Y-123817500D01*
X40436500Y-123817500D01*
X40055500Y-123601600D01*
X39769750Y-123449200D01*
X39934850Y-123169800D01*
X40500000Y-123284100D01*
D13*
X39979586Y-121596968D02*
X39986414Y-121663404D01*
X36560628Y-122785206D02*
G75*
G02X36562745Y-122780474I8833J-1112D01*
G01*
X36562745Y-122780475D02*
G75*
G02X36567170Y-122777659I6961J-6056D01*
G01*
X36567171Y-122777659D02*
G75*
G02X36576272Y-122775641I21302J-74534D01*
G01*
X36619176Y-122769928D02*
X36576272Y-122775641D01*
X36675382Y-122764579D02*
X36619176Y-122769928D01*
X36749523Y-122759059D02*
X36675382Y-122764579D01*
X36850810Y-122752773D02*
X36749523Y-122759059D01*
X36964250Y-122745535D02*
X36850810Y-122752773D01*
X37055159Y-122738329D02*
X36964250Y-122745535D01*
X37135946Y-122730142D02*
X37055159Y-122738329D01*
X37217522Y-122719967D02*
X37135946Y-122730142D01*
X37295588Y-122710763D02*
X37217522Y-122719967D01*
X37394548Y-122701810D02*
X37295588Y-122710763D01*
X37502731Y-122693949D02*
X37394548Y-122701810D01*
X37610022Y-122688039D02*
X37502731Y-122693949D01*
X37658893Y-122685783D02*
X37610022Y-122688039D01*
X37728084Y-122682592D02*
X37658893Y-122685783D01*
X37803746Y-122679104D02*
X37728084Y-122682592D01*
X37875022Y-122675821D02*
X37803746Y-122679104D01*
X38042892Y-122668843D02*
X37875022Y-122675821D01*
X38217753Y-122663052D02*
X38042892Y-122668843D01*
X38391324Y-122658069D02*
X38217753Y-122663052D01*
X38391324Y-122658069D02*
G75*
G02X38400393Y-122660507I462J-16364D01*
G01*
X38403889Y-122661762D02*
G75*
G02X38400393Y-122660507I1209J8867D01*
G01*
X38419388Y-122663775D02*
X38403889Y-122661762D01*
X38437771Y-122665819D02*
X38419388Y-122663775D01*
X38458715Y-122667713D02*
X38437771Y-122665819D01*
X39970054Y-121487481D02*
X39972649Y-121517124D01*
X41112378Y-123647086D02*
X41157522Y-123650622D01*
X41063537Y-123643388D02*
X41112378Y-123647086D01*
X41018194Y-123640058D02*
X41063537Y-123643388D01*
X40985022Y-123637755D02*
X41018194Y-123640058D01*
X40953615Y-123635486D02*
X40985022Y-123637755D01*
X40914584Y-123632326D02*
X40953615Y-123635486D01*
X40874606Y-123628849D02*
X40914584Y-123632326D01*
X40840022Y-123625579D02*
X40874606Y-123628849D01*
X40778512Y-123620402D02*
X40840022Y-123625579D01*
X40726901Y-123618134D02*
X40778512Y-123620402D01*
X39331364Y-121380665D02*
X39202584Y-121173051D01*
X39460123Y-121610277D02*
X39331364Y-121380665D01*
X40763811Y-123644985D02*
X40725611Y-123637712D01*
X40801820Y-123651668D02*
X40763811Y-123644985D01*
X40827522Y-123655429D02*
X40801820Y-123651668D01*
X40827522Y-123655429D02*
G75*
G02X40915850Y-123671576I-96572J-777952D01*
G01*
X41042223Y-123704860D02*
X40915850Y-123671576D01*
X41181550Y-123747366D02*
X41042223Y-123704860D01*
X41315022Y-123794009D02*
X41181550Y-123747366D01*
X41358649Y-123811046D02*
X41315022Y-123794009D01*
X41404637Y-123830487D02*
X41358649Y-123811046D01*
X41452079Y-123851930D02*
X41404637Y-123830487D01*
X41500085Y-123874987D02*
X41452079Y-123851930D01*
X41500085Y-123874988D02*
G75*
G02X41652408Y-123962179I-639105J-1293158D01*
G01*
X40100081Y-122347260D02*
X40102098Y-122357528D01*
X43120021Y-121015299D02*
G75*
G02X43119743Y-121016562I-3003J0D01*
G01*
X43111209Y-121034952D02*
X43119743Y-121016562D01*
X43101523Y-121055632D02*
X43111209Y-121034952D01*
X43090022Y-121079870D02*
X43101523Y-121055632D01*
X43078521Y-121104146D02*
X43090022Y-121079870D01*
X43068834Y-121124951D02*
X43078521Y-121104146D01*
X43060385Y-121143329D02*
X43068834Y-121124951D01*
X43060021Y-121144995D02*
G75*
G02X43060385Y-121143329I3995J0D01*
G01*
X43060021Y-121144995D02*
G75*
G02X43059292Y-121148297I-7840J0D01*
G01*
X43020677Y-121231421D02*
X43059292Y-121148297D01*
X42977758Y-121323339D02*
X43020677Y-121231421D01*
X42927442Y-121430277D02*
X42977758Y-121323339D01*
X42904537Y-121478174D02*
X42927442Y-121430277D01*
X42876801Y-121534980D02*
X42904537Y-121478174D01*
X42847730Y-121593998D02*
X42876801Y-121534980D01*
X42847731Y-121593997D02*
G75*
G02X42845022Y-121597777I-12801J6311D01*
G01*
X42843589Y-121599614D02*
G75*
G02X42845022Y-121597777I8150J-4881D01*
G01*
X42840177Y-121605418D02*
X42843588Y-121599615D01*
X42836238Y-121612435D02*
X42840177Y-121605418D01*
X42832041Y-121620277D02*
X42836238Y-121612435D01*
X42823008Y-121637116D02*
X42832041Y-121620277D01*
X42812309Y-121656309D02*
X42823008Y-121637116D01*
X42801117Y-121675799D02*
X42812309Y-121656309D01*
X42790563Y-121693576D02*
X42801117Y-121675799D01*
X42786359Y-121700601D02*
X42790563Y-121693576D01*
X42779895Y-121711546D02*
X42786359Y-121700601D01*
X42772630Y-121723921D02*
X42779895Y-121711546D01*
X42765538Y-121736076D02*
X42772630Y-121723921D01*
X42765539Y-121736076D02*
G75*
G02X42676513Y-121874537I-1594117J927112D01*
G01*
X42560765Y-122028716D02*
X42676513Y-121874537D01*
X42429379Y-122185115D02*
X42560765Y-122028716D01*
X42292561Y-122330767D02*
X42429379Y-122185115D01*
X42292561Y-122330767D02*
G75*
G02X42012462Y-122588051I-2992746J2977019D01*
G01*
X41702444Y-122826945D02*
X42012462Y-122588051D01*
X41346530Y-123058868D02*
X41702444Y-122826945D01*
X40927522Y-123295384D02*
X41346530Y-123058868D01*
X40907210Y-123306206D02*
X40927522Y-123295384D01*
X40883256Y-123319049D02*
X40907210Y-123306206D01*
X40859541Y-123331825D02*
X40883256Y-123319049D01*
X40840022Y-123342411D02*
X40859541Y-123331825D01*
X40822766Y-123351769D02*
X40840022Y-123342411D01*
X40806062Y-123360749D02*
X40822766Y-123351769D01*
X40791782Y-123368359D02*
X40806062Y-123360749D01*
X40784097Y-123372337D02*
X40791782Y-123368359D01*
X40767847Y-123382144D02*
G75*
G02X40784097Y-123372337I73169J-102870D01*
G01*
X40751467Y-123395234D02*
G75*
G02X40767847Y-123382145I125077J-139731D01*
G01*
X40738112Y-123408375D02*
G75*
G02X40751467Y-123395234I145858J-134885D01*
G01*
X40735021Y-123416267D02*
G75*
G02X40738111Y-123408375I11624J0D01*
G01*
X40735871Y-123419781D02*
G75*
G02X40735022Y-123416267I6849J3514D01*
G01*
X40738155Y-123421737D02*
G75*
G02X40735870Y-123419780I1247J3768D01*
G01*
X40742397Y-123422198D02*
G75*
G02X40738155Y-123421737I-1044J10127D01*
G01*
X40749641Y-123421103D02*
G75*
G02X40742398Y-123422199I-15184J75919D01*
G01*
X40768149Y-123415366D02*
G75*
G02X40749641Y-123421104I-36945J86448D01*
G01*
X40828992Y-123389023D02*
X40768149Y-123415366D01*
X40896972Y-123358528D02*
X40828992Y-123389023D01*
X40965022Y-123326643D02*
X40896972Y-123358528D01*
X40988044Y-123315656D02*
X40965022Y-123326643D01*
X41013850Y-123303400D02*
X40988044Y-123315656D01*
X41038478Y-123291750D02*
X41013850Y-123303400D01*
X41057522Y-123282798D02*
X41038478Y-123291750D01*
X41077497Y-123273393D02*
X41057522Y-123282798D01*
X41105600Y-123260054D02*
X41077497Y-123273393D01*
X41136247Y-123245444D02*
X41105600Y-123260054D01*
X41165022Y-123231661D02*
X41136247Y-123245444D01*
X41219936Y-123205361D02*
X41165022Y-123231661D01*
X41261702Y-123185535D02*
X41219936Y-123205361D01*
X41296707Y-123169148D02*
X41261702Y-123185535D01*
X41330022Y-123153816D02*
X41296707Y-123169148D01*
X41365354Y-123137574D02*
X41330022Y-123153816D01*
X41431774Y-123106749D02*
X41365354Y-123137574D01*
X41499694Y-123075132D02*
X41431774Y-123106749D01*
X41547522Y-123052733D02*
X41499694Y-123075132D01*
X41694502Y-122984657D02*
X41547522Y-123052733D01*
X41845333Y-122916903D02*
X41694502Y-122984657D01*
X41983653Y-122856658D02*
X41845333Y-122916903D01*
X42090022Y-122812680D02*
X41983653Y-122856658D01*
X42143337Y-122791611D02*
X42090022Y-122812680D01*
X42178135Y-122778359D02*
X42143337Y-122791611D01*
X42207932Y-122767769D02*
X42178135Y-122778359D01*
X42242522Y-122756289D02*
X42207932Y-122767769D01*
X42301620Y-122738467D02*
X42242522Y-122756289D01*
X42363071Y-122722384D02*
X42301620Y-122738467D01*
X42424574Y-122708597D02*
X42363071Y-122722384D01*
X42483822Y-122697669D02*
X42424574Y-122708597D01*
X42525789Y-122691782D02*
X42483822Y-122697669D01*
X42561324Y-122688975D02*
X42525789Y-122691782D01*
X42605896Y-122688261D02*
X42561324Y-122688975D01*
X42686322Y-122689370D02*
X42605896Y-122688261D01*
X42743234Y-122690735D02*
X42686322Y-122689370D01*
X42801607Y-122692737D02*
X42743234Y-122690735D01*
X42853546Y-122695032D02*
X42801607Y-122692737D01*
X42887522Y-122697267D02*
X42853546Y-122695032D01*
X42918287Y-122699702D02*
X42887522Y-122697267D01*
X42957662Y-122702627D02*
X42918287Y-122699702D01*
X42998691Y-122705545D02*
X42957662Y-122702627D01*
X43035022Y-122707990D02*
X42998691Y-122705545D01*
X43072057Y-122710418D02*
X43035022Y-122707990D01*
X43115318Y-122713293D02*
X43072057Y-122710418D01*
X43157867Y-122716150D02*
X43115318Y-122713293D01*
X43192522Y-122718510D02*
X43157867Y-122716150D01*
X43245145Y-122720680D02*
X43192522Y-122718510D01*
X43437897Y-122723130D02*
X43245145Y-122720680D01*
X43666132Y-122725346D02*
X43437897Y-122723130D01*
X43922522Y-122726997D02*
X43666132Y-122725346D01*
X44260194Y-122728974D02*
X43922522Y-122726997D01*
X44446598Y-122730953D02*
X44260194Y-122728974D01*
X44575267Y-122733028D02*
X44446598Y-122730953D01*
X44575267Y-122733028D02*
G75*
G02X44588772Y-122736729I-500J-28318D01*
G01*
X44588772Y-122736728D02*
G75*
G02X44597766Y-122745160I-13045J-22929D01*
G01*
X44597766Y-122745160D02*
G75*
G02X44600023Y-122755412I-12281J-8079D01*
G01*
X44600023Y-122755413D02*
G75*
G02X44594871Y-122765674I-18220J2725D01*
G01*
X44594870Y-122765673D02*
G75*
G02X44583207Y-122773943I-29662J29474D01*
G01*
X44583208Y-122773944D02*
G75*
G02X44565174Y-122781131I-63623J133418D01*
G01*
X44500776Y-122801805D02*
X44565174Y-122781131D01*
X44438093Y-122821392D02*
X44500776Y-122801805D01*
X44402522Y-122831377D02*
X44438093Y-122821392D01*
X44273171Y-122868169D02*
X44402522Y-122831377D01*
X44098786Y-122925203D02*
X44273171Y-122868169D01*
X43919767Y-122988251D02*
X44098786Y-122925203D01*
X43772522Y-123045274D02*
X43919767Y-122988251D01*
X43649199Y-123098078D02*
X43772522Y-123045274D01*
X43503927Y-123164591D02*
X43649199Y-123098078D01*
X43362600Y-123232490D02*
X43503927Y-123164591D01*
X43252522Y-123289199D02*
X43362600Y-123232490D01*
X43118504Y-123360433D02*
X43252522Y-123289199D01*
X43033440Y-123402696D02*
X43118504Y-123360433D01*
X42958987Y-123435131D02*
X43033440Y-123402696D01*
X42867522Y-123470178D02*
X42958987Y-123435131D01*
X42792423Y-123497307D02*
X42867522Y-123470178D01*
X42752851Y-123510723D02*
X42792423Y-123497307D01*
X42713400Y-123522598D02*
X42752851Y-123510723D01*
X42640022Y-123543034D02*
X42713400Y-123522598D01*
X42520804Y-123572545D02*
X42640022Y-123543034D01*
X42383620Y-123600279D02*
X42520804Y-123572545D01*
X42245884Y-123623156D02*
X42383620Y-123600279D01*
X42125022Y-123637838D02*
X42245884Y-123623156D01*
X42101013Y-123640138D02*
X42125022Y-123637838D01*
X42066506Y-123643487D02*
X42101013Y-123640138D01*
X42028547Y-123647195D02*
X42066506Y-123643487D01*
X41992522Y-123650739D02*
X42028547Y-123647195D01*
X41858935Y-123658145D02*
X41992522Y-123650739D01*
X41586190Y-123659806D02*
X41858935Y-123658145D01*
X41313070Y-123657895D02*
X41586190Y-123659806D01*
X41157522Y-123650622D02*
X41313070Y-123657895D01*
X40684700Y-123617876D02*
X40726901Y-123618134D01*
X40680021Y-123622584D02*
G75*
G02X40684700Y-123617876I4709J-1D01*
G01*
X40681145Y-123624719D02*
G75*
G02X40680022Y-123622585I1466J2134D01*
G01*
X40685529Y-123627293D02*
G75*
G02X40681144Y-123624719I15819J31971D01*
G01*
X39610636Y-121888155D02*
X39594341Y-121858062D01*
X39621221Y-121907777D02*
X39610636Y-121888155D01*
X41011249Y-122283226D02*
X40964982Y-122380277D01*
X41096807Y-122112328D02*
X41011249Y-122283226D01*
X41183548Y-121941636D02*
X41096807Y-122112328D01*
X41224269Y-121866527D02*
X41183548Y-121941636D01*
X41238678Y-121841366D02*
X41224269Y-121866527D01*
X41249929Y-121821636D02*
X41238678Y-121841366D01*
X41259609Y-121804555D02*
X41249929Y-121821636D01*
X41269048Y-121787777D02*
X41259609Y-121804555D01*
X41275983Y-121775624D02*
X41269048Y-121787777D01*
X41287590Y-121755731D02*
X41275983Y-121775624D01*
X41300976Y-121732985D02*
X41287590Y-121755731D01*
X41314458Y-121710277D02*
X41300976Y-121732985D01*
X41327575Y-121688268D02*
X41314458Y-121710277D01*
X41339864Y-121667624D02*
X41327575Y-121688268D01*
X41350197Y-121650243D02*
X41339864Y-121667624D01*
X41354889Y-121642307D02*
X41350197Y-121650243D01*
X41399259Y-121570233D02*
X41354889Y-121642307D01*
X41462393Y-121473837D02*
X41399259Y-121570233D01*
X41529939Y-121374271D02*
X41462393Y-121473837D01*
X41589543Y-121290277D02*
X41529939Y-121374271D01*
X41646819Y-121213641D02*
X41589543Y-121290277D01*
X41717177Y-121123061D02*
X41646819Y-121213641D01*
X41784639Y-121038542D02*
X41717177Y-121123061D01*
X41827847Y-120987777D02*
X41784639Y-121038542D01*
X43135064Y-120981889D02*
X43144416Y-120961958D01*
X43127187Y-120998945D02*
X43135064Y-120981889D01*
X43120294Y-121014044D02*
X43127187Y-120998945D01*
X43120022Y-121015299D02*
G75*
G02X43120294Y-121014044I3026J0D01*
G01*
X39575985Y-121824222D02*
X39558037Y-121791194D01*
X39594341Y-121858062D02*
X39575985Y-121824222D01*
X42412904Y-124882618D02*
G75*
G02X42412962Y-124890934I-10582J-4233D01*
G01*
X42412961Y-124890934D02*
G75*
G02X42410571Y-124893771I-5287J2029D01*
G01*
X42410571Y-124893771D02*
G75*
G02X42405675Y-124895933I-11328J19028D01*
G01*
X42405675Y-124895934D02*
G75*
G02X42398837Y-124897326I-10822J35655D01*
G01*
X42398838Y-124897325D02*
G75*
G02X42390414Y-124897777I-8424J78322D01*
G01*
X40893609Y-122541378D02*
X40885721Y-122560277D01*
X40920843Y-122479384D02*
X40893609Y-122541378D01*
X40947720Y-122418594D02*
X40920843Y-122479384D01*
X40964982Y-122380277D02*
X40947720Y-122418594D01*
X42390414Y-124897778D02*
G75*
G02X42375921Y-124896825I0J110737D01*
G01*
X42375921Y-124896825D02*
G75*
G02X42363016Y-124893965I9971J75534D01*
G01*
X42363016Y-124893965D02*
G75*
G02X42346281Y-124887761I53575J170197D01*
G01*
X42315022Y-124874046D02*
X42346281Y-124887761D01*
X42251838Y-124847762D02*
X42315022Y-124874046D01*
X42185736Y-124824319D02*
X42251838Y-124847762D01*
X42114120Y-124802862D02*
X42185736Y-124824319D01*
X42034294Y-124782548D02*
X42114120Y-124802862D01*
X41897606Y-124749292D02*
X42034294Y-124782548D01*
X39630128Y-121924323D02*
X39621221Y-121907777D01*
X39640235Y-121943074D02*
X39630128Y-121924323D01*
X40753305Y-122886243D02*
X40744490Y-122906661D01*
X40763179Y-122862378D02*
X40753305Y-122886243D01*
X40774497Y-122834151D02*
X40763179Y-122862378D01*
X40787768Y-122800277D02*
X40774497Y-122834151D01*
X40793655Y-122785324D02*
X40787768Y-122800277D01*
X40800109Y-122769333D02*
X40793655Y-122785324D01*
X40806173Y-122754627D02*
X40800109Y-122769333D01*
X41652408Y-123962178D02*
G75*
G02X41790509Y-124065987I-743206J-1132487D01*
G01*
X41790509Y-124065987D02*
G75*
G02X41908604Y-124181641I-808447J-943632D01*
G01*
X41908604Y-124181641D02*
G75*
G02X42001099Y-124304225I-691614J-618042D01*
G01*
X42093113Y-124447827D02*
X42001099Y-124304225D01*
X42158325Y-124544131D02*
X42093113Y-124447827D01*
X42219278Y-124626381D02*
X42158325Y-124544131D01*
X42294380Y-124720045D02*
X42219278Y-124626381D01*
X42337947Y-124772822D02*
X42294380Y-124720045D01*
X42351771Y-124789809D02*
X42337947Y-124772822D01*
X42362079Y-124803035D02*
X42351771Y-124789809D01*
X40134498Y-119270277D02*
X40120636Y-119320269D01*
X40810691Y-122744082D02*
X40806173Y-122754627D01*
X40814264Y-122735606D02*
X40810691Y-122744082D01*
X40817281Y-122727667D02*
X40814264Y-122735606D01*
X40819553Y-122720959D02*
X40817281Y-122727667D01*
X40820021Y-122717966D02*
G75*
G02X40819553Y-122720959I-9805J0D01*
G01*
X40820021Y-122717965D02*
G75*
G02X40820501Y-122714968I9600J-1D01*
G01*
X40822848Y-122708209D02*
X40820501Y-122714968D01*
X40825958Y-122700210D02*
X40822848Y-122708209D01*
X40829642Y-122691661D02*
X40825958Y-122700210D01*
X40843866Y-122659784D02*
X40829642Y-122691661D01*
X40852969Y-122638632D02*
X40843866Y-122659784D01*
X40859166Y-122623491D02*
X40852969Y-122638632D01*
X40860007Y-122619082D02*
G75*
G02X40859166Y-122623491I-11749J-43D01*
G01*
X40860007Y-122619082D02*
G75*
G02X40860459Y-122616632I6738J25D01*
G01*
X40863194Y-122609786D02*
X40860459Y-122616632D01*
X40866707Y-122601673D02*
X40863194Y-122609786D01*
X40870874Y-122592777D02*
X40866707Y-122601673D01*
X40875330Y-122583430D02*
X40870874Y-122592777D01*
X40879723Y-122573949D02*
X40875330Y-122583430D01*
X40883495Y-122565577D02*
X40879723Y-122573949D01*
X40885721Y-122560277D02*
X40883495Y-122565577D01*
X42377281Y-124823316D02*
X42362079Y-124803035D01*
X42393683Y-124846689D02*
X42377281Y-124823316D01*
X42393683Y-124846690D02*
G75*
G02X42405528Y-124866666I-194982J-129113D01*
G01*
X42405528Y-124866666D02*
G75*
G02X42412903Y-124882618I-148143J-78170D01*
G01*
X41837272Y-120977192D02*
X41827847Y-120987777D01*
X41857031Y-120954856D02*
X41837272Y-120977192D01*
X41880430Y-120928361D02*
X41857031Y-120954856D01*
X41905193Y-120900277D02*
X41880430Y-120928361D01*
X42013704Y-120783304D02*
X41905193Y-120900277D01*
X42146053Y-120652079D02*
X42013704Y-120783304D01*
X42277297Y-120530085D02*
X42146053Y-120652079D01*
X42380250Y-120444220D02*
X42277297Y-120530085D01*
X42467428Y-120378727D02*
X42380250Y-120444220D01*
X42546415Y-120323278D02*
X42467428Y-120378727D01*
X42648457Y-120256351D02*
X42546415Y-120323278D01*
X42827522Y-120142769D02*
X42648457Y-120256351D01*
X42889629Y-120103344D02*
X42827522Y-120142769D01*
X42956365Y-120060469D02*
X42889629Y-120103344D01*
X43017965Y-120020471D02*
X42956365Y-120060469D01*
X43062522Y-119990991D02*
X43017965Y-120020471D01*
X43197222Y-119899298D02*
X43062522Y-119990991D01*
X43320866Y-119812251D02*
X43197222Y-119899298D01*
X43468690Y-119704774D02*
X43320866Y-119812251D01*
X43690022Y-119540957D02*
X43468690Y-119704774D01*
X43733928Y-119508350D02*
X43690022Y-119540957D01*
X43776959Y-119476446D02*
X43733928Y-119508350D01*
X43814011Y-119449020D02*
X43776959Y-119476446D01*
X43835022Y-119433543D02*
X43814011Y-119449020D01*
X43851209Y-119421646D02*
X43835022Y-119433543D01*
X43868850Y-119408643D02*
X43851209Y-119421646D01*
X43885320Y-119396471D02*
X43868850Y-119408643D01*
X43897522Y-119387414D02*
X43885320Y-119396471D01*
X43937477Y-119359270D02*
X43897522Y-119387414D01*
X43992952Y-119323208D02*
X43937477Y-119359270D01*
X44049438Y-119287759D02*
X43992952Y-119323208D01*
X44049438Y-119287760D02*
G75*
G02X44064761Y-119281269I28471J-45884D01*
G01*
X44064761Y-119281268D02*
G75*
G02X44077504Y-119279947I10974J-43717D01*
G01*
X44077504Y-119279947D02*
G75*
G02X44084070Y-119284069I-305J-7776D01*
G01*
X44084070Y-119284070D02*
G75*
G02X44084527Y-119292656I-8997J-4784D01*
G01*
X44084527Y-119292655D02*
G75*
G02X44077667Y-119305539I-63438J25510D01*
G01*
X44065329Y-119322507D02*
X44077667Y-119305539D01*
X44045976Y-119346851D02*
X44065329Y-119322507D01*
X44026429Y-119370518D02*
X44045976Y-119346851D01*
X44026429Y-119370517D02*
G75*
G02X44016963Y-119380277I-72727J61071D01*
G01*
X43999895Y-119398072D02*
G75*
G02X44016963Y-119380277I123500J-101373D01*
G01*
X43945948Y-119464257D02*
X43999895Y-119398072D01*
X43891922Y-119531904D02*
X43945948Y-119464257D01*
X43851038Y-119585277D02*
X43891922Y-119531904D01*
X43774034Y-119693698D02*
X43851038Y-119585277D01*
X43713980Y-119789678D02*
X43774034Y-119693698D01*
X43648409Y-119910452D02*
X43713980Y-119789678D01*
X43545463Y-120115277D02*
X43648409Y-119910452D01*
X43512314Y-120182396D02*
X43545463Y-120115277D01*
X43482337Y-120243418D02*
X43512314Y-120182396D01*
X43457300Y-120294652D02*
X43482337Y-120243418D01*
X43448740Y-120312777D02*
X43457300Y-120294652D01*
X43433870Y-120344997D02*
X43448740Y-120312777D01*
X43398656Y-120420485D02*
X43433870Y-120344997D01*
X43363434Y-120495815D02*
X43398656Y-120420485D01*
X43342505Y-120540277D02*
X43363434Y-120495815D01*
X43336270Y-120553483D02*
X43342505Y-120540277D01*
X43326572Y-120574090D02*
X43336270Y-120553483D01*
X43315623Y-120597387D02*
X43326572Y-120574090D01*
X43304881Y-120620277D02*
X43315623Y-120597387D01*
X43252656Y-120731614D02*
X43304881Y-120620277D01*
X43205466Y-120832138D02*
X43252656Y-120731614D01*
X43166565Y-120914935D02*
X43205466Y-120832138D01*
X43144416Y-120961958D02*
X43166565Y-120914935D01*
X39956089Y-120270173D02*
X39950432Y-120347777D01*
X39991414Y-119934273D02*
X39989359Y-119951746D01*
X39999812Y-121775277D02*
X40002112Y-121791881D01*
X37720022Y-123404199D02*
X37785345Y-123431444D01*
X37672193Y-123382386D02*
X37720022Y-123404199D01*
X37596008Y-123345116D02*
X37672193Y-123382386D01*
X37513874Y-123304229D02*
X37596008Y-123345116D01*
X38458715Y-122667712D02*
G75*
G02X38537077Y-122677867I-68767J-838110D01*
G01*
X38634167Y-122697547D02*
X38537077Y-122677867D01*
X38738541Y-122723880D02*
X38634167Y-122697547D01*
X38840022Y-122754629D02*
X38738541Y-122723880D01*
X38911345Y-122778648D02*
X38840022Y-122754629D01*
X38962918Y-122797344D02*
X38911345Y-122778648D01*
X39014767Y-122818060D02*
X38962918Y-122797344D01*
X39087522Y-122848978D02*
X39014767Y-122818060D01*
X39136095Y-122871297D02*
X39087522Y-122848978D01*
X39222054Y-122913707D02*
X39136095Y-122871297D01*
X39307800Y-122957003D02*
X39222054Y-122913707D01*
X39357522Y-122983724D02*
X39307800Y-122957003D01*
X39374485Y-122993290D02*
X39357522Y-122983724D01*
X39392381Y-123003359D02*
X39374485Y-122993290D01*
X39408665Y-123012503D02*
X39392381Y-123003359D01*
X39420022Y-123018855D02*
X39408665Y-123012503D01*
X39467579Y-123046350D02*
X39420022Y-123018855D01*
X39529264Y-123083880D02*
X39467579Y-123046350D01*
X39594127Y-123124579D02*
X39529264Y-123083880D01*
X39652522Y-123162529D02*
X39594127Y-123124579D01*
X39769621Y-123239782D02*
X39652522Y-123162529D01*
X39784217Y-123242895D02*
G75*
G02X39769621Y-123239782I-3296J20324D01*
G01*
X39785880Y-123236626D02*
G75*
G02X39784217Y-123242894I-2231J-2763D01*
G01*
X39686635Y-123156997D02*
X39785879Y-123236626D01*
X39576355Y-123068615D02*
X39686635Y-123156997D01*
X39455655Y-122971064D02*
X39576355Y-123068615D01*
X39346190Y-122882022D02*
X39455655Y-122971064D01*
X39297522Y-122841366D02*
X39346190Y-122882022D01*
X39060218Y-122628564D02*
X39297522Y-122841366D01*
X38831976Y-122403889D02*
X39060218Y-122628564D01*
X38626302Y-122181368D02*
X38831976Y-122403889D01*
X38457522Y-121975413D02*
X38626302Y-122181368D01*
X38447035Y-121961730D02*
X38457522Y-121975413D01*
X38430933Y-121940881D02*
X38447035Y-121961730D01*
X38412804Y-121917489D02*
X38430933Y-121940881D01*
X38395094Y-121894720D02*
X38412804Y-121917489D01*
X38350771Y-121836679D02*
X38395094Y-121894720D01*
X38298022Y-121765362D02*
X38350771Y-121836679D01*
X38243294Y-121689659D02*
X38298022Y-121765362D01*
X38192611Y-121617777D02*
X38243294Y-121689659D01*
X38115794Y-121505183D02*
X38192611Y-121617777D01*
X38003314Y-121336047D02*
X38115794Y-121505183D01*
X37892960Y-121168079D02*
X38003314Y-121336047D01*
X37827810Y-121065811D02*
X37892960Y-121168079D01*
X37812852Y-121041839D02*
X37827810Y-121065811D01*
X37793501Y-121011028D02*
X37812852Y-121041839D01*
X37773210Y-120978853D02*
X37793501Y-121011028D01*
X37755098Y-120950277D02*
X37773210Y-120978853D01*
X37732466Y-120914465D02*
X37755098Y-120950277D01*
X37694344Y-120853699D02*
X37732466Y-120914465D01*
X37650478Y-120783586D02*
X37694344Y-120853699D01*
X37606299Y-120712777D02*
X37650478Y-120783586D01*
X37563762Y-120644522D02*
X37606299Y-120712777D01*
X37524866Y-120582137D02*
X37563762Y-120644522D01*
X37492249Y-120529846D02*
X37524866Y-120582137D01*
X37480010Y-120510277D02*
X37492249Y-120529846D01*
X37437630Y-120441590D02*
X37480010Y-120510277D01*
X37367790Y-120326106D02*
X37437630Y-120441590D01*
X37297729Y-120209490D02*
X37367790Y-120326106D01*
X37272165Y-120165277D02*
X37297729Y-120209490D01*
X37269328Y-120160248D02*
X37272165Y-120165277D01*
X37265217Y-120153074D02*
X37269328Y-120160248D01*
X37260674Y-120145211D02*
X37265217Y-120153074D01*
X37256342Y-120137777D02*
X37260674Y-120145211D01*
X37227044Y-120087083D02*
X37256342Y-120137777D01*
X37168968Y-119985057D02*
X37227044Y-120087083D01*
X37110346Y-119881702D02*
X37168968Y-119985057D01*
X37088754Y-119842777D02*
X37110346Y-119881702D01*
X37079351Y-119825536D02*
X37088754Y-119842777D01*
X37067835Y-119804543D02*
X37079351Y-119825536D01*
X37056140Y-119783314D02*
X37067835Y-119804543D01*
X37046150Y-119765277D02*
X37056140Y-119783314D01*
X37017394Y-119710797D02*
X37046150Y-119765277D01*
X36962647Y-119600518D02*
X37017394Y-119710797D01*
X36902078Y-119477345D02*
X36962647Y-119600518D01*
X36902079Y-119477345D02*
G75*
G02X36900022Y-119468491I18028J8854D01*
G01*
X36899530Y-119465636D02*
G75*
G02X36900022Y-119468491I-8045J-2855D01*
G01*
X36897209Y-119459477D02*
X36899530Y-119465636D01*
X36894113Y-119452210D02*
X36897209Y-119459477D01*
X36890446Y-119444500D02*
X36894113Y-119452210D01*
X36890446Y-119444500D02*
G75*
G02X36875567Y-119410779I353949J176315D01*
G01*
X36862376Y-119372674D02*
X36875567Y-119410779D01*
X36852797Y-119337022D02*
X36862376Y-119372674D01*
X36852798Y-119337021D02*
G75*
G02X36850022Y-119312709I105091J24312D01*
G01*
X36850022Y-119312709D02*
G75*
G02X36852313Y-119301889I26694J0D01*
G01*
X36852313Y-119301889D02*
G75*
G02X36858734Y-119293767I19006J-8428D01*
G01*
X36858734Y-119293767D02*
G75*
G02X36868045Y-119289963I11741J-15439D01*
G01*
X36868045Y-119289963D02*
G75*
G02X36878409Y-119291121I2783J-22042D01*
G01*
X39799378Y-123249505D02*
G75*
G02X39807816Y-123255118I-42084J-72409D01*
G01*
X39793690Y-123248010D02*
G75*
G02X39799378Y-123249505I137J-11046D01*
G01*
X39792163Y-123250169D02*
G75*
G02X39793690Y-123248010I1547J525D01*
G01*
X39795021Y-123255277D02*
G75*
G02X39792163Y-123250169I12406J10295D01*
G01*
X39798004Y-123258135D02*
G75*
G02X39795022Y-123255277I10995J14458D01*
G01*
X39801808Y-123260528D02*
G75*
G02X39798004Y-123258136I11528J22553D01*
G01*
X39805813Y-123262133D02*
G75*
G02X39801808Y-123260528I6762J22671D01*
G01*
X39809384Y-123262619D02*
G75*
G02X39805813Y-123262133I-229J11691D01*
G01*
X39813439Y-123262263D02*
G75*
G02X39809384Y-123262618I-4642J29680D01*
G01*
X39814221Y-123261131D02*
G75*
G02X39813438Y-123262263I-929J-194D01*
G01*
X39813100Y-123259282D02*
G75*
G02X39814221Y-123261131I-2062J-2515D01*
G01*
X39807816Y-123255118D02*
X39813100Y-123259282D01*
X40582574Y-117069496D02*
G75*
G02X40591771Y-117060571I24520J-16067D01*
G01*
X40591771Y-117060571D02*
G75*
G02X40602879Y-117057745I10107J-16484D01*
G01*
X40602879Y-117057745D02*
G75*
G02X40613607Y-117061707I-996J-19203D01*
G01*
X40613606Y-117061707D02*
G75*
G02X40621759Y-117071527I-17650J-22947D01*
G01*
X40621760Y-117071527D02*
G75*
G02X40633695Y-117104885I-124673J-63421D01*
G01*
X40649153Y-117180779D02*
X40633695Y-117104885D01*
X40666249Y-117280893D02*
X40649153Y-117180779D01*
X40684771Y-117407777D02*
X40666249Y-117280893D01*
X40689195Y-117439649D02*
X40684771Y-117407777D01*
X40693664Y-117471324D02*
X40689195Y-117439649D01*
X40697609Y-117498853D02*
X40693664Y-117471324D01*
X40700058Y-117515277D02*
X40697609Y-117498853D01*
X40702198Y-117529274D02*
X40700058Y-117515277D01*
X40704846Y-117546746D02*
X40702198Y-117529274D01*
X40707550Y-117564693D02*
X40704846Y-117546746D01*
X40709879Y-117580277D02*
X40707550Y-117564693D01*
X40750474Y-117845675D02*
X40709879Y-117580277D01*
X40782146Y-118033530D02*
X40750474Y-117845675D01*
X40812899Y-118191341D02*
X40782146Y-118033530D01*
X40849454Y-118355379D02*
X40812899Y-118191341D01*
X40874492Y-118458731D02*
X40849454Y-118355379D01*
X40906786Y-118586990D02*
X40874492Y-118458731D01*
X40938947Y-118712230D02*
X40906786Y-118586990D01*
X40949546Y-118747777D02*
X40938947Y-118712230D01*
X40951577Y-118754390D02*
X40949546Y-118747777D01*
X40954324Y-118764684D02*
X40951577Y-118754390D01*
X40957226Y-118776332D02*
X40954324Y-118764684D01*
X40959866Y-118787777D02*
X40957226Y-118776332D01*
X40962509Y-118799406D02*
X40959866Y-118787777D01*
X40965418Y-118811606D02*
X40962509Y-118799406D01*
X40968167Y-118822654D02*
X40965418Y-118811606D01*
X40970219Y-118830277D02*
X40968167Y-118822654D01*
X40991211Y-118911306D02*
X40970219Y-118830277D01*
X41020319Y-119039530D02*
X40991211Y-118911306D01*
X41047583Y-119167148D02*
X41020319Y-119039530D01*
X41060471Y-119240277D02*
X41047583Y-119167148D01*
X41062659Y-119254272D02*
X41060471Y-119240277D01*
X41065675Y-119271746D02*
X41062659Y-119254272D01*
X41068972Y-119289692D02*
X41065675Y-119271746D01*
X41072053Y-119305277D02*
X41068972Y-119289692D01*
X41083969Y-119371401D02*
X41072053Y-119305277D01*
X41098521Y-119470705D02*
X41083969Y-119371401D01*
X41113047Y-119582002D02*
X41098521Y-119470705D01*
X41125375Y-119690277D02*
X41113047Y-119582002D01*
X41133692Y-119777355D02*
X41125375Y-119690277D01*
X41141238Y-119873355D02*
X41133692Y-119777355D01*
X41149412Y-119996795D02*
X41141238Y-119873355D01*
X41159993Y-120175277D02*
X41149412Y-119996795D01*
X41164428Y-120311801D02*
X41159993Y-120175277D01*
X41163207Y-120473699D02*
X41164428Y-120311801D01*
D14*
X41156205Y-120680188D02*
X41163207Y-120473699D01*
X41142243Y-120960277D02*
X41156205Y-120680188D01*
D13*
X41138309Y-121013260D02*
X41142243Y-120960277D01*
X41129073Y-121107488D02*
X41138309Y-121013260D01*
X41118702Y-121204897D02*
X41129073Y-121107488D01*
X41109856Y-121277777D02*
X41118702Y-121204897D01*
X41107613Y-121295020D02*
X41109856Y-121277777D01*
X41104937Y-121316012D02*
X41107613Y-121295020D01*
X41102271Y-121337241D02*
X41104937Y-121316012D01*
X41100050Y-121355277D02*
X41102271Y-121337241D01*
X41097806Y-121372962D02*
X41100050Y-121355277D01*
X41095075Y-121393074D02*
X41097806Y-121372962D01*
X41092299Y-121412476D02*
X41095075Y-121393074D01*
X41089942Y-121427777D02*
X41092299Y-121412476D01*
X41087622Y-121442744D02*
X41089942Y-121427777D01*
X41084972Y-121461012D02*
X41087622Y-121442744D01*
X41082418Y-121479518D02*
X41084972Y-121461012D01*
X41080389Y-121495277D02*
X41082418Y-121479518D01*
X41061335Y-121617675D02*
X41080389Y-121495277D01*
X41021650Y-121819623D02*
X41061335Y-121617675D01*
X40978766Y-122021371D02*
X41021650Y-121819623D01*
X40947485Y-122145277D02*
X40978766Y-122021371D01*
X40944512Y-122155948D02*
X40947485Y-122145277D01*
X40941467Y-122167340D02*
X40944512Y-122155948D01*
X40938776Y-122177807D02*
X40941467Y-122167340D01*
X40936995Y-122185277D02*
X40938776Y-122177807D01*
X40927390Y-122223770D02*
X40936995Y-122185277D01*
X40897648Y-122331388D02*
X40927390Y-122223770D01*
X40867938Y-122437284D02*
X40897648Y-122331388D01*
X40850778Y-122495277D02*
X40867938Y-122437284D01*
X40846460Y-122509274D02*
X40850778Y-122495277D01*
X40841080Y-122526746D02*
X40846460Y-122509274D01*
X40835561Y-122544693D02*
X40841080Y-122526746D01*
X40830776Y-122560277D02*
X40835561Y-122544693D01*
X40813681Y-122614093D02*
X40830776Y-122560277D01*
X40782504Y-122708295D02*
X40813681Y-122614093D01*
X40749871Y-122805470D02*
X40782504Y-122708295D01*
X40724966Y-122877777D02*
X40749871Y-122805470D01*
X40714918Y-122906638D02*
X40724966Y-122877777D01*
X40705745Y-122933387D02*
X40714918Y-122906638D01*
X40698156Y-122955862D02*
X40705745Y-122933387D01*
X40695217Y-122965277D02*
X40698156Y-122955862D01*
X40692515Y-122974002D02*
X40695217Y-122965277D01*
X40686887Y-122990861D02*
X40692515Y-122974002D01*
X40680133Y-123010670D02*
X40686887Y-122990861D01*
X40672951Y-123031307D02*
X40680133Y-123010670D01*
X40655426Y-123084707D02*
X40672951Y-123031307D01*
X40655298Y-123104677D02*
G75*
G02X40655426Y-123084707I33535J9771D01*
G01*
X40662456Y-123105327D02*
G75*
G02X40655299Y-123104677I-3451J1730D01*
G01*
X40682120Y-123062777D02*
X40662455Y-123105327D01*
X40688098Y-123048783D02*
X40682120Y-123062777D01*
X40694664Y-123033598D02*
X40688098Y-123048783D01*
X40700839Y-123019472D02*
X40694664Y-123033598D01*
X40705464Y-123009082D02*
X40700839Y-123019472D01*
X40709124Y-123000664D02*
X40705464Y-123009082D01*
X40712214Y-122992904D02*
X40709124Y-123000664D01*
X40714584Y-122986362D02*
X40712214Y-122992904D01*
X40715021Y-122983771D02*
G75*
G02X40714584Y-122986362I-7897J0D01*
G01*
X40715021Y-122983771D02*
G75*
G02X40715482Y-122981197I7424J0D01*
G01*
X40717959Y-122974785D02*
X40715482Y-122981197D01*
X40721191Y-122967186D02*
X40717959Y-122974785D01*
X40725022Y-122958958D02*
X40721191Y-122967186D01*
X40728851Y-122950659D02*
X40725022Y-122958958D01*
X40732084Y-122942840D02*
X40728851Y-122950659D01*
X40734508Y-122936216D02*
X40732084Y-122942840D01*
X40735021Y-122933153D02*
G75*
G02X40734508Y-122936216I-9398J0D01*
G01*
X40735022Y-122933153D02*
G75*
G02X40735503Y-122930064I10154J0D01*
G01*
X40737803Y-122923264D02*
X40735503Y-122930064D01*
X40740864Y-122915223D02*
X40737803Y-122923264D01*
X40744490Y-122906661D02*
X40740864Y-122915223D01*
X39514682Y-121708855D02*
X39510103Y-121700347D01*
X39514682Y-121708855D02*
G75*
G02X39515022Y-121710212I-2538J-1357D01*
G01*
X39504695Y-121690555D02*
X39498277Y-121679295D01*
X39510103Y-121700347D02*
X39504695Y-121690555D01*
X37513874Y-123304228D02*
G75*
G02X37505022Y-123297537I13556J27135D01*
G01*
X37503092Y-123295897D02*
G75*
G02X37505022Y-123297537I-5453J-8377D01*
G01*
X37495912Y-123291285D02*
X37503091Y-123295898D01*
X37487281Y-123285930D02*
X37495912Y-123291285D01*
X37477522Y-123280101D02*
X37487281Y-123285930D01*
X37467356Y-123274103D02*
X37477522Y-123280101D01*
X37457487Y-123268234D02*
X37467356Y-123274103D01*
X37449047Y-123263177D02*
X37457487Y-123268234D01*
X37444424Y-123260341D02*
X37449047Y-123263177D01*
X37440259Y-123257797D02*
X37444424Y-123260341D01*
X37434094Y-123254150D02*
X37440259Y-123257797D01*
X37427233Y-123250155D02*
X37434094Y-123254150D01*
X37420629Y-123246375D02*
X37427233Y-123250155D01*
X37420629Y-123246375D02*
G75*
G02X37410474Y-123239975I63669J112281D01*
G01*
X37382016Y-123220005D02*
X37410474Y-123239975D01*
X37348261Y-123195940D02*
X37382016Y-123220005D01*
X37311226Y-123169103D02*
X37348261Y-123195940D01*
X37133114Y-123046773D02*
X37311226Y-123169103D01*
X36986099Y-122963678D02*
G75*
G02X37133114Y-123046773I-631554J-1288984D01*
G01*
X36826951Y-122896610D02*
G75*
G02X36986098Y-122963679I-510715J-1434241D01*
G01*
X36608826Y-122824954D02*
X36826951Y-122896611D01*
X36576926Y-122815042D02*
X36608826Y-122824954D01*
X36576927Y-122815042D02*
G75*
G02X36566329Y-122810106I14167J44263D01*
G01*
X36566329Y-122810106D02*
G75*
G02X36561681Y-122804159I5938J9430D01*
G01*
X36561681Y-122804159D02*
G75*
G02X36560076Y-122794254I30438J10015D01*
G01*
X36560076Y-122794254D02*
G75*
G02X36560628Y-122785206I70514J241D01*
G01*
X41785632Y-124719595D02*
X41897606Y-124749292D01*
X41698054Y-124693690D02*
X41785632Y-124719595D01*
X41698055Y-124693690D02*
G75*
G02X41642522Y-124673101I169046J541143D01*
G01*
X41637486Y-124671027D02*
X41642522Y-124673101D01*
X41630318Y-124668265D02*
X41637486Y-124671027D01*
X41622455Y-124665344D02*
X41630318Y-124668265D01*
X41615022Y-124662696D02*
X41622455Y-124665344D01*
X41607177Y-124659863D02*
X41615022Y-124662696D01*
X41598034Y-124656363D02*
X41607177Y-124659863D01*
X41589059Y-124652778D02*
X41598034Y-124656363D01*
X41581766Y-124649691D02*
X41589059Y-124652778D01*
X41575511Y-124647043D02*
X41581766Y-124649691D01*
X41569752Y-124644808D02*
X41575511Y-124647043D01*
X41564899Y-124643092D02*
X41569752Y-124644808D01*
X41562993Y-124642777D02*
G75*
G02X41564899Y-124643092I0J-5933D01*
G01*
X41562993Y-124642778D02*
G75*
G02X41559189Y-124642029I0J10037D01*
G01*
X41464667Y-124603305D02*
X41559189Y-124642029D01*
X41381032Y-124568860D02*
X41464667Y-124603305D01*
X41335022Y-124549343D02*
X41381032Y-124568860D01*
X41284226Y-124526283D02*
X41335022Y-124549343D01*
X41214035Y-124492512D02*
X41284226Y-124526283D01*
X41146005Y-124458811D02*
X41214035Y-124492512D01*
X41110022Y-124439386D02*
X41146005Y-124458811D01*
X41084250Y-124424488D02*
X41110022Y-124439386D01*
X41065712Y-124413819D02*
X41084250Y-124424488D01*
X41052040Y-124406010D02*
X41065712Y-124413819D01*
X41042522Y-124400665D02*
X41052040Y-124406010D01*
X41002423Y-124376144D02*
X41042522Y-124400665D01*
X40952352Y-124341071D02*
X41002423Y-124376144D01*
X40899465Y-124300893D02*
X40952352Y-124341071D01*
X40850022Y-124260105D02*
X40899465Y-124300893D01*
X40850022Y-124260106D02*
G75*
G02X40770238Y-124183873I695822J808099D01*
G01*
X40770238Y-124183873D02*
G75*
G02X40698595Y-124099661I781638J737557D01*
G01*
X40698596Y-124099661D02*
G75*
G02X40635002Y-124007259I878955J673003D01*
G01*
X40635001Y-124007258D02*
G75*
G02X40579292Y-123906527I1044989J643704D01*
G01*
X40566672Y-123882136D02*
X40579292Y-123906527D01*
X40558836Y-123871479D02*
G75*
G02X40566672Y-123882136I-34612J-33661D01*
G01*
X40552757Y-123869559D02*
G75*
G02X40558835Y-123871478I1254J-6611D01*
G01*
X40547112Y-123873439D02*
G75*
G02X40552758Y-123869558I7228J-4468D01*
G01*
X40545653Y-123878424D02*
G75*
G02X40547112Y-123873440I9773J-154D01*
G01*
X40543420Y-124021549D02*
X40545654Y-123878424D01*
X40541301Y-124181187D02*
X40543420Y-124021549D01*
X40539456Y-124369690D02*
X40541301Y-124181187D01*
X40537665Y-124558576D02*
X40539456Y-124369690D01*
X40535717Y-124719472D02*
X40537665Y-124558576D01*
X40533721Y-124862425D02*
X40535717Y-124719472D01*
X40533721Y-124862424D02*
G75*
G02X40532565Y-124871527I-41009J581D01*
G01*
X40532565Y-124871527D02*
G75*
G02X40531012Y-124875830I-20606J5007D01*
G01*
X40531011Y-124875830D02*
G75*
G02X40528627Y-124879473I-15676J7660D01*
G01*
X40528628Y-124879473D02*
G75*
G02X40525815Y-124881944I-9855J8380D01*
G01*
X40525814Y-124881943D02*
G75*
G02X40522998Y-124882777I-2816J4339D01*
G01*
X40522998Y-124882778D02*
G75*
G02X40518527Y-124881046I0J6637D01*
G01*
X40495478Y-124859837D02*
X40518527Y-124881046D01*
X40469013Y-124834616D02*
X40495478Y-124859837D01*
X40438906Y-124804683D02*
X40469013Y-124834616D01*
X40361648Y-124726588D02*
X40438906Y-124804683D01*
X40358335Y-124426359D02*
X40361648Y-124726588D01*
X40357066Y-124301023D02*
X40358335Y-124426359D01*
X40355995Y-124172704D02*
X40357066Y-124301023D01*
X40355237Y-124058674D02*
X40355995Y-124172704D01*
X40355022Y-123984454D02*
X40355237Y-124058674D01*
X40354720Y-123923849D02*
X40355022Y-123984454D01*
X40353728Y-123879717D02*
X40354720Y-123923849D01*
X40352369Y-123844990D02*
X40353728Y-123879717D01*
X40350060Y-123842777D02*
G75*
G02X40352369Y-123844990I-1J-2312D01*
G01*
X40347054Y-123844088D02*
G75*
G02X40350059Y-123842777I3005J-2787D01*
G01*
X40336630Y-123855560D02*
X40347055Y-123844089D01*
X40324618Y-123869615D02*
X40336630Y-123855560D01*
X40311309Y-123886292D02*
X40324618Y-123869615D01*
X40219679Y-123996929D02*
X40311309Y-123886292D01*
X40121336Y-124101497D02*
X40219679Y-123996929D01*
X40022618Y-124193723D02*
X40121336Y-124101497D01*
X40022618Y-124193723D02*
G75*
G02X39930022Y-124266907I-785138J898227D01*
G01*
X39793872Y-124357727D02*
X39930022Y-124266907D01*
X39660543Y-124434003D02*
X39793872Y-124357727D01*
X39520115Y-124500989D02*
X39660543Y-124434003D01*
X39362522Y-124563854D02*
X39520115Y-124500989D01*
X39306592Y-124583017D02*
X39362522Y-124563854D01*
X39214001Y-124612067D02*
X39306592Y-124583017D01*
X39120530Y-124640489D02*
X39214001Y-124612067D01*
X39120531Y-124640489D02*
G75*
G02X39085022Y-124649348I-111894J372905D01*
G01*
X39075788Y-124651427D02*
X39085022Y-124649348D01*
X39026256Y-124663853D02*
X39075788Y-124651427D01*
X38968574Y-124678414D02*
X39026256Y-124663853D01*
X38902522Y-124695214D02*
X38968574Y-124678414D01*
X38835223Y-124712309D02*
X38902522Y-124695214D01*
X38773647Y-124727802D02*
X38835223Y-124712309D01*
X38722000Y-124740673D02*
X38773647Y-124727802D01*
X38702522Y-124745258D02*
X38722000Y-124740673D01*
X38689392Y-124748201D02*
X38702522Y-124745258D01*
X38674725Y-124751527D02*
X38689392Y-124748201D01*
X38660765Y-124754724D02*
X38674725Y-124751527D01*
X38650022Y-124757222D02*
X38660765Y-124754724D01*
X38626495Y-124762411D02*
X38650022Y-124757222D01*
X38569890Y-124774006D02*
X38626495Y-124762411D01*
X38506655Y-124786751D02*
X38569890Y-124774006D01*
X38446570Y-124798613D02*
X38506655Y-124786751D01*
X38430754Y-124801291D02*
X38446570Y-124798613D01*
X38430754Y-124801291D02*
G75*
G02X38419488Y-124802124I-11660J81132D01*
G01*
X38419487Y-124802124D02*
G75*
G02X38410662Y-124801315I-221J46104D01*
G01*
X38410662Y-124801315D02*
G75*
G02X38402820Y-124798823I6419J33790D01*
G01*
X38402820Y-124798822D02*
G75*
G02X38393799Y-124785506I6402J14050D01*
G01*
X38393799Y-124785506D02*
G75*
G02X38399252Y-124766313I31269J1487D01*
G01*
X38399252Y-124766313D02*
G75*
G02X38427331Y-124731110I257590J-176662D01*
G01*
X38509998Y-124642550D02*
X38427331Y-124731110D01*
X38547172Y-124603045D02*
X38509998Y-124642550D01*
X38586499Y-124561019D02*
X38547172Y-124603045D01*
X38622351Y-124522510D02*
X38586499Y-124561019D01*
X38647522Y-124495213D02*
X38622351Y-124522510D01*
X38690178Y-124449392D02*
X38647522Y-124495213D01*
X38726361Y-124412256D02*
X38690178Y-124449392D01*
X38763224Y-124376564D02*
X38726361Y-124412256D01*
X38807926Y-124335277D02*
X38763224Y-124376564D01*
X38827115Y-124317823D02*
X38807926Y-124335277D01*
X38843687Y-124302653D02*
X38827115Y-124317823D01*
X38858008Y-124289477D02*
X38843687Y-124302653D01*
X38860021Y-124287406D02*
G75*
G02X38858008Y-124289477I-19819J17259D01*
G01*
X38860021Y-124287407D02*
G75*
G02X38862103Y-124285349I14795J-12883D01*
G01*
X38880147Y-124270015D02*
X38862103Y-124285349D01*
X38900885Y-124252487D02*
X38880147Y-124270015D01*
X38925022Y-124232231D02*
X38900885Y-124252487D01*
X39030470Y-124147248D02*
X38925022Y-124232231D01*
X39130076Y-124073754D02*
X39030470Y-124147248D01*
X39230113Y-124007287D02*
X39130076Y-124073754D01*
X39336795Y-123943515D02*
X39230113Y-124007287D01*
X39370714Y-123925268D02*
X39336795Y-123943515D01*
X39426262Y-123897389D02*
X39370714Y-123925268D01*
X39482493Y-123869994D02*
X39426262Y-123897389D01*
X39520022Y-123852890D02*
X39482493Y-123869994D01*
X39559757Y-123835775D02*
X39520022Y-123852890D01*
X39579737Y-123827382D02*
X39559757Y-123835775D01*
X39595779Y-123821025D02*
X39579737Y-123827382D01*
X39616272Y-123813347D02*
X39595779Y-123821025D01*
X39629186Y-123808599D02*
X39616272Y-123813347D01*
X39644287Y-123803046D02*
X39629186Y-123808599D01*
X39659151Y-123797580D02*
X39644287Y-123803046D01*
X39671272Y-123793122D02*
X39659151Y-123797580D01*
X39706104Y-123781114D02*
X39671272Y-123793122D01*
X39763274Y-123763030D02*
X39706104Y-123781114D01*
X39820340Y-123745577D02*
X39763274Y-123763030D01*
X39847522Y-123738372D02*
X39820340Y-123745577D01*
X39903341Y-123724277D02*
X39847522Y-123738372D01*
X39968904Y-123705292D02*
X39903341Y-123724277D01*
X40030034Y-123686296D02*
X39968904Y-123705292D01*
X40029691Y-123683050D02*
G75*
G02X40030034Y-123686296I-161J-1658D01*
G01*
X40027681Y-123683099D02*
G75*
G02X40029690Y-123683051I1204J-8298D01*
G01*
X40019709Y-123684287D02*
X40027681Y-123683099D01*
X40010305Y-123685799D02*
X40019709Y-123684287D01*
X39999690Y-123687644D02*
X40010305Y-123685799D01*
X39974754Y-123691359D02*
X39999690Y-123687644D01*
X39930359Y-123696376D02*
X39974754Y-123691359D01*
X39865074Y-123703070D02*
X39930359Y-123696376D01*
X39763645Y-123712894D02*
X39865074Y-123703070D01*
X39735352Y-123715035D02*
X39763645Y-123712894D01*
X39681795Y-123717839D02*
X39735352Y-123715035D01*
X39618915Y-123720681D02*
X39681795Y-123717839D01*
X39553645Y-123723169D02*
X39618915Y-123720681D01*
X39408340Y-123726041D02*
X39553645Y-123723169D01*
X39281748Y-123723781D02*
X39408340Y-123726041D01*
X39136661Y-123715269D02*
X39281748Y-123723781D01*
X38925022Y-123697707D02*
X39136661Y-123715269D01*
X38864771Y-123691119D02*
X38925022Y-123697707D01*
X38781738Y-123679690D02*
X38864771Y-123691119D01*
X38684250Y-123664788D02*
X38781738Y-123679690D01*
X38577522Y-123647109D02*
X38684250Y-123664788D01*
X38471857Y-123627377D02*
X38577522Y-123647109D01*
X38354034Y-123602215D02*
X38471857Y-123627377D01*
X38237305Y-123574654D02*
X38354034Y-123602215D01*
X38135022Y-123547637D02*
X38237305Y-123574654D01*
X38119381Y-123543300D02*
X38135022Y-123547637D01*
X38103397Y-123538981D02*
X38119381Y-123543300D01*
X38089207Y-123535245D02*
X38103397Y-123538981D01*
X38080022Y-123532966D02*
X38089207Y-123535245D01*
X38071722Y-123530851D02*
X38080022Y-123532966D01*
X38061053Y-123527839D02*
X38071722Y-123530851D01*
X38049914Y-123524499D02*
X38061053Y-123527839D01*
X38040022Y-123521321D02*
X38049914Y-123524499D01*
X38028663Y-123517567D02*
X38040022Y-123521321D01*
X38012381Y-123512256D02*
X38028663Y-123517567D01*
X37994485Y-123506458D02*
X38012381Y-123512256D01*
X37977522Y-123501004D02*
X37994485Y-123506458D01*
X37913400Y-123479584D02*
X37977522Y-123501004D01*
X37849573Y-123456485D02*
X37913400Y-123479584D01*
X37785345Y-123431444D02*
X37849573Y-123456485D01*
X40691588Y-123629800D02*
G75*
G02X40685529Y-123627293I15601J46284D01*
G01*
X40698772Y-123631862D02*
G75*
G02X40691589Y-123629800I19033J79840D01*
G01*
X40725611Y-123637712D02*
X40698772Y-123631862D01*
X36878409Y-119291121D02*
G75*
G02X36893800Y-119299519I-19851J-54684D01*
G01*
X36933573Y-119330444D02*
X36893800Y-119299519D01*
X36980950Y-119369163D02*
X36933573Y-119330444D01*
X37033636Y-119414359D02*
X36980950Y-119369163D01*
X37198174Y-119552127D02*
X37033636Y-119414359D01*
X37343791Y-119660502D02*
X37198174Y-119552127D01*
X37512714Y-119769733D02*
X37343791Y-119660502D01*
X37757522Y-119914069D02*
X37512714Y-119769733D01*
X40071306Y-119506615D02*
X40047577Y-119615220D01*
X39994593Y-119906118D02*
X39992916Y-119920277D01*
X39786280Y-122220659D02*
X39746362Y-122142777D01*
X39900735Y-122449065D02*
X39786280Y-122220659D01*
X40093793Y-119422863D02*
X40090420Y-119435871D01*
X40109796Y-122390277D02*
X40112223Y-122399554D01*
X38480696Y-120396196D02*
X38449731Y-120371569D01*
X38534121Y-120440261D02*
X38480696Y-120396196D01*
X40155296Y-119199293D02*
X40140717Y-119248596D01*
X39541545Y-121760738D02*
X39527657Y-121734784D01*
X39558037Y-121791194D02*
X39541545Y-121760738D01*
X40107389Y-122380966D02*
X40109796Y-122390277D01*
X40030667Y-122712450D02*
G75*
G02X40030022Y-122709625I5867J2825D01*
G01*
X40070128Y-122794375D02*
X40030666Y-122712451D01*
X39993686Y-121728002D02*
X39999812Y-121775277D01*
X40090420Y-119435871D02*
X40087276Y-119447511D01*
X40110559Y-119357297D02*
X40102925Y-119386256D01*
X40122102Y-122443678D02*
X40125424Y-122458215D01*
X40119792Y-122432777D02*
X40122102Y-122443678D01*
X40117434Y-122892202D02*
X40070128Y-122794375D01*
X40180900Y-123022769D02*
X40117434Y-122892202D01*
X40494836Y-117595277D02*
X40483743Y-117688355D01*
X38890510Y-120769449D02*
X38807249Y-120684817D01*
X38957941Y-120843323D02*
X38890510Y-120769449D01*
X39515378Y-121711643D02*
G75*
G02X39515022Y-121710212I2699J1431D01*
G01*
X39527657Y-121734784D02*
X39515377Y-121711643D01*
X39957431Y-121334943D02*
X39960146Y-121374262D01*
X39936197Y-120790776D02*
X39941200Y-121010800D01*
X37812323Y-119945700D02*
X37757522Y-119914069D01*
X37865350Y-119976582D02*
X37812323Y-119945700D01*
X37910594Y-120003170D02*
X37865350Y-119976582D01*
X39962884Y-121410118D02*
X39965155Y-121435277D01*
X40564571Y-117113376D02*
G75*
G02X40582574Y-117069496I122645J-24684D01*
G01*
X40483743Y-117688355D02*
X40466692Y-117818323D01*
X40466692Y-117818323D02*
X40448247Y-117952128D01*
X40448247Y-117952128D02*
X40432296Y-118060277D01*
X40094799Y-122321609D02*
X40097913Y-122336189D01*
X40172754Y-119140648D02*
X40155296Y-119199293D01*
X40165004Y-122616641D02*
X40188021Y-122705658D01*
X40152687Y-122567777D02*
X40165004Y-122616641D01*
X39939221Y-120585430D02*
X39936197Y-120790776D01*
X39997211Y-119888074D02*
X39994593Y-119906118D01*
X40096912Y-119410277D02*
X40093793Y-119422863D01*
X38591890Y-120488546D02*
X38534121Y-120440261D01*
X38642522Y-120531589D02*
X38591890Y-120488546D01*
X40140717Y-119248596D02*
X40134498Y-119270277D01*
X40046332Y-122082567D02*
X40069739Y-122208706D01*
X39972649Y-121517124D02*
X39974772Y-121542777D01*
X40102098Y-122357528D02*
X40104678Y-122369391D01*
X40120636Y-119320269D02*
X40110559Y-119357297D01*
X40112223Y-122399554D02*
X40114997Y-122411012D01*
X40274298Y-118790004D02*
X40191595Y-119077777D01*
X40024401Y-121953232D02*
X40046332Y-122082567D01*
X39986414Y-121663404D02*
X39993686Y-121728002D01*
X37935022Y-120017924D02*
X37910594Y-120003170D01*
X37952943Y-120028971D02*
X37935022Y-120017924D01*
X37971647Y-120040441D02*
X37952943Y-120028971D01*
X37988524Y-120050743D02*
X37971647Y-120040441D01*
X38000022Y-120057694D02*
X37988524Y-120050743D01*
X40097913Y-122336189D02*
X40100081Y-122347260D01*
X39955160Y-121297777D02*
X39957431Y-121334943D01*
X40391058Y-118296192D02*
X40339522Y-118534580D01*
X40102925Y-119386256D02*
X40096912Y-119410277D01*
X40432296Y-118060277D02*
X40391058Y-118296192D01*
X40114997Y-122411012D02*
X40117668Y-122422709D01*
X39965155Y-121435277D02*
X39967410Y-121458549D01*
X40010387Y-121855277D02*
X40024401Y-121953232D01*
X40147592Y-122547213D02*
X40152687Y-122567777D01*
X40141964Y-122524684D02*
X40147592Y-122547213D01*
X38338770Y-120288408D02*
X38212111Y-120198124D01*
X38449731Y-120371569D02*
X38338770Y-120288408D01*
X39966010Y-120160768D02*
X39956089Y-120270173D01*
X40085002Y-119455277D02*
X40071306Y-119506615D01*
X39490348Y-121665352D02*
X39480163Y-121647052D01*
X39498277Y-121679295D02*
X39490348Y-121665352D01*
X39675179Y-122007925D02*
X39657627Y-121975277D01*
X39696050Y-122047166D02*
X39675179Y-122007925D01*
X40293771Y-123203775D02*
G75*
G02X40278450Y-123204191I-7814J5438D01*
G01*
X40301642Y-123177617D02*
G75*
G02X40293772Y-123203776I-43965J-1036D01*
G01*
X40091336Y-122306189D02*
X40094799Y-122321609D01*
X40004965Y-121813215D02*
X40007876Y-121835494D01*
X40000258Y-119869324D02*
X39997211Y-119888074D01*
X39992916Y-119920277D02*
X39991414Y-119934273D01*
X39974772Y-121542777D02*
X39979586Y-121596968D01*
X39719842Y-122092235D02*
X39696050Y-122047166D01*
X39746362Y-122142777D02*
X39719842Y-122092235D01*
X39976782Y-120053128D02*
X39966010Y-120160768D01*
X40339522Y-118534580D02*
X40274298Y-118790004D01*
X40047577Y-119615220D02*
X40025096Y-119724104D01*
X40029044Y-122705488D02*
X39900735Y-122449065D01*
X40029045Y-122705488D02*
G75*
G02X40030022Y-122709625I-8269J-4137D01*
G01*
X38090998Y-120115371D02*
X38000022Y-120057694D01*
X38212111Y-120198124D02*
X38090998Y-120115371D01*
X39076981Y-120992044D02*
X38957941Y-120843323D01*
X39202584Y-121173051D02*
X39076981Y-120992044D01*
X40025096Y-119724104D02*
X40014785Y-119785277D01*
X40191595Y-119077777D02*
X40172754Y-119140648D01*
X39967410Y-121458549D02*
X39970054Y-121487481D01*
X40003300Y-119852777D02*
X40000258Y-119869324D01*
X40012686Y-119799437D02*
X40009713Y-119817481D01*
X39985041Y-119985277D02*
X39976782Y-120053128D01*
X40262789Y-122990486D02*
X40284316Y-123078882D01*
X40229915Y-122865277D02*
X40262789Y-122990486D01*
X40129114Y-122473688D02*
X40132635Y-122487777D01*
X40125424Y-122458215D02*
X40129114Y-122473688D01*
X40088031Y-122292260D02*
X40091336Y-122306189D01*
X40006422Y-119836231D02*
X40003300Y-119852777D01*
X40542634Y-117232589D02*
X40519274Y-117390793D01*
X39989359Y-119951746D02*
X39987122Y-119969693D01*
X40104678Y-122369391D02*
X40107389Y-122380966D01*
X40069739Y-122208706D02*
X40088031Y-122292260D01*
X39950432Y-120347777D02*
X39939221Y-120585430D01*
X40564571Y-117113377D02*
X40542634Y-117232589D01*
X40014785Y-119785277D02*
X40012686Y-119799437D01*
X40211965Y-122797481D02*
X40229915Y-122865277D01*
X40188021Y-122705658D02*
X40211965Y-122797481D01*
X40007876Y-121835494D02*
X40010387Y-121855277D01*
X40136652Y-122503561D02*
X40141964Y-122524684D01*
X40132635Y-122487777D02*
X40136652Y-122503561D01*
X39960146Y-121374262D02*
X39962884Y-121410118D01*
X40297789Y-123142241D02*
G75*
G02X40301641Y-123177617I-205937J-40320D01*
G01*
X40284316Y-123078882D02*
X40297790Y-123142241D01*
X39649971Y-121961116D02*
X39640235Y-121943074D01*
X39657627Y-121975277D02*
X39649971Y-121961116D01*
X40117668Y-122422709D02*
X40119792Y-122432777D01*
X40009713Y-119817481D02*
X40006422Y-119836231D01*
X38720584Y-120601527D02*
X38642522Y-120531589D01*
X38807249Y-120684817D02*
X38720584Y-120601527D01*
X40002112Y-121791881D02*
X40004965Y-121813215D01*
X39987122Y-119969693D02*
X39985041Y-119985277D01*
X40087276Y-119447511D02*
X40085002Y-119455277D01*
X40519274Y-117390793D02*
X40494836Y-117595277D01*
X39469544Y-121627713D02*
X39460123Y-121610277D01*
X39480163Y-121647052D02*
X39469544Y-121627713D01*
X40245824Y-123152971D02*
X40180900Y-123022769D01*
X40278449Y-123204191D02*
G75*
G02X40245824Y-123152971I252153J196613D01*
G01*
X39941200Y-121010800D02*
X39955160Y-121297777D01*
D12*
G36*
X73104975Y-98958585D02*
G01*
X73404528Y-99018170D01*
X73968874Y-99251930D01*
X74476772Y-99591296D01*
X74908704Y-100023228D01*
X75248070Y-100531126D01*
X75481830Y-101095472D01*
X75601000Y-101694578D01*
X75601000Y-102305422D01*
X75481830Y-102904528D01*
X75248070Y-103468874D01*
X74908704Y-103976772D01*
X74476772Y-104408704D01*
X73968874Y-104748070D01*
X73404528Y-104981830D01*
X73104975Y-105041415D01*
X72805423Y-105101000D01*
X72194577Y-105101000D01*
X71895025Y-105041415D01*
X71595472Y-104981830D01*
X71031126Y-104748070D01*
X70523228Y-104408704D01*
X70091296Y-103976772D01*
X69751930Y-103468874D01*
X69518170Y-102904528D01*
X69399000Y-102305422D01*
X69399000Y-101694578D01*
X69518170Y-101095472D01*
X69751930Y-100531126D01*
X70091296Y-100023228D01*
X70523228Y-99591296D01*
X71031126Y-99251930D01*
X71595472Y-99018170D01*
X71895025Y-98958585D01*
X72194577Y-98899000D01*
X72805423Y-98899000D01*
X73104975Y-98958585D01*
G37*
G36*
X63104975Y-98958585D02*
G01*
X63404528Y-99018170D01*
X63968874Y-99251930D01*
X64476772Y-99591296D01*
X64908704Y-100023228D01*
X65248070Y-100531126D01*
X65481830Y-101095472D01*
X65601000Y-101694578D01*
X65601000Y-102305422D01*
X65481830Y-102904528D01*
X65248070Y-103468874D01*
X64908704Y-103976772D01*
X64476772Y-104408704D01*
X63968874Y-104748070D01*
X63404528Y-104981830D01*
X63104975Y-105041415D01*
X62805423Y-105101000D01*
X62194577Y-105101000D01*
X61895025Y-105041415D01*
X61595472Y-104981830D01*
X61031126Y-104748070D01*
X60523228Y-104408704D01*
X60091296Y-103976772D01*
X59751930Y-103468874D01*
X59518170Y-102904528D01*
X59399000Y-102305422D01*
X59399000Y-101694578D01*
X59518170Y-101095472D01*
X59751930Y-100531126D01*
X60091296Y-100023228D01*
X60523228Y-99591296D01*
X61031126Y-99251930D01*
X61595472Y-99018170D01*
X61895025Y-98958585D01*
X62194577Y-98899000D01*
X62805423Y-98899000D01*
X63104975Y-98958585D01*
G37*
G36*
X53104975Y-98958585D02*
G01*
X53404528Y-99018170D01*
X53968874Y-99251930D01*
X54476772Y-99591296D01*
X54908704Y-100023228D01*
X55248070Y-100531126D01*
X55481830Y-101095472D01*
X55601000Y-101694578D01*
X55601000Y-102305422D01*
X55481830Y-102904528D01*
X55248070Y-103468874D01*
X54908704Y-103976772D01*
X54476772Y-104408704D01*
X53968874Y-104748070D01*
X53404528Y-104981830D01*
X53104975Y-105041415D01*
X52805423Y-105101000D01*
X52194577Y-105101000D01*
X51895025Y-105041415D01*
X51595472Y-104981830D01*
X51031126Y-104748070D01*
X50523228Y-104408704D01*
X50091296Y-103976772D01*
X49751930Y-103468874D01*
X49518170Y-102904528D01*
X49399000Y-102305422D01*
X49399000Y-101694578D01*
X49518170Y-101095472D01*
X49751930Y-100531126D01*
X50091296Y-100023228D01*
X50523228Y-99591296D01*
X51031126Y-99251930D01*
X51595472Y-99018170D01*
X51895025Y-98958585D01*
X52194577Y-98899000D01*
X52805423Y-98899000D01*
X53104975Y-98958585D01*
G37*
G36*
X43104975Y-98958585D02*
G01*
X43404528Y-99018170D01*
X43968874Y-99251930D01*
X44476772Y-99591296D01*
X44908704Y-100023228D01*
X45248070Y-100531126D01*
X45481830Y-101095472D01*
X45601000Y-101694578D01*
X45601000Y-102305422D01*
X45481830Y-102904528D01*
X45248070Y-103468874D01*
X44908704Y-103976772D01*
X44476772Y-104408704D01*
X43968874Y-104748070D01*
X43404528Y-104981830D01*
X43104975Y-105041415D01*
X42805423Y-105101000D01*
X42194577Y-105101000D01*
X41895025Y-105041415D01*
X41595472Y-104981830D01*
X41031126Y-104748070D01*
X40523228Y-104408704D01*
X40091296Y-103976772D01*
X39751930Y-103468874D01*
X39518170Y-102904528D01*
X39399000Y-102305422D01*
X39399000Y-101694578D01*
X39518170Y-101095472D01*
X39751930Y-100531126D01*
X40091296Y-100023228D01*
X40523228Y-99591296D01*
X41031126Y-99251930D01*
X41595472Y-99018170D01*
X41895025Y-98958585D01*
X42194577Y-98899000D01*
X42805423Y-98899000D01*
X43104975Y-98958585D01*
G37*
G36*
X32854975Y-98958585D02*
G01*
X33154528Y-99018170D01*
X33718874Y-99251930D01*
X34226772Y-99591296D01*
X34658704Y-100023228D01*
X34998070Y-100531126D01*
X35231830Y-101095472D01*
X35351000Y-101694578D01*
X35351000Y-102305422D01*
X35231830Y-102904528D01*
X34998070Y-103468874D01*
X34658704Y-103976772D01*
X34226772Y-104408704D01*
X33718874Y-104748070D01*
X33154528Y-104981830D01*
X32854975Y-105041415D01*
X32555423Y-105101000D01*
X31944577Y-105101000D01*
X31645025Y-105041415D01*
X31345472Y-104981830D01*
X30781126Y-104748070D01*
X30273228Y-104408704D01*
X29841296Y-103976772D01*
X29501930Y-103468874D01*
X29268170Y-102904528D01*
X29149000Y-102305422D01*
X29149000Y-101694578D01*
X29268170Y-101095472D01*
X29501930Y-100531126D01*
X29841296Y-100023228D01*
X30273228Y-99591296D01*
X30781126Y-99251930D01*
X31345472Y-99018170D01*
X31645025Y-98958585D01*
X31944577Y-98899000D01*
X32555423Y-98899000D01*
X32854975Y-98958585D01*
G37*
G36*
X19354975Y-98958585D02*
G01*
X19654528Y-99018170D01*
X20218874Y-99251930D01*
X20726772Y-99591296D01*
X21158704Y-100023228D01*
X21498070Y-100531126D01*
X21731830Y-101095472D01*
X21851000Y-101694578D01*
X21851000Y-102305422D01*
X21731830Y-102904528D01*
X21498070Y-103468874D01*
X21158704Y-103976772D01*
X20726772Y-104408704D01*
X20218874Y-104748070D01*
X19654528Y-104981830D01*
X19354975Y-105041415D01*
X19055423Y-105101000D01*
X18444577Y-105101000D01*
X18145025Y-105041415D01*
X17845472Y-104981830D01*
X17281126Y-104748070D01*
X16773228Y-104408704D01*
X16341296Y-103976772D01*
X16001930Y-103468874D01*
X15768170Y-102904528D01*
X15649000Y-102305422D01*
X15649000Y-101694578D01*
X15768170Y-101095472D01*
X16001930Y-100531126D01*
X16341296Y-100023228D01*
X16773228Y-99591296D01*
X17281126Y-99251930D01*
X17845472Y-99018170D01*
X18145025Y-98958585D01*
X18444577Y-98899000D01*
X19055423Y-98899000D01*
X19354975Y-98958585D01*
G37*
G36*
X9354975Y-98958585D02*
G01*
X9654528Y-99018170D01*
X10218874Y-99251930D01*
X10726772Y-99591296D01*
X11158704Y-100023228D01*
X11498070Y-100531126D01*
X11731830Y-101095472D01*
X11851000Y-101694578D01*
X11851000Y-102305422D01*
X11731830Y-102904528D01*
X11498070Y-103468874D01*
X11158704Y-103976772D01*
X10726772Y-104408704D01*
X10218874Y-104748070D01*
X9654528Y-104981830D01*
X9354975Y-105041415D01*
X9055423Y-105101000D01*
X8444577Y-105101000D01*
X8145025Y-105041415D01*
X7845472Y-104981830D01*
X7281126Y-104748070D01*
X6773228Y-104408704D01*
X6341296Y-103976772D01*
X6001930Y-103468874D01*
X5768170Y-102904528D01*
X5649000Y-102305422D01*
X5649000Y-101694578D01*
X5768170Y-101095472D01*
X6001930Y-100531126D01*
X6341296Y-100023228D01*
X6773228Y-99591296D01*
X7281126Y-99251930D01*
X7845472Y-99018170D01*
X8145025Y-98958585D01*
X8444577Y-98899000D01*
X9055423Y-98899000D01*
X9354975Y-98958585D01*
G37*
G36*
X41634239Y-82311467D02*
G01*
X41948282Y-82373934D01*
X42539926Y-82619001D01*
X43072392Y-82974784D01*
X43525216Y-83427608D01*
X43880999Y-83960074D01*
X44126066Y-84551718D01*
X44251000Y-85179804D01*
X44251000Y-85820196D01*
X44126066Y-86448282D01*
X43880999Y-87039926D01*
X43525216Y-87572392D01*
X43072392Y-88025216D01*
X42539926Y-88380999D01*
X41948282Y-88626066D01*
X41634239Y-88688533D01*
X41320197Y-88751000D01*
X40679803Y-88751000D01*
X40365761Y-88688533D01*
X40051718Y-88626066D01*
X39460074Y-88380999D01*
X38927608Y-88025216D01*
X38474784Y-87572392D01*
X38119001Y-87039926D01*
X37873934Y-86448282D01*
X37749000Y-85820196D01*
X37749000Y-85179804D01*
X37873934Y-84551718D01*
X38119001Y-83960074D01*
X38474784Y-83427608D01*
X38927608Y-82974784D01*
X39460074Y-82619001D01*
X40051718Y-82373934D01*
X40365761Y-82311467D01*
X40679803Y-82249000D01*
X41320197Y-82249000D01*
X41634239Y-82311467D01*
G37*
G36*
X74104975Y-74708585D02*
G01*
X74404528Y-74768170D01*
X74968874Y-75001930D01*
X75476772Y-75341296D01*
X75908704Y-75773228D01*
X76248070Y-76281126D01*
X76481830Y-76845472D01*
X76601000Y-77444578D01*
X76601000Y-78055422D01*
X76481830Y-78654528D01*
X76248070Y-79218874D01*
X75908704Y-79726772D01*
X75476772Y-80158704D01*
X74968874Y-80498070D01*
X74404528Y-80731830D01*
X74104975Y-80791415D01*
X73805423Y-80851000D01*
X73194577Y-80851000D01*
X72895025Y-80791415D01*
X72595472Y-80731830D01*
X72031126Y-80498070D01*
X71523228Y-80158704D01*
X71091296Y-79726772D01*
X70751930Y-79218874D01*
X70518170Y-78654528D01*
X70399000Y-78055422D01*
X70399000Y-77444578D01*
X70518170Y-76845472D01*
X70751930Y-76281126D01*
X71091296Y-75773228D01*
X71523228Y-75341296D01*
X72031126Y-75001930D01*
X72595472Y-74768170D01*
X72895025Y-74708585D01*
X73194577Y-74649000D01*
X73805423Y-74649000D01*
X74104975Y-74708585D01*
G37*
G36*
X8354975Y-74708585D02*
G01*
X8654528Y-74768170D01*
X9218874Y-75001930D01*
X9726772Y-75341296D01*
X10158704Y-75773228D01*
X10498070Y-76281126D01*
X10731830Y-76845472D01*
X10851000Y-77444578D01*
X10851000Y-78055422D01*
X10731830Y-78654528D01*
X10498070Y-79218874D01*
X10158704Y-79726772D01*
X9726772Y-80158704D01*
X9218874Y-80498070D01*
X8654528Y-80731830D01*
X8354975Y-80791415D01*
X8055423Y-80851000D01*
X7444577Y-80851000D01*
X7145025Y-80791415D01*
X6845472Y-80731830D01*
X6281126Y-80498070D01*
X5773228Y-80158704D01*
X5341296Y-79726772D01*
X5001930Y-79218874D01*
X4768170Y-78654528D01*
X4649000Y-78055422D01*
X4649000Y-77444578D01*
X4768170Y-76845472D01*
X5001930Y-76281126D01*
X5341296Y-75773228D01*
X5773228Y-75341296D01*
X6281126Y-75001930D01*
X6845472Y-74768170D01*
X7145025Y-74708585D01*
X7444577Y-74649000D01*
X8055423Y-74649000D01*
X8354975Y-74708585D01*
G37*
G36*
X41634239Y-65811467D02*
G01*
X41948282Y-65873934D01*
X42539926Y-66119001D01*
X43072392Y-66474784D01*
X43525216Y-66927608D01*
X43880999Y-67460074D01*
X44126066Y-68051718D01*
X44251000Y-68679804D01*
X44251000Y-69320196D01*
X44126066Y-69948282D01*
X43880999Y-70539926D01*
X43525216Y-71072392D01*
X43072392Y-71525216D01*
X42539926Y-71880999D01*
X41948282Y-72126066D01*
X41634239Y-72188533D01*
X41320197Y-72251000D01*
X40679803Y-72251000D01*
X40365761Y-72188533D01*
X40051718Y-72126066D01*
X39460074Y-71880999D01*
X38927608Y-71525216D01*
X38474784Y-71072392D01*
X38119001Y-70539926D01*
X37873934Y-69948282D01*
X37749000Y-69320196D01*
X37749000Y-68679804D01*
X37873934Y-68051718D01*
X38119001Y-67460074D01*
X38474784Y-66927608D01*
X38927608Y-66474784D01*
X39460074Y-66119001D01*
X40051718Y-65873934D01*
X40365761Y-65811467D01*
X40679803Y-65749000D01*
X41320197Y-65749000D01*
X41634239Y-65811467D01*
G37*
G36*
X8354975Y-57708585D02*
G01*
X8654528Y-57768170D01*
X9218874Y-58001930D01*
X9726772Y-58341296D01*
X10158704Y-58773228D01*
X10498070Y-59281126D01*
X10731830Y-59845472D01*
X10851000Y-60444578D01*
X10851000Y-61055422D01*
X10731830Y-61654528D01*
X10498070Y-62218874D01*
X10158704Y-62726772D01*
X9726772Y-63158704D01*
X9218874Y-63498070D01*
X8654528Y-63731830D01*
X8354975Y-63791415D01*
X8055423Y-63851000D01*
X7444577Y-63851000D01*
X7145025Y-63791415D01*
X6845472Y-63731830D01*
X6281126Y-63498070D01*
X5773228Y-63158704D01*
X5341296Y-62726772D01*
X5001930Y-62218874D01*
X4768170Y-61654528D01*
X4649000Y-61055422D01*
X4649000Y-60444578D01*
X4768170Y-59845472D01*
X5001930Y-59281126D01*
X5341296Y-58773228D01*
X5773228Y-58341296D01*
X6281126Y-58001930D01*
X6845472Y-57768170D01*
X7145025Y-57708585D01*
X7444577Y-57649000D01*
X8055423Y-57649000D01*
X8354975Y-57708585D01*
G37*
G36*
X74104975Y-57708585D02*
G01*
X74404528Y-57768170D01*
X74968874Y-58001930D01*
X75476772Y-58341296D01*
X75908704Y-58773228D01*
X76248070Y-59281126D01*
X76481830Y-59845472D01*
X76601000Y-60444578D01*
X76601000Y-61055422D01*
X76481830Y-61654528D01*
X76248070Y-62218874D01*
X75908704Y-62726772D01*
X75476772Y-63158704D01*
X74968874Y-63498070D01*
X74404528Y-63731830D01*
X74104975Y-63791415D01*
X73805423Y-63851000D01*
X73194577Y-63851000D01*
X72895025Y-63791415D01*
X72595472Y-63731830D01*
X72031126Y-63498070D01*
X71523228Y-63158704D01*
X71091296Y-62726772D01*
X70751930Y-62218874D01*
X70518170Y-61654528D01*
X70399000Y-61055422D01*
X70399000Y-60444578D01*
X70518170Y-59845472D01*
X70751930Y-59281126D01*
X71091296Y-58773228D01*
X71523228Y-58341296D01*
X72031126Y-58001930D01*
X72595472Y-57768170D01*
X72895025Y-57708585D01*
X73194577Y-57649000D01*
X73805423Y-57649000D01*
X74104975Y-57708585D01*
G37*
G36*
X74104975Y-40308585D02*
G01*
X74404528Y-40368170D01*
X74968874Y-40601930D01*
X75476772Y-40941296D01*
X75908704Y-41373228D01*
X76248070Y-41881126D01*
X76481830Y-42445472D01*
X76601000Y-43044578D01*
X76601000Y-43655422D01*
X76481830Y-44254528D01*
X76248070Y-44818874D01*
X75908704Y-45326772D01*
X75476772Y-45758704D01*
X74968874Y-46098070D01*
X74404528Y-46331830D01*
X74104975Y-46391415D01*
X73805423Y-46451000D01*
X73194577Y-46451000D01*
X72895025Y-46391415D01*
X72595472Y-46331830D01*
X72031126Y-46098070D01*
X71523228Y-45758704D01*
X71091296Y-45326772D01*
X70751930Y-44818874D01*
X70518170Y-44254528D01*
X70399000Y-43655422D01*
X70399000Y-43044578D01*
X70518170Y-42445472D01*
X70751930Y-41881126D01*
X71091296Y-41373228D01*
X71523228Y-40941296D01*
X72031126Y-40601930D01*
X72595472Y-40368170D01*
X72895025Y-40308585D01*
X73194577Y-40249000D01*
X73805423Y-40249000D01*
X74104975Y-40308585D01*
G37*
G36*
X8354975Y-40308585D02*
G01*
X8654528Y-40368170D01*
X9218874Y-40601930D01*
X9726772Y-40941296D01*
X10158704Y-41373228D01*
X10498070Y-41881126D01*
X10731830Y-42445472D01*
X10851000Y-43044578D01*
X10851000Y-43655422D01*
X10731830Y-44254528D01*
X10498070Y-44818874D01*
X10158704Y-45326772D01*
X9726772Y-45758704D01*
X9218874Y-46098070D01*
X8654528Y-46331830D01*
X8354975Y-46391415D01*
X8055423Y-46451000D01*
X7444577Y-46451000D01*
X7145025Y-46391415D01*
X6845472Y-46331830D01*
X6281126Y-46098070D01*
X5773228Y-45758704D01*
X5341296Y-45326772D01*
X5001930Y-44818874D01*
X4768170Y-44254528D01*
X4649000Y-43655422D01*
X4649000Y-43044578D01*
X4768170Y-42445472D01*
X5001930Y-41881126D01*
X5341296Y-41373228D01*
X5773228Y-40941296D01*
X6281126Y-40601930D01*
X6845472Y-40368170D01*
X7145025Y-40308585D01*
X7444577Y-40249000D01*
X8055423Y-40249000D01*
X8354975Y-40308585D01*
G37*
G36*
X41507430Y-37698977D02*
G01*
X41758684Y-37748955D01*
X41954752Y-37830169D01*
X42232034Y-37945023D01*
X42232035Y-37945024D01*
X42658041Y-38229671D01*
X43020329Y-38591959D01*
X43210524Y-38876607D01*
X43304977Y-39017966D01*
X43501045Y-39491317D01*
X43601000Y-39993823D01*
X43601000Y-40506177D01*
X43501045Y-41008683D01*
X43304977Y-41482034D01*
X43304976Y-41482035D01*
X43020329Y-41908041D01*
X42658041Y-42270329D01*
X42395920Y-42445472D01*
X42232034Y-42554977D01*
X41954752Y-42669831D01*
X41758684Y-42751045D01*
X41507430Y-42801023D01*
X41256177Y-42851000D01*
X40743823Y-42851000D01*
X40492570Y-42801023D01*
X40241316Y-42751045D01*
X40045248Y-42669831D01*
X39767966Y-42554977D01*
X39604080Y-42445472D01*
X39341959Y-42270329D01*
X38979671Y-41908041D01*
X38695024Y-41482035D01*
X38695023Y-41482034D01*
X38498955Y-41008683D01*
X38399000Y-40506177D01*
X38399000Y-39993823D01*
X38498955Y-39491317D01*
X38695023Y-39017966D01*
X38789476Y-38876607D01*
X38979671Y-38591959D01*
X39341959Y-38229671D01*
X39767965Y-37945024D01*
X39767966Y-37945023D01*
X40045248Y-37830169D01*
X40241316Y-37748955D01*
X40492570Y-37698977D01*
X40743823Y-37649000D01*
X41256177Y-37649000D01*
X41507430Y-37698977D01*
G37*
G36*
X36007430Y-32698977D02*
G01*
X36258684Y-32748955D01*
X36454752Y-32830169D01*
X36732034Y-32945023D01*
X36732035Y-32945024D01*
X37158041Y-33229671D01*
X37520329Y-33591959D01*
X37710524Y-33876607D01*
X37804977Y-34017966D01*
X38001045Y-34491317D01*
X38101000Y-34993823D01*
X38101000Y-35506177D01*
X38001045Y-36008683D01*
X37804977Y-36482034D01*
X37804976Y-36482035D01*
X37520329Y-36908041D01*
X37158041Y-37270329D01*
X36873393Y-37460524D01*
X36732034Y-37554977D01*
X36505042Y-37649000D01*
X36258684Y-37751045D01*
X36007430Y-37801023D01*
X35756177Y-37851000D01*
X35243823Y-37851000D01*
X34992570Y-37801023D01*
X34741316Y-37751045D01*
X34494958Y-37649000D01*
X34267966Y-37554977D01*
X34126607Y-37460524D01*
X33841959Y-37270329D01*
X33479671Y-36908041D01*
X33195024Y-36482035D01*
X33195023Y-36482034D01*
X32998955Y-36008683D01*
X32899000Y-35506177D01*
X32899000Y-34993823D01*
X32998955Y-34491317D01*
X33195023Y-34017966D01*
X33289476Y-33876607D01*
X33479671Y-33591959D01*
X33841959Y-33229671D01*
X34267965Y-32945024D01*
X34267966Y-32945023D01*
X34545248Y-32830169D01*
X34741316Y-32748955D01*
X34992570Y-32698977D01*
X35243823Y-32649000D01*
X35756177Y-32649000D01*
X36007430Y-32698977D01*
G37*
G36*
X46007430Y-32698977D02*
G01*
X46258684Y-32748955D01*
X46454752Y-32830169D01*
X46732034Y-32945023D01*
X46732035Y-32945024D01*
X47158041Y-33229671D01*
X47520329Y-33591959D01*
X47710524Y-33876607D01*
X47804977Y-34017966D01*
X48001045Y-34491317D01*
X48101000Y-34993823D01*
X48101000Y-35506177D01*
X48001045Y-36008683D01*
X47804977Y-36482034D01*
X47804976Y-36482035D01*
X47520329Y-36908041D01*
X47158041Y-37270329D01*
X46873393Y-37460524D01*
X46732034Y-37554977D01*
X46505042Y-37649000D01*
X46258684Y-37751045D01*
X46007430Y-37801023D01*
X45756177Y-37851000D01*
X45243823Y-37851000D01*
X44992570Y-37801023D01*
X44741316Y-37751045D01*
X44494958Y-37649000D01*
X44267966Y-37554977D01*
X44126607Y-37460524D01*
X43841959Y-37270329D01*
X43479671Y-36908041D01*
X43195024Y-36482035D01*
X43195023Y-36482034D01*
X42998955Y-36008683D01*
X42899000Y-35506177D01*
X42899000Y-34993823D01*
X42998955Y-34491317D01*
X43195023Y-34017966D01*
X43289476Y-33876607D01*
X43479671Y-33591959D01*
X43841959Y-33229671D01*
X44267965Y-32945024D01*
X44267966Y-32945023D01*
X44545248Y-32830169D01*
X44741316Y-32748955D01*
X44992570Y-32698977D01*
X45243823Y-32649000D01*
X45756177Y-32649000D01*
X46007430Y-32698977D01*
G37*
G36*
X51257430Y-27698977D02*
G01*
X51508684Y-27748955D01*
X51677478Y-27818872D01*
X51982034Y-27945023D01*
X51982035Y-27945024D01*
X52408041Y-28229671D01*
X52770329Y-28591959D01*
X52881744Y-28758704D01*
X53054977Y-29017966D01*
X53169831Y-29295248D01*
X53234346Y-29451000D01*
X53251045Y-29491317D01*
X53351000Y-29993823D01*
X53351000Y-30506177D01*
X53251045Y-31008683D01*
X53054977Y-31482034D01*
X53054976Y-31482035D01*
X52770329Y-31908041D01*
X52408041Y-32270329D01*
X52123393Y-32460524D01*
X51982034Y-32554977D01*
X51755042Y-32649000D01*
X51508684Y-32751045D01*
X51257430Y-32801023D01*
X51006177Y-32851000D01*
X50493823Y-32851000D01*
X50242570Y-32801023D01*
X49991316Y-32751045D01*
X49744958Y-32649000D01*
X49517966Y-32554977D01*
X49376607Y-32460524D01*
X49091959Y-32270329D01*
X48729671Y-31908041D01*
X48445024Y-31482035D01*
X48445023Y-31482034D01*
X48248955Y-31008683D01*
X48149000Y-30506177D01*
X48149000Y-29993823D01*
X48248955Y-29491317D01*
X48265655Y-29451000D01*
X48330169Y-29295248D01*
X48445023Y-29017966D01*
X48618256Y-28758704D01*
X48729671Y-28591959D01*
X49091959Y-28229671D01*
X49517965Y-27945024D01*
X49517966Y-27945023D01*
X49822522Y-27818872D01*
X49991316Y-27748955D01*
X50242570Y-27698977D01*
X50493823Y-27649000D01*
X51006177Y-27649000D01*
X51257430Y-27698977D01*
G37*
G36*
X31007430Y-27698977D02*
G01*
X31258684Y-27748955D01*
X31427478Y-27818872D01*
X31732034Y-27945023D01*
X31732035Y-27945024D01*
X32158041Y-28229671D01*
X32520329Y-28591959D01*
X32631744Y-28758704D01*
X32804977Y-29017966D01*
X32919831Y-29295248D01*
X32984346Y-29451000D01*
X33001045Y-29491317D01*
X33101000Y-29993823D01*
X33101000Y-30506177D01*
X33001045Y-31008683D01*
X32804977Y-31482034D01*
X32804976Y-31482035D01*
X32520329Y-31908041D01*
X32158041Y-32270329D01*
X31873393Y-32460524D01*
X31732034Y-32554977D01*
X31505042Y-32649000D01*
X31258684Y-32751045D01*
X31007430Y-32801023D01*
X30756177Y-32851000D01*
X30243823Y-32851000D01*
X29992570Y-32801023D01*
X29741316Y-32751045D01*
X29494958Y-32649000D01*
X29267966Y-32554977D01*
X29126607Y-32460524D01*
X28841959Y-32270329D01*
X28479671Y-31908041D01*
X28195024Y-31482035D01*
X28195023Y-31482034D01*
X27998955Y-31008683D01*
X27899000Y-30506177D01*
X27899000Y-29993823D01*
X27998955Y-29491317D01*
X28015655Y-29451000D01*
X28080169Y-29295248D01*
X28195023Y-29017966D01*
X28368256Y-28758704D01*
X28479671Y-28591959D01*
X28841959Y-28229671D01*
X29267965Y-27945024D01*
X29267966Y-27945023D01*
X29572522Y-27818872D01*
X29741316Y-27748955D01*
X29992570Y-27698977D01*
X30243823Y-27649000D01*
X30756177Y-27649000D01*
X31007430Y-27698977D01*
G37*
G36*
X8354975Y-23308585D02*
G01*
X8654528Y-23368170D01*
X9053580Y-23533463D01*
X9194805Y-23591960D01*
X9218874Y-23601930D01*
X9726772Y-23941296D01*
X10158704Y-24373228D01*
X10237608Y-24491317D01*
X10498071Y-24881128D01*
X10731830Y-25445473D01*
X10851000Y-26044577D01*
X10851000Y-26655423D01*
X10731830Y-27254527D01*
X10527032Y-27748955D01*
X10498070Y-27818874D01*
X10158704Y-28326772D01*
X9726772Y-28758704D01*
X9218874Y-29098070D01*
X8654528Y-29331830D01*
X8354975Y-29391415D01*
X8055423Y-29451000D01*
X7444577Y-29451000D01*
X7145025Y-29391415D01*
X6845472Y-29331830D01*
X6281126Y-29098070D01*
X5773228Y-28758704D01*
X5341296Y-28326772D01*
X5001930Y-27818874D01*
X4972969Y-27748955D01*
X4768170Y-27254527D01*
X4649000Y-26655423D01*
X4649000Y-26044577D01*
X4768170Y-25445473D01*
X5001929Y-24881128D01*
X5262392Y-24491317D01*
X5341296Y-24373228D01*
X5773228Y-23941296D01*
X6281126Y-23601930D01*
X6305196Y-23591960D01*
X6446420Y-23533463D01*
X6845472Y-23368170D01*
X7145025Y-23308585D01*
X7444577Y-23249000D01*
X8055423Y-23249000D01*
X8354975Y-23308585D01*
G37*
G36*
X74104975Y-23308585D02*
G01*
X74404528Y-23368170D01*
X74803580Y-23533463D01*
X74944805Y-23591960D01*
X74968874Y-23601930D01*
X75476772Y-23941296D01*
X75908704Y-24373228D01*
X75987608Y-24491317D01*
X76248071Y-24881128D01*
X76481830Y-25445473D01*
X76601000Y-26044577D01*
X76601000Y-26655423D01*
X76481830Y-27254527D01*
X76277032Y-27748955D01*
X76248070Y-27818874D01*
X75908704Y-28326772D01*
X75476772Y-28758704D01*
X74968874Y-29098070D01*
X74404528Y-29331830D01*
X74104975Y-29391415D01*
X73805423Y-29451000D01*
X73194577Y-29451000D01*
X72895025Y-29391415D01*
X72595472Y-29331830D01*
X72031126Y-29098070D01*
X71523228Y-28758704D01*
X71091296Y-28326772D01*
X70751930Y-27818874D01*
X70722969Y-27748955D01*
X70518170Y-27254527D01*
X70399000Y-26655423D01*
X70399000Y-26044577D01*
X70518170Y-25445473D01*
X70751929Y-24881128D01*
X71012392Y-24491317D01*
X71091296Y-24373228D01*
X71523228Y-23941296D01*
X72031126Y-23601930D01*
X72055196Y-23591960D01*
X72196420Y-23533463D01*
X72595472Y-23368170D01*
X72895025Y-23308585D01*
X73194577Y-23249000D01*
X73805423Y-23249000D01*
X74104975Y-23308585D01*
G37*
G36*
X36007430Y-22698978D02*
G01*
X36258684Y-22748955D01*
X36454752Y-22830169D01*
X36732034Y-22945023D01*
X36732035Y-22945024D01*
X37158041Y-23229671D01*
X37520329Y-23591959D01*
X37526991Y-23601930D01*
X37804977Y-24017966D01*
X37919831Y-24295248D01*
X38001045Y-24491316D01*
X38101000Y-24993824D01*
X38101000Y-25506176D01*
X38001045Y-26008684D01*
X37986177Y-26044578D01*
X37804977Y-26482034D01*
X37804976Y-26482035D01*
X37520329Y-26908041D01*
X37158041Y-27270329D01*
X36873393Y-27460524D01*
X36732034Y-27554977D01*
X36505042Y-27649000D01*
X36258684Y-27751045D01*
X36007430Y-27801022D01*
X35756177Y-27851000D01*
X35243823Y-27851000D01*
X34992570Y-27801022D01*
X34741316Y-27751045D01*
X34494958Y-27649000D01*
X34267966Y-27554977D01*
X34126607Y-27460524D01*
X33841959Y-27270329D01*
X33479671Y-26908041D01*
X33195024Y-26482035D01*
X33195023Y-26482034D01*
X33013823Y-26044578D01*
X32998955Y-26008684D01*
X32899000Y-25506176D01*
X32899000Y-24993824D01*
X32998955Y-24491316D01*
X33080169Y-24295248D01*
X33195023Y-24017966D01*
X33473009Y-23601930D01*
X33479671Y-23591959D01*
X33841959Y-23229671D01*
X34267965Y-22945024D01*
X34267966Y-22945023D01*
X34545248Y-22830169D01*
X34741316Y-22748955D01*
X34992570Y-22698978D01*
X35243823Y-22649000D01*
X35756177Y-22649000D01*
X36007430Y-22698978D01*
G37*
G36*
X46007430Y-22698978D02*
G01*
X46258684Y-22748955D01*
X46454752Y-22830169D01*
X46732034Y-22945023D01*
X46732035Y-22945024D01*
X47158041Y-23229671D01*
X47520329Y-23591959D01*
X47526991Y-23601930D01*
X47804977Y-24017966D01*
X47919831Y-24295248D01*
X48001045Y-24491316D01*
X48101000Y-24993824D01*
X48101000Y-25506176D01*
X48001045Y-26008684D01*
X47986177Y-26044578D01*
X47804977Y-26482034D01*
X47804976Y-26482035D01*
X47520329Y-26908041D01*
X47158041Y-27270329D01*
X46873393Y-27460524D01*
X46732034Y-27554977D01*
X46505042Y-27649000D01*
X46258684Y-27751045D01*
X46007430Y-27801022D01*
X45756177Y-27851000D01*
X45243823Y-27851000D01*
X44992570Y-27801022D01*
X44741316Y-27751045D01*
X44494958Y-27649000D01*
X44267966Y-27554977D01*
X44126607Y-27460524D01*
X43841959Y-27270329D01*
X43479671Y-26908041D01*
X43195024Y-26482035D01*
X43195023Y-26482034D01*
X43013823Y-26044578D01*
X42998955Y-26008684D01*
X42899000Y-25506176D01*
X42899000Y-24993824D01*
X42998955Y-24491316D01*
X43080169Y-24295248D01*
X43195023Y-24017966D01*
X43473009Y-23601930D01*
X43479671Y-23591959D01*
X43841959Y-23229671D01*
X44267965Y-22945024D01*
X44267966Y-22945023D01*
X44545248Y-22830169D01*
X44741316Y-22748955D01*
X44992570Y-22698978D01*
X45243823Y-22649000D01*
X45756177Y-22649000D01*
X46007430Y-22698978D01*
G37*
G36*
X41507430Y-17698977D02*
G01*
X41758684Y-17748955D01*
X41954752Y-17830169D01*
X42232034Y-17945023D01*
X42232035Y-17945024D01*
X42658041Y-18229671D01*
X43020329Y-18591959D01*
X43210524Y-18876607D01*
X43304977Y-19017966D01*
X43501045Y-19491317D01*
X43601000Y-19993823D01*
X43601000Y-20506177D01*
X43501045Y-21008683D01*
X43304977Y-21482034D01*
X43304976Y-21482035D01*
X43020329Y-21908041D01*
X42658041Y-22270329D01*
X42373393Y-22460524D01*
X42232034Y-22554977D01*
X42005042Y-22649000D01*
X41758684Y-22751045D01*
X41507430Y-22801023D01*
X41256177Y-22851000D01*
X40743823Y-22851000D01*
X40492570Y-22801022D01*
X40241316Y-22751045D01*
X39994958Y-22649000D01*
X39767966Y-22554977D01*
X39626607Y-22460524D01*
X39341959Y-22270329D01*
X38979671Y-21908041D01*
X38695024Y-21482035D01*
X38695023Y-21482034D01*
X38498955Y-21008683D01*
X38399000Y-20506177D01*
X38399000Y-19993823D01*
X38498955Y-19491317D01*
X38695023Y-19017966D01*
X38789476Y-18876607D01*
X38979671Y-18591959D01*
X39341959Y-18229671D01*
X39767965Y-17945024D01*
X39767966Y-17945023D01*
X40045248Y-17830169D01*
X40241316Y-17748955D01*
X40492570Y-17698977D01*
X40743823Y-17649000D01*
X41256177Y-17649000D01*
X41507430Y-17698977D01*
G37*
M02*
