G04 #@! TF.GenerationSoftware,KiCad,Pcbnew,(5.1.5-0)*
G04 #@! TF.CreationDate,2021-01-20T17:05:57-08:00*
G04 #@! TF.ProjectId,1050mixerseq,31303530-6d69-4786-9572-7365712e6b69,rev?*
G04 #@! TF.SameCoordinates,Original*
G04 #@! TF.FileFunction,Copper,L1,Top*
G04 #@! TF.FilePolarity,Positive*
%FSLAX46Y46*%
G04 Gerber Fmt 4.6, Leading zero omitted, Abs format (unit mm)*
G04 Created by KiCad (PCBNEW (5.1.5-0)) date 2021-01-20 17:05:57*
%MOMM*%
%LPD*%
G04 APERTURE LIST*
%ADD10C,2.000000*%
%ADD11C,1.000000*%
%ADD12C,0.100000*%
%ADD13C,6.400000*%
%ADD14C,6.100000*%
%ADD15C,5.100000*%
G04 APERTURE END LIST*
D10*
X7750000Y-26500000D02*
X7750000Y-78500000D01*
X73500000Y-26500000D02*
X73500000Y-78500000D01*
D11*
X41000000Y-69000000D02*
X24250000Y-74000000D01*
X41000000Y-69000000D02*
X56750000Y-74000000D01*
X41000000Y-69000000D02*
X57500000Y-61250000D01*
X41000000Y-69000000D02*
X23750000Y-61250000D01*
X41000000Y-69000000D02*
X22750000Y-46000000D01*
X41000000Y-69000000D02*
X58500000Y-46000000D01*
X41250000Y-68750000D02*
X59000000Y-29750000D01*
X41000000Y-69000000D02*
X22000000Y-30000000D01*
D10*
X41000000Y-85750000D02*
X41000000Y-31250000D01*
D12*
G36*
X50750000Y-30250000D02*
G01*
X41000000Y-40250000D01*
X30500000Y-30250000D01*
X41000000Y-20000000D01*
X50750000Y-30250000D01*
G37*
X50750000Y-30250000D02*
X41000000Y-40250000D01*
X30500000Y-30250000D01*
X41000000Y-20000000D01*
X50750000Y-30250000D01*
G36*
X37096400Y-119524900D02*
G01*
X37413900Y-119766200D01*
X37979050Y-120083700D01*
X38575950Y-120515500D01*
X38950600Y-120896500D01*
X39350650Y-121461650D01*
X39947550Y-122642750D01*
X40246000Y-123207900D01*
X40258700Y-123220600D01*
X39928500Y-123246000D01*
X39826900Y-123195200D01*
X39471300Y-122947550D01*
X39064900Y-122579250D01*
X38734700Y-122230000D01*
X38379100Y-121798200D01*
X38099700Y-121379100D01*
X37909200Y-121125100D01*
X37655200Y-120667900D01*
X37401200Y-120299600D01*
X37159900Y-119880500D01*
X36880500Y-119321700D01*
X37096400Y-119524900D01*
G37*
X37096400Y-119524900D02*
X37413900Y-119766200D01*
X37979050Y-120083700D01*
X38575950Y-120515500D01*
X38950600Y-120896500D01*
X39350650Y-121461650D01*
X39947550Y-122642750D01*
X40246000Y-123207900D01*
X40258700Y-123220600D01*
X39928500Y-123246000D01*
X39826900Y-123195200D01*
X39471300Y-122947550D01*
X39064900Y-122579250D01*
X38734700Y-122230000D01*
X38379100Y-121798200D01*
X38099700Y-121379100D01*
X37909200Y-121125100D01*
X37655200Y-120667900D01*
X37401200Y-120299600D01*
X37159900Y-119880500D01*
X36880500Y-119321700D01*
X37096400Y-119524900D01*
G36*
X38502925Y-122703075D02*
G01*
X38839475Y-122798325D01*
X39103000Y-122890400D01*
X39801500Y-123296800D01*
X39831980Y-123324740D01*
X39839600Y-123309500D01*
X39839600Y-123322200D01*
X39831980Y-123324740D01*
X39750700Y-123487300D01*
X40144400Y-123627000D01*
X39934850Y-123652400D01*
X39541150Y-123677800D01*
X39064900Y-123677800D01*
X38620400Y-123614300D01*
X38137800Y-123500000D01*
X37744100Y-123385700D01*
X37337700Y-123157100D01*
X37020200Y-122928500D01*
X36613800Y-122801500D01*
X37261500Y-122750700D01*
X37794900Y-122712600D01*
X38258450Y-122706250D01*
X38502925Y-122703075D01*
G37*
X38502925Y-122703075D02*
X38839475Y-122798325D01*
X39103000Y-122890400D01*
X39801500Y-123296800D01*
X39831980Y-123324740D01*
X39839600Y-123309500D01*
X39839600Y-123322200D01*
X39831980Y-123324740D01*
X39750700Y-123487300D01*
X40144400Y-123627000D01*
X39934850Y-123652400D01*
X39541150Y-123677800D01*
X39064900Y-123677800D01*
X38620400Y-123614300D01*
X38137800Y-123500000D01*
X37744100Y-123385700D01*
X37337700Y-123157100D01*
X37020200Y-122928500D01*
X36613800Y-122801500D01*
X37261500Y-122750700D01*
X37794900Y-122712600D01*
X38258450Y-122706250D01*
X38502925Y-122703075D01*
G36*
X40366650Y-123766700D02*
G01*
X39998350Y-124198500D01*
X39560200Y-124471550D01*
X39179200Y-124611250D01*
X38429900Y-124776350D01*
X38912500Y-124249300D01*
X39306200Y-123982600D01*
X39674500Y-123779400D01*
X40144400Y-123703200D01*
X40169800Y-123703200D01*
X40366650Y-123766700D01*
G37*
X40366650Y-123766700D02*
X39998350Y-124198500D01*
X39560200Y-124471550D01*
X39179200Y-124611250D01*
X38429900Y-124776350D01*
X38912500Y-124249300D01*
X39306200Y-123982600D01*
X39674500Y-123779400D01*
X40144400Y-123703200D01*
X40169800Y-123703200D01*
X40366650Y-123766700D01*
G36*
X40500000Y-123284100D02*
G01*
X40288862Y-123477775D01*
X40507937Y-123573025D01*
X41258825Y-124115950D01*
X41077850Y-124211200D01*
X40500000Y-123754000D01*
X40512700Y-124846200D01*
X40398400Y-124706500D01*
X40392050Y-123817500D01*
X40436500Y-123817500D01*
X40055500Y-123601600D01*
X39769750Y-123449200D01*
X39934850Y-123169800D01*
X40500000Y-123284100D01*
G37*
X40500000Y-123284100D02*
X40288862Y-123477775D01*
X40507937Y-123573025D01*
X41258825Y-124115950D01*
X41077850Y-124211200D01*
X40500000Y-123754000D01*
X40512700Y-124846200D01*
X40398400Y-124706500D01*
X40392050Y-123817500D01*
X40436500Y-123817500D01*
X40055500Y-123601600D01*
X39769750Y-123449200D01*
X39934850Y-123169800D01*
X40500000Y-123284100D01*
G36*
X41141350Y-123741300D02*
G01*
X41693800Y-124020700D01*
X42020825Y-124347725D01*
X42155763Y-124577913D01*
X42387538Y-124847788D01*
X42081150Y-124763650D01*
X41827150Y-124687450D01*
X41649350Y-124623950D01*
X41274700Y-124490600D01*
X40915925Y-124296925D01*
X40655575Y-124011175D01*
X40531750Y-123849250D01*
X40595250Y-123887350D01*
X40569850Y-123823850D01*
X40633350Y-123652400D01*
X41141350Y-123741300D01*
G37*
X41141350Y-123741300D02*
X41693800Y-124020700D01*
X42020825Y-124347725D01*
X42155763Y-124577913D01*
X42387538Y-124847788D01*
X42081150Y-124763650D01*
X41827150Y-124687450D01*
X41649350Y-124623950D01*
X41274700Y-124490600D01*
X40915925Y-124296925D01*
X40655575Y-124011175D01*
X40531750Y-123849250D01*
X40595250Y-123887350D01*
X40569850Y-123823850D01*
X40633350Y-123652400D01*
X41141350Y-123741300D01*
G36*
X43573400Y-122738000D02*
G01*
X44005200Y-122763400D01*
X44583207Y-122773943D01*
X43903600Y-122928500D01*
X43471800Y-123119000D01*
X43128900Y-123334900D01*
X42709800Y-123500000D01*
X42176400Y-123588900D01*
X41731900Y-123614300D01*
X41154050Y-123595250D01*
X40576200Y-123576200D01*
X40512700Y-123500000D01*
X40728600Y-123436500D01*
X40735585Y-123385700D01*
X41051815Y-123258700D01*
X41585850Y-123030100D01*
X42138300Y-122826900D01*
X42532000Y-122712600D01*
X42976500Y-122712600D01*
X43573400Y-122738000D01*
G37*
X43573400Y-122738000D02*
X44005200Y-122763400D01*
X44583207Y-122773943D01*
X43903600Y-122928500D01*
X43471800Y-123119000D01*
X43128900Y-123334900D01*
X42709800Y-123500000D01*
X42176400Y-123588900D01*
X41731900Y-123614300D01*
X41154050Y-123595250D01*
X40576200Y-123576200D01*
X40512700Y-123500000D01*
X40728600Y-123436500D01*
X40735585Y-123385700D01*
X41051815Y-123258700D01*
X41585850Y-123030100D01*
X42138300Y-122826900D01*
X42532000Y-122712600D01*
X42976500Y-122712600D01*
X43573400Y-122738000D01*
G36*
X43560700Y-120083700D02*
G01*
X43319400Y-120579000D01*
X43116200Y-121036200D01*
X42855850Y-121556900D01*
X42582800Y-121912500D01*
X42271650Y-122325250D01*
X41801750Y-122718950D01*
X41300100Y-123055500D01*
X40195200Y-123652400D01*
X40220600Y-123322200D01*
X40525400Y-123271400D01*
X40773050Y-122833250D01*
X40988950Y-122369700D01*
X41154050Y-122039500D01*
X41338200Y-121747400D01*
X41503300Y-121429900D01*
X41782700Y-121074300D01*
X42062100Y-120756800D01*
X42392300Y-120464700D01*
X42735200Y-120236100D01*
X43116200Y-119982100D01*
X43509900Y-119715400D01*
X44043300Y-119321700D01*
X43560700Y-120083700D01*
G37*
X43560700Y-120083700D02*
X43319400Y-120579000D01*
X43116200Y-121036200D01*
X42855850Y-121556900D01*
X42582800Y-121912500D01*
X42271650Y-122325250D01*
X41801750Y-122718950D01*
X41300100Y-123055500D01*
X40195200Y-123652400D01*
X40220600Y-123322200D01*
X40525400Y-123271400D01*
X40773050Y-122833250D01*
X40988950Y-122369700D01*
X41154050Y-122039500D01*
X41338200Y-121747400D01*
X41503300Y-121429900D01*
X41782700Y-121074300D01*
X42062100Y-120756800D01*
X42392300Y-120464700D01*
X42735200Y-120236100D01*
X43116200Y-119982100D01*
X43509900Y-119715400D01*
X44043300Y-119321700D01*
X43560700Y-120083700D01*
G36*
X40715900Y-117950100D02*
G01*
X40817500Y-118432700D01*
X40931800Y-118889900D01*
X41014350Y-119220100D01*
X41077850Y-119601100D01*
X41122300Y-120121800D01*
X41122300Y-120655200D01*
X41071500Y-121239400D01*
X41008000Y-121760100D01*
X40865125Y-122255400D01*
X40566675Y-123271400D01*
X40353950Y-123220600D01*
X40119000Y-122306200D01*
X39945962Y-121442600D01*
X39961837Y-120655200D01*
X40014225Y-119994800D01*
X40176150Y-119220100D01*
X40411100Y-118407300D01*
X40538100Y-117632600D01*
X40601600Y-117111900D01*
X40715900Y-117950100D01*
G37*
X40715900Y-117950100D02*
X40817500Y-118432700D01*
X40931800Y-118889900D01*
X41014350Y-119220100D01*
X41077850Y-119601100D01*
X41122300Y-120121800D01*
X41122300Y-120655200D01*
X41071500Y-121239400D01*
X41008000Y-121760100D01*
X40865125Y-122255400D01*
X40566675Y-123271400D01*
X40353950Y-123220600D01*
X40119000Y-122306200D01*
X39945962Y-121442600D01*
X39961837Y-120655200D01*
X40014225Y-119994800D01*
X40176150Y-119220100D01*
X40411100Y-118407300D01*
X40538100Y-117632600D01*
X40601600Y-117111900D01*
X40715900Y-117950100D01*
D13*
X41000000Y-85500000D03*
X41000000Y-69000000D03*
D14*
X8750000Y-102000000D03*
X18750000Y-102000000D03*
X32250000Y-102000000D03*
X73500000Y-60750000D03*
X73500000Y-43350000D03*
X73500000Y-26350000D03*
X73500000Y-77750000D03*
X7750000Y-26350000D03*
D15*
X35500000Y-35250000D03*
X41000000Y-40250000D03*
X45500000Y-35250000D03*
X50750000Y-30250000D03*
X45500000Y-25250000D03*
X41000000Y-20250000D03*
X35500000Y-25250000D03*
X30500000Y-30250000D03*
D14*
X72500000Y-102000000D03*
X7750000Y-77750000D03*
X7750000Y-43350000D03*
X7750000Y-60750000D03*
X42500000Y-102000000D03*
X62500000Y-102000000D03*
X52500000Y-102000000D03*
M02*
