G04 #@! TF.GenerationSoftware,KiCad,Pcbnew,(5.1.5-0)*
G04 #@! TF.CreationDate,2021-01-20T17:05:57-08:00*
G04 #@! TF.ProjectId,1050mixerseq,31303530-6d69-4786-9572-7365712e6b69,rev?*
G04 #@! TF.SameCoordinates,Original*
G04 #@! TF.FileFunction,Soldermask,Bot*
G04 #@! TF.FilePolarity,Negative*
%FSLAX46Y46*%
G04 Gerber Fmt 4.6, Leading zero omitted, Abs format (unit mm)*
G04 Created by KiCad (PCBNEW (5.1.5-0)) date 2021-01-20 17:05:57*
%MOMM*%
%LPD*%
G04 APERTURE LIST*
%ADD10C,1.000000*%
%ADD11C,0.150000*%
%ADD12C,0.100000*%
G04 APERTURE END LIST*
D10*
X12250000Y-102000000D02*
G75*
G03X12250000Y-102000000I-3500000J0D01*
G01*
X22250000Y-102000000D02*
G75*
G03X22250000Y-102000000I-3500000J0D01*
G01*
X35750000Y-102000000D02*
G75*
G03X35750000Y-102000000I-3500000J0D01*
G01*
X77000000Y-60750000D02*
G75*
G03X77000000Y-60750000I-3500000J0D01*
G01*
X77000000Y-43350000D02*
G75*
G03X77000000Y-43350000I-3500000J0D01*
G01*
X77000000Y-26350000D02*
G75*
G03X77000000Y-26350000I-3500000J0D01*
G01*
X77000000Y-77750000D02*
G75*
G03X77000000Y-77750000I-3500000J0D01*
G01*
X11250000Y-26350000D02*
G75*
G03X11250000Y-26350000I-3500000J0D01*
G01*
X76000000Y-102000000D02*
G75*
G03X76000000Y-102000000I-3500000J0D01*
G01*
X11250000Y-77750000D02*
G75*
G03X11250000Y-77750000I-3500000J0D01*
G01*
X11250000Y-43350000D02*
G75*
G03X11250000Y-43350000I-3500000J0D01*
G01*
D11*
X22726190Y-121452380D02*
X22726190Y-120785714D01*
X22726190Y-120976190D02*
X22678571Y-120880952D01*
X22630952Y-120833333D01*
X22535714Y-120785714D01*
X22440476Y-120785714D01*
X21726190Y-121404761D02*
X21821428Y-121452380D01*
X22011904Y-121452380D01*
X22107142Y-121404761D01*
X22154761Y-121309523D01*
X22154761Y-120928571D01*
X22107142Y-120833333D01*
X22011904Y-120785714D01*
X21821428Y-120785714D01*
X21726190Y-120833333D01*
X21678571Y-120928571D01*
X21678571Y-121023809D01*
X22154761Y-121119047D01*
X21250000Y-120785714D02*
X21250000Y-121785714D01*
X21250000Y-120833333D02*
X21154761Y-120785714D01*
X20964285Y-120785714D01*
X20869047Y-120833333D01*
X20821428Y-120880952D01*
X20773809Y-120976190D01*
X20773809Y-121261904D01*
X20821428Y-121357142D01*
X20869047Y-121404761D01*
X20964285Y-121452380D01*
X21154761Y-121452380D01*
X21250000Y-121404761D01*
X19916666Y-121452380D02*
X19916666Y-120928571D01*
X19964285Y-120833333D01*
X20059523Y-120785714D01*
X20250000Y-120785714D01*
X20345238Y-120833333D01*
X19916666Y-121404761D02*
X20011904Y-121452380D01*
X20250000Y-121452380D01*
X20345238Y-121404761D01*
X20392857Y-121309523D01*
X20392857Y-121214285D01*
X20345238Y-121119047D01*
X20250000Y-121071428D01*
X20011904Y-121071428D01*
X19916666Y-121023809D01*
X19440476Y-120785714D02*
X19440476Y-121452380D01*
X19440476Y-120880952D02*
X19392857Y-120833333D01*
X19297619Y-120785714D01*
X19154761Y-120785714D01*
X19059523Y-120833333D01*
X19011904Y-120928571D01*
X19011904Y-121452380D01*
X18154761Y-121404761D02*
X18250000Y-121452380D01*
X18440476Y-121452380D01*
X18535714Y-121404761D01*
X18583333Y-121309523D01*
X18583333Y-120928571D01*
X18535714Y-120833333D01*
X18440476Y-120785714D01*
X18250000Y-120785714D01*
X18154761Y-120833333D01*
X18107142Y-120928571D01*
X18107142Y-121023809D01*
X18583333Y-121119047D01*
X17535714Y-121452380D02*
X17630952Y-121404761D01*
X17678571Y-121309523D01*
X17678571Y-120452380D01*
X16392857Y-121452380D02*
X16392857Y-120452380D01*
X16392857Y-120833333D02*
X16297619Y-120785714D01*
X16107142Y-120785714D01*
X16011904Y-120833333D01*
X15964285Y-120880952D01*
X15916666Y-120976190D01*
X15916666Y-121261904D01*
X15964285Y-121357142D01*
X16011904Y-121404761D01*
X16107142Y-121452380D01*
X16297619Y-121452380D01*
X16392857Y-121404761D01*
X15583333Y-120785714D02*
X15345238Y-121452380D01*
X15107142Y-120785714D02*
X15345238Y-121452380D01*
X15440476Y-121690476D01*
X15488095Y-121738095D01*
X15583333Y-121785714D01*
X13964285Y-120785714D02*
X13964285Y-121642857D01*
X14011904Y-121738095D01*
X14107142Y-121785714D01*
X14154761Y-121785714D01*
X13964285Y-120452380D02*
X14011904Y-120500000D01*
X13964285Y-120547619D01*
X13916666Y-120500000D01*
X13964285Y-120452380D01*
X13964285Y-120547619D01*
X13059523Y-121452380D02*
X13059523Y-120928571D01*
X13107142Y-120833333D01*
X13202380Y-120785714D01*
X13392857Y-120785714D01*
X13488095Y-120833333D01*
X13059523Y-121404761D02*
X13154761Y-121452380D01*
X13392857Y-121452380D01*
X13488095Y-121404761D01*
X13535714Y-121309523D01*
X13535714Y-121214285D01*
X13488095Y-121119047D01*
X13392857Y-121071428D01*
X13154761Y-121071428D01*
X13059523Y-121023809D01*
X12154761Y-121404761D02*
X12250000Y-121452380D01*
X12440476Y-121452380D01*
X12535714Y-121404761D01*
X12583333Y-121357142D01*
X12630952Y-121261904D01*
X12630952Y-120976190D01*
X12583333Y-120880952D01*
X12535714Y-120833333D01*
X12440476Y-120785714D01*
X12250000Y-120785714D01*
X12154761Y-120833333D01*
X11726190Y-121452380D02*
X11726190Y-120452380D01*
X11630952Y-121071428D02*
X11345238Y-121452380D01*
X11345238Y-120785714D02*
X11726190Y-121166666D01*
X10202380Y-121404761D02*
X10107142Y-121452380D01*
X9916666Y-121452380D01*
X9821428Y-121404761D01*
X9773809Y-121309523D01*
X9773809Y-121261904D01*
X9821428Y-121166666D01*
X9916666Y-121119047D01*
X10059523Y-121119047D01*
X10154761Y-121071428D01*
X10202380Y-120976190D01*
X10202380Y-120928571D01*
X10154761Y-120833333D01*
X10059523Y-120785714D01*
X9916666Y-120785714D01*
X9821428Y-120833333D01*
X9345238Y-121357142D02*
X9297619Y-121404761D01*
X9345238Y-121452380D01*
X9392857Y-121404761D01*
X9345238Y-121357142D01*
X9345238Y-121452380D01*
X8154761Y-120547619D02*
X8107142Y-120500000D01*
X8011904Y-120452380D01*
X7773809Y-120452380D01*
X7678571Y-120500000D01*
X7630952Y-120547619D01*
X7583333Y-120642857D01*
X7583333Y-120738095D01*
X7630952Y-120880952D01*
X8202380Y-121452380D01*
X7583333Y-121452380D01*
X6964285Y-120452380D02*
X6869047Y-120452380D01*
X6773809Y-120500000D01*
X6726190Y-120547619D01*
X6678571Y-120642857D01*
X6630952Y-120833333D01*
X6630952Y-121071428D01*
X6678571Y-121261904D01*
X6726190Y-121357142D01*
X6773809Y-121404761D01*
X6869047Y-121452380D01*
X6964285Y-121452380D01*
X7059523Y-121404761D01*
X7107142Y-121357142D01*
X7154761Y-121261904D01*
X7202380Y-121071428D01*
X7202380Y-120833333D01*
X7154761Y-120642857D01*
X7107142Y-120547619D01*
X7059523Y-120500000D01*
X6964285Y-120452380D01*
X6250000Y-120547619D02*
X6202380Y-120500000D01*
X6107142Y-120452380D01*
X5869047Y-120452380D01*
X5773809Y-120500000D01*
X5726190Y-120547619D01*
X5678571Y-120642857D01*
X5678571Y-120738095D01*
X5726190Y-120880952D01*
X6297619Y-121452380D01*
X5678571Y-121452380D01*
X4726190Y-121452380D02*
X5297619Y-121452380D01*
X5011904Y-121452380D02*
X5011904Y-120452380D01*
X5107142Y-120595238D01*
X5202380Y-120690476D01*
X5297619Y-120738095D01*
D10*
X11250000Y-60750000D02*
G75*
G03X11250000Y-60750000I-3500000J0D01*
G01*
X46000000Y-102000000D02*
G75*
G03X46000000Y-102000000I-3500000J0D01*
G01*
X56000000Y-102000000D02*
G75*
G03X56000000Y-102000000I-3500000J0D01*
G01*
X66000000Y-102000000D02*
G75*
G03X66000000Y-102000000I-3500000J0D01*
G01*
D12*
G36*
X73104975Y-98958585D02*
G01*
X73404528Y-99018170D01*
X73968874Y-99251930D01*
X74476772Y-99591296D01*
X74908704Y-100023228D01*
X75248070Y-100531126D01*
X75481830Y-101095472D01*
X75601000Y-101694578D01*
X75601000Y-102305422D01*
X75481830Y-102904528D01*
X75248070Y-103468874D01*
X74908704Y-103976772D01*
X74476772Y-104408704D01*
X73968874Y-104748070D01*
X73404528Y-104981830D01*
X73104975Y-105041415D01*
X72805423Y-105101000D01*
X72194577Y-105101000D01*
X71895025Y-105041415D01*
X71595472Y-104981830D01*
X71031126Y-104748070D01*
X70523228Y-104408704D01*
X70091296Y-103976772D01*
X69751930Y-103468874D01*
X69518170Y-102904528D01*
X69399000Y-102305422D01*
X69399000Y-101694578D01*
X69518170Y-101095472D01*
X69751930Y-100531126D01*
X70091296Y-100023228D01*
X70523228Y-99591296D01*
X71031126Y-99251930D01*
X71595472Y-99018170D01*
X71895025Y-98958585D01*
X72194577Y-98899000D01*
X72805423Y-98899000D01*
X73104975Y-98958585D01*
G37*
G36*
X63104975Y-98958585D02*
G01*
X63404528Y-99018170D01*
X63968874Y-99251930D01*
X64476772Y-99591296D01*
X64908704Y-100023228D01*
X65248070Y-100531126D01*
X65481830Y-101095472D01*
X65601000Y-101694578D01*
X65601000Y-102305422D01*
X65481830Y-102904528D01*
X65248070Y-103468874D01*
X64908704Y-103976772D01*
X64476772Y-104408704D01*
X63968874Y-104748070D01*
X63404528Y-104981830D01*
X63104975Y-105041415D01*
X62805423Y-105101000D01*
X62194577Y-105101000D01*
X61895025Y-105041415D01*
X61595472Y-104981830D01*
X61031126Y-104748070D01*
X60523228Y-104408704D01*
X60091296Y-103976772D01*
X59751930Y-103468874D01*
X59518170Y-102904528D01*
X59399000Y-102305422D01*
X59399000Y-101694578D01*
X59518170Y-101095472D01*
X59751930Y-100531126D01*
X60091296Y-100023228D01*
X60523228Y-99591296D01*
X61031126Y-99251930D01*
X61595472Y-99018170D01*
X61895025Y-98958585D01*
X62194577Y-98899000D01*
X62805423Y-98899000D01*
X63104975Y-98958585D01*
G37*
G36*
X53104975Y-98958585D02*
G01*
X53404528Y-99018170D01*
X53968874Y-99251930D01*
X54476772Y-99591296D01*
X54908704Y-100023228D01*
X55248070Y-100531126D01*
X55481830Y-101095472D01*
X55601000Y-101694578D01*
X55601000Y-102305422D01*
X55481830Y-102904528D01*
X55248070Y-103468874D01*
X54908704Y-103976772D01*
X54476772Y-104408704D01*
X53968874Y-104748070D01*
X53404528Y-104981830D01*
X53104975Y-105041415D01*
X52805423Y-105101000D01*
X52194577Y-105101000D01*
X51895025Y-105041415D01*
X51595472Y-104981830D01*
X51031126Y-104748070D01*
X50523228Y-104408704D01*
X50091296Y-103976772D01*
X49751930Y-103468874D01*
X49518170Y-102904528D01*
X49399000Y-102305422D01*
X49399000Y-101694578D01*
X49518170Y-101095472D01*
X49751930Y-100531126D01*
X50091296Y-100023228D01*
X50523228Y-99591296D01*
X51031126Y-99251930D01*
X51595472Y-99018170D01*
X51895025Y-98958585D01*
X52194577Y-98899000D01*
X52805423Y-98899000D01*
X53104975Y-98958585D01*
G37*
G36*
X43104975Y-98958585D02*
G01*
X43404528Y-99018170D01*
X43968874Y-99251930D01*
X44476772Y-99591296D01*
X44908704Y-100023228D01*
X45248070Y-100531126D01*
X45481830Y-101095472D01*
X45601000Y-101694578D01*
X45601000Y-102305422D01*
X45481830Y-102904528D01*
X45248070Y-103468874D01*
X44908704Y-103976772D01*
X44476772Y-104408704D01*
X43968874Y-104748070D01*
X43404528Y-104981830D01*
X43104975Y-105041415D01*
X42805423Y-105101000D01*
X42194577Y-105101000D01*
X41895025Y-105041415D01*
X41595472Y-104981830D01*
X41031126Y-104748070D01*
X40523228Y-104408704D01*
X40091296Y-103976772D01*
X39751930Y-103468874D01*
X39518170Y-102904528D01*
X39399000Y-102305422D01*
X39399000Y-101694578D01*
X39518170Y-101095472D01*
X39751930Y-100531126D01*
X40091296Y-100023228D01*
X40523228Y-99591296D01*
X41031126Y-99251930D01*
X41595472Y-99018170D01*
X41895025Y-98958585D01*
X42194577Y-98899000D01*
X42805423Y-98899000D01*
X43104975Y-98958585D01*
G37*
G36*
X32854975Y-98958585D02*
G01*
X33154528Y-99018170D01*
X33718874Y-99251930D01*
X34226772Y-99591296D01*
X34658704Y-100023228D01*
X34998070Y-100531126D01*
X35231830Y-101095472D01*
X35351000Y-101694578D01*
X35351000Y-102305422D01*
X35231830Y-102904528D01*
X34998070Y-103468874D01*
X34658704Y-103976772D01*
X34226772Y-104408704D01*
X33718874Y-104748070D01*
X33154528Y-104981830D01*
X32854975Y-105041415D01*
X32555423Y-105101000D01*
X31944577Y-105101000D01*
X31645025Y-105041415D01*
X31345472Y-104981830D01*
X30781126Y-104748070D01*
X30273228Y-104408704D01*
X29841296Y-103976772D01*
X29501930Y-103468874D01*
X29268170Y-102904528D01*
X29149000Y-102305422D01*
X29149000Y-101694578D01*
X29268170Y-101095472D01*
X29501930Y-100531126D01*
X29841296Y-100023228D01*
X30273228Y-99591296D01*
X30781126Y-99251930D01*
X31345472Y-99018170D01*
X31645025Y-98958585D01*
X31944577Y-98899000D01*
X32555423Y-98899000D01*
X32854975Y-98958585D01*
G37*
G36*
X19354975Y-98958585D02*
G01*
X19654528Y-99018170D01*
X20218874Y-99251930D01*
X20726772Y-99591296D01*
X21158704Y-100023228D01*
X21498070Y-100531126D01*
X21731830Y-101095472D01*
X21851000Y-101694578D01*
X21851000Y-102305422D01*
X21731830Y-102904528D01*
X21498070Y-103468874D01*
X21158704Y-103976772D01*
X20726772Y-104408704D01*
X20218874Y-104748070D01*
X19654528Y-104981830D01*
X19354975Y-105041415D01*
X19055423Y-105101000D01*
X18444577Y-105101000D01*
X18145025Y-105041415D01*
X17845472Y-104981830D01*
X17281126Y-104748070D01*
X16773228Y-104408704D01*
X16341296Y-103976772D01*
X16001930Y-103468874D01*
X15768170Y-102904528D01*
X15649000Y-102305422D01*
X15649000Y-101694578D01*
X15768170Y-101095472D01*
X16001930Y-100531126D01*
X16341296Y-100023228D01*
X16773228Y-99591296D01*
X17281126Y-99251930D01*
X17845472Y-99018170D01*
X18145025Y-98958585D01*
X18444577Y-98899000D01*
X19055423Y-98899000D01*
X19354975Y-98958585D01*
G37*
G36*
X9354975Y-98958585D02*
G01*
X9654528Y-99018170D01*
X10218874Y-99251930D01*
X10726772Y-99591296D01*
X11158704Y-100023228D01*
X11498070Y-100531126D01*
X11731830Y-101095472D01*
X11851000Y-101694578D01*
X11851000Y-102305422D01*
X11731830Y-102904528D01*
X11498070Y-103468874D01*
X11158704Y-103976772D01*
X10726772Y-104408704D01*
X10218874Y-104748070D01*
X9654528Y-104981830D01*
X9354975Y-105041415D01*
X9055423Y-105101000D01*
X8444577Y-105101000D01*
X8145025Y-105041415D01*
X7845472Y-104981830D01*
X7281126Y-104748070D01*
X6773228Y-104408704D01*
X6341296Y-103976772D01*
X6001930Y-103468874D01*
X5768170Y-102904528D01*
X5649000Y-102305422D01*
X5649000Y-101694578D01*
X5768170Y-101095472D01*
X6001930Y-100531126D01*
X6341296Y-100023228D01*
X6773228Y-99591296D01*
X7281126Y-99251930D01*
X7845472Y-99018170D01*
X8145025Y-98958585D01*
X8444577Y-98899000D01*
X9055423Y-98899000D01*
X9354975Y-98958585D01*
G37*
G36*
X41634239Y-82311467D02*
G01*
X41948282Y-82373934D01*
X42539926Y-82619001D01*
X43072392Y-82974784D01*
X43525216Y-83427608D01*
X43880999Y-83960074D01*
X44126066Y-84551718D01*
X44251000Y-85179804D01*
X44251000Y-85820196D01*
X44126066Y-86448282D01*
X43880999Y-87039926D01*
X43525216Y-87572392D01*
X43072392Y-88025216D01*
X42539926Y-88380999D01*
X41948282Y-88626066D01*
X41634239Y-88688533D01*
X41320197Y-88751000D01*
X40679803Y-88751000D01*
X40365761Y-88688533D01*
X40051718Y-88626066D01*
X39460074Y-88380999D01*
X38927608Y-88025216D01*
X38474784Y-87572392D01*
X38119001Y-87039926D01*
X37873934Y-86448282D01*
X37749000Y-85820196D01*
X37749000Y-85179804D01*
X37873934Y-84551718D01*
X38119001Y-83960074D01*
X38474784Y-83427608D01*
X38927608Y-82974784D01*
X39460074Y-82619001D01*
X40051718Y-82373934D01*
X40365761Y-82311467D01*
X40679803Y-82249000D01*
X41320197Y-82249000D01*
X41634239Y-82311467D01*
G37*
G36*
X74104975Y-74708585D02*
G01*
X74404528Y-74768170D01*
X74968874Y-75001930D01*
X75476772Y-75341296D01*
X75908704Y-75773228D01*
X76248070Y-76281126D01*
X76481830Y-76845472D01*
X76601000Y-77444578D01*
X76601000Y-78055422D01*
X76481830Y-78654528D01*
X76248070Y-79218874D01*
X75908704Y-79726772D01*
X75476772Y-80158704D01*
X74968874Y-80498070D01*
X74404528Y-80731830D01*
X74104975Y-80791415D01*
X73805423Y-80851000D01*
X73194577Y-80851000D01*
X72895025Y-80791415D01*
X72595472Y-80731830D01*
X72031126Y-80498070D01*
X71523228Y-80158704D01*
X71091296Y-79726772D01*
X70751930Y-79218874D01*
X70518170Y-78654528D01*
X70399000Y-78055422D01*
X70399000Y-77444578D01*
X70518170Y-76845472D01*
X70751930Y-76281126D01*
X71091296Y-75773228D01*
X71523228Y-75341296D01*
X72031126Y-75001930D01*
X72595472Y-74768170D01*
X72895025Y-74708585D01*
X73194577Y-74649000D01*
X73805423Y-74649000D01*
X74104975Y-74708585D01*
G37*
G36*
X8354975Y-74708585D02*
G01*
X8654528Y-74768170D01*
X9218874Y-75001930D01*
X9726772Y-75341296D01*
X10158704Y-75773228D01*
X10498070Y-76281126D01*
X10731830Y-76845472D01*
X10851000Y-77444578D01*
X10851000Y-78055422D01*
X10731830Y-78654528D01*
X10498070Y-79218874D01*
X10158704Y-79726772D01*
X9726772Y-80158704D01*
X9218874Y-80498070D01*
X8654528Y-80731830D01*
X8354975Y-80791415D01*
X8055423Y-80851000D01*
X7444577Y-80851000D01*
X7145025Y-80791415D01*
X6845472Y-80731830D01*
X6281126Y-80498070D01*
X5773228Y-80158704D01*
X5341296Y-79726772D01*
X5001930Y-79218874D01*
X4768170Y-78654528D01*
X4649000Y-78055422D01*
X4649000Y-77444578D01*
X4768170Y-76845472D01*
X5001930Y-76281126D01*
X5341296Y-75773228D01*
X5773228Y-75341296D01*
X6281126Y-75001930D01*
X6845472Y-74768170D01*
X7145025Y-74708585D01*
X7444577Y-74649000D01*
X8055423Y-74649000D01*
X8354975Y-74708585D01*
G37*
G36*
X41634239Y-65811467D02*
G01*
X41948282Y-65873934D01*
X42539926Y-66119001D01*
X43072392Y-66474784D01*
X43525216Y-66927608D01*
X43880999Y-67460074D01*
X44126066Y-68051718D01*
X44251000Y-68679804D01*
X44251000Y-69320196D01*
X44126066Y-69948282D01*
X43880999Y-70539926D01*
X43525216Y-71072392D01*
X43072392Y-71525216D01*
X42539926Y-71880999D01*
X41948282Y-72126066D01*
X41634239Y-72188533D01*
X41320197Y-72251000D01*
X40679803Y-72251000D01*
X40365761Y-72188533D01*
X40051718Y-72126066D01*
X39460074Y-71880999D01*
X38927608Y-71525216D01*
X38474784Y-71072392D01*
X38119001Y-70539926D01*
X37873934Y-69948282D01*
X37749000Y-69320196D01*
X37749000Y-68679804D01*
X37873934Y-68051718D01*
X38119001Y-67460074D01*
X38474784Y-66927608D01*
X38927608Y-66474784D01*
X39460074Y-66119001D01*
X40051718Y-65873934D01*
X40365761Y-65811467D01*
X40679803Y-65749000D01*
X41320197Y-65749000D01*
X41634239Y-65811467D01*
G37*
G36*
X8354975Y-57708585D02*
G01*
X8654528Y-57768170D01*
X9218874Y-58001930D01*
X9726772Y-58341296D01*
X10158704Y-58773228D01*
X10498070Y-59281126D01*
X10731830Y-59845472D01*
X10851000Y-60444578D01*
X10851000Y-61055422D01*
X10731830Y-61654528D01*
X10498070Y-62218874D01*
X10158704Y-62726772D01*
X9726772Y-63158704D01*
X9218874Y-63498070D01*
X8654528Y-63731830D01*
X8354975Y-63791415D01*
X8055423Y-63851000D01*
X7444577Y-63851000D01*
X7145025Y-63791415D01*
X6845472Y-63731830D01*
X6281126Y-63498070D01*
X5773228Y-63158704D01*
X5341296Y-62726772D01*
X5001930Y-62218874D01*
X4768170Y-61654528D01*
X4649000Y-61055422D01*
X4649000Y-60444578D01*
X4768170Y-59845472D01*
X5001930Y-59281126D01*
X5341296Y-58773228D01*
X5773228Y-58341296D01*
X6281126Y-58001930D01*
X6845472Y-57768170D01*
X7145025Y-57708585D01*
X7444577Y-57649000D01*
X8055423Y-57649000D01*
X8354975Y-57708585D01*
G37*
G36*
X74104975Y-57708585D02*
G01*
X74404528Y-57768170D01*
X74968874Y-58001930D01*
X75476772Y-58341296D01*
X75908704Y-58773228D01*
X76248070Y-59281126D01*
X76481830Y-59845472D01*
X76601000Y-60444578D01*
X76601000Y-61055422D01*
X76481830Y-61654528D01*
X76248070Y-62218874D01*
X75908704Y-62726772D01*
X75476772Y-63158704D01*
X74968874Y-63498070D01*
X74404528Y-63731830D01*
X74104975Y-63791415D01*
X73805423Y-63851000D01*
X73194577Y-63851000D01*
X72895025Y-63791415D01*
X72595472Y-63731830D01*
X72031126Y-63498070D01*
X71523228Y-63158704D01*
X71091296Y-62726772D01*
X70751930Y-62218874D01*
X70518170Y-61654528D01*
X70399000Y-61055422D01*
X70399000Y-60444578D01*
X70518170Y-59845472D01*
X70751930Y-59281126D01*
X71091296Y-58773228D01*
X71523228Y-58341296D01*
X72031126Y-58001930D01*
X72595472Y-57768170D01*
X72895025Y-57708585D01*
X73194577Y-57649000D01*
X73805423Y-57649000D01*
X74104975Y-57708585D01*
G37*
G36*
X74104975Y-40308585D02*
G01*
X74404528Y-40368170D01*
X74968874Y-40601930D01*
X75476772Y-40941296D01*
X75908704Y-41373228D01*
X76248070Y-41881126D01*
X76481830Y-42445472D01*
X76601000Y-43044578D01*
X76601000Y-43655422D01*
X76481830Y-44254528D01*
X76248070Y-44818874D01*
X75908704Y-45326772D01*
X75476772Y-45758704D01*
X74968874Y-46098070D01*
X74404528Y-46331830D01*
X74104975Y-46391415D01*
X73805423Y-46451000D01*
X73194577Y-46451000D01*
X72895025Y-46391415D01*
X72595472Y-46331830D01*
X72031126Y-46098070D01*
X71523228Y-45758704D01*
X71091296Y-45326772D01*
X70751930Y-44818874D01*
X70518170Y-44254528D01*
X70399000Y-43655422D01*
X70399000Y-43044578D01*
X70518170Y-42445472D01*
X70751930Y-41881126D01*
X71091296Y-41373228D01*
X71523228Y-40941296D01*
X72031126Y-40601930D01*
X72595472Y-40368170D01*
X72895025Y-40308585D01*
X73194577Y-40249000D01*
X73805423Y-40249000D01*
X74104975Y-40308585D01*
G37*
G36*
X8354975Y-40308585D02*
G01*
X8654528Y-40368170D01*
X9218874Y-40601930D01*
X9726772Y-40941296D01*
X10158704Y-41373228D01*
X10498070Y-41881126D01*
X10731830Y-42445472D01*
X10851000Y-43044578D01*
X10851000Y-43655422D01*
X10731830Y-44254528D01*
X10498070Y-44818874D01*
X10158704Y-45326772D01*
X9726772Y-45758704D01*
X9218874Y-46098070D01*
X8654528Y-46331830D01*
X8354975Y-46391415D01*
X8055423Y-46451000D01*
X7444577Y-46451000D01*
X7145025Y-46391415D01*
X6845472Y-46331830D01*
X6281126Y-46098070D01*
X5773228Y-45758704D01*
X5341296Y-45326772D01*
X5001930Y-44818874D01*
X4768170Y-44254528D01*
X4649000Y-43655422D01*
X4649000Y-43044578D01*
X4768170Y-42445472D01*
X5001930Y-41881126D01*
X5341296Y-41373228D01*
X5773228Y-40941296D01*
X6281126Y-40601930D01*
X6845472Y-40368170D01*
X7145025Y-40308585D01*
X7444577Y-40249000D01*
X8055423Y-40249000D01*
X8354975Y-40308585D01*
G37*
G36*
X41507430Y-37698977D02*
G01*
X41758684Y-37748955D01*
X41954752Y-37830169D01*
X42232034Y-37945023D01*
X42232035Y-37945024D01*
X42658041Y-38229671D01*
X43020329Y-38591959D01*
X43210524Y-38876607D01*
X43304977Y-39017966D01*
X43501045Y-39491317D01*
X43601000Y-39993823D01*
X43601000Y-40506177D01*
X43501045Y-41008683D01*
X43304977Y-41482034D01*
X43304976Y-41482035D01*
X43020329Y-41908041D01*
X42658041Y-42270329D01*
X42395920Y-42445472D01*
X42232034Y-42554977D01*
X41954752Y-42669831D01*
X41758684Y-42751045D01*
X41507430Y-42801023D01*
X41256177Y-42851000D01*
X40743823Y-42851000D01*
X40492570Y-42801023D01*
X40241316Y-42751045D01*
X40045248Y-42669831D01*
X39767966Y-42554977D01*
X39604080Y-42445472D01*
X39341959Y-42270329D01*
X38979671Y-41908041D01*
X38695024Y-41482035D01*
X38695023Y-41482034D01*
X38498955Y-41008683D01*
X38399000Y-40506177D01*
X38399000Y-39993823D01*
X38498955Y-39491317D01*
X38695023Y-39017966D01*
X38789476Y-38876607D01*
X38979671Y-38591959D01*
X39341959Y-38229671D01*
X39767965Y-37945024D01*
X39767966Y-37945023D01*
X40045248Y-37830169D01*
X40241316Y-37748955D01*
X40492570Y-37698977D01*
X40743823Y-37649000D01*
X41256177Y-37649000D01*
X41507430Y-37698977D01*
G37*
G36*
X36007430Y-32698977D02*
G01*
X36258684Y-32748955D01*
X36454752Y-32830169D01*
X36732034Y-32945023D01*
X36732035Y-32945024D01*
X37158041Y-33229671D01*
X37520329Y-33591959D01*
X37710524Y-33876607D01*
X37804977Y-34017966D01*
X38001045Y-34491317D01*
X38101000Y-34993823D01*
X38101000Y-35506177D01*
X38001045Y-36008683D01*
X37804977Y-36482034D01*
X37804976Y-36482035D01*
X37520329Y-36908041D01*
X37158041Y-37270329D01*
X36873393Y-37460524D01*
X36732034Y-37554977D01*
X36505042Y-37649000D01*
X36258684Y-37751045D01*
X36007430Y-37801023D01*
X35756177Y-37851000D01*
X35243823Y-37851000D01*
X34992570Y-37801023D01*
X34741316Y-37751045D01*
X34494958Y-37649000D01*
X34267966Y-37554977D01*
X34126607Y-37460524D01*
X33841959Y-37270329D01*
X33479671Y-36908041D01*
X33195024Y-36482035D01*
X33195023Y-36482034D01*
X32998955Y-36008683D01*
X32899000Y-35506177D01*
X32899000Y-34993823D01*
X32998955Y-34491317D01*
X33195023Y-34017966D01*
X33289476Y-33876607D01*
X33479671Y-33591959D01*
X33841959Y-33229671D01*
X34267965Y-32945024D01*
X34267966Y-32945023D01*
X34545248Y-32830169D01*
X34741316Y-32748955D01*
X34992570Y-32698977D01*
X35243823Y-32649000D01*
X35756177Y-32649000D01*
X36007430Y-32698977D01*
G37*
G36*
X46007430Y-32698977D02*
G01*
X46258684Y-32748955D01*
X46454752Y-32830169D01*
X46732034Y-32945023D01*
X46732035Y-32945024D01*
X47158041Y-33229671D01*
X47520329Y-33591959D01*
X47710524Y-33876607D01*
X47804977Y-34017966D01*
X48001045Y-34491317D01*
X48101000Y-34993823D01*
X48101000Y-35506177D01*
X48001045Y-36008683D01*
X47804977Y-36482034D01*
X47804976Y-36482035D01*
X47520329Y-36908041D01*
X47158041Y-37270329D01*
X46873393Y-37460524D01*
X46732034Y-37554977D01*
X46505042Y-37649000D01*
X46258684Y-37751045D01*
X46007430Y-37801023D01*
X45756177Y-37851000D01*
X45243823Y-37851000D01*
X44992570Y-37801023D01*
X44741316Y-37751045D01*
X44494958Y-37649000D01*
X44267966Y-37554977D01*
X44126607Y-37460524D01*
X43841959Y-37270329D01*
X43479671Y-36908041D01*
X43195024Y-36482035D01*
X43195023Y-36482034D01*
X42998955Y-36008683D01*
X42899000Y-35506177D01*
X42899000Y-34993823D01*
X42998955Y-34491317D01*
X43195023Y-34017966D01*
X43289476Y-33876607D01*
X43479671Y-33591959D01*
X43841959Y-33229671D01*
X44267965Y-32945024D01*
X44267966Y-32945023D01*
X44545248Y-32830169D01*
X44741316Y-32748955D01*
X44992570Y-32698977D01*
X45243823Y-32649000D01*
X45756177Y-32649000D01*
X46007430Y-32698977D01*
G37*
G36*
X51257430Y-27698977D02*
G01*
X51508684Y-27748955D01*
X51677478Y-27818872D01*
X51982034Y-27945023D01*
X51982035Y-27945024D01*
X52408041Y-28229671D01*
X52770329Y-28591959D01*
X52881744Y-28758704D01*
X53054977Y-29017966D01*
X53169831Y-29295248D01*
X53234346Y-29451000D01*
X53251045Y-29491317D01*
X53351000Y-29993823D01*
X53351000Y-30506177D01*
X53251045Y-31008683D01*
X53054977Y-31482034D01*
X53054976Y-31482035D01*
X52770329Y-31908041D01*
X52408041Y-32270329D01*
X52123393Y-32460524D01*
X51982034Y-32554977D01*
X51755042Y-32649000D01*
X51508684Y-32751045D01*
X51257430Y-32801023D01*
X51006177Y-32851000D01*
X50493823Y-32851000D01*
X50242570Y-32801023D01*
X49991316Y-32751045D01*
X49744958Y-32649000D01*
X49517966Y-32554977D01*
X49376607Y-32460524D01*
X49091959Y-32270329D01*
X48729671Y-31908041D01*
X48445024Y-31482035D01*
X48445023Y-31482034D01*
X48248955Y-31008683D01*
X48149000Y-30506177D01*
X48149000Y-29993823D01*
X48248955Y-29491317D01*
X48265655Y-29451000D01*
X48330169Y-29295248D01*
X48445023Y-29017966D01*
X48618256Y-28758704D01*
X48729671Y-28591959D01*
X49091959Y-28229671D01*
X49517965Y-27945024D01*
X49517966Y-27945023D01*
X49822522Y-27818872D01*
X49991316Y-27748955D01*
X50242570Y-27698977D01*
X50493823Y-27649000D01*
X51006177Y-27649000D01*
X51257430Y-27698977D01*
G37*
G36*
X31007430Y-27698977D02*
G01*
X31258684Y-27748955D01*
X31427478Y-27818872D01*
X31732034Y-27945023D01*
X31732035Y-27945024D01*
X32158041Y-28229671D01*
X32520329Y-28591959D01*
X32631744Y-28758704D01*
X32804977Y-29017966D01*
X32919831Y-29295248D01*
X32984346Y-29451000D01*
X33001045Y-29491317D01*
X33101000Y-29993823D01*
X33101000Y-30506177D01*
X33001045Y-31008683D01*
X32804977Y-31482034D01*
X32804976Y-31482035D01*
X32520329Y-31908041D01*
X32158041Y-32270329D01*
X31873393Y-32460524D01*
X31732034Y-32554977D01*
X31505042Y-32649000D01*
X31258684Y-32751045D01*
X31007430Y-32801023D01*
X30756177Y-32851000D01*
X30243823Y-32851000D01*
X29992570Y-32801023D01*
X29741316Y-32751045D01*
X29494958Y-32649000D01*
X29267966Y-32554977D01*
X29126607Y-32460524D01*
X28841959Y-32270329D01*
X28479671Y-31908041D01*
X28195024Y-31482035D01*
X28195023Y-31482034D01*
X27998955Y-31008683D01*
X27899000Y-30506177D01*
X27899000Y-29993823D01*
X27998955Y-29491317D01*
X28015655Y-29451000D01*
X28080169Y-29295248D01*
X28195023Y-29017966D01*
X28368256Y-28758704D01*
X28479671Y-28591959D01*
X28841959Y-28229671D01*
X29267965Y-27945024D01*
X29267966Y-27945023D01*
X29572522Y-27818872D01*
X29741316Y-27748955D01*
X29992570Y-27698977D01*
X30243823Y-27649000D01*
X30756177Y-27649000D01*
X31007430Y-27698977D01*
G37*
G36*
X8354975Y-23308585D02*
G01*
X8654528Y-23368170D01*
X9053580Y-23533463D01*
X9194805Y-23591960D01*
X9218874Y-23601930D01*
X9726772Y-23941296D01*
X10158704Y-24373228D01*
X10237608Y-24491317D01*
X10498071Y-24881128D01*
X10731830Y-25445473D01*
X10851000Y-26044577D01*
X10851000Y-26655423D01*
X10731830Y-27254527D01*
X10527032Y-27748955D01*
X10498070Y-27818874D01*
X10158704Y-28326772D01*
X9726772Y-28758704D01*
X9218874Y-29098070D01*
X8654528Y-29331830D01*
X8354975Y-29391415D01*
X8055423Y-29451000D01*
X7444577Y-29451000D01*
X7145025Y-29391415D01*
X6845472Y-29331830D01*
X6281126Y-29098070D01*
X5773228Y-28758704D01*
X5341296Y-28326772D01*
X5001930Y-27818874D01*
X4972969Y-27748955D01*
X4768170Y-27254527D01*
X4649000Y-26655423D01*
X4649000Y-26044577D01*
X4768170Y-25445473D01*
X5001929Y-24881128D01*
X5262392Y-24491317D01*
X5341296Y-24373228D01*
X5773228Y-23941296D01*
X6281126Y-23601930D01*
X6305196Y-23591960D01*
X6446420Y-23533463D01*
X6845472Y-23368170D01*
X7145025Y-23308585D01*
X7444577Y-23249000D01*
X8055423Y-23249000D01*
X8354975Y-23308585D01*
G37*
G36*
X74104975Y-23308585D02*
G01*
X74404528Y-23368170D01*
X74803580Y-23533463D01*
X74944805Y-23591960D01*
X74968874Y-23601930D01*
X75476772Y-23941296D01*
X75908704Y-24373228D01*
X75987608Y-24491317D01*
X76248071Y-24881128D01*
X76481830Y-25445473D01*
X76601000Y-26044577D01*
X76601000Y-26655423D01*
X76481830Y-27254527D01*
X76277032Y-27748955D01*
X76248070Y-27818874D01*
X75908704Y-28326772D01*
X75476772Y-28758704D01*
X74968874Y-29098070D01*
X74404528Y-29331830D01*
X74104975Y-29391415D01*
X73805423Y-29451000D01*
X73194577Y-29451000D01*
X72895025Y-29391415D01*
X72595472Y-29331830D01*
X72031126Y-29098070D01*
X71523228Y-28758704D01*
X71091296Y-28326772D01*
X70751930Y-27818874D01*
X70722969Y-27748955D01*
X70518170Y-27254527D01*
X70399000Y-26655423D01*
X70399000Y-26044577D01*
X70518170Y-25445473D01*
X70751929Y-24881128D01*
X71012392Y-24491317D01*
X71091296Y-24373228D01*
X71523228Y-23941296D01*
X72031126Y-23601930D01*
X72055196Y-23591960D01*
X72196420Y-23533463D01*
X72595472Y-23368170D01*
X72895025Y-23308585D01*
X73194577Y-23249000D01*
X73805423Y-23249000D01*
X74104975Y-23308585D01*
G37*
G36*
X36007430Y-22698978D02*
G01*
X36258684Y-22748955D01*
X36454752Y-22830169D01*
X36732034Y-22945023D01*
X36732035Y-22945024D01*
X37158041Y-23229671D01*
X37520329Y-23591959D01*
X37526991Y-23601930D01*
X37804977Y-24017966D01*
X37919831Y-24295248D01*
X38001045Y-24491316D01*
X38101000Y-24993824D01*
X38101000Y-25506176D01*
X38001045Y-26008684D01*
X37986177Y-26044578D01*
X37804977Y-26482034D01*
X37804976Y-26482035D01*
X37520329Y-26908041D01*
X37158041Y-27270329D01*
X36873393Y-27460524D01*
X36732034Y-27554977D01*
X36505042Y-27649000D01*
X36258684Y-27751045D01*
X36007430Y-27801022D01*
X35756177Y-27851000D01*
X35243823Y-27851000D01*
X34992570Y-27801022D01*
X34741316Y-27751045D01*
X34494958Y-27649000D01*
X34267966Y-27554977D01*
X34126607Y-27460524D01*
X33841959Y-27270329D01*
X33479671Y-26908041D01*
X33195024Y-26482035D01*
X33195023Y-26482034D01*
X33013823Y-26044578D01*
X32998955Y-26008684D01*
X32899000Y-25506176D01*
X32899000Y-24993824D01*
X32998955Y-24491316D01*
X33080169Y-24295248D01*
X33195023Y-24017966D01*
X33473009Y-23601930D01*
X33479671Y-23591959D01*
X33841959Y-23229671D01*
X34267965Y-22945024D01*
X34267966Y-22945023D01*
X34545248Y-22830169D01*
X34741316Y-22748955D01*
X34992570Y-22698978D01*
X35243823Y-22649000D01*
X35756177Y-22649000D01*
X36007430Y-22698978D01*
G37*
G36*
X46007430Y-22698978D02*
G01*
X46258684Y-22748955D01*
X46454752Y-22830169D01*
X46732034Y-22945023D01*
X46732035Y-22945024D01*
X47158041Y-23229671D01*
X47520329Y-23591959D01*
X47526991Y-23601930D01*
X47804977Y-24017966D01*
X47919831Y-24295248D01*
X48001045Y-24491316D01*
X48101000Y-24993824D01*
X48101000Y-25506176D01*
X48001045Y-26008684D01*
X47986177Y-26044578D01*
X47804977Y-26482034D01*
X47804976Y-26482035D01*
X47520329Y-26908041D01*
X47158041Y-27270329D01*
X46873393Y-27460524D01*
X46732034Y-27554977D01*
X46505042Y-27649000D01*
X46258684Y-27751045D01*
X46007430Y-27801022D01*
X45756177Y-27851000D01*
X45243823Y-27851000D01*
X44992570Y-27801022D01*
X44741316Y-27751045D01*
X44494958Y-27649000D01*
X44267966Y-27554977D01*
X44126607Y-27460524D01*
X43841959Y-27270329D01*
X43479671Y-26908041D01*
X43195024Y-26482035D01*
X43195023Y-26482034D01*
X43013823Y-26044578D01*
X42998955Y-26008684D01*
X42899000Y-25506176D01*
X42899000Y-24993824D01*
X42998955Y-24491316D01*
X43080169Y-24295248D01*
X43195023Y-24017966D01*
X43473009Y-23601930D01*
X43479671Y-23591959D01*
X43841959Y-23229671D01*
X44267965Y-22945024D01*
X44267966Y-22945023D01*
X44545248Y-22830169D01*
X44741316Y-22748955D01*
X44992570Y-22698978D01*
X45243823Y-22649000D01*
X45756177Y-22649000D01*
X46007430Y-22698978D01*
G37*
G36*
X41507430Y-17698977D02*
G01*
X41758684Y-17748955D01*
X41954752Y-17830169D01*
X42232034Y-17945023D01*
X42232035Y-17945024D01*
X42658041Y-18229671D01*
X43020329Y-18591959D01*
X43210524Y-18876607D01*
X43304977Y-19017966D01*
X43501045Y-19491317D01*
X43601000Y-19993823D01*
X43601000Y-20506177D01*
X43501045Y-21008683D01*
X43304977Y-21482034D01*
X43304976Y-21482035D01*
X43020329Y-21908041D01*
X42658041Y-22270329D01*
X42373393Y-22460524D01*
X42232034Y-22554977D01*
X42005042Y-22649000D01*
X41758684Y-22751045D01*
X41507430Y-22801023D01*
X41256177Y-22851000D01*
X40743823Y-22851000D01*
X40492570Y-22801022D01*
X40241316Y-22751045D01*
X39994958Y-22649000D01*
X39767966Y-22554977D01*
X39626607Y-22460524D01*
X39341959Y-22270329D01*
X38979671Y-21908041D01*
X38695024Y-21482035D01*
X38695023Y-21482034D01*
X38498955Y-21008683D01*
X38399000Y-20506177D01*
X38399000Y-19993823D01*
X38498955Y-19491317D01*
X38695023Y-19017966D01*
X38789476Y-18876607D01*
X38979671Y-18591959D01*
X39341959Y-18229671D01*
X39767965Y-17945024D01*
X39767966Y-17945023D01*
X40045248Y-17830169D01*
X40241316Y-17748955D01*
X40492570Y-17698977D01*
X40743823Y-17649000D01*
X41256177Y-17649000D01*
X41507430Y-17698977D01*
G37*
M02*
