G04 #@! TF.GenerationSoftware,KiCad,Pcbnew,(5.1.5-0)*
G04 #@! TF.CreationDate,2021-01-12T22:42:07-08:00*
G04 #@! TF.ProjectId,kareishuuvco,6b617265-6973-4687-9575-76636f2e6b69,rev?*
G04 #@! TF.SameCoordinates,Original*
G04 #@! TF.FileFunction,Profile,NP*
%FSLAX46Y46*%
G04 Gerber Fmt 4.6, Leading zero omitted, Abs format (unit mm)*
G04 Created by KiCad (PCBNEW (5.1.5-0)) date 2021-01-12 22:42:07*
%MOMM*%
%LPD*%
G04 APERTURE LIST*
%ADD10C,0.050000*%
G04 APERTURE END LIST*
D10*
X45000000Y-68750000D02*
G75*
G03X45000000Y-68750000I-3750000J0D01*
G01*
X13250000Y-68750000D02*
G75*
G03X13250000Y-68750000I-3750000J0D01*
G01*
X45000000Y-46750000D02*
G75*
G03X45000000Y-46750000I-3750000J0D01*
G01*
X29000000Y-46750000D02*
G75*
G03X29000000Y-46750000I-3750000J0D01*
G01*
X13250000Y-46750000D02*
G75*
G03X13250000Y-46750000I-3750000J0D01*
G01*
X13250000Y-24750000D02*
G75*
G03X13250000Y-24750000I-3750000J0D01*
G01*
X29000000Y-24750000D02*
G75*
G03X29000000Y-24750000I-3750000J0D01*
G01*
X45000000Y-24750000D02*
G75*
G03X45000000Y-24750000I-3750000J0D01*
G01*
X8500000Y-123900000D02*
G75*
G02X8500000Y-127100000I0J-1600000D01*
G01*
X6500000Y-123900000D02*
X8500000Y-123900000D01*
X6500000Y-127100000D02*
G75*
G02X6500000Y-123900000I0J1600000D01*
G01*
X6500000Y-127100000D02*
X8500000Y-127100000D01*
X8500000Y-1400000D02*
G75*
G02X8500000Y-4600000I0J-1600000D01*
G01*
X6500000Y-1400000D02*
X8500000Y-1400000D01*
X6500000Y-4600000D02*
G75*
G02X6500000Y-1400000I0J1600000D01*
G01*
X6500000Y-4600000D02*
X8500000Y-4600000D01*
X44000000Y-123900000D02*
G75*
G02X44000000Y-127100000I0J-1600000D01*
G01*
X42000000Y-123900000D02*
X44000000Y-123900000D01*
X42000000Y-127100000D02*
G75*
G02X42000000Y-123900000I0J1600000D01*
G01*
X42000000Y-127100000D02*
X44000000Y-127100000D01*
X42000000Y-1400000D02*
X44000000Y-1400000D01*
X42000000Y-4600000D02*
X44000000Y-4600000D01*
X42000000Y-4600000D02*
G75*
G02X42000000Y-1400000I0J1600000D01*
G01*
X44000000Y-1400000D02*
G75*
G02X44000000Y-4600000I0J-1600000D01*
G01*
X0Y-128500000D02*
X0Y0D01*
X50500000Y-128500000D02*
X0Y-128500000D01*
X50500000Y0D02*
X50500000Y-128500000D01*
X0Y0D02*
X50500000Y0D01*
M02*
