G04 #@! TF.GenerationSoftware,KiCad,Pcbnew,(5.1.5-0)*
G04 #@! TF.CreationDate,2021-01-12T22:42:07-08:00*
G04 #@! TF.ProjectId,kareishuuvco,6b617265-6973-4687-9575-76636f2e6b69,rev?*
G04 #@! TF.SameCoordinates,Original*
G04 #@! TF.FileFunction,Soldermask,Bot*
G04 #@! TF.FilePolarity,Negative*
%FSLAX46Y46*%
G04 Gerber Fmt 4.6, Leading zero omitted, Abs format (unit mm)*
G04 Created by KiCad (PCBNEW (5.1.5-0)) date 2021-01-12 22:42:07*
%MOMM*%
%LPD*%
G04 APERTURE LIST*
%ADD10C,1.000000*%
%ADD11C,0.150000*%
%ADD12C,0.100000*%
G04 APERTURE END LIST*
D10*
X28750000Y-68750000D02*
G75*
G03X28750000Y-68750000I-3500000J0D01*
G01*
D11*
X22726190Y-121452380D02*
X22726190Y-120785714D01*
X22726190Y-120976190D02*
X22678571Y-120880952D01*
X22630952Y-120833333D01*
X22535714Y-120785714D01*
X22440476Y-120785714D01*
X21726190Y-121404761D02*
X21821428Y-121452380D01*
X22011904Y-121452380D01*
X22107142Y-121404761D01*
X22154761Y-121309523D01*
X22154761Y-120928571D01*
X22107142Y-120833333D01*
X22011904Y-120785714D01*
X21821428Y-120785714D01*
X21726190Y-120833333D01*
X21678571Y-120928571D01*
X21678571Y-121023809D01*
X22154761Y-121119047D01*
X21250000Y-120785714D02*
X21250000Y-121785714D01*
X21250000Y-120833333D02*
X21154761Y-120785714D01*
X20964285Y-120785714D01*
X20869047Y-120833333D01*
X20821428Y-120880952D01*
X20773809Y-120976190D01*
X20773809Y-121261904D01*
X20821428Y-121357142D01*
X20869047Y-121404761D01*
X20964285Y-121452380D01*
X21154761Y-121452380D01*
X21250000Y-121404761D01*
X19916666Y-121452380D02*
X19916666Y-120928571D01*
X19964285Y-120833333D01*
X20059523Y-120785714D01*
X20250000Y-120785714D01*
X20345238Y-120833333D01*
X19916666Y-121404761D02*
X20011904Y-121452380D01*
X20250000Y-121452380D01*
X20345238Y-121404761D01*
X20392857Y-121309523D01*
X20392857Y-121214285D01*
X20345238Y-121119047D01*
X20250000Y-121071428D01*
X20011904Y-121071428D01*
X19916666Y-121023809D01*
X19440476Y-120785714D02*
X19440476Y-121452380D01*
X19440476Y-120880952D02*
X19392857Y-120833333D01*
X19297619Y-120785714D01*
X19154761Y-120785714D01*
X19059523Y-120833333D01*
X19011904Y-120928571D01*
X19011904Y-121452380D01*
X18154761Y-121404761D02*
X18250000Y-121452380D01*
X18440476Y-121452380D01*
X18535714Y-121404761D01*
X18583333Y-121309523D01*
X18583333Y-120928571D01*
X18535714Y-120833333D01*
X18440476Y-120785714D01*
X18250000Y-120785714D01*
X18154761Y-120833333D01*
X18107142Y-120928571D01*
X18107142Y-121023809D01*
X18583333Y-121119047D01*
X17535714Y-121452380D02*
X17630952Y-121404761D01*
X17678571Y-121309523D01*
X17678571Y-120452380D01*
X16392857Y-121452380D02*
X16392857Y-120452380D01*
X16392857Y-120833333D02*
X16297619Y-120785714D01*
X16107142Y-120785714D01*
X16011904Y-120833333D01*
X15964285Y-120880952D01*
X15916666Y-120976190D01*
X15916666Y-121261904D01*
X15964285Y-121357142D01*
X16011904Y-121404761D01*
X16107142Y-121452380D01*
X16297619Y-121452380D01*
X16392857Y-121404761D01*
X15583333Y-120785714D02*
X15345238Y-121452380D01*
X15107142Y-120785714D02*
X15345238Y-121452380D01*
X15440476Y-121690476D01*
X15488095Y-121738095D01*
X15583333Y-121785714D01*
X13964285Y-120785714D02*
X13964285Y-121642857D01*
X14011904Y-121738095D01*
X14107142Y-121785714D01*
X14154761Y-121785714D01*
X13964285Y-120452380D02*
X14011904Y-120500000D01*
X13964285Y-120547619D01*
X13916666Y-120500000D01*
X13964285Y-120452380D01*
X13964285Y-120547619D01*
X13059523Y-121452380D02*
X13059523Y-120928571D01*
X13107142Y-120833333D01*
X13202380Y-120785714D01*
X13392857Y-120785714D01*
X13488095Y-120833333D01*
X13059523Y-121404761D02*
X13154761Y-121452380D01*
X13392857Y-121452380D01*
X13488095Y-121404761D01*
X13535714Y-121309523D01*
X13535714Y-121214285D01*
X13488095Y-121119047D01*
X13392857Y-121071428D01*
X13154761Y-121071428D01*
X13059523Y-121023809D01*
X12154761Y-121404761D02*
X12250000Y-121452380D01*
X12440476Y-121452380D01*
X12535714Y-121404761D01*
X12583333Y-121357142D01*
X12630952Y-121261904D01*
X12630952Y-120976190D01*
X12583333Y-120880952D01*
X12535714Y-120833333D01*
X12440476Y-120785714D01*
X12250000Y-120785714D01*
X12154761Y-120833333D01*
X11726190Y-121452380D02*
X11726190Y-120452380D01*
X11630952Y-121071428D02*
X11345238Y-121452380D01*
X11345238Y-120785714D02*
X11726190Y-121166666D01*
X10202380Y-121404761D02*
X10107142Y-121452380D01*
X9916666Y-121452380D01*
X9821428Y-121404761D01*
X9773809Y-121309523D01*
X9773809Y-121261904D01*
X9821428Y-121166666D01*
X9916666Y-121119047D01*
X10059523Y-121119047D01*
X10154761Y-121071428D01*
X10202380Y-120976190D01*
X10202380Y-120928571D01*
X10154761Y-120833333D01*
X10059523Y-120785714D01*
X9916666Y-120785714D01*
X9821428Y-120833333D01*
X9345238Y-121357142D02*
X9297619Y-121404761D01*
X9345238Y-121452380D01*
X9392857Y-121404761D01*
X9345238Y-121357142D01*
X9345238Y-121452380D01*
X8154761Y-120547619D02*
X8107142Y-120500000D01*
X8011904Y-120452380D01*
X7773809Y-120452380D01*
X7678571Y-120500000D01*
X7630952Y-120547619D01*
X7583333Y-120642857D01*
X7583333Y-120738095D01*
X7630952Y-120880952D01*
X8202380Y-121452380D01*
X7583333Y-121452380D01*
X6964285Y-120452380D02*
X6869047Y-120452380D01*
X6773809Y-120500000D01*
X6726190Y-120547619D01*
X6678571Y-120642857D01*
X6630952Y-120833333D01*
X6630952Y-121071428D01*
X6678571Y-121261904D01*
X6726190Y-121357142D01*
X6773809Y-121404761D01*
X6869047Y-121452380D01*
X6964285Y-121452380D01*
X7059523Y-121404761D01*
X7107142Y-121357142D01*
X7154761Y-121261904D01*
X7202380Y-121071428D01*
X7202380Y-120833333D01*
X7154761Y-120642857D01*
X7107142Y-120547619D01*
X7059523Y-120500000D01*
X6964285Y-120452380D01*
X6250000Y-120547619D02*
X6202380Y-120500000D01*
X6107142Y-120452380D01*
X5869047Y-120452380D01*
X5773809Y-120500000D01*
X5726190Y-120547619D01*
X5678571Y-120642857D01*
X5678571Y-120738095D01*
X5726190Y-120880952D01*
X6297619Y-121452380D01*
X5678571Y-121452380D01*
X4726190Y-121452380D02*
X5297619Y-121452380D01*
X5011904Y-121452380D02*
X5011904Y-120452380D01*
X5107142Y-120595238D01*
X5202380Y-120690476D01*
X5297619Y-120738095D01*
D10*
X10500000Y-88750000D02*
G75*
G03X10500000Y-88750000I-3500000J0D01*
G01*
X22500000Y-88750000D02*
G75*
G03X22500000Y-88750000I-3500000J0D01*
G01*
X34500000Y-88750000D02*
G75*
G03X34500000Y-88750000I-3500000J0D01*
G01*
X46500000Y-88750000D02*
G75*
G03X46500000Y-88750000I-3500000J0D01*
G01*
X46500000Y-104750000D02*
G75*
G03X46500000Y-104750000I-3500000J0D01*
G01*
X10500000Y-104750000D02*
G75*
G03X10500000Y-104750000I-3500000J0D01*
G01*
X22500000Y-104750000D02*
G75*
G03X22500000Y-104750000I-3500000J0D01*
G01*
X34500000Y-104750000D02*
G75*
G03X34500000Y-104750000I-3500000J0D01*
G01*
D12*
G36*
X43604975Y-101708585D02*
G01*
X43904528Y-101768170D01*
X44468874Y-102001930D01*
X44976772Y-102341296D01*
X45408704Y-102773228D01*
X45748070Y-103281126D01*
X45981830Y-103845472D01*
X46101000Y-104444578D01*
X46101000Y-105055422D01*
X45981830Y-105654528D01*
X45748070Y-106218874D01*
X45408704Y-106726772D01*
X44976772Y-107158704D01*
X44468874Y-107498070D01*
X43904528Y-107731830D01*
X43604975Y-107791415D01*
X43305423Y-107851000D01*
X42694577Y-107851000D01*
X42395025Y-107791415D01*
X42095472Y-107731830D01*
X41531126Y-107498070D01*
X41023228Y-107158704D01*
X40591296Y-106726772D01*
X40251930Y-106218874D01*
X40018170Y-105654528D01*
X39899000Y-105055422D01*
X39899000Y-104444578D01*
X40018170Y-103845472D01*
X40251930Y-103281126D01*
X40591296Y-102773228D01*
X41023228Y-102341296D01*
X41531126Y-102001930D01*
X42095472Y-101768170D01*
X42395025Y-101708585D01*
X42694577Y-101649000D01*
X43305423Y-101649000D01*
X43604975Y-101708585D01*
G37*
G36*
X31604975Y-101708585D02*
G01*
X31904528Y-101768170D01*
X32468874Y-102001930D01*
X32976772Y-102341296D01*
X33408704Y-102773228D01*
X33748070Y-103281126D01*
X33981830Y-103845472D01*
X34101000Y-104444578D01*
X34101000Y-105055422D01*
X33981830Y-105654528D01*
X33748070Y-106218874D01*
X33408704Y-106726772D01*
X32976772Y-107158704D01*
X32468874Y-107498070D01*
X31904528Y-107731830D01*
X31604975Y-107791415D01*
X31305423Y-107851000D01*
X30694577Y-107851000D01*
X30395025Y-107791415D01*
X30095472Y-107731830D01*
X29531126Y-107498070D01*
X29023228Y-107158704D01*
X28591296Y-106726772D01*
X28251930Y-106218874D01*
X28018170Y-105654528D01*
X27899000Y-105055422D01*
X27899000Y-104444578D01*
X28018170Y-103845472D01*
X28251930Y-103281126D01*
X28591296Y-102773228D01*
X29023228Y-102341296D01*
X29531126Y-102001930D01*
X30095472Y-101768170D01*
X30395025Y-101708585D01*
X30694577Y-101649000D01*
X31305423Y-101649000D01*
X31604975Y-101708585D01*
G37*
G36*
X19604975Y-101708585D02*
G01*
X19904528Y-101768170D01*
X20468874Y-102001930D01*
X20976772Y-102341296D01*
X21408704Y-102773228D01*
X21748070Y-103281126D01*
X21981830Y-103845472D01*
X22101000Y-104444578D01*
X22101000Y-105055422D01*
X21981830Y-105654528D01*
X21748070Y-106218874D01*
X21408704Y-106726772D01*
X20976772Y-107158704D01*
X20468874Y-107498070D01*
X19904528Y-107731830D01*
X19604975Y-107791415D01*
X19305423Y-107851000D01*
X18694577Y-107851000D01*
X18395025Y-107791415D01*
X18095472Y-107731830D01*
X17531126Y-107498070D01*
X17023228Y-107158704D01*
X16591296Y-106726772D01*
X16251930Y-106218874D01*
X16018170Y-105654528D01*
X15899000Y-105055422D01*
X15899000Y-104444578D01*
X16018170Y-103845472D01*
X16251930Y-103281126D01*
X16591296Y-102773228D01*
X17023228Y-102341296D01*
X17531126Y-102001930D01*
X18095472Y-101768170D01*
X18395025Y-101708585D01*
X18694577Y-101649000D01*
X19305423Y-101649000D01*
X19604975Y-101708585D01*
G37*
G36*
X7604975Y-101708585D02*
G01*
X7904528Y-101768170D01*
X8468874Y-102001930D01*
X8976772Y-102341296D01*
X9408704Y-102773228D01*
X9748070Y-103281126D01*
X9981830Y-103845472D01*
X10101000Y-104444578D01*
X10101000Y-105055422D01*
X9981830Y-105654528D01*
X9748070Y-106218874D01*
X9408704Y-106726772D01*
X8976772Y-107158704D01*
X8468874Y-107498070D01*
X7904528Y-107731830D01*
X7604975Y-107791415D01*
X7305423Y-107851000D01*
X6694577Y-107851000D01*
X6395025Y-107791415D01*
X6095472Y-107731830D01*
X5531126Y-107498070D01*
X5023228Y-107158704D01*
X4591296Y-106726772D01*
X4251930Y-106218874D01*
X4018170Y-105654528D01*
X3899000Y-105055422D01*
X3899000Y-104444578D01*
X4018170Y-103845472D01*
X4251930Y-103281126D01*
X4591296Y-102773228D01*
X5023228Y-102341296D01*
X5531126Y-102001930D01*
X6095472Y-101768170D01*
X6395025Y-101708585D01*
X6694577Y-101649000D01*
X7305423Y-101649000D01*
X7604975Y-101708585D01*
G37*
G36*
X43604975Y-85708585D02*
G01*
X43904528Y-85768170D01*
X44468874Y-86001930D01*
X44976772Y-86341296D01*
X45408704Y-86773228D01*
X45748070Y-87281126D01*
X45981830Y-87845472D01*
X46101000Y-88444578D01*
X46101000Y-89055422D01*
X45981830Y-89654528D01*
X45748070Y-90218874D01*
X45408704Y-90726772D01*
X44976772Y-91158704D01*
X44468874Y-91498070D01*
X43904528Y-91731830D01*
X43604975Y-91791415D01*
X43305423Y-91851000D01*
X42694577Y-91851000D01*
X42395025Y-91791415D01*
X42095472Y-91731830D01*
X41531126Y-91498070D01*
X41023228Y-91158704D01*
X40591296Y-90726772D01*
X40251930Y-90218874D01*
X40018170Y-89654528D01*
X39899000Y-89055422D01*
X39899000Y-88444578D01*
X40018170Y-87845472D01*
X40251930Y-87281126D01*
X40591296Y-86773228D01*
X41023228Y-86341296D01*
X41531126Y-86001930D01*
X42095472Y-85768170D01*
X42395025Y-85708585D01*
X42694577Y-85649000D01*
X43305423Y-85649000D01*
X43604975Y-85708585D01*
G37*
G36*
X31604975Y-85708585D02*
G01*
X31904528Y-85768170D01*
X32468874Y-86001930D01*
X32976772Y-86341296D01*
X33408704Y-86773228D01*
X33748070Y-87281126D01*
X33981830Y-87845472D01*
X34101000Y-88444578D01*
X34101000Y-89055422D01*
X33981830Y-89654528D01*
X33748070Y-90218874D01*
X33408704Y-90726772D01*
X32976772Y-91158704D01*
X32468874Y-91498070D01*
X31904528Y-91731830D01*
X31604975Y-91791415D01*
X31305423Y-91851000D01*
X30694577Y-91851000D01*
X30395025Y-91791415D01*
X30095472Y-91731830D01*
X29531126Y-91498070D01*
X29023228Y-91158704D01*
X28591296Y-90726772D01*
X28251930Y-90218874D01*
X28018170Y-89654528D01*
X27899000Y-89055422D01*
X27899000Y-88444578D01*
X28018170Y-87845472D01*
X28251930Y-87281126D01*
X28591296Y-86773228D01*
X29023228Y-86341296D01*
X29531126Y-86001930D01*
X30095472Y-85768170D01*
X30395025Y-85708585D01*
X30694577Y-85649000D01*
X31305423Y-85649000D01*
X31604975Y-85708585D01*
G37*
G36*
X19604975Y-85708585D02*
G01*
X19904528Y-85768170D01*
X20468874Y-86001930D01*
X20976772Y-86341296D01*
X21408704Y-86773228D01*
X21748070Y-87281126D01*
X21981830Y-87845472D01*
X22101000Y-88444578D01*
X22101000Y-89055422D01*
X21981830Y-89654528D01*
X21748070Y-90218874D01*
X21408704Y-90726772D01*
X20976772Y-91158704D01*
X20468874Y-91498070D01*
X19904528Y-91731830D01*
X19604975Y-91791415D01*
X19305423Y-91851000D01*
X18694577Y-91851000D01*
X18395025Y-91791415D01*
X18095472Y-91731830D01*
X17531126Y-91498070D01*
X17023228Y-91158704D01*
X16591296Y-90726772D01*
X16251930Y-90218874D01*
X16018170Y-89654528D01*
X15899000Y-89055422D01*
X15899000Y-88444578D01*
X16018170Y-87845472D01*
X16251930Y-87281126D01*
X16591296Y-86773228D01*
X17023228Y-86341296D01*
X17531126Y-86001930D01*
X18095472Y-85768170D01*
X18395025Y-85708585D01*
X18694577Y-85649000D01*
X19305423Y-85649000D01*
X19604975Y-85708585D01*
G37*
G36*
X7604975Y-85708585D02*
G01*
X7904528Y-85768170D01*
X8468874Y-86001930D01*
X8976772Y-86341296D01*
X9408704Y-86773228D01*
X9748070Y-87281126D01*
X9981830Y-87845472D01*
X10101000Y-88444578D01*
X10101000Y-89055422D01*
X9981830Y-89654528D01*
X9748070Y-90218874D01*
X9408704Y-90726772D01*
X8976772Y-91158704D01*
X8468874Y-91498070D01*
X7904528Y-91731830D01*
X7604975Y-91791415D01*
X7305423Y-91851000D01*
X6694577Y-91851000D01*
X6395025Y-91791415D01*
X6095472Y-91731830D01*
X5531126Y-91498070D01*
X5023228Y-91158704D01*
X4591296Y-90726772D01*
X4251930Y-90218874D01*
X4018170Y-89654528D01*
X3899000Y-89055422D01*
X3899000Y-88444578D01*
X4018170Y-87845472D01*
X4251930Y-87281126D01*
X4591296Y-86773228D01*
X5023228Y-86341296D01*
X5531126Y-86001930D01*
X6095472Y-85768170D01*
X6395025Y-85708585D01*
X6694577Y-85649000D01*
X7305423Y-85649000D01*
X7604975Y-85708585D01*
G37*
G36*
X25854975Y-65708585D02*
G01*
X26154528Y-65768170D01*
X26718874Y-66001930D01*
X27226772Y-66341296D01*
X27658704Y-66773228D01*
X27998070Y-67281126D01*
X28231830Y-67845472D01*
X28351000Y-68444578D01*
X28351000Y-69055422D01*
X28231830Y-69654528D01*
X27998070Y-70218874D01*
X27658704Y-70726772D01*
X27226772Y-71158704D01*
X26718874Y-71498070D01*
X26154528Y-71731830D01*
X25854975Y-71791415D01*
X25555423Y-71851000D01*
X24944577Y-71851000D01*
X24645025Y-71791415D01*
X24345472Y-71731830D01*
X23781126Y-71498070D01*
X23273228Y-71158704D01*
X22841296Y-70726772D01*
X22501930Y-70218874D01*
X22268170Y-69654528D01*
X22149000Y-69055422D01*
X22149000Y-68444578D01*
X22268170Y-67845472D01*
X22501930Y-67281126D01*
X22841296Y-66773228D01*
X23273228Y-66341296D01*
X23781126Y-66001930D01*
X24345472Y-65768170D01*
X24645025Y-65708585D01*
X24944577Y-65649000D01*
X25555423Y-65649000D01*
X25854975Y-65708585D01*
G37*
M02*
