G04 #@! TF.GenerationSoftware,KiCad,Pcbnew,(5.1.5-0)*
G04 #@! TF.CreationDate,2021-01-12T22:42:07-08:00*
G04 #@! TF.ProjectId,kareishuuvco,6b617265-6973-4687-9575-76636f2e6b69,rev?*
G04 #@! TF.SameCoordinates,Original*
G04 #@! TF.FileFunction,Copper,L1,Top*
G04 #@! TF.FilePolarity,Positive*
%FSLAX46Y46*%
G04 Gerber Fmt 4.6, Leading zero omitted, Abs format (unit mm)*
G04 Created by KiCad (PCBNEW (5.1.5-0)) date 2021-01-12 22:42:07*
%MOMM*%
%LPD*%
G04 APERTURE LIST*
%ADD10C,2.000000*%
%ADD11C,0.100000*%
%ADD12C,6.100000*%
G04 APERTURE END LIST*
D10*
X31000000Y-88750000D02*
X42750000Y-88750000D01*
X7000000Y-104750000D02*
X42750000Y-104750000D01*
D11*
G36*
X21796400Y-119624900D02*
G01*
X22113900Y-119866200D01*
X22679050Y-120183700D01*
X23275950Y-120615500D01*
X23650600Y-120996500D01*
X24050650Y-121561650D01*
X24647550Y-122742750D01*
X24946000Y-123307900D01*
X24958700Y-123320600D01*
X24628500Y-123346000D01*
X24526900Y-123295200D01*
X24171300Y-123047550D01*
X23764900Y-122679250D01*
X23434700Y-122330000D01*
X23079100Y-121898200D01*
X22799700Y-121479100D01*
X22609200Y-121225100D01*
X22355200Y-120767900D01*
X22101200Y-120399600D01*
X21859900Y-119980500D01*
X21580500Y-119421700D01*
X21796400Y-119624900D01*
G37*
X21796400Y-119624900D02*
X22113900Y-119866200D01*
X22679050Y-120183700D01*
X23275950Y-120615500D01*
X23650600Y-120996500D01*
X24050650Y-121561650D01*
X24647550Y-122742750D01*
X24946000Y-123307900D01*
X24958700Y-123320600D01*
X24628500Y-123346000D01*
X24526900Y-123295200D01*
X24171300Y-123047550D01*
X23764900Y-122679250D01*
X23434700Y-122330000D01*
X23079100Y-121898200D01*
X22799700Y-121479100D01*
X22609200Y-121225100D01*
X22355200Y-120767900D01*
X22101200Y-120399600D01*
X21859900Y-119980500D01*
X21580500Y-119421700D01*
X21796400Y-119624900D01*
G36*
X23202925Y-122803075D02*
G01*
X23539475Y-122898325D01*
X23803000Y-122990400D01*
X24501500Y-123396800D01*
X24531980Y-123424740D01*
X24539600Y-123409500D01*
X24539600Y-123422200D01*
X24531980Y-123424740D01*
X24450700Y-123587300D01*
X24844400Y-123727000D01*
X24634850Y-123752400D01*
X24241150Y-123777800D01*
X23764900Y-123777800D01*
X23320400Y-123714300D01*
X22837800Y-123600000D01*
X22444100Y-123485700D01*
X22037700Y-123257100D01*
X21720200Y-123028500D01*
X21313800Y-122901500D01*
X21961500Y-122850700D01*
X22494900Y-122812600D01*
X22958450Y-122806250D01*
X23202925Y-122803075D01*
G37*
X23202925Y-122803075D02*
X23539475Y-122898325D01*
X23803000Y-122990400D01*
X24501500Y-123396800D01*
X24531980Y-123424740D01*
X24539600Y-123409500D01*
X24539600Y-123422200D01*
X24531980Y-123424740D01*
X24450700Y-123587300D01*
X24844400Y-123727000D01*
X24634850Y-123752400D01*
X24241150Y-123777800D01*
X23764900Y-123777800D01*
X23320400Y-123714300D01*
X22837800Y-123600000D01*
X22444100Y-123485700D01*
X22037700Y-123257100D01*
X21720200Y-123028500D01*
X21313800Y-122901500D01*
X21961500Y-122850700D01*
X22494900Y-122812600D01*
X22958450Y-122806250D01*
X23202925Y-122803075D01*
G36*
X25066650Y-123866700D02*
G01*
X24698350Y-124298500D01*
X24260200Y-124571550D01*
X23879200Y-124711250D01*
X23129900Y-124876350D01*
X23612500Y-124349300D01*
X24006200Y-124082600D01*
X24374500Y-123879400D01*
X24844400Y-123803200D01*
X24869800Y-123803200D01*
X25066650Y-123866700D01*
G37*
X25066650Y-123866700D02*
X24698350Y-124298500D01*
X24260200Y-124571550D01*
X23879200Y-124711250D01*
X23129900Y-124876350D01*
X23612500Y-124349300D01*
X24006200Y-124082600D01*
X24374500Y-123879400D01*
X24844400Y-123803200D01*
X24869800Y-123803200D01*
X25066650Y-123866700D01*
G36*
X25200000Y-123384100D02*
G01*
X24988862Y-123577775D01*
X25207937Y-123673025D01*
X25958825Y-124215950D01*
X25777850Y-124311200D01*
X25200000Y-123854000D01*
X25212700Y-124946200D01*
X25098400Y-124806500D01*
X25092050Y-123917500D01*
X25136500Y-123917500D01*
X24755500Y-123701600D01*
X24469750Y-123549200D01*
X24634850Y-123269800D01*
X25200000Y-123384100D01*
G37*
X25200000Y-123384100D02*
X24988862Y-123577775D01*
X25207937Y-123673025D01*
X25958825Y-124215950D01*
X25777850Y-124311200D01*
X25200000Y-123854000D01*
X25212700Y-124946200D01*
X25098400Y-124806500D01*
X25092050Y-123917500D01*
X25136500Y-123917500D01*
X24755500Y-123701600D01*
X24469750Y-123549200D01*
X24634850Y-123269800D01*
X25200000Y-123384100D01*
G36*
X25841350Y-123841300D02*
G01*
X26393800Y-124120700D01*
X26720825Y-124447725D01*
X26855763Y-124677913D01*
X27087538Y-124947788D01*
X26781150Y-124863650D01*
X26527150Y-124787450D01*
X26349350Y-124723950D01*
X25974700Y-124590600D01*
X25615925Y-124396925D01*
X25355575Y-124111175D01*
X25231750Y-123949250D01*
X25295250Y-123987350D01*
X25269850Y-123923850D01*
X25333350Y-123752400D01*
X25841350Y-123841300D01*
G37*
X25841350Y-123841300D02*
X26393800Y-124120700D01*
X26720825Y-124447725D01*
X26855763Y-124677913D01*
X27087538Y-124947788D01*
X26781150Y-124863650D01*
X26527150Y-124787450D01*
X26349350Y-124723950D01*
X25974700Y-124590600D01*
X25615925Y-124396925D01*
X25355575Y-124111175D01*
X25231750Y-123949250D01*
X25295250Y-123987350D01*
X25269850Y-123923850D01*
X25333350Y-123752400D01*
X25841350Y-123841300D01*
G36*
X28273400Y-122838000D02*
G01*
X28705200Y-122863400D01*
X29283207Y-122873943D01*
X28603600Y-123028500D01*
X28171800Y-123219000D01*
X27828900Y-123434900D01*
X27409800Y-123600000D01*
X26876400Y-123688900D01*
X26431900Y-123714300D01*
X25854050Y-123695250D01*
X25276200Y-123676200D01*
X25212700Y-123600000D01*
X25428600Y-123536500D01*
X25435585Y-123485700D01*
X25751815Y-123358700D01*
X26285850Y-123130100D01*
X26838300Y-122926900D01*
X27232000Y-122812600D01*
X27676500Y-122812600D01*
X28273400Y-122838000D01*
G37*
X28273400Y-122838000D02*
X28705200Y-122863400D01*
X29283207Y-122873943D01*
X28603600Y-123028500D01*
X28171800Y-123219000D01*
X27828900Y-123434900D01*
X27409800Y-123600000D01*
X26876400Y-123688900D01*
X26431900Y-123714300D01*
X25854050Y-123695250D01*
X25276200Y-123676200D01*
X25212700Y-123600000D01*
X25428600Y-123536500D01*
X25435585Y-123485700D01*
X25751815Y-123358700D01*
X26285850Y-123130100D01*
X26838300Y-122926900D01*
X27232000Y-122812600D01*
X27676500Y-122812600D01*
X28273400Y-122838000D01*
G36*
X28260700Y-120183700D02*
G01*
X28019400Y-120679000D01*
X27816200Y-121136200D01*
X27555850Y-121656900D01*
X27282800Y-122012500D01*
X26971650Y-122425250D01*
X26501750Y-122818950D01*
X26000100Y-123155500D01*
X24895200Y-123752400D01*
X24920600Y-123422200D01*
X25225400Y-123371400D01*
X25473050Y-122933250D01*
X25688950Y-122469700D01*
X25854050Y-122139500D01*
X26038200Y-121847400D01*
X26203300Y-121529900D01*
X26482700Y-121174300D01*
X26762100Y-120856800D01*
X27092300Y-120564700D01*
X27435200Y-120336100D01*
X27816200Y-120082100D01*
X28209900Y-119815400D01*
X28743300Y-119421700D01*
X28260700Y-120183700D01*
G37*
X28260700Y-120183700D02*
X28019400Y-120679000D01*
X27816200Y-121136200D01*
X27555850Y-121656900D01*
X27282800Y-122012500D01*
X26971650Y-122425250D01*
X26501750Y-122818950D01*
X26000100Y-123155500D01*
X24895200Y-123752400D01*
X24920600Y-123422200D01*
X25225400Y-123371400D01*
X25473050Y-122933250D01*
X25688950Y-122469700D01*
X25854050Y-122139500D01*
X26038200Y-121847400D01*
X26203300Y-121529900D01*
X26482700Y-121174300D01*
X26762100Y-120856800D01*
X27092300Y-120564700D01*
X27435200Y-120336100D01*
X27816200Y-120082100D01*
X28209900Y-119815400D01*
X28743300Y-119421700D01*
X28260700Y-120183700D01*
G36*
X25415900Y-118050100D02*
G01*
X25517500Y-118532700D01*
X25631800Y-118989900D01*
X25714350Y-119320100D01*
X25777850Y-119701100D01*
X25822300Y-120221800D01*
X25822300Y-120755200D01*
X25771500Y-121339400D01*
X25708000Y-121860100D01*
X25565125Y-122355400D01*
X25266675Y-123371400D01*
X25053950Y-123320600D01*
X24819000Y-122406200D01*
X24645962Y-121542600D01*
X24661837Y-120755200D01*
X24714225Y-120094800D01*
X24876150Y-119320100D01*
X25111100Y-118507300D01*
X25238100Y-117732600D01*
X25301600Y-117211900D01*
X25415900Y-118050100D01*
G37*
X25415900Y-118050100D02*
X25517500Y-118532700D01*
X25631800Y-118989900D01*
X25714350Y-119320100D01*
X25777850Y-119701100D01*
X25822300Y-120221800D01*
X25822300Y-120755200D01*
X25771500Y-121339400D01*
X25708000Y-121860100D01*
X25565125Y-122355400D01*
X25266675Y-123371400D01*
X25053950Y-123320600D01*
X24819000Y-122406200D01*
X24645962Y-121542600D01*
X24661837Y-120755200D01*
X24714225Y-120094800D01*
X24876150Y-119320100D01*
X25111100Y-118507300D01*
X25238100Y-117732600D01*
X25301600Y-117211900D01*
X25415900Y-118050100D01*
D12*
X25250000Y-68750000D03*
X43000000Y-104750000D03*
X31000000Y-104750000D03*
X19000000Y-104750000D03*
X7000000Y-104750000D03*
X7000000Y-88750000D03*
X19000000Y-88750000D03*
X43000000Y-88750000D03*
X31000000Y-88750000D03*
M02*
