G04 #@! TF.GenerationSoftware,KiCad,Pcbnew,(5.1.5-0)*
G04 #@! TF.CreationDate,2021-01-11T19:42:11-08:00*
G04 #@! TF.ProjectId,squidaxon,73717569-6461-4786-9f6e-2e6b69636164,rev?*
G04 #@! TF.SameCoordinates,Original*
G04 #@! TF.FileFunction,Soldermask,Bot*
G04 #@! TF.FilePolarity,Negative*
%FSLAX46Y46*%
G04 Gerber Fmt 4.6, Leading zero omitted, Abs format (unit mm)*
G04 Created by KiCad (PCBNEW (5.1.5-0)) date 2021-01-11 19:42:11*
%MOMM*%
%LPD*%
G04 APERTURE LIST*
%ADD10C,1.000000*%
%ADD11C,0.150000*%
%ADD12C,0.100000*%
G04 APERTURE END LIST*
D10*
X38700000Y-98700000D02*
G75*
G03X38700000Y-98700000I-3500000J0D01*
G01*
X8700000Y-83200000D02*
G75*
G03X8700000Y-83200000I-3500000J0D01*
G01*
X38700000Y-83200000D02*
G75*
G03X38700000Y-83200000I-3500000J0D01*
G01*
X28700000Y-83200000D02*
G75*
G03X28700000Y-83200000I-3500000J0D01*
G01*
D11*
X22726190Y-121452380D02*
X22726190Y-120785714D01*
X22726190Y-120976190D02*
X22678571Y-120880952D01*
X22630952Y-120833333D01*
X22535714Y-120785714D01*
X22440476Y-120785714D01*
X21726190Y-121404761D02*
X21821428Y-121452380D01*
X22011904Y-121452380D01*
X22107142Y-121404761D01*
X22154761Y-121309523D01*
X22154761Y-120928571D01*
X22107142Y-120833333D01*
X22011904Y-120785714D01*
X21821428Y-120785714D01*
X21726190Y-120833333D01*
X21678571Y-120928571D01*
X21678571Y-121023809D01*
X22154761Y-121119047D01*
X21250000Y-120785714D02*
X21250000Y-121785714D01*
X21250000Y-120833333D02*
X21154761Y-120785714D01*
X20964285Y-120785714D01*
X20869047Y-120833333D01*
X20821428Y-120880952D01*
X20773809Y-120976190D01*
X20773809Y-121261904D01*
X20821428Y-121357142D01*
X20869047Y-121404761D01*
X20964285Y-121452380D01*
X21154761Y-121452380D01*
X21250000Y-121404761D01*
X19916666Y-121452380D02*
X19916666Y-120928571D01*
X19964285Y-120833333D01*
X20059523Y-120785714D01*
X20250000Y-120785714D01*
X20345238Y-120833333D01*
X19916666Y-121404761D02*
X20011904Y-121452380D01*
X20250000Y-121452380D01*
X20345238Y-121404761D01*
X20392857Y-121309523D01*
X20392857Y-121214285D01*
X20345238Y-121119047D01*
X20250000Y-121071428D01*
X20011904Y-121071428D01*
X19916666Y-121023809D01*
X19440476Y-120785714D02*
X19440476Y-121452380D01*
X19440476Y-120880952D02*
X19392857Y-120833333D01*
X19297619Y-120785714D01*
X19154761Y-120785714D01*
X19059523Y-120833333D01*
X19011904Y-120928571D01*
X19011904Y-121452380D01*
X18154761Y-121404761D02*
X18250000Y-121452380D01*
X18440476Y-121452380D01*
X18535714Y-121404761D01*
X18583333Y-121309523D01*
X18583333Y-120928571D01*
X18535714Y-120833333D01*
X18440476Y-120785714D01*
X18250000Y-120785714D01*
X18154761Y-120833333D01*
X18107142Y-120928571D01*
X18107142Y-121023809D01*
X18583333Y-121119047D01*
X17535714Y-121452380D02*
X17630952Y-121404761D01*
X17678571Y-121309523D01*
X17678571Y-120452380D01*
X16392857Y-121452380D02*
X16392857Y-120452380D01*
X16392857Y-120833333D02*
X16297619Y-120785714D01*
X16107142Y-120785714D01*
X16011904Y-120833333D01*
X15964285Y-120880952D01*
X15916666Y-120976190D01*
X15916666Y-121261904D01*
X15964285Y-121357142D01*
X16011904Y-121404761D01*
X16107142Y-121452380D01*
X16297619Y-121452380D01*
X16392857Y-121404761D01*
X15583333Y-120785714D02*
X15345238Y-121452380D01*
X15107142Y-120785714D02*
X15345238Y-121452380D01*
X15440476Y-121690476D01*
X15488095Y-121738095D01*
X15583333Y-121785714D01*
X13964285Y-120785714D02*
X13964285Y-121642857D01*
X14011904Y-121738095D01*
X14107142Y-121785714D01*
X14154761Y-121785714D01*
X13964285Y-120452380D02*
X14011904Y-120500000D01*
X13964285Y-120547619D01*
X13916666Y-120500000D01*
X13964285Y-120452380D01*
X13964285Y-120547619D01*
X13059523Y-121452380D02*
X13059523Y-120928571D01*
X13107142Y-120833333D01*
X13202380Y-120785714D01*
X13392857Y-120785714D01*
X13488095Y-120833333D01*
X13059523Y-121404761D02*
X13154761Y-121452380D01*
X13392857Y-121452380D01*
X13488095Y-121404761D01*
X13535714Y-121309523D01*
X13535714Y-121214285D01*
X13488095Y-121119047D01*
X13392857Y-121071428D01*
X13154761Y-121071428D01*
X13059523Y-121023809D01*
X12154761Y-121404761D02*
X12250000Y-121452380D01*
X12440476Y-121452380D01*
X12535714Y-121404761D01*
X12583333Y-121357142D01*
X12630952Y-121261904D01*
X12630952Y-120976190D01*
X12583333Y-120880952D01*
X12535714Y-120833333D01*
X12440476Y-120785714D01*
X12250000Y-120785714D01*
X12154761Y-120833333D01*
X11726190Y-121452380D02*
X11726190Y-120452380D01*
X11630952Y-121071428D02*
X11345238Y-121452380D01*
X11345238Y-120785714D02*
X11726190Y-121166666D01*
X10202380Y-121404761D02*
X10107142Y-121452380D01*
X9916666Y-121452380D01*
X9821428Y-121404761D01*
X9773809Y-121309523D01*
X9773809Y-121261904D01*
X9821428Y-121166666D01*
X9916666Y-121119047D01*
X10059523Y-121119047D01*
X10154761Y-121071428D01*
X10202380Y-120976190D01*
X10202380Y-120928571D01*
X10154761Y-120833333D01*
X10059523Y-120785714D01*
X9916666Y-120785714D01*
X9821428Y-120833333D01*
X9345238Y-121357142D02*
X9297619Y-121404761D01*
X9345238Y-121452380D01*
X9392857Y-121404761D01*
X9345238Y-121357142D01*
X9345238Y-121452380D01*
X8154761Y-120547619D02*
X8107142Y-120500000D01*
X8011904Y-120452380D01*
X7773809Y-120452380D01*
X7678571Y-120500000D01*
X7630952Y-120547619D01*
X7583333Y-120642857D01*
X7583333Y-120738095D01*
X7630952Y-120880952D01*
X8202380Y-121452380D01*
X7583333Y-121452380D01*
X6964285Y-120452380D02*
X6869047Y-120452380D01*
X6773809Y-120500000D01*
X6726190Y-120547619D01*
X6678571Y-120642857D01*
X6630952Y-120833333D01*
X6630952Y-121071428D01*
X6678571Y-121261904D01*
X6726190Y-121357142D01*
X6773809Y-121404761D01*
X6869047Y-121452380D01*
X6964285Y-121452380D01*
X7059523Y-121404761D01*
X7107142Y-121357142D01*
X7154761Y-121261904D01*
X7202380Y-121071428D01*
X7202380Y-120833333D01*
X7154761Y-120642857D01*
X7107142Y-120547619D01*
X7059523Y-120500000D01*
X6964285Y-120452380D01*
X6250000Y-120547619D02*
X6202380Y-120500000D01*
X6107142Y-120452380D01*
X5869047Y-120452380D01*
X5773809Y-120500000D01*
X5726190Y-120547619D01*
X5678571Y-120642857D01*
X5678571Y-120738095D01*
X5726190Y-120880952D01*
X6297619Y-121452380D01*
X5678571Y-121452380D01*
X4726190Y-121452380D02*
X5297619Y-121452380D01*
X5011904Y-121452380D02*
X5011904Y-120452380D01*
X5107142Y-120595238D01*
X5202380Y-120690476D01*
X5297619Y-120738095D01*
D10*
X18700000Y-83200000D02*
G75*
G03X18700000Y-83200000I-3500000J0D01*
G01*
X8700000Y-98700000D02*
G75*
G03X8700000Y-98700000I-3500000J0D01*
G01*
X18700000Y-98700000D02*
G75*
G03X18700000Y-98700000I-3500000J0D01*
G01*
X28700000Y-98700000D02*
G75*
G03X28700000Y-98700000I-3500000J0D01*
G01*
D12*
G36*
X35804975Y-95658585D02*
G01*
X36104528Y-95718170D01*
X36668874Y-95951930D01*
X37176772Y-96291296D01*
X37608704Y-96723228D01*
X37948070Y-97231126D01*
X38181830Y-97795472D01*
X38301000Y-98394578D01*
X38301000Y-99005422D01*
X38181830Y-99604528D01*
X37948070Y-100168874D01*
X37608704Y-100676772D01*
X37176772Y-101108704D01*
X36668874Y-101448070D01*
X36104528Y-101681830D01*
X35804975Y-101741415D01*
X35505423Y-101801000D01*
X34894577Y-101801000D01*
X34595025Y-101741415D01*
X34295472Y-101681830D01*
X33731126Y-101448070D01*
X33223228Y-101108704D01*
X32791296Y-100676772D01*
X32451930Y-100168874D01*
X32218170Y-99604528D01*
X32099000Y-99005422D01*
X32099000Y-98394578D01*
X32218170Y-97795472D01*
X32451930Y-97231126D01*
X32791296Y-96723228D01*
X33223228Y-96291296D01*
X33731126Y-95951930D01*
X34295472Y-95718170D01*
X34595025Y-95658585D01*
X34894577Y-95599000D01*
X35505423Y-95599000D01*
X35804975Y-95658585D01*
G37*
G36*
X25804975Y-95658585D02*
G01*
X26104528Y-95718170D01*
X26668874Y-95951930D01*
X27176772Y-96291296D01*
X27608704Y-96723228D01*
X27948070Y-97231126D01*
X28181830Y-97795472D01*
X28301000Y-98394578D01*
X28301000Y-99005422D01*
X28181830Y-99604528D01*
X27948070Y-100168874D01*
X27608704Y-100676772D01*
X27176772Y-101108704D01*
X26668874Y-101448070D01*
X26104528Y-101681830D01*
X25804975Y-101741415D01*
X25505423Y-101801000D01*
X24894577Y-101801000D01*
X24595025Y-101741415D01*
X24295472Y-101681830D01*
X23731126Y-101448070D01*
X23223228Y-101108704D01*
X22791296Y-100676772D01*
X22451930Y-100168874D01*
X22218170Y-99604528D01*
X22099000Y-99005422D01*
X22099000Y-98394578D01*
X22218170Y-97795472D01*
X22451930Y-97231126D01*
X22791296Y-96723228D01*
X23223228Y-96291296D01*
X23731126Y-95951930D01*
X24295472Y-95718170D01*
X24595025Y-95658585D01*
X24894577Y-95599000D01*
X25505423Y-95599000D01*
X25804975Y-95658585D01*
G37*
G36*
X15804975Y-95658585D02*
G01*
X16104528Y-95718170D01*
X16668874Y-95951930D01*
X17176772Y-96291296D01*
X17608704Y-96723228D01*
X17948070Y-97231126D01*
X18181830Y-97795472D01*
X18301000Y-98394578D01*
X18301000Y-99005422D01*
X18181830Y-99604528D01*
X17948070Y-100168874D01*
X17608704Y-100676772D01*
X17176772Y-101108704D01*
X16668874Y-101448070D01*
X16104528Y-101681830D01*
X15804975Y-101741415D01*
X15505423Y-101801000D01*
X14894577Y-101801000D01*
X14595025Y-101741415D01*
X14295472Y-101681830D01*
X13731126Y-101448070D01*
X13223228Y-101108704D01*
X12791296Y-100676772D01*
X12451930Y-100168874D01*
X12218170Y-99604528D01*
X12099000Y-99005422D01*
X12099000Y-98394578D01*
X12218170Y-97795472D01*
X12451930Y-97231126D01*
X12791296Y-96723228D01*
X13223228Y-96291296D01*
X13731126Y-95951930D01*
X14295472Y-95718170D01*
X14595025Y-95658585D01*
X14894577Y-95599000D01*
X15505423Y-95599000D01*
X15804975Y-95658585D01*
G37*
G36*
X5804975Y-95658585D02*
G01*
X6104528Y-95718170D01*
X6668874Y-95951930D01*
X7176772Y-96291296D01*
X7608704Y-96723228D01*
X7948070Y-97231126D01*
X8181830Y-97795472D01*
X8301000Y-98394578D01*
X8301000Y-99005422D01*
X8181830Y-99604528D01*
X7948070Y-100168874D01*
X7608704Y-100676772D01*
X7176772Y-101108704D01*
X6668874Y-101448070D01*
X6104528Y-101681830D01*
X5804975Y-101741415D01*
X5505423Y-101801000D01*
X4894577Y-101801000D01*
X4595025Y-101741415D01*
X4295472Y-101681830D01*
X3731126Y-101448070D01*
X3223228Y-101108704D01*
X2791296Y-100676772D01*
X2451930Y-100168874D01*
X2218170Y-99604528D01*
X2099000Y-99005422D01*
X2099000Y-98394578D01*
X2218170Y-97795472D01*
X2451930Y-97231126D01*
X2791296Y-96723228D01*
X3223228Y-96291296D01*
X3731126Y-95951930D01*
X4295472Y-95718170D01*
X4595025Y-95658585D01*
X4894577Y-95599000D01*
X5505423Y-95599000D01*
X5804975Y-95658585D01*
G37*
G36*
X35804975Y-80158585D02*
G01*
X36104528Y-80218170D01*
X36668874Y-80451930D01*
X37176772Y-80791296D01*
X37608704Y-81223228D01*
X37948070Y-81731126D01*
X38181830Y-82295472D01*
X38301000Y-82894578D01*
X38301000Y-83505422D01*
X38181830Y-84104528D01*
X37948070Y-84668874D01*
X37608704Y-85176772D01*
X37176772Y-85608704D01*
X36668874Y-85948070D01*
X36104528Y-86181830D01*
X35804975Y-86241415D01*
X35505423Y-86301000D01*
X34894577Y-86301000D01*
X34595025Y-86241415D01*
X34295472Y-86181830D01*
X33731126Y-85948070D01*
X33223228Y-85608704D01*
X32791296Y-85176772D01*
X32451930Y-84668874D01*
X32218170Y-84104528D01*
X32099000Y-83505422D01*
X32099000Y-82894578D01*
X32218170Y-82295472D01*
X32451930Y-81731126D01*
X32791296Y-81223228D01*
X33223228Y-80791296D01*
X33731126Y-80451930D01*
X34295472Y-80218170D01*
X34595025Y-80158585D01*
X34894577Y-80099000D01*
X35505423Y-80099000D01*
X35804975Y-80158585D01*
G37*
G36*
X25804975Y-80158585D02*
G01*
X26104528Y-80218170D01*
X26668874Y-80451930D01*
X27176772Y-80791296D01*
X27608704Y-81223228D01*
X27948070Y-81731126D01*
X28181830Y-82295472D01*
X28301000Y-82894578D01*
X28301000Y-83505422D01*
X28181830Y-84104528D01*
X27948070Y-84668874D01*
X27608704Y-85176772D01*
X27176772Y-85608704D01*
X26668874Y-85948070D01*
X26104528Y-86181830D01*
X25804975Y-86241415D01*
X25505423Y-86301000D01*
X24894577Y-86301000D01*
X24595025Y-86241415D01*
X24295472Y-86181830D01*
X23731126Y-85948070D01*
X23223228Y-85608704D01*
X22791296Y-85176772D01*
X22451930Y-84668874D01*
X22218170Y-84104528D01*
X22099000Y-83505422D01*
X22099000Y-82894578D01*
X22218170Y-82295472D01*
X22451930Y-81731126D01*
X22791296Y-81223228D01*
X23223228Y-80791296D01*
X23731126Y-80451930D01*
X24295472Y-80218170D01*
X24595025Y-80158585D01*
X24894577Y-80099000D01*
X25505423Y-80099000D01*
X25804975Y-80158585D01*
G37*
G36*
X15804975Y-80158585D02*
G01*
X16104528Y-80218170D01*
X16668874Y-80451930D01*
X17176772Y-80791296D01*
X17608704Y-81223228D01*
X17948070Y-81731126D01*
X18181830Y-82295472D01*
X18301000Y-82894578D01*
X18301000Y-83505422D01*
X18181830Y-84104528D01*
X17948070Y-84668874D01*
X17608704Y-85176772D01*
X17176772Y-85608704D01*
X16668874Y-85948070D01*
X16104528Y-86181830D01*
X15804975Y-86241415D01*
X15505423Y-86301000D01*
X14894577Y-86301000D01*
X14595025Y-86241415D01*
X14295472Y-86181830D01*
X13731126Y-85948070D01*
X13223228Y-85608704D01*
X12791296Y-85176772D01*
X12451930Y-84668874D01*
X12218170Y-84104528D01*
X12099000Y-83505422D01*
X12099000Y-82894578D01*
X12218170Y-82295472D01*
X12451930Y-81731126D01*
X12791296Y-81223228D01*
X13223228Y-80791296D01*
X13731126Y-80451930D01*
X14295472Y-80218170D01*
X14595025Y-80158585D01*
X14894577Y-80099000D01*
X15505423Y-80099000D01*
X15804975Y-80158585D01*
G37*
G36*
X5804975Y-80158585D02*
G01*
X6104528Y-80218170D01*
X6668874Y-80451930D01*
X7176772Y-80791296D01*
X7608704Y-81223228D01*
X7948070Y-81731126D01*
X8181830Y-82295472D01*
X8301000Y-82894578D01*
X8301000Y-83505422D01*
X8181830Y-84104528D01*
X7948070Y-84668874D01*
X7608704Y-85176772D01*
X7176772Y-85608704D01*
X6668874Y-85948070D01*
X6104528Y-86181830D01*
X5804975Y-86241415D01*
X5505423Y-86301000D01*
X4894577Y-86301000D01*
X4595025Y-86241415D01*
X4295472Y-86181830D01*
X3731126Y-85948070D01*
X3223228Y-85608704D01*
X2791296Y-85176772D01*
X2451930Y-84668874D01*
X2218170Y-84104528D01*
X2099000Y-83505422D01*
X2099000Y-82894578D01*
X2218170Y-82295472D01*
X2451930Y-81731126D01*
X2791296Y-81223228D01*
X3223228Y-80791296D01*
X3731126Y-80451930D01*
X4295472Y-80218170D01*
X4595025Y-80158585D01*
X4894577Y-80099000D01*
X5505423Y-80099000D01*
X5804975Y-80158585D01*
G37*
M02*
