G04 #@! TF.GenerationSoftware,KiCad,Pcbnew,(5.1.5-0)*
G04 #@! TF.CreationDate,2021-01-20T20:41:00-08:00*
G04 #@! TF.ProjectId,arseq,61727365-712e-46b6-9963-61645f706362,rev?*
G04 #@! TF.SameCoordinates,Original*
G04 #@! TF.FileFunction,Legend,Top*
G04 #@! TF.FilePolarity,Positive*
%FSLAX46Y46*%
G04 Gerber Fmt 4.6, Leading zero omitted, Abs format (unit mm)*
G04 Created by KiCad (PCBNEW (5.1.5-0)) date 2021-01-20 20:41:00*
%MOMM*%
%LPD*%
G04 APERTURE LIST*
%ADD10C,0.300000*%
%ADD11C,0.400000*%
G04 APERTURE END LIST*
D10*
X39797619Y-96904761D02*
X40178571Y-96904761D01*
X40369047Y-97000000D01*
X40559523Y-97190476D01*
X40654761Y-97571428D01*
X40654761Y-98238095D01*
X40559523Y-98619047D01*
X40369047Y-98809523D01*
X40178571Y-98904761D01*
X39797619Y-98904761D01*
X39607142Y-98809523D01*
X39416666Y-98619047D01*
X39321428Y-98238095D01*
X39321428Y-97571428D01*
X39416666Y-97190476D01*
X39607142Y-97000000D01*
X39797619Y-96904761D01*
X41511904Y-96904761D02*
X41511904Y-98523809D01*
X41607142Y-98714285D01*
X41702380Y-98809523D01*
X41892857Y-98904761D01*
X42273809Y-98904761D01*
X42464285Y-98809523D01*
X42559523Y-98714285D01*
X42654761Y-98523809D01*
X42654761Y-96904761D01*
X43321428Y-96904761D02*
X44464285Y-96904761D01*
X43892857Y-98904761D02*
X43892857Y-96904761D01*
X45988095Y-97571428D02*
X45988095Y-98904761D01*
X45511904Y-96809523D02*
X45035714Y-98238095D01*
X46273809Y-98238095D01*
X27797619Y-96904761D02*
X28178571Y-96904761D01*
X28369047Y-97000000D01*
X28559523Y-97190476D01*
X28654761Y-97571428D01*
X28654761Y-98238095D01*
X28559523Y-98619047D01*
X28369047Y-98809523D01*
X28178571Y-98904761D01*
X27797619Y-98904761D01*
X27607142Y-98809523D01*
X27416666Y-98619047D01*
X27321428Y-98238095D01*
X27321428Y-97571428D01*
X27416666Y-97190476D01*
X27607142Y-97000000D01*
X27797619Y-96904761D01*
X29511904Y-96904761D02*
X29511904Y-98523809D01*
X29607142Y-98714285D01*
X29702380Y-98809523D01*
X29892857Y-98904761D01*
X30273809Y-98904761D01*
X30464285Y-98809523D01*
X30559523Y-98714285D01*
X30654761Y-98523809D01*
X30654761Y-96904761D01*
X31321428Y-96904761D02*
X32464285Y-96904761D01*
X31892857Y-98904761D02*
X31892857Y-96904761D01*
X32940476Y-96904761D02*
X34178571Y-96904761D01*
X33511904Y-97666666D01*
X33797619Y-97666666D01*
X33988095Y-97761904D01*
X34083333Y-97857142D01*
X34178571Y-98047619D01*
X34178571Y-98523809D01*
X34083333Y-98714285D01*
X33988095Y-98809523D01*
X33797619Y-98904761D01*
X33226190Y-98904761D01*
X33035714Y-98809523D01*
X32940476Y-98714285D01*
X16047619Y-96904761D02*
X16428571Y-96904761D01*
X16619047Y-97000000D01*
X16809523Y-97190476D01*
X16904761Y-97571428D01*
X16904761Y-98238095D01*
X16809523Y-98619047D01*
X16619047Y-98809523D01*
X16428571Y-98904761D01*
X16047619Y-98904761D01*
X15857142Y-98809523D01*
X15666666Y-98619047D01*
X15571428Y-98238095D01*
X15571428Y-97571428D01*
X15666666Y-97190476D01*
X15857142Y-97000000D01*
X16047619Y-96904761D01*
X17761904Y-96904761D02*
X17761904Y-98523809D01*
X17857142Y-98714285D01*
X17952380Y-98809523D01*
X18142857Y-98904761D01*
X18523809Y-98904761D01*
X18714285Y-98809523D01*
X18809523Y-98714285D01*
X18904761Y-98523809D01*
X18904761Y-96904761D01*
X19571428Y-96904761D02*
X20714285Y-96904761D01*
X20142857Y-98904761D02*
X20142857Y-96904761D01*
X21285714Y-97095238D02*
X21380952Y-97000000D01*
X21571428Y-96904761D01*
X22047619Y-96904761D01*
X22238095Y-97000000D01*
X22333333Y-97095238D01*
X22428571Y-97285714D01*
X22428571Y-97476190D01*
X22333333Y-97761904D01*
X21190476Y-98904761D01*
X22428571Y-98904761D01*
X3547619Y-96904761D02*
X3928571Y-96904761D01*
X4119047Y-97000000D01*
X4309523Y-97190476D01*
X4404761Y-97571428D01*
X4404761Y-98238095D01*
X4309523Y-98619047D01*
X4119047Y-98809523D01*
X3928571Y-98904761D01*
X3547619Y-98904761D01*
X3357142Y-98809523D01*
X3166666Y-98619047D01*
X3071428Y-98238095D01*
X3071428Y-97571428D01*
X3166666Y-97190476D01*
X3357142Y-97000000D01*
X3547619Y-96904761D01*
X5261904Y-96904761D02*
X5261904Y-98523809D01*
X5357142Y-98714285D01*
X5452380Y-98809523D01*
X5642857Y-98904761D01*
X6023809Y-98904761D01*
X6214285Y-98809523D01*
X6309523Y-98714285D01*
X6404761Y-98523809D01*
X6404761Y-96904761D01*
X7071428Y-96904761D02*
X8214285Y-96904761D01*
X7642857Y-98904761D02*
X7642857Y-96904761D01*
X9928571Y-98904761D02*
X8785714Y-98904761D01*
X9357142Y-98904761D02*
X9357142Y-96904761D01*
X9166666Y-97190476D01*
X8976190Y-97380952D01*
X8785714Y-97476190D01*
X41000000Y-81154761D02*
X41380952Y-81154761D01*
X41571428Y-81250000D01*
X41761904Y-81440476D01*
X41857142Y-81821428D01*
X41857142Y-82488095D01*
X41761904Y-82869047D01*
X41571428Y-83059523D01*
X41380952Y-83154761D01*
X41000000Y-83154761D01*
X40809523Y-83059523D01*
X40619047Y-82869047D01*
X40523809Y-82488095D01*
X40523809Y-81821428D01*
X40619047Y-81440476D01*
X40809523Y-81250000D01*
X41000000Y-81154761D01*
X42714285Y-81154761D02*
X42714285Y-82773809D01*
X42809523Y-82964285D01*
X42904761Y-83059523D01*
X43095238Y-83154761D01*
X43476190Y-83154761D01*
X43666666Y-83059523D01*
X43761904Y-82964285D01*
X43857142Y-82773809D01*
X43857142Y-81154761D01*
X44523809Y-81154761D02*
X45666666Y-81154761D01*
X45095238Y-83154761D02*
X45095238Y-81154761D01*
X15595238Y-83154761D02*
X14928571Y-82202380D01*
X14452380Y-83154761D02*
X14452380Y-81154761D01*
X15214285Y-81154761D01*
X15404761Y-81250000D01*
X15500000Y-81345238D01*
X15595238Y-81535714D01*
X15595238Y-81821428D01*
X15500000Y-82011904D01*
X15404761Y-82107142D01*
X15214285Y-82202380D01*
X14452380Y-82202380D01*
X16452380Y-82107142D02*
X17119047Y-82107142D01*
X17404761Y-83154761D02*
X16452380Y-83154761D01*
X16452380Y-81154761D01*
X17404761Y-81154761D01*
X18166666Y-83059523D02*
X18452380Y-83154761D01*
X18928571Y-83154761D01*
X19119047Y-83059523D01*
X19214285Y-82964285D01*
X19309523Y-82773809D01*
X19309523Y-82583333D01*
X19214285Y-82392857D01*
X19119047Y-82297619D01*
X18928571Y-82202380D01*
X18547619Y-82107142D01*
X18357142Y-82011904D01*
X18261904Y-81916666D01*
X18166666Y-81726190D01*
X18166666Y-81535714D01*
X18261904Y-81345238D01*
X18357142Y-81250000D01*
X18547619Y-81154761D01*
X19023809Y-81154761D01*
X19309523Y-81250000D01*
X20166666Y-82107142D02*
X20833333Y-82107142D01*
X21119047Y-83154761D02*
X20166666Y-83154761D01*
X20166666Y-81154761D01*
X21119047Y-81154761D01*
X21690476Y-81154761D02*
X22833333Y-81154761D01*
X22261904Y-83154761D02*
X22261904Y-81154761D01*
X3761904Y-82964285D02*
X3666666Y-83059523D01*
X3380952Y-83154761D01*
X3190476Y-83154761D01*
X2904761Y-83059523D01*
X2714285Y-82869047D01*
X2619047Y-82678571D01*
X2523809Y-82297619D01*
X2523809Y-82011904D01*
X2619047Y-81630952D01*
X2714285Y-81440476D01*
X2904761Y-81250000D01*
X3190476Y-81154761D01*
X3380952Y-81154761D01*
X3666666Y-81250000D01*
X3761904Y-81345238D01*
X5571428Y-83154761D02*
X4619047Y-83154761D01*
X4619047Y-81154761D01*
X6619047Y-81154761D02*
X7000000Y-81154761D01*
X7190476Y-81250000D01*
X7380952Y-81440476D01*
X7476190Y-81821428D01*
X7476190Y-82488095D01*
X7380952Y-82869047D01*
X7190476Y-83059523D01*
X7000000Y-83154761D01*
X6619047Y-83154761D01*
X6428571Y-83059523D01*
X6238095Y-82869047D01*
X6142857Y-82488095D01*
X6142857Y-81821428D01*
X6238095Y-81440476D01*
X6428571Y-81250000D01*
X6619047Y-81154761D01*
X9476190Y-82964285D02*
X9380952Y-83059523D01*
X9095238Y-83154761D01*
X8904761Y-83154761D01*
X8619047Y-83059523D01*
X8428571Y-82869047D01*
X8333333Y-82678571D01*
X8238095Y-82297619D01*
X8238095Y-82011904D01*
X8333333Y-81630952D01*
X8428571Y-81440476D01*
X8619047Y-81250000D01*
X8904761Y-81154761D01*
X9095238Y-81154761D01*
X9380952Y-81250000D01*
X9476190Y-81345238D01*
X10333333Y-83154761D02*
X10333333Y-81154761D01*
X11476190Y-83154761D02*
X10619047Y-82011904D01*
X11476190Y-81154761D02*
X10333333Y-82297619D01*
X14380952Y-46821428D02*
X14380952Y-48154761D01*
X13904761Y-46059523D02*
X13428571Y-47488095D01*
X14666666Y-47488095D01*
X2380952Y-72071428D02*
X2380952Y-73404761D01*
X1904761Y-71309523D02*
X1428571Y-72738095D01*
X2666666Y-72738095D01*
X37333333Y-46154761D02*
X38571428Y-46154761D01*
X37904761Y-46916666D01*
X38190476Y-46916666D01*
X38380952Y-47011904D01*
X38476190Y-47107142D01*
X38571428Y-47297619D01*
X38571428Y-47773809D01*
X38476190Y-47964285D01*
X38380952Y-48059523D01*
X38190476Y-48154761D01*
X37619047Y-48154761D01*
X37428571Y-48059523D01*
X37333333Y-47964285D01*
X1333333Y-54404761D02*
X2571428Y-54404761D01*
X1904761Y-55166666D01*
X2190476Y-55166666D01*
X2380952Y-55261904D01*
X2476190Y-55357142D01*
X2571428Y-55547619D01*
X2571428Y-56023809D01*
X2476190Y-56214285D01*
X2380952Y-56309523D01*
X2190476Y-56404761D01*
X1619047Y-56404761D01*
X1428571Y-56309523D01*
X1333333Y-56214285D01*
X37428571Y-29345238D02*
X37523809Y-29250000D01*
X37714285Y-29154761D01*
X38190476Y-29154761D01*
X38380952Y-29250000D01*
X38476190Y-29345238D01*
X38571428Y-29535714D01*
X38571428Y-29726190D01*
X38476190Y-30011904D01*
X37333333Y-31154761D01*
X38571428Y-31154761D01*
X1428571Y-37595238D02*
X1523809Y-37500000D01*
X1714285Y-37404761D01*
X2190476Y-37404761D01*
X2380952Y-37500000D01*
X2476190Y-37595238D01*
X2571428Y-37785714D01*
X2571428Y-37976190D01*
X2476190Y-38261904D01*
X1333333Y-39404761D01*
X2571428Y-39404761D01*
X14571428Y-31154761D02*
X13428571Y-31154761D01*
X14000000Y-31154761D02*
X14000000Y-29154761D01*
X13809523Y-29440476D01*
X13619047Y-29630952D01*
X13428571Y-29726190D01*
X2571428Y-22404761D02*
X1428571Y-22404761D01*
X2000000Y-22404761D02*
X2000000Y-20404761D01*
X1809523Y-20690476D01*
X1619047Y-20880952D01*
X1428571Y-20976190D01*
X39892857Y-13154761D02*
X38940476Y-13154761D01*
X38940476Y-11154761D01*
X40559523Y-12107142D02*
X41226190Y-12107142D01*
X41511904Y-13154761D02*
X40559523Y-13154761D01*
X40559523Y-11154761D01*
X41511904Y-11154761D01*
X42083333Y-11154761D02*
X42750000Y-13154761D01*
X43416666Y-11154761D01*
X44083333Y-12107142D02*
X44750000Y-12107142D01*
X45035714Y-13154761D02*
X44083333Y-13154761D01*
X44083333Y-11154761D01*
X45035714Y-11154761D01*
X46845238Y-13154761D02*
X45892857Y-13154761D01*
X45892857Y-11154761D01*
X21035714Y-13154761D02*
X20369047Y-12202380D01*
X19892857Y-13154761D02*
X19892857Y-11154761D01*
X20654761Y-11154761D01*
X20845238Y-11250000D01*
X20940476Y-11345238D01*
X21035714Y-11535714D01*
X21035714Y-11821428D01*
X20940476Y-12011904D01*
X20845238Y-12107142D01*
X20654761Y-12202380D01*
X19892857Y-12202380D01*
X21892857Y-12107142D02*
X22559523Y-12107142D01*
X22845238Y-13154761D02*
X21892857Y-13154761D01*
X21892857Y-11154761D01*
X22845238Y-11154761D01*
X24654761Y-13154761D02*
X23702380Y-13154761D01*
X23702380Y-11154761D01*
X25321428Y-12107142D02*
X25988095Y-12107142D01*
X26273809Y-13154761D02*
X25321428Y-13154761D01*
X25321428Y-11154761D01*
X26273809Y-11154761D01*
X27035714Y-12583333D02*
X27988095Y-12583333D01*
X26845238Y-13154761D02*
X27511904Y-11154761D01*
X28178571Y-13154761D01*
X28749999Y-13059523D02*
X29035714Y-13154761D01*
X29511904Y-13154761D01*
X29702380Y-13059523D01*
X29797619Y-12964285D01*
X29892857Y-12773809D01*
X29892857Y-12583333D01*
X29797619Y-12392857D01*
X29702380Y-12297619D01*
X29511904Y-12202380D01*
X29130952Y-12107142D01*
X28940476Y-12011904D01*
X28845238Y-11916666D01*
X28749999Y-11726190D01*
X28749999Y-11535714D01*
X28845238Y-11345238D01*
X28940476Y-11250000D01*
X29130952Y-11154761D01*
X29607142Y-11154761D01*
X29892857Y-11250000D01*
X30749999Y-12107142D02*
X31416666Y-12107142D01*
X31702380Y-13154761D02*
X30749999Y-13154761D01*
X30749999Y-11154761D01*
X31702380Y-11154761D01*
D11*
X14904761Y-4833333D02*
X17285714Y-4833333D01*
X14428571Y-6261904D02*
X16095238Y-1261904D01*
X17761904Y-6261904D01*
X22285714Y-6261904D02*
X20619047Y-3880952D01*
X19428571Y-6261904D02*
X19428571Y-1261904D01*
X21333333Y-1261904D01*
X21809523Y-1500000D01*
X22047619Y-1738095D01*
X22285714Y-2214285D01*
X22285714Y-2928571D01*
X22047619Y-3404761D01*
X21809523Y-3642857D01*
X21333333Y-3880952D01*
X19428571Y-3880952D01*
X24190476Y-6023809D02*
X24904761Y-6261904D01*
X26095238Y-6261904D01*
X26571428Y-6023809D01*
X26809523Y-5785714D01*
X27047619Y-5309523D01*
X27047619Y-4833333D01*
X26809523Y-4357142D01*
X26571428Y-4119047D01*
X26095238Y-3880952D01*
X25142857Y-3642857D01*
X24666666Y-3404761D01*
X24428571Y-3166666D01*
X24190476Y-2690476D01*
X24190476Y-2214285D01*
X24428571Y-1738095D01*
X24666666Y-1500000D01*
X25142857Y-1261904D01*
X26333333Y-1261904D01*
X27047619Y-1500000D01*
X29190476Y-3642857D02*
X30857142Y-3642857D01*
X31571428Y-6261904D02*
X29190476Y-6261904D01*
X29190476Y-1261904D01*
X31571428Y-1261904D01*
X35857142Y-2928571D02*
X35857142Y-7928571D01*
X35857142Y-6023809D02*
X35380952Y-6261904D01*
X34428571Y-6261904D01*
X33952380Y-6023809D01*
X33714285Y-5785714D01*
X33476190Y-5309523D01*
X33476190Y-3880952D01*
X33714285Y-3404761D01*
X33952380Y-3166666D01*
X34428571Y-2928571D01*
X35380952Y-2928571D01*
X35857142Y-3166666D01*
D10*
X3892857Y-12583333D02*
X4845238Y-12583333D01*
X3702380Y-13154761D02*
X4369047Y-11154761D01*
X5035714Y-13154761D01*
X5416666Y-11154761D02*
X6559523Y-11154761D01*
X5988095Y-13154761D02*
X5988095Y-11154761D01*
X6940476Y-11154761D02*
X8083333Y-11154761D01*
X7511904Y-13154761D02*
X7511904Y-11154761D01*
X8654761Y-12583333D02*
X9607142Y-12583333D01*
X8464285Y-13154761D02*
X9130952Y-11154761D01*
X9797619Y-13154761D01*
X11607142Y-12964285D02*
X11511904Y-13059523D01*
X11226190Y-13154761D01*
X11035714Y-13154761D01*
X10750000Y-13059523D01*
X10559523Y-12869047D01*
X10464285Y-12678571D01*
X10369047Y-12297619D01*
X10369047Y-12011904D01*
X10464285Y-11630952D01*
X10559523Y-11440476D01*
X10750000Y-11250000D01*
X11035714Y-11154761D01*
X11226190Y-11154761D01*
X11511904Y-11250000D01*
X11607142Y-11345238D01*
X12464285Y-13154761D02*
X12464285Y-11154761D01*
X13607142Y-13154761D02*
X12750000Y-12011904D01*
X13607142Y-11154761D02*
X12464285Y-12297619D01*
M02*
