G04 #@! TF.GenerationSoftware,KiCad,Pcbnew,(5.1.5-0)*
G04 #@! TF.CreationDate,2021-01-20T20:41:00-08:00*
G04 #@! TF.ProjectId,arseq,61727365-712e-46b6-9963-61645f706362,rev?*
G04 #@! TF.SameCoordinates,Original*
G04 #@! TF.FileFunction,Copper,L2,Bot*
G04 #@! TF.FilePolarity,Positive*
%FSLAX46Y46*%
G04 Gerber Fmt 4.6, Leading zero omitted, Abs format (unit mm)*
G04 Created by KiCad (PCBNEW (5.1.5-0)) date 2021-01-20 20:41:00*
%MOMM*%
%LPD*%
G04 APERTURE LIST*
%ADD10C,7.600000*%
%ADD11C,3.100000*%
%ADD12C,6.100000*%
%ADD13C,5.100000*%
%ADD14C,0.254000*%
G04 APERTURE END LIST*
D10*
X25750000Y-38750000D03*
D11*
X17750000Y-30250000D03*
X33750000Y-30250000D03*
X33750000Y-47250000D03*
X17750000Y-47250000D03*
D12*
X42750000Y-104750000D03*
X6750000Y-88750000D03*
X42750000Y-88750000D03*
D13*
X30750000Y-88750000D03*
D12*
X18750000Y-88750000D03*
X6750000Y-104750000D03*
X30750000Y-104750000D03*
X18750000Y-104750000D03*
D14*
G36*
X49840001Y-127840000D02*
G01*
X660000Y-127840000D01*
X660000Y-125451353D01*
X4242755Y-125451353D01*
X4243173Y-125511171D01*
X4242755Y-125570988D01*
X4243655Y-125580160D01*
X4276296Y-125890715D01*
X4288320Y-125949291D01*
X4299532Y-126008070D01*
X4302196Y-126016892D01*
X4394535Y-126315192D01*
X4417715Y-126370335D01*
X4440124Y-126425800D01*
X4444451Y-126433937D01*
X4592972Y-126708621D01*
X4626417Y-126758205D01*
X4659177Y-126808268D01*
X4665001Y-126815409D01*
X4864047Y-127056013D01*
X4906482Y-127098154D01*
X4948346Y-127140903D01*
X4955446Y-127146777D01*
X5197435Y-127344138D01*
X5247259Y-127377241D01*
X5296615Y-127411036D01*
X5304721Y-127415419D01*
X5580435Y-127562019D01*
X5635704Y-127584799D01*
X5690724Y-127608381D01*
X5699527Y-127611105D01*
X5998465Y-127701359D01*
X6057138Y-127712976D01*
X6115655Y-127725415D01*
X6124820Y-127726378D01*
X6435594Y-127756850D01*
X6435598Y-127756850D01*
X6467581Y-127760000D01*
X8532419Y-127760000D01*
X8565986Y-127756694D01*
X8586744Y-127756694D01*
X8595909Y-127755731D01*
X8906228Y-127720923D01*
X8964731Y-127708487D01*
X9023419Y-127696867D01*
X9032222Y-127694142D01*
X9329870Y-127599723D01*
X9384792Y-127576183D01*
X9440159Y-127553363D01*
X9448265Y-127548979D01*
X9721904Y-127398544D01*
X9771217Y-127364779D01*
X9821088Y-127331645D01*
X9828188Y-127325770D01*
X10067397Y-127125049D01*
X10109241Y-127082320D01*
X10151694Y-127040162D01*
X10157519Y-127033020D01*
X10353185Y-126789660D01*
X10385938Y-126739608D01*
X10419391Y-126690013D01*
X10423714Y-126681881D01*
X10423717Y-126681877D01*
X10423719Y-126681873D01*
X10568388Y-126405146D01*
X10590785Y-126349711D01*
X10613978Y-126294539D01*
X10616641Y-126285717D01*
X10704807Y-125986156D01*
X10716007Y-125927440D01*
X10728045Y-125868798D01*
X10728944Y-125859627D01*
X10757245Y-125548647D01*
X10756827Y-125488830D01*
X10757088Y-125451353D01*
X39742755Y-125451353D01*
X39743173Y-125511171D01*
X39742755Y-125570988D01*
X39743655Y-125580160D01*
X39776296Y-125890715D01*
X39788320Y-125949291D01*
X39799532Y-126008070D01*
X39802196Y-126016892D01*
X39894535Y-126315192D01*
X39917715Y-126370335D01*
X39940124Y-126425800D01*
X39944451Y-126433937D01*
X40092972Y-126708621D01*
X40126417Y-126758205D01*
X40159177Y-126808268D01*
X40165001Y-126815409D01*
X40364047Y-127056013D01*
X40406482Y-127098154D01*
X40448346Y-127140903D01*
X40455446Y-127146777D01*
X40697435Y-127344138D01*
X40747259Y-127377241D01*
X40796615Y-127411036D01*
X40804721Y-127415419D01*
X41080435Y-127562019D01*
X41135704Y-127584799D01*
X41190724Y-127608381D01*
X41199527Y-127611105D01*
X41498465Y-127701359D01*
X41557138Y-127712976D01*
X41615655Y-127725415D01*
X41624820Y-127726378D01*
X41935594Y-127756850D01*
X41935598Y-127756850D01*
X41967581Y-127760000D01*
X44032419Y-127760000D01*
X44065986Y-127756694D01*
X44086744Y-127756694D01*
X44095909Y-127755731D01*
X44406228Y-127720923D01*
X44464731Y-127708487D01*
X44523419Y-127696867D01*
X44532222Y-127694142D01*
X44829870Y-127599723D01*
X44884792Y-127576183D01*
X44940159Y-127553363D01*
X44948265Y-127548979D01*
X45221904Y-127398544D01*
X45271217Y-127364779D01*
X45321088Y-127331645D01*
X45328188Y-127325770D01*
X45567397Y-127125049D01*
X45609241Y-127082320D01*
X45651694Y-127040162D01*
X45657519Y-127033020D01*
X45853185Y-126789660D01*
X45885938Y-126739608D01*
X45919391Y-126690013D01*
X45923714Y-126681881D01*
X45923717Y-126681877D01*
X45923719Y-126681873D01*
X46068388Y-126405146D01*
X46090785Y-126349711D01*
X46113978Y-126294539D01*
X46116641Y-126285717D01*
X46204807Y-125986156D01*
X46216007Y-125927440D01*
X46228045Y-125868798D01*
X46228944Y-125859627D01*
X46257245Y-125548647D01*
X46256827Y-125488829D01*
X46257245Y-125429012D01*
X46256345Y-125419841D01*
X46223704Y-125109285D01*
X46211680Y-125050709D01*
X46200468Y-124991930D01*
X46197804Y-124983108D01*
X46105465Y-124684808D01*
X46082280Y-124629653D01*
X46059876Y-124574200D01*
X46055549Y-124566064D01*
X46055549Y-124566063D01*
X46055546Y-124566059D01*
X45907028Y-124291379D01*
X45873583Y-124241795D01*
X45840823Y-124191732D01*
X45834999Y-124184591D01*
X45635954Y-123943987D01*
X45593535Y-123901863D01*
X45551655Y-123859097D01*
X45544554Y-123853223D01*
X45302565Y-123655862D01*
X45252741Y-123622759D01*
X45203385Y-123588964D01*
X45195279Y-123584581D01*
X44919566Y-123437981D01*
X44864269Y-123415189D01*
X44809275Y-123391619D01*
X44800472Y-123388895D01*
X44501535Y-123298641D01*
X44442862Y-123287024D01*
X44384345Y-123274585D01*
X44375180Y-123273622D01*
X44064405Y-123243150D01*
X44064402Y-123243150D01*
X44032419Y-123240000D01*
X41967581Y-123240000D01*
X41934014Y-123243306D01*
X41913256Y-123243306D01*
X41904091Y-123244269D01*
X41593771Y-123279077D01*
X41535298Y-123291506D01*
X41476581Y-123303132D01*
X41467778Y-123305858D01*
X41170130Y-123400277D01*
X41115147Y-123423843D01*
X41059841Y-123446638D01*
X41051735Y-123451021D01*
X40778095Y-123601456D01*
X40728748Y-123635245D01*
X40678913Y-123668355D01*
X40671812Y-123674229D01*
X40432603Y-123874951D01*
X40390759Y-123917681D01*
X40348305Y-123959839D01*
X40342481Y-123966980D01*
X40146814Y-124210340D01*
X40114055Y-124260400D01*
X40080609Y-124309986D01*
X40076283Y-124318123D01*
X39931612Y-124594854D01*
X39909215Y-124650289D01*
X39886022Y-124705461D01*
X39883359Y-124714283D01*
X39795193Y-125013844D01*
X39783993Y-125072560D01*
X39771955Y-125131202D01*
X39771056Y-125140373D01*
X39742755Y-125451353D01*
X10757088Y-125451353D01*
X10757245Y-125429012D01*
X10756345Y-125419841D01*
X10723704Y-125109285D01*
X10711680Y-125050709D01*
X10700468Y-124991930D01*
X10697804Y-124983108D01*
X10605465Y-124684808D01*
X10582280Y-124629653D01*
X10559876Y-124574200D01*
X10555549Y-124566064D01*
X10555549Y-124566063D01*
X10555546Y-124566059D01*
X10407028Y-124291379D01*
X10373583Y-124241795D01*
X10340823Y-124191732D01*
X10334999Y-124184591D01*
X10135954Y-123943987D01*
X10093535Y-123901863D01*
X10051655Y-123859097D01*
X10044554Y-123853223D01*
X9802565Y-123655862D01*
X9752741Y-123622759D01*
X9703385Y-123588964D01*
X9695279Y-123584581D01*
X9419566Y-123437981D01*
X9364269Y-123415189D01*
X9309275Y-123391619D01*
X9300472Y-123388895D01*
X9001535Y-123298641D01*
X8942862Y-123287024D01*
X8884345Y-123274585D01*
X8875180Y-123273622D01*
X8564405Y-123243150D01*
X8564402Y-123243150D01*
X8532419Y-123240000D01*
X6467581Y-123240000D01*
X6434014Y-123243306D01*
X6413256Y-123243306D01*
X6404091Y-123244269D01*
X6093771Y-123279077D01*
X6035298Y-123291506D01*
X5976581Y-123303132D01*
X5967778Y-123305858D01*
X5670130Y-123400277D01*
X5615147Y-123423843D01*
X5559841Y-123446638D01*
X5551735Y-123451021D01*
X5278095Y-123601456D01*
X5228748Y-123635245D01*
X5178913Y-123668355D01*
X5171812Y-123674229D01*
X4932603Y-123874951D01*
X4890759Y-123917681D01*
X4848305Y-123959839D01*
X4842481Y-123966980D01*
X4646814Y-124210340D01*
X4614055Y-124260400D01*
X4580609Y-124309986D01*
X4576283Y-124318123D01*
X4431612Y-124594854D01*
X4409215Y-124650289D01*
X4386022Y-124705461D01*
X4383359Y-124714283D01*
X4295193Y-125013844D01*
X4283993Y-125072560D01*
X4271955Y-125131202D01*
X4271056Y-125140373D01*
X4242755Y-125451353D01*
X660000Y-125451353D01*
X660000Y-72315784D01*
X5341332Y-72315784D01*
X5341332Y-73184216D01*
X5510754Y-74035961D01*
X5843089Y-74838288D01*
X6325564Y-75560362D01*
X6939638Y-76174436D01*
X7661712Y-76656911D01*
X8464039Y-76989246D01*
X9315784Y-77158668D01*
X10184216Y-77158668D01*
X11035961Y-76989246D01*
X11838288Y-76656911D01*
X12560362Y-76174436D01*
X13174436Y-75560362D01*
X13656911Y-74838288D01*
X13989246Y-74035961D01*
X14158668Y-73184216D01*
X14158668Y-72315784D01*
X21341332Y-72315784D01*
X21341332Y-73184216D01*
X21510754Y-74035961D01*
X21843089Y-74838288D01*
X22325564Y-75560362D01*
X22939638Y-76174436D01*
X23661712Y-76656911D01*
X24464039Y-76989246D01*
X25315784Y-77158668D01*
X26184216Y-77158668D01*
X27035961Y-76989246D01*
X27838288Y-76656911D01*
X28560362Y-76174436D01*
X29174436Y-75560362D01*
X29656911Y-74838288D01*
X29989246Y-74035961D01*
X30158668Y-73184216D01*
X30158668Y-72315784D01*
X37341332Y-72315784D01*
X37341332Y-73184216D01*
X37510754Y-74035961D01*
X37843089Y-74838288D01*
X38325564Y-75560362D01*
X38939638Y-76174436D01*
X39661712Y-76656911D01*
X40464039Y-76989246D01*
X41315784Y-77158668D01*
X42184216Y-77158668D01*
X43035961Y-76989246D01*
X43838288Y-76656911D01*
X44560362Y-76174436D01*
X45174436Y-75560362D01*
X45656911Y-74838288D01*
X45989246Y-74035961D01*
X46158668Y-73184216D01*
X46158668Y-72315784D01*
X45989246Y-71464039D01*
X45656911Y-70661712D01*
X45174436Y-69939638D01*
X44560362Y-69325564D01*
X43838288Y-68843089D01*
X43035961Y-68510754D01*
X42184216Y-68341332D01*
X41315784Y-68341332D01*
X40464039Y-68510754D01*
X39661712Y-68843089D01*
X38939638Y-69325564D01*
X38325564Y-69939638D01*
X37843089Y-70661712D01*
X37510754Y-71464039D01*
X37341332Y-72315784D01*
X30158668Y-72315784D01*
X29989246Y-71464039D01*
X29656911Y-70661712D01*
X29174436Y-69939638D01*
X28560362Y-69325564D01*
X27838288Y-68843089D01*
X27035961Y-68510754D01*
X26184216Y-68341332D01*
X25315784Y-68341332D01*
X24464039Y-68510754D01*
X23661712Y-68843089D01*
X22939638Y-69325564D01*
X22325564Y-69939638D01*
X21843089Y-70661712D01*
X21510754Y-71464039D01*
X21341332Y-72315784D01*
X14158668Y-72315784D01*
X13989246Y-71464039D01*
X13656911Y-70661712D01*
X13174436Y-69939638D01*
X12560362Y-69325564D01*
X11838288Y-68843089D01*
X11035961Y-68510754D01*
X10184216Y-68341332D01*
X9315784Y-68341332D01*
X8464039Y-68510754D01*
X7661712Y-68843089D01*
X6939638Y-69325564D01*
X6325564Y-69939638D01*
X5843089Y-70661712D01*
X5510754Y-71464039D01*
X5341332Y-72315784D01*
X660000Y-72315784D01*
X660000Y-55315784D01*
X5341332Y-55315784D01*
X5341332Y-56184216D01*
X5510754Y-57035961D01*
X5843089Y-57838288D01*
X6325564Y-58560362D01*
X6939638Y-59174436D01*
X7661712Y-59656911D01*
X8464039Y-59989246D01*
X9315784Y-60158668D01*
X10184216Y-60158668D01*
X11035961Y-59989246D01*
X11838288Y-59656911D01*
X12560362Y-59174436D01*
X13174436Y-58560362D01*
X13656911Y-57838288D01*
X13989246Y-57035961D01*
X14158668Y-56184216D01*
X14158668Y-55315784D01*
X21341332Y-55315784D01*
X21341332Y-56184216D01*
X21510754Y-57035961D01*
X21843089Y-57838288D01*
X22325564Y-58560362D01*
X22939638Y-59174436D01*
X23661712Y-59656911D01*
X24464039Y-59989246D01*
X25315784Y-60158668D01*
X26184216Y-60158668D01*
X27035961Y-59989246D01*
X27838288Y-59656911D01*
X28560362Y-59174436D01*
X29174436Y-58560362D01*
X29656911Y-57838288D01*
X29989246Y-57035961D01*
X30158668Y-56184216D01*
X30158668Y-55315784D01*
X37341332Y-55315784D01*
X37341332Y-56184216D01*
X37510754Y-57035961D01*
X37843089Y-57838288D01*
X38325564Y-58560362D01*
X38939638Y-59174436D01*
X39661712Y-59656911D01*
X40464039Y-59989246D01*
X41315784Y-60158668D01*
X42184216Y-60158668D01*
X43035961Y-59989246D01*
X43838288Y-59656911D01*
X44560362Y-59174436D01*
X45174436Y-58560362D01*
X45656911Y-57838288D01*
X45989246Y-57035961D01*
X46158668Y-56184216D01*
X46158668Y-55315784D01*
X45989246Y-54464039D01*
X45656911Y-53661712D01*
X45174436Y-52939638D01*
X44560362Y-52325564D01*
X43838288Y-51843089D01*
X43035961Y-51510754D01*
X42184216Y-51341332D01*
X41315784Y-51341332D01*
X40464039Y-51510754D01*
X39661712Y-51843089D01*
X38939638Y-52325564D01*
X38325564Y-52939638D01*
X37843089Y-53661712D01*
X37510754Y-54464039D01*
X37341332Y-55315784D01*
X30158668Y-55315784D01*
X29989246Y-54464039D01*
X29656911Y-53661712D01*
X29174436Y-52939638D01*
X28560362Y-52325564D01*
X27838288Y-51843089D01*
X27035961Y-51510754D01*
X26184216Y-51341332D01*
X25315784Y-51341332D01*
X24464039Y-51510754D01*
X23661712Y-51843089D01*
X22939638Y-52325564D01*
X22325564Y-52939638D01*
X21843089Y-53661712D01*
X21510754Y-54464039D01*
X21341332Y-55315784D01*
X14158668Y-55315784D01*
X13989246Y-54464039D01*
X13656911Y-53661712D01*
X13174436Y-52939638D01*
X12560362Y-52325564D01*
X11838288Y-51843089D01*
X11035961Y-51510754D01*
X10184216Y-51341332D01*
X9315784Y-51341332D01*
X8464039Y-51510754D01*
X7661712Y-51843089D01*
X6939638Y-52325564D01*
X6325564Y-52939638D01*
X5843089Y-53661712D01*
X5510754Y-54464039D01*
X5341332Y-55315784D01*
X660000Y-55315784D01*
X660000Y-38315784D01*
X5341332Y-38315784D01*
X5341332Y-39184216D01*
X5510754Y-40035961D01*
X5843089Y-40838288D01*
X6325564Y-41560362D01*
X6939638Y-42174436D01*
X7661712Y-42656911D01*
X8464039Y-42989246D01*
X9315784Y-43158668D01*
X10184216Y-43158668D01*
X11035961Y-42989246D01*
X11838288Y-42656911D01*
X12560362Y-42174436D01*
X13174436Y-41560362D01*
X13656911Y-40838288D01*
X13989246Y-40035961D01*
X14158668Y-39184216D01*
X14158668Y-38315784D01*
X37341332Y-38315784D01*
X37341332Y-39184216D01*
X37510754Y-40035961D01*
X37843089Y-40838288D01*
X38325564Y-41560362D01*
X38939638Y-42174436D01*
X39661712Y-42656911D01*
X40464039Y-42989246D01*
X41315784Y-43158668D01*
X42184216Y-43158668D01*
X43035961Y-42989246D01*
X43838288Y-42656911D01*
X44560362Y-42174436D01*
X45174436Y-41560362D01*
X45656911Y-40838288D01*
X45989246Y-40035961D01*
X46158668Y-39184216D01*
X46158668Y-38315784D01*
X45989246Y-37464039D01*
X45656911Y-36661712D01*
X45174436Y-35939638D01*
X44560362Y-35325564D01*
X43838288Y-34843089D01*
X43035961Y-34510754D01*
X42184216Y-34341332D01*
X41315784Y-34341332D01*
X40464039Y-34510754D01*
X39661712Y-34843089D01*
X38939638Y-35325564D01*
X38325564Y-35939638D01*
X37843089Y-36661712D01*
X37510754Y-37464039D01*
X37341332Y-38315784D01*
X14158668Y-38315784D01*
X13989246Y-37464039D01*
X13656911Y-36661712D01*
X13174436Y-35939638D01*
X12560362Y-35325564D01*
X11838288Y-34843089D01*
X11035961Y-34510754D01*
X10184216Y-34341332D01*
X9315784Y-34341332D01*
X8464039Y-34510754D01*
X7661712Y-34843089D01*
X6939638Y-35325564D01*
X6325564Y-35939638D01*
X5843089Y-36661712D01*
X5510754Y-37464039D01*
X5341332Y-38315784D01*
X660000Y-38315784D01*
X660000Y-21315784D01*
X5341332Y-21315784D01*
X5341332Y-22184216D01*
X5510754Y-23035961D01*
X5843089Y-23838288D01*
X6325564Y-24560362D01*
X6939638Y-25174436D01*
X7661712Y-25656911D01*
X8464039Y-25989246D01*
X9315784Y-26158668D01*
X10184216Y-26158668D01*
X11035961Y-25989246D01*
X11838288Y-25656911D01*
X12560362Y-25174436D01*
X13174436Y-24560362D01*
X13656911Y-23838288D01*
X13989246Y-23035961D01*
X14158668Y-22184216D01*
X14158668Y-21315784D01*
X21341332Y-21315784D01*
X21341332Y-22184216D01*
X21510754Y-23035961D01*
X21843089Y-23838288D01*
X22325564Y-24560362D01*
X22939638Y-25174436D01*
X23661712Y-25656911D01*
X24464039Y-25989246D01*
X25315784Y-26158668D01*
X26184216Y-26158668D01*
X27035961Y-25989246D01*
X27838288Y-25656911D01*
X28560362Y-25174436D01*
X29174436Y-24560362D01*
X29656911Y-23838288D01*
X29989246Y-23035961D01*
X30158668Y-22184216D01*
X30158668Y-21315784D01*
X37341332Y-21315784D01*
X37341332Y-22184216D01*
X37510754Y-23035961D01*
X37843089Y-23838288D01*
X38325564Y-24560362D01*
X38939638Y-25174436D01*
X39661712Y-25656911D01*
X40464039Y-25989246D01*
X41315784Y-26158668D01*
X42184216Y-26158668D01*
X43035961Y-25989246D01*
X43838288Y-25656911D01*
X44560362Y-25174436D01*
X45174436Y-24560362D01*
X45656911Y-23838288D01*
X45989246Y-23035961D01*
X46158668Y-22184216D01*
X46158668Y-21315784D01*
X45989246Y-20464039D01*
X45656911Y-19661712D01*
X45174436Y-18939638D01*
X44560362Y-18325564D01*
X43838288Y-17843089D01*
X43035961Y-17510754D01*
X42184216Y-17341332D01*
X41315784Y-17341332D01*
X40464039Y-17510754D01*
X39661712Y-17843089D01*
X38939638Y-18325564D01*
X38325564Y-18939638D01*
X37843089Y-19661712D01*
X37510754Y-20464039D01*
X37341332Y-21315784D01*
X30158668Y-21315784D01*
X29989246Y-20464039D01*
X29656911Y-19661712D01*
X29174436Y-18939638D01*
X28560362Y-18325564D01*
X27838288Y-17843089D01*
X27035961Y-17510754D01*
X26184216Y-17341332D01*
X25315784Y-17341332D01*
X24464039Y-17510754D01*
X23661712Y-17843089D01*
X22939638Y-18325564D01*
X22325564Y-18939638D01*
X21843089Y-19661712D01*
X21510754Y-20464039D01*
X21341332Y-21315784D01*
X14158668Y-21315784D01*
X13989246Y-20464039D01*
X13656911Y-19661712D01*
X13174436Y-18939638D01*
X12560362Y-18325564D01*
X11838288Y-17843089D01*
X11035961Y-17510754D01*
X10184216Y-17341332D01*
X9315784Y-17341332D01*
X8464039Y-17510754D01*
X7661712Y-17843089D01*
X6939638Y-18325564D01*
X6325564Y-18939638D01*
X5843089Y-19661712D01*
X5510754Y-20464039D01*
X5341332Y-21315784D01*
X660000Y-21315784D01*
X660000Y-2951353D01*
X4242755Y-2951353D01*
X4243173Y-3011171D01*
X4242755Y-3070988D01*
X4243655Y-3080160D01*
X4276296Y-3390715D01*
X4288320Y-3449291D01*
X4299532Y-3508070D01*
X4302196Y-3516892D01*
X4394535Y-3815192D01*
X4417715Y-3870335D01*
X4440124Y-3925800D01*
X4444451Y-3933937D01*
X4592972Y-4208621D01*
X4626417Y-4258205D01*
X4659177Y-4308268D01*
X4665001Y-4315409D01*
X4864047Y-4556013D01*
X4906482Y-4598154D01*
X4948346Y-4640903D01*
X4955446Y-4646777D01*
X5197435Y-4844138D01*
X5247259Y-4877241D01*
X5296615Y-4911036D01*
X5304721Y-4915419D01*
X5580435Y-5062019D01*
X5635704Y-5084799D01*
X5690724Y-5108381D01*
X5699527Y-5111105D01*
X5998465Y-5201359D01*
X6057138Y-5212976D01*
X6115655Y-5225415D01*
X6124820Y-5226378D01*
X6435594Y-5256850D01*
X6435598Y-5256850D01*
X6467581Y-5260000D01*
X8532419Y-5260000D01*
X8565986Y-5256694D01*
X8586744Y-5256694D01*
X8595909Y-5255731D01*
X8906228Y-5220923D01*
X8964731Y-5208487D01*
X9023419Y-5196867D01*
X9032222Y-5194142D01*
X9329870Y-5099723D01*
X9384792Y-5076183D01*
X9440159Y-5053363D01*
X9448265Y-5048979D01*
X9721904Y-4898544D01*
X9771217Y-4864779D01*
X9821088Y-4831645D01*
X9828188Y-4825770D01*
X10067397Y-4625049D01*
X10109241Y-4582320D01*
X10151694Y-4540162D01*
X10157519Y-4533020D01*
X10353185Y-4289660D01*
X10385938Y-4239608D01*
X10419391Y-4190013D01*
X10423714Y-4181881D01*
X10423717Y-4181877D01*
X10423719Y-4181873D01*
X10568388Y-3905146D01*
X10590785Y-3849711D01*
X10613978Y-3794539D01*
X10616641Y-3785717D01*
X10704807Y-3486156D01*
X10716007Y-3427440D01*
X10728045Y-3368798D01*
X10728944Y-3359627D01*
X10757245Y-3048647D01*
X10756827Y-2988830D01*
X10757088Y-2951353D01*
X39742755Y-2951353D01*
X39743173Y-3011171D01*
X39742755Y-3070988D01*
X39743655Y-3080160D01*
X39776296Y-3390715D01*
X39788320Y-3449291D01*
X39799532Y-3508070D01*
X39802196Y-3516892D01*
X39894535Y-3815192D01*
X39917715Y-3870335D01*
X39940124Y-3925800D01*
X39944451Y-3933937D01*
X40092972Y-4208621D01*
X40126417Y-4258205D01*
X40159177Y-4308268D01*
X40165001Y-4315409D01*
X40364047Y-4556013D01*
X40406482Y-4598154D01*
X40448346Y-4640903D01*
X40455446Y-4646777D01*
X40697435Y-4844138D01*
X40747259Y-4877241D01*
X40796615Y-4911036D01*
X40804721Y-4915419D01*
X41080435Y-5062019D01*
X41135704Y-5084799D01*
X41190724Y-5108381D01*
X41199527Y-5111105D01*
X41498465Y-5201359D01*
X41557138Y-5212976D01*
X41615655Y-5225415D01*
X41624820Y-5226378D01*
X41935594Y-5256850D01*
X41935598Y-5256850D01*
X41967581Y-5260000D01*
X44032419Y-5260000D01*
X44065986Y-5256694D01*
X44086744Y-5256694D01*
X44095909Y-5255731D01*
X44406228Y-5220923D01*
X44464731Y-5208487D01*
X44523419Y-5196867D01*
X44532222Y-5194142D01*
X44829870Y-5099723D01*
X44884792Y-5076183D01*
X44940159Y-5053363D01*
X44948265Y-5048979D01*
X45221904Y-4898544D01*
X45271217Y-4864779D01*
X45321088Y-4831645D01*
X45328188Y-4825770D01*
X45567397Y-4625049D01*
X45609241Y-4582320D01*
X45651694Y-4540162D01*
X45657519Y-4533020D01*
X45853185Y-4289660D01*
X45885938Y-4239608D01*
X45919391Y-4190013D01*
X45923714Y-4181881D01*
X45923717Y-4181877D01*
X45923719Y-4181873D01*
X46068388Y-3905146D01*
X46090785Y-3849711D01*
X46113978Y-3794539D01*
X46116641Y-3785717D01*
X46204807Y-3486156D01*
X46216007Y-3427440D01*
X46228045Y-3368798D01*
X46228944Y-3359627D01*
X46257245Y-3048647D01*
X46256827Y-2988829D01*
X46257245Y-2929012D01*
X46256345Y-2919841D01*
X46223704Y-2609285D01*
X46211680Y-2550709D01*
X46200468Y-2491930D01*
X46197804Y-2483108D01*
X46105465Y-2184808D01*
X46082280Y-2129653D01*
X46059876Y-2074200D01*
X46055549Y-2066064D01*
X46055549Y-2066063D01*
X46055546Y-2066059D01*
X45907028Y-1791379D01*
X45873583Y-1741795D01*
X45840823Y-1691732D01*
X45834999Y-1684591D01*
X45635954Y-1443987D01*
X45593535Y-1401863D01*
X45551655Y-1359097D01*
X45544554Y-1353223D01*
X45302565Y-1155862D01*
X45252741Y-1122759D01*
X45203385Y-1088964D01*
X45195279Y-1084581D01*
X44919566Y-937981D01*
X44864269Y-915189D01*
X44809275Y-891619D01*
X44800472Y-888895D01*
X44501535Y-798641D01*
X44442862Y-787024D01*
X44384345Y-774585D01*
X44375180Y-773622D01*
X44064405Y-743150D01*
X44064402Y-743150D01*
X44032419Y-740000D01*
X41967581Y-740000D01*
X41934014Y-743306D01*
X41913256Y-743306D01*
X41904091Y-744269D01*
X41593771Y-779077D01*
X41535298Y-791506D01*
X41476581Y-803132D01*
X41467778Y-805858D01*
X41170130Y-900277D01*
X41115147Y-923843D01*
X41059841Y-946638D01*
X41051735Y-951021D01*
X40778095Y-1101456D01*
X40728748Y-1135245D01*
X40678913Y-1168355D01*
X40671812Y-1174229D01*
X40432603Y-1374951D01*
X40390759Y-1417681D01*
X40348305Y-1459839D01*
X40342481Y-1466980D01*
X40146814Y-1710340D01*
X40114055Y-1760400D01*
X40080609Y-1809986D01*
X40076283Y-1818123D01*
X39931612Y-2094854D01*
X39909215Y-2150289D01*
X39886022Y-2205461D01*
X39883359Y-2214283D01*
X39795193Y-2513844D01*
X39783993Y-2572560D01*
X39771955Y-2631202D01*
X39771056Y-2640373D01*
X39742755Y-2951353D01*
X10757088Y-2951353D01*
X10757245Y-2929012D01*
X10756345Y-2919841D01*
X10723704Y-2609285D01*
X10711680Y-2550709D01*
X10700468Y-2491930D01*
X10697804Y-2483108D01*
X10605465Y-2184808D01*
X10582280Y-2129653D01*
X10559876Y-2074200D01*
X10555549Y-2066064D01*
X10555549Y-2066063D01*
X10555546Y-2066059D01*
X10407028Y-1791379D01*
X10373583Y-1741795D01*
X10340823Y-1691732D01*
X10334999Y-1684591D01*
X10135954Y-1443987D01*
X10093535Y-1401863D01*
X10051655Y-1359097D01*
X10044554Y-1353223D01*
X9802565Y-1155862D01*
X9752741Y-1122759D01*
X9703385Y-1088964D01*
X9695279Y-1084581D01*
X9419566Y-937981D01*
X9364269Y-915189D01*
X9309275Y-891619D01*
X9300472Y-888895D01*
X9001535Y-798641D01*
X8942862Y-787024D01*
X8884345Y-774585D01*
X8875180Y-773622D01*
X8564405Y-743150D01*
X8564402Y-743150D01*
X8532419Y-740000D01*
X6467581Y-740000D01*
X6434014Y-743306D01*
X6413256Y-743306D01*
X6404091Y-744269D01*
X6093771Y-779077D01*
X6035298Y-791506D01*
X5976581Y-803132D01*
X5967778Y-805858D01*
X5670130Y-900277D01*
X5615147Y-923843D01*
X5559841Y-946638D01*
X5551735Y-951021D01*
X5278095Y-1101456D01*
X5228748Y-1135245D01*
X5178913Y-1168355D01*
X5171812Y-1174229D01*
X4932603Y-1374951D01*
X4890759Y-1417681D01*
X4848305Y-1459839D01*
X4842481Y-1466980D01*
X4646814Y-1710340D01*
X4614055Y-1760400D01*
X4580609Y-1809986D01*
X4576283Y-1818123D01*
X4431612Y-2094854D01*
X4409215Y-2150289D01*
X4386022Y-2205461D01*
X4383359Y-2214283D01*
X4295193Y-2513844D01*
X4283993Y-2572560D01*
X4271955Y-2631202D01*
X4271056Y-2640373D01*
X4242755Y-2951353D01*
X660000Y-2951353D01*
X660000Y-660000D01*
X49840000Y-660000D01*
X49840001Y-127840000D01*
G37*
X49840001Y-127840000D02*
X660000Y-127840000D01*
X660000Y-125451353D01*
X4242755Y-125451353D01*
X4243173Y-125511171D01*
X4242755Y-125570988D01*
X4243655Y-125580160D01*
X4276296Y-125890715D01*
X4288320Y-125949291D01*
X4299532Y-126008070D01*
X4302196Y-126016892D01*
X4394535Y-126315192D01*
X4417715Y-126370335D01*
X4440124Y-126425800D01*
X4444451Y-126433937D01*
X4592972Y-126708621D01*
X4626417Y-126758205D01*
X4659177Y-126808268D01*
X4665001Y-126815409D01*
X4864047Y-127056013D01*
X4906482Y-127098154D01*
X4948346Y-127140903D01*
X4955446Y-127146777D01*
X5197435Y-127344138D01*
X5247259Y-127377241D01*
X5296615Y-127411036D01*
X5304721Y-127415419D01*
X5580435Y-127562019D01*
X5635704Y-127584799D01*
X5690724Y-127608381D01*
X5699527Y-127611105D01*
X5998465Y-127701359D01*
X6057138Y-127712976D01*
X6115655Y-127725415D01*
X6124820Y-127726378D01*
X6435594Y-127756850D01*
X6435598Y-127756850D01*
X6467581Y-127760000D01*
X8532419Y-127760000D01*
X8565986Y-127756694D01*
X8586744Y-127756694D01*
X8595909Y-127755731D01*
X8906228Y-127720923D01*
X8964731Y-127708487D01*
X9023419Y-127696867D01*
X9032222Y-127694142D01*
X9329870Y-127599723D01*
X9384792Y-127576183D01*
X9440159Y-127553363D01*
X9448265Y-127548979D01*
X9721904Y-127398544D01*
X9771217Y-127364779D01*
X9821088Y-127331645D01*
X9828188Y-127325770D01*
X10067397Y-127125049D01*
X10109241Y-127082320D01*
X10151694Y-127040162D01*
X10157519Y-127033020D01*
X10353185Y-126789660D01*
X10385938Y-126739608D01*
X10419391Y-126690013D01*
X10423714Y-126681881D01*
X10423717Y-126681877D01*
X10423719Y-126681873D01*
X10568388Y-126405146D01*
X10590785Y-126349711D01*
X10613978Y-126294539D01*
X10616641Y-126285717D01*
X10704807Y-125986156D01*
X10716007Y-125927440D01*
X10728045Y-125868798D01*
X10728944Y-125859627D01*
X10757245Y-125548647D01*
X10756827Y-125488830D01*
X10757088Y-125451353D01*
X39742755Y-125451353D01*
X39743173Y-125511171D01*
X39742755Y-125570988D01*
X39743655Y-125580160D01*
X39776296Y-125890715D01*
X39788320Y-125949291D01*
X39799532Y-126008070D01*
X39802196Y-126016892D01*
X39894535Y-126315192D01*
X39917715Y-126370335D01*
X39940124Y-126425800D01*
X39944451Y-126433937D01*
X40092972Y-126708621D01*
X40126417Y-126758205D01*
X40159177Y-126808268D01*
X40165001Y-126815409D01*
X40364047Y-127056013D01*
X40406482Y-127098154D01*
X40448346Y-127140903D01*
X40455446Y-127146777D01*
X40697435Y-127344138D01*
X40747259Y-127377241D01*
X40796615Y-127411036D01*
X40804721Y-127415419D01*
X41080435Y-127562019D01*
X41135704Y-127584799D01*
X41190724Y-127608381D01*
X41199527Y-127611105D01*
X41498465Y-127701359D01*
X41557138Y-127712976D01*
X41615655Y-127725415D01*
X41624820Y-127726378D01*
X41935594Y-127756850D01*
X41935598Y-127756850D01*
X41967581Y-127760000D01*
X44032419Y-127760000D01*
X44065986Y-127756694D01*
X44086744Y-127756694D01*
X44095909Y-127755731D01*
X44406228Y-127720923D01*
X44464731Y-127708487D01*
X44523419Y-127696867D01*
X44532222Y-127694142D01*
X44829870Y-127599723D01*
X44884792Y-127576183D01*
X44940159Y-127553363D01*
X44948265Y-127548979D01*
X45221904Y-127398544D01*
X45271217Y-127364779D01*
X45321088Y-127331645D01*
X45328188Y-127325770D01*
X45567397Y-127125049D01*
X45609241Y-127082320D01*
X45651694Y-127040162D01*
X45657519Y-127033020D01*
X45853185Y-126789660D01*
X45885938Y-126739608D01*
X45919391Y-126690013D01*
X45923714Y-126681881D01*
X45923717Y-126681877D01*
X45923719Y-126681873D01*
X46068388Y-126405146D01*
X46090785Y-126349711D01*
X46113978Y-126294539D01*
X46116641Y-126285717D01*
X46204807Y-125986156D01*
X46216007Y-125927440D01*
X46228045Y-125868798D01*
X46228944Y-125859627D01*
X46257245Y-125548647D01*
X46256827Y-125488829D01*
X46257245Y-125429012D01*
X46256345Y-125419841D01*
X46223704Y-125109285D01*
X46211680Y-125050709D01*
X46200468Y-124991930D01*
X46197804Y-124983108D01*
X46105465Y-124684808D01*
X46082280Y-124629653D01*
X46059876Y-124574200D01*
X46055549Y-124566064D01*
X46055549Y-124566063D01*
X46055546Y-124566059D01*
X45907028Y-124291379D01*
X45873583Y-124241795D01*
X45840823Y-124191732D01*
X45834999Y-124184591D01*
X45635954Y-123943987D01*
X45593535Y-123901863D01*
X45551655Y-123859097D01*
X45544554Y-123853223D01*
X45302565Y-123655862D01*
X45252741Y-123622759D01*
X45203385Y-123588964D01*
X45195279Y-123584581D01*
X44919566Y-123437981D01*
X44864269Y-123415189D01*
X44809275Y-123391619D01*
X44800472Y-123388895D01*
X44501535Y-123298641D01*
X44442862Y-123287024D01*
X44384345Y-123274585D01*
X44375180Y-123273622D01*
X44064405Y-123243150D01*
X44064402Y-123243150D01*
X44032419Y-123240000D01*
X41967581Y-123240000D01*
X41934014Y-123243306D01*
X41913256Y-123243306D01*
X41904091Y-123244269D01*
X41593771Y-123279077D01*
X41535298Y-123291506D01*
X41476581Y-123303132D01*
X41467778Y-123305858D01*
X41170130Y-123400277D01*
X41115147Y-123423843D01*
X41059841Y-123446638D01*
X41051735Y-123451021D01*
X40778095Y-123601456D01*
X40728748Y-123635245D01*
X40678913Y-123668355D01*
X40671812Y-123674229D01*
X40432603Y-123874951D01*
X40390759Y-123917681D01*
X40348305Y-123959839D01*
X40342481Y-123966980D01*
X40146814Y-124210340D01*
X40114055Y-124260400D01*
X40080609Y-124309986D01*
X40076283Y-124318123D01*
X39931612Y-124594854D01*
X39909215Y-124650289D01*
X39886022Y-124705461D01*
X39883359Y-124714283D01*
X39795193Y-125013844D01*
X39783993Y-125072560D01*
X39771955Y-125131202D01*
X39771056Y-125140373D01*
X39742755Y-125451353D01*
X10757088Y-125451353D01*
X10757245Y-125429012D01*
X10756345Y-125419841D01*
X10723704Y-125109285D01*
X10711680Y-125050709D01*
X10700468Y-124991930D01*
X10697804Y-124983108D01*
X10605465Y-124684808D01*
X10582280Y-124629653D01*
X10559876Y-124574200D01*
X10555549Y-124566064D01*
X10555549Y-124566063D01*
X10555546Y-124566059D01*
X10407028Y-124291379D01*
X10373583Y-124241795D01*
X10340823Y-124191732D01*
X10334999Y-124184591D01*
X10135954Y-123943987D01*
X10093535Y-123901863D01*
X10051655Y-123859097D01*
X10044554Y-123853223D01*
X9802565Y-123655862D01*
X9752741Y-123622759D01*
X9703385Y-123588964D01*
X9695279Y-123584581D01*
X9419566Y-123437981D01*
X9364269Y-123415189D01*
X9309275Y-123391619D01*
X9300472Y-123388895D01*
X9001535Y-123298641D01*
X8942862Y-123287024D01*
X8884345Y-123274585D01*
X8875180Y-123273622D01*
X8564405Y-123243150D01*
X8564402Y-123243150D01*
X8532419Y-123240000D01*
X6467581Y-123240000D01*
X6434014Y-123243306D01*
X6413256Y-123243306D01*
X6404091Y-123244269D01*
X6093771Y-123279077D01*
X6035298Y-123291506D01*
X5976581Y-123303132D01*
X5967778Y-123305858D01*
X5670130Y-123400277D01*
X5615147Y-123423843D01*
X5559841Y-123446638D01*
X5551735Y-123451021D01*
X5278095Y-123601456D01*
X5228748Y-123635245D01*
X5178913Y-123668355D01*
X5171812Y-123674229D01*
X4932603Y-123874951D01*
X4890759Y-123917681D01*
X4848305Y-123959839D01*
X4842481Y-123966980D01*
X4646814Y-124210340D01*
X4614055Y-124260400D01*
X4580609Y-124309986D01*
X4576283Y-124318123D01*
X4431612Y-124594854D01*
X4409215Y-124650289D01*
X4386022Y-124705461D01*
X4383359Y-124714283D01*
X4295193Y-125013844D01*
X4283993Y-125072560D01*
X4271955Y-125131202D01*
X4271056Y-125140373D01*
X4242755Y-125451353D01*
X660000Y-125451353D01*
X660000Y-72315784D01*
X5341332Y-72315784D01*
X5341332Y-73184216D01*
X5510754Y-74035961D01*
X5843089Y-74838288D01*
X6325564Y-75560362D01*
X6939638Y-76174436D01*
X7661712Y-76656911D01*
X8464039Y-76989246D01*
X9315784Y-77158668D01*
X10184216Y-77158668D01*
X11035961Y-76989246D01*
X11838288Y-76656911D01*
X12560362Y-76174436D01*
X13174436Y-75560362D01*
X13656911Y-74838288D01*
X13989246Y-74035961D01*
X14158668Y-73184216D01*
X14158668Y-72315784D01*
X21341332Y-72315784D01*
X21341332Y-73184216D01*
X21510754Y-74035961D01*
X21843089Y-74838288D01*
X22325564Y-75560362D01*
X22939638Y-76174436D01*
X23661712Y-76656911D01*
X24464039Y-76989246D01*
X25315784Y-77158668D01*
X26184216Y-77158668D01*
X27035961Y-76989246D01*
X27838288Y-76656911D01*
X28560362Y-76174436D01*
X29174436Y-75560362D01*
X29656911Y-74838288D01*
X29989246Y-74035961D01*
X30158668Y-73184216D01*
X30158668Y-72315784D01*
X37341332Y-72315784D01*
X37341332Y-73184216D01*
X37510754Y-74035961D01*
X37843089Y-74838288D01*
X38325564Y-75560362D01*
X38939638Y-76174436D01*
X39661712Y-76656911D01*
X40464039Y-76989246D01*
X41315784Y-77158668D01*
X42184216Y-77158668D01*
X43035961Y-76989246D01*
X43838288Y-76656911D01*
X44560362Y-76174436D01*
X45174436Y-75560362D01*
X45656911Y-74838288D01*
X45989246Y-74035961D01*
X46158668Y-73184216D01*
X46158668Y-72315784D01*
X45989246Y-71464039D01*
X45656911Y-70661712D01*
X45174436Y-69939638D01*
X44560362Y-69325564D01*
X43838288Y-68843089D01*
X43035961Y-68510754D01*
X42184216Y-68341332D01*
X41315784Y-68341332D01*
X40464039Y-68510754D01*
X39661712Y-68843089D01*
X38939638Y-69325564D01*
X38325564Y-69939638D01*
X37843089Y-70661712D01*
X37510754Y-71464039D01*
X37341332Y-72315784D01*
X30158668Y-72315784D01*
X29989246Y-71464039D01*
X29656911Y-70661712D01*
X29174436Y-69939638D01*
X28560362Y-69325564D01*
X27838288Y-68843089D01*
X27035961Y-68510754D01*
X26184216Y-68341332D01*
X25315784Y-68341332D01*
X24464039Y-68510754D01*
X23661712Y-68843089D01*
X22939638Y-69325564D01*
X22325564Y-69939638D01*
X21843089Y-70661712D01*
X21510754Y-71464039D01*
X21341332Y-72315784D01*
X14158668Y-72315784D01*
X13989246Y-71464039D01*
X13656911Y-70661712D01*
X13174436Y-69939638D01*
X12560362Y-69325564D01*
X11838288Y-68843089D01*
X11035961Y-68510754D01*
X10184216Y-68341332D01*
X9315784Y-68341332D01*
X8464039Y-68510754D01*
X7661712Y-68843089D01*
X6939638Y-69325564D01*
X6325564Y-69939638D01*
X5843089Y-70661712D01*
X5510754Y-71464039D01*
X5341332Y-72315784D01*
X660000Y-72315784D01*
X660000Y-55315784D01*
X5341332Y-55315784D01*
X5341332Y-56184216D01*
X5510754Y-57035961D01*
X5843089Y-57838288D01*
X6325564Y-58560362D01*
X6939638Y-59174436D01*
X7661712Y-59656911D01*
X8464039Y-59989246D01*
X9315784Y-60158668D01*
X10184216Y-60158668D01*
X11035961Y-59989246D01*
X11838288Y-59656911D01*
X12560362Y-59174436D01*
X13174436Y-58560362D01*
X13656911Y-57838288D01*
X13989246Y-57035961D01*
X14158668Y-56184216D01*
X14158668Y-55315784D01*
X21341332Y-55315784D01*
X21341332Y-56184216D01*
X21510754Y-57035961D01*
X21843089Y-57838288D01*
X22325564Y-58560362D01*
X22939638Y-59174436D01*
X23661712Y-59656911D01*
X24464039Y-59989246D01*
X25315784Y-60158668D01*
X26184216Y-60158668D01*
X27035961Y-59989246D01*
X27838288Y-59656911D01*
X28560362Y-59174436D01*
X29174436Y-58560362D01*
X29656911Y-57838288D01*
X29989246Y-57035961D01*
X30158668Y-56184216D01*
X30158668Y-55315784D01*
X37341332Y-55315784D01*
X37341332Y-56184216D01*
X37510754Y-57035961D01*
X37843089Y-57838288D01*
X38325564Y-58560362D01*
X38939638Y-59174436D01*
X39661712Y-59656911D01*
X40464039Y-59989246D01*
X41315784Y-60158668D01*
X42184216Y-60158668D01*
X43035961Y-59989246D01*
X43838288Y-59656911D01*
X44560362Y-59174436D01*
X45174436Y-58560362D01*
X45656911Y-57838288D01*
X45989246Y-57035961D01*
X46158668Y-56184216D01*
X46158668Y-55315784D01*
X45989246Y-54464039D01*
X45656911Y-53661712D01*
X45174436Y-52939638D01*
X44560362Y-52325564D01*
X43838288Y-51843089D01*
X43035961Y-51510754D01*
X42184216Y-51341332D01*
X41315784Y-51341332D01*
X40464039Y-51510754D01*
X39661712Y-51843089D01*
X38939638Y-52325564D01*
X38325564Y-52939638D01*
X37843089Y-53661712D01*
X37510754Y-54464039D01*
X37341332Y-55315784D01*
X30158668Y-55315784D01*
X29989246Y-54464039D01*
X29656911Y-53661712D01*
X29174436Y-52939638D01*
X28560362Y-52325564D01*
X27838288Y-51843089D01*
X27035961Y-51510754D01*
X26184216Y-51341332D01*
X25315784Y-51341332D01*
X24464039Y-51510754D01*
X23661712Y-51843089D01*
X22939638Y-52325564D01*
X22325564Y-52939638D01*
X21843089Y-53661712D01*
X21510754Y-54464039D01*
X21341332Y-55315784D01*
X14158668Y-55315784D01*
X13989246Y-54464039D01*
X13656911Y-53661712D01*
X13174436Y-52939638D01*
X12560362Y-52325564D01*
X11838288Y-51843089D01*
X11035961Y-51510754D01*
X10184216Y-51341332D01*
X9315784Y-51341332D01*
X8464039Y-51510754D01*
X7661712Y-51843089D01*
X6939638Y-52325564D01*
X6325564Y-52939638D01*
X5843089Y-53661712D01*
X5510754Y-54464039D01*
X5341332Y-55315784D01*
X660000Y-55315784D01*
X660000Y-38315784D01*
X5341332Y-38315784D01*
X5341332Y-39184216D01*
X5510754Y-40035961D01*
X5843089Y-40838288D01*
X6325564Y-41560362D01*
X6939638Y-42174436D01*
X7661712Y-42656911D01*
X8464039Y-42989246D01*
X9315784Y-43158668D01*
X10184216Y-43158668D01*
X11035961Y-42989246D01*
X11838288Y-42656911D01*
X12560362Y-42174436D01*
X13174436Y-41560362D01*
X13656911Y-40838288D01*
X13989246Y-40035961D01*
X14158668Y-39184216D01*
X14158668Y-38315784D01*
X37341332Y-38315784D01*
X37341332Y-39184216D01*
X37510754Y-40035961D01*
X37843089Y-40838288D01*
X38325564Y-41560362D01*
X38939638Y-42174436D01*
X39661712Y-42656911D01*
X40464039Y-42989246D01*
X41315784Y-43158668D01*
X42184216Y-43158668D01*
X43035961Y-42989246D01*
X43838288Y-42656911D01*
X44560362Y-42174436D01*
X45174436Y-41560362D01*
X45656911Y-40838288D01*
X45989246Y-40035961D01*
X46158668Y-39184216D01*
X46158668Y-38315784D01*
X45989246Y-37464039D01*
X45656911Y-36661712D01*
X45174436Y-35939638D01*
X44560362Y-35325564D01*
X43838288Y-34843089D01*
X43035961Y-34510754D01*
X42184216Y-34341332D01*
X41315784Y-34341332D01*
X40464039Y-34510754D01*
X39661712Y-34843089D01*
X38939638Y-35325564D01*
X38325564Y-35939638D01*
X37843089Y-36661712D01*
X37510754Y-37464039D01*
X37341332Y-38315784D01*
X14158668Y-38315784D01*
X13989246Y-37464039D01*
X13656911Y-36661712D01*
X13174436Y-35939638D01*
X12560362Y-35325564D01*
X11838288Y-34843089D01*
X11035961Y-34510754D01*
X10184216Y-34341332D01*
X9315784Y-34341332D01*
X8464039Y-34510754D01*
X7661712Y-34843089D01*
X6939638Y-35325564D01*
X6325564Y-35939638D01*
X5843089Y-36661712D01*
X5510754Y-37464039D01*
X5341332Y-38315784D01*
X660000Y-38315784D01*
X660000Y-21315784D01*
X5341332Y-21315784D01*
X5341332Y-22184216D01*
X5510754Y-23035961D01*
X5843089Y-23838288D01*
X6325564Y-24560362D01*
X6939638Y-25174436D01*
X7661712Y-25656911D01*
X8464039Y-25989246D01*
X9315784Y-26158668D01*
X10184216Y-26158668D01*
X11035961Y-25989246D01*
X11838288Y-25656911D01*
X12560362Y-25174436D01*
X13174436Y-24560362D01*
X13656911Y-23838288D01*
X13989246Y-23035961D01*
X14158668Y-22184216D01*
X14158668Y-21315784D01*
X21341332Y-21315784D01*
X21341332Y-22184216D01*
X21510754Y-23035961D01*
X21843089Y-23838288D01*
X22325564Y-24560362D01*
X22939638Y-25174436D01*
X23661712Y-25656911D01*
X24464039Y-25989246D01*
X25315784Y-26158668D01*
X26184216Y-26158668D01*
X27035961Y-25989246D01*
X27838288Y-25656911D01*
X28560362Y-25174436D01*
X29174436Y-24560362D01*
X29656911Y-23838288D01*
X29989246Y-23035961D01*
X30158668Y-22184216D01*
X30158668Y-21315784D01*
X37341332Y-21315784D01*
X37341332Y-22184216D01*
X37510754Y-23035961D01*
X37843089Y-23838288D01*
X38325564Y-24560362D01*
X38939638Y-25174436D01*
X39661712Y-25656911D01*
X40464039Y-25989246D01*
X41315784Y-26158668D01*
X42184216Y-26158668D01*
X43035961Y-25989246D01*
X43838288Y-25656911D01*
X44560362Y-25174436D01*
X45174436Y-24560362D01*
X45656911Y-23838288D01*
X45989246Y-23035961D01*
X46158668Y-22184216D01*
X46158668Y-21315784D01*
X45989246Y-20464039D01*
X45656911Y-19661712D01*
X45174436Y-18939638D01*
X44560362Y-18325564D01*
X43838288Y-17843089D01*
X43035961Y-17510754D01*
X42184216Y-17341332D01*
X41315784Y-17341332D01*
X40464039Y-17510754D01*
X39661712Y-17843089D01*
X38939638Y-18325564D01*
X38325564Y-18939638D01*
X37843089Y-19661712D01*
X37510754Y-20464039D01*
X37341332Y-21315784D01*
X30158668Y-21315784D01*
X29989246Y-20464039D01*
X29656911Y-19661712D01*
X29174436Y-18939638D01*
X28560362Y-18325564D01*
X27838288Y-17843089D01*
X27035961Y-17510754D01*
X26184216Y-17341332D01*
X25315784Y-17341332D01*
X24464039Y-17510754D01*
X23661712Y-17843089D01*
X22939638Y-18325564D01*
X22325564Y-18939638D01*
X21843089Y-19661712D01*
X21510754Y-20464039D01*
X21341332Y-21315784D01*
X14158668Y-21315784D01*
X13989246Y-20464039D01*
X13656911Y-19661712D01*
X13174436Y-18939638D01*
X12560362Y-18325564D01*
X11838288Y-17843089D01*
X11035961Y-17510754D01*
X10184216Y-17341332D01*
X9315784Y-17341332D01*
X8464039Y-17510754D01*
X7661712Y-17843089D01*
X6939638Y-18325564D01*
X6325564Y-18939638D01*
X5843089Y-19661712D01*
X5510754Y-20464039D01*
X5341332Y-21315784D01*
X660000Y-21315784D01*
X660000Y-2951353D01*
X4242755Y-2951353D01*
X4243173Y-3011171D01*
X4242755Y-3070988D01*
X4243655Y-3080160D01*
X4276296Y-3390715D01*
X4288320Y-3449291D01*
X4299532Y-3508070D01*
X4302196Y-3516892D01*
X4394535Y-3815192D01*
X4417715Y-3870335D01*
X4440124Y-3925800D01*
X4444451Y-3933937D01*
X4592972Y-4208621D01*
X4626417Y-4258205D01*
X4659177Y-4308268D01*
X4665001Y-4315409D01*
X4864047Y-4556013D01*
X4906482Y-4598154D01*
X4948346Y-4640903D01*
X4955446Y-4646777D01*
X5197435Y-4844138D01*
X5247259Y-4877241D01*
X5296615Y-4911036D01*
X5304721Y-4915419D01*
X5580435Y-5062019D01*
X5635704Y-5084799D01*
X5690724Y-5108381D01*
X5699527Y-5111105D01*
X5998465Y-5201359D01*
X6057138Y-5212976D01*
X6115655Y-5225415D01*
X6124820Y-5226378D01*
X6435594Y-5256850D01*
X6435598Y-5256850D01*
X6467581Y-5260000D01*
X8532419Y-5260000D01*
X8565986Y-5256694D01*
X8586744Y-5256694D01*
X8595909Y-5255731D01*
X8906228Y-5220923D01*
X8964731Y-5208487D01*
X9023419Y-5196867D01*
X9032222Y-5194142D01*
X9329870Y-5099723D01*
X9384792Y-5076183D01*
X9440159Y-5053363D01*
X9448265Y-5048979D01*
X9721904Y-4898544D01*
X9771217Y-4864779D01*
X9821088Y-4831645D01*
X9828188Y-4825770D01*
X10067397Y-4625049D01*
X10109241Y-4582320D01*
X10151694Y-4540162D01*
X10157519Y-4533020D01*
X10353185Y-4289660D01*
X10385938Y-4239608D01*
X10419391Y-4190013D01*
X10423714Y-4181881D01*
X10423717Y-4181877D01*
X10423719Y-4181873D01*
X10568388Y-3905146D01*
X10590785Y-3849711D01*
X10613978Y-3794539D01*
X10616641Y-3785717D01*
X10704807Y-3486156D01*
X10716007Y-3427440D01*
X10728045Y-3368798D01*
X10728944Y-3359627D01*
X10757245Y-3048647D01*
X10756827Y-2988830D01*
X10757088Y-2951353D01*
X39742755Y-2951353D01*
X39743173Y-3011171D01*
X39742755Y-3070988D01*
X39743655Y-3080160D01*
X39776296Y-3390715D01*
X39788320Y-3449291D01*
X39799532Y-3508070D01*
X39802196Y-3516892D01*
X39894535Y-3815192D01*
X39917715Y-3870335D01*
X39940124Y-3925800D01*
X39944451Y-3933937D01*
X40092972Y-4208621D01*
X40126417Y-4258205D01*
X40159177Y-4308268D01*
X40165001Y-4315409D01*
X40364047Y-4556013D01*
X40406482Y-4598154D01*
X40448346Y-4640903D01*
X40455446Y-4646777D01*
X40697435Y-4844138D01*
X40747259Y-4877241D01*
X40796615Y-4911036D01*
X40804721Y-4915419D01*
X41080435Y-5062019D01*
X41135704Y-5084799D01*
X41190724Y-5108381D01*
X41199527Y-5111105D01*
X41498465Y-5201359D01*
X41557138Y-5212976D01*
X41615655Y-5225415D01*
X41624820Y-5226378D01*
X41935594Y-5256850D01*
X41935598Y-5256850D01*
X41967581Y-5260000D01*
X44032419Y-5260000D01*
X44065986Y-5256694D01*
X44086744Y-5256694D01*
X44095909Y-5255731D01*
X44406228Y-5220923D01*
X44464731Y-5208487D01*
X44523419Y-5196867D01*
X44532222Y-5194142D01*
X44829870Y-5099723D01*
X44884792Y-5076183D01*
X44940159Y-5053363D01*
X44948265Y-5048979D01*
X45221904Y-4898544D01*
X45271217Y-4864779D01*
X45321088Y-4831645D01*
X45328188Y-4825770D01*
X45567397Y-4625049D01*
X45609241Y-4582320D01*
X45651694Y-4540162D01*
X45657519Y-4533020D01*
X45853185Y-4289660D01*
X45885938Y-4239608D01*
X45919391Y-4190013D01*
X45923714Y-4181881D01*
X45923717Y-4181877D01*
X45923719Y-4181873D01*
X46068388Y-3905146D01*
X46090785Y-3849711D01*
X46113978Y-3794539D01*
X46116641Y-3785717D01*
X46204807Y-3486156D01*
X46216007Y-3427440D01*
X46228045Y-3368798D01*
X46228944Y-3359627D01*
X46257245Y-3048647D01*
X46256827Y-2988829D01*
X46257245Y-2929012D01*
X46256345Y-2919841D01*
X46223704Y-2609285D01*
X46211680Y-2550709D01*
X46200468Y-2491930D01*
X46197804Y-2483108D01*
X46105465Y-2184808D01*
X46082280Y-2129653D01*
X46059876Y-2074200D01*
X46055549Y-2066064D01*
X46055549Y-2066063D01*
X46055546Y-2066059D01*
X45907028Y-1791379D01*
X45873583Y-1741795D01*
X45840823Y-1691732D01*
X45834999Y-1684591D01*
X45635954Y-1443987D01*
X45593535Y-1401863D01*
X45551655Y-1359097D01*
X45544554Y-1353223D01*
X45302565Y-1155862D01*
X45252741Y-1122759D01*
X45203385Y-1088964D01*
X45195279Y-1084581D01*
X44919566Y-937981D01*
X44864269Y-915189D01*
X44809275Y-891619D01*
X44800472Y-888895D01*
X44501535Y-798641D01*
X44442862Y-787024D01*
X44384345Y-774585D01*
X44375180Y-773622D01*
X44064405Y-743150D01*
X44064402Y-743150D01*
X44032419Y-740000D01*
X41967581Y-740000D01*
X41934014Y-743306D01*
X41913256Y-743306D01*
X41904091Y-744269D01*
X41593771Y-779077D01*
X41535298Y-791506D01*
X41476581Y-803132D01*
X41467778Y-805858D01*
X41170130Y-900277D01*
X41115147Y-923843D01*
X41059841Y-946638D01*
X41051735Y-951021D01*
X40778095Y-1101456D01*
X40728748Y-1135245D01*
X40678913Y-1168355D01*
X40671812Y-1174229D01*
X40432603Y-1374951D01*
X40390759Y-1417681D01*
X40348305Y-1459839D01*
X40342481Y-1466980D01*
X40146814Y-1710340D01*
X40114055Y-1760400D01*
X40080609Y-1809986D01*
X40076283Y-1818123D01*
X39931612Y-2094854D01*
X39909215Y-2150289D01*
X39886022Y-2205461D01*
X39883359Y-2214283D01*
X39795193Y-2513844D01*
X39783993Y-2572560D01*
X39771955Y-2631202D01*
X39771056Y-2640373D01*
X39742755Y-2951353D01*
X10757088Y-2951353D01*
X10757245Y-2929012D01*
X10756345Y-2919841D01*
X10723704Y-2609285D01*
X10711680Y-2550709D01*
X10700468Y-2491930D01*
X10697804Y-2483108D01*
X10605465Y-2184808D01*
X10582280Y-2129653D01*
X10559876Y-2074200D01*
X10555549Y-2066064D01*
X10555549Y-2066063D01*
X10555546Y-2066059D01*
X10407028Y-1791379D01*
X10373583Y-1741795D01*
X10340823Y-1691732D01*
X10334999Y-1684591D01*
X10135954Y-1443987D01*
X10093535Y-1401863D01*
X10051655Y-1359097D01*
X10044554Y-1353223D01*
X9802565Y-1155862D01*
X9752741Y-1122759D01*
X9703385Y-1088964D01*
X9695279Y-1084581D01*
X9419566Y-937981D01*
X9364269Y-915189D01*
X9309275Y-891619D01*
X9300472Y-888895D01*
X9001535Y-798641D01*
X8942862Y-787024D01*
X8884345Y-774585D01*
X8875180Y-773622D01*
X8564405Y-743150D01*
X8564402Y-743150D01*
X8532419Y-740000D01*
X6467581Y-740000D01*
X6434014Y-743306D01*
X6413256Y-743306D01*
X6404091Y-744269D01*
X6093771Y-779077D01*
X6035298Y-791506D01*
X5976581Y-803132D01*
X5967778Y-805858D01*
X5670130Y-900277D01*
X5615147Y-923843D01*
X5559841Y-946638D01*
X5551735Y-951021D01*
X5278095Y-1101456D01*
X5228748Y-1135245D01*
X5178913Y-1168355D01*
X5171812Y-1174229D01*
X4932603Y-1374951D01*
X4890759Y-1417681D01*
X4848305Y-1459839D01*
X4842481Y-1466980D01*
X4646814Y-1710340D01*
X4614055Y-1760400D01*
X4580609Y-1809986D01*
X4576283Y-1818123D01*
X4431612Y-2094854D01*
X4409215Y-2150289D01*
X4386022Y-2205461D01*
X4383359Y-2214283D01*
X4295193Y-2513844D01*
X4283993Y-2572560D01*
X4271955Y-2631202D01*
X4271056Y-2640373D01*
X4242755Y-2951353D01*
X660000Y-2951353D01*
X660000Y-660000D01*
X49840000Y-660000D01*
X49840001Y-127840000D01*
M02*
