G04 #@! TF.GenerationSoftware,KiCad,Pcbnew,(5.1.5-0)*
G04 #@! TF.CreationDate,2021-01-20T20:41:00-08:00*
G04 #@! TF.ProjectId,arseq,61727365-712e-46b6-9963-61645f706362,rev?*
G04 #@! TF.SameCoordinates,Original*
G04 #@! TF.FileFunction,Soldermask,Bot*
G04 #@! TF.FilePolarity,Negative*
%FSLAX46Y46*%
G04 Gerber Fmt 4.6, Leading zero omitted, Abs format (unit mm)*
G04 Created by KiCad (PCBNEW (5.1.5-0)) date 2021-01-20 20:41:00*
%MOMM*%
%LPD*%
G04 APERTURE LIST*
%ADD10C,1.000000*%
%ADD11C,0.150000*%
%ADD12C,0.100000*%
G04 APERTURE END LIST*
D10*
X46250000Y-104750000D02*
G75*
G03X46250000Y-104750000I-3500000J0D01*
G01*
X10250000Y-88750000D02*
G75*
G03X10250000Y-88750000I-3500000J0D01*
G01*
X46250000Y-88750000D02*
G75*
G03X46250000Y-88750000I-3500000J0D01*
G01*
D11*
X22726190Y-121452380D02*
X22726190Y-120785714D01*
X22726190Y-120976190D02*
X22678571Y-120880952D01*
X22630952Y-120833333D01*
X22535714Y-120785714D01*
X22440476Y-120785714D01*
X21726190Y-121404761D02*
X21821428Y-121452380D01*
X22011904Y-121452380D01*
X22107142Y-121404761D01*
X22154761Y-121309523D01*
X22154761Y-120928571D01*
X22107142Y-120833333D01*
X22011904Y-120785714D01*
X21821428Y-120785714D01*
X21726190Y-120833333D01*
X21678571Y-120928571D01*
X21678571Y-121023809D01*
X22154761Y-121119047D01*
X21250000Y-120785714D02*
X21250000Y-121785714D01*
X21250000Y-120833333D02*
X21154761Y-120785714D01*
X20964285Y-120785714D01*
X20869047Y-120833333D01*
X20821428Y-120880952D01*
X20773809Y-120976190D01*
X20773809Y-121261904D01*
X20821428Y-121357142D01*
X20869047Y-121404761D01*
X20964285Y-121452380D01*
X21154761Y-121452380D01*
X21250000Y-121404761D01*
X19916666Y-121452380D02*
X19916666Y-120928571D01*
X19964285Y-120833333D01*
X20059523Y-120785714D01*
X20250000Y-120785714D01*
X20345238Y-120833333D01*
X19916666Y-121404761D02*
X20011904Y-121452380D01*
X20250000Y-121452380D01*
X20345238Y-121404761D01*
X20392857Y-121309523D01*
X20392857Y-121214285D01*
X20345238Y-121119047D01*
X20250000Y-121071428D01*
X20011904Y-121071428D01*
X19916666Y-121023809D01*
X19440476Y-120785714D02*
X19440476Y-121452380D01*
X19440476Y-120880952D02*
X19392857Y-120833333D01*
X19297619Y-120785714D01*
X19154761Y-120785714D01*
X19059523Y-120833333D01*
X19011904Y-120928571D01*
X19011904Y-121452380D01*
X18154761Y-121404761D02*
X18250000Y-121452380D01*
X18440476Y-121452380D01*
X18535714Y-121404761D01*
X18583333Y-121309523D01*
X18583333Y-120928571D01*
X18535714Y-120833333D01*
X18440476Y-120785714D01*
X18250000Y-120785714D01*
X18154761Y-120833333D01*
X18107142Y-120928571D01*
X18107142Y-121023809D01*
X18583333Y-121119047D01*
X17535714Y-121452380D02*
X17630952Y-121404761D01*
X17678571Y-121309523D01*
X17678571Y-120452380D01*
X16392857Y-121452380D02*
X16392857Y-120452380D01*
X16392857Y-120833333D02*
X16297619Y-120785714D01*
X16107142Y-120785714D01*
X16011904Y-120833333D01*
X15964285Y-120880952D01*
X15916666Y-120976190D01*
X15916666Y-121261904D01*
X15964285Y-121357142D01*
X16011904Y-121404761D01*
X16107142Y-121452380D01*
X16297619Y-121452380D01*
X16392857Y-121404761D01*
X15583333Y-120785714D02*
X15345238Y-121452380D01*
X15107142Y-120785714D02*
X15345238Y-121452380D01*
X15440476Y-121690476D01*
X15488095Y-121738095D01*
X15583333Y-121785714D01*
X13964285Y-120785714D02*
X13964285Y-121642857D01*
X14011904Y-121738095D01*
X14107142Y-121785714D01*
X14154761Y-121785714D01*
X13964285Y-120452380D02*
X14011904Y-120500000D01*
X13964285Y-120547619D01*
X13916666Y-120500000D01*
X13964285Y-120452380D01*
X13964285Y-120547619D01*
X13059523Y-121452380D02*
X13059523Y-120928571D01*
X13107142Y-120833333D01*
X13202380Y-120785714D01*
X13392857Y-120785714D01*
X13488095Y-120833333D01*
X13059523Y-121404761D02*
X13154761Y-121452380D01*
X13392857Y-121452380D01*
X13488095Y-121404761D01*
X13535714Y-121309523D01*
X13535714Y-121214285D01*
X13488095Y-121119047D01*
X13392857Y-121071428D01*
X13154761Y-121071428D01*
X13059523Y-121023809D01*
X12154761Y-121404761D02*
X12250000Y-121452380D01*
X12440476Y-121452380D01*
X12535714Y-121404761D01*
X12583333Y-121357142D01*
X12630952Y-121261904D01*
X12630952Y-120976190D01*
X12583333Y-120880952D01*
X12535714Y-120833333D01*
X12440476Y-120785714D01*
X12250000Y-120785714D01*
X12154761Y-120833333D01*
X11726190Y-121452380D02*
X11726190Y-120452380D01*
X11630952Y-121071428D02*
X11345238Y-121452380D01*
X11345238Y-120785714D02*
X11726190Y-121166666D01*
X10202380Y-121404761D02*
X10107142Y-121452380D01*
X9916666Y-121452380D01*
X9821428Y-121404761D01*
X9773809Y-121309523D01*
X9773809Y-121261904D01*
X9821428Y-121166666D01*
X9916666Y-121119047D01*
X10059523Y-121119047D01*
X10154761Y-121071428D01*
X10202380Y-120976190D01*
X10202380Y-120928571D01*
X10154761Y-120833333D01*
X10059523Y-120785714D01*
X9916666Y-120785714D01*
X9821428Y-120833333D01*
X9345238Y-121357142D02*
X9297619Y-121404761D01*
X9345238Y-121452380D01*
X9392857Y-121404761D01*
X9345238Y-121357142D01*
X9345238Y-121452380D01*
X8154761Y-120547619D02*
X8107142Y-120500000D01*
X8011904Y-120452380D01*
X7773809Y-120452380D01*
X7678571Y-120500000D01*
X7630952Y-120547619D01*
X7583333Y-120642857D01*
X7583333Y-120738095D01*
X7630952Y-120880952D01*
X8202380Y-121452380D01*
X7583333Y-121452380D01*
X6964285Y-120452380D02*
X6869047Y-120452380D01*
X6773809Y-120500000D01*
X6726190Y-120547619D01*
X6678571Y-120642857D01*
X6630952Y-120833333D01*
X6630952Y-121071428D01*
X6678571Y-121261904D01*
X6726190Y-121357142D01*
X6773809Y-121404761D01*
X6869047Y-121452380D01*
X6964285Y-121452380D01*
X7059523Y-121404761D01*
X7107142Y-121357142D01*
X7154761Y-121261904D01*
X7202380Y-121071428D01*
X7202380Y-120833333D01*
X7154761Y-120642857D01*
X7107142Y-120547619D01*
X7059523Y-120500000D01*
X6964285Y-120452380D01*
X6250000Y-120547619D02*
X6202380Y-120500000D01*
X6107142Y-120452380D01*
X5869047Y-120452380D01*
X5773809Y-120500000D01*
X5726190Y-120547619D01*
X5678571Y-120642857D01*
X5678571Y-120738095D01*
X5726190Y-120880952D01*
X6297619Y-121452380D01*
X5678571Y-121452380D01*
X4726190Y-121452380D02*
X5297619Y-121452380D01*
X5011904Y-121452380D02*
X5011904Y-120452380D01*
X5107142Y-120595238D01*
X5202380Y-120690476D01*
X5297619Y-120738095D01*
D10*
X22250000Y-88750000D02*
G75*
G03X22250000Y-88750000I-3500000J0D01*
G01*
X10250000Y-104750000D02*
G75*
G03X10250000Y-104750000I-3500000J0D01*
G01*
X22250000Y-104750000D02*
G75*
G03X22250000Y-104750000I-3500000J0D01*
G01*
X34250000Y-104750000D02*
G75*
G03X34250000Y-104750000I-3500000J0D01*
G01*
D12*
G36*
X43354975Y-101708585D02*
G01*
X43654528Y-101768170D01*
X44218874Y-102001930D01*
X44726772Y-102341296D01*
X45158704Y-102773228D01*
X45498070Y-103281126D01*
X45731830Y-103845472D01*
X45851000Y-104444578D01*
X45851000Y-105055422D01*
X45731830Y-105654528D01*
X45498070Y-106218874D01*
X45158704Y-106726772D01*
X44726772Y-107158704D01*
X44218874Y-107498070D01*
X43654528Y-107731830D01*
X43354975Y-107791415D01*
X43055423Y-107851000D01*
X42444577Y-107851000D01*
X42145025Y-107791415D01*
X41845472Y-107731830D01*
X41281126Y-107498070D01*
X40773228Y-107158704D01*
X40341296Y-106726772D01*
X40001930Y-106218874D01*
X39768170Y-105654528D01*
X39649000Y-105055422D01*
X39649000Y-104444578D01*
X39768170Y-103845472D01*
X40001930Y-103281126D01*
X40341296Y-102773228D01*
X40773228Y-102341296D01*
X41281126Y-102001930D01*
X41845472Y-101768170D01*
X42145025Y-101708585D01*
X42444577Y-101649000D01*
X43055423Y-101649000D01*
X43354975Y-101708585D01*
G37*
G36*
X31354975Y-101708585D02*
G01*
X31654528Y-101768170D01*
X32218874Y-102001930D01*
X32726772Y-102341296D01*
X33158704Y-102773228D01*
X33498070Y-103281126D01*
X33731830Y-103845472D01*
X33851000Y-104444578D01*
X33851000Y-105055422D01*
X33731830Y-105654528D01*
X33498070Y-106218874D01*
X33158704Y-106726772D01*
X32726772Y-107158704D01*
X32218874Y-107498070D01*
X31654528Y-107731830D01*
X31354975Y-107791415D01*
X31055423Y-107851000D01*
X30444577Y-107851000D01*
X30145025Y-107791415D01*
X29845472Y-107731830D01*
X29281126Y-107498070D01*
X28773228Y-107158704D01*
X28341296Y-106726772D01*
X28001930Y-106218874D01*
X27768170Y-105654528D01*
X27649000Y-105055422D01*
X27649000Y-104444578D01*
X27768170Y-103845472D01*
X28001930Y-103281126D01*
X28341296Y-102773228D01*
X28773228Y-102341296D01*
X29281126Y-102001930D01*
X29845472Y-101768170D01*
X30145025Y-101708585D01*
X30444577Y-101649000D01*
X31055423Y-101649000D01*
X31354975Y-101708585D01*
G37*
G36*
X19354975Y-101708585D02*
G01*
X19654528Y-101768170D01*
X20218874Y-102001930D01*
X20726772Y-102341296D01*
X21158704Y-102773228D01*
X21498070Y-103281126D01*
X21731830Y-103845472D01*
X21851000Y-104444578D01*
X21851000Y-105055422D01*
X21731830Y-105654528D01*
X21498070Y-106218874D01*
X21158704Y-106726772D01*
X20726772Y-107158704D01*
X20218874Y-107498070D01*
X19654528Y-107731830D01*
X19354975Y-107791415D01*
X19055423Y-107851000D01*
X18444577Y-107851000D01*
X18145025Y-107791415D01*
X17845472Y-107731830D01*
X17281126Y-107498070D01*
X16773228Y-107158704D01*
X16341296Y-106726772D01*
X16001930Y-106218874D01*
X15768170Y-105654528D01*
X15649000Y-105055422D01*
X15649000Y-104444578D01*
X15768170Y-103845472D01*
X16001930Y-103281126D01*
X16341296Y-102773228D01*
X16773228Y-102341296D01*
X17281126Y-102001930D01*
X17845472Y-101768170D01*
X18145025Y-101708585D01*
X18444577Y-101649000D01*
X19055423Y-101649000D01*
X19354975Y-101708585D01*
G37*
G36*
X7354975Y-101708585D02*
G01*
X7654528Y-101768170D01*
X8218874Y-102001930D01*
X8726772Y-102341296D01*
X9158704Y-102773228D01*
X9498070Y-103281126D01*
X9731830Y-103845472D01*
X9851000Y-104444578D01*
X9851000Y-105055422D01*
X9731830Y-105654528D01*
X9498070Y-106218874D01*
X9158704Y-106726772D01*
X8726772Y-107158704D01*
X8218874Y-107498070D01*
X7654528Y-107731830D01*
X7354975Y-107791415D01*
X7055423Y-107851000D01*
X6444577Y-107851000D01*
X6145025Y-107791415D01*
X5845472Y-107731830D01*
X5281126Y-107498070D01*
X4773228Y-107158704D01*
X4341296Y-106726772D01*
X4001930Y-106218874D01*
X3768170Y-105654528D01*
X3649000Y-105055422D01*
X3649000Y-104444578D01*
X3768170Y-103845472D01*
X4001930Y-103281126D01*
X4341296Y-102773228D01*
X4773228Y-102341296D01*
X5281126Y-102001930D01*
X5845472Y-101768170D01*
X6145025Y-101708585D01*
X6444577Y-101649000D01*
X7055423Y-101649000D01*
X7354975Y-101708585D01*
G37*
G36*
X43354975Y-85708585D02*
G01*
X43654528Y-85768170D01*
X44218874Y-86001930D01*
X44726772Y-86341296D01*
X45158704Y-86773228D01*
X45498070Y-87281126D01*
X45731830Y-87845472D01*
X45851000Y-88444578D01*
X45851000Y-89055422D01*
X45731830Y-89654528D01*
X45498070Y-90218874D01*
X45158704Y-90726772D01*
X44726772Y-91158704D01*
X44218874Y-91498070D01*
X43654528Y-91731830D01*
X43354975Y-91791415D01*
X43055423Y-91851000D01*
X42444577Y-91851000D01*
X42145025Y-91791415D01*
X41845472Y-91731830D01*
X41281126Y-91498070D01*
X40773228Y-91158704D01*
X40341296Y-90726772D01*
X40001930Y-90218874D01*
X39768170Y-89654528D01*
X39649000Y-89055422D01*
X39649000Y-88444578D01*
X39768170Y-87845472D01*
X40001930Y-87281126D01*
X40341296Y-86773228D01*
X40773228Y-86341296D01*
X41281126Y-86001930D01*
X41845472Y-85768170D01*
X42145025Y-85708585D01*
X42444577Y-85649000D01*
X43055423Y-85649000D01*
X43354975Y-85708585D01*
G37*
G36*
X19354975Y-85708585D02*
G01*
X19654528Y-85768170D01*
X20218874Y-86001930D01*
X20726772Y-86341296D01*
X21158704Y-86773228D01*
X21498070Y-87281126D01*
X21731830Y-87845472D01*
X21851000Y-88444578D01*
X21851000Y-89055422D01*
X21731830Y-89654528D01*
X21498070Y-90218874D01*
X21158704Y-90726772D01*
X20726772Y-91158704D01*
X20218874Y-91498070D01*
X19654528Y-91731830D01*
X19354975Y-91791415D01*
X19055423Y-91851000D01*
X18444577Y-91851000D01*
X18145025Y-91791415D01*
X17845472Y-91731830D01*
X17281126Y-91498070D01*
X16773228Y-91158704D01*
X16341296Y-90726772D01*
X16001930Y-90218874D01*
X15768170Y-89654528D01*
X15649000Y-89055422D01*
X15649000Y-88444578D01*
X15768170Y-87845472D01*
X16001930Y-87281126D01*
X16341296Y-86773228D01*
X16773228Y-86341296D01*
X17281126Y-86001930D01*
X17845472Y-85768170D01*
X18145025Y-85708585D01*
X18444577Y-85649000D01*
X19055423Y-85649000D01*
X19354975Y-85708585D01*
G37*
G36*
X7354975Y-85708585D02*
G01*
X7654528Y-85768170D01*
X8218874Y-86001930D01*
X8726772Y-86341296D01*
X9158704Y-86773228D01*
X9498070Y-87281126D01*
X9731830Y-87845472D01*
X9851000Y-88444578D01*
X9851000Y-89055422D01*
X9731830Y-89654528D01*
X9498070Y-90218874D01*
X9158704Y-90726772D01*
X8726772Y-91158704D01*
X8218874Y-91498070D01*
X7654528Y-91731830D01*
X7354975Y-91791415D01*
X7055423Y-91851000D01*
X6444577Y-91851000D01*
X6145025Y-91791415D01*
X5845472Y-91731830D01*
X5281126Y-91498070D01*
X4773228Y-91158704D01*
X4341296Y-90726772D01*
X4001930Y-90218874D01*
X3768170Y-89654528D01*
X3649000Y-89055422D01*
X3649000Y-88444578D01*
X3768170Y-87845472D01*
X4001930Y-87281126D01*
X4341296Y-86773228D01*
X4773228Y-86341296D01*
X5281126Y-86001930D01*
X5845472Y-85768170D01*
X6145025Y-85708585D01*
X6444577Y-85649000D01*
X7055423Y-85649000D01*
X7354975Y-85708585D01*
G37*
G36*
X31257430Y-86198977D02*
G01*
X31508684Y-86248955D01*
X31704752Y-86330169D01*
X31982034Y-86445023D01*
X31982035Y-86445024D01*
X32408041Y-86729671D01*
X32770329Y-87091959D01*
X32896726Y-87281126D01*
X33054977Y-87517966D01*
X33251045Y-87991317D01*
X33351000Y-88493823D01*
X33351000Y-89006177D01*
X33251045Y-89508683D01*
X33054977Y-89982034D01*
X33054976Y-89982035D01*
X32770329Y-90408041D01*
X32408041Y-90770329D01*
X32123393Y-90960524D01*
X31982034Y-91054977D01*
X31731614Y-91158704D01*
X31508684Y-91251045D01*
X31257430Y-91301022D01*
X31006177Y-91351000D01*
X30493823Y-91351000D01*
X30242570Y-91301022D01*
X29991316Y-91251045D01*
X29768386Y-91158704D01*
X29517966Y-91054977D01*
X29376607Y-90960524D01*
X29091959Y-90770329D01*
X28729671Y-90408041D01*
X28445024Y-89982035D01*
X28445023Y-89982034D01*
X28248955Y-89508683D01*
X28149000Y-89006177D01*
X28149000Y-88493823D01*
X28248955Y-87991317D01*
X28445023Y-87517966D01*
X28603274Y-87281126D01*
X28729671Y-87091959D01*
X29091959Y-86729671D01*
X29517965Y-86445024D01*
X29517966Y-86445023D01*
X29795248Y-86330169D01*
X29991316Y-86248955D01*
X30242570Y-86198977D01*
X30493823Y-86149000D01*
X31006177Y-86149000D01*
X31257430Y-86198977D01*
G37*
G36*
X33946217Y-45656665D02*
G01*
X34216995Y-45710525D01*
X34508358Y-45831212D01*
X34770578Y-46006422D01*
X34993578Y-46229422D01*
X35168788Y-46491642D01*
X35289475Y-46783005D01*
X35351000Y-47092315D01*
X35351000Y-47407685D01*
X35289475Y-47716995D01*
X35168788Y-48008358D01*
X34993578Y-48270578D01*
X34770578Y-48493578D01*
X34508358Y-48668788D01*
X34216995Y-48789475D01*
X33946217Y-48843335D01*
X33907686Y-48851000D01*
X33592314Y-48851000D01*
X33553783Y-48843335D01*
X33283005Y-48789475D01*
X32991642Y-48668788D01*
X32729422Y-48493578D01*
X32506422Y-48270578D01*
X32331212Y-48008358D01*
X32210525Y-47716995D01*
X32149000Y-47407685D01*
X32149000Y-47092315D01*
X32210525Y-46783005D01*
X32331212Y-46491642D01*
X32506422Y-46229422D01*
X32729422Y-46006422D01*
X32991642Y-45831212D01*
X33283005Y-45710525D01*
X33553783Y-45656665D01*
X33592314Y-45649000D01*
X33907686Y-45649000D01*
X33946217Y-45656665D01*
G37*
G36*
X17946217Y-45656665D02*
G01*
X18216995Y-45710525D01*
X18508358Y-45831212D01*
X18770578Y-46006422D01*
X18993578Y-46229422D01*
X19168788Y-46491642D01*
X19289475Y-46783005D01*
X19351000Y-47092315D01*
X19351000Y-47407685D01*
X19289475Y-47716995D01*
X19168788Y-48008358D01*
X18993578Y-48270578D01*
X18770578Y-48493578D01*
X18508358Y-48668788D01*
X18216995Y-48789475D01*
X17946217Y-48843335D01*
X17907686Y-48851000D01*
X17592314Y-48851000D01*
X17553783Y-48843335D01*
X17283005Y-48789475D01*
X16991642Y-48668788D01*
X16729422Y-48493578D01*
X16506422Y-48270578D01*
X16331212Y-48008358D01*
X16210525Y-47716995D01*
X16149000Y-47407685D01*
X16149000Y-47092315D01*
X16210525Y-46783005D01*
X16331212Y-46491642D01*
X16506422Y-46229422D01*
X16729422Y-46006422D01*
X16991642Y-45831212D01*
X17283005Y-45710525D01*
X17553783Y-45656665D01*
X17592314Y-45649000D01*
X17907686Y-45649000D01*
X17946217Y-45656665D01*
G37*
G36*
X26625293Y-34997661D02*
G01*
X26873295Y-35046992D01*
X27574132Y-35337288D01*
X28204869Y-35758733D01*
X28741267Y-36295131D01*
X29162712Y-36925868D01*
X29453008Y-37626705D01*
X29601000Y-38370710D01*
X29601000Y-39129290D01*
X29453008Y-39873295D01*
X29162712Y-40574132D01*
X28741267Y-41204869D01*
X28204869Y-41741267D01*
X27574132Y-42162712D01*
X26873295Y-42453008D01*
X26625293Y-42502339D01*
X26129292Y-42601000D01*
X25370708Y-42601000D01*
X24874707Y-42502339D01*
X24626705Y-42453008D01*
X23925868Y-42162712D01*
X23295131Y-41741267D01*
X22758733Y-41204869D01*
X22337288Y-40574132D01*
X22046992Y-39873295D01*
X21899000Y-39129290D01*
X21899000Y-38370710D01*
X22046992Y-37626705D01*
X22337288Y-36925868D01*
X22758733Y-36295131D01*
X23295131Y-35758733D01*
X23925868Y-35337288D01*
X24626705Y-35046992D01*
X24874707Y-34997661D01*
X25370708Y-34899000D01*
X26129292Y-34899000D01*
X26625293Y-34997661D01*
G37*
G36*
X33946217Y-28656665D02*
G01*
X34216995Y-28710525D01*
X34508358Y-28831212D01*
X34770578Y-29006422D01*
X34993578Y-29229422D01*
X35168788Y-29491642D01*
X35289475Y-29783005D01*
X35351000Y-30092315D01*
X35351000Y-30407685D01*
X35289475Y-30716995D01*
X35168788Y-31008358D01*
X34993578Y-31270578D01*
X34770578Y-31493578D01*
X34508358Y-31668788D01*
X34216995Y-31789475D01*
X33946217Y-31843335D01*
X33907686Y-31851000D01*
X33592314Y-31851000D01*
X33553783Y-31843335D01*
X33283005Y-31789475D01*
X32991642Y-31668788D01*
X32729422Y-31493578D01*
X32506422Y-31270578D01*
X32331212Y-31008358D01*
X32210525Y-30716995D01*
X32149000Y-30407685D01*
X32149000Y-30092315D01*
X32210525Y-29783005D01*
X32331212Y-29491642D01*
X32506422Y-29229422D01*
X32729422Y-29006422D01*
X32991642Y-28831212D01*
X33283005Y-28710525D01*
X33553783Y-28656665D01*
X33592314Y-28649000D01*
X33907686Y-28649000D01*
X33946217Y-28656665D01*
G37*
G36*
X17946217Y-28656665D02*
G01*
X18216995Y-28710525D01*
X18508358Y-28831212D01*
X18770578Y-29006422D01*
X18993578Y-29229422D01*
X19168788Y-29491642D01*
X19289475Y-29783005D01*
X19351000Y-30092315D01*
X19351000Y-30407685D01*
X19289475Y-30716995D01*
X19168788Y-31008358D01*
X18993578Y-31270578D01*
X18770578Y-31493578D01*
X18508358Y-31668788D01*
X18216995Y-31789475D01*
X17946217Y-31843335D01*
X17907686Y-31851000D01*
X17592314Y-31851000D01*
X17553783Y-31843335D01*
X17283005Y-31789475D01*
X16991642Y-31668788D01*
X16729422Y-31493578D01*
X16506422Y-31270578D01*
X16331212Y-31008358D01*
X16210525Y-30716995D01*
X16149000Y-30407685D01*
X16149000Y-30092315D01*
X16210525Y-29783005D01*
X16331212Y-29491642D01*
X16506422Y-29229422D01*
X16729422Y-29006422D01*
X16991642Y-28831212D01*
X17283005Y-28710525D01*
X17553783Y-28656665D01*
X17592314Y-28649000D01*
X17907686Y-28649000D01*
X17946217Y-28656665D01*
G37*
M02*
