G04 #@! TF.GenerationSoftware,KiCad,Pcbnew,(5.1.5-0)*
G04 #@! TF.CreationDate,2021-01-20T20:41:00-08:00*
G04 #@! TF.ProjectId,arseq,61727365-712e-46b6-9963-61645f706362,rev?*
G04 #@! TF.SameCoordinates,Original*
G04 #@! TF.FileFunction,Copper,L1,Top*
G04 #@! TF.FilePolarity,Positive*
%FSLAX46Y46*%
G04 Gerber Fmt 4.6, Leading zero omitted, Abs format (unit mm)*
G04 Created by KiCad (PCBNEW (5.1.5-0)) date 2021-01-20 20:41:00*
%MOMM*%
%LPD*%
G04 APERTURE LIST*
%ADD10C,0.100000*%
%ADD11C,2.000000*%
%ADD12C,7.600000*%
%ADD13C,3.100000*%
%ADD14C,6.100000*%
%ADD15C,5.100000*%
G04 APERTURE END LIST*
D10*
G36*
X33750000Y-47500000D02*
G01*
X17750000Y-47500000D01*
X17750000Y-30250000D01*
X33750000Y-30250000D01*
X33750000Y-47500000D01*
G37*
X33750000Y-47500000D02*
X17750000Y-47500000D01*
X17750000Y-30250000D01*
X33750000Y-30250000D01*
X33750000Y-47500000D01*
D11*
X39500000Y-104750000D02*
X9500000Y-104750000D01*
X17750000Y-88750000D02*
X7750000Y-88750000D01*
X42000000Y-88750000D02*
X32000000Y-88750000D01*
D10*
G36*
X22096400Y-119524900D02*
G01*
X22413900Y-119766200D01*
X22979050Y-120083700D01*
X23575950Y-120515500D01*
X23950600Y-120896500D01*
X24350650Y-121461650D01*
X24947550Y-122642750D01*
X25246000Y-123207900D01*
X25258700Y-123220600D01*
X24928500Y-123246000D01*
X24826900Y-123195200D01*
X24471300Y-122947550D01*
X24064900Y-122579250D01*
X23734700Y-122230000D01*
X23379100Y-121798200D01*
X23099700Y-121379100D01*
X22909200Y-121125100D01*
X22655200Y-120667900D01*
X22401200Y-120299600D01*
X22159900Y-119880500D01*
X21880500Y-119321700D01*
X22096400Y-119524900D01*
G37*
X22096400Y-119524900D02*
X22413900Y-119766200D01*
X22979050Y-120083700D01*
X23575950Y-120515500D01*
X23950600Y-120896500D01*
X24350650Y-121461650D01*
X24947550Y-122642750D01*
X25246000Y-123207900D01*
X25258700Y-123220600D01*
X24928500Y-123246000D01*
X24826900Y-123195200D01*
X24471300Y-122947550D01*
X24064900Y-122579250D01*
X23734700Y-122230000D01*
X23379100Y-121798200D01*
X23099700Y-121379100D01*
X22909200Y-121125100D01*
X22655200Y-120667900D01*
X22401200Y-120299600D01*
X22159900Y-119880500D01*
X21880500Y-119321700D01*
X22096400Y-119524900D01*
G36*
X23502925Y-122703075D02*
G01*
X23839475Y-122798325D01*
X24103000Y-122890400D01*
X24801500Y-123296800D01*
X24831980Y-123324740D01*
X24839600Y-123309500D01*
X24839600Y-123322200D01*
X24831980Y-123324740D01*
X24750700Y-123487300D01*
X25144400Y-123627000D01*
X24934850Y-123652400D01*
X24541150Y-123677800D01*
X24064900Y-123677800D01*
X23620400Y-123614300D01*
X23137800Y-123500000D01*
X22744100Y-123385700D01*
X22337700Y-123157100D01*
X22020200Y-122928500D01*
X21613800Y-122801500D01*
X22261500Y-122750700D01*
X22794900Y-122712600D01*
X23258450Y-122706250D01*
X23502925Y-122703075D01*
G37*
X23502925Y-122703075D02*
X23839475Y-122798325D01*
X24103000Y-122890400D01*
X24801500Y-123296800D01*
X24831980Y-123324740D01*
X24839600Y-123309500D01*
X24839600Y-123322200D01*
X24831980Y-123324740D01*
X24750700Y-123487300D01*
X25144400Y-123627000D01*
X24934850Y-123652400D01*
X24541150Y-123677800D01*
X24064900Y-123677800D01*
X23620400Y-123614300D01*
X23137800Y-123500000D01*
X22744100Y-123385700D01*
X22337700Y-123157100D01*
X22020200Y-122928500D01*
X21613800Y-122801500D01*
X22261500Y-122750700D01*
X22794900Y-122712600D01*
X23258450Y-122706250D01*
X23502925Y-122703075D01*
G36*
X25366650Y-123766700D02*
G01*
X24998350Y-124198500D01*
X24560200Y-124471550D01*
X24179200Y-124611250D01*
X23429900Y-124776350D01*
X23912500Y-124249300D01*
X24306200Y-123982600D01*
X24674500Y-123779400D01*
X25144400Y-123703200D01*
X25169800Y-123703200D01*
X25366650Y-123766700D01*
G37*
X25366650Y-123766700D02*
X24998350Y-124198500D01*
X24560200Y-124471550D01*
X24179200Y-124611250D01*
X23429900Y-124776350D01*
X23912500Y-124249300D01*
X24306200Y-123982600D01*
X24674500Y-123779400D01*
X25144400Y-123703200D01*
X25169800Y-123703200D01*
X25366650Y-123766700D01*
G36*
X25500000Y-123284100D02*
G01*
X25288862Y-123477775D01*
X25507937Y-123573025D01*
X26258825Y-124115950D01*
X26077850Y-124211200D01*
X25500000Y-123754000D01*
X25512700Y-124846200D01*
X25398400Y-124706500D01*
X25392050Y-123817500D01*
X25436500Y-123817500D01*
X25055500Y-123601600D01*
X24769750Y-123449200D01*
X24934850Y-123169800D01*
X25500000Y-123284100D01*
G37*
X25500000Y-123284100D02*
X25288862Y-123477775D01*
X25507937Y-123573025D01*
X26258825Y-124115950D01*
X26077850Y-124211200D01*
X25500000Y-123754000D01*
X25512700Y-124846200D01*
X25398400Y-124706500D01*
X25392050Y-123817500D01*
X25436500Y-123817500D01*
X25055500Y-123601600D01*
X24769750Y-123449200D01*
X24934850Y-123169800D01*
X25500000Y-123284100D01*
G36*
X26141350Y-123741300D02*
G01*
X26693800Y-124020700D01*
X27020825Y-124347725D01*
X27155763Y-124577913D01*
X27387538Y-124847788D01*
X27081150Y-124763650D01*
X26827150Y-124687450D01*
X26649350Y-124623950D01*
X26274700Y-124490600D01*
X25915925Y-124296925D01*
X25655575Y-124011175D01*
X25531750Y-123849250D01*
X25595250Y-123887350D01*
X25569850Y-123823850D01*
X25633350Y-123652400D01*
X26141350Y-123741300D01*
G37*
X26141350Y-123741300D02*
X26693800Y-124020700D01*
X27020825Y-124347725D01*
X27155763Y-124577913D01*
X27387538Y-124847788D01*
X27081150Y-124763650D01*
X26827150Y-124687450D01*
X26649350Y-124623950D01*
X26274700Y-124490600D01*
X25915925Y-124296925D01*
X25655575Y-124011175D01*
X25531750Y-123849250D01*
X25595250Y-123887350D01*
X25569850Y-123823850D01*
X25633350Y-123652400D01*
X26141350Y-123741300D01*
G36*
X28573400Y-122738000D02*
G01*
X29005200Y-122763400D01*
X29583207Y-122773943D01*
X28903600Y-122928500D01*
X28471800Y-123119000D01*
X28128900Y-123334900D01*
X27709800Y-123500000D01*
X27176400Y-123588900D01*
X26731900Y-123614300D01*
X26154050Y-123595250D01*
X25576200Y-123576200D01*
X25512700Y-123500000D01*
X25728600Y-123436500D01*
X25735585Y-123385700D01*
X26051815Y-123258700D01*
X26585850Y-123030100D01*
X27138300Y-122826900D01*
X27532000Y-122712600D01*
X27976500Y-122712600D01*
X28573400Y-122738000D01*
G37*
X28573400Y-122738000D02*
X29005200Y-122763400D01*
X29583207Y-122773943D01*
X28903600Y-122928500D01*
X28471800Y-123119000D01*
X28128900Y-123334900D01*
X27709800Y-123500000D01*
X27176400Y-123588900D01*
X26731900Y-123614300D01*
X26154050Y-123595250D01*
X25576200Y-123576200D01*
X25512700Y-123500000D01*
X25728600Y-123436500D01*
X25735585Y-123385700D01*
X26051815Y-123258700D01*
X26585850Y-123030100D01*
X27138300Y-122826900D01*
X27532000Y-122712600D01*
X27976500Y-122712600D01*
X28573400Y-122738000D01*
G36*
X28560700Y-120083700D02*
G01*
X28319400Y-120579000D01*
X28116200Y-121036200D01*
X27855850Y-121556900D01*
X27582800Y-121912500D01*
X27271650Y-122325250D01*
X26801750Y-122718950D01*
X26300100Y-123055500D01*
X25195200Y-123652400D01*
X25220600Y-123322200D01*
X25525400Y-123271400D01*
X25773050Y-122833250D01*
X25988950Y-122369700D01*
X26154050Y-122039500D01*
X26338200Y-121747400D01*
X26503300Y-121429900D01*
X26782700Y-121074300D01*
X27062100Y-120756800D01*
X27392300Y-120464700D01*
X27735200Y-120236100D01*
X28116200Y-119982100D01*
X28509900Y-119715400D01*
X29043300Y-119321700D01*
X28560700Y-120083700D01*
G37*
X28560700Y-120083700D02*
X28319400Y-120579000D01*
X28116200Y-121036200D01*
X27855850Y-121556900D01*
X27582800Y-121912500D01*
X27271650Y-122325250D01*
X26801750Y-122718950D01*
X26300100Y-123055500D01*
X25195200Y-123652400D01*
X25220600Y-123322200D01*
X25525400Y-123271400D01*
X25773050Y-122833250D01*
X25988950Y-122369700D01*
X26154050Y-122039500D01*
X26338200Y-121747400D01*
X26503300Y-121429900D01*
X26782700Y-121074300D01*
X27062100Y-120756800D01*
X27392300Y-120464700D01*
X27735200Y-120236100D01*
X28116200Y-119982100D01*
X28509900Y-119715400D01*
X29043300Y-119321700D01*
X28560700Y-120083700D01*
G36*
X25715900Y-117950100D02*
G01*
X25817500Y-118432700D01*
X25931800Y-118889900D01*
X26014350Y-119220100D01*
X26077850Y-119601100D01*
X26122300Y-120121800D01*
X26122300Y-120655200D01*
X26071500Y-121239400D01*
X26008000Y-121760100D01*
X25865125Y-122255400D01*
X25566675Y-123271400D01*
X25353950Y-123220600D01*
X25119000Y-122306200D01*
X24945962Y-121442600D01*
X24961837Y-120655200D01*
X25014225Y-119994800D01*
X25176150Y-119220100D01*
X25411100Y-118407300D01*
X25538100Y-117632600D01*
X25601600Y-117111900D01*
X25715900Y-117950100D01*
G37*
X25715900Y-117950100D02*
X25817500Y-118432700D01*
X25931800Y-118889900D01*
X26014350Y-119220100D01*
X26077850Y-119601100D01*
X26122300Y-120121800D01*
X26122300Y-120655200D01*
X26071500Y-121239400D01*
X26008000Y-121760100D01*
X25865125Y-122255400D01*
X25566675Y-123271400D01*
X25353950Y-123220600D01*
X25119000Y-122306200D01*
X24945962Y-121442600D01*
X24961837Y-120655200D01*
X25014225Y-119994800D01*
X25176150Y-119220100D01*
X25411100Y-118407300D01*
X25538100Y-117632600D01*
X25601600Y-117111900D01*
X25715900Y-117950100D01*
D12*
X25750000Y-38750000D03*
D13*
X17750000Y-30250000D03*
X33750000Y-30250000D03*
X33750000Y-47250000D03*
X17750000Y-47250000D03*
D14*
X42750000Y-104750000D03*
X6750000Y-88750000D03*
X42750000Y-88750000D03*
D15*
X30750000Y-88750000D03*
D14*
X18750000Y-88750000D03*
X6750000Y-104750000D03*
X30750000Y-104750000D03*
X18750000Y-104750000D03*
M02*
