G04 #@! TF.GenerationSoftware,KiCad,Pcbnew,(5.1.5-0)*
G04 #@! TF.CreationDate,2021-01-11T19:09:39-08:00*
G04 #@! TF.ProjectId,icbina,69636269-6e61-42e6-9b69-6361645f7063,rev?*
G04 #@! TF.SameCoordinates,Original*
G04 #@! TF.FileFunction,Legend,Top*
G04 #@! TF.FilePolarity,Positive*
%FSLAX46Y46*%
G04 Gerber Fmt 4.6, Leading zero omitted, Abs format (unit mm)*
G04 Created by KiCad (PCBNEW (5.1.5-0)) date 2021-01-11 19:09:39*
%MOMM*%
%LPD*%
G04 APERTURE LIST*
%ADD10C,0.250000*%
%ADD11C,0.200000*%
G04 APERTURE END LIST*
D10*
X111607142Y-33428571D02*
X111607142Y-31928571D01*
X114321428Y-33285714D02*
X114250000Y-33357142D01*
X114035714Y-33428571D01*
X113892857Y-33428571D01*
X113678571Y-33357142D01*
X113535714Y-33214285D01*
X113464285Y-33071428D01*
X113392857Y-32785714D01*
X113392857Y-32571428D01*
X113464285Y-32285714D01*
X113535714Y-32142857D01*
X113678571Y-32000000D01*
X113892857Y-31928571D01*
X114035714Y-31928571D01*
X114250000Y-32000000D01*
X114321428Y-32071428D01*
X114892857Y-33000000D02*
X115607142Y-33000000D01*
X114750000Y-33428571D02*
X115250000Y-31928571D01*
X115750000Y-33428571D01*
X116250000Y-33428571D02*
X116250000Y-31928571D01*
X117107142Y-33428571D01*
X117107142Y-31928571D01*
X117892857Y-31928571D02*
X117892857Y-32000000D01*
X117821428Y-32142857D01*
X117750000Y-32214285D01*
X118321428Y-31928571D02*
X119178571Y-31928571D01*
X118750000Y-33428571D02*
X118750000Y-31928571D01*
X121321428Y-32642857D02*
X121535714Y-32714285D01*
X121607142Y-32785714D01*
X121678571Y-32928571D01*
X121678571Y-33142857D01*
X121607142Y-33285714D01*
X121535714Y-33357142D01*
X121392857Y-33428571D01*
X120821428Y-33428571D01*
X120821428Y-31928571D01*
X121321428Y-31928571D01*
X121464285Y-32000000D01*
X121535714Y-32071428D01*
X121607142Y-32214285D01*
X121607142Y-32357142D01*
X121535714Y-32500000D01*
X121464285Y-32571428D01*
X121321428Y-32642857D01*
X120821428Y-32642857D01*
X122321428Y-32642857D02*
X122821428Y-32642857D01*
X123035714Y-33428571D02*
X122321428Y-33428571D01*
X122321428Y-31928571D01*
X123035714Y-31928571D01*
X124392857Y-33428571D02*
X123678571Y-33428571D01*
X123678571Y-31928571D01*
X124892857Y-33428571D02*
X124892857Y-31928571D01*
X125607142Y-32642857D02*
X126107142Y-32642857D01*
X126321428Y-33428571D02*
X125607142Y-33428571D01*
X125607142Y-31928571D01*
X126321428Y-31928571D01*
X126750000Y-31928571D02*
X127250000Y-33428571D01*
X127750000Y-31928571D01*
X128250000Y-32642857D02*
X128750000Y-32642857D01*
X128964285Y-33428571D02*
X128250000Y-33428571D01*
X128250000Y-31928571D01*
X128964285Y-31928571D01*
X111571428Y-35928571D02*
X111571428Y-34428571D01*
X112071428Y-34428571D02*
X112928571Y-34428571D01*
X112500000Y-35928571D02*
X112500000Y-34428571D01*
X113500000Y-34428571D02*
X113500000Y-34500000D01*
X113428571Y-34642857D01*
X113357142Y-34714285D01*
X114071428Y-35857142D02*
X114285714Y-35928571D01*
X114642857Y-35928571D01*
X114785714Y-35857142D01*
X114857142Y-35785714D01*
X114928571Y-35642857D01*
X114928571Y-35500000D01*
X114857142Y-35357142D01*
X114785714Y-35285714D01*
X114642857Y-35214285D01*
X114357142Y-35142857D01*
X114214285Y-35071428D01*
X114142857Y-35000000D01*
X114071428Y-34857142D01*
X114071428Y-34714285D01*
X114142857Y-34571428D01*
X114214285Y-34500000D01*
X114357142Y-34428571D01*
X114714285Y-34428571D01*
X114928571Y-34500000D01*
X116714285Y-35928571D02*
X116714285Y-34428571D01*
X117571428Y-35928571D01*
X117571428Y-34428571D01*
X118571428Y-34428571D02*
X118857142Y-34428571D01*
X119000000Y-34500000D01*
X119142857Y-34642857D01*
X119214285Y-34928571D01*
X119214285Y-35428571D01*
X119142857Y-35714285D01*
X119000000Y-35857142D01*
X118857142Y-35928571D01*
X118571428Y-35928571D01*
X118428571Y-35857142D01*
X118285714Y-35714285D01*
X118214285Y-35428571D01*
X118214285Y-34928571D01*
X118285714Y-34642857D01*
X118428571Y-34500000D01*
X118571428Y-34428571D01*
X119642857Y-34428571D02*
X120500000Y-34428571D01*
X120071428Y-35928571D02*
X120071428Y-34428571D01*
X122071428Y-35500000D02*
X122785714Y-35500000D01*
X121928571Y-35928571D02*
X122428571Y-34428571D01*
X122928571Y-35928571D01*
X124357142Y-34428571D02*
X124857142Y-35928571D01*
X125357142Y-34428571D01*
X126714285Y-35785714D02*
X126642857Y-35857142D01*
X126428571Y-35928571D01*
X126285714Y-35928571D01*
X126071428Y-35857142D01*
X125928571Y-35714285D01*
X125857142Y-35571428D01*
X125785714Y-35285714D01*
X125785714Y-35071428D01*
X125857142Y-34785714D01*
X125928571Y-34642857D01*
X126071428Y-34500000D01*
X126285714Y-34428571D01*
X126428571Y-34428571D01*
X126642857Y-34500000D01*
X126714285Y-34571428D01*
X127642857Y-34428571D02*
X127928571Y-34428571D01*
X128071428Y-34500000D01*
X128214285Y-34642857D01*
X128285714Y-34928571D01*
X128285714Y-35428571D01*
X128214285Y-35714285D01*
X128071428Y-35857142D01*
X127928571Y-35928571D01*
X127642857Y-35928571D01*
X127500000Y-35857142D01*
X127357142Y-35714285D01*
X127285714Y-35428571D01*
X127285714Y-34928571D01*
X127357142Y-34642857D01*
X127500000Y-34500000D01*
X127642857Y-34428571D01*
X128928571Y-35785714D02*
X129000000Y-35857142D01*
X128928571Y-35928571D01*
X128857142Y-35857142D01*
X128928571Y-35785714D01*
X128928571Y-35928571D01*
X128928571Y-35357142D02*
X128857142Y-34500000D01*
X128928571Y-34428571D01*
X129000000Y-34500000D01*
X128928571Y-35357142D01*
X128928571Y-34428571D01*
D11*
X123809523Y-83904761D02*
X123142857Y-82952380D01*
X122666666Y-83904761D02*
X122666666Y-81904761D01*
X123428571Y-81904761D01*
X123619047Y-82000000D01*
X123714285Y-82095238D01*
X123809523Y-82285714D01*
X123809523Y-82571428D01*
X123714285Y-82761904D01*
X123619047Y-82857142D01*
X123428571Y-82952380D01*
X122666666Y-82952380D01*
X124666666Y-82857142D02*
X125333333Y-82857142D01*
X125619047Y-83904761D02*
X124666666Y-83904761D01*
X124666666Y-81904761D01*
X125619047Y-81904761D01*
X126380952Y-83809523D02*
X126666666Y-83904761D01*
X127142857Y-83904761D01*
X127333333Y-83809523D01*
X127428571Y-83714285D01*
X127523809Y-83523809D01*
X127523809Y-83333333D01*
X127428571Y-83142857D01*
X127333333Y-83047619D01*
X127142857Y-82952380D01*
X126761904Y-82857142D01*
X126571428Y-82761904D01*
X126476190Y-82666666D01*
X126380952Y-82476190D01*
X126380952Y-82285714D01*
X126476190Y-82095238D01*
X126571428Y-82000000D01*
X126761904Y-81904761D01*
X127238095Y-81904761D01*
X127523809Y-82000000D01*
X128380952Y-83904761D02*
X128380952Y-81904761D01*
X129142857Y-81904761D01*
X129333333Y-82000000D01*
X129428571Y-82095238D01*
X129523809Y-82285714D01*
X129523809Y-82571428D01*
X129428571Y-82761904D01*
X129333333Y-82857142D01*
X129142857Y-82952380D01*
X128380952Y-82952380D01*
X130761904Y-81904761D02*
X131142857Y-81904761D01*
X131333333Y-82000000D01*
X131523809Y-82190476D01*
X131619047Y-82571428D01*
X131619047Y-83238095D01*
X131523809Y-83619047D01*
X131333333Y-83809523D01*
X131142857Y-83904761D01*
X130761904Y-83904761D01*
X130571428Y-83809523D01*
X130380952Y-83619047D01*
X130285714Y-83238095D01*
X130285714Y-82571428D01*
X130380952Y-82190476D01*
X130571428Y-82000000D01*
X130761904Y-81904761D01*
X132476190Y-83904761D02*
X132476190Y-81904761D01*
X133619047Y-83904761D01*
X133619047Y-81904761D01*
X134476190Y-83809523D02*
X134761904Y-83904761D01*
X135238095Y-83904761D01*
X135428571Y-83809523D01*
X135523809Y-83714285D01*
X135619047Y-83523809D01*
X135619047Y-83333333D01*
X135523809Y-83142857D01*
X135428571Y-83047619D01*
X135238095Y-82952380D01*
X134857142Y-82857142D01*
X134666666Y-82761904D01*
X134571428Y-82666666D01*
X134476190Y-82476190D01*
X134476190Y-82285714D01*
X134571428Y-82095238D01*
X134666666Y-82000000D01*
X134857142Y-81904761D01*
X135333333Y-81904761D01*
X135619047Y-82000000D01*
X136476190Y-82857142D02*
X137142857Y-82857142D01*
X137428571Y-83904761D02*
X136476190Y-83904761D01*
X136476190Y-81904761D01*
X137428571Y-81904761D01*
X124011904Y-66154761D02*
X124011904Y-64154761D01*
X124488095Y-64154761D01*
X124773809Y-64250000D01*
X124964285Y-64440476D01*
X125059523Y-64630952D01*
X125154761Y-65011904D01*
X125154761Y-65297619D01*
X125059523Y-65678571D01*
X124964285Y-65869047D01*
X124773809Y-66059523D01*
X124488095Y-66154761D01*
X124011904Y-66154761D01*
X126011904Y-65107142D02*
X126678571Y-65107142D01*
X126964285Y-66154761D02*
X126011904Y-66154761D01*
X126011904Y-64154761D01*
X126964285Y-64154761D01*
X128964285Y-65964285D02*
X128869047Y-66059523D01*
X128583333Y-66154761D01*
X128392857Y-66154761D01*
X128107142Y-66059523D01*
X127916666Y-65869047D01*
X127821428Y-65678571D01*
X127726190Y-65297619D01*
X127726190Y-65011904D01*
X127821428Y-64630952D01*
X127916666Y-64440476D01*
X128107142Y-64250000D01*
X128392857Y-64154761D01*
X128583333Y-64154761D01*
X128869047Y-64250000D01*
X128964285Y-64345238D01*
X129726190Y-65583333D02*
X130678571Y-65583333D01*
X129535714Y-66154761D02*
X130202380Y-64154761D01*
X130869047Y-66154761D01*
X131916666Y-65202380D02*
X131916666Y-66154761D01*
X131250000Y-64154761D02*
X131916666Y-65202380D01*
X132583333Y-64154761D01*
X134678571Y-64059523D02*
X132964285Y-66630952D01*
X136678571Y-66345238D02*
X136488095Y-66250000D01*
X136297619Y-66059523D01*
X136011904Y-65773809D01*
X135821428Y-65678571D01*
X135630952Y-65678571D01*
X135726190Y-66154761D02*
X135535714Y-66059523D01*
X135345238Y-65869047D01*
X135250000Y-65488095D01*
X135250000Y-64821428D01*
X135345238Y-64440476D01*
X135535714Y-64250000D01*
X135726190Y-64154761D01*
X136107142Y-64154761D01*
X136297619Y-64250000D01*
X136488095Y-64440476D01*
X136583333Y-64821428D01*
X136583333Y-65488095D01*
X136488095Y-65869047D01*
X136297619Y-66059523D01*
X136107142Y-66154761D01*
X135726190Y-66154761D01*
X124488095Y-47583333D02*
X125440476Y-47583333D01*
X124297619Y-48154761D02*
X124964285Y-46154761D01*
X125630952Y-48154761D01*
X126011904Y-46154761D02*
X127154761Y-46154761D01*
X126583333Y-48154761D02*
X126583333Y-46154761D01*
X127535714Y-46154761D02*
X128678571Y-46154761D01*
X128107142Y-48154761D02*
X128107142Y-46154761D01*
X130773809Y-46059523D02*
X129059523Y-48630952D01*
X131154761Y-46154761D02*
X131821428Y-48154761D01*
X132488095Y-46154761D01*
X134297619Y-47964285D02*
X134202380Y-48059523D01*
X133916666Y-48154761D01*
X133726190Y-48154761D01*
X133440476Y-48059523D01*
X133250000Y-47869047D01*
X133154761Y-47678571D01*
X133059523Y-47297619D01*
X133059523Y-47011904D01*
X133154761Y-46630952D01*
X133250000Y-46440476D01*
X133440476Y-46250000D01*
X133726190Y-46154761D01*
X133916666Y-46154761D01*
X134202380Y-46250000D01*
X134297619Y-46345238D01*
X135821428Y-47107142D02*
X135154761Y-47107142D01*
X135154761Y-48154761D02*
X135154761Y-46154761D01*
X136107142Y-46154761D01*
X107083333Y-47107142D02*
X106416666Y-47107142D01*
X106416666Y-48154761D02*
X106416666Y-46154761D01*
X107369047Y-46154761D01*
X109273809Y-48154761D02*
X108607142Y-47202380D01*
X108130952Y-48154761D02*
X108130952Y-46154761D01*
X108892857Y-46154761D01*
X109083333Y-46250000D01*
X109178571Y-46345238D01*
X109273809Y-46535714D01*
X109273809Y-46821428D01*
X109178571Y-47011904D01*
X109083333Y-47107142D01*
X108892857Y-47202380D01*
X108130952Y-47202380D01*
X110130952Y-47107142D02*
X110797619Y-47107142D01*
X111083333Y-48154761D02*
X110130952Y-48154761D01*
X110130952Y-46154761D01*
X111083333Y-46154761D01*
X113273809Y-48345238D02*
X113083333Y-48250000D01*
X112892857Y-48059523D01*
X112607142Y-47773809D01*
X112416666Y-47678571D01*
X112226190Y-47678571D01*
X112321428Y-48154761D02*
X112130952Y-48059523D01*
X111940476Y-47869047D01*
X111845238Y-47488095D01*
X111845238Y-46821428D01*
X111940476Y-46440476D01*
X112130952Y-46250000D01*
X112321428Y-46154761D01*
X112702380Y-46154761D01*
X112892857Y-46250000D01*
X113083333Y-46440476D01*
X113178571Y-46821428D01*
X113178571Y-47488095D01*
X113083333Y-47869047D01*
X112892857Y-48059523D01*
X112702380Y-48154761D01*
X112321428Y-48154761D01*
X107357142Y-65107142D02*
X106690476Y-65107142D01*
X106690476Y-66154761D02*
X106690476Y-64154761D01*
X107642857Y-64154761D01*
X108404761Y-66154761D02*
X108404761Y-64154761D01*
X109357142Y-66154761D02*
X109357142Y-64154761D01*
X110500000Y-66154761D01*
X110500000Y-64154761D01*
X111452380Y-65107142D02*
X112119047Y-65107142D01*
X112404761Y-66154761D02*
X111452380Y-66154761D01*
X111452380Y-64154761D01*
X112404761Y-64154761D01*
X109261904Y-83714285D02*
X109166666Y-83809523D01*
X108880952Y-83904761D01*
X108690476Y-83904761D01*
X108404761Y-83809523D01*
X108214285Y-83619047D01*
X108119047Y-83428571D01*
X108023809Y-83047619D01*
X108023809Y-82761904D01*
X108119047Y-82380952D01*
X108214285Y-82190476D01*
X108404761Y-82000000D01*
X108690476Y-81904761D01*
X108880952Y-81904761D01*
X109166666Y-82000000D01*
X109261904Y-82095238D01*
X109833333Y-81904761D02*
X110500000Y-83904761D01*
X111166666Y-81904761D01*
X132750000Y-119154761D02*
X133130952Y-119154761D01*
X133321428Y-119250000D01*
X133511904Y-119440476D01*
X133607142Y-119821428D01*
X133607142Y-120488095D01*
X133511904Y-120869047D01*
X133321428Y-121059523D01*
X133130952Y-121154761D01*
X132750000Y-121154761D01*
X132559523Y-121059523D01*
X132369047Y-120869047D01*
X132273809Y-120488095D01*
X132273809Y-119821428D01*
X132369047Y-119440476D01*
X132559523Y-119250000D01*
X132750000Y-119154761D01*
X134464285Y-119154761D02*
X134464285Y-120773809D01*
X134559523Y-120964285D01*
X134654761Y-121059523D01*
X134845238Y-121154761D01*
X135226190Y-121154761D01*
X135416666Y-121059523D01*
X135511904Y-120964285D01*
X135607142Y-120773809D01*
X135607142Y-119154761D01*
X136273809Y-119154761D02*
X137416666Y-119154761D01*
X136845238Y-121154761D02*
X136845238Y-119154761D01*
X123428571Y-121154761D02*
X122476190Y-121154761D01*
X122476190Y-119154761D01*
X124476190Y-119154761D02*
X124857142Y-119154761D01*
X125047619Y-119250000D01*
X125238095Y-119440476D01*
X125333333Y-119821428D01*
X125333333Y-120488095D01*
X125238095Y-120869047D01*
X125047619Y-121059523D01*
X124857142Y-121154761D01*
X124476190Y-121154761D01*
X124285714Y-121059523D01*
X124095238Y-120869047D01*
X124000000Y-120488095D01*
X124000000Y-119821428D01*
X124095238Y-119440476D01*
X124285714Y-119250000D01*
X124476190Y-119154761D01*
X126000000Y-119154761D02*
X126476190Y-121154761D01*
X126857142Y-119726190D01*
X127238095Y-121154761D01*
X127714285Y-119154761D01*
X112238095Y-120107142D02*
X112523809Y-120202380D01*
X112619047Y-120297619D01*
X112714285Y-120488095D01*
X112714285Y-120773809D01*
X112619047Y-120964285D01*
X112523809Y-121059523D01*
X112333333Y-121154761D01*
X111571428Y-121154761D01*
X111571428Y-119154761D01*
X112238095Y-119154761D01*
X112428571Y-119250000D01*
X112523809Y-119345238D01*
X112619047Y-119535714D01*
X112619047Y-119726190D01*
X112523809Y-119916666D01*
X112428571Y-120011904D01*
X112238095Y-120107142D01*
X111571428Y-120107142D01*
X113476190Y-120583333D02*
X114428571Y-120583333D01*
X113285714Y-121154761D02*
X113952380Y-119154761D01*
X114619047Y-121154761D01*
X115285714Y-121154761D02*
X115285714Y-119154761D01*
X116428571Y-121154761D01*
X116428571Y-119154761D01*
X117380952Y-121154761D02*
X117380952Y-119154761D01*
X117857142Y-119154761D01*
X118142857Y-119250000D01*
X118333333Y-119440476D01*
X118428571Y-119630952D01*
X118523809Y-120011904D01*
X118523809Y-120297619D01*
X118428571Y-120678571D01*
X118333333Y-120869047D01*
X118142857Y-121059523D01*
X117857142Y-121154761D01*
X117380952Y-121154761D01*
X102476190Y-119154761D02*
X103142857Y-121154761D01*
X103809523Y-119154761D01*
X105619047Y-120964285D02*
X105523809Y-121059523D01*
X105238095Y-121154761D01*
X105047619Y-121154761D01*
X104761904Y-121059523D01*
X104571428Y-120869047D01*
X104476190Y-120678571D01*
X104380952Y-120297619D01*
X104380952Y-120011904D01*
X104476190Y-119630952D01*
X104571428Y-119440476D01*
X104761904Y-119250000D01*
X105047619Y-119154761D01*
X105238095Y-119154761D01*
X105523809Y-119250000D01*
X105619047Y-119345238D01*
X107142857Y-120107142D02*
X106476190Y-120107142D01*
X106476190Y-121154761D02*
X106476190Y-119154761D01*
X107428571Y-119154761D01*
X102869047Y-105404761D02*
X101726190Y-105404761D01*
X102297619Y-105404761D02*
X102297619Y-103404761D01*
X102107142Y-103690476D01*
X101916666Y-103880952D01*
X101726190Y-103976190D01*
X103440476Y-103404761D02*
X104107142Y-105404761D01*
X104773809Y-103404761D01*
X106869047Y-103309523D02*
X105154761Y-105880952D01*
X107916666Y-103404761D02*
X108297619Y-103404761D01*
X108488095Y-103500000D01*
X108678571Y-103690476D01*
X108773809Y-104071428D01*
X108773809Y-104738095D01*
X108678571Y-105119047D01*
X108488095Y-105309523D01*
X108297619Y-105404761D01*
X107916666Y-105404761D01*
X107726190Y-105309523D01*
X107535714Y-105119047D01*
X107440476Y-104738095D01*
X107440476Y-104071428D01*
X107535714Y-103690476D01*
X107726190Y-103500000D01*
X107916666Y-103404761D01*
X132750000Y-103500000D02*
X132559523Y-103404761D01*
X132273809Y-103404761D01*
X131988095Y-103500000D01*
X131797619Y-103690476D01*
X131702380Y-103880952D01*
X131607142Y-104261904D01*
X131607142Y-104547619D01*
X131702380Y-104928571D01*
X131797619Y-105119047D01*
X131988095Y-105309523D01*
X132273809Y-105404761D01*
X132464285Y-105404761D01*
X132750000Y-105309523D01*
X132845238Y-105214285D01*
X132845238Y-104547619D01*
X132464285Y-104547619D01*
X133607142Y-104833333D02*
X134559523Y-104833333D01*
X133416666Y-105404761D02*
X134083333Y-103404761D01*
X134750000Y-105404761D01*
X135130952Y-103404761D02*
X136273809Y-103404761D01*
X135702380Y-105404761D02*
X135702380Y-103404761D01*
X136940476Y-104357142D02*
X137607142Y-104357142D01*
X137892857Y-105404761D02*
X136940476Y-105404761D01*
X136940476Y-103404761D01*
X137892857Y-103404761D01*
X122666666Y-104357142D02*
X123333333Y-104357142D01*
X123619047Y-105404761D02*
X122666666Y-105404761D01*
X122666666Y-103404761D01*
X123619047Y-103404761D01*
X124476190Y-105404761D02*
X124476190Y-103404761D01*
X125619047Y-105404761D01*
X125619047Y-103404761D01*
X126285714Y-103404761D02*
X126952380Y-105404761D01*
X127619047Y-103404761D01*
X114761904Y-104964285D02*
X114666666Y-105059523D01*
X114380952Y-105154761D01*
X114190476Y-105154761D01*
X113904761Y-105059523D01*
X113714285Y-104869047D01*
X113619047Y-104678571D01*
X113523809Y-104297619D01*
X113523809Y-104011904D01*
X113619047Y-103630952D01*
X113714285Y-103440476D01*
X113904761Y-103250000D01*
X114190476Y-103154761D01*
X114380952Y-103154761D01*
X114666666Y-103250000D01*
X114761904Y-103345238D01*
X115333333Y-103154761D02*
X116000000Y-105154761D01*
X116666666Y-103154761D01*
M02*
