G04 #@! TF.GenerationSoftware,KiCad,Pcbnew,(5.1.5-0)*
G04 #@! TF.CreationDate,2021-01-12T22:40:15-08:00*
G04 #@! TF.ProjectId,icbina,69636269-6e61-42e6-9b69-6361645f7063,rev?*
G04 #@! TF.SameCoordinates,Original*
G04 #@! TF.FileFunction,Soldermask,Top*
G04 #@! TF.FilePolarity,Negative*
%FSLAX46Y46*%
G04 Gerber Fmt 4.6, Leading zero omitted, Abs format (unit mm)*
G04 Created by KiCad (PCBNEW (5.1.5-0)) date 2021-01-12 22:40:15*
%MOMM*%
%LPD*%
G04 APERTURE LIST*
%ADD10C,0.100000*%
%ADD11C,0.000002*%
%ADD12C,0.001000*%
G04 APERTURE END LIST*
D10*
G36*
X118500000Y-131250000D02*
G01*
X111500000Y-131250000D01*
X111500000Y-124000000D01*
X118500000Y-124000000D01*
X118500000Y-131250000D01*
G37*
X118500000Y-131250000D02*
X111500000Y-131250000D01*
X111500000Y-124000000D01*
X118500000Y-124000000D01*
X118500000Y-131250000D01*
G36*
X128500000Y-131250000D02*
G01*
X121500000Y-131250000D01*
X121500000Y-124000000D01*
X128500000Y-124000000D01*
X128500000Y-131250000D01*
G37*
X128500000Y-131250000D02*
X121500000Y-131250000D01*
X121500000Y-124000000D01*
X128500000Y-124000000D01*
X128500000Y-131250000D01*
G36*
X138500000Y-131250000D02*
G01*
X131500000Y-131250000D01*
X131500000Y-124000000D01*
X138500000Y-124000000D01*
X138500000Y-131250000D01*
G37*
X138500000Y-131250000D02*
X131500000Y-131250000D01*
X131500000Y-124000000D01*
X138500000Y-124000000D01*
X138500000Y-131250000D01*
G36*
X120660400Y-153647650D02*
G01*
X121212850Y-153927050D01*
X121539875Y-154254075D01*
X121674813Y-154484263D01*
X121906588Y-154754138D01*
X121600200Y-154670000D01*
X121346200Y-154593800D01*
X121168400Y-154530300D01*
X120793750Y-154396950D01*
X120434975Y-154203275D01*
X120174625Y-153917525D01*
X120050800Y-153755600D01*
X120114300Y-153793700D01*
X120088900Y-153730200D01*
X120152400Y-153558750D01*
X120660400Y-153647650D01*
G37*
X120660400Y-153647650D02*
X121212850Y-153927050D01*
X121539875Y-154254075D01*
X121674813Y-154484263D01*
X121906588Y-154754138D01*
X121600200Y-154670000D01*
X121346200Y-154593800D01*
X121168400Y-154530300D01*
X120793750Y-154396950D01*
X120434975Y-154203275D01*
X120174625Y-153917525D01*
X120050800Y-153755600D01*
X120114300Y-153793700D01*
X120088900Y-153730200D01*
X120152400Y-153558750D01*
X120660400Y-153647650D01*
G36*
X119866650Y-153666700D02*
G01*
X119498350Y-154098500D01*
X119060200Y-154371550D01*
X118679200Y-154511250D01*
X117929900Y-154676350D01*
X118412500Y-154149300D01*
X118806200Y-153882600D01*
X119174500Y-153679400D01*
X119644400Y-153603200D01*
X119669800Y-153603200D01*
X119866650Y-153666700D01*
G37*
X119866650Y-153666700D02*
X119498350Y-154098500D01*
X119060200Y-154371550D01*
X118679200Y-154511250D01*
X117929900Y-154676350D01*
X118412500Y-154149300D01*
X118806200Y-153882600D01*
X119174500Y-153679400D01*
X119644400Y-153603200D01*
X119669800Y-153603200D01*
X119866650Y-153666700D01*
G36*
X123073400Y-152638000D02*
G01*
X123505200Y-152663400D01*
X124083207Y-152673943D01*
X123403600Y-152828500D01*
X122971800Y-153019000D01*
X122628900Y-153234900D01*
X122209800Y-153400000D01*
X121676400Y-153488900D01*
X121231900Y-153514300D01*
X120654050Y-153495250D01*
X120076200Y-153476200D01*
X120012700Y-153400000D01*
X120228600Y-153336500D01*
X120235585Y-153285700D01*
X120551815Y-153158700D01*
X121085850Y-152930100D01*
X121638300Y-152726900D01*
X122032000Y-152612600D01*
X122476500Y-152612600D01*
X123073400Y-152638000D01*
G37*
X123073400Y-152638000D02*
X123505200Y-152663400D01*
X124083207Y-152673943D01*
X123403600Y-152828500D01*
X122971800Y-153019000D01*
X122628900Y-153234900D01*
X122209800Y-153400000D01*
X121676400Y-153488900D01*
X121231900Y-153514300D01*
X120654050Y-153495250D01*
X120076200Y-153476200D01*
X120012700Y-153400000D01*
X120228600Y-153336500D01*
X120235585Y-153285700D01*
X120551815Y-153158700D01*
X121085850Y-152930100D01*
X121638300Y-152726900D01*
X122032000Y-152612600D01*
X122476500Y-152612600D01*
X123073400Y-152638000D01*
G36*
X123060700Y-149983700D02*
G01*
X122819400Y-150479000D01*
X122616200Y-150936200D01*
X122355850Y-151456900D01*
X122082800Y-151812500D01*
X121771650Y-152225250D01*
X121301750Y-152618950D01*
X120800100Y-152955500D01*
X119695200Y-153552400D01*
X119720600Y-153222200D01*
X120025400Y-153171400D01*
X120273050Y-152733250D01*
X120488950Y-152269700D01*
X120654050Y-151939500D01*
X120838200Y-151647400D01*
X121003300Y-151329900D01*
X121282700Y-150974300D01*
X121562100Y-150656800D01*
X121892300Y-150364700D01*
X122235200Y-150136100D01*
X122616200Y-149882100D01*
X123009900Y-149615400D01*
X123543300Y-149221700D01*
X123060700Y-149983700D01*
G37*
X123060700Y-149983700D02*
X122819400Y-150479000D01*
X122616200Y-150936200D01*
X122355850Y-151456900D01*
X122082800Y-151812500D01*
X121771650Y-152225250D01*
X121301750Y-152618950D01*
X120800100Y-152955500D01*
X119695200Y-153552400D01*
X119720600Y-153222200D01*
X120025400Y-153171400D01*
X120273050Y-152733250D01*
X120488950Y-152269700D01*
X120654050Y-151939500D01*
X120838200Y-151647400D01*
X121003300Y-151329900D01*
X121282700Y-150974300D01*
X121562100Y-150656800D01*
X121892300Y-150364700D01*
X122235200Y-150136100D01*
X122616200Y-149882100D01*
X123009900Y-149615400D01*
X123543300Y-149221700D01*
X123060700Y-149983700D01*
G36*
X120215900Y-147850100D02*
G01*
X120317500Y-148332700D01*
X120431800Y-148789900D01*
X120514350Y-149120100D01*
X120577850Y-149501100D01*
X120622300Y-150021800D01*
X120622300Y-150555200D01*
X120571500Y-151139400D01*
X120508000Y-151660100D01*
X120365125Y-152155400D01*
X120066675Y-153171400D01*
X119853950Y-153120600D01*
X119619000Y-152206200D01*
X119445962Y-151342600D01*
X119461837Y-150555200D01*
X119514225Y-149894800D01*
X119676150Y-149120100D01*
X119911100Y-148307300D01*
X120038100Y-147532600D01*
X120101600Y-147011900D01*
X120215900Y-147850100D01*
G37*
X120215900Y-147850100D02*
X120317500Y-148332700D01*
X120431800Y-148789900D01*
X120514350Y-149120100D01*
X120577850Y-149501100D01*
X120622300Y-150021800D01*
X120622300Y-150555200D01*
X120571500Y-151139400D01*
X120508000Y-151660100D01*
X120365125Y-152155400D01*
X120066675Y-153171400D01*
X119853950Y-153120600D01*
X119619000Y-152206200D01*
X119445962Y-151342600D01*
X119461837Y-150555200D01*
X119514225Y-149894800D01*
X119676150Y-149120100D01*
X119911100Y-148307300D01*
X120038100Y-147532600D01*
X120101600Y-147011900D01*
X120215900Y-147850100D01*
G36*
X116596400Y-149424900D02*
G01*
X116913900Y-149666200D01*
X117479050Y-149983700D01*
X118075950Y-150415500D01*
X118450600Y-150796500D01*
X118850650Y-151361650D01*
X119447550Y-152542750D01*
X119746000Y-153107900D01*
X119758700Y-153120600D01*
X119428500Y-153146000D01*
X119326900Y-153095200D01*
X118971300Y-152847550D01*
X118564900Y-152479250D01*
X118234700Y-152130000D01*
X117879100Y-151698200D01*
X117599700Y-151279100D01*
X117409200Y-151025100D01*
X117155200Y-150567900D01*
X116901200Y-150199600D01*
X116659900Y-149780500D01*
X116380500Y-149221700D01*
X116596400Y-149424900D01*
G37*
X116596400Y-149424900D02*
X116913900Y-149666200D01*
X117479050Y-149983700D01*
X118075950Y-150415500D01*
X118450600Y-150796500D01*
X118850650Y-151361650D01*
X119447550Y-152542750D01*
X119746000Y-153107900D01*
X119758700Y-153120600D01*
X119428500Y-153146000D01*
X119326900Y-153095200D01*
X118971300Y-152847550D01*
X118564900Y-152479250D01*
X118234700Y-152130000D01*
X117879100Y-151698200D01*
X117599700Y-151279100D01*
X117409200Y-151025100D01*
X117155200Y-150567900D01*
X116901200Y-150199600D01*
X116659900Y-149780500D01*
X116380500Y-149221700D01*
X116596400Y-149424900D01*
G36*
X118002925Y-152603075D02*
G01*
X118339475Y-152698325D01*
X118603000Y-152790400D01*
X119301500Y-153196800D01*
X119331980Y-153224740D01*
X119339600Y-153209500D01*
X119339600Y-153222200D01*
X119331980Y-153224740D01*
X119250700Y-153387300D01*
X119644400Y-153527000D01*
X119434850Y-153552400D01*
X119041150Y-153577800D01*
X118564900Y-153577800D01*
X118120400Y-153514300D01*
X117637800Y-153400000D01*
X117244100Y-153285700D01*
X116837700Y-153057100D01*
X116520200Y-152828500D01*
X116113800Y-152701500D01*
X116761500Y-152650700D01*
X117294900Y-152612600D01*
X117758450Y-152606250D01*
X118002925Y-152603075D01*
G37*
X118002925Y-152603075D02*
X118339475Y-152698325D01*
X118603000Y-152790400D01*
X119301500Y-153196800D01*
X119331980Y-153224740D01*
X119339600Y-153209500D01*
X119339600Y-153222200D01*
X119331980Y-153224740D01*
X119250700Y-153387300D01*
X119644400Y-153527000D01*
X119434850Y-153552400D01*
X119041150Y-153577800D01*
X118564900Y-153577800D01*
X118120400Y-153514300D01*
X117637800Y-153400000D01*
X117244100Y-153285700D01*
X116837700Y-153057100D01*
X116520200Y-152828500D01*
X116113800Y-152701500D01*
X116761500Y-152650700D01*
X117294900Y-152612600D01*
X117758450Y-152606250D01*
X118002925Y-152603075D01*
G36*
X120000000Y-153184100D02*
G01*
X119788862Y-153377775D01*
X120007937Y-153473025D01*
X120758825Y-154015950D01*
X120577850Y-154111200D01*
X120000000Y-153654000D01*
X120012700Y-154746200D01*
X119898400Y-154606500D01*
X119892050Y-153717500D01*
X119936500Y-153717500D01*
X119555500Y-153501600D01*
X119269750Y-153349200D01*
X119434850Y-153069800D01*
X120000000Y-153184100D01*
G37*
X120000000Y-153184100D02*
X119788862Y-153377775D01*
X120007937Y-153473025D01*
X120758825Y-154015950D01*
X120577850Y-154111200D01*
X120000000Y-153654000D01*
X120012700Y-154746200D01*
X119898400Y-154606500D01*
X119892050Y-153717500D01*
X119936500Y-153717500D01*
X119555500Y-153501600D01*
X119269750Y-153349200D01*
X119434850Y-153069800D01*
X120000000Y-153184100D01*
D11*
X119479586Y-151496968D02*
X119486414Y-151563404D01*
X116060628Y-152685206D02*
G75*
G02X116062745Y-152680474I8833J-1112D01*
G01*
X116062745Y-152680475D02*
G75*
G02X116067170Y-152677659I6961J-6056D01*
G01*
X116067171Y-152677659D02*
G75*
G02X116076272Y-152675641I21302J-74534D01*
G01*
X116119176Y-152669928D02*
X116076272Y-152675641D01*
X116175382Y-152664579D02*
X116119176Y-152669928D01*
X116249523Y-152659059D02*
X116175382Y-152664579D01*
X116350810Y-152652773D02*
X116249523Y-152659059D01*
X116464250Y-152645535D02*
X116350810Y-152652773D01*
X116555159Y-152638329D02*
X116464250Y-152645535D01*
X116635946Y-152630142D02*
X116555159Y-152638329D01*
X116717522Y-152619967D02*
X116635946Y-152630142D01*
X116795588Y-152610763D02*
X116717522Y-152619967D01*
X116894548Y-152601810D02*
X116795588Y-152610763D01*
X117002731Y-152593949D02*
X116894548Y-152601810D01*
X117110022Y-152588039D02*
X117002731Y-152593949D01*
X117158893Y-152585783D02*
X117110022Y-152588039D01*
X117228084Y-152582592D02*
X117158893Y-152585783D01*
X117303746Y-152579104D02*
X117228084Y-152582592D01*
X117375022Y-152575821D02*
X117303746Y-152579104D01*
X117542892Y-152568843D02*
X117375022Y-152575821D01*
X117717753Y-152563052D02*
X117542892Y-152568843D01*
X117891324Y-152558069D02*
X117717753Y-152563052D01*
X117891324Y-152558069D02*
G75*
G02X117900393Y-152560507I462J-16364D01*
G01*
X117903889Y-152561762D02*
G75*
G02X117900393Y-152560507I1209J8867D01*
G01*
X117919388Y-152563775D02*
X117903889Y-152561762D01*
X117937771Y-152565819D02*
X117919388Y-152563775D01*
X117958715Y-152567713D02*
X117937771Y-152565819D01*
X119470054Y-151387481D02*
X119472649Y-151417124D01*
X120612378Y-153547086D02*
X120657522Y-153550622D01*
X120563537Y-153543388D02*
X120612378Y-153547086D01*
X120518194Y-153540058D02*
X120563537Y-153543388D01*
X120485022Y-153537755D02*
X120518194Y-153540058D01*
X120453615Y-153535486D02*
X120485022Y-153537755D01*
X120414584Y-153532326D02*
X120453615Y-153535486D01*
X120374606Y-153528849D02*
X120414584Y-153532326D01*
X120340022Y-153525579D02*
X120374606Y-153528849D01*
X120278512Y-153520402D02*
X120340022Y-153525579D01*
X120226901Y-153518134D02*
X120278512Y-153520402D01*
X118831364Y-151280665D02*
X118702584Y-151073051D01*
X118960123Y-151510277D02*
X118831364Y-151280665D01*
X120263811Y-153544985D02*
X120225611Y-153537712D01*
X120301820Y-153551668D02*
X120263811Y-153544985D01*
X120327522Y-153555429D02*
X120301820Y-153551668D01*
X120327522Y-153555429D02*
G75*
G02X120415850Y-153571576I-96572J-777952D01*
G01*
X120542223Y-153604860D02*
X120415850Y-153571576D01*
X120681550Y-153647366D02*
X120542223Y-153604860D01*
X120815022Y-153694009D02*
X120681550Y-153647366D01*
X120858649Y-153711046D02*
X120815022Y-153694009D01*
X120904637Y-153730487D02*
X120858649Y-153711046D01*
X120952079Y-153751930D02*
X120904637Y-153730487D01*
X121000085Y-153774987D02*
X120952079Y-153751930D01*
X121000085Y-153774988D02*
G75*
G02X121152408Y-153862179I-639105J-1293158D01*
G01*
X119600081Y-152247260D02*
X119602098Y-152257528D01*
X122620021Y-150915299D02*
G75*
G02X122619743Y-150916562I-3003J0D01*
G01*
X122611209Y-150934952D02*
X122619743Y-150916562D01*
X122601523Y-150955632D02*
X122611209Y-150934952D01*
X122590022Y-150979870D02*
X122601523Y-150955632D01*
X122578521Y-151004146D02*
X122590022Y-150979870D01*
X122568834Y-151024951D02*
X122578521Y-151004146D01*
X122560385Y-151043329D02*
X122568834Y-151024951D01*
X122560021Y-151044995D02*
G75*
G02X122560385Y-151043329I3995J0D01*
G01*
X122560021Y-151044995D02*
G75*
G02X122559292Y-151048297I-7840J0D01*
G01*
X122520677Y-151131421D02*
X122559292Y-151048297D01*
X122477758Y-151223339D02*
X122520677Y-151131421D01*
X122427442Y-151330277D02*
X122477758Y-151223339D01*
X122404537Y-151378174D02*
X122427442Y-151330277D01*
X122376801Y-151434980D02*
X122404537Y-151378174D01*
X122347730Y-151493998D02*
X122376801Y-151434980D01*
X122347731Y-151493997D02*
G75*
G02X122345022Y-151497777I-12801J6311D01*
G01*
X122343589Y-151499614D02*
G75*
G02X122345022Y-151497777I8150J-4881D01*
G01*
X122340177Y-151505418D02*
X122343588Y-151499615D01*
X122336238Y-151512435D02*
X122340177Y-151505418D01*
X122332041Y-151520277D02*
X122336238Y-151512435D01*
X122323008Y-151537116D02*
X122332041Y-151520277D01*
X122312309Y-151556309D02*
X122323008Y-151537116D01*
X122301117Y-151575799D02*
X122312309Y-151556309D01*
X122290563Y-151593576D02*
X122301117Y-151575799D01*
X122286359Y-151600601D02*
X122290563Y-151593576D01*
X122279895Y-151611546D02*
X122286359Y-151600601D01*
X122272630Y-151623921D02*
X122279895Y-151611546D01*
X122265538Y-151636076D02*
X122272630Y-151623921D01*
X122265539Y-151636076D02*
G75*
G02X122176513Y-151774537I-1594117J927112D01*
G01*
X122060765Y-151928716D02*
X122176513Y-151774537D01*
X121929379Y-152085115D02*
X122060765Y-151928716D01*
X121792561Y-152230767D02*
X121929379Y-152085115D01*
X121792561Y-152230767D02*
G75*
G02X121512462Y-152488051I-2992746J2977019D01*
G01*
X121202444Y-152726945D02*
X121512462Y-152488051D01*
X120846530Y-152958868D02*
X121202444Y-152726945D01*
X120427522Y-153195384D02*
X120846530Y-152958868D01*
X120407210Y-153206206D02*
X120427522Y-153195384D01*
X120383256Y-153219049D02*
X120407210Y-153206206D01*
X120359541Y-153231825D02*
X120383256Y-153219049D01*
X120340022Y-153242411D02*
X120359541Y-153231825D01*
X120322766Y-153251769D02*
X120340022Y-153242411D01*
X120306062Y-153260749D02*
X120322766Y-153251769D01*
X120291782Y-153268359D02*
X120306062Y-153260749D01*
X120284097Y-153272337D02*
X120291782Y-153268359D01*
X120267847Y-153282144D02*
G75*
G02X120284097Y-153272337I73169J-102870D01*
G01*
X120251467Y-153295234D02*
G75*
G02X120267847Y-153282145I125077J-139731D01*
G01*
X120238112Y-153308375D02*
G75*
G02X120251467Y-153295234I145858J-134885D01*
G01*
X120235021Y-153316267D02*
G75*
G02X120238111Y-153308375I11624J0D01*
G01*
X120235871Y-153319781D02*
G75*
G02X120235022Y-153316267I6849J3514D01*
G01*
X120238155Y-153321737D02*
G75*
G02X120235870Y-153319780I1247J3768D01*
G01*
X120242397Y-153322198D02*
G75*
G02X120238155Y-153321737I-1044J10127D01*
G01*
X120249641Y-153321103D02*
G75*
G02X120242398Y-153322199I-15184J75919D01*
G01*
X120268149Y-153315366D02*
G75*
G02X120249641Y-153321104I-36945J86448D01*
G01*
X120328992Y-153289023D02*
X120268149Y-153315366D01*
X120396972Y-153258528D02*
X120328992Y-153289023D01*
X120465022Y-153226643D02*
X120396972Y-153258528D01*
X120488044Y-153215656D02*
X120465022Y-153226643D01*
X120513850Y-153203400D02*
X120488044Y-153215656D01*
X120538478Y-153191750D02*
X120513850Y-153203400D01*
X120557522Y-153182798D02*
X120538478Y-153191750D01*
X120577497Y-153173393D02*
X120557522Y-153182798D01*
X120605600Y-153160054D02*
X120577497Y-153173393D01*
X120636247Y-153145444D02*
X120605600Y-153160054D01*
X120665022Y-153131661D02*
X120636247Y-153145444D01*
X120719936Y-153105361D02*
X120665022Y-153131661D01*
X120761702Y-153085535D02*
X120719936Y-153105361D01*
X120796707Y-153069148D02*
X120761702Y-153085535D01*
X120830022Y-153053816D02*
X120796707Y-153069148D01*
X120865354Y-153037574D02*
X120830022Y-153053816D01*
X120931774Y-153006749D02*
X120865354Y-153037574D01*
X120999694Y-152975132D02*
X120931774Y-153006749D01*
X121047522Y-152952733D02*
X120999694Y-152975132D01*
X121194502Y-152884657D02*
X121047522Y-152952733D01*
X121345333Y-152816903D02*
X121194502Y-152884657D01*
X121483653Y-152756658D02*
X121345333Y-152816903D01*
X121590022Y-152712680D02*
X121483653Y-152756658D01*
X121643337Y-152691611D02*
X121590022Y-152712680D01*
X121678135Y-152678359D02*
X121643337Y-152691611D01*
X121707932Y-152667769D02*
X121678135Y-152678359D01*
X121742522Y-152656289D02*
X121707932Y-152667769D01*
X121801620Y-152638467D02*
X121742522Y-152656289D01*
X121863071Y-152622384D02*
X121801620Y-152638467D01*
X121924574Y-152608597D02*
X121863071Y-152622384D01*
X121983822Y-152597669D02*
X121924574Y-152608597D01*
X122025789Y-152591782D02*
X121983822Y-152597669D01*
X122061324Y-152588975D02*
X122025789Y-152591782D01*
X122105896Y-152588261D02*
X122061324Y-152588975D01*
X122186322Y-152589370D02*
X122105896Y-152588261D01*
X122243234Y-152590735D02*
X122186322Y-152589370D01*
X122301607Y-152592737D02*
X122243234Y-152590735D01*
X122353546Y-152595032D02*
X122301607Y-152592737D01*
X122387522Y-152597267D02*
X122353546Y-152595032D01*
X122418287Y-152599702D02*
X122387522Y-152597267D01*
X122457662Y-152602627D02*
X122418287Y-152599702D01*
X122498691Y-152605545D02*
X122457662Y-152602627D01*
X122535022Y-152607990D02*
X122498691Y-152605545D01*
X122572057Y-152610418D02*
X122535022Y-152607990D01*
X122615318Y-152613293D02*
X122572057Y-152610418D01*
X122657867Y-152616150D02*
X122615318Y-152613293D01*
X122692522Y-152618510D02*
X122657867Y-152616150D01*
X122745145Y-152620680D02*
X122692522Y-152618510D01*
X122937897Y-152623130D02*
X122745145Y-152620680D01*
X123166132Y-152625346D02*
X122937897Y-152623130D01*
X123422522Y-152626997D02*
X123166132Y-152625346D01*
X123760194Y-152628974D02*
X123422522Y-152626997D01*
X123946598Y-152630953D02*
X123760194Y-152628974D01*
X124075267Y-152633028D02*
X123946598Y-152630953D01*
X124075267Y-152633028D02*
G75*
G02X124088772Y-152636729I-500J-28318D01*
G01*
X124088772Y-152636728D02*
G75*
G02X124097766Y-152645160I-13045J-22929D01*
G01*
X124097766Y-152645160D02*
G75*
G02X124100023Y-152655412I-12281J-8079D01*
G01*
X124100023Y-152655413D02*
G75*
G02X124094871Y-152665674I-18220J2725D01*
G01*
X124094870Y-152665673D02*
G75*
G02X124083207Y-152673943I-29662J29474D01*
G01*
X124083208Y-152673944D02*
G75*
G02X124065174Y-152681131I-63623J133418D01*
G01*
X124000776Y-152701805D02*
X124065174Y-152681131D01*
X123938093Y-152721392D02*
X124000776Y-152701805D01*
X123902522Y-152731377D02*
X123938093Y-152721392D01*
X123773171Y-152768169D02*
X123902522Y-152731377D01*
X123598786Y-152825203D02*
X123773171Y-152768169D01*
X123419767Y-152888251D02*
X123598786Y-152825203D01*
X123272522Y-152945274D02*
X123419767Y-152888251D01*
X123149199Y-152998078D02*
X123272522Y-152945274D01*
X123003927Y-153064591D02*
X123149199Y-152998078D01*
X122862600Y-153132490D02*
X123003927Y-153064591D01*
X122752522Y-153189199D02*
X122862600Y-153132490D01*
X122618504Y-153260433D02*
X122752522Y-153189199D01*
X122533440Y-153302696D02*
X122618504Y-153260433D01*
X122458987Y-153335131D02*
X122533440Y-153302696D01*
X122367522Y-153370178D02*
X122458987Y-153335131D01*
X122292423Y-153397307D02*
X122367522Y-153370178D01*
X122252851Y-153410723D02*
X122292423Y-153397307D01*
X122213400Y-153422598D02*
X122252851Y-153410723D01*
X122140022Y-153443034D02*
X122213400Y-153422598D01*
X122020804Y-153472545D02*
X122140022Y-153443034D01*
X121883620Y-153500279D02*
X122020804Y-153472545D01*
X121745884Y-153523156D02*
X121883620Y-153500279D01*
X121625022Y-153537838D02*
X121745884Y-153523156D01*
X121601013Y-153540138D02*
X121625022Y-153537838D01*
X121566506Y-153543487D02*
X121601013Y-153540138D01*
X121528547Y-153547195D02*
X121566506Y-153543487D01*
X121492522Y-153550739D02*
X121528547Y-153547195D01*
X121358935Y-153558145D02*
X121492522Y-153550739D01*
X121086190Y-153559806D02*
X121358935Y-153558145D01*
X120813070Y-153557895D02*
X121086190Y-153559806D01*
X120657522Y-153550622D02*
X120813070Y-153557895D01*
X120184700Y-153517876D02*
X120226901Y-153518134D01*
X120180021Y-153522584D02*
G75*
G02X120184700Y-153517876I4709J-1D01*
G01*
X120181145Y-153524719D02*
G75*
G02X120180022Y-153522585I1466J2134D01*
G01*
X120185529Y-153527293D02*
G75*
G02X120181144Y-153524719I15819J31971D01*
G01*
X119110636Y-151788155D02*
X119094341Y-151758062D01*
X119121221Y-151807777D02*
X119110636Y-151788155D01*
X120511249Y-152183226D02*
X120464982Y-152280277D01*
X120596807Y-152012328D02*
X120511249Y-152183226D01*
X120683548Y-151841636D02*
X120596807Y-152012328D01*
X120724269Y-151766527D02*
X120683548Y-151841636D01*
X120738678Y-151741366D02*
X120724269Y-151766527D01*
X120749929Y-151721636D02*
X120738678Y-151741366D01*
X120759609Y-151704555D02*
X120749929Y-151721636D01*
X120769048Y-151687777D02*
X120759609Y-151704555D01*
X120775983Y-151675624D02*
X120769048Y-151687777D01*
X120787590Y-151655731D02*
X120775983Y-151675624D01*
X120800976Y-151632985D02*
X120787590Y-151655731D01*
X120814458Y-151610277D02*
X120800976Y-151632985D01*
X120827575Y-151588268D02*
X120814458Y-151610277D01*
X120839864Y-151567624D02*
X120827575Y-151588268D01*
X120850197Y-151550243D02*
X120839864Y-151567624D01*
X120854889Y-151542307D02*
X120850197Y-151550243D01*
X120899259Y-151470233D02*
X120854889Y-151542307D01*
X120962393Y-151373837D02*
X120899259Y-151470233D01*
X121029939Y-151274271D02*
X120962393Y-151373837D01*
X121089543Y-151190277D02*
X121029939Y-151274271D01*
X121146819Y-151113641D02*
X121089543Y-151190277D01*
X121217177Y-151023061D02*
X121146819Y-151113641D01*
X121284639Y-150938542D02*
X121217177Y-151023061D01*
X121327847Y-150887777D02*
X121284639Y-150938542D01*
X122635064Y-150881889D02*
X122644416Y-150861958D01*
X122627187Y-150898945D02*
X122635064Y-150881889D01*
X122620294Y-150914044D02*
X122627187Y-150898945D01*
X122620022Y-150915299D02*
G75*
G02X122620294Y-150914044I3026J0D01*
G01*
X119075985Y-151724222D02*
X119058037Y-151691194D01*
X119094341Y-151758062D02*
X119075985Y-151724222D01*
X121912904Y-154782618D02*
G75*
G02X121912962Y-154790934I-10582J-4233D01*
G01*
X121912961Y-154790934D02*
G75*
G02X121910571Y-154793771I-5287J2029D01*
G01*
X121910571Y-154793771D02*
G75*
G02X121905675Y-154795933I-11328J19028D01*
G01*
X121905675Y-154795934D02*
G75*
G02X121898837Y-154797326I-10822J35655D01*
G01*
X121898838Y-154797325D02*
G75*
G02X121890414Y-154797777I-8424J78322D01*
G01*
X120393609Y-152441378D02*
X120385721Y-152460277D01*
X120420843Y-152379384D02*
X120393609Y-152441378D01*
X120447720Y-152318594D02*
X120420843Y-152379384D01*
X120464982Y-152280277D02*
X120447720Y-152318594D01*
X121890414Y-154797778D02*
G75*
G02X121875921Y-154796825I0J110737D01*
G01*
X121875921Y-154796825D02*
G75*
G02X121863016Y-154793965I9971J75534D01*
G01*
X121863016Y-154793965D02*
G75*
G02X121846281Y-154787761I53575J170197D01*
G01*
X121815022Y-154774046D02*
X121846281Y-154787761D01*
X121751838Y-154747762D02*
X121815022Y-154774046D01*
X121685736Y-154724319D02*
X121751838Y-154747762D01*
X121614120Y-154702862D02*
X121685736Y-154724319D01*
X121534294Y-154682548D02*
X121614120Y-154702862D01*
X121397606Y-154649292D02*
X121534294Y-154682548D01*
X119130128Y-151824323D02*
X119121221Y-151807777D01*
X119140235Y-151843074D02*
X119130128Y-151824323D01*
X120253305Y-152786243D02*
X120244490Y-152806661D01*
X120263179Y-152762378D02*
X120253305Y-152786243D01*
X120274497Y-152734151D02*
X120263179Y-152762378D01*
X120287768Y-152700277D02*
X120274497Y-152734151D01*
X120293655Y-152685324D02*
X120287768Y-152700277D01*
X120300109Y-152669333D02*
X120293655Y-152685324D01*
X120306173Y-152654627D02*
X120300109Y-152669333D01*
X121152408Y-153862178D02*
G75*
G02X121290509Y-153965987I-743206J-1132487D01*
G01*
X121290509Y-153965987D02*
G75*
G02X121408604Y-154081641I-808447J-943632D01*
G01*
X121408604Y-154081641D02*
G75*
G02X121501099Y-154204225I-691614J-618042D01*
G01*
X121593113Y-154347827D02*
X121501099Y-154204225D01*
X121658325Y-154444131D02*
X121593113Y-154347827D01*
X121719278Y-154526381D02*
X121658325Y-154444131D01*
X121794380Y-154620045D02*
X121719278Y-154526381D01*
X121837947Y-154672822D02*
X121794380Y-154620045D01*
X121851771Y-154689809D02*
X121837947Y-154672822D01*
X121862079Y-154703035D02*
X121851771Y-154689809D01*
X119634498Y-149170277D02*
X119620636Y-149220269D01*
X120310691Y-152644082D02*
X120306173Y-152654627D01*
X120314264Y-152635606D02*
X120310691Y-152644082D01*
X120317281Y-152627667D02*
X120314264Y-152635606D01*
X120319553Y-152620959D02*
X120317281Y-152627667D01*
X120320021Y-152617966D02*
G75*
G02X120319553Y-152620959I-9805J0D01*
G01*
X120320021Y-152617965D02*
G75*
G02X120320501Y-152614968I9600J-1D01*
G01*
X120322848Y-152608209D02*
X120320501Y-152614968D01*
X120325958Y-152600210D02*
X120322848Y-152608209D01*
X120329642Y-152591661D02*
X120325958Y-152600210D01*
X120343866Y-152559784D02*
X120329642Y-152591661D01*
X120352969Y-152538632D02*
X120343866Y-152559784D01*
X120359166Y-152523491D02*
X120352969Y-152538632D01*
X120360007Y-152519082D02*
G75*
G02X120359166Y-152523491I-11749J-43D01*
G01*
X120360007Y-152519082D02*
G75*
G02X120360459Y-152516632I6738J25D01*
G01*
X120363194Y-152509786D02*
X120360459Y-152516632D01*
X120366707Y-152501673D02*
X120363194Y-152509786D01*
X120370874Y-152492777D02*
X120366707Y-152501673D01*
X120375330Y-152483430D02*
X120370874Y-152492777D01*
X120379723Y-152473949D02*
X120375330Y-152483430D01*
X120383495Y-152465577D02*
X120379723Y-152473949D01*
X120385721Y-152460277D02*
X120383495Y-152465577D01*
X121877281Y-154723316D02*
X121862079Y-154703035D01*
X121893683Y-154746689D02*
X121877281Y-154723316D01*
X121893683Y-154746690D02*
G75*
G02X121905528Y-154766666I-194982J-129113D01*
G01*
X121905528Y-154766666D02*
G75*
G02X121912903Y-154782618I-148143J-78170D01*
G01*
X121337272Y-150877192D02*
X121327847Y-150887777D01*
X121357031Y-150854856D02*
X121337272Y-150877192D01*
X121380430Y-150828361D02*
X121357031Y-150854856D01*
X121405193Y-150800277D02*
X121380430Y-150828361D01*
X121513704Y-150683304D02*
X121405193Y-150800277D01*
X121646053Y-150552079D02*
X121513704Y-150683304D01*
X121777297Y-150430085D02*
X121646053Y-150552079D01*
X121880250Y-150344220D02*
X121777297Y-150430085D01*
X121967428Y-150278727D02*
X121880250Y-150344220D01*
X122046415Y-150223278D02*
X121967428Y-150278727D01*
X122148457Y-150156351D02*
X122046415Y-150223278D01*
X122327522Y-150042769D02*
X122148457Y-150156351D01*
X122389629Y-150003344D02*
X122327522Y-150042769D01*
X122456365Y-149960469D02*
X122389629Y-150003344D01*
X122517965Y-149920471D02*
X122456365Y-149960469D01*
X122562522Y-149890991D02*
X122517965Y-149920471D01*
X122697222Y-149799298D02*
X122562522Y-149890991D01*
X122820866Y-149712251D02*
X122697222Y-149799298D01*
X122968690Y-149604774D02*
X122820866Y-149712251D01*
X123190022Y-149440957D02*
X122968690Y-149604774D01*
X123233928Y-149408350D02*
X123190022Y-149440957D01*
X123276959Y-149376446D02*
X123233928Y-149408350D01*
X123314011Y-149349020D02*
X123276959Y-149376446D01*
X123335022Y-149333543D02*
X123314011Y-149349020D01*
X123351209Y-149321646D02*
X123335022Y-149333543D01*
X123368850Y-149308643D02*
X123351209Y-149321646D01*
X123385320Y-149296471D02*
X123368850Y-149308643D01*
X123397522Y-149287414D02*
X123385320Y-149296471D01*
X123437477Y-149259270D02*
X123397522Y-149287414D01*
X123492952Y-149223208D02*
X123437477Y-149259270D01*
X123549438Y-149187759D02*
X123492952Y-149223208D01*
X123549438Y-149187760D02*
G75*
G02X123564761Y-149181269I28471J-45884D01*
G01*
X123564761Y-149181268D02*
G75*
G02X123577504Y-149179947I10974J-43717D01*
G01*
X123577504Y-149179947D02*
G75*
G02X123584070Y-149184069I-305J-7776D01*
G01*
X123584070Y-149184070D02*
G75*
G02X123584527Y-149192656I-8997J-4784D01*
G01*
X123584527Y-149192655D02*
G75*
G02X123577667Y-149205539I-63438J25510D01*
G01*
X123565329Y-149222507D02*
X123577667Y-149205539D01*
X123545976Y-149246851D02*
X123565329Y-149222507D01*
X123526429Y-149270518D02*
X123545976Y-149246851D01*
X123526429Y-149270517D02*
G75*
G02X123516963Y-149280277I-72727J61071D01*
G01*
X123499895Y-149298072D02*
G75*
G02X123516963Y-149280277I123500J-101373D01*
G01*
X123445948Y-149364257D02*
X123499895Y-149298072D01*
X123391922Y-149431904D02*
X123445948Y-149364257D01*
X123351038Y-149485277D02*
X123391922Y-149431904D01*
X123274034Y-149593698D02*
X123351038Y-149485277D01*
X123213980Y-149689678D02*
X123274034Y-149593698D01*
X123148409Y-149810452D02*
X123213980Y-149689678D01*
X123045463Y-150015277D02*
X123148409Y-149810452D01*
X123012314Y-150082396D02*
X123045463Y-150015277D01*
X122982337Y-150143418D02*
X123012314Y-150082396D01*
X122957300Y-150194652D02*
X122982337Y-150143418D01*
X122948740Y-150212777D02*
X122957300Y-150194652D01*
X122933870Y-150244997D02*
X122948740Y-150212777D01*
X122898656Y-150320485D02*
X122933870Y-150244997D01*
X122863434Y-150395815D02*
X122898656Y-150320485D01*
X122842505Y-150440277D02*
X122863434Y-150395815D01*
X122836270Y-150453483D02*
X122842505Y-150440277D01*
X122826572Y-150474090D02*
X122836270Y-150453483D01*
X122815623Y-150497387D02*
X122826572Y-150474090D01*
X122804881Y-150520277D02*
X122815623Y-150497387D01*
X122752656Y-150631614D02*
X122804881Y-150520277D01*
X122705466Y-150732138D02*
X122752656Y-150631614D01*
X122666565Y-150814935D02*
X122705466Y-150732138D01*
X122644416Y-150861958D02*
X122666565Y-150814935D01*
X119456089Y-150170173D02*
X119450432Y-150247777D01*
X119491414Y-149834273D02*
X119489359Y-149851746D01*
X119499812Y-151675277D02*
X119502112Y-151691881D01*
X117220022Y-153304199D02*
X117285345Y-153331444D01*
X117172193Y-153282386D02*
X117220022Y-153304199D01*
X117096008Y-153245116D02*
X117172193Y-153282386D01*
X117013874Y-153204229D02*
X117096008Y-153245116D01*
X117958715Y-152567712D02*
G75*
G02X118037077Y-152577867I-68767J-838110D01*
G01*
X118134167Y-152597547D02*
X118037077Y-152577867D01*
X118238541Y-152623880D02*
X118134167Y-152597547D01*
X118340022Y-152654629D02*
X118238541Y-152623880D01*
X118411345Y-152678648D02*
X118340022Y-152654629D01*
X118462918Y-152697344D02*
X118411345Y-152678648D01*
X118514767Y-152718060D02*
X118462918Y-152697344D01*
X118587522Y-152748978D02*
X118514767Y-152718060D01*
X118636095Y-152771297D02*
X118587522Y-152748978D01*
X118722054Y-152813707D02*
X118636095Y-152771297D01*
X118807800Y-152857003D02*
X118722054Y-152813707D01*
X118857522Y-152883724D02*
X118807800Y-152857003D01*
X118874485Y-152893290D02*
X118857522Y-152883724D01*
X118892381Y-152903359D02*
X118874485Y-152893290D01*
X118908665Y-152912503D02*
X118892381Y-152903359D01*
X118920022Y-152918855D02*
X118908665Y-152912503D01*
X118967579Y-152946350D02*
X118920022Y-152918855D01*
X119029264Y-152983880D02*
X118967579Y-152946350D01*
X119094127Y-153024579D02*
X119029264Y-152983880D01*
X119152522Y-153062529D02*
X119094127Y-153024579D01*
X119269621Y-153139782D02*
X119152522Y-153062529D01*
X119284217Y-153142895D02*
G75*
G02X119269621Y-153139782I-3296J20324D01*
G01*
X119285880Y-153136626D02*
G75*
G02X119284217Y-153142894I-2231J-2763D01*
G01*
X119186635Y-153056997D02*
X119285879Y-153136626D01*
X119076355Y-152968615D02*
X119186635Y-153056997D01*
X118955655Y-152871064D02*
X119076355Y-152968615D01*
X118846190Y-152782022D02*
X118955655Y-152871064D01*
X118797522Y-152741366D02*
X118846190Y-152782022D01*
X118560218Y-152528564D02*
X118797522Y-152741366D01*
X118331976Y-152303889D02*
X118560218Y-152528564D01*
X118126302Y-152081368D02*
X118331976Y-152303889D01*
X117957522Y-151875413D02*
X118126302Y-152081368D01*
X117947035Y-151861730D02*
X117957522Y-151875413D01*
X117930933Y-151840881D02*
X117947035Y-151861730D01*
X117912804Y-151817489D02*
X117930933Y-151840881D01*
X117895094Y-151794720D02*
X117912804Y-151817489D01*
X117850771Y-151736679D02*
X117895094Y-151794720D01*
X117798022Y-151665362D02*
X117850771Y-151736679D01*
X117743294Y-151589659D02*
X117798022Y-151665362D01*
X117692611Y-151517777D02*
X117743294Y-151589659D01*
X117615794Y-151405183D02*
X117692611Y-151517777D01*
X117503314Y-151236047D02*
X117615794Y-151405183D01*
X117392960Y-151068079D02*
X117503314Y-151236047D01*
X117327810Y-150965811D02*
X117392960Y-151068079D01*
X117312852Y-150941839D02*
X117327810Y-150965811D01*
X117293501Y-150911028D02*
X117312852Y-150941839D01*
X117273210Y-150878853D02*
X117293501Y-150911028D01*
X117255098Y-150850277D02*
X117273210Y-150878853D01*
X117232466Y-150814465D02*
X117255098Y-150850277D01*
X117194344Y-150753699D02*
X117232466Y-150814465D01*
X117150478Y-150683586D02*
X117194344Y-150753699D01*
X117106299Y-150612777D02*
X117150478Y-150683586D01*
X117063762Y-150544522D02*
X117106299Y-150612777D01*
X117024866Y-150482137D02*
X117063762Y-150544522D01*
X116992249Y-150429846D02*
X117024866Y-150482137D01*
X116980010Y-150410277D02*
X116992249Y-150429846D01*
X116937630Y-150341590D02*
X116980010Y-150410277D01*
X116867790Y-150226106D02*
X116937630Y-150341590D01*
X116797729Y-150109490D02*
X116867790Y-150226106D01*
X116772165Y-150065277D02*
X116797729Y-150109490D01*
X116769328Y-150060248D02*
X116772165Y-150065277D01*
X116765217Y-150053074D02*
X116769328Y-150060248D01*
X116760674Y-150045211D02*
X116765217Y-150053074D01*
X116756342Y-150037777D02*
X116760674Y-150045211D01*
X116727044Y-149987083D02*
X116756342Y-150037777D01*
X116668968Y-149885057D02*
X116727044Y-149987083D01*
X116610346Y-149781702D02*
X116668968Y-149885057D01*
X116588754Y-149742777D02*
X116610346Y-149781702D01*
X116579351Y-149725536D02*
X116588754Y-149742777D01*
X116567835Y-149704543D02*
X116579351Y-149725536D01*
X116556140Y-149683314D02*
X116567835Y-149704543D01*
X116546150Y-149665277D02*
X116556140Y-149683314D01*
X116517394Y-149610797D02*
X116546150Y-149665277D01*
X116462647Y-149500518D02*
X116517394Y-149610797D01*
X116402078Y-149377345D02*
X116462647Y-149500518D01*
X116402079Y-149377345D02*
G75*
G02X116400022Y-149368491I18028J8854D01*
G01*
X116399530Y-149365636D02*
G75*
G02X116400022Y-149368491I-8045J-2855D01*
G01*
X116397209Y-149359477D02*
X116399530Y-149365636D01*
X116394113Y-149352210D02*
X116397209Y-149359477D01*
X116390446Y-149344500D02*
X116394113Y-149352210D01*
X116390446Y-149344500D02*
G75*
G02X116375567Y-149310779I353949J176315D01*
G01*
X116362376Y-149272674D02*
X116375567Y-149310779D01*
X116352797Y-149237022D02*
X116362376Y-149272674D01*
X116352798Y-149237021D02*
G75*
G02X116350022Y-149212709I105091J24312D01*
G01*
X116350022Y-149212709D02*
G75*
G02X116352313Y-149201889I26694J0D01*
G01*
X116352313Y-149201889D02*
G75*
G02X116358734Y-149193767I19006J-8428D01*
G01*
X116358734Y-149193767D02*
G75*
G02X116368045Y-149189963I11741J-15439D01*
G01*
X116368045Y-149189963D02*
G75*
G02X116378409Y-149191121I2783J-22042D01*
G01*
X119299378Y-153149505D02*
G75*
G02X119307816Y-153155118I-42084J-72409D01*
G01*
X119293690Y-153148010D02*
G75*
G02X119299378Y-153149505I137J-11046D01*
G01*
X119292163Y-153150169D02*
G75*
G02X119293690Y-153148010I1547J525D01*
G01*
X119295021Y-153155277D02*
G75*
G02X119292163Y-153150169I12406J10295D01*
G01*
X119298004Y-153158135D02*
G75*
G02X119295022Y-153155277I10995J14458D01*
G01*
X119301808Y-153160528D02*
G75*
G02X119298004Y-153158136I11528J22553D01*
G01*
X119305813Y-153162133D02*
G75*
G02X119301808Y-153160528I6762J22671D01*
G01*
X119309384Y-153162619D02*
G75*
G02X119305813Y-153162133I-229J11691D01*
G01*
X119313439Y-153162263D02*
G75*
G02X119309384Y-153162618I-4642J29680D01*
G01*
X119314221Y-153161131D02*
G75*
G02X119313438Y-153162263I-929J-194D01*
G01*
X119313100Y-153159282D02*
G75*
G02X119314221Y-153161131I-2062J-2515D01*
G01*
X119307816Y-153155118D02*
X119313100Y-153159282D01*
X120082574Y-146969496D02*
G75*
G02X120091771Y-146960571I24520J-16067D01*
G01*
X120091771Y-146960571D02*
G75*
G02X120102879Y-146957745I10107J-16484D01*
G01*
X120102879Y-146957745D02*
G75*
G02X120113607Y-146961707I-996J-19203D01*
G01*
X120113606Y-146961707D02*
G75*
G02X120121759Y-146971527I-17650J-22947D01*
G01*
X120121760Y-146971527D02*
G75*
G02X120133695Y-147004885I-124673J-63421D01*
G01*
X120149153Y-147080779D02*
X120133695Y-147004885D01*
X120166249Y-147180893D02*
X120149153Y-147080779D01*
X120184771Y-147307777D02*
X120166249Y-147180893D01*
X120189195Y-147339649D02*
X120184771Y-147307777D01*
X120193664Y-147371324D02*
X120189195Y-147339649D01*
X120197609Y-147398853D02*
X120193664Y-147371324D01*
X120200058Y-147415277D02*
X120197609Y-147398853D01*
X120202198Y-147429274D02*
X120200058Y-147415277D01*
X120204846Y-147446746D02*
X120202198Y-147429274D01*
X120207550Y-147464693D02*
X120204846Y-147446746D01*
X120209879Y-147480277D02*
X120207550Y-147464693D01*
X120250474Y-147745675D02*
X120209879Y-147480277D01*
X120282146Y-147933530D02*
X120250474Y-147745675D01*
X120312899Y-148091341D02*
X120282146Y-147933530D01*
X120349454Y-148255379D02*
X120312899Y-148091341D01*
X120374492Y-148358731D02*
X120349454Y-148255379D01*
X120406786Y-148486990D02*
X120374492Y-148358731D01*
X120438947Y-148612230D02*
X120406786Y-148486990D01*
X120449546Y-148647777D02*
X120438947Y-148612230D01*
X120451577Y-148654390D02*
X120449546Y-148647777D01*
X120454324Y-148664684D02*
X120451577Y-148654390D01*
X120457226Y-148676332D02*
X120454324Y-148664684D01*
X120459866Y-148687777D02*
X120457226Y-148676332D01*
X120462509Y-148699406D02*
X120459866Y-148687777D01*
X120465418Y-148711606D02*
X120462509Y-148699406D01*
X120468167Y-148722654D02*
X120465418Y-148711606D01*
X120470219Y-148730277D02*
X120468167Y-148722654D01*
X120491211Y-148811306D02*
X120470219Y-148730277D01*
X120520319Y-148939530D02*
X120491211Y-148811306D01*
X120547583Y-149067148D02*
X120520319Y-148939530D01*
X120560471Y-149140277D02*
X120547583Y-149067148D01*
X120562659Y-149154272D02*
X120560471Y-149140277D01*
X120565675Y-149171746D02*
X120562659Y-149154272D01*
X120568972Y-149189692D02*
X120565675Y-149171746D01*
X120572053Y-149205277D02*
X120568972Y-149189692D01*
X120583969Y-149271401D02*
X120572053Y-149205277D01*
X120598521Y-149370705D02*
X120583969Y-149271401D01*
X120613047Y-149482002D02*
X120598521Y-149370705D01*
X120625375Y-149590277D02*
X120613047Y-149482002D01*
X120633692Y-149677355D02*
X120625375Y-149590277D01*
X120641238Y-149773355D02*
X120633692Y-149677355D01*
X120649412Y-149896795D02*
X120641238Y-149773355D01*
X120659993Y-150075277D02*
X120649412Y-149896795D01*
X120664428Y-150211801D02*
X120659993Y-150075277D01*
X120663207Y-150373699D02*
X120664428Y-150211801D01*
D12*
X120656205Y-150580188D02*
X120663207Y-150373699D01*
X120642243Y-150860277D02*
X120656205Y-150580188D01*
D11*
X120638309Y-150913260D02*
X120642243Y-150860277D01*
X120629073Y-151007488D02*
X120638309Y-150913260D01*
X120618702Y-151104897D02*
X120629073Y-151007488D01*
X120609856Y-151177777D02*
X120618702Y-151104897D01*
X120607613Y-151195020D02*
X120609856Y-151177777D01*
X120604937Y-151216012D02*
X120607613Y-151195020D01*
X120602271Y-151237241D02*
X120604937Y-151216012D01*
X120600050Y-151255277D02*
X120602271Y-151237241D01*
X120597806Y-151272962D02*
X120600050Y-151255277D01*
X120595075Y-151293074D02*
X120597806Y-151272962D01*
X120592299Y-151312476D02*
X120595075Y-151293074D01*
X120589942Y-151327777D02*
X120592299Y-151312476D01*
X120587622Y-151342744D02*
X120589942Y-151327777D01*
X120584972Y-151361012D02*
X120587622Y-151342744D01*
X120582418Y-151379518D02*
X120584972Y-151361012D01*
X120580389Y-151395277D02*
X120582418Y-151379518D01*
X120561335Y-151517675D02*
X120580389Y-151395277D01*
X120521650Y-151719623D02*
X120561335Y-151517675D01*
X120478766Y-151921371D02*
X120521650Y-151719623D01*
X120447485Y-152045277D02*
X120478766Y-151921371D01*
X120444512Y-152055948D02*
X120447485Y-152045277D01*
X120441467Y-152067340D02*
X120444512Y-152055948D01*
X120438776Y-152077807D02*
X120441467Y-152067340D01*
X120436995Y-152085277D02*
X120438776Y-152077807D01*
X120427390Y-152123770D02*
X120436995Y-152085277D01*
X120397648Y-152231388D02*
X120427390Y-152123770D01*
X120367938Y-152337284D02*
X120397648Y-152231388D01*
X120350778Y-152395277D02*
X120367938Y-152337284D01*
X120346460Y-152409274D02*
X120350778Y-152395277D01*
X120341080Y-152426746D02*
X120346460Y-152409274D01*
X120335561Y-152444693D02*
X120341080Y-152426746D01*
X120330776Y-152460277D02*
X120335561Y-152444693D01*
X120313681Y-152514093D02*
X120330776Y-152460277D01*
X120282504Y-152608295D02*
X120313681Y-152514093D01*
X120249871Y-152705470D02*
X120282504Y-152608295D01*
X120224966Y-152777777D02*
X120249871Y-152705470D01*
X120214918Y-152806638D02*
X120224966Y-152777777D01*
X120205745Y-152833387D02*
X120214918Y-152806638D01*
X120198156Y-152855862D02*
X120205745Y-152833387D01*
X120195217Y-152865277D02*
X120198156Y-152855862D01*
X120192515Y-152874002D02*
X120195217Y-152865277D01*
X120186887Y-152890861D02*
X120192515Y-152874002D01*
X120180133Y-152910670D02*
X120186887Y-152890861D01*
X120172951Y-152931307D02*
X120180133Y-152910670D01*
X120155426Y-152984707D02*
X120172951Y-152931307D01*
X120155298Y-153004677D02*
G75*
G02X120155426Y-152984707I33535J9771D01*
G01*
X120162456Y-153005327D02*
G75*
G02X120155299Y-153004677I-3451J1730D01*
G01*
X120182120Y-152962777D02*
X120162455Y-153005327D01*
X120188098Y-152948783D02*
X120182120Y-152962777D01*
X120194664Y-152933598D02*
X120188098Y-152948783D01*
X120200839Y-152919472D02*
X120194664Y-152933598D01*
X120205464Y-152909082D02*
X120200839Y-152919472D01*
X120209124Y-152900664D02*
X120205464Y-152909082D01*
X120212214Y-152892904D02*
X120209124Y-152900664D01*
X120214584Y-152886362D02*
X120212214Y-152892904D01*
X120215021Y-152883771D02*
G75*
G02X120214584Y-152886362I-7897J0D01*
G01*
X120215021Y-152883771D02*
G75*
G02X120215482Y-152881197I7424J0D01*
G01*
X120217959Y-152874785D02*
X120215482Y-152881197D01*
X120221191Y-152867186D02*
X120217959Y-152874785D01*
X120225022Y-152858958D02*
X120221191Y-152867186D01*
X120228851Y-152850659D02*
X120225022Y-152858958D01*
X120232084Y-152842840D02*
X120228851Y-152850659D01*
X120234508Y-152836216D02*
X120232084Y-152842840D01*
X120235021Y-152833153D02*
G75*
G02X120234508Y-152836216I-9398J0D01*
G01*
X120235022Y-152833153D02*
G75*
G02X120235503Y-152830064I10154J0D01*
G01*
X120237803Y-152823264D02*
X120235503Y-152830064D01*
X120240864Y-152815223D02*
X120237803Y-152823264D01*
X120244490Y-152806661D02*
X120240864Y-152815223D01*
X119014682Y-151608855D02*
X119010103Y-151600347D01*
X119014682Y-151608855D02*
G75*
G02X119015022Y-151610212I-2538J-1357D01*
G01*
X119004695Y-151590555D02*
X118998277Y-151579295D01*
X119010103Y-151600347D02*
X119004695Y-151590555D01*
X117013874Y-153204228D02*
G75*
G02X117005022Y-153197537I13556J27135D01*
G01*
X117003092Y-153195897D02*
G75*
G02X117005022Y-153197537I-5453J-8377D01*
G01*
X116995912Y-153191285D02*
X117003091Y-153195898D01*
X116987281Y-153185930D02*
X116995912Y-153191285D01*
X116977522Y-153180101D02*
X116987281Y-153185930D01*
X116967356Y-153174103D02*
X116977522Y-153180101D01*
X116957487Y-153168234D02*
X116967356Y-153174103D01*
X116949047Y-153163177D02*
X116957487Y-153168234D01*
X116944424Y-153160341D02*
X116949047Y-153163177D01*
X116940259Y-153157797D02*
X116944424Y-153160341D01*
X116934094Y-153154150D02*
X116940259Y-153157797D01*
X116927233Y-153150155D02*
X116934094Y-153154150D01*
X116920629Y-153146375D02*
X116927233Y-153150155D01*
X116920629Y-153146375D02*
G75*
G02X116910474Y-153139975I63669J112281D01*
G01*
X116882016Y-153120005D02*
X116910474Y-153139975D01*
X116848261Y-153095940D02*
X116882016Y-153120005D01*
X116811226Y-153069103D02*
X116848261Y-153095940D01*
X116633114Y-152946773D02*
X116811226Y-153069103D01*
X116486099Y-152863678D02*
G75*
G02X116633114Y-152946773I-631554J-1288984D01*
G01*
X116326951Y-152796610D02*
G75*
G02X116486098Y-152863679I-510715J-1434241D01*
G01*
X116108826Y-152724954D02*
X116326951Y-152796611D01*
X116076926Y-152715042D02*
X116108826Y-152724954D01*
X116076927Y-152715042D02*
G75*
G02X116066329Y-152710106I14167J44263D01*
G01*
X116066329Y-152710106D02*
G75*
G02X116061681Y-152704159I5938J9430D01*
G01*
X116061681Y-152704159D02*
G75*
G02X116060076Y-152694254I30438J10015D01*
G01*
X116060076Y-152694254D02*
G75*
G02X116060628Y-152685206I70514J241D01*
G01*
X121285632Y-154619595D02*
X121397606Y-154649292D01*
X121198054Y-154593690D02*
X121285632Y-154619595D01*
X121198055Y-154593690D02*
G75*
G02X121142522Y-154573101I169046J541143D01*
G01*
X121137486Y-154571027D02*
X121142522Y-154573101D01*
X121130318Y-154568265D02*
X121137486Y-154571027D01*
X121122455Y-154565344D02*
X121130318Y-154568265D01*
X121115022Y-154562696D02*
X121122455Y-154565344D01*
X121107177Y-154559863D02*
X121115022Y-154562696D01*
X121098034Y-154556363D02*
X121107177Y-154559863D01*
X121089059Y-154552778D02*
X121098034Y-154556363D01*
X121081766Y-154549691D02*
X121089059Y-154552778D01*
X121075511Y-154547043D02*
X121081766Y-154549691D01*
X121069752Y-154544808D02*
X121075511Y-154547043D01*
X121064899Y-154543092D02*
X121069752Y-154544808D01*
X121062993Y-154542777D02*
G75*
G02X121064899Y-154543092I0J-5933D01*
G01*
X121062993Y-154542778D02*
G75*
G02X121059189Y-154542029I0J10037D01*
G01*
X120964667Y-154503305D02*
X121059189Y-154542029D01*
X120881032Y-154468860D02*
X120964667Y-154503305D01*
X120835022Y-154449343D02*
X120881032Y-154468860D01*
X120784226Y-154426283D02*
X120835022Y-154449343D01*
X120714035Y-154392512D02*
X120784226Y-154426283D01*
X120646005Y-154358811D02*
X120714035Y-154392512D01*
X120610022Y-154339386D02*
X120646005Y-154358811D01*
X120584250Y-154324488D02*
X120610022Y-154339386D01*
X120565712Y-154313819D02*
X120584250Y-154324488D01*
X120552040Y-154306010D02*
X120565712Y-154313819D01*
X120542522Y-154300665D02*
X120552040Y-154306010D01*
X120502423Y-154276144D02*
X120542522Y-154300665D01*
X120452352Y-154241071D02*
X120502423Y-154276144D01*
X120399465Y-154200893D02*
X120452352Y-154241071D01*
X120350022Y-154160105D02*
X120399465Y-154200893D01*
X120350022Y-154160106D02*
G75*
G02X120270238Y-154083873I695822J808099D01*
G01*
X120270238Y-154083873D02*
G75*
G02X120198595Y-153999661I781638J737557D01*
G01*
X120198596Y-153999661D02*
G75*
G02X120135002Y-153907259I878955J673003D01*
G01*
X120135001Y-153907258D02*
G75*
G02X120079292Y-153806527I1044989J643704D01*
G01*
X120066672Y-153782136D02*
X120079292Y-153806527D01*
X120058836Y-153771479D02*
G75*
G02X120066672Y-153782136I-34612J-33661D01*
G01*
X120052757Y-153769559D02*
G75*
G02X120058835Y-153771478I1254J-6611D01*
G01*
X120047112Y-153773439D02*
G75*
G02X120052758Y-153769558I7228J-4468D01*
G01*
X120045653Y-153778424D02*
G75*
G02X120047112Y-153773440I9773J-154D01*
G01*
X120043420Y-153921549D02*
X120045654Y-153778424D01*
X120041301Y-154081187D02*
X120043420Y-153921549D01*
X120039456Y-154269690D02*
X120041301Y-154081187D01*
X120037665Y-154458576D02*
X120039456Y-154269690D01*
X120035717Y-154619472D02*
X120037665Y-154458576D01*
X120033721Y-154762425D02*
X120035717Y-154619472D01*
X120033721Y-154762424D02*
G75*
G02X120032565Y-154771527I-41009J581D01*
G01*
X120032565Y-154771527D02*
G75*
G02X120031012Y-154775830I-20606J5007D01*
G01*
X120031011Y-154775830D02*
G75*
G02X120028627Y-154779473I-15676J7660D01*
G01*
X120028628Y-154779473D02*
G75*
G02X120025815Y-154781944I-9855J8380D01*
G01*
X120025814Y-154781943D02*
G75*
G02X120022998Y-154782777I-2816J4339D01*
G01*
X120022998Y-154782778D02*
G75*
G02X120018527Y-154781046I0J6637D01*
G01*
X119995478Y-154759837D02*
X120018527Y-154781046D01*
X119969013Y-154734616D02*
X119995478Y-154759837D01*
X119938906Y-154704683D02*
X119969013Y-154734616D01*
X119861648Y-154626588D02*
X119938906Y-154704683D01*
X119858335Y-154326359D02*
X119861648Y-154626588D01*
X119857066Y-154201023D02*
X119858335Y-154326359D01*
X119855995Y-154072704D02*
X119857066Y-154201023D01*
X119855237Y-153958674D02*
X119855995Y-154072704D01*
X119855022Y-153884454D02*
X119855237Y-153958674D01*
X119854720Y-153823849D02*
X119855022Y-153884454D01*
X119853728Y-153779717D02*
X119854720Y-153823849D01*
X119852369Y-153744990D02*
X119853728Y-153779717D01*
X119850060Y-153742777D02*
G75*
G02X119852369Y-153744990I-1J-2312D01*
G01*
X119847054Y-153744088D02*
G75*
G02X119850059Y-153742777I3005J-2787D01*
G01*
X119836630Y-153755560D02*
X119847055Y-153744089D01*
X119824618Y-153769615D02*
X119836630Y-153755560D01*
X119811309Y-153786292D02*
X119824618Y-153769615D01*
X119719679Y-153896929D02*
X119811309Y-153786292D01*
X119621336Y-154001497D02*
X119719679Y-153896929D01*
X119522618Y-154093723D02*
X119621336Y-154001497D01*
X119522618Y-154093723D02*
G75*
G02X119430022Y-154166907I-785138J898227D01*
G01*
X119293872Y-154257727D02*
X119430022Y-154166907D01*
X119160543Y-154334003D02*
X119293872Y-154257727D01*
X119020115Y-154400989D02*
X119160543Y-154334003D01*
X118862522Y-154463854D02*
X119020115Y-154400989D01*
X118806592Y-154483017D02*
X118862522Y-154463854D01*
X118714001Y-154512067D02*
X118806592Y-154483017D01*
X118620530Y-154540489D02*
X118714001Y-154512067D01*
X118620531Y-154540489D02*
G75*
G02X118585022Y-154549348I-111894J372905D01*
G01*
X118575788Y-154551427D02*
X118585022Y-154549348D01*
X118526256Y-154563853D02*
X118575788Y-154551427D01*
X118468574Y-154578414D02*
X118526256Y-154563853D01*
X118402522Y-154595214D02*
X118468574Y-154578414D01*
X118335223Y-154612309D02*
X118402522Y-154595214D01*
X118273647Y-154627802D02*
X118335223Y-154612309D01*
X118222000Y-154640673D02*
X118273647Y-154627802D01*
X118202522Y-154645258D02*
X118222000Y-154640673D01*
X118189392Y-154648201D02*
X118202522Y-154645258D01*
X118174725Y-154651527D02*
X118189392Y-154648201D01*
X118160765Y-154654724D02*
X118174725Y-154651527D01*
X118150022Y-154657222D02*
X118160765Y-154654724D01*
X118126495Y-154662411D02*
X118150022Y-154657222D01*
X118069890Y-154674006D02*
X118126495Y-154662411D01*
X118006655Y-154686751D02*
X118069890Y-154674006D01*
X117946570Y-154698613D02*
X118006655Y-154686751D01*
X117930754Y-154701291D02*
X117946570Y-154698613D01*
X117930754Y-154701291D02*
G75*
G02X117919488Y-154702124I-11660J81132D01*
G01*
X117919487Y-154702124D02*
G75*
G02X117910662Y-154701315I-221J46104D01*
G01*
X117910662Y-154701315D02*
G75*
G02X117902820Y-154698823I6419J33790D01*
G01*
X117902820Y-154698822D02*
G75*
G02X117893799Y-154685506I6402J14050D01*
G01*
X117893799Y-154685506D02*
G75*
G02X117899252Y-154666313I31269J1487D01*
G01*
X117899252Y-154666313D02*
G75*
G02X117927331Y-154631110I257590J-176662D01*
G01*
X118009998Y-154542550D02*
X117927331Y-154631110D01*
X118047172Y-154503045D02*
X118009998Y-154542550D01*
X118086499Y-154461019D02*
X118047172Y-154503045D01*
X118122351Y-154422510D02*
X118086499Y-154461019D01*
X118147522Y-154395213D02*
X118122351Y-154422510D01*
X118190178Y-154349392D02*
X118147522Y-154395213D01*
X118226361Y-154312256D02*
X118190178Y-154349392D01*
X118263224Y-154276564D02*
X118226361Y-154312256D01*
X118307926Y-154235277D02*
X118263224Y-154276564D01*
X118327115Y-154217823D02*
X118307926Y-154235277D01*
X118343687Y-154202653D02*
X118327115Y-154217823D01*
X118358008Y-154189477D02*
X118343687Y-154202653D01*
X118360021Y-154187406D02*
G75*
G02X118358008Y-154189477I-19819J17259D01*
G01*
X118360021Y-154187407D02*
G75*
G02X118362103Y-154185349I14795J-12883D01*
G01*
X118380147Y-154170015D02*
X118362103Y-154185349D01*
X118400885Y-154152487D02*
X118380147Y-154170015D01*
X118425022Y-154132231D02*
X118400885Y-154152487D01*
X118530470Y-154047248D02*
X118425022Y-154132231D01*
X118630076Y-153973754D02*
X118530470Y-154047248D01*
X118730113Y-153907287D02*
X118630076Y-153973754D01*
X118836795Y-153843515D02*
X118730113Y-153907287D01*
X118870714Y-153825268D02*
X118836795Y-153843515D01*
X118926262Y-153797389D02*
X118870714Y-153825268D01*
X118982493Y-153769994D02*
X118926262Y-153797389D01*
X119020022Y-153752890D02*
X118982493Y-153769994D01*
X119059757Y-153735775D02*
X119020022Y-153752890D01*
X119079737Y-153727382D02*
X119059757Y-153735775D01*
X119095779Y-153721025D02*
X119079737Y-153727382D01*
X119116272Y-153713347D02*
X119095779Y-153721025D01*
X119129186Y-153708599D02*
X119116272Y-153713347D01*
X119144287Y-153703046D02*
X119129186Y-153708599D01*
X119159151Y-153697580D02*
X119144287Y-153703046D01*
X119171272Y-153693122D02*
X119159151Y-153697580D01*
X119206104Y-153681114D02*
X119171272Y-153693122D01*
X119263274Y-153663030D02*
X119206104Y-153681114D01*
X119320340Y-153645577D02*
X119263274Y-153663030D01*
X119347522Y-153638372D02*
X119320340Y-153645577D01*
X119403341Y-153624277D02*
X119347522Y-153638372D01*
X119468904Y-153605292D02*
X119403341Y-153624277D01*
X119530034Y-153586296D02*
X119468904Y-153605292D01*
X119529691Y-153583050D02*
G75*
G02X119530034Y-153586296I-161J-1658D01*
G01*
X119527681Y-153583099D02*
G75*
G02X119529690Y-153583051I1204J-8298D01*
G01*
X119519709Y-153584287D02*
X119527681Y-153583099D01*
X119510305Y-153585799D02*
X119519709Y-153584287D01*
X119499690Y-153587644D02*
X119510305Y-153585799D01*
X119474754Y-153591359D02*
X119499690Y-153587644D01*
X119430359Y-153596376D02*
X119474754Y-153591359D01*
X119365074Y-153603070D02*
X119430359Y-153596376D01*
X119263645Y-153612894D02*
X119365074Y-153603070D01*
X119235352Y-153615035D02*
X119263645Y-153612894D01*
X119181795Y-153617839D02*
X119235352Y-153615035D01*
X119118915Y-153620681D02*
X119181795Y-153617839D01*
X119053645Y-153623169D02*
X119118915Y-153620681D01*
X118908340Y-153626041D02*
X119053645Y-153623169D01*
X118781748Y-153623781D02*
X118908340Y-153626041D01*
X118636661Y-153615269D02*
X118781748Y-153623781D01*
X118425022Y-153597707D02*
X118636661Y-153615269D01*
X118364771Y-153591119D02*
X118425022Y-153597707D01*
X118281738Y-153579690D02*
X118364771Y-153591119D01*
X118184250Y-153564788D02*
X118281738Y-153579690D01*
X118077522Y-153547109D02*
X118184250Y-153564788D01*
X117971857Y-153527377D02*
X118077522Y-153547109D01*
X117854034Y-153502215D02*
X117971857Y-153527377D01*
X117737305Y-153474654D02*
X117854034Y-153502215D01*
X117635022Y-153447637D02*
X117737305Y-153474654D01*
X117619381Y-153443300D02*
X117635022Y-153447637D01*
X117603397Y-153438981D02*
X117619381Y-153443300D01*
X117589207Y-153435245D02*
X117603397Y-153438981D01*
X117580022Y-153432966D02*
X117589207Y-153435245D01*
X117571722Y-153430851D02*
X117580022Y-153432966D01*
X117561053Y-153427839D02*
X117571722Y-153430851D01*
X117549914Y-153424499D02*
X117561053Y-153427839D01*
X117540022Y-153421321D02*
X117549914Y-153424499D01*
X117528663Y-153417567D02*
X117540022Y-153421321D01*
X117512381Y-153412256D02*
X117528663Y-153417567D01*
X117494485Y-153406458D02*
X117512381Y-153412256D01*
X117477522Y-153401004D02*
X117494485Y-153406458D01*
X117413400Y-153379584D02*
X117477522Y-153401004D01*
X117349573Y-153356485D02*
X117413400Y-153379584D01*
X117285345Y-153331444D02*
X117349573Y-153356485D01*
X120191588Y-153529800D02*
G75*
G02X120185529Y-153527293I15601J46284D01*
G01*
X120198772Y-153531862D02*
G75*
G02X120191589Y-153529800I19033J79840D01*
G01*
X120225611Y-153537712D02*
X120198772Y-153531862D01*
X116378409Y-149191121D02*
G75*
G02X116393800Y-149199519I-19851J-54684D01*
G01*
X116433573Y-149230444D02*
X116393800Y-149199519D01*
X116480950Y-149269163D02*
X116433573Y-149230444D01*
X116533636Y-149314359D02*
X116480950Y-149269163D01*
X116698174Y-149452127D02*
X116533636Y-149314359D01*
X116843791Y-149560502D02*
X116698174Y-149452127D01*
X117012714Y-149669733D02*
X116843791Y-149560502D01*
X117257522Y-149814069D02*
X117012714Y-149669733D01*
X119571306Y-149406615D02*
X119547577Y-149515220D01*
X119494593Y-149806118D02*
X119492916Y-149820277D01*
X119286280Y-152120659D02*
X119246362Y-152042777D01*
X119400735Y-152349065D02*
X119286280Y-152120659D01*
X119593793Y-149322863D02*
X119590420Y-149335871D01*
X119609796Y-152290277D02*
X119612223Y-152299554D01*
X117980696Y-150296196D02*
X117949731Y-150271569D01*
X118034121Y-150340261D02*
X117980696Y-150296196D01*
X119655296Y-149099293D02*
X119640717Y-149148596D01*
X119041545Y-151660738D02*
X119027657Y-151634784D01*
X119058037Y-151691194D02*
X119041545Y-151660738D01*
X119607389Y-152280966D02*
X119609796Y-152290277D01*
X119530667Y-152612450D02*
G75*
G02X119530022Y-152609625I5867J2825D01*
G01*
X119570128Y-152694375D02*
X119530666Y-152612451D01*
X119493686Y-151628002D02*
X119499812Y-151675277D01*
X119590420Y-149335871D02*
X119587276Y-149347511D01*
X119610559Y-149257297D02*
X119602925Y-149286256D01*
X119622102Y-152343678D02*
X119625424Y-152358215D01*
X119619792Y-152332777D02*
X119622102Y-152343678D01*
X119617434Y-152792202D02*
X119570128Y-152694375D01*
X119680900Y-152922769D02*
X119617434Y-152792202D01*
X119994836Y-147495277D02*
X119983743Y-147588355D01*
X118390510Y-150669449D02*
X118307249Y-150584817D01*
X118457941Y-150743323D02*
X118390510Y-150669449D01*
X119015378Y-151611643D02*
G75*
G02X119015022Y-151610212I2699J1431D01*
G01*
X119027657Y-151634784D02*
X119015377Y-151611643D01*
X119457431Y-151234943D02*
X119460146Y-151274262D01*
X119436197Y-150690776D02*
X119441200Y-150910800D01*
X117312323Y-149845700D02*
X117257522Y-149814069D01*
X117365350Y-149876582D02*
X117312323Y-149845700D01*
X117410594Y-149903170D02*
X117365350Y-149876582D01*
X119462884Y-151310118D02*
X119465155Y-151335277D01*
X120064571Y-147013376D02*
G75*
G02X120082574Y-146969496I122645J-24684D01*
G01*
X119983743Y-147588355D02*
X119966692Y-147718323D01*
X119966692Y-147718323D02*
X119948247Y-147852128D01*
X119948247Y-147852128D02*
X119932296Y-147960277D01*
X119594799Y-152221609D02*
X119597913Y-152236189D01*
X119672754Y-149040648D02*
X119655296Y-149099293D01*
X119665004Y-152516641D02*
X119688021Y-152605658D01*
X119652687Y-152467777D02*
X119665004Y-152516641D01*
X119439221Y-150485430D02*
X119436197Y-150690776D01*
X119497211Y-149788074D02*
X119494593Y-149806118D01*
X119596912Y-149310277D02*
X119593793Y-149322863D01*
X118091890Y-150388546D02*
X118034121Y-150340261D01*
X118142522Y-150431589D02*
X118091890Y-150388546D01*
X119640717Y-149148596D02*
X119634498Y-149170277D01*
X119546332Y-151982567D02*
X119569739Y-152108706D01*
X119472649Y-151417124D02*
X119474772Y-151442777D01*
X119602098Y-152257528D02*
X119604678Y-152269391D01*
X119620636Y-149220269D02*
X119610559Y-149257297D01*
X119612223Y-152299554D02*
X119614997Y-152311012D01*
X119774298Y-148690004D02*
X119691595Y-148977777D01*
X119524401Y-151853232D02*
X119546332Y-151982567D01*
X119486414Y-151563404D02*
X119493686Y-151628002D01*
X117435022Y-149917924D02*
X117410594Y-149903170D01*
X117452943Y-149928971D02*
X117435022Y-149917924D01*
X117471647Y-149940441D02*
X117452943Y-149928971D01*
X117488524Y-149950743D02*
X117471647Y-149940441D01*
X117500022Y-149957694D02*
X117488524Y-149950743D01*
X119597913Y-152236189D02*
X119600081Y-152247260D01*
X119455160Y-151197777D02*
X119457431Y-151234943D01*
X119891058Y-148196192D02*
X119839522Y-148434580D01*
X119602925Y-149286256D02*
X119596912Y-149310277D01*
X119932296Y-147960277D02*
X119891058Y-148196192D01*
X119614997Y-152311012D02*
X119617668Y-152322709D01*
X119465155Y-151335277D02*
X119467410Y-151358549D01*
X119510387Y-151755277D02*
X119524401Y-151853232D01*
X119647592Y-152447213D02*
X119652687Y-152467777D01*
X119641964Y-152424684D02*
X119647592Y-152447213D01*
X117838770Y-150188408D02*
X117712111Y-150098124D01*
X117949731Y-150271569D02*
X117838770Y-150188408D01*
X119466010Y-150060768D02*
X119456089Y-150170173D01*
X119585002Y-149355277D02*
X119571306Y-149406615D01*
X118990348Y-151565352D02*
X118980163Y-151547052D01*
X118998277Y-151579295D02*
X118990348Y-151565352D01*
X119175179Y-151907925D02*
X119157627Y-151875277D01*
X119196050Y-151947166D02*
X119175179Y-151907925D01*
X119793771Y-153103775D02*
G75*
G02X119778450Y-153104191I-7814J5438D01*
G01*
X119801642Y-153077617D02*
G75*
G02X119793772Y-153103776I-43965J-1036D01*
G01*
X119591336Y-152206189D02*
X119594799Y-152221609D01*
X119504965Y-151713215D02*
X119507876Y-151735494D01*
X119500258Y-149769324D02*
X119497211Y-149788074D01*
X119492916Y-149820277D02*
X119491414Y-149834273D01*
X119474772Y-151442777D02*
X119479586Y-151496968D01*
X119219842Y-151992235D02*
X119196050Y-151947166D01*
X119246362Y-152042777D02*
X119219842Y-151992235D01*
X119476782Y-149953128D02*
X119466010Y-150060768D01*
X119839522Y-148434580D02*
X119774298Y-148690004D01*
X119547577Y-149515220D02*
X119525096Y-149624104D01*
X119529044Y-152605488D02*
X119400735Y-152349065D01*
X119529045Y-152605488D02*
G75*
G02X119530022Y-152609625I-8269J-4137D01*
G01*
X117590998Y-150015371D02*
X117500022Y-149957694D01*
X117712111Y-150098124D02*
X117590998Y-150015371D01*
X118576981Y-150892044D02*
X118457941Y-150743323D01*
X118702584Y-151073051D02*
X118576981Y-150892044D01*
X119525096Y-149624104D02*
X119514785Y-149685277D01*
X119691595Y-148977777D02*
X119672754Y-149040648D01*
X119467410Y-151358549D02*
X119470054Y-151387481D01*
X119503300Y-149752777D02*
X119500258Y-149769324D01*
X119512686Y-149699437D02*
X119509713Y-149717481D01*
X119485041Y-149885277D02*
X119476782Y-149953128D01*
X119762789Y-152890486D02*
X119784316Y-152978882D01*
X119729915Y-152765277D02*
X119762789Y-152890486D01*
X119629114Y-152373688D02*
X119632635Y-152387777D01*
X119625424Y-152358215D02*
X119629114Y-152373688D01*
X119588031Y-152192260D02*
X119591336Y-152206189D01*
X119506422Y-149736231D02*
X119503300Y-149752777D01*
X120042634Y-147132589D02*
X120019274Y-147290793D01*
X119489359Y-149851746D02*
X119487122Y-149869693D01*
X119604678Y-152269391D02*
X119607389Y-152280966D01*
X119569739Y-152108706D02*
X119588031Y-152192260D01*
X119450432Y-150247777D02*
X119439221Y-150485430D01*
X120064571Y-147013377D02*
X120042634Y-147132589D01*
X119514785Y-149685277D02*
X119512686Y-149699437D01*
X119711965Y-152697481D02*
X119729915Y-152765277D01*
X119688021Y-152605658D02*
X119711965Y-152697481D01*
X119507876Y-151735494D02*
X119510387Y-151755277D01*
X119636652Y-152403561D02*
X119641964Y-152424684D01*
X119632635Y-152387777D02*
X119636652Y-152403561D01*
X119460146Y-151274262D02*
X119462884Y-151310118D01*
X119797789Y-153042241D02*
G75*
G02X119801641Y-153077617I-205937J-40320D01*
G01*
X119784316Y-152978882D02*
X119797790Y-153042241D01*
X119149971Y-151861116D02*
X119140235Y-151843074D01*
X119157627Y-151875277D02*
X119149971Y-151861116D01*
X119617668Y-152322709D02*
X119619792Y-152332777D01*
X119509713Y-149717481D02*
X119506422Y-149736231D01*
X118220584Y-150501527D02*
X118142522Y-150431589D01*
X118307249Y-150584817D02*
X118220584Y-150501527D01*
X119502112Y-151691881D02*
X119504965Y-151713215D01*
X119487122Y-149869693D02*
X119485041Y-149885277D01*
X119587276Y-149347511D02*
X119585002Y-149355277D01*
X120019274Y-147290793D02*
X119994836Y-147495277D01*
X118969544Y-151527713D02*
X118960123Y-151510277D01*
X118980163Y-151547052D02*
X118969544Y-151527713D01*
X119745824Y-153052971D02*
X119680900Y-152922769D01*
X119778449Y-153104191D02*
G75*
G02X119745824Y-153052971I252153J196613D01*
G01*
X119441200Y-150910800D02*
X119455160Y-151197777D01*
D10*
G36*
X135604975Y-124708585D02*
G01*
X135904528Y-124768170D01*
X136468874Y-125001930D01*
X136976772Y-125341296D01*
X137408704Y-125773228D01*
X137748070Y-126281126D01*
X137981830Y-126845472D01*
X138101000Y-127444578D01*
X138101000Y-128055422D01*
X137981830Y-128654528D01*
X137748070Y-129218874D01*
X137408704Y-129726772D01*
X136976772Y-130158704D01*
X136468874Y-130498070D01*
X135904528Y-130731830D01*
X135604975Y-130791415D01*
X135305423Y-130851000D01*
X134694577Y-130851000D01*
X134395025Y-130791415D01*
X134095472Y-130731830D01*
X133531126Y-130498070D01*
X133023228Y-130158704D01*
X132591296Y-129726772D01*
X132251930Y-129218874D01*
X132018170Y-128654528D01*
X131899000Y-128055422D01*
X131899000Y-127444578D01*
X132018170Y-126845472D01*
X132251930Y-126281126D01*
X132591296Y-125773228D01*
X133023228Y-125341296D01*
X133531126Y-125001930D01*
X134095472Y-124768170D01*
X134395025Y-124708585D01*
X134694577Y-124649000D01*
X135305423Y-124649000D01*
X135604975Y-124708585D01*
G37*
G36*
X125604975Y-124708585D02*
G01*
X125904528Y-124768170D01*
X126468874Y-125001930D01*
X126976772Y-125341296D01*
X127408704Y-125773228D01*
X127748070Y-126281126D01*
X127981830Y-126845472D01*
X128101000Y-127444578D01*
X128101000Y-128055422D01*
X127981830Y-128654528D01*
X127748070Y-129218874D01*
X127408704Y-129726772D01*
X126976772Y-130158704D01*
X126468874Y-130498070D01*
X125904528Y-130731830D01*
X125604975Y-130791415D01*
X125305423Y-130851000D01*
X124694577Y-130851000D01*
X124395025Y-130791415D01*
X124095472Y-130731830D01*
X123531126Y-130498070D01*
X123023228Y-130158704D01*
X122591296Y-129726772D01*
X122251930Y-129218874D01*
X122018170Y-128654528D01*
X121899000Y-128055422D01*
X121899000Y-127444578D01*
X122018170Y-126845472D01*
X122251930Y-126281126D01*
X122591296Y-125773228D01*
X123023228Y-125341296D01*
X123531126Y-125001930D01*
X124095472Y-124768170D01*
X124395025Y-124708585D01*
X124694577Y-124649000D01*
X125305423Y-124649000D01*
X125604975Y-124708585D01*
G37*
G36*
X115604975Y-124708585D02*
G01*
X115904528Y-124768170D01*
X116468874Y-125001930D01*
X116976772Y-125341296D01*
X117408704Y-125773228D01*
X117748070Y-126281126D01*
X117981830Y-126845472D01*
X118101000Y-127444578D01*
X118101000Y-128055422D01*
X117981830Y-128654528D01*
X117748070Y-129218874D01*
X117408704Y-129726772D01*
X116976772Y-130158704D01*
X116468874Y-130498070D01*
X115904528Y-130731830D01*
X115604975Y-130791415D01*
X115305423Y-130851000D01*
X114694577Y-130851000D01*
X114395025Y-130791415D01*
X114095472Y-130731830D01*
X113531126Y-130498070D01*
X113023228Y-130158704D01*
X112591296Y-129726772D01*
X112251930Y-129218874D01*
X112018170Y-128654528D01*
X111899000Y-128055422D01*
X111899000Y-127444578D01*
X112018170Y-126845472D01*
X112251930Y-126281126D01*
X112591296Y-125773228D01*
X113023228Y-125341296D01*
X113531126Y-125001930D01*
X114095472Y-124768170D01*
X114395025Y-124708585D01*
X114694577Y-124649000D01*
X115305423Y-124649000D01*
X115604975Y-124708585D01*
G37*
G36*
X105604975Y-124708585D02*
G01*
X105904528Y-124768170D01*
X106468874Y-125001930D01*
X106976772Y-125341296D01*
X107408704Y-125773228D01*
X107748070Y-126281126D01*
X107981830Y-126845472D01*
X108101000Y-127444578D01*
X108101000Y-128055422D01*
X107981830Y-128654528D01*
X107748070Y-129218874D01*
X107408704Y-129726772D01*
X106976772Y-130158704D01*
X106468874Y-130498070D01*
X105904528Y-130731830D01*
X105604975Y-130791415D01*
X105305423Y-130851000D01*
X104694577Y-130851000D01*
X104395025Y-130791415D01*
X104095472Y-130731830D01*
X103531126Y-130498070D01*
X103023228Y-130158704D01*
X102591296Y-129726772D01*
X102251930Y-129218874D01*
X102018170Y-128654528D01*
X101899000Y-128055422D01*
X101899000Y-127444578D01*
X102018170Y-126845472D01*
X102251930Y-126281126D01*
X102591296Y-125773228D01*
X103023228Y-125341296D01*
X103531126Y-125001930D01*
X104095472Y-124768170D01*
X104395025Y-124708585D01*
X104694577Y-124649000D01*
X105305423Y-124649000D01*
X105604975Y-124708585D01*
G37*
G36*
X135604975Y-109208585D02*
G01*
X135904528Y-109268170D01*
X136468874Y-109501930D01*
X136976772Y-109841296D01*
X137408704Y-110273228D01*
X137748070Y-110781126D01*
X137981830Y-111345472D01*
X138101000Y-111944578D01*
X138101000Y-112555422D01*
X137981830Y-113154528D01*
X137748070Y-113718874D01*
X137408704Y-114226772D01*
X136976772Y-114658704D01*
X136468874Y-114998070D01*
X135904528Y-115231830D01*
X135604975Y-115291415D01*
X135305423Y-115351000D01*
X134694577Y-115351000D01*
X134395025Y-115291415D01*
X134095472Y-115231830D01*
X133531126Y-114998070D01*
X133023228Y-114658704D01*
X132591296Y-114226772D01*
X132251930Y-113718874D01*
X132018170Y-113154528D01*
X131899000Y-112555422D01*
X131899000Y-111944578D01*
X132018170Y-111345472D01*
X132251930Y-110781126D01*
X132591296Y-110273228D01*
X133023228Y-109841296D01*
X133531126Y-109501930D01*
X134095472Y-109268170D01*
X134395025Y-109208585D01*
X134694577Y-109149000D01*
X135305423Y-109149000D01*
X135604975Y-109208585D01*
G37*
G36*
X125604975Y-109208585D02*
G01*
X125904528Y-109268170D01*
X126468874Y-109501930D01*
X126976772Y-109841296D01*
X127408704Y-110273228D01*
X127748070Y-110781126D01*
X127981830Y-111345472D01*
X128101000Y-111944578D01*
X128101000Y-112555422D01*
X127981830Y-113154528D01*
X127748070Y-113718874D01*
X127408704Y-114226772D01*
X126976772Y-114658704D01*
X126468874Y-114998070D01*
X125904528Y-115231830D01*
X125604975Y-115291415D01*
X125305423Y-115351000D01*
X124694577Y-115351000D01*
X124395025Y-115291415D01*
X124095472Y-115231830D01*
X123531126Y-114998070D01*
X123023228Y-114658704D01*
X122591296Y-114226772D01*
X122251930Y-113718874D01*
X122018170Y-113154528D01*
X121899000Y-112555422D01*
X121899000Y-111944578D01*
X122018170Y-111345472D01*
X122251930Y-110781126D01*
X122591296Y-110273228D01*
X123023228Y-109841296D01*
X123531126Y-109501930D01*
X124095472Y-109268170D01*
X124395025Y-109208585D01*
X124694577Y-109149000D01*
X125305423Y-109149000D01*
X125604975Y-109208585D01*
G37*
G36*
X115604975Y-109208585D02*
G01*
X115904528Y-109268170D01*
X116468874Y-109501930D01*
X116976772Y-109841296D01*
X117408704Y-110273228D01*
X117748070Y-110781126D01*
X117981830Y-111345472D01*
X118101000Y-111944578D01*
X118101000Y-112555422D01*
X117981830Y-113154528D01*
X117748070Y-113718874D01*
X117408704Y-114226772D01*
X116976772Y-114658704D01*
X116468874Y-114998070D01*
X115904528Y-115231830D01*
X115604975Y-115291415D01*
X115305423Y-115351000D01*
X114694577Y-115351000D01*
X114395025Y-115291415D01*
X114095472Y-115231830D01*
X113531126Y-114998070D01*
X113023228Y-114658704D01*
X112591296Y-114226772D01*
X112251930Y-113718874D01*
X112018170Y-113154528D01*
X111899000Y-112555422D01*
X111899000Y-111944578D01*
X112018170Y-111345472D01*
X112251930Y-110781126D01*
X112591296Y-110273228D01*
X113023228Y-109841296D01*
X113531126Y-109501930D01*
X114095472Y-109268170D01*
X114395025Y-109208585D01*
X114694577Y-109149000D01*
X115305423Y-109149000D01*
X115604975Y-109208585D01*
G37*
G36*
X105604975Y-109208585D02*
G01*
X105904528Y-109268170D01*
X106468874Y-109501930D01*
X106976772Y-109841296D01*
X107408704Y-110273228D01*
X107748070Y-110781126D01*
X107981830Y-111345472D01*
X108101000Y-111944578D01*
X108101000Y-112555422D01*
X107981830Y-113154528D01*
X107748070Y-113718874D01*
X107408704Y-114226772D01*
X106976772Y-114658704D01*
X106468874Y-114998070D01*
X105904528Y-115231830D01*
X105604975Y-115291415D01*
X105305423Y-115351000D01*
X104694577Y-115351000D01*
X104395025Y-115291415D01*
X104095472Y-115231830D01*
X103531126Y-114998070D01*
X103023228Y-114658704D01*
X102591296Y-114226772D01*
X102251930Y-113718874D01*
X102018170Y-113154528D01*
X101899000Y-112555422D01*
X101899000Y-111944578D01*
X102018170Y-111345472D01*
X102251930Y-110781126D01*
X102591296Y-110273228D01*
X103023228Y-109841296D01*
X103531126Y-109501930D01*
X104095472Y-109268170D01*
X104395025Y-109208585D01*
X104694577Y-109149000D01*
X105305423Y-109149000D01*
X105604975Y-109208585D01*
G37*
M02*
