G04 #@! TF.GenerationSoftware,KiCad,Pcbnew,(5.1.5-0)*
G04 #@! TF.CreationDate,2021-01-11T19:09:40-08:00*
G04 #@! TF.ProjectId,icbina,69636269-6e61-42e6-9b69-6361645f7063,rev?*
G04 #@! TF.SameCoordinates,Original*
G04 #@! TF.FileFunction,Soldermask,Bot*
G04 #@! TF.FilePolarity,Negative*
%FSLAX46Y46*%
G04 Gerber Fmt 4.6, Leading zero omitted, Abs format (unit mm)*
G04 Created by KiCad (PCBNEW (5.1.5-0)) date 2021-01-11 19:09:40*
%MOMM*%
%LPD*%
G04 APERTURE LIST*
%ADD10C,0.150000*%
%ADD11C,1.000000*%
%ADD12C,0.100000*%
G04 APERTURE END LIST*
D10*
X122726190Y-151452380D02*
X122726190Y-150785714D01*
X122726190Y-150976190D02*
X122678571Y-150880952D01*
X122630952Y-150833333D01*
X122535714Y-150785714D01*
X122440476Y-150785714D01*
X121726190Y-151404761D02*
X121821428Y-151452380D01*
X122011904Y-151452380D01*
X122107142Y-151404761D01*
X122154761Y-151309523D01*
X122154761Y-150928571D01*
X122107142Y-150833333D01*
X122011904Y-150785714D01*
X121821428Y-150785714D01*
X121726190Y-150833333D01*
X121678571Y-150928571D01*
X121678571Y-151023809D01*
X122154761Y-151119047D01*
X121250000Y-150785714D02*
X121250000Y-151785714D01*
X121250000Y-150833333D02*
X121154761Y-150785714D01*
X120964285Y-150785714D01*
X120869047Y-150833333D01*
X120821428Y-150880952D01*
X120773809Y-150976190D01*
X120773809Y-151261904D01*
X120821428Y-151357142D01*
X120869047Y-151404761D01*
X120964285Y-151452380D01*
X121154761Y-151452380D01*
X121250000Y-151404761D01*
X119916666Y-151452380D02*
X119916666Y-150928571D01*
X119964285Y-150833333D01*
X120059523Y-150785714D01*
X120250000Y-150785714D01*
X120345238Y-150833333D01*
X119916666Y-151404761D02*
X120011904Y-151452380D01*
X120250000Y-151452380D01*
X120345238Y-151404761D01*
X120392857Y-151309523D01*
X120392857Y-151214285D01*
X120345238Y-151119047D01*
X120250000Y-151071428D01*
X120011904Y-151071428D01*
X119916666Y-151023809D01*
X119440476Y-150785714D02*
X119440476Y-151452380D01*
X119440476Y-150880952D02*
X119392857Y-150833333D01*
X119297619Y-150785714D01*
X119154761Y-150785714D01*
X119059523Y-150833333D01*
X119011904Y-150928571D01*
X119011904Y-151452380D01*
X118154761Y-151404761D02*
X118250000Y-151452380D01*
X118440476Y-151452380D01*
X118535714Y-151404761D01*
X118583333Y-151309523D01*
X118583333Y-150928571D01*
X118535714Y-150833333D01*
X118440476Y-150785714D01*
X118250000Y-150785714D01*
X118154761Y-150833333D01*
X118107142Y-150928571D01*
X118107142Y-151023809D01*
X118583333Y-151119047D01*
X117535714Y-151452380D02*
X117630952Y-151404761D01*
X117678571Y-151309523D01*
X117678571Y-150452380D01*
X116392857Y-151452380D02*
X116392857Y-150452380D01*
X116392857Y-150833333D02*
X116297619Y-150785714D01*
X116107142Y-150785714D01*
X116011904Y-150833333D01*
X115964285Y-150880952D01*
X115916666Y-150976190D01*
X115916666Y-151261904D01*
X115964285Y-151357142D01*
X116011904Y-151404761D01*
X116107142Y-151452380D01*
X116297619Y-151452380D01*
X116392857Y-151404761D01*
X115583333Y-150785714D02*
X115345238Y-151452380D01*
X115107142Y-150785714D02*
X115345238Y-151452380D01*
X115440476Y-151690476D01*
X115488095Y-151738095D01*
X115583333Y-151785714D01*
X113964285Y-150785714D02*
X113964285Y-151642857D01*
X114011904Y-151738095D01*
X114107142Y-151785714D01*
X114154761Y-151785714D01*
X113964285Y-150452380D02*
X114011904Y-150500000D01*
X113964285Y-150547619D01*
X113916666Y-150500000D01*
X113964285Y-150452380D01*
X113964285Y-150547619D01*
X113059523Y-151452380D02*
X113059523Y-150928571D01*
X113107142Y-150833333D01*
X113202380Y-150785714D01*
X113392857Y-150785714D01*
X113488095Y-150833333D01*
X113059523Y-151404761D02*
X113154761Y-151452380D01*
X113392857Y-151452380D01*
X113488095Y-151404761D01*
X113535714Y-151309523D01*
X113535714Y-151214285D01*
X113488095Y-151119047D01*
X113392857Y-151071428D01*
X113154761Y-151071428D01*
X113059523Y-151023809D01*
X112154761Y-151404761D02*
X112250000Y-151452380D01*
X112440476Y-151452380D01*
X112535714Y-151404761D01*
X112583333Y-151357142D01*
X112630952Y-151261904D01*
X112630952Y-150976190D01*
X112583333Y-150880952D01*
X112535714Y-150833333D01*
X112440476Y-150785714D01*
X112250000Y-150785714D01*
X112154761Y-150833333D01*
X111726190Y-151452380D02*
X111726190Y-150452380D01*
X111630952Y-151071428D02*
X111345238Y-151452380D01*
X111345238Y-150785714D02*
X111726190Y-151166666D01*
X110202380Y-151404761D02*
X110107142Y-151452380D01*
X109916666Y-151452380D01*
X109821428Y-151404761D01*
X109773809Y-151309523D01*
X109773809Y-151261904D01*
X109821428Y-151166666D01*
X109916666Y-151119047D01*
X110059523Y-151119047D01*
X110154761Y-151071428D01*
X110202380Y-150976190D01*
X110202380Y-150928571D01*
X110154761Y-150833333D01*
X110059523Y-150785714D01*
X109916666Y-150785714D01*
X109821428Y-150833333D01*
X109345238Y-151357142D02*
X109297619Y-151404761D01*
X109345238Y-151452380D01*
X109392857Y-151404761D01*
X109345238Y-151357142D01*
X109345238Y-151452380D01*
X108154761Y-150547619D02*
X108107142Y-150500000D01*
X108011904Y-150452380D01*
X107773809Y-150452380D01*
X107678571Y-150500000D01*
X107630952Y-150547619D01*
X107583333Y-150642857D01*
X107583333Y-150738095D01*
X107630952Y-150880952D01*
X108202380Y-151452380D01*
X107583333Y-151452380D01*
X106964285Y-150452380D02*
X106869047Y-150452380D01*
X106773809Y-150500000D01*
X106726190Y-150547619D01*
X106678571Y-150642857D01*
X106630952Y-150833333D01*
X106630952Y-151071428D01*
X106678571Y-151261904D01*
X106726190Y-151357142D01*
X106773809Y-151404761D01*
X106869047Y-151452380D01*
X106964285Y-151452380D01*
X107059523Y-151404761D01*
X107107142Y-151357142D01*
X107154761Y-151261904D01*
X107202380Y-151071428D01*
X107202380Y-150833333D01*
X107154761Y-150642857D01*
X107107142Y-150547619D01*
X107059523Y-150500000D01*
X106964285Y-150452380D01*
X106250000Y-150547619D02*
X106202380Y-150500000D01*
X106107142Y-150452380D01*
X105869047Y-150452380D01*
X105773809Y-150500000D01*
X105726190Y-150547619D01*
X105678571Y-150642857D01*
X105678571Y-150738095D01*
X105726190Y-150880952D01*
X106297619Y-151452380D01*
X105678571Y-151452380D01*
X104726190Y-151452380D02*
X105297619Y-151452380D01*
X105011904Y-151452380D02*
X105011904Y-150452380D01*
X105107142Y-150595238D01*
X105202380Y-150690476D01*
X105297619Y-150738095D01*
D11*
X108500000Y-112250000D02*
G75*
G03X108500000Y-112250000I-3500000J0D01*
G01*
X118500000Y-112250000D02*
G75*
G03X118500000Y-112250000I-3500000J0D01*
G01*
X128500000Y-112250000D02*
G75*
G03X128500000Y-112250000I-3500000J0D01*
G01*
X138500000Y-112250000D02*
G75*
G03X138500000Y-112250000I-3500000J0D01*
G01*
X138500000Y-127750000D02*
G75*
G03X138500000Y-127750000I-3500000J0D01*
G01*
X108500000Y-127750000D02*
G75*
G03X108500000Y-127750000I-3500000J0D01*
G01*
X118500000Y-127750000D02*
G75*
G03X118500000Y-127750000I-3500000J0D01*
G01*
X128500000Y-127750000D02*
G75*
G03X128500000Y-127750000I-3500000J0D01*
G01*
D12*
G36*
X135604975Y-124708585D02*
G01*
X135904528Y-124768170D01*
X136468874Y-125001930D01*
X136976772Y-125341296D01*
X137408704Y-125773228D01*
X137748070Y-126281126D01*
X137981830Y-126845472D01*
X138101000Y-127444578D01*
X138101000Y-128055422D01*
X137981830Y-128654528D01*
X137748070Y-129218874D01*
X137408704Y-129726772D01*
X136976772Y-130158704D01*
X136468874Y-130498070D01*
X135904528Y-130731830D01*
X135604975Y-130791415D01*
X135305423Y-130851000D01*
X134694577Y-130851000D01*
X134395025Y-130791415D01*
X134095472Y-130731830D01*
X133531126Y-130498070D01*
X133023228Y-130158704D01*
X132591296Y-129726772D01*
X132251930Y-129218874D01*
X132018170Y-128654528D01*
X131899000Y-128055422D01*
X131899000Y-127444578D01*
X132018170Y-126845472D01*
X132251930Y-126281126D01*
X132591296Y-125773228D01*
X133023228Y-125341296D01*
X133531126Y-125001930D01*
X134095472Y-124768170D01*
X134395025Y-124708585D01*
X134694577Y-124649000D01*
X135305423Y-124649000D01*
X135604975Y-124708585D01*
G37*
G36*
X125604975Y-124708585D02*
G01*
X125904528Y-124768170D01*
X126468874Y-125001930D01*
X126976772Y-125341296D01*
X127408704Y-125773228D01*
X127748070Y-126281126D01*
X127981830Y-126845472D01*
X128101000Y-127444578D01*
X128101000Y-128055422D01*
X127981830Y-128654528D01*
X127748070Y-129218874D01*
X127408704Y-129726772D01*
X126976772Y-130158704D01*
X126468874Y-130498070D01*
X125904528Y-130731830D01*
X125604975Y-130791415D01*
X125305423Y-130851000D01*
X124694577Y-130851000D01*
X124395025Y-130791415D01*
X124095472Y-130731830D01*
X123531126Y-130498070D01*
X123023228Y-130158704D01*
X122591296Y-129726772D01*
X122251930Y-129218874D01*
X122018170Y-128654528D01*
X121899000Y-128055422D01*
X121899000Y-127444578D01*
X122018170Y-126845472D01*
X122251930Y-126281126D01*
X122591296Y-125773228D01*
X123023228Y-125341296D01*
X123531126Y-125001930D01*
X124095472Y-124768170D01*
X124395025Y-124708585D01*
X124694577Y-124649000D01*
X125305423Y-124649000D01*
X125604975Y-124708585D01*
G37*
G36*
X115604975Y-124708585D02*
G01*
X115904528Y-124768170D01*
X116468874Y-125001930D01*
X116976772Y-125341296D01*
X117408704Y-125773228D01*
X117748070Y-126281126D01*
X117981830Y-126845472D01*
X118101000Y-127444578D01*
X118101000Y-128055422D01*
X117981830Y-128654528D01*
X117748070Y-129218874D01*
X117408704Y-129726772D01*
X116976772Y-130158704D01*
X116468874Y-130498070D01*
X115904528Y-130731830D01*
X115604975Y-130791415D01*
X115305423Y-130851000D01*
X114694577Y-130851000D01*
X114395025Y-130791415D01*
X114095472Y-130731830D01*
X113531126Y-130498070D01*
X113023228Y-130158704D01*
X112591296Y-129726772D01*
X112251930Y-129218874D01*
X112018170Y-128654528D01*
X111899000Y-128055422D01*
X111899000Y-127444578D01*
X112018170Y-126845472D01*
X112251930Y-126281126D01*
X112591296Y-125773228D01*
X113023228Y-125341296D01*
X113531126Y-125001930D01*
X114095472Y-124768170D01*
X114395025Y-124708585D01*
X114694577Y-124649000D01*
X115305423Y-124649000D01*
X115604975Y-124708585D01*
G37*
G36*
X105604975Y-124708585D02*
G01*
X105904528Y-124768170D01*
X106468874Y-125001930D01*
X106976772Y-125341296D01*
X107408704Y-125773228D01*
X107748070Y-126281126D01*
X107981830Y-126845472D01*
X108101000Y-127444578D01*
X108101000Y-128055422D01*
X107981830Y-128654528D01*
X107748070Y-129218874D01*
X107408704Y-129726772D01*
X106976772Y-130158704D01*
X106468874Y-130498070D01*
X105904528Y-130731830D01*
X105604975Y-130791415D01*
X105305423Y-130851000D01*
X104694577Y-130851000D01*
X104395025Y-130791415D01*
X104095472Y-130731830D01*
X103531126Y-130498070D01*
X103023228Y-130158704D01*
X102591296Y-129726772D01*
X102251930Y-129218874D01*
X102018170Y-128654528D01*
X101899000Y-128055422D01*
X101899000Y-127444578D01*
X102018170Y-126845472D01*
X102251930Y-126281126D01*
X102591296Y-125773228D01*
X103023228Y-125341296D01*
X103531126Y-125001930D01*
X104095472Y-124768170D01*
X104395025Y-124708585D01*
X104694577Y-124649000D01*
X105305423Y-124649000D01*
X105604975Y-124708585D01*
G37*
G36*
X135604975Y-109208585D02*
G01*
X135904528Y-109268170D01*
X136468874Y-109501930D01*
X136976772Y-109841296D01*
X137408704Y-110273228D01*
X137748070Y-110781126D01*
X137981830Y-111345472D01*
X138101000Y-111944578D01*
X138101000Y-112555422D01*
X137981830Y-113154528D01*
X137748070Y-113718874D01*
X137408704Y-114226772D01*
X136976772Y-114658704D01*
X136468874Y-114998070D01*
X135904528Y-115231830D01*
X135604975Y-115291415D01*
X135305423Y-115351000D01*
X134694577Y-115351000D01*
X134395025Y-115291415D01*
X134095472Y-115231830D01*
X133531126Y-114998070D01*
X133023228Y-114658704D01*
X132591296Y-114226772D01*
X132251930Y-113718874D01*
X132018170Y-113154528D01*
X131899000Y-112555422D01*
X131899000Y-111944578D01*
X132018170Y-111345472D01*
X132251930Y-110781126D01*
X132591296Y-110273228D01*
X133023228Y-109841296D01*
X133531126Y-109501930D01*
X134095472Y-109268170D01*
X134395025Y-109208585D01*
X134694577Y-109149000D01*
X135305423Y-109149000D01*
X135604975Y-109208585D01*
G37*
G36*
X125604975Y-109208585D02*
G01*
X125904528Y-109268170D01*
X126468874Y-109501930D01*
X126976772Y-109841296D01*
X127408704Y-110273228D01*
X127748070Y-110781126D01*
X127981830Y-111345472D01*
X128101000Y-111944578D01*
X128101000Y-112555422D01*
X127981830Y-113154528D01*
X127748070Y-113718874D01*
X127408704Y-114226772D01*
X126976772Y-114658704D01*
X126468874Y-114998070D01*
X125904528Y-115231830D01*
X125604975Y-115291415D01*
X125305423Y-115351000D01*
X124694577Y-115351000D01*
X124395025Y-115291415D01*
X124095472Y-115231830D01*
X123531126Y-114998070D01*
X123023228Y-114658704D01*
X122591296Y-114226772D01*
X122251930Y-113718874D01*
X122018170Y-113154528D01*
X121899000Y-112555422D01*
X121899000Y-111944578D01*
X122018170Y-111345472D01*
X122251930Y-110781126D01*
X122591296Y-110273228D01*
X123023228Y-109841296D01*
X123531126Y-109501930D01*
X124095472Y-109268170D01*
X124395025Y-109208585D01*
X124694577Y-109149000D01*
X125305423Y-109149000D01*
X125604975Y-109208585D01*
G37*
G36*
X115604975Y-109208585D02*
G01*
X115904528Y-109268170D01*
X116468874Y-109501930D01*
X116976772Y-109841296D01*
X117408704Y-110273228D01*
X117748070Y-110781126D01*
X117981830Y-111345472D01*
X118101000Y-111944578D01*
X118101000Y-112555422D01*
X117981830Y-113154528D01*
X117748070Y-113718874D01*
X117408704Y-114226772D01*
X116976772Y-114658704D01*
X116468874Y-114998070D01*
X115904528Y-115231830D01*
X115604975Y-115291415D01*
X115305423Y-115351000D01*
X114694577Y-115351000D01*
X114395025Y-115291415D01*
X114095472Y-115231830D01*
X113531126Y-114998070D01*
X113023228Y-114658704D01*
X112591296Y-114226772D01*
X112251930Y-113718874D01*
X112018170Y-113154528D01*
X111899000Y-112555422D01*
X111899000Y-111944578D01*
X112018170Y-111345472D01*
X112251930Y-110781126D01*
X112591296Y-110273228D01*
X113023228Y-109841296D01*
X113531126Y-109501930D01*
X114095472Y-109268170D01*
X114395025Y-109208585D01*
X114694577Y-109149000D01*
X115305423Y-109149000D01*
X115604975Y-109208585D01*
G37*
G36*
X105604975Y-109208585D02*
G01*
X105904528Y-109268170D01*
X106468874Y-109501930D01*
X106976772Y-109841296D01*
X107408704Y-110273228D01*
X107748070Y-110781126D01*
X107981830Y-111345472D01*
X108101000Y-111944578D01*
X108101000Y-112555422D01*
X107981830Y-113154528D01*
X107748070Y-113718874D01*
X107408704Y-114226772D01*
X106976772Y-114658704D01*
X106468874Y-114998070D01*
X105904528Y-115231830D01*
X105604975Y-115291415D01*
X105305423Y-115351000D01*
X104694577Y-115351000D01*
X104395025Y-115291415D01*
X104095472Y-115231830D01*
X103531126Y-114998070D01*
X103023228Y-114658704D01*
X102591296Y-114226772D01*
X102251930Y-113718874D01*
X102018170Y-113154528D01*
X101899000Y-112555422D01*
X101899000Y-111944578D01*
X102018170Y-111345472D01*
X102251930Y-110781126D01*
X102591296Y-110273228D01*
X103023228Y-109841296D01*
X103531126Y-109501930D01*
X104095472Y-109268170D01*
X104395025Y-109208585D01*
X104694577Y-109149000D01*
X105305423Y-109149000D01*
X105604975Y-109208585D01*
G37*
M02*
