G04 #@! TF.GenerationSoftware,KiCad,Pcbnew,(5.1.5-0)*
G04 #@! TF.CreationDate,2021-01-12T22:56:50-08:00*
G04 #@! TF.ProjectId,trackydacks,74726163-6b79-4646-9163-6b732e6b6963,rev?*
G04 #@! TF.SameCoordinates,Original*
G04 #@! TF.FileFunction,Copper,L2,Bot*
G04 #@! TF.FilePolarity,Positive*
%FSLAX46Y46*%
G04 Gerber Fmt 4.6, Leading zero omitted, Abs format (unit mm)*
G04 Created by KiCad (PCBNEW (5.1.5-0)) date 2021-01-12 22:56:50*
%MOMM*%
%LPD*%
G04 APERTURE LIST*
%ADD10C,3.100000*%
%ADD11C,6.100000*%
%ADD12C,0.254000*%
G04 APERTURE END LIST*
D10*
X135250000Y500000D03*
X115250000Y500000D03*
D11*
X105250000Y500000D03*
X125250000Y500000D03*
X105250000Y15500000D03*
X115250000Y15500000D03*
X125250000Y15500000D03*
X135250000Y15500000D03*
D12*
G36*
X139540001Y-27840000D02*
G01*
X100660000Y-27840000D01*
X100660000Y-25451353D01*
X104242755Y-25451353D01*
X104243173Y-25511171D01*
X104242755Y-25570988D01*
X104243655Y-25580160D01*
X104276296Y-25890715D01*
X104288320Y-25949291D01*
X104299532Y-26008070D01*
X104302196Y-26016892D01*
X104394535Y-26315192D01*
X104417715Y-26370335D01*
X104440124Y-26425800D01*
X104444451Y-26433937D01*
X104592972Y-26708621D01*
X104626417Y-26758205D01*
X104659177Y-26808268D01*
X104665001Y-26815409D01*
X104864047Y-27056013D01*
X104906482Y-27098154D01*
X104948346Y-27140903D01*
X104955446Y-27146777D01*
X105197435Y-27344138D01*
X105247259Y-27377241D01*
X105296615Y-27411036D01*
X105304721Y-27415419D01*
X105580435Y-27562019D01*
X105635704Y-27584799D01*
X105690724Y-27608381D01*
X105699527Y-27611105D01*
X105998465Y-27701359D01*
X106057138Y-27712976D01*
X106115655Y-27725415D01*
X106124820Y-27726378D01*
X106435594Y-27756850D01*
X106435598Y-27756850D01*
X106467581Y-27760000D01*
X108532419Y-27760000D01*
X108565986Y-27756694D01*
X108586744Y-27756694D01*
X108595909Y-27755731D01*
X108906228Y-27720923D01*
X108964731Y-27708487D01*
X109023419Y-27696867D01*
X109032222Y-27694142D01*
X109329870Y-27599723D01*
X109384792Y-27576183D01*
X109440159Y-27553363D01*
X109448265Y-27548979D01*
X109721904Y-27398544D01*
X109771217Y-27364779D01*
X109821088Y-27331645D01*
X109828188Y-27325770D01*
X110067397Y-27125049D01*
X110109241Y-27082320D01*
X110151694Y-27040162D01*
X110157519Y-27033020D01*
X110353185Y-26789660D01*
X110385938Y-26739608D01*
X110419391Y-26690013D01*
X110423714Y-26681881D01*
X110423717Y-26681877D01*
X110423719Y-26681873D01*
X110568388Y-26405146D01*
X110590785Y-26349711D01*
X110613978Y-26294539D01*
X110616641Y-26285717D01*
X110704807Y-25986156D01*
X110716007Y-25927440D01*
X110728045Y-25868798D01*
X110728944Y-25859627D01*
X110757245Y-25548647D01*
X110756827Y-25488830D01*
X110757088Y-25451353D01*
X129442755Y-25451353D01*
X129443173Y-25511171D01*
X129442755Y-25570988D01*
X129443655Y-25580160D01*
X129476296Y-25890715D01*
X129488320Y-25949291D01*
X129499532Y-26008070D01*
X129502196Y-26016892D01*
X129594535Y-26315192D01*
X129617715Y-26370335D01*
X129640124Y-26425800D01*
X129644451Y-26433937D01*
X129792972Y-26708621D01*
X129826417Y-26758205D01*
X129859177Y-26808268D01*
X129865001Y-26815409D01*
X130064047Y-27056013D01*
X130106482Y-27098154D01*
X130148346Y-27140903D01*
X130155446Y-27146777D01*
X130397435Y-27344138D01*
X130447259Y-27377241D01*
X130496615Y-27411036D01*
X130504721Y-27415419D01*
X130780435Y-27562019D01*
X130835704Y-27584799D01*
X130890724Y-27608381D01*
X130899527Y-27611105D01*
X131198465Y-27701359D01*
X131257138Y-27712976D01*
X131315655Y-27725415D01*
X131324820Y-27726378D01*
X131635594Y-27756850D01*
X131635598Y-27756850D01*
X131667581Y-27760000D01*
X133732419Y-27760000D01*
X133765986Y-27756694D01*
X133786744Y-27756694D01*
X133795909Y-27755731D01*
X134106228Y-27720923D01*
X134164731Y-27708487D01*
X134223419Y-27696867D01*
X134232222Y-27694142D01*
X134529870Y-27599723D01*
X134584792Y-27576183D01*
X134640159Y-27553363D01*
X134648265Y-27548979D01*
X134921904Y-27398544D01*
X134971217Y-27364779D01*
X135021088Y-27331645D01*
X135028188Y-27325770D01*
X135267397Y-27125049D01*
X135309241Y-27082320D01*
X135351694Y-27040162D01*
X135357519Y-27033020D01*
X135553185Y-26789660D01*
X135585938Y-26739608D01*
X135619391Y-26690013D01*
X135623714Y-26681881D01*
X135623717Y-26681877D01*
X135623719Y-26681873D01*
X135768388Y-26405146D01*
X135790785Y-26349711D01*
X135813978Y-26294539D01*
X135816641Y-26285717D01*
X135904807Y-25986156D01*
X135916007Y-25927440D01*
X135928045Y-25868798D01*
X135928944Y-25859627D01*
X135957245Y-25548647D01*
X135956827Y-25488830D01*
X135957245Y-25429012D01*
X135956345Y-25419841D01*
X135923704Y-25109285D01*
X135911680Y-25050709D01*
X135900468Y-24991930D01*
X135897804Y-24983108D01*
X135805465Y-24684808D01*
X135782280Y-24629653D01*
X135759876Y-24574200D01*
X135755549Y-24566064D01*
X135755549Y-24566063D01*
X135755546Y-24566059D01*
X135607028Y-24291379D01*
X135573583Y-24241795D01*
X135540823Y-24191732D01*
X135534999Y-24184591D01*
X135335954Y-23943987D01*
X135293535Y-23901863D01*
X135251655Y-23859097D01*
X135244554Y-23853223D01*
X135002565Y-23655862D01*
X134952741Y-23622759D01*
X134903385Y-23588964D01*
X134895279Y-23584581D01*
X134619566Y-23437981D01*
X134564269Y-23415189D01*
X134509275Y-23391619D01*
X134500472Y-23388895D01*
X134201535Y-23298641D01*
X134142862Y-23287024D01*
X134084345Y-23274585D01*
X134075180Y-23273622D01*
X133764405Y-23243150D01*
X133764402Y-23243150D01*
X133732419Y-23240000D01*
X131667581Y-23240000D01*
X131634014Y-23243306D01*
X131613256Y-23243306D01*
X131604091Y-23244269D01*
X131293771Y-23279077D01*
X131235298Y-23291506D01*
X131176581Y-23303132D01*
X131167778Y-23305858D01*
X130870130Y-23400277D01*
X130815147Y-23423843D01*
X130759841Y-23446638D01*
X130751735Y-23451021D01*
X130478095Y-23601456D01*
X130428748Y-23635245D01*
X130378913Y-23668355D01*
X130371812Y-23674229D01*
X130132603Y-23874951D01*
X130090759Y-23917681D01*
X130048305Y-23959839D01*
X130042481Y-23966980D01*
X129846814Y-24210340D01*
X129814055Y-24260400D01*
X129780609Y-24309986D01*
X129776283Y-24318123D01*
X129631612Y-24594854D01*
X129609215Y-24650289D01*
X129586022Y-24705461D01*
X129583359Y-24714283D01*
X129495193Y-25013844D01*
X129483993Y-25072560D01*
X129471955Y-25131202D01*
X129471056Y-25140373D01*
X129442755Y-25451353D01*
X110757088Y-25451353D01*
X110757245Y-25429012D01*
X110756345Y-25419841D01*
X110723704Y-25109285D01*
X110711680Y-25050709D01*
X110700468Y-24991930D01*
X110697804Y-24983108D01*
X110605465Y-24684808D01*
X110582280Y-24629653D01*
X110559876Y-24574200D01*
X110555549Y-24566064D01*
X110555549Y-24566063D01*
X110555546Y-24566059D01*
X110407028Y-24291379D01*
X110373583Y-24241795D01*
X110340823Y-24191732D01*
X110334999Y-24184591D01*
X110135954Y-23943987D01*
X110093535Y-23901863D01*
X110051655Y-23859097D01*
X110044554Y-23853223D01*
X109802565Y-23655862D01*
X109752741Y-23622759D01*
X109703385Y-23588964D01*
X109695279Y-23584581D01*
X109419566Y-23437981D01*
X109364269Y-23415189D01*
X109309275Y-23391619D01*
X109300472Y-23388895D01*
X109001535Y-23298641D01*
X108942862Y-23287024D01*
X108884345Y-23274585D01*
X108875180Y-23273622D01*
X108564405Y-23243150D01*
X108564402Y-23243150D01*
X108532419Y-23240000D01*
X106467581Y-23240000D01*
X106434014Y-23243306D01*
X106413256Y-23243306D01*
X106404091Y-23244269D01*
X106093771Y-23279077D01*
X106035298Y-23291506D01*
X105976581Y-23303132D01*
X105967778Y-23305858D01*
X105670130Y-23400277D01*
X105615147Y-23423843D01*
X105559841Y-23446638D01*
X105551735Y-23451021D01*
X105278095Y-23601456D01*
X105228748Y-23635245D01*
X105178913Y-23668355D01*
X105171812Y-23674229D01*
X104932603Y-23874951D01*
X104890759Y-23917681D01*
X104848305Y-23959839D01*
X104842481Y-23966980D01*
X104646814Y-24210340D01*
X104614055Y-24260400D01*
X104580609Y-24309986D01*
X104576283Y-24318123D01*
X104431612Y-24594854D01*
X104409215Y-24650289D01*
X104386022Y-24705461D01*
X104383359Y-24714283D01*
X104295193Y-25013844D01*
X104283993Y-25072560D01*
X104271955Y-25131202D01*
X104271056Y-25140373D01*
X104242755Y-25451353D01*
X100660000Y-25451353D01*
X100660000Y55934216D01*
X105341332Y55934216D01*
X105341332Y55065784D01*
X105510754Y54214039D01*
X105843089Y53411712D01*
X106325564Y52689638D01*
X106939638Y52075564D01*
X107661712Y51593089D01*
X108464039Y51260754D01*
X109315784Y51091332D01*
X110184216Y51091332D01*
X111035961Y51260754D01*
X111838288Y51593089D01*
X112560362Y52075564D01*
X113174436Y52689638D01*
X113656911Y53411712D01*
X113989246Y54214039D01*
X114158668Y55065784D01*
X114158668Y55934216D01*
X125591332Y55934216D01*
X125591332Y55065784D01*
X125760754Y54214039D01*
X126093089Y53411712D01*
X126575564Y52689638D01*
X127189638Y52075564D01*
X127911712Y51593089D01*
X128714039Y51260754D01*
X129565784Y51091332D01*
X130434216Y51091332D01*
X131285961Y51260754D01*
X132088288Y51593089D01*
X132810362Y52075564D01*
X133424436Y52689638D01*
X133906911Y53411712D01*
X134239246Y54214039D01*
X134408668Y55065784D01*
X134408668Y55934216D01*
X134239246Y56785961D01*
X133906911Y57588288D01*
X133424436Y58310362D01*
X132810362Y58924436D01*
X132088288Y59406911D01*
X131285961Y59739246D01*
X130434216Y59908668D01*
X129565784Y59908668D01*
X128714039Y59739246D01*
X127911712Y59406911D01*
X127189638Y58924436D01*
X126575564Y58310362D01*
X126093089Y57588288D01*
X125760754Y56785961D01*
X125591332Y55934216D01*
X114158668Y55934216D01*
X113989246Y56785961D01*
X113656911Y57588288D01*
X113174436Y58310362D01*
X112560362Y58924436D01*
X111838288Y59406911D01*
X111035961Y59739246D01*
X110184216Y59908668D01*
X109315784Y59908668D01*
X108464039Y59739246D01*
X107661712Y59406911D01*
X106939638Y58924436D01*
X106325564Y58310362D01*
X105843089Y57588288D01*
X105510754Y56785961D01*
X105341332Y55934216D01*
X100660000Y55934216D01*
X100660000Y75684216D01*
X105091332Y75684216D01*
X105091332Y74815784D01*
X105260754Y73964039D01*
X105593089Y73161712D01*
X106075564Y72439638D01*
X106689638Y71825564D01*
X107411712Y71343089D01*
X108214039Y71010754D01*
X109065784Y70841332D01*
X109934216Y70841332D01*
X110785961Y71010754D01*
X111588288Y71343089D01*
X112310362Y71825564D01*
X112924436Y72439638D01*
X113406911Y73161712D01*
X113739246Y73964039D01*
X113908668Y74815784D01*
X113908668Y75684216D01*
X125591332Y75684216D01*
X125591332Y74815784D01*
X125760754Y73964039D01*
X126093089Y73161712D01*
X126575564Y72439638D01*
X127189638Y71825564D01*
X127911712Y71343089D01*
X128714039Y71010754D01*
X129565784Y70841332D01*
X130434216Y70841332D01*
X131285961Y71010754D01*
X132088288Y71343089D01*
X132810362Y71825564D01*
X133424436Y72439638D01*
X133906911Y73161712D01*
X134239246Y73964039D01*
X134408668Y74815784D01*
X134408668Y75684216D01*
X134239246Y76535961D01*
X133906911Y77338288D01*
X133424436Y78060362D01*
X132810362Y78674436D01*
X132088288Y79156911D01*
X131285961Y79489246D01*
X130434216Y79658668D01*
X129565784Y79658668D01*
X128714039Y79489246D01*
X127911712Y79156911D01*
X127189638Y78674436D01*
X126575564Y78060362D01*
X126093089Y77338288D01*
X125760754Y76535961D01*
X125591332Y75684216D01*
X113908668Y75684216D01*
X113739246Y76535961D01*
X113406911Y77338288D01*
X112924436Y78060362D01*
X112310362Y78674436D01*
X111588288Y79156911D01*
X110785961Y79489246D01*
X109934216Y79658668D01*
X109065784Y79658668D01*
X108214039Y79489246D01*
X107411712Y79156911D01*
X106689638Y78674436D01*
X106075564Y78060362D01*
X105593089Y77338288D01*
X105260754Y76535961D01*
X105091332Y75684216D01*
X100660000Y75684216D01*
X100660000Y96948647D01*
X104242755Y96948647D01*
X104243173Y96888829D01*
X104242755Y96829012D01*
X104243655Y96819840D01*
X104276296Y96509285D01*
X104288320Y96450709D01*
X104299532Y96391930D01*
X104302196Y96383108D01*
X104394535Y96084808D01*
X104417715Y96029665D01*
X104440124Y95974200D01*
X104444451Y95966063D01*
X104592972Y95691379D01*
X104626417Y95641795D01*
X104659177Y95591732D01*
X104665001Y95584591D01*
X104864047Y95343987D01*
X104906482Y95301846D01*
X104948346Y95259097D01*
X104955446Y95253223D01*
X105197435Y95055862D01*
X105247259Y95022759D01*
X105296615Y94988964D01*
X105304721Y94984581D01*
X105580435Y94837981D01*
X105635704Y94815201D01*
X105690724Y94791619D01*
X105699527Y94788895D01*
X105998465Y94698641D01*
X106057138Y94687024D01*
X106115655Y94674585D01*
X106124820Y94673622D01*
X106435594Y94643150D01*
X106435598Y94643150D01*
X106467581Y94640000D01*
X108532419Y94640000D01*
X108565986Y94643306D01*
X108586744Y94643306D01*
X108595909Y94644269D01*
X108906228Y94679077D01*
X108964731Y94691513D01*
X109023419Y94703133D01*
X109032222Y94705858D01*
X109329870Y94800277D01*
X109384792Y94823817D01*
X109440159Y94846637D01*
X109448265Y94851021D01*
X109721904Y95001456D01*
X109771217Y95035221D01*
X109821088Y95068355D01*
X109828188Y95074230D01*
X110067397Y95274951D01*
X110109241Y95317680D01*
X110151694Y95359838D01*
X110157519Y95366980D01*
X110353185Y95610340D01*
X110385938Y95660392D01*
X110419391Y95709987D01*
X110423714Y95718119D01*
X110423717Y95718123D01*
X110423719Y95718127D01*
X110568388Y95994854D01*
X110590785Y96050289D01*
X110613978Y96105461D01*
X110616641Y96114283D01*
X110704807Y96413844D01*
X110716007Y96472560D01*
X110728045Y96531202D01*
X110728944Y96540373D01*
X110757245Y96851353D01*
X110756827Y96911171D01*
X110757088Y96948647D01*
X129442755Y96948647D01*
X129443173Y96888829D01*
X129442755Y96829012D01*
X129443655Y96819840D01*
X129476296Y96509285D01*
X129488320Y96450709D01*
X129499532Y96391930D01*
X129502196Y96383108D01*
X129594535Y96084808D01*
X129617715Y96029665D01*
X129640124Y95974200D01*
X129644451Y95966063D01*
X129792972Y95691379D01*
X129826417Y95641795D01*
X129859177Y95591732D01*
X129865001Y95584591D01*
X130064047Y95343987D01*
X130106482Y95301846D01*
X130148346Y95259097D01*
X130155446Y95253223D01*
X130397435Y95055862D01*
X130447259Y95022759D01*
X130496615Y94988964D01*
X130504721Y94984581D01*
X130780435Y94837981D01*
X130835704Y94815201D01*
X130890724Y94791619D01*
X130899527Y94788895D01*
X131198465Y94698641D01*
X131257138Y94687024D01*
X131315655Y94674585D01*
X131324820Y94673622D01*
X131635594Y94643150D01*
X131635598Y94643150D01*
X131667581Y94640000D01*
X133732419Y94640000D01*
X133765986Y94643306D01*
X133786744Y94643306D01*
X133795909Y94644269D01*
X134106228Y94679077D01*
X134164731Y94691513D01*
X134223419Y94703133D01*
X134232222Y94705858D01*
X134529870Y94800277D01*
X134584792Y94823817D01*
X134640159Y94846637D01*
X134648265Y94851021D01*
X134921904Y95001456D01*
X134971217Y95035221D01*
X135021088Y95068355D01*
X135028188Y95074230D01*
X135267397Y95274951D01*
X135309241Y95317680D01*
X135351694Y95359838D01*
X135357519Y95366980D01*
X135553185Y95610340D01*
X135585938Y95660392D01*
X135619391Y95709987D01*
X135623714Y95718119D01*
X135623717Y95718123D01*
X135623719Y95718127D01*
X135768388Y95994854D01*
X135790785Y96050289D01*
X135813978Y96105461D01*
X135816641Y96114283D01*
X135904807Y96413844D01*
X135916007Y96472560D01*
X135928045Y96531202D01*
X135928944Y96540373D01*
X135957245Y96851353D01*
X135956827Y96911170D01*
X135957245Y96970988D01*
X135956345Y96980159D01*
X135923704Y97290715D01*
X135911680Y97349291D01*
X135900468Y97408070D01*
X135897804Y97416892D01*
X135805465Y97715192D01*
X135782280Y97770347D01*
X135759876Y97825800D01*
X135755549Y97833936D01*
X135755549Y97833937D01*
X135755546Y97833941D01*
X135607028Y98108621D01*
X135573583Y98158205D01*
X135540823Y98208268D01*
X135534999Y98215409D01*
X135335954Y98456013D01*
X135293535Y98498137D01*
X135251655Y98540903D01*
X135244554Y98546777D01*
X135002565Y98744138D01*
X134952741Y98777241D01*
X134903385Y98811036D01*
X134895279Y98815419D01*
X134619566Y98962019D01*
X134564269Y98984811D01*
X134509275Y99008381D01*
X134500472Y99011105D01*
X134201535Y99101359D01*
X134142862Y99112976D01*
X134084345Y99125415D01*
X134075180Y99126378D01*
X133764405Y99156850D01*
X133764402Y99156850D01*
X133732419Y99160000D01*
X131667581Y99160000D01*
X131634014Y99156694D01*
X131613256Y99156694D01*
X131604091Y99155731D01*
X131293771Y99120923D01*
X131235298Y99108494D01*
X131176581Y99096868D01*
X131167778Y99094142D01*
X130870130Y98999723D01*
X130815147Y98976157D01*
X130759841Y98953362D01*
X130751735Y98948979D01*
X130478095Y98798544D01*
X130428748Y98764755D01*
X130378913Y98731645D01*
X130371812Y98725771D01*
X130132603Y98525049D01*
X130090759Y98482319D01*
X130048305Y98440161D01*
X130042481Y98433020D01*
X129846814Y98189660D01*
X129814055Y98139600D01*
X129780609Y98090014D01*
X129776283Y98081877D01*
X129631612Y97805146D01*
X129609215Y97749711D01*
X129586022Y97694539D01*
X129583359Y97685717D01*
X129495193Y97386156D01*
X129483993Y97327440D01*
X129471955Y97268798D01*
X129471056Y97259627D01*
X129442755Y96948647D01*
X110757088Y96948647D01*
X110757245Y96970988D01*
X110756345Y96980159D01*
X110723704Y97290715D01*
X110711680Y97349291D01*
X110700468Y97408070D01*
X110697804Y97416892D01*
X110605465Y97715192D01*
X110582280Y97770347D01*
X110559876Y97825800D01*
X110555549Y97833936D01*
X110555549Y97833937D01*
X110555546Y97833941D01*
X110407028Y98108621D01*
X110373583Y98158205D01*
X110340823Y98208268D01*
X110334999Y98215409D01*
X110135954Y98456013D01*
X110093535Y98498137D01*
X110051655Y98540903D01*
X110044554Y98546777D01*
X109802565Y98744138D01*
X109752741Y98777241D01*
X109703385Y98811036D01*
X109695279Y98815419D01*
X109419566Y98962019D01*
X109364269Y98984811D01*
X109309275Y99008381D01*
X109300472Y99011105D01*
X109001535Y99101359D01*
X108942862Y99112976D01*
X108884345Y99125415D01*
X108875180Y99126378D01*
X108564405Y99156850D01*
X108564402Y99156850D01*
X108532419Y99160000D01*
X106467581Y99160000D01*
X106434014Y99156694D01*
X106413256Y99156694D01*
X106404091Y99155731D01*
X106093771Y99120923D01*
X106035298Y99108494D01*
X105976581Y99096868D01*
X105967778Y99094142D01*
X105670130Y98999723D01*
X105615147Y98976157D01*
X105559841Y98953362D01*
X105551735Y98948979D01*
X105278095Y98798544D01*
X105228748Y98764755D01*
X105178913Y98731645D01*
X105171812Y98725771D01*
X104932603Y98525049D01*
X104890759Y98482319D01*
X104848305Y98440161D01*
X104842481Y98433020D01*
X104646814Y98189660D01*
X104614055Y98139600D01*
X104580609Y98090014D01*
X104576283Y98081877D01*
X104431612Y97805146D01*
X104409215Y97749711D01*
X104386022Y97694539D01*
X104383359Y97685717D01*
X104295193Y97386156D01*
X104283993Y97327440D01*
X104271955Y97268798D01*
X104271056Y97259627D01*
X104242755Y96948647D01*
X100660000Y96948647D01*
X100660000Y99340000D01*
X139540000Y99340000D01*
X139540001Y-27840000D01*
G37*
X139540001Y-27840000D02*
X100660000Y-27840000D01*
X100660000Y-25451353D01*
X104242755Y-25451353D01*
X104243173Y-25511171D01*
X104242755Y-25570988D01*
X104243655Y-25580160D01*
X104276296Y-25890715D01*
X104288320Y-25949291D01*
X104299532Y-26008070D01*
X104302196Y-26016892D01*
X104394535Y-26315192D01*
X104417715Y-26370335D01*
X104440124Y-26425800D01*
X104444451Y-26433937D01*
X104592972Y-26708621D01*
X104626417Y-26758205D01*
X104659177Y-26808268D01*
X104665001Y-26815409D01*
X104864047Y-27056013D01*
X104906482Y-27098154D01*
X104948346Y-27140903D01*
X104955446Y-27146777D01*
X105197435Y-27344138D01*
X105247259Y-27377241D01*
X105296615Y-27411036D01*
X105304721Y-27415419D01*
X105580435Y-27562019D01*
X105635704Y-27584799D01*
X105690724Y-27608381D01*
X105699527Y-27611105D01*
X105998465Y-27701359D01*
X106057138Y-27712976D01*
X106115655Y-27725415D01*
X106124820Y-27726378D01*
X106435594Y-27756850D01*
X106435598Y-27756850D01*
X106467581Y-27760000D01*
X108532419Y-27760000D01*
X108565986Y-27756694D01*
X108586744Y-27756694D01*
X108595909Y-27755731D01*
X108906228Y-27720923D01*
X108964731Y-27708487D01*
X109023419Y-27696867D01*
X109032222Y-27694142D01*
X109329870Y-27599723D01*
X109384792Y-27576183D01*
X109440159Y-27553363D01*
X109448265Y-27548979D01*
X109721904Y-27398544D01*
X109771217Y-27364779D01*
X109821088Y-27331645D01*
X109828188Y-27325770D01*
X110067397Y-27125049D01*
X110109241Y-27082320D01*
X110151694Y-27040162D01*
X110157519Y-27033020D01*
X110353185Y-26789660D01*
X110385938Y-26739608D01*
X110419391Y-26690013D01*
X110423714Y-26681881D01*
X110423717Y-26681877D01*
X110423719Y-26681873D01*
X110568388Y-26405146D01*
X110590785Y-26349711D01*
X110613978Y-26294539D01*
X110616641Y-26285717D01*
X110704807Y-25986156D01*
X110716007Y-25927440D01*
X110728045Y-25868798D01*
X110728944Y-25859627D01*
X110757245Y-25548647D01*
X110756827Y-25488830D01*
X110757088Y-25451353D01*
X129442755Y-25451353D01*
X129443173Y-25511171D01*
X129442755Y-25570988D01*
X129443655Y-25580160D01*
X129476296Y-25890715D01*
X129488320Y-25949291D01*
X129499532Y-26008070D01*
X129502196Y-26016892D01*
X129594535Y-26315192D01*
X129617715Y-26370335D01*
X129640124Y-26425800D01*
X129644451Y-26433937D01*
X129792972Y-26708621D01*
X129826417Y-26758205D01*
X129859177Y-26808268D01*
X129865001Y-26815409D01*
X130064047Y-27056013D01*
X130106482Y-27098154D01*
X130148346Y-27140903D01*
X130155446Y-27146777D01*
X130397435Y-27344138D01*
X130447259Y-27377241D01*
X130496615Y-27411036D01*
X130504721Y-27415419D01*
X130780435Y-27562019D01*
X130835704Y-27584799D01*
X130890724Y-27608381D01*
X130899527Y-27611105D01*
X131198465Y-27701359D01*
X131257138Y-27712976D01*
X131315655Y-27725415D01*
X131324820Y-27726378D01*
X131635594Y-27756850D01*
X131635598Y-27756850D01*
X131667581Y-27760000D01*
X133732419Y-27760000D01*
X133765986Y-27756694D01*
X133786744Y-27756694D01*
X133795909Y-27755731D01*
X134106228Y-27720923D01*
X134164731Y-27708487D01*
X134223419Y-27696867D01*
X134232222Y-27694142D01*
X134529870Y-27599723D01*
X134584792Y-27576183D01*
X134640159Y-27553363D01*
X134648265Y-27548979D01*
X134921904Y-27398544D01*
X134971217Y-27364779D01*
X135021088Y-27331645D01*
X135028188Y-27325770D01*
X135267397Y-27125049D01*
X135309241Y-27082320D01*
X135351694Y-27040162D01*
X135357519Y-27033020D01*
X135553185Y-26789660D01*
X135585938Y-26739608D01*
X135619391Y-26690013D01*
X135623714Y-26681881D01*
X135623717Y-26681877D01*
X135623719Y-26681873D01*
X135768388Y-26405146D01*
X135790785Y-26349711D01*
X135813978Y-26294539D01*
X135816641Y-26285717D01*
X135904807Y-25986156D01*
X135916007Y-25927440D01*
X135928045Y-25868798D01*
X135928944Y-25859627D01*
X135957245Y-25548647D01*
X135956827Y-25488830D01*
X135957245Y-25429012D01*
X135956345Y-25419841D01*
X135923704Y-25109285D01*
X135911680Y-25050709D01*
X135900468Y-24991930D01*
X135897804Y-24983108D01*
X135805465Y-24684808D01*
X135782280Y-24629653D01*
X135759876Y-24574200D01*
X135755549Y-24566064D01*
X135755549Y-24566063D01*
X135755546Y-24566059D01*
X135607028Y-24291379D01*
X135573583Y-24241795D01*
X135540823Y-24191732D01*
X135534999Y-24184591D01*
X135335954Y-23943987D01*
X135293535Y-23901863D01*
X135251655Y-23859097D01*
X135244554Y-23853223D01*
X135002565Y-23655862D01*
X134952741Y-23622759D01*
X134903385Y-23588964D01*
X134895279Y-23584581D01*
X134619566Y-23437981D01*
X134564269Y-23415189D01*
X134509275Y-23391619D01*
X134500472Y-23388895D01*
X134201535Y-23298641D01*
X134142862Y-23287024D01*
X134084345Y-23274585D01*
X134075180Y-23273622D01*
X133764405Y-23243150D01*
X133764402Y-23243150D01*
X133732419Y-23240000D01*
X131667581Y-23240000D01*
X131634014Y-23243306D01*
X131613256Y-23243306D01*
X131604091Y-23244269D01*
X131293771Y-23279077D01*
X131235298Y-23291506D01*
X131176581Y-23303132D01*
X131167778Y-23305858D01*
X130870130Y-23400277D01*
X130815147Y-23423843D01*
X130759841Y-23446638D01*
X130751735Y-23451021D01*
X130478095Y-23601456D01*
X130428748Y-23635245D01*
X130378913Y-23668355D01*
X130371812Y-23674229D01*
X130132603Y-23874951D01*
X130090759Y-23917681D01*
X130048305Y-23959839D01*
X130042481Y-23966980D01*
X129846814Y-24210340D01*
X129814055Y-24260400D01*
X129780609Y-24309986D01*
X129776283Y-24318123D01*
X129631612Y-24594854D01*
X129609215Y-24650289D01*
X129586022Y-24705461D01*
X129583359Y-24714283D01*
X129495193Y-25013844D01*
X129483993Y-25072560D01*
X129471955Y-25131202D01*
X129471056Y-25140373D01*
X129442755Y-25451353D01*
X110757088Y-25451353D01*
X110757245Y-25429012D01*
X110756345Y-25419841D01*
X110723704Y-25109285D01*
X110711680Y-25050709D01*
X110700468Y-24991930D01*
X110697804Y-24983108D01*
X110605465Y-24684808D01*
X110582280Y-24629653D01*
X110559876Y-24574200D01*
X110555549Y-24566064D01*
X110555549Y-24566063D01*
X110555546Y-24566059D01*
X110407028Y-24291379D01*
X110373583Y-24241795D01*
X110340823Y-24191732D01*
X110334999Y-24184591D01*
X110135954Y-23943987D01*
X110093535Y-23901863D01*
X110051655Y-23859097D01*
X110044554Y-23853223D01*
X109802565Y-23655862D01*
X109752741Y-23622759D01*
X109703385Y-23588964D01*
X109695279Y-23584581D01*
X109419566Y-23437981D01*
X109364269Y-23415189D01*
X109309275Y-23391619D01*
X109300472Y-23388895D01*
X109001535Y-23298641D01*
X108942862Y-23287024D01*
X108884345Y-23274585D01*
X108875180Y-23273622D01*
X108564405Y-23243150D01*
X108564402Y-23243150D01*
X108532419Y-23240000D01*
X106467581Y-23240000D01*
X106434014Y-23243306D01*
X106413256Y-23243306D01*
X106404091Y-23244269D01*
X106093771Y-23279077D01*
X106035298Y-23291506D01*
X105976581Y-23303132D01*
X105967778Y-23305858D01*
X105670130Y-23400277D01*
X105615147Y-23423843D01*
X105559841Y-23446638D01*
X105551735Y-23451021D01*
X105278095Y-23601456D01*
X105228748Y-23635245D01*
X105178913Y-23668355D01*
X105171812Y-23674229D01*
X104932603Y-23874951D01*
X104890759Y-23917681D01*
X104848305Y-23959839D01*
X104842481Y-23966980D01*
X104646814Y-24210340D01*
X104614055Y-24260400D01*
X104580609Y-24309986D01*
X104576283Y-24318123D01*
X104431612Y-24594854D01*
X104409215Y-24650289D01*
X104386022Y-24705461D01*
X104383359Y-24714283D01*
X104295193Y-25013844D01*
X104283993Y-25072560D01*
X104271955Y-25131202D01*
X104271056Y-25140373D01*
X104242755Y-25451353D01*
X100660000Y-25451353D01*
X100660000Y55934216D01*
X105341332Y55934216D01*
X105341332Y55065784D01*
X105510754Y54214039D01*
X105843089Y53411712D01*
X106325564Y52689638D01*
X106939638Y52075564D01*
X107661712Y51593089D01*
X108464039Y51260754D01*
X109315784Y51091332D01*
X110184216Y51091332D01*
X111035961Y51260754D01*
X111838288Y51593089D01*
X112560362Y52075564D01*
X113174436Y52689638D01*
X113656911Y53411712D01*
X113989246Y54214039D01*
X114158668Y55065784D01*
X114158668Y55934216D01*
X125591332Y55934216D01*
X125591332Y55065784D01*
X125760754Y54214039D01*
X126093089Y53411712D01*
X126575564Y52689638D01*
X127189638Y52075564D01*
X127911712Y51593089D01*
X128714039Y51260754D01*
X129565784Y51091332D01*
X130434216Y51091332D01*
X131285961Y51260754D01*
X132088288Y51593089D01*
X132810362Y52075564D01*
X133424436Y52689638D01*
X133906911Y53411712D01*
X134239246Y54214039D01*
X134408668Y55065784D01*
X134408668Y55934216D01*
X134239246Y56785961D01*
X133906911Y57588288D01*
X133424436Y58310362D01*
X132810362Y58924436D01*
X132088288Y59406911D01*
X131285961Y59739246D01*
X130434216Y59908668D01*
X129565784Y59908668D01*
X128714039Y59739246D01*
X127911712Y59406911D01*
X127189638Y58924436D01*
X126575564Y58310362D01*
X126093089Y57588288D01*
X125760754Y56785961D01*
X125591332Y55934216D01*
X114158668Y55934216D01*
X113989246Y56785961D01*
X113656911Y57588288D01*
X113174436Y58310362D01*
X112560362Y58924436D01*
X111838288Y59406911D01*
X111035961Y59739246D01*
X110184216Y59908668D01*
X109315784Y59908668D01*
X108464039Y59739246D01*
X107661712Y59406911D01*
X106939638Y58924436D01*
X106325564Y58310362D01*
X105843089Y57588288D01*
X105510754Y56785961D01*
X105341332Y55934216D01*
X100660000Y55934216D01*
X100660000Y75684216D01*
X105091332Y75684216D01*
X105091332Y74815784D01*
X105260754Y73964039D01*
X105593089Y73161712D01*
X106075564Y72439638D01*
X106689638Y71825564D01*
X107411712Y71343089D01*
X108214039Y71010754D01*
X109065784Y70841332D01*
X109934216Y70841332D01*
X110785961Y71010754D01*
X111588288Y71343089D01*
X112310362Y71825564D01*
X112924436Y72439638D01*
X113406911Y73161712D01*
X113739246Y73964039D01*
X113908668Y74815784D01*
X113908668Y75684216D01*
X125591332Y75684216D01*
X125591332Y74815784D01*
X125760754Y73964039D01*
X126093089Y73161712D01*
X126575564Y72439638D01*
X127189638Y71825564D01*
X127911712Y71343089D01*
X128714039Y71010754D01*
X129565784Y70841332D01*
X130434216Y70841332D01*
X131285961Y71010754D01*
X132088288Y71343089D01*
X132810362Y71825564D01*
X133424436Y72439638D01*
X133906911Y73161712D01*
X134239246Y73964039D01*
X134408668Y74815784D01*
X134408668Y75684216D01*
X134239246Y76535961D01*
X133906911Y77338288D01*
X133424436Y78060362D01*
X132810362Y78674436D01*
X132088288Y79156911D01*
X131285961Y79489246D01*
X130434216Y79658668D01*
X129565784Y79658668D01*
X128714039Y79489246D01*
X127911712Y79156911D01*
X127189638Y78674436D01*
X126575564Y78060362D01*
X126093089Y77338288D01*
X125760754Y76535961D01*
X125591332Y75684216D01*
X113908668Y75684216D01*
X113739246Y76535961D01*
X113406911Y77338288D01*
X112924436Y78060362D01*
X112310362Y78674436D01*
X111588288Y79156911D01*
X110785961Y79489246D01*
X109934216Y79658668D01*
X109065784Y79658668D01*
X108214039Y79489246D01*
X107411712Y79156911D01*
X106689638Y78674436D01*
X106075564Y78060362D01*
X105593089Y77338288D01*
X105260754Y76535961D01*
X105091332Y75684216D01*
X100660000Y75684216D01*
X100660000Y96948647D01*
X104242755Y96948647D01*
X104243173Y96888829D01*
X104242755Y96829012D01*
X104243655Y96819840D01*
X104276296Y96509285D01*
X104288320Y96450709D01*
X104299532Y96391930D01*
X104302196Y96383108D01*
X104394535Y96084808D01*
X104417715Y96029665D01*
X104440124Y95974200D01*
X104444451Y95966063D01*
X104592972Y95691379D01*
X104626417Y95641795D01*
X104659177Y95591732D01*
X104665001Y95584591D01*
X104864047Y95343987D01*
X104906482Y95301846D01*
X104948346Y95259097D01*
X104955446Y95253223D01*
X105197435Y95055862D01*
X105247259Y95022759D01*
X105296615Y94988964D01*
X105304721Y94984581D01*
X105580435Y94837981D01*
X105635704Y94815201D01*
X105690724Y94791619D01*
X105699527Y94788895D01*
X105998465Y94698641D01*
X106057138Y94687024D01*
X106115655Y94674585D01*
X106124820Y94673622D01*
X106435594Y94643150D01*
X106435598Y94643150D01*
X106467581Y94640000D01*
X108532419Y94640000D01*
X108565986Y94643306D01*
X108586744Y94643306D01*
X108595909Y94644269D01*
X108906228Y94679077D01*
X108964731Y94691513D01*
X109023419Y94703133D01*
X109032222Y94705858D01*
X109329870Y94800277D01*
X109384792Y94823817D01*
X109440159Y94846637D01*
X109448265Y94851021D01*
X109721904Y95001456D01*
X109771217Y95035221D01*
X109821088Y95068355D01*
X109828188Y95074230D01*
X110067397Y95274951D01*
X110109241Y95317680D01*
X110151694Y95359838D01*
X110157519Y95366980D01*
X110353185Y95610340D01*
X110385938Y95660392D01*
X110419391Y95709987D01*
X110423714Y95718119D01*
X110423717Y95718123D01*
X110423719Y95718127D01*
X110568388Y95994854D01*
X110590785Y96050289D01*
X110613978Y96105461D01*
X110616641Y96114283D01*
X110704807Y96413844D01*
X110716007Y96472560D01*
X110728045Y96531202D01*
X110728944Y96540373D01*
X110757245Y96851353D01*
X110756827Y96911171D01*
X110757088Y96948647D01*
X129442755Y96948647D01*
X129443173Y96888829D01*
X129442755Y96829012D01*
X129443655Y96819840D01*
X129476296Y96509285D01*
X129488320Y96450709D01*
X129499532Y96391930D01*
X129502196Y96383108D01*
X129594535Y96084808D01*
X129617715Y96029665D01*
X129640124Y95974200D01*
X129644451Y95966063D01*
X129792972Y95691379D01*
X129826417Y95641795D01*
X129859177Y95591732D01*
X129865001Y95584591D01*
X130064047Y95343987D01*
X130106482Y95301846D01*
X130148346Y95259097D01*
X130155446Y95253223D01*
X130397435Y95055862D01*
X130447259Y95022759D01*
X130496615Y94988964D01*
X130504721Y94984581D01*
X130780435Y94837981D01*
X130835704Y94815201D01*
X130890724Y94791619D01*
X130899527Y94788895D01*
X131198465Y94698641D01*
X131257138Y94687024D01*
X131315655Y94674585D01*
X131324820Y94673622D01*
X131635594Y94643150D01*
X131635598Y94643150D01*
X131667581Y94640000D01*
X133732419Y94640000D01*
X133765986Y94643306D01*
X133786744Y94643306D01*
X133795909Y94644269D01*
X134106228Y94679077D01*
X134164731Y94691513D01*
X134223419Y94703133D01*
X134232222Y94705858D01*
X134529870Y94800277D01*
X134584792Y94823817D01*
X134640159Y94846637D01*
X134648265Y94851021D01*
X134921904Y95001456D01*
X134971217Y95035221D01*
X135021088Y95068355D01*
X135028188Y95074230D01*
X135267397Y95274951D01*
X135309241Y95317680D01*
X135351694Y95359838D01*
X135357519Y95366980D01*
X135553185Y95610340D01*
X135585938Y95660392D01*
X135619391Y95709987D01*
X135623714Y95718119D01*
X135623717Y95718123D01*
X135623719Y95718127D01*
X135768388Y95994854D01*
X135790785Y96050289D01*
X135813978Y96105461D01*
X135816641Y96114283D01*
X135904807Y96413844D01*
X135916007Y96472560D01*
X135928045Y96531202D01*
X135928944Y96540373D01*
X135957245Y96851353D01*
X135956827Y96911170D01*
X135957245Y96970988D01*
X135956345Y96980159D01*
X135923704Y97290715D01*
X135911680Y97349291D01*
X135900468Y97408070D01*
X135897804Y97416892D01*
X135805465Y97715192D01*
X135782280Y97770347D01*
X135759876Y97825800D01*
X135755549Y97833936D01*
X135755549Y97833937D01*
X135755546Y97833941D01*
X135607028Y98108621D01*
X135573583Y98158205D01*
X135540823Y98208268D01*
X135534999Y98215409D01*
X135335954Y98456013D01*
X135293535Y98498137D01*
X135251655Y98540903D01*
X135244554Y98546777D01*
X135002565Y98744138D01*
X134952741Y98777241D01*
X134903385Y98811036D01*
X134895279Y98815419D01*
X134619566Y98962019D01*
X134564269Y98984811D01*
X134509275Y99008381D01*
X134500472Y99011105D01*
X134201535Y99101359D01*
X134142862Y99112976D01*
X134084345Y99125415D01*
X134075180Y99126378D01*
X133764405Y99156850D01*
X133764402Y99156850D01*
X133732419Y99160000D01*
X131667581Y99160000D01*
X131634014Y99156694D01*
X131613256Y99156694D01*
X131604091Y99155731D01*
X131293771Y99120923D01*
X131235298Y99108494D01*
X131176581Y99096868D01*
X131167778Y99094142D01*
X130870130Y98999723D01*
X130815147Y98976157D01*
X130759841Y98953362D01*
X130751735Y98948979D01*
X130478095Y98798544D01*
X130428748Y98764755D01*
X130378913Y98731645D01*
X130371812Y98725771D01*
X130132603Y98525049D01*
X130090759Y98482319D01*
X130048305Y98440161D01*
X130042481Y98433020D01*
X129846814Y98189660D01*
X129814055Y98139600D01*
X129780609Y98090014D01*
X129776283Y98081877D01*
X129631612Y97805146D01*
X129609215Y97749711D01*
X129586022Y97694539D01*
X129583359Y97685717D01*
X129495193Y97386156D01*
X129483993Y97327440D01*
X129471955Y97268798D01*
X129471056Y97259627D01*
X129442755Y96948647D01*
X110757088Y96948647D01*
X110757245Y96970988D01*
X110756345Y96980159D01*
X110723704Y97290715D01*
X110711680Y97349291D01*
X110700468Y97408070D01*
X110697804Y97416892D01*
X110605465Y97715192D01*
X110582280Y97770347D01*
X110559876Y97825800D01*
X110555549Y97833936D01*
X110555549Y97833937D01*
X110555546Y97833941D01*
X110407028Y98108621D01*
X110373583Y98158205D01*
X110340823Y98208268D01*
X110334999Y98215409D01*
X110135954Y98456013D01*
X110093535Y98498137D01*
X110051655Y98540903D01*
X110044554Y98546777D01*
X109802565Y98744138D01*
X109752741Y98777241D01*
X109703385Y98811036D01*
X109695279Y98815419D01*
X109419566Y98962019D01*
X109364269Y98984811D01*
X109309275Y99008381D01*
X109300472Y99011105D01*
X109001535Y99101359D01*
X108942862Y99112976D01*
X108884345Y99125415D01*
X108875180Y99126378D01*
X108564405Y99156850D01*
X108564402Y99156850D01*
X108532419Y99160000D01*
X106467581Y99160000D01*
X106434014Y99156694D01*
X106413256Y99156694D01*
X106404091Y99155731D01*
X106093771Y99120923D01*
X106035298Y99108494D01*
X105976581Y99096868D01*
X105967778Y99094142D01*
X105670130Y98999723D01*
X105615147Y98976157D01*
X105559841Y98953362D01*
X105551735Y98948979D01*
X105278095Y98798544D01*
X105228748Y98764755D01*
X105178913Y98731645D01*
X105171812Y98725771D01*
X104932603Y98525049D01*
X104890759Y98482319D01*
X104848305Y98440161D01*
X104842481Y98433020D01*
X104646814Y98189660D01*
X104614055Y98139600D01*
X104580609Y98090014D01*
X104576283Y98081877D01*
X104431612Y97805146D01*
X104409215Y97749711D01*
X104386022Y97694539D01*
X104383359Y97685717D01*
X104295193Y97386156D01*
X104283993Y97327440D01*
X104271955Y97268798D01*
X104271056Y97259627D01*
X104242755Y96948647D01*
X100660000Y96948647D01*
X100660000Y99340000D01*
X139540000Y99340000D01*
X139540001Y-27840000D01*
M02*
