G04 #@! TF.GenerationSoftware,KiCad,Pcbnew,(5.1.5-0)*
G04 #@! TF.CreationDate,2021-01-12T22:56:50-08:00*
G04 #@! TF.ProjectId,trackydacks,74726163-6b79-4646-9163-6b732e6b6963,rev?*
G04 #@! TF.SameCoordinates,Original*
G04 #@! TF.FileFunction,Soldermask,Bot*
G04 #@! TF.FilePolarity,Negative*
%FSLAX46Y46*%
G04 Gerber Fmt 4.6, Leading zero omitted, Abs format (unit mm)*
G04 Created by KiCad (PCBNEW (5.1.5-0)) date 2021-01-12 22:56:50*
%MOMM*%
%LPD*%
G04 APERTURE LIST*
%ADD10C,0.200000*%
%ADD11C,1.000000*%
%ADD12C,0.100000*%
G04 APERTURE END LIST*
D10*
X137226190Y-21202380D02*
X137226190Y-20535714D01*
X137226190Y-20726190D02*
X137178571Y-20630952D01*
X137130952Y-20583333D01*
X137035714Y-20535714D01*
X136940476Y-20535714D01*
X136226190Y-21154761D02*
X136321428Y-21202380D01*
X136511904Y-21202380D01*
X136607142Y-21154761D01*
X136654761Y-21059523D01*
X136654761Y-20678571D01*
X136607142Y-20583333D01*
X136511904Y-20535714D01*
X136321428Y-20535714D01*
X136226190Y-20583333D01*
X136178571Y-20678571D01*
X136178571Y-20773809D01*
X136654761Y-20869047D01*
X135750000Y-20535714D02*
X135750000Y-21535714D01*
X135750000Y-20583333D02*
X135654761Y-20535714D01*
X135464285Y-20535714D01*
X135369047Y-20583333D01*
X135321428Y-20630952D01*
X135273809Y-20726190D01*
X135273809Y-21011904D01*
X135321428Y-21107142D01*
X135369047Y-21154761D01*
X135464285Y-21202380D01*
X135654761Y-21202380D01*
X135750000Y-21154761D01*
X134416666Y-21202380D02*
X134416666Y-20678571D01*
X134464285Y-20583333D01*
X134559523Y-20535714D01*
X134750000Y-20535714D01*
X134845238Y-20583333D01*
X134416666Y-21154761D02*
X134511904Y-21202380D01*
X134750000Y-21202380D01*
X134845238Y-21154761D01*
X134892857Y-21059523D01*
X134892857Y-20964285D01*
X134845238Y-20869047D01*
X134750000Y-20821428D01*
X134511904Y-20821428D01*
X134416666Y-20773809D01*
X133940476Y-20535714D02*
X133940476Y-21202380D01*
X133940476Y-20630952D02*
X133892857Y-20583333D01*
X133797619Y-20535714D01*
X133654761Y-20535714D01*
X133559523Y-20583333D01*
X133511904Y-20678571D01*
X133511904Y-21202380D01*
X132654761Y-21154761D02*
X132750000Y-21202380D01*
X132940476Y-21202380D01*
X133035714Y-21154761D01*
X133083333Y-21059523D01*
X133083333Y-20678571D01*
X133035714Y-20583333D01*
X132940476Y-20535714D01*
X132750000Y-20535714D01*
X132654761Y-20583333D01*
X132607142Y-20678571D01*
X132607142Y-20773809D01*
X133083333Y-20869047D01*
X132035714Y-21202380D02*
X132130952Y-21154761D01*
X132178571Y-21059523D01*
X132178571Y-20202380D01*
X130892857Y-21202380D02*
X130892857Y-20202380D01*
X130892857Y-20583333D02*
X130797619Y-20535714D01*
X130607142Y-20535714D01*
X130511904Y-20583333D01*
X130464285Y-20630952D01*
X130416666Y-20726190D01*
X130416666Y-21011904D01*
X130464285Y-21107142D01*
X130511904Y-21154761D01*
X130607142Y-21202380D01*
X130797619Y-21202380D01*
X130892857Y-21154761D01*
X130083333Y-20535714D02*
X129845238Y-21202380D01*
X129607142Y-20535714D02*
X129845238Y-21202380D01*
X129940476Y-21440476D01*
X129988095Y-21488095D01*
X130083333Y-21535714D01*
X128464285Y-20535714D02*
X128464285Y-21392857D01*
X128511904Y-21488095D01*
X128607142Y-21535714D01*
X128654761Y-21535714D01*
X128464285Y-20202380D02*
X128511904Y-20250000D01*
X128464285Y-20297619D01*
X128416666Y-20250000D01*
X128464285Y-20202380D01*
X128464285Y-20297619D01*
X127559523Y-21202380D02*
X127559523Y-20678571D01*
X127607142Y-20583333D01*
X127702380Y-20535714D01*
X127892857Y-20535714D01*
X127988095Y-20583333D01*
X127559523Y-21154761D02*
X127654761Y-21202380D01*
X127892857Y-21202380D01*
X127988095Y-21154761D01*
X128035714Y-21059523D01*
X128035714Y-20964285D01*
X127988095Y-20869047D01*
X127892857Y-20821428D01*
X127654761Y-20821428D01*
X127559523Y-20773809D01*
X126654761Y-21154761D02*
X126750000Y-21202380D01*
X126940476Y-21202380D01*
X127035714Y-21154761D01*
X127083333Y-21107142D01*
X127130952Y-21011904D01*
X127130952Y-20726190D01*
X127083333Y-20630952D01*
X127035714Y-20583333D01*
X126940476Y-20535714D01*
X126750000Y-20535714D01*
X126654761Y-20583333D01*
X126226190Y-21202380D02*
X126226190Y-20202380D01*
X126130952Y-20821428D02*
X125845238Y-21202380D01*
X125845238Y-20535714D02*
X126226190Y-20916666D01*
X124702380Y-21154761D02*
X124607142Y-21202380D01*
X124416666Y-21202380D01*
X124321428Y-21154761D01*
X124273809Y-21059523D01*
X124273809Y-21011904D01*
X124321428Y-20916666D01*
X124416666Y-20869047D01*
X124559523Y-20869047D01*
X124654761Y-20821428D01*
X124702380Y-20726190D01*
X124702380Y-20678571D01*
X124654761Y-20583333D01*
X124559523Y-20535714D01*
X124416666Y-20535714D01*
X124321428Y-20583333D01*
X123845238Y-21107142D02*
X123797619Y-21154761D01*
X123845238Y-21202380D01*
X123892857Y-21154761D01*
X123845238Y-21107142D01*
X123845238Y-21202380D01*
X122654761Y-20297619D02*
X122607142Y-20250000D01*
X122511904Y-20202380D01*
X122273809Y-20202380D01*
X122178571Y-20250000D01*
X122130952Y-20297619D01*
X122083333Y-20392857D01*
X122083333Y-20488095D01*
X122130952Y-20630952D01*
X122702380Y-21202380D01*
X122083333Y-21202380D01*
X121464285Y-20202380D02*
X121369047Y-20202380D01*
X121273809Y-20250000D01*
X121226190Y-20297619D01*
X121178571Y-20392857D01*
X121130952Y-20583333D01*
X121130952Y-20821428D01*
X121178571Y-21011904D01*
X121226190Y-21107142D01*
X121273809Y-21154761D01*
X121369047Y-21202380D01*
X121464285Y-21202380D01*
X121559523Y-21154761D01*
X121607142Y-21107142D01*
X121654761Y-21011904D01*
X121702380Y-20821428D01*
X121702380Y-20583333D01*
X121654761Y-20392857D01*
X121607142Y-20297619D01*
X121559523Y-20250000D01*
X121464285Y-20202380D01*
X120750000Y-20297619D02*
X120702380Y-20250000D01*
X120607142Y-20202380D01*
X120369047Y-20202380D01*
X120273809Y-20250000D01*
X120226190Y-20297619D01*
X120178571Y-20392857D01*
X120178571Y-20488095D01*
X120226190Y-20630952D01*
X120797619Y-21202380D01*
X120178571Y-21202380D01*
X119226190Y-21202380D02*
X119797619Y-21202380D01*
X119511904Y-21202380D02*
X119511904Y-20202380D01*
X119607142Y-20345238D01*
X119702380Y-20440476D01*
X119797619Y-20488095D01*
D11*
X108800000Y15500000D02*
G75*
G03X108800000Y15500000I-3550000J0D01*
G01*
X118800000Y15500000D02*
G75*
G03X118800000Y15500000I-3550000J0D01*
G01*
X128800000Y15500000D02*
G75*
G03X128800000Y15500000I-3550000J0D01*
G01*
X138800000Y15500000D02*
G75*
G03X138800000Y15500000I-3550000J0D01*
G01*
X128800000Y500000D02*
G75*
G03X128800000Y500000I-3550000J0D01*
G01*
X108800000Y500000D02*
G75*
G03X108800000Y500000I-3550000J0D01*
G01*
D12*
G36*
X125854975Y3541415D02*
G01*
X126154528Y3481830D01*
X126718874Y3248070D01*
X127226772Y2908704D01*
X127658704Y2476772D01*
X127998070Y1968874D01*
X127998071Y1968872D01*
X128231830Y1404527D01*
X128351000Y805423D01*
X128351000Y194577D01*
X128318861Y33005D01*
X128231830Y-404528D01*
X127998070Y-968874D01*
X127658704Y-1476772D01*
X127226772Y-1908704D01*
X126718874Y-2248070D01*
X126154528Y-2481830D01*
X125854975Y-2541415D01*
X125555423Y-2601000D01*
X124944577Y-2601000D01*
X124645025Y-2541415D01*
X124345472Y-2481830D01*
X123781126Y-2248070D01*
X123273228Y-1908704D01*
X122841296Y-1476772D01*
X122501930Y-968874D01*
X122268170Y-404528D01*
X122181139Y33005D01*
X122149000Y194577D01*
X122149000Y805423D01*
X122268170Y1404527D01*
X122501929Y1968872D01*
X122501930Y1968874D01*
X122841296Y2476772D01*
X123273228Y2908704D01*
X123781126Y3248070D01*
X124345472Y3481830D01*
X124645025Y3541415D01*
X124944577Y3601000D01*
X125555423Y3601000D01*
X125854975Y3541415D01*
G37*
G36*
X105854975Y3541415D02*
G01*
X106154528Y3481830D01*
X106718874Y3248070D01*
X107226772Y2908704D01*
X107658704Y2476772D01*
X107998070Y1968874D01*
X107998071Y1968872D01*
X108231830Y1404527D01*
X108351000Y805423D01*
X108351000Y194577D01*
X108318861Y33005D01*
X108231830Y-404528D01*
X107998070Y-968874D01*
X107658704Y-1476772D01*
X107226772Y-1908704D01*
X106718874Y-2248070D01*
X106154528Y-2481830D01*
X105854975Y-2541415D01*
X105555423Y-2601000D01*
X104944577Y-2601000D01*
X104645025Y-2541415D01*
X104345472Y-2481830D01*
X103781126Y-2248070D01*
X103273228Y-1908704D01*
X102841296Y-1476772D01*
X102501930Y-968874D01*
X102268170Y-404528D01*
X102181139Y33005D01*
X102149000Y194577D01*
X102149000Y805423D01*
X102268170Y1404527D01*
X102501929Y1968872D01*
X102501930Y1968874D01*
X102841296Y2476772D01*
X103273228Y2908704D01*
X103781126Y3248070D01*
X104345472Y3481830D01*
X104645025Y3541415D01*
X104944577Y3601000D01*
X105555423Y3601000D01*
X105854975Y3541415D01*
G37*
G36*
X135446217Y2093335D02*
G01*
X135716995Y2039475D01*
X136008358Y1918788D01*
X136270578Y1743578D01*
X136493578Y1520578D01*
X136668788Y1258358D01*
X136789475Y966995D01*
X136851000Y657685D01*
X136851000Y342315D01*
X136789475Y33005D01*
X136668788Y-258358D01*
X136493578Y-520578D01*
X136270578Y-743578D01*
X136008358Y-918788D01*
X135716995Y-1039475D01*
X135446217Y-1093335D01*
X135407686Y-1101000D01*
X135092314Y-1101000D01*
X135053783Y-1093335D01*
X134783005Y-1039475D01*
X134491642Y-918788D01*
X134229422Y-743578D01*
X134006422Y-520578D01*
X133831212Y-258358D01*
X133710525Y33005D01*
X133649000Y342315D01*
X133649000Y657685D01*
X133710525Y966995D01*
X133831212Y1258358D01*
X134006422Y1520578D01*
X134229422Y1743578D01*
X134491642Y1918788D01*
X134783005Y2039475D01*
X135053783Y2093335D01*
X135092314Y2101000D01*
X135407686Y2101000D01*
X135446217Y2093335D01*
G37*
G36*
X115446217Y2093335D02*
G01*
X115716995Y2039475D01*
X116008358Y1918788D01*
X116270578Y1743578D01*
X116493578Y1520578D01*
X116668788Y1258358D01*
X116789475Y966995D01*
X116851000Y657685D01*
X116851000Y342315D01*
X116789475Y33005D01*
X116668788Y-258358D01*
X116493578Y-520578D01*
X116270578Y-743578D01*
X116008358Y-918788D01*
X115716995Y-1039475D01*
X115446217Y-1093335D01*
X115407686Y-1101000D01*
X115092314Y-1101000D01*
X115053783Y-1093335D01*
X114783005Y-1039475D01*
X114491642Y-918788D01*
X114229422Y-743578D01*
X114006422Y-520578D01*
X113831212Y-258358D01*
X113710525Y33005D01*
X113649000Y342315D01*
X113649000Y657685D01*
X113710525Y966995D01*
X113831212Y1258358D01*
X114006422Y1520578D01*
X114229422Y1743578D01*
X114491642Y1918788D01*
X114783005Y2039475D01*
X115053783Y2093335D01*
X115092314Y2101000D01*
X115407686Y2101000D01*
X115446217Y2093335D01*
G37*
G36*
X135854975Y18541415D02*
G01*
X136154528Y18481830D01*
X136718874Y18248070D01*
X137226772Y17908704D01*
X137658704Y17476772D01*
X137998070Y16968874D01*
X138231830Y16404528D01*
X138351000Y15805422D01*
X138351000Y15194578D01*
X138231830Y14595472D01*
X137998070Y14031126D01*
X137658704Y13523228D01*
X137226772Y13091296D01*
X136718874Y12751930D01*
X136154528Y12518170D01*
X135854975Y12458585D01*
X135555423Y12399000D01*
X134944577Y12399000D01*
X134645025Y12458585D01*
X134345472Y12518170D01*
X133781126Y12751930D01*
X133273228Y13091296D01*
X132841296Y13523228D01*
X132501930Y14031126D01*
X132268170Y14595472D01*
X132149000Y15194578D01*
X132149000Y15805422D01*
X132268170Y16404528D01*
X132501930Y16968874D01*
X132841296Y17476772D01*
X133273228Y17908704D01*
X133781126Y18248070D01*
X134345472Y18481830D01*
X134645025Y18541415D01*
X134944577Y18601000D01*
X135555423Y18601000D01*
X135854975Y18541415D01*
G37*
G36*
X125854975Y18541415D02*
G01*
X126154528Y18481830D01*
X126718874Y18248070D01*
X127226772Y17908704D01*
X127658704Y17476772D01*
X127998070Y16968874D01*
X128231830Y16404528D01*
X128351000Y15805422D01*
X128351000Y15194578D01*
X128231830Y14595472D01*
X127998070Y14031126D01*
X127658704Y13523228D01*
X127226772Y13091296D01*
X126718874Y12751930D01*
X126154528Y12518170D01*
X125854975Y12458585D01*
X125555423Y12399000D01*
X124944577Y12399000D01*
X124645025Y12458585D01*
X124345472Y12518170D01*
X123781126Y12751930D01*
X123273228Y13091296D01*
X122841296Y13523228D01*
X122501930Y14031126D01*
X122268170Y14595472D01*
X122149000Y15194578D01*
X122149000Y15805422D01*
X122268170Y16404528D01*
X122501930Y16968874D01*
X122841296Y17476772D01*
X123273228Y17908704D01*
X123781126Y18248070D01*
X124345472Y18481830D01*
X124645025Y18541415D01*
X124944577Y18601000D01*
X125555423Y18601000D01*
X125854975Y18541415D01*
G37*
G36*
X115854975Y18541415D02*
G01*
X116154528Y18481830D01*
X116718874Y18248070D01*
X117226772Y17908704D01*
X117658704Y17476772D01*
X117998070Y16968874D01*
X118231830Y16404528D01*
X118351000Y15805422D01*
X118351000Y15194578D01*
X118231830Y14595472D01*
X117998070Y14031126D01*
X117658704Y13523228D01*
X117226772Y13091296D01*
X116718874Y12751930D01*
X116154528Y12518170D01*
X115854975Y12458585D01*
X115555423Y12399000D01*
X114944577Y12399000D01*
X114645025Y12458585D01*
X114345472Y12518170D01*
X113781126Y12751930D01*
X113273228Y13091296D01*
X112841296Y13523228D01*
X112501930Y14031126D01*
X112268170Y14595472D01*
X112149000Y15194578D01*
X112149000Y15805422D01*
X112268170Y16404528D01*
X112501930Y16968874D01*
X112841296Y17476772D01*
X113273228Y17908704D01*
X113781126Y18248070D01*
X114345472Y18481830D01*
X114645025Y18541415D01*
X114944577Y18601000D01*
X115555423Y18601000D01*
X115854975Y18541415D01*
G37*
G36*
X105854975Y18541415D02*
G01*
X106154528Y18481830D01*
X106718874Y18248070D01*
X107226772Y17908704D01*
X107658704Y17476772D01*
X107998070Y16968874D01*
X108231830Y16404528D01*
X108351000Y15805422D01*
X108351000Y15194578D01*
X108231830Y14595472D01*
X107998070Y14031126D01*
X107658704Y13523228D01*
X107226772Y13091296D01*
X106718874Y12751930D01*
X106154528Y12518170D01*
X105854975Y12458585D01*
X105555423Y12399000D01*
X104944577Y12399000D01*
X104645025Y12458585D01*
X104345472Y12518170D01*
X103781126Y12751930D01*
X103273228Y13091296D01*
X102841296Y13523228D01*
X102501930Y14031126D01*
X102268170Y14595472D01*
X102149000Y15194578D01*
X102149000Y15805422D01*
X102268170Y16404528D01*
X102501930Y16968874D01*
X102841296Y17476772D01*
X103273228Y17908704D01*
X103781126Y18248070D01*
X104345472Y18481830D01*
X104645025Y18541415D01*
X104944577Y18601000D01*
X105555423Y18601000D01*
X105854975Y18541415D01*
G37*
M02*
