G04 #@! TF.GenerationSoftware,KiCad,Pcbnew,(5.1.5-0)*
G04 #@! TF.CreationDate,2021-01-12T22:56:50-08:00*
G04 #@! TF.ProjectId,trackydacks,74726163-6b79-4646-9163-6b732e6b6963,rev?*
G04 #@! TF.SameCoordinates,Original*
G04 #@! TF.FileFunction,Copper,L1,Top*
G04 #@! TF.FilePolarity,Positive*
%FSLAX46Y46*%
G04 Gerber Fmt 4.6, Leading zero omitted, Abs format (unit mm)*
G04 Created by KiCad (PCBNEW (5.1.5-0)) date 2021-01-12 22:56:50*
%MOMM*%
%LPD*%
G04 APERTURE LIST*
%ADD10C,0.100000*%
%ADD11C,1.000000*%
%ADD12C,3.100000*%
%ADD13C,6.100000*%
G04 APERTURE END LIST*
D10*
G36*
X137250000Y-1500000D02*
G01*
X133250000Y-1500000D01*
X133250000Y2500000D01*
X137250000Y2500000D01*
X137250000Y-1500000D01*
G37*
X137250000Y-1500000D02*
X133250000Y-1500000D01*
X133250000Y2500000D01*
X137250000Y2500000D01*
X137250000Y-1500000D01*
D11*
X125750000Y500000D02*
X135250000Y500000D01*
D10*
G36*
X128750000Y-3000000D02*
G01*
X121750000Y-3000000D01*
X121750000Y4000000D01*
X128750000Y4000000D01*
X128750000Y-3000000D01*
G37*
X128750000Y-3000000D02*
X121750000Y-3000000D01*
X121750000Y4000000D01*
X128750000Y4000000D01*
X128750000Y-3000000D01*
G36*
X108750000Y-3000000D02*
G01*
X101750000Y-3000000D01*
X101750000Y4000000D01*
X108750000Y4000000D01*
X108750000Y-3000000D01*
G37*
X108750000Y-3000000D02*
X101750000Y-3000000D01*
X101750000Y4000000D01*
X108750000Y4000000D01*
X108750000Y-3000000D01*
D11*
X105250000Y500000D02*
X115250000Y500000D01*
D10*
G36*
X117250000Y-1500000D02*
G01*
X113250000Y-1500000D01*
X113250000Y2500000D01*
X117250000Y2500000D01*
X117250000Y-1500000D01*
G37*
X117250000Y-1500000D02*
X113250000Y-1500000D01*
X113250000Y2500000D01*
X117250000Y2500000D01*
X117250000Y-1500000D01*
D11*
X135250000Y15500000D02*
X105250000Y15500000D01*
D10*
G36*
X116596400Y-19724900D02*
G01*
X116913900Y-19966200D01*
X117479050Y-20283700D01*
X118075950Y-20715500D01*
X118450600Y-21096500D01*
X118850650Y-21661650D01*
X119447550Y-22842750D01*
X119746000Y-23407900D01*
X119758700Y-23420600D01*
X119428500Y-23446000D01*
X119326900Y-23395200D01*
X118971300Y-23147550D01*
X118564900Y-22779250D01*
X118234700Y-22430000D01*
X117879100Y-21998200D01*
X117599700Y-21579100D01*
X117409200Y-21325100D01*
X117155200Y-20867900D01*
X116901200Y-20499600D01*
X116659900Y-20080500D01*
X116380500Y-19521700D01*
X116596400Y-19724900D01*
G37*
X116596400Y-19724900D02*
X116913900Y-19966200D01*
X117479050Y-20283700D01*
X118075950Y-20715500D01*
X118450600Y-21096500D01*
X118850650Y-21661650D01*
X119447550Y-22842750D01*
X119746000Y-23407900D01*
X119758700Y-23420600D01*
X119428500Y-23446000D01*
X119326900Y-23395200D01*
X118971300Y-23147550D01*
X118564900Y-22779250D01*
X118234700Y-22430000D01*
X117879100Y-21998200D01*
X117599700Y-21579100D01*
X117409200Y-21325100D01*
X117155200Y-20867900D01*
X116901200Y-20499600D01*
X116659900Y-20080500D01*
X116380500Y-19521700D01*
X116596400Y-19724900D01*
G36*
X118002925Y-22903075D02*
G01*
X118339475Y-22998325D01*
X118603000Y-23090400D01*
X119301500Y-23496800D01*
X119331980Y-23524740D01*
X119339600Y-23509500D01*
X119339600Y-23522200D01*
X119331980Y-23524740D01*
X119250700Y-23687300D01*
X119644400Y-23827000D01*
X119434850Y-23852400D01*
X119041150Y-23877800D01*
X118564900Y-23877800D01*
X118120400Y-23814300D01*
X117637800Y-23700000D01*
X117244100Y-23585700D01*
X116837700Y-23357100D01*
X116520200Y-23128500D01*
X116113800Y-23001500D01*
X116761500Y-22950700D01*
X117294900Y-22912600D01*
X117758450Y-22906250D01*
X118002925Y-22903075D01*
G37*
X118002925Y-22903075D02*
X118339475Y-22998325D01*
X118603000Y-23090400D01*
X119301500Y-23496800D01*
X119331980Y-23524740D01*
X119339600Y-23509500D01*
X119339600Y-23522200D01*
X119331980Y-23524740D01*
X119250700Y-23687300D01*
X119644400Y-23827000D01*
X119434850Y-23852400D01*
X119041150Y-23877800D01*
X118564900Y-23877800D01*
X118120400Y-23814300D01*
X117637800Y-23700000D01*
X117244100Y-23585700D01*
X116837700Y-23357100D01*
X116520200Y-23128500D01*
X116113800Y-23001500D01*
X116761500Y-22950700D01*
X117294900Y-22912600D01*
X117758450Y-22906250D01*
X118002925Y-22903075D01*
G36*
X119866650Y-23966700D02*
G01*
X119498350Y-24398500D01*
X119060200Y-24671550D01*
X118679200Y-24811250D01*
X117929900Y-24976350D01*
X118412500Y-24449300D01*
X118806200Y-24182600D01*
X119174500Y-23979400D01*
X119644400Y-23903200D01*
X119669800Y-23903200D01*
X119866650Y-23966700D01*
G37*
X119866650Y-23966700D02*
X119498350Y-24398500D01*
X119060200Y-24671550D01*
X118679200Y-24811250D01*
X117929900Y-24976350D01*
X118412500Y-24449300D01*
X118806200Y-24182600D01*
X119174500Y-23979400D01*
X119644400Y-23903200D01*
X119669800Y-23903200D01*
X119866650Y-23966700D01*
G36*
X120000000Y-23484100D02*
G01*
X119788862Y-23677775D01*
X120007937Y-23773025D01*
X120758825Y-24315950D01*
X120577850Y-24411200D01*
X120000000Y-23954000D01*
X120012700Y-25046200D01*
X119898400Y-24906500D01*
X119892050Y-24017500D01*
X119936500Y-24017500D01*
X119555500Y-23801600D01*
X119269750Y-23649200D01*
X119434850Y-23369800D01*
X120000000Y-23484100D01*
G37*
X120000000Y-23484100D02*
X119788862Y-23677775D01*
X120007937Y-23773025D01*
X120758825Y-24315950D01*
X120577850Y-24411200D01*
X120000000Y-23954000D01*
X120012700Y-25046200D01*
X119898400Y-24906500D01*
X119892050Y-24017500D01*
X119936500Y-24017500D01*
X119555500Y-23801600D01*
X119269750Y-23649200D01*
X119434850Y-23369800D01*
X120000000Y-23484100D01*
G36*
X120641350Y-23941300D02*
G01*
X121193800Y-24220700D01*
X121520825Y-24547725D01*
X121655763Y-24777913D01*
X121887538Y-25047788D01*
X121581150Y-24963650D01*
X121327150Y-24887450D01*
X121149350Y-24823950D01*
X120774700Y-24690600D01*
X120415925Y-24496925D01*
X120155575Y-24211175D01*
X120031750Y-24049250D01*
X120095250Y-24087350D01*
X120069850Y-24023850D01*
X120133350Y-23852400D01*
X120641350Y-23941300D01*
G37*
X120641350Y-23941300D02*
X121193800Y-24220700D01*
X121520825Y-24547725D01*
X121655763Y-24777913D01*
X121887538Y-25047788D01*
X121581150Y-24963650D01*
X121327150Y-24887450D01*
X121149350Y-24823950D01*
X120774700Y-24690600D01*
X120415925Y-24496925D01*
X120155575Y-24211175D01*
X120031750Y-24049250D01*
X120095250Y-24087350D01*
X120069850Y-24023850D01*
X120133350Y-23852400D01*
X120641350Y-23941300D01*
G36*
X123073400Y-22938000D02*
G01*
X123505200Y-22963400D01*
X124083207Y-22973943D01*
X123403600Y-23128500D01*
X122971800Y-23319000D01*
X122628900Y-23534900D01*
X122209800Y-23700000D01*
X121676400Y-23788900D01*
X121231900Y-23814300D01*
X120654050Y-23795250D01*
X120076200Y-23776200D01*
X120012700Y-23700000D01*
X120228600Y-23636500D01*
X120235585Y-23585700D01*
X120551815Y-23458700D01*
X121085850Y-23230100D01*
X121638300Y-23026900D01*
X122032000Y-22912600D01*
X122476500Y-22912600D01*
X123073400Y-22938000D01*
G37*
X123073400Y-22938000D02*
X123505200Y-22963400D01*
X124083207Y-22973943D01*
X123403600Y-23128500D01*
X122971800Y-23319000D01*
X122628900Y-23534900D01*
X122209800Y-23700000D01*
X121676400Y-23788900D01*
X121231900Y-23814300D01*
X120654050Y-23795250D01*
X120076200Y-23776200D01*
X120012700Y-23700000D01*
X120228600Y-23636500D01*
X120235585Y-23585700D01*
X120551815Y-23458700D01*
X121085850Y-23230100D01*
X121638300Y-23026900D01*
X122032000Y-22912600D01*
X122476500Y-22912600D01*
X123073400Y-22938000D01*
G36*
X123060700Y-20283700D02*
G01*
X122819400Y-20779000D01*
X122616200Y-21236200D01*
X122355850Y-21756900D01*
X122082800Y-22112500D01*
X121771650Y-22525250D01*
X121301750Y-22918950D01*
X120800100Y-23255500D01*
X119695200Y-23852400D01*
X119720600Y-23522200D01*
X120025400Y-23471400D01*
X120273050Y-23033250D01*
X120488950Y-22569700D01*
X120654050Y-22239500D01*
X120838200Y-21947400D01*
X121003300Y-21629900D01*
X121282700Y-21274300D01*
X121562100Y-20956800D01*
X121892300Y-20664700D01*
X122235200Y-20436100D01*
X122616200Y-20182100D01*
X123009900Y-19915400D01*
X123543300Y-19521700D01*
X123060700Y-20283700D01*
G37*
X123060700Y-20283700D02*
X122819400Y-20779000D01*
X122616200Y-21236200D01*
X122355850Y-21756900D01*
X122082800Y-22112500D01*
X121771650Y-22525250D01*
X121301750Y-22918950D01*
X120800100Y-23255500D01*
X119695200Y-23852400D01*
X119720600Y-23522200D01*
X120025400Y-23471400D01*
X120273050Y-23033250D01*
X120488950Y-22569700D01*
X120654050Y-22239500D01*
X120838200Y-21947400D01*
X121003300Y-21629900D01*
X121282700Y-21274300D01*
X121562100Y-20956800D01*
X121892300Y-20664700D01*
X122235200Y-20436100D01*
X122616200Y-20182100D01*
X123009900Y-19915400D01*
X123543300Y-19521700D01*
X123060700Y-20283700D01*
G36*
X120215900Y-18150100D02*
G01*
X120317500Y-18632700D01*
X120431800Y-19089900D01*
X120514350Y-19420100D01*
X120577850Y-19801100D01*
X120622300Y-20321800D01*
X120622300Y-20855200D01*
X120571500Y-21439400D01*
X120508000Y-21960100D01*
X120365125Y-22455400D01*
X120066675Y-23471400D01*
X119853950Y-23420600D01*
X119619000Y-22506200D01*
X119445962Y-21642600D01*
X119461837Y-20855200D01*
X119514225Y-20194800D01*
X119676150Y-19420100D01*
X119911100Y-18607300D01*
X120038100Y-17832600D01*
X120101600Y-17311900D01*
X120215900Y-18150100D01*
G37*
X120215900Y-18150100D02*
X120317500Y-18632700D01*
X120431800Y-19089900D01*
X120514350Y-19420100D01*
X120577850Y-19801100D01*
X120622300Y-20321800D01*
X120622300Y-20855200D01*
X120571500Y-21439400D01*
X120508000Y-21960100D01*
X120365125Y-22455400D01*
X120066675Y-23471400D01*
X119853950Y-23420600D01*
X119619000Y-22506200D01*
X119445962Y-21642600D01*
X119461837Y-20855200D01*
X119514225Y-20194800D01*
X119676150Y-19420100D01*
X119911100Y-18607300D01*
X120038100Y-17832600D01*
X120101600Y-17311900D01*
X120215900Y-18150100D01*
D12*
X135250000Y500000D03*
X115250000Y500000D03*
D13*
X105250000Y500000D03*
X125250000Y500000D03*
X105250000Y15500000D03*
X115250000Y15500000D03*
X125250000Y15500000D03*
X135250000Y15500000D03*
M02*
