G04 #@! TF.GenerationSoftware,KiCad,Pcbnew,(5.1.5-0)*
G04 #@! TF.CreationDate,2021-01-20T20:47:42-08:00*
G04 #@! TF.ProjectId,triad,74726961-642e-46b6-9963-61645f706362,rev?*
G04 #@! TF.SameCoordinates,Original*
G04 #@! TF.FileFunction,Legend,Top*
G04 #@! TF.FilePolarity,Positive*
%FSLAX46Y46*%
G04 Gerber Fmt 4.6, Leading zero omitted, Abs format (unit mm)*
G04 Created by KiCad (PCBNEW (5.1.5-0)) date 2021-01-20 20:47:42*
%MOMM*%
%LPD*%
G04 APERTURE LIST*
%ADD10C,0.200000*%
%ADD11C,0.300000*%
%ADD12C,0.400000*%
G04 APERTURE END LIST*
D10*
X32785714Y-90178571D02*
X33071428Y-90178571D01*
X33214285Y-90250000D01*
X33357142Y-90392857D01*
X33428571Y-90678571D01*
X33428571Y-91178571D01*
X33357142Y-91464285D01*
X33214285Y-91607142D01*
X33071428Y-91678571D01*
X32785714Y-91678571D01*
X32642857Y-91607142D01*
X32500000Y-91464285D01*
X32428571Y-91178571D01*
X32428571Y-90678571D01*
X32500000Y-90392857D01*
X32642857Y-90250000D01*
X32785714Y-90178571D01*
X34071428Y-90178571D02*
X34071428Y-91392857D01*
X34142857Y-91535714D01*
X34214285Y-91607142D01*
X34357142Y-91678571D01*
X34642857Y-91678571D01*
X34785714Y-91607142D01*
X34857142Y-91535714D01*
X34928571Y-91392857D01*
X34928571Y-90178571D01*
X35428571Y-90178571D02*
X36285714Y-90178571D01*
X35857142Y-91678571D02*
X35857142Y-90178571D01*
X36642857Y-90178571D02*
X37571428Y-90178571D01*
X37071428Y-90750000D01*
X37285714Y-90750000D01*
X37428571Y-90821428D01*
X37500000Y-90892857D01*
X37571428Y-91035714D01*
X37571428Y-91392857D01*
X37500000Y-91535714D01*
X37428571Y-91607142D01*
X37285714Y-91678571D01*
X36857142Y-91678571D01*
X36714285Y-91607142D01*
X36642857Y-91535714D01*
X17785714Y-90178571D02*
X18071428Y-90178571D01*
X18214285Y-90250000D01*
X18357142Y-90392857D01*
X18428571Y-90678571D01*
X18428571Y-91178571D01*
X18357142Y-91464285D01*
X18214285Y-91607142D01*
X18071428Y-91678571D01*
X17785714Y-91678571D01*
X17642857Y-91607142D01*
X17500000Y-91464285D01*
X17428571Y-91178571D01*
X17428571Y-90678571D01*
X17500000Y-90392857D01*
X17642857Y-90250000D01*
X17785714Y-90178571D01*
X19071428Y-90178571D02*
X19071428Y-91392857D01*
X19142857Y-91535714D01*
X19214285Y-91607142D01*
X19357142Y-91678571D01*
X19642857Y-91678571D01*
X19785714Y-91607142D01*
X19857142Y-91535714D01*
X19928571Y-91392857D01*
X19928571Y-90178571D01*
X20428571Y-90178571D02*
X21285714Y-90178571D01*
X20857142Y-91678571D02*
X20857142Y-90178571D01*
X21714285Y-90321428D02*
X21785714Y-90250000D01*
X21928571Y-90178571D01*
X22285714Y-90178571D01*
X22428571Y-90250000D01*
X22500000Y-90321428D01*
X22571428Y-90464285D01*
X22571428Y-90607142D01*
X22500000Y-90821428D01*
X21642857Y-91678571D01*
X22571428Y-91678571D01*
X2535714Y-90178571D02*
X2821428Y-90178571D01*
X2964285Y-90250000D01*
X3107142Y-90392857D01*
X3178571Y-90678571D01*
X3178571Y-91178571D01*
X3107142Y-91464285D01*
X2964285Y-91607142D01*
X2821428Y-91678571D01*
X2535714Y-91678571D01*
X2392857Y-91607142D01*
X2250000Y-91464285D01*
X2178571Y-91178571D01*
X2178571Y-90678571D01*
X2250000Y-90392857D01*
X2392857Y-90250000D01*
X2535714Y-90178571D01*
X3821428Y-90178571D02*
X3821428Y-91392857D01*
X3892857Y-91535714D01*
X3964285Y-91607142D01*
X4107142Y-91678571D01*
X4392857Y-91678571D01*
X4535714Y-91607142D01*
X4607142Y-91535714D01*
X4678571Y-91392857D01*
X4678571Y-90178571D01*
X5178571Y-90178571D02*
X6035714Y-90178571D01*
X5607142Y-91678571D02*
X5607142Y-90178571D01*
X7321428Y-91678571D02*
X6464285Y-91678571D01*
X6892857Y-91678571D02*
X6892857Y-90178571D01*
X6750000Y-90392857D01*
X6607142Y-90535714D01*
X6464285Y-90607142D01*
X3500000Y-77678571D02*
X3500000Y-76178571D01*
X4214285Y-77678571D02*
X4214285Y-76178571D01*
X5071428Y-77678571D01*
X5071428Y-76178571D01*
X6571428Y-77678571D02*
X5714285Y-77678571D01*
X6142857Y-77678571D02*
X6142857Y-76178571D01*
X6000000Y-76392857D01*
X5857142Y-76535714D01*
X5714285Y-76607142D01*
X18500000Y-77678571D02*
X18500000Y-76178571D01*
X19214285Y-77678571D02*
X19214285Y-76178571D01*
X20071428Y-77678571D01*
X20071428Y-76178571D01*
X20714285Y-76321428D02*
X20785714Y-76250000D01*
X20928571Y-76178571D01*
X21285714Y-76178571D01*
X21428571Y-76250000D01*
X21500000Y-76321428D01*
X21571428Y-76464285D01*
X21571428Y-76607142D01*
X21500000Y-76821428D01*
X20642857Y-77678571D01*
X21571428Y-77678571D01*
X33250000Y-77678571D02*
X33250000Y-76178571D01*
X33964285Y-77678571D02*
X33964285Y-76178571D01*
X34821428Y-77678571D01*
X34821428Y-76178571D01*
X35392857Y-76178571D02*
X36321428Y-76178571D01*
X35821428Y-76750000D01*
X36035714Y-76750000D01*
X36178571Y-76821428D01*
X36250000Y-76892857D01*
X36321428Y-77035714D01*
X36321428Y-77392857D01*
X36250000Y-77535714D01*
X36178571Y-77607142D01*
X36035714Y-77678571D01*
X35607142Y-77678571D01*
X35464285Y-77607142D01*
X35392857Y-77535714D01*
X34392857Y-50178571D02*
X33892857Y-49464285D01*
X33535714Y-50178571D02*
X33535714Y-48678571D01*
X34107142Y-48678571D01*
X34250000Y-48750000D01*
X34321428Y-48821428D01*
X34392857Y-48964285D01*
X34392857Y-49178571D01*
X34321428Y-49321428D01*
X34250000Y-49392857D01*
X34107142Y-49464285D01*
X33535714Y-49464285D01*
X35035714Y-49392857D02*
X35535714Y-49392857D01*
X35750000Y-50178571D02*
X35035714Y-50178571D01*
X35035714Y-48678571D01*
X35750000Y-48678571D01*
X37107142Y-50178571D02*
X36392857Y-50178571D01*
X36392857Y-48678571D01*
X38607142Y-48678571D02*
X39535714Y-48678571D01*
X39035714Y-49250000D01*
X39250000Y-49250000D01*
X39392857Y-49321428D01*
X39464285Y-49392857D01*
X39535714Y-49535714D01*
X39535714Y-49892857D01*
X39464285Y-50035714D01*
X39392857Y-50107142D01*
X39250000Y-50178571D01*
X38821428Y-50178571D01*
X38678571Y-50107142D01*
X38607142Y-50035714D01*
X1214285Y-49750000D02*
X1928571Y-49750000D01*
X1071428Y-50178571D02*
X1571428Y-48678571D01*
X2071428Y-50178571D01*
X2357142Y-48678571D02*
X3214285Y-48678571D01*
X2785714Y-50178571D02*
X2785714Y-48678571D01*
X3499999Y-48678571D02*
X4357142Y-48678571D01*
X3928571Y-50178571D02*
X3928571Y-48678571D01*
X5857142Y-48678571D02*
X6785714Y-48678571D01*
X6285714Y-49250000D01*
X6500000Y-49250000D01*
X6642857Y-49321428D01*
X6714285Y-49392857D01*
X6785714Y-49535714D01*
X6785714Y-49892857D01*
X6714285Y-50035714D01*
X6642857Y-50107142D01*
X6500000Y-50178571D01*
X6071428Y-50178571D01*
X5928571Y-50107142D01*
X5857142Y-50035714D01*
X964285Y-33750000D02*
X1678571Y-33750000D01*
X821428Y-34178571D02*
X1321428Y-32678571D01*
X1821428Y-34178571D01*
X2107142Y-32678571D02*
X2964285Y-32678571D01*
X2535714Y-34178571D02*
X2535714Y-32678571D01*
X3249999Y-32678571D02*
X4107142Y-32678571D01*
X3678571Y-34178571D02*
X3678571Y-32678571D01*
X5678571Y-32821428D02*
X5750000Y-32750000D01*
X5892857Y-32678571D01*
X6250000Y-32678571D01*
X6392857Y-32750000D01*
X6464285Y-32821428D01*
X6535714Y-32964285D01*
X6535714Y-33107142D01*
X6464285Y-33321428D01*
X5607142Y-34178571D01*
X6535714Y-34178571D01*
X34392857Y-34178571D02*
X33892857Y-33464285D01*
X33535714Y-34178571D02*
X33535714Y-32678571D01*
X34107142Y-32678571D01*
X34250000Y-32750000D01*
X34321428Y-32821428D01*
X34392857Y-32964285D01*
X34392857Y-33178571D01*
X34321428Y-33321428D01*
X34250000Y-33392857D01*
X34107142Y-33464285D01*
X33535714Y-33464285D01*
X35035714Y-33392857D02*
X35535714Y-33392857D01*
X35750000Y-34178571D02*
X35035714Y-34178571D01*
X35035714Y-32678571D01*
X35750000Y-32678571D01*
X37107142Y-34178571D02*
X36392857Y-34178571D01*
X36392857Y-32678571D01*
X38678571Y-32821428D02*
X38750000Y-32750000D01*
X38892857Y-32678571D01*
X39250000Y-32678571D01*
X39392857Y-32750000D01*
X39464285Y-32821428D01*
X39535714Y-32964285D01*
X39535714Y-33107142D01*
X39464285Y-33321428D01*
X38607142Y-34178571D01*
X39535714Y-34178571D01*
X34392857Y-18178571D02*
X33892857Y-17464285D01*
X33535714Y-18178571D02*
X33535714Y-16678571D01*
X34107142Y-16678571D01*
X34250000Y-16750000D01*
X34321428Y-16821428D01*
X34392857Y-16964285D01*
X34392857Y-17178571D01*
X34321428Y-17321428D01*
X34250000Y-17392857D01*
X34107142Y-17464285D01*
X33535714Y-17464285D01*
X35035714Y-17392857D02*
X35535714Y-17392857D01*
X35750000Y-18178571D02*
X35035714Y-18178571D01*
X35035714Y-16678571D01*
X35750000Y-16678571D01*
X37107142Y-18178571D02*
X36392857Y-18178571D01*
X36392857Y-16678571D01*
X39535714Y-18178571D02*
X38678571Y-18178571D01*
X39107142Y-18178571D02*
X39107142Y-16678571D01*
X38964285Y-16892857D01*
X38821428Y-17035714D01*
X38678571Y-17107142D01*
X964285Y-17750000D02*
X1678571Y-17750000D01*
X821428Y-18178571D02*
X1321428Y-16678571D01*
X1821428Y-18178571D01*
X2107142Y-16678571D02*
X2964285Y-16678571D01*
X2535714Y-18178571D02*
X2535714Y-16678571D01*
X3249999Y-16678571D02*
X4107142Y-16678571D01*
X3678571Y-18178571D02*
X3678571Y-16678571D01*
X6535714Y-18178571D02*
X5678571Y-18178571D01*
X6107142Y-18178571D02*
X6107142Y-16678571D01*
X5964285Y-16892857D01*
X5821428Y-17035714D01*
X5678571Y-17107142D01*
D11*
X15488095Y-6254761D02*
X16630952Y-6254761D01*
X16059523Y-8254761D02*
X16059523Y-6254761D01*
X18440476Y-8254761D02*
X17773809Y-7302380D01*
X17297619Y-8254761D02*
X17297619Y-6254761D01*
X18059523Y-6254761D01*
X18250000Y-6350000D01*
X18345238Y-6445238D01*
X18440476Y-6635714D01*
X18440476Y-6921428D01*
X18345238Y-7111904D01*
X18250000Y-7207142D01*
X18059523Y-7302380D01*
X17297619Y-7302380D01*
X19297619Y-8254761D02*
X19297619Y-6254761D01*
X20250000Y-8254761D02*
X20250000Y-6254761D01*
X21011904Y-6254761D01*
X21202380Y-6350000D01*
X21297619Y-6445238D01*
X21392857Y-6635714D01*
X21392857Y-6921428D01*
X21297619Y-7111904D01*
X21202380Y-7207142D01*
X21011904Y-7302380D01*
X20250000Y-7302380D01*
X23202380Y-8254761D02*
X22250000Y-8254761D01*
X22250000Y-6254761D01*
X23869047Y-7207142D02*
X24535714Y-7207142D01*
X24821428Y-8254761D02*
X23869047Y-8254761D01*
X23869047Y-6254761D01*
X24821428Y-6254761D01*
X14202380Y-10507142D02*
X14869047Y-10507142D01*
X15154761Y-11554761D02*
X14202380Y-11554761D01*
X14202380Y-9554761D01*
X15154761Y-9554761D01*
X16011904Y-11554761D02*
X16011904Y-9554761D01*
X17154761Y-11554761D01*
X17154761Y-9554761D01*
X17821428Y-9554761D02*
X18488095Y-11554761D01*
X19154761Y-9554761D01*
X22392857Y-9650000D02*
X22202380Y-9554761D01*
X21916666Y-9554761D01*
X21630952Y-9650000D01*
X21440476Y-9840476D01*
X21345238Y-10030952D01*
X21250000Y-10411904D01*
X21250000Y-10697619D01*
X21345238Y-11078571D01*
X21440476Y-11269047D01*
X21630952Y-11459523D01*
X21916666Y-11554761D01*
X22107142Y-11554761D01*
X22392857Y-11459523D01*
X22488095Y-11364285D01*
X22488095Y-10697619D01*
X22107142Y-10697619D01*
X23345238Y-10507142D02*
X24011904Y-10507142D01*
X24297619Y-11554761D02*
X23345238Y-11554761D01*
X23345238Y-9554761D01*
X24297619Y-9554761D01*
X25154761Y-11554761D02*
X25154761Y-9554761D01*
X26297619Y-11554761D01*
X26297619Y-9554761D01*
D12*
X12440476Y-1309523D02*
X14726190Y-1309523D01*
X13583333Y-5309523D02*
X13583333Y-1309523D01*
X18345238Y-5309523D02*
X17011904Y-3404761D01*
X16059523Y-5309523D02*
X16059523Y-1309523D01*
X17583333Y-1309523D01*
X17964285Y-1500000D01*
X18154761Y-1690476D01*
X18345238Y-2071428D01*
X18345238Y-2642857D01*
X18154761Y-3023809D01*
X17964285Y-3214285D01*
X17583333Y-3404761D01*
X16059523Y-3404761D01*
X20059523Y-5309523D02*
X20059523Y-1309523D01*
X21773809Y-4166666D02*
X23678571Y-4166666D01*
X21392857Y-5309523D02*
X22726190Y-1309523D01*
X24059523Y-5309523D01*
X25392857Y-5309523D02*
X25392857Y-1309523D01*
X26345238Y-1309523D01*
X26916666Y-1500000D01*
X27297619Y-1880952D01*
X27488095Y-2261904D01*
X27678571Y-3023809D01*
X27678571Y-3595238D01*
X27488095Y-4357142D01*
X27297619Y-4738095D01*
X26916666Y-5119047D01*
X26345238Y-5309523D01*
X25392857Y-5309523D01*
M02*
