M48
; DRILL file {KiCad (5.1.5-0)} date Tuesday, January 12, 2021 at 10:14:25 PM
; FORMAT={2:4/ absolute / inch / keep zeros}
; #@! TF.CreationDate,2021-01-12T22:14:25-08:00
; #@! TF.GenerationSoftware,Kicad,Pcbnew,(5.1.5-0)
FMAT,2
INCH
T1C0.1181
T2C0.2362
%
G90
G05
T1
X007992Y-060531
X007992Y-055807
X007992Y-074705
X007992Y-051083
X007992Y-046358
X007992Y-069980
X007992Y-065256
X007992Y-084055
X007992Y-079429
T2
X004843Y-049508
X004843Y-044783
X011142Y-058957
X011142Y-054232
X011142Y-044783
X004843Y-058957
X004843Y-063681
X004843Y-054232
X011142Y-063681
X011142Y-073130
X011142Y-049508
X011142Y-068406
X011142Y-077756
X004843Y-068406
X004843Y-077756
X004843Y-073130
X011142Y-082480
X004843Y-082480
T0
M30
