G04 #@! TF.GenerationSoftware,KiCad,Pcbnew,(5.1.5-0)*
G04 #@! TF.CreationDate,2021-01-12T22:14:20-08:00*
G04 #@! TF.ProjectId,dividebyn,64697669-6465-4627-996e-2e6b69636164,rev?*
G04 #@! TF.SameCoordinates,Original*
G04 #@! TF.FileFunction,Soldermask,Top*
G04 #@! TF.FilePolarity,Negative*
%FSLAX46Y46*%
G04 Gerber Fmt 4.6, Leading zero omitted, Abs format (unit mm)*
G04 Created by KiCad (PCBNEW (5.1.5-0)) date 2021-01-12 22:14:20*
%MOMM*%
%LPD*%
G04 APERTURE LIST*
%ADD10C,1.000000*%
%ADD11C,0.100000*%
%ADD12C,0.000002*%
%ADD13C,0.001000*%
G04 APERTURE END LIST*
D10*
X12250000Y-113250000D02*
X12250000Y-138000000D01*
X20300000Y-118000000D02*
X28300000Y-113750000D01*
X20300000Y-130000000D02*
X28050000Y-126000000D01*
X20300000Y-141750000D02*
X28300000Y-138250000D01*
X20300000Y-153750000D02*
X28050000Y-150000000D01*
X20300000Y-165750000D02*
X28050000Y-162000000D01*
X20300000Y-177750000D02*
X28050000Y-174000000D01*
X20300000Y-189750000D02*
X28050000Y-185750000D01*
X20300000Y-201750000D02*
X28050000Y-197500000D01*
X20300000Y-213500000D02*
X28050000Y-210000000D01*
X28300000Y-210000000D02*
X28300000Y-113500000D01*
X12250000Y-150000000D02*
X12250000Y-209750000D01*
D11*
G36*
X31800000Y-213000000D02*
G01*
X24800000Y-213000000D01*
X24800000Y-206250000D01*
X31800000Y-206250000D01*
X31800000Y-213000000D01*
G37*
X31800000Y-213000000D02*
X24800000Y-213000000D01*
X24800000Y-206250000D01*
X31800000Y-206250000D01*
X31800000Y-213000000D01*
G36*
X31800000Y-201000000D02*
G01*
X24800000Y-201000000D01*
X24800000Y-194250000D01*
X31800000Y-194250000D01*
X31800000Y-201000000D01*
G37*
X31800000Y-201000000D02*
X24800000Y-201000000D01*
X24800000Y-194250000D01*
X31800000Y-194250000D01*
X31800000Y-201000000D01*
G36*
X31800000Y-189000000D02*
G01*
X24800000Y-189000000D01*
X24800000Y-182250000D01*
X31800000Y-182250000D01*
X31800000Y-189000000D01*
G37*
X31800000Y-189000000D02*
X24800000Y-189000000D01*
X24800000Y-182250000D01*
X31800000Y-182250000D01*
X31800000Y-189000000D01*
G36*
X31800000Y-177000000D02*
G01*
X24800000Y-177000000D01*
X24800000Y-170250000D01*
X31800000Y-170250000D01*
X31800000Y-177000000D01*
G37*
X31800000Y-177000000D02*
X24800000Y-177000000D01*
X24800000Y-170250000D01*
X31800000Y-170250000D01*
X31800000Y-177000000D01*
G36*
X31800000Y-165000000D02*
G01*
X24800000Y-165000000D01*
X24800000Y-158250000D01*
X31800000Y-158250000D01*
X31800000Y-165000000D01*
G37*
X31800000Y-165000000D02*
X24800000Y-165000000D01*
X24800000Y-158250000D01*
X31800000Y-158250000D01*
X31800000Y-165000000D01*
G36*
X31800000Y-153000000D02*
G01*
X24800000Y-153000000D01*
X24800000Y-146250000D01*
X31800000Y-146250000D01*
X31800000Y-153000000D01*
G37*
X31800000Y-153000000D02*
X24800000Y-153000000D01*
X24800000Y-146250000D01*
X31800000Y-146250000D01*
X31800000Y-153000000D01*
G36*
X31800000Y-141000000D02*
G01*
X24800000Y-141000000D01*
X24800000Y-134250000D01*
X31800000Y-134250000D01*
X31800000Y-141000000D01*
G37*
X31800000Y-141000000D02*
X24800000Y-141000000D01*
X24800000Y-134250000D01*
X31800000Y-134250000D01*
X31800000Y-141000000D01*
G36*
X31800000Y-129000000D02*
G01*
X24800000Y-129000000D01*
X24800000Y-122250000D01*
X31800000Y-122250000D01*
X31800000Y-129000000D01*
G37*
X31800000Y-129000000D02*
X24800000Y-129000000D01*
X24800000Y-122250000D01*
X31800000Y-122250000D01*
X31800000Y-129000000D01*
G36*
X31800000Y-117000000D02*
G01*
X24800000Y-117000000D01*
X24800000Y-110250000D01*
X31800000Y-110250000D01*
X31800000Y-117000000D01*
G37*
X31800000Y-117000000D02*
X24800000Y-117000000D01*
X24800000Y-110250000D01*
X31800000Y-110250000D01*
X31800000Y-117000000D01*
D10*
X22300000Y-117750000D02*
G75*
G03X22300000Y-117750000I-2000000J0D01*
G01*
X22300000Y-129750000D02*
G75*
G03X22300000Y-129750000I-2000000J0D01*
G01*
X22300000Y-141750000D02*
G75*
G03X22300000Y-141750000I-2000000J0D01*
G01*
X22300000Y-153750000D02*
G75*
G03X22300000Y-153750000I-2000000J0D01*
G01*
X22300000Y-165750000D02*
G75*
G03X22300000Y-165750000I-2000000J0D01*
G01*
X22300000Y-177750000D02*
G75*
G03X22300000Y-177750000I-2000000J0D01*
G01*
X22300000Y-189750000D02*
G75*
G03X22300000Y-189750000I-2000000J0D01*
G01*
X22300000Y-201750000D02*
G75*
G03X22300000Y-201750000I-2000000J0D01*
G01*
X22300000Y-213500000D02*
G75*
G03X22300000Y-213500000I-2000000J0D01*
G01*
D11*
G36*
X20910400Y-223747650D02*
G01*
X21462850Y-224027050D01*
X21789875Y-224354075D01*
X21924813Y-224584263D01*
X22156588Y-224854138D01*
X21850200Y-224770000D01*
X21596200Y-224693800D01*
X21418400Y-224630300D01*
X21043750Y-224496950D01*
X20684975Y-224303275D01*
X20424625Y-224017525D01*
X20300800Y-223855600D01*
X20364300Y-223893700D01*
X20338900Y-223830200D01*
X20402400Y-223658750D01*
X20910400Y-223747650D01*
G37*
X20910400Y-223747650D02*
X21462850Y-224027050D01*
X21789875Y-224354075D01*
X21924813Y-224584263D01*
X22156588Y-224854138D01*
X21850200Y-224770000D01*
X21596200Y-224693800D01*
X21418400Y-224630300D01*
X21043750Y-224496950D01*
X20684975Y-224303275D01*
X20424625Y-224017525D01*
X20300800Y-223855600D01*
X20364300Y-223893700D01*
X20338900Y-223830200D01*
X20402400Y-223658750D01*
X20910400Y-223747650D01*
G36*
X20116650Y-223766700D02*
G01*
X19748350Y-224198500D01*
X19310200Y-224471550D01*
X18929200Y-224611250D01*
X18179900Y-224776350D01*
X18662500Y-224249300D01*
X19056200Y-223982600D01*
X19424500Y-223779400D01*
X19894400Y-223703200D01*
X19919800Y-223703200D01*
X20116650Y-223766700D01*
G37*
X20116650Y-223766700D02*
X19748350Y-224198500D01*
X19310200Y-224471550D01*
X18929200Y-224611250D01*
X18179900Y-224776350D01*
X18662500Y-224249300D01*
X19056200Y-223982600D01*
X19424500Y-223779400D01*
X19894400Y-223703200D01*
X19919800Y-223703200D01*
X20116650Y-223766700D01*
G36*
X23323400Y-222738000D02*
G01*
X23755200Y-222763400D01*
X24333207Y-222773943D01*
X23653600Y-222928500D01*
X23221800Y-223119000D01*
X22878900Y-223334900D01*
X22459800Y-223500000D01*
X21926400Y-223588900D01*
X21481900Y-223614300D01*
X20904050Y-223595250D01*
X20326200Y-223576200D01*
X20262700Y-223500000D01*
X20478600Y-223436500D01*
X20485585Y-223385700D01*
X20801815Y-223258700D01*
X21335850Y-223030100D01*
X21888300Y-222826900D01*
X22282000Y-222712600D01*
X22726500Y-222712600D01*
X23323400Y-222738000D01*
G37*
X23323400Y-222738000D02*
X23755200Y-222763400D01*
X24333207Y-222773943D01*
X23653600Y-222928500D01*
X23221800Y-223119000D01*
X22878900Y-223334900D01*
X22459800Y-223500000D01*
X21926400Y-223588900D01*
X21481900Y-223614300D01*
X20904050Y-223595250D01*
X20326200Y-223576200D01*
X20262700Y-223500000D01*
X20478600Y-223436500D01*
X20485585Y-223385700D01*
X20801815Y-223258700D01*
X21335850Y-223030100D01*
X21888300Y-222826900D01*
X22282000Y-222712600D01*
X22726500Y-222712600D01*
X23323400Y-222738000D01*
G36*
X23310700Y-220083700D02*
G01*
X23069400Y-220579000D01*
X22866200Y-221036200D01*
X22605850Y-221556900D01*
X22332800Y-221912500D01*
X22021650Y-222325250D01*
X21551750Y-222718950D01*
X21050100Y-223055500D01*
X19945200Y-223652400D01*
X19970600Y-223322200D01*
X20275400Y-223271400D01*
X20523050Y-222833250D01*
X20738950Y-222369700D01*
X20904050Y-222039500D01*
X21088200Y-221747400D01*
X21253300Y-221429900D01*
X21532700Y-221074300D01*
X21812100Y-220756800D01*
X22142300Y-220464700D01*
X22485200Y-220236100D01*
X22866200Y-219982100D01*
X23259900Y-219715400D01*
X23793300Y-219321700D01*
X23310700Y-220083700D01*
G37*
X23310700Y-220083700D02*
X23069400Y-220579000D01*
X22866200Y-221036200D01*
X22605850Y-221556900D01*
X22332800Y-221912500D01*
X22021650Y-222325250D01*
X21551750Y-222718950D01*
X21050100Y-223055500D01*
X19945200Y-223652400D01*
X19970600Y-223322200D01*
X20275400Y-223271400D01*
X20523050Y-222833250D01*
X20738950Y-222369700D01*
X20904050Y-222039500D01*
X21088200Y-221747400D01*
X21253300Y-221429900D01*
X21532700Y-221074300D01*
X21812100Y-220756800D01*
X22142300Y-220464700D01*
X22485200Y-220236100D01*
X22866200Y-219982100D01*
X23259900Y-219715400D01*
X23793300Y-219321700D01*
X23310700Y-220083700D01*
G36*
X20465900Y-217950100D02*
G01*
X20567500Y-218432700D01*
X20681800Y-218889900D01*
X20764350Y-219220100D01*
X20827850Y-219601100D01*
X20872300Y-220121800D01*
X20872300Y-220655200D01*
X20821500Y-221239400D01*
X20758000Y-221760100D01*
X20615125Y-222255400D01*
X20316675Y-223271400D01*
X20103950Y-223220600D01*
X19869000Y-222306200D01*
X19695962Y-221442600D01*
X19711837Y-220655200D01*
X19764225Y-219994800D01*
X19926150Y-219220100D01*
X20161100Y-218407300D01*
X20288100Y-217632600D01*
X20351600Y-217111900D01*
X20465900Y-217950100D01*
G37*
X20465900Y-217950100D02*
X20567500Y-218432700D01*
X20681800Y-218889900D01*
X20764350Y-219220100D01*
X20827850Y-219601100D01*
X20872300Y-220121800D01*
X20872300Y-220655200D01*
X20821500Y-221239400D01*
X20758000Y-221760100D01*
X20615125Y-222255400D01*
X20316675Y-223271400D01*
X20103950Y-223220600D01*
X19869000Y-222306200D01*
X19695962Y-221442600D01*
X19711837Y-220655200D01*
X19764225Y-219994800D01*
X19926150Y-219220100D01*
X20161100Y-218407300D01*
X20288100Y-217632600D01*
X20351600Y-217111900D01*
X20465900Y-217950100D01*
G36*
X16846400Y-219524900D02*
G01*
X17163900Y-219766200D01*
X17729050Y-220083700D01*
X18325950Y-220515500D01*
X18700600Y-220896500D01*
X19100650Y-221461650D01*
X19697550Y-222642750D01*
X19996000Y-223207900D01*
X20008700Y-223220600D01*
X19678500Y-223246000D01*
X19576900Y-223195200D01*
X19221300Y-222947550D01*
X18814900Y-222579250D01*
X18484700Y-222230000D01*
X18129100Y-221798200D01*
X17849700Y-221379100D01*
X17659200Y-221125100D01*
X17405200Y-220667900D01*
X17151200Y-220299600D01*
X16909900Y-219880500D01*
X16630500Y-219321700D01*
X16846400Y-219524900D01*
G37*
X16846400Y-219524900D02*
X17163900Y-219766200D01*
X17729050Y-220083700D01*
X18325950Y-220515500D01*
X18700600Y-220896500D01*
X19100650Y-221461650D01*
X19697550Y-222642750D01*
X19996000Y-223207900D01*
X20008700Y-223220600D01*
X19678500Y-223246000D01*
X19576900Y-223195200D01*
X19221300Y-222947550D01*
X18814900Y-222579250D01*
X18484700Y-222230000D01*
X18129100Y-221798200D01*
X17849700Y-221379100D01*
X17659200Y-221125100D01*
X17405200Y-220667900D01*
X17151200Y-220299600D01*
X16909900Y-219880500D01*
X16630500Y-219321700D01*
X16846400Y-219524900D01*
G36*
X18252925Y-222703075D02*
G01*
X18589475Y-222798325D01*
X18853000Y-222890400D01*
X19551500Y-223296800D01*
X19581980Y-223324740D01*
X19589600Y-223309500D01*
X19589600Y-223322200D01*
X19581980Y-223324740D01*
X19500700Y-223487300D01*
X19894400Y-223627000D01*
X19684850Y-223652400D01*
X19291150Y-223677800D01*
X18814900Y-223677800D01*
X18370400Y-223614300D01*
X17887800Y-223500000D01*
X17494100Y-223385700D01*
X17087700Y-223157100D01*
X16770200Y-222928500D01*
X16363800Y-222801500D01*
X17011500Y-222750700D01*
X17544900Y-222712600D01*
X18008450Y-222706250D01*
X18252925Y-222703075D01*
G37*
X18252925Y-222703075D02*
X18589475Y-222798325D01*
X18853000Y-222890400D01*
X19551500Y-223296800D01*
X19581980Y-223324740D01*
X19589600Y-223309500D01*
X19589600Y-223322200D01*
X19581980Y-223324740D01*
X19500700Y-223487300D01*
X19894400Y-223627000D01*
X19684850Y-223652400D01*
X19291150Y-223677800D01*
X18814900Y-223677800D01*
X18370400Y-223614300D01*
X17887800Y-223500000D01*
X17494100Y-223385700D01*
X17087700Y-223157100D01*
X16770200Y-222928500D01*
X16363800Y-222801500D01*
X17011500Y-222750700D01*
X17544900Y-222712600D01*
X18008450Y-222706250D01*
X18252925Y-222703075D01*
G36*
X20250000Y-223284100D02*
G01*
X20038862Y-223477775D01*
X20257937Y-223573025D01*
X21008825Y-224115950D01*
X20827850Y-224211200D01*
X20250000Y-223754000D01*
X20262700Y-224846200D01*
X20148400Y-224706500D01*
X20142050Y-223817500D01*
X20186500Y-223817500D01*
X19805500Y-223601600D01*
X19519750Y-223449200D01*
X19684850Y-223169800D01*
X20250000Y-223284100D01*
G37*
X20250000Y-223284100D02*
X20038862Y-223477775D01*
X20257937Y-223573025D01*
X21008825Y-224115950D01*
X20827850Y-224211200D01*
X20250000Y-223754000D01*
X20262700Y-224846200D01*
X20148400Y-224706500D01*
X20142050Y-223817500D01*
X20186500Y-223817500D01*
X19805500Y-223601600D01*
X19519750Y-223449200D01*
X19684850Y-223169800D01*
X20250000Y-223284100D01*
D12*
X19729586Y-221596968D02*
X19736414Y-221663404D01*
X16310628Y-222785206D02*
G75*
G02X16312745Y-222780474I8833J-1112D01*
G01*
X16312745Y-222780475D02*
G75*
G02X16317170Y-222777659I6961J-6056D01*
G01*
X16317171Y-222777659D02*
G75*
G02X16326272Y-222775641I21302J-74534D01*
G01*
X16369176Y-222769928D02*
X16326272Y-222775641D01*
X16425382Y-222764579D02*
X16369176Y-222769928D01*
X16499523Y-222759059D02*
X16425382Y-222764579D01*
X16600810Y-222752773D02*
X16499523Y-222759059D01*
X16714250Y-222745535D02*
X16600810Y-222752773D01*
X16805159Y-222738329D02*
X16714250Y-222745535D01*
X16885946Y-222730142D02*
X16805159Y-222738329D01*
X16967522Y-222719967D02*
X16885946Y-222730142D01*
X17045588Y-222710763D02*
X16967522Y-222719967D01*
X17144548Y-222701810D02*
X17045588Y-222710763D01*
X17252731Y-222693949D02*
X17144548Y-222701810D01*
X17360022Y-222688039D02*
X17252731Y-222693949D01*
X17408893Y-222685783D02*
X17360022Y-222688039D01*
X17478084Y-222682592D02*
X17408893Y-222685783D01*
X17553746Y-222679104D02*
X17478084Y-222682592D01*
X17625022Y-222675821D02*
X17553746Y-222679104D01*
X17792892Y-222668843D02*
X17625022Y-222675821D01*
X17967753Y-222663052D02*
X17792892Y-222668843D01*
X18141324Y-222658069D02*
X17967753Y-222663052D01*
X18141324Y-222658069D02*
G75*
G02X18150393Y-222660507I462J-16364D01*
G01*
X18153889Y-222661762D02*
G75*
G02X18150393Y-222660507I1209J8867D01*
G01*
X18169388Y-222663775D02*
X18153889Y-222661762D01*
X18187771Y-222665819D02*
X18169388Y-222663775D01*
X18208715Y-222667713D02*
X18187771Y-222665819D01*
X19720054Y-221487481D02*
X19722649Y-221517124D01*
X20862378Y-223647086D02*
X20907522Y-223650622D01*
X20813537Y-223643388D02*
X20862378Y-223647086D01*
X20768194Y-223640058D02*
X20813537Y-223643388D01*
X20735022Y-223637755D02*
X20768194Y-223640058D01*
X20703615Y-223635486D02*
X20735022Y-223637755D01*
X20664584Y-223632326D02*
X20703615Y-223635486D01*
X20624606Y-223628849D02*
X20664584Y-223632326D01*
X20590022Y-223625579D02*
X20624606Y-223628849D01*
X20528512Y-223620402D02*
X20590022Y-223625579D01*
X20476901Y-223618134D02*
X20528512Y-223620402D01*
X19081364Y-221380665D02*
X18952584Y-221173051D01*
X19210123Y-221610277D02*
X19081364Y-221380665D01*
X20513811Y-223644985D02*
X20475611Y-223637712D01*
X20551820Y-223651668D02*
X20513811Y-223644985D01*
X20577522Y-223655429D02*
X20551820Y-223651668D01*
X20577522Y-223655429D02*
G75*
G02X20665850Y-223671576I-96572J-777952D01*
G01*
X20792223Y-223704860D02*
X20665850Y-223671576D01*
X20931550Y-223747366D02*
X20792223Y-223704860D01*
X21065022Y-223794009D02*
X20931550Y-223747366D01*
X21108649Y-223811046D02*
X21065022Y-223794009D01*
X21154637Y-223830487D02*
X21108649Y-223811046D01*
X21202079Y-223851930D02*
X21154637Y-223830487D01*
X21250085Y-223874987D02*
X21202079Y-223851930D01*
X21250085Y-223874988D02*
G75*
G02X21402408Y-223962179I-639105J-1293158D01*
G01*
X19850081Y-222347260D02*
X19852098Y-222357528D01*
X22870021Y-221015299D02*
G75*
G02X22869743Y-221016562I-3003J0D01*
G01*
X22861209Y-221034952D02*
X22869743Y-221016562D01*
X22851523Y-221055632D02*
X22861209Y-221034952D01*
X22840022Y-221079870D02*
X22851523Y-221055632D01*
X22828521Y-221104146D02*
X22840022Y-221079870D01*
X22818834Y-221124951D02*
X22828521Y-221104146D01*
X22810385Y-221143329D02*
X22818834Y-221124951D01*
X22810021Y-221144995D02*
G75*
G02X22810385Y-221143329I3995J0D01*
G01*
X22810021Y-221144995D02*
G75*
G02X22809292Y-221148297I-7840J0D01*
G01*
X22770677Y-221231421D02*
X22809292Y-221148297D01*
X22727758Y-221323339D02*
X22770677Y-221231421D01*
X22677442Y-221430277D02*
X22727758Y-221323339D01*
X22654537Y-221478174D02*
X22677442Y-221430277D01*
X22626801Y-221534980D02*
X22654537Y-221478174D01*
X22597730Y-221593998D02*
X22626801Y-221534980D01*
X22597731Y-221593997D02*
G75*
G02X22595022Y-221597777I-12801J6311D01*
G01*
X22593589Y-221599614D02*
G75*
G02X22595022Y-221597777I8150J-4881D01*
G01*
X22590177Y-221605418D02*
X22593588Y-221599615D01*
X22586238Y-221612435D02*
X22590177Y-221605418D01*
X22582041Y-221620277D02*
X22586238Y-221612435D01*
X22573008Y-221637116D02*
X22582041Y-221620277D01*
X22562309Y-221656309D02*
X22573008Y-221637116D01*
X22551117Y-221675799D02*
X22562309Y-221656309D01*
X22540563Y-221693576D02*
X22551117Y-221675799D01*
X22536359Y-221700601D02*
X22540563Y-221693576D01*
X22529895Y-221711546D02*
X22536359Y-221700601D01*
X22522630Y-221723921D02*
X22529895Y-221711546D01*
X22515538Y-221736076D02*
X22522630Y-221723921D01*
X22515539Y-221736076D02*
G75*
G02X22426513Y-221874537I-1594117J927112D01*
G01*
X22310765Y-222028716D02*
X22426513Y-221874537D01*
X22179379Y-222185115D02*
X22310765Y-222028716D01*
X22042561Y-222330767D02*
X22179379Y-222185115D01*
X22042561Y-222330767D02*
G75*
G02X21762462Y-222588051I-2992746J2977019D01*
G01*
X21452444Y-222826945D02*
X21762462Y-222588051D01*
X21096530Y-223058868D02*
X21452444Y-222826945D01*
X20677522Y-223295384D02*
X21096530Y-223058868D01*
X20657210Y-223306206D02*
X20677522Y-223295384D01*
X20633256Y-223319049D02*
X20657210Y-223306206D01*
X20609541Y-223331825D02*
X20633256Y-223319049D01*
X20590022Y-223342411D02*
X20609541Y-223331825D01*
X20572766Y-223351769D02*
X20590022Y-223342411D01*
X20556062Y-223360749D02*
X20572766Y-223351769D01*
X20541782Y-223368359D02*
X20556062Y-223360749D01*
X20534097Y-223372337D02*
X20541782Y-223368359D01*
X20517847Y-223382144D02*
G75*
G02X20534097Y-223372337I73169J-102870D01*
G01*
X20501467Y-223395234D02*
G75*
G02X20517847Y-223382145I125077J-139731D01*
G01*
X20488112Y-223408375D02*
G75*
G02X20501467Y-223395234I145858J-134885D01*
G01*
X20485021Y-223416267D02*
G75*
G02X20488111Y-223408375I11624J0D01*
G01*
X20485871Y-223419781D02*
G75*
G02X20485022Y-223416267I6849J3514D01*
G01*
X20488155Y-223421737D02*
G75*
G02X20485870Y-223419780I1247J3768D01*
G01*
X20492397Y-223422198D02*
G75*
G02X20488155Y-223421737I-1044J10127D01*
G01*
X20499641Y-223421103D02*
G75*
G02X20492398Y-223422199I-15184J75919D01*
G01*
X20518149Y-223415366D02*
G75*
G02X20499641Y-223421104I-36945J86448D01*
G01*
X20578992Y-223389023D02*
X20518149Y-223415366D01*
X20646972Y-223358528D02*
X20578992Y-223389023D01*
X20715022Y-223326643D02*
X20646972Y-223358528D01*
X20738044Y-223315656D02*
X20715022Y-223326643D01*
X20763850Y-223303400D02*
X20738044Y-223315656D01*
X20788478Y-223291750D02*
X20763850Y-223303400D01*
X20807522Y-223282798D02*
X20788478Y-223291750D01*
X20827497Y-223273393D02*
X20807522Y-223282798D01*
X20855600Y-223260054D02*
X20827497Y-223273393D01*
X20886247Y-223245444D02*
X20855600Y-223260054D01*
X20915022Y-223231661D02*
X20886247Y-223245444D01*
X20969936Y-223205361D02*
X20915022Y-223231661D01*
X21011702Y-223185535D02*
X20969936Y-223205361D01*
X21046707Y-223169148D02*
X21011702Y-223185535D01*
X21080022Y-223153816D02*
X21046707Y-223169148D01*
X21115354Y-223137574D02*
X21080022Y-223153816D01*
X21181774Y-223106749D02*
X21115354Y-223137574D01*
X21249694Y-223075132D02*
X21181774Y-223106749D01*
X21297522Y-223052733D02*
X21249694Y-223075132D01*
X21444502Y-222984657D02*
X21297522Y-223052733D01*
X21595333Y-222916903D02*
X21444502Y-222984657D01*
X21733653Y-222856658D02*
X21595333Y-222916903D01*
X21840022Y-222812680D02*
X21733653Y-222856658D01*
X21893337Y-222791611D02*
X21840022Y-222812680D01*
X21928135Y-222778359D02*
X21893337Y-222791611D01*
X21957932Y-222767769D02*
X21928135Y-222778359D01*
X21992522Y-222756289D02*
X21957932Y-222767769D01*
X22051620Y-222738467D02*
X21992522Y-222756289D01*
X22113071Y-222722384D02*
X22051620Y-222738467D01*
X22174574Y-222708597D02*
X22113071Y-222722384D01*
X22233822Y-222697669D02*
X22174574Y-222708597D01*
X22275789Y-222691782D02*
X22233822Y-222697669D01*
X22311324Y-222688975D02*
X22275789Y-222691782D01*
X22355896Y-222688261D02*
X22311324Y-222688975D01*
X22436322Y-222689370D02*
X22355896Y-222688261D01*
X22493234Y-222690735D02*
X22436322Y-222689370D01*
X22551607Y-222692737D02*
X22493234Y-222690735D01*
X22603546Y-222695032D02*
X22551607Y-222692737D01*
X22637522Y-222697267D02*
X22603546Y-222695032D01*
X22668287Y-222699702D02*
X22637522Y-222697267D01*
X22707662Y-222702627D02*
X22668287Y-222699702D01*
X22748691Y-222705545D02*
X22707662Y-222702627D01*
X22785022Y-222707990D02*
X22748691Y-222705545D01*
X22822057Y-222710418D02*
X22785022Y-222707990D01*
X22865318Y-222713293D02*
X22822057Y-222710418D01*
X22907867Y-222716150D02*
X22865318Y-222713293D01*
X22942522Y-222718510D02*
X22907867Y-222716150D01*
X22995145Y-222720680D02*
X22942522Y-222718510D01*
X23187897Y-222723130D02*
X22995145Y-222720680D01*
X23416132Y-222725346D02*
X23187897Y-222723130D01*
X23672522Y-222726997D02*
X23416132Y-222725346D01*
X24010194Y-222728974D02*
X23672522Y-222726997D01*
X24196598Y-222730953D02*
X24010194Y-222728974D01*
X24325267Y-222733028D02*
X24196598Y-222730953D01*
X24325267Y-222733028D02*
G75*
G02X24338772Y-222736729I-500J-28318D01*
G01*
X24338772Y-222736728D02*
G75*
G02X24347766Y-222745160I-13045J-22929D01*
G01*
X24347766Y-222745160D02*
G75*
G02X24350023Y-222755412I-12281J-8079D01*
G01*
X24350023Y-222755413D02*
G75*
G02X24344871Y-222765674I-18220J2725D01*
G01*
X24344870Y-222765673D02*
G75*
G02X24333207Y-222773943I-29662J29474D01*
G01*
X24333208Y-222773944D02*
G75*
G02X24315174Y-222781131I-63623J133418D01*
G01*
X24250776Y-222801805D02*
X24315174Y-222781131D01*
X24188093Y-222821392D02*
X24250776Y-222801805D01*
X24152522Y-222831377D02*
X24188093Y-222821392D01*
X24023171Y-222868169D02*
X24152522Y-222831377D01*
X23848786Y-222925203D02*
X24023171Y-222868169D01*
X23669767Y-222988251D02*
X23848786Y-222925203D01*
X23522522Y-223045274D02*
X23669767Y-222988251D01*
X23399199Y-223098078D02*
X23522522Y-223045274D01*
X23253927Y-223164591D02*
X23399199Y-223098078D01*
X23112600Y-223232490D02*
X23253927Y-223164591D01*
X23002522Y-223289199D02*
X23112600Y-223232490D01*
X22868504Y-223360433D02*
X23002522Y-223289199D01*
X22783440Y-223402696D02*
X22868504Y-223360433D01*
X22708987Y-223435131D02*
X22783440Y-223402696D01*
X22617522Y-223470178D02*
X22708987Y-223435131D01*
X22542423Y-223497307D02*
X22617522Y-223470178D01*
X22502851Y-223510723D02*
X22542423Y-223497307D01*
X22463400Y-223522598D02*
X22502851Y-223510723D01*
X22390022Y-223543034D02*
X22463400Y-223522598D01*
X22270804Y-223572545D02*
X22390022Y-223543034D01*
X22133620Y-223600279D02*
X22270804Y-223572545D01*
X21995884Y-223623156D02*
X22133620Y-223600279D01*
X21875022Y-223637838D02*
X21995884Y-223623156D01*
X21851013Y-223640138D02*
X21875022Y-223637838D01*
X21816506Y-223643487D02*
X21851013Y-223640138D01*
X21778547Y-223647195D02*
X21816506Y-223643487D01*
X21742522Y-223650739D02*
X21778547Y-223647195D01*
X21608935Y-223658145D02*
X21742522Y-223650739D01*
X21336190Y-223659806D02*
X21608935Y-223658145D01*
X21063070Y-223657895D02*
X21336190Y-223659806D01*
X20907522Y-223650622D02*
X21063070Y-223657895D01*
X20434700Y-223617876D02*
X20476901Y-223618134D01*
X20430021Y-223622584D02*
G75*
G02X20434700Y-223617876I4709J-1D01*
G01*
X20431145Y-223624719D02*
G75*
G02X20430022Y-223622585I1466J2134D01*
G01*
X20435529Y-223627293D02*
G75*
G02X20431144Y-223624719I15819J31971D01*
G01*
X19360636Y-221888155D02*
X19344341Y-221858062D01*
X19371221Y-221907777D02*
X19360636Y-221888155D01*
X20761249Y-222283226D02*
X20714982Y-222380277D01*
X20846807Y-222112328D02*
X20761249Y-222283226D01*
X20933548Y-221941636D02*
X20846807Y-222112328D01*
X20974269Y-221866527D02*
X20933548Y-221941636D01*
X20988678Y-221841366D02*
X20974269Y-221866527D01*
X20999929Y-221821636D02*
X20988678Y-221841366D01*
X21009609Y-221804555D02*
X20999929Y-221821636D01*
X21019048Y-221787777D02*
X21009609Y-221804555D01*
X21025983Y-221775624D02*
X21019048Y-221787777D01*
X21037590Y-221755731D02*
X21025983Y-221775624D01*
X21050976Y-221732985D02*
X21037590Y-221755731D01*
X21064458Y-221710277D02*
X21050976Y-221732985D01*
X21077575Y-221688268D02*
X21064458Y-221710277D01*
X21089864Y-221667624D02*
X21077575Y-221688268D01*
X21100197Y-221650243D02*
X21089864Y-221667624D01*
X21104889Y-221642307D02*
X21100197Y-221650243D01*
X21149259Y-221570233D02*
X21104889Y-221642307D01*
X21212393Y-221473837D02*
X21149259Y-221570233D01*
X21279939Y-221374271D02*
X21212393Y-221473837D01*
X21339543Y-221290277D02*
X21279939Y-221374271D01*
X21396819Y-221213641D02*
X21339543Y-221290277D01*
X21467177Y-221123061D02*
X21396819Y-221213641D01*
X21534639Y-221038542D02*
X21467177Y-221123061D01*
X21577847Y-220987777D02*
X21534639Y-221038542D01*
X22885064Y-220981889D02*
X22894416Y-220961958D01*
X22877187Y-220998945D02*
X22885064Y-220981889D01*
X22870294Y-221014044D02*
X22877187Y-220998945D01*
X22870022Y-221015299D02*
G75*
G02X22870294Y-221014044I3026J0D01*
G01*
X19325985Y-221824222D02*
X19308037Y-221791194D01*
X19344341Y-221858062D02*
X19325985Y-221824222D01*
X22162904Y-224882618D02*
G75*
G02X22162962Y-224890934I-10582J-4233D01*
G01*
X22162961Y-224890934D02*
G75*
G02X22160571Y-224893771I-5287J2029D01*
G01*
X22160571Y-224893771D02*
G75*
G02X22155675Y-224895933I-11328J19028D01*
G01*
X22155675Y-224895934D02*
G75*
G02X22148837Y-224897326I-10822J35655D01*
G01*
X22148838Y-224897325D02*
G75*
G02X22140414Y-224897777I-8424J78322D01*
G01*
X20643609Y-222541378D02*
X20635721Y-222560277D01*
X20670843Y-222479384D02*
X20643609Y-222541378D01*
X20697720Y-222418594D02*
X20670843Y-222479384D01*
X20714982Y-222380277D02*
X20697720Y-222418594D01*
X22140414Y-224897778D02*
G75*
G02X22125921Y-224896825I0J110737D01*
G01*
X22125921Y-224896825D02*
G75*
G02X22113016Y-224893965I9971J75534D01*
G01*
X22113016Y-224893965D02*
G75*
G02X22096281Y-224887761I53575J170197D01*
G01*
X22065022Y-224874046D02*
X22096281Y-224887761D01*
X22001838Y-224847762D02*
X22065022Y-224874046D01*
X21935736Y-224824319D02*
X22001838Y-224847762D01*
X21864120Y-224802862D02*
X21935736Y-224824319D01*
X21784294Y-224782548D02*
X21864120Y-224802862D01*
X21647606Y-224749292D02*
X21784294Y-224782548D01*
X19380128Y-221924323D02*
X19371221Y-221907777D01*
X19390235Y-221943074D02*
X19380128Y-221924323D01*
X20503305Y-222886243D02*
X20494490Y-222906661D01*
X20513179Y-222862378D02*
X20503305Y-222886243D01*
X20524497Y-222834151D02*
X20513179Y-222862378D01*
X20537768Y-222800277D02*
X20524497Y-222834151D01*
X20543655Y-222785324D02*
X20537768Y-222800277D01*
X20550109Y-222769333D02*
X20543655Y-222785324D01*
X20556173Y-222754627D02*
X20550109Y-222769333D01*
X21402408Y-223962178D02*
G75*
G02X21540509Y-224065987I-743206J-1132487D01*
G01*
X21540509Y-224065987D02*
G75*
G02X21658604Y-224181641I-808447J-943632D01*
G01*
X21658604Y-224181641D02*
G75*
G02X21751099Y-224304225I-691614J-618042D01*
G01*
X21843113Y-224447827D02*
X21751099Y-224304225D01*
X21908325Y-224544131D02*
X21843113Y-224447827D01*
X21969278Y-224626381D02*
X21908325Y-224544131D01*
X22044380Y-224720045D02*
X21969278Y-224626381D01*
X22087947Y-224772822D02*
X22044380Y-224720045D01*
X22101771Y-224789809D02*
X22087947Y-224772822D01*
X22112079Y-224803035D02*
X22101771Y-224789809D01*
X19884498Y-219270277D02*
X19870636Y-219320269D01*
X20560691Y-222744082D02*
X20556173Y-222754627D01*
X20564264Y-222735606D02*
X20560691Y-222744082D01*
X20567281Y-222727667D02*
X20564264Y-222735606D01*
X20569553Y-222720959D02*
X20567281Y-222727667D01*
X20570021Y-222717966D02*
G75*
G02X20569553Y-222720959I-9805J0D01*
G01*
X20570021Y-222717965D02*
G75*
G02X20570501Y-222714968I9600J-1D01*
G01*
X20572848Y-222708209D02*
X20570501Y-222714968D01*
X20575958Y-222700210D02*
X20572848Y-222708209D01*
X20579642Y-222691661D02*
X20575958Y-222700210D01*
X20593866Y-222659784D02*
X20579642Y-222691661D01*
X20602969Y-222638632D02*
X20593866Y-222659784D01*
X20609166Y-222623491D02*
X20602969Y-222638632D01*
X20610007Y-222619082D02*
G75*
G02X20609166Y-222623491I-11749J-43D01*
G01*
X20610007Y-222619082D02*
G75*
G02X20610459Y-222616632I6738J25D01*
G01*
X20613194Y-222609786D02*
X20610459Y-222616632D01*
X20616707Y-222601673D02*
X20613194Y-222609786D01*
X20620874Y-222592777D02*
X20616707Y-222601673D01*
X20625330Y-222583430D02*
X20620874Y-222592777D01*
X20629723Y-222573949D02*
X20625330Y-222583430D01*
X20633495Y-222565577D02*
X20629723Y-222573949D01*
X20635721Y-222560277D02*
X20633495Y-222565577D01*
X22127281Y-224823316D02*
X22112079Y-224803035D01*
X22143683Y-224846689D02*
X22127281Y-224823316D01*
X22143683Y-224846690D02*
G75*
G02X22155528Y-224866666I-194982J-129113D01*
G01*
X22155528Y-224866666D02*
G75*
G02X22162903Y-224882618I-148143J-78170D01*
G01*
X21587272Y-220977192D02*
X21577847Y-220987777D01*
X21607031Y-220954856D02*
X21587272Y-220977192D01*
X21630430Y-220928361D02*
X21607031Y-220954856D01*
X21655193Y-220900277D02*
X21630430Y-220928361D01*
X21763704Y-220783304D02*
X21655193Y-220900277D01*
X21896053Y-220652079D02*
X21763704Y-220783304D01*
X22027297Y-220530085D02*
X21896053Y-220652079D01*
X22130250Y-220444220D02*
X22027297Y-220530085D01*
X22217428Y-220378727D02*
X22130250Y-220444220D01*
X22296415Y-220323278D02*
X22217428Y-220378727D01*
X22398457Y-220256351D02*
X22296415Y-220323278D01*
X22577522Y-220142769D02*
X22398457Y-220256351D01*
X22639629Y-220103344D02*
X22577522Y-220142769D01*
X22706365Y-220060469D02*
X22639629Y-220103344D01*
X22767965Y-220020471D02*
X22706365Y-220060469D01*
X22812522Y-219990991D02*
X22767965Y-220020471D01*
X22947222Y-219899298D02*
X22812522Y-219990991D01*
X23070866Y-219812251D02*
X22947222Y-219899298D01*
X23218690Y-219704774D02*
X23070866Y-219812251D01*
X23440022Y-219540957D02*
X23218690Y-219704774D01*
X23483928Y-219508350D02*
X23440022Y-219540957D01*
X23526959Y-219476446D02*
X23483928Y-219508350D01*
X23564011Y-219449020D02*
X23526959Y-219476446D01*
X23585022Y-219433543D02*
X23564011Y-219449020D01*
X23601209Y-219421646D02*
X23585022Y-219433543D01*
X23618850Y-219408643D02*
X23601209Y-219421646D01*
X23635320Y-219396471D02*
X23618850Y-219408643D01*
X23647522Y-219387414D02*
X23635320Y-219396471D01*
X23687477Y-219359270D02*
X23647522Y-219387414D01*
X23742952Y-219323208D02*
X23687477Y-219359270D01*
X23799438Y-219287759D02*
X23742952Y-219323208D01*
X23799438Y-219287760D02*
G75*
G02X23814761Y-219281269I28471J-45884D01*
G01*
X23814761Y-219281268D02*
G75*
G02X23827504Y-219279947I10974J-43717D01*
G01*
X23827504Y-219279947D02*
G75*
G02X23834070Y-219284069I-305J-7776D01*
G01*
X23834070Y-219284070D02*
G75*
G02X23834527Y-219292656I-8997J-4784D01*
G01*
X23834527Y-219292655D02*
G75*
G02X23827667Y-219305539I-63438J25510D01*
G01*
X23815329Y-219322507D02*
X23827667Y-219305539D01*
X23795976Y-219346851D02*
X23815329Y-219322507D01*
X23776429Y-219370518D02*
X23795976Y-219346851D01*
X23776429Y-219370517D02*
G75*
G02X23766963Y-219380277I-72727J61071D01*
G01*
X23749895Y-219398072D02*
G75*
G02X23766963Y-219380277I123500J-101373D01*
G01*
X23695948Y-219464257D02*
X23749895Y-219398072D01*
X23641922Y-219531904D02*
X23695948Y-219464257D01*
X23601038Y-219585277D02*
X23641922Y-219531904D01*
X23524034Y-219693698D02*
X23601038Y-219585277D01*
X23463980Y-219789678D02*
X23524034Y-219693698D01*
X23398409Y-219910452D02*
X23463980Y-219789678D01*
X23295463Y-220115277D02*
X23398409Y-219910452D01*
X23262314Y-220182396D02*
X23295463Y-220115277D01*
X23232337Y-220243418D02*
X23262314Y-220182396D01*
X23207300Y-220294652D02*
X23232337Y-220243418D01*
X23198740Y-220312777D02*
X23207300Y-220294652D01*
X23183870Y-220344997D02*
X23198740Y-220312777D01*
X23148656Y-220420485D02*
X23183870Y-220344997D01*
X23113434Y-220495815D02*
X23148656Y-220420485D01*
X23092505Y-220540277D02*
X23113434Y-220495815D01*
X23086270Y-220553483D02*
X23092505Y-220540277D01*
X23076572Y-220574090D02*
X23086270Y-220553483D01*
X23065623Y-220597387D02*
X23076572Y-220574090D01*
X23054881Y-220620277D02*
X23065623Y-220597387D01*
X23002656Y-220731614D02*
X23054881Y-220620277D01*
X22955466Y-220832138D02*
X23002656Y-220731614D01*
X22916565Y-220914935D02*
X22955466Y-220832138D01*
X22894416Y-220961958D02*
X22916565Y-220914935D01*
X19706089Y-220270173D02*
X19700432Y-220347777D01*
X19741414Y-219934273D02*
X19739359Y-219951746D01*
X19749812Y-221775277D02*
X19752112Y-221791881D01*
X17470022Y-223404199D02*
X17535345Y-223431444D01*
X17422193Y-223382386D02*
X17470022Y-223404199D01*
X17346008Y-223345116D02*
X17422193Y-223382386D01*
X17263874Y-223304229D02*
X17346008Y-223345116D01*
X18208715Y-222667712D02*
G75*
G02X18287077Y-222677867I-68767J-838110D01*
G01*
X18384167Y-222697547D02*
X18287077Y-222677867D01*
X18488541Y-222723880D02*
X18384167Y-222697547D01*
X18590022Y-222754629D02*
X18488541Y-222723880D01*
X18661345Y-222778648D02*
X18590022Y-222754629D01*
X18712918Y-222797344D02*
X18661345Y-222778648D01*
X18764767Y-222818060D02*
X18712918Y-222797344D01*
X18837522Y-222848978D02*
X18764767Y-222818060D01*
X18886095Y-222871297D02*
X18837522Y-222848978D01*
X18972054Y-222913707D02*
X18886095Y-222871297D01*
X19057800Y-222957003D02*
X18972054Y-222913707D01*
X19107522Y-222983724D02*
X19057800Y-222957003D01*
X19124485Y-222993290D02*
X19107522Y-222983724D01*
X19142381Y-223003359D02*
X19124485Y-222993290D01*
X19158665Y-223012503D02*
X19142381Y-223003359D01*
X19170022Y-223018855D02*
X19158665Y-223012503D01*
X19217579Y-223046350D02*
X19170022Y-223018855D01*
X19279264Y-223083880D02*
X19217579Y-223046350D01*
X19344127Y-223124579D02*
X19279264Y-223083880D01*
X19402522Y-223162529D02*
X19344127Y-223124579D01*
X19519621Y-223239782D02*
X19402522Y-223162529D01*
X19534217Y-223242895D02*
G75*
G02X19519621Y-223239782I-3296J20324D01*
G01*
X19535880Y-223236626D02*
G75*
G02X19534217Y-223242894I-2231J-2763D01*
G01*
X19436635Y-223156997D02*
X19535879Y-223236626D01*
X19326355Y-223068615D02*
X19436635Y-223156997D01*
X19205655Y-222971064D02*
X19326355Y-223068615D01*
X19096190Y-222882022D02*
X19205655Y-222971064D01*
X19047522Y-222841366D02*
X19096190Y-222882022D01*
X18810218Y-222628564D02*
X19047522Y-222841366D01*
X18581976Y-222403889D02*
X18810218Y-222628564D01*
X18376302Y-222181368D02*
X18581976Y-222403889D01*
X18207522Y-221975413D02*
X18376302Y-222181368D01*
X18197035Y-221961730D02*
X18207522Y-221975413D01*
X18180933Y-221940881D02*
X18197035Y-221961730D01*
X18162804Y-221917489D02*
X18180933Y-221940881D01*
X18145094Y-221894720D02*
X18162804Y-221917489D01*
X18100771Y-221836679D02*
X18145094Y-221894720D01*
X18048022Y-221765362D02*
X18100771Y-221836679D01*
X17993294Y-221689659D02*
X18048022Y-221765362D01*
X17942611Y-221617777D02*
X17993294Y-221689659D01*
X17865794Y-221505183D02*
X17942611Y-221617777D01*
X17753314Y-221336047D02*
X17865794Y-221505183D01*
X17642960Y-221168079D02*
X17753314Y-221336047D01*
X17577810Y-221065811D02*
X17642960Y-221168079D01*
X17562852Y-221041839D02*
X17577810Y-221065811D01*
X17543501Y-221011028D02*
X17562852Y-221041839D01*
X17523210Y-220978853D02*
X17543501Y-221011028D01*
X17505098Y-220950277D02*
X17523210Y-220978853D01*
X17482466Y-220914465D02*
X17505098Y-220950277D01*
X17444344Y-220853699D02*
X17482466Y-220914465D01*
X17400478Y-220783586D02*
X17444344Y-220853699D01*
X17356299Y-220712777D02*
X17400478Y-220783586D01*
X17313762Y-220644522D02*
X17356299Y-220712777D01*
X17274866Y-220582137D02*
X17313762Y-220644522D01*
X17242249Y-220529846D02*
X17274866Y-220582137D01*
X17230010Y-220510277D02*
X17242249Y-220529846D01*
X17187630Y-220441590D02*
X17230010Y-220510277D01*
X17117790Y-220326106D02*
X17187630Y-220441590D01*
X17047729Y-220209490D02*
X17117790Y-220326106D01*
X17022165Y-220165277D02*
X17047729Y-220209490D01*
X17019328Y-220160248D02*
X17022165Y-220165277D01*
X17015217Y-220153074D02*
X17019328Y-220160248D01*
X17010674Y-220145211D02*
X17015217Y-220153074D01*
X17006342Y-220137777D02*
X17010674Y-220145211D01*
X16977044Y-220087083D02*
X17006342Y-220137777D01*
X16918968Y-219985057D02*
X16977044Y-220087083D01*
X16860346Y-219881702D02*
X16918968Y-219985057D01*
X16838754Y-219842777D02*
X16860346Y-219881702D01*
X16829351Y-219825536D02*
X16838754Y-219842777D01*
X16817835Y-219804543D02*
X16829351Y-219825536D01*
X16806140Y-219783314D02*
X16817835Y-219804543D01*
X16796150Y-219765277D02*
X16806140Y-219783314D01*
X16767394Y-219710797D02*
X16796150Y-219765277D01*
X16712647Y-219600518D02*
X16767394Y-219710797D01*
X16652078Y-219477345D02*
X16712647Y-219600518D01*
X16652079Y-219477345D02*
G75*
G02X16650022Y-219468491I18028J8854D01*
G01*
X16649530Y-219465636D02*
G75*
G02X16650022Y-219468491I-8045J-2855D01*
G01*
X16647209Y-219459477D02*
X16649530Y-219465636D01*
X16644113Y-219452210D02*
X16647209Y-219459477D01*
X16640446Y-219444500D02*
X16644113Y-219452210D01*
X16640446Y-219444500D02*
G75*
G02X16625567Y-219410779I353949J176315D01*
G01*
X16612376Y-219372674D02*
X16625567Y-219410779D01*
X16602797Y-219337022D02*
X16612376Y-219372674D01*
X16602798Y-219337021D02*
G75*
G02X16600022Y-219312709I105091J24312D01*
G01*
X16600022Y-219312709D02*
G75*
G02X16602313Y-219301889I26694J0D01*
G01*
X16602313Y-219301889D02*
G75*
G02X16608734Y-219293767I19006J-8428D01*
G01*
X16608734Y-219293767D02*
G75*
G02X16618045Y-219289963I11741J-15439D01*
G01*
X16618045Y-219289963D02*
G75*
G02X16628409Y-219291121I2783J-22042D01*
G01*
X19549378Y-223249505D02*
G75*
G02X19557816Y-223255118I-42084J-72409D01*
G01*
X19543690Y-223248010D02*
G75*
G02X19549378Y-223249505I137J-11046D01*
G01*
X19542163Y-223250169D02*
G75*
G02X19543690Y-223248010I1547J525D01*
G01*
X19545021Y-223255277D02*
G75*
G02X19542163Y-223250169I12406J10295D01*
G01*
X19548004Y-223258135D02*
G75*
G02X19545022Y-223255277I10995J14458D01*
G01*
X19551808Y-223260528D02*
G75*
G02X19548004Y-223258136I11528J22553D01*
G01*
X19555813Y-223262133D02*
G75*
G02X19551808Y-223260528I6762J22671D01*
G01*
X19559384Y-223262619D02*
G75*
G02X19555813Y-223262133I-229J11691D01*
G01*
X19563439Y-223262263D02*
G75*
G02X19559384Y-223262618I-4642J29680D01*
G01*
X19564221Y-223261131D02*
G75*
G02X19563438Y-223262263I-929J-194D01*
G01*
X19563100Y-223259282D02*
G75*
G02X19564221Y-223261131I-2062J-2515D01*
G01*
X19557816Y-223255118D02*
X19563100Y-223259282D01*
X20332574Y-217069496D02*
G75*
G02X20341771Y-217060571I24520J-16067D01*
G01*
X20341771Y-217060571D02*
G75*
G02X20352879Y-217057745I10107J-16484D01*
G01*
X20352879Y-217057745D02*
G75*
G02X20363607Y-217061707I-996J-19203D01*
G01*
X20363606Y-217061707D02*
G75*
G02X20371759Y-217071527I-17650J-22947D01*
G01*
X20371760Y-217071527D02*
G75*
G02X20383695Y-217104885I-124673J-63421D01*
G01*
X20399153Y-217180779D02*
X20383695Y-217104885D01*
X20416249Y-217280893D02*
X20399153Y-217180779D01*
X20434771Y-217407777D02*
X20416249Y-217280893D01*
X20439195Y-217439649D02*
X20434771Y-217407777D01*
X20443664Y-217471324D02*
X20439195Y-217439649D01*
X20447609Y-217498853D02*
X20443664Y-217471324D01*
X20450058Y-217515277D02*
X20447609Y-217498853D01*
X20452198Y-217529274D02*
X20450058Y-217515277D01*
X20454846Y-217546746D02*
X20452198Y-217529274D01*
X20457550Y-217564693D02*
X20454846Y-217546746D01*
X20459879Y-217580277D02*
X20457550Y-217564693D01*
X20500474Y-217845675D02*
X20459879Y-217580277D01*
X20532146Y-218033530D02*
X20500474Y-217845675D01*
X20562899Y-218191341D02*
X20532146Y-218033530D01*
X20599454Y-218355379D02*
X20562899Y-218191341D01*
X20624492Y-218458731D02*
X20599454Y-218355379D01*
X20656786Y-218586990D02*
X20624492Y-218458731D01*
X20688947Y-218712230D02*
X20656786Y-218586990D01*
X20699546Y-218747777D02*
X20688947Y-218712230D01*
X20701577Y-218754390D02*
X20699546Y-218747777D01*
X20704324Y-218764684D02*
X20701577Y-218754390D01*
X20707226Y-218776332D02*
X20704324Y-218764684D01*
X20709866Y-218787777D02*
X20707226Y-218776332D01*
X20712509Y-218799406D02*
X20709866Y-218787777D01*
X20715418Y-218811606D02*
X20712509Y-218799406D01*
X20718167Y-218822654D02*
X20715418Y-218811606D01*
X20720219Y-218830277D02*
X20718167Y-218822654D01*
X20741211Y-218911306D02*
X20720219Y-218830277D01*
X20770319Y-219039530D02*
X20741211Y-218911306D01*
X20797583Y-219167148D02*
X20770319Y-219039530D01*
X20810471Y-219240277D02*
X20797583Y-219167148D01*
X20812659Y-219254272D02*
X20810471Y-219240277D01*
X20815675Y-219271746D02*
X20812659Y-219254272D01*
X20818972Y-219289692D02*
X20815675Y-219271746D01*
X20822053Y-219305277D02*
X20818972Y-219289692D01*
X20833969Y-219371401D02*
X20822053Y-219305277D01*
X20848521Y-219470705D02*
X20833969Y-219371401D01*
X20863047Y-219582002D02*
X20848521Y-219470705D01*
X20875375Y-219690277D02*
X20863047Y-219582002D01*
X20883692Y-219777355D02*
X20875375Y-219690277D01*
X20891238Y-219873355D02*
X20883692Y-219777355D01*
X20899412Y-219996795D02*
X20891238Y-219873355D01*
X20909993Y-220175277D02*
X20899412Y-219996795D01*
X20914428Y-220311801D02*
X20909993Y-220175277D01*
X20913207Y-220473699D02*
X20914428Y-220311801D01*
D13*
X20906205Y-220680188D02*
X20913207Y-220473699D01*
X20892243Y-220960277D02*
X20906205Y-220680188D01*
D12*
X20888309Y-221013260D02*
X20892243Y-220960277D01*
X20879073Y-221107488D02*
X20888309Y-221013260D01*
X20868702Y-221204897D02*
X20879073Y-221107488D01*
X20859856Y-221277777D02*
X20868702Y-221204897D01*
X20857613Y-221295020D02*
X20859856Y-221277777D01*
X20854937Y-221316012D02*
X20857613Y-221295020D01*
X20852271Y-221337241D02*
X20854937Y-221316012D01*
X20850050Y-221355277D02*
X20852271Y-221337241D01*
X20847806Y-221372962D02*
X20850050Y-221355277D01*
X20845075Y-221393074D02*
X20847806Y-221372962D01*
X20842299Y-221412476D02*
X20845075Y-221393074D01*
X20839942Y-221427777D02*
X20842299Y-221412476D01*
X20837622Y-221442744D02*
X20839942Y-221427777D01*
X20834972Y-221461012D02*
X20837622Y-221442744D01*
X20832418Y-221479518D02*
X20834972Y-221461012D01*
X20830389Y-221495277D02*
X20832418Y-221479518D01*
X20811335Y-221617675D02*
X20830389Y-221495277D01*
X20771650Y-221819623D02*
X20811335Y-221617675D01*
X20728766Y-222021371D02*
X20771650Y-221819623D01*
X20697485Y-222145277D02*
X20728766Y-222021371D01*
X20694512Y-222155948D02*
X20697485Y-222145277D01*
X20691467Y-222167340D02*
X20694512Y-222155948D01*
X20688776Y-222177807D02*
X20691467Y-222167340D01*
X20686995Y-222185277D02*
X20688776Y-222177807D01*
X20677390Y-222223770D02*
X20686995Y-222185277D01*
X20647648Y-222331388D02*
X20677390Y-222223770D01*
X20617938Y-222437284D02*
X20647648Y-222331388D01*
X20600778Y-222495277D02*
X20617938Y-222437284D01*
X20596460Y-222509274D02*
X20600778Y-222495277D01*
X20591080Y-222526746D02*
X20596460Y-222509274D01*
X20585561Y-222544693D02*
X20591080Y-222526746D01*
X20580776Y-222560277D02*
X20585561Y-222544693D01*
X20563681Y-222614093D02*
X20580776Y-222560277D01*
X20532504Y-222708295D02*
X20563681Y-222614093D01*
X20499871Y-222805470D02*
X20532504Y-222708295D01*
X20474966Y-222877777D02*
X20499871Y-222805470D01*
X20464918Y-222906638D02*
X20474966Y-222877777D01*
X20455745Y-222933387D02*
X20464918Y-222906638D01*
X20448156Y-222955862D02*
X20455745Y-222933387D01*
X20445217Y-222965277D02*
X20448156Y-222955862D01*
X20442515Y-222974002D02*
X20445217Y-222965277D01*
X20436887Y-222990861D02*
X20442515Y-222974002D01*
X20430133Y-223010670D02*
X20436887Y-222990861D01*
X20422951Y-223031307D02*
X20430133Y-223010670D01*
X20405426Y-223084707D02*
X20422951Y-223031307D01*
X20405298Y-223104677D02*
G75*
G02X20405426Y-223084707I33535J9771D01*
G01*
X20412456Y-223105327D02*
G75*
G02X20405299Y-223104677I-3451J1730D01*
G01*
X20432120Y-223062777D02*
X20412455Y-223105327D01*
X20438098Y-223048783D02*
X20432120Y-223062777D01*
X20444664Y-223033598D02*
X20438098Y-223048783D01*
X20450839Y-223019472D02*
X20444664Y-223033598D01*
X20455464Y-223009082D02*
X20450839Y-223019472D01*
X20459124Y-223000664D02*
X20455464Y-223009082D01*
X20462214Y-222992904D02*
X20459124Y-223000664D01*
X20464584Y-222986362D02*
X20462214Y-222992904D01*
X20465021Y-222983771D02*
G75*
G02X20464584Y-222986362I-7897J0D01*
G01*
X20465021Y-222983771D02*
G75*
G02X20465482Y-222981197I7424J0D01*
G01*
X20467959Y-222974785D02*
X20465482Y-222981197D01*
X20471191Y-222967186D02*
X20467959Y-222974785D01*
X20475022Y-222958958D02*
X20471191Y-222967186D01*
X20478851Y-222950659D02*
X20475022Y-222958958D01*
X20482084Y-222942840D02*
X20478851Y-222950659D01*
X20484508Y-222936216D02*
X20482084Y-222942840D01*
X20485021Y-222933153D02*
G75*
G02X20484508Y-222936216I-9398J0D01*
G01*
X20485022Y-222933153D02*
G75*
G02X20485503Y-222930064I10154J0D01*
G01*
X20487803Y-222923264D02*
X20485503Y-222930064D01*
X20490864Y-222915223D02*
X20487803Y-222923264D01*
X20494490Y-222906661D02*
X20490864Y-222915223D01*
X19264682Y-221708855D02*
X19260103Y-221700347D01*
X19264682Y-221708855D02*
G75*
G02X19265022Y-221710212I-2538J-1357D01*
G01*
X19254695Y-221690555D02*
X19248277Y-221679295D01*
X19260103Y-221700347D02*
X19254695Y-221690555D01*
X17263874Y-223304228D02*
G75*
G02X17255022Y-223297537I13556J27135D01*
G01*
X17253092Y-223295897D02*
G75*
G02X17255022Y-223297537I-5453J-8377D01*
G01*
X17245912Y-223291285D02*
X17253091Y-223295898D01*
X17237281Y-223285930D02*
X17245912Y-223291285D01*
X17227522Y-223280101D02*
X17237281Y-223285930D01*
X17217356Y-223274103D02*
X17227522Y-223280101D01*
X17207487Y-223268234D02*
X17217356Y-223274103D01*
X17199047Y-223263177D02*
X17207487Y-223268234D01*
X17194424Y-223260341D02*
X17199047Y-223263177D01*
X17190259Y-223257797D02*
X17194424Y-223260341D01*
X17184094Y-223254150D02*
X17190259Y-223257797D01*
X17177233Y-223250155D02*
X17184094Y-223254150D01*
X17170629Y-223246375D02*
X17177233Y-223250155D01*
X17170629Y-223246375D02*
G75*
G02X17160474Y-223239975I63669J112281D01*
G01*
X17132016Y-223220005D02*
X17160474Y-223239975D01*
X17098261Y-223195940D02*
X17132016Y-223220005D01*
X17061226Y-223169103D02*
X17098261Y-223195940D01*
X16883114Y-223046773D02*
X17061226Y-223169103D01*
X16736099Y-222963678D02*
G75*
G02X16883114Y-223046773I-631554J-1288984D01*
G01*
X16576951Y-222896610D02*
G75*
G02X16736098Y-222963679I-510715J-1434241D01*
G01*
X16358826Y-222824954D02*
X16576951Y-222896611D01*
X16326926Y-222815042D02*
X16358826Y-222824954D01*
X16326927Y-222815042D02*
G75*
G02X16316329Y-222810106I14167J44263D01*
G01*
X16316329Y-222810106D02*
G75*
G02X16311681Y-222804159I5938J9430D01*
G01*
X16311681Y-222804159D02*
G75*
G02X16310076Y-222794254I30438J10015D01*
G01*
X16310076Y-222794254D02*
G75*
G02X16310628Y-222785206I70514J241D01*
G01*
X21535632Y-224719595D02*
X21647606Y-224749292D01*
X21448054Y-224693690D02*
X21535632Y-224719595D01*
X21448055Y-224693690D02*
G75*
G02X21392522Y-224673101I169046J541143D01*
G01*
X21387486Y-224671027D02*
X21392522Y-224673101D01*
X21380318Y-224668265D02*
X21387486Y-224671027D01*
X21372455Y-224665344D02*
X21380318Y-224668265D01*
X21365022Y-224662696D02*
X21372455Y-224665344D01*
X21357177Y-224659863D02*
X21365022Y-224662696D01*
X21348034Y-224656363D02*
X21357177Y-224659863D01*
X21339059Y-224652778D02*
X21348034Y-224656363D01*
X21331766Y-224649691D02*
X21339059Y-224652778D01*
X21325511Y-224647043D02*
X21331766Y-224649691D01*
X21319752Y-224644808D02*
X21325511Y-224647043D01*
X21314899Y-224643092D02*
X21319752Y-224644808D01*
X21312993Y-224642777D02*
G75*
G02X21314899Y-224643092I0J-5933D01*
G01*
X21312993Y-224642778D02*
G75*
G02X21309189Y-224642029I0J10037D01*
G01*
X21214667Y-224603305D02*
X21309189Y-224642029D01*
X21131032Y-224568860D02*
X21214667Y-224603305D01*
X21085022Y-224549343D02*
X21131032Y-224568860D01*
X21034226Y-224526283D02*
X21085022Y-224549343D01*
X20964035Y-224492512D02*
X21034226Y-224526283D01*
X20896005Y-224458811D02*
X20964035Y-224492512D01*
X20860022Y-224439386D02*
X20896005Y-224458811D01*
X20834250Y-224424488D02*
X20860022Y-224439386D01*
X20815712Y-224413819D02*
X20834250Y-224424488D01*
X20802040Y-224406010D02*
X20815712Y-224413819D01*
X20792522Y-224400665D02*
X20802040Y-224406010D01*
X20752423Y-224376144D02*
X20792522Y-224400665D01*
X20702352Y-224341071D02*
X20752423Y-224376144D01*
X20649465Y-224300893D02*
X20702352Y-224341071D01*
X20600022Y-224260105D02*
X20649465Y-224300893D01*
X20600022Y-224260106D02*
G75*
G02X20520238Y-224183873I695822J808099D01*
G01*
X20520238Y-224183873D02*
G75*
G02X20448595Y-224099661I781638J737557D01*
G01*
X20448596Y-224099661D02*
G75*
G02X20385002Y-224007259I878955J673003D01*
G01*
X20385001Y-224007258D02*
G75*
G02X20329292Y-223906527I1044989J643704D01*
G01*
X20316672Y-223882136D02*
X20329292Y-223906527D01*
X20308836Y-223871479D02*
G75*
G02X20316672Y-223882136I-34612J-33661D01*
G01*
X20302757Y-223869559D02*
G75*
G02X20308835Y-223871478I1254J-6611D01*
G01*
X20297112Y-223873439D02*
G75*
G02X20302758Y-223869558I7228J-4468D01*
G01*
X20295653Y-223878424D02*
G75*
G02X20297112Y-223873440I9773J-154D01*
G01*
X20293420Y-224021549D02*
X20295654Y-223878424D01*
X20291301Y-224181187D02*
X20293420Y-224021549D01*
X20289456Y-224369690D02*
X20291301Y-224181187D01*
X20287665Y-224558576D02*
X20289456Y-224369690D01*
X20285717Y-224719472D02*
X20287665Y-224558576D01*
X20283721Y-224862425D02*
X20285717Y-224719472D01*
X20283721Y-224862424D02*
G75*
G02X20282565Y-224871527I-41009J581D01*
G01*
X20282565Y-224871527D02*
G75*
G02X20281012Y-224875830I-20606J5007D01*
G01*
X20281011Y-224875830D02*
G75*
G02X20278627Y-224879473I-15676J7660D01*
G01*
X20278628Y-224879473D02*
G75*
G02X20275815Y-224881944I-9855J8380D01*
G01*
X20275814Y-224881943D02*
G75*
G02X20272998Y-224882777I-2816J4339D01*
G01*
X20272998Y-224882778D02*
G75*
G02X20268527Y-224881046I0J6637D01*
G01*
X20245478Y-224859837D02*
X20268527Y-224881046D01*
X20219013Y-224834616D02*
X20245478Y-224859837D01*
X20188906Y-224804683D02*
X20219013Y-224834616D01*
X20111648Y-224726588D02*
X20188906Y-224804683D01*
X20108335Y-224426359D02*
X20111648Y-224726588D01*
X20107066Y-224301023D02*
X20108335Y-224426359D01*
X20105995Y-224172704D02*
X20107066Y-224301023D01*
X20105237Y-224058674D02*
X20105995Y-224172704D01*
X20105022Y-223984454D02*
X20105237Y-224058674D01*
X20104720Y-223923849D02*
X20105022Y-223984454D01*
X20103728Y-223879717D02*
X20104720Y-223923849D01*
X20102369Y-223844990D02*
X20103728Y-223879717D01*
X20100060Y-223842777D02*
G75*
G02X20102369Y-223844990I-1J-2312D01*
G01*
X20097054Y-223844088D02*
G75*
G02X20100059Y-223842777I3005J-2787D01*
G01*
X20086630Y-223855560D02*
X20097055Y-223844089D01*
X20074618Y-223869615D02*
X20086630Y-223855560D01*
X20061309Y-223886292D02*
X20074618Y-223869615D01*
X19969679Y-223996929D02*
X20061309Y-223886292D01*
X19871336Y-224101497D02*
X19969679Y-223996929D01*
X19772618Y-224193723D02*
X19871336Y-224101497D01*
X19772618Y-224193723D02*
G75*
G02X19680022Y-224266907I-785138J898227D01*
G01*
X19543872Y-224357727D02*
X19680022Y-224266907D01*
X19410543Y-224434003D02*
X19543872Y-224357727D01*
X19270115Y-224500989D02*
X19410543Y-224434003D01*
X19112522Y-224563854D02*
X19270115Y-224500989D01*
X19056592Y-224583017D02*
X19112522Y-224563854D01*
X18964001Y-224612067D02*
X19056592Y-224583017D01*
X18870530Y-224640489D02*
X18964001Y-224612067D01*
X18870531Y-224640489D02*
G75*
G02X18835022Y-224649348I-111894J372905D01*
G01*
X18825788Y-224651427D02*
X18835022Y-224649348D01*
X18776256Y-224663853D02*
X18825788Y-224651427D01*
X18718574Y-224678414D02*
X18776256Y-224663853D01*
X18652522Y-224695214D02*
X18718574Y-224678414D01*
X18585223Y-224712309D02*
X18652522Y-224695214D01*
X18523647Y-224727802D02*
X18585223Y-224712309D01*
X18472000Y-224740673D02*
X18523647Y-224727802D01*
X18452522Y-224745258D02*
X18472000Y-224740673D01*
X18439392Y-224748201D02*
X18452522Y-224745258D01*
X18424725Y-224751527D02*
X18439392Y-224748201D01*
X18410765Y-224754724D02*
X18424725Y-224751527D01*
X18400022Y-224757222D02*
X18410765Y-224754724D01*
X18376495Y-224762411D02*
X18400022Y-224757222D01*
X18319890Y-224774006D02*
X18376495Y-224762411D01*
X18256655Y-224786751D02*
X18319890Y-224774006D01*
X18196570Y-224798613D02*
X18256655Y-224786751D01*
X18180754Y-224801291D02*
X18196570Y-224798613D01*
X18180754Y-224801291D02*
G75*
G02X18169488Y-224802124I-11660J81132D01*
G01*
X18169487Y-224802124D02*
G75*
G02X18160662Y-224801315I-221J46104D01*
G01*
X18160662Y-224801315D02*
G75*
G02X18152820Y-224798823I6419J33790D01*
G01*
X18152820Y-224798822D02*
G75*
G02X18143799Y-224785506I6402J14050D01*
G01*
X18143799Y-224785506D02*
G75*
G02X18149252Y-224766313I31269J1487D01*
G01*
X18149252Y-224766313D02*
G75*
G02X18177331Y-224731110I257590J-176662D01*
G01*
X18259998Y-224642550D02*
X18177331Y-224731110D01*
X18297172Y-224603045D02*
X18259998Y-224642550D01*
X18336499Y-224561019D02*
X18297172Y-224603045D01*
X18372351Y-224522510D02*
X18336499Y-224561019D01*
X18397522Y-224495213D02*
X18372351Y-224522510D01*
X18440178Y-224449392D02*
X18397522Y-224495213D01*
X18476361Y-224412256D02*
X18440178Y-224449392D01*
X18513224Y-224376564D02*
X18476361Y-224412256D01*
X18557926Y-224335277D02*
X18513224Y-224376564D01*
X18577115Y-224317823D02*
X18557926Y-224335277D01*
X18593687Y-224302653D02*
X18577115Y-224317823D01*
X18608008Y-224289477D02*
X18593687Y-224302653D01*
X18610021Y-224287406D02*
G75*
G02X18608008Y-224289477I-19819J17259D01*
G01*
X18610021Y-224287407D02*
G75*
G02X18612103Y-224285349I14795J-12883D01*
G01*
X18630147Y-224270015D02*
X18612103Y-224285349D01*
X18650885Y-224252487D02*
X18630147Y-224270015D01*
X18675022Y-224232231D02*
X18650885Y-224252487D01*
X18780470Y-224147248D02*
X18675022Y-224232231D01*
X18880076Y-224073754D02*
X18780470Y-224147248D01*
X18980113Y-224007287D02*
X18880076Y-224073754D01*
X19086795Y-223943515D02*
X18980113Y-224007287D01*
X19120714Y-223925268D02*
X19086795Y-223943515D01*
X19176262Y-223897389D02*
X19120714Y-223925268D01*
X19232493Y-223869994D02*
X19176262Y-223897389D01*
X19270022Y-223852890D02*
X19232493Y-223869994D01*
X19309757Y-223835775D02*
X19270022Y-223852890D01*
X19329737Y-223827382D02*
X19309757Y-223835775D01*
X19345779Y-223821025D02*
X19329737Y-223827382D01*
X19366272Y-223813347D02*
X19345779Y-223821025D01*
X19379186Y-223808599D02*
X19366272Y-223813347D01*
X19394287Y-223803046D02*
X19379186Y-223808599D01*
X19409151Y-223797580D02*
X19394287Y-223803046D01*
X19421272Y-223793122D02*
X19409151Y-223797580D01*
X19456104Y-223781114D02*
X19421272Y-223793122D01*
X19513274Y-223763030D02*
X19456104Y-223781114D01*
X19570340Y-223745577D02*
X19513274Y-223763030D01*
X19597522Y-223738372D02*
X19570340Y-223745577D01*
X19653341Y-223724277D02*
X19597522Y-223738372D01*
X19718904Y-223705292D02*
X19653341Y-223724277D01*
X19780034Y-223686296D02*
X19718904Y-223705292D01*
X19779691Y-223683050D02*
G75*
G02X19780034Y-223686296I-161J-1658D01*
G01*
X19777681Y-223683099D02*
G75*
G02X19779690Y-223683051I1204J-8298D01*
G01*
X19769709Y-223684287D02*
X19777681Y-223683099D01*
X19760305Y-223685799D02*
X19769709Y-223684287D01*
X19749690Y-223687644D02*
X19760305Y-223685799D01*
X19724754Y-223691359D02*
X19749690Y-223687644D01*
X19680359Y-223696376D02*
X19724754Y-223691359D01*
X19615074Y-223703070D02*
X19680359Y-223696376D01*
X19513645Y-223712894D02*
X19615074Y-223703070D01*
X19485352Y-223715035D02*
X19513645Y-223712894D01*
X19431795Y-223717839D02*
X19485352Y-223715035D01*
X19368915Y-223720681D02*
X19431795Y-223717839D01*
X19303645Y-223723169D02*
X19368915Y-223720681D01*
X19158340Y-223726041D02*
X19303645Y-223723169D01*
X19031748Y-223723781D02*
X19158340Y-223726041D01*
X18886661Y-223715269D02*
X19031748Y-223723781D01*
X18675022Y-223697707D02*
X18886661Y-223715269D01*
X18614771Y-223691119D02*
X18675022Y-223697707D01*
X18531738Y-223679690D02*
X18614771Y-223691119D01*
X18434250Y-223664788D02*
X18531738Y-223679690D01*
X18327522Y-223647109D02*
X18434250Y-223664788D01*
X18221857Y-223627377D02*
X18327522Y-223647109D01*
X18104034Y-223602215D02*
X18221857Y-223627377D01*
X17987305Y-223574654D02*
X18104034Y-223602215D01*
X17885022Y-223547637D02*
X17987305Y-223574654D01*
X17869381Y-223543300D02*
X17885022Y-223547637D01*
X17853397Y-223538981D02*
X17869381Y-223543300D01*
X17839207Y-223535245D02*
X17853397Y-223538981D01*
X17830022Y-223532966D02*
X17839207Y-223535245D01*
X17821722Y-223530851D02*
X17830022Y-223532966D01*
X17811053Y-223527839D02*
X17821722Y-223530851D01*
X17799914Y-223524499D02*
X17811053Y-223527839D01*
X17790022Y-223521321D02*
X17799914Y-223524499D01*
X17778663Y-223517567D02*
X17790022Y-223521321D01*
X17762381Y-223512256D02*
X17778663Y-223517567D01*
X17744485Y-223506458D02*
X17762381Y-223512256D01*
X17727522Y-223501004D02*
X17744485Y-223506458D01*
X17663400Y-223479584D02*
X17727522Y-223501004D01*
X17599573Y-223456485D02*
X17663400Y-223479584D01*
X17535345Y-223431444D02*
X17599573Y-223456485D01*
X20441588Y-223629800D02*
G75*
G02X20435529Y-223627293I15601J46284D01*
G01*
X20448772Y-223631862D02*
G75*
G02X20441589Y-223629800I19033J79840D01*
G01*
X20475611Y-223637712D02*
X20448772Y-223631862D01*
X16628409Y-219291121D02*
G75*
G02X16643800Y-219299519I-19851J-54684D01*
G01*
X16683573Y-219330444D02*
X16643800Y-219299519D01*
X16730950Y-219369163D02*
X16683573Y-219330444D01*
X16783636Y-219414359D02*
X16730950Y-219369163D01*
X16948174Y-219552127D02*
X16783636Y-219414359D01*
X17093791Y-219660502D02*
X16948174Y-219552127D01*
X17262714Y-219769733D02*
X17093791Y-219660502D01*
X17507522Y-219914069D02*
X17262714Y-219769733D01*
X19821306Y-219506615D02*
X19797577Y-219615220D01*
X19744593Y-219906118D02*
X19742916Y-219920277D01*
X19536280Y-222220659D02*
X19496362Y-222142777D01*
X19650735Y-222449065D02*
X19536280Y-222220659D01*
X19843793Y-219422863D02*
X19840420Y-219435871D01*
X19859796Y-222390277D02*
X19862223Y-222399554D01*
X18230696Y-220396196D02*
X18199731Y-220371569D01*
X18284121Y-220440261D02*
X18230696Y-220396196D01*
X19905296Y-219199293D02*
X19890717Y-219248596D01*
X19291545Y-221760738D02*
X19277657Y-221734784D01*
X19308037Y-221791194D02*
X19291545Y-221760738D01*
X19857389Y-222380966D02*
X19859796Y-222390277D01*
X19780667Y-222712450D02*
G75*
G02X19780022Y-222709625I5867J2825D01*
G01*
X19820128Y-222794375D02*
X19780666Y-222712451D01*
X19743686Y-221728002D02*
X19749812Y-221775277D01*
X19840420Y-219435871D02*
X19837276Y-219447511D01*
X19860559Y-219357297D02*
X19852925Y-219386256D01*
X19872102Y-222443678D02*
X19875424Y-222458215D01*
X19869792Y-222432777D02*
X19872102Y-222443678D01*
X19867434Y-222892202D02*
X19820128Y-222794375D01*
X19930900Y-223022769D02*
X19867434Y-222892202D01*
X20244836Y-217595277D02*
X20233743Y-217688355D01*
X18640510Y-220769449D02*
X18557249Y-220684817D01*
X18707941Y-220843323D02*
X18640510Y-220769449D01*
X19265378Y-221711643D02*
G75*
G02X19265022Y-221710212I2699J1431D01*
G01*
X19277657Y-221734784D02*
X19265377Y-221711643D01*
X19707431Y-221334943D02*
X19710146Y-221374262D01*
X19686197Y-220790776D02*
X19691200Y-221010800D01*
X17562323Y-219945700D02*
X17507522Y-219914069D01*
X17615350Y-219976582D02*
X17562323Y-219945700D01*
X17660594Y-220003170D02*
X17615350Y-219976582D01*
X19712884Y-221410118D02*
X19715155Y-221435277D01*
X20314571Y-217113376D02*
G75*
G02X20332574Y-217069496I122645J-24684D01*
G01*
X20233743Y-217688355D02*
X20216692Y-217818323D01*
X20216692Y-217818323D02*
X20198247Y-217952128D01*
X20198247Y-217952128D02*
X20182296Y-218060277D01*
X19844799Y-222321609D02*
X19847913Y-222336189D01*
X19922754Y-219140648D02*
X19905296Y-219199293D01*
X19915004Y-222616641D02*
X19938021Y-222705658D01*
X19902687Y-222567777D02*
X19915004Y-222616641D01*
X19689221Y-220585430D02*
X19686197Y-220790776D01*
X19747211Y-219888074D02*
X19744593Y-219906118D01*
X19846912Y-219410277D02*
X19843793Y-219422863D01*
X18341890Y-220488546D02*
X18284121Y-220440261D01*
X18392522Y-220531589D02*
X18341890Y-220488546D01*
X19890717Y-219248596D02*
X19884498Y-219270277D01*
X19796332Y-222082567D02*
X19819739Y-222208706D01*
X19722649Y-221517124D02*
X19724772Y-221542777D01*
X19852098Y-222357528D02*
X19854678Y-222369391D01*
X19870636Y-219320269D02*
X19860559Y-219357297D01*
X19862223Y-222399554D02*
X19864997Y-222411012D01*
X20024298Y-218790004D02*
X19941595Y-219077777D01*
X19774401Y-221953232D02*
X19796332Y-222082567D01*
X19736414Y-221663404D02*
X19743686Y-221728002D01*
X17685022Y-220017924D02*
X17660594Y-220003170D01*
X17702943Y-220028971D02*
X17685022Y-220017924D01*
X17721647Y-220040441D02*
X17702943Y-220028971D01*
X17738524Y-220050743D02*
X17721647Y-220040441D01*
X17750022Y-220057694D02*
X17738524Y-220050743D01*
X19847913Y-222336189D02*
X19850081Y-222347260D01*
X19705160Y-221297777D02*
X19707431Y-221334943D01*
X20141058Y-218296192D02*
X20089522Y-218534580D01*
X19852925Y-219386256D02*
X19846912Y-219410277D01*
X20182296Y-218060277D02*
X20141058Y-218296192D01*
X19864997Y-222411012D02*
X19867668Y-222422709D01*
X19715155Y-221435277D02*
X19717410Y-221458549D01*
X19760387Y-221855277D02*
X19774401Y-221953232D01*
X19897592Y-222547213D02*
X19902687Y-222567777D01*
X19891964Y-222524684D02*
X19897592Y-222547213D01*
X18088770Y-220288408D02*
X17962111Y-220198124D01*
X18199731Y-220371569D02*
X18088770Y-220288408D01*
X19716010Y-220160768D02*
X19706089Y-220270173D01*
X19835002Y-219455277D02*
X19821306Y-219506615D01*
X19240348Y-221665352D02*
X19230163Y-221647052D01*
X19248277Y-221679295D02*
X19240348Y-221665352D01*
X19425179Y-222007925D02*
X19407627Y-221975277D01*
X19446050Y-222047166D02*
X19425179Y-222007925D01*
X20043771Y-223203775D02*
G75*
G02X20028450Y-223204191I-7814J5438D01*
G01*
X20051642Y-223177617D02*
G75*
G02X20043772Y-223203776I-43965J-1036D01*
G01*
X19841336Y-222306189D02*
X19844799Y-222321609D01*
X19754965Y-221813215D02*
X19757876Y-221835494D01*
X19750258Y-219869324D02*
X19747211Y-219888074D01*
X19742916Y-219920277D02*
X19741414Y-219934273D01*
X19724772Y-221542777D02*
X19729586Y-221596968D01*
X19469842Y-222092235D02*
X19446050Y-222047166D01*
X19496362Y-222142777D02*
X19469842Y-222092235D01*
X19726782Y-220053128D02*
X19716010Y-220160768D01*
X20089522Y-218534580D02*
X20024298Y-218790004D01*
X19797577Y-219615220D02*
X19775096Y-219724104D01*
X19779044Y-222705488D02*
X19650735Y-222449065D01*
X19779045Y-222705488D02*
G75*
G02X19780022Y-222709625I-8269J-4137D01*
G01*
X17840998Y-220115371D02*
X17750022Y-220057694D01*
X17962111Y-220198124D02*
X17840998Y-220115371D01*
X18826981Y-220992044D02*
X18707941Y-220843323D01*
X18952584Y-221173051D02*
X18826981Y-220992044D01*
X19775096Y-219724104D02*
X19764785Y-219785277D01*
X19941595Y-219077777D02*
X19922754Y-219140648D01*
X19717410Y-221458549D02*
X19720054Y-221487481D01*
X19753300Y-219852777D02*
X19750258Y-219869324D01*
X19762686Y-219799437D02*
X19759713Y-219817481D01*
X19735041Y-219985277D02*
X19726782Y-220053128D01*
X20012789Y-222990486D02*
X20034316Y-223078882D01*
X19979915Y-222865277D02*
X20012789Y-222990486D01*
X19879114Y-222473688D02*
X19882635Y-222487777D01*
X19875424Y-222458215D02*
X19879114Y-222473688D01*
X19838031Y-222292260D02*
X19841336Y-222306189D01*
X19756422Y-219836231D02*
X19753300Y-219852777D01*
X20292634Y-217232589D02*
X20269274Y-217390793D01*
X19739359Y-219951746D02*
X19737122Y-219969693D01*
X19854678Y-222369391D02*
X19857389Y-222380966D01*
X19819739Y-222208706D02*
X19838031Y-222292260D01*
X19700432Y-220347777D02*
X19689221Y-220585430D01*
X20314571Y-217113377D02*
X20292634Y-217232589D01*
X19764785Y-219785277D02*
X19762686Y-219799437D01*
X19961965Y-222797481D02*
X19979915Y-222865277D01*
X19938021Y-222705658D02*
X19961965Y-222797481D01*
X19757876Y-221835494D02*
X19760387Y-221855277D01*
X19886652Y-222503561D02*
X19891964Y-222524684D01*
X19882635Y-222487777D02*
X19886652Y-222503561D01*
X19710146Y-221374262D02*
X19712884Y-221410118D01*
X20047789Y-223142241D02*
G75*
G02X20051641Y-223177617I-205937J-40320D01*
G01*
X20034316Y-223078882D02*
X20047790Y-223142241D01*
X19399971Y-221961116D02*
X19390235Y-221943074D01*
X19407627Y-221975277D02*
X19399971Y-221961116D01*
X19867668Y-222422709D02*
X19869792Y-222432777D01*
X19759713Y-219817481D02*
X19756422Y-219836231D01*
X18470584Y-220601527D02*
X18392522Y-220531589D01*
X18557249Y-220684817D02*
X18470584Y-220601527D01*
X19752112Y-221791881D02*
X19754965Y-221813215D01*
X19737122Y-219969693D02*
X19735041Y-219985277D01*
X19837276Y-219447511D02*
X19835002Y-219455277D01*
X20269274Y-217390793D02*
X20244836Y-217595277D01*
X19219544Y-221627713D02*
X19210123Y-221610277D01*
X19230163Y-221647052D02*
X19219544Y-221627713D01*
X19995824Y-223152971D02*
X19930900Y-223022769D01*
X20028449Y-223204191D02*
G75*
G02X19995824Y-223152971I252153J196613D01*
G01*
X19691200Y-221010800D02*
X19705160Y-221297777D01*
D11*
G36*
X20496217Y-211906665D02*
G01*
X20766995Y-211960525D01*
X21058358Y-212081212D01*
X21320578Y-212256422D01*
X21543578Y-212479422D01*
X21718788Y-212741642D01*
X21839475Y-213033005D01*
X21901000Y-213342315D01*
X21901000Y-213657685D01*
X21839475Y-213966995D01*
X21718788Y-214258358D01*
X21543578Y-214520578D01*
X21320578Y-214743578D01*
X21058358Y-214918788D01*
X20766995Y-215039475D01*
X20496217Y-215093335D01*
X20457686Y-215101000D01*
X20142314Y-215101000D01*
X20103783Y-215093335D01*
X19833005Y-215039475D01*
X19541642Y-214918788D01*
X19279422Y-214743578D01*
X19056422Y-214520578D01*
X18881212Y-214258358D01*
X18760525Y-213966995D01*
X18699000Y-213657685D01*
X18699000Y-213342315D01*
X18760525Y-213033005D01*
X18881212Y-212741642D01*
X19056422Y-212479422D01*
X19279422Y-212256422D01*
X19541642Y-212081212D01*
X19833005Y-211960525D01*
X20103783Y-211906665D01*
X20142314Y-211899000D01*
X20457686Y-211899000D01*
X20496217Y-211906665D01*
G37*
G36*
X12904975Y-206458585D02*
G01*
X13204528Y-206518170D01*
X13768874Y-206751930D01*
X14276772Y-207091296D01*
X14708704Y-207523228D01*
X15048070Y-208031126D01*
X15281830Y-208595472D01*
X15401000Y-209194578D01*
X15401000Y-209805422D01*
X15281830Y-210404528D01*
X15048070Y-210968874D01*
X14708704Y-211476772D01*
X14276772Y-211908704D01*
X13768874Y-212248070D01*
X13204528Y-212481830D01*
X12904975Y-212541415D01*
X12605423Y-212601000D01*
X11994577Y-212601000D01*
X11695025Y-212541415D01*
X11395472Y-212481830D01*
X10831126Y-212248070D01*
X10323228Y-211908704D01*
X9891296Y-211476772D01*
X9551930Y-210968874D01*
X9318170Y-210404528D01*
X9199000Y-209805422D01*
X9199000Y-209194578D01*
X9318170Y-208595472D01*
X9551930Y-208031126D01*
X9891296Y-207523228D01*
X10323228Y-207091296D01*
X10831126Y-206751930D01*
X11395472Y-206518170D01*
X11695025Y-206458585D01*
X11994577Y-206399000D01*
X12605423Y-206399000D01*
X12904975Y-206458585D01*
G37*
G36*
X28904975Y-206458585D02*
G01*
X29204528Y-206518170D01*
X29768874Y-206751930D01*
X30276772Y-207091296D01*
X30708704Y-207523228D01*
X31048070Y-208031126D01*
X31281830Y-208595472D01*
X31401000Y-209194578D01*
X31401000Y-209805422D01*
X31281830Y-210404528D01*
X31048070Y-210968874D01*
X30708704Y-211476772D01*
X30276772Y-211908704D01*
X29768874Y-212248070D01*
X29204528Y-212481830D01*
X28904975Y-212541415D01*
X28605423Y-212601000D01*
X27994577Y-212601000D01*
X27695025Y-212541415D01*
X27395472Y-212481830D01*
X26831126Y-212248070D01*
X26323228Y-211908704D01*
X25891296Y-211476772D01*
X25551930Y-210968874D01*
X25318170Y-210404528D01*
X25199000Y-209805422D01*
X25199000Y-209194578D01*
X25318170Y-208595472D01*
X25551930Y-208031126D01*
X25891296Y-207523228D01*
X26323228Y-207091296D01*
X26831126Y-206751930D01*
X27395472Y-206518170D01*
X27695025Y-206458585D01*
X27994577Y-206399000D01*
X28605423Y-206399000D01*
X28904975Y-206458585D01*
G37*
G36*
X20496217Y-200156665D02*
G01*
X20766995Y-200210525D01*
X21058358Y-200331212D01*
X21320578Y-200506422D01*
X21543578Y-200729422D01*
X21718788Y-200991642D01*
X21839475Y-201283005D01*
X21901000Y-201592315D01*
X21901000Y-201907685D01*
X21839475Y-202216995D01*
X21718788Y-202508358D01*
X21543578Y-202770578D01*
X21320578Y-202993578D01*
X21058358Y-203168788D01*
X20766995Y-203289475D01*
X20496217Y-203343335D01*
X20457686Y-203351000D01*
X20142314Y-203351000D01*
X20103783Y-203343335D01*
X19833005Y-203289475D01*
X19541642Y-203168788D01*
X19279422Y-202993578D01*
X19056422Y-202770578D01*
X18881212Y-202508358D01*
X18760525Y-202216995D01*
X18699000Y-201907685D01*
X18699000Y-201592315D01*
X18760525Y-201283005D01*
X18881212Y-200991642D01*
X19056422Y-200729422D01*
X19279422Y-200506422D01*
X19541642Y-200331212D01*
X19833005Y-200210525D01*
X20103783Y-200156665D01*
X20142314Y-200149000D01*
X20457686Y-200149000D01*
X20496217Y-200156665D01*
G37*
G36*
X28904975Y-194458585D02*
G01*
X29204528Y-194518170D01*
X29768874Y-194751930D01*
X30276772Y-195091296D01*
X30708704Y-195523228D01*
X31048070Y-196031126D01*
X31281830Y-196595472D01*
X31401000Y-197194578D01*
X31401000Y-197805422D01*
X31281830Y-198404528D01*
X31048070Y-198968874D01*
X30708704Y-199476772D01*
X30276772Y-199908704D01*
X29768874Y-200248070D01*
X29204528Y-200481830D01*
X29080896Y-200506422D01*
X28605423Y-200601000D01*
X27994577Y-200601000D01*
X27519104Y-200506422D01*
X27395472Y-200481830D01*
X26831126Y-200248070D01*
X26323228Y-199908704D01*
X25891296Y-199476772D01*
X25551930Y-198968874D01*
X25318170Y-198404528D01*
X25199000Y-197805422D01*
X25199000Y-197194578D01*
X25318170Y-196595472D01*
X25551930Y-196031126D01*
X25891296Y-195523228D01*
X26323228Y-195091296D01*
X26831126Y-194751930D01*
X27395472Y-194518170D01*
X27695025Y-194458585D01*
X27994577Y-194399000D01*
X28605423Y-194399000D01*
X28904975Y-194458585D01*
G37*
G36*
X12904975Y-194458585D02*
G01*
X13204528Y-194518170D01*
X13768874Y-194751930D01*
X14276772Y-195091296D01*
X14708704Y-195523228D01*
X15048070Y-196031126D01*
X15281830Y-196595472D01*
X15401000Y-197194578D01*
X15401000Y-197805422D01*
X15281830Y-198404528D01*
X15048070Y-198968874D01*
X14708704Y-199476772D01*
X14276772Y-199908704D01*
X13768874Y-200248070D01*
X13204528Y-200481830D01*
X13080896Y-200506422D01*
X12605423Y-200601000D01*
X11994577Y-200601000D01*
X11519104Y-200506422D01*
X11395472Y-200481830D01*
X10831126Y-200248070D01*
X10323228Y-199908704D01*
X9891296Y-199476772D01*
X9551930Y-198968874D01*
X9318170Y-198404528D01*
X9199000Y-197805422D01*
X9199000Y-197194578D01*
X9318170Y-196595472D01*
X9551930Y-196031126D01*
X9891296Y-195523228D01*
X10323228Y-195091296D01*
X10831126Y-194751930D01*
X11395472Y-194518170D01*
X11695025Y-194458585D01*
X11994577Y-194399000D01*
X12605423Y-194399000D01*
X12904975Y-194458585D01*
G37*
G36*
X20496217Y-188156665D02*
G01*
X20766995Y-188210525D01*
X21058358Y-188331212D01*
X21320578Y-188506422D01*
X21543578Y-188729422D01*
X21718788Y-188991642D01*
X21839475Y-189283005D01*
X21901000Y-189592315D01*
X21901000Y-189907685D01*
X21839475Y-190216995D01*
X21718788Y-190508358D01*
X21543578Y-190770578D01*
X21320578Y-190993578D01*
X21058358Y-191168788D01*
X20766995Y-191289475D01*
X20496217Y-191343335D01*
X20457686Y-191351000D01*
X20142314Y-191351000D01*
X20103783Y-191343335D01*
X19833005Y-191289475D01*
X19541642Y-191168788D01*
X19279422Y-190993578D01*
X19056422Y-190770578D01*
X18881212Y-190508358D01*
X18760525Y-190216995D01*
X18699000Y-189907685D01*
X18699000Y-189592315D01*
X18760525Y-189283005D01*
X18881212Y-188991642D01*
X19056422Y-188729422D01*
X19279422Y-188506422D01*
X19541642Y-188331212D01*
X19833005Y-188210525D01*
X20103783Y-188156665D01*
X20142314Y-188149000D01*
X20457686Y-188149000D01*
X20496217Y-188156665D01*
G37*
G36*
X28904975Y-182708585D02*
G01*
X29204528Y-182768170D01*
X29768874Y-183001930D01*
X30276772Y-183341296D01*
X30708704Y-183773228D01*
X31048070Y-184281126D01*
X31281830Y-184845472D01*
X31401000Y-185444578D01*
X31401000Y-186055422D01*
X31281830Y-186654528D01*
X31048070Y-187218874D01*
X30708704Y-187726772D01*
X30276772Y-188158704D01*
X29768874Y-188498070D01*
X29204528Y-188731830D01*
X28904975Y-188791415D01*
X28605423Y-188851000D01*
X27994577Y-188851000D01*
X27695025Y-188791415D01*
X27395472Y-188731830D01*
X26831126Y-188498070D01*
X26323228Y-188158704D01*
X25891296Y-187726772D01*
X25551930Y-187218874D01*
X25318170Y-186654528D01*
X25199000Y-186055422D01*
X25199000Y-185444578D01*
X25318170Y-184845472D01*
X25551930Y-184281126D01*
X25891296Y-183773228D01*
X26323228Y-183341296D01*
X26831126Y-183001930D01*
X27395472Y-182768170D01*
X27695025Y-182708585D01*
X27994577Y-182649000D01*
X28605423Y-182649000D01*
X28904975Y-182708585D01*
G37*
G36*
X12904975Y-182708585D02*
G01*
X13204528Y-182768170D01*
X13768874Y-183001930D01*
X14276772Y-183341296D01*
X14708704Y-183773228D01*
X15048070Y-184281126D01*
X15281830Y-184845472D01*
X15401000Y-185444578D01*
X15401000Y-186055422D01*
X15281830Y-186654528D01*
X15048070Y-187218874D01*
X14708704Y-187726772D01*
X14276772Y-188158704D01*
X13768874Y-188498070D01*
X13204528Y-188731830D01*
X12904975Y-188791415D01*
X12605423Y-188851000D01*
X11994577Y-188851000D01*
X11695025Y-188791415D01*
X11395472Y-188731830D01*
X10831126Y-188498070D01*
X10323228Y-188158704D01*
X9891296Y-187726772D01*
X9551930Y-187218874D01*
X9318170Y-186654528D01*
X9199000Y-186055422D01*
X9199000Y-185444578D01*
X9318170Y-184845472D01*
X9551930Y-184281126D01*
X9891296Y-183773228D01*
X10323228Y-183341296D01*
X10831126Y-183001930D01*
X11395472Y-182768170D01*
X11695025Y-182708585D01*
X11994577Y-182649000D01*
X12605423Y-182649000D01*
X12904975Y-182708585D01*
G37*
G36*
X20496217Y-176156665D02*
G01*
X20766995Y-176210525D01*
X21058358Y-176331212D01*
X21320578Y-176506422D01*
X21543578Y-176729422D01*
X21718788Y-176991642D01*
X21839475Y-177283005D01*
X21901000Y-177592315D01*
X21901000Y-177907685D01*
X21839475Y-178216995D01*
X21718788Y-178508358D01*
X21543578Y-178770578D01*
X21320578Y-178993578D01*
X21058358Y-179168788D01*
X20766995Y-179289475D01*
X20496217Y-179343335D01*
X20457686Y-179351000D01*
X20142314Y-179351000D01*
X20103783Y-179343335D01*
X19833005Y-179289475D01*
X19541642Y-179168788D01*
X19279422Y-178993578D01*
X19056422Y-178770578D01*
X18881212Y-178508358D01*
X18760525Y-178216995D01*
X18699000Y-177907685D01*
X18699000Y-177592315D01*
X18760525Y-177283005D01*
X18881212Y-176991642D01*
X19056422Y-176729422D01*
X19279422Y-176506422D01*
X19541642Y-176331212D01*
X19833005Y-176210525D01*
X20103783Y-176156665D01*
X20142314Y-176149000D01*
X20457686Y-176149000D01*
X20496217Y-176156665D01*
G37*
G36*
X28904975Y-170708585D02*
G01*
X29204528Y-170768170D01*
X29768874Y-171001930D01*
X30276772Y-171341296D01*
X30708704Y-171773228D01*
X31048070Y-172281126D01*
X31281830Y-172845472D01*
X31401000Y-173444578D01*
X31401000Y-174055422D01*
X31281830Y-174654528D01*
X31048070Y-175218874D01*
X30708704Y-175726772D01*
X30276772Y-176158704D01*
X29768874Y-176498070D01*
X29204528Y-176731830D01*
X28904975Y-176791415D01*
X28605423Y-176851000D01*
X27994577Y-176851000D01*
X27695025Y-176791415D01*
X27395472Y-176731830D01*
X26831126Y-176498070D01*
X26323228Y-176158704D01*
X25891296Y-175726772D01*
X25551930Y-175218874D01*
X25318170Y-174654528D01*
X25199000Y-174055422D01*
X25199000Y-173444578D01*
X25318170Y-172845472D01*
X25551930Y-172281126D01*
X25891296Y-171773228D01*
X26323228Y-171341296D01*
X26831126Y-171001930D01*
X27395472Y-170768170D01*
X27695025Y-170708585D01*
X27994577Y-170649000D01*
X28605423Y-170649000D01*
X28904975Y-170708585D01*
G37*
G36*
X12904975Y-170708585D02*
G01*
X13204528Y-170768170D01*
X13768874Y-171001930D01*
X14276772Y-171341296D01*
X14708704Y-171773228D01*
X15048070Y-172281126D01*
X15281830Y-172845472D01*
X15401000Y-173444578D01*
X15401000Y-174055422D01*
X15281830Y-174654528D01*
X15048070Y-175218874D01*
X14708704Y-175726772D01*
X14276772Y-176158704D01*
X13768874Y-176498070D01*
X13204528Y-176731830D01*
X12904975Y-176791415D01*
X12605423Y-176851000D01*
X11994577Y-176851000D01*
X11695025Y-176791415D01*
X11395472Y-176731830D01*
X10831126Y-176498070D01*
X10323228Y-176158704D01*
X9891296Y-175726772D01*
X9551930Y-175218874D01*
X9318170Y-174654528D01*
X9199000Y-174055422D01*
X9199000Y-173444578D01*
X9318170Y-172845472D01*
X9551930Y-172281126D01*
X9891296Y-171773228D01*
X10323228Y-171341296D01*
X10831126Y-171001930D01*
X11395472Y-170768170D01*
X11695025Y-170708585D01*
X11994577Y-170649000D01*
X12605423Y-170649000D01*
X12904975Y-170708585D01*
G37*
G36*
X20496217Y-164156665D02*
G01*
X20766995Y-164210525D01*
X21058358Y-164331212D01*
X21320578Y-164506422D01*
X21543578Y-164729422D01*
X21718788Y-164991642D01*
X21839475Y-165283005D01*
X21901000Y-165592315D01*
X21901000Y-165907685D01*
X21839475Y-166216995D01*
X21718788Y-166508358D01*
X21543578Y-166770578D01*
X21320578Y-166993578D01*
X21058358Y-167168788D01*
X20766995Y-167289475D01*
X20496217Y-167343335D01*
X20457686Y-167351000D01*
X20142314Y-167351000D01*
X20103783Y-167343335D01*
X19833005Y-167289475D01*
X19541642Y-167168788D01*
X19279422Y-166993578D01*
X19056422Y-166770578D01*
X18881212Y-166508358D01*
X18760525Y-166216995D01*
X18699000Y-165907685D01*
X18699000Y-165592315D01*
X18760525Y-165283005D01*
X18881212Y-164991642D01*
X19056422Y-164729422D01*
X19279422Y-164506422D01*
X19541642Y-164331212D01*
X19833005Y-164210525D01*
X20103783Y-164156665D01*
X20142314Y-164149000D01*
X20457686Y-164149000D01*
X20496217Y-164156665D01*
G37*
G36*
X12904975Y-158708585D02*
G01*
X13204528Y-158768170D01*
X13768874Y-159001930D01*
X14276772Y-159341296D01*
X14708704Y-159773228D01*
X15048070Y-160281126D01*
X15281830Y-160845472D01*
X15401000Y-161444578D01*
X15401000Y-162055422D01*
X15281830Y-162654528D01*
X15048070Y-163218874D01*
X14708704Y-163726772D01*
X14276772Y-164158704D01*
X13768874Y-164498070D01*
X13204528Y-164731830D01*
X12904975Y-164791415D01*
X12605423Y-164851000D01*
X11994577Y-164851000D01*
X11695025Y-164791415D01*
X11395472Y-164731830D01*
X10831126Y-164498070D01*
X10323228Y-164158704D01*
X9891296Y-163726772D01*
X9551930Y-163218874D01*
X9318170Y-162654528D01*
X9199000Y-162055422D01*
X9199000Y-161444578D01*
X9318170Y-160845472D01*
X9551930Y-160281126D01*
X9891296Y-159773228D01*
X10323228Y-159341296D01*
X10831126Y-159001930D01*
X11395472Y-158768170D01*
X11695025Y-158708585D01*
X11994577Y-158649000D01*
X12605423Y-158649000D01*
X12904975Y-158708585D01*
G37*
G36*
X28904975Y-158708585D02*
G01*
X29204528Y-158768170D01*
X29768874Y-159001930D01*
X30276772Y-159341296D01*
X30708704Y-159773228D01*
X31048070Y-160281126D01*
X31281830Y-160845472D01*
X31401000Y-161444578D01*
X31401000Y-162055422D01*
X31281830Y-162654528D01*
X31048070Y-163218874D01*
X30708704Y-163726772D01*
X30276772Y-164158704D01*
X29768874Y-164498070D01*
X29204528Y-164731830D01*
X28904975Y-164791415D01*
X28605423Y-164851000D01*
X27994577Y-164851000D01*
X27695025Y-164791415D01*
X27395472Y-164731830D01*
X26831126Y-164498070D01*
X26323228Y-164158704D01*
X25891296Y-163726772D01*
X25551930Y-163218874D01*
X25318170Y-162654528D01*
X25199000Y-162055422D01*
X25199000Y-161444578D01*
X25318170Y-160845472D01*
X25551930Y-160281126D01*
X25891296Y-159773228D01*
X26323228Y-159341296D01*
X26831126Y-159001930D01*
X27395472Y-158768170D01*
X27695025Y-158708585D01*
X27994577Y-158649000D01*
X28605423Y-158649000D01*
X28904975Y-158708585D01*
G37*
G36*
X20496217Y-152156665D02*
G01*
X20766995Y-152210525D01*
X21058358Y-152331212D01*
X21320578Y-152506422D01*
X21543578Y-152729422D01*
X21718788Y-152991642D01*
X21839475Y-153283005D01*
X21901000Y-153592315D01*
X21901000Y-153907685D01*
X21839475Y-154216995D01*
X21718788Y-154508358D01*
X21543578Y-154770578D01*
X21320578Y-154993578D01*
X21058358Y-155168788D01*
X20766995Y-155289475D01*
X20496217Y-155343335D01*
X20457686Y-155351000D01*
X20142314Y-155351000D01*
X20103783Y-155343335D01*
X19833005Y-155289475D01*
X19541642Y-155168788D01*
X19279422Y-154993578D01*
X19056422Y-154770578D01*
X18881212Y-154508358D01*
X18760525Y-154216995D01*
X18699000Y-153907685D01*
X18699000Y-153592315D01*
X18760525Y-153283005D01*
X18881212Y-152991642D01*
X19056422Y-152729422D01*
X19279422Y-152506422D01*
X19541642Y-152331212D01*
X19833005Y-152210525D01*
X20103783Y-152156665D01*
X20142314Y-152149000D01*
X20457686Y-152149000D01*
X20496217Y-152156665D01*
G37*
G36*
X12904975Y-146708585D02*
G01*
X13204528Y-146768170D01*
X13768874Y-147001930D01*
X14276772Y-147341296D01*
X14708704Y-147773228D01*
X15048070Y-148281126D01*
X15281830Y-148845472D01*
X15401000Y-149444578D01*
X15401000Y-150055422D01*
X15281830Y-150654528D01*
X15048070Y-151218874D01*
X14708704Y-151726772D01*
X14276772Y-152158704D01*
X13768874Y-152498070D01*
X13204528Y-152731830D01*
X12904975Y-152791415D01*
X12605423Y-152851000D01*
X11994577Y-152851000D01*
X11695025Y-152791415D01*
X11395472Y-152731830D01*
X10831126Y-152498070D01*
X10323228Y-152158704D01*
X9891296Y-151726772D01*
X9551930Y-151218874D01*
X9318170Y-150654528D01*
X9199000Y-150055422D01*
X9199000Y-149444578D01*
X9318170Y-148845472D01*
X9551930Y-148281126D01*
X9891296Y-147773228D01*
X10323228Y-147341296D01*
X10831126Y-147001930D01*
X11395472Y-146768170D01*
X11695025Y-146708585D01*
X11994577Y-146649000D01*
X12605423Y-146649000D01*
X12904975Y-146708585D01*
G37*
G36*
X28904975Y-146708585D02*
G01*
X29204528Y-146768170D01*
X29768874Y-147001930D01*
X30276772Y-147341296D01*
X30708704Y-147773228D01*
X31048070Y-148281126D01*
X31281830Y-148845472D01*
X31401000Y-149444578D01*
X31401000Y-150055422D01*
X31281830Y-150654528D01*
X31048070Y-151218874D01*
X30708704Y-151726772D01*
X30276772Y-152158704D01*
X29768874Y-152498070D01*
X29204528Y-152731830D01*
X28904975Y-152791415D01*
X28605423Y-152851000D01*
X27994577Y-152851000D01*
X27695025Y-152791415D01*
X27395472Y-152731830D01*
X26831126Y-152498070D01*
X26323228Y-152158704D01*
X25891296Y-151726772D01*
X25551930Y-151218874D01*
X25318170Y-150654528D01*
X25199000Y-150055422D01*
X25199000Y-149444578D01*
X25318170Y-148845472D01*
X25551930Y-148281126D01*
X25891296Y-147773228D01*
X26323228Y-147341296D01*
X26831126Y-147001930D01*
X27395472Y-146768170D01*
X27695025Y-146708585D01*
X27994577Y-146649000D01*
X28605423Y-146649000D01*
X28904975Y-146708585D01*
G37*
G36*
X20496217Y-140156665D02*
G01*
X20766995Y-140210525D01*
X21058358Y-140331212D01*
X21320578Y-140506422D01*
X21543578Y-140729422D01*
X21718788Y-140991642D01*
X21839475Y-141283005D01*
X21901000Y-141592315D01*
X21901000Y-141907685D01*
X21839475Y-142216995D01*
X21718788Y-142508358D01*
X21543578Y-142770578D01*
X21320578Y-142993578D01*
X21058358Y-143168788D01*
X20766995Y-143289475D01*
X20496217Y-143343335D01*
X20457686Y-143351000D01*
X20142314Y-143351000D01*
X20103783Y-143343335D01*
X19833005Y-143289475D01*
X19541642Y-143168788D01*
X19279422Y-142993578D01*
X19056422Y-142770578D01*
X18881212Y-142508358D01*
X18760525Y-142216995D01*
X18699000Y-141907685D01*
X18699000Y-141592315D01*
X18760525Y-141283005D01*
X18881212Y-140991642D01*
X19056422Y-140729422D01*
X19279422Y-140506422D01*
X19541642Y-140331212D01*
X19833005Y-140210525D01*
X20103783Y-140156665D01*
X20142314Y-140149000D01*
X20457686Y-140149000D01*
X20496217Y-140156665D01*
G37*
G36*
X28904975Y-134708585D02*
G01*
X29204528Y-134768170D01*
X29768874Y-135001930D01*
X30276772Y-135341296D01*
X30708704Y-135773228D01*
X31048070Y-136281126D01*
X31281830Y-136845472D01*
X31401000Y-137444578D01*
X31401000Y-138055422D01*
X31281830Y-138654528D01*
X31048070Y-139218874D01*
X30708704Y-139726772D01*
X30276772Y-140158704D01*
X29768874Y-140498070D01*
X29204528Y-140731830D01*
X28904975Y-140791415D01*
X28605423Y-140851000D01*
X27994577Y-140851000D01*
X27695025Y-140791415D01*
X27395472Y-140731830D01*
X26831126Y-140498070D01*
X26323228Y-140158704D01*
X25891296Y-139726772D01*
X25551930Y-139218874D01*
X25318170Y-138654528D01*
X25199000Y-138055422D01*
X25199000Y-137444578D01*
X25318170Y-136845472D01*
X25551930Y-136281126D01*
X25891296Y-135773228D01*
X26323228Y-135341296D01*
X26831126Y-135001930D01*
X27395472Y-134768170D01*
X27695025Y-134708585D01*
X27994577Y-134649000D01*
X28605423Y-134649000D01*
X28904975Y-134708585D01*
G37*
G36*
X12904975Y-134708585D02*
G01*
X13204528Y-134768170D01*
X13768874Y-135001930D01*
X14276772Y-135341296D01*
X14708704Y-135773228D01*
X15048070Y-136281126D01*
X15281830Y-136845472D01*
X15401000Y-137444578D01*
X15401000Y-138055422D01*
X15281830Y-138654528D01*
X15048070Y-139218874D01*
X14708704Y-139726772D01*
X14276772Y-140158704D01*
X13768874Y-140498070D01*
X13204528Y-140731830D01*
X12904975Y-140791415D01*
X12605423Y-140851000D01*
X11994577Y-140851000D01*
X11695025Y-140791415D01*
X11395472Y-140731830D01*
X10831126Y-140498070D01*
X10323228Y-140158704D01*
X9891296Y-139726772D01*
X9551930Y-139218874D01*
X9318170Y-138654528D01*
X9199000Y-138055422D01*
X9199000Y-137444578D01*
X9318170Y-136845472D01*
X9551930Y-136281126D01*
X9891296Y-135773228D01*
X10323228Y-135341296D01*
X10831126Y-135001930D01*
X11395472Y-134768170D01*
X11695025Y-134708585D01*
X11994577Y-134649000D01*
X12605423Y-134649000D01*
X12904975Y-134708585D01*
G37*
G36*
X20496217Y-128156665D02*
G01*
X20766995Y-128210525D01*
X21058358Y-128331212D01*
X21320578Y-128506422D01*
X21543578Y-128729422D01*
X21718788Y-128991642D01*
X21839475Y-129283005D01*
X21901000Y-129592315D01*
X21901000Y-129907685D01*
X21839475Y-130216995D01*
X21718788Y-130508358D01*
X21543578Y-130770578D01*
X21320578Y-130993578D01*
X21058358Y-131168788D01*
X20766995Y-131289475D01*
X20496217Y-131343335D01*
X20457686Y-131351000D01*
X20142314Y-131351000D01*
X20103783Y-131343335D01*
X19833005Y-131289475D01*
X19541642Y-131168788D01*
X19279422Y-130993578D01*
X19056422Y-130770578D01*
X18881212Y-130508358D01*
X18760525Y-130216995D01*
X18699000Y-129907685D01*
X18699000Y-129592315D01*
X18760525Y-129283005D01*
X18881212Y-128991642D01*
X19056422Y-128729422D01*
X19279422Y-128506422D01*
X19541642Y-128331212D01*
X19833005Y-128210525D01*
X20103783Y-128156665D01*
X20142314Y-128149000D01*
X20457686Y-128149000D01*
X20496217Y-128156665D01*
G37*
G36*
X28904975Y-122708585D02*
G01*
X29204528Y-122768170D01*
X29768874Y-123001930D01*
X30276772Y-123341296D01*
X30708704Y-123773228D01*
X31048070Y-124281126D01*
X31281830Y-124845472D01*
X31401000Y-125444578D01*
X31401000Y-126055422D01*
X31281830Y-126654528D01*
X31048070Y-127218874D01*
X30708704Y-127726772D01*
X30276772Y-128158704D01*
X29768874Y-128498070D01*
X29204528Y-128731830D01*
X28904975Y-128791415D01*
X28605423Y-128851000D01*
X27994577Y-128851000D01*
X27695025Y-128791415D01*
X27395472Y-128731830D01*
X26831126Y-128498070D01*
X26323228Y-128158704D01*
X25891296Y-127726772D01*
X25551930Y-127218874D01*
X25318170Y-126654528D01*
X25199000Y-126055422D01*
X25199000Y-125444578D01*
X25318170Y-124845472D01*
X25551930Y-124281126D01*
X25891296Y-123773228D01*
X26323228Y-123341296D01*
X26831126Y-123001930D01*
X27395472Y-122768170D01*
X27695025Y-122708585D01*
X27994577Y-122649000D01*
X28605423Y-122649000D01*
X28904975Y-122708585D01*
G37*
G36*
X12904975Y-122708585D02*
G01*
X13204528Y-122768170D01*
X13768874Y-123001930D01*
X14276772Y-123341296D01*
X14708704Y-123773228D01*
X15048070Y-124281126D01*
X15281830Y-124845472D01*
X15401000Y-125444578D01*
X15401000Y-126055422D01*
X15281830Y-126654528D01*
X15048070Y-127218874D01*
X14708704Y-127726772D01*
X14276772Y-128158704D01*
X13768874Y-128498070D01*
X13204528Y-128731830D01*
X12904975Y-128791415D01*
X12605423Y-128851000D01*
X11994577Y-128851000D01*
X11695025Y-128791415D01*
X11395472Y-128731830D01*
X10831126Y-128498070D01*
X10323228Y-128158704D01*
X9891296Y-127726772D01*
X9551930Y-127218874D01*
X9318170Y-126654528D01*
X9199000Y-126055422D01*
X9199000Y-125444578D01*
X9318170Y-124845472D01*
X9551930Y-124281126D01*
X9891296Y-123773228D01*
X10323228Y-123341296D01*
X10831126Y-123001930D01*
X11395472Y-122768170D01*
X11695025Y-122708585D01*
X11994577Y-122649000D01*
X12605423Y-122649000D01*
X12904975Y-122708585D01*
G37*
G36*
X20496217Y-116156665D02*
G01*
X20766995Y-116210525D01*
X21058358Y-116331212D01*
X21320578Y-116506422D01*
X21543578Y-116729422D01*
X21718788Y-116991642D01*
X21839475Y-117283005D01*
X21901000Y-117592315D01*
X21901000Y-117907685D01*
X21839475Y-118216995D01*
X21718788Y-118508358D01*
X21543578Y-118770578D01*
X21320578Y-118993578D01*
X21058358Y-119168788D01*
X20766995Y-119289475D01*
X20496217Y-119343335D01*
X20457686Y-119351000D01*
X20142314Y-119351000D01*
X20103783Y-119343335D01*
X19833005Y-119289475D01*
X19541642Y-119168788D01*
X19279422Y-118993578D01*
X19056422Y-118770578D01*
X18881212Y-118508358D01*
X18760525Y-118216995D01*
X18699000Y-117907685D01*
X18699000Y-117592315D01*
X18760525Y-117283005D01*
X18881212Y-116991642D01*
X19056422Y-116729422D01*
X19279422Y-116506422D01*
X19541642Y-116331212D01*
X19833005Y-116210525D01*
X20103783Y-116156665D01*
X20142314Y-116149000D01*
X20457686Y-116149000D01*
X20496217Y-116156665D01*
G37*
G36*
X12904975Y-110708585D02*
G01*
X13204528Y-110768170D01*
X13768874Y-111001930D01*
X14276772Y-111341296D01*
X14708704Y-111773228D01*
X15048070Y-112281126D01*
X15281830Y-112845472D01*
X15401000Y-113444578D01*
X15401000Y-114055422D01*
X15281830Y-114654528D01*
X15048070Y-115218874D01*
X14708704Y-115726772D01*
X14276772Y-116158704D01*
X13768874Y-116498070D01*
X13204528Y-116731830D01*
X12904975Y-116791415D01*
X12605423Y-116851000D01*
X11994577Y-116851000D01*
X11695025Y-116791415D01*
X11395472Y-116731830D01*
X10831126Y-116498070D01*
X10323228Y-116158704D01*
X9891296Y-115726772D01*
X9551930Y-115218874D01*
X9318170Y-114654528D01*
X9199000Y-114055422D01*
X9199000Y-113444578D01*
X9318170Y-112845472D01*
X9551930Y-112281126D01*
X9891296Y-111773228D01*
X10323228Y-111341296D01*
X10831126Y-111001930D01*
X11395472Y-110768170D01*
X11695025Y-110708585D01*
X11994577Y-110649000D01*
X12605423Y-110649000D01*
X12904975Y-110708585D01*
G37*
G36*
X28904975Y-110708585D02*
G01*
X29204528Y-110768170D01*
X29768874Y-111001930D01*
X30276772Y-111341296D01*
X30708704Y-111773228D01*
X31048070Y-112281126D01*
X31281830Y-112845472D01*
X31401000Y-113444578D01*
X31401000Y-114055422D01*
X31281830Y-114654528D01*
X31048070Y-115218874D01*
X30708704Y-115726772D01*
X30276772Y-116158704D01*
X29768874Y-116498070D01*
X29204528Y-116731830D01*
X28904975Y-116791415D01*
X28605423Y-116851000D01*
X27994577Y-116851000D01*
X27695025Y-116791415D01*
X27395472Y-116731830D01*
X26831126Y-116498070D01*
X26323228Y-116158704D01*
X25891296Y-115726772D01*
X25551930Y-115218874D01*
X25318170Y-114654528D01*
X25199000Y-114055422D01*
X25199000Y-113444578D01*
X25318170Y-112845472D01*
X25551930Y-112281126D01*
X25891296Y-111773228D01*
X26323228Y-111341296D01*
X26831126Y-111001930D01*
X27395472Y-110768170D01*
X27695025Y-110708585D01*
X27994577Y-110649000D01*
X28605423Y-110649000D01*
X28904975Y-110708585D01*
G37*
M02*
