G04 #@! TF.GenerationSoftware,KiCad,Pcbnew,(5.1.5-0)*
G04 #@! TF.CreationDate,2021-01-12T22:14:20-08:00*
G04 #@! TF.ProjectId,dividebyn,64697669-6465-4627-996e-2e6b69636164,rev?*
G04 #@! TF.SameCoordinates,Original*
G04 #@! TF.FileFunction,Legend,Top*
G04 #@! TF.FilePolarity,Positive*
%FSLAX46Y46*%
G04 Gerber Fmt 4.6, Leading zero omitted, Abs format (unit mm)*
G04 Created by KiCad (PCBNEW (5.1.5-0)) date 2021-01-12 22:14:20*
%MOMM*%
%LPD*%
G04 APERTURE LIST*
%ADD10C,0.200000*%
%ADD11C,0.400000*%
G04 APERTURE END LIST*
D10*
X2883333Y-160404761D02*
X2883333Y-161833333D01*
X2788095Y-162119047D01*
X2597619Y-162309523D01*
X2311904Y-162404761D01*
X2121428Y-162404761D01*
X4883333Y-162404761D02*
X3740476Y-162404761D01*
X4311904Y-162404761D02*
X4311904Y-160404761D01*
X4121428Y-160690476D01*
X3930952Y-160880952D01*
X3740476Y-160976190D01*
X2883333Y-172154761D02*
X2883333Y-173583333D01*
X2788095Y-173869047D01*
X2597619Y-174059523D01*
X2311904Y-174154761D01*
X2121428Y-174154761D01*
X3740476Y-172345238D02*
X3835714Y-172250000D01*
X4026190Y-172154761D01*
X4502380Y-172154761D01*
X4692857Y-172250000D01*
X4788095Y-172345238D01*
X4883333Y-172535714D01*
X4883333Y-172726190D01*
X4788095Y-173011904D01*
X3645238Y-174154761D01*
X4883333Y-174154761D01*
X3133333Y-184404761D02*
X3133333Y-185833333D01*
X3038095Y-186119047D01*
X2847619Y-186309523D01*
X2561904Y-186404761D01*
X2371428Y-186404761D01*
X3895238Y-184404761D02*
X5133333Y-184404761D01*
X4466666Y-185166666D01*
X4752380Y-185166666D01*
X4942857Y-185261904D01*
X5038095Y-185357142D01*
X5133333Y-185547619D01*
X5133333Y-186023809D01*
X5038095Y-186214285D01*
X4942857Y-186309523D01*
X4752380Y-186404761D01*
X4180952Y-186404761D01*
X3990476Y-186309523D01*
X3895238Y-186214285D01*
X3133333Y-196404761D02*
X3133333Y-197833333D01*
X3038095Y-198119047D01*
X2847619Y-198309523D01*
X2561904Y-198404761D01*
X2371428Y-198404761D01*
X4942857Y-197071428D02*
X4942857Y-198404761D01*
X4466666Y-196309523D02*
X3990476Y-197738095D01*
X5228571Y-197738095D01*
X3133333Y-208404761D02*
X3133333Y-209833333D01*
X3038095Y-210119047D01*
X2847619Y-210309523D01*
X2561904Y-210404761D01*
X2371428Y-210404761D01*
X5038095Y-208404761D02*
X4085714Y-208404761D01*
X3990476Y-209357142D01*
X4085714Y-209261904D01*
X4276190Y-209166666D01*
X4752380Y-209166666D01*
X4942857Y-209261904D01*
X5038095Y-209357142D01*
X5133333Y-209547619D01*
X5133333Y-210023809D01*
X5038095Y-210214285D01*
X4942857Y-210309523D01*
X4752380Y-210404761D01*
X4276190Y-210404761D01*
X4085714Y-210309523D01*
X3990476Y-210214285D01*
X36169047Y-210404761D02*
X36550000Y-210404761D01*
X36740476Y-210309523D01*
X36835714Y-210214285D01*
X37026190Y-209928571D01*
X37121428Y-209547619D01*
X37121428Y-208785714D01*
X37026190Y-208595238D01*
X36930952Y-208500000D01*
X36740476Y-208404761D01*
X36359523Y-208404761D01*
X36169047Y-208500000D01*
X36073809Y-208595238D01*
X35978571Y-208785714D01*
X35978571Y-209261904D01*
X36073809Y-209452380D01*
X36169047Y-209547619D01*
X36359523Y-209642857D01*
X36740476Y-209642857D01*
X36930952Y-209547619D01*
X37026190Y-209452380D01*
X37121428Y-209261904D01*
X35633333Y-196654761D02*
X36966666Y-196654761D01*
X36109523Y-198654761D01*
X36776190Y-184154761D02*
X35823809Y-184154761D01*
X35728571Y-185107142D01*
X35823809Y-185011904D01*
X36014285Y-184916666D01*
X36490476Y-184916666D01*
X36680952Y-185011904D01*
X36776190Y-185107142D01*
X36871428Y-185297619D01*
X36871428Y-185773809D01*
X36776190Y-185964285D01*
X36680952Y-186059523D01*
X36490476Y-186154761D01*
X36014285Y-186154761D01*
X35823809Y-186059523D01*
X35728571Y-185964285D01*
X35883333Y-172404761D02*
X37121428Y-172404761D01*
X36454761Y-173166666D01*
X36740476Y-173166666D01*
X36930952Y-173261904D01*
X37026190Y-173357142D01*
X37121428Y-173547619D01*
X37121428Y-174023809D01*
X37026190Y-174214285D01*
X36930952Y-174309523D01*
X36740476Y-174404761D01*
X36169047Y-174404761D01*
X35978571Y-174309523D01*
X35883333Y-174214285D01*
X36109523Y-149261904D02*
X35919047Y-149166666D01*
X35823809Y-149071428D01*
X35728571Y-148880952D01*
X35728571Y-148785714D01*
X35823809Y-148595238D01*
X35919047Y-148500000D01*
X36109523Y-148404761D01*
X36490476Y-148404761D01*
X36680952Y-148500000D01*
X36776190Y-148595238D01*
X36871428Y-148785714D01*
X36871428Y-148880952D01*
X36776190Y-149071428D01*
X36680952Y-149166666D01*
X36490476Y-149261904D01*
X36109523Y-149261904D01*
X35919047Y-149357142D01*
X35823809Y-149452380D01*
X35728571Y-149642857D01*
X35728571Y-150023809D01*
X35823809Y-150214285D01*
X35919047Y-150309523D01*
X36109523Y-150404761D01*
X36490476Y-150404761D01*
X36680952Y-150309523D01*
X36776190Y-150214285D01*
X36871428Y-150023809D01*
X36871428Y-149642857D01*
X36776190Y-149452380D01*
X36680952Y-149357142D01*
X36490476Y-149261904D01*
X36169047Y-162404761D02*
X35026190Y-162404761D01*
X35597619Y-162404761D02*
X35597619Y-160404761D01*
X35407142Y-160690476D01*
X35216666Y-160880952D01*
X35026190Y-160976190D01*
X37407142Y-160404761D02*
X37597619Y-160404761D01*
X37788095Y-160500000D01*
X37883333Y-160595238D01*
X37978571Y-160785714D01*
X38073809Y-161166666D01*
X38073809Y-161642857D01*
X37978571Y-162023809D01*
X37883333Y-162214285D01*
X37788095Y-162309523D01*
X37597619Y-162404761D01*
X37407142Y-162404761D01*
X37216666Y-162309523D01*
X37121428Y-162214285D01*
X37026190Y-162023809D01*
X36930952Y-161642857D01*
X36930952Y-161166666D01*
X37026190Y-160785714D01*
X37121428Y-160595238D01*
X37216666Y-160500000D01*
X37407142Y-160404761D01*
X871428Y-150304761D02*
X871428Y-148304761D01*
X1633333Y-148304761D01*
X1823809Y-148400000D01*
X1919047Y-148495238D01*
X2014285Y-148685714D01*
X2014285Y-148971428D01*
X1919047Y-149161904D01*
X1823809Y-149257142D01*
X1633333Y-149352380D01*
X871428Y-149352380D01*
X4014285Y-150304761D02*
X3347619Y-149352380D01*
X2871428Y-150304761D02*
X2871428Y-148304761D01*
X3633333Y-148304761D01*
X3823809Y-148400000D01*
X3919047Y-148495238D01*
X4014285Y-148685714D01*
X4014285Y-148971428D01*
X3919047Y-149161904D01*
X3823809Y-149257142D01*
X3633333Y-149352380D01*
X2871428Y-149352380D01*
X4871428Y-149257142D02*
X5538095Y-149257142D01*
X5823809Y-150304761D02*
X4871428Y-150304761D01*
X4871428Y-148304761D01*
X5823809Y-148304761D01*
X1823809Y-152457142D02*
X2490476Y-152457142D01*
X2776190Y-153504761D02*
X1823809Y-153504761D01*
X1823809Y-151504761D01*
X2776190Y-151504761D01*
X3633333Y-153504761D02*
X3633333Y-151504761D01*
X4776190Y-153504761D01*
X4776190Y-151504761D01*
X2204761Y-138654761D02*
X1538095Y-137702380D01*
X1061904Y-138654761D02*
X1061904Y-136654761D01*
X1823809Y-136654761D01*
X2014285Y-136750000D01*
X2109523Y-136845238D01*
X2204761Y-137035714D01*
X2204761Y-137321428D01*
X2109523Y-137511904D01*
X2014285Y-137607142D01*
X1823809Y-137702380D01*
X1061904Y-137702380D01*
X2966666Y-138559523D02*
X3252380Y-138654761D01*
X3728571Y-138654761D01*
X3919047Y-138559523D01*
X4014285Y-138464285D01*
X4109523Y-138273809D01*
X4109523Y-138083333D01*
X4014285Y-137892857D01*
X3919047Y-137797619D01*
X3728571Y-137702380D01*
X3347619Y-137607142D01*
X3157142Y-137511904D01*
X3061904Y-137416666D01*
X2966666Y-137226190D01*
X2966666Y-137035714D01*
X3061904Y-136845238D01*
X3157142Y-136750000D01*
X3347619Y-136654761D01*
X3823809Y-136654761D01*
X4109523Y-136750000D01*
X4680952Y-136654761D02*
X5823809Y-136654761D01*
X5252380Y-138654761D02*
X5252380Y-136654761D01*
X36680952Y-136654761D02*
X36300000Y-136654761D01*
X36109523Y-136750000D01*
X36014285Y-136845238D01*
X35823809Y-137130952D01*
X35728571Y-137511904D01*
X35728571Y-138273809D01*
X35823809Y-138464285D01*
X35919047Y-138559523D01*
X36109523Y-138654761D01*
X36490476Y-138654761D01*
X36680952Y-138559523D01*
X36776190Y-138464285D01*
X36871428Y-138273809D01*
X36871428Y-137797619D01*
X36776190Y-137607142D01*
X36680952Y-137511904D01*
X36490476Y-137416666D01*
X36109523Y-137416666D01*
X35919047Y-137511904D01*
X35823809Y-137607142D01*
X35728571Y-137797619D01*
X36680952Y-125071428D02*
X36680952Y-126404761D01*
X36204761Y-124309523D02*
X35728571Y-125738095D01*
X36966666Y-125738095D01*
X34919047Y-114404761D02*
X33776190Y-114404761D01*
X34347619Y-114404761D02*
X34347619Y-112404761D01*
X34157142Y-112690476D01*
X33966666Y-112880952D01*
X33776190Y-112976190D01*
X37204761Y-112309523D02*
X35490476Y-114880952D01*
X37871428Y-113071428D02*
X37871428Y-114404761D01*
X37871428Y-113261904D02*
X37966666Y-113166666D01*
X38157142Y-113071428D01*
X38442857Y-113071428D01*
X38633333Y-113166666D01*
X38728571Y-113357142D01*
X38728571Y-114404761D01*
X2502380Y-126404761D02*
X2502380Y-124404761D01*
X3454761Y-126404761D02*
X3454761Y-124404761D01*
X4597619Y-126404761D01*
X4597619Y-124404761D01*
X2109523Y-114214285D02*
X2014285Y-114309523D01*
X1728571Y-114404761D01*
X1538095Y-114404761D01*
X1252380Y-114309523D01*
X1061904Y-114119047D01*
X966666Y-113928571D01*
X871428Y-113547619D01*
X871428Y-113261904D01*
X966666Y-112880952D01*
X1061904Y-112690476D01*
X1252380Y-112500000D01*
X1538095Y-112404761D01*
X1728571Y-112404761D01*
X2014285Y-112500000D01*
X2109523Y-112595238D01*
X3919047Y-114404761D02*
X2966666Y-114404761D01*
X2966666Y-112404761D01*
X4585714Y-114404761D02*
X4585714Y-112404761D01*
X5728571Y-114404761D02*
X4871428Y-113261904D01*
X5728571Y-112404761D02*
X4585714Y-113547619D01*
D11*
X17738095Y-105809523D02*
X15452380Y-105809523D01*
X16595238Y-105809523D02*
X16595238Y-101809523D01*
X16214285Y-102380952D01*
X15833333Y-102761904D01*
X15452380Y-102952380D01*
X22309523Y-101619047D02*
X18880952Y-106761904D01*
X23642857Y-103142857D02*
X23642857Y-105809523D01*
X23642857Y-103523809D02*
X23833333Y-103333333D01*
X24214285Y-103142857D01*
X24785714Y-103142857D01*
X25166666Y-103333333D01*
X25357142Y-103714285D01*
X25357142Y-105809523D01*
M02*
