G04 #@! TF.GenerationSoftware,KiCad,Pcbnew,(5.1.5-0)*
G04 #@! TF.CreationDate,2021-01-12T22:03:51-08:00*
G04 #@! TF.ProjectId,divideandconquer,64697669-6465-4616-9e64-636f6e717565,rev?*
G04 #@! TF.SameCoordinates,Original*
G04 #@! TF.FileFunction,Soldermask,Top*
G04 #@! TF.FilePolarity,Negative*
%FSLAX46Y46*%
G04 Gerber Fmt 4.6, Leading zero omitted, Abs format (unit mm)*
G04 Created by KiCad (PCBNEW (5.1.5-0)) date 2021-01-12 22:03:51*
%MOMM*%
%LPD*%
G04 APERTURE LIST*
%ADD10C,1.000000*%
%ADD11C,0.100000*%
%ADD12C,0.000002*%
%ADD13C,0.001000*%
G04 APERTURE END LIST*
D10*
X20100000Y-204750000D02*
X28100000Y-198750000D01*
X12100000Y-198750000D02*
X20100000Y-192750000D01*
X20100000Y-181000000D02*
X28100000Y-175000000D01*
X20350000Y-169000000D02*
X28100000Y-163000000D01*
X12100000Y-163000000D02*
X20100000Y-157000000D01*
X20100000Y-144750000D02*
X28100000Y-139250000D01*
X20100000Y-132750000D02*
X28100000Y-127250000D01*
X11850000Y-127000000D02*
X20100000Y-121000000D01*
X12100000Y-175000000D02*
X12100000Y-151250000D01*
X12250000Y-210500000D02*
X12250000Y-186750000D01*
X12100000Y-114750000D02*
X12100000Y-139000000D01*
X22100000Y-204750000D02*
G75*
G03X22100000Y-204750000I-2000000J0D01*
G01*
X22100000Y-192750000D02*
G75*
G03X22100000Y-192750000I-2000000J0D01*
G01*
X22100000Y-180750000D02*
G75*
G03X22100000Y-180750000I-2000000J0D01*
G01*
X22100000Y-169000000D02*
G75*
G03X22100000Y-169000000I-2000000J0D01*
G01*
X22100000Y-156750000D02*
G75*
G03X22100000Y-156750000I-2000000J0D01*
G01*
X22100000Y-145000000D02*
G75*
G03X22100000Y-145000000I-2000000J0D01*
G01*
X22100000Y-133000000D02*
G75*
G03X22100000Y-133000000I-2000000J0D01*
G01*
X22100000Y-121000000D02*
G75*
G03X22100000Y-121000000I-2000000J0D01*
G01*
D11*
G36*
X20660400Y-223747650D02*
G01*
X21212850Y-224027050D01*
X21539875Y-224354075D01*
X21674813Y-224584263D01*
X21906588Y-224854138D01*
X21600200Y-224770000D01*
X21346200Y-224693800D01*
X21168400Y-224630300D01*
X20793750Y-224496950D01*
X20434975Y-224303275D01*
X20174625Y-224017525D01*
X20050800Y-223855600D01*
X20114300Y-223893700D01*
X20088900Y-223830200D01*
X20152400Y-223658750D01*
X20660400Y-223747650D01*
G37*
X20660400Y-223747650D02*
X21212850Y-224027050D01*
X21539875Y-224354075D01*
X21674813Y-224584263D01*
X21906588Y-224854138D01*
X21600200Y-224770000D01*
X21346200Y-224693800D01*
X21168400Y-224630300D01*
X20793750Y-224496950D01*
X20434975Y-224303275D01*
X20174625Y-224017525D01*
X20050800Y-223855600D01*
X20114300Y-223893700D01*
X20088900Y-223830200D01*
X20152400Y-223658750D01*
X20660400Y-223747650D01*
G36*
X19866650Y-223766700D02*
G01*
X19498350Y-224198500D01*
X19060200Y-224471550D01*
X18679200Y-224611250D01*
X17929900Y-224776350D01*
X18412500Y-224249300D01*
X18806200Y-223982600D01*
X19174500Y-223779400D01*
X19644400Y-223703200D01*
X19669800Y-223703200D01*
X19866650Y-223766700D01*
G37*
X19866650Y-223766700D02*
X19498350Y-224198500D01*
X19060200Y-224471550D01*
X18679200Y-224611250D01*
X17929900Y-224776350D01*
X18412500Y-224249300D01*
X18806200Y-223982600D01*
X19174500Y-223779400D01*
X19644400Y-223703200D01*
X19669800Y-223703200D01*
X19866650Y-223766700D01*
G36*
X23073400Y-222738000D02*
G01*
X23505200Y-222763400D01*
X24083207Y-222773943D01*
X23403600Y-222928500D01*
X22971800Y-223119000D01*
X22628900Y-223334900D01*
X22209800Y-223500000D01*
X21676400Y-223588900D01*
X21231900Y-223614300D01*
X20654050Y-223595250D01*
X20076200Y-223576200D01*
X20012700Y-223500000D01*
X20228600Y-223436500D01*
X20235585Y-223385700D01*
X20551815Y-223258700D01*
X21085850Y-223030100D01*
X21638300Y-222826900D01*
X22032000Y-222712600D01*
X22476500Y-222712600D01*
X23073400Y-222738000D01*
G37*
X23073400Y-222738000D02*
X23505200Y-222763400D01*
X24083207Y-222773943D01*
X23403600Y-222928500D01*
X22971800Y-223119000D01*
X22628900Y-223334900D01*
X22209800Y-223500000D01*
X21676400Y-223588900D01*
X21231900Y-223614300D01*
X20654050Y-223595250D01*
X20076200Y-223576200D01*
X20012700Y-223500000D01*
X20228600Y-223436500D01*
X20235585Y-223385700D01*
X20551815Y-223258700D01*
X21085850Y-223030100D01*
X21638300Y-222826900D01*
X22032000Y-222712600D01*
X22476500Y-222712600D01*
X23073400Y-222738000D01*
G36*
X23060700Y-220083700D02*
G01*
X22819400Y-220579000D01*
X22616200Y-221036200D01*
X22355850Y-221556900D01*
X22082800Y-221912500D01*
X21771650Y-222325250D01*
X21301750Y-222718950D01*
X20800100Y-223055500D01*
X19695200Y-223652400D01*
X19720600Y-223322200D01*
X20025400Y-223271400D01*
X20273050Y-222833250D01*
X20488950Y-222369700D01*
X20654050Y-222039500D01*
X20838200Y-221747400D01*
X21003300Y-221429900D01*
X21282700Y-221074300D01*
X21562100Y-220756800D01*
X21892300Y-220464700D01*
X22235200Y-220236100D01*
X22616200Y-219982100D01*
X23009900Y-219715400D01*
X23543300Y-219321700D01*
X23060700Y-220083700D01*
G37*
X23060700Y-220083700D02*
X22819400Y-220579000D01*
X22616200Y-221036200D01*
X22355850Y-221556900D01*
X22082800Y-221912500D01*
X21771650Y-222325250D01*
X21301750Y-222718950D01*
X20800100Y-223055500D01*
X19695200Y-223652400D01*
X19720600Y-223322200D01*
X20025400Y-223271400D01*
X20273050Y-222833250D01*
X20488950Y-222369700D01*
X20654050Y-222039500D01*
X20838200Y-221747400D01*
X21003300Y-221429900D01*
X21282700Y-221074300D01*
X21562100Y-220756800D01*
X21892300Y-220464700D01*
X22235200Y-220236100D01*
X22616200Y-219982100D01*
X23009900Y-219715400D01*
X23543300Y-219321700D01*
X23060700Y-220083700D01*
G36*
X20215900Y-217950100D02*
G01*
X20317500Y-218432700D01*
X20431800Y-218889900D01*
X20514350Y-219220100D01*
X20577850Y-219601100D01*
X20622300Y-220121800D01*
X20622300Y-220655200D01*
X20571500Y-221239400D01*
X20508000Y-221760100D01*
X20365125Y-222255400D01*
X20066675Y-223271400D01*
X19853950Y-223220600D01*
X19619000Y-222306200D01*
X19445962Y-221442600D01*
X19461837Y-220655200D01*
X19514225Y-219994800D01*
X19676150Y-219220100D01*
X19911100Y-218407300D01*
X20038100Y-217632600D01*
X20101600Y-217111900D01*
X20215900Y-217950100D01*
G37*
X20215900Y-217950100D02*
X20317500Y-218432700D01*
X20431800Y-218889900D01*
X20514350Y-219220100D01*
X20577850Y-219601100D01*
X20622300Y-220121800D01*
X20622300Y-220655200D01*
X20571500Y-221239400D01*
X20508000Y-221760100D01*
X20365125Y-222255400D01*
X20066675Y-223271400D01*
X19853950Y-223220600D01*
X19619000Y-222306200D01*
X19445962Y-221442600D01*
X19461837Y-220655200D01*
X19514225Y-219994800D01*
X19676150Y-219220100D01*
X19911100Y-218407300D01*
X20038100Y-217632600D01*
X20101600Y-217111900D01*
X20215900Y-217950100D01*
G36*
X16596400Y-219524900D02*
G01*
X16913900Y-219766200D01*
X17479050Y-220083700D01*
X18075950Y-220515500D01*
X18450600Y-220896500D01*
X18850650Y-221461650D01*
X19447550Y-222642750D01*
X19746000Y-223207900D01*
X19758700Y-223220600D01*
X19428500Y-223246000D01*
X19326900Y-223195200D01*
X18971300Y-222947550D01*
X18564900Y-222579250D01*
X18234700Y-222230000D01*
X17879100Y-221798200D01*
X17599700Y-221379100D01*
X17409200Y-221125100D01*
X17155200Y-220667900D01*
X16901200Y-220299600D01*
X16659900Y-219880500D01*
X16380500Y-219321700D01*
X16596400Y-219524900D01*
G37*
X16596400Y-219524900D02*
X16913900Y-219766200D01*
X17479050Y-220083700D01*
X18075950Y-220515500D01*
X18450600Y-220896500D01*
X18850650Y-221461650D01*
X19447550Y-222642750D01*
X19746000Y-223207900D01*
X19758700Y-223220600D01*
X19428500Y-223246000D01*
X19326900Y-223195200D01*
X18971300Y-222947550D01*
X18564900Y-222579250D01*
X18234700Y-222230000D01*
X17879100Y-221798200D01*
X17599700Y-221379100D01*
X17409200Y-221125100D01*
X17155200Y-220667900D01*
X16901200Y-220299600D01*
X16659900Y-219880500D01*
X16380500Y-219321700D01*
X16596400Y-219524900D01*
G36*
X18002925Y-222703075D02*
G01*
X18339475Y-222798325D01*
X18603000Y-222890400D01*
X19301500Y-223296800D01*
X19331980Y-223324740D01*
X19339600Y-223309500D01*
X19339600Y-223322200D01*
X19331980Y-223324740D01*
X19250700Y-223487300D01*
X19644400Y-223627000D01*
X19434850Y-223652400D01*
X19041150Y-223677800D01*
X18564900Y-223677800D01*
X18120400Y-223614300D01*
X17637800Y-223500000D01*
X17244100Y-223385700D01*
X16837700Y-223157100D01*
X16520200Y-222928500D01*
X16113800Y-222801500D01*
X16761500Y-222750700D01*
X17294900Y-222712600D01*
X17758450Y-222706250D01*
X18002925Y-222703075D01*
G37*
X18002925Y-222703075D02*
X18339475Y-222798325D01*
X18603000Y-222890400D01*
X19301500Y-223296800D01*
X19331980Y-223324740D01*
X19339600Y-223309500D01*
X19339600Y-223322200D01*
X19331980Y-223324740D01*
X19250700Y-223487300D01*
X19644400Y-223627000D01*
X19434850Y-223652400D01*
X19041150Y-223677800D01*
X18564900Y-223677800D01*
X18120400Y-223614300D01*
X17637800Y-223500000D01*
X17244100Y-223385700D01*
X16837700Y-223157100D01*
X16520200Y-222928500D01*
X16113800Y-222801500D01*
X16761500Y-222750700D01*
X17294900Y-222712600D01*
X17758450Y-222706250D01*
X18002925Y-222703075D01*
G36*
X20000000Y-223284100D02*
G01*
X19788862Y-223477775D01*
X20007937Y-223573025D01*
X20758825Y-224115950D01*
X20577850Y-224211200D01*
X20000000Y-223754000D01*
X20012700Y-224846200D01*
X19898400Y-224706500D01*
X19892050Y-223817500D01*
X19936500Y-223817500D01*
X19555500Y-223601600D01*
X19269750Y-223449200D01*
X19434850Y-223169800D01*
X20000000Y-223284100D01*
G37*
X20000000Y-223284100D02*
X19788862Y-223477775D01*
X20007937Y-223573025D01*
X20758825Y-224115950D01*
X20577850Y-224211200D01*
X20000000Y-223754000D01*
X20012700Y-224846200D01*
X19898400Y-224706500D01*
X19892050Y-223817500D01*
X19936500Y-223817500D01*
X19555500Y-223601600D01*
X19269750Y-223449200D01*
X19434850Y-223169800D01*
X20000000Y-223284100D01*
D12*
X19479586Y-221596968D02*
X19486414Y-221663404D01*
X16060628Y-222785206D02*
G75*
G02X16062745Y-222780474I8833J-1112D01*
G01*
X16062745Y-222780475D02*
G75*
G02X16067170Y-222777659I6961J-6056D01*
G01*
X16067171Y-222777659D02*
G75*
G02X16076272Y-222775641I21302J-74534D01*
G01*
X16119176Y-222769928D02*
X16076272Y-222775641D01*
X16175382Y-222764579D02*
X16119176Y-222769928D01*
X16249523Y-222759059D02*
X16175382Y-222764579D01*
X16350810Y-222752773D02*
X16249523Y-222759059D01*
X16464250Y-222745535D02*
X16350810Y-222752773D01*
X16555159Y-222738329D02*
X16464250Y-222745535D01*
X16635946Y-222730142D02*
X16555159Y-222738329D01*
X16717522Y-222719967D02*
X16635946Y-222730142D01*
X16795588Y-222710763D02*
X16717522Y-222719967D01*
X16894548Y-222701810D02*
X16795588Y-222710763D01*
X17002731Y-222693949D02*
X16894548Y-222701810D01*
X17110022Y-222688039D02*
X17002731Y-222693949D01*
X17158893Y-222685783D02*
X17110022Y-222688039D01*
X17228084Y-222682592D02*
X17158893Y-222685783D01*
X17303746Y-222679104D02*
X17228084Y-222682592D01*
X17375022Y-222675821D02*
X17303746Y-222679104D01*
X17542892Y-222668843D02*
X17375022Y-222675821D01*
X17717753Y-222663052D02*
X17542892Y-222668843D01*
X17891324Y-222658069D02*
X17717753Y-222663052D01*
X17891324Y-222658069D02*
G75*
G02X17900393Y-222660507I462J-16364D01*
G01*
X17903889Y-222661762D02*
G75*
G02X17900393Y-222660507I1209J8867D01*
G01*
X17919388Y-222663775D02*
X17903889Y-222661762D01*
X17937771Y-222665819D02*
X17919388Y-222663775D01*
X17958715Y-222667713D02*
X17937771Y-222665819D01*
X19470054Y-221487481D02*
X19472649Y-221517124D01*
X20612378Y-223647086D02*
X20657522Y-223650622D01*
X20563537Y-223643388D02*
X20612378Y-223647086D01*
X20518194Y-223640058D02*
X20563537Y-223643388D01*
X20485022Y-223637755D02*
X20518194Y-223640058D01*
X20453615Y-223635486D02*
X20485022Y-223637755D01*
X20414584Y-223632326D02*
X20453615Y-223635486D01*
X20374606Y-223628849D02*
X20414584Y-223632326D01*
X20340022Y-223625579D02*
X20374606Y-223628849D01*
X20278512Y-223620402D02*
X20340022Y-223625579D01*
X20226901Y-223618134D02*
X20278512Y-223620402D01*
X18831364Y-221380665D02*
X18702584Y-221173051D01*
X18960123Y-221610277D02*
X18831364Y-221380665D01*
X20263811Y-223644985D02*
X20225611Y-223637712D01*
X20301820Y-223651668D02*
X20263811Y-223644985D01*
X20327522Y-223655429D02*
X20301820Y-223651668D01*
X20327522Y-223655429D02*
G75*
G02X20415850Y-223671576I-96572J-777952D01*
G01*
X20542223Y-223704860D02*
X20415850Y-223671576D01*
X20681550Y-223747366D02*
X20542223Y-223704860D01*
X20815022Y-223794009D02*
X20681550Y-223747366D01*
X20858649Y-223811046D02*
X20815022Y-223794009D01*
X20904637Y-223830487D02*
X20858649Y-223811046D01*
X20952079Y-223851930D02*
X20904637Y-223830487D01*
X21000085Y-223874987D02*
X20952079Y-223851930D01*
X21000085Y-223874988D02*
G75*
G02X21152408Y-223962179I-639105J-1293158D01*
G01*
X19600081Y-222347260D02*
X19602098Y-222357528D01*
X22620021Y-221015299D02*
G75*
G02X22619743Y-221016562I-3003J0D01*
G01*
X22611209Y-221034952D02*
X22619743Y-221016562D01*
X22601523Y-221055632D02*
X22611209Y-221034952D01*
X22590022Y-221079870D02*
X22601523Y-221055632D01*
X22578521Y-221104146D02*
X22590022Y-221079870D01*
X22568834Y-221124951D02*
X22578521Y-221104146D01*
X22560385Y-221143329D02*
X22568834Y-221124951D01*
X22560021Y-221144995D02*
G75*
G02X22560385Y-221143329I3995J0D01*
G01*
X22560021Y-221144995D02*
G75*
G02X22559292Y-221148297I-7840J0D01*
G01*
X22520677Y-221231421D02*
X22559292Y-221148297D01*
X22477758Y-221323339D02*
X22520677Y-221231421D01*
X22427442Y-221430277D02*
X22477758Y-221323339D01*
X22404537Y-221478174D02*
X22427442Y-221430277D01*
X22376801Y-221534980D02*
X22404537Y-221478174D01*
X22347730Y-221593998D02*
X22376801Y-221534980D01*
X22347731Y-221593997D02*
G75*
G02X22345022Y-221597777I-12801J6311D01*
G01*
X22343589Y-221599614D02*
G75*
G02X22345022Y-221597777I8150J-4881D01*
G01*
X22340177Y-221605418D02*
X22343588Y-221599615D01*
X22336238Y-221612435D02*
X22340177Y-221605418D01*
X22332041Y-221620277D02*
X22336238Y-221612435D01*
X22323008Y-221637116D02*
X22332041Y-221620277D01*
X22312309Y-221656309D02*
X22323008Y-221637116D01*
X22301117Y-221675799D02*
X22312309Y-221656309D01*
X22290563Y-221693576D02*
X22301117Y-221675799D01*
X22286359Y-221700601D02*
X22290563Y-221693576D01*
X22279895Y-221711546D02*
X22286359Y-221700601D01*
X22272630Y-221723921D02*
X22279895Y-221711546D01*
X22265538Y-221736076D02*
X22272630Y-221723921D01*
X22265539Y-221736076D02*
G75*
G02X22176513Y-221874537I-1594117J927112D01*
G01*
X22060765Y-222028716D02*
X22176513Y-221874537D01*
X21929379Y-222185115D02*
X22060765Y-222028716D01*
X21792561Y-222330767D02*
X21929379Y-222185115D01*
X21792561Y-222330767D02*
G75*
G02X21512462Y-222588051I-2992746J2977019D01*
G01*
X21202444Y-222826945D02*
X21512462Y-222588051D01*
X20846530Y-223058868D02*
X21202444Y-222826945D01*
X20427522Y-223295384D02*
X20846530Y-223058868D01*
X20407210Y-223306206D02*
X20427522Y-223295384D01*
X20383256Y-223319049D02*
X20407210Y-223306206D01*
X20359541Y-223331825D02*
X20383256Y-223319049D01*
X20340022Y-223342411D02*
X20359541Y-223331825D01*
X20322766Y-223351769D02*
X20340022Y-223342411D01*
X20306062Y-223360749D02*
X20322766Y-223351769D01*
X20291782Y-223368359D02*
X20306062Y-223360749D01*
X20284097Y-223372337D02*
X20291782Y-223368359D01*
X20267847Y-223382144D02*
G75*
G02X20284097Y-223372337I73169J-102870D01*
G01*
X20251467Y-223395234D02*
G75*
G02X20267847Y-223382145I125077J-139731D01*
G01*
X20238112Y-223408375D02*
G75*
G02X20251467Y-223395234I145858J-134885D01*
G01*
X20235021Y-223416267D02*
G75*
G02X20238111Y-223408375I11624J0D01*
G01*
X20235871Y-223419781D02*
G75*
G02X20235022Y-223416267I6849J3514D01*
G01*
X20238155Y-223421737D02*
G75*
G02X20235870Y-223419780I1247J3768D01*
G01*
X20242397Y-223422198D02*
G75*
G02X20238155Y-223421737I-1044J10127D01*
G01*
X20249641Y-223421103D02*
G75*
G02X20242398Y-223422199I-15184J75919D01*
G01*
X20268149Y-223415366D02*
G75*
G02X20249641Y-223421104I-36945J86448D01*
G01*
X20328992Y-223389023D02*
X20268149Y-223415366D01*
X20396972Y-223358528D02*
X20328992Y-223389023D01*
X20465022Y-223326643D02*
X20396972Y-223358528D01*
X20488044Y-223315656D02*
X20465022Y-223326643D01*
X20513850Y-223303400D02*
X20488044Y-223315656D01*
X20538478Y-223291750D02*
X20513850Y-223303400D01*
X20557522Y-223282798D02*
X20538478Y-223291750D01*
X20577497Y-223273393D02*
X20557522Y-223282798D01*
X20605600Y-223260054D02*
X20577497Y-223273393D01*
X20636247Y-223245444D02*
X20605600Y-223260054D01*
X20665022Y-223231661D02*
X20636247Y-223245444D01*
X20719936Y-223205361D02*
X20665022Y-223231661D01*
X20761702Y-223185535D02*
X20719936Y-223205361D01*
X20796707Y-223169148D02*
X20761702Y-223185535D01*
X20830022Y-223153816D02*
X20796707Y-223169148D01*
X20865354Y-223137574D02*
X20830022Y-223153816D01*
X20931774Y-223106749D02*
X20865354Y-223137574D01*
X20999694Y-223075132D02*
X20931774Y-223106749D01*
X21047522Y-223052733D02*
X20999694Y-223075132D01*
X21194502Y-222984657D02*
X21047522Y-223052733D01*
X21345333Y-222916903D02*
X21194502Y-222984657D01*
X21483653Y-222856658D02*
X21345333Y-222916903D01*
X21590022Y-222812680D02*
X21483653Y-222856658D01*
X21643337Y-222791611D02*
X21590022Y-222812680D01*
X21678135Y-222778359D02*
X21643337Y-222791611D01*
X21707932Y-222767769D02*
X21678135Y-222778359D01*
X21742522Y-222756289D02*
X21707932Y-222767769D01*
X21801620Y-222738467D02*
X21742522Y-222756289D01*
X21863071Y-222722384D02*
X21801620Y-222738467D01*
X21924574Y-222708597D02*
X21863071Y-222722384D01*
X21983822Y-222697669D02*
X21924574Y-222708597D01*
X22025789Y-222691782D02*
X21983822Y-222697669D01*
X22061324Y-222688975D02*
X22025789Y-222691782D01*
X22105896Y-222688261D02*
X22061324Y-222688975D01*
X22186322Y-222689370D02*
X22105896Y-222688261D01*
X22243234Y-222690735D02*
X22186322Y-222689370D01*
X22301607Y-222692737D02*
X22243234Y-222690735D01*
X22353546Y-222695032D02*
X22301607Y-222692737D01*
X22387522Y-222697267D02*
X22353546Y-222695032D01*
X22418287Y-222699702D02*
X22387522Y-222697267D01*
X22457662Y-222702627D02*
X22418287Y-222699702D01*
X22498691Y-222705545D02*
X22457662Y-222702627D01*
X22535022Y-222707990D02*
X22498691Y-222705545D01*
X22572057Y-222710418D02*
X22535022Y-222707990D01*
X22615318Y-222713293D02*
X22572057Y-222710418D01*
X22657867Y-222716150D02*
X22615318Y-222713293D01*
X22692522Y-222718510D02*
X22657867Y-222716150D01*
X22745145Y-222720680D02*
X22692522Y-222718510D01*
X22937897Y-222723130D02*
X22745145Y-222720680D01*
X23166132Y-222725346D02*
X22937897Y-222723130D01*
X23422522Y-222726997D02*
X23166132Y-222725346D01*
X23760194Y-222728974D02*
X23422522Y-222726997D01*
X23946598Y-222730953D02*
X23760194Y-222728974D01*
X24075267Y-222733028D02*
X23946598Y-222730953D01*
X24075267Y-222733028D02*
G75*
G02X24088772Y-222736729I-500J-28318D01*
G01*
X24088772Y-222736728D02*
G75*
G02X24097766Y-222745160I-13045J-22929D01*
G01*
X24097766Y-222745160D02*
G75*
G02X24100023Y-222755412I-12281J-8079D01*
G01*
X24100023Y-222755413D02*
G75*
G02X24094871Y-222765674I-18220J2725D01*
G01*
X24094870Y-222765673D02*
G75*
G02X24083207Y-222773943I-29662J29474D01*
G01*
X24083208Y-222773944D02*
G75*
G02X24065174Y-222781131I-63623J133418D01*
G01*
X24000776Y-222801805D02*
X24065174Y-222781131D01*
X23938093Y-222821392D02*
X24000776Y-222801805D01*
X23902522Y-222831377D02*
X23938093Y-222821392D01*
X23773171Y-222868169D02*
X23902522Y-222831377D01*
X23598786Y-222925203D02*
X23773171Y-222868169D01*
X23419767Y-222988251D02*
X23598786Y-222925203D01*
X23272522Y-223045274D02*
X23419767Y-222988251D01*
X23149199Y-223098078D02*
X23272522Y-223045274D01*
X23003927Y-223164591D02*
X23149199Y-223098078D01*
X22862600Y-223232490D02*
X23003927Y-223164591D01*
X22752522Y-223289199D02*
X22862600Y-223232490D01*
X22618504Y-223360433D02*
X22752522Y-223289199D01*
X22533440Y-223402696D02*
X22618504Y-223360433D01*
X22458987Y-223435131D02*
X22533440Y-223402696D01*
X22367522Y-223470178D02*
X22458987Y-223435131D01*
X22292423Y-223497307D02*
X22367522Y-223470178D01*
X22252851Y-223510723D02*
X22292423Y-223497307D01*
X22213400Y-223522598D02*
X22252851Y-223510723D01*
X22140022Y-223543034D02*
X22213400Y-223522598D01*
X22020804Y-223572545D02*
X22140022Y-223543034D01*
X21883620Y-223600279D02*
X22020804Y-223572545D01*
X21745884Y-223623156D02*
X21883620Y-223600279D01*
X21625022Y-223637838D02*
X21745884Y-223623156D01*
X21601013Y-223640138D02*
X21625022Y-223637838D01*
X21566506Y-223643487D02*
X21601013Y-223640138D01*
X21528547Y-223647195D02*
X21566506Y-223643487D01*
X21492522Y-223650739D02*
X21528547Y-223647195D01*
X21358935Y-223658145D02*
X21492522Y-223650739D01*
X21086190Y-223659806D02*
X21358935Y-223658145D01*
X20813070Y-223657895D02*
X21086190Y-223659806D01*
X20657522Y-223650622D02*
X20813070Y-223657895D01*
X20184700Y-223617876D02*
X20226901Y-223618134D01*
X20180021Y-223622584D02*
G75*
G02X20184700Y-223617876I4709J-1D01*
G01*
X20181145Y-223624719D02*
G75*
G02X20180022Y-223622585I1466J2134D01*
G01*
X20185529Y-223627293D02*
G75*
G02X20181144Y-223624719I15819J31971D01*
G01*
X19110636Y-221888155D02*
X19094341Y-221858062D01*
X19121221Y-221907777D02*
X19110636Y-221888155D01*
X20511249Y-222283226D02*
X20464982Y-222380277D01*
X20596807Y-222112328D02*
X20511249Y-222283226D01*
X20683548Y-221941636D02*
X20596807Y-222112328D01*
X20724269Y-221866527D02*
X20683548Y-221941636D01*
X20738678Y-221841366D02*
X20724269Y-221866527D01*
X20749929Y-221821636D02*
X20738678Y-221841366D01*
X20759609Y-221804555D02*
X20749929Y-221821636D01*
X20769048Y-221787777D02*
X20759609Y-221804555D01*
X20775983Y-221775624D02*
X20769048Y-221787777D01*
X20787590Y-221755731D02*
X20775983Y-221775624D01*
X20800976Y-221732985D02*
X20787590Y-221755731D01*
X20814458Y-221710277D02*
X20800976Y-221732985D01*
X20827575Y-221688268D02*
X20814458Y-221710277D01*
X20839864Y-221667624D02*
X20827575Y-221688268D01*
X20850197Y-221650243D02*
X20839864Y-221667624D01*
X20854889Y-221642307D02*
X20850197Y-221650243D01*
X20899259Y-221570233D02*
X20854889Y-221642307D01*
X20962393Y-221473837D02*
X20899259Y-221570233D01*
X21029939Y-221374271D02*
X20962393Y-221473837D01*
X21089543Y-221290277D02*
X21029939Y-221374271D01*
X21146819Y-221213641D02*
X21089543Y-221290277D01*
X21217177Y-221123061D02*
X21146819Y-221213641D01*
X21284639Y-221038542D02*
X21217177Y-221123061D01*
X21327847Y-220987777D02*
X21284639Y-221038542D01*
X22635064Y-220981889D02*
X22644416Y-220961958D01*
X22627187Y-220998945D02*
X22635064Y-220981889D01*
X22620294Y-221014044D02*
X22627187Y-220998945D01*
X22620022Y-221015299D02*
G75*
G02X22620294Y-221014044I3026J0D01*
G01*
X19075985Y-221824222D02*
X19058037Y-221791194D01*
X19094341Y-221858062D02*
X19075985Y-221824222D01*
X21912904Y-224882618D02*
G75*
G02X21912962Y-224890934I-10582J-4233D01*
G01*
X21912961Y-224890934D02*
G75*
G02X21910571Y-224893771I-5287J2029D01*
G01*
X21910571Y-224893771D02*
G75*
G02X21905675Y-224895933I-11328J19028D01*
G01*
X21905675Y-224895934D02*
G75*
G02X21898837Y-224897326I-10822J35655D01*
G01*
X21898838Y-224897325D02*
G75*
G02X21890414Y-224897777I-8424J78322D01*
G01*
X20393609Y-222541378D02*
X20385721Y-222560277D01*
X20420843Y-222479384D02*
X20393609Y-222541378D01*
X20447720Y-222418594D02*
X20420843Y-222479384D01*
X20464982Y-222380277D02*
X20447720Y-222418594D01*
X21890414Y-224897778D02*
G75*
G02X21875921Y-224896825I0J110737D01*
G01*
X21875921Y-224896825D02*
G75*
G02X21863016Y-224893965I9971J75534D01*
G01*
X21863016Y-224893965D02*
G75*
G02X21846281Y-224887761I53575J170197D01*
G01*
X21815022Y-224874046D02*
X21846281Y-224887761D01*
X21751838Y-224847762D02*
X21815022Y-224874046D01*
X21685736Y-224824319D02*
X21751838Y-224847762D01*
X21614120Y-224802862D02*
X21685736Y-224824319D01*
X21534294Y-224782548D02*
X21614120Y-224802862D01*
X21397606Y-224749292D02*
X21534294Y-224782548D01*
X19130128Y-221924323D02*
X19121221Y-221907777D01*
X19140235Y-221943074D02*
X19130128Y-221924323D01*
X20253305Y-222886243D02*
X20244490Y-222906661D01*
X20263179Y-222862378D02*
X20253305Y-222886243D01*
X20274497Y-222834151D02*
X20263179Y-222862378D01*
X20287768Y-222800277D02*
X20274497Y-222834151D01*
X20293655Y-222785324D02*
X20287768Y-222800277D01*
X20300109Y-222769333D02*
X20293655Y-222785324D01*
X20306173Y-222754627D02*
X20300109Y-222769333D01*
X21152408Y-223962178D02*
G75*
G02X21290509Y-224065987I-743206J-1132487D01*
G01*
X21290509Y-224065987D02*
G75*
G02X21408604Y-224181641I-808447J-943632D01*
G01*
X21408604Y-224181641D02*
G75*
G02X21501099Y-224304225I-691614J-618042D01*
G01*
X21593113Y-224447827D02*
X21501099Y-224304225D01*
X21658325Y-224544131D02*
X21593113Y-224447827D01*
X21719278Y-224626381D02*
X21658325Y-224544131D01*
X21794380Y-224720045D02*
X21719278Y-224626381D01*
X21837947Y-224772822D02*
X21794380Y-224720045D01*
X21851771Y-224789809D02*
X21837947Y-224772822D01*
X21862079Y-224803035D02*
X21851771Y-224789809D01*
X19634498Y-219270277D02*
X19620636Y-219320269D01*
X20310691Y-222744082D02*
X20306173Y-222754627D01*
X20314264Y-222735606D02*
X20310691Y-222744082D01*
X20317281Y-222727667D02*
X20314264Y-222735606D01*
X20319553Y-222720959D02*
X20317281Y-222727667D01*
X20320021Y-222717966D02*
G75*
G02X20319553Y-222720959I-9805J0D01*
G01*
X20320021Y-222717965D02*
G75*
G02X20320501Y-222714968I9600J-1D01*
G01*
X20322848Y-222708209D02*
X20320501Y-222714968D01*
X20325958Y-222700210D02*
X20322848Y-222708209D01*
X20329642Y-222691661D02*
X20325958Y-222700210D01*
X20343866Y-222659784D02*
X20329642Y-222691661D01*
X20352969Y-222638632D02*
X20343866Y-222659784D01*
X20359166Y-222623491D02*
X20352969Y-222638632D01*
X20360007Y-222619082D02*
G75*
G02X20359166Y-222623491I-11749J-43D01*
G01*
X20360007Y-222619082D02*
G75*
G02X20360459Y-222616632I6738J25D01*
G01*
X20363194Y-222609786D02*
X20360459Y-222616632D01*
X20366707Y-222601673D02*
X20363194Y-222609786D01*
X20370874Y-222592777D02*
X20366707Y-222601673D01*
X20375330Y-222583430D02*
X20370874Y-222592777D01*
X20379723Y-222573949D02*
X20375330Y-222583430D01*
X20383495Y-222565577D02*
X20379723Y-222573949D01*
X20385721Y-222560277D02*
X20383495Y-222565577D01*
X21877281Y-224823316D02*
X21862079Y-224803035D01*
X21893683Y-224846689D02*
X21877281Y-224823316D01*
X21893683Y-224846690D02*
G75*
G02X21905528Y-224866666I-194982J-129113D01*
G01*
X21905528Y-224866666D02*
G75*
G02X21912903Y-224882618I-148143J-78170D01*
G01*
X21337272Y-220977192D02*
X21327847Y-220987777D01*
X21357031Y-220954856D02*
X21337272Y-220977192D01*
X21380430Y-220928361D02*
X21357031Y-220954856D01*
X21405193Y-220900277D02*
X21380430Y-220928361D01*
X21513704Y-220783304D02*
X21405193Y-220900277D01*
X21646053Y-220652079D02*
X21513704Y-220783304D01*
X21777297Y-220530085D02*
X21646053Y-220652079D01*
X21880250Y-220444220D02*
X21777297Y-220530085D01*
X21967428Y-220378727D02*
X21880250Y-220444220D01*
X22046415Y-220323278D02*
X21967428Y-220378727D01*
X22148457Y-220256351D02*
X22046415Y-220323278D01*
X22327522Y-220142769D02*
X22148457Y-220256351D01*
X22389629Y-220103344D02*
X22327522Y-220142769D01*
X22456365Y-220060469D02*
X22389629Y-220103344D01*
X22517965Y-220020471D02*
X22456365Y-220060469D01*
X22562522Y-219990991D02*
X22517965Y-220020471D01*
X22697222Y-219899298D02*
X22562522Y-219990991D01*
X22820866Y-219812251D02*
X22697222Y-219899298D01*
X22968690Y-219704774D02*
X22820866Y-219812251D01*
X23190022Y-219540957D02*
X22968690Y-219704774D01*
X23233928Y-219508350D02*
X23190022Y-219540957D01*
X23276959Y-219476446D02*
X23233928Y-219508350D01*
X23314011Y-219449020D02*
X23276959Y-219476446D01*
X23335022Y-219433543D02*
X23314011Y-219449020D01*
X23351209Y-219421646D02*
X23335022Y-219433543D01*
X23368850Y-219408643D02*
X23351209Y-219421646D01*
X23385320Y-219396471D02*
X23368850Y-219408643D01*
X23397522Y-219387414D02*
X23385320Y-219396471D01*
X23437477Y-219359270D02*
X23397522Y-219387414D01*
X23492952Y-219323208D02*
X23437477Y-219359270D01*
X23549438Y-219287759D02*
X23492952Y-219323208D01*
X23549438Y-219287760D02*
G75*
G02X23564761Y-219281269I28471J-45884D01*
G01*
X23564761Y-219281268D02*
G75*
G02X23577504Y-219279947I10974J-43717D01*
G01*
X23577504Y-219279947D02*
G75*
G02X23584070Y-219284069I-305J-7776D01*
G01*
X23584070Y-219284070D02*
G75*
G02X23584527Y-219292656I-8997J-4784D01*
G01*
X23584527Y-219292655D02*
G75*
G02X23577667Y-219305539I-63438J25510D01*
G01*
X23565329Y-219322507D02*
X23577667Y-219305539D01*
X23545976Y-219346851D02*
X23565329Y-219322507D01*
X23526429Y-219370518D02*
X23545976Y-219346851D01*
X23526429Y-219370517D02*
G75*
G02X23516963Y-219380277I-72727J61071D01*
G01*
X23499895Y-219398072D02*
G75*
G02X23516963Y-219380277I123500J-101373D01*
G01*
X23445948Y-219464257D02*
X23499895Y-219398072D01*
X23391922Y-219531904D02*
X23445948Y-219464257D01*
X23351038Y-219585277D02*
X23391922Y-219531904D01*
X23274034Y-219693698D02*
X23351038Y-219585277D01*
X23213980Y-219789678D02*
X23274034Y-219693698D01*
X23148409Y-219910452D02*
X23213980Y-219789678D01*
X23045463Y-220115277D02*
X23148409Y-219910452D01*
X23012314Y-220182396D02*
X23045463Y-220115277D01*
X22982337Y-220243418D02*
X23012314Y-220182396D01*
X22957300Y-220294652D02*
X22982337Y-220243418D01*
X22948740Y-220312777D02*
X22957300Y-220294652D01*
X22933870Y-220344997D02*
X22948740Y-220312777D01*
X22898656Y-220420485D02*
X22933870Y-220344997D01*
X22863434Y-220495815D02*
X22898656Y-220420485D01*
X22842505Y-220540277D02*
X22863434Y-220495815D01*
X22836270Y-220553483D02*
X22842505Y-220540277D01*
X22826572Y-220574090D02*
X22836270Y-220553483D01*
X22815623Y-220597387D02*
X22826572Y-220574090D01*
X22804881Y-220620277D02*
X22815623Y-220597387D01*
X22752656Y-220731614D02*
X22804881Y-220620277D01*
X22705466Y-220832138D02*
X22752656Y-220731614D01*
X22666565Y-220914935D02*
X22705466Y-220832138D01*
X22644416Y-220961958D02*
X22666565Y-220914935D01*
X19456089Y-220270173D02*
X19450432Y-220347777D01*
X19491414Y-219934273D02*
X19489359Y-219951746D01*
X19499812Y-221775277D02*
X19502112Y-221791881D01*
X17220022Y-223404199D02*
X17285345Y-223431444D01*
X17172193Y-223382386D02*
X17220022Y-223404199D01*
X17096008Y-223345116D02*
X17172193Y-223382386D01*
X17013874Y-223304229D02*
X17096008Y-223345116D01*
X17958715Y-222667712D02*
G75*
G02X18037077Y-222677867I-68767J-838110D01*
G01*
X18134167Y-222697547D02*
X18037077Y-222677867D01*
X18238541Y-222723880D02*
X18134167Y-222697547D01*
X18340022Y-222754629D02*
X18238541Y-222723880D01*
X18411345Y-222778648D02*
X18340022Y-222754629D01*
X18462918Y-222797344D02*
X18411345Y-222778648D01*
X18514767Y-222818060D02*
X18462918Y-222797344D01*
X18587522Y-222848978D02*
X18514767Y-222818060D01*
X18636095Y-222871297D02*
X18587522Y-222848978D01*
X18722054Y-222913707D02*
X18636095Y-222871297D01*
X18807800Y-222957003D02*
X18722054Y-222913707D01*
X18857522Y-222983724D02*
X18807800Y-222957003D01*
X18874485Y-222993290D02*
X18857522Y-222983724D01*
X18892381Y-223003359D02*
X18874485Y-222993290D01*
X18908665Y-223012503D02*
X18892381Y-223003359D01*
X18920022Y-223018855D02*
X18908665Y-223012503D01*
X18967579Y-223046350D02*
X18920022Y-223018855D01*
X19029264Y-223083880D02*
X18967579Y-223046350D01*
X19094127Y-223124579D02*
X19029264Y-223083880D01*
X19152522Y-223162529D02*
X19094127Y-223124579D01*
X19269621Y-223239782D02*
X19152522Y-223162529D01*
X19284217Y-223242895D02*
G75*
G02X19269621Y-223239782I-3296J20324D01*
G01*
X19285880Y-223236626D02*
G75*
G02X19284217Y-223242894I-2231J-2763D01*
G01*
X19186635Y-223156997D02*
X19285879Y-223236626D01*
X19076355Y-223068615D02*
X19186635Y-223156997D01*
X18955655Y-222971064D02*
X19076355Y-223068615D01*
X18846190Y-222882022D02*
X18955655Y-222971064D01*
X18797522Y-222841366D02*
X18846190Y-222882022D01*
X18560218Y-222628564D02*
X18797522Y-222841366D01*
X18331976Y-222403889D02*
X18560218Y-222628564D01*
X18126302Y-222181368D02*
X18331976Y-222403889D01*
X17957522Y-221975413D02*
X18126302Y-222181368D01*
X17947035Y-221961730D02*
X17957522Y-221975413D01*
X17930933Y-221940881D02*
X17947035Y-221961730D01*
X17912804Y-221917489D02*
X17930933Y-221940881D01*
X17895094Y-221894720D02*
X17912804Y-221917489D01*
X17850771Y-221836679D02*
X17895094Y-221894720D01*
X17798022Y-221765362D02*
X17850771Y-221836679D01*
X17743294Y-221689659D02*
X17798022Y-221765362D01*
X17692611Y-221617777D02*
X17743294Y-221689659D01*
X17615794Y-221505183D02*
X17692611Y-221617777D01*
X17503314Y-221336047D02*
X17615794Y-221505183D01*
X17392960Y-221168079D02*
X17503314Y-221336047D01*
X17327810Y-221065811D02*
X17392960Y-221168079D01*
X17312852Y-221041839D02*
X17327810Y-221065811D01*
X17293501Y-221011028D02*
X17312852Y-221041839D01*
X17273210Y-220978853D02*
X17293501Y-221011028D01*
X17255098Y-220950277D02*
X17273210Y-220978853D01*
X17232466Y-220914465D02*
X17255098Y-220950277D01*
X17194344Y-220853699D02*
X17232466Y-220914465D01*
X17150478Y-220783586D02*
X17194344Y-220853699D01*
X17106299Y-220712777D02*
X17150478Y-220783586D01*
X17063762Y-220644522D02*
X17106299Y-220712777D01*
X17024866Y-220582137D02*
X17063762Y-220644522D01*
X16992249Y-220529846D02*
X17024866Y-220582137D01*
X16980010Y-220510277D02*
X16992249Y-220529846D01*
X16937630Y-220441590D02*
X16980010Y-220510277D01*
X16867790Y-220326106D02*
X16937630Y-220441590D01*
X16797729Y-220209490D02*
X16867790Y-220326106D01*
X16772165Y-220165277D02*
X16797729Y-220209490D01*
X16769328Y-220160248D02*
X16772165Y-220165277D01*
X16765217Y-220153074D02*
X16769328Y-220160248D01*
X16760674Y-220145211D02*
X16765217Y-220153074D01*
X16756342Y-220137777D02*
X16760674Y-220145211D01*
X16727044Y-220087083D02*
X16756342Y-220137777D01*
X16668968Y-219985057D02*
X16727044Y-220087083D01*
X16610346Y-219881702D02*
X16668968Y-219985057D01*
X16588754Y-219842777D02*
X16610346Y-219881702D01*
X16579351Y-219825536D02*
X16588754Y-219842777D01*
X16567835Y-219804543D02*
X16579351Y-219825536D01*
X16556140Y-219783314D02*
X16567835Y-219804543D01*
X16546150Y-219765277D02*
X16556140Y-219783314D01*
X16517394Y-219710797D02*
X16546150Y-219765277D01*
X16462647Y-219600518D02*
X16517394Y-219710797D01*
X16402078Y-219477345D02*
X16462647Y-219600518D01*
X16402079Y-219477345D02*
G75*
G02X16400022Y-219468491I18028J8854D01*
G01*
X16399530Y-219465636D02*
G75*
G02X16400022Y-219468491I-8045J-2855D01*
G01*
X16397209Y-219459477D02*
X16399530Y-219465636D01*
X16394113Y-219452210D02*
X16397209Y-219459477D01*
X16390446Y-219444500D02*
X16394113Y-219452210D01*
X16390446Y-219444500D02*
G75*
G02X16375567Y-219410779I353949J176315D01*
G01*
X16362376Y-219372674D02*
X16375567Y-219410779D01*
X16352797Y-219337022D02*
X16362376Y-219372674D01*
X16352798Y-219337021D02*
G75*
G02X16350022Y-219312709I105091J24312D01*
G01*
X16350022Y-219312709D02*
G75*
G02X16352313Y-219301889I26694J0D01*
G01*
X16352313Y-219301889D02*
G75*
G02X16358734Y-219293767I19006J-8428D01*
G01*
X16358734Y-219293767D02*
G75*
G02X16368045Y-219289963I11741J-15439D01*
G01*
X16368045Y-219289963D02*
G75*
G02X16378409Y-219291121I2783J-22042D01*
G01*
X19299378Y-223249505D02*
G75*
G02X19307816Y-223255118I-42084J-72409D01*
G01*
X19293690Y-223248010D02*
G75*
G02X19299378Y-223249505I137J-11046D01*
G01*
X19292163Y-223250169D02*
G75*
G02X19293690Y-223248010I1547J525D01*
G01*
X19295021Y-223255277D02*
G75*
G02X19292163Y-223250169I12406J10295D01*
G01*
X19298004Y-223258135D02*
G75*
G02X19295022Y-223255277I10995J14458D01*
G01*
X19301808Y-223260528D02*
G75*
G02X19298004Y-223258136I11528J22553D01*
G01*
X19305813Y-223262133D02*
G75*
G02X19301808Y-223260528I6762J22671D01*
G01*
X19309384Y-223262619D02*
G75*
G02X19305813Y-223262133I-229J11691D01*
G01*
X19313439Y-223262263D02*
G75*
G02X19309384Y-223262618I-4642J29680D01*
G01*
X19314221Y-223261131D02*
G75*
G02X19313438Y-223262263I-929J-194D01*
G01*
X19313100Y-223259282D02*
G75*
G02X19314221Y-223261131I-2062J-2515D01*
G01*
X19307816Y-223255118D02*
X19313100Y-223259282D01*
X20082574Y-217069496D02*
G75*
G02X20091771Y-217060571I24520J-16067D01*
G01*
X20091771Y-217060571D02*
G75*
G02X20102879Y-217057745I10107J-16484D01*
G01*
X20102879Y-217057745D02*
G75*
G02X20113607Y-217061707I-996J-19203D01*
G01*
X20113606Y-217061707D02*
G75*
G02X20121759Y-217071527I-17650J-22947D01*
G01*
X20121760Y-217071527D02*
G75*
G02X20133695Y-217104885I-124673J-63421D01*
G01*
X20149153Y-217180779D02*
X20133695Y-217104885D01*
X20166249Y-217280893D02*
X20149153Y-217180779D01*
X20184771Y-217407777D02*
X20166249Y-217280893D01*
X20189195Y-217439649D02*
X20184771Y-217407777D01*
X20193664Y-217471324D02*
X20189195Y-217439649D01*
X20197609Y-217498853D02*
X20193664Y-217471324D01*
X20200058Y-217515277D02*
X20197609Y-217498853D01*
X20202198Y-217529274D02*
X20200058Y-217515277D01*
X20204846Y-217546746D02*
X20202198Y-217529274D01*
X20207550Y-217564693D02*
X20204846Y-217546746D01*
X20209879Y-217580277D02*
X20207550Y-217564693D01*
X20250474Y-217845675D02*
X20209879Y-217580277D01*
X20282146Y-218033530D02*
X20250474Y-217845675D01*
X20312899Y-218191341D02*
X20282146Y-218033530D01*
X20349454Y-218355379D02*
X20312899Y-218191341D01*
X20374492Y-218458731D02*
X20349454Y-218355379D01*
X20406786Y-218586990D02*
X20374492Y-218458731D01*
X20438947Y-218712230D02*
X20406786Y-218586990D01*
X20449546Y-218747777D02*
X20438947Y-218712230D01*
X20451577Y-218754390D02*
X20449546Y-218747777D01*
X20454324Y-218764684D02*
X20451577Y-218754390D01*
X20457226Y-218776332D02*
X20454324Y-218764684D01*
X20459866Y-218787777D02*
X20457226Y-218776332D01*
X20462509Y-218799406D02*
X20459866Y-218787777D01*
X20465418Y-218811606D02*
X20462509Y-218799406D01*
X20468167Y-218822654D02*
X20465418Y-218811606D01*
X20470219Y-218830277D02*
X20468167Y-218822654D01*
X20491211Y-218911306D02*
X20470219Y-218830277D01*
X20520319Y-219039530D02*
X20491211Y-218911306D01*
X20547583Y-219167148D02*
X20520319Y-219039530D01*
X20560471Y-219240277D02*
X20547583Y-219167148D01*
X20562659Y-219254272D02*
X20560471Y-219240277D01*
X20565675Y-219271746D02*
X20562659Y-219254272D01*
X20568972Y-219289692D02*
X20565675Y-219271746D01*
X20572053Y-219305277D02*
X20568972Y-219289692D01*
X20583969Y-219371401D02*
X20572053Y-219305277D01*
X20598521Y-219470705D02*
X20583969Y-219371401D01*
X20613047Y-219582002D02*
X20598521Y-219470705D01*
X20625375Y-219690277D02*
X20613047Y-219582002D01*
X20633692Y-219777355D02*
X20625375Y-219690277D01*
X20641238Y-219873355D02*
X20633692Y-219777355D01*
X20649412Y-219996795D02*
X20641238Y-219873355D01*
X20659993Y-220175277D02*
X20649412Y-219996795D01*
X20664428Y-220311801D02*
X20659993Y-220175277D01*
X20663207Y-220473699D02*
X20664428Y-220311801D01*
D13*
X20656205Y-220680188D02*
X20663207Y-220473699D01*
X20642243Y-220960277D02*
X20656205Y-220680188D01*
D12*
X20638309Y-221013260D02*
X20642243Y-220960277D01*
X20629073Y-221107488D02*
X20638309Y-221013260D01*
X20618702Y-221204897D02*
X20629073Y-221107488D01*
X20609856Y-221277777D02*
X20618702Y-221204897D01*
X20607613Y-221295020D02*
X20609856Y-221277777D01*
X20604937Y-221316012D02*
X20607613Y-221295020D01*
X20602271Y-221337241D02*
X20604937Y-221316012D01*
X20600050Y-221355277D02*
X20602271Y-221337241D01*
X20597806Y-221372962D02*
X20600050Y-221355277D01*
X20595075Y-221393074D02*
X20597806Y-221372962D01*
X20592299Y-221412476D02*
X20595075Y-221393074D01*
X20589942Y-221427777D02*
X20592299Y-221412476D01*
X20587622Y-221442744D02*
X20589942Y-221427777D01*
X20584972Y-221461012D02*
X20587622Y-221442744D01*
X20582418Y-221479518D02*
X20584972Y-221461012D01*
X20580389Y-221495277D02*
X20582418Y-221479518D01*
X20561335Y-221617675D02*
X20580389Y-221495277D01*
X20521650Y-221819623D02*
X20561335Y-221617675D01*
X20478766Y-222021371D02*
X20521650Y-221819623D01*
X20447485Y-222145277D02*
X20478766Y-222021371D01*
X20444512Y-222155948D02*
X20447485Y-222145277D01*
X20441467Y-222167340D02*
X20444512Y-222155948D01*
X20438776Y-222177807D02*
X20441467Y-222167340D01*
X20436995Y-222185277D02*
X20438776Y-222177807D01*
X20427390Y-222223770D02*
X20436995Y-222185277D01*
X20397648Y-222331388D02*
X20427390Y-222223770D01*
X20367938Y-222437284D02*
X20397648Y-222331388D01*
X20350778Y-222495277D02*
X20367938Y-222437284D01*
X20346460Y-222509274D02*
X20350778Y-222495277D01*
X20341080Y-222526746D02*
X20346460Y-222509274D01*
X20335561Y-222544693D02*
X20341080Y-222526746D01*
X20330776Y-222560277D02*
X20335561Y-222544693D01*
X20313681Y-222614093D02*
X20330776Y-222560277D01*
X20282504Y-222708295D02*
X20313681Y-222614093D01*
X20249871Y-222805470D02*
X20282504Y-222708295D01*
X20224966Y-222877777D02*
X20249871Y-222805470D01*
X20214918Y-222906638D02*
X20224966Y-222877777D01*
X20205745Y-222933387D02*
X20214918Y-222906638D01*
X20198156Y-222955862D02*
X20205745Y-222933387D01*
X20195217Y-222965277D02*
X20198156Y-222955862D01*
X20192515Y-222974002D02*
X20195217Y-222965277D01*
X20186887Y-222990861D02*
X20192515Y-222974002D01*
X20180133Y-223010670D02*
X20186887Y-222990861D01*
X20172951Y-223031307D02*
X20180133Y-223010670D01*
X20155426Y-223084707D02*
X20172951Y-223031307D01*
X20155298Y-223104677D02*
G75*
G02X20155426Y-223084707I33535J9771D01*
G01*
X20162456Y-223105327D02*
G75*
G02X20155299Y-223104677I-3451J1730D01*
G01*
X20182120Y-223062777D02*
X20162455Y-223105327D01*
X20188098Y-223048783D02*
X20182120Y-223062777D01*
X20194664Y-223033598D02*
X20188098Y-223048783D01*
X20200839Y-223019472D02*
X20194664Y-223033598D01*
X20205464Y-223009082D02*
X20200839Y-223019472D01*
X20209124Y-223000664D02*
X20205464Y-223009082D01*
X20212214Y-222992904D02*
X20209124Y-223000664D01*
X20214584Y-222986362D02*
X20212214Y-222992904D01*
X20215021Y-222983771D02*
G75*
G02X20214584Y-222986362I-7897J0D01*
G01*
X20215021Y-222983771D02*
G75*
G02X20215482Y-222981197I7424J0D01*
G01*
X20217959Y-222974785D02*
X20215482Y-222981197D01*
X20221191Y-222967186D02*
X20217959Y-222974785D01*
X20225022Y-222958958D02*
X20221191Y-222967186D01*
X20228851Y-222950659D02*
X20225022Y-222958958D01*
X20232084Y-222942840D02*
X20228851Y-222950659D01*
X20234508Y-222936216D02*
X20232084Y-222942840D01*
X20235021Y-222933153D02*
G75*
G02X20234508Y-222936216I-9398J0D01*
G01*
X20235022Y-222933153D02*
G75*
G02X20235503Y-222930064I10154J0D01*
G01*
X20237803Y-222923264D02*
X20235503Y-222930064D01*
X20240864Y-222915223D02*
X20237803Y-222923264D01*
X20244490Y-222906661D02*
X20240864Y-222915223D01*
X19014682Y-221708855D02*
X19010103Y-221700347D01*
X19014682Y-221708855D02*
G75*
G02X19015022Y-221710212I-2538J-1357D01*
G01*
X19004695Y-221690555D02*
X18998277Y-221679295D01*
X19010103Y-221700347D02*
X19004695Y-221690555D01*
X17013874Y-223304228D02*
G75*
G02X17005022Y-223297537I13556J27135D01*
G01*
X17003092Y-223295897D02*
G75*
G02X17005022Y-223297537I-5453J-8377D01*
G01*
X16995912Y-223291285D02*
X17003091Y-223295898D01*
X16987281Y-223285930D02*
X16995912Y-223291285D01*
X16977522Y-223280101D02*
X16987281Y-223285930D01*
X16967356Y-223274103D02*
X16977522Y-223280101D01*
X16957487Y-223268234D02*
X16967356Y-223274103D01*
X16949047Y-223263177D02*
X16957487Y-223268234D01*
X16944424Y-223260341D02*
X16949047Y-223263177D01*
X16940259Y-223257797D02*
X16944424Y-223260341D01*
X16934094Y-223254150D02*
X16940259Y-223257797D01*
X16927233Y-223250155D02*
X16934094Y-223254150D01*
X16920629Y-223246375D02*
X16927233Y-223250155D01*
X16920629Y-223246375D02*
G75*
G02X16910474Y-223239975I63669J112281D01*
G01*
X16882016Y-223220005D02*
X16910474Y-223239975D01*
X16848261Y-223195940D02*
X16882016Y-223220005D01*
X16811226Y-223169103D02*
X16848261Y-223195940D01*
X16633114Y-223046773D02*
X16811226Y-223169103D01*
X16486099Y-222963678D02*
G75*
G02X16633114Y-223046773I-631554J-1288984D01*
G01*
X16326951Y-222896610D02*
G75*
G02X16486098Y-222963679I-510715J-1434241D01*
G01*
X16108826Y-222824954D02*
X16326951Y-222896611D01*
X16076926Y-222815042D02*
X16108826Y-222824954D01*
X16076927Y-222815042D02*
G75*
G02X16066329Y-222810106I14167J44263D01*
G01*
X16066329Y-222810106D02*
G75*
G02X16061681Y-222804159I5938J9430D01*
G01*
X16061681Y-222804159D02*
G75*
G02X16060076Y-222794254I30438J10015D01*
G01*
X16060076Y-222794254D02*
G75*
G02X16060628Y-222785206I70514J241D01*
G01*
X21285632Y-224719595D02*
X21397606Y-224749292D01*
X21198054Y-224693690D02*
X21285632Y-224719595D01*
X21198055Y-224693690D02*
G75*
G02X21142522Y-224673101I169046J541143D01*
G01*
X21137486Y-224671027D02*
X21142522Y-224673101D01*
X21130318Y-224668265D02*
X21137486Y-224671027D01*
X21122455Y-224665344D02*
X21130318Y-224668265D01*
X21115022Y-224662696D02*
X21122455Y-224665344D01*
X21107177Y-224659863D02*
X21115022Y-224662696D01*
X21098034Y-224656363D02*
X21107177Y-224659863D01*
X21089059Y-224652778D02*
X21098034Y-224656363D01*
X21081766Y-224649691D02*
X21089059Y-224652778D01*
X21075511Y-224647043D02*
X21081766Y-224649691D01*
X21069752Y-224644808D02*
X21075511Y-224647043D01*
X21064899Y-224643092D02*
X21069752Y-224644808D01*
X21062993Y-224642777D02*
G75*
G02X21064899Y-224643092I0J-5933D01*
G01*
X21062993Y-224642778D02*
G75*
G02X21059189Y-224642029I0J10037D01*
G01*
X20964667Y-224603305D02*
X21059189Y-224642029D01*
X20881032Y-224568860D02*
X20964667Y-224603305D01*
X20835022Y-224549343D02*
X20881032Y-224568860D01*
X20784226Y-224526283D02*
X20835022Y-224549343D01*
X20714035Y-224492512D02*
X20784226Y-224526283D01*
X20646005Y-224458811D02*
X20714035Y-224492512D01*
X20610022Y-224439386D02*
X20646005Y-224458811D01*
X20584250Y-224424488D02*
X20610022Y-224439386D01*
X20565712Y-224413819D02*
X20584250Y-224424488D01*
X20552040Y-224406010D02*
X20565712Y-224413819D01*
X20542522Y-224400665D02*
X20552040Y-224406010D01*
X20502423Y-224376144D02*
X20542522Y-224400665D01*
X20452352Y-224341071D02*
X20502423Y-224376144D01*
X20399465Y-224300893D02*
X20452352Y-224341071D01*
X20350022Y-224260105D02*
X20399465Y-224300893D01*
X20350022Y-224260106D02*
G75*
G02X20270238Y-224183873I695822J808099D01*
G01*
X20270238Y-224183873D02*
G75*
G02X20198595Y-224099661I781638J737557D01*
G01*
X20198596Y-224099661D02*
G75*
G02X20135002Y-224007259I878955J673003D01*
G01*
X20135001Y-224007258D02*
G75*
G02X20079292Y-223906527I1044989J643704D01*
G01*
X20066672Y-223882136D02*
X20079292Y-223906527D01*
X20058836Y-223871479D02*
G75*
G02X20066672Y-223882136I-34612J-33661D01*
G01*
X20052757Y-223869559D02*
G75*
G02X20058835Y-223871478I1254J-6611D01*
G01*
X20047112Y-223873439D02*
G75*
G02X20052758Y-223869558I7228J-4468D01*
G01*
X20045653Y-223878424D02*
G75*
G02X20047112Y-223873440I9773J-154D01*
G01*
X20043420Y-224021549D02*
X20045654Y-223878424D01*
X20041301Y-224181187D02*
X20043420Y-224021549D01*
X20039456Y-224369690D02*
X20041301Y-224181187D01*
X20037665Y-224558576D02*
X20039456Y-224369690D01*
X20035717Y-224719472D02*
X20037665Y-224558576D01*
X20033721Y-224862425D02*
X20035717Y-224719472D01*
X20033721Y-224862424D02*
G75*
G02X20032565Y-224871527I-41009J581D01*
G01*
X20032565Y-224871527D02*
G75*
G02X20031012Y-224875830I-20606J5007D01*
G01*
X20031011Y-224875830D02*
G75*
G02X20028627Y-224879473I-15676J7660D01*
G01*
X20028628Y-224879473D02*
G75*
G02X20025815Y-224881944I-9855J8380D01*
G01*
X20025814Y-224881943D02*
G75*
G02X20022998Y-224882777I-2816J4339D01*
G01*
X20022998Y-224882778D02*
G75*
G02X20018527Y-224881046I0J6637D01*
G01*
X19995478Y-224859837D02*
X20018527Y-224881046D01*
X19969013Y-224834616D02*
X19995478Y-224859837D01*
X19938906Y-224804683D02*
X19969013Y-224834616D01*
X19861648Y-224726588D02*
X19938906Y-224804683D01*
X19858335Y-224426359D02*
X19861648Y-224726588D01*
X19857066Y-224301023D02*
X19858335Y-224426359D01*
X19855995Y-224172704D02*
X19857066Y-224301023D01*
X19855237Y-224058674D02*
X19855995Y-224172704D01*
X19855022Y-223984454D02*
X19855237Y-224058674D01*
X19854720Y-223923849D02*
X19855022Y-223984454D01*
X19853728Y-223879717D02*
X19854720Y-223923849D01*
X19852369Y-223844990D02*
X19853728Y-223879717D01*
X19850060Y-223842777D02*
G75*
G02X19852369Y-223844990I-1J-2312D01*
G01*
X19847054Y-223844088D02*
G75*
G02X19850059Y-223842777I3005J-2787D01*
G01*
X19836630Y-223855560D02*
X19847055Y-223844089D01*
X19824618Y-223869615D02*
X19836630Y-223855560D01*
X19811309Y-223886292D02*
X19824618Y-223869615D01*
X19719679Y-223996929D02*
X19811309Y-223886292D01*
X19621336Y-224101497D02*
X19719679Y-223996929D01*
X19522618Y-224193723D02*
X19621336Y-224101497D01*
X19522618Y-224193723D02*
G75*
G02X19430022Y-224266907I-785138J898227D01*
G01*
X19293872Y-224357727D02*
X19430022Y-224266907D01*
X19160543Y-224434003D02*
X19293872Y-224357727D01*
X19020115Y-224500989D02*
X19160543Y-224434003D01*
X18862522Y-224563854D02*
X19020115Y-224500989D01*
X18806592Y-224583017D02*
X18862522Y-224563854D01*
X18714001Y-224612067D02*
X18806592Y-224583017D01*
X18620530Y-224640489D02*
X18714001Y-224612067D01*
X18620531Y-224640489D02*
G75*
G02X18585022Y-224649348I-111894J372905D01*
G01*
X18575788Y-224651427D02*
X18585022Y-224649348D01*
X18526256Y-224663853D02*
X18575788Y-224651427D01*
X18468574Y-224678414D02*
X18526256Y-224663853D01*
X18402522Y-224695214D02*
X18468574Y-224678414D01*
X18335223Y-224712309D02*
X18402522Y-224695214D01*
X18273647Y-224727802D02*
X18335223Y-224712309D01*
X18222000Y-224740673D02*
X18273647Y-224727802D01*
X18202522Y-224745258D02*
X18222000Y-224740673D01*
X18189392Y-224748201D02*
X18202522Y-224745258D01*
X18174725Y-224751527D02*
X18189392Y-224748201D01*
X18160765Y-224754724D02*
X18174725Y-224751527D01*
X18150022Y-224757222D02*
X18160765Y-224754724D01*
X18126495Y-224762411D02*
X18150022Y-224757222D01*
X18069890Y-224774006D02*
X18126495Y-224762411D01*
X18006655Y-224786751D02*
X18069890Y-224774006D01*
X17946570Y-224798613D02*
X18006655Y-224786751D01*
X17930754Y-224801291D02*
X17946570Y-224798613D01*
X17930754Y-224801291D02*
G75*
G02X17919488Y-224802124I-11660J81132D01*
G01*
X17919487Y-224802124D02*
G75*
G02X17910662Y-224801315I-221J46104D01*
G01*
X17910662Y-224801315D02*
G75*
G02X17902820Y-224798823I6419J33790D01*
G01*
X17902820Y-224798822D02*
G75*
G02X17893799Y-224785506I6402J14050D01*
G01*
X17893799Y-224785506D02*
G75*
G02X17899252Y-224766313I31269J1487D01*
G01*
X17899252Y-224766313D02*
G75*
G02X17927331Y-224731110I257590J-176662D01*
G01*
X18009998Y-224642550D02*
X17927331Y-224731110D01*
X18047172Y-224603045D02*
X18009998Y-224642550D01*
X18086499Y-224561019D02*
X18047172Y-224603045D01*
X18122351Y-224522510D02*
X18086499Y-224561019D01*
X18147522Y-224495213D02*
X18122351Y-224522510D01*
X18190178Y-224449392D02*
X18147522Y-224495213D01*
X18226361Y-224412256D02*
X18190178Y-224449392D01*
X18263224Y-224376564D02*
X18226361Y-224412256D01*
X18307926Y-224335277D02*
X18263224Y-224376564D01*
X18327115Y-224317823D02*
X18307926Y-224335277D01*
X18343687Y-224302653D02*
X18327115Y-224317823D01*
X18358008Y-224289477D02*
X18343687Y-224302653D01*
X18360021Y-224287406D02*
G75*
G02X18358008Y-224289477I-19819J17259D01*
G01*
X18360021Y-224287407D02*
G75*
G02X18362103Y-224285349I14795J-12883D01*
G01*
X18380147Y-224270015D02*
X18362103Y-224285349D01*
X18400885Y-224252487D02*
X18380147Y-224270015D01*
X18425022Y-224232231D02*
X18400885Y-224252487D01*
X18530470Y-224147248D02*
X18425022Y-224232231D01*
X18630076Y-224073754D02*
X18530470Y-224147248D01*
X18730113Y-224007287D02*
X18630076Y-224073754D01*
X18836795Y-223943515D02*
X18730113Y-224007287D01*
X18870714Y-223925268D02*
X18836795Y-223943515D01*
X18926262Y-223897389D02*
X18870714Y-223925268D01*
X18982493Y-223869994D02*
X18926262Y-223897389D01*
X19020022Y-223852890D02*
X18982493Y-223869994D01*
X19059757Y-223835775D02*
X19020022Y-223852890D01*
X19079737Y-223827382D02*
X19059757Y-223835775D01*
X19095779Y-223821025D02*
X19079737Y-223827382D01*
X19116272Y-223813347D02*
X19095779Y-223821025D01*
X19129186Y-223808599D02*
X19116272Y-223813347D01*
X19144287Y-223803046D02*
X19129186Y-223808599D01*
X19159151Y-223797580D02*
X19144287Y-223803046D01*
X19171272Y-223793122D02*
X19159151Y-223797580D01*
X19206104Y-223781114D02*
X19171272Y-223793122D01*
X19263274Y-223763030D02*
X19206104Y-223781114D01*
X19320340Y-223745577D02*
X19263274Y-223763030D01*
X19347522Y-223738372D02*
X19320340Y-223745577D01*
X19403341Y-223724277D02*
X19347522Y-223738372D01*
X19468904Y-223705292D02*
X19403341Y-223724277D01*
X19530034Y-223686296D02*
X19468904Y-223705292D01*
X19529691Y-223683050D02*
G75*
G02X19530034Y-223686296I-161J-1658D01*
G01*
X19527681Y-223683099D02*
G75*
G02X19529690Y-223683051I1204J-8298D01*
G01*
X19519709Y-223684287D02*
X19527681Y-223683099D01*
X19510305Y-223685799D02*
X19519709Y-223684287D01*
X19499690Y-223687644D02*
X19510305Y-223685799D01*
X19474754Y-223691359D02*
X19499690Y-223687644D01*
X19430359Y-223696376D02*
X19474754Y-223691359D01*
X19365074Y-223703070D02*
X19430359Y-223696376D01*
X19263645Y-223712894D02*
X19365074Y-223703070D01*
X19235352Y-223715035D02*
X19263645Y-223712894D01*
X19181795Y-223717839D02*
X19235352Y-223715035D01*
X19118915Y-223720681D02*
X19181795Y-223717839D01*
X19053645Y-223723169D02*
X19118915Y-223720681D01*
X18908340Y-223726041D02*
X19053645Y-223723169D01*
X18781748Y-223723781D02*
X18908340Y-223726041D01*
X18636661Y-223715269D02*
X18781748Y-223723781D01*
X18425022Y-223697707D02*
X18636661Y-223715269D01*
X18364771Y-223691119D02*
X18425022Y-223697707D01*
X18281738Y-223679690D02*
X18364771Y-223691119D01*
X18184250Y-223664788D02*
X18281738Y-223679690D01*
X18077522Y-223647109D02*
X18184250Y-223664788D01*
X17971857Y-223627377D02*
X18077522Y-223647109D01*
X17854034Y-223602215D02*
X17971857Y-223627377D01*
X17737305Y-223574654D02*
X17854034Y-223602215D01*
X17635022Y-223547637D02*
X17737305Y-223574654D01*
X17619381Y-223543300D02*
X17635022Y-223547637D01*
X17603397Y-223538981D02*
X17619381Y-223543300D01*
X17589207Y-223535245D02*
X17603397Y-223538981D01*
X17580022Y-223532966D02*
X17589207Y-223535245D01*
X17571722Y-223530851D02*
X17580022Y-223532966D01*
X17561053Y-223527839D02*
X17571722Y-223530851D01*
X17549914Y-223524499D02*
X17561053Y-223527839D01*
X17540022Y-223521321D02*
X17549914Y-223524499D01*
X17528663Y-223517567D02*
X17540022Y-223521321D01*
X17512381Y-223512256D02*
X17528663Y-223517567D01*
X17494485Y-223506458D02*
X17512381Y-223512256D01*
X17477522Y-223501004D02*
X17494485Y-223506458D01*
X17413400Y-223479584D02*
X17477522Y-223501004D01*
X17349573Y-223456485D02*
X17413400Y-223479584D01*
X17285345Y-223431444D02*
X17349573Y-223456485D01*
X20191588Y-223629800D02*
G75*
G02X20185529Y-223627293I15601J46284D01*
G01*
X20198772Y-223631862D02*
G75*
G02X20191589Y-223629800I19033J79840D01*
G01*
X20225611Y-223637712D02*
X20198772Y-223631862D01*
X16378409Y-219291121D02*
G75*
G02X16393800Y-219299519I-19851J-54684D01*
G01*
X16433573Y-219330444D02*
X16393800Y-219299519D01*
X16480950Y-219369163D02*
X16433573Y-219330444D01*
X16533636Y-219414359D02*
X16480950Y-219369163D01*
X16698174Y-219552127D02*
X16533636Y-219414359D01*
X16843791Y-219660502D02*
X16698174Y-219552127D01*
X17012714Y-219769733D02*
X16843791Y-219660502D01*
X17257522Y-219914069D02*
X17012714Y-219769733D01*
X19571306Y-219506615D02*
X19547577Y-219615220D01*
X19494593Y-219906118D02*
X19492916Y-219920277D01*
X19286280Y-222220659D02*
X19246362Y-222142777D01*
X19400735Y-222449065D02*
X19286280Y-222220659D01*
X19593793Y-219422863D02*
X19590420Y-219435871D01*
X19609796Y-222390277D02*
X19612223Y-222399554D01*
X17980696Y-220396196D02*
X17949731Y-220371569D01*
X18034121Y-220440261D02*
X17980696Y-220396196D01*
X19655296Y-219199293D02*
X19640717Y-219248596D01*
X19041545Y-221760738D02*
X19027657Y-221734784D01*
X19058037Y-221791194D02*
X19041545Y-221760738D01*
X19607389Y-222380966D02*
X19609796Y-222390277D01*
X19530667Y-222712450D02*
G75*
G02X19530022Y-222709625I5867J2825D01*
G01*
X19570128Y-222794375D02*
X19530666Y-222712451D01*
X19493686Y-221728002D02*
X19499812Y-221775277D01*
X19590420Y-219435871D02*
X19587276Y-219447511D01*
X19610559Y-219357297D02*
X19602925Y-219386256D01*
X19622102Y-222443678D02*
X19625424Y-222458215D01*
X19619792Y-222432777D02*
X19622102Y-222443678D01*
X19617434Y-222892202D02*
X19570128Y-222794375D01*
X19680900Y-223022769D02*
X19617434Y-222892202D01*
X19994836Y-217595277D02*
X19983743Y-217688355D01*
X18390510Y-220769449D02*
X18307249Y-220684817D01*
X18457941Y-220843323D02*
X18390510Y-220769449D01*
X19015378Y-221711643D02*
G75*
G02X19015022Y-221710212I2699J1431D01*
G01*
X19027657Y-221734784D02*
X19015377Y-221711643D01*
X19457431Y-221334943D02*
X19460146Y-221374262D01*
X19436197Y-220790776D02*
X19441200Y-221010800D01*
X17312323Y-219945700D02*
X17257522Y-219914069D01*
X17365350Y-219976582D02*
X17312323Y-219945700D01*
X17410594Y-220003170D02*
X17365350Y-219976582D01*
X19462884Y-221410118D02*
X19465155Y-221435277D01*
X20064571Y-217113376D02*
G75*
G02X20082574Y-217069496I122645J-24684D01*
G01*
X19983743Y-217688355D02*
X19966692Y-217818323D01*
X19966692Y-217818323D02*
X19948247Y-217952128D01*
X19948247Y-217952128D02*
X19932296Y-218060277D01*
X19594799Y-222321609D02*
X19597913Y-222336189D01*
X19672754Y-219140648D02*
X19655296Y-219199293D01*
X19665004Y-222616641D02*
X19688021Y-222705658D01*
X19652687Y-222567777D02*
X19665004Y-222616641D01*
X19439221Y-220585430D02*
X19436197Y-220790776D01*
X19497211Y-219888074D02*
X19494593Y-219906118D01*
X19596912Y-219410277D02*
X19593793Y-219422863D01*
X18091890Y-220488546D02*
X18034121Y-220440261D01*
X18142522Y-220531589D02*
X18091890Y-220488546D01*
X19640717Y-219248596D02*
X19634498Y-219270277D01*
X19546332Y-222082567D02*
X19569739Y-222208706D01*
X19472649Y-221517124D02*
X19474772Y-221542777D01*
X19602098Y-222357528D02*
X19604678Y-222369391D01*
X19620636Y-219320269D02*
X19610559Y-219357297D01*
X19612223Y-222399554D02*
X19614997Y-222411012D01*
X19774298Y-218790004D02*
X19691595Y-219077777D01*
X19524401Y-221953232D02*
X19546332Y-222082567D01*
X19486414Y-221663404D02*
X19493686Y-221728002D01*
X17435022Y-220017924D02*
X17410594Y-220003170D01*
X17452943Y-220028971D02*
X17435022Y-220017924D01*
X17471647Y-220040441D02*
X17452943Y-220028971D01*
X17488524Y-220050743D02*
X17471647Y-220040441D01*
X17500022Y-220057694D02*
X17488524Y-220050743D01*
X19597913Y-222336189D02*
X19600081Y-222347260D01*
X19455160Y-221297777D02*
X19457431Y-221334943D01*
X19891058Y-218296192D02*
X19839522Y-218534580D01*
X19602925Y-219386256D02*
X19596912Y-219410277D01*
X19932296Y-218060277D02*
X19891058Y-218296192D01*
X19614997Y-222411012D02*
X19617668Y-222422709D01*
X19465155Y-221435277D02*
X19467410Y-221458549D01*
X19510387Y-221855277D02*
X19524401Y-221953232D01*
X19647592Y-222547213D02*
X19652687Y-222567777D01*
X19641964Y-222524684D02*
X19647592Y-222547213D01*
X17838770Y-220288408D02*
X17712111Y-220198124D01*
X17949731Y-220371569D02*
X17838770Y-220288408D01*
X19466010Y-220160768D02*
X19456089Y-220270173D01*
X19585002Y-219455277D02*
X19571306Y-219506615D01*
X18990348Y-221665352D02*
X18980163Y-221647052D01*
X18998277Y-221679295D02*
X18990348Y-221665352D01*
X19175179Y-222007925D02*
X19157627Y-221975277D01*
X19196050Y-222047166D02*
X19175179Y-222007925D01*
X19793771Y-223203775D02*
G75*
G02X19778450Y-223204191I-7814J5438D01*
G01*
X19801642Y-223177617D02*
G75*
G02X19793772Y-223203776I-43965J-1036D01*
G01*
X19591336Y-222306189D02*
X19594799Y-222321609D01*
X19504965Y-221813215D02*
X19507876Y-221835494D01*
X19500258Y-219869324D02*
X19497211Y-219888074D01*
X19492916Y-219920277D02*
X19491414Y-219934273D01*
X19474772Y-221542777D02*
X19479586Y-221596968D01*
X19219842Y-222092235D02*
X19196050Y-222047166D01*
X19246362Y-222142777D02*
X19219842Y-222092235D01*
X19476782Y-220053128D02*
X19466010Y-220160768D01*
X19839522Y-218534580D02*
X19774298Y-218790004D01*
X19547577Y-219615220D02*
X19525096Y-219724104D01*
X19529044Y-222705488D02*
X19400735Y-222449065D01*
X19529045Y-222705488D02*
G75*
G02X19530022Y-222709625I-8269J-4137D01*
G01*
X17590998Y-220115371D02*
X17500022Y-220057694D01*
X17712111Y-220198124D02*
X17590998Y-220115371D01*
X18576981Y-220992044D02*
X18457941Y-220843323D01*
X18702584Y-221173051D02*
X18576981Y-220992044D01*
X19525096Y-219724104D02*
X19514785Y-219785277D01*
X19691595Y-219077777D02*
X19672754Y-219140648D01*
X19467410Y-221458549D02*
X19470054Y-221487481D01*
X19503300Y-219852777D02*
X19500258Y-219869324D01*
X19512686Y-219799437D02*
X19509713Y-219817481D01*
X19485041Y-219985277D02*
X19476782Y-220053128D01*
X19762789Y-222990486D02*
X19784316Y-223078882D01*
X19729915Y-222865277D02*
X19762789Y-222990486D01*
X19629114Y-222473688D02*
X19632635Y-222487777D01*
X19625424Y-222458215D02*
X19629114Y-222473688D01*
X19588031Y-222292260D02*
X19591336Y-222306189D01*
X19506422Y-219836231D02*
X19503300Y-219852777D01*
X20042634Y-217232589D02*
X20019274Y-217390793D01*
X19489359Y-219951746D02*
X19487122Y-219969693D01*
X19604678Y-222369391D02*
X19607389Y-222380966D01*
X19569739Y-222208706D02*
X19588031Y-222292260D01*
X19450432Y-220347777D02*
X19439221Y-220585430D01*
X20064571Y-217113377D02*
X20042634Y-217232589D01*
X19514785Y-219785277D02*
X19512686Y-219799437D01*
X19711965Y-222797481D02*
X19729915Y-222865277D01*
X19688021Y-222705658D02*
X19711965Y-222797481D01*
X19507876Y-221835494D02*
X19510387Y-221855277D01*
X19636652Y-222503561D02*
X19641964Y-222524684D01*
X19632635Y-222487777D02*
X19636652Y-222503561D01*
X19460146Y-221374262D02*
X19462884Y-221410118D01*
X19797789Y-223142241D02*
G75*
G02X19801641Y-223177617I-205937J-40320D01*
G01*
X19784316Y-223078882D02*
X19797790Y-223142241D01*
X19149971Y-221961116D02*
X19140235Y-221943074D01*
X19157627Y-221975277D02*
X19149971Y-221961116D01*
X19617668Y-222422709D02*
X19619792Y-222432777D01*
X19509713Y-219817481D02*
X19506422Y-219836231D01*
X18220584Y-220601527D02*
X18142522Y-220531589D01*
X18307249Y-220684817D02*
X18220584Y-220601527D01*
X19502112Y-221791881D02*
X19504965Y-221813215D01*
X19487122Y-219969693D02*
X19485041Y-219985277D01*
X19587276Y-219447511D02*
X19585002Y-219455277D01*
X20019274Y-217390793D02*
X19994836Y-217595277D01*
X18969544Y-221627713D02*
X18960123Y-221610277D01*
X18980163Y-221647052D02*
X18969544Y-221627713D01*
X19745824Y-223152971D02*
X19680900Y-223022769D01*
X19778449Y-223204191D02*
G75*
G02X19745824Y-223152971I252153J196613D01*
G01*
X19441200Y-221010800D02*
X19455160Y-221297777D01*
D11*
G36*
X28704975Y-207708585D02*
G01*
X29004528Y-207768170D01*
X29568874Y-208001930D01*
X30076772Y-208341296D01*
X30508704Y-208773228D01*
X30848070Y-209281126D01*
X31081830Y-209845472D01*
X31201000Y-210444578D01*
X31201000Y-211055422D01*
X31081830Y-211654528D01*
X30848070Y-212218874D01*
X30508704Y-212726772D01*
X30076772Y-213158704D01*
X29568874Y-213498070D01*
X29004528Y-213731830D01*
X28704975Y-213791415D01*
X28405423Y-213851000D01*
X27794577Y-213851000D01*
X27495025Y-213791415D01*
X27195472Y-213731830D01*
X26631126Y-213498070D01*
X26123228Y-213158704D01*
X25691296Y-212726772D01*
X25351930Y-212218874D01*
X25118170Y-211654528D01*
X24999000Y-211055422D01*
X24999000Y-210444578D01*
X25118170Y-209845472D01*
X25351930Y-209281126D01*
X25691296Y-208773228D01*
X26123228Y-208341296D01*
X26631126Y-208001930D01*
X27195472Y-207768170D01*
X27495025Y-207708585D01*
X27794577Y-207649000D01*
X28405423Y-207649000D01*
X28704975Y-207708585D01*
G37*
G36*
X12704975Y-207708585D02*
G01*
X13004528Y-207768170D01*
X13568874Y-208001930D01*
X14076772Y-208341296D01*
X14508704Y-208773228D01*
X14848070Y-209281126D01*
X15081830Y-209845472D01*
X15201000Y-210444578D01*
X15201000Y-211055422D01*
X15081830Y-211654528D01*
X14848070Y-212218874D01*
X14508704Y-212726772D01*
X14076772Y-213158704D01*
X13568874Y-213498070D01*
X13004528Y-213731830D01*
X12704975Y-213791415D01*
X12405423Y-213851000D01*
X11794577Y-213851000D01*
X11495025Y-213791415D01*
X11195472Y-213731830D01*
X10631126Y-213498070D01*
X10123228Y-213158704D01*
X9691296Y-212726772D01*
X9351930Y-212218874D01*
X9118170Y-211654528D01*
X8999000Y-211055422D01*
X8999000Y-210444578D01*
X9118170Y-209845472D01*
X9351930Y-209281126D01*
X9691296Y-208773228D01*
X10123228Y-208341296D01*
X10631126Y-208001930D01*
X11195472Y-207768170D01*
X11495025Y-207708585D01*
X11794577Y-207649000D01*
X12405423Y-207649000D01*
X12704975Y-207708585D01*
G37*
G36*
X20296217Y-203156665D02*
G01*
X20566995Y-203210525D01*
X20858358Y-203331212D01*
X21120578Y-203506422D01*
X21343578Y-203729422D01*
X21518788Y-203991642D01*
X21639475Y-204283005D01*
X21701000Y-204592315D01*
X21701000Y-204907685D01*
X21639475Y-205216995D01*
X21518788Y-205508358D01*
X21343578Y-205770578D01*
X21120578Y-205993578D01*
X20858358Y-206168788D01*
X20566995Y-206289475D01*
X20296217Y-206343335D01*
X20257686Y-206351000D01*
X19942314Y-206351000D01*
X19903783Y-206343335D01*
X19633005Y-206289475D01*
X19341642Y-206168788D01*
X19079422Y-205993578D01*
X18856422Y-205770578D01*
X18681212Y-205508358D01*
X18560525Y-205216995D01*
X18499000Y-204907685D01*
X18499000Y-204592315D01*
X18560525Y-204283005D01*
X18681212Y-203991642D01*
X18856422Y-203729422D01*
X19079422Y-203506422D01*
X19341642Y-203331212D01*
X19633005Y-203210525D01*
X19903783Y-203156665D01*
X19942314Y-203149000D01*
X20257686Y-203149000D01*
X20296217Y-203156665D01*
G37*
G36*
X12704975Y-195708585D02*
G01*
X13004528Y-195768170D01*
X13568874Y-196001930D01*
X14076772Y-196341296D01*
X14508704Y-196773228D01*
X14848070Y-197281126D01*
X15081830Y-197845472D01*
X15201000Y-198444578D01*
X15201000Y-199055422D01*
X15081830Y-199654528D01*
X14848070Y-200218874D01*
X14508704Y-200726772D01*
X14076772Y-201158704D01*
X13568874Y-201498070D01*
X13004528Y-201731830D01*
X12704975Y-201791415D01*
X12405423Y-201851000D01*
X11794577Y-201851000D01*
X11495025Y-201791415D01*
X11195472Y-201731830D01*
X10631126Y-201498070D01*
X10123228Y-201158704D01*
X9691296Y-200726772D01*
X9351930Y-200218874D01*
X9118170Y-199654528D01*
X8999000Y-199055422D01*
X8999000Y-198444578D01*
X9118170Y-197845472D01*
X9351930Y-197281126D01*
X9691296Y-196773228D01*
X10123228Y-196341296D01*
X10631126Y-196001930D01*
X11195472Y-195768170D01*
X11495025Y-195708585D01*
X11794577Y-195649000D01*
X12405423Y-195649000D01*
X12704975Y-195708585D01*
G37*
G36*
X28704975Y-195708585D02*
G01*
X29004528Y-195768170D01*
X29568874Y-196001930D01*
X30076772Y-196341296D01*
X30508704Y-196773228D01*
X30848070Y-197281126D01*
X31081830Y-197845472D01*
X31201000Y-198444578D01*
X31201000Y-199055422D01*
X31081830Y-199654528D01*
X30848070Y-200218874D01*
X30508704Y-200726772D01*
X30076772Y-201158704D01*
X29568874Y-201498070D01*
X29004528Y-201731830D01*
X28704975Y-201791415D01*
X28405423Y-201851000D01*
X27794577Y-201851000D01*
X27495025Y-201791415D01*
X27195472Y-201731830D01*
X26631126Y-201498070D01*
X26123228Y-201158704D01*
X25691296Y-200726772D01*
X25351930Y-200218874D01*
X25118170Y-199654528D01*
X24999000Y-199055422D01*
X24999000Y-198444578D01*
X25118170Y-197845472D01*
X25351930Y-197281126D01*
X25691296Y-196773228D01*
X26123228Y-196341296D01*
X26631126Y-196001930D01*
X27195472Y-195768170D01*
X27495025Y-195708585D01*
X27794577Y-195649000D01*
X28405423Y-195649000D01*
X28704975Y-195708585D01*
G37*
G36*
X20296217Y-191156665D02*
G01*
X20566995Y-191210525D01*
X20858358Y-191331212D01*
X21120578Y-191506422D01*
X21343578Y-191729422D01*
X21518788Y-191991642D01*
X21639475Y-192283005D01*
X21701000Y-192592315D01*
X21701000Y-192907685D01*
X21639475Y-193216995D01*
X21518788Y-193508358D01*
X21343578Y-193770578D01*
X21120578Y-193993578D01*
X20858358Y-194168788D01*
X20566995Y-194289475D01*
X20296217Y-194343335D01*
X20257686Y-194351000D01*
X19942314Y-194351000D01*
X19903783Y-194343335D01*
X19633005Y-194289475D01*
X19341642Y-194168788D01*
X19079422Y-193993578D01*
X18856422Y-193770578D01*
X18681212Y-193508358D01*
X18560525Y-193216995D01*
X18499000Y-192907685D01*
X18499000Y-192592315D01*
X18560525Y-192283005D01*
X18681212Y-191991642D01*
X18856422Y-191729422D01*
X19079422Y-191506422D01*
X19341642Y-191331212D01*
X19633005Y-191210525D01*
X19903783Y-191156665D01*
X19942314Y-191149000D01*
X20257686Y-191149000D01*
X20296217Y-191156665D01*
G37*
G36*
X28704975Y-183708585D02*
G01*
X29004528Y-183768170D01*
X29568874Y-184001930D01*
X30076772Y-184341296D01*
X30508704Y-184773228D01*
X30848070Y-185281126D01*
X31081830Y-185845472D01*
X31201000Y-186444578D01*
X31201000Y-187055422D01*
X31081830Y-187654528D01*
X30848070Y-188218874D01*
X30508704Y-188726772D01*
X30076772Y-189158704D01*
X29568874Y-189498070D01*
X29004528Y-189731830D01*
X28704975Y-189791415D01*
X28405423Y-189851000D01*
X27794577Y-189851000D01*
X27495025Y-189791415D01*
X27195472Y-189731830D01*
X26631126Y-189498070D01*
X26123228Y-189158704D01*
X25691296Y-188726772D01*
X25351930Y-188218874D01*
X25118170Y-187654528D01*
X24999000Y-187055422D01*
X24999000Y-186444578D01*
X25118170Y-185845472D01*
X25351930Y-185281126D01*
X25691296Y-184773228D01*
X26123228Y-184341296D01*
X26631126Y-184001930D01*
X27195472Y-183768170D01*
X27495025Y-183708585D01*
X27794577Y-183649000D01*
X28405423Y-183649000D01*
X28704975Y-183708585D01*
G37*
G36*
X12704975Y-183708585D02*
G01*
X13004528Y-183768170D01*
X13568874Y-184001930D01*
X14076772Y-184341296D01*
X14508704Y-184773228D01*
X14848070Y-185281126D01*
X15081830Y-185845472D01*
X15201000Y-186444578D01*
X15201000Y-187055422D01*
X15081830Y-187654528D01*
X14848070Y-188218874D01*
X14508704Y-188726772D01*
X14076772Y-189158704D01*
X13568874Y-189498070D01*
X13004528Y-189731830D01*
X12704975Y-189791415D01*
X12405423Y-189851000D01*
X11794577Y-189851000D01*
X11495025Y-189791415D01*
X11195472Y-189731830D01*
X10631126Y-189498070D01*
X10123228Y-189158704D01*
X9691296Y-188726772D01*
X9351930Y-188218874D01*
X9118170Y-187654528D01*
X8999000Y-187055422D01*
X8999000Y-186444578D01*
X9118170Y-185845472D01*
X9351930Y-185281126D01*
X9691296Y-184773228D01*
X10123228Y-184341296D01*
X10631126Y-184001930D01*
X11195472Y-183768170D01*
X11495025Y-183708585D01*
X11794577Y-183649000D01*
X12405423Y-183649000D01*
X12704975Y-183708585D01*
G37*
G36*
X20296217Y-179156665D02*
G01*
X20566995Y-179210525D01*
X20858358Y-179331212D01*
X21120578Y-179506422D01*
X21343578Y-179729422D01*
X21518788Y-179991642D01*
X21639475Y-180283005D01*
X21701000Y-180592315D01*
X21701000Y-180907685D01*
X21639475Y-181216995D01*
X21518788Y-181508358D01*
X21343578Y-181770578D01*
X21120578Y-181993578D01*
X20858358Y-182168788D01*
X20566995Y-182289475D01*
X20296217Y-182343335D01*
X20257686Y-182351000D01*
X19942314Y-182351000D01*
X19903783Y-182343335D01*
X19633005Y-182289475D01*
X19341642Y-182168788D01*
X19079422Y-181993578D01*
X18856422Y-181770578D01*
X18681212Y-181508358D01*
X18560525Y-181216995D01*
X18499000Y-180907685D01*
X18499000Y-180592315D01*
X18560525Y-180283005D01*
X18681212Y-179991642D01*
X18856422Y-179729422D01*
X19079422Y-179506422D01*
X19341642Y-179331212D01*
X19633005Y-179210525D01*
X19903783Y-179156665D01*
X19942314Y-179149000D01*
X20257686Y-179149000D01*
X20296217Y-179156665D01*
G37*
G36*
X28704975Y-171708585D02*
G01*
X29004528Y-171768170D01*
X29568874Y-172001930D01*
X30076772Y-172341296D01*
X30508704Y-172773228D01*
X30848070Y-173281126D01*
X31081830Y-173845472D01*
X31201000Y-174444578D01*
X31201000Y-175055422D01*
X31081830Y-175654528D01*
X30848070Y-176218874D01*
X30508704Y-176726772D01*
X30076772Y-177158704D01*
X29568874Y-177498070D01*
X29004528Y-177731830D01*
X28704975Y-177791415D01*
X28405423Y-177851000D01*
X27794577Y-177851000D01*
X27495025Y-177791415D01*
X27195472Y-177731830D01*
X26631126Y-177498070D01*
X26123228Y-177158704D01*
X25691296Y-176726772D01*
X25351930Y-176218874D01*
X25118170Y-175654528D01*
X24999000Y-175055422D01*
X24999000Y-174444578D01*
X25118170Y-173845472D01*
X25351930Y-173281126D01*
X25691296Y-172773228D01*
X26123228Y-172341296D01*
X26631126Y-172001930D01*
X27195472Y-171768170D01*
X27495025Y-171708585D01*
X27794577Y-171649000D01*
X28405423Y-171649000D01*
X28704975Y-171708585D01*
G37*
G36*
X12704975Y-171708585D02*
G01*
X13004528Y-171768170D01*
X13568874Y-172001930D01*
X14076772Y-172341296D01*
X14508704Y-172773228D01*
X14848070Y-173281126D01*
X15081830Y-173845472D01*
X15201000Y-174444578D01*
X15201000Y-175055422D01*
X15081830Y-175654528D01*
X14848070Y-176218874D01*
X14508704Y-176726772D01*
X14076772Y-177158704D01*
X13568874Y-177498070D01*
X13004528Y-177731830D01*
X12704975Y-177791415D01*
X12405423Y-177851000D01*
X11794577Y-177851000D01*
X11495025Y-177791415D01*
X11195472Y-177731830D01*
X10631126Y-177498070D01*
X10123228Y-177158704D01*
X9691296Y-176726772D01*
X9351930Y-176218874D01*
X9118170Y-175654528D01*
X8999000Y-175055422D01*
X8999000Y-174444578D01*
X9118170Y-173845472D01*
X9351930Y-173281126D01*
X9691296Y-172773228D01*
X10123228Y-172341296D01*
X10631126Y-172001930D01*
X11195472Y-171768170D01*
X11495025Y-171708585D01*
X11794577Y-171649000D01*
X12405423Y-171649000D01*
X12704975Y-171708585D01*
G37*
G36*
X20296217Y-167406665D02*
G01*
X20566995Y-167460525D01*
X20858358Y-167581212D01*
X21120578Y-167756422D01*
X21343578Y-167979422D01*
X21518788Y-168241642D01*
X21639475Y-168533005D01*
X21701000Y-168842315D01*
X21701000Y-169157685D01*
X21639475Y-169466995D01*
X21518788Y-169758358D01*
X21343578Y-170020578D01*
X21120578Y-170243578D01*
X20858358Y-170418788D01*
X20566995Y-170539475D01*
X20296217Y-170593335D01*
X20257686Y-170601000D01*
X19942314Y-170601000D01*
X19903783Y-170593335D01*
X19633005Y-170539475D01*
X19341642Y-170418788D01*
X19079422Y-170243578D01*
X18856422Y-170020578D01*
X18681212Y-169758358D01*
X18560525Y-169466995D01*
X18499000Y-169157685D01*
X18499000Y-168842315D01*
X18560525Y-168533005D01*
X18681212Y-168241642D01*
X18856422Y-167979422D01*
X19079422Y-167756422D01*
X19341642Y-167581212D01*
X19633005Y-167460525D01*
X19903783Y-167406665D01*
X19942314Y-167399000D01*
X20257686Y-167399000D01*
X20296217Y-167406665D01*
G37*
G36*
X28704975Y-159708585D02*
G01*
X29004528Y-159768170D01*
X29568874Y-160001930D01*
X30076772Y-160341296D01*
X30508704Y-160773228D01*
X30848070Y-161281126D01*
X31081830Y-161845472D01*
X31201000Y-162444578D01*
X31201000Y-163055422D01*
X31081830Y-163654528D01*
X30848070Y-164218874D01*
X30508704Y-164726772D01*
X30076772Y-165158704D01*
X29568874Y-165498070D01*
X29004528Y-165731830D01*
X28704975Y-165791415D01*
X28405423Y-165851000D01*
X27794577Y-165851000D01*
X27495025Y-165791415D01*
X27195472Y-165731830D01*
X26631126Y-165498070D01*
X26123228Y-165158704D01*
X25691296Y-164726772D01*
X25351930Y-164218874D01*
X25118170Y-163654528D01*
X24999000Y-163055422D01*
X24999000Y-162444578D01*
X25118170Y-161845472D01*
X25351930Y-161281126D01*
X25691296Y-160773228D01*
X26123228Y-160341296D01*
X26631126Y-160001930D01*
X27195472Y-159768170D01*
X27495025Y-159708585D01*
X27794577Y-159649000D01*
X28405423Y-159649000D01*
X28704975Y-159708585D01*
G37*
G36*
X12704975Y-159708585D02*
G01*
X13004528Y-159768170D01*
X13568874Y-160001930D01*
X14076772Y-160341296D01*
X14508704Y-160773228D01*
X14848070Y-161281126D01*
X15081830Y-161845472D01*
X15201000Y-162444578D01*
X15201000Y-163055422D01*
X15081830Y-163654528D01*
X14848070Y-164218874D01*
X14508704Y-164726772D01*
X14076772Y-165158704D01*
X13568874Y-165498070D01*
X13004528Y-165731830D01*
X12704975Y-165791415D01*
X12405423Y-165851000D01*
X11794577Y-165851000D01*
X11495025Y-165791415D01*
X11195472Y-165731830D01*
X10631126Y-165498070D01*
X10123228Y-165158704D01*
X9691296Y-164726772D01*
X9351930Y-164218874D01*
X9118170Y-163654528D01*
X8999000Y-163055422D01*
X8999000Y-162444578D01*
X9118170Y-161845472D01*
X9351930Y-161281126D01*
X9691296Y-160773228D01*
X10123228Y-160341296D01*
X10631126Y-160001930D01*
X11195472Y-159768170D01*
X11495025Y-159708585D01*
X11794577Y-159649000D01*
X12405423Y-159649000D01*
X12704975Y-159708585D01*
G37*
G36*
X20296217Y-155156665D02*
G01*
X20566995Y-155210525D01*
X20858358Y-155331212D01*
X21120578Y-155506422D01*
X21343578Y-155729422D01*
X21518788Y-155991642D01*
X21639475Y-156283005D01*
X21701000Y-156592315D01*
X21701000Y-156907685D01*
X21639475Y-157216995D01*
X21518788Y-157508358D01*
X21343578Y-157770578D01*
X21120578Y-157993578D01*
X20858358Y-158168788D01*
X20566995Y-158289475D01*
X20296217Y-158343335D01*
X20257686Y-158351000D01*
X19942314Y-158351000D01*
X19903783Y-158343335D01*
X19633005Y-158289475D01*
X19341642Y-158168788D01*
X19079422Y-157993578D01*
X18856422Y-157770578D01*
X18681212Y-157508358D01*
X18560525Y-157216995D01*
X18499000Y-156907685D01*
X18499000Y-156592315D01*
X18560525Y-156283005D01*
X18681212Y-155991642D01*
X18856422Y-155729422D01*
X19079422Y-155506422D01*
X19341642Y-155331212D01*
X19633005Y-155210525D01*
X19903783Y-155156665D01*
X19942314Y-155149000D01*
X20257686Y-155149000D01*
X20296217Y-155156665D01*
G37*
G36*
X28704975Y-147708585D02*
G01*
X29004528Y-147768170D01*
X29568874Y-148001930D01*
X30076772Y-148341296D01*
X30508704Y-148773228D01*
X30848070Y-149281126D01*
X31081830Y-149845472D01*
X31201000Y-150444578D01*
X31201000Y-151055422D01*
X31081830Y-151654528D01*
X30848070Y-152218874D01*
X30508704Y-152726772D01*
X30076772Y-153158704D01*
X29568874Y-153498070D01*
X29004528Y-153731830D01*
X28704975Y-153791415D01*
X28405423Y-153851000D01*
X27794577Y-153851000D01*
X27495025Y-153791415D01*
X27195472Y-153731830D01*
X26631126Y-153498070D01*
X26123228Y-153158704D01*
X25691296Y-152726772D01*
X25351930Y-152218874D01*
X25118170Y-151654528D01*
X24999000Y-151055422D01*
X24999000Y-150444578D01*
X25118170Y-149845472D01*
X25351930Y-149281126D01*
X25691296Y-148773228D01*
X26123228Y-148341296D01*
X26631126Y-148001930D01*
X27195472Y-147768170D01*
X27495025Y-147708585D01*
X27794577Y-147649000D01*
X28405423Y-147649000D01*
X28704975Y-147708585D01*
G37*
G36*
X12704975Y-147708585D02*
G01*
X13004528Y-147768170D01*
X13568874Y-148001930D01*
X14076772Y-148341296D01*
X14508704Y-148773228D01*
X14848070Y-149281126D01*
X15081830Y-149845472D01*
X15201000Y-150444578D01*
X15201000Y-151055422D01*
X15081830Y-151654528D01*
X14848070Y-152218874D01*
X14508704Y-152726772D01*
X14076772Y-153158704D01*
X13568874Y-153498070D01*
X13004528Y-153731830D01*
X12704975Y-153791415D01*
X12405423Y-153851000D01*
X11794577Y-153851000D01*
X11495025Y-153791415D01*
X11195472Y-153731830D01*
X10631126Y-153498070D01*
X10123228Y-153158704D01*
X9691296Y-152726772D01*
X9351930Y-152218874D01*
X9118170Y-151654528D01*
X8999000Y-151055422D01*
X8999000Y-150444578D01*
X9118170Y-149845472D01*
X9351930Y-149281126D01*
X9691296Y-148773228D01*
X10123228Y-148341296D01*
X10631126Y-148001930D01*
X11195472Y-147768170D01*
X11495025Y-147708585D01*
X11794577Y-147649000D01*
X12405423Y-147649000D01*
X12704975Y-147708585D01*
G37*
G36*
X20296217Y-143406665D02*
G01*
X20566995Y-143460525D01*
X20858358Y-143581212D01*
X21120578Y-143756422D01*
X21343578Y-143979422D01*
X21518788Y-144241642D01*
X21639475Y-144533005D01*
X21701000Y-144842315D01*
X21701000Y-145157685D01*
X21639475Y-145466995D01*
X21518788Y-145758358D01*
X21343578Y-146020578D01*
X21120578Y-146243578D01*
X20858358Y-146418788D01*
X20566995Y-146539475D01*
X20296217Y-146593335D01*
X20257686Y-146601000D01*
X19942314Y-146601000D01*
X19903783Y-146593335D01*
X19633005Y-146539475D01*
X19341642Y-146418788D01*
X19079422Y-146243578D01*
X18856422Y-146020578D01*
X18681212Y-145758358D01*
X18560525Y-145466995D01*
X18499000Y-145157685D01*
X18499000Y-144842315D01*
X18560525Y-144533005D01*
X18681212Y-144241642D01*
X18856422Y-143979422D01*
X19079422Y-143756422D01*
X19341642Y-143581212D01*
X19633005Y-143460525D01*
X19903783Y-143406665D01*
X19942314Y-143399000D01*
X20257686Y-143399000D01*
X20296217Y-143406665D01*
G37*
G36*
X12704975Y-135958585D02*
G01*
X13004528Y-136018170D01*
X13568874Y-136251930D01*
X14076772Y-136591296D01*
X14508704Y-137023228D01*
X14848070Y-137531126D01*
X15081830Y-138095472D01*
X15201000Y-138694578D01*
X15201000Y-139305422D01*
X15081830Y-139904528D01*
X14848070Y-140468874D01*
X14508704Y-140976772D01*
X14076772Y-141408704D01*
X13568874Y-141748070D01*
X13004528Y-141981830D01*
X12704975Y-142041415D01*
X12405423Y-142101000D01*
X11794577Y-142101000D01*
X11495025Y-142041415D01*
X11195472Y-141981830D01*
X10631126Y-141748070D01*
X10123228Y-141408704D01*
X9691296Y-140976772D01*
X9351930Y-140468874D01*
X9118170Y-139904528D01*
X8999000Y-139305422D01*
X8999000Y-138694578D01*
X9118170Y-138095472D01*
X9351930Y-137531126D01*
X9691296Y-137023228D01*
X10123228Y-136591296D01*
X10631126Y-136251930D01*
X11195472Y-136018170D01*
X11495025Y-135958585D01*
X11794577Y-135899000D01*
X12405423Y-135899000D01*
X12704975Y-135958585D01*
G37*
G36*
X28704975Y-135958585D02*
G01*
X29004528Y-136018170D01*
X29568874Y-136251930D01*
X30076772Y-136591296D01*
X30508704Y-137023228D01*
X30848070Y-137531126D01*
X31081830Y-138095472D01*
X31201000Y-138694578D01*
X31201000Y-139305422D01*
X31081830Y-139904528D01*
X30848070Y-140468874D01*
X30508704Y-140976772D01*
X30076772Y-141408704D01*
X29568874Y-141748070D01*
X29004528Y-141981830D01*
X28704975Y-142041415D01*
X28405423Y-142101000D01*
X27794577Y-142101000D01*
X27495025Y-142041415D01*
X27195472Y-141981830D01*
X26631126Y-141748070D01*
X26123228Y-141408704D01*
X25691296Y-140976772D01*
X25351930Y-140468874D01*
X25118170Y-139904528D01*
X24999000Y-139305422D01*
X24999000Y-138694578D01*
X25118170Y-138095472D01*
X25351930Y-137531126D01*
X25691296Y-137023228D01*
X26123228Y-136591296D01*
X26631126Y-136251930D01*
X27195472Y-136018170D01*
X27495025Y-135958585D01*
X27794577Y-135899000D01*
X28405423Y-135899000D01*
X28704975Y-135958585D01*
G37*
G36*
X20296217Y-131406665D02*
G01*
X20566995Y-131460525D01*
X20858358Y-131581212D01*
X21120578Y-131756422D01*
X21343578Y-131979422D01*
X21518788Y-132241642D01*
X21639475Y-132533005D01*
X21701000Y-132842315D01*
X21701000Y-133157685D01*
X21639475Y-133466995D01*
X21518788Y-133758358D01*
X21343578Y-134020578D01*
X21120578Y-134243578D01*
X20858358Y-134418788D01*
X20566995Y-134539475D01*
X20296217Y-134593335D01*
X20257686Y-134601000D01*
X19942314Y-134601000D01*
X19903783Y-134593335D01*
X19633005Y-134539475D01*
X19341642Y-134418788D01*
X19079422Y-134243578D01*
X18856422Y-134020578D01*
X18681212Y-133758358D01*
X18560525Y-133466995D01*
X18499000Y-133157685D01*
X18499000Y-132842315D01*
X18560525Y-132533005D01*
X18681212Y-132241642D01*
X18856422Y-131979422D01*
X19079422Y-131756422D01*
X19341642Y-131581212D01*
X19633005Y-131460525D01*
X19903783Y-131406665D01*
X19942314Y-131399000D01*
X20257686Y-131399000D01*
X20296217Y-131406665D01*
G37*
G36*
X28704975Y-123958585D02*
G01*
X29004528Y-124018170D01*
X29568874Y-124251930D01*
X30076772Y-124591296D01*
X30508704Y-125023228D01*
X30848070Y-125531126D01*
X31081830Y-126095472D01*
X31201000Y-126694578D01*
X31201000Y-127305422D01*
X31081830Y-127904528D01*
X30848070Y-128468874D01*
X30508704Y-128976772D01*
X30076772Y-129408704D01*
X29568874Y-129748070D01*
X29004528Y-129981830D01*
X28704975Y-130041415D01*
X28405423Y-130101000D01*
X27794577Y-130101000D01*
X27495025Y-130041415D01*
X27195472Y-129981830D01*
X26631126Y-129748070D01*
X26123228Y-129408704D01*
X25691296Y-128976772D01*
X25351930Y-128468874D01*
X25118170Y-127904528D01*
X24999000Y-127305422D01*
X24999000Y-126694578D01*
X25118170Y-126095472D01*
X25351930Y-125531126D01*
X25691296Y-125023228D01*
X26123228Y-124591296D01*
X26631126Y-124251930D01*
X27195472Y-124018170D01*
X27495025Y-123958585D01*
X27794577Y-123899000D01*
X28405423Y-123899000D01*
X28704975Y-123958585D01*
G37*
G36*
X12704975Y-123958585D02*
G01*
X13004528Y-124018170D01*
X13568874Y-124251930D01*
X14076772Y-124591296D01*
X14508704Y-125023228D01*
X14848070Y-125531126D01*
X15081830Y-126095472D01*
X15201000Y-126694578D01*
X15201000Y-127305422D01*
X15081830Y-127904528D01*
X14848070Y-128468874D01*
X14508704Y-128976772D01*
X14076772Y-129408704D01*
X13568874Y-129748070D01*
X13004528Y-129981830D01*
X12704975Y-130041415D01*
X12405423Y-130101000D01*
X11794577Y-130101000D01*
X11495025Y-130041415D01*
X11195472Y-129981830D01*
X10631126Y-129748070D01*
X10123228Y-129408704D01*
X9691296Y-128976772D01*
X9351930Y-128468874D01*
X9118170Y-127904528D01*
X8999000Y-127305422D01*
X8999000Y-126694578D01*
X9118170Y-126095472D01*
X9351930Y-125531126D01*
X9691296Y-125023228D01*
X10123228Y-124591296D01*
X10631126Y-124251930D01*
X11195472Y-124018170D01*
X11495025Y-123958585D01*
X11794577Y-123899000D01*
X12405423Y-123899000D01*
X12704975Y-123958585D01*
G37*
G36*
X20296217Y-119406665D02*
G01*
X20566995Y-119460525D01*
X20858358Y-119581212D01*
X21120578Y-119756422D01*
X21343578Y-119979422D01*
X21518788Y-120241642D01*
X21639475Y-120533005D01*
X21701000Y-120842315D01*
X21701000Y-121157685D01*
X21639475Y-121466995D01*
X21518788Y-121758358D01*
X21343578Y-122020578D01*
X21120578Y-122243578D01*
X20858358Y-122418788D01*
X20566995Y-122539475D01*
X20296217Y-122593335D01*
X20257686Y-122601000D01*
X19942314Y-122601000D01*
X19903783Y-122593335D01*
X19633005Y-122539475D01*
X19341642Y-122418788D01*
X19079422Y-122243578D01*
X18856422Y-122020578D01*
X18681212Y-121758358D01*
X18560525Y-121466995D01*
X18499000Y-121157685D01*
X18499000Y-120842315D01*
X18560525Y-120533005D01*
X18681212Y-120241642D01*
X18856422Y-119979422D01*
X19079422Y-119756422D01*
X19341642Y-119581212D01*
X19633005Y-119460525D01*
X19903783Y-119406665D01*
X19942314Y-119399000D01*
X20257686Y-119399000D01*
X20296217Y-119406665D01*
G37*
G36*
X12704975Y-111708585D02*
G01*
X13004528Y-111768170D01*
X13568874Y-112001930D01*
X14076772Y-112341296D01*
X14508704Y-112773228D01*
X14848070Y-113281126D01*
X15081830Y-113845472D01*
X15201000Y-114444578D01*
X15201000Y-115055422D01*
X15081830Y-115654528D01*
X14848070Y-116218874D01*
X14508704Y-116726772D01*
X14076772Y-117158704D01*
X13568874Y-117498070D01*
X13004528Y-117731830D01*
X12704975Y-117791415D01*
X12405423Y-117851000D01*
X11794577Y-117851000D01*
X11495025Y-117791415D01*
X11195472Y-117731830D01*
X10631126Y-117498070D01*
X10123228Y-117158704D01*
X9691296Y-116726772D01*
X9351930Y-116218874D01*
X9118170Y-115654528D01*
X8999000Y-115055422D01*
X8999000Y-114444578D01*
X9118170Y-113845472D01*
X9351930Y-113281126D01*
X9691296Y-112773228D01*
X10123228Y-112341296D01*
X10631126Y-112001930D01*
X11195472Y-111768170D01*
X11495025Y-111708585D01*
X11794577Y-111649000D01*
X12405423Y-111649000D01*
X12704975Y-111708585D01*
G37*
G36*
X28704975Y-111708585D02*
G01*
X29004528Y-111768170D01*
X29568874Y-112001930D01*
X30076772Y-112341296D01*
X30508704Y-112773228D01*
X30848070Y-113281126D01*
X31081830Y-113845472D01*
X31201000Y-114444578D01*
X31201000Y-115055422D01*
X31081830Y-115654528D01*
X30848070Y-116218874D01*
X30508704Y-116726772D01*
X30076772Y-117158704D01*
X29568874Y-117498070D01*
X29004528Y-117731830D01*
X28704975Y-117791415D01*
X28405423Y-117851000D01*
X27794577Y-117851000D01*
X27495025Y-117791415D01*
X27195472Y-117731830D01*
X26631126Y-117498070D01*
X26123228Y-117158704D01*
X25691296Y-116726772D01*
X25351930Y-116218874D01*
X25118170Y-115654528D01*
X24999000Y-115055422D01*
X24999000Y-114444578D01*
X25118170Y-113845472D01*
X25351930Y-113281126D01*
X25691296Y-112773228D01*
X26123228Y-112341296D01*
X26631126Y-112001930D01*
X27195472Y-111768170D01*
X27495025Y-111708585D01*
X27794577Y-111649000D01*
X28405423Y-111649000D01*
X28704975Y-111708585D01*
G37*
M02*
