G04 #@! TF.GenerationSoftware,KiCad,Pcbnew,(5.1.5-0)*
G04 #@! TF.CreationDate,2021-01-20T17:00:23-08:00*
G04 #@! TF.ProjectId,bindubba,62696e64-7562-4626-912e-6b696361645f,rev?*
G04 #@! TF.SameCoordinates,Original*
G04 #@! TF.FileFunction,Profile,NP*
%FSLAX46Y46*%
G04 Gerber Fmt 4.6, Leading zero omitted, Abs format (unit mm)*
G04 Created by KiCad (PCBNEW (5.1.5-0)) date 2021-01-20 17:00:23*
%MOMM*%
%LPD*%
G04 APERTURE LIST*
%ADD10C,0.050000*%
G04 APERTURE END LIST*
D10*
X137000000Y-48500000D02*
G75*
G03X137000000Y-48500000I-3750000J0D01*
G01*
X137000000Y-18500000D02*
G75*
G03X137000000Y-18500000I-3750000J0D01*
G01*
X77000000Y-40500000D02*
G75*
G03X77000000Y-40500000I-3750000J0D01*
G01*
X77000000Y-62500000D02*
G75*
G03X77000000Y-62500000I-3750000J0D01*
G01*
X77000000Y-84500000D02*
G75*
G03X77000000Y-84500000I-3750000J0D01*
G01*
X77000000Y-18500000D02*
G75*
G03X77000000Y-18500000I-3750000J0D01*
G01*
X55000000Y-62500000D02*
G75*
G03X55000000Y-62500000I-3750000J0D01*
G01*
X55000000Y-40500000D02*
G75*
G03X55000000Y-40500000I-3750000J0D01*
G01*
X55000000Y-84500000D02*
G75*
G03X55000000Y-84500000I-3750000J0D01*
G01*
X55000000Y-18500000D02*
G75*
G03X55000000Y-18500000I-3750000J0D01*
G01*
X33000000Y-18500000D02*
G75*
G03X33000000Y-18500000I-3750000J0D01*
G01*
X33000000Y-40500000D02*
G75*
G03X33000000Y-40500000I-3750000J0D01*
G01*
X33000000Y-84500000D02*
G75*
G03X33000000Y-84500000I-3750000J0D01*
G01*
X33000000Y-62500000D02*
G75*
G03X33000000Y-62500000I-3750000J0D01*
G01*
X11000000Y-84500000D02*
G75*
G03X11000000Y-84500000I-3750000J0D01*
G01*
X11000000Y-62500000D02*
G75*
G03X11000000Y-62500000I-3750000J0D01*
G01*
X11000000Y-40500000D02*
G75*
G03X11000000Y-40500000I-3750000J0D01*
G01*
X11000000Y-18500000D02*
G75*
G03X11000000Y-18500000I-3750000J0D01*
G01*
X8500000Y-123900000D02*
G75*
G02X8500000Y-127100000I0J-1600000D01*
G01*
X6500000Y-123900000D02*
X8500000Y-123900000D01*
X6500000Y-127100000D02*
G75*
G02X6500000Y-123900000I0J1600000D01*
G01*
X6500000Y-127100000D02*
X8500000Y-127100000D01*
X8500000Y-1400000D02*
G75*
G02X8500000Y-4600000I0J-1600000D01*
G01*
X6500000Y-1400000D02*
X8500000Y-1400000D01*
X6500000Y-4600000D02*
G75*
G02X6500000Y-1400000I0J1600000D01*
G01*
X6500000Y-4600000D02*
X8500000Y-4600000D01*
X135500000Y-123900000D02*
G75*
G02X135500000Y-127100000I0J-1600000D01*
G01*
X133500000Y-123900000D02*
X135500000Y-123900000D01*
X133500000Y-127100000D02*
G75*
G02X133500000Y-123900000I0J1600000D01*
G01*
X133500000Y-127100000D02*
X135500000Y-127100000D01*
X133500000Y-1400000D02*
X135500000Y-1400000D01*
X133500000Y-4600000D02*
X135500000Y-4600000D01*
X133500000Y-4600000D02*
G75*
G02X133500000Y-1400000I0J1600000D01*
G01*
X135500000Y-1400000D02*
G75*
G02X135500000Y-4600000I0J-1600000D01*
G01*
X0Y-128500000D02*
X0Y0D01*
X142000000Y-128500000D02*
X0Y-128500000D01*
X142000000Y0D02*
X142000000Y-128500000D01*
X0Y0D02*
X142000000Y0D01*
M02*
