G04 #@! TF.GenerationSoftware,KiCad,Pcbnew,(5.1.5-0)*
G04 #@! TF.CreationDate,2021-01-20T17:00:23-08:00*
G04 #@! TF.ProjectId,bindubba,62696e64-7562-4626-912e-6b696361645f,rev?*
G04 #@! TF.SameCoordinates,Original*
G04 #@! TF.FileFunction,Copper,L1,Top*
G04 #@! TF.FilePolarity,Positive*
%FSLAX46Y46*%
G04 Gerber Fmt 4.6, Leading zero omitted, Abs format (unit mm)*
G04 Created by KiCad (PCBNEW (5.1.5-0)) date 2021-01-20 17:00:23*
%MOMM*%
%LPD*%
G04 APERTURE LIST*
%ADD10C,2.000000*%
%ADD11C,1.000000*%
%ADD12C,0.100000*%
%ADD13C,6.100000*%
%ADD14C,3.100000*%
G04 APERTURE END LIST*
D10*
X7250000Y-102000000D02*
X7250000Y-112250000D01*
X29250000Y-102000000D02*
X29250000Y-112250000D01*
X51250000Y-102250000D02*
X51250000Y-112500000D01*
X73250000Y-102250000D02*
X73250000Y-112500000D01*
X133250000Y-84000000D02*
X133250000Y-109750000D01*
X133250000Y-48750000D02*
X133250000Y-63250000D01*
X133250000Y-18750000D02*
X133250000Y-33250000D01*
X114750000Y-24750000D02*
X114750000Y-108750000D01*
X96750000Y-25000000D02*
X96750000Y-109000000D01*
D11*
X64250000Y-84500000D02*
G75*
G03X64250000Y-84500000I-2000000J0D01*
G01*
X86250000Y-84500000D02*
G75*
G03X86250000Y-84500000I-2000000J0D01*
G01*
X20250000Y-84500000D02*
G75*
G03X20250000Y-84500000I-2000000J0D01*
G01*
X42250000Y-84500000D02*
G75*
G03X42250000Y-84500000I-2000000J0D01*
G01*
X64250000Y-62500000D02*
G75*
G03X64250000Y-62500000I-2000000J0D01*
G01*
X86250000Y-62500000D02*
G75*
G03X86250000Y-62500000I-2000000J0D01*
G01*
X20250000Y-62500000D02*
G75*
G03X20250000Y-62500000I-2000000J0D01*
G01*
X42250000Y-62500000D02*
G75*
G03X42250000Y-62500000I-2000000J0D01*
G01*
X86250000Y-40500000D02*
G75*
G03X86250000Y-40500000I-2000000J0D01*
G01*
X64250000Y-40500000D02*
G75*
G03X64250000Y-40500000I-2000000J0D01*
G01*
X42250000Y-40500000D02*
G75*
G03X42250000Y-40500000I-2000000J0D01*
G01*
X20250000Y-40500000D02*
G75*
G03X20250000Y-40500000I-2000000J0D01*
G01*
X86250000Y-18500000D02*
G75*
G03X86250000Y-18500000I-2000000J0D01*
G01*
X64250000Y-18500000D02*
G75*
G03X64250000Y-18500000I-2000000J0D01*
G01*
X42250000Y-18500000D02*
G75*
G03X42250000Y-18500000I-2000000J0D01*
G01*
X20250000Y-18500000D02*
G75*
G03X20250000Y-18500000I-2000000J0D01*
G01*
D12*
G36*
X67596400Y-120524900D02*
G01*
X67913900Y-120766200D01*
X68479050Y-121083700D01*
X69075950Y-121515500D01*
X69450600Y-121896500D01*
X69850650Y-122461650D01*
X70447550Y-123642750D01*
X70746000Y-124207900D01*
X70758700Y-124220600D01*
X70428500Y-124246000D01*
X70326900Y-124195200D01*
X69971300Y-123947550D01*
X69564900Y-123579250D01*
X69234700Y-123230000D01*
X68879100Y-122798200D01*
X68599700Y-122379100D01*
X68409200Y-122125100D01*
X68155200Y-121667900D01*
X67901200Y-121299600D01*
X67659900Y-120880500D01*
X67380500Y-120321700D01*
X67596400Y-120524900D01*
G37*
X67596400Y-120524900D02*
X67913900Y-120766200D01*
X68479050Y-121083700D01*
X69075950Y-121515500D01*
X69450600Y-121896500D01*
X69850650Y-122461650D01*
X70447550Y-123642750D01*
X70746000Y-124207900D01*
X70758700Y-124220600D01*
X70428500Y-124246000D01*
X70326900Y-124195200D01*
X69971300Y-123947550D01*
X69564900Y-123579250D01*
X69234700Y-123230000D01*
X68879100Y-122798200D01*
X68599700Y-122379100D01*
X68409200Y-122125100D01*
X68155200Y-121667900D01*
X67901200Y-121299600D01*
X67659900Y-120880500D01*
X67380500Y-120321700D01*
X67596400Y-120524900D01*
G36*
X69002925Y-123703075D02*
G01*
X69339475Y-123798325D01*
X69603000Y-123890400D01*
X70301500Y-124296800D01*
X70331980Y-124324740D01*
X70339600Y-124309500D01*
X70339600Y-124322200D01*
X70331980Y-124324740D01*
X70250700Y-124487300D01*
X70644400Y-124627000D01*
X70434850Y-124652400D01*
X70041150Y-124677800D01*
X69564900Y-124677800D01*
X69120400Y-124614300D01*
X68637800Y-124500000D01*
X68244100Y-124385700D01*
X67837700Y-124157100D01*
X67520200Y-123928500D01*
X67113800Y-123801500D01*
X67761500Y-123750700D01*
X68294900Y-123712600D01*
X68758450Y-123706250D01*
X69002925Y-123703075D01*
G37*
X69002925Y-123703075D02*
X69339475Y-123798325D01*
X69603000Y-123890400D01*
X70301500Y-124296800D01*
X70331980Y-124324740D01*
X70339600Y-124309500D01*
X70339600Y-124322200D01*
X70331980Y-124324740D01*
X70250700Y-124487300D01*
X70644400Y-124627000D01*
X70434850Y-124652400D01*
X70041150Y-124677800D01*
X69564900Y-124677800D01*
X69120400Y-124614300D01*
X68637800Y-124500000D01*
X68244100Y-124385700D01*
X67837700Y-124157100D01*
X67520200Y-123928500D01*
X67113800Y-123801500D01*
X67761500Y-123750700D01*
X68294900Y-123712600D01*
X68758450Y-123706250D01*
X69002925Y-123703075D01*
G36*
X70866650Y-124766700D02*
G01*
X70498350Y-125198500D01*
X70060200Y-125471550D01*
X69679200Y-125611250D01*
X68929900Y-125776350D01*
X69412500Y-125249300D01*
X69806200Y-124982600D01*
X70174500Y-124779400D01*
X70644400Y-124703200D01*
X70669800Y-124703200D01*
X70866650Y-124766700D01*
G37*
X70866650Y-124766700D02*
X70498350Y-125198500D01*
X70060200Y-125471550D01*
X69679200Y-125611250D01*
X68929900Y-125776350D01*
X69412500Y-125249300D01*
X69806200Y-124982600D01*
X70174500Y-124779400D01*
X70644400Y-124703200D01*
X70669800Y-124703200D01*
X70866650Y-124766700D01*
G36*
X71000000Y-124284100D02*
G01*
X70788862Y-124477775D01*
X71007937Y-124573025D01*
X71758825Y-125115950D01*
X71577850Y-125211200D01*
X71000000Y-124754000D01*
X71012700Y-125846200D01*
X70898400Y-125706500D01*
X70892050Y-124817500D01*
X70936500Y-124817500D01*
X70555500Y-124601600D01*
X70269750Y-124449200D01*
X70434850Y-124169800D01*
X71000000Y-124284100D01*
G37*
X71000000Y-124284100D02*
X70788862Y-124477775D01*
X71007937Y-124573025D01*
X71758825Y-125115950D01*
X71577850Y-125211200D01*
X71000000Y-124754000D01*
X71012700Y-125846200D01*
X70898400Y-125706500D01*
X70892050Y-124817500D01*
X70936500Y-124817500D01*
X70555500Y-124601600D01*
X70269750Y-124449200D01*
X70434850Y-124169800D01*
X71000000Y-124284100D01*
G36*
X71641350Y-124741300D02*
G01*
X72193800Y-125020700D01*
X72520825Y-125347725D01*
X72655763Y-125577913D01*
X72887538Y-125847788D01*
X72581150Y-125763650D01*
X72327150Y-125687450D01*
X72149350Y-125623950D01*
X71774700Y-125490600D01*
X71415925Y-125296925D01*
X71155575Y-125011175D01*
X71031750Y-124849250D01*
X71095250Y-124887350D01*
X71069850Y-124823850D01*
X71133350Y-124652400D01*
X71641350Y-124741300D01*
G37*
X71641350Y-124741300D02*
X72193800Y-125020700D01*
X72520825Y-125347725D01*
X72655763Y-125577913D01*
X72887538Y-125847788D01*
X72581150Y-125763650D01*
X72327150Y-125687450D01*
X72149350Y-125623950D01*
X71774700Y-125490600D01*
X71415925Y-125296925D01*
X71155575Y-125011175D01*
X71031750Y-124849250D01*
X71095250Y-124887350D01*
X71069850Y-124823850D01*
X71133350Y-124652400D01*
X71641350Y-124741300D01*
G36*
X74073400Y-123738000D02*
G01*
X74505200Y-123763400D01*
X75083207Y-123773943D01*
X74403600Y-123928500D01*
X73971800Y-124119000D01*
X73628900Y-124334900D01*
X73209800Y-124500000D01*
X72676400Y-124588900D01*
X72231900Y-124614300D01*
X71654050Y-124595250D01*
X71076200Y-124576200D01*
X71012700Y-124500000D01*
X71228600Y-124436500D01*
X71235585Y-124385700D01*
X71551815Y-124258700D01*
X72085850Y-124030100D01*
X72638300Y-123826900D01*
X73032000Y-123712600D01*
X73476500Y-123712600D01*
X74073400Y-123738000D01*
G37*
X74073400Y-123738000D02*
X74505200Y-123763400D01*
X75083207Y-123773943D01*
X74403600Y-123928500D01*
X73971800Y-124119000D01*
X73628900Y-124334900D01*
X73209800Y-124500000D01*
X72676400Y-124588900D01*
X72231900Y-124614300D01*
X71654050Y-124595250D01*
X71076200Y-124576200D01*
X71012700Y-124500000D01*
X71228600Y-124436500D01*
X71235585Y-124385700D01*
X71551815Y-124258700D01*
X72085850Y-124030100D01*
X72638300Y-123826900D01*
X73032000Y-123712600D01*
X73476500Y-123712600D01*
X74073400Y-123738000D01*
G36*
X74060700Y-121083700D02*
G01*
X73819400Y-121579000D01*
X73616200Y-122036200D01*
X73355850Y-122556900D01*
X73082800Y-122912500D01*
X72771650Y-123325250D01*
X72301750Y-123718950D01*
X71800100Y-124055500D01*
X70695200Y-124652400D01*
X70720600Y-124322200D01*
X71025400Y-124271400D01*
X71273050Y-123833250D01*
X71488950Y-123369700D01*
X71654050Y-123039500D01*
X71838200Y-122747400D01*
X72003300Y-122429900D01*
X72282700Y-122074300D01*
X72562100Y-121756800D01*
X72892300Y-121464700D01*
X73235200Y-121236100D01*
X73616200Y-120982100D01*
X74009900Y-120715400D01*
X74543300Y-120321700D01*
X74060700Y-121083700D01*
G37*
X74060700Y-121083700D02*
X73819400Y-121579000D01*
X73616200Y-122036200D01*
X73355850Y-122556900D01*
X73082800Y-122912500D01*
X72771650Y-123325250D01*
X72301750Y-123718950D01*
X71800100Y-124055500D01*
X70695200Y-124652400D01*
X70720600Y-124322200D01*
X71025400Y-124271400D01*
X71273050Y-123833250D01*
X71488950Y-123369700D01*
X71654050Y-123039500D01*
X71838200Y-122747400D01*
X72003300Y-122429900D01*
X72282700Y-122074300D01*
X72562100Y-121756800D01*
X72892300Y-121464700D01*
X73235200Y-121236100D01*
X73616200Y-120982100D01*
X74009900Y-120715400D01*
X74543300Y-120321700D01*
X74060700Y-121083700D01*
G36*
X71215900Y-118950100D02*
G01*
X71317500Y-119432700D01*
X71431800Y-119889900D01*
X71514350Y-120220100D01*
X71577850Y-120601100D01*
X71622300Y-121121800D01*
X71622300Y-121655200D01*
X71571500Y-122239400D01*
X71508000Y-122760100D01*
X71365125Y-123255400D01*
X71066675Y-124271400D01*
X70853950Y-124220600D01*
X70619000Y-123306200D01*
X70445962Y-122442600D01*
X70461837Y-121655200D01*
X70514225Y-120994800D01*
X70676150Y-120220100D01*
X70911100Y-119407300D01*
X71038100Y-118632600D01*
X71101600Y-118111900D01*
X71215900Y-118950100D01*
G37*
X71215900Y-118950100D02*
X71317500Y-119432700D01*
X71431800Y-119889900D01*
X71514350Y-120220100D01*
X71577850Y-120601100D01*
X71622300Y-121121800D01*
X71622300Y-121655200D01*
X71571500Y-122239400D01*
X71508000Y-122760100D01*
X71365125Y-123255400D01*
X71066675Y-124271400D01*
X70853950Y-124220600D01*
X70619000Y-123306200D01*
X70445962Y-122442600D01*
X70461837Y-121655200D01*
X70514225Y-120994800D01*
X70676150Y-120220100D01*
X70911100Y-119407300D01*
X71038100Y-118632600D01*
X71101600Y-118111900D01*
X71215900Y-118950100D01*
D13*
X133250000Y-109000000D03*
D14*
X18250000Y-84500000D03*
X84250000Y-84500000D03*
X40250000Y-84500000D03*
X62250000Y-84500000D03*
X18250000Y-62500000D03*
X84250000Y-62500000D03*
X40250000Y-62500000D03*
X62250000Y-62500000D03*
X62250000Y-40500000D03*
X84250000Y-40500000D03*
X40250000Y-40500000D03*
X18250000Y-40500000D03*
X84250000Y-18500000D03*
X62250000Y-18500000D03*
X40250000Y-18500000D03*
X18250000Y-18500000D03*
D13*
X133250000Y-85000000D03*
X133250000Y-97000000D03*
X133250000Y-63000000D03*
X133250000Y-33000000D03*
X114750000Y-61000000D03*
X114750000Y-37000000D03*
X114750000Y-49000000D03*
X114750000Y-25000000D03*
X114750000Y-109000000D03*
X114750000Y-73000000D03*
X114750000Y-97000000D03*
X114750000Y-85000000D03*
X96750000Y-109000000D03*
X96750000Y-85000000D03*
X96750000Y-97000000D03*
X96750000Y-73000000D03*
X96750000Y-61000000D03*
X96750000Y-49000000D03*
X96750000Y-37000000D03*
X96750000Y-25000000D03*
X29250000Y-112250000D03*
X51250000Y-112250000D03*
X73250000Y-112250000D03*
X7250000Y-112250000D03*
X73250000Y-102250000D03*
X7250000Y-102250000D03*
X51250000Y-102250000D03*
X29250000Y-102250000D03*
M02*
