G04 #@! TF.GenerationSoftware,KiCad,Pcbnew,(5.1.5-0)*
G04 #@! TF.CreationDate,2021-01-20T17:00:23-08:00*
G04 #@! TF.ProjectId,bindubba,62696e64-7562-4626-912e-6b696361645f,rev?*
G04 #@! TF.SameCoordinates,Original*
G04 #@! TF.FileFunction,Soldermask,Bot*
G04 #@! TF.FilePolarity,Negative*
%FSLAX46Y46*%
G04 Gerber Fmt 4.6, Leading zero omitted, Abs format (unit mm)*
G04 Created by KiCad (PCBNEW (5.1.5-0)) date 2021-01-20 17:00:23*
%MOMM*%
%LPD*%
G04 APERTURE LIST*
%ADD10C,1.000000*%
%ADD11C,0.150000*%
%ADD12C,0.100000*%
G04 APERTURE END LIST*
D10*
X136750000Y-85000000D02*
G75*
G03X136750000Y-85000000I-3500000J0D01*
G01*
X136750000Y-109000000D02*
G75*
G03X136750000Y-109000000I-3500000J0D01*
G01*
X136750000Y-97000000D02*
G75*
G03X136750000Y-97000000I-3500000J0D01*
G01*
X136750000Y-63000000D02*
G75*
G03X136750000Y-63000000I-3500000J0D01*
G01*
X136750000Y-33000000D02*
G75*
G03X136750000Y-33000000I-3500000J0D01*
G01*
X118250000Y-25000000D02*
G75*
G03X118250000Y-25000000I-3500000J0D01*
G01*
X118250000Y-61000000D02*
G75*
G03X118250000Y-61000000I-3500000J0D01*
G01*
X118250000Y-49000000D02*
G75*
G03X118250000Y-49000000I-3500000J0D01*
G01*
X118250000Y-37000000D02*
G75*
G03X118250000Y-37000000I-3500000J0D01*
G01*
X118250000Y-85000000D02*
G75*
G03X118250000Y-85000000I-3500000J0D01*
G01*
X118250000Y-73000000D02*
G75*
G03X118250000Y-73000000I-3500000J0D01*
G01*
X118250000Y-97000000D02*
G75*
G03X118250000Y-97000000I-3500000J0D01*
G01*
X118250000Y-109000000D02*
G75*
G03X118250000Y-109000000I-3500000J0D01*
G01*
X100250000Y-73000000D02*
G75*
G03X100250000Y-73000000I-3500000J0D01*
G01*
X100250000Y-109000000D02*
G75*
G03X100250000Y-109000000I-3500000J0D01*
G01*
X100250000Y-97000000D02*
G75*
G03X100250000Y-97000000I-3500000J0D01*
G01*
X100250000Y-85000000D02*
G75*
G03X100250000Y-85000000I-3500000J0D01*
G01*
X100250000Y-49000000D02*
G75*
G03X100250000Y-49000000I-3500000J0D01*
G01*
X100250000Y-61000000D02*
G75*
G03X100250000Y-61000000I-3500000J0D01*
G01*
X100250000Y-37000000D02*
G75*
G03X100250000Y-37000000I-3500000J0D01*
G01*
X100250000Y-25000000D02*
G75*
G03X100250000Y-25000000I-3500000J0D01*
G01*
X32750000Y-112250000D02*
G75*
G03X32750000Y-112250000I-3500000J0D01*
G01*
X54750000Y-112250000D02*
G75*
G03X54750000Y-112250000I-3500000J0D01*
G01*
X76750000Y-112250000D02*
G75*
G03X76750000Y-112250000I-3500000J0D01*
G01*
X10750000Y-112250000D02*
G75*
G03X10750000Y-112250000I-3500000J0D01*
G01*
X10750000Y-102250000D02*
G75*
G03X10750000Y-102250000I-3500000J0D01*
G01*
X76750000Y-102250000D02*
G75*
G03X76750000Y-102250000I-3500000J0D01*
G01*
X54750000Y-102250000D02*
G75*
G03X54750000Y-102250000I-3500000J0D01*
G01*
D11*
X22726190Y-121452380D02*
X22726190Y-120785714D01*
X22726190Y-120976190D02*
X22678571Y-120880952D01*
X22630952Y-120833333D01*
X22535714Y-120785714D01*
X22440476Y-120785714D01*
X21726190Y-121404761D02*
X21821428Y-121452380D01*
X22011904Y-121452380D01*
X22107142Y-121404761D01*
X22154761Y-121309523D01*
X22154761Y-120928571D01*
X22107142Y-120833333D01*
X22011904Y-120785714D01*
X21821428Y-120785714D01*
X21726190Y-120833333D01*
X21678571Y-120928571D01*
X21678571Y-121023809D01*
X22154761Y-121119047D01*
X21250000Y-120785714D02*
X21250000Y-121785714D01*
X21250000Y-120833333D02*
X21154761Y-120785714D01*
X20964285Y-120785714D01*
X20869047Y-120833333D01*
X20821428Y-120880952D01*
X20773809Y-120976190D01*
X20773809Y-121261904D01*
X20821428Y-121357142D01*
X20869047Y-121404761D01*
X20964285Y-121452380D01*
X21154761Y-121452380D01*
X21250000Y-121404761D01*
X19916666Y-121452380D02*
X19916666Y-120928571D01*
X19964285Y-120833333D01*
X20059523Y-120785714D01*
X20250000Y-120785714D01*
X20345238Y-120833333D01*
X19916666Y-121404761D02*
X20011904Y-121452380D01*
X20250000Y-121452380D01*
X20345238Y-121404761D01*
X20392857Y-121309523D01*
X20392857Y-121214285D01*
X20345238Y-121119047D01*
X20250000Y-121071428D01*
X20011904Y-121071428D01*
X19916666Y-121023809D01*
X19440476Y-120785714D02*
X19440476Y-121452380D01*
X19440476Y-120880952D02*
X19392857Y-120833333D01*
X19297619Y-120785714D01*
X19154761Y-120785714D01*
X19059523Y-120833333D01*
X19011904Y-120928571D01*
X19011904Y-121452380D01*
X18154761Y-121404761D02*
X18250000Y-121452380D01*
X18440476Y-121452380D01*
X18535714Y-121404761D01*
X18583333Y-121309523D01*
X18583333Y-120928571D01*
X18535714Y-120833333D01*
X18440476Y-120785714D01*
X18250000Y-120785714D01*
X18154761Y-120833333D01*
X18107142Y-120928571D01*
X18107142Y-121023809D01*
X18583333Y-121119047D01*
X17535714Y-121452380D02*
X17630952Y-121404761D01*
X17678571Y-121309523D01*
X17678571Y-120452380D01*
X16392857Y-121452380D02*
X16392857Y-120452380D01*
X16392857Y-120833333D02*
X16297619Y-120785714D01*
X16107142Y-120785714D01*
X16011904Y-120833333D01*
X15964285Y-120880952D01*
X15916666Y-120976190D01*
X15916666Y-121261904D01*
X15964285Y-121357142D01*
X16011904Y-121404761D01*
X16107142Y-121452380D01*
X16297619Y-121452380D01*
X16392857Y-121404761D01*
X15583333Y-120785714D02*
X15345238Y-121452380D01*
X15107142Y-120785714D02*
X15345238Y-121452380D01*
X15440476Y-121690476D01*
X15488095Y-121738095D01*
X15583333Y-121785714D01*
X13964285Y-120785714D02*
X13964285Y-121642857D01*
X14011904Y-121738095D01*
X14107142Y-121785714D01*
X14154761Y-121785714D01*
X13964285Y-120452380D02*
X14011904Y-120500000D01*
X13964285Y-120547619D01*
X13916666Y-120500000D01*
X13964285Y-120452380D01*
X13964285Y-120547619D01*
X13059523Y-121452380D02*
X13059523Y-120928571D01*
X13107142Y-120833333D01*
X13202380Y-120785714D01*
X13392857Y-120785714D01*
X13488095Y-120833333D01*
X13059523Y-121404761D02*
X13154761Y-121452380D01*
X13392857Y-121452380D01*
X13488095Y-121404761D01*
X13535714Y-121309523D01*
X13535714Y-121214285D01*
X13488095Y-121119047D01*
X13392857Y-121071428D01*
X13154761Y-121071428D01*
X13059523Y-121023809D01*
X12154761Y-121404761D02*
X12250000Y-121452380D01*
X12440476Y-121452380D01*
X12535714Y-121404761D01*
X12583333Y-121357142D01*
X12630952Y-121261904D01*
X12630952Y-120976190D01*
X12583333Y-120880952D01*
X12535714Y-120833333D01*
X12440476Y-120785714D01*
X12250000Y-120785714D01*
X12154761Y-120833333D01*
X11726190Y-121452380D02*
X11726190Y-120452380D01*
X11630952Y-121071428D02*
X11345238Y-121452380D01*
X11345238Y-120785714D02*
X11726190Y-121166666D01*
X10202380Y-121404761D02*
X10107142Y-121452380D01*
X9916666Y-121452380D01*
X9821428Y-121404761D01*
X9773809Y-121309523D01*
X9773809Y-121261904D01*
X9821428Y-121166666D01*
X9916666Y-121119047D01*
X10059523Y-121119047D01*
X10154761Y-121071428D01*
X10202380Y-120976190D01*
X10202380Y-120928571D01*
X10154761Y-120833333D01*
X10059523Y-120785714D01*
X9916666Y-120785714D01*
X9821428Y-120833333D01*
X9345238Y-121357142D02*
X9297619Y-121404761D01*
X9345238Y-121452380D01*
X9392857Y-121404761D01*
X9345238Y-121357142D01*
X9345238Y-121452380D01*
X8154761Y-120547619D02*
X8107142Y-120500000D01*
X8011904Y-120452380D01*
X7773809Y-120452380D01*
X7678571Y-120500000D01*
X7630952Y-120547619D01*
X7583333Y-120642857D01*
X7583333Y-120738095D01*
X7630952Y-120880952D01*
X8202380Y-121452380D01*
X7583333Y-121452380D01*
X6964285Y-120452380D02*
X6869047Y-120452380D01*
X6773809Y-120500000D01*
X6726190Y-120547619D01*
X6678571Y-120642857D01*
X6630952Y-120833333D01*
X6630952Y-121071428D01*
X6678571Y-121261904D01*
X6726190Y-121357142D01*
X6773809Y-121404761D01*
X6869047Y-121452380D01*
X6964285Y-121452380D01*
X7059523Y-121404761D01*
X7107142Y-121357142D01*
X7154761Y-121261904D01*
X7202380Y-121071428D01*
X7202380Y-120833333D01*
X7154761Y-120642857D01*
X7107142Y-120547619D01*
X7059523Y-120500000D01*
X6964285Y-120452380D01*
X6250000Y-120547619D02*
X6202380Y-120500000D01*
X6107142Y-120452380D01*
X5869047Y-120452380D01*
X5773809Y-120500000D01*
X5726190Y-120547619D01*
X5678571Y-120642857D01*
X5678571Y-120738095D01*
X5726190Y-120880952D01*
X6297619Y-121452380D01*
X5678571Y-121452380D01*
X4726190Y-121452380D02*
X5297619Y-121452380D01*
X5011904Y-121452380D02*
X5011904Y-120452380D01*
X5107142Y-120595238D01*
X5202380Y-120690476D01*
X5297619Y-120738095D01*
D10*
X32750000Y-102250000D02*
G75*
G03X32750000Y-102250000I-3500000J0D01*
G01*
D12*
G36*
X73854975Y-109208585D02*
G01*
X74154528Y-109268170D01*
X74718874Y-109501930D01*
X75226772Y-109841296D01*
X75658704Y-110273228D01*
X75998070Y-110781126D01*
X76231830Y-111345472D01*
X76351000Y-111944578D01*
X76351000Y-112555422D01*
X76231830Y-113154528D01*
X75998070Y-113718874D01*
X75658704Y-114226772D01*
X75226772Y-114658704D01*
X74718874Y-114998070D01*
X74154528Y-115231830D01*
X73854975Y-115291415D01*
X73555423Y-115351000D01*
X72944577Y-115351000D01*
X72645025Y-115291415D01*
X72345472Y-115231830D01*
X71781126Y-114998070D01*
X71273228Y-114658704D01*
X70841296Y-114226772D01*
X70501930Y-113718874D01*
X70268170Y-113154528D01*
X70149000Y-112555422D01*
X70149000Y-111944578D01*
X70268170Y-111345472D01*
X70501930Y-110781126D01*
X70841296Y-110273228D01*
X71273228Y-109841296D01*
X71781126Y-109501930D01*
X72345472Y-109268170D01*
X72645025Y-109208585D01*
X72944577Y-109149000D01*
X73555423Y-109149000D01*
X73854975Y-109208585D01*
G37*
G36*
X51854975Y-109208585D02*
G01*
X52154528Y-109268170D01*
X52718874Y-109501930D01*
X53226772Y-109841296D01*
X53658704Y-110273228D01*
X53998070Y-110781126D01*
X54231830Y-111345472D01*
X54351000Y-111944578D01*
X54351000Y-112555422D01*
X54231830Y-113154528D01*
X53998070Y-113718874D01*
X53658704Y-114226772D01*
X53226772Y-114658704D01*
X52718874Y-114998070D01*
X52154528Y-115231830D01*
X51854975Y-115291415D01*
X51555423Y-115351000D01*
X50944577Y-115351000D01*
X50645025Y-115291415D01*
X50345472Y-115231830D01*
X49781126Y-114998070D01*
X49273228Y-114658704D01*
X48841296Y-114226772D01*
X48501930Y-113718874D01*
X48268170Y-113154528D01*
X48149000Y-112555422D01*
X48149000Y-111944578D01*
X48268170Y-111345472D01*
X48501930Y-110781126D01*
X48841296Y-110273228D01*
X49273228Y-109841296D01*
X49781126Y-109501930D01*
X50345472Y-109268170D01*
X50645025Y-109208585D01*
X50944577Y-109149000D01*
X51555423Y-109149000D01*
X51854975Y-109208585D01*
G37*
G36*
X29854975Y-109208585D02*
G01*
X30154528Y-109268170D01*
X30718874Y-109501930D01*
X31226772Y-109841296D01*
X31658704Y-110273228D01*
X31998070Y-110781126D01*
X32231830Y-111345472D01*
X32351000Y-111944578D01*
X32351000Y-112555422D01*
X32231830Y-113154528D01*
X31998070Y-113718874D01*
X31658704Y-114226772D01*
X31226772Y-114658704D01*
X30718874Y-114998070D01*
X30154528Y-115231830D01*
X29854975Y-115291415D01*
X29555423Y-115351000D01*
X28944577Y-115351000D01*
X28645025Y-115291415D01*
X28345472Y-115231830D01*
X27781126Y-114998070D01*
X27273228Y-114658704D01*
X26841296Y-114226772D01*
X26501930Y-113718874D01*
X26268170Y-113154528D01*
X26149000Y-112555422D01*
X26149000Y-111944578D01*
X26268170Y-111345472D01*
X26501930Y-110781126D01*
X26841296Y-110273228D01*
X27273228Y-109841296D01*
X27781126Y-109501930D01*
X28345472Y-109268170D01*
X28645025Y-109208585D01*
X28944577Y-109149000D01*
X29555423Y-109149000D01*
X29854975Y-109208585D01*
G37*
G36*
X7854975Y-109208585D02*
G01*
X8154528Y-109268170D01*
X8718874Y-109501930D01*
X9226772Y-109841296D01*
X9658704Y-110273228D01*
X9998070Y-110781126D01*
X10231830Y-111345472D01*
X10351000Y-111944578D01*
X10351000Y-112555422D01*
X10231830Y-113154528D01*
X9998070Y-113718874D01*
X9658704Y-114226772D01*
X9226772Y-114658704D01*
X8718874Y-114998070D01*
X8154528Y-115231830D01*
X7854975Y-115291415D01*
X7555423Y-115351000D01*
X6944577Y-115351000D01*
X6645025Y-115291415D01*
X6345472Y-115231830D01*
X5781126Y-114998070D01*
X5273228Y-114658704D01*
X4841296Y-114226772D01*
X4501930Y-113718874D01*
X4268170Y-113154528D01*
X4149000Y-112555422D01*
X4149000Y-111944578D01*
X4268170Y-111345472D01*
X4501930Y-110781126D01*
X4841296Y-110273228D01*
X5273228Y-109841296D01*
X5781126Y-109501930D01*
X6345472Y-109268170D01*
X6645025Y-109208585D01*
X6944577Y-109149000D01*
X7555423Y-109149000D01*
X7854975Y-109208585D01*
G37*
G36*
X133854975Y-105958585D02*
G01*
X134154528Y-106018170D01*
X134718874Y-106251930D01*
X135226772Y-106591296D01*
X135658704Y-107023228D01*
X135998070Y-107531126D01*
X136231830Y-108095472D01*
X136351000Y-108694578D01*
X136351000Y-109305422D01*
X136231830Y-109904528D01*
X135998070Y-110468874D01*
X135658704Y-110976772D01*
X135226772Y-111408704D01*
X134718874Y-111748070D01*
X134154528Y-111981830D01*
X133854975Y-112041415D01*
X133555423Y-112101000D01*
X132944577Y-112101000D01*
X132645025Y-112041415D01*
X132345472Y-111981830D01*
X131781126Y-111748070D01*
X131273228Y-111408704D01*
X130841296Y-110976772D01*
X130501930Y-110468874D01*
X130268170Y-109904528D01*
X130149000Y-109305422D01*
X130149000Y-108694578D01*
X130268170Y-108095472D01*
X130501930Y-107531126D01*
X130841296Y-107023228D01*
X131273228Y-106591296D01*
X131781126Y-106251930D01*
X132345472Y-106018170D01*
X132645025Y-105958585D01*
X132944577Y-105899000D01*
X133555423Y-105899000D01*
X133854975Y-105958585D01*
G37*
G36*
X115354975Y-105958585D02*
G01*
X115654528Y-106018170D01*
X116218874Y-106251930D01*
X116726772Y-106591296D01*
X117158704Y-107023228D01*
X117498070Y-107531126D01*
X117731830Y-108095472D01*
X117851000Y-108694578D01*
X117851000Y-109305422D01*
X117731830Y-109904528D01*
X117498070Y-110468874D01*
X117158704Y-110976772D01*
X116726772Y-111408704D01*
X116218874Y-111748070D01*
X115654528Y-111981830D01*
X115354975Y-112041415D01*
X115055423Y-112101000D01*
X114444577Y-112101000D01*
X114145025Y-112041415D01*
X113845472Y-111981830D01*
X113281126Y-111748070D01*
X112773228Y-111408704D01*
X112341296Y-110976772D01*
X112001930Y-110468874D01*
X111768170Y-109904528D01*
X111649000Y-109305422D01*
X111649000Y-108694578D01*
X111768170Y-108095472D01*
X112001930Y-107531126D01*
X112341296Y-107023228D01*
X112773228Y-106591296D01*
X113281126Y-106251930D01*
X113845472Y-106018170D01*
X114145025Y-105958585D01*
X114444577Y-105899000D01*
X115055423Y-105899000D01*
X115354975Y-105958585D01*
G37*
G36*
X97354975Y-105958585D02*
G01*
X97654528Y-106018170D01*
X98218874Y-106251930D01*
X98726772Y-106591296D01*
X99158704Y-107023228D01*
X99498070Y-107531126D01*
X99731830Y-108095472D01*
X99851000Y-108694578D01*
X99851000Y-109305422D01*
X99731830Y-109904528D01*
X99498070Y-110468874D01*
X99158704Y-110976772D01*
X98726772Y-111408704D01*
X98218874Y-111748070D01*
X97654528Y-111981830D01*
X97354975Y-112041415D01*
X97055423Y-112101000D01*
X96444577Y-112101000D01*
X96145025Y-112041415D01*
X95845472Y-111981830D01*
X95281126Y-111748070D01*
X94773228Y-111408704D01*
X94341296Y-110976772D01*
X94001930Y-110468874D01*
X93768170Y-109904528D01*
X93649000Y-109305422D01*
X93649000Y-108694578D01*
X93768170Y-108095472D01*
X94001930Y-107531126D01*
X94341296Y-107023228D01*
X94773228Y-106591296D01*
X95281126Y-106251930D01*
X95845472Y-106018170D01*
X96145025Y-105958585D01*
X96444577Y-105899000D01*
X97055423Y-105899000D01*
X97354975Y-105958585D01*
G37*
G36*
X29854975Y-99208585D02*
G01*
X30154528Y-99268170D01*
X30718874Y-99501930D01*
X31226772Y-99841296D01*
X31658704Y-100273228D01*
X31998070Y-100781126D01*
X32231830Y-101345472D01*
X32351000Y-101944578D01*
X32351000Y-102555422D01*
X32231830Y-103154528D01*
X31998070Y-103718874D01*
X31658704Y-104226772D01*
X31226772Y-104658704D01*
X30718874Y-104998070D01*
X30154528Y-105231830D01*
X29854975Y-105291415D01*
X29555423Y-105351000D01*
X28944577Y-105351000D01*
X28645025Y-105291415D01*
X28345472Y-105231830D01*
X27781126Y-104998070D01*
X27273228Y-104658704D01*
X26841296Y-104226772D01*
X26501930Y-103718874D01*
X26268170Y-103154528D01*
X26149000Y-102555422D01*
X26149000Y-101944578D01*
X26268170Y-101345472D01*
X26501930Y-100781126D01*
X26841296Y-100273228D01*
X27273228Y-99841296D01*
X27781126Y-99501930D01*
X28345472Y-99268170D01*
X28645025Y-99208585D01*
X28944577Y-99149000D01*
X29555423Y-99149000D01*
X29854975Y-99208585D01*
G37*
G36*
X51854975Y-99208585D02*
G01*
X52154528Y-99268170D01*
X52718874Y-99501930D01*
X53226772Y-99841296D01*
X53658704Y-100273228D01*
X53998070Y-100781126D01*
X54231830Y-101345472D01*
X54351000Y-101944578D01*
X54351000Y-102555422D01*
X54231830Y-103154528D01*
X53998070Y-103718874D01*
X53658704Y-104226772D01*
X53226772Y-104658704D01*
X52718874Y-104998070D01*
X52154528Y-105231830D01*
X51854975Y-105291415D01*
X51555423Y-105351000D01*
X50944577Y-105351000D01*
X50645025Y-105291415D01*
X50345472Y-105231830D01*
X49781126Y-104998070D01*
X49273228Y-104658704D01*
X48841296Y-104226772D01*
X48501930Y-103718874D01*
X48268170Y-103154528D01*
X48149000Y-102555422D01*
X48149000Y-101944578D01*
X48268170Y-101345472D01*
X48501930Y-100781126D01*
X48841296Y-100273228D01*
X49273228Y-99841296D01*
X49781126Y-99501930D01*
X50345472Y-99268170D01*
X50645025Y-99208585D01*
X50944577Y-99149000D01*
X51555423Y-99149000D01*
X51854975Y-99208585D01*
G37*
G36*
X7854975Y-99208585D02*
G01*
X8154528Y-99268170D01*
X8718874Y-99501930D01*
X9226772Y-99841296D01*
X9658704Y-100273228D01*
X9998070Y-100781126D01*
X10231830Y-101345472D01*
X10351000Y-101944578D01*
X10351000Y-102555422D01*
X10231830Y-103154528D01*
X9998070Y-103718874D01*
X9658704Y-104226772D01*
X9226772Y-104658704D01*
X8718874Y-104998070D01*
X8154528Y-105231830D01*
X7854975Y-105291415D01*
X7555423Y-105351000D01*
X6944577Y-105351000D01*
X6645025Y-105291415D01*
X6345472Y-105231830D01*
X5781126Y-104998070D01*
X5273228Y-104658704D01*
X4841296Y-104226772D01*
X4501930Y-103718874D01*
X4268170Y-103154528D01*
X4149000Y-102555422D01*
X4149000Y-101944578D01*
X4268170Y-101345472D01*
X4501930Y-100781126D01*
X4841296Y-100273228D01*
X5273228Y-99841296D01*
X5781126Y-99501930D01*
X6345472Y-99268170D01*
X6645025Y-99208585D01*
X6944577Y-99149000D01*
X7555423Y-99149000D01*
X7854975Y-99208585D01*
G37*
G36*
X73854975Y-99208585D02*
G01*
X74154528Y-99268170D01*
X74718874Y-99501930D01*
X75226772Y-99841296D01*
X75658704Y-100273228D01*
X75998070Y-100781126D01*
X76231830Y-101345472D01*
X76351000Y-101944578D01*
X76351000Y-102555422D01*
X76231830Y-103154528D01*
X75998070Y-103718874D01*
X75658704Y-104226772D01*
X75226772Y-104658704D01*
X74718874Y-104998070D01*
X74154528Y-105231830D01*
X73854975Y-105291415D01*
X73555423Y-105351000D01*
X72944577Y-105351000D01*
X72645025Y-105291415D01*
X72345472Y-105231830D01*
X71781126Y-104998070D01*
X71273228Y-104658704D01*
X70841296Y-104226772D01*
X70501930Y-103718874D01*
X70268170Y-103154528D01*
X70149000Y-102555422D01*
X70149000Y-101944578D01*
X70268170Y-101345472D01*
X70501930Y-100781126D01*
X70841296Y-100273228D01*
X71273228Y-99841296D01*
X71781126Y-99501930D01*
X72345472Y-99268170D01*
X72645025Y-99208585D01*
X72944577Y-99149000D01*
X73555423Y-99149000D01*
X73854975Y-99208585D01*
G37*
G36*
X133854975Y-93958585D02*
G01*
X134154528Y-94018170D01*
X134718874Y-94251930D01*
X135226772Y-94591296D01*
X135658704Y-95023228D01*
X135998070Y-95531126D01*
X136231830Y-96095472D01*
X136351000Y-96694578D01*
X136351000Y-97305422D01*
X136231830Y-97904528D01*
X135998070Y-98468874D01*
X135658704Y-98976772D01*
X135226772Y-99408704D01*
X134718874Y-99748070D01*
X134154528Y-99981830D01*
X133854975Y-100041415D01*
X133555423Y-100101000D01*
X132944577Y-100101000D01*
X132645025Y-100041415D01*
X132345472Y-99981830D01*
X131781126Y-99748070D01*
X131273228Y-99408704D01*
X130841296Y-98976772D01*
X130501930Y-98468874D01*
X130268170Y-97904528D01*
X130149000Y-97305422D01*
X130149000Y-96694578D01*
X130268170Y-96095472D01*
X130501930Y-95531126D01*
X130841296Y-95023228D01*
X131273228Y-94591296D01*
X131781126Y-94251930D01*
X132345472Y-94018170D01*
X132645025Y-93958585D01*
X132944577Y-93899000D01*
X133555423Y-93899000D01*
X133854975Y-93958585D01*
G37*
G36*
X97354975Y-93958585D02*
G01*
X97654528Y-94018170D01*
X98218874Y-94251930D01*
X98726772Y-94591296D01*
X99158704Y-95023228D01*
X99498070Y-95531126D01*
X99731830Y-96095472D01*
X99851000Y-96694578D01*
X99851000Y-97305422D01*
X99731830Y-97904528D01*
X99498070Y-98468874D01*
X99158704Y-98976772D01*
X98726772Y-99408704D01*
X98218874Y-99748070D01*
X97654528Y-99981830D01*
X97354975Y-100041415D01*
X97055423Y-100101000D01*
X96444577Y-100101000D01*
X96145025Y-100041415D01*
X95845472Y-99981830D01*
X95281126Y-99748070D01*
X94773228Y-99408704D01*
X94341296Y-98976772D01*
X94001930Y-98468874D01*
X93768170Y-97904528D01*
X93649000Y-97305422D01*
X93649000Y-96694578D01*
X93768170Y-96095472D01*
X94001930Y-95531126D01*
X94341296Y-95023228D01*
X94773228Y-94591296D01*
X95281126Y-94251930D01*
X95845472Y-94018170D01*
X96145025Y-93958585D01*
X96444577Y-93899000D01*
X97055423Y-93899000D01*
X97354975Y-93958585D01*
G37*
G36*
X115354975Y-93958585D02*
G01*
X115654528Y-94018170D01*
X116218874Y-94251930D01*
X116726772Y-94591296D01*
X117158704Y-95023228D01*
X117498070Y-95531126D01*
X117731830Y-96095472D01*
X117851000Y-96694578D01*
X117851000Y-97305422D01*
X117731830Y-97904528D01*
X117498070Y-98468874D01*
X117158704Y-98976772D01*
X116726772Y-99408704D01*
X116218874Y-99748070D01*
X115654528Y-99981830D01*
X115354975Y-100041415D01*
X115055423Y-100101000D01*
X114444577Y-100101000D01*
X114145025Y-100041415D01*
X113845472Y-99981830D01*
X113281126Y-99748070D01*
X112773228Y-99408704D01*
X112341296Y-98976772D01*
X112001930Y-98468874D01*
X111768170Y-97904528D01*
X111649000Y-97305422D01*
X111649000Y-96694578D01*
X111768170Y-96095472D01*
X112001930Y-95531126D01*
X112341296Y-95023228D01*
X112773228Y-94591296D01*
X113281126Y-94251930D01*
X113845472Y-94018170D01*
X114145025Y-93958585D01*
X114444577Y-93899000D01*
X115055423Y-93899000D01*
X115354975Y-93958585D01*
G37*
G36*
X115354975Y-81958585D02*
G01*
X115654528Y-82018170D01*
X116218874Y-82251930D01*
X116726772Y-82591296D01*
X117158704Y-83023228D01*
X117498070Y-83531126D01*
X117731830Y-84095472D01*
X117851000Y-84694578D01*
X117851000Y-85305422D01*
X117731830Y-85904528D01*
X117498070Y-86468874D01*
X117158704Y-86976772D01*
X116726772Y-87408704D01*
X116218874Y-87748070D01*
X115654528Y-87981830D01*
X115354975Y-88041415D01*
X115055423Y-88101000D01*
X114444577Y-88101000D01*
X114145025Y-88041415D01*
X113845472Y-87981830D01*
X113281126Y-87748070D01*
X112773228Y-87408704D01*
X112341296Y-86976772D01*
X112001930Y-86468874D01*
X111768170Y-85904528D01*
X111649000Y-85305422D01*
X111649000Y-84694578D01*
X111768170Y-84095472D01*
X112001930Y-83531126D01*
X112341296Y-83023228D01*
X112773228Y-82591296D01*
X113281126Y-82251930D01*
X113845472Y-82018170D01*
X114145025Y-81958585D01*
X114444577Y-81899000D01*
X115055423Y-81899000D01*
X115354975Y-81958585D01*
G37*
G36*
X97354975Y-81958585D02*
G01*
X97654528Y-82018170D01*
X98218874Y-82251930D01*
X98726772Y-82591296D01*
X99158704Y-83023228D01*
X99498070Y-83531126D01*
X99731830Y-84095472D01*
X99851000Y-84694578D01*
X99851000Y-85305422D01*
X99731830Y-85904528D01*
X99498070Y-86468874D01*
X99158704Y-86976772D01*
X98726772Y-87408704D01*
X98218874Y-87748070D01*
X97654528Y-87981830D01*
X97354975Y-88041415D01*
X97055423Y-88101000D01*
X96444577Y-88101000D01*
X96145025Y-88041415D01*
X95845472Y-87981830D01*
X95281126Y-87748070D01*
X94773228Y-87408704D01*
X94341296Y-86976772D01*
X94001930Y-86468874D01*
X93768170Y-85904528D01*
X93649000Y-85305422D01*
X93649000Y-84694578D01*
X93768170Y-84095472D01*
X94001930Y-83531126D01*
X94341296Y-83023228D01*
X94773228Y-82591296D01*
X95281126Y-82251930D01*
X95845472Y-82018170D01*
X96145025Y-81958585D01*
X96444577Y-81899000D01*
X97055423Y-81899000D01*
X97354975Y-81958585D01*
G37*
G36*
X133854975Y-81958585D02*
G01*
X134154528Y-82018170D01*
X134718874Y-82251930D01*
X135226772Y-82591296D01*
X135658704Y-83023228D01*
X135998070Y-83531126D01*
X136231830Y-84095472D01*
X136351000Y-84694578D01*
X136351000Y-85305422D01*
X136231830Y-85904528D01*
X135998070Y-86468874D01*
X135658704Y-86976772D01*
X135226772Y-87408704D01*
X134718874Y-87748070D01*
X134154528Y-87981830D01*
X133854975Y-88041415D01*
X133555423Y-88101000D01*
X132944577Y-88101000D01*
X132645025Y-88041415D01*
X132345472Y-87981830D01*
X131781126Y-87748070D01*
X131273228Y-87408704D01*
X130841296Y-86976772D01*
X130501930Y-86468874D01*
X130268170Y-85904528D01*
X130149000Y-85305422D01*
X130149000Y-84694578D01*
X130268170Y-84095472D01*
X130501930Y-83531126D01*
X130841296Y-83023228D01*
X131273228Y-82591296D01*
X131781126Y-82251930D01*
X132345472Y-82018170D01*
X132645025Y-81958585D01*
X132944577Y-81899000D01*
X133555423Y-81899000D01*
X133854975Y-81958585D01*
G37*
G36*
X62446217Y-82906665D02*
G01*
X62716995Y-82960525D01*
X63008358Y-83081212D01*
X63270578Y-83256422D01*
X63493578Y-83479422D01*
X63668788Y-83741642D01*
X63789475Y-84033005D01*
X63851000Y-84342315D01*
X63851000Y-84657685D01*
X63789475Y-84966995D01*
X63668788Y-85258358D01*
X63493578Y-85520578D01*
X63270578Y-85743578D01*
X63008358Y-85918788D01*
X62716995Y-86039475D01*
X62446217Y-86093335D01*
X62407686Y-86101000D01*
X62092314Y-86101000D01*
X62053783Y-86093335D01*
X61783005Y-86039475D01*
X61491642Y-85918788D01*
X61229422Y-85743578D01*
X61006422Y-85520578D01*
X60831212Y-85258358D01*
X60710525Y-84966995D01*
X60649000Y-84657685D01*
X60649000Y-84342315D01*
X60710525Y-84033005D01*
X60831212Y-83741642D01*
X61006422Y-83479422D01*
X61229422Y-83256422D01*
X61491642Y-83081212D01*
X61783005Y-82960525D01*
X62053783Y-82906665D01*
X62092314Y-82899000D01*
X62407686Y-82899000D01*
X62446217Y-82906665D01*
G37*
G36*
X84446217Y-82906665D02*
G01*
X84716995Y-82960525D01*
X85008358Y-83081212D01*
X85270578Y-83256422D01*
X85493578Y-83479422D01*
X85668788Y-83741642D01*
X85789475Y-84033005D01*
X85851000Y-84342315D01*
X85851000Y-84657685D01*
X85789475Y-84966995D01*
X85668788Y-85258358D01*
X85493578Y-85520578D01*
X85270578Y-85743578D01*
X85008358Y-85918788D01*
X84716995Y-86039475D01*
X84446217Y-86093335D01*
X84407686Y-86101000D01*
X84092314Y-86101000D01*
X84053783Y-86093335D01*
X83783005Y-86039475D01*
X83491642Y-85918788D01*
X83229422Y-85743578D01*
X83006422Y-85520578D01*
X82831212Y-85258358D01*
X82710525Y-84966995D01*
X82649000Y-84657685D01*
X82649000Y-84342315D01*
X82710525Y-84033005D01*
X82831212Y-83741642D01*
X83006422Y-83479422D01*
X83229422Y-83256422D01*
X83491642Y-83081212D01*
X83783005Y-82960525D01*
X84053783Y-82906665D01*
X84092314Y-82899000D01*
X84407686Y-82899000D01*
X84446217Y-82906665D01*
G37*
G36*
X40446217Y-82906665D02*
G01*
X40716995Y-82960525D01*
X41008358Y-83081212D01*
X41270578Y-83256422D01*
X41493578Y-83479422D01*
X41668788Y-83741642D01*
X41789475Y-84033005D01*
X41851000Y-84342315D01*
X41851000Y-84657685D01*
X41789475Y-84966995D01*
X41668788Y-85258358D01*
X41493578Y-85520578D01*
X41270578Y-85743578D01*
X41008358Y-85918788D01*
X40716995Y-86039475D01*
X40446217Y-86093335D01*
X40407686Y-86101000D01*
X40092314Y-86101000D01*
X40053783Y-86093335D01*
X39783005Y-86039475D01*
X39491642Y-85918788D01*
X39229422Y-85743578D01*
X39006422Y-85520578D01*
X38831212Y-85258358D01*
X38710525Y-84966995D01*
X38649000Y-84657685D01*
X38649000Y-84342315D01*
X38710525Y-84033005D01*
X38831212Y-83741642D01*
X39006422Y-83479422D01*
X39229422Y-83256422D01*
X39491642Y-83081212D01*
X39783005Y-82960525D01*
X40053783Y-82906665D01*
X40092314Y-82899000D01*
X40407686Y-82899000D01*
X40446217Y-82906665D01*
G37*
G36*
X18446217Y-82906665D02*
G01*
X18716995Y-82960525D01*
X19008358Y-83081212D01*
X19270578Y-83256422D01*
X19493578Y-83479422D01*
X19668788Y-83741642D01*
X19789475Y-84033005D01*
X19851000Y-84342315D01*
X19851000Y-84657685D01*
X19789475Y-84966995D01*
X19668788Y-85258358D01*
X19493578Y-85520578D01*
X19270578Y-85743578D01*
X19008358Y-85918788D01*
X18716995Y-86039475D01*
X18446217Y-86093335D01*
X18407686Y-86101000D01*
X18092314Y-86101000D01*
X18053783Y-86093335D01*
X17783005Y-86039475D01*
X17491642Y-85918788D01*
X17229422Y-85743578D01*
X17006422Y-85520578D01*
X16831212Y-85258358D01*
X16710525Y-84966995D01*
X16649000Y-84657685D01*
X16649000Y-84342315D01*
X16710525Y-84033005D01*
X16831212Y-83741642D01*
X17006422Y-83479422D01*
X17229422Y-83256422D01*
X17491642Y-83081212D01*
X17783005Y-82960525D01*
X18053783Y-82906665D01*
X18092314Y-82899000D01*
X18407686Y-82899000D01*
X18446217Y-82906665D01*
G37*
G36*
X115354975Y-69958585D02*
G01*
X115654528Y-70018170D01*
X116218874Y-70251930D01*
X116726772Y-70591296D01*
X117158704Y-71023228D01*
X117498070Y-71531126D01*
X117731830Y-72095472D01*
X117851000Y-72694578D01*
X117851000Y-73305422D01*
X117731830Y-73904528D01*
X117498070Y-74468874D01*
X117158704Y-74976772D01*
X116726772Y-75408704D01*
X116218874Y-75748070D01*
X115654528Y-75981830D01*
X115354975Y-76041415D01*
X115055423Y-76101000D01*
X114444577Y-76101000D01*
X114145025Y-76041415D01*
X113845472Y-75981830D01*
X113281126Y-75748070D01*
X112773228Y-75408704D01*
X112341296Y-74976772D01*
X112001930Y-74468874D01*
X111768170Y-73904528D01*
X111649000Y-73305422D01*
X111649000Y-72694578D01*
X111768170Y-72095472D01*
X112001930Y-71531126D01*
X112341296Y-71023228D01*
X112773228Y-70591296D01*
X113281126Y-70251930D01*
X113845472Y-70018170D01*
X114145025Y-69958585D01*
X114444577Y-69899000D01*
X115055423Y-69899000D01*
X115354975Y-69958585D01*
G37*
G36*
X97354975Y-69958585D02*
G01*
X97654528Y-70018170D01*
X98218874Y-70251930D01*
X98726772Y-70591296D01*
X99158704Y-71023228D01*
X99498070Y-71531126D01*
X99731830Y-72095472D01*
X99851000Y-72694578D01*
X99851000Y-73305422D01*
X99731830Y-73904528D01*
X99498070Y-74468874D01*
X99158704Y-74976772D01*
X98726772Y-75408704D01*
X98218874Y-75748070D01*
X97654528Y-75981830D01*
X97354975Y-76041415D01*
X97055423Y-76101000D01*
X96444577Y-76101000D01*
X96145025Y-76041415D01*
X95845472Y-75981830D01*
X95281126Y-75748070D01*
X94773228Y-75408704D01*
X94341296Y-74976772D01*
X94001930Y-74468874D01*
X93768170Y-73904528D01*
X93649000Y-73305422D01*
X93649000Y-72694578D01*
X93768170Y-72095472D01*
X94001930Y-71531126D01*
X94341296Y-71023228D01*
X94773228Y-70591296D01*
X95281126Y-70251930D01*
X95845472Y-70018170D01*
X96145025Y-69958585D01*
X96444577Y-69899000D01*
X97055423Y-69899000D01*
X97354975Y-69958585D01*
G37*
G36*
X133854975Y-59958585D02*
G01*
X134154528Y-60018170D01*
X134718874Y-60251930D01*
X135226772Y-60591296D01*
X135658704Y-61023228D01*
X135998070Y-61531126D01*
X136231830Y-62095472D01*
X136351000Y-62694578D01*
X136351000Y-63305422D01*
X136231830Y-63904528D01*
X135998070Y-64468874D01*
X135658704Y-64976772D01*
X135226772Y-65408704D01*
X134718874Y-65748070D01*
X134154528Y-65981830D01*
X133854975Y-66041415D01*
X133555423Y-66101000D01*
X132944577Y-66101000D01*
X132645025Y-66041415D01*
X132345472Y-65981830D01*
X131781126Y-65748070D01*
X131273228Y-65408704D01*
X130841296Y-64976772D01*
X130501930Y-64468874D01*
X130268170Y-63904528D01*
X130149000Y-63305422D01*
X130149000Y-62694578D01*
X130268170Y-62095472D01*
X130501930Y-61531126D01*
X130841296Y-61023228D01*
X131273228Y-60591296D01*
X131781126Y-60251930D01*
X132345472Y-60018170D01*
X132645025Y-59958585D01*
X132944577Y-59899000D01*
X133555423Y-59899000D01*
X133854975Y-59958585D01*
G37*
G36*
X40446217Y-60906665D02*
G01*
X40716995Y-60960525D01*
X41008358Y-61081212D01*
X41270578Y-61256422D01*
X41493578Y-61479422D01*
X41668788Y-61741642D01*
X41789475Y-62033005D01*
X41851000Y-62342315D01*
X41851000Y-62657685D01*
X41789475Y-62966995D01*
X41668788Y-63258358D01*
X41493578Y-63520578D01*
X41270578Y-63743578D01*
X41008358Y-63918788D01*
X40716995Y-64039475D01*
X40446217Y-64093335D01*
X40407686Y-64101000D01*
X40092314Y-64101000D01*
X40053783Y-64093335D01*
X39783005Y-64039475D01*
X39491642Y-63918788D01*
X39229422Y-63743578D01*
X39006422Y-63520578D01*
X38831212Y-63258358D01*
X38710525Y-62966995D01*
X38649000Y-62657685D01*
X38649000Y-62342315D01*
X38710525Y-62033005D01*
X38831212Y-61741642D01*
X39006422Y-61479422D01*
X39229422Y-61256422D01*
X39491642Y-61081212D01*
X39783005Y-60960525D01*
X40053783Y-60906665D01*
X40092314Y-60899000D01*
X40407686Y-60899000D01*
X40446217Y-60906665D01*
G37*
G36*
X97354975Y-57958585D02*
G01*
X97654528Y-58018170D01*
X98218874Y-58251930D01*
X98726772Y-58591296D01*
X99158704Y-59023228D01*
X99498070Y-59531126D01*
X99731830Y-60095472D01*
X99851000Y-60694578D01*
X99851000Y-61305422D01*
X99731830Y-61904528D01*
X99498070Y-62468874D01*
X99158704Y-62976772D01*
X98726772Y-63408704D01*
X98218874Y-63748070D01*
X97654528Y-63981830D01*
X97364733Y-64039474D01*
X97055423Y-64101000D01*
X96444577Y-64101000D01*
X96135267Y-64039474D01*
X95845472Y-63981830D01*
X95281126Y-63748070D01*
X94773228Y-63408704D01*
X94341296Y-62976772D01*
X94001930Y-62468874D01*
X93768170Y-61904528D01*
X93649000Y-61305422D01*
X93649000Y-60694578D01*
X93768170Y-60095472D01*
X94001930Y-59531126D01*
X94341296Y-59023228D01*
X94773228Y-58591296D01*
X95281126Y-58251930D01*
X95845472Y-58018170D01*
X96145025Y-57958585D01*
X96444577Y-57899000D01*
X97055423Y-57899000D01*
X97354975Y-57958585D01*
G37*
G36*
X115354975Y-57958585D02*
G01*
X115654528Y-58018170D01*
X116218874Y-58251930D01*
X116726772Y-58591296D01*
X117158704Y-59023228D01*
X117498070Y-59531126D01*
X117731830Y-60095472D01*
X117851000Y-60694578D01*
X117851000Y-61305422D01*
X117731830Y-61904528D01*
X117498070Y-62468874D01*
X117158704Y-62976772D01*
X116726772Y-63408704D01*
X116218874Y-63748070D01*
X115654528Y-63981830D01*
X115364733Y-64039474D01*
X115055423Y-64101000D01*
X114444577Y-64101000D01*
X114135267Y-64039474D01*
X113845472Y-63981830D01*
X113281126Y-63748070D01*
X112773228Y-63408704D01*
X112341296Y-62976772D01*
X112001930Y-62468874D01*
X111768170Y-61904528D01*
X111649000Y-61305422D01*
X111649000Y-60694578D01*
X111768170Y-60095472D01*
X112001930Y-59531126D01*
X112341296Y-59023228D01*
X112773228Y-58591296D01*
X113281126Y-58251930D01*
X113845472Y-58018170D01*
X114145025Y-57958585D01*
X114444577Y-57899000D01*
X115055423Y-57899000D01*
X115354975Y-57958585D01*
G37*
G36*
X18446217Y-60906665D02*
G01*
X18716995Y-60960525D01*
X19008358Y-61081212D01*
X19270578Y-61256422D01*
X19493578Y-61479422D01*
X19668788Y-61741642D01*
X19789475Y-62033005D01*
X19851000Y-62342315D01*
X19851000Y-62657685D01*
X19789475Y-62966995D01*
X19668788Y-63258358D01*
X19493578Y-63520578D01*
X19270578Y-63743578D01*
X19008358Y-63918788D01*
X18716995Y-64039475D01*
X18446217Y-64093335D01*
X18407686Y-64101000D01*
X18092314Y-64101000D01*
X18053783Y-64093335D01*
X17783005Y-64039475D01*
X17491642Y-63918788D01*
X17229422Y-63743578D01*
X17006422Y-63520578D01*
X16831212Y-63258358D01*
X16710525Y-62966995D01*
X16649000Y-62657685D01*
X16649000Y-62342315D01*
X16710525Y-62033005D01*
X16831212Y-61741642D01*
X17006422Y-61479422D01*
X17229422Y-61256422D01*
X17491642Y-61081212D01*
X17783005Y-60960525D01*
X18053783Y-60906665D01*
X18092314Y-60899000D01*
X18407686Y-60899000D01*
X18446217Y-60906665D01*
G37*
G36*
X84446217Y-60906665D02*
G01*
X84716995Y-60960525D01*
X85008358Y-61081212D01*
X85270578Y-61256422D01*
X85493578Y-61479422D01*
X85668788Y-61741642D01*
X85789475Y-62033005D01*
X85851000Y-62342315D01*
X85851000Y-62657685D01*
X85789475Y-62966995D01*
X85668788Y-63258358D01*
X85493578Y-63520578D01*
X85270578Y-63743578D01*
X85008358Y-63918788D01*
X84716995Y-64039475D01*
X84446217Y-64093335D01*
X84407686Y-64101000D01*
X84092314Y-64101000D01*
X84053783Y-64093335D01*
X83783005Y-64039475D01*
X83491642Y-63918788D01*
X83229422Y-63743578D01*
X83006422Y-63520578D01*
X82831212Y-63258358D01*
X82710525Y-62966995D01*
X82649000Y-62657685D01*
X82649000Y-62342315D01*
X82710525Y-62033005D01*
X82831212Y-61741642D01*
X83006422Y-61479422D01*
X83229422Y-61256422D01*
X83491642Y-61081212D01*
X83783005Y-60960525D01*
X84053783Y-60906665D01*
X84092314Y-60899000D01*
X84407686Y-60899000D01*
X84446217Y-60906665D01*
G37*
G36*
X62446217Y-60906665D02*
G01*
X62716995Y-60960525D01*
X63008358Y-61081212D01*
X63270578Y-61256422D01*
X63493578Y-61479422D01*
X63668788Y-61741642D01*
X63789475Y-62033005D01*
X63851000Y-62342315D01*
X63851000Y-62657685D01*
X63789475Y-62966995D01*
X63668788Y-63258358D01*
X63493578Y-63520578D01*
X63270578Y-63743578D01*
X63008358Y-63918788D01*
X62716995Y-64039475D01*
X62446217Y-64093335D01*
X62407686Y-64101000D01*
X62092314Y-64101000D01*
X62053783Y-64093335D01*
X61783005Y-64039475D01*
X61491642Y-63918788D01*
X61229422Y-63743578D01*
X61006422Y-63520578D01*
X60831212Y-63258358D01*
X60710525Y-62966995D01*
X60649000Y-62657685D01*
X60649000Y-62342315D01*
X60710525Y-62033005D01*
X60831212Y-61741642D01*
X61006422Y-61479422D01*
X61229422Y-61256422D01*
X61491642Y-61081212D01*
X61783005Y-60960525D01*
X62053783Y-60906665D01*
X62092314Y-60899000D01*
X62407686Y-60899000D01*
X62446217Y-60906665D01*
G37*
G36*
X97354975Y-45958585D02*
G01*
X97654528Y-46018170D01*
X98218874Y-46251930D01*
X98726772Y-46591296D01*
X99158704Y-47023228D01*
X99498070Y-47531126D01*
X99731830Y-48095472D01*
X99851000Y-48694578D01*
X99851000Y-49305422D01*
X99731830Y-49904528D01*
X99498070Y-50468874D01*
X99158704Y-50976772D01*
X98726772Y-51408704D01*
X98218874Y-51748070D01*
X97654528Y-51981830D01*
X97354975Y-52041415D01*
X97055423Y-52101000D01*
X96444577Y-52101000D01*
X96145025Y-52041415D01*
X95845472Y-51981830D01*
X95281126Y-51748070D01*
X94773228Y-51408704D01*
X94341296Y-50976772D01*
X94001930Y-50468874D01*
X93768170Y-49904528D01*
X93649000Y-49305422D01*
X93649000Y-48694578D01*
X93768170Y-48095472D01*
X94001930Y-47531126D01*
X94341296Y-47023228D01*
X94773228Y-46591296D01*
X95281126Y-46251930D01*
X95845472Y-46018170D01*
X96145025Y-45958585D01*
X96444577Y-45899000D01*
X97055423Y-45899000D01*
X97354975Y-45958585D01*
G37*
G36*
X115354975Y-45958585D02*
G01*
X115654528Y-46018170D01*
X116218874Y-46251930D01*
X116726772Y-46591296D01*
X117158704Y-47023228D01*
X117498070Y-47531126D01*
X117731830Y-48095472D01*
X117851000Y-48694578D01*
X117851000Y-49305422D01*
X117731830Y-49904528D01*
X117498070Y-50468874D01*
X117158704Y-50976772D01*
X116726772Y-51408704D01*
X116218874Y-51748070D01*
X115654528Y-51981830D01*
X115354975Y-52041415D01*
X115055423Y-52101000D01*
X114444577Y-52101000D01*
X114145025Y-52041415D01*
X113845472Y-51981830D01*
X113281126Y-51748070D01*
X112773228Y-51408704D01*
X112341296Y-50976772D01*
X112001930Y-50468874D01*
X111768170Y-49904528D01*
X111649000Y-49305422D01*
X111649000Y-48694578D01*
X111768170Y-48095472D01*
X112001930Y-47531126D01*
X112341296Y-47023228D01*
X112773228Y-46591296D01*
X113281126Y-46251930D01*
X113845472Y-46018170D01*
X114145025Y-45958585D01*
X114444577Y-45899000D01*
X115055423Y-45899000D01*
X115354975Y-45958585D01*
G37*
G36*
X18446217Y-38906665D02*
G01*
X18716995Y-38960525D01*
X19008358Y-39081212D01*
X19270578Y-39256422D01*
X19493578Y-39479422D01*
X19668788Y-39741642D01*
X19789475Y-40033005D01*
X19851000Y-40342315D01*
X19851000Y-40657685D01*
X19789475Y-40966995D01*
X19668788Y-41258358D01*
X19493578Y-41520578D01*
X19270578Y-41743578D01*
X19008358Y-41918788D01*
X18716995Y-42039475D01*
X18446217Y-42093335D01*
X18407686Y-42101000D01*
X18092314Y-42101000D01*
X18053783Y-42093335D01*
X17783005Y-42039475D01*
X17491642Y-41918788D01*
X17229422Y-41743578D01*
X17006422Y-41520578D01*
X16831212Y-41258358D01*
X16710525Y-40966995D01*
X16649000Y-40657685D01*
X16649000Y-40342315D01*
X16710525Y-40033005D01*
X16831212Y-39741642D01*
X17006422Y-39479422D01*
X17229422Y-39256422D01*
X17491642Y-39081212D01*
X17783005Y-38960525D01*
X18053783Y-38906665D01*
X18092314Y-38899000D01*
X18407686Y-38899000D01*
X18446217Y-38906665D01*
G37*
G36*
X40446217Y-38906665D02*
G01*
X40716995Y-38960525D01*
X41008358Y-39081212D01*
X41270578Y-39256422D01*
X41493578Y-39479422D01*
X41668788Y-39741642D01*
X41789475Y-40033005D01*
X41851000Y-40342315D01*
X41851000Y-40657685D01*
X41789475Y-40966995D01*
X41668788Y-41258358D01*
X41493578Y-41520578D01*
X41270578Y-41743578D01*
X41008358Y-41918788D01*
X40716995Y-42039475D01*
X40446217Y-42093335D01*
X40407686Y-42101000D01*
X40092314Y-42101000D01*
X40053783Y-42093335D01*
X39783005Y-42039475D01*
X39491642Y-41918788D01*
X39229422Y-41743578D01*
X39006422Y-41520578D01*
X38831212Y-41258358D01*
X38710525Y-40966995D01*
X38649000Y-40657685D01*
X38649000Y-40342315D01*
X38710525Y-40033005D01*
X38831212Y-39741642D01*
X39006422Y-39479422D01*
X39229422Y-39256422D01*
X39491642Y-39081212D01*
X39783005Y-38960525D01*
X40053783Y-38906665D01*
X40092314Y-38899000D01*
X40407686Y-38899000D01*
X40446217Y-38906665D01*
G37*
G36*
X84446217Y-38906665D02*
G01*
X84716995Y-38960525D01*
X85008358Y-39081212D01*
X85270578Y-39256422D01*
X85493578Y-39479422D01*
X85668788Y-39741642D01*
X85789475Y-40033005D01*
X85851000Y-40342315D01*
X85851000Y-40657685D01*
X85789475Y-40966995D01*
X85668788Y-41258358D01*
X85493578Y-41520578D01*
X85270578Y-41743578D01*
X85008358Y-41918788D01*
X84716995Y-42039475D01*
X84446217Y-42093335D01*
X84407686Y-42101000D01*
X84092314Y-42101000D01*
X84053783Y-42093335D01*
X83783005Y-42039475D01*
X83491642Y-41918788D01*
X83229422Y-41743578D01*
X83006422Y-41520578D01*
X82831212Y-41258358D01*
X82710525Y-40966995D01*
X82649000Y-40657685D01*
X82649000Y-40342315D01*
X82710525Y-40033005D01*
X82831212Y-39741642D01*
X83006422Y-39479422D01*
X83229422Y-39256422D01*
X83491642Y-39081212D01*
X83783005Y-38960525D01*
X84053783Y-38906665D01*
X84092314Y-38899000D01*
X84407686Y-38899000D01*
X84446217Y-38906665D01*
G37*
G36*
X62446217Y-38906665D02*
G01*
X62716995Y-38960525D01*
X63008358Y-39081212D01*
X63270578Y-39256422D01*
X63493578Y-39479422D01*
X63668788Y-39741642D01*
X63789475Y-40033005D01*
X63851000Y-40342315D01*
X63851000Y-40657685D01*
X63789475Y-40966995D01*
X63668788Y-41258358D01*
X63493578Y-41520578D01*
X63270578Y-41743578D01*
X63008358Y-41918788D01*
X62716995Y-42039475D01*
X62446217Y-42093335D01*
X62407686Y-42101000D01*
X62092314Y-42101000D01*
X62053783Y-42093335D01*
X61783005Y-42039475D01*
X61491642Y-41918788D01*
X61229422Y-41743578D01*
X61006422Y-41520578D01*
X60831212Y-41258358D01*
X60710525Y-40966995D01*
X60649000Y-40657685D01*
X60649000Y-40342315D01*
X60710525Y-40033005D01*
X60831212Y-39741642D01*
X61006422Y-39479422D01*
X61229422Y-39256422D01*
X61491642Y-39081212D01*
X61783005Y-38960525D01*
X62053783Y-38906665D01*
X62092314Y-38899000D01*
X62407686Y-38899000D01*
X62446217Y-38906665D01*
G37*
G36*
X115354975Y-33958585D02*
G01*
X115654528Y-34018170D01*
X116218874Y-34251930D01*
X116726772Y-34591296D01*
X117158704Y-35023228D01*
X117498070Y-35531126D01*
X117731830Y-36095472D01*
X117851000Y-36694578D01*
X117851000Y-37305422D01*
X117731830Y-37904528D01*
X117498070Y-38468874D01*
X117158704Y-38976772D01*
X116726772Y-39408704D01*
X116218874Y-39748070D01*
X115654528Y-39981830D01*
X115397255Y-40033005D01*
X115055423Y-40101000D01*
X114444577Y-40101000D01*
X114102745Y-40033005D01*
X113845472Y-39981830D01*
X113281126Y-39748070D01*
X112773228Y-39408704D01*
X112341296Y-38976772D01*
X112001930Y-38468874D01*
X111768170Y-37904528D01*
X111649000Y-37305422D01*
X111649000Y-36694578D01*
X111768170Y-36095472D01*
X112001930Y-35531126D01*
X112341296Y-35023228D01*
X112773228Y-34591296D01*
X113281126Y-34251930D01*
X113845472Y-34018170D01*
X114145025Y-33958585D01*
X114444577Y-33899000D01*
X115055423Y-33899000D01*
X115354975Y-33958585D01*
G37*
G36*
X97354975Y-33958585D02*
G01*
X97654528Y-34018170D01*
X98218874Y-34251930D01*
X98726772Y-34591296D01*
X99158704Y-35023228D01*
X99498070Y-35531126D01*
X99731830Y-36095472D01*
X99851000Y-36694578D01*
X99851000Y-37305422D01*
X99731830Y-37904528D01*
X99498070Y-38468874D01*
X99158704Y-38976772D01*
X98726772Y-39408704D01*
X98218874Y-39748070D01*
X97654528Y-39981830D01*
X97397255Y-40033005D01*
X97055423Y-40101000D01*
X96444577Y-40101000D01*
X96102745Y-40033005D01*
X95845472Y-39981830D01*
X95281126Y-39748070D01*
X94773228Y-39408704D01*
X94341296Y-38976772D01*
X94001930Y-38468874D01*
X93768170Y-37904528D01*
X93649000Y-37305422D01*
X93649000Y-36694578D01*
X93768170Y-36095472D01*
X94001930Y-35531126D01*
X94341296Y-35023228D01*
X94773228Y-34591296D01*
X95281126Y-34251930D01*
X95845472Y-34018170D01*
X96145025Y-33958585D01*
X96444577Y-33899000D01*
X97055423Y-33899000D01*
X97354975Y-33958585D01*
G37*
G36*
X133854975Y-29958585D02*
G01*
X134154528Y-30018170D01*
X134718874Y-30251930D01*
X135226772Y-30591296D01*
X135658704Y-31023228D01*
X135998070Y-31531126D01*
X136231830Y-32095472D01*
X136351000Y-32694578D01*
X136351000Y-33305422D01*
X136231830Y-33904528D01*
X135998070Y-34468874D01*
X135658704Y-34976772D01*
X135226772Y-35408704D01*
X134718874Y-35748070D01*
X134154528Y-35981830D01*
X133854975Y-36041415D01*
X133555423Y-36101000D01*
X132944577Y-36101000D01*
X132645025Y-36041415D01*
X132345472Y-35981830D01*
X131781126Y-35748070D01*
X131273228Y-35408704D01*
X130841296Y-34976772D01*
X130501930Y-34468874D01*
X130268170Y-33904528D01*
X130149000Y-33305422D01*
X130149000Y-32694578D01*
X130268170Y-32095472D01*
X130501930Y-31531126D01*
X130841296Y-31023228D01*
X131273228Y-30591296D01*
X131781126Y-30251930D01*
X132345472Y-30018170D01*
X132645025Y-29958585D01*
X132944577Y-29899000D01*
X133555423Y-29899000D01*
X133854975Y-29958585D01*
G37*
G36*
X115354975Y-21958585D02*
G01*
X115654528Y-22018170D01*
X116218874Y-22251930D01*
X116726772Y-22591296D01*
X117158704Y-23023228D01*
X117498070Y-23531126D01*
X117731830Y-24095472D01*
X117851000Y-24694578D01*
X117851000Y-25305422D01*
X117731830Y-25904528D01*
X117498070Y-26468874D01*
X117158704Y-26976772D01*
X116726772Y-27408704D01*
X116218874Y-27748070D01*
X115654528Y-27981830D01*
X115354975Y-28041415D01*
X115055423Y-28101000D01*
X114444577Y-28101000D01*
X114145025Y-28041415D01*
X113845472Y-27981830D01*
X113281126Y-27748070D01*
X112773228Y-27408704D01*
X112341296Y-26976772D01*
X112001930Y-26468874D01*
X111768170Y-25904528D01*
X111649000Y-25305422D01*
X111649000Y-24694578D01*
X111768170Y-24095472D01*
X112001930Y-23531126D01*
X112341296Y-23023228D01*
X112773228Y-22591296D01*
X113281126Y-22251930D01*
X113845472Y-22018170D01*
X114145025Y-21958585D01*
X114444577Y-21899000D01*
X115055423Y-21899000D01*
X115354975Y-21958585D01*
G37*
G36*
X97354975Y-21958585D02*
G01*
X97654528Y-22018170D01*
X98218874Y-22251930D01*
X98726772Y-22591296D01*
X99158704Y-23023228D01*
X99498070Y-23531126D01*
X99731830Y-24095472D01*
X99851000Y-24694578D01*
X99851000Y-25305422D01*
X99731830Y-25904528D01*
X99498070Y-26468874D01*
X99158704Y-26976772D01*
X98726772Y-27408704D01*
X98218874Y-27748070D01*
X97654528Y-27981830D01*
X97354975Y-28041415D01*
X97055423Y-28101000D01*
X96444577Y-28101000D01*
X96145025Y-28041415D01*
X95845472Y-27981830D01*
X95281126Y-27748070D01*
X94773228Y-27408704D01*
X94341296Y-26976772D01*
X94001930Y-26468874D01*
X93768170Y-25904528D01*
X93649000Y-25305422D01*
X93649000Y-24694578D01*
X93768170Y-24095472D01*
X94001930Y-23531126D01*
X94341296Y-23023228D01*
X94773228Y-22591296D01*
X95281126Y-22251930D01*
X95845472Y-22018170D01*
X96145025Y-21958585D01*
X96444577Y-21899000D01*
X97055423Y-21899000D01*
X97354975Y-21958585D01*
G37*
G36*
X18446217Y-16906665D02*
G01*
X18716995Y-16960525D01*
X19008358Y-17081212D01*
X19270578Y-17256422D01*
X19493578Y-17479422D01*
X19668788Y-17741642D01*
X19789475Y-18033005D01*
X19851000Y-18342315D01*
X19851000Y-18657685D01*
X19789475Y-18966995D01*
X19668788Y-19258358D01*
X19493578Y-19520578D01*
X19270578Y-19743578D01*
X19008358Y-19918788D01*
X18716995Y-20039475D01*
X18446217Y-20093335D01*
X18407686Y-20101000D01*
X18092314Y-20101000D01*
X18053783Y-20093335D01*
X17783005Y-20039475D01*
X17491642Y-19918788D01*
X17229422Y-19743578D01*
X17006422Y-19520578D01*
X16831212Y-19258358D01*
X16710525Y-18966995D01*
X16649000Y-18657685D01*
X16649000Y-18342315D01*
X16710525Y-18033005D01*
X16831212Y-17741642D01*
X17006422Y-17479422D01*
X17229422Y-17256422D01*
X17491642Y-17081212D01*
X17783005Y-16960525D01*
X18053783Y-16906665D01*
X18092314Y-16899000D01*
X18407686Y-16899000D01*
X18446217Y-16906665D01*
G37*
G36*
X40446217Y-16906665D02*
G01*
X40716995Y-16960525D01*
X41008358Y-17081212D01*
X41270578Y-17256422D01*
X41493578Y-17479422D01*
X41668788Y-17741642D01*
X41789475Y-18033005D01*
X41851000Y-18342315D01*
X41851000Y-18657685D01*
X41789475Y-18966995D01*
X41668788Y-19258358D01*
X41493578Y-19520578D01*
X41270578Y-19743578D01*
X41008358Y-19918788D01*
X40716995Y-20039475D01*
X40446217Y-20093335D01*
X40407686Y-20101000D01*
X40092314Y-20101000D01*
X40053783Y-20093335D01*
X39783005Y-20039475D01*
X39491642Y-19918788D01*
X39229422Y-19743578D01*
X39006422Y-19520578D01*
X38831212Y-19258358D01*
X38710525Y-18966995D01*
X38649000Y-18657685D01*
X38649000Y-18342315D01*
X38710525Y-18033005D01*
X38831212Y-17741642D01*
X39006422Y-17479422D01*
X39229422Y-17256422D01*
X39491642Y-17081212D01*
X39783005Y-16960525D01*
X40053783Y-16906665D01*
X40092314Y-16899000D01*
X40407686Y-16899000D01*
X40446217Y-16906665D01*
G37*
G36*
X62446217Y-16906665D02*
G01*
X62716995Y-16960525D01*
X63008358Y-17081212D01*
X63270578Y-17256422D01*
X63493578Y-17479422D01*
X63668788Y-17741642D01*
X63789475Y-18033005D01*
X63851000Y-18342315D01*
X63851000Y-18657685D01*
X63789475Y-18966995D01*
X63668788Y-19258358D01*
X63493578Y-19520578D01*
X63270578Y-19743578D01*
X63008358Y-19918788D01*
X62716995Y-20039475D01*
X62446217Y-20093335D01*
X62407686Y-20101000D01*
X62092314Y-20101000D01*
X62053783Y-20093335D01*
X61783005Y-20039475D01*
X61491642Y-19918788D01*
X61229422Y-19743578D01*
X61006422Y-19520578D01*
X60831212Y-19258358D01*
X60710525Y-18966995D01*
X60649000Y-18657685D01*
X60649000Y-18342315D01*
X60710525Y-18033005D01*
X60831212Y-17741642D01*
X61006422Y-17479422D01*
X61229422Y-17256422D01*
X61491642Y-17081212D01*
X61783005Y-16960525D01*
X62053783Y-16906665D01*
X62092314Y-16899000D01*
X62407686Y-16899000D01*
X62446217Y-16906665D01*
G37*
G36*
X84446217Y-16906665D02*
G01*
X84716995Y-16960525D01*
X85008358Y-17081212D01*
X85270578Y-17256422D01*
X85493578Y-17479422D01*
X85668788Y-17741642D01*
X85789475Y-18033005D01*
X85851000Y-18342315D01*
X85851000Y-18657685D01*
X85789475Y-18966995D01*
X85668788Y-19258358D01*
X85493578Y-19520578D01*
X85270578Y-19743578D01*
X85008358Y-19918788D01*
X84716995Y-20039475D01*
X84446217Y-20093335D01*
X84407686Y-20101000D01*
X84092314Y-20101000D01*
X84053783Y-20093335D01*
X83783005Y-20039475D01*
X83491642Y-19918788D01*
X83229422Y-19743578D01*
X83006422Y-19520578D01*
X82831212Y-19258358D01*
X82710525Y-18966995D01*
X82649000Y-18657685D01*
X82649000Y-18342315D01*
X82710525Y-18033005D01*
X82831212Y-17741642D01*
X83006422Y-17479422D01*
X83229422Y-17256422D01*
X83491642Y-17081212D01*
X83783005Y-16960525D01*
X84053783Y-16906665D01*
X84092314Y-16899000D01*
X84407686Y-16899000D01*
X84446217Y-16906665D01*
G37*
M02*
