G04 #@! TF.GenerationSoftware,KiCad,Pcbnew,(5.1.5-0)*
G04 #@! TF.CreationDate,2021-01-20T17:00:23-08:00*
G04 #@! TF.ProjectId,bindubba,62696e64-7562-4626-912e-6b696361645f,rev?*
G04 #@! TF.SameCoordinates,Original*
G04 #@! TF.FileFunction,Soldermask,Top*
G04 #@! TF.FilePolarity,Negative*
%FSLAX46Y46*%
G04 Gerber Fmt 4.6, Leading zero omitted, Abs format (unit mm)*
G04 Created by KiCad (PCBNEW (5.1.5-0)) date 2021-01-20 17:00:23*
%MOMM*%
%LPD*%
G04 APERTURE LIST*
%ADD10C,2.000000*%
%ADD11C,1.000000*%
%ADD12C,0.100000*%
%ADD13C,0.000002*%
%ADD14C,0.001000*%
G04 APERTURE END LIST*
D10*
X7250000Y-102000000D02*
X7250000Y-112250000D01*
X29250000Y-102000000D02*
X29250000Y-112250000D01*
X51250000Y-102250000D02*
X51250000Y-112500000D01*
X73250000Y-102250000D02*
X73250000Y-112500000D01*
X133250000Y-84000000D02*
X133250000Y-109750000D01*
X133250000Y-48750000D02*
X133250000Y-63250000D01*
X133250000Y-18750000D02*
X133250000Y-33250000D01*
X114750000Y-24750000D02*
X114750000Y-108750000D01*
X96750000Y-25000000D02*
X96750000Y-109000000D01*
D11*
X42250000Y-84500000D02*
G75*
G03X42250000Y-84500000I-2000000J0D01*
G01*
X64250000Y-84500000D02*
G75*
G03X64250000Y-84500000I-2000000J0D01*
G01*
X86250000Y-84500000D02*
G75*
G03X86250000Y-84500000I-2000000J0D01*
G01*
X20250000Y-84500000D02*
G75*
G03X20250000Y-84500000I-2000000J0D01*
G01*
X86250000Y-62500000D02*
G75*
G03X86250000Y-62500000I-2000000J0D01*
G01*
X20250000Y-62500000D02*
G75*
G03X20250000Y-62500000I-2000000J0D01*
G01*
X64250000Y-62500000D02*
G75*
G03X64250000Y-62500000I-2000000J0D01*
G01*
X42250000Y-62500000D02*
G75*
G03X42250000Y-62500000I-2000000J0D01*
G01*
X20250000Y-40500000D02*
G75*
G03X20250000Y-40500000I-2000000J0D01*
G01*
X64250000Y-40500000D02*
G75*
G03X64250000Y-40500000I-2000000J0D01*
G01*
X42250000Y-40500000D02*
G75*
G03X42250000Y-40500000I-2000000J0D01*
G01*
X86250000Y-40500000D02*
G75*
G03X86250000Y-40500000I-2000000J0D01*
G01*
X86250000Y-18500000D02*
G75*
G03X86250000Y-18500000I-2000000J0D01*
G01*
X64250000Y-18500000D02*
G75*
G03X64250000Y-18500000I-2000000J0D01*
G01*
X42250000Y-18500000D02*
G75*
G03X42250000Y-18500000I-2000000J0D01*
G01*
X20250000Y-18500000D02*
G75*
G03X20250000Y-18500000I-2000000J0D01*
G01*
D12*
G36*
X71660400Y-124747650D02*
G01*
X72212850Y-125027050D01*
X72539875Y-125354075D01*
X72674813Y-125584263D01*
X72906588Y-125854138D01*
X72600200Y-125770000D01*
X72346200Y-125693800D01*
X72168400Y-125630300D01*
X71793750Y-125496950D01*
X71434975Y-125303275D01*
X71174625Y-125017525D01*
X71050800Y-124855600D01*
X71114300Y-124893700D01*
X71088900Y-124830200D01*
X71152400Y-124658750D01*
X71660400Y-124747650D01*
G37*
X71660400Y-124747650D02*
X72212850Y-125027050D01*
X72539875Y-125354075D01*
X72674813Y-125584263D01*
X72906588Y-125854138D01*
X72600200Y-125770000D01*
X72346200Y-125693800D01*
X72168400Y-125630300D01*
X71793750Y-125496950D01*
X71434975Y-125303275D01*
X71174625Y-125017525D01*
X71050800Y-124855600D01*
X71114300Y-124893700D01*
X71088900Y-124830200D01*
X71152400Y-124658750D01*
X71660400Y-124747650D01*
G36*
X70866650Y-124766700D02*
G01*
X70498350Y-125198500D01*
X70060200Y-125471550D01*
X69679200Y-125611250D01*
X68929900Y-125776350D01*
X69412500Y-125249300D01*
X69806200Y-124982600D01*
X70174500Y-124779400D01*
X70644400Y-124703200D01*
X70669800Y-124703200D01*
X70866650Y-124766700D01*
G37*
X70866650Y-124766700D02*
X70498350Y-125198500D01*
X70060200Y-125471550D01*
X69679200Y-125611250D01*
X68929900Y-125776350D01*
X69412500Y-125249300D01*
X69806200Y-124982600D01*
X70174500Y-124779400D01*
X70644400Y-124703200D01*
X70669800Y-124703200D01*
X70866650Y-124766700D01*
G36*
X74073400Y-123738000D02*
G01*
X74505200Y-123763400D01*
X75083207Y-123773943D01*
X74403600Y-123928500D01*
X73971800Y-124119000D01*
X73628900Y-124334900D01*
X73209800Y-124500000D01*
X72676400Y-124588900D01*
X72231900Y-124614300D01*
X71654050Y-124595250D01*
X71076200Y-124576200D01*
X71012700Y-124500000D01*
X71228600Y-124436500D01*
X71235585Y-124385700D01*
X71551815Y-124258700D01*
X72085850Y-124030100D01*
X72638300Y-123826900D01*
X73032000Y-123712600D01*
X73476500Y-123712600D01*
X74073400Y-123738000D01*
G37*
X74073400Y-123738000D02*
X74505200Y-123763400D01*
X75083207Y-123773943D01*
X74403600Y-123928500D01*
X73971800Y-124119000D01*
X73628900Y-124334900D01*
X73209800Y-124500000D01*
X72676400Y-124588900D01*
X72231900Y-124614300D01*
X71654050Y-124595250D01*
X71076200Y-124576200D01*
X71012700Y-124500000D01*
X71228600Y-124436500D01*
X71235585Y-124385700D01*
X71551815Y-124258700D01*
X72085850Y-124030100D01*
X72638300Y-123826900D01*
X73032000Y-123712600D01*
X73476500Y-123712600D01*
X74073400Y-123738000D01*
G36*
X74060700Y-121083700D02*
G01*
X73819400Y-121579000D01*
X73616200Y-122036200D01*
X73355850Y-122556900D01*
X73082800Y-122912500D01*
X72771650Y-123325250D01*
X72301750Y-123718950D01*
X71800100Y-124055500D01*
X70695200Y-124652400D01*
X70720600Y-124322200D01*
X71025400Y-124271400D01*
X71273050Y-123833250D01*
X71488950Y-123369700D01*
X71654050Y-123039500D01*
X71838200Y-122747400D01*
X72003300Y-122429900D01*
X72282700Y-122074300D01*
X72562100Y-121756800D01*
X72892300Y-121464700D01*
X73235200Y-121236100D01*
X73616200Y-120982100D01*
X74009900Y-120715400D01*
X74543300Y-120321700D01*
X74060700Y-121083700D01*
G37*
X74060700Y-121083700D02*
X73819400Y-121579000D01*
X73616200Y-122036200D01*
X73355850Y-122556900D01*
X73082800Y-122912500D01*
X72771650Y-123325250D01*
X72301750Y-123718950D01*
X71800100Y-124055500D01*
X70695200Y-124652400D01*
X70720600Y-124322200D01*
X71025400Y-124271400D01*
X71273050Y-123833250D01*
X71488950Y-123369700D01*
X71654050Y-123039500D01*
X71838200Y-122747400D01*
X72003300Y-122429900D01*
X72282700Y-122074300D01*
X72562100Y-121756800D01*
X72892300Y-121464700D01*
X73235200Y-121236100D01*
X73616200Y-120982100D01*
X74009900Y-120715400D01*
X74543300Y-120321700D01*
X74060700Y-121083700D01*
G36*
X71215900Y-118950100D02*
G01*
X71317500Y-119432700D01*
X71431800Y-119889900D01*
X71514350Y-120220100D01*
X71577850Y-120601100D01*
X71622300Y-121121800D01*
X71622300Y-121655200D01*
X71571500Y-122239400D01*
X71508000Y-122760100D01*
X71365125Y-123255400D01*
X71066675Y-124271400D01*
X70853950Y-124220600D01*
X70619000Y-123306200D01*
X70445962Y-122442600D01*
X70461837Y-121655200D01*
X70514225Y-120994800D01*
X70676150Y-120220100D01*
X70911100Y-119407300D01*
X71038100Y-118632600D01*
X71101600Y-118111900D01*
X71215900Y-118950100D01*
G37*
X71215900Y-118950100D02*
X71317500Y-119432700D01*
X71431800Y-119889900D01*
X71514350Y-120220100D01*
X71577850Y-120601100D01*
X71622300Y-121121800D01*
X71622300Y-121655200D01*
X71571500Y-122239400D01*
X71508000Y-122760100D01*
X71365125Y-123255400D01*
X71066675Y-124271400D01*
X70853950Y-124220600D01*
X70619000Y-123306200D01*
X70445962Y-122442600D01*
X70461837Y-121655200D01*
X70514225Y-120994800D01*
X70676150Y-120220100D01*
X70911100Y-119407300D01*
X71038100Y-118632600D01*
X71101600Y-118111900D01*
X71215900Y-118950100D01*
G36*
X67596400Y-120524900D02*
G01*
X67913900Y-120766200D01*
X68479050Y-121083700D01*
X69075950Y-121515500D01*
X69450600Y-121896500D01*
X69850650Y-122461650D01*
X70447550Y-123642750D01*
X70746000Y-124207900D01*
X70758700Y-124220600D01*
X70428500Y-124246000D01*
X70326900Y-124195200D01*
X69971300Y-123947550D01*
X69564900Y-123579250D01*
X69234700Y-123230000D01*
X68879100Y-122798200D01*
X68599700Y-122379100D01*
X68409200Y-122125100D01*
X68155200Y-121667900D01*
X67901200Y-121299600D01*
X67659900Y-120880500D01*
X67380500Y-120321700D01*
X67596400Y-120524900D01*
G37*
X67596400Y-120524900D02*
X67913900Y-120766200D01*
X68479050Y-121083700D01*
X69075950Y-121515500D01*
X69450600Y-121896500D01*
X69850650Y-122461650D01*
X70447550Y-123642750D01*
X70746000Y-124207900D01*
X70758700Y-124220600D01*
X70428500Y-124246000D01*
X70326900Y-124195200D01*
X69971300Y-123947550D01*
X69564900Y-123579250D01*
X69234700Y-123230000D01*
X68879100Y-122798200D01*
X68599700Y-122379100D01*
X68409200Y-122125100D01*
X68155200Y-121667900D01*
X67901200Y-121299600D01*
X67659900Y-120880500D01*
X67380500Y-120321700D01*
X67596400Y-120524900D01*
G36*
X69002925Y-123703075D02*
G01*
X69339475Y-123798325D01*
X69603000Y-123890400D01*
X70301500Y-124296800D01*
X70331980Y-124324740D01*
X70339600Y-124309500D01*
X70339600Y-124322200D01*
X70331980Y-124324740D01*
X70250700Y-124487300D01*
X70644400Y-124627000D01*
X70434850Y-124652400D01*
X70041150Y-124677800D01*
X69564900Y-124677800D01*
X69120400Y-124614300D01*
X68637800Y-124500000D01*
X68244100Y-124385700D01*
X67837700Y-124157100D01*
X67520200Y-123928500D01*
X67113800Y-123801500D01*
X67761500Y-123750700D01*
X68294900Y-123712600D01*
X68758450Y-123706250D01*
X69002925Y-123703075D01*
G37*
X69002925Y-123703075D02*
X69339475Y-123798325D01*
X69603000Y-123890400D01*
X70301500Y-124296800D01*
X70331980Y-124324740D01*
X70339600Y-124309500D01*
X70339600Y-124322200D01*
X70331980Y-124324740D01*
X70250700Y-124487300D01*
X70644400Y-124627000D01*
X70434850Y-124652400D01*
X70041150Y-124677800D01*
X69564900Y-124677800D01*
X69120400Y-124614300D01*
X68637800Y-124500000D01*
X68244100Y-124385700D01*
X67837700Y-124157100D01*
X67520200Y-123928500D01*
X67113800Y-123801500D01*
X67761500Y-123750700D01*
X68294900Y-123712600D01*
X68758450Y-123706250D01*
X69002925Y-123703075D01*
G36*
X71000000Y-124284100D02*
G01*
X70788862Y-124477775D01*
X71007937Y-124573025D01*
X71758825Y-125115950D01*
X71577850Y-125211200D01*
X71000000Y-124754000D01*
X71012700Y-125846200D01*
X70898400Y-125706500D01*
X70892050Y-124817500D01*
X70936500Y-124817500D01*
X70555500Y-124601600D01*
X70269750Y-124449200D01*
X70434850Y-124169800D01*
X71000000Y-124284100D01*
G37*
X71000000Y-124284100D02*
X70788862Y-124477775D01*
X71007937Y-124573025D01*
X71758825Y-125115950D01*
X71577850Y-125211200D01*
X71000000Y-124754000D01*
X71012700Y-125846200D01*
X70898400Y-125706500D01*
X70892050Y-124817500D01*
X70936500Y-124817500D01*
X70555500Y-124601600D01*
X70269750Y-124449200D01*
X70434850Y-124169800D01*
X71000000Y-124284100D01*
D13*
X70479586Y-122596968D02*
X70486414Y-122663404D01*
X67060628Y-123785206D02*
G75*
G02X67062745Y-123780474I8833J-1112D01*
G01*
X67062745Y-123780475D02*
G75*
G02X67067170Y-123777659I6961J-6056D01*
G01*
X67067171Y-123777659D02*
G75*
G02X67076272Y-123775641I21302J-74534D01*
G01*
X67119176Y-123769928D02*
X67076272Y-123775641D01*
X67175382Y-123764579D02*
X67119176Y-123769928D01*
X67249523Y-123759059D02*
X67175382Y-123764579D01*
X67350810Y-123752773D02*
X67249523Y-123759059D01*
X67464250Y-123745535D02*
X67350810Y-123752773D01*
X67555159Y-123738329D02*
X67464250Y-123745535D01*
X67635946Y-123730142D02*
X67555159Y-123738329D01*
X67717522Y-123719967D02*
X67635946Y-123730142D01*
X67795588Y-123710763D02*
X67717522Y-123719967D01*
X67894548Y-123701810D02*
X67795588Y-123710763D01*
X68002731Y-123693949D02*
X67894548Y-123701810D01*
X68110022Y-123688039D02*
X68002731Y-123693949D01*
X68158893Y-123685783D02*
X68110022Y-123688039D01*
X68228084Y-123682592D02*
X68158893Y-123685783D01*
X68303746Y-123679104D02*
X68228084Y-123682592D01*
X68375022Y-123675821D02*
X68303746Y-123679104D01*
X68542892Y-123668843D02*
X68375022Y-123675821D01*
X68717753Y-123663052D02*
X68542892Y-123668843D01*
X68891324Y-123658069D02*
X68717753Y-123663052D01*
X68891324Y-123658069D02*
G75*
G02X68900393Y-123660507I462J-16364D01*
G01*
X68903889Y-123661762D02*
G75*
G02X68900393Y-123660507I1209J8867D01*
G01*
X68919388Y-123663775D02*
X68903889Y-123661762D01*
X68937771Y-123665819D02*
X68919388Y-123663775D01*
X68958715Y-123667713D02*
X68937771Y-123665819D01*
X70470054Y-122487481D02*
X70472649Y-122517124D01*
X71612378Y-124647086D02*
X71657522Y-124650622D01*
X71563537Y-124643388D02*
X71612378Y-124647086D01*
X71518194Y-124640058D02*
X71563537Y-124643388D01*
X71485022Y-124637755D02*
X71518194Y-124640058D01*
X71453615Y-124635486D02*
X71485022Y-124637755D01*
X71414584Y-124632326D02*
X71453615Y-124635486D01*
X71374606Y-124628849D02*
X71414584Y-124632326D01*
X71340022Y-124625579D02*
X71374606Y-124628849D01*
X71278512Y-124620402D02*
X71340022Y-124625579D01*
X71226901Y-124618134D02*
X71278512Y-124620402D01*
X69831364Y-122380665D02*
X69702584Y-122173051D01*
X69960123Y-122610277D02*
X69831364Y-122380665D01*
X71263811Y-124644985D02*
X71225611Y-124637712D01*
X71301820Y-124651668D02*
X71263811Y-124644985D01*
X71327522Y-124655429D02*
X71301820Y-124651668D01*
X71327522Y-124655429D02*
G75*
G02X71415850Y-124671576I-96572J-777952D01*
G01*
X71542223Y-124704860D02*
X71415850Y-124671576D01*
X71681550Y-124747366D02*
X71542223Y-124704860D01*
X71815022Y-124794009D02*
X71681550Y-124747366D01*
X71858649Y-124811046D02*
X71815022Y-124794009D01*
X71904637Y-124830487D02*
X71858649Y-124811046D01*
X71952079Y-124851930D02*
X71904637Y-124830487D01*
X72000085Y-124874987D02*
X71952079Y-124851930D01*
X72000085Y-124874988D02*
G75*
G02X72152408Y-124962179I-639105J-1293158D01*
G01*
X70600081Y-123347260D02*
X70602098Y-123357528D01*
X73620021Y-122015299D02*
G75*
G02X73619743Y-122016562I-3003J0D01*
G01*
X73611209Y-122034952D02*
X73619743Y-122016562D01*
X73601523Y-122055632D02*
X73611209Y-122034952D01*
X73590022Y-122079870D02*
X73601523Y-122055632D01*
X73578521Y-122104146D02*
X73590022Y-122079870D01*
X73568834Y-122124951D02*
X73578521Y-122104146D01*
X73560385Y-122143329D02*
X73568834Y-122124951D01*
X73560021Y-122144995D02*
G75*
G02X73560385Y-122143329I3995J0D01*
G01*
X73560021Y-122144995D02*
G75*
G02X73559292Y-122148297I-7840J0D01*
G01*
X73520677Y-122231421D02*
X73559292Y-122148297D01*
X73477758Y-122323339D02*
X73520677Y-122231421D01*
X73427442Y-122430277D02*
X73477758Y-122323339D01*
X73404537Y-122478174D02*
X73427442Y-122430277D01*
X73376801Y-122534980D02*
X73404537Y-122478174D01*
X73347730Y-122593998D02*
X73376801Y-122534980D01*
X73347731Y-122593997D02*
G75*
G02X73345022Y-122597777I-12801J6311D01*
G01*
X73343589Y-122599614D02*
G75*
G02X73345022Y-122597777I8150J-4881D01*
G01*
X73340177Y-122605418D02*
X73343588Y-122599615D01*
X73336238Y-122612435D02*
X73340177Y-122605418D01*
X73332041Y-122620277D02*
X73336238Y-122612435D01*
X73323008Y-122637116D02*
X73332041Y-122620277D01*
X73312309Y-122656309D02*
X73323008Y-122637116D01*
X73301117Y-122675799D02*
X73312309Y-122656309D01*
X73290563Y-122693576D02*
X73301117Y-122675799D01*
X73286359Y-122700601D02*
X73290563Y-122693576D01*
X73279895Y-122711546D02*
X73286359Y-122700601D01*
X73272630Y-122723921D02*
X73279895Y-122711546D01*
X73265538Y-122736076D02*
X73272630Y-122723921D01*
X73265539Y-122736076D02*
G75*
G02X73176513Y-122874537I-1594117J927112D01*
G01*
X73060765Y-123028716D02*
X73176513Y-122874537D01*
X72929379Y-123185115D02*
X73060765Y-123028716D01*
X72792561Y-123330767D02*
X72929379Y-123185115D01*
X72792561Y-123330767D02*
G75*
G02X72512462Y-123588051I-2992746J2977019D01*
G01*
X72202444Y-123826945D02*
X72512462Y-123588051D01*
X71846530Y-124058868D02*
X72202444Y-123826945D01*
X71427522Y-124295384D02*
X71846530Y-124058868D01*
X71407210Y-124306206D02*
X71427522Y-124295384D01*
X71383256Y-124319049D02*
X71407210Y-124306206D01*
X71359541Y-124331825D02*
X71383256Y-124319049D01*
X71340022Y-124342411D02*
X71359541Y-124331825D01*
X71322766Y-124351769D02*
X71340022Y-124342411D01*
X71306062Y-124360749D02*
X71322766Y-124351769D01*
X71291782Y-124368359D02*
X71306062Y-124360749D01*
X71284097Y-124372337D02*
X71291782Y-124368359D01*
X71267847Y-124382144D02*
G75*
G02X71284097Y-124372337I73169J-102870D01*
G01*
X71251467Y-124395234D02*
G75*
G02X71267847Y-124382145I125077J-139731D01*
G01*
X71238112Y-124408375D02*
G75*
G02X71251467Y-124395234I145858J-134885D01*
G01*
X71235021Y-124416267D02*
G75*
G02X71238111Y-124408375I11624J0D01*
G01*
X71235871Y-124419781D02*
G75*
G02X71235022Y-124416267I6849J3514D01*
G01*
X71238155Y-124421737D02*
G75*
G02X71235870Y-124419780I1247J3768D01*
G01*
X71242397Y-124422198D02*
G75*
G02X71238155Y-124421737I-1044J10127D01*
G01*
X71249641Y-124421103D02*
G75*
G02X71242398Y-124422199I-15184J75919D01*
G01*
X71268149Y-124415366D02*
G75*
G02X71249641Y-124421104I-36945J86448D01*
G01*
X71328992Y-124389023D02*
X71268149Y-124415366D01*
X71396972Y-124358528D02*
X71328992Y-124389023D01*
X71465022Y-124326643D02*
X71396972Y-124358528D01*
X71488044Y-124315656D02*
X71465022Y-124326643D01*
X71513850Y-124303400D02*
X71488044Y-124315656D01*
X71538478Y-124291750D02*
X71513850Y-124303400D01*
X71557522Y-124282798D02*
X71538478Y-124291750D01*
X71577497Y-124273393D02*
X71557522Y-124282798D01*
X71605600Y-124260054D02*
X71577497Y-124273393D01*
X71636247Y-124245444D02*
X71605600Y-124260054D01*
X71665022Y-124231661D02*
X71636247Y-124245444D01*
X71719936Y-124205361D02*
X71665022Y-124231661D01*
X71761702Y-124185535D02*
X71719936Y-124205361D01*
X71796707Y-124169148D02*
X71761702Y-124185535D01*
X71830022Y-124153816D02*
X71796707Y-124169148D01*
X71865354Y-124137574D02*
X71830022Y-124153816D01*
X71931774Y-124106749D02*
X71865354Y-124137574D01*
X71999694Y-124075132D02*
X71931774Y-124106749D01*
X72047522Y-124052733D02*
X71999694Y-124075132D01*
X72194502Y-123984657D02*
X72047522Y-124052733D01*
X72345333Y-123916903D02*
X72194502Y-123984657D01*
X72483653Y-123856658D02*
X72345333Y-123916903D01*
X72590022Y-123812680D02*
X72483653Y-123856658D01*
X72643337Y-123791611D02*
X72590022Y-123812680D01*
X72678135Y-123778359D02*
X72643337Y-123791611D01*
X72707932Y-123767769D02*
X72678135Y-123778359D01*
X72742522Y-123756289D02*
X72707932Y-123767769D01*
X72801620Y-123738467D02*
X72742522Y-123756289D01*
X72863071Y-123722384D02*
X72801620Y-123738467D01*
X72924574Y-123708597D02*
X72863071Y-123722384D01*
X72983822Y-123697669D02*
X72924574Y-123708597D01*
X73025789Y-123691782D02*
X72983822Y-123697669D01*
X73061324Y-123688975D02*
X73025789Y-123691782D01*
X73105896Y-123688261D02*
X73061324Y-123688975D01*
X73186322Y-123689370D02*
X73105896Y-123688261D01*
X73243234Y-123690735D02*
X73186322Y-123689370D01*
X73301607Y-123692737D02*
X73243234Y-123690735D01*
X73353546Y-123695032D02*
X73301607Y-123692737D01*
X73387522Y-123697267D02*
X73353546Y-123695032D01*
X73418287Y-123699702D02*
X73387522Y-123697267D01*
X73457662Y-123702627D02*
X73418287Y-123699702D01*
X73498691Y-123705545D02*
X73457662Y-123702627D01*
X73535022Y-123707990D02*
X73498691Y-123705545D01*
X73572057Y-123710418D02*
X73535022Y-123707990D01*
X73615318Y-123713293D02*
X73572057Y-123710418D01*
X73657867Y-123716150D02*
X73615318Y-123713293D01*
X73692522Y-123718510D02*
X73657867Y-123716150D01*
X73745145Y-123720680D02*
X73692522Y-123718510D01*
X73937897Y-123723130D02*
X73745145Y-123720680D01*
X74166132Y-123725346D02*
X73937897Y-123723130D01*
X74422522Y-123726997D02*
X74166132Y-123725346D01*
X74760194Y-123728974D02*
X74422522Y-123726997D01*
X74946598Y-123730953D02*
X74760194Y-123728974D01*
X75075267Y-123733028D02*
X74946598Y-123730953D01*
X75075267Y-123733028D02*
G75*
G02X75088772Y-123736729I-500J-28318D01*
G01*
X75088772Y-123736728D02*
G75*
G02X75097766Y-123745160I-13045J-22929D01*
G01*
X75097766Y-123745160D02*
G75*
G02X75100023Y-123755412I-12281J-8079D01*
G01*
X75100023Y-123755413D02*
G75*
G02X75094871Y-123765674I-18220J2725D01*
G01*
X75094870Y-123765673D02*
G75*
G02X75083207Y-123773943I-29662J29474D01*
G01*
X75083208Y-123773944D02*
G75*
G02X75065174Y-123781131I-63623J133418D01*
G01*
X75000776Y-123801805D02*
X75065174Y-123781131D01*
X74938093Y-123821392D02*
X75000776Y-123801805D01*
X74902522Y-123831377D02*
X74938093Y-123821392D01*
X74773171Y-123868169D02*
X74902522Y-123831377D01*
X74598786Y-123925203D02*
X74773171Y-123868169D01*
X74419767Y-123988251D02*
X74598786Y-123925203D01*
X74272522Y-124045274D02*
X74419767Y-123988251D01*
X74149199Y-124098078D02*
X74272522Y-124045274D01*
X74003927Y-124164591D02*
X74149199Y-124098078D01*
X73862600Y-124232490D02*
X74003927Y-124164591D01*
X73752522Y-124289199D02*
X73862600Y-124232490D01*
X73618504Y-124360433D02*
X73752522Y-124289199D01*
X73533440Y-124402696D02*
X73618504Y-124360433D01*
X73458987Y-124435131D02*
X73533440Y-124402696D01*
X73367522Y-124470178D02*
X73458987Y-124435131D01*
X73292423Y-124497307D02*
X73367522Y-124470178D01*
X73252851Y-124510723D02*
X73292423Y-124497307D01*
X73213400Y-124522598D02*
X73252851Y-124510723D01*
X73140022Y-124543034D02*
X73213400Y-124522598D01*
X73020804Y-124572545D02*
X73140022Y-124543034D01*
X72883620Y-124600279D02*
X73020804Y-124572545D01*
X72745884Y-124623156D02*
X72883620Y-124600279D01*
X72625022Y-124637838D02*
X72745884Y-124623156D01*
X72601013Y-124640138D02*
X72625022Y-124637838D01*
X72566506Y-124643487D02*
X72601013Y-124640138D01*
X72528547Y-124647195D02*
X72566506Y-124643487D01*
X72492522Y-124650739D02*
X72528547Y-124647195D01*
X72358935Y-124658145D02*
X72492522Y-124650739D01*
X72086190Y-124659806D02*
X72358935Y-124658145D01*
X71813070Y-124657895D02*
X72086190Y-124659806D01*
X71657522Y-124650622D02*
X71813070Y-124657895D01*
X71184700Y-124617876D02*
X71226901Y-124618134D01*
X71180021Y-124622584D02*
G75*
G02X71184700Y-124617876I4709J-1D01*
G01*
X71181145Y-124624719D02*
G75*
G02X71180022Y-124622585I1466J2134D01*
G01*
X71185529Y-124627293D02*
G75*
G02X71181144Y-124624719I15819J31971D01*
G01*
X70110636Y-122888155D02*
X70094341Y-122858062D01*
X70121221Y-122907777D02*
X70110636Y-122888155D01*
X71511249Y-123283226D02*
X71464982Y-123380277D01*
X71596807Y-123112328D02*
X71511249Y-123283226D01*
X71683548Y-122941636D02*
X71596807Y-123112328D01*
X71724269Y-122866527D02*
X71683548Y-122941636D01*
X71738678Y-122841366D02*
X71724269Y-122866527D01*
X71749929Y-122821636D02*
X71738678Y-122841366D01*
X71759609Y-122804555D02*
X71749929Y-122821636D01*
X71769048Y-122787777D02*
X71759609Y-122804555D01*
X71775983Y-122775624D02*
X71769048Y-122787777D01*
X71787590Y-122755731D02*
X71775983Y-122775624D01*
X71800976Y-122732985D02*
X71787590Y-122755731D01*
X71814458Y-122710277D02*
X71800976Y-122732985D01*
X71827575Y-122688268D02*
X71814458Y-122710277D01*
X71839864Y-122667624D02*
X71827575Y-122688268D01*
X71850197Y-122650243D02*
X71839864Y-122667624D01*
X71854889Y-122642307D02*
X71850197Y-122650243D01*
X71899259Y-122570233D02*
X71854889Y-122642307D01*
X71962393Y-122473837D02*
X71899259Y-122570233D01*
X72029939Y-122374271D02*
X71962393Y-122473837D01*
X72089543Y-122290277D02*
X72029939Y-122374271D01*
X72146819Y-122213641D02*
X72089543Y-122290277D01*
X72217177Y-122123061D02*
X72146819Y-122213641D01*
X72284639Y-122038542D02*
X72217177Y-122123061D01*
X72327847Y-121987777D02*
X72284639Y-122038542D01*
X73635064Y-121981889D02*
X73644416Y-121961958D01*
X73627187Y-121998945D02*
X73635064Y-121981889D01*
X73620294Y-122014044D02*
X73627187Y-121998945D01*
X73620022Y-122015299D02*
G75*
G02X73620294Y-122014044I3026J0D01*
G01*
X70075985Y-122824222D02*
X70058037Y-122791194D01*
X70094341Y-122858062D02*
X70075985Y-122824222D01*
X72912904Y-125882618D02*
G75*
G02X72912962Y-125890934I-10582J-4233D01*
G01*
X72912961Y-125890934D02*
G75*
G02X72910571Y-125893771I-5287J2029D01*
G01*
X72910571Y-125893771D02*
G75*
G02X72905675Y-125895933I-11328J19028D01*
G01*
X72905675Y-125895934D02*
G75*
G02X72898837Y-125897326I-10822J35655D01*
G01*
X72898838Y-125897325D02*
G75*
G02X72890414Y-125897777I-8424J78322D01*
G01*
X71393609Y-123541378D02*
X71385721Y-123560277D01*
X71420843Y-123479384D02*
X71393609Y-123541378D01*
X71447720Y-123418594D02*
X71420843Y-123479384D01*
X71464982Y-123380277D02*
X71447720Y-123418594D01*
X72890414Y-125897778D02*
G75*
G02X72875921Y-125896825I0J110737D01*
G01*
X72875921Y-125896825D02*
G75*
G02X72863016Y-125893965I9971J75534D01*
G01*
X72863016Y-125893965D02*
G75*
G02X72846281Y-125887761I53575J170197D01*
G01*
X72815022Y-125874046D02*
X72846281Y-125887761D01*
X72751838Y-125847762D02*
X72815022Y-125874046D01*
X72685736Y-125824319D02*
X72751838Y-125847762D01*
X72614120Y-125802862D02*
X72685736Y-125824319D01*
X72534294Y-125782548D02*
X72614120Y-125802862D01*
X72397606Y-125749292D02*
X72534294Y-125782548D01*
X70130128Y-122924323D02*
X70121221Y-122907777D01*
X70140235Y-122943074D02*
X70130128Y-122924323D01*
X71253305Y-123886243D02*
X71244490Y-123906661D01*
X71263179Y-123862378D02*
X71253305Y-123886243D01*
X71274497Y-123834151D02*
X71263179Y-123862378D01*
X71287768Y-123800277D02*
X71274497Y-123834151D01*
X71293655Y-123785324D02*
X71287768Y-123800277D01*
X71300109Y-123769333D02*
X71293655Y-123785324D01*
X71306173Y-123754627D02*
X71300109Y-123769333D01*
X72152408Y-124962178D02*
G75*
G02X72290509Y-125065987I-743206J-1132487D01*
G01*
X72290509Y-125065987D02*
G75*
G02X72408604Y-125181641I-808447J-943632D01*
G01*
X72408604Y-125181641D02*
G75*
G02X72501099Y-125304225I-691614J-618042D01*
G01*
X72593113Y-125447827D02*
X72501099Y-125304225D01*
X72658325Y-125544131D02*
X72593113Y-125447827D01*
X72719278Y-125626381D02*
X72658325Y-125544131D01*
X72794380Y-125720045D02*
X72719278Y-125626381D01*
X72837947Y-125772822D02*
X72794380Y-125720045D01*
X72851771Y-125789809D02*
X72837947Y-125772822D01*
X72862079Y-125803035D02*
X72851771Y-125789809D01*
X70634498Y-120270277D02*
X70620636Y-120320269D01*
X71310691Y-123744082D02*
X71306173Y-123754627D01*
X71314264Y-123735606D02*
X71310691Y-123744082D01*
X71317281Y-123727667D02*
X71314264Y-123735606D01*
X71319553Y-123720959D02*
X71317281Y-123727667D01*
X71320021Y-123717966D02*
G75*
G02X71319553Y-123720959I-9805J0D01*
G01*
X71320021Y-123717965D02*
G75*
G02X71320501Y-123714968I9600J-1D01*
G01*
X71322848Y-123708209D02*
X71320501Y-123714968D01*
X71325958Y-123700210D02*
X71322848Y-123708209D01*
X71329642Y-123691661D02*
X71325958Y-123700210D01*
X71343866Y-123659784D02*
X71329642Y-123691661D01*
X71352969Y-123638632D02*
X71343866Y-123659784D01*
X71359166Y-123623491D02*
X71352969Y-123638632D01*
X71360007Y-123619082D02*
G75*
G02X71359166Y-123623491I-11749J-43D01*
G01*
X71360007Y-123619082D02*
G75*
G02X71360459Y-123616632I6738J25D01*
G01*
X71363194Y-123609786D02*
X71360459Y-123616632D01*
X71366707Y-123601673D02*
X71363194Y-123609786D01*
X71370874Y-123592777D02*
X71366707Y-123601673D01*
X71375330Y-123583430D02*
X71370874Y-123592777D01*
X71379723Y-123573949D02*
X71375330Y-123583430D01*
X71383495Y-123565577D02*
X71379723Y-123573949D01*
X71385721Y-123560277D02*
X71383495Y-123565577D01*
X72877281Y-125823316D02*
X72862079Y-125803035D01*
X72893683Y-125846689D02*
X72877281Y-125823316D01*
X72893683Y-125846690D02*
G75*
G02X72905528Y-125866666I-194982J-129113D01*
G01*
X72905528Y-125866666D02*
G75*
G02X72912903Y-125882618I-148143J-78170D01*
G01*
X72337272Y-121977192D02*
X72327847Y-121987777D01*
X72357031Y-121954856D02*
X72337272Y-121977192D01*
X72380430Y-121928361D02*
X72357031Y-121954856D01*
X72405193Y-121900277D02*
X72380430Y-121928361D01*
X72513704Y-121783304D02*
X72405193Y-121900277D01*
X72646053Y-121652079D02*
X72513704Y-121783304D01*
X72777297Y-121530085D02*
X72646053Y-121652079D01*
X72880250Y-121444220D02*
X72777297Y-121530085D01*
X72967428Y-121378727D02*
X72880250Y-121444220D01*
X73046415Y-121323278D02*
X72967428Y-121378727D01*
X73148457Y-121256351D02*
X73046415Y-121323278D01*
X73327522Y-121142769D02*
X73148457Y-121256351D01*
X73389629Y-121103344D02*
X73327522Y-121142769D01*
X73456365Y-121060469D02*
X73389629Y-121103344D01*
X73517965Y-121020471D02*
X73456365Y-121060469D01*
X73562522Y-120990991D02*
X73517965Y-121020471D01*
X73697222Y-120899298D02*
X73562522Y-120990991D01*
X73820866Y-120812251D02*
X73697222Y-120899298D01*
X73968690Y-120704774D02*
X73820866Y-120812251D01*
X74190022Y-120540957D02*
X73968690Y-120704774D01*
X74233928Y-120508350D02*
X74190022Y-120540957D01*
X74276959Y-120476446D02*
X74233928Y-120508350D01*
X74314011Y-120449020D02*
X74276959Y-120476446D01*
X74335022Y-120433543D02*
X74314011Y-120449020D01*
X74351209Y-120421646D02*
X74335022Y-120433543D01*
X74368850Y-120408643D02*
X74351209Y-120421646D01*
X74385320Y-120396471D02*
X74368850Y-120408643D01*
X74397522Y-120387414D02*
X74385320Y-120396471D01*
X74437477Y-120359270D02*
X74397522Y-120387414D01*
X74492952Y-120323208D02*
X74437477Y-120359270D01*
X74549438Y-120287759D02*
X74492952Y-120323208D01*
X74549438Y-120287760D02*
G75*
G02X74564761Y-120281269I28471J-45884D01*
G01*
X74564761Y-120281268D02*
G75*
G02X74577504Y-120279947I10974J-43717D01*
G01*
X74577504Y-120279947D02*
G75*
G02X74584070Y-120284069I-305J-7776D01*
G01*
X74584070Y-120284070D02*
G75*
G02X74584527Y-120292656I-8997J-4784D01*
G01*
X74584527Y-120292655D02*
G75*
G02X74577667Y-120305539I-63438J25510D01*
G01*
X74565329Y-120322507D02*
X74577667Y-120305539D01*
X74545976Y-120346851D02*
X74565329Y-120322507D01*
X74526429Y-120370518D02*
X74545976Y-120346851D01*
X74526429Y-120370517D02*
G75*
G02X74516963Y-120380277I-72727J61071D01*
G01*
X74499895Y-120398072D02*
G75*
G02X74516963Y-120380277I123500J-101373D01*
G01*
X74445948Y-120464257D02*
X74499895Y-120398072D01*
X74391922Y-120531904D02*
X74445948Y-120464257D01*
X74351038Y-120585277D02*
X74391922Y-120531904D01*
X74274034Y-120693698D02*
X74351038Y-120585277D01*
X74213980Y-120789678D02*
X74274034Y-120693698D01*
X74148409Y-120910452D02*
X74213980Y-120789678D01*
X74045463Y-121115277D02*
X74148409Y-120910452D01*
X74012314Y-121182396D02*
X74045463Y-121115277D01*
X73982337Y-121243418D02*
X74012314Y-121182396D01*
X73957300Y-121294652D02*
X73982337Y-121243418D01*
X73948740Y-121312777D02*
X73957300Y-121294652D01*
X73933870Y-121344997D02*
X73948740Y-121312777D01*
X73898656Y-121420485D02*
X73933870Y-121344997D01*
X73863434Y-121495815D02*
X73898656Y-121420485D01*
X73842505Y-121540277D02*
X73863434Y-121495815D01*
X73836270Y-121553483D02*
X73842505Y-121540277D01*
X73826572Y-121574090D02*
X73836270Y-121553483D01*
X73815623Y-121597387D02*
X73826572Y-121574090D01*
X73804881Y-121620277D02*
X73815623Y-121597387D01*
X73752656Y-121731614D02*
X73804881Y-121620277D01*
X73705466Y-121832138D02*
X73752656Y-121731614D01*
X73666565Y-121914935D02*
X73705466Y-121832138D01*
X73644416Y-121961958D02*
X73666565Y-121914935D01*
X70456089Y-121270173D02*
X70450432Y-121347777D01*
X70491414Y-120934273D02*
X70489359Y-120951746D01*
X70499812Y-122775277D02*
X70502112Y-122791881D01*
X68220022Y-124404199D02*
X68285345Y-124431444D01*
X68172193Y-124382386D02*
X68220022Y-124404199D01*
X68096008Y-124345116D02*
X68172193Y-124382386D01*
X68013874Y-124304229D02*
X68096008Y-124345116D01*
X68958715Y-123667712D02*
G75*
G02X69037077Y-123677867I-68767J-838110D01*
G01*
X69134167Y-123697547D02*
X69037077Y-123677867D01*
X69238541Y-123723880D02*
X69134167Y-123697547D01*
X69340022Y-123754629D02*
X69238541Y-123723880D01*
X69411345Y-123778648D02*
X69340022Y-123754629D01*
X69462918Y-123797344D02*
X69411345Y-123778648D01*
X69514767Y-123818060D02*
X69462918Y-123797344D01*
X69587522Y-123848978D02*
X69514767Y-123818060D01*
X69636095Y-123871297D02*
X69587522Y-123848978D01*
X69722054Y-123913707D02*
X69636095Y-123871297D01*
X69807800Y-123957003D02*
X69722054Y-123913707D01*
X69857522Y-123983724D02*
X69807800Y-123957003D01*
X69874485Y-123993290D02*
X69857522Y-123983724D01*
X69892381Y-124003359D02*
X69874485Y-123993290D01*
X69908665Y-124012503D02*
X69892381Y-124003359D01*
X69920022Y-124018855D02*
X69908665Y-124012503D01*
X69967579Y-124046350D02*
X69920022Y-124018855D01*
X70029264Y-124083880D02*
X69967579Y-124046350D01*
X70094127Y-124124579D02*
X70029264Y-124083880D01*
X70152522Y-124162529D02*
X70094127Y-124124579D01*
X70269621Y-124239782D02*
X70152522Y-124162529D01*
X70284217Y-124242895D02*
G75*
G02X70269621Y-124239782I-3296J20324D01*
G01*
X70285880Y-124236626D02*
G75*
G02X70284217Y-124242894I-2231J-2763D01*
G01*
X70186635Y-124156997D02*
X70285879Y-124236626D01*
X70076355Y-124068615D02*
X70186635Y-124156997D01*
X69955655Y-123971064D02*
X70076355Y-124068615D01*
X69846190Y-123882022D02*
X69955655Y-123971064D01*
X69797522Y-123841366D02*
X69846190Y-123882022D01*
X69560218Y-123628564D02*
X69797522Y-123841366D01*
X69331976Y-123403889D02*
X69560218Y-123628564D01*
X69126302Y-123181368D02*
X69331976Y-123403889D01*
X68957522Y-122975413D02*
X69126302Y-123181368D01*
X68947035Y-122961730D02*
X68957522Y-122975413D01*
X68930933Y-122940881D02*
X68947035Y-122961730D01*
X68912804Y-122917489D02*
X68930933Y-122940881D01*
X68895094Y-122894720D02*
X68912804Y-122917489D01*
X68850771Y-122836679D02*
X68895094Y-122894720D01*
X68798022Y-122765362D02*
X68850771Y-122836679D01*
X68743294Y-122689659D02*
X68798022Y-122765362D01*
X68692611Y-122617777D02*
X68743294Y-122689659D01*
X68615794Y-122505183D02*
X68692611Y-122617777D01*
X68503314Y-122336047D02*
X68615794Y-122505183D01*
X68392960Y-122168079D02*
X68503314Y-122336047D01*
X68327810Y-122065811D02*
X68392960Y-122168079D01*
X68312852Y-122041839D02*
X68327810Y-122065811D01*
X68293501Y-122011028D02*
X68312852Y-122041839D01*
X68273210Y-121978853D02*
X68293501Y-122011028D01*
X68255098Y-121950277D02*
X68273210Y-121978853D01*
X68232466Y-121914465D02*
X68255098Y-121950277D01*
X68194344Y-121853699D02*
X68232466Y-121914465D01*
X68150478Y-121783586D02*
X68194344Y-121853699D01*
X68106299Y-121712777D02*
X68150478Y-121783586D01*
X68063762Y-121644522D02*
X68106299Y-121712777D01*
X68024866Y-121582137D02*
X68063762Y-121644522D01*
X67992249Y-121529846D02*
X68024866Y-121582137D01*
X67980010Y-121510277D02*
X67992249Y-121529846D01*
X67937630Y-121441590D02*
X67980010Y-121510277D01*
X67867790Y-121326106D02*
X67937630Y-121441590D01*
X67797729Y-121209490D02*
X67867790Y-121326106D01*
X67772165Y-121165277D02*
X67797729Y-121209490D01*
X67769328Y-121160248D02*
X67772165Y-121165277D01*
X67765217Y-121153074D02*
X67769328Y-121160248D01*
X67760674Y-121145211D02*
X67765217Y-121153074D01*
X67756342Y-121137777D02*
X67760674Y-121145211D01*
X67727044Y-121087083D02*
X67756342Y-121137777D01*
X67668968Y-120985057D02*
X67727044Y-121087083D01*
X67610346Y-120881702D02*
X67668968Y-120985057D01*
X67588754Y-120842777D02*
X67610346Y-120881702D01*
X67579351Y-120825536D02*
X67588754Y-120842777D01*
X67567835Y-120804543D02*
X67579351Y-120825536D01*
X67556140Y-120783314D02*
X67567835Y-120804543D01*
X67546150Y-120765277D02*
X67556140Y-120783314D01*
X67517394Y-120710797D02*
X67546150Y-120765277D01*
X67462647Y-120600518D02*
X67517394Y-120710797D01*
X67402078Y-120477345D02*
X67462647Y-120600518D01*
X67402079Y-120477345D02*
G75*
G02X67400022Y-120468491I18028J8854D01*
G01*
X67399530Y-120465636D02*
G75*
G02X67400022Y-120468491I-8045J-2855D01*
G01*
X67397209Y-120459477D02*
X67399530Y-120465636D01*
X67394113Y-120452210D02*
X67397209Y-120459477D01*
X67390446Y-120444500D02*
X67394113Y-120452210D01*
X67390446Y-120444500D02*
G75*
G02X67375567Y-120410779I353949J176315D01*
G01*
X67362376Y-120372674D02*
X67375567Y-120410779D01*
X67352797Y-120337022D02*
X67362376Y-120372674D01*
X67352798Y-120337021D02*
G75*
G02X67350022Y-120312709I105091J24312D01*
G01*
X67350022Y-120312709D02*
G75*
G02X67352313Y-120301889I26694J0D01*
G01*
X67352313Y-120301889D02*
G75*
G02X67358734Y-120293767I19006J-8428D01*
G01*
X67358734Y-120293767D02*
G75*
G02X67368045Y-120289963I11741J-15439D01*
G01*
X67368045Y-120289963D02*
G75*
G02X67378409Y-120291121I2783J-22042D01*
G01*
X70299378Y-124249505D02*
G75*
G02X70307816Y-124255118I-42084J-72409D01*
G01*
X70293690Y-124248010D02*
G75*
G02X70299378Y-124249505I137J-11046D01*
G01*
X70292163Y-124250169D02*
G75*
G02X70293690Y-124248010I1547J525D01*
G01*
X70295021Y-124255277D02*
G75*
G02X70292163Y-124250169I12406J10295D01*
G01*
X70298004Y-124258135D02*
G75*
G02X70295022Y-124255277I10995J14458D01*
G01*
X70301808Y-124260528D02*
G75*
G02X70298004Y-124258136I11528J22553D01*
G01*
X70305813Y-124262133D02*
G75*
G02X70301808Y-124260528I6762J22671D01*
G01*
X70309384Y-124262619D02*
G75*
G02X70305813Y-124262133I-229J11691D01*
G01*
X70313439Y-124262263D02*
G75*
G02X70309384Y-124262618I-4642J29680D01*
G01*
X70314221Y-124261131D02*
G75*
G02X70313438Y-124262263I-929J-194D01*
G01*
X70313100Y-124259282D02*
G75*
G02X70314221Y-124261131I-2062J-2515D01*
G01*
X70307816Y-124255118D02*
X70313100Y-124259282D01*
X71082574Y-118069496D02*
G75*
G02X71091771Y-118060571I24520J-16067D01*
G01*
X71091771Y-118060571D02*
G75*
G02X71102879Y-118057745I10107J-16484D01*
G01*
X71102879Y-118057745D02*
G75*
G02X71113607Y-118061707I-996J-19203D01*
G01*
X71113606Y-118061707D02*
G75*
G02X71121759Y-118071527I-17650J-22947D01*
G01*
X71121760Y-118071527D02*
G75*
G02X71133695Y-118104885I-124673J-63421D01*
G01*
X71149153Y-118180779D02*
X71133695Y-118104885D01*
X71166249Y-118280893D02*
X71149153Y-118180779D01*
X71184771Y-118407777D02*
X71166249Y-118280893D01*
X71189195Y-118439649D02*
X71184771Y-118407777D01*
X71193664Y-118471324D02*
X71189195Y-118439649D01*
X71197609Y-118498853D02*
X71193664Y-118471324D01*
X71200058Y-118515277D02*
X71197609Y-118498853D01*
X71202198Y-118529274D02*
X71200058Y-118515277D01*
X71204846Y-118546746D02*
X71202198Y-118529274D01*
X71207550Y-118564693D02*
X71204846Y-118546746D01*
X71209879Y-118580277D02*
X71207550Y-118564693D01*
X71250474Y-118845675D02*
X71209879Y-118580277D01*
X71282146Y-119033530D02*
X71250474Y-118845675D01*
X71312899Y-119191341D02*
X71282146Y-119033530D01*
X71349454Y-119355379D02*
X71312899Y-119191341D01*
X71374492Y-119458731D02*
X71349454Y-119355379D01*
X71406786Y-119586990D02*
X71374492Y-119458731D01*
X71438947Y-119712230D02*
X71406786Y-119586990D01*
X71449546Y-119747777D02*
X71438947Y-119712230D01*
X71451577Y-119754390D02*
X71449546Y-119747777D01*
X71454324Y-119764684D02*
X71451577Y-119754390D01*
X71457226Y-119776332D02*
X71454324Y-119764684D01*
X71459866Y-119787777D02*
X71457226Y-119776332D01*
X71462509Y-119799406D02*
X71459866Y-119787777D01*
X71465418Y-119811606D02*
X71462509Y-119799406D01*
X71468167Y-119822654D02*
X71465418Y-119811606D01*
X71470219Y-119830277D02*
X71468167Y-119822654D01*
X71491211Y-119911306D02*
X71470219Y-119830277D01*
X71520319Y-120039530D02*
X71491211Y-119911306D01*
X71547583Y-120167148D02*
X71520319Y-120039530D01*
X71560471Y-120240277D02*
X71547583Y-120167148D01*
X71562659Y-120254272D02*
X71560471Y-120240277D01*
X71565675Y-120271746D02*
X71562659Y-120254272D01*
X71568972Y-120289692D02*
X71565675Y-120271746D01*
X71572053Y-120305277D02*
X71568972Y-120289692D01*
X71583969Y-120371401D02*
X71572053Y-120305277D01*
X71598521Y-120470705D02*
X71583969Y-120371401D01*
X71613047Y-120582002D02*
X71598521Y-120470705D01*
X71625375Y-120690277D02*
X71613047Y-120582002D01*
X71633692Y-120777355D02*
X71625375Y-120690277D01*
X71641238Y-120873355D02*
X71633692Y-120777355D01*
X71649412Y-120996795D02*
X71641238Y-120873355D01*
X71659993Y-121175277D02*
X71649412Y-120996795D01*
X71664428Y-121311801D02*
X71659993Y-121175277D01*
X71663207Y-121473699D02*
X71664428Y-121311801D01*
D14*
X71656205Y-121680188D02*
X71663207Y-121473699D01*
X71642243Y-121960277D02*
X71656205Y-121680188D01*
D13*
X71638309Y-122013260D02*
X71642243Y-121960277D01*
X71629073Y-122107488D02*
X71638309Y-122013260D01*
X71618702Y-122204897D02*
X71629073Y-122107488D01*
X71609856Y-122277777D02*
X71618702Y-122204897D01*
X71607613Y-122295020D02*
X71609856Y-122277777D01*
X71604937Y-122316012D02*
X71607613Y-122295020D01*
X71602271Y-122337241D02*
X71604937Y-122316012D01*
X71600050Y-122355277D02*
X71602271Y-122337241D01*
X71597806Y-122372962D02*
X71600050Y-122355277D01*
X71595075Y-122393074D02*
X71597806Y-122372962D01*
X71592299Y-122412476D02*
X71595075Y-122393074D01*
X71589942Y-122427777D02*
X71592299Y-122412476D01*
X71587622Y-122442744D02*
X71589942Y-122427777D01*
X71584972Y-122461012D02*
X71587622Y-122442744D01*
X71582418Y-122479518D02*
X71584972Y-122461012D01*
X71580389Y-122495277D02*
X71582418Y-122479518D01*
X71561335Y-122617675D02*
X71580389Y-122495277D01*
X71521650Y-122819623D02*
X71561335Y-122617675D01*
X71478766Y-123021371D02*
X71521650Y-122819623D01*
X71447485Y-123145277D02*
X71478766Y-123021371D01*
X71444512Y-123155948D02*
X71447485Y-123145277D01*
X71441467Y-123167340D02*
X71444512Y-123155948D01*
X71438776Y-123177807D02*
X71441467Y-123167340D01*
X71436995Y-123185277D02*
X71438776Y-123177807D01*
X71427390Y-123223770D02*
X71436995Y-123185277D01*
X71397648Y-123331388D02*
X71427390Y-123223770D01*
X71367938Y-123437284D02*
X71397648Y-123331388D01*
X71350778Y-123495277D02*
X71367938Y-123437284D01*
X71346460Y-123509274D02*
X71350778Y-123495277D01*
X71341080Y-123526746D02*
X71346460Y-123509274D01*
X71335561Y-123544693D02*
X71341080Y-123526746D01*
X71330776Y-123560277D02*
X71335561Y-123544693D01*
X71313681Y-123614093D02*
X71330776Y-123560277D01*
X71282504Y-123708295D02*
X71313681Y-123614093D01*
X71249871Y-123805470D02*
X71282504Y-123708295D01*
X71224966Y-123877777D02*
X71249871Y-123805470D01*
X71214918Y-123906638D02*
X71224966Y-123877777D01*
X71205745Y-123933387D02*
X71214918Y-123906638D01*
X71198156Y-123955862D02*
X71205745Y-123933387D01*
X71195217Y-123965277D02*
X71198156Y-123955862D01*
X71192515Y-123974002D02*
X71195217Y-123965277D01*
X71186887Y-123990861D02*
X71192515Y-123974002D01*
X71180133Y-124010670D02*
X71186887Y-123990861D01*
X71172951Y-124031307D02*
X71180133Y-124010670D01*
X71155426Y-124084707D02*
X71172951Y-124031307D01*
X71155298Y-124104677D02*
G75*
G02X71155426Y-124084707I33535J9771D01*
G01*
X71162456Y-124105327D02*
G75*
G02X71155299Y-124104677I-3451J1730D01*
G01*
X71182120Y-124062777D02*
X71162455Y-124105327D01*
X71188098Y-124048783D02*
X71182120Y-124062777D01*
X71194664Y-124033598D02*
X71188098Y-124048783D01*
X71200839Y-124019472D02*
X71194664Y-124033598D01*
X71205464Y-124009082D02*
X71200839Y-124019472D01*
X71209124Y-124000664D02*
X71205464Y-124009082D01*
X71212214Y-123992904D02*
X71209124Y-124000664D01*
X71214584Y-123986362D02*
X71212214Y-123992904D01*
X71215021Y-123983771D02*
G75*
G02X71214584Y-123986362I-7897J0D01*
G01*
X71215021Y-123983771D02*
G75*
G02X71215482Y-123981197I7424J0D01*
G01*
X71217959Y-123974785D02*
X71215482Y-123981197D01*
X71221191Y-123967186D02*
X71217959Y-123974785D01*
X71225022Y-123958958D02*
X71221191Y-123967186D01*
X71228851Y-123950659D02*
X71225022Y-123958958D01*
X71232084Y-123942840D02*
X71228851Y-123950659D01*
X71234508Y-123936216D02*
X71232084Y-123942840D01*
X71235021Y-123933153D02*
G75*
G02X71234508Y-123936216I-9398J0D01*
G01*
X71235022Y-123933153D02*
G75*
G02X71235503Y-123930064I10154J0D01*
G01*
X71237803Y-123923264D02*
X71235503Y-123930064D01*
X71240864Y-123915223D02*
X71237803Y-123923264D01*
X71244490Y-123906661D02*
X71240864Y-123915223D01*
X70014682Y-122708855D02*
X70010103Y-122700347D01*
X70014682Y-122708855D02*
G75*
G02X70015022Y-122710212I-2538J-1357D01*
G01*
X70004695Y-122690555D02*
X69998277Y-122679295D01*
X70010103Y-122700347D02*
X70004695Y-122690555D01*
X68013874Y-124304228D02*
G75*
G02X68005022Y-124297537I13556J27135D01*
G01*
X68003092Y-124295897D02*
G75*
G02X68005022Y-124297537I-5453J-8377D01*
G01*
X67995912Y-124291285D02*
X68003091Y-124295898D01*
X67987281Y-124285930D02*
X67995912Y-124291285D01*
X67977522Y-124280101D02*
X67987281Y-124285930D01*
X67967356Y-124274103D02*
X67977522Y-124280101D01*
X67957487Y-124268234D02*
X67967356Y-124274103D01*
X67949047Y-124263177D02*
X67957487Y-124268234D01*
X67944424Y-124260341D02*
X67949047Y-124263177D01*
X67940259Y-124257797D02*
X67944424Y-124260341D01*
X67934094Y-124254150D02*
X67940259Y-124257797D01*
X67927233Y-124250155D02*
X67934094Y-124254150D01*
X67920629Y-124246375D02*
X67927233Y-124250155D01*
X67920629Y-124246375D02*
G75*
G02X67910474Y-124239975I63669J112281D01*
G01*
X67882016Y-124220005D02*
X67910474Y-124239975D01*
X67848261Y-124195940D02*
X67882016Y-124220005D01*
X67811226Y-124169103D02*
X67848261Y-124195940D01*
X67633114Y-124046773D02*
X67811226Y-124169103D01*
X67486099Y-123963678D02*
G75*
G02X67633114Y-124046773I-631554J-1288984D01*
G01*
X67326951Y-123896610D02*
G75*
G02X67486098Y-123963679I-510715J-1434241D01*
G01*
X67108826Y-123824954D02*
X67326951Y-123896611D01*
X67076926Y-123815042D02*
X67108826Y-123824954D01*
X67076927Y-123815042D02*
G75*
G02X67066329Y-123810106I14167J44263D01*
G01*
X67066329Y-123810106D02*
G75*
G02X67061681Y-123804159I5938J9430D01*
G01*
X67061681Y-123804159D02*
G75*
G02X67060076Y-123794254I30438J10015D01*
G01*
X67060076Y-123794254D02*
G75*
G02X67060628Y-123785206I70514J241D01*
G01*
X72285632Y-125719595D02*
X72397606Y-125749292D01*
X72198054Y-125693690D02*
X72285632Y-125719595D01*
X72198055Y-125693690D02*
G75*
G02X72142522Y-125673101I169046J541143D01*
G01*
X72137486Y-125671027D02*
X72142522Y-125673101D01*
X72130318Y-125668265D02*
X72137486Y-125671027D01*
X72122455Y-125665344D02*
X72130318Y-125668265D01*
X72115022Y-125662696D02*
X72122455Y-125665344D01*
X72107177Y-125659863D02*
X72115022Y-125662696D01*
X72098034Y-125656363D02*
X72107177Y-125659863D01*
X72089059Y-125652778D02*
X72098034Y-125656363D01*
X72081766Y-125649691D02*
X72089059Y-125652778D01*
X72075511Y-125647043D02*
X72081766Y-125649691D01*
X72069752Y-125644808D02*
X72075511Y-125647043D01*
X72064899Y-125643092D02*
X72069752Y-125644808D01*
X72062993Y-125642777D02*
G75*
G02X72064899Y-125643092I0J-5933D01*
G01*
X72062993Y-125642778D02*
G75*
G02X72059189Y-125642029I0J10037D01*
G01*
X71964667Y-125603305D02*
X72059189Y-125642029D01*
X71881032Y-125568860D02*
X71964667Y-125603305D01*
X71835022Y-125549343D02*
X71881032Y-125568860D01*
X71784226Y-125526283D02*
X71835022Y-125549343D01*
X71714035Y-125492512D02*
X71784226Y-125526283D01*
X71646005Y-125458811D02*
X71714035Y-125492512D01*
X71610022Y-125439386D02*
X71646005Y-125458811D01*
X71584250Y-125424488D02*
X71610022Y-125439386D01*
X71565712Y-125413819D02*
X71584250Y-125424488D01*
X71552040Y-125406010D02*
X71565712Y-125413819D01*
X71542522Y-125400665D02*
X71552040Y-125406010D01*
X71502423Y-125376144D02*
X71542522Y-125400665D01*
X71452352Y-125341071D02*
X71502423Y-125376144D01*
X71399465Y-125300893D02*
X71452352Y-125341071D01*
X71350022Y-125260105D02*
X71399465Y-125300893D01*
X71350022Y-125260106D02*
G75*
G02X71270238Y-125183873I695822J808099D01*
G01*
X71270238Y-125183873D02*
G75*
G02X71198595Y-125099661I781638J737557D01*
G01*
X71198596Y-125099661D02*
G75*
G02X71135002Y-125007259I878955J673003D01*
G01*
X71135001Y-125007258D02*
G75*
G02X71079292Y-124906527I1044989J643704D01*
G01*
X71066672Y-124882136D02*
X71079292Y-124906527D01*
X71058836Y-124871479D02*
G75*
G02X71066672Y-124882136I-34612J-33661D01*
G01*
X71052757Y-124869559D02*
G75*
G02X71058835Y-124871478I1254J-6611D01*
G01*
X71047112Y-124873439D02*
G75*
G02X71052758Y-124869558I7228J-4468D01*
G01*
X71045653Y-124878424D02*
G75*
G02X71047112Y-124873440I9773J-154D01*
G01*
X71043420Y-125021549D02*
X71045654Y-124878424D01*
X71041301Y-125181187D02*
X71043420Y-125021549D01*
X71039456Y-125369690D02*
X71041301Y-125181187D01*
X71037665Y-125558576D02*
X71039456Y-125369690D01*
X71035717Y-125719472D02*
X71037665Y-125558576D01*
X71033721Y-125862425D02*
X71035717Y-125719472D01*
X71033721Y-125862424D02*
G75*
G02X71032565Y-125871527I-41009J581D01*
G01*
X71032565Y-125871527D02*
G75*
G02X71031012Y-125875830I-20606J5007D01*
G01*
X71031011Y-125875830D02*
G75*
G02X71028627Y-125879473I-15676J7660D01*
G01*
X71028628Y-125879473D02*
G75*
G02X71025815Y-125881944I-9855J8380D01*
G01*
X71025814Y-125881943D02*
G75*
G02X71022998Y-125882777I-2816J4339D01*
G01*
X71022998Y-125882778D02*
G75*
G02X71018527Y-125881046I0J6637D01*
G01*
X70995478Y-125859837D02*
X71018527Y-125881046D01*
X70969013Y-125834616D02*
X70995478Y-125859837D01*
X70938906Y-125804683D02*
X70969013Y-125834616D01*
X70861648Y-125726588D02*
X70938906Y-125804683D01*
X70858335Y-125426359D02*
X70861648Y-125726588D01*
X70857066Y-125301023D02*
X70858335Y-125426359D01*
X70855995Y-125172704D02*
X70857066Y-125301023D01*
X70855237Y-125058674D02*
X70855995Y-125172704D01*
X70855022Y-124984454D02*
X70855237Y-125058674D01*
X70854720Y-124923849D02*
X70855022Y-124984454D01*
X70853728Y-124879717D02*
X70854720Y-124923849D01*
X70852369Y-124844990D02*
X70853728Y-124879717D01*
X70850060Y-124842777D02*
G75*
G02X70852369Y-124844990I-1J-2312D01*
G01*
X70847054Y-124844088D02*
G75*
G02X70850059Y-124842777I3005J-2787D01*
G01*
X70836630Y-124855560D02*
X70847055Y-124844089D01*
X70824618Y-124869615D02*
X70836630Y-124855560D01*
X70811309Y-124886292D02*
X70824618Y-124869615D01*
X70719679Y-124996929D02*
X70811309Y-124886292D01*
X70621336Y-125101497D02*
X70719679Y-124996929D01*
X70522618Y-125193723D02*
X70621336Y-125101497D01*
X70522618Y-125193723D02*
G75*
G02X70430022Y-125266907I-785138J898227D01*
G01*
X70293872Y-125357727D02*
X70430022Y-125266907D01*
X70160543Y-125434003D02*
X70293872Y-125357727D01*
X70020115Y-125500989D02*
X70160543Y-125434003D01*
X69862522Y-125563854D02*
X70020115Y-125500989D01*
X69806592Y-125583017D02*
X69862522Y-125563854D01*
X69714001Y-125612067D02*
X69806592Y-125583017D01*
X69620530Y-125640489D02*
X69714001Y-125612067D01*
X69620531Y-125640489D02*
G75*
G02X69585022Y-125649348I-111894J372905D01*
G01*
X69575788Y-125651427D02*
X69585022Y-125649348D01*
X69526256Y-125663853D02*
X69575788Y-125651427D01*
X69468574Y-125678414D02*
X69526256Y-125663853D01*
X69402522Y-125695214D02*
X69468574Y-125678414D01*
X69335223Y-125712309D02*
X69402522Y-125695214D01*
X69273647Y-125727802D02*
X69335223Y-125712309D01*
X69222000Y-125740673D02*
X69273647Y-125727802D01*
X69202522Y-125745258D02*
X69222000Y-125740673D01*
X69189392Y-125748201D02*
X69202522Y-125745258D01*
X69174725Y-125751527D02*
X69189392Y-125748201D01*
X69160765Y-125754724D02*
X69174725Y-125751527D01*
X69150022Y-125757222D02*
X69160765Y-125754724D01*
X69126495Y-125762411D02*
X69150022Y-125757222D01*
X69069890Y-125774006D02*
X69126495Y-125762411D01*
X69006655Y-125786751D02*
X69069890Y-125774006D01*
X68946570Y-125798613D02*
X69006655Y-125786751D01*
X68930754Y-125801291D02*
X68946570Y-125798613D01*
X68930754Y-125801291D02*
G75*
G02X68919488Y-125802124I-11660J81132D01*
G01*
X68919487Y-125802124D02*
G75*
G02X68910662Y-125801315I-221J46104D01*
G01*
X68910662Y-125801315D02*
G75*
G02X68902820Y-125798823I6419J33790D01*
G01*
X68902820Y-125798822D02*
G75*
G02X68893799Y-125785506I6402J14050D01*
G01*
X68893799Y-125785506D02*
G75*
G02X68899252Y-125766313I31269J1487D01*
G01*
X68899252Y-125766313D02*
G75*
G02X68927331Y-125731110I257590J-176662D01*
G01*
X69009998Y-125642550D02*
X68927331Y-125731110D01*
X69047172Y-125603045D02*
X69009998Y-125642550D01*
X69086499Y-125561019D02*
X69047172Y-125603045D01*
X69122351Y-125522510D02*
X69086499Y-125561019D01*
X69147522Y-125495213D02*
X69122351Y-125522510D01*
X69190178Y-125449392D02*
X69147522Y-125495213D01*
X69226361Y-125412256D02*
X69190178Y-125449392D01*
X69263224Y-125376564D02*
X69226361Y-125412256D01*
X69307926Y-125335277D02*
X69263224Y-125376564D01*
X69327115Y-125317823D02*
X69307926Y-125335277D01*
X69343687Y-125302653D02*
X69327115Y-125317823D01*
X69358008Y-125289477D02*
X69343687Y-125302653D01*
X69360021Y-125287406D02*
G75*
G02X69358008Y-125289477I-19819J17259D01*
G01*
X69360021Y-125287407D02*
G75*
G02X69362103Y-125285349I14795J-12883D01*
G01*
X69380147Y-125270015D02*
X69362103Y-125285349D01*
X69400885Y-125252487D02*
X69380147Y-125270015D01*
X69425022Y-125232231D02*
X69400885Y-125252487D01*
X69530470Y-125147248D02*
X69425022Y-125232231D01*
X69630076Y-125073754D02*
X69530470Y-125147248D01*
X69730113Y-125007287D02*
X69630076Y-125073754D01*
X69836795Y-124943515D02*
X69730113Y-125007287D01*
X69870714Y-124925268D02*
X69836795Y-124943515D01*
X69926262Y-124897389D02*
X69870714Y-124925268D01*
X69982493Y-124869994D02*
X69926262Y-124897389D01*
X70020022Y-124852890D02*
X69982493Y-124869994D01*
X70059757Y-124835775D02*
X70020022Y-124852890D01*
X70079737Y-124827382D02*
X70059757Y-124835775D01*
X70095779Y-124821025D02*
X70079737Y-124827382D01*
X70116272Y-124813347D02*
X70095779Y-124821025D01*
X70129186Y-124808599D02*
X70116272Y-124813347D01*
X70144287Y-124803046D02*
X70129186Y-124808599D01*
X70159151Y-124797580D02*
X70144287Y-124803046D01*
X70171272Y-124793122D02*
X70159151Y-124797580D01*
X70206104Y-124781114D02*
X70171272Y-124793122D01*
X70263274Y-124763030D02*
X70206104Y-124781114D01*
X70320340Y-124745577D02*
X70263274Y-124763030D01*
X70347522Y-124738372D02*
X70320340Y-124745577D01*
X70403341Y-124724277D02*
X70347522Y-124738372D01*
X70468904Y-124705292D02*
X70403341Y-124724277D01*
X70530034Y-124686296D02*
X70468904Y-124705292D01*
X70529691Y-124683050D02*
G75*
G02X70530034Y-124686296I-161J-1658D01*
G01*
X70527681Y-124683099D02*
G75*
G02X70529690Y-124683051I1204J-8298D01*
G01*
X70519709Y-124684287D02*
X70527681Y-124683099D01*
X70510305Y-124685799D02*
X70519709Y-124684287D01*
X70499690Y-124687644D02*
X70510305Y-124685799D01*
X70474754Y-124691359D02*
X70499690Y-124687644D01*
X70430359Y-124696376D02*
X70474754Y-124691359D01*
X70365074Y-124703070D02*
X70430359Y-124696376D01*
X70263645Y-124712894D02*
X70365074Y-124703070D01*
X70235352Y-124715035D02*
X70263645Y-124712894D01*
X70181795Y-124717839D02*
X70235352Y-124715035D01*
X70118915Y-124720681D02*
X70181795Y-124717839D01*
X70053645Y-124723169D02*
X70118915Y-124720681D01*
X69908340Y-124726041D02*
X70053645Y-124723169D01*
X69781748Y-124723781D02*
X69908340Y-124726041D01*
X69636661Y-124715269D02*
X69781748Y-124723781D01*
X69425022Y-124697707D02*
X69636661Y-124715269D01*
X69364771Y-124691119D02*
X69425022Y-124697707D01*
X69281738Y-124679690D02*
X69364771Y-124691119D01*
X69184250Y-124664788D02*
X69281738Y-124679690D01*
X69077522Y-124647109D02*
X69184250Y-124664788D01*
X68971857Y-124627377D02*
X69077522Y-124647109D01*
X68854034Y-124602215D02*
X68971857Y-124627377D01*
X68737305Y-124574654D02*
X68854034Y-124602215D01*
X68635022Y-124547637D02*
X68737305Y-124574654D01*
X68619381Y-124543300D02*
X68635022Y-124547637D01*
X68603397Y-124538981D02*
X68619381Y-124543300D01*
X68589207Y-124535245D02*
X68603397Y-124538981D01*
X68580022Y-124532966D02*
X68589207Y-124535245D01*
X68571722Y-124530851D02*
X68580022Y-124532966D01*
X68561053Y-124527839D02*
X68571722Y-124530851D01*
X68549914Y-124524499D02*
X68561053Y-124527839D01*
X68540022Y-124521321D02*
X68549914Y-124524499D01*
X68528663Y-124517567D02*
X68540022Y-124521321D01*
X68512381Y-124512256D02*
X68528663Y-124517567D01*
X68494485Y-124506458D02*
X68512381Y-124512256D01*
X68477522Y-124501004D02*
X68494485Y-124506458D01*
X68413400Y-124479584D02*
X68477522Y-124501004D01*
X68349573Y-124456485D02*
X68413400Y-124479584D01*
X68285345Y-124431444D02*
X68349573Y-124456485D01*
X71191588Y-124629800D02*
G75*
G02X71185529Y-124627293I15601J46284D01*
G01*
X71198772Y-124631862D02*
G75*
G02X71191589Y-124629800I19033J79840D01*
G01*
X71225611Y-124637712D02*
X71198772Y-124631862D01*
X67378409Y-120291121D02*
G75*
G02X67393800Y-120299519I-19851J-54684D01*
G01*
X67433573Y-120330444D02*
X67393800Y-120299519D01*
X67480950Y-120369163D02*
X67433573Y-120330444D01*
X67533636Y-120414359D02*
X67480950Y-120369163D01*
X67698174Y-120552127D02*
X67533636Y-120414359D01*
X67843791Y-120660502D02*
X67698174Y-120552127D01*
X68012714Y-120769733D02*
X67843791Y-120660502D01*
X68257522Y-120914069D02*
X68012714Y-120769733D01*
X70571306Y-120506615D02*
X70547577Y-120615220D01*
X70494593Y-120906118D02*
X70492916Y-120920277D01*
X70286280Y-123220659D02*
X70246362Y-123142777D01*
X70400735Y-123449065D02*
X70286280Y-123220659D01*
X70593793Y-120422863D02*
X70590420Y-120435871D01*
X70609796Y-123390277D02*
X70612223Y-123399554D01*
X68980696Y-121396196D02*
X68949731Y-121371569D01*
X69034121Y-121440261D02*
X68980696Y-121396196D01*
X70655296Y-120199293D02*
X70640717Y-120248596D01*
X70041545Y-122760738D02*
X70027657Y-122734784D01*
X70058037Y-122791194D02*
X70041545Y-122760738D01*
X70607389Y-123380966D02*
X70609796Y-123390277D01*
X70530667Y-123712450D02*
G75*
G02X70530022Y-123709625I5867J2825D01*
G01*
X70570128Y-123794375D02*
X70530666Y-123712451D01*
X70493686Y-122728002D02*
X70499812Y-122775277D01*
X70590420Y-120435871D02*
X70587276Y-120447511D01*
X70610559Y-120357297D02*
X70602925Y-120386256D01*
X70622102Y-123443678D02*
X70625424Y-123458215D01*
X70619792Y-123432777D02*
X70622102Y-123443678D01*
X70617434Y-123892202D02*
X70570128Y-123794375D01*
X70680900Y-124022769D02*
X70617434Y-123892202D01*
X70994836Y-118595277D02*
X70983743Y-118688355D01*
X69390510Y-121769449D02*
X69307249Y-121684817D01*
X69457941Y-121843323D02*
X69390510Y-121769449D01*
X70015378Y-122711643D02*
G75*
G02X70015022Y-122710212I2699J1431D01*
G01*
X70027657Y-122734784D02*
X70015377Y-122711643D01*
X70457431Y-122334943D02*
X70460146Y-122374262D01*
X70436197Y-121790776D02*
X70441200Y-122010800D01*
X68312323Y-120945700D02*
X68257522Y-120914069D01*
X68365350Y-120976582D02*
X68312323Y-120945700D01*
X68410594Y-121003170D02*
X68365350Y-120976582D01*
X70462884Y-122410118D02*
X70465155Y-122435277D01*
X71064571Y-118113376D02*
G75*
G02X71082574Y-118069496I122645J-24684D01*
G01*
X70983743Y-118688355D02*
X70966692Y-118818323D01*
X70966692Y-118818323D02*
X70948247Y-118952128D01*
X70948247Y-118952128D02*
X70932296Y-119060277D01*
X70594799Y-123321609D02*
X70597913Y-123336189D01*
X70672754Y-120140648D02*
X70655296Y-120199293D01*
X70665004Y-123616641D02*
X70688021Y-123705658D01*
X70652687Y-123567777D02*
X70665004Y-123616641D01*
X70439221Y-121585430D02*
X70436197Y-121790776D01*
X70497211Y-120888074D02*
X70494593Y-120906118D01*
X70596912Y-120410277D02*
X70593793Y-120422863D01*
X69091890Y-121488546D02*
X69034121Y-121440261D01*
X69142522Y-121531589D02*
X69091890Y-121488546D01*
X70640717Y-120248596D02*
X70634498Y-120270277D01*
X70546332Y-123082567D02*
X70569739Y-123208706D01*
X70472649Y-122517124D02*
X70474772Y-122542777D01*
X70602098Y-123357528D02*
X70604678Y-123369391D01*
X70620636Y-120320269D02*
X70610559Y-120357297D01*
X70612223Y-123399554D02*
X70614997Y-123411012D01*
X70774298Y-119790004D02*
X70691595Y-120077777D01*
X70524401Y-122953232D02*
X70546332Y-123082567D01*
X70486414Y-122663404D02*
X70493686Y-122728002D01*
X68435022Y-121017924D02*
X68410594Y-121003170D01*
X68452943Y-121028971D02*
X68435022Y-121017924D01*
X68471647Y-121040441D02*
X68452943Y-121028971D01*
X68488524Y-121050743D02*
X68471647Y-121040441D01*
X68500022Y-121057694D02*
X68488524Y-121050743D01*
X70597913Y-123336189D02*
X70600081Y-123347260D01*
X70455160Y-122297777D02*
X70457431Y-122334943D01*
X70891058Y-119296192D02*
X70839522Y-119534580D01*
X70602925Y-120386256D02*
X70596912Y-120410277D01*
X70932296Y-119060277D02*
X70891058Y-119296192D01*
X70614997Y-123411012D02*
X70617668Y-123422709D01*
X70465155Y-122435277D02*
X70467410Y-122458549D01*
X70510387Y-122855277D02*
X70524401Y-122953232D01*
X70647592Y-123547213D02*
X70652687Y-123567777D01*
X70641964Y-123524684D02*
X70647592Y-123547213D01*
X68838770Y-121288408D02*
X68712111Y-121198124D01*
X68949731Y-121371569D02*
X68838770Y-121288408D01*
X70466010Y-121160768D02*
X70456089Y-121270173D01*
X70585002Y-120455277D02*
X70571306Y-120506615D01*
X69990348Y-122665352D02*
X69980163Y-122647052D01*
X69998277Y-122679295D02*
X69990348Y-122665352D01*
X70175179Y-123007925D02*
X70157627Y-122975277D01*
X70196050Y-123047166D02*
X70175179Y-123007925D01*
X70793771Y-124203775D02*
G75*
G02X70778450Y-124204191I-7814J5438D01*
G01*
X70801642Y-124177617D02*
G75*
G02X70793772Y-124203776I-43965J-1036D01*
G01*
X70591336Y-123306189D02*
X70594799Y-123321609D01*
X70504965Y-122813215D02*
X70507876Y-122835494D01*
X70500258Y-120869324D02*
X70497211Y-120888074D01*
X70492916Y-120920277D02*
X70491414Y-120934273D01*
X70474772Y-122542777D02*
X70479586Y-122596968D01*
X70219842Y-123092235D02*
X70196050Y-123047166D01*
X70246362Y-123142777D02*
X70219842Y-123092235D01*
X70476782Y-121053128D02*
X70466010Y-121160768D01*
X70839522Y-119534580D02*
X70774298Y-119790004D01*
X70547577Y-120615220D02*
X70525096Y-120724104D01*
X70529044Y-123705488D02*
X70400735Y-123449065D01*
X70529045Y-123705488D02*
G75*
G02X70530022Y-123709625I-8269J-4137D01*
G01*
X68590998Y-121115371D02*
X68500022Y-121057694D01*
X68712111Y-121198124D02*
X68590998Y-121115371D01*
X69576981Y-121992044D02*
X69457941Y-121843323D01*
X69702584Y-122173051D02*
X69576981Y-121992044D01*
X70525096Y-120724104D02*
X70514785Y-120785277D01*
X70691595Y-120077777D02*
X70672754Y-120140648D01*
X70467410Y-122458549D02*
X70470054Y-122487481D01*
X70503300Y-120852777D02*
X70500258Y-120869324D01*
X70512686Y-120799437D02*
X70509713Y-120817481D01*
X70485041Y-120985277D02*
X70476782Y-121053128D01*
X70762789Y-123990486D02*
X70784316Y-124078882D01*
X70729915Y-123865277D02*
X70762789Y-123990486D01*
X70629114Y-123473688D02*
X70632635Y-123487777D01*
X70625424Y-123458215D02*
X70629114Y-123473688D01*
X70588031Y-123292260D02*
X70591336Y-123306189D01*
X70506422Y-120836231D02*
X70503300Y-120852777D01*
X71042634Y-118232589D02*
X71019274Y-118390793D01*
X70489359Y-120951746D02*
X70487122Y-120969693D01*
X70604678Y-123369391D02*
X70607389Y-123380966D01*
X70569739Y-123208706D02*
X70588031Y-123292260D01*
X70450432Y-121347777D02*
X70439221Y-121585430D01*
X71064571Y-118113377D02*
X71042634Y-118232589D01*
X70514785Y-120785277D02*
X70512686Y-120799437D01*
X70711965Y-123797481D02*
X70729915Y-123865277D01*
X70688021Y-123705658D02*
X70711965Y-123797481D01*
X70507876Y-122835494D02*
X70510387Y-122855277D01*
X70636652Y-123503561D02*
X70641964Y-123524684D01*
X70632635Y-123487777D02*
X70636652Y-123503561D01*
X70460146Y-122374262D02*
X70462884Y-122410118D01*
X70797789Y-124142241D02*
G75*
G02X70801641Y-124177617I-205937J-40320D01*
G01*
X70784316Y-124078882D02*
X70797790Y-124142241D01*
X70149971Y-122961116D02*
X70140235Y-122943074D01*
X70157627Y-122975277D02*
X70149971Y-122961116D01*
X70617668Y-123422709D02*
X70619792Y-123432777D01*
X70509713Y-120817481D02*
X70506422Y-120836231D01*
X69220584Y-121601527D02*
X69142522Y-121531589D01*
X69307249Y-121684817D02*
X69220584Y-121601527D01*
X70502112Y-122791881D02*
X70504965Y-122813215D01*
X70487122Y-120969693D02*
X70485041Y-120985277D01*
X70587276Y-120447511D02*
X70585002Y-120455277D01*
X71019274Y-118390793D02*
X70994836Y-118595277D01*
X69969544Y-122627713D02*
X69960123Y-122610277D01*
X69980163Y-122647052D02*
X69969544Y-122627713D01*
X70745824Y-124152971D02*
X70680900Y-124022769D01*
X70778449Y-124204191D02*
G75*
G02X70745824Y-124152971I252153J196613D01*
G01*
X70441200Y-122010800D02*
X70455160Y-122297777D01*
D12*
G36*
X73854975Y-109208585D02*
G01*
X74154528Y-109268170D01*
X74718874Y-109501930D01*
X75226772Y-109841296D01*
X75658704Y-110273228D01*
X75998070Y-110781126D01*
X76231830Y-111345472D01*
X76351000Y-111944578D01*
X76351000Y-112555422D01*
X76231830Y-113154528D01*
X75998070Y-113718874D01*
X75658704Y-114226772D01*
X75226772Y-114658704D01*
X74718874Y-114998070D01*
X74154528Y-115231830D01*
X73854975Y-115291415D01*
X73555423Y-115351000D01*
X72944577Y-115351000D01*
X72645025Y-115291415D01*
X72345472Y-115231830D01*
X71781126Y-114998070D01*
X71273228Y-114658704D01*
X70841296Y-114226772D01*
X70501930Y-113718874D01*
X70268170Y-113154528D01*
X70149000Y-112555422D01*
X70149000Y-111944578D01*
X70268170Y-111345472D01*
X70501930Y-110781126D01*
X70841296Y-110273228D01*
X71273228Y-109841296D01*
X71781126Y-109501930D01*
X72345472Y-109268170D01*
X72645025Y-109208585D01*
X72944577Y-109149000D01*
X73555423Y-109149000D01*
X73854975Y-109208585D01*
G37*
G36*
X51854975Y-109208585D02*
G01*
X52154528Y-109268170D01*
X52718874Y-109501930D01*
X53226772Y-109841296D01*
X53658704Y-110273228D01*
X53998070Y-110781126D01*
X54231830Y-111345472D01*
X54351000Y-111944578D01*
X54351000Y-112555422D01*
X54231830Y-113154528D01*
X53998070Y-113718874D01*
X53658704Y-114226772D01*
X53226772Y-114658704D01*
X52718874Y-114998070D01*
X52154528Y-115231830D01*
X51854975Y-115291415D01*
X51555423Y-115351000D01*
X50944577Y-115351000D01*
X50645025Y-115291415D01*
X50345472Y-115231830D01*
X49781126Y-114998070D01*
X49273228Y-114658704D01*
X48841296Y-114226772D01*
X48501930Y-113718874D01*
X48268170Y-113154528D01*
X48149000Y-112555422D01*
X48149000Y-111944578D01*
X48268170Y-111345472D01*
X48501930Y-110781126D01*
X48841296Y-110273228D01*
X49273228Y-109841296D01*
X49781126Y-109501930D01*
X50345472Y-109268170D01*
X50645025Y-109208585D01*
X50944577Y-109149000D01*
X51555423Y-109149000D01*
X51854975Y-109208585D01*
G37*
G36*
X29854975Y-109208585D02*
G01*
X30154528Y-109268170D01*
X30718874Y-109501930D01*
X31226772Y-109841296D01*
X31658704Y-110273228D01*
X31998070Y-110781126D01*
X32231830Y-111345472D01*
X32351000Y-111944578D01*
X32351000Y-112555422D01*
X32231830Y-113154528D01*
X31998070Y-113718874D01*
X31658704Y-114226772D01*
X31226772Y-114658704D01*
X30718874Y-114998070D01*
X30154528Y-115231830D01*
X29854975Y-115291415D01*
X29555423Y-115351000D01*
X28944577Y-115351000D01*
X28645025Y-115291415D01*
X28345472Y-115231830D01*
X27781126Y-114998070D01*
X27273228Y-114658704D01*
X26841296Y-114226772D01*
X26501930Y-113718874D01*
X26268170Y-113154528D01*
X26149000Y-112555422D01*
X26149000Y-111944578D01*
X26268170Y-111345472D01*
X26501930Y-110781126D01*
X26841296Y-110273228D01*
X27273228Y-109841296D01*
X27781126Y-109501930D01*
X28345472Y-109268170D01*
X28645025Y-109208585D01*
X28944577Y-109149000D01*
X29555423Y-109149000D01*
X29854975Y-109208585D01*
G37*
G36*
X7854975Y-109208585D02*
G01*
X8154528Y-109268170D01*
X8718874Y-109501930D01*
X9226772Y-109841296D01*
X9658704Y-110273228D01*
X9998070Y-110781126D01*
X10231830Y-111345472D01*
X10351000Y-111944578D01*
X10351000Y-112555422D01*
X10231830Y-113154528D01*
X9998070Y-113718874D01*
X9658704Y-114226772D01*
X9226772Y-114658704D01*
X8718874Y-114998070D01*
X8154528Y-115231830D01*
X7854975Y-115291415D01*
X7555423Y-115351000D01*
X6944577Y-115351000D01*
X6645025Y-115291415D01*
X6345472Y-115231830D01*
X5781126Y-114998070D01*
X5273228Y-114658704D01*
X4841296Y-114226772D01*
X4501930Y-113718874D01*
X4268170Y-113154528D01*
X4149000Y-112555422D01*
X4149000Y-111944578D01*
X4268170Y-111345472D01*
X4501930Y-110781126D01*
X4841296Y-110273228D01*
X5273228Y-109841296D01*
X5781126Y-109501930D01*
X6345472Y-109268170D01*
X6645025Y-109208585D01*
X6944577Y-109149000D01*
X7555423Y-109149000D01*
X7854975Y-109208585D01*
G37*
G36*
X133854975Y-105958585D02*
G01*
X134154528Y-106018170D01*
X134718874Y-106251930D01*
X135226772Y-106591296D01*
X135658704Y-107023228D01*
X135998070Y-107531126D01*
X136231830Y-108095472D01*
X136351000Y-108694578D01*
X136351000Y-109305422D01*
X136231830Y-109904528D01*
X135998070Y-110468874D01*
X135658704Y-110976772D01*
X135226772Y-111408704D01*
X134718874Y-111748070D01*
X134154528Y-111981830D01*
X133854975Y-112041415D01*
X133555423Y-112101000D01*
X132944577Y-112101000D01*
X132645025Y-112041415D01*
X132345472Y-111981830D01*
X131781126Y-111748070D01*
X131273228Y-111408704D01*
X130841296Y-110976772D01*
X130501930Y-110468874D01*
X130268170Y-109904528D01*
X130149000Y-109305422D01*
X130149000Y-108694578D01*
X130268170Y-108095472D01*
X130501930Y-107531126D01*
X130841296Y-107023228D01*
X131273228Y-106591296D01*
X131781126Y-106251930D01*
X132345472Y-106018170D01*
X132645025Y-105958585D01*
X132944577Y-105899000D01*
X133555423Y-105899000D01*
X133854975Y-105958585D01*
G37*
G36*
X115354975Y-105958585D02*
G01*
X115654528Y-106018170D01*
X116218874Y-106251930D01*
X116726772Y-106591296D01*
X117158704Y-107023228D01*
X117498070Y-107531126D01*
X117731830Y-108095472D01*
X117851000Y-108694578D01*
X117851000Y-109305422D01*
X117731830Y-109904528D01*
X117498070Y-110468874D01*
X117158704Y-110976772D01*
X116726772Y-111408704D01*
X116218874Y-111748070D01*
X115654528Y-111981830D01*
X115354975Y-112041415D01*
X115055423Y-112101000D01*
X114444577Y-112101000D01*
X114145025Y-112041415D01*
X113845472Y-111981830D01*
X113281126Y-111748070D01*
X112773228Y-111408704D01*
X112341296Y-110976772D01*
X112001930Y-110468874D01*
X111768170Y-109904528D01*
X111649000Y-109305422D01*
X111649000Y-108694578D01*
X111768170Y-108095472D01*
X112001930Y-107531126D01*
X112341296Y-107023228D01*
X112773228Y-106591296D01*
X113281126Y-106251930D01*
X113845472Y-106018170D01*
X114145025Y-105958585D01*
X114444577Y-105899000D01*
X115055423Y-105899000D01*
X115354975Y-105958585D01*
G37*
G36*
X97354975Y-105958585D02*
G01*
X97654528Y-106018170D01*
X98218874Y-106251930D01*
X98726772Y-106591296D01*
X99158704Y-107023228D01*
X99498070Y-107531126D01*
X99731830Y-108095472D01*
X99851000Y-108694578D01*
X99851000Y-109305422D01*
X99731830Y-109904528D01*
X99498070Y-110468874D01*
X99158704Y-110976772D01*
X98726772Y-111408704D01*
X98218874Y-111748070D01*
X97654528Y-111981830D01*
X97354975Y-112041415D01*
X97055423Y-112101000D01*
X96444577Y-112101000D01*
X96145025Y-112041415D01*
X95845472Y-111981830D01*
X95281126Y-111748070D01*
X94773228Y-111408704D01*
X94341296Y-110976772D01*
X94001930Y-110468874D01*
X93768170Y-109904528D01*
X93649000Y-109305422D01*
X93649000Y-108694578D01*
X93768170Y-108095472D01*
X94001930Y-107531126D01*
X94341296Y-107023228D01*
X94773228Y-106591296D01*
X95281126Y-106251930D01*
X95845472Y-106018170D01*
X96145025Y-105958585D01*
X96444577Y-105899000D01*
X97055423Y-105899000D01*
X97354975Y-105958585D01*
G37*
G36*
X29854975Y-99208585D02*
G01*
X30154528Y-99268170D01*
X30718874Y-99501930D01*
X31226772Y-99841296D01*
X31658704Y-100273228D01*
X31998070Y-100781126D01*
X32231830Y-101345472D01*
X32351000Y-101944578D01*
X32351000Y-102555422D01*
X32231830Y-103154528D01*
X31998070Y-103718874D01*
X31658704Y-104226772D01*
X31226772Y-104658704D01*
X30718874Y-104998070D01*
X30154528Y-105231830D01*
X29854975Y-105291415D01*
X29555423Y-105351000D01*
X28944577Y-105351000D01*
X28645025Y-105291415D01*
X28345472Y-105231830D01*
X27781126Y-104998070D01*
X27273228Y-104658704D01*
X26841296Y-104226772D01*
X26501930Y-103718874D01*
X26268170Y-103154528D01*
X26149000Y-102555422D01*
X26149000Y-101944578D01*
X26268170Y-101345472D01*
X26501930Y-100781126D01*
X26841296Y-100273228D01*
X27273228Y-99841296D01*
X27781126Y-99501930D01*
X28345472Y-99268170D01*
X28645025Y-99208585D01*
X28944577Y-99149000D01*
X29555423Y-99149000D01*
X29854975Y-99208585D01*
G37*
G36*
X51854975Y-99208585D02*
G01*
X52154528Y-99268170D01*
X52718874Y-99501930D01*
X53226772Y-99841296D01*
X53658704Y-100273228D01*
X53998070Y-100781126D01*
X54231830Y-101345472D01*
X54351000Y-101944578D01*
X54351000Y-102555422D01*
X54231830Y-103154528D01*
X53998070Y-103718874D01*
X53658704Y-104226772D01*
X53226772Y-104658704D01*
X52718874Y-104998070D01*
X52154528Y-105231830D01*
X51854975Y-105291415D01*
X51555423Y-105351000D01*
X50944577Y-105351000D01*
X50645025Y-105291415D01*
X50345472Y-105231830D01*
X49781126Y-104998070D01*
X49273228Y-104658704D01*
X48841296Y-104226772D01*
X48501930Y-103718874D01*
X48268170Y-103154528D01*
X48149000Y-102555422D01*
X48149000Y-101944578D01*
X48268170Y-101345472D01*
X48501930Y-100781126D01*
X48841296Y-100273228D01*
X49273228Y-99841296D01*
X49781126Y-99501930D01*
X50345472Y-99268170D01*
X50645025Y-99208585D01*
X50944577Y-99149000D01*
X51555423Y-99149000D01*
X51854975Y-99208585D01*
G37*
G36*
X7854975Y-99208585D02*
G01*
X8154528Y-99268170D01*
X8718874Y-99501930D01*
X9226772Y-99841296D01*
X9658704Y-100273228D01*
X9998070Y-100781126D01*
X10231830Y-101345472D01*
X10351000Y-101944578D01*
X10351000Y-102555422D01*
X10231830Y-103154528D01*
X9998070Y-103718874D01*
X9658704Y-104226772D01*
X9226772Y-104658704D01*
X8718874Y-104998070D01*
X8154528Y-105231830D01*
X7854975Y-105291415D01*
X7555423Y-105351000D01*
X6944577Y-105351000D01*
X6645025Y-105291415D01*
X6345472Y-105231830D01*
X5781126Y-104998070D01*
X5273228Y-104658704D01*
X4841296Y-104226772D01*
X4501930Y-103718874D01*
X4268170Y-103154528D01*
X4149000Y-102555422D01*
X4149000Y-101944578D01*
X4268170Y-101345472D01*
X4501930Y-100781126D01*
X4841296Y-100273228D01*
X5273228Y-99841296D01*
X5781126Y-99501930D01*
X6345472Y-99268170D01*
X6645025Y-99208585D01*
X6944577Y-99149000D01*
X7555423Y-99149000D01*
X7854975Y-99208585D01*
G37*
G36*
X73854975Y-99208585D02*
G01*
X74154528Y-99268170D01*
X74718874Y-99501930D01*
X75226772Y-99841296D01*
X75658704Y-100273228D01*
X75998070Y-100781126D01*
X76231830Y-101345472D01*
X76351000Y-101944578D01*
X76351000Y-102555422D01*
X76231830Y-103154528D01*
X75998070Y-103718874D01*
X75658704Y-104226772D01*
X75226772Y-104658704D01*
X74718874Y-104998070D01*
X74154528Y-105231830D01*
X73854975Y-105291415D01*
X73555423Y-105351000D01*
X72944577Y-105351000D01*
X72645025Y-105291415D01*
X72345472Y-105231830D01*
X71781126Y-104998070D01*
X71273228Y-104658704D01*
X70841296Y-104226772D01*
X70501930Y-103718874D01*
X70268170Y-103154528D01*
X70149000Y-102555422D01*
X70149000Y-101944578D01*
X70268170Y-101345472D01*
X70501930Y-100781126D01*
X70841296Y-100273228D01*
X71273228Y-99841296D01*
X71781126Y-99501930D01*
X72345472Y-99268170D01*
X72645025Y-99208585D01*
X72944577Y-99149000D01*
X73555423Y-99149000D01*
X73854975Y-99208585D01*
G37*
G36*
X133854975Y-93958585D02*
G01*
X134154528Y-94018170D01*
X134718874Y-94251930D01*
X135226772Y-94591296D01*
X135658704Y-95023228D01*
X135998070Y-95531126D01*
X136231830Y-96095472D01*
X136351000Y-96694578D01*
X136351000Y-97305422D01*
X136231830Y-97904528D01*
X135998070Y-98468874D01*
X135658704Y-98976772D01*
X135226772Y-99408704D01*
X134718874Y-99748070D01*
X134154528Y-99981830D01*
X133854975Y-100041415D01*
X133555423Y-100101000D01*
X132944577Y-100101000D01*
X132645025Y-100041415D01*
X132345472Y-99981830D01*
X131781126Y-99748070D01*
X131273228Y-99408704D01*
X130841296Y-98976772D01*
X130501930Y-98468874D01*
X130268170Y-97904528D01*
X130149000Y-97305422D01*
X130149000Y-96694578D01*
X130268170Y-96095472D01*
X130501930Y-95531126D01*
X130841296Y-95023228D01*
X131273228Y-94591296D01*
X131781126Y-94251930D01*
X132345472Y-94018170D01*
X132645025Y-93958585D01*
X132944577Y-93899000D01*
X133555423Y-93899000D01*
X133854975Y-93958585D01*
G37*
G36*
X97354975Y-93958585D02*
G01*
X97654528Y-94018170D01*
X98218874Y-94251930D01*
X98726772Y-94591296D01*
X99158704Y-95023228D01*
X99498070Y-95531126D01*
X99731830Y-96095472D01*
X99851000Y-96694578D01*
X99851000Y-97305422D01*
X99731830Y-97904528D01*
X99498070Y-98468874D01*
X99158704Y-98976772D01*
X98726772Y-99408704D01*
X98218874Y-99748070D01*
X97654528Y-99981830D01*
X97354975Y-100041415D01*
X97055423Y-100101000D01*
X96444577Y-100101000D01*
X96145025Y-100041415D01*
X95845472Y-99981830D01*
X95281126Y-99748070D01*
X94773228Y-99408704D01*
X94341296Y-98976772D01*
X94001930Y-98468874D01*
X93768170Y-97904528D01*
X93649000Y-97305422D01*
X93649000Y-96694578D01*
X93768170Y-96095472D01*
X94001930Y-95531126D01*
X94341296Y-95023228D01*
X94773228Y-94591296D01*
X95281126Y-94251930D01*
X95845472Y-94018170D01*
X96145025Y-93958585D01*
X96444577Y-93899000D01*
X97055423Y-93899000D01*
X97354975Y-93958585D01*
G37*
G36*
X115354975Y-93958585D02*
G01*
X115654528Y-94018170D01*
X116218874Y-94251930D01*
X116726772Y-94591296D01*
X117158704Y-95023228D01*
X117498070Y-95531126D01*
X117731830Y-96095472D01*
X117851000Y-96694578D01*
X117851000Y-97305422D01*
X117731830Y-97904528D01*
X117498070Y-98468874D01*
X117158704Y-98976772D01*
X116726772Y-99408704D01*
X116218874Y-99748070D01*
X115654528Y-99981830D01*
X115354975Y-100041415D01*
X115055423Y-100101000D01*
X114444577Y-100101000D01*
X114145025Y-100041415D01*
X113845472Y-99981830D01*
X113281126Y-99748070D01*
X112773228Y-99408704D01*
X112341296Y-98976772D01*
X112001930Y-98468874D01*
X111768170Y-97904528D01*
X111649000Y-97305422D01*
X111649000Y-96694578D01*
X111768170Y-96095472D01*
X112001930Y-95531126D01*
X112341296Y-95023228D01*
X112773228Y-94591296D01*
X113281126Y-94251930D01*
X113845472Y-94018170D01*
X114145025Y-93958585D01*
X114444577Y-93899000D01*
X115055423Y-93899000D01*
X115354975Y-93958585D01*
G37*
G36*
X115354975Y-81958585D02*
G01*
X115654528Y-82018170D01*
X116218874Y-82251930D01*
X116726772Y-82591296D01*
X117158704Y-83023228D01*
X117498070Y-83531126D01*
X117731830Y-84095472D01*
X117851000Y-84694578D01*
X117851000Y-85305422D01*
X117731830Y-85904528D01*
X117498070Y-86468874D01*
X117158704Y-86976772D01*
X116726772Y-87408704D01*
X116218874Y-87748070D01*
X115654528Y-87981830D01*
X115354975Y-88041415D01*
X115055423Y-88101000D01*
X114444577Y-88101000D01*
X114145025Y-88041415D01*
X113845472Y-87981830D01*
X113281126Y-87748070D01*
X112773228Y-87408704D01*
X112341296Y-86976772D01*
X112001930Y-86468874D01*
X111768170Y-85904528D01*
X111649000Y-85305422D01*
X111649000Y-84694578D01*
X111768170Y-84095472D01*
X112001930Y-83531126D01*
X112341296Y-83023228D01*
X112773228Y-82591296D01*
X113281126Y-82251930D01*
X113845472Y-82018170D01*
X114145025Y-81958585D01*
X114444577Y-81899000D01*
X115055423Y-81899000D01*
X115354975Y-81958585D01*
G37*
G36*
X97354975Y-81958585D02*
G01*
X97654528Y-82018170D01*
X98218874Y-82251930D01*
X98726772Y-82591296D01*
X99158704Y-83023228D01*
X99498070Y-83531126D01*
X99731830Y-84095472D01*
X99851000Y-84694578D01*
X99851000Y-85305422D01*
X99731830Y-85904528D01*
X99498070Y-86468874D01*
X99158704Y-86976772D01*
X98726772Y-87408704D01*
X98218874Y-87748070D01*
X97654528Y-87981830D01*
X97354975Y-88041415D01*
X97055423Y-88101000D01*
X96444577Y-88101000D01*
X96145025Y-88041415D01*
X95845472Y-87981830D01*
X95281126Y-87748070D01*
X94773228Y-87408704D01*
X94341296Y-86976772D01*
X94001930Y-86468874D01*
X93768170Y-85904528D01*
X93649000Y-85305422D01*
X93649000Y-84694578D01*
X93768170Y-84095472D01*
X94001930Y-83531126D01*
X94341296Y-83023228D01*
X94773228Y-82591296D01*
X95281126Y-82251930D01*
X95845472Y-82018170D01*
X96145025Y-81958585D01*
X96444577Y-81899000D01*
X97055423Y-81899000D01*
X97354975Y-81958585D01*
G37*
G36*
X133854975Y-81958585D02*
G01*
X134154528Y-82018170D01*
X134718874Y-82251930D01*
X135226772Y-82591296D01*
X135658704Y-83023228D01*
X135998070Y-83531126D01*
X136231830Y-84095472D01*
X136351000Y-84694578D01*
X136351000Y-85305422D01*
X136231830Y-85904528D01*
X135998070Y-86468874D01*
X135658704Y-86976772D01*
X135226772Y-87408704D01*
X134718874Y-87748070D01*
X134154528Y-87981830D01*
X133854975Y-88041415D01*
X133555423Y-88101000D01*
X132944577Y-88101000D01*
X132645025Y-88041415D01*
X132345472Y-87981830D01*
X131781126Y-87748070D01*
X131273228Y-87408704D01*
X130841296Y-86976772D01*
X130501930Y-86468874D01*
X130268170Y-85904528D01*
X130149000Y-85305422D01*
X130149000Y-84694578D01*
X130268170Y-84095472D01*
X130501930Y-83531126D01*
X130841296Y-83023228D01*
X131273228Y-82591296D01*
X131781126Y-82251930D01*
X132345472Y-82018170D01*
X132645025Y-81958585D01*
X132944577Y-81899000D01*
X133555423Y-81899000D01*
X133854975Y-81958585D01*
G37*
G36*
X62446217Y-82906665D02*
G01*
X62716995Y-82960525D01*
X63008358Y-83081212D01*
X63270578Y-83256422D01*
X63493578Y-83479422D01*
X63668788Y-83741642D01*
X63789475Y-84033005D01*
X63851000Y-84342315D01*
X63851000Y-84657685D01*
X63789475Y-84966995D01*
X63668788Y-85258358D01*
X63493578Y-85520578D01*
X63270578Y-85743578D01*
X63008358Y-85918788D01*
X62716995Y-86039475D01*
X62446217Y-86093335D01*
X62407686Y-86101000D01*
X62092314Y-86101000D01*
X62053783Y-86093335D01*
X61783005Y-86039475D01*
X61491642Y-85918788D01*
X61229422Y-85743578D01*
X61006422Y-85520578D01*
X60831212Y-85258358D01*
X60710525Y-84966995D01*
X60649000Y-84657685D01*
X60649000Y-84342315D01*
X60710525Y-84033005D01*
X60831212Y-83741642D01*
X61006422Y-83479422D01*
X61229422Y-83256422D01*
X61491642Y-83081212D01*
X61783005Y-82960525D01*
X62053783Y-82906665D01*
X62092314Y-82899000D01*
X62407686Y-82899000D01*
X62446217Y-82906665D01*
G37*
G36*
X84446217Y-82906665D02*
G01*
X84716995Y-82960525D01*
X85008358Y-83081212D01*
X85270578Y-83256422D01*
X85493578Y-83479422D01*
X85668788Y-83741642D01*
X85789475Y-84033005D01*
X85851000Y-84342315D01*
X85851000Y-84657685D01*
X85789475Y-84966995D01*
X85668788Y-85258358D01*
X85493578Y-85520578D01*
X85270578Y-85743578D01*
X85008358Y-85918788D01*
X84716995Y-86039475D01*
X84446217Y-86093335D01*
X84407686Y-86101000D01*
X84092314Y-86101000D01*
X84053783Y-86093335D01*
X83783005Y-86039475D01*
X83491642Y-85918788D01*
X83229422Y-85743578D01*
X83006422Y-85520578D01*
X82831212Y-85258358D01*
X82710525Y-84966995D01*
X82649000Y-84657685D01*
X82649000Y-84342315D01*
X82710525Y-84033005D01*
X82831212Y-83741642D01*
X83006422Y-83479422D01*
X83229422Y-83256422D01*
X83491642Y-83081212D01*
X83783005Y-82960525D01*
X84053783Y-82906665D01*
X84092314Y-82899000D01*
X84407686Y-82899000D01*
X84446217Y-82906665D01*
G37*
G36*
X40446217Y-82906665D02*
G01*
X40716995Y-82960525D01*
X41008358Y-83081212D01*
X41270578Y-83256422D01*
X41493578Y-83479422D01*
X41668788Y-83741642D01*
X41789475Y-84033005D01*
X41851000Y-84342315D01*
X41851000Y-84657685D01*
X41789475Y-84966995D01*
X41668788Y-85258358D01*
X41493578Y-85520578D01*
X41270578Y-85743578D01*
X41008358Y-85918788D01*
X40716995Y-86039475D01*
X40446217Y-86093335D01*
X40407686Y-86101000D01*
X40092314Y-86101000D01*
X40053783Y-86093335D01*
X39783005Y-86039475D01*
X39491642Y-85918788D01*
X39229422Y-85743578D01*
X39006422Y-85520578D01*
X38831212Y-85258358D01*
X38710525Y-84966995D01*
X38649000Y-84657685D01*
X38649000Y-84342315D01*
X38710525Y-84033005D01*
X38831212Y-83741642D01*
X39006422Y-83479422D01*
X39229422Y-83256422D01*
X39491642Y-83081212D01*
X39783005Y-82960525D01*
X40053783Y-82906665D01*
X40092314Y-82899000D01*
X40407686Y-82899000D01*
X40446217Y-82906665D01*
G37*
G36*
X18446217Y-82906665D02*
G01*
X18716995Y-82960525D01*
X19008358Y-83081212D01*
X19270578Y-83256422D01*
X19493578Y-83479422D01*
X19668788Y-83741642D01*
X19789475Y-84033005D01*
X19851000Y-84342315D01*
X19851000Y-84657685D01*
X19789475Y-84966995D01*
X19668788Y-85258358D01*
X19493578Y-85520578D01*
X19270578Y-85743578D01*
X19008358Y-85918788D01*
X18716995Y-86039475D01*
X18446217Y-86093335D01*
X18407686Y-86101000D01*
X18092314Y-86101000D01*
X18053783Y-86093335D01*
X17783005Y-86039475D01*
X17491642Y-85918788D01*
X17229422Y-85743578D01*
X17006422Y-85520578D01*
X16831212Y-85258358D01*
X16710525Y-84966995D01*
X16649000Y-84657685D01*
X16649000Y-84342315D01*
X16710525Y-84033005D01*
X16831212Y-83741642D01*
X17006422Y-83479422D01*
X17229422Y-83256422D01*
X17491642Y-83081212D01*
X17783005Y-82960525D01*
X18053783Y-82906665D01*
X18092314Y-82899000D01*
X18407686Y-82899000D01*
X18446217Y-82906665D01*
G37*
G36*
X115354975Y-69958585D02*
G01*
X115654528Y-70018170D01*
X116218874Y-70251930D01*
X116726772Y-70591296D01*
X117158704Y-71023228D01*
X117498070Y-71531126D01*
X117731830Y-72095472D01*
X117851000Y-72694578D01*
X117851000Y-73305422D01*
X117731830Y-73904528D01*
X117498070Y-74468874D01*
X117158704Y-74976772D01*
X116726772Y-75408704D01*
X116218874Y-75748070D01*
X115654528Y-75981830D01*
X115354975Y-76041415D01*
X115055423Y-76101000D01*
X114444577Y-76101000D01*
X114145025Y-76041415D01*
X113845472Y-75981830D01*
X113281126Y-75748070D01*
X112773228Y-75408704D01*
X112341296Y-74976772D01*
X112001930Y-74468874D01*
X111768170Y-73904528D01*
X111649000Y-73305422D01*
X111649000Y-72694578D01*
X111768170Y-72095472D01*
X112001930Y-71531126D01*
X112341296Y-71023228D01*
X112773228Y-70591296D01*
X113281126Y-70251930D01*
X113845472Y-70018170D01*
X114145025Y-69958585D01*
X114444577Y-69899000D01*
X115055423Y-69899000D01*
X115354975Y-69958585D01*
G37*
G36*
X97354975Y-69958585D02*
G01*
X97654528Y-70018170D01*
X98218874Y-70251930D01*
X98726772Y-70591296D01*
X99158704Y-71023228D01*
X99498070Y-71531126D01*
X99731830Y-72095472D01*
X99851000Y-72694578D01*
X99851000Y-73305422D01*
X99731830Y-73904528D01*
X99498070Y-74468874D01*
X99158704Y-74976772D01*
X98726772Y-75408704D01*
X98218874Y-75748070D01*
X97654528Y-75981830D01*
X97354975Y-76041415D01*
X97055423Y-76101000D01*
X96444577Y-76101000D01*
X96145025Y-76041415D01*
X95845472Y-75981830D01*
X95281126Y-75748070D01*
X94773228Y-75408704D01*
X94341296Y-74976772D01*
X94001930Y-74468874D01*
X93768170Y-73904528D01*
X93649000Y-73305422D01*
X93649000Y-72694578D01*
X93768170Y-72095472D01*
X94001930Y-71531126D01*
X94341296Y-71023228D01*
X94773228Y-70591296D01*
X95281126Y-70251930D01*
X95845472Y-70018170D01*
X96145025Y-69958585D01*
X96444577Y-69899000D01*
X97055423Y-69899000D01*
X97354975Y-69958585D01*
G37*
G36*
X133854975Y-59958585D02*
G01*
X134154528Y-60018170D01*
X134718874Y-60251930D01*
X135226772Y-60591296D01*
X135658704Y-61023228D01*
X135998070Y-61531126D01*
X136231830Y-62095472D01*
X136351000Y-62694578D01*
X136351000Y-63305422D01*
X136231830Y-63904528D01*
X135998070Y-64468874D01*
X135658704Y-64976772D01*
X135226772Y-65408704D01*
X134718874Y-65748070D01*
X134154528Y-65981830D01*
X133854975Y-66041415D01*
X133555423Y-66101000D01*
X132944577Y-66101000D01*
X132645025Y-66041415D01*
X132345472Y-65981830D01*
X131781126Y-65748070D01*
X131273228Y-65408704D01*
X130841296Y-64976772D01*
X130501930Y-64468874D01*
X130268170Y-63904528D01*
X130149000Y-63305422D01*
X130149000Y-62694578D01*
X130268170Y-62095472D01*
X130501930Y-61531126D01*
X130841296Y-61023228D01*
X131273228Y-60591296D01*
X131781126Y-60251930D01*
X132345472Y-60018170D01*
X132645025Y-59958585D01*
X132944577Y-59899000D01*
X133555423Y-59899000D01*
X133854975Y-59958585D01*
G37*
G36*
X40446217Y-60906665D02*
G01*
X40716995Y-60960525D01*
X41008358Y-61081212D01*
X41270578Y-61256422D01*
X41493578Y-61479422D01*
X41668788Y-61741642D01*
X41789475Y-62033005D01*
X41851000Y-62342315D01*
X41851000Y-62657685D01*
X41789475Y-62966995D01*
X41668788Y-63258358D01*
X41493578Y-63520578D01*
X41270578Y-63743578D01*
X41008358Y-63918788D01*
X40716995Y-64039475D01*
X40446217Y-64093335D01*
X40407686Y-64101000D01*
X40092314Y-64101000D01*
X40053783Y-64093335D01*
X39783005Y-64039475D01*
X39491642Y-63918788D01*
X39229422Y-63743578D01*
X39006422Y-63520578D01*
X38831212Y-63258358D01*
X38710525Y-62966995D01*
X38649000Y-62657685D01*
X38649000Y-62342315D01*
X38710525Y-62033005D01*
X38831212Y-61741642D01*
X39006422Y-61479422D01*
X39229422Y-61256422D01*
X39491642Y-61081212D01*
X39783005Y-60960525D01*
X40053783Y-60906665D01*
X40092314Y-60899000D01*
X40407686Y-60899000D01*
X40446217Y-60906665D01*
G37*
G36*
X97354975Y-57958585D02*
G01*
X97654528Y-58018170D01*
X98218874Y-58251930D01*
X98726772Y-58591296D01*
X99158704Y-59023228D01*
X99498070Y-59531126D01*
X99731830Y-60095472D01*
X99851000Y-60694578D01*
X99851000Y-61305422D01*
X99731830Y-61904528D01*
X99498070Y-62468874D01*
X99158704Y-62976772D01*
X98726772Y-63408704D01*
X98218874Y-63748070D01*
X97654528Y-63981830D01*
X97364733Y-64039474D01*
X97055423Y-64101000D01*
X96444577Y-64101000D01*
X96135267Y-64039474D01*
X95845472Y-63981830D01*
X95281126Y-63748070D01*
X94773228Y-63408704D01*
X94341296Y-62976772D01*
X94001930Y-62468874D01*
X93768170Y-61904528D01*
X93649000Y-61305422D01*
X93649000Y-60694578D01*
X93768170Y-60095472D01*
X94001930Y-59531126D01*
X94341296Y-59023228D01*
X94773228Y-58591296D01*
X95281126Y-58251930D01*
X95845472Y-58018170D01*
X96145025Y-57958585D01*
X96444577Y-57899000D01*
X97055423Y-57899000D01*
X97354975Y-57958585D01*
G37*
G36*
X115354975Y-57958585D02*
G01*
X115654528Y-58018170D01*
X116218874Y-58251930D01*
X116726772Y-58591296D01*
X117158704Y-59023228D01*
X117498070Y-59531126D01*
X117731830Y-60095472D01*
X117851000Y-60694578D01*
X117851000Y-61305422D01*
X117731830Y-61904528D01*
X117498070Y-62468874D01*
X117158704Y-62976772D01*
X116726772Y-63408704D01*
X116218874Y-63748070D01*
X115654528Y-63981830D01*
X115364733Y-64039474D01*
X115055423Y-64101000D01*
X114444577Y-64101000D01*
X114135267Y-64039474D01*
X113845472Y-63981830D01*
X113281126Y-63748070D01*
X112773228Y-63408704D01*
X112341296Y-62976772D01*
X112001930Y-62468874D01*
X111768170Y-61904528D01*
X111649000Y-61305422D01*
X111649000Y-60694578D01*
X111768170Y-60095472D01*
X112001930Y-59531126D01*
X112341296Y-59023228D01*
X112773228Y-58591296D01*
X113281126Y-58251930D01*
X113845472Y-58018170D01*
X114145025Y-57958585D01*
X114444577Y-57899000D01*
X115055423Y-57899000D01*
X115354975Y-57958585D01*
G37*
G36*
X18446217Y-60906665D02*
G01*
X18716995Y-60960525D01*
X19008358Y-61081212D01*
X19270578Y-61256422D01*
X19493578Y-61479422D01*
X19668788Y-61741642D01*
X19789475Y-62033005D01*
X19851000Y-62342315D01*
X19851000Y-62657685D01*
X19789475Y-62966995D01*
X19668788Y-63258358D01*
X19493578Y-63520578D01*
X19270578Y-63743578D01*
X19008358Y-63918788D01*
X18716995Y-64039475D01*
X18446217Y-64093335D01*
X18407686Y-64101000D01*
X18092314Y-64101000D01*
X18053783Y-64093335D01*
X17783005Y-64039475D01*
X17491642Y-63918788D01*
X17229422Y-63743578D01*
X17006422Y-63520578D01*
X16831212Y-63258358D01*
X16710525Y-62966995D01*
X16649000Y-62657685D01*
X16649000Y-62342315D01*
X16710525Y-62033005D01*
X16831212Y-61741642D01*
X17006422Y-61479422D01*
X17229422Y-61256422D01*
X17491642Y-61081212D01*
X17783005Y-60960525D01*
X18053783Y-60906665D01*
X18092314Y-60899000D01*
X18407686Y-60899000D01*
X18446217Y-60906665D01*
G37*
G36*
X84446217Y-60906665D02*
G01*
X84716995Y-60960525D01*
X85008358Y-61081212D01*
X85270578Y-61256422D01*
X85493578Y-61479422D01*
X85668788Y-61741642D01*
X85789475Y-62033005D01*
X85851000Y-62342315D01*
X85851000Y-62657685D01*
X85789475Y-62966995D01*
X85668788Y-63258358D01*
X85493578Y-63520578D01*
X85270578Y-63743578D01*
X85008358Y-63918788D01*
X84716995Y-64039475D01*
X84446217Y-64093335D01*
X84407686Y-64101000D01*
X84092314Y-64101000D01*
X84053783Y-64093335D01*
X83783005Y-64039475D01*
X83491642Y-63918788D01*
X83229422Y-63743578D01*
X83006422Y-63520578D01*
X82831212Y-63258358D01*
X82710525Y-62966995D01*
X82649000Y-62657685D01*
X82649000Y-62342315D01*
X82710525Y-62033005D01*
X82831212Y-61741642D01*
X83006422Y-61479422D01*
X83229422Y-61256422D01*
X83491642Y-61081212D01*
X83783005Y-60960525D01*
X84053783Y-60906665D01*
X84092314Y-60899000D01*
X84407686Y-60899000D01*
X84446217Y-60906665D01*
G37*
G36*
X62446217Y-60906665D02*
G01*
X62716995Y-60960525D01*
X63008358Y-61081212D01*
X63270578Y-61256422D01*
X63493578Y-61479422D01*
X63668788Y-61741642D01*
X63789475Y-62033005D01*
X63851000Y-62342315D01*
X63851000Y-62657685D01*
X63789475Y-62966995D01*
X63668788Y-63258358D01*
X63493578Y-63520578D01*
X63270578Y-63743578D01*
X63008358Y-63918788D01*
X62716995Y-64039475D01*
X62446217Y-64093335D01*
X62407686Y-64101000D01*
X62092314Y-64101000D01*
X62053783Y-64093335D01*
X61783005Y-64039475D01*
X61491642Y-63918788D01*
X61229422Y-63743578D01*
X61006422Y-63520578D01*
X60831212Y-63258358D01*
X60710525Y-62966995D01*
X60649000Y-62657685D01*
X60649000Y-62342315D01*
X60710525Y-62033005D01*
X60831212Y-61741642D01*
X61006422Y-61479422D01*
X61229422Y-61256422D01*
X61491642Y-61081212D01*
X61783005Y-60960525D01*
X62053783Y-60906665D01*
X62092314Y-60899000D01*
X62407686Y-60899000D01*
X62446217Y-60906665D01*
G37*
G36*
X97354975Y-45958585D02*
G01*
X97654528Y-46018170D01*
X98218874Y-46251930D01*
X98726772Y-46591296D01*
X99158704Y-47023228D01*
X99498070Y-47531126D01*
X99731830Y-48095472D01*
X99851000Y-48694578D01*
X99851000Y-49305422D01*
X99731830Y-49904528D01*
X99498070Y-50468874D01*
X99158704Y-50976772D01*
X98726772Y-51408704D01*
X98218874Y-51748070D01*
X97654528Y-51981830D01*
X97354975Y-52041415D01*
X97055423Y-52101000D01*
X96444577Y-52101000D01*
X96145025Y-52041415D01*
X95845472Y-51981830D01*
X95281126Y-51748070D01*
X94773228Y-51408704D01*
X94341296Y-50976772D01*
X94001930Y-50468874D01*
X93768170Y-49904528D01*
X93649000Y-49305422D01*
X93649000Y-48694578D01*
X93768170Y-48095472D01*
X94001930Y-47531126D01*
X94341296Y-47023228D01*
X94773228Y-46591296D01*
X95281126Y-46251930D01*
X95845472Y-46018170D01*
X96145025Y-45958585D01*
X96444577Y-45899000D01*
X97055423Y-45899000D01*
X97354975Y-45958585D01*
G37*
G36*
X115354975Y-45958585D02*
G01*
X115654528Y-46018170D01*
X116218874Y-46251930D01*
X116726772Y-46591296D01*
X117158704Y-47023228D01*
X117498070Y-47531126D01*
X117731830Y-48095472D01*
X117851000Y-48694578D01*
X117851000Y-49305422D01*
X117731830Y-49904528D01*
X117498070Y-50468874D01*
X117158704Y-50976772D01*
X116726772Y-51408704D01*
X116218874Y-51748070D01*
X115654528Y-51981830D01*
X115354975Y-52041415D01*
X115055423Y-52101000D01*
X114444577Y-52101000D01*
X114145025Y-52041415D01*
X113845472Y-51981830D01*
X113281126Y-51748070D01*
X112773228Y-51408704D01*
X112341296Y-50976772D01*
X112001930Y-50468874D01*
X111768170Y-49904528D01*
X111649000Y-49305422D01*
X111649000Y-48694578D01*
X111768170Y-48095472D01*
X112001930Y-47531126D01*
X112341296Y-47023228D01*
X112773228Y-46591296D01*
X113281126Y-46251930D01*
X113845472Y-46018170D01*
X114145025Y-45958585D01*
X114444577Y-45899000D01*
X115055423Y-45899000D01*
X115354975Y-45958585D01*
G37*
G36*
X18446217Y-38906665D02*
G01*
X18716995Y-38960525D01*
X19008358Y-39081212D01*
X19270578Y-39256422D01*
X19493578Y-39479422D01*
X19668788Y-39741642D01*
X19789475Y-40033005D01*
X19851000Y-40342315D01*
X19851000Y-40657685D01*
X19789475Y-40966995D01*
X19668788Y-41258358D01*
X19493578Y-41520578D01*
X19270578Y-41743578D01*
X19008358Y-41918788D01*
X18716995Y-42039475D01*
X18446217Y-42093335D01*
X18407686Y-42101000D01*
X18092314Y-42101000D01*
X18053783Y-42093335D01*
X17783005Y-42039475D01*
X17491642Y-41918788D01*
X17229422Y-41743578D01*
X17006422Y-41520578D01*
X16831212Y-41258358D01*
X16710525Y-40966995D01*
X16649000Y-40657685D01*
X16649000Y-40342315D01*
X16710525Y-40033005D01*
X16831212Y-39741642D01*
X17006422Y-39479422D01*
X17229422Y-39256422D01*
X17491642Y-39081212D01*
X17783005Y-38960525D01*
X18053783Y-38906665D01*
X18092314Y-38899000D01*
X18407686Y-38899000D01*
X18446217Y-38906665D01*
G37*
G36*
X40446217Y-38906665D02*
G01*
X40716995Y-38960525D01*
X41008358Y-39081212D01*
X41270578Y-39256422D01*
X41493578Y-39479422D01*
X41668788Y-39741642D01*
X41789475Y-40033005D01*
X41851000Y-40342315D01*
X41851000Y-40657685D01*
X41789475Y-40966995D01*
X41668788Y-41258358D01*
X41493578Y-41520578D01*
X41270578Y-41743578D01*
X41008358Y-41918788D01*
X40716995Y-42039475D01*
X40446217Y-42093335D01*
X40407686Y-42101000D01*
X40092314Y-42101000D01*
X40053783Y-42093335D01*
X39783005Y-42039475D01*
X39491642Y-41918788D01*
X39229422Y-41743578D01*
X39006422Y-41520578D01*
X38831212Y-41258358D01*
X38710525Y-40966995D01*
X38649000Y-40657685D01*
X38649000Y-40342315D01*
X38710525Y-40033005D01*
X38831212Y-39741642D01*
X39006422Y-39479422D01*
X39229422Y-39256422D01*
X39491642Y-39081212D01*
X39783005Y-38960525D01*
X40053783Y-38906665D01*
X40092314Y-38899000D01*
X40407686Y-38899000D01*
X40446217Y-38906665D01*
G37*
G36*
X84446217Y-38906665D02*
G01*
X84716995Y-38960525D01*
X85008358Y-39081212D01*
X85270578Y-39256422D01*
X85493578Y-39479422D01*
X85668788Y-39741642D01*
X85789475Y-40033005D01*
X85851000Y-40342315D01*
X85851000Y-40657685D01*
X85789475Y-40966995D01*
X85668788Y-41258358D01*
X85493578Y-41520578D01*
X85270578Y-41743578D01*
X85008358Y-41918788D01*
X84716995Y-42039475D01*
X84446217Y-42093335D01*
X84407686Y-42101000D01*
X84092314Y-42101000D01*
X84053783Y-42093335D01*
X83783005Y-42039475D01*
X83491642Y-41918788D01*
X83229422Y-41743578D01*
X83006422Y-41520578D01*
X82831212Y-41258358D01*
X82710525Y-40966995D01*
X82649000Y-40657685D01*
X82649000Y-40342315D01*
X82710525Y-40033005D01*
X82831212Y-39741642D01*
X83006422Y-39479422D01*
X83229422Y-39256422D01*
X83491642Y-39081212D01*
X83783005Y-38960525D01*
X84053783Y-38906665D01*
X84092314Y-38899000D01*
X84407686Y-38899000D01*
X84446217Y-38906665D01*
G37*
G36*
X62446217Y-38906665D02*
G01*
X62716995Y-38960525D01*
X63008358Y-39081212D01*
X63270578Y-39256422D01*
X63493578Y-39479422D01*
X63668788Y-39741642D01*
X63789475Y-40033005D01*
X63851000Y-40342315D01*
X63851000Y-40657685D01*
X63789475Y-40966995D01*
X63668788Y-41258358D01*
X63493578Y-41520578D01*
X63270578Y-41743578D01*
X63008358Y-41918788D01*
X62716995Y-42039475D01*
X62446217Y-42093335D01*
X62407686Y-42101000D01*
X62092314Y-42101000D01*
X62053783Y-42093335D01*
X61783005Y-42039475D01*
X61491642Y-41918788D01*
X61229422Y-41743578D01*
X61006422Y-41520578D01*
X60831212Y-41258358D01*
X60710525Y-40966995D01*
X60649000Y-40657685D01*
X60649000Y-40342315D01*
X60710525Y-40033005D01*
X60831212Y-39741642D01*
X61006422Y-39479422D01*
X61229422Y-39256422D01*
X61491642Y-39081212D01*
X61783005Y-38960525D01*
X62053783Y-38906665D01*
X62092314Y-38899000D01*
X62407686Y-38899000D01*
X62446217Y-38906665D01*
G37*
G36*
X115354975Y-33958585D02*
G01*
X115654528Y-34018170D01*
X116218874Y-34251930D01*
X116726772Y-34591296D01*
X117158704Y-35023228D01*
X117498070Y-35531126D01*
X117731830Y-36095472D01*
X117851000Y-36694578D01*
X117851000Y-37305422D01*
X117731830Y-37904528D01*
X117498070Y-38468874D01*
X117158704Y-38976772D01*
X116726772Y-39408704D01*
X116218874Y-39748070D01*
X115654528Y-39981830D01*
X115397255Y-40033005D01*
X115055423Y-40101000D01*
X114444577Y-40101000D01*
X114102745Y-40033005D01*
X113845472Y-39981830D01*
X113281126Y-39748070D01*
X112773228Y-39408704D01*
X112341296Y-38976772D01*
X112001930Y-38468874D01*
X111768170Y-37904528D01*
X111649000Y-37305422D01*
X111649000Y-36694578D01*
X111768170Y-36095472D01*
X112001930Y-35531126D01*
X112341296Y-35023228D01*
X112773228Y-34591296D01*
X113281126Y-34251930D01*
X113845472Y-34018170D01*
X114145025Y-33958585D01*
X114444577Y-33899000D01*
X115055423Y-33899000D01*
X115354975Y-33958585D01*
G37*
G36*
X97354975Y-33958585D02*
G01*
X97654528Y-34018170D01*
X98218874Y-34251930D01*
X98726772Y-34591296D01*
X99158704Y-35023228D01*
X99498070Y-35531126D01*
X99731830Y-36095472D01*
X99851000Y-36694578D01*
X99851000Y-37305422D01*
X99731830Y-37904528D01*
X99498070Y-38468874D01*
X99158704Y-38976772D01*
X98726772Y-39408704D01*
X98218874Y-39748070D01*
X97654528Y-39981830D01*
X97397255Y-40033005D01*
X97055423Y-40101000D01*
X96444577Y-40101000D01*
X96102745Y-40033005D01*
X95845472Y-39981830D01*
X95281126Y-39748070D01*
X94773228Y-39408704D01*
X94341296Y-38976772D01*
X94001930Y-38468874D01*
X93768170Y-37904528D01*
X93649000Y-37305422D01*
X93649000Y-36694578D01*
X93768170Y-36095472D01*
X94001930Y-35531126D01*
X94341296Y-35023228D01*
X94773228Y-34591296D01*
X95281126Y-34251930D01*
X95845472Y-34018170D01*
X96145025Y-33958585D01*
X96444577Y-33899000D01*
X97055423Y-33899000D01*
X97354975Y-33958585D01*
G37*
G36*
X133854975Y-29958585D02*
G01*
X134154528Y-30018170D01*
X134718874Y-30251930D01*
X135226772Y-30591296D01*
X135658704Y-31023228D01*
X135998070Y-31531126D01*
X136231830Y-32095472D01*
X136351000Y-32694578D01*
X136351000Y-33305422D01*
X136231830Y-33904528D01*
X135998070Y-34468874D01*
X135658704Y-34976772D01*
X135226772Y-35408704D01*
X134718874Y-35748070D01*
X134154528Y-35981830D01*
X133854975Y-36041415D01*
X133555423Y-36101000D01*
X132944577Y-36101000D01*
X132645025Y-36041415D01*
X132345472Y-35981830D01*
X131781126Y-35748070D01*
X131273228Y-35408704D01*
X130841296Y-34976772D01*
X130501930Y-34468874D01*
X130268170Y-33904528D01*
X130149000Y-33305422D01*
X130149000Y-32694578D01*
X130268170Y-32095472D01*
X130501930Y-31531126D01*
X130841296Y-31023228D01*
X131273228Y-30591296D01*
X131781126Y-30251930D01*
X132345472Y-30018170D01*
X132645025Y-29958585D01*
X132944577Y-29899000D01*
X133555423Y-29899000D01*
X133854975Y-29958585D01*
G37*
G36*
X115354975Y-21958585D02*
G01*
X115654528Y-22018170D01*
X116218874Y-22251930D01*
X116726772Y-22591296D01*
X117158704Y-23023228D01*
X117498070Y-23531126D01*
X117731830Y-24095472D01*
X117851000Y-24694578D01*
X117851000Y-25305422D01*
X117731830Y-25904528D01*
X117498070Y-26468874D01*
X117158704Y-26976772D01*
X116726772Y-27408704D01*
X116218874Y-27748070D01*
X115654528Y-27981830D01*
X115354975Y-28041415D01*
X115055423Y-28101000D01*
X114444577Y-28101000D01*
X114145025Y-28041415D01*
X113845472Y-27981830D01*
X113281126Y-27748070D01*
X112773228Y-27408704D01*
X112341296Y-26976772D01*
X112001930Y-26468874D01*
X111768170Y-25904528D01*
X111649000Y-25305422D01*
X111649000Y-24694578D01*
X111768170Y-24095472D01*
X112001930Y-23531126D01*
X112341296Y-23023228D01*
X112773228Y-22591296D01*
X113281126Y-22251930D01*
X113845472Y-22018170D01*
X114145025Y-21958585D01*
X114444577Y-21899000D01*
X115055423Y-21899000D01*
X115354975Y-21958585D01*
G37*
G36*
X97354975Y-21958585D02*
G01*
X97654528Y-22018170D01*
X98218874Y-22251930D01*
X98726772Y-22591296D01*
X99158704Y-23023228D01*
X99498070Y-23531126D01*
X99731830Y-24095472D01*
X99851000Y-24694578D01*
X99851000Y-25305422D01*
X99731830Y-25904528D01*
X99498070Y-26468874D01*
X99158704Y-26976772D01*
X98726772Y-27408704D01*
X98218874Y-27748070D01*
X97654528Y-27981830D01*
X97354975Y-28041415D01*
X97055423Y-28101000D01*
X96444577Y-28101000D01*
X96145025Y-28041415D01*
X95845472Y-27981830D01*
X95281126Y-27748070D01*
X94773228Y-27408704D01*
X94341296Y-26976772D01*
X94001930Y-26468874D01*
X93768170Y-25904528D01*
X93649000Y-25305422D01*
X93649000Y-24694578D01*
X93768170Y-24095472D01*
X94001930Y-23531126D01*
X94341296Y-23023228D01*
X94773228Y-22591296D01*
X95281126Y-22251930D01*
X95845472Y-22018170D01*
X96145025Y-21958585D01*
X96444577Y-21899000D01*
X97055423Y-21899000D01*
X97354975Y-21958585D01*
G37*
G36*
X18446217Y-16906665D02*
G01*
X18716995Y-16960525D01*
X19008358Y-17081212D01*
X19270578Y-17256422D01*
X19493578Y-17479422D01*
X19668788Y-17741642D01*
X19789475Y-18033005D01*
X19851000Y-18342315D01*
X19851000Y-18657685D01*
X19789475Y-18966995D01*
X19668788Y-19258358D01*
X19493578Y-19520578D01*
X19270578Y-19743578D01*
X19008358Y-19918788D01*
X18716995Y-20039475D01*
X18446217Y-20093335D01*
X18407686Y-20101000D01*
X18092314Y-20101000D01*
X18053783Y-20093335D01*
X17783005Y-20039475D01*
X17491642Y-19918788D01*
X17229422Y-19743578D01*
X17006422Y-19520578D01*
X16831212Y-19258358D01*
X16710525Y-18966995D01*
X16649000Y-18657685D01*
X16649000Y-18342315D01*
X16710525Y-18033005D01*
X16831212Y-17741642D01*
X17006422Y-17479422D01*
X17229422Y-17256422D01*
X17491642Y-17081212D01*
X17783005Y-16960525D01*
X18053783Y-16906665D01*
X18092314Y-16899000D01*
X18407686Y-16899000D01*
X18446217Y-16906665D01*
G37*
G36*
X40446217Y-16906665D02*
G01*
X40716995Y-16960525D01*
X41008358Y-17081212D01*
X41270578Y-17256422D01*
X41493578Y-17479422D01*
X41668788Y-17741642D01*
X41789475Y-18033005D01*
X41851000Y-18342315D01*
X41851000Y-18657685D01*
X41789475Y-18966995D01*
X41668788Y-19258358D01*
X41493578Y-19520578D01*
X41270578Y-19743578D01*
X41008358Y-19918788D01*
X40716995Y-20039475D01*
X40446217Y-20093335D01*
X40407686Y-20101000D01*
X40092314Y-20101000D01*
X40053783Y-20093335D01*
X39783005Y-20039475D01*
X39491642Y-19918788D01*
X39229422Y-19743578D01*
X39006422Y-19520578D01*
X38831212Y-19258358D01*
X38710525Y-18966995D01*
X38649000Y-18657685D01*
X38649000Y-18342315D01*
X38710525Y-18033005D01*
X38831212Y-17741642D01*
X39006422Y-17479422D01*
X39229422Y-17256422D01*
X39491642Y-17081212D01*
X39783005Y-16960525D01*
X40053783Y-16906665D01*
X40092314Y-16899000D01*
X40407686Y-16899000D01*
X40446217Y-16906665D01*
G37*
G36*
X62446217Y-16906665D02*
G01*
X62716995Y-16960525D01*
X63008358Y-17081212D01*
X63270578Y-17256422D01*
X63493578Y-17479422D01*
X63668788Y-17741642D01*
X63789475Y-18033005D01*
X63851000Y-18342315D01*
X63851000Y-18657685D01*
X63789475Y-18966995D01*
X63668788Y-19258358D01*
X63493578Y-19520578D01*
X63270578Y-19743578D01*
X63008358Y-19918788D01*
X62716995Y-20039475D01*
X62446217Y-20093335D01*
X62407686Y-20101000D01*
X62092314Y-20101000D01*
X62053783Y-20093335D01*
X61783005Y-20039475D01*
X61491642Y-19918788D01*
X61229422Y-19743578D01*
X61006422Y-19520578D01*
X60831212Y-19258358D01*
X60710525Y-18966995D01*
X60649000Y-18657685D01*
X60649000Y-18342315D01*
X60710525Y-18033005D01*
X60831212Y-17741642D01*
X61006422Y-17479422D01*
X61229422Y-17256422D01*
X61491642Y-17081212D01*
X61783005Y-16960525D01*
X62053783Y-16906665D01*
X62092314Y-16899000D01*
X62407686Y-16899000D01*
X62446217Y-16906665D01*
G37*
G36*
X84446217Y-16906665D02*
G01*
X84716995Y-16960525D01*
X85008358Y-17081212D01*
X85270578Y-17256422D01*
X85493578Y-17479422D01*
X85668788Y-17741642D01*
X85789475Y-18033005D01*
X85851000Y-18342315D01*
X85851000Y-18657685D01*
X85789475Y-18966995D01*
X85668788Y-19258358D01*
X85493578Y-19520578D01*
X85270578Y-19743578D01*
X85008358Y-19918788D01*
X84716995Y-20039475D01*
X84446217Y-20093335D01*
X84407686Y-20101000D01*
X84092314Y-20101000D01*
X84053783Y-20093335D01*
X83783005Y-20039475D01*
X83491642Y-19918788D01*
X83229422Y-19743578D01*
X83006422Y-19520578D01*
X82831212Y-19258358D01*
X82710525Y-18966995D01*
X82649000Y-18657685D01*
X82649000Y-18342315D01*
X82710525Y-18033005D01*
X82831212Y-17741642D01*
X83006422Y-17479422D01*
X83229422Y-17256422D01*
X83491642Y-17081212D01*
X83783005Y-16960525D01*
X84053783Y-16906665D01*
X84092314Y-16899000D01*
X84407686Y-16899000D01*
X84446217Y-16906665D01*
G37*
M02*
