M48
; DRILL file {KiCad (5.1.5-0)} date Wednesday, January 20, 2021 at 05:00:26 PM
; FORMAT={2:4/ absolute / inch / keep zeros}
; #@! TF.CreationDate,2021-01-20T17:00:26-08:00
; #@! TF.GenerationSoftware,Kicad,Pcbnew,(5.1.5-0)
FMAT,2
INCH
T1C0.1181
T2C0.2362
%
G90
G05
T1
X015846Y-033268
X007185Y-033268
X007185Y-024606
X033169Y-033268
X024508Y-033268
X024508Y-024606
X007185Y-015945
X024508Y-007283
X015846Y-024606
X033169Y-024606
X033169Y-007283
X015846Y-015945
X033169Y-015945
X024508Y-015945
X007185Y-007283
X015846Y-007283
T2
X011516Y-044193
X045177Y-038189
X028839Y-040256
X038091Y-038189
X052461Y-024803
X038091Y-009843
X045177Y-019291
X045177Y-028740
X002854Y-044193
X011516Y-040256
X038091Y-033465
X052461Y-038189
X038091Y-014567
X045177Y-014567
X045177Y-042913
X028839Y-044193
X020177Y-040256
X038091Y-042913
X052461Y-033465
X038091Y-019291
X045177Y-024016
X045177Y-009843
X020177Y-044193
X002854Y-040256
X045177Y-033465
X038091Y-028740
X052461Y-042913
X038091Y-024016
X052461Y-012992
T0
M30
