G04 #@! TF.GenerationSoftware,KiCad,Pcbnew,(5.1.5-0)*
G04 #@! TF.CreationDate,2021-01-08T11:57:48-08:00*
G04 #@! TF.ProjectId,divideandconquer,64697669-6465-4616-9e64-636f6e717565,rev?*
G04 #@! TF.SameCoordinates,Original*
G04 #@! TF.FileFunction,Legend,Top*
G04 #@! TF.FilePolarity,Positive*
%FSLAX46Y46*%
G04 Gerber Fmt 4.6, Leading zero omitted, Abs format (unit mm)*
G04 Created by KiCad (PCBNEW (5.1.5-0)) date 2021-01-08 11:57:48*
%MOMM*%
%LPD*%
G04 APERTURE LIST*
%ADD10C,0.200000*%
%ADD11C,0.300000*%
G04 APERTURE END LIST*
D10*
X3183333Y-137654761D02*
X4421428Y-137654761D01*
X3754761Y-138416666D01*
X4040476Y-138416666D01*
X4230952Y-138511904D01*
X4326190Y-138607142D01*
X4421428Y-138797619D01*
X4421428Y-139273809D01*
X4326190Y-139464285D01*
X4230952Y-139559523D01*
X4040476Y-139654761D01*
X3469047Y-139654761D01*
X3278571Y-139559523D01*
X3183333Y-139464285D01*
X1433333Y-125654761D02*
X2671428Y-125654761D01*
X2004761Y-126416666D01*
X2290476Y-126416666D01*
X2480952Y-126511904D01*
X2576190Y-126607142D01*
X2671428Y-126797619D01*
X2671428Y-127273809D01*
X2576190Y-127464285D01*
X2480952Y-127559523D01*
X2290476Y-127654761D01*
X1719047Y-127654761D01*
X1528571Y-127559523D01*
X1433333Y-127464285D01*
X4957142Y-125559523D02*
X3242857Y-128130952D01*
X5528571Y-125845238D02*
X5623809Y-125750000D01*
X5814285Y-125654761D01*
X6290476Y-125654761D01*
X6480952Y-125750000D01*
X6576190Y-125845238D01*
X6671428Y-126035714D01*
X6671428Y-126226190D01*
X6576190Y-126511904D01*
X5433333Y-127654761D01*
X6671428Y-127654761D01*
X35302380Y-115654761D02*
X35302380Y-113654761D01*
X36254761Y-115654761D02*
X36254761Y-113654761D01*
X37397619Y-115654761D01*
X37397619Y-113654761D01*
X35528571Y-125845238D02*
X35623809Y-125750000D01*
X35814285Y-125654761D01*
X36290476Y-125654761D01*
X36480952Y-125750000D01*
X36576190Y-125845238D01*
X36671428Y-126035714D01*
X36671428Y-126226190D01*
X36576190Y-126511904D01*
X35433333Y-127654761D01*
X36671428Y-127654761D01*
X36480952Y-138071428D02*
X36480952Y-139404761D01*
X36004761Y-137309523D02*
X35528571Y-138738095D01*
X36766666Y-138738095D01*
X35909523Y-150511904D02*
X35719047Y-150416666D01*
X35623809Y-150321428D01*
X35528571Y-150130952D01*
X35528571Y-150035714D01*
X35623809Y-149845238D01*
X35719047Y-149750000D01*
X35909523Y-149654761D01*
X36290476Y-149654761D01*
X36480952Y-149750000D01*
X36576190Y-149845238D01*
X36671428Y-150035714D01*
X36671428Y-150130952D01*
X36576190Y-150321428D01*
X36480952Y-150416666D01*
X36290476Y-150511904D01*
X35909523Y-150511904D01*
X35719047Y-150607142D01*
X35623809Y-150702380D01*
X35528571Y-150892857D01*
X35528571Y-151273809D01*
X35623809Y-151464285D01*
X35719047Y-151559523D01*
X35909523Y-151654761D01*
X36290476Y-151654761D01*
X36480952Y-151559523D01*
X36576190Y-151464285D01*
X36671428Y-151273809D01*
X36671428Y-150892857D01*
X36576190Y-150702380D01*
X36480952Y-150607142D01*
X36290476Y-150511904D01*
X35969047Y-163404761D02*
X34826190Y-163404761D01*
X35397619Y-163404761D02*
X35397619Y-161404761D01*
X35207142Y-161690476D01*
X35016666Y-161880952D01*
X34826190Y-161976190D01*
X37683333Y-161404761D02*
X37302380Y-161404761D01*
X37111904Y-161500000D01*
X37016666Y-161595238D01*
X36826190Y-161880952D01*
X36730952Y-162261904D01*
X36730952Y-163023809D01*
X36826190Y-163214285D01*
X36921428Y-163309523D01*
X37111904Y-163404761D01*
X37492857Y-163404761D01*
X37683333Y-163309523D01*
X37778571Y-163214285D01*
X37873809Y-163023809D01*
X37873809Y-162547619D01*
X37778571Y-162357142D01*
X37683333Y-162261904D01*
X37492857Y-162166666D01*
X37111904Y-162166666D01*
X36921428Y-162261904D01*
X36826190Y-162357142D01*
X36730952Y-162547619D01*
X34730952Y-173404761D02*
X35969047Y-173404761D01*
X35302380Y-174166666D01*
X35588095Y-174166666D01*
X35778571Y-174261904D01*
X35873809Y-174357142D01*
X35969047Y-174547619D01*
X35969047Y-175023809D01*
X35873809Y-175214285D01*
X35778571Y-175309523D01*
X35588095Y-175404761D01*
X35016666Y-175404761D01*
X34826190Y-175309523D01*
X34730952Y-175214285D01*
X36730952Y-173595238D02*
X36826190Y-173500000D01*
X37016666Y-173404761D01*
X37492857Y-173404761D01*
X37683333Y-173500000D01*
X37778571Y-173595238D01*
X37873809Y-173785714D01*
X37873809Y-173976190D01*
X37778571Y-174261904D01*
X36635714Y-175404761D01*
X37873809Y-175404761D01*
X34766666Y-199404761D02*
X33623809Y-199404761D01*
X34195238Y-199404761D02*
X34195238Y-197404761D01*
X34004761Y-197690476D01*
X33814285Y-197880952D01*
X33623809Y-197976190D01*
X35528571Y-197595238D02*
X35623809Y-197500000D01*
X35814285Y-197404761D01*
X36290476Y-197404761D01*
X36480952Y-197500000D01*
X36576190Y-197595238D01*
X36671428Y-197785714D01*
X36671428Y-197976190D01*
X36576190Y-198261904D01*
X35433333Y-199404761D01*
X36671428Y-199404761D01*
X37814285Y-198261904D02*
X37623809Y-198166666D01*
X37528571Y-198071428D01*
X37433333Y-197880952D01*
X37433333Y-197785714D01*
X37528571Y-197595238D01*
X37623809Y-197500000D01*
X37814285Y-197404761D01*
X38195238Y-197404761D01*
X38385714Y-197500000D01*
X38480952Y-197595238D01*
X38576190Y-197785714D01*
X38576190Y-197880952D01*
X38480952Y-198071428D01*
X38385714Y-198166666D01*
X38195238Y-198261904D01*
X37814285Y-198261904D01*
X37623809Y-198357142D01*
X37528571Y-198452380D01*
X37433333Y-198642857D01*
X37433333Y-199023809D01*
X37528571Y-199214285D01*
X37623809Y-199309523D01*
X37814285Y-199404761D01*
X38195238Y-199404761D01*
X38385714Y-199309523D01*
X38480952Y-199214285D01*
X38576190Y-199023809D01*
X38576190Y-198642857D01*
X38480952Y-198452380D01*
X38385714Y-198357142D01*
X38195238Y-198261904D01*
X33623809Y-209595238D02*
X33719047Y-209500000D01*
X33909523Y-209404761D01*
X34385714Y-209404761D01*
X34576190Y-209500000D01*
X34671428Y-209595238D01*
X34766666Y-209785714D01*
X34766666Y-209976190D01*
X34671428Y-210261904D01*
X33528571Y-211404761D01*
X34766666Y-211404761D01*
X36576190Y-209404761D02*
X35623809Y-209404761D01*
X35528571Y-210357142D01*
X35623809Y-210261904D01*
X35814285Y-210166666D01*
X36290476Y-210166666D01*
X36480952Y-210261904D01*
X36576190Y-210357142D01*
X36671428Y-210547619D01*
X36671428Y-211023809D01*
X36576190Y-211214285D01*
X36480952Y-211309523D01*
X36290476Y-211404761D01*
X35814285Y-211404761D01*
X35623809Y-211309523D01*
X35528571Y-211214285D01*
X38385714Y-209404761D02*
X38004761Y-209404761D01*
X37814285Y-209500000D01*
X37719047Y-209595238D01*
X37528571Y-209880952D01*
X37433333Y-210261904D01*
X37433333Y-211023809D01*
X37528571Y-211214285D01*
X37623809Y-211309523D01*
X37814285Y-211404761D01*
X38195238Y-211404761D01*
X38385714Y-211309523D01*
X38480952Y-211214285D01*
X38576190Y-211023809D01*
X38576190Y-210547619D01*
X38480952Y-210357142D01*
X38385714Y-210261904D01*
X38195238Y-210166666D01*
X37814285Y-210166666D01*
X37623809Y-210261904D01*
X37528571Y-210357142D01*
X37433333Y-210547619D01*
X2933333Y-209404761D02*
X4266666Y-209404761D01*
X3409523Y-211404761D01*
X1183333Y-197404761D02*
X2516666Y-197404761D01*
X1659523Y-199404761D01*
X4707142Y-197309523D02*
X2992857Y-199880952D01*
X5278571Y-197595238D02*
X5373809Y-197500000D01*
X5564285Y-197404761D01*
X6040476Y-197404761D01*
X6230952Y-197500000D01*
X6326190Y-197595238D01*
X6421428Y-197785714D01*
X6421428Y-197976190D01*
X6326190Y-198261904D01*
X5183333Y-199404761D01*
X6421428Y-199404761D01*
X2326190Y-161654761D02*
X1373809Y-161654761D01*
X1278571Y-162607142D01*
X1373809Y-162511904D01*
X1564285Y-162416666D01*
X2040476Y-162416666D01*
X2230952Y-162511904D01*
X2326190Y-162607142D01*
X2421428Y-162797619D01*
X2421428Y-163273809D01*
X2326190Y-163464285D01*
X2230952Y-163559523D01*
X2040476Y-163654761D01*
X1564285Y-163654761D01*
X1373809Y-163559523D01*
X1278571Y-163464285D01*
X4707142Y-161559523D02*
X2992857Y-164130952D01*
X5278571Y-161845238D02*
X5373809Y-161750000D01*
X5564285Y-161654761D01*
X6040476Y-161654761D01*
X6230952Y-161750000D01*
X6326190Y-161845238D01*
X6421428Y-162035714D01*
X6421428Y-162226190D01*
X6326190Y-162511904D01*
X5183333Y-163654761D01*
X6421428Y-163654761D01*
X4076190Y-173654761D02*
X3123809Y-173654761D01*
X3028571Y-174607142D01*
X3123809Y-174511904D01*
X3314285Y-174416666D01*
X3790476Y-174416666D01*
X3980952Y-174511904D01*
X4076190Y-174607142D01*
X4171428Y-174797619D01*
X4171428Y-175273809D01*
X4076190Y-175464285D01*
X3980952Y-175559523D01*
X3790476Y-175654761D01*
X3314285Y-175654761D01*
X3123809Y-175559523D01*
X3028571Y-175464285D01*
X3052380Y-187654761D02*
X3052380Y-185654761D01*
X4004761Y-187654761D02*
X4004761Y-185654761D01*
X5147619Y-187654761D01*
X5147619Y-185654761D01*
X3052380Y-151654761D02*
X3052380Y-149654761D01*
X4004761Y-151654761D02*
X4004761Y-149654761D01*
X5147619Y-151654761D01*
X5147619Y-149654761D01*
X3052380Y-115654761D02*
X3052380Y-113654761D01*
X4004761Y-115654761D02*
X4004761Y-113654761D01*
X5147619Y-115654761D01*
X5147619Y-113654761D01*
D11*
X12702380Y-102171428D02*
X12416666Y-102171428D01*
X12226190Y-102266666D01*
X12130952Y-102361904D01*
X12035714Y-102552380D01*
X12035714Y-103123809D01*
X12130952Y-103314285D01*
X12226190Y-103409523D01*
X12416666Y-103504761D01*
X12702380Y-103504761D01*
X12892857Y-103409523D01*
X12988095Y-103314285D01*
X13083333Y-103123809D01*
X13083333Y-102552380D01*
X12988095Y-102361904D01*
X12892857Y-102266666D01*
X12702380Y-102171428D01*
X12416666Y-102076190D01*
X12226190Y-101980952D01*
X12130952Y-101790476D01*
X12226190Y-101600000D01*
X12416666Y-101504761D01*
X12797619Y-101504761D01*
X12988095Y-101600000D01*
X13940476Y-102171428D02*
X13940476Y-103219047D01*
X14035714Y-103409523D01*
X14226190Y-103504761D01*
X16130952Y-102171428D02*
X15845238Y-103123809D01*
X15750000Y-103314285D01*
X15654761Y-103409523D01*
X15464285Y-103504761D01*
X15273809Y-103504761D01*
X15083333Y-103409523D01*
X14988095Y-103314285D01*
X14892857Y-103028571D01*
X14892857Y-102647619D01*
X14988095Y-102361904D01*
X15083333Y-102266666D01*
X15273809Y-102171428D01*
X15464285Y-102171428D01*
X15654761Y-102266666D01*
X15750000Y-102361904D01*
X15845238Y-102552380D01*
X15940476Y-103219047D01*
X16035714Y-103409523D01*
X16226190Y-103504761D01*
X16988095Y-102171428D02*
X16988095Y-103219047D01*
X17083333Y-103409523D01*
X17273809Y-103504761D01*
X17178571Y-101409523D02*
X16892857Y-101695238D01*
X18035714Y-104171428D02*
X18035714Y-102552380D01*
X18130952Y-102361904D01*
X18226190Y-102266666D01*
X18416666Y-102171428D01*
X18702380Y-102171428D01*
X18892857Y-102266666D01*
X18988095Y-102361904D01*
X19083333Y-102552380D01*
X19083333Y-103123809D01*
X18988095Y-103314285D01*
X18892857Y-103409523D01*
X18702380Y-103504761D01*
X18416666Y-103504761D01*
X18226190Y-103409523D01*
X18035714Y-103219047D01*
X20130952Y-102838095D02*
X19940476Y-102933333D01*
X19845238Y-103123809D01*
X19845238Y-103219047D01*
X19940476Y-103409523D01*
X20130952Y-103504761D01*
X20511904Y-103504761D01*
X20702380Y-103409523D01*
X20321428Y-102838095D02*
X20130952Y-102838095D01*
X19940476Y-102742857D01*
X19845238Y-102552380D01*
X19845238Y-102457142D01*
X19940476Y-102266666D01*
X20130952Y-102171428D01*
X20511904Y-102171428D01*
X20702380Y-102266666D01*
X21559523Y-102171428D02*
X21559523Y-103219047D01*
X21654761Y-103409523D01*
X21845238Y-103504761D01*
X24130952Y-102171428D02*
X24130952Y-103504761D01*
X24321428Y-102742857D02*
X24892857Y-103504761D01*
X24892857Y-102171428D02*
X24130952Y-102933333D01*
X26892857Y-102171428D02*
X26607142Y-103123809D01*
X26511904Y-103314285D01*
X26416666Y-103409523D01*
X26226190Y-103504761D01*
X26035714Y-103504761D01*
X25845238Y-103409523D01*
X25750000Y-103314285D01*
X25654761Y-103028571D01*
X25654761Y-102647619D01*
X25750000Y-102361904D01*
X25845238Y-102266666D01*
X26035714Y-102171428D01*
X26226190Y-102171428D01*
X26416666Y-102266666D01*
X26511904Y-102361904D01*
X26607142Y-102552380D01*
X26702380Y-103219047D01*
X26797619Y-103409523D01*
X26988095Y-103504761D01*
X27750000Y-102171428D02*
X27750000Y-103219047D01*
X27845238Y-103409523D01*
X28035714Y-103504761D01*
X15130952Y-105661904D02*
X15321428Y-105757142D01*
X15416666Y-105852380D01*
X15511904Y-106042857D01*
X15511904Y-106423809D01*
X15416666Y-106614285D01*
X15321428Y-106709523D01*
X15130952Y-106804761D01*
X14845238Y-106804761D01*
X14654761Y-106709523D01*
X14559523Y-106614285D01*
X14369047Y-107471428D02*
X14464285Y-107376190D01*
X14559523Y-107185714D01*
X14559523Y-105090476D01*
X14654761Y-104900000D01*
X14845238Y-104804761D01*
X15130952Y-104804761D01*
X15321428Y-104900000D01*
X15416666Y-105090476D01*
X15416666Y-105376190D01*
X15321428Y-105566666D01*
X15130952Y-105661904D01*
X14940476Y-105661904D01*
X17511904Y-105471428D02*
X17226190Y-106423809D01*
X17130952Y-106614285D01*
X17035714Y-106709523D01*
X16845238Y-106804761D01*
X16654761Y-106804761D01*
X16464285Y-106709523D01*
X16369047Y-106614285D01*
X16273809Y-106328571D01*
X16273809Y-105947619D01*
X16369047Y-105661904D01*
X16464285Y-105566666D01*
X16654761Y-105471428D01*
X16845238Y-105471428D01*
X17035714Y-105566666D01*
X17130952Y-105661904D01*
X17226190Y-105852380D01*
X17321428Y-106519047D01*
X17416666Y-106709523D01*
X17607142Y-106804761D01*
X19511904Y-105471428D02*
X18654761Y-105471428D01*
X18464285Y-105566666D01*
X18369047Y-105661904D01*
X18273809Y-105852380D01*
X18273809Y-106423809D01*
X18369047Y-106614285D01*
X18464285Y-106709523D01*
X18654761Y-106804761D01*
X18940476Y-106804761D01*
X19130952Y-106709523D01*
X19226190Y-106614285D01*
X19321428Y-106423809D01*
X19321428Y-105852380D01*
X19226190Y-105661904D01*
X19130952Y-105566666D01*
X18940476Y-105471428D01*
X20273809Y-105471428D02*
X20273809Y-106519047D01*
X20369047Y-106709523D01*
X20559523Y-106804761D01*
X20464285Y-104709523D02*
X20178571Y-104995238D01*
X21607142Y-105471428D02*
X21130952Y-106804761D01*
X21130952Y-104804761D02*
X21321428Y-104804761D01*
X21416666Y-104900000D01*
X21607142Y-105471428D01*
X22083333Y-106804761D01*
X23035714Y-106138095D02*
X22845238Y-106233333D01*
X22750000Y-106423809D01*
X22750000Y-106519047D01*
X22845238Y-106709523D01*
X23035714Y-106804761D01*
X23416666Y-106804761D01*
X23607142Y-106709523D01*
X23226190Y-106138095D02*
X23035714Y-106138095D01*
X22845238Y-106042857D01*
X22750000Y-105852380D01*
X22750000Y-105757142D01*
X22845238Y-105566666D01*
X23035714Y-105471428D01*
X23416666Y-105471428D01*
X23607142Y-105566666D01*
X24464285Y-105471428D02*
X24464285Y-106519047D01*
X24559523Y-106709523D01*
X24750000Y-106804761D01*
X25035714Y-106804761D01*
X25226190Y-106709523D01*
X25321428Y-106614285D01*
X25416666Y-106423809D01*
X25416666Y-105757142D01*
X25321428Y-105566666D01*
X25226190Y-105471428D01*
X26464285Y-106138095D02*
X26273809Y-106233333D01*
X26178571Y-106423809D01*
X26178571Y-106519047D01*
X26273809Y-106709523D01*
X26464285Y-106804761D01*
X26845238Y-106804761D01*
X27035714Y-106709523D01*
X26654761Y-106138095D02*
X26464285Y-106138095D01*
X26273809Y-106042857D01*
X26178571Y-105852380D01*
X26178571Y-105757142D01*
X26273809Y-105566666D01*
X26464285Y-105471428D01*
X26845238Y-105471428D01*
X27035714Y-105566666D01*
M02*
