M48
; DRILL file {KiCad (5.1.5-0)} date Friday, January 08, 2021 at 11:57:52 AM
; FORMAT={2:4/ absolute / inch / keep zeros}
; #@! TF.CreationDate,2021-01-08T11:57:52-08:00
; #@! TF.GenerationSoftware,Kicad,Pcbnew,(5.1.5-0)
FMAT,2
INCH
T1C0.1181
T2C0.2362
%
G90
G05
T1
X007913Y-047638
X007913Y-052362
X007913Y-071161
X007913Y-080610
X007913Y-075886
X007913Y-057087
X007913Y-061713
X007913Y-066535
T2
X011063Y-045177
X011063Y-050000
X004764Y-050000
X011063Y-078248
X011063Y-082972
X004764Y-045177
X004764Y-082972
X011063Y-054724
X004764Y-078248
X004764Y-068799
X011063Y-064075
X004764Y-054724
X004764Y-073524
X004764Y-064075
X011063Y-059350
X011063Y-073524
X004764Y-059350
X011063Y-068799
T0
M30
