G04 #@! TF.GenerationSoftware,KiCad,Pcbnew,(5.1.5-0)*
G04 #@! TF.CreationDate,2021-01-11T19:02:48-08:00*
G04 #@! TF.ProjectId,divinecmos,64697669-6e65-4636-9d6f-732e6b696361,rev?*
G04 #@! TF.SameCoordinates,Original*
G04 #@! TF.FileFunction,Profile,NP*
%FSLAX46Y46*%
G04 Gerber Fmt 4.6, Leading zero omitted, Abs format (unit mm)*
G04 Created by KiCad (PCBNEW (5.1.5-0)) date 2021-01-11 19:02:48*
%MOMM*%
%LPD*%
G04 APERTURE LIST*
%ADD10C,0.050000*%
G04 APERTURE END LIST*
D10*
X13500000Y-56500000D02*
G75*
G03X13500000Y-56500000I-3750000J0D01*
G01*
X13500000Y-40750000D02*
G75*
G03X13500000Y-40750000I-3750000J0D01*
G01*
X33750000Y-40750000D02*
G75*
G03X33750000Y-40750000I-3750000J0D01*
G01*
X13500000Y-24750000D02*
G75*
G03X13500000Y-24750000I-3750000J0D01*
G01*
X33750000Y-24750000D02*
G75*
G03X33750000Y-24750000I-3750000J0D01*
G01*
X8500000Y-123900000D02*
G75*
G02X8500000Y-127100000I0J-1600000D01*
G01*
X6500000Y-123900000D02*
X8500000Y-123900000D01*
X6500000Y-127100000D02*
G75*
G02X6500000Y-123900000I0J1600000D01*
G01*
X6500000Y-127100000D02*
X8500000Y-127100000D01*
X8500000Y-1400000D02*
G75*
G02X8500000Y-4600000I0J-1600000D01*
G01*
X6500000Y-1400000D02*
X8500000Y-1400000D01*
X6500000Y-4600000D02*
G75*
G02X6500000Y-1400000I0J1600000D01*
G01*
X6500000Y-4600000D02*
X8500000Y-4600000D01*
X33800000Y-123900000D02*
G75*
G02X33800000Y-127100000I0J-1600000D01*
G01*
X31800000Y-123900000D02*
X33800000Y-123900000D01*
X31800000Y-127100000D02*
G75*
G02X31800000Y-123900000I0J1600000D01*
G01*
X31800000Y-127100000D02*
X33800000Y-127100000D01*
X31800000Y-1400000D02*
X33800000Y-1400000D01*
X31800000Y-4600000D02*
X33800000Y-4600000D01*
X31800000Y-4600000D02*
G75*
G02X31800000Y-1400000I0J1600000D01*
G01*
X33800000Y-1400000D02*
G75*
G02X33800000Y-4600000I0J-1600000D01*
G01*
X0Y-128500000D02*
X0Y0D01*
X40300000Y-128500000D02*
X0Y-128500000D01*
X40300000Y0D02*
X40300000Y-128500000D01*
X0Y0D02*
X40300000Y0D01*
M02*
