G04 #@! TF.GenerationSoftware,KiCad,Pcbnew,(5.1.5-0)*
G04 #@! TF.CreationDate,2021-01-12T22:35:17-08:00*
G04 #@! TF.ProjectId,hyperchaosdeluxe,68797065-7263-4686-916f-7364656c7578,rev?*
G04 #@! TF.SameCoordinates,Original*
G04 #@! TF.FileFunction,Copper,L1,Top*
G04 #@! TF.FilePolarity,Positive*
%FSLAX46Y46*%
G04 Gerber Fmt 4.6, Leading zero omitted, Abs format (unit mm)*
G04 Created by KiCad (PCBNEW (5.1.5-0)) date 2021-01-12 22:35:17*
%MOMM*%
%LPD*%
G04 APERTURE LIST*
%ADD10C,1.000000*%
%ADD11C,0.100000*%
%ADD12C,3.100000*%
%ADD13C,6.100000*%
G04 APERTURE END LIST*
D10*
X41000000Y-355000000D02*
X9000000Y-355000000D01*
X41000000Y-337750000D02*
X9000000Y-337750000D01*
X41000000Y-319750000D02*
X9000000Y-319750000D01*
X41000000Y-302750000D02*
X9000000Y-302750000D01*
X25000000Y-293000000D02*
X25000000Y-301750000D01*
X17000000Y-293000000D02*
X17000000Y-278750000D01*
X8125000Y-285750000D02*
X16875000Y-285750000D01*
X25000000Y-270000000D02*
X25000000Y-278750000D01*
X17000000Y-279000000D02*
X33000000Y-279000000D01*
X33000000Y-285750000D02*
X41625000Y-285750000D01*
X33000000Y-278750000D02*
X33000000Y-293000000D01*
X33000000Y-293000000D02*
X17000000Y-293000000D01*
D11*
G36*
X21846400Y-369524900D02*
G01*
X22163900Y-369766200D01*
X22729050Y-370083700D01*
X23325950Y-370515500D01*
X23700600Y-370896500D01*
X24100650Y-371461650D01*
X24697550Y-372642750D01*
X24996000Y-373207900D01*
X25008700Y-373220600D01*
X24678500Y-373246000D01*
X24576900Y-373195200D01*
X24221300Y-372947550D01*
X23814900Y-372579250D01*
X23484700Y-372230000D01*
X23129100Y-371798200D01*
X22849700Y-371379100D01*
X22659200Y-371125100D01*
X22405200Y-370667900D01*
X22151200Y-370299600D01*
X21909900Y-369880500D01*
X21630500Y-369321700D01*
X21846400Y-369524900D01*
G37*
X21846400Y-369524900D02*
X22163900Y-369766200D01*
X22729050Y-370083700D01*
X23325950Y-370515500D01*
X23700600Y-370896500D01*
X24100650Y-371461650D01*
X24697550Y-372642750D01*
X24996000Y-373207900D01*
X25008700Y-373220600D01*
X24678500Y-373246000D01*
X24576900Y-373195200D01*
X24221300Y-372947550D01*
X23814900Y-372579250D01*
X23484700Y-372230000D01*
X23129100Y-371798200D01*
X22849700Y-371379100D01*
X22659200Y-371125100D01*
X22405200Y-370667900D01*
X22151200Y-370299600D01*
X21909900Y-369880500D01*
X21630500Y-369321700D01*
X21846400Y-369524900D01*
G36*
X23252925Y-372703075D02*
G01*
X23589475Y-372798325D01*
X23853000Y-372890400D01*
X24551500Y-373296800D01*
X24581980Y-373324740D01*
X24589600Y-373309500D01*
X24589600Y-373322200D01*
X24581980Y-373324740D01*
X24500700Y-373487300D01*
X24894400Y-373627000D01*
X24684850Y-373652400D01*
X24291150Y-373677800D01*
X23814900Y-373677800D01*
X23370400Y-373614300D01*
X22887800Y-373500000D01*
X22494100Y-373385700D01*
X22087700Y-373157100D01*
X21770200Y-372928500D01*
X21363800Y-372801500D01*
X22011500Y-372750700D01*
X22544900Y-372712600D01*
X23008450Y-372706250D01*
X23252925Y-372703075D01*
G37*
X23252925Y-372703075D02*
X23589475Y-372798325D01*
X23853000Y-372890400D01*
X24551500Y-373296800D01*
X24581980Y-373324740D01*
X24589600Y-373309500D01*
X24589600Y-373322200D01*
X24581980Y-373324740D01*
X24500700Y-373487300D01*
X24894400Y-373627000D01*
X24684850Y-373652400D01*
X24291150Y-373677800D01*
X23814900Y-373677800D01*
X23370400Y-373614300D01*
X22887800Y-373500000D01*
X22494100Y-373385700D01*
X22087700Y-373157100D01*
X21770200Y-372928500D01*
X21363800Y-372801500D01*
X22011500Y-372750700D01*
X22544900Y-372712600D01*
X23008450Y-372706250D01*
X23252925Y-372703075D01*
G36*
X25116650Y-373766700D02*
G01*
X24748350Y-374198500D01*
X24310200Y-374471550D01*
X23929200Y-374611250D01*
X23179900Y-374776350D01*
X23662500Y-374249300D01*
X24056200Y-373982600D01*
X24424500Y-373779400D01*
X24894400Y-373703200D01*
X24919800Y-373703200D01*
X25116650Y-373766700D01*
G37*
X25116650Y-373766700D02*
X24748350Y-374198500D01*
X24310200Y-374471550D01*
X23929200Y-374611250D01*
X23179900Y-374776350D01*
X23662500Y-374249300D01*
X24056200Y-373982600D01*
X24424500Y-373779400D01*
X24894400Y-373703200D01*
X24919800Y-373703200D01*
X25116650Y-373766700D01*
G36*
X25250000Y-373284100D02*
G01*
X25038862Y-373477775D01*
X25257937Y-373573025D01*
X26008825Y-374115950D01*
X25827850Y-374211200D01*
X25250000Y-373754000D01*
X25262700Y-374846200D01*
X25148400Y-374706500D01*
X25142050Y-373817500D01*
X25186500Y-373817500D01*
X24805500Y-373601600D01*
X24519750Y-373449200D01*
X24684850Y-373169800D01*
X25250000Y-373284100D01*
G37*
X25250000Y-373284100D02*
X25038862Y-373477775D01*
X25257937Y-373573025D01*
X26008825Y-374115950D01*
X25827850Y-374211200D01*
X25250000Y-373754000D01*
X25262700Y-374846200D01*
X25148400Y-374706500D01*
X25142050Y-373817500D01*
X25186500Y-373817500D01*
X24805500Y-373601600D01*
X24519750Y-373449200D01*
X24684850Y-373169800D01*
X25250000Y-373284100D01*
G36*
X25891350Y-373741300D02*
G01*
X26443800Y-374020700D01*
X26770825Y-374347725D01*
X26905763Y-374577913D01*
X27137538Y-374847788D01*
X26831150Y-374763650D01*
X26577150Y-374687450D01*
X26399350Y-374623950D01*
X26024700Y-374490600D01*
X25665925Y-374296925D01*
X25405575Y-374011175D01*
X25281750Y-373849250D01*
X25345250Y-373887350D01*
X25319850Y-373823850D01*
X25383350Y-373652400D01*
X25891350Y-373741300D01*
G37*
X25891350Y-373741300D02*
X26443800Y-374020700D01*
X26770825Y-374347725D01*
X26905763Y-374577913D01*
X27137538Y-374847788D01*
X26831150Y-374763650D01*
X26577150Y-374687450D01*
X26399350Y-374623950D01*
X26024700Y-374490600D01*
X25665925Y-374296925D01*
X25405575Y-374011175D01*
X25281750Y-373849250D01*
X25345250Y-373887350D01*
X25319850Y-373823850D01*
X25383350Y-373652400D01*
X25891350Y-373741300D01*
G36*
X28323400Y-372738000D02*
G01*
X28755200Y-372763400D01*
X29333207Y-372773943D01*
X28653600Y-372928500D01*
X28221800Y-373119000D01*
X27878900Y-373334900D01*
X27459800Y-373500000D01*
X26926400Y-373588900D01*
X26481900Y-373614300D01*
X25904050Y-373595250D01*
X25326200Y-373576200D01*
X25262700Y-373500000D01*
X25478600Y-373436500D01*
X25485585Y-373385700D01*
X25801815Y-373258700D01*
X26335850Y-373030100D01*
X26888300Y-372826900D01*
X27282000Y-372712600D01*
X27726500Y-372712600D01*
X28323400Y-372738000D01*
G37*
X28323400Y-372738000D02*
X28755200Y-372763400D01*
X29333207Y-372773943D01*
X28653600Y-372928500D01*
X28221800Y-373119000D01*
X27878900Y-373334900D01*
X27459800Y-373500000D01*
X26926400Y-373588900D01*
X26481900Y-373614300D01*
X25904050Y-373595250D01*
X25326200Y-373576200D01*
X25262700Y-373500000D01*
X25478600Y-373436500D01*
X25485585Y-373385700D01*
X25801815Y-373258700D01*
X26335850Y-373030100D01*
X26888300Y-372826900D01*
X27282000Y-372712600D01*
X27726500Y-372712600D01*
X28323400Y-372738000D01*
G36*
X28310700Y-370083700D02*
G01*
X28069400Y-370579000D01*
X27866200Y-371036200D01*
X27605850Y-371556900D01*
X27332800Y-371912500D01*
X27021650Y-372325250D01*
X26551750Y-372718950D01*
X26050100Y-373055500D01*
X24945200Y-373652400D01*
X24970600Y-373322200D01*
X25275400Y-373271400D01*
X25523050Y-372833250D01*
X25738950Y-372369700D01*
X25904050Y-372039500D01*
X26088200Y-371747400D01*
X26253300Y-371429900D01*
X26532700Y-371074300D01*
X26812100Y-370756800D01*
X27142300Y-370464700D01*
X27485200Y-370236100D01*
X27866200Y-369982100D01*
X28259900Y-369715400D01*
X28793300Y-369321700D01*
X28310700Y-370083700D01*
G37*
X28310700Y-370083700D02*
X28069400Y-370579000D01*
X27866200Y-371036200D01*
X27605850Y-371556900D01*
X27332800Y-371912500D01*
X27021650Y-372325250D01*
X26551750Y-372718950D01*
X26050100Y-373055500D01*
X24945200Y-373652400D01*
X24970600Y-373322200D01*
X25275400Y-373271400D01*
X25523050Y-372833250D01*
X25738950Y-372369700D01*
X25904050Y-372039500D01*
X26088200Y-371747400D01*
X26253300Y-371429900D01*
X26532700Y-371074300D01*
X26812100Y-370756800D01*
X27142300Y-370464700D01*
X27485200Y-370236100D01*
X27866200Y-369982100D01*
X28259900Y-369715400D01*
X28793300Y-369321700D01*
X28310700Y-370083700D01*
G36*
X25465900Y-367950100D02*
G01*
X25567500Y-368432700D01*
X25681800Y-368889900D01*
X25764350Y-369220100D01*
X25827850Y-369601100D01*
X25872300Y-370121800D01*
X25872300Y-370655200D01*
X25821500Y-371239400D01*
X25758000Y-371760100D01*
X25615125Y-372255400D01*
X25316675Y-373271400D01*
X25103950Y-373220600D01*
X24869000Y-372306200D01*
X24695962Y-371442600D01*
X24711837Y-370655200D01*
X24764225Y-369994800D01*
X24926150Y-369220100D01*
X25161100Y-368407300D01*
X25288100Y-367632600D01*
X25351600Y-367111900D01*
X25465900Y-367950100D01*
G37*
X25465900Y-367950100D02*
X25567500Y-368432700D01*
X25681800Y-368889900D01*
X25764350Y-369220100D01*
X25827850Y-369601100D01*
X25872300Y-370121800D01*
X25872300Y-370655200D01*
X25821500Y-371239400D01*
X25758000Y-371760100D01*
X25615125Y-372255400D01*
X25316675Y-373271400D01*
X25103950Y-373220600D01*
X24869000Y-372306200D01*
X24695962Y-371442600D01*
X24711837Y-370655200D01*
X24764225Y-369994800D01*
X24926150Y-369220100D01*
X25161100Y-368407300D01*
X25288100Y-367632600D01*
X25351600Y-367111900D01*
X25465900Y-367950100D01*
D12*
X33000000Y-293000000D03*
X25000000Y-303000000D03*
X16750000Y-293000000D03*
X9000000Y-285750000D03*
X17000000Y-279000000D03*
X25000000Y-269750000D03*
X33000000Y-279000000D03*
X41000000Y-285750000D03*
D13*
X41000000Y-302750000D03*
X9000000Y-302750000D03*
X43000000Y-355000000D03*
X31000000Y-355000000D03*
X19000000Y-355000000D03*
X7000000Y-355000000D03*
X7000000Y-337500000D03*
X19000000Y-337500000D03*
X31000000Y-337500000D03*
X43000000Y-337500000D03*
X43000000Y-319500000D03*
X31000000Y-319500000D03*
X19000000Y-319500000D03*
X7000000Y-319500000D03*
M02*
