G04 #@! TF.GenerationSoftware,KiCad,Pcbnew,(5.1.5-0)*
G04 #@! TF.CreationDate,2021-01-12T22:35:17-08:00*
G04 #@! TF.ProjectId,hyperchaosdeluxe,68797065-7263-4686-916f-7364656c7578,rev?*
G04 #@! TF.SameCoordinates,Original*
G04 #@! TF.FileFunction,Soldermask,Bot*
G04 #@! TF.FilePolarity,Negative*
%FSLAX46Y46*%
G04 Gerber Fmt 4.6, Leading zero omitted, Abs format (unit mm)*
G04 Created by KiCad (PCBNEW (5.1.5-0)) date 2021-01-12 22:35:17*
%MOMM*%
%LPD*%
G04 APERTURE LIST*
%ADD10C,0.150000*%
%ADD11C,1.000000*%
%ADD12C,0.100000*%
G04 APERTURE END LIST*
D10*
X23226190Y-371702380D02*
X23226190Y-371035714D01*
X23226190Y-371226190D02*
X23178571Y-371130952D01*
X23130952Y-371083333D01*
X23035714Y-371035714D01*
X22940476Y-371035714D01*
X22226190Y-371654761D02*
X22321428Y-371702380D01*
X22511904Y-371702380D01*
X22607142Y-371654761D01*
X22654761Y-371559523D01*
X22654761Y-371178571D01*
X22607142Y-371083333D01*
X22511904Y-371035714D01*
X22321428Y-371035714D01*
X22226190Y-371083333D01*
X22178571Y-371178571D01*
X22178571Y-371273809D01*
X22654761Y-371369047D01*
X21750000Y-371035714D02*
X21750000Y-372035714D01*
X21750000Y-371083333D02*
X21654761Y-371035714D01*
X21464285Y-371035714D01*
X21369047Y-371083333D01*
X21321428Y-371130952D01*
X21273809Y-371226190D01*
X21273809Y-371511904D01*
X21321428Y-371607142D01*
X21369047Y-371654761D01*
X21464285Y-371702380D01*
X21654761Y-371702380D01*
X21750000Y-371654761D01*
X20416666Y-371702380D02*
X20416666Y-371178571D01*
X20464285Y-371083333D01*
X20559523Y-371035714D01*
X20750000Y-371035714D01*
X20845238Y-371083333D01*
X20416666Y-371654761D02*
X20511904Y-371702380D01*
X20750000Y-371702380D01*
X20845238Y-371654761D01*
X20892857Y-371559523D01*
X20892857Y-371464285D01*
X20845238Y-371369047D01*
X20750000Y-371321428D01*
X20511904Y-371321428D01*
X20416666Y-371273809D01*
X19940476Y-371035714D02*
X19940476Y-371702380D01*
X19940476Y-371130952D02*
X19892857Y-371083333D01*
X19797619Y-371035714D01*
X19654761Y-371035714D01*
X19559523Y-371083333D01*
X19511904Y-371178571D01*
X19511904Y-371702380D01*
X18654761Y-371654761D02*
X18750000Y-371702380D01*
X18940476Y-371702380D01*
X19035714Y-371654761D01*
X19083333Y-371559523D01*
X19083333Y-371178571D01*
X19035714Y-371083333D01*
X18940476Y-371035714D01*
X18750000Y-371035714D01*
X18654761Y-371083333D01*
X18607142Y-371178571D01*
X18607142Y-371273809D01*
X19083333Y-371369047D01*
X18035714Y-371702380D02*
X18130952Y-371654761D01*
X18178571Y-371559523D01*
X18178571Y-370702380D01*
X16892857Y-371702380D02*
X16892857Y-370702380D01*
X16892857Y-371083333D02*
X16797619Y-371035714D01*
X16607142Y-371035714D01*
X16511904Y-371083333D01*
X16464285Y-371130952D01*
X16416666Y-371226190D01*
X16416666Y-371511904D01*
X16464285Y-371607142D01*
X16511904Y-371654761D01*
X16607142Y-371702380D01*
X16797619Y-371702380D01*
X16892857Y-371654761D01*
X16083333Y-371035714D02*
X15845238Y-371702380D01*
X15607142Y-371035714D02*
X15845238Y-371702380D01*
X15940476Y-371940476D01*
X15988095Y-371988095D01*
X16083333Y-372035714D01*
X14464285Y-371035714D02*
X14464285Y-371892857D01*
X14511904Y-371988095D01*
X14607142Y-372035714D01*
X14654761Y-372035714D01*
X14464285Y-370702380D02*
X14511904Y-370750000D01*
X14464285Y-370797619D01*
X14416666Y-370750000D01*
X14464285Y-370702380D01*
X14464285Y-370797619D01*
X13559523Y-371702380D02*
X13559523Y-371178571D01*
X13607142Y-371083333D01*
X13702380Y-371035714D01*
X13892857Y-371035714D01*
X13988095Y-371083333D01*
X13559523Y-371654761D02*
X13654761Y-371702380D01*
X13892857Y-371702380D01*
X13988095Y-371654761D01*
X14035714Y-371559523D01*
X14035714Y-371464285D01*
X13988095Y-371369047D01*
X13892857Y-371321428D01*
X13654761Y-371321428D01*
X13559523Y-371273809D01*
X12654761Y-371654761D02*
X12750000Y-371702380D01*
X12940476Y-371702380D01*
X13035714Y-371654761D01*
X13083333Y-371607142D01*
X13130952Y-371511904D01*
X13130952Y-371226190D01*
X13083333Y-371130952D01*
X13035714Y-371083333D01*
X12940476Y-371035714D01*
X12750000Y-371035714D01*
X12654761Y-371083333D01*
X12226190Y-371702380D02*
X12226190Y-370702380D01*
X12130952Y-371321428D02*
X11845238Y-371702380D01*
X11845238Y-371035714D02*
X12226190Y-371416666D01*
X10702380Y-371654761D02*
X10607142Y-371702380D01*
X10416666Y-371702380D01*
X10321428Y-371654761D01*
X10273809Y-371559523D01*
X10273809Y-371511904D01*
X10321428Y-371416666D01*
X10416666Y-371369047D01*
X10559523Y-371369047D01*
X10654761Y-371321428D01*
X10702380Y-371226190D01*
X10702380Y-371178571D01*
X10654761Y-371083333D01*
X10559523Y-371035714D01*
X10416666Y-371035714D01*
X10321428Y-371083333D01*
X9845238Y-371607142D02*
X9797619Y-371654761D01*
X9845238Y-371702380D01*
X9892857Y-371654761D01*
X9845238Y-371607142D01*
X9845238Y-371702380D01*
X8654761Y-370797619D02*
X8607142Y-370750000D01*
X8511904Y-370702380D01*
X8273809Y-370702380D01*
X8178571Y-370750000D01*
X8130952Y-370797619D01*
X8083333Y-370892857D01*
X8083333Y-370988095D01*
X8130952Y-371130952D01*
X8702380Y-371702380D01*
X8083333Y-371702380D01*
X7464285Y-370702380D02*
X7369047Y-370702380D01*
X7273809Y-370750000D01*
X7226190Y-370797619D01*
X7178571Y-370892857D01*
X7130952Y-371083333D01*
X7130952Y-371321428D01*
X7178571Y-371511904D01*
X7226190Y-371607142D01*
X7273809Y-371654761D01*
X7369047Y-371702380D01*
X7464285Y-371702380D01*
X7559523Y-371654761D01*
X7607142Y-371607142D01*
X7654761Y-371511904D01*
X7702380Y-371321428D01*
X7702380Y-371083333D01*
X7654761Y-370892857D01*
X7607142Y-370797619D01*
X7559523Y-370750000D01*
X7464285Y-370702380D01*
X6750000Y-370797619D02*
X6702380Y-370750000D01*
X6607142Y-370702380D01*
X6369047Y-370702380D01*
X6273809Y-370750000D01*
X6226190Y-370797619D01*
X6178571Y-370892857D01*
X6178571Y-370988095D01*
X6226190Y-371130952D01*
X6797619Y-371702380D01*
X6178571Y-371702380D01*
X5226190Y-371702380D02*
X5797619Y-371702380D01*
X5511904Y-371702380D02*
X5511904Y-370702380D01*
X5607142Y-370845238D01*
X5702380Y-370940476D01*
X5797619Y-370988095D01*
D11*
X10550000Y-319500000D02*
G75*
G03X10550000Y-319500000I-3550000J0D01*
G01*
X22550000Y-319500000D02*
G75*
G03X22550000Y-319500000I-3550000J0D01*
G01*
X46550000Y-319500000D02*
G75*
G03X46550000Y-319500000I-3550000J0D01*
G01*
X34550000Y-319500000D02*
G75*
G03X34550000Y-319500000I-3550000J0D01*
G01*
X10550000Y-337550000D02*
G75*
G03X10550000Y-337550000I-3550000J0D01*
G01*
X10550000Y-355000000D02*
G75*
G03X10550000Y-355000000I-3550000J0D01*
G01*
X22600000Y-355000000D02*
G75*
G03X22600000Y-355000000I-3550000J0D01*
G01*
X22600000Y-337500000D02*
G75*
G03X22600000Y-337500000I-3550000J0D01*
G01*
X34550000Y-354950000D02*
G75*
G03X34550000Y-354950000I-3550000J0D01*
G01*
X34550000Y-337550000D02*
G75*
G03X34550000Y-337550000I-3550000J0D01*
G01*
X46550000Y-354950000D02*
G75*
G03X46550000Y-354950000I-3550000J0D01*
G01*
X46600000Y-337500000D02*
G75*
G03X46600000Y-337500000I-3550000J0D01*
G01*
D12*
G36*
X43604975Y-351958585D02*
G01*
X43904528Y-352018170D01*
X44468874Y-352251930D01*
X44976772Y-352591296D01*
X45408704Y-353023228D01*
X45748070Y-353531126D01*
X45981830Y-354095472D01*
X46101000Y-354694578D01*
X46101000Y-355305422D01*
X45981830Y-355904528D01*
X45748070Y-356468874D01*
X45408704Y-356976772D01*
X44976772Y-357408704D01*
X44468874Y-357748070D01*
X43904528Y-357981830D01*
X43604975Y-358041415D01*
X43305423Y-358101000D01*
X42694577Y-358101000D01*
X42395025Y-358041415D01*
X42095472Y-357981830D01*
X41531126Y-357748070D01*
X41023228Y-357408704D01*
X40591296Y-356976772D01*
X40251930Y-356468874D01*
X40018170Y-355904528D01*
X39899000Y-355305422D01*
X39899000Y-354694578D01*
X40018170Y-354095472D01*
X40251930Y-353531126D01*
X40591296Y-353023228D01*
X41023228Y-352591296D01*
X41531126Y-352251930D01*
X42095472Y-352018170D01*
X42395025Y-351958585D01*
X42694577Y-351899000D01*
X43305423Y-351899000D01*
X43604975Y-351958585D01*
G37*
G36*
X31604975Y-351958585D02*
G01*
X31904528Y-352018170D01*
X32468874Y-352251930D01*
X32976772Y-352591296D01*
X33408704Y-353023228D01*
X33748070Y-353531126D01*
X33981830Y-354095472D01*
X34101000Y-354694578D01*
X34101000Y-355305422D01*
X33981830Y-355904528D01*
X33748070Y-356468874D01*
X33408704Y-356976772D01*
X32976772Y-357408704D01*
X32468874Y-357748070D01*
X31904528Y-357981830D01*
X31604975Y-358041415D01*
X31305423Y-358101000D01*
X30694577Y-358101000D01*
X30395025Y-358041415D01*
X30095472Y-357981830D01*
X29531126Y-357748070D01*
X29023228Y-357408704D01*
X28591296Y-356976772D01*
X28251930Y-356468874D01*
X28018170Y-355904528D01*
X27899000Y-355305422D01*
X27899000Y-354694578D01*
X28018170Y-354095472D01*
X28251930Y-353531126D01*
X28591296Y-353023228D01*
X29023228Y-352591296D01*
X29531126Y-352251930D01*
X30095472Y-352018170D01*
X30395025Y-351958585D01*
X30694577Y-351899000D01*
X31305423Y-351899000D01*
X31604975Y-351958585D01*
G37*
G36*
X19604975Y-351958585D02*
G01*
X19904528Y-352018170D01*
X20468874Y-352251930D01*
X20976772Y-352591296D01*
X21408704Y-353023228D01*
X21748070Y-353531126D01*
X21981830Y-354095472D01*
X22101000Y-354694578D01*
X22101000Y-355305422D01*
X21981830Y-355904528D01*
X21748070Y-356468874D01*
X21408704Y-356976772D01*
X20976772Y-357408704D01*
X20468874Y-357748070D01*
X19904528Y-357981830D01*
X19604975Y-358041415D01*
X19305423Y-358101000D01*
X18694577Y-358101000D01*
X18395025Y-358041415D01*
X18095472Y-357981830D01*
X17531126Y-357748070D01*
X17023228Y-357408704D01*
X16591296Y-356976772D01*
X16251930Y-356468874D01*
X16018170Y-355904528D01*
X15899000Y-355305422D01*
X15899000Y-354694578D01*
X16018170Y-354095472D01*
X16251930Y-353531126D01*
X16591296Y-353023228D01*
X17023228Y-352591296D01*
X17531126Y-352251930D01*
X18095472Y-352018170D01*
X18395025Y-351958585D01*
X18694577Y-351899000D01*
X19305423Y-351899000D01*
X19604975Y-351958585D01*
G37*
G36*
X7604975Y-351958585D02*
G01*
X7904528Y-352018170D01*
X8468874Y-352251930D01*
X8976772Y-352591296D01*
X9408704Y-353023228D01*
X9748070Y-353531126D01*
X9981830Y-354095472D01*
X10101000Y-354694578D01*
X10101000Y-355305422D01*
X9981830Y-355904528D01*
X9748070Y-356468874D01*
X9408704Y-356976772D01*
X8976772Y-357408704D01*
X8468874Y-357748070D01*
X7904528Y-357981830D01*
X7604975Y-358041415D01*
X7305423Y-358101000D01*
X6694577Y-358101000D01*
X6395025Y-358041415D01*
X6095472Y-357981830D01*
X5531126Y-357748070D01*
X5023228Y-357408704D01*
X4591296Y-356976772D01*
X4251930Y-356468874D01*
X4018170Y-355904528D01*
X3899000Y-355305422D01*
X3899000Y-354694578D01*
X4018170Y-354095472D01*
X4251930Y-353531126D01*
X4591296Y-353023228D01*
X5023228Y-352591296D01*
X5531126Y-352251930D01*
X6095472Y-352018170D01*
X6395025Y-351958585D01*
X6694577Y-351899000D01*
X7305423Y-351899000D01*
X7604975Y-351958585D01*
G37*
G36*
X43604975Y-334458585D02*
G01*
X43904528Y-334518170D01*
X44468874Y-334751930D01*
X44976772Y-335091296D01*
X45408704Y-335523228D01*
X45748070Y-336031126D01*
X45981830Y-336595472D01*
X46101000Y-337194578D01*
X46101000Y-337805422D01*
X45981830Y-338404528D01*
X45748070Y-338968874D01*
X45408704Y-339476772D01*
X44976772Y-339908704D01*
X44468874Y-340248070D01*
X43904528Y-340481830D01*
X43604975Y-340541415D01*
X43305423Y-340601000D01*
X42694577Y-340601000D01*
X42395025Y-340541415D01*
X42095472Y-340481830D01*
X41531126Y-340248070D01*
X41023228Y-339908704D01*
X40591296Y-339476772D01*
X40251930Y-338968874D01*
X40018170Y-338404528D01*
X39899000Y-337805422D01*
X39899000Y-337194578D01*
X40018170Y-336595472D01*
X40251930Y-336031126D01*
X40591296Y-335523228D01*
X41023228Y-335091296D01*
X41531126Y-334751930D01*
X42095472Y-334518170D01*
X42395025Y-334458585D01*
X42694577Y-334399000D01*
X43305423Y-334399000D01*
X43604975Y-334458585D01*
G37*
G36*
X31604975Y-334458585D02*
G01*
X31904528Y-334518170D01*
X32468874Y-334751930D01*
X32976772Y-335091296D01*
X33408704Y-335523228D01*
X33748070Y-336031126D01*
X33981830Y-336595472D01*
X34101000Y-337194578D01*
X34101000Y-337805422D01*
X33981830Y-338404528D01*
X33748070Y-338968874D01*
X33408704Y-339476772D01*
X32976772Y-339908704D01*
X32468874Y-340248070D01*
X31904528Y-340481830D01*
X31604975Y-340541415D01*
X31305423Y-340601000D01*
X30694577Y-340601000D01*
X30395025Y-340541415D01*
X30095472Y-340481830D01*
X29531126Y-340248070D01*
X29023228Y-339908704D01*
X28591296Y-339476772D01*
X28251930Y-338968874D01*
X28018170Y-338404528D01*
X27899000Y-337805422D01*
X27899000Y-337194578D01*
X28018170Y-336595472D01*
X28251930Y-336031126D01*
X28591296Y-335523228D01*
X29023228Y-335091296D01*
X29531126Y-334751930D01*
X30095472Y-334518170D01*
X30395025Y-334458585D01*
X30694577Y-334399000D01*
X31305423Y-334399000D01*
X31604975Y-334458585D01*
G37*
G36*
X19604975Y-334458585D02*
G01*
X19904528Y-334518170D01*
X20468874Y-334751930D01*
X20976772Y-335091296D01*
X21408704Y-335523228D01*
X21748070Y-336031126D01*
X21981830Y-336595472D01*
X22101000Y-337194578D01*
X22101000Y-337805422D01*
X21981830Y-338404528D01*
X21748070Y-338968874D01*
X21408704Y-339476772D01*
X20976772Y-339908704D01*
X20468874Y-340248070D01*
X19904528Y-340481830D01*
X19604975Y-340541415D01*
X19305423Y-340601000D01*
X18694577Y-340601000D01*
X18395025Y-340541415D01*
X18095472Y-340481830D01*
X17531126Y-340248070D01*
X17023228Y-339908704D01*
X16591296Y-339476772D01*
X16251930Y-338968874D01*
X16018170Y-338404528D01*
X15899000Y-337805422D01*
X15899000Y-337194578D01*
X16018170Y-336595472D01*
X16251930Y-336031126D01*
X16591296Y-335523228D01*
X17023228Y-335091296D01*
X17531126Y-334751930D01*
X18095472Y-334518170D01*
X18395025Y-334458585D01*
X18694577Y-334399000D01*
X19305423Y-334399000D01*
X19604975Y-334458585D01*
G37*
G36*
X7604975Y-334458585D02*
G01*
X7904528Y-334518170D01*
X8468874Y-334751930D01*
X8976772Y-335091296D01*
X9408704Y-335523228D01*
X9748070Y-336031126D01*
X9981830Y-336595472D01*
X10101000Y-337194578D01*
X10101000Y-337805422D01*
X9981830Y-338404528D01*
X9748070Y-338968874D01*
X9408704Y-339476772D01*
X8976772Y-339908704D01*
X8468874Y-340248070D01*
X7904528Y-340481830D01*
X7604975Y-340541415D01*
X7305423Y-340601000D01*
X6694577Y-340601000D01*
X6395025Y-340541415D01*
X6095472Y-340481830D01*
X5531126Y-340248070D01*
X5023228Y-339908704D01*
X4591296Y-339476772D01*
X4251930Y-338968874D01*
X4018170Y-338404528D01*
X3899000Y-337805422D01*
X3899000Y-337194578D01*
X4018170Y-336595472D01*
X4251930Y-336031126D01*
X4591296Y-335523228D01*
X5023228Y-335091296D01*
X5531126Y-334751930D01*
X6095472Y-334518170D01*
X6395025Y-334458585D01*
X6694577Y-334399000D01*
X7305423Y-334399000D01*
X7604975Y-334458585D01*
G37*
G36*
X7604975Y-316458585D02*
G01*
X7904528Y-316518170D01*
X8468874Y-316751930D01*
X8976772Y-317091296D01*
X9408704Y-317523228D01*
X9748070Y-318031126D01*
X9981830Y-318595472D01*
X10101000Y-319194578D01*
X10101000Y-319805422D01*
X9981830Y-320404528D01*
X9748070Y-320968874D01*
X9408704Y-321476772D01*
X8976772Y-321908704D01*
X8468874Y-322248070D01*
X7904528Y-322481830D01*
X7604975Y-322541415D01*
X7305423Y-322601000D01*
X6694577Y-322601000D01*
X6395025Y-322541415D01*
X6095472Y-322481830D01*
X5531126Y-322248070D01*
X5023228Y-321908704D01*
X4591296Y-321476772D01*
X4251930Y-320968874D01*
X4018170Y-320404528D01*
X3899000Y-319805422D01*
X3899000Y-319194578D01*
X4018170Y-318595472D01*
X4251930Y-318031126D01*
X4591296Y-317523228D01*
X5023228Y-317091296D01*
X5531126Y-316751930D01*
X6095472Y-316518170D01*
X6395025Y-316458585D01*
X6694577Y-316399000D01*
X7305423Y-316399000D01*
X7604975Y-316458585D01*
G37*
G36*
X19604975Y-316458585D02*
G01*
X19904528Y-316518170D01*
X20468874Y-316751930D01*
X20976772Y-317091296D01*
X21408704Y-317523228D01*
X21748070Y-318031126D01*
X21981830Y-318595472D01*
X22101000Y-319194578D01*
X22101000Y-319805422D01*
X21981830Y-320404528D01*
X21748070Y-320968874D01*
X21408704Y-321476772D01*
X20976772Y-321908704D01*
X20468874Y-322248070D01*
X19904528Y-322481830D01*
X19604975Y-322541415D01*
X19305423Y-322601000D01*
X18694577Y-322601000D01*
X18395025Y-322541415D01*
X18095472Y-322481830D01*
X17531126Y-322248070D01*
X17023228Y-321908704D01*
X16591296Y-321476772D01*
X16251930Y-320968874D01*
X16018170Y-320404528D01*
X15899000Y-319805422D01*
X15899000Y-319194578D01*
X16018170Y-318595472D01*
X16251930Y-318031126D01*
X16591296Y-317523228D01*
X17023228Y-317091296D01*
X17531126Y-316751930D01*
X18095472Y-316518170D01*
X18395025Y-316458585D01*
X18694577Y-316399000D01*
X19305423Y-316399000D01*
X19604975Y-316458585D01*
G37*
G36*
X31604975Y-316458585D02*
G01*
X31904528Y-316518170D01*
X32468874Y-316751930D01*
X32976772Y-317091296D01*
X33408704Y-317523228D01*
X33748070Y-318031126D01*
X33981830Y-318595472D01*
X34101000Y-319194578D01*
X34101000Y-319805422D01*
X33981830Y-320404528D01*
X33748070Y-320968874D01*
X33408704Y-321476772D01*
X32976772Y-321908704D01*
X32468874Y-322248070D01*
X31904528Y-322481830D01*
X31604975Y-322541415D01*
X31305423Y-322601000D01*
X30694577Y-322601000D01*
X30395025Y-322541415D01*
X30095472Y-322481830D01*
X29531126Y-322248070D01*
X29023228Y-321908704D01*
X28591296Y-321476772D01*
X28251930Y-320968874D01*
X28018170Y-320404528D01*
X27899000Y-319805422D01*
X27899000Y-319194578D01*
X28018170Y-318595472D01*
X28251930Y-318031126D01*
X28591296Y-317523228D01*
X29023228Y-317091296D01*
X29531126Y-316751930D01*
X30095472Y-316518170D01*
X30395025Y-316458585D01*
X30694577Y-316399000D01*
X31305423Y-316399000D01*
X31604975Y-316458585D01*
G37*
G36*
X43604975Y-316458585D02*
G01*
X43904528Y-316518170D01*
X44468874Y-316751930D01*
X44976772Y-317091296D01*
X45408704Y-317523228D01*
X45748070Y-318031126D01*
X45981830Y-318595472D01*
X46101000Y-319194578D01*
X46101000Y-319805422D01*
X45981830Y-320404528D01*
X45748070Y-320968874D01*
X45408704Y-321476772D01*
X44976772Y-321908704D01*
X44468874Y-322248070D01*
X43904528Y-322481830D01*
X43604975Y-322541415D01*
X43305423Y-322601000D01*
X42694577Y-322601000D01*
X42395025Y-322541415D01*
X42095472Y-322481830D01*
X41531126Y-322248070D01*
X41023228Y-321908704D01*
X40591296Y-321476772D01*
X40251930Y-320968874D01*
X40018170Y-320404528D01*
X39899000Y-319805422D01*
X39899000Y-319194578D01*
X40018170Y-318595472D01*
X40251930Y-318031126D01*
X40591296Y-317523228D01*
X41023228Y-317091296D01*
X41531126Y-316751930D01*
X42095472Y-316518170D01*
X42395025Y-316458585D01*
X42694577Y-316399000D01*
X43305423Y-316399000D01*
X43604975Y-316458585D01*
G37*
G36*
X41604975Y-299708585D02*
G01*
X41904528Y-299768170D01*
X42468874Y-300001930D01*
X42976772Y-300341296D01*
X43408704Y-300773228D01*
X43748070Y-301281126D01*
X43981830Y-301845472D01*
X44101000Y-302444578D01*
X44101000Y-303055422D01*
X43981830Y-303654528D01*
X43748070Y-304218874D01*
X43408704Y-304726772D01*
X42976772Y-305158704D01*
X42468874Y-305498070D01*
X41904528Y-305731830D01*
X41604975Y-305791415D01*
X41305423Y-305851000D01*
X40694577Y-305851000D01*
X40395025Y-305791415D01*
X40095472Y-305731830D01*
X39531126Y-305498070D01*
X39023228Y-305158704D01*
X38591296Y-304726772D01*
X38251930Y-304218874D01*
X38018170Y-303654528D01*
X37899000Y-303055422D01*
X37899000Y-302444578D01*
X38018170Y-301845472D01*
X38251930Y-301281126D01*
X38591296Y-300773228D01*
X39023228Y-300341296D01*
X39531126Y-300001930D01*
X40095472Y-299768170D01*
X40395025Y-299708585D01*
X40694577Y-299649000D01*
X41305423Y-299649000D01*
X41604975Y-299708585D01*
G37*
G36*
X9604975Y-299708585D02*
G01*
X9904528Y-299768170D01*
X10468874Y-300001930D01*
X10976772Y-300341296D01*
X11408704Y-300773228D01*
X11748070Y-301281126D01*
X11981830Y-301845472D01*
X12101000Y-302444578D01*
X12101000Y-303055422D01*
X11981830Y-303654528D01*
X11748070Y-304218874D01*
X11408704Y-304726772D01*
X10976772Y-305158704D01*
X10468874Y-305498070D01*
X9904528Y-305731830D01*
X9604975Y-305791415D01*
X9305423Y-305851000D01*
X8694577Y-305851000D01*
X8395025Y-305791415D01*
X8095472Y-305731830D01*
X7531126Y-305498070D01*
X7023228Y-305158704D01*
X6591296Y-304726772D01*
X6251930Y-304218874D01*
X6018170Y-303654528D01*
X5899000Y-303055422D01*
X5899000Y-302444578D01*
X6018170Y-301845472D01*
X6251930Y-301281126D01*
X6591296Y-300773228D01*
X7023228Y-300341296D01*
X7531126Y-300001930D01*
X8095472Y-299768170D01*
X8395025Y-299708585D01*
X8694577Y-299649000D01*
X9305423Y-299649000D01*
X9604975Y-299708585D01*
G37*
G36*
X25196217Y-301406665D02*
G01*
X25466995Y-301460525D01*
X25758358Y-301581212D01*
X26020578Y-301756422D01*
X26243578Y-301979422D01*
X26418788Y-302241642D01*
X26539475Y-302533005D01*
X26601000Y-302842315D01*
X26601000Y-303157685D01*
X26539475Y-303466995D01*
X26418788Y-303758358D01*
X26243578Y-304020578D01*
X26020578Y-304243578D01*
X25758358Y-304418788D01*
X25466995Y-304539475D01*
X25196217Y-304593335D01*
X25157686Y-304601000D01*
X24842314Y-304601000D01*
X24803783Y-304593335D01*
X24533005Y-304539475D01*
X24241642Y-304418788D01*
X23979422Y-304243578D01*
X23756422Y-304020578D01*
X23581212Y-303758358D01*
X23460525Y-303466995D01*
X23399000Y-303157685D01*
X23399000Y-302842315D01*
X23460525Y-302533005D01*
X23581212Y-302241642D01*
X23756422Y-301979422D01*
X23979422Y-301756422D01*
X24241642Y-301581212D01*
X24533005Y-301460525D01*
X24803783Y-301406665D01*
X24842314Y-301399000D01*
X25157686Y-301399000D01*
X25196217Y-301406665D01*
G37*
G36*
X16946217Y-291406665D02*
G01*
X17216995Y-291460525D01*
X17508358Y-291581212D01*
X17770578Y-291756422D01*
X17993578Y-291979422D01*
X18168788Y-292241642D01*
X18289475Y-292533005D01*
X18351000Y-292842315D01*
X18351000Y-293157685D01*
X18289475Y-293466995D01*
X18168788Y-293758358D01*
X17993578Y-294020578D01*
X17770578Y-294243578D01*
X17508358Y-294418788D01*
X17216995Y-294539475D01*
X16946217Y-294593335D01*
X16907686Y-294601000D01*
X16592314Y-294601000D01*
X16553783Y-294593335D01*
X16283005Y-294539475D01*
X15991642Y-294418788D01*
X15729422Y-294243578D01*
X15506422Y-294020578D01*
X15331212Y-293758358D01*
X15210525Y-293466995D01*
X15149000Y-293157685D01*
X15149000Y-292842315D01*
X15210525Y-292533005D01*
X15331212Y-292241642D01*
X15506422Y-291979422D01*
X15729422Y-291756422D01*
X15991642Y-291581212D01*
X16283005Y-291460525D01*
X16553783Y-291406665D01*
X16592314Y-291399000D01*
X16907686Y-291399000D01*
X16946217Y-291406665D01*
G37*
G36*
X33196217Y-291406665D02*
G01*
X33466995Y-291460525D01*
X33758358Y-291581212D01*
X34020578Y-291756422D01*
X34243578Y-291979422D01*
X34418788Y-292241642D01*
X34539475Y-292533005D01*
X34601000Y-292842315D01*
X34601000Y-293157685D01*
X34539475Y-293466995D01*
X34418788Y-293758358D01*
X34243578Y-294020578D01*
X34020578Y-294243578D01*
X33758358Y-294418788D01*
X33466995Y-294539475D01*
X33196217Y-294593335D01*
X33157686Y-294601000D01*
X32842314Y-294601000D01*
X32803783Y-294593335D01*
X32533005Y-294539475D01*
X32241642Y-294418788D01*
X31979422Y-294243578D01*
X31756422Y-294020578D01*
X31581212Y-293758358D01*
X31460525Y-293466995D01*
X31399000Y-293157685D01*
X31399000Y-292842315D01*
X31460525Y-292533005D01*
X31581212Y-292241642D01*
X31756422Y-291979422D01*
X31979422Y-291756422D01*
X32241642Y-291581212D01*
X32533005Y-291460525D01*
X32803783Y-291406665D01*
X32842314Y-291399000D01*
X33157686Y-291399000D01*
X33196217Y-291406665D01*
G37*
G36*
X41196217Y-284156665D02*
G01*
X41466995Y-284210525D01*
X41758358Y-284331212D01*
X42020578Y-284506422D01*
X42243578Y-284729422D01*
X42418788Y-284991642D01*
X42539475Y-285283005D01*
X42601000Y-285592315D01*
X42601000Y-285907685D01*
X42539475Y-286216995D01*
X42418788Y-286508358D01*
X42243578Y-286770578D01*
X42020578Y-286993578D01*
X41758358Y-287168788D01*
X41466995Y-287289475D01*
X41196217Y-287343335D01*
X41157686Y-287351000D01*
X40842314Y-287351000D01*
X40803783Y-287343335D01*
X40533005Y-287289475D01*
X40241642Y-287168788D01*
X39979422Y-286993578D01*
X39756422Y-286770578D01*
X39581212Y-286508358D01*
X39460525Y-286216995D01*
X39399000Y-285907685D01*
X39399000Y-285592315D01*
X39460525Y-285283005D01*
X39581212Y-284991642D01*
X39756422Y-284729422D01*
X39979422Y-284506422D01*
X40241642Y-284331212D01*
X40533005Y-284210525D01*
X40803783Y-284156665D01*
X40842314Y-284149000D01*
X41157686Y-284149000D01*
X41196217Y-284156665D01*
G37*
G36*
X9196217Y-284156665D02*
G01*
X9466995Y-284210525D01*
X9758358Y-284331212D01*
X10020578Y-284506422D01*
X10243578Y-284729422D01*
X10418788Y-284991642D01*
X10539475Y-285283005D01*
X10601000Y-285592315D01*
X10601000Y-285907685D01*
X10539475Y-286216995D01*
X10418788Y-286508358D01*
X10243578Y-286770578D01*
X10020578Y-286993578D01*
X9758358Y-287168788D01*
X9466995Y-287289475D01*
X9196217Y-287343335D01*
X9157686Y-287351000D01*
X8842314Y-287351000D01*
X8803783Y-287343335D01*
X8533005Y-287289475D01*
X8241642Y-287168788D01*
X7979422Y-286993578D01*
X7756422Y-286770578D01*
X7581212Y-286508358D01*
X7460525Y-286216995D01*
X7399000Y-285907685D01*
X7399000Y-285592315D01*
X7460525Y-285283005D01*
X7581212Y-284991642D01*
X7756422Y-284729422D01*
X7979422Y-284506422D01*
X8241642Y-284331212D01*
X8533005Y-284210525D01*
X8803783Y-284156665D01*
X8842314Y-284149000D01*
X9157686Y-284149000D01*
X9196217Y-284156665D01*
G37*
G36*
X33196217Y-277406665D02*
G01*
X33466995Y-277460525D01*
X33758358Y-277581212D01*
X34020578Y-277756422D01*
X34243578Y-277979422D01*
X34418788Y-278241642D01*
X34539475Y-278533005D01*
X34601000Y-278842315D01*
X34601000Y-279157685D01*
X34539475Y-279466995D01*
X34418788Y-279758358D01*
X34243578Y-280020578D01*
X34020578Y-280243578D01*
X33758358Y-280418788D01*
X33466995Y-280539475D01*
X33196217Y-280593335D01*
X33157686Y-280601000D01*
X32842314Y-280601000D01*
X32803783Y-280593335D01*
X32533005Y-280539475D01*
X32241642Y-280418788D01*
X31979422Y-280243578D01*
X31756422Y-280020578D01*
X31581212Y-279758358D01*
X31460525Y-279466995D01*
X31399000Y-279157685D01*
X31399000Y-278842315D01*
X31460525Y-278533005D01*
X31581212Y-278241642D01*
X31756422Y-277979422D01*
X31979422Y-277756422D01*
X32241642Y-277581212D01*
X32533005Y-277460525D01*
X32803783Y-277406665D01*
X32842314Y-277399000D01*
X33157686Y-277399000D01*
X33196217Y-277406665D01*
G37*
G36*
X17196217Y-277406665D02*
G01*
X17466995Y-277460525D01*
X17758358Y-277581212D01*
X18020578Y-277756422D01*
X18243578Y-277979422D01*
X18418788Y-278241642D01*
X18539475Y-278533005D01*
X18601000Y-278842315D01*
X18601000Y-279157685D01*
X18539475Y-279466995D01*
X18418788Y-279758358D01*
X18243578Y-280020578D01*
X18020578Y-280243578D01*
X17758358Y-280418788D01*
X17466995Y-280539475D01*
X17196217Y-280593335D01*
X17157686Y-280601000D01*
X16842314Y-280601000D01*
X16803783Y-280593335D01*
X16533005Y-280539475D01*
X16241642Y-280418788D01*
X15979422Y-280243578D01*
X15756422Y-280020578D01*
X15581212Y-279758358D01*
X15460525Y-279466995D01*
X15399000Y-279157685D01*
X15399000Y-278842315D01*
X15460525Y-278533005D01*
X15581212Y-278241642D01*
X15756422Y-277979422D01*
X15979422Y-277756422D01*
X16241642Y-277581212D01*
X16533005Y-277460525D01*
X16803783Y-277406665D01*
X16842314Y-277399000D01*
X17157686Y-277399000D01*
X17196217Y-277406665D01*
G37*
G36*
X25196217Y-268156665D02*
G01*
X25466995Y-268210525D01*
X25758358Y-268331212D01*
X26020578Y-268506422D01*
X26243578Y-268729422D01*
X26418788Y-268991642D01*
X26539475Y-269283005D01*
X26601000Y-269592315D01*
X26601000Y-269907685D01*
X26539475Y-270216995D01*
X26418788Y-270508358D01*
X26243578Y-270770578D01*
X26020578Y-270993578D01*
X25758358Y-271168788D01*
X25466995Y-271289475D01*
X25196217Y-271343335D01*
X25157686Y-271351000D01*
X24842314Y-271351000D01*
X24803783Y-271343335D01*
X24533005Y-271289475D01*
X24241642Y-271168788D01*
X23979422Y-270993578D01*
X23756422Y-270770578D01*
X23581212Y-270508358D01*
X23460525Y-270216995D01*
X23399000Y-269907685D01*
X23399000Y-269592315D01*
X23460525Y-269283005D01*
X23581212Y-268991642D01*
X23756422Y-268729422D01*
X23979422Y-268506422D01*
X24241642Y-268331212D01*
X24533005Y-268210525D01*
X24803783Y-268156665D01*
X24842314Y-268149000D01*
X25157686Y-268149000D01*
X25196217Y-268156665D01*
G37*
M02*
