G04 #@! TF.GenerationSoftware,KiCad,Pcbnew,(5.1.5-0)*
G04 #@! TF.CreationDate,2021-01-08T11:46:13-08:00*
G04 #@! TF.ProjectId,hyperchaosdeluxe,68797065-7263-4686-916f-7364656c7578,rev?*
G04 #@! TF.SameCoordinates,Original*
G04 #@! TF.FileFunction,Copper,L1,Top*
G04 #@! TF.FilePolarity,Positive*
%FSLAX46Y46*%
G04 Gerber Fmt 4.6, Leading zero omitted, Abs format (unit mm)*
G04 Created by KiCad (PCBNEW (5.1.5-0)) date 2021-01-08 11:46:13*
%MOMM*%
%LPD*%
G04 APERTURE LIST*
%ADD10C,3.100000*%
%ADD11C,6.100000*%
%ADD12C,0.254000*%
G04 APERTURE END LIST*
D10*
X33000000Y-293000000D03*
X25000000Y-303000000D03*
X16750000Y-293000000D03*
X9000000Y-285750000D03*
X17000000Y-279000000D03*
X25000000Y-269750000D03*
X33000000Y-279000000D03*
X41000000Y-285750000D03*
D11*
X41000000Y-302750000D03*
X9000000Y-302750000D03*
X43000000Y-355000000D03*
X31000000Y-355000000D03*
X19000000Y-355000000D03*
X7000000Y-355000000D03*
X7000000Y-337500000D03*
X19000000Y-337500000D03*
X31000000Y-337500000D03*
X43000000Y-337500000D03*
X43000000Y-319500000D03*
X31000000Y-319500000D03*
X19000000Y-319500000D03*
X7000000Y-319500000D03*
D12*
G36*
X49740001Y-377840000D02*
G01*
X660000Y-377840000D01*
X660000Y-375451353D01*
X4242755Y-375451353D01*
X4243173Y-375511171D01*
X4242755Y-375570988D01*
X4243655Y-375580160D01*
X4276296Y-375890715D01*
X4288320Y-375949291D01*
X4299532Y-376008070D01*
X4302196Y-376016892D01*
X4394535Y-376315192D01*
X4417715Y-376370335D01*
X4440124Y-376425800D01*
X4444451Y-376433937D01*
X4592972Y-376708621D01*
X4626417Y-376758205D01*
X4659177Y-376808268D01*
X4665001Y-376815409D01*
X4864047Y-377056013D01*
X4906482Y-377098154D01*
X4948346Y-377140903D01*
X4955446Y-377146777D01*
X5197435Y-377344138D01*
X5247259Y-377377241D01*
X5296615Y-377411036D01*
X5304721Y-377415419D01*
X5580435Y-377562019D01*
X5635704Y-377584799D01*
X5690724Y-377608381D01*
X5699527Y-377611105D01*
X5998465Y-377701359D01*
X6057138Y-377712976D01*
X6115655Y-377725415D01*
X6124820Y-377726378D01*
X6435594Y-377756850D01*
X6435598Y-377756850D01*
X6467581Y-377760000D01*
X8532419Y-377760000D01*
X8565986Y-377756694D01*
X8586744Y-377756694D01*
X8595909Y-377755731D01*
X8906228Y-377720923D01*
X8964731Y-377708487D01*
X9023419Y-377696867D01*
X9032222Y-377694142D01*
X9329870Y-377599723D01*
X9384792Y-377576183D01*
X9440159Y-377553363D01*
X9448265Y-377548979D01*
X9721904Y-377398544D01*
X9771217Y-377364779D01*
X9821088Y-377331645D01*
X9828188Y-377325770D01*
X10067397Y-377125049D01*
X10109241Y-377082320D01*
X10151694Y-377040162D01*
X10157519Y-377033020D01*
X10353185Y-376789660D01*
X10385938Y-376739608D01*
X10419391Y-376690013D01*
X10423714Y-376681881D01*
X10423717Y-376681877D01*
X10423719Y-376681873D01*
X10568388Y-376405146D01*
X10590785Y-376349711D01*
X10613978Y-376294539D01*
X10616641Y-376285717D01*
X10704807Y-375986156D01*
X10716007Y-375927440D01*
X10728045Y-375868798D01*
X10728944Y-375859627D01*
X10757245Y-375548647D01*
X10756827Y-375488830D01*
X10757088Y-375451353D01*
X40242755Y-375451353D01*
X40243173Y-375511171D01*
X40242755Y-375570988D01*
X40243655Y-375580160D01*
X40276296Y-375890715D01*
X40288320Y-375949291D01*
X40299532Y-376008070D01*
X40302196Y-376016892D01*
X40394535Y-376315192D01*
X40417715Y-376370335D01*
X40440124Y-376425800D01*
X40444451Y-376433937D01*
X40592972Y-376708621D01*
X40626417Y-376758205D01*
X40659177Y-376808268D01*
X40665001Y-376815409D01*
X40864047Y-377056013D01*
X40906482Y-377098154D01*
X40948346Y-377140903D01*
X40955446Y-377146777D01*
X41197435Y-377344138D01*
X41247259Y-377377241D01*
X41296615Y-377411036D01*
X41304721Y-377415419D01*
X41580435Y-377562019D01*
X41635704Y-377584799D01*
X41690724Y-377608381D01*
X41699527Y-377611105D01*
X41998465Y-377701359D01*
X42057138Y-377712976D01*
X42115655Y-377725415D01*
X42124820Y-377726378D01*
X42435594Y-377756850D01*
X42435598Y-377756850D01*
X42467581Y-377760000D01*
X44532419Y-377760000D01*
X44565986Y-377756694D01*
X44586744Y-377756694D01*
X44595909Y-377755731D01*
X44906228Y-377720923D01*
X44964731Y-377708487D01*
X45023419Y-377696867D01*
X45032222Y-377694142D01*
X45329870Y-377599723D01*
X45384792Y-377576183D01*
X45440159Y-377553363D01*
X45448265Y-377548979D01*
X45721904Y-377398544D01*
X45771217Y-377364779D01*
X45821088Y-377331645D01*
X45828188Y-377325770D01*
X46067397Y-377125049D01*
X46109241Y-377082320D01*
X46151694Y-377040162D01*
X46157519Y-377033020D01*
X46353185Y-376789660D01*
X46385938Y-376739608D01*
X46419391Y-376690013D01*
X46423714Y-376681881D01*
X46423717Y-376681877D01*
X46423719Y-376681873D01*
X46568388Y-376405146D01*
X46590785Y-376349711D01*
X46613978Y-376294539D01*
X46616641Y-376285717D01*
X46704807Y-375986156D01*
X46716007Y-375927440D01*
X46728045Y-375868798D01*
X46728944Y-375859627D01*
X46757245Y-375548647D01*
X46756827Y-375488830D01*
X46757245Y-375429012D01*
X46756345Y-375419841D01*
X46723704Y-375109285D01*
X46711680Y-375050709D01*
X46700468Y-374991930D01*
X46697804Y-374983108D01*
X46605465Y-374684808D01*
X46582280Y-374629653D01*
X46559876Y-374574200D01*
X46555549Y-374566064D01*
X46555549Y-374566063D01*
X46555546Y-374566059D01*
X46407028Y-374291379D01*
X46373583Y-374241795D01*
X46340823Y-374191732D01*
X46334999Y-374184591D01*
X46135954Y-373943987D01*
X46093535Y-373901863D01*
X46051655Y-373859097D01*
X46044554Y-373853223D01*
X45802565Y-373655862D01*
X45752741Y-373622759D01*
X45703385Y-373588964D01*
X45695279Y-373584581D01*
X45419566Y-373437981D01*
X45364269Y-373415189D01*
X45309275Y-373391619D01*
X45300472Y-373388895D01*
X45001535Y-373298641D01*
X44942862Y-373287024D01*
X44884345Y-373274585D01*
X44875180Y-373273622D01*
X44564405Y-373243150D01*
X44564402Y-373243150D01*
X44532419Y-373240000D01*
X42467581Y-373240000D01*
X42434014Y-373243306D01*
X42413256Y-373243306D01*
X42404091Y-373244269D01*
X42093771Y-373279077D01*
X42035298Y-373291506D01*
X41976581Y-373303132D01*
X41967778Y-373305858D01*
X41670130Y-373400277D01*
X41615147Y-373423843D01*
X41559841Y-373446638D01*
X41551735Y-373451021D01*
X41278095Y-373601456D01*
X41228748Y-373635245D01*
X41178913Y-373668355D01*
X41171812Y-373674229D01*
X40932603Y-373874951D01*
X40890759Y-373917681D01*
X40848305Y-373959839D01*
X40842481Y-373966980D01*
X40646814Y-374210340D01*
X40614055Y-374260400D01*
X40580609Y-374309986D01*
X40576283Y-374318123D01*
X40431612Y-374594854D01*
X40409215Y-374650289D01*
X40386022Y-374705461D01*
X40383359Y-374714283D01*
X40295193Y-375013844D01*
X40283993Y-375072560D01*
X40271955Y-375131202D01*
X40271056Y-375140373D01*
X40242755Y-375451353D01*
X10757088Y-375451353D01*
X10757245Y-375429012D01*
X10756345Y-375419841D01*
X10723704Y-375109285D01*
X10711680Y-375050709D01*
X10700468Y-374991930D01*
X10697804Y-374983108D01*
X10605465Y-374684808D01*
X10582280Y-374629653D01*
X10559876Y-374574200D01*
X10555549Y-374566064D01*
X10555549Y-374566063D01*
X10555546Y-374566059D01*
X10407028Y-374291379D01*
X10373583Y-374241795D01*
X10340823Y-374191732D01*
X10334999Y-374184591D01*
X10135954Y-373943987D01*
X10093535Y-373901863D01*
X10051655Y-373859097D01*
X10044554Y-373853223D01*
X9802565Y-373655862D01*
X9752741Y-373622759D01*
X9703385Y-373588964D01*
X9695279Y-373584581D01*
X9419566Y-373437981D01*
X9364269Y-373415189D01*
X9309275Y-373391619D01*
X9300472Y-373388895D01*
X9001535Y-373298641D01*
X8942862Y-373287024D01*
X8884345Y-373274585D01*
X8875180Y-373273622D01*
X8564405Y-373243150D01*
X8564402Y-373243150D01*
X8532419Y-373240000D01*
X6467581Y-373240000D01*
X6434014Y-373243306D01*
X6413256Y-373243306D01*
X6404091Y-373244269D01*
X6093771Y-373279077D01*
X6035298Y-373291506D01*
X5976581Y-373303132D01*
X5967778Y-373305858D01*
X5670130Y-373400277D01*
X5615147Y-373423843D01*
X5559841Y-373446638D01*
X5551735Y-373451021D01*
X5278095Y-373601456D01*
X5228748Y-373635245D01*
X5178913Y-373668355D01*
X5171812Y-373674229D01*
X4932603Y-373874951D01*
X4890759Y-373917681D01*
X4848305Y-373959839D01*
X4842481Y-373966980D01*
X4646814Y-374210340D01*
X4614055Y-374260400D01*
X4580609Y-374309986D01*
X4576283Y-374318123D01*
X4431612Y-374594854D01*
X4409215Y-374650289D01*
X4386022Y-374705461D01*
X4383359Y-374714283D01*
X4295193Y-375013844D01*
X4283993Y-375072560D01*
X4271955Y-375131202D01*
X4271056Y-375140373D01*
X4242755Y-375451353D01*
X660000Y-375451353D01*
X660000Y-285565784D01*
X20591332Y-285565784D01*
X20591332Y-286434216D01*
X20760754Y-287285961D01*
X21093089Y-288088288D01*
X21575564Y-288810362D01*
X22189638Y-289424436D01*
X22911712Y-289906911D01*
X23714039Y-290239246D01*
X24565784Y-290408668D01*
X25434216Y-290408668D01*
X26285961Y-290239246D01*
X27088288Y-289906911D01*
X27810362Y-289424436D01*
X28424436Y-288810362D01*
X28906911Y-288088288D01*
X29239246Y-287285961D01*
X29408668Y-286434216D01*
X29408668Y-285565784D01*
X29239246Y-284714039D01*
X28906911Y-283911712D01*
X28424436Y-283189638D01*
X27810362Y-282575564D01*
X27088288Y-282093089D01*
X26285961Y-281760754D01*
X25434216Y-281591332D01*
X24565784Y-281591332D01*
X23714039Y-281760754D01*
X22911712Y-282093089D01*
X22189638Y-282575564D01*
X21575564Y-283189638D01*
X21093089Y-283911712D01*
X20760754Y-284714039D01*
X20591332Y-285565784D01*
X660000Y-285565784D01*
X660000Y-271315784D01*
X4591332Y-271315784D01*
X4591332Y-272184216D01*
X4760754Y-273035961D01*
X5093089Y-273838288D01*
X5575564Y-274560362D01*
X6189638Y-275174436D01*
X6911712Y-275656911D01*
X7714039Y-275989246D01*
X8565784Y-276158668D01*
X9434216Y-276158668D01*
X10285961Y-275989246D01*
X11088288Y-275656911D01*
X11810362Y-275174436D01*
X12424436Y-274560362D01*
X12906911Y-273838288D01*
X13239246Y-273035961D01*
X13408668Y-272184216D01*
X13408668Y-271315784D01*
X36341332Y-271315784D01*
X36341332Y-272184216D01*
X36510754Y-273035961D01*
X36843089Y-273838288D01*
X37325564Y-274560362D01*
X37939638Y-275174436D01*
X38661712Y-275656911D01*
X39464039Y-275989246D01*
X40315784Y-276158668D01*
X41184216Y-276158668D01*
X42035961Y-275989246D01*
X42838288Y-275656911D01*
X43560362Y-275174436D01*
X44174436Y-274560362D01*
X44656911Y-273838288D01*
X44989246Y-273035961D01*
X45158668Y-272184216D01*
X45158668Y-271315784D01*
X44989246Y-270464039D01*
X44656911Y-269661712D01*
X44174436Y-268939638D01*
X43560362Y-268325564D01*
X42838288Y-267843089D01*
X42035961Y-267510754D01*
X41184216Y-267341332D01*
X40315784Y-267341332D01*
X39464039Y-267510754D01*
X38661712Y-267843089D01*
X37939638Y-268325564D01*
X37325564Y-268939638D01*
X36843089Y-269661712D01*
X36510754Y-270464039D01*
X36341332Y-271315784D01*
X13408668Y-271315784D01*
X13239246Y-270464039D01*
X12906911Y-269661712D01*
X12424436Y-268939638D01*
X11810362Y-268325564D01*
X11088288Y-267843089D01*
X10285961Y-267510754D01*
X9434216Y-267341332D01*
X8565784Y-267341332D01*
X7714039Y-267510754D01*
X6911712Y-267843089D01*
X6189638Y-268325564D01*
X5575564Y-268939638D01*
X5093089Y-269661712D01*
X4760754Y-270464039D01*
X4591332Y-271315784D01*
X660000Y-271315784D01*
X660000Y-253051353D01*
X4242755Y-253051353D01*
X4243173Y-253111171D01*
X4242755Y-253170988D01*
X4243655Y-253180160D01*
X4276296Y-253490715D01*
X4288320Y-253549291D01*
X4299532Y-253608070D01*
X4302196Y-253616892D01*
X4394535Y-253915192D01*
X4417715Y-253970335D01*
X4440124Y-254025800D01*
X4444451Y-254033937D01*
X4592972Y-254308621D01*
X4626417Y-254358205D01*
X4659177Y-254408268D01*
X4665001Y-254415409D01*
X4864047Y-254656013D01*
X4906482Y-254698154D01*
X4948346Y-254740903D01*
X4955446Y-254746777D01*
X5197435Y-254944138D01*
X5247259Y-254977241D01*
X5296615Y-255011036D01*
X5304721Y-255015419D01*
X5580435Y-255162019D01*
X5635704Y-255184799D01*
X5690724Y-255208381D01*
X5699527Y-255211105D01*
X5998465Y-255301359D01*
X6057138Y-255312976D01*
X6115655Y-255325415D01*
X6124820Y-255326378D01*
X6435594Y-255356850D01*
X6435598Y-255356850D01*
X6467581Y-255360000D01*
X8532419Y-255360000D01*
X8565986Y-255356694D01*
X8586744Y-255356694D01*
X8595909Y-255355731D01*
X8906228Y-255320923D01*
X8964731Y-255308487D01*
X9023419Y-255296867D01*
X9032222Y-255294142D01*
X9329870Y-255199723D01*
X9384792Y-255176183D01*
X9440159Y-255153363D01*
X9448265Y-255148979D01*
X9721904Y-254998544D01*
X9771217Y-254964779D01*
X9821088Y-254931645D01*
X9828188Y-254925770D01*
X10067397Y-254725049D01*
X10109241Y-254682320D01*
X10151694Y-254640162D01*
X10157519Y-254633020D01*
X10353185Y-254389660D01*
X10385938Y-254339608D01*
X10419391Y-254290013D01*
X10423714Y-254281881D01*
X10423717Y-254281877D01*
X10423719Y-254281873D01*
X10568388Y-254005146D01*
X10590785Y-253949711D01*
X10613978Y-253894539D01*
X10616641Y-253885717D01*
X10704807Y-253586156D01*
X10716007Y-253527440D01*
X10728045Y-253468798D01*
X10728944Y-253459627D01*
X10757245Y-253148647D01*
X10756827Y-253088830D01*
X10757088Y-253051353D01*
X40242755Y-253051353D01*
X40243173Y-253111171D01*
X40242755Y-253170988D01*
X40243655Y-253180160D01*
X40276296Y-253490715D01*
X40288320Y-253549291D01*
X40299532Y-253608070D01*
X40302196Y-253616892D01*
X40394535Y-253915192D01*
X40417715Y-253970335D01*
X40440124Y-254025800D01*
X40444451Y-254033937D01*
X40592972Y-254308621D01*
X40626417Y-254358205D01*
X40659177Y-254408268D01*
X40665001Y-254415409D01*
X40864047Y-254656013D01*
X40906482Y-254698154D01*
X40948346Y-254740903D01*
X40955446Y-254746777D01*
X41197435Y-254944138D01*
X41247259Y-254977241D01*
X41296615Y-255011036D01*
X41304721Y-255015419D01*
X41580435Y-255162019D01*
X41635704Y-255184799D01*
X41690724Y-255208381D01*
X41699527Y-255211105D01*
X41998465Y-255301359D01*
X42057138Y-255312976D01*
X42115655Y-255325415D01*
X42124820Y-255326378D01*
X42435594Y-255356850D01*
X42435598Y-255356850D01*
X42467581Y-255360000D01*
X44532419Y-255360000D01*
X44565986Y-255356694D01*
X44586744Y-255356694D01*
X44595909Y-255355731D01*
X44906228Y-255320923D01*
X44964731Y-255308487D01*
X45023419Y-255296867D01*
X45032222Y-255294142D01*
X45329870Y-255199723D01*
X45384792Y-255176183D01*
X45440159Y-255153363D01*
X45448265Y-255148979D01*
X45721904Y-254998544D01*
X45771217Y-254964779D01*
X45821088Y-254931645D01*
X45828188Y-254925770D01*
X46067397Y-254725049D01*
X46109241Y-254682320D01*
X46151694Y-254640162D01*
X46157519Y-254633020D01*
X46353185Y-254389660D01*
X46385938Y-254339608D01*
X46419391Y-254290013D01*
X46423714Y-254281881D01*
X46423717Y-254281877D01*
X46423719Y-254281873D01*
X46568388Y-254005146D01*
X46590785Y-253949711D01*
X46613978Y-253894539D01*
X46616641Y-253885717D01*
X46704807Y-253586156D01*
X46716007Y-253527440D01*
X46728045Y-253468798D01*
X46728944Y-253459627D01*
X46757245Y-253148647D01*
X46756827Y-253088830D01*
X46757245Y-253029012D01*
X46756345Y-253019841D01*
X46723704Y-252709285D01*
X46711680Y-252650709D01*
X46700468Y-252591930D01*
X46697804Y-252583108D01*
X46605465Y-252284808D01*
X46582280Y-252229653D01*
X46559876Y-252174200D01*
X46555549Y-252166064D01*
X46555549Y-252166063D01*
X46555546Y-252166059D01*
X46407028Y-251891379D01*
X46373583Y-251841795D01*
X46340823Y-251791732D01*
X46334999Y-251784591D01*
X46135954Y-251543987D01*
X46093535Y-251501863D01*
X46051655Y-251459097D01*
X46044554Y-251453223D01*
X45802565Y-251255862D01*
X45752741Y-251222759D01*
X45703385Y-251188964D01*
X45695279Y-251184581D01*
X45419566Y-251037981D01*
X45364269Y-251015189D01*
X45309275Y-250991619D01*
X45300472Y-250988895D01*
X45001535Y-250898641D01*
X44942862Y-250887024D01*
X44884345Y-250874585D01*
X44875180Y-250873622D01*
X44564405Y-250843150D01*
X44564402Y-250843150D01*
X44532419Y-250840000D01*
X42467581Y-250840000D01*
X42434014Y-250843306D01*
X42413256Y-250843306D01*
X42404091Y-250844269D01*
X42093771Y-250879077D01*
X42035298Y-250891506D01*
X41976581Y-250903132D01*
X41967778Y-250905858D01*
X41670130Y-251000277D01*
X41615147Y-251023843D01*
X41559841Y-251046638D01*
X41551735Y-251051021D01*
X41278095Y-251201456D01*
X41228748Y-251235245D01*
X41178913Y-251268355D01*
X41171812Y-251274229D01*
X40932603Y-251474951D01*
X40890759Y-251517681D01*
X40848305Y-251559839D01*
X40842481Y-251566980D01*
X40646814Y-251810340D01*
X40614055Y-251860400D01*
X40580609Y-251909986D01*
X40576283Y-251918123D01*
X40431612Y-252194854D01*
X40409215Y-252250289D01*
X40386022Y-252305461D01*
X40383359Y-252314283D01*
X40295193Y-252613844D01*
X40283993Y-252672560D01*
X40271955Y-252731202D01*
X40271056Y-252740373D01*
X40242755Y-253051353D01*
X10757088Y-253051353D01*
X10757245Y-253029012D01*
X10756345Y-253019841D01*
X10723704Y-252709285D01*
X10711680Y-252650709D01*
X10700468Y-252591930D01*
X10697804Y-252583108D01*
X10605465Y-252284808D01*
X10582280Y-252229653D01*
X10559876Y-252174200D01*
X10555549Y-252166064D01*
X10555549Y-252166063D01*
X10555546Y-252166059D01*
X10407028Y-251891379D01*
X10373583Y-251841795D01*
X10340823Y-251791732D01*
X10334999Y-251784591D01*
X10135954Y-251543987D01*
X10093535Y-251501863D01*
X10051655Y-251459097D01*
X10044554Y-251453223D01*
X9802565Y-251255862D01*
X9752741Y-251222759D01*
X9703385Y-251188964D01*
X9695279Y-251184581D01*
X9419566Y-251037981D01*
X9364269Y-251015189D01*
X9309275Y-250991619D01*
X9300472Y-250988895D01*
X9001535Y-250898641D01*
X8942862Y-250887024D01*
X8884345Y-250874585D01*
X8875180Y-250873622D01*
X8564405Y-250843150D01*
X8564402Y-250843150D01*
X8532419Y-250840000D01*
X6467581Y-250840000D01*
X6434014Y-250843306D01*
X6413256Y-250843306D01*
X6404091Y-250844269D01*
X6093771Y-250879077D01*
X6035298Y-250891506D01*
X5976581Y-250903132D01*
X5967778Y-250905858D01*
X5670130Y-251000277D01*
X5615147Y-251023843D01*
X5559841Y-251046638D01*
X5551735Y-251051021D01*
X5278095Y-251201456D01*
X5228748Y-251235245D01*
X5178913Y-251268355D01*
X5171812Y-251274229D01*
X4932603Y-251474951D01*
X4890759Y-251517681D01*
X4848305Y-251559839D01*
X4842481Y-251566980D01*
X4646814Y-251810340D01*
X4614055Y-251860400D01*
X4580609Y-251909986D01*
X4576283Y-251918123D01*
X4431612Y-252194854D01*
X4409215Y-252250289D01*
X4386022Y-252305461D01*
X4383359Y-252314283D01*
X4295193Y-252613844D01*
X4283993Y-252672560D01*
X4271955Y-252731202D01*
X4271056Y-252740373D01*
X4242755Y-253051353D01*
X660000Y-253051353D01*
X660000Y-250660000D01*
X49740000Y-250660000D01*
X49740001Y-377840000D01*
G37*
X49740001Y-377840000D02*
X660000Y-377840000D01*
X660000Y-375451353D01*
X4242755Y-375451353D01*
X4243173Y-375511171D01*
X4242755Y-375570988D01*
X4243655Y-375580160D01*
X4276296Y-375890715D01*
X4288320Y-375949291D01*
X4299532Y-376008070D01*
X4302196Y-376016892D01*
X4394535Y-376315192D01*
X4417715Y-376370335D01*
X4440124Y-376425800D01*
X4444451Y-376433937D01*
X4592972Y-376708621D01*
X4626417Y-376758205D01*
X4659177Y-376808268D01*
X4665001Y-376815409D01*
X4864047Y-377056013D01*
X4906482Y-377098154D01*
X4948346Y-377140903D01*
X4955446Y-377146777D01*
X5197435Y-377344138D01*
X5247259Y-377377241D01*
X5296615Y-377411036D01*
X5304721Y-377415419D01*
X5580435Y-377562019D01*
X5635704Y-377584799D01*
X5690724Y-377608381D01*
X5699527Y-377611105D01*
X5998465Y-377701359D01*
X6057138Y-377712976D01*
X6115655Y-377725415D01*
X6124820Y-377726378D01*
X6435594Y-377756850D01*
X6435598Y-377756850D01*
X6467581Y-377760000D01*
X8532419Y-377760000D01*
X8565986Y-377756694D01*
X8586744Y-377756694D01*
X8595909Y-377755731D01*
X8906228Y-377720923D01*
X8964731Y-377708487D01*
X9023419Y-377696867D01*
X9032222Y-377694142D01*
X9329870Y-377599723D01*
X9384792Y-377576183D01*
X9440159Y-377553363D01*
X9448265Y-377548979D01*
X9721904Y-377398544D01*
X9771217Y-377364779D01*
X9821088Y-377331645D01*
X9828188Y-377325770D01*
X10067397Y-377125049D01*
X10109241Y-377082320D01*
X10151694Y-377040162D01*
X10157519Y-377033020D01*
X10353185Y-376789660D01*
X10385938Y-376739608D01*
X10419391Y-376690013D01*
X10423714Y-376681881D01*
X10423717Y-376681877D01*
X10423719Y-376681873D01*
X10568388Y-376405146D01*
X10590785Y-376349711D01*
X10613978Y-376294539D01*
X10616641Y-376285717D01*
X10704807Y-375986156D01*
X10716007Y-375927440D01*
X10728045Y-375868798D01*
X10728944Y-375859627D01*
X10757245Y-375548647D01*
X10756827Y-375488830D01*
X10757088Y-375451353D01*
X40242755Y-375451353D01*
X40243173Y-375511171D01*
X40242755Y-375570988D01*
X40243655Y-375580160D01*
X40276296Y-375890715D01*
X40288320Y-375949291D01*
X40299532Y-376008070D01*
X40302196Y-376016892D01*
X40394535Y-376315192D01*
X40417715Y-376370335D01*
X40440124Y-376425800D01*
X40444451Y-376433937D01*
X40592972Y-376708621D01*
X40626417Y-376758205D01*
X40659177Y-376808268D01*
X40665001Y-376815409D01*
X40864047Y-377056013D01*
X40906482Y-377098154D01*
X40948346Y-377140903D01*
X40955446Y-377146777D01*
X41197435Y-377344138D01*
X41247259Y-377377241D01*
X41296615Y-377411036D01*
X41304721Y-377415419D01*
X41580435Y-377562019D01*
X41635704Y-377584799D01*
X41690724Y-377608381D01*
X41699527Y-377611105D01*
X41998465Y-377701359D01*
X42057138Y-377712976D01*
X42115655Y-377725415D01*
X42124820Y-377726378D01*
X42435594Y-377756850D01*
X42435598Y-377756850D01*
X42467581Y-377760000D01*
X44532419Y-377760000D01*
X44565986Y-377756694D01*
X44586744Y-377756694D01*
X44595909Y-377755731D01*
X44906228Y-377720923D01*
X44964731Y-377708487D01*
X45023419Y-377696867D01*
X45032222Y-377694142D01*
X45329870Y-377599723D01*
X45384792Y-377576183D01*
X45440159Y-377553363D01*
X45448265Y-377548979D01*
X45721904Y-377398544D01*
X45771217Y-377364779D01*
X45821088Y-377331645D01*
X45828188Y-377325770D01*
X46067397Y-377125049D01*
X46109241Y-377082320D01*
X46151694Y-377040162D01*
X46157519Y-377033020D01*
X46353185Y-376789660D01*
X46385938Y-376739608D01*
X46419391Y-376690013D01*
X46423714Y-376681881D01*
X46423717Y-376681877D01*
X46423719Y-376681873D01*
X46568388Y-376405146D01*
X46590785Y-376349711D01*
X46613978Y-376294539D01*
X46616641Y-376285717D01*
X46704807Y-375986156D01*
X46716007Y-375927440D01*
X46728045Y-375868798D01*
X46728944Y-375859627D01*
X46757245Y-375548647D01*
X46756827Y-375488830D01*
X46757245Y-375429012D01*
X46756345Y-375419841D01*
X46723704Y-375109285D01*
X46711680Y-375050709D01*
X46700468Y-374991930D01*
X46697804Y-374983108D01*
X46605465Y-374684808D01*
X46582280Y-374629653D01*
X46559876Y-374574200D01*
X46555549Y-374566064D01*
X46555549Y-374566063D01*
X46555546Y-374566059D01*
X46407028Y-374291379D01*
X46373583Y-374241795D01*
X46340823Y-374191732D01*
X46334999Y-374184591D01*
X46135954Y-373943987D01*
X46093535Y-373901863D01*
X46051655Y-373859097D01*
X46044554Y-373853223D01*
X45802565Y-373655862D01*
X45752741Y-373622759D01*
X45703385Y-373588964D01*
X45695279Y-373584581D01*
X45419566Y-373437981D01*
X45364269Y-373415189D01*
X45309275Y-373391619D01*
X45300472Y-373388895D01*
X45001535Y-373298641D01*
X44942862Y-373287024D01*
X44884345Y-373274585D01*
X44875180Y-373273622D01*
X44564405Y-373243150D01*
X44564402Y-373243150D01*
X44532419Y-373240000D01*
X42467581Y-373240000D01*
X42434014Y-373243306D01*
X42413256Y-373243306D01*
X42404091Y-373244269D01*
X42093771Y-373279077D01*
X42035298Y-373291506D01*
X41976581Y-373303132D01*
X41967778Y-373305858D01*
X41670130Y-373400277D01*
X41615147Y-373423843D01*
X41559841Y-373446638D01*
X41551735Y-373451021D01*
X41278095Y-373601456D01*
X41228748Y-373635245D01*
X41178913Y-373668355D01*
X41171812Y-373674229D01*
X40932603Y-373874951D01*
X40890759Y-373917681D01*
X40848305Y-373959839D01*
X40842481Y-373966980D01*
X40646814Y-374210340D01*
X40614055Y-374260400D01*
X40580609Y-374309986D01*
X40576283Y-374318123D01*
X40431612Y-374594854D01*
X40409215Y-374650289D01*
X40386022Y-374705461D01*
X40383359Y-374714283D01*
X40295193Y-375013844D01*
X40283993Y-375072560D01*
X40271955Y-375131202D01*
X40271056Y-375140373D01*
X40242755Y-375451353D01*
X10757088Y-375451353D01*
X10757245Y-375429012D01*
X10756345Y-375419841D01*
X10723704Y-375109285D01*
X10711680Y-375050709D01*
X10700468Y-374991930D01*
X10697804Y-374983108D01*
X10605465Y-374684808D01*
X10582280Y-374629653D01*
X10559876Y-374574200D01*
X10555549Y-374566064D01*
X10555549Y-374566063D01*
X10555546Y-374566059D01*
X10407028Y-374291379D01*
X10373583Y-374241795D01*
X10340823Y-374191732D01*
X10334999Y-374184591D01*
X10135954Y-373943987D01*
X10093535Y-373901863D01*
X10051655Y-373859097D01*
X10044554Y-373853223D01*
X9802565Y-373655862D01*
X9752741Y-373622759D01*
X9703385Y-373588964D01*
X9695279Y-373584581D01*
X9419566Y-373437981D01*
X9364269Y-373415189D01*
X9309275Y-373391619D01*
X9300472Y-373388895D01*
X9001535Y-373298641D01*
X8942862Y-373287024D01*
X8884345Y-373274585D01*
X8875180Y-373273622D01*
X8564405Y-373243150D01*
X8564402Y-373243150D01*
X8532419Y-373240000D01*
X6467581Y-373240000D01*
X6434014Y-373243306D01*
X6413256Y-373243306D01*
X6404091Y-373244269D01*
X6093771Y-373279077D01*
X6035298Y-373291506D01*
X5976581Y-373303132D01*
X5967778Y-373305858D01*
X5670130Y-373400277D01*
X5615147Y-373423843D01*
X5559841Y-373446638D01*
X5551735Y-373451021D01*
X5278095Y-373601456D01*
X5228748Y-373635245D01*
X5178913Y-373668355D01*
X5171812Y-373674229D01*
X4932603Y-373874951D01*
X4890759Y-373917681D01*
X4848305Y-373959839D01*
X4842481Y-373966980D01*
X4646814Y-374210340D01*
X4614055Y-374260400D01*
X4580609Y-374309986D01*
X4576283Y-374318123D01*
X4431612Y-374594854D01*
X4409215Y-374650289D01*
X4386022Y-374705461D01*
X4383359Y-374714283D01*
X4295193Y-375013844D01*
X4283993Y-375072560D01*
X4271955Y-375131202D01*
X4271056Y-375140373D01*
X4242755Y-375451353D01*
X660000Y-375451353D01*
X660000Y-285565784D01*
X20591332Y-285565784D01*
X20591332Y-286434216D01*
X20760754Y-287285961D01*
X21093089Y-288088288D01*
X21575564Y-288810362D01*
X22189638Y-289424436D01*
X22911712Y-289906911D01*
X23714039Y-290239246D01*
X24565784Y-290408668D01*
X25434216Y-290408668D01*
X26285961Y-290239246D01*
X27088288Y-289906911D01*
X27810362Y-289424436D01*
X28424436Y-288810362D01*
X28906911Y-288088288D01*
X29239246Y-287285961D01*
X29408668Y-286434216D01*
X29408668Y-285565784D01*
X29239246Y-284714039D01*
X28906911Y-283911712D01*
X28424436Y-283189638D01*
X27810362Y-282575564D01*
X27088288Y-282093089D01*
X26285961Y-281760754D01*
X25434216Y-281591332D01*
X24565784Y-281591332D01*
X23714039Y-281760754D01*
X22911712Y-282093089D01*
X22189638Y-282575564D01*
X21575564Y-283189638D01*
X21093089Y-283911712D01*
X20760754Y-284714039D01*
X20591332Y-285565784D01*
X660000Y-285565784D01*
X660000Y-271315784D01*
X4591332Y-271315784D01*
X4591332Y-272184216D01*
X4760754Y-273035961D01*
X5093089Y-273838288D01*
X5575564Y-274560362D01*
X6189638Y-275174436D01*
X6911712Y-275656911D01*
X7714039Y-275989246D01*
X8565784Y-276158668D01*
X9434216Y-276158668D01*
X10285961Y-275989246D01*
X11088288Y-275656911D01*
X11810362Y-275174436D01*
X12424436Y-274560362D01*
X12906911Y-273838288D01*
X13239246Y-273035961D01*
X13408668Y-272184216D01*
X13408668Y-271315784D01*
X36341332Y-271315784D01*
X36341332Y-272184216D01*
X36510754Y-273035961D01*
X36843089Y-273838288D01*
X37325564Y-274560362D01*
X37939638Y-275174436D01*
X38661712Y-275656911D01*
X39464039Y-275989246D01*
X40315784Y-276158668D01*
X41184216Y-276158668D01*
X42035961Y-275989246D01*
X42838288Y-275656911D01*
X43560362Y-275174436D01*
X44174436Y-274560362D01*
X44656911Y-273838288D01*
X44989246Y-273035961D01*
X45158668Y-272184216D01*
X45158668Y-271315784D01*
X44989246Y-270464039D01*
X44656911Y-269661712D01*
X44174436Y-268939638D01*
X43560362Y-268325564D01*
X42838288Y-267843089D01*
X42035961Y-267510754D01*
X41184216Y-267341332D01*
X40315784Y-267341332D01*
X39464039Y-267510754D01*
X38661712Y-267843089D01*
X37939638Y-268325564D01*
X37325564Y-268939638D01*
X36843089Y-269661712D01*
X36510754Y-270464039D01*
X36341332Y-271315784D01*
X13408668Y-271315784D01*
X13239246Y-270464039D01*
X12906911Y-269661712D01*
X12424436Y-268939638D01*
X11810362Y-268325564D01*
X11088288Y-267843089D01*
X10285961Y-267510754D01*
X9434216Y-267341332D01*
X8565784Y-267341332D01*
X7714039Y-267510754D01*
X6911712Y-267843089D01*
X6189638Y-268325564D01*
X5575564Y-268939638D01*
X5093089Y-269661712D01*
X4760754Y-270464039D01*
X4591332Y-271315784D01*
X660000Y-271315784D01*
X660000Y-253051353D01*
X4242755Y-253051353D01*
X4243173Y-253111171D01*
X4242755Y-253170988D01*
X4243655Y-253180160D01*
X4276296Y-253490715D01*
X4288320Y-253549291D01*
X4299532Y-253608070D01*
X4302196Y-253616892D01*
X4394535Y-253915192D01*
X4417715Y-253970335D01*
X4440124Y-254025800D01*
X4444451Y-254033937D01*
X4592972Y-254308621D01*
X4626417Y-254358205D01*
X4659177Y-254408268D01*
X4665001Y-254415409D01*
X4864047Y-254656013D01*
X4906482Y-254698154D01*
X4948346Y-254740903D01*
X4955446Y-254746777D01*
X5197435Y-254944138D01*
X5247259Y-254977241D01*
X5296615Y-255011036D01*
X5304721Y-255015419D01*
X5580435Y-255162019D01*
X5635704Y-255184799D01*
X5690724Y-255208381D01*
X5699527Y-255211105D01*
X5998465Y-255301359D01*
X6057138Y-255312976D01*
X6115655Y-255325415D01*
X6124820Y-255326378D01*
X6435594Y-255356850D01*
X6435598Y-255356850D01*
X6467581Y-255360000D01*
X8532419Y-255360000D01*
X8565986Y-255356694D01*
X8586744Y-255356694D01*
X8595909Y-255355731D01*
X8906228Y-255320923D01*
X8964731Y-255308487D01*
X9023419Y-255296867D01*
X9032222Y-255294142D01*
X9329870Y-255199723D01*
X9384792Y-255176183D01*
X9440159Y-255153363D01*
X9448265Y-255148979D01*
X9721904Y-254998544D01*
X9771217Y-254964779D01*
X9821088Y-254931645D01*
X9828188Y-254925770D01*
X10067397Y-254725049D01*
X10109241Y-254682320D01*
X10151694Y-254640162D01*
X10157519Y-254633020D01*
X10353185Y-254389660D01*
X10385938Y-254339608D01*
X10419391Y-254290013D01*
X10423714Y-254281881D01*
X10423717Y-254281877D01*
X10423719Y-254281873D01*
X10568388Y-254005146D01*
X10590785Y-253949711D01*
X10613978Y-253894539D01*
X10616641Y-253885717D01*
X10704807Y-253586156D01*
X10716007Y-253527440D01*
X10728045Y-253468798D01*
X10728944Y-253459627D01*
X10757245Y-253148647D01*
X10756827Y-253088830D01*
X10757088Y-253051353D01*
X40242755Y-253051353D01*
X40243173Y-253111171D01*
X40242755Y-253170988D01*
X40243655Y-253180160D01*
X40276296Y-253490715D01*
X40288320Y-253549291D01*
X40299532Y-253608070D01*
X40302196Y-253616892D01*
X40394535Y-253915192D01*
X40417715Y-253970335D01*
X40440124Y-254025800D01*
X40444451Y-254033937D01*
X40592972Y-254308621D01*
X40626417Y-254358205D01*
X40659177Y-254408268D01*
X40665001Y-254415409D01*
X40864047Y-254656013D01*
X40906482Y-254698154D01*
X40948346Y-254740903D01*
X40955446Y-254746777D01*
X41197435Y-254944138D01*
X41247259Y-254977241D01*
X41296615Y-255011036D01*
X41304721Y-255015419D01*
X41580435Y-255162019D01*
X41635704Y-255184799D01*
X41690724Y-255208381D01*
X41699527Y-255211105D01*
X41998465Y-255301359D01*
X42057138Y-255312976D01*
X42115655Y-255325415D01*
X42124820Y-255326378D01*
X42435594Y-255356850D01*
X42435598Y-255356850D01*
X42467581Y-255360000D01*
X44532419Y-255360000D01*
X44565986Y-255356694D01*
X44586744Y-255356694D01*
X44595909Y-255355731D01*
X44906228Y-255320923D01*
X44964731Y-255308487D01*
X45023419Y-255296867D01*
X45032222Y-255294142D01*
X45329870Y-255199723D01*
X45384792Y-255176183D01*
X45440159Y-255153363D01*
X45448265Y-255148979D01*
X45721904Y-254998544D01*
X45771217Y-254964779D01*
X45821088Y-254931645D01*
X45828188Y-254925770D01*
X46067397Y-254725049D01*
X46109241Y-254682320D01*
X46151694Y-254640162D01*
X46157519Y-254633020D01*
X46353185Y-254389660D01*
X46385938Y-254339608D01*
X46419391Y-254290013D01*
X46423714Y-254281881D01*
X46423717Y-254281877D01*
X46423719Y-254281873D01*
X46568388Y-254005146D01*
X46590785Y-253949711D01*
X46613978Y-253894539D01*
X46616641Y-253885717D01*
X46704807Y-253586156D01*
X46716007Y-253527440D01*
X46728045Y-253468798D01*
X46728944Y-253459627D01*
X46757245Y-253148647D01*
X46756827Y-253088830D01*
X46757245Y-253029012D01*
X46756345Y-253019841D01*
X46723704Y-252709285D01*
X46711680Y-252650709D01*
X46700468Y-252591930D01*
X46697804Y-252583108D01*
X46605465Y-252284808D01*
X46582280Y-252229653D01*
X46559876Y-252174200D01*
X46555549Y-252166064D01*
X46555549Y-252166063D01*
X46555546Y-252166059D01*
X46407028Y-251891379D01*
X46373583Y-251841795D01*
X46340823Y-251791732D01*
X46334999Y-251784591D01*
X46135954Y-251543987D01*
X46093535Y-251501863D01*
X46051655Y-251459097D01*
X46044554Y-251453223D01*
X45802565Y-251255862D01*
X45752741Y-251222759D01*
X45703385Y-251188964D01*
X45695279Y-251184581D01*
X45419566Y-251037981D01*
X45364269Y-251015189D01*
X45309275Y-250991619D01*
X45300472Y-250988895D01*
X45001535Y-250898641D01*
X44942862Y-250887024D01*
X44884345Y-250874585D01*
X44875180Y-250873622D01*
X44564405Y-250843150D01*
X44564402Y-250843150D01*
X44532419Y-250840000D01*
X42467581Y-250840000D01*
X42434014Y-250843306D01*
X42413256Y-250843306D01*
X42404091Y-250844269D01*
X42093771Y-250879077D01*
X42035298Y-250891506D01*
X41976581Y-250903132D01*
X41967778Y-250905858D01*
X41670130Y-251000277D01*
X41615147Y-251023843D01*
X41559841Y-251046638D01*
X41551735Y-251051021D01*
X41278095Y-251201456D01*
X41228748Y-251235245D01*
X41178913Y-251268355D01*
X41171812Y-251274229D01*
X40932603Y-251474951D01*
X40890759Y-251517681D01*
X40848305Y-251559839D01*
X40842481Y-251566980D01*
X40646814Y-251810340D01*
X40614055Y-251860400D01*
X40580609Y-251909986D01*
X40576283Y-251918123D01*
X40431612Y-252194854D01*
X40409215Y-252250289D01*
X40386022Y-252305461D01*
X40383359Y-252314283D01*
X40295193Y-252613844D01*
X40283993Y-252672560D01*
X40271955Y-252731202D01*
X40271056Y-252740373D01*
X40242755Y-253051353D01*
X10757088Y-253051353D01*
X10757245Y-253029012D01*
X10756345Y-253019841D01*
X10723704Y-252709285D01*
X10711680Y-252650709D01*
X10700468Y-252591930D01*
X10697804Y-252583108D01*
X10605465Y-252284808D01*
X10582280Y-252229653D01*
X10559876Y-252174200D01*
X10555549Y-252166064D01*
X10555549Y-252166063D01*
X10555546Y-252166059D01*
X10407028Y-251891379D01*
X10373583Y-251841795D01*
X10340823Y-251791732D01*
X10334999Y-251784591D01*
X10135954Y-251543987D01*
X10093535Y-251501863D01*
X10051655Y-251459097D01*
X10044554Y-251453223D01*
X9802565Y-251255862D01*
X9752741Y-251222759D01*
X9703385Y-251188964D01*
X9695279Y-251184581D01*
X9419566Y-251037981D01*
X9364269Y-251015189D01*
X9309275Y-250991619D01*
X9300472Y-250988895D01*
X9001535Y-250898641D01*
X8942862Y-250887024D01*
X8884345Y-250874585D01*
X8875180Y-250873622D01*
X8564405Y-250843150D01*
X8564402Y-250843150D01*
X8532419Y-250840000D01*
X6467581Y-250840000D01*
X6434014Y-250843306D01*
X6413256Y-250843306D01*
X6404091Y-250844269D01*
X6093771Y-250879077D01*
X6035298Y-250891506D01*
X5976581Y-250903132D01*
X5967778Y-250905858D01*
X5670130Y-251000277D01*
X5615147Y-251023843D01*
X5559841Y-251046638D01*
X5551735Y-251051021D01*
X5278095Y-251201456D01*
X5228748Y-251235245D01*
X5178913Y-251268355D01*
X5171812Y-251274229D01*
X4932603Y-251474951D01*
X4890759Y-251517681D01*
X4848305Y-251559839D01*
X4842481Y-251566980D01*
X4646814Y-251810340D01*
X4614055Y-251860400D01*
X4580609Y-251909986D01*
X4576283Y-251918123D01*
X4431612Y-252194854D01*
X4409215Y-252250289D01*
X4386022Y-252305461D01*
X4383359Y-252314283D01*
X4295193Y-252613844D01*
X4283993Y-252672560D01*
X4271955Y-252731202D01*
X4271056Y-252740373D01*
X4242755Y-253051353D01*
X660000Y-253051353D01*
X660000Y-250660000D01*
X49740000Y-250660000D01*
X49740001Y-377840000D01*
M02*
