M48
; DRILL file {KiCad (5.1.5-0)} date Tuesday, January 12, 2021 at 10:35:13 PM
; FORMAT={2:4/ absolute / inch / keep zeros}
; #@! TF.CreationDate,2021-01-12T22:35:13-08:00
; #@! TF.GenerationSoftware,Kicad,Pcbnew,(5.1.5-0)
FMAT,2
INCH
T1C0.1181
T2C0.2362
%
G90
G05
T1
X003543Y-112500
X006594Y-115354
X012992Y-109843
X012992Y-115354
X009843Y-119291
X009843Y-106201
X006693Y-109843
X016142Y-112500
T2
X003543Y-119193
X016929Y-139764
X002756Y-139764
X016142Y-119193
X007480Y-139764
X016929Y-132874
X012205Y-139764
X012205Y-132874
X007480Y-125787
X002756Y-132874
X007480Y-132874
X012205Y-125787
X016929Y-125787
X002756Y-125787
T0
M30
