M48
; DRILL file {KiCad (5.1.5-0)} date Friday, January 08, 2021 at 11:46:19 AM
; FORMAT={2:4/ absolute / inch / keep zeros}
; #@! TF.CreationDate,2021-01-08T11:46:19-08:00
; #@! TF.GenerationSoftware,Kicad,Pcbnew,(5.1.5-0)
FMAT,2
INCH
T1C0.1181
T2C0.2362
%
G90
G05
T1
X012992Y-115354
X003543Y-112500
X009843Y-119291
X006594Y-115354
X012992Y-109843
X009843Y-106201
X006693Y-109843
X016142Y-112500
T2
X012205Y-139764
X016929Y-139764
X002756Y-139764
X016142Y-119193
X003543Y-119193
X007480Y-139764
X007480Y-132874
X002756Y-132874
X012205Y-125787
X012205Y-132874
X016929Y-125787
X016929Y-132874
X002756Y-125787
X007480Y-125787
T0
M30
