G04 #@! TF.GenerationSoftware,KiCad,Pcbnew,(5.1.5-0)*
G04 #@! TF.CreationDate,2021-01-20T00:07:58-08:00*
G04 #@! TF.ProjectId,doof,646f6f66-2e6b-4696-9361-645f70636258,rev?*
G04 #@! TF.SameCoordinates,Original*
G04 #@! TF.FileFunction,Legend,Top*
G04 #@! TF.FilePolarity,Positive*
%FSLAX46Y46*%
G04 Gerber Fmt 4.6, Leading zero omitted, Abs format (unit mm)*
G04 Created by KiCad (PCBNEW (5.1.5-0)) date 2021-01-20 00:07:58*
%MOMM*%
%LPD*%
G04 APERTURE LIST*
%ADD10C,0.200000*%
%ADD11C,0.400000*%
G04 APERTURE END LIST*
D10*
X23761904Y-90464285D02*
X23666666Y-90559523D01*
X23380952Y-90654761D01*
X23190476Y-90654761D01*
X22904761Y-90559523D01*
X22714285Y-90369047D01*
X22619047Y-90178571D01*
X22523809Y-89797619D01*
X22523809Y-89511904D01*
X22619047Y-89130952D01*
X22714285Y-88940476D01*
X22904761Y-88750000D01*
X23190476Y-88654761D01*
X23380952Y-88654761D01*
X23666666Y-88750000D01*
X23761904Y-88845238D01*
X24333333Y-88654761D02*
X25000000Y-90654761D01*
X25666666Y-88654761D01*
X26333333Y-90654761D02*
X26333333Y-88654761D01*
X26809523Y-88654761D01*
X27095238Y-88750000D01*
X27285714Y-88940476D01*
X27380952Y-89130952D01*
X27476190Y-89511904D01*
X27476190Y-89797619D01*
X27380952Y-90178571D01*
X27285714Y-90369047D01*
X27095238Y-90559523D01*
X26809523Y-90654761D01*
X26333333Y-90654761D01*
X3952380Y-90654761D02*
X3952380Y-88654761D01*
X4904761Y-90654761D02*
X4904761Y-88654761D01*
X6047619Y-90654761D01*
X6047619Y-88654761D01*
D11*
X13297619Y-5059523D02*
X13297619Y-1059523D01*
X14250000Y-1059523D01*
X14821428Y-1250000D01*
X15202380Y-1630952D01*
X15392857Y-2011904D01*
X15583333Y-2773809D01*
X15583333Y-3345238D01*
X15392857Y-4107142D01*
X15202380Y-4488095D01*
X14821428Y-4869047D01*
X14250000Y-5059523D01*
X13297619Y-5059523D01*
X18059523Y-1059523D02*
X18821428Y-1059523D01*
X19202380Y-1250000D01*
X19583333Y-1630952D01*
X19773809Y-2392857D01*
X19773809Y-3726190D01*
X19583333Y-4488095D01*
X19202380Y-4869047D01*
X18821428Y-5059523D01*
X18059523Y-5059523D01*
X17678571Y-4869047D01*
X17297619Y-4488095D01*
X17107142Y-3726190D01*
X17107142Y-2392857D01*
X17297619Y-1630952D01*
X17678571Y-1250000D01*
X18059523Y-1059523D01*
X22250000Y-1059523D02*
X23011904Y-1059523D01*
X23392857Y-1250000D01*
X23773809Y-1630952D01*
X23964285Y-2392857D01*
X23964285Y-3726190D01*
X23773809Y-4488095D01*
X23392857Y-4869047D01*
X23011904Y-5059523D01*
X22250000Y-5059523D01*
X21869047Y-4869047D01*
X21488095Y-4488095D01*
X21297619Y-3726190D01*
X21297619Y-2392857D01*
X21488095Y-1630952D01*
X21869047Y-1250000D01*
X22250000Y-1059523D01*
X27011904Y-2964285D02*
X25678571Y-2964285D01*
X25678571Y-5059523D02*
X25678571Y-1059523D01*
X27583333Y-1059523D01*
D10*
X25619047Y-33809523D02*
X25904761Y-33904761D01*
X26380952Y-33904761D01*
X26571428Y-33809523D01*
X26666666Y-33714285D01*
X26761904Y-33523809D01*
X26761904Y-33333333D01*
X26666666Y-33142857D01*
X26571428Y-33047619D01*
X26380952Y-32952380D01*
X26000000Y-32857142D01*
X25809523Y-32761904D01*
X25714285Y-32666666D01*
X25619047Y-32476190D01*
X25619047Y-32285714D01*
X25714285Y-32095238D01*
X25809523Y-32000000D01*
X26000000Y-31904761D01*
X26476190Y-31904761D01*
X26761904Y-32000000D01*
X27619047Y-33904761D02*
X27619047Y-31904761D01*
X27619047Y-32857142D02*
X28761904Y-32857142D01*
X28761904Y-33904761D02*
X28761904Y-31904761D01*
X29619047Y-33333333D02*
X30571428Y-33333333D01*
X29428571Y-33904761D02*
X30095238Y-31904761D01*
X30761904Y-33904761D01*
X31428571Y-33904761D02*
X31428571Y-31904761D01*
X32190476Y-31904761D01*
X32380952Y-32000000D01*
X32476190Y-32095238D01*
X32571428Y-32285714D01*
X32571428Y-32571428D01*
X32476190Y-32761904D01*
X32380952Y-32857142D01*
X32190476Y-32952380D01*
X31428571Y-32952380D01*
X33428571Y-32857142D02*
X34095238Y-32857142D01*
X34380952Y-33904761D02*
X33428571Y-33904761D01*
X33428571Y-31904761D01*
X34380952Y-31904761D01*
X25857142Y-17154761D02*
X25857142Y-15154761D01*
X26333333Y-15154761D01*
X26619047Y-15250000D01*
X26809523Y-15440476D01*
X26904761Y-15630952D01*
X27000000Y-16011904D01*
X27000000Y-16297619D01*
X26904761Y-16678571D01*
X26809523Y-16869047D01*
X26619047Y-17059523D01*
X26333333Y-17154761D01*
X25857142Y-17154761D01*
X27857142Y-16107142D02*
X28523809Y-16107142D01*
X28809523Y-17154761D02*
X27857142Y-17154761D01*
X27857142Y-15154761D01*
X28809523Y-15154761D01*
X30809523Y-16964285D02*
X30714285Y-17059523D01*
X30428571Y-17154761D01*
X30238095Y-17154761D01*
X29952380Y-17059523D01*
X29761904Y-16869047D01*
X29666666Y-16678571D01*
X29571428Y-16297619D01*
X29571428Y-16011904D01*
X29666666Y-15630952D01*
X29761904Y-15440476D01*
X29952380Y-15250000D01*
X30238095Y-15154761D01*
X30428571Y-15154761D01*
X30714285Y-15250000D01*
X30809523Y-15345238D01*
X31571428Y-16583333D02*
X32523809Y-16583333D01*
X31380952Y-17154761D02*
X32047619Y-15154761D01*
X32714285Y-17154761D01*
X33761904Y-16202380D02*
X33761904Y-17154761D01*
X33095238Y-15154761D02*
X33761904Y-16202380D01*
X34428571Y-15154761D01*
X7083333Y-16107142D02*
X6416666Y-16107142D01*
X6416666Y-17154761D02*
X6416666Y-15154761D01*
X7369047Y-15154761D01*
X9273809Y-17154761D02*
X8607142Y-16202380D01*
X8130952Y-17154761D02*
X8130952Y-15154761D01*
X8892857Y-15154761D01*
X9083333Y-15250000D01*
X9178571Y-15345238D01*
X9273809Y-15535714D01*
X9273809Y-15821428D01*
X9178571Y-16011904D01*
X9083333Y-16107142D01*
X8892857Y-16202380D01*
X8130952Y-16202380D01*
X10130952Y-16107142D02*
X10797619Y-16107142D01*
X11083333Y-17154761D02*
X10130952Y-17154761D01*
X10130952Y-15154761D01*
X11083333Y-15154761D01*
X13273809Y-17345238D02*
X13083333Y-17250000D01*
X12892857Y-17059523D01*
X12607142Y-16773809D01*
X12416666Y-16678571D01*
X12226190Y-16678571D01*
X12321428Y-17154761D02*
X12130952Y-17059523D01*
X11940476Y-16869047D01*
X11845238Y-16488095D01*
X11845238Y-15821428D01*
X11940476Y-15440476D01*
X12130952Y-15250000D01*
X12321428Y-15154761D01*
X12702380Y-15154761D01*
X12892857Y-15250000D01*
X13083333Y-15440476D01*
X13178571Y-15821428D01*
X13178571Y-16488095D01*
X13083333Y-16869047D01*
X12892857Y-17059523D01*
X12702380Y-17154761D01*
X12321428Y-17154761D01*
X7416666Y-32857142D02*
X8083333Y-32857142D01*
X8369047Y-33904761D02*
X7416666Y-33904761D01*
X7416666Y-31904761D01*
X8369047Y-31904761D01*
X9226190Y-33904761D02*
X9226190Y-31904761D01*
X10369047Y-33904761D01*
X10369047Y-31904761D01*
X11035714Y-31904761D02*
X11702380Y-33904761D01*
X12369047Y-31904761D01*
X8654761Y-49714285D02*
X8559523Y-49809523D01*
X8273809Y-49904761D01*
X8083333Y-49904761D01*
X7797619Y-49809523D01*
X7607142Y-49619047D01*
X7511904Y-49428571D01*
X7416666Y-49047619D01*
X7416666Y-48761904D01*
X7511904Y-48380952D01*
X7607142Y-48190476D01*
X7797619Y-48000000D01*
X8083333Y-47904761D01*
X8273809Y-47904761D01*
X8559523Y-48000000D01*
X8654761Y-48095238D01*
X9226190Y-47904761D02*
X9892857Y-49904761D01*
X10559523Y-47904761D01*
X11892857Y-48857142D02*
X11226190Y-48857142D01*
X11226190Y-49904761D02*
X11226190Y-47904761D01*
X12178571Y-47904761D01*
X33000000Y-88654761D02*
X33380952Y-88654761D01*
X33571428Y-88750000D01*
X33761904Y-88940476D01*
X33857142Y-89321428D01*
X33857142Y-89988095D01*
X33761904Y-90369047D01*
X33571428Y-90559523D01*
X33380952Y-90654761D01*
X33000000Y-90654761D01*
X32809523Y-90559523D01*
X32619047Y-90369047D01*
X32523809Y-89988095D01*
X32523809Y-89321428D01*
X32619047Y-88940476D01*
X32809523Y-88750000D01*
X33000000Y-88654761D01*
X34714285Y-88654761D02*
X34714285Y-90273809D01*
X34809523Y-90464285D01*
X34904761Y-90559523D01*
X35095238Y-90654761D01*
X35476190Y-90654761D01*
X35666666Y-90559523D01*
X35761904Y-90464285D01*
X35857142Y-90273809D01*
X35857142Y-88654761D01*
X36523809Y-88654761D02*
X37666666Y-88654761D01*
X37095238Y-90654761D02*
X37095238Y-88654761D01*
X13654761Y-90464285D02*
X13559523Y-90559523D01*
X13273809Y-90654761D01*
X13083333Y-90654761D01*
X12797619Y-90559523D01*
X12607142Y-90369047D01*
X12511904Y-90178571D01*
X12416666Y-89797619D01*
X12416666Y-89511904D01*
X12511904Y-89130952D01*
X12607142Y-88940476D01*
X12797619Y-88750000D01*
X13083333Y-88654761D01*
X13273809Y-88654761D01*
X13559523Y-88750000D01*
X13654761Y-88845238D01*
X14226190Y-88654761D02*
X14892857Y-90654761D01*
X15559523Y-88654761D01*
X16892857Y-89607142D02*
X16226190Y-89607142D01*
X16226190Y-90654761D02*
X16226190Y-88654761D01*
X17178571Y-88654761D01*
M02*
