G04 #@! TF.GenerationSoftware,KiCad,Pcbnew,(5.1.5-0)*
G04 #@! TF.CreationDate,2021-01-20T00:07:58-08:00*
G04 #@! TF.ProjectId,doof,646f6f66-2e6b-4696-9361-645f70636258,rev?*
G04 #@! TF.SameCoordinates,Original*
G04 #@! TF.FileFunction,Soldermask,Top*
G04 #@! TF.FilePolarity,Negative*
%FSLAX46Y46*%
G04 Gerber Fmt 4.6, Leading zero omitted, Abs format (unit mm)*
G04 Created by KiCad (PCBNEW (5.1.5-0)) date 2021-01-20 00:07:58*
%MOMM*%
%LPD*%
G04 APERTURE LIST*
%ADD10C,2.000000*%
%ADD11C,0.100000*%
%ADD12C,0.000002*%
%ADD13C,0.001000*%
G04 APERTURE END LIST*
D10*
X25000000Y-97500000D02*
X5000000Y-97500000D01*
D11*
G36*
X20660400Y-123747650D02*
G01*
X21212850Y-124027050D01*
X21539875Y-124354075D01*
X21674813Y-124584263D01*
X21906588Y-124854138D01*
X21600200Y-124770000D01*
X21346200Y-124693800D01*
X21168400Y-124630300D01*
X20793750Y-124496950D01*
X20434975Y-124303275D01*
X20174625Y-124017525D01*
X20050800Y-123855600D01*
X20114300Y-123893700D01*
X20088900Y-123830200D01*
X20152400Y-123658750D01*
X20660400Y-123747650D01*
G37*
X20660400Y-123747650D02*
X21212850Y-124027050D01*
X21539875Y-124354075D01*
X21674813Y-124584263D01*
X21906588Y-124854138D01*
X21600200Y-124770000D01*
X21346200Y-124693800D01*
X21168400Y-124630300D01*
X20793750Y-124496950D01*
X20434975Y-124303275D01*
X20174625Y-124017525D01*
X20050800Y-123855600D01*
X20114300Y-123893700D01*
X20088900Y-123830200D01*
X20152400Y-123658750D01*
X20660400Y-123747650D01*
G36*
X19866650Y-123766700D02*
G01*
X19498350Y-124198500D01*
X19060200Y-124471550D01*
X18679200Y-124611250D01*
X17929900Y-124776350D01*
X18412500Y-124249300D01*
X18806200Y-123982600D01*
X19174500Y-123779400D01*
X19644400Y-123703200D01*
X19669800Y-123703200D01*
X19866650Y-123766700D01*
G37*
X19866650Y-123766700D02*
X19498350Y-124198500D01*
X19060200Y-124471550D01*
X18679200Y-124611250D01*
X17929900Y-124776350D01*
X18412500Y-124249300D01*
X18806200Y-123982600D01*
X19174500Y-123779400D01*
X19644400Y-123703200D01*
X19669800Y-123703200D01*
X19866650Y-123766700D01*
G36*
X23073400Y-122738000D02*
G01*
X23505200Y-122763400D01*
X24083207Y-122773943D01*
X23403600Y-122928500D01*
X22971800Y-123119000D01*
X22628900Y-123334900D01*
X22209800Y-123500000D01*
X21676400Y-123588900D01*
X21231900Y-123614300D01*
X20654050Y-123595250D01*
X20076200Y-123576200D01*
X20012700Y-123500000D01*
X20228600Y-123436500D01*
X20235585Y-123385700D01*
X20551815Y-123258700D01*
X21085850Y-123030100D01*
X21638300Y-122826900D01*
X22032000Y-122712600D01*
X22476500Y-122712600D01*
X23073400Y-122738000D01*
G37*
X23073400Y-122738000D02*
X23505200Y-122763400D01*
X24083207Y-122773943D01*
X23403600Y-122928500D01*
X22971800Y-123119000D01*
X22628900Y-123334900D01*
X22209800Y-123500000D01*
X21676400Y-123588900D01*
X21231900Y-123614300D01*
X20654050Y-123595250D01*
X20076200Y-123576200D01*
X20012700Y-123500000D01*
X20228600Y-123436500D01*
X20235585Y-123385700D01*
X20551815Y-123258700D01*
X21085850Y-123030100D01*
X21638300Y-122826900D01*
X22032000Y-122712600D01*
X22476500Y-122712600D01*
X23073400Y-122738000D01*
G36*
X23060700Y-120083700D02*
G01*
X22819400Y-120579000D01*
X22616200Y-121036200D01*
X22355850Y-121556900D01*
X22082800Y-121912500D01*
X21771650Y-122325250D01*
X21301750Y-122718950D01*
X20800100Y-123055500D01*
X19695200Y-123652400D01*
X19720600Y-123322200D01*
X20025400Y-123271400D01*
X20273050Y-122833250D01*
X20488950Y-122369700D01*
X20654050Y-122039500D01*
X20838200Y-121747400D01*
X21003300Y-121429900D01*
X21282700Y-121074300D01*
X21562100Y-120756800D01*
X21892300Y-120464700D01*
X22235200Y-120236100D01*
X22616200Y-119982100D01*
X23009900Y-119715400D01*
X23543300Y-119321700D01*
X23060700Y-120083700D01*
G37*
X23060700Y-120083700D02*
X22819400Y-120579000D01*
X22616200Y-121036200D01*
X22355850Y-121556900D01*
X22082800Y-121912500D01*
X21771650Y-122325250D01*
X21301750Y-122718950D01*
X20800100Y-123055500D01*
X19695200Y-123652400D01*
X19720600Y-123322200D01*
X20025400Y-123271400D01*
X20273050Y-122833250D01*
X20488950Y-122369700D01*
X20654050Y-122039500D01*
X20838200Y-121747400D01*
X21003300Y-121429900D01*
X21282700Y-121074300D01*
X21562100Y-120756800D01*
X21892300Y-120464700D01*
X22235200Y-120236100D01*
X22616200Y-119982100D01*
X23009900Y-119715400D01*
X23543300Y-119321700D01*
X23060700Y-120083700D01*
G36*
X20215900Y-117950100D02*
G01*
X20317500Y-118432700D01*
X20431800Y-118889900D01*
X20514350Y-119220100D01*
X20577850Y-119601100D01*
X20622300Y-120121800D01*
X20622300Y-120655200D01*
X20571500Y-121239400D01*
X20508000Y-121760100D01*
X20365125Y-122255400D01*
X20066675Y-123271400D01*
X19853950Y-123220600D01*
X19619000Y-122306200D01*
X19445962Y-121442600D01*
X19461837Y-120655200D01*
X19514225Y-119994800D01*
X19676150Y-119220100D01*
X19911100Y-118407300D01*
X20038100Y-117632600D01*
X20101600Y-117111900D01*
X20215900Y-117950100D01*
G37*
X20215900Y-117950100D02*
X20317500Y-118432700D01*
X20431800Y-118889900D01*
X20514350Y-119220100D01*
X20577850Y-119601100D01*
X20622300Y-120121800D01*
X20622300Y-120655200D01*
X20571500Y-121239400D01*
X20508000Y-121760100D01*
X20365125Y-122255400D01*
X20066675Y-123271400D01*
X19853950Y-123220600D01*
X19619000Y-122306200D01*
X19445962Y-121442600D01*
X19461837Y-120655200D01*
X19514225Y-119994800D01*
X19676150Y-119220100D01*
X19911100Y-118407300D01*
X20038100Y-117632600D01*
X20101600Y-117111900D01*
X20215900Y-117950100D01*
G36*
X16596400Y-119524900D02*
G01*
X16913900Y-119766200D01*
X17479050Y-120083700D01*
X18075950Y-120515500D01*
X18450600Y-120896500D01*
X18850650Y-121461650D01*
X19447550Y-122642750D01*
X19746000Y-123207900D01*
X19758700Y-123220600D01*
X19428500Y-123246000D01*
X19326900Y-123195200D01*
X18971300Y-122947550D01*
X18564900Y-122579250D01*
X18234700Y-122230000D01*
X17879100Y-121798200D01*
X17599700Y-121379100D01*
X17409200Y-121125100D01*
X17155200Y-120667900D01*
X16901200Y-120299600D01*
X16659900Y-119880500D01*
X16380500Y-119321700D01*
X16596400Y-119524900D01*
G37*
X16596400Y-119524900D02*
X16913900Y-119766200D01*
X17479050Y-120083700D01*
X18075950Y-120515500D01*
X18450600Y-120896500D01*
X18850650Y-121461650D01*
X19447550Y-122642750D01*
X19746000Y-123207900D01*
X19758700Y-123220600D01*
X19428500Y-123246000D01*
X19326900Y-123195200D01*
X18971300Y-122947550D01*
X18564900Y-122579250D01*
X18234700Y-122230000D01*
X17879100Y-121798200D01*
X17599700Y-121379100D01*
X17409200Y-121125100D01*
X17155200Y-120667900D01*
X16901200Y-120299600D01*
X16659900Y-119880500D01*
X16380500Y-119321700D01*
X16596400Y-119524900D01*
G36*
X18002925Y-122703075D02*
G01*
X18339475Y-122798325D01*
X18603000Y-122890400D01*
X19301500Y-123296800D01*
X19331980Y-123324740D01*
X19339600Y-123309500D01*
X19339600Y-123322200D01*
X19331980Y-123324740D01*
X19250700Y-123487300D01*
X19644400Y-123627000D01*
X19434850Y-123652400D01*
X19041150Y-123677800D01*
X18564900Y-123677800D01*
X18120400Y-123614300D01*
X17637800Y-123500000D01*
X17244100Y-123385700D01*
X16837700Y-123157100D01*
X16520200Y-122928500D01*
X16113800Y-122801500D01*
X16761500Y-122750700D01*
X17294900Y-122712600D01*
X17758450Y-122706250D01*
X18002925Y-122703075D01*
G37*
X18002925Y-122703075D02*
X18339475Y-122798325D01*
X18603000Y-122890400D01*
X19301500Y-123296800D01*
X19331980Y-123324740D01*
X19339600Y-123309500D01*
X19339600Y-123322200D01*
X19331980Y-123324740D01*
X19250700Y-123487300D01*
X19644400Y-123627000D01*
X19434850Y-123652400D01*
X19041150Y-123677800D01*
X18564900Y-123677800D01*
X18120400Y-123614300D01*
X17637800Y-123500000D01*
X17244100Y-123385700D01*
X16837700Y-123157100D01*
X16520200Y-122928500D01*
X16113800Y-122801500D01*
X16761500Y-122750700D01*
X17294900Y-122712600D01*
X17758450Y-122706250D01*
X18002925Y-122703075D01*
G36*
X20000000Y-123284100D02*
G01*
X19788862Y-123477775D01*
X20007937Y-123573025D01*
X20758825Y-124115950D01*
X20577850Y-124211200D01*
X20000000Y-123754000D01*
X20012700Y-124846200D01*
X19898400Y-124706500D01*
X19892050Y-123817500D01*
X19936500Y-123817500D01*
X19555500Y-123601600D01*
X19269750Y-123449200D01*
X19434850Y-123169800D01*
X20000000Y-123284100D01*
G37*
X20000000Y-123284100D02*
X19788862Y-123477775D01*
X20007937Y-123573025D01*
X20758825Y-124115950D01*
X20577850Y-124211200D01*
X20000000Y-123754000D01*
X20012700Y-124846200D01*
X19898400Y-124706500D01*
X19892050Y-123817500D01*
X19936500Y-123817500D01*
X19555500Y-123601600D01*
X19269750Y-123449200D01*
X19434850Y-123169800D01*
X20000000Y-123284100D01*
D12*
X19479586Y-121596968D02*
X19486414Y-121663404D01*
X16060628Y-122785206D02*
G75*
G02X16062745Y-122780474I8833J-1112D01*
G01*
X16062745Y-122780475D02*
G75*
G02X16067170Y-122777659I6961J-6056D01*
G01*
X16067171Y-122777659D02*
G75*
G02X16076272Y-122775641I21302J-74534D01*
G01*
X16119176Y-122769928D02*
X16076272Y-122775641D01*
X16175382Y-122764579D02*
X16119176Y-122769928D01*
X16249523Y-122759059D02*
X16175382Y-122764579D01*
X16350810Y-122752773D02*
X16249523Y-122759059D01*
X16464250Y-122745535D02*
X16350810Y-122752773D01*
X16555159Y-122738329D02*
X16464250Y-122745535D01*
X16635946Y-122730142D02*
X16555159Y-122738329D01*
X16717522Y-122719967D02*
X16635946Y-122730142D01*
X16795588Y-122710763D02*
X16717522Y-122719967D01*
X16894548Y-122701810D02*
X16795588Y-122710763D01*
X17002731Y-122693949D02*
X16894548Y-122701810D01*
X17110022Y-122688039D02*
X17002731Y-122693949D01*
X17158893Y-122685783D02*
X17110022Y-122688039D01*
X17228084Y-122682592D02*
X17158893Y-122685783D01*
X17303746Y-122679104D02*
X17228084Y-122682592D01*
X17375022Y-122675821D02*
X17303746Y-122679104D01*
X17542892Y-122668843D02*
X17375022Y-122675821D01*
X17717753Y-122663052D02*
X17542892Y-122668843D01*
X17891324Y-122658069D02*
X17717753Y-122663052D01*
X17891324Y-122658069D02*
G75*
G02X17900393Y-122660507I462J-16364D01*
G01*
X17903889Y-122661762D02*
G75*
G02X17900393Y-122660507I1209J8867D01*
G01*
X17919388Y-122663775D02*
X17903889Y-122661762D01*
X17937771Y-122665819D02*
X17919388Y-122663775D01*
X17958715Y-122667713D02*
X17937771Y-122665819D01*
X19470054Y-121487481D02*
X19472649Y-121517124D01*
X20612378Y-123647086D02*
X20657522Y-123650622D01*
X20563537Y-123643388D02*
X20612378Y-123647086D01*
X20518194Y-123640058D02*
X20563537Y-123643388D01*
X20485022Y-123637755D02*
X20518194Y-123640058D01*
X20453615Y-123635486D02*
X20485022Y-123637755D01*
X20414584Y-123632326D02*
X20453615Y-123635486D01*
X20374606Y-123628849D02*
X20414584Y-123632326D01*
X20340022Y-123625579D02*
X20374606Y-123628849D01*
X20278512Y-123620402D02*
X20340022Y-123625579D01*
X20226901Y-123618134D02*
X20278512Y-123620402D01*
X18831364Y-121380665D02*
X18702584Y-121173051D01*
X18960123Y-121610277D02*
X18831364Y-121380665D01*
X20263811Y-123644985D02*
X20225611Y-123637712D01*
X20301820Y-123651668D02*
X20263811Y-123644985D01*
X20327522Y-123655429D02*
X20301820Y-123651668D01*
X20327522Y-123655429D02*
G75*
G02X20415850Y-123671576I-96572J-777952D01*
G01*
X20542223Y-123704860D02*
X20415850Y-123671576D01*
X20681550Y-123747366D02*
X20542223Y-123704860D01*
X20815022Y-123794009D02*
X20681550Y-123747366D01*
X20858649Y-123811046D02*
X20815022Y-123794009D01*
X20904637Y-123830487D02*
X20858649Y-123811046D01*
X20952079Y-123851930D02*
X20904637Y-123830487D01*
X21000085Y-123874987D02*
X20952079Y-123851930D01*
X21000085Y-123874988D02*
G75*
G02X21152408Y-123962179I-639105J-1293158D01*
G01*
X19600081Y-122347260D02*
X19602098Y-122357528D01*
X22620021Y-121015299D02*
G75*
G02X22619743Y-121016562I-3003J0D01*
G01*
X22611209Y-121034952D02*
X22619743Y-121016562D01*
X22601523Y-121055632D02*
X22611209Y-121034952D01*
X22590022Y-121079870D02*
X22601523Y-121055632D01*
X22578521Y-121104146D02*
X22590022Y-121079870D01*
X22568834Y-121124951D02*
X22578521Y-121104146D01*
X22560385Y-121143329D02*
X22568834Y-121124951D01*
X22560021Y-121144995D02*
G75*
G02X22560385Y-121143329I3995J0D01*
G01*
X22560021Y-121144995D02*
G75*
G02X22559292Y-121148297I-7840J0D01*
G01*
X22520677Y-121231421D02*
X22559292Y-121148297D01*
X22477758Y-121323339D02*
X22520677Y-121231421D01*
X22427442Y-121430277D02*
X22477758Y-121323339D01*
X22404537Y-121478174D02*
X22427442Y-121430277D01*
X22376801Y-121534980D02*
X22404537Y-121478174D01*
X22347730Y-121593998D02*
X22376801Y-121534980D01*
X22347731Y-121593997D02*
G75*
G02X22345022Y-121597777I-12801J6311D01*
G01*
X22343589Y-121599614D02*
G75*
G02X22345022Y-121597777I8150J-4881D01*
G01*
X22340177Y-121605418D02*
X22343588Y-121599615D01*
X22336238Y-121612435D02*
X22340177Y-121605418D01*
X22332041Y-121620277D02*
X22336238Y-121612435D01*
X22323008Y-121637116D02*
X22332041Y-121620277D01*
X22312309Y-121656309D02*
X22323008Y-121637116D01*
X22301117Y-121675799D02*
X22312309Y-121656309D01*
X22290563Y-121693576D02*
X22301117Y-121675799D01*
X22286359Y-121700601D02*
X22290563Y-121693576D01*
X22279895Y-121711546D02*
X22286359Y-121700601D01*
X22272630Y-121723921D02*
X22279895Y-121711546D01*
X22265538Y-121736076D02*
X22272630Y-121723921D01*
X22265539Y-121736076D02*
G75*
G02X22176513Y-121874537I-1594117J927112D01*
G01*
X22060765Y-122028716D02*
X22176513Y-121874537D01*
X21929379Y-122185115D02*
X22060765Y-122028716D01*
X21792561Y-122330767D02*
X21929379Y-122185115D01*
X21792561Y-122330767D02*
G75*
G02X21512462Y-122588051I-2992746J2977019D01*
G01*
X21202444Y-122826945D02*
X21512462Y-122588051D01*
X20846530Y-123058868D02*
X21202444Y-122826945D01*
X20427522Y-123295384D02*
X20846530Y-123058868D01*
X20407210Y-123306206D02*
X20427522Y-123295384D01*
X20383256Y-123319049D02*
X20407210Y-123306206D01*
X20359541Y-123331825D02*
X20383256Y-123319049D01*
X20340022Y-123342411D02*
X20359541Y-123331825D01*
X20322766Y-123351769D02*
X20340022Y-123342411D01*
X20306062Y-123360749D02*
X20322766Y-123351769D01*
X20291782Y-123368359D02*
X20306062Y-123360749D01*
X20284097Y-123372337D02*
X20291782Y-123368359D01*
X20267847Y-123382144D02*
G75*
G02X20284097Y-123372337I73169J-102870D01*
G01*
X20251467Y-123395234D02*
G75*
G02X20267847Y-123382145I125077J-139731D01*
G01*
X20238112Y-123408375D02*
G75*
G02X20251467Y-123395234I145858J-134885D01*
G01*
X20235021Y-123416267D02*
G75*
G02X20238111Y-123408375I11624J0D01*
G01*
X20235871Y-123419781D02*
G75*
G02X20235022Y-123416267I6849J3514D01*
G01*
X20238155Y-123421737D02*
G75*
G02X20235870Y-123419780I1247J3768D01*
G01*
X20242397Y-123422198D02*
G75*
G02X20238155Y-123421737I-1044J10127D01*
G01*
X20249641Y-123421103D02*
G75*
G02X20242398Y-123422199I-15184J75919D01*
G01*
X20268149Y-123415366D02*
G75*
G02X20249641Y-123421104I-36945J86448D01*
G01*
X20328992Y-123389023D02*
X20268149Y-123415366D01*
X20396972Y-123358528D02*
X20328992Y-123389023D01*
X20465022Y-123326643D02*
X20396972Y-123358528D01*
X20488044Y-123315656D02*
X20465022Y-123326643D01*
X20513850Y-123303400D02*
X20488044Y-123315656D01*
X20538478Y-123291750D02*
X20513850Y-123303400D01*
X20557522Y-123282798D02*
X20538478Y-123291750D01*
X20577497Y-123273393D02*
X20557522Y-123282798D01*
X20605600Y-123260054D02*
X20577497Y-123273393D01*
X20636247Y-123245444D02*
X20605600Y-123260054D01*
X20665022Y-123231661D02*
X20636247Y-123245444D01*
X20719936Y-123205361D02*
X20665022Y-123231661D01*
X20761702Y-123185535D02*
X20719936Y-123205361D01*
X20796707Y-123169148D02*
X20761702Y-123185535D01*
X20830022Y-123153816D02*
X20796707Y-123169148D01*
X20865354Y-123137574D02*
X20830022Y-123153816D01*
X20931774Y-123106749D02*
X20865354Y-123137574D01*
X20999694Y-123075132D02*
X20931774Y-123106749D01*
X21047522Y-123052733D02*
X20999694Y-123075132D01*
X21194502Y-122984657D02*
X21047522Y-123052733D01*
X21345333Y-122916903D02*
X21194502Y-122984657D01*
X21483653Y-122856658D02*
X21345333Y-122916903D01*
X21590022Y-122812680D02*
X21483653Y-122856658D01*
X21643337Y-122791611D02*
X21590022Y-122812680D01*
X21678135Y-122778359D02*
X21643337Y-122791611D01*
X21707932Y-122767769D02*
X21678135Y-122778359D01*
X21742522Y-122756289D02*
X21707932Y-122767769D01*
X21801620Y-122738467D02*
X21742522Y-122756289D01*
X21863071Y-122722384D02*
X21801620Y-122738467D01*
X21924574Y-122708597D02*
X21863071Y-122722384D01*
X21983822Y-122697669D02*
X21924574Y-122708597D01*
X22025789Y-122691782D02*
X21983822Y-122697669D01*
X22061324Y-122688975D02*
X22025789Y-122691782D01*
X22105896Y-122688261D02*
X22061324Y-122688975D01*
X22186322Y-122689370D02*
X22105896Y-122688261D01*
X22243234Y-122690735D02*
X22186322Y-122689370D01*
X22301607Y-122692737D02*
X22243234Y-122690735D01*
X22353546Y-122695032D02*
X22301607Y-122692737D01*
X22387522Y-122697267D02*
X22353546Y-122695032D01*
X22418287Y-122699702D02*
X22387522Y-122697267D01*
X22457662Y-122702627D02*
X22418287Y-122699702D01*
X22498691Y-122705545D02*
X22457662Y-122702627D01*
X22535022Y-122707990D02*
X22498691Y-122705545D01*
X22572057Y-122710418D02*
X22535022Y-122707990D01*
X22615318Y-122713293D02*
X22572057Y-122710418D01*
X22657867Y-122716150D02*
X22615318Y-122713293D01*
X22692522Y-122718510D02*
X22657867Y-122716150D01*
X22745145Y-122720680D02*
X22692522Y-122718510D01*
X22937897Y-122723130D02*
X22745145Y-122720680D01*
X23166132Y-122725346D02*
X22937897Y-122723130D01*
X23422522Y-122726997D02*
X23166132Y-122725346D01*
X23760194Y-122728974D02*
X23422522Y-122726997D01*
X23946598Y-122730953D02*
X23760194Y-122728974D01*
X24075267Y-122733028D02*
X23946598Y-122730953D01*
X24075267Y-122733028D02*
G75*
G02X24088772Y-122736729I-500J-28318D01*
G01*
X24088772Y-122736728D02*
G75*
G02X24097766Y-122745160I-13045J-22929D01*
G01*
X24097766Y-122745160D02*
G75*
G02X24100023Y-122755412I-12281J-8079D01*
G01*
X24100023Y-122755413D02*
G75*
G02X24094871Y-122765674I-18220J2725D01*
G01*
X24094870Y-122765673D02*
G75*
G02X24083207Y-122773943I-29662J29474D01*
G01*
X24083208Y-122773944D02*
G75*
G02X24065174Y-122781131I-63623J133418D01*
G01*
X24000776Y-122801805D02*
X24065174Y-122781131D01*
X23938093Y-122821392D02*
X24000776Y-122801805D01*
X23902522Y-122831377D02*
X23938093Y-122821392D01*
X23773171Y-122868169D02*
X23902522Y-122831377D01*
X23598786Y-122925203D02*
X23773171Y-122868169D01*
X23419767Y-122988251D02*
X23598786Y-122925203D01*
X23272522Y-123045274D02*
X23419767Y-122988251D01*
X23149199Y-123098078D02*
X23272522Y-123045274D01*
X23003927Y-123164591D02*
X23149199Y-123098078D01*
X22862600Y-123232490D02*
X23003927Y-123164591D01*
X22752522Y-123289199D02*
X22862600Y-123232490D01*
X22618504Y-123360433D02*
X22752522Y-123289199D01*
X22533440Y-123402696D02*
X22618504Y-123360433D01*
X22458987Y-123435131D02*
X22533440Y-123402696D01*
X22367522Y-123470178D02*
X22458987Y-123435131D01*
X22292423Y-123497307D02*
X22367522Y-123470178D01*
X22252851Y-123510723D02*
X22292423Y-123497307D01*
X22213400Y-123522598D02*
X22252851Y-123510723D01*
X22140022Y-123543034D02*
X22213400Y-123522598D01*
X22020804Y-123572545D02*
X22140022Y-123543034D01*
X21883620Y-123600279D02*
X22020804Y-123572545D01*
X21745884Y-123623156D02*
X21883620Y-123600279D01*
X21625022Y-123637838D02*
X21745884Y-123623156D01*
X21601013Y-123640138D02*
X21625022Y-123637838D01*
X21566506Y-123643487D02*
X21601013Y-123640138D01*
X21528547Y-123647195D02*
X21566506Y-123643487D01*
X21492522Y-123650739D02*
X21528547Y-123647195D01*
X21358935Y-123658145D02*
X21492522Y-123650739D01*
X21086190Y-123659806D02*
X21358935Y-123658145D01*
X20813070Y-123657895D02*
X21086190Y-123659806D01*
X20657522Y-123650622D02*
X20813070Y-123657895D01*
X20184700Y-123617876D02*
X20226901Y-123618134D01*
X20180021Y-123622584D02*
G75*
G02X20184700Y-123617876I4709J-1D01*
G01*
X20181145Y-123624719D02*
G75*
G02X20180022Y-123622585I1466J2134D01*
G01*
X20185529Y-123627293D02*
G75*
G02X20181144Y-123624719I15819J31971D01*
G01*
X19110636Y-121888155D02*
X19094341Y-121858062D01*
X19121221Y-121907777D02*
X19110636Y-121888155D01*
X20511249Y-122283226D02*
X20464982Y-122380277D01*
X20596807Y-122112328D02*
X20511249Y-122283226D01*
X20683548Y-121941636D02*
X20596807Y-122112328D01*
X20724269Y-121866527D02*
X20683548Y-121941636D01*
X20738678Y-121841366D02*
X20724269Y-121866527D01*
X20749929Y-121821636D02*
X20738678Y-121841366D01*
X20759609Y-121804555D02*
X20749929Y-121821636D01*
X20769048Y-121787777D02*
X20759609Y-121804555D01*
X20775983Y-121775624D02*
X20769048Y-121787777D01*
X20787590Y-121755731D02*
X20775983Y-121775624D01*
X20800976Y-121732985D02*
X20787590Y-121755731D01*
X20814458Y-121710277D02*
X20800976Y-121732985D01*
X20827575Y-121688268D02*
X20814458Y-121710277D01*
X20839864Y-121667624D02*
X20827575Y-121688268D01*
X20850197Y-121650243D02*
X20839864Y-121667624D01*
X20854889Y-121642307D02*
X20850197Y-121650243D01*
X20899259Y-121570233D02*
X20854889Y-121642307D01*
X20962393Y-121473837D02*
X20899259Y-121570233D01*
X21029939Y-121374271D02*
X20962393Y-121473837D01*
X21089543Y-121290277D02*
X21029939Y-121374271D01*
X21146819Y-121213641D02*
X21089543Y-121290277D01*
X21217177Y-121123061D02*
X21146819Y-121213641D01*
X21284639Y-121038542D02*
X21217177Y-121123061D01*
X21327847Y-120987777D02*
X21284639Y-121038542D01*
X22635064Y-120981889D02*
X22644416Y-120961958D01*
X22627187Y-120998945D02*
X22635064Y-120981889D01*
X22620294Y-121014044D02*
X22627187Y-120998945D01*
X22620022Y-121015299D02*
G75*
G02X22620294Y-121014044I3026J0D01*
G01*
X19075985Y-121824222D02*
X19058037Y-121791194D01*
X19094341Y-121858062D02*
X19075985Y-121824222D01*
X21912904Y-124882618D02*
G75*
G02X21912962Y-124890934I-10582J-4233D01*
G01*
X21912961Y-124890934D02*
G75*
G02X21910571Y-124893771I-5287J2029D01*
G01*
X21910571Y-124893771D02*
G75*
G02X21905675Y-124895933I-11328J19028D01*
G01*
X21905675Y-124895934D02*
G75*
G02X21898837Y-124897326I-10822J35655D01*
G01*
X21898838Y-124897325D02*
G75*
G02X21890414Y-124897777I-8424J78322D01*
G01*
X20393609Y-122541378D02*
X20385721Y-122560277D01*
X20420843Y-122479384D02*
X20393609Y-122541378D01*
X20447720Y-122418594D02*
X20420843Y-122479384D01*
X20464982Y-122380277D02*
X20447720Y-122418594D01*
X21890414Y-124897778D02*
G75*
G02X21875921Y-124896825I0J110737D01*
G01*
X21875921Y-124896825D02*
G75*
G02X21863016Y-124893965I9971J75534D01*
G01*
X21863016Y-124893965D02*
G75*
G02X21846281Y-124887761I53575J170197D01*
G01*
X21815022Y-124874046D02*
X21846281Y-124887761D01*
X21751838Y-124847762D02*
X21815022Y-124874046D01*
X21685736Y-124824319D02*
X21751838Y-124847762D01*
X21614120Y-124802862D02*
X21685736Y-124824319D01*
X21534294Y-124782548D02*
X21614120Y-124802862D01*
X21397606Y-124749292D02*
X21534294Y-124782548D01*
X19130128Y-121924323D02*
X19121221Y-121907777D01*
X19140235Y-121943074D02*
X19130128Y-121924323D01*
X20253305Y-122886243D02*
X20244490Y-122906661D01*
X20263179Y-122862378D02*
X20253305Y-122886243D01*
X20274497Y-122834151D02*
X20263179Y-122862378D01*
X20287768Y-122800277D02*
X20274497Y-122834151D01*
X20293655Y-122785324D02*
X20287768Y-122800277D01*
X20300109Y-122769333D02*
X20293655Y-122785324D01*
X20306173Y-122754627D02*
X20300109Y-122769333D01*
X21152408Y-123962178D02*
G75*
G02X21290509Y-124065987I-743206J-1132487D01*
G01*
X21290509Y-124065987D02*
G75*
G02X21408604Y-124181641I-808447J-943632D01*
G01*
X21408604Y-124181641D02*
G75*
G02X21501099Y-124304225I-691614J-618042D01*
G01*
X21593113Y-124447827D02*
X21501099Y-124304225D01*
X21658325Y-124544131D02*
X21593113Y-124447827D01*
X21719278Y-124626381D02*
X21658325Y-124544131D01*
X21794380Y-124720045D02*
X21719278Y-124626381D01*
X21837947Y-124772822D02*
X21794380Y-124720045D01*
X21851771Y-124789809D02*
X21837947Y-124772822D01*
X21862079Y-124803035D02*
X21851771Y-124789809D01*
X19634498Y-119270277D02*
X19620636Y-119320269D01*
X20310691Y-122744082D02*
X20306173Y-122754627D01*
X20314264Y-122735606D02*
X20310691Y-122744082D01*
X20317281Y-122727667D02*
X20314264Y-122735606D01*
X20319553Y-122720959D02*
X20317281Y-122727667D01*
X20320021Y-122717966D02*
G75*
G02X20319553Y-122720959I-9805J0D01*
G01*
X20320021Y-122717965D02*
G75*
G02X20320501Y-122714968I9600J-1D01*
G01*
X20322848Y-122708209D02*
X20320501Y-122714968D01*
X20325958Y-122700210D02*
X20322848Y-122708209D01*
X20329642Y-122691661D02*
X20325958Y-122700210D01*
X20343866Y-122659784D02*
X20329642Y-122691661D01*
X20352969Y-122638632D02*
X20343866Y-122659784D01*
X20359166Y-122623491D02*
X20352969Y-122638632D01*
X20360007Y-122619082D02*
G75*
G02X20359166Y-122623491I-11749J-43D01*
G01*
X20360007Y-122619082D02*
G75*
G02X20360459Y-122616632I6738J25D01*
G01*
X20363194Y-122609786D02*
X20360459Y-122616632D01*
X20366707Y-122601673D02*
X20363194Y-122609786D01*
X20370874Y-122592777D02*
X20366707Y-122601673D01*
X20375330Y-122583430D02*
X20370874Y-122592777D01*
X20379723Y-122573949D02*
X20375330Y-122583430D01*
X20383495Y-122565577D02*
X20379723Y-122573949D01*
X20385721Y-122560277D02*
X20383495Y-122565577D01*
X21877281Y-124823316D02*
X21862079Y-124803035D01*
X21893683Y-124846689D02*
X21877281Y-124823316D01*
X21893683Y-124846690D02*
G75*
G02X21905528Y-124866666I-194982J-129113D01*
G01*
X21905528Y-124866666D02*
G75*
G02X21912903Y-124882618I-148143J-78170D01*
G01*
X21337272Y-120977192D02*
X21327847Y-120987777D01*
X21357031Y-120954856D02*
X21337272Y-120977192D01*
X21380430Y-120928361D02*
X21357031Y-120954856D01*
X21405193Y-120900277D02*
X21380430Y-120928361D01*
X21513704Y-120783304D02*
X21405193Y-120900277D01*
X21646053Y-120652079D02*
X21513704Y-120783304D01*
X21777297Y-120530085D02*
X21646053Y-120652079D01*
X21880250Y-120444220D02*
X21777297Y-120530085D01*
X21967428Y-120378727D02*
X21880250Y-120444220D01*
X22046415Y-120323278D02*
X21967428Y-120378727D01*
X22148457Y-120256351D02*
X22046415Y-120323278D01*
X22327522Y-120142769D02*
X22148457Y-120256351D01*
X22389629Y-120103344D02*
X22327522Y-120142769D01*
X22456365Y-120060469D02*
X22389629Y-120103344D01*
X22517965Y-120020471D02*
X22456365Y-120060469D01*
X22562522Y-119990991D02*
X22517965Y-120020471D01*
X22697222Y-119899298D02*
X22562522Y-119990991D01*
X22820866Y-119812251D02*
X22697222Y-119899298D01*
X22968690Y-119704774D02*
X22820866Y-119812251D01*
X23190022Y-119540957D02*
X22968690Y-119704774D01*
X23233928Y-119508350D02*
X23190022Y-119540957D01*
X23276959Y-119476446D02*
X23233928Y-119508350D01*
X23314011Y-119449020D02*
X23276959Y-119476446D01*
X23335022Y-119433543D02*
X23314011Y-119449020D01*
X23351209Y-119421646D02*
X23335022Y-119433543D01*
X23368850Y-119408643D02*
X23351209Y-119421646D01*
X23385320Y-119396471D02*
X23368850Y-119408643D01*
X23397522Y-119387414D02*
X23385320Y-119396471D01*
X23437477Y-119359270D02*
X23397522Y-119387414D01*
X23492952Y-119323208D02*
X23437477Y-119359270D01*
X23549438Y-119287759D02*
X23492952Y-119323208D01*
X23549438Y-119287760D02*
G75*
G02X23564761Y-119281269I28471J-45884D01*
G01*
X23564761Y-119281268D02*
G75*
G02X23577504Y-119279947I10974J-43717D01*
G01*
X23577504Y-119279947D02*
G75*
G02X23584070Y-119284069I-305J-7776D01*
G01*
X23584070Y-119284070D02*
G75*
G02X23584527Y-119292656I-8997J-4784D01*
G01*
X23584527Y-119292655D02*
G75*
G02X23577667Y-119305539I-63438J25510D01*
G01*
X23565329Y-119322507D02*
X23577667Y-119305539D01*
X23545976Y-119346851D02*
X23565329Y-119322507D01*
X23526429Y-119370518D02*
X23545976Y-119346851D01*
X23526429Y-119370517D02*
G75*
G02X23516963Y-119380277I-72727J61071D01*
G01*
X23499895Y-119398072D02*
G75*
G02X23516963Y-119380277I123500J-101373D01*
G01*
X23445948Y-119464257D02*
X23499895Y-119398072D01*
X23391922Y-119531904D02*
X23445948Y-119464257D01*
X23351038Y-119585277D02*
X23391922Y-119531904D01*
X23274034Y-119693698D02*
X23351038Y-119585277D01*
X23213980Y-119789678D02*
X23274034Y-119693698D01*
X23148409Y-119910452D02*
X23213980Y-119789678D01*
X23045463Y-120115277D02*
X23148409Y-119910452D01*
X23012314Y-120182396D02*
X23045463Y-120115277D01*
X22982337Y-120243418D02*
X23012314Y-120182396D01*
X22957300Y-120294652D02*
X22982337Y-120243418D01*
X22948740Y-120312777D02*
X22957300Y-120294652D01*
X22933870Y-120344997D02*
X22948740Y-120312777D01*
X22898656Y-120420485D02*
X22933870Y-120344997D01*
X22863434Y-120495815D02*
X22898656Y-120420485D01*
X22842505Y-120540277D02*
X22863434Y-120495815D01*
X22836270Y-120553483D02*
X22842505Y-120540277D01*
X22826572Y-120574090D02*
X22836270Y-120553483D01*
X22815623Y-120597387D02*
X22826572Y-120574090D01*
X22804881Y-120620277D02*
X22815623Y-120597387D01*
X22752656Y-120731614D02*
X22804881Y-120620277D01*
X22705466Y-120832138D02*
X22752656Y-120731614D01*
X22666565Y-120914935D02*
X22705466Y-120832138D01*
X22644416Y-120961958D02*
X22666565Y-120914935D01*
X19456089Y-120270173D02*
X19450432Y-120347777D01*
X19491414Y-119934273D02*
X19489359Y-119951746D01*
X19499812Y-121775277D02*
X19502112Y-121791881D01*
X17220022Y-123404199D02*
X17285345Y-123431444D01*
X17172193Y-123382386D02*
X17220022Y-123404199D01*
X17096008Y-123345116D02*
X17172193Y-123382386D01*
X17013874Y-123304229D02*
X17096008Y-123345116D01*
X17958715Y-122667712D02*
G75*
G02X18037077Y-122677867I-68767J-838110D01*
G01*
X18134167Y-122697547D02*
X18037077Y-122677867D01*
X18238541Y-122723880D02*
X18134167Y-122697547D01*
X18340022Y-122754629D02*
X18238541Y-122723880D01*
X18411345Y-122778648D02*
X18340022Y-122754629D01*
X18462918Y-122797344D02*
X18411345Y-122778648D01*
X18514767Y-122818060D02*
X18462918Y-122797344D01*
X18587522Y-122848978D02*
X18514767Y-122818060D01*
X18636095Y-122871297D02*
X18587522Y-122848978D01*
X18722054Y-122913707D02*
X18636095Y-122871297D01*
X18807800Y-122957003D02*
X18722054Y-122913707D01*
X18857522Y-122983724D02*
X18807800Y-122957003D01*
X18874485Y-122993290D02*
X18857522Y-122983724D01*
X18892381Y-123003359D02*
X18874485Y-122993290D01*
X18908665Y-123012503D02*
X18892381Y-123003359D01*
X18920022Y-123018855D02*
X18908665Y-123012503D01*
X18967579Y-123046350D02*
X18920022Y-123018855D01*
X19029264Y-123083880D02*
X18967579Y-123046350D01*
X19094127Y-123124579D02*
X19029264Y-123083880D01*
X19152522Y-123162529D02*
X19094127Y-123124579D01*
X19269621Y-123239782D02*
X19152522Y-123162529D01*
X19284217Y-123242895D02*
G75*
G02X19269621Y-123239782I-3296J20324D01*
G01*
X19285880Y-123236626D02*
G75*
G02X19284217Y-123242894I-2231J-2763D01*
G01*
X19186635Y-123156997D02*
X19285879Y-123236626D01*
X19076355Y-123068615D02*
X19186635Y-123156997D01*
X18955655Y-122971064D02*
X19076355Y-123068615D01*
X18846190Y-122882022D02*
X18955655Y-122971064D01*
X18797522Y-122841366D02*
X18846190Y-122882022D01*
X18560218Y-122628564D02*
X18797522Y-122841366D01*
X18331976Y-122403889D02*
X18560218Y-122628564D01*
X18126302Y-122181368D02*
X18331976Y-122403889D01*
X17957522Y-121975413D02*
X18126302Y-122181368D01*
X17947035Y-121961730D02*
X17957522Y-121975413D01*
X17930933Y-121940881D02*
X17947035Y-121961730D01*
X17912804Y-121917489D02*
X17930933Y-121940881D01*
X17895094Y-121894720D02*
X17912804Y-121917489D01*
X17850771Y-121836679D02*
X17895094Y-121894720D01*
X17798022Y-121765362D02*
X17850771Y-121836679D01*
X17743294Y-121689659D02*
X17798022Y-121765362D01*
X17692611Y-121617777D02*
X17743294Y-121689659D01*
X17615794Y-121505183D02*
X17692611Y-121617777D01*
X17503314Y-121336047D02*
X17615794Y-121505183D01*
X17392960Y-121168079D02*
X17503314Y-121336047D01*
X17327810Y-121065811D02*
X17392960Y-121168079D01*
X17312852Y-121041839D02*
X17327810Y-121065811D01*
X17293501Y-121011028D02*
X17312852Y-121041839D01*
X17273210Y-120978853D02*
X17293501Y-121011028D01*
X17255098Y-120950277D02*
X17273210Y-120978853D01*
X17232466Y-120914465D02*
X17255098Y-120950277D01*
X17194344Y-120853699D02*
X17232466Y-120914465D01*
X17150478Y-120783586D02*
X17194344Y-120853699D01*
X17106299Y-120712777D02*
X17150478Y-120783586D01*
X17063762Y-120644522D02*
X17106299Y-120712777D01*
X17024866Y-120582137D02*
X17063762Y-120644522D01*
X16992249Y-120529846D02*
X17024866Y-120582137D01*
X16980010Y-120510277D02*
X16992249Y-120529846D01*
X16937630Y-120441590D02*
X16980010Y-120510277D01*
X16867790Y-120326106D02*
X16937630Y-120441590D01*
X16797729Y-120209490D02*
X16867790Y-120326106D01*
X16772165Y-120165277D02*
X16797729Y-120209490D01*
X16769328Y-120160248D02*
X16772165Y-120165277D01*
X16765217Y-120153074D02*
X16769328Y-120160248D01*
X16760674Y-120145211D02*
X16765217Y-120153074D01*
X16756342Y-120137777D02*
X16760674Y-120145211D01*
X16727044Y-120087083D02*
X16756342Y-120137777D01*
X16668968Y-119985057D02*
X16727044Y-120087083D01*
X16610346Y-119881702D02*
X16668968Y-119985057D01*
X16588754Y-119842777D02*
X16610346Y-119881702D01*
X16579351Y-119825536D02*
X16588754Y-119842777D01*
X16567835Y-119804543D02*
X16579351Y-119825536D01*
X16556140Y-119783314D02*
X16567835Y-119804543D01*
X16546150Y-119765277D02*
X16556140Y-119783314D01*
X16517394Y-119710797D02*
X16546150Y-119765277D01*
X16462647Y-119600518D02*
X16517394Y-119710797D01*
X16402078Y-119477345D02*
X16462647Y-119600518D01*
X16402079Y-119477345D02*
G75*
G02X16400022Y-119468491I18028J8854D01*
G01*
X16399530Y-119465636D02*
G75*
G02X16400022Y-119468491I-8045J-2855D01*
G01*
X16397209Y-119459477D02*
X16399530Y-119465636D01*
X16394113Y-119452210D02*
X16397209Y-119459477D01*
X16390446Y-119444500D02*
X16394113Y-119452210D01*
X16390446Y-119444500D02*
G75*
G02X16375567Y-119410779I353949J176315D01*
G01*
X16362376Y-119372674D02*
X16375567Y-119410779D01*
X16352797Y-119337022D02*
X16362376Y-119372674D01*
X16352798Y-119337021D02*
G75*
G02X16350022Y-119312709I105091J24312D01*
G01*
X16350022Y-119312709D02*
G75*
G02X16352313Y-119301889I26694J0D01*
G01*
X16352313Y-119301889D02*
G75*
G02X16358734Y-119293767I19006J-8428D01*
G01*
X16358734Y-119293767D02*
G75*
G02X16368045Y-119289963I11741J-15439D01*
G01*
X16368045Y-119289963D02*
G75*
G02X16378409Y-119291121I2783J-22042D01*
G01*
X19299378Y-123249505D02*
G75*
G02X19307816Y-123255118I-42084J-72409D01*
G01*
X19293690Y-123248010D02*
G75*
G02X19299378Y-123249505I137J-11046D01*
G01*
X19292163Y-123250169D02*
G75*
G02X19293690Y-123248010I1547J525D01*
G01*
X19295021Y-123255277D02*
G75*
G02X19292163Y-123250169I12406J10295D01*
G01*
X19298004Y-123258135D02*
G75*
G02X19295022Y-123255277I10995J14458D01*
G01*
X19301808Y-123260528D02*
G75*
G02X19298004Y-123258136I11528J22553D01*
G01*
X19305813Y-123262133D02*
G75*
G02X19301808Y-123260528I6762J22671D01*
G01*
X19309384Y-123262619D02*
G75*
G02X19305813Y-123262133I-229J11691D01*
G01*
X19313439Y-123262263D02*
G75*
G02X19309384Y-123262618I-4642J29680D01*
G01*
X19314221Y-123261131D02*
G75*
G02X19313438Y-123262263I-929J-194D01*
G01*
X19313100Y-123259282D02*
G75*
G02X19314221Y-123261131I-2062J-2515D01*
G01*
X19307816Y-123255118D02*
X19313100Y-123259282D01*
X20082574Y-117069496D02*
G75*
G02X20091771Y-117060571I24520J-16067D01*
G01*
X20091771Y-117060571D02*
G75*
G02X20102879Y-117057745I10107J-16484D01*
G01*
X20102879Y-117057745D02*
G75*
G02X20113607Y-117061707I-996J-19203D01*
G01*
X20113606Y-117061707D02*
G75*
G02X20121759Y-117071527I-17650J-22947D01*
G01*
X20121760Y-117071527D02*
G75*
G02X20133695Y-117104885I-124673J-63421D01*
G01*
X20149153Y-117180779D02*
X20133695Y-117104885D01*
X20166249Y-117280893D02*
X20149153Y-117180779D01*
X20184771Y-117407777D02*
X20166249Y-117280893D01*
X20189195Y-117439649D02*
X20184771Y-117407777D01*
X20193664Y-117471324D02*
X20189195Y-117439649D01*
X20197609Y-117498853D02*
X20193664Y-117471324D01*
X20200058Y-117515277D02*
X20197609Y-117498853D01*
X20202198Y-117529274D02*
X20200058Y-117515277D01*
X20204846Y-117546746D02*
X20202198Y-117529274D01*
X20207550Y-117564693D02*
X20204846Y-117546746D01*
X20209879Y-117580277D02*
X20207550Y-117564693D01*
X20250474Y-117845675D02*
X20209879Y-117580277D01*
X20282146Y-118033530D02*
X20250474Y-117845675D01*
X20312899Y-118191341D02*
X20282146Y-118033530D01*
X20349454Y-118355379D02*
X20312899Y-118191341D01*
X20374492Y-118458731D02*
X20349454Y-118355379D01*
X20406786Y-118586990D02*
X20374492Y-118458731D01*
X20438947Y-118712230D02*
X20406786Y-118586990D01*
X20449546Y-118747777D02*
X20438947Y-118712230D01*
X20451577Y-118754390D02*
X20449546Y-118747777D01*
X20454324Y-118764684D02*
X20451577Y-118754390D01*
X20457226Y-118776332D02*
X20454324Y-118764684D01*
X20459866Y-118787777D02*
X20457226Y-118776332D01*
X20462509Y-118799406D02*
X20459866Y-118787777D01*
X20465418Y-118811606D02*
X20462509Y-118799406D01*
X20468167Y-118822654D02*
X20465418Y-118811606D01*
X20470219Y-118830277D02*
X20468167Y-118822654D01*
X20491211Y-118911306D02*
X20470219Y-118830277D01*
X20520319Y-119039530D02*
X20491211Y-118911306D01*
X20547583Y-119167148D02*
X20520319Y-119039530D01*
X20560471Y-119240277D02*
X20547583Y-119167148D01*
X20562659Y-119254272D02*
X20560471Y-119240277D01*
X20565675Y-119271746D02*
X20562659Y-119254272D01*
X20568972Y-119289692D02*
X20565675Y-119271746D01*
X20572053Y-119305277D02*
X20568972Y-119289692D01*
X20583969Y-119371401D02*
X20572053Y-119305277D01*
X20598521Y-119470705D02*
X20583969Y-119371401D01*
X20613047Y-119582002D02*
X20598521Y-119470705D01*
X20625375Y-119690277D02*
X20613047Y-119582002D01*
X20633692Y-119777355D02*
X20625375Y-119690277D01*
X20641238Y-119873355D02*
X20633692Y-119777355D01*
X20649412Y-119996795D02*
X20641238Y-119873355D01*
X20659993Y-120175277D02*
X20649412Y-119996795D01*
X20664428Y-120311801D02*
X20659993Y-120175277D01*
X20663207Y-120473699D02*
X20664428Y-120311801D01*
D13*
X20656205Y-120680188D02*
X20663207Y-120473699D01*
X20642243Y-120960277D02*
X20656205Y-120680188D01*
D12*
X20638309Y-121013260D02*
X20642243Y-120960277D01*
X20629073Y-121107488D02*
X20638309Y-121013260D01*
X20618702Y-121204897D02*
X20629073Y-121107488D01*
X20609856Y-121277777D02*
X20618702Y-121204897D01*
X20607613Y-121295020D02*
X20609856Y-121277777D01*
X20604937Y-121316012D02*
X20607613Y-121295020D01*
X20602271Y-121337241D02*
X20604937Y-121316012D01*
X20600050Y-121355277D02*
X20602271Y-121337241D01*
X20597806Y-121372962D02*
X20600050Y-121355277D01*
X20595075Y-121393074D02*
X20597806Y-121372962D01*
X20592299Y-121412476D02*
X20595075Y-121393074D01*
X20589942Y-121427777D02*
X20592299Y-121412476D01*
X20587622Y-121442744D02*
X20589942Y-121427777D01*
X20584972Y-121461012D02*
X20587622Y-121442744D01*
X20582418Y-121479518D02*
X20584972Y-121461012D01*
X20580389Y-121495277D02*
X20582418Y-121479518D01*
X20561335Y-121617675D02*
X20580389Y-121495277D01*
X20521650Y-121819623D02*
X20561335Y-121617675D01*
X20478766Y-122021371D02*
X20521650Y-121819623D01*
X20447485Y-122145277D02*
X20478766Y-122021371D01*
X20444512Y-122155948D02*
X20447485Y-122145277D01*
X20441467Y-122167340D02*
X20444512Y-122155948D01*
X20438776Y-122177807D02*
X20441467Y-122167340D01*
X20436995Y-122185277D02*
X20438776Y-122177807D01*
X20427390Y-122223770D02*
X20436995Y-122185277D01*
X20397648Y-122331388D02*
X20427390Y-122223770D01*
X20367938Y-122437284D02*
X20397648Y-122331388D01*
X20350778Y-122495277D02*
X20367938Y-122437284D01*
X20346460Y-122509274D02*
X20350778Y-122495277D01*
X20341080Y-122526746D02*
X20346460Y-122509274D01*
X20335561Y-122544693D02*
X20341080Y-122526746D01*
X20330776Y-122560277D02*
X20335561Y-122544693D01*
X20313681Y-122614093D02*
X20330776Y-122560277D01*
X20282504Y-122708295D02*
X20313681Y-122614093D01*
X20249871Y-122805470D02*
X20282504Y-122708295D01*
X20224966Y-122877777D02*
X20249871Y-122805470D01*
X20214918Y-122906638D02*
X20224966Y-122877777D01*
X20205745Y-122933387D02*
X20214918Y-122906638D01*
X20198156Y-122955862D02*
X20205745Y-122933387D01*
X20195217Y-122965277D02*
X20198156Y-122955862D01*
X20192515Y-122974002D02*
X20195217Y-122965277D01*
X20186887Y-122990861D02*
X20192515Y-122974002D01*
X20180133Y-123010670D02*
X20186887Y-122990861D01*
X20172951Y-123031307D02*
X20180133Y-123010670D01*
X20155426Y-123084707D02*
X20172951Y-123031307D01*
X20155298Y-123104677D02*
G75*
G02X20155426Y-123084707I33535J9771D01*
G01*
X20162456Y-123105327D02*
G75*
G02X20155299Y-123104677I-3451J1730D01*
G01*
X20182120Y-123062777D02*
X20162455Y-123105327D01*
X20188098Y-123048783D02*
X20182120Y-123062777D01*
X20194664Y-123033598D02*
X20188098Y-123048783D01*
X20200839Y-123019472D02*
X20194664Y-123033598D01*
X20205464Y-123009082D02*
X20200839Y-123019472D01*
X20209124Y-123000664D02*
X20205464Y-123009082D01*
X20212214Y-122992904D02*
X20209124Y-123000664D01*
X20214584Y-122986362D02*
X20212214Y-122992904D01*
X20215021Y-122983771D02*
G75*
G02X20214584Y-122986362I-7897J0D01*
G01*
X20215021Y-122983771D02*
G75*
G02X20215482Y-122981197I7424J0D01*
G01*
X20217959Y-122974785D02*
X20215482Y-122981197D01*
X20221191Y-122967186D02*
X20217959Y-122974785D01*
X20225022Y-122958958D02*
X20221191Y-122967186D01*
X20228851Y-122950659D02*
X20225022Y-122958958D01*
X20232084Y-122942840D02*
X20228851Y-122950659D01*
X20234508Y-122936216D02*
X20232084Y-122942840D01*
X20235021Y-122933153D02*
G75*
G02X20234508Y-122936216I-9398J0D01*
G01*
X20235022Y-122933153D02*
G75*
G02X20235503Y-122930064I10154J0D01*
G01*
X20237803Y-122923264D02*
X20235503Y-122930064D01*
X20240864Y-122915223D02*
X20237803Y-122923264D01*
X20244490Y-122906661D02*
X20240864Y-122915223D01*
X19014682Y-121708855D02*
X19010103Y-121700347D01*
X19014682Y-121708855D02*
G75*
G02X19015022Y-121710212I-2538J-1357D01*
G01*
X19004695Y-121690555D02*
X18998277Y-121679295D01*
X19010103Y-121700347D02*
X19004695Y-121690555D01*
X17013874Y-123304228D02*
G75*
G02X17005022Y-123297537I13556J27135D01*
G01*
X17003092Y-123295897D02*
G75*
G02X17005022Y-123297537I-5453J-8377D01*
G01*
X16995912Y-123291285D02*
X17003091Y-123295898D01*
X16987281Y-123285930D02*
X16995912Y-123291285D01*
X16977522Y-123280101D02*
X16987281Y-123285930D01*
X16967356Y-123274103D02*
X16977522Y-123280101D01*
X16957487Y-123268234D02*
X16967356Y-123274103D01*
X16949047Y-123263177D02*
X16957487Y-123268234D01*
X16944424Y-123260341D02*
X16949047Y-123263177D01*
X16940259Y-123257797D02*
X16944424Y-123260341D01*
X16934094Y-123254150D02*
X16940259Y-123257797D01*
X16927233Y-123250155D02*
X16934094Y-123254150D01*
X16920629Y-123246375D02*
X16927233Y-123250155D01*
X16920629Y-123246375D02*
G75*
G02X16910474Y-123239975I63669J112281D01*
G01*
X16882016Y-123220005D02*
X16910474Y-123239975D01*
X16848261Y-123195940D02*
X16882016Y-123220005D01*
X16811226Y-123169103D02*
X16848261Y-123195940D01*
X16633114Y-123046773D02*
X16811226Y-123169103D01*
X16486099Y-122963678D02*
G75*
G02X16633114Y-123046773I-631554J-1288984D01*
G01*
X16326951Y-122896610D02*
G75*
G02X16486098Y-122963679I-510715J-1434241D01*
G01*
X16108826Y-122824954D02*
X16326951Y-122896611D01*
X16076926Y-122815042D02*
X16108826Y-122824954D01*
X16076927Y-122815042D02*
G75*
G02X16066329Y-122810106I14167J44263D01*
G01*
X16066329Y-122810106D02*
G75*
G02X16061681Y-122804159I5938J9430D01*
G01*
X16061681Y-122804159D02*
G75*
G02X16060076Y-122794254I30438J10015D01*
G01*
X16060076Y-122794254D02*
G75*
G02X16060628Y-122785206I70514J241D01*
G01*
X21285632Y-124719595D02*
X21397606Y-124749292D01*
X21198054Y-124693690D02*
X21285632Y-124719595D01*
X21198055Y-124693690D02*
G75*
G02X21142522Y-124673101I169046J541143D01*
G01*
X21137486Y-124671027D02*
X21142522Y-124673101D01*
X21130318Y-124668265D02*
X21137486Y-124671027D01*
X21122455Y-124665344D02*
X21130318Y-124668265D01*
X21115022Y-124662696D02*
X21122455Y-124665344D01*
X21107177Y-124659863D02*
X21115022Y-124662696D01*
X21098034Y-124656363D02*
X21107177Y-124659863D01*
X21089059Y-124652778D02*
X21098034Y-124656363D01*
X21081766Y-124649691D02*
X21089059Y-124652778D01*
X21075511Y-124647043D02*
X21081766Y-124649691D01*
X21069752Y-124644808D02*
X21075511Y-124647043D01*
X21064899Y-124643092D02*
X21069752Y-124644808D01*
X21062993Y-124642777D02*
G75*
G02X21064899Y-124643092I0J-5933D01*
G01*
X21062993Y-124642778D02*
G75*
G02X21059189Y-124642029I0J10037D01*
G01*
X20964667Y-124603305D02*
X21059189Y-124642029D01*
X20881032Y-124568860D02*
X20964667Y-124603305D01*
X20835022Y-124549343D02*
X20881032Y-124568860D01*
X20784226Y-124526283D02*
X20835022Y-124549343D01*
X20714035Y-124492512D02*
X20784226Y-124526283D01*
X20646005Y-124458811D02*
X20714035Y-124492512D01*
X20610022Y-124439386D02*
X20646005Y-124458811D01*
X20584250Y-124424488D02*
X20610022Y-124439386D01*
X20565712Y-124413819D02*
X20584250Y-124424488D01*
X20552040Y-124406010D02*
X20565712Y-124413819D01*
X20542522Y-124400665D02*
X20552040Y-124406010D01*
X20502423Y-124376144D02*
X20542522Y-124400665D01*
X20452352Y-124341071D02*
X20502423Y-124376144D01*
X20399465Y-124300893D02*
X20452352Y-124341071D01*
X20350022Y-124260105D02*
X20399465Y-124300893D01*
X20350022Y-124260106D02*
G75*
G02X20270238Y-124183873I695822J808099D01*
G01*
X20270238Y-124183873D02*
G75*
G02X20198595Y-124099661I781638J737557D01*
G01*
X20198596Y-124099661D02*
G75*
G02X20135002Y-124007259I878955J673003D01*
G01*
X20135001Y-124007258D02*
G75*
G02X20079292Y-123906527I1044989J643704D01*
G01*
X20066672Y-123882136D02*
X20079292Y-123906527D01*
X20058836Y-123871479D02*
G75*
G02X20066672Y-123882136I-34612J-33661D01*
G01*
X20052757Y-123869559D02*
G75*
G02X20058835Y-123871478I1254J-6611D01*
G01*
X20047112Y-123873439D02*
G75*
G02X20052758Y-123869558I7228J-4468D01*
G01*
X20045653Y-123878424D02*
G75*
G02X20047112Y-123873440I9773J-154D01*
G01*
X20043420Y-124021549D02*
X20045654Y-123878424D01*
X20041301Y-124181187D02*
X20043420Y-124021549D01*
X20039456Y-124369690D02*
X20041301Y-124181187D01*
X20037665Y-124558576D02*
X20039456Y-124369690D01*
X20035717Y-124719472D02*
X20037665Y-124558576D01*
X20033721Y-124862425D02*
X20035717Y-124719472D01*
X20033721Y-124862424D02*
G75*
G02X20032565Y-124871527I-41009J581D01*
G01*
X20032565Y-124871527D02*
G75*
G02X20031012Y-124875830I-20606J5007D01*
G01*
X20031011Y-124875830D02*
G75*
G02X20028627Y-124879473I-15676J7660D01*
G01*
X20028628Y-124879473D02*
G75*
G02X20025815Y-124881944I-9855J8380D01*
G01*
X20025814Y-124881943D02*
G75*
G02X20022998Y-124882777I-2816J4339D01*
G01*
X20022998Y-124882778D02*
G75*
G02X20018527Y-124881046I0J6637D01*
G01*
X19995478Y-124859837D02*
X20018527Y-124881046D01*
X19969013Y-124834616D02*
X19995478Y-124859837D01*
X19938906Y-124804683D02*
X19969013Y-124834616D01*
X19861648Y-124726588D02*
X19938906Y-124804683D01*
X19858335Y-124426359D02*
X19861648Y-124726588D01*
X19857066Y-124301023D02*
X19858335Y-124426359D01*
X19855995Y-124172704D02*
X19857066Y-124301023D01*
X19855237Y-124058674D02*
X19855995Y-124172704D01*
X19855022Y-123984454D02*
X19855237Y-124058674D01*
X19854720Y-123923849D02*
X19855022Y-123984454D01*
X19853728Y-123879717D02*
X19854720Y-123923849D01*
X19852369Y-123844990D02*
X19853728Y-123879717D01*
X19850060Y-123842777D02*
G75*
G02X19852369Y-123844990I-1J-2312D01*
G01*
X19847054Y-123844088D02*
G75*
G02X19850059Y-123842777I3005J-2787D01*
G01*
X19836630Y-123855560D02*
X19847055Y-123844089D01*
X19824618Y-123869615D02*
X19836630Y-123855560D01*
X19811309Y-123886292D02*
X19824618Y-123869615D01*
X19719679Y-123996929D02*
X19811309Y-123886292D01*
X19621336Y-124101497D02*
X19719679Y-123996929D01*
X19522618Y-124193723D02*
X19621336Y-124101497D01*
X19522618Y-124193723D02*
G75*
G02X19430022Y-124266907I-785138J898227D01*
G01*
X19293872Y-124357727D02*
X19430022Y-124266907D01*
X19160543Y-124434003D02*
X19293872Y-124357727D01*
X19020115Y-124500989D02*
X19160543Y-124434003D01*
X18862522Y-124563854D02*
X19020115Y-124500989D01*
X18806592Y-124583017D02*
X18862522Y-124563854D01*
X18714001Y-124612067D02*
X18806592Y-124583017D01*
X18620530Y-124640489D02*
X18714001Y-124612067D01*
X18620531Y-124640489D02*
G75*
G02X18585022Y-124649348I-111894J372905D01*
G01*
X18575788Y-124651427D02*
X18585022Y-124649348D01*
X18526256Y-124663853D02*
X18575788Y-124651427D01*
X18468574Y-124678414D02*
X18526256Y-124663853D01*
X18402522Y-124695214D02*
X18468574Y-124678414D01*
X18335223Y-124712309D02*
X18402522Y-124695214D01*
X18273647Y-124727802D02*
X18335223Y-124712309D01*
X18222000Y-124740673D02*
X18273647Y-124727802D01*
X18202522Y-124745258D02*
X18222000Y-124740673D01*
X18189392Y-124748201D02*
X18202522Y-124745258D01*
X18174725Y-124751527D02*
X18189392Y-124748201D01*
X18160765Y-124754724D02*
X18174725Y-124751527D01*
X18150022Y-124757222D02*
X18160765Y-124754724D01*
X18126495Y-124762411D02*
X18150022Y-124757222D01*
X18069890Y-124774006D02*
X18126495Y-124762411D01*
X18006655Y-124786751D02*
X18069890Y-124774006D01*
X17946570Y-124798613D02*
X18006655Y-124786751D01*
X17930754Y-124801291D02*
X17946570Y-124798613D01*
X17930754Y-124801291D02*
G75*
G02X17919488Y-124802124I-11660J81132D01*
G01*
X17919487Y-124802124D02*
G75*
G02X17910662Y-124801315I-221J46104D01*
G01*
X17910662Y-124801315D02*
G75*
G02X17902820Y-124798823I6419J33790D01*
G01*
X17902820Y-124798822D02*
G75*
G02X17893799Y-124785506I6402J14050D01*
G01*
X17893799Y-124785506D02*
G75*
G02X17899252Y-124766313I31269J1487D01*
G01*
X17899252Y-124766313D02*
G75*
G02X17927331Y-124731110I257590J-176662D01*
G01*
X18009998Y-124642550D02*
X17927331Y-124731110D01*
X18047172Y-124603045D02*
X18009998Y-124642550D01*
X18086499Y-124561019D02*
X18047172Y-124603045D01*
X18122351Y-124522510D02*
X18086499Y-124561019D01*
X18147522Y-124495213D02*
X18122351Y-124522510D01*
X18190178Y-124449392D02*
X18147522Y-124495213D01*
X18226361Y-124412256D02*
X18190178Y-124449392D01*
X18263224Y-124376564D02*
X18226361Y-124412256D01*
X18307926Y-124335277D02*
X18263224Y-124376564D01*
X18327115Y-124317823D02*
X18307926Y-124335277D01*
X18343687Y-124302653D02*
X18327115Y-124317823D01*
X18358008Y-124289477D02*
X18343687Y-124302653D01*
X18360021Y-124287406D02*
G75*
G02X18358008Y-124289477I-19819J17259D01*
G01*
X18360021Y-124287407D02*
G75*
G02X18362103Y-124285349I14795J-12883D01*
G01*
X18380147Y-124270015D02*
X18362103Y-124285349D01*
X18400885Y-124252487D02*
X18380147Y-124270015D01*
X18425022Y-124232231D02*
X18400885Y-124252487D01*
X18530470Y-124147248D02*
X18425022Y-124232231D01*
X18630076Y-124073754D02*
X18530470Y-124147248D01*
X18730113Y-124007287D02*
X18630076Y-124073754D01*
X18836795Y-123943515D02*
X18730113Y-124007287D01*
X18870714Y-123925268D02*
X18836795Y-123943515D01*
X18926262Y-123897389D02*
X18870714Y-123925268D01*
X18982493Y-123869994D02*
X18926262Y-123897389D01*
X19020022Y-123852890D02*
X18982493Y-123869994D01*
X19059757Y-123835775D02*
X19020022Y-123852890D01*
X19079737Y-123827382D02*
X19059757Y-123835775D01*
X19095779Y-123821025D02*
X19079737Y-123827382D01*
X19116272Y-123813347D02*
X19095779Y-123821025D01*
X19129186Y-123808599D02*
X19116272Y-123813347D01*
X19144287Y-123803046D02*
X19129186Y-123808599D01*
X19159151Y-123797580D02*
X19144287Y-123803046D01*
X19171272Y-123793122D02*
X19159151Y-123797580D01*
X19206104Y-123781114D02*
X19171272Y-123793122D01*
X19263274Y-123763030D02*
X19206104Y-123781114D01*
X19320340Y-123745577D02*
X19263274Y-123763030D01*
X19347522Y-123738372D02*
X19320340Y-123745577D01*
X19403341Y-123724277D02*
X19347522Y-123738372D01*
X19468904Y-123705292D02*
X19403341Y-123724277D01*
X19530034Y-123686296D02*
X19468904Y-123705292D01*
X19529691Y-123683050D02*
G75*
G02X19530034Y-123686296I-161J-1658D01*
G01*
X19527681Y-123683099D02*
G75*
G02X19529690Y-123683051I1204J-8298D01*
G01*
X19519709Y-123684287D02*
X19527681Y-123683099D01*
X19510305Y-123685799D02*
X19519709Y-123684287D01*
X19499690Y-123687644D02*
X19510305Y-123685799D01*
X19474754Y-123691359D02*
X19499690Y-123687644D01*
X19430359Y-123696376D02*
X19474754Y-123691359D01*
X19365074Y-123703070D02*
X19430359Y-123696376D01*
X19263645Y-123712894D02*
X19365074Y-123703070D01*
X19235352Y-123715035D02*
X19263645Y-123712894D01*
X19181795Y-123717839D02*
X19235352Y-123715035D01*
X19118915Y-123720681D02*
X19181795Y-123717839D01*
X19053645Y-123723169D02*
X19118915Y-123720681D01*
X18908340Y-123726041D02*
X19053645Y-123723169D01*
X18781748Y-123723781D02*
X18908340Y-123726041D01*
X18636661Y-123715269D02*
X18781748Y-123723781D01*
X18425022Y-123697707D02*
X18636661Y-123715269D01*
X18364771Y-123691119D02*
X18425022Y-123697707D01*
X18281738Y-123679690D02*
X18364771Y-123691119D01*
X18184250Y-123664788D02*
X18281738Y-123679690D01*
X18077522Y-123647109D02*
X18184250Y-123664788D01*
X17971857Y-123627377D02*
X18077522Y-123647109D01*
X17854034Y-123602215D02*
X17971857Y-123627377D01*
X17737305Y-123574654D02*
X17854034Y-123602215D01*
X17635022Y-123547637D02*
X17737305Y-123574654D01*
X17619381Y-123543300D02*
X17635022Y-123547637D01*
X17603397Y-123538981D02*
X17619381Y-123543300D01*
X17589207Y-123535245D02*
X17603397Y-123538981D01*
X17580022Y-123532966D02*
X17589207Y-123535245D01*
X17571722Y-123530851D02*
X17580022Y-123532966D01*
X17561053Y-123527839D02*
X17571722Y-123530851D01*
X17549914Y-123524499D02*
X17561053Y-123527839D01*
X17540022Y-123521321D02*
X17549914Y-123524499D01*
X17528663Y-123517567D02*
X17540022Y-123521321D01*
X17512381Y-123512256D02*
X17528663Y-123517567D01*
X17494485Y-123506458D02*
X17512381Y-123512256D01*
X17477522Y-123501004D02*
X17494485Y-123506458D01*
X17413400Y-123479584D02*
X17477522Y-123501004D01*
X17349573Y-123456485D02*
X17413400Y-123479584D01*
X17285345Y-123431444D02*
X17349573Y-123456485D01*
X20191588Y-123629800D02*
G75*
G02X20185529Y-123627293I15601J46284D01*
G01*
X20198772Y-123631862D02*
G75*
G02X20191589Y-123629800I19033J79840D01*
G01*
X20225611Y-123637712D02*
X20198772Y-123631862D01*
X16378409Y-119291121D02*
G75*
G02X16393800Y-119299519I-19851J-54684D01*
G01*
X16433573Y-119330444D02*
X16393800Y-119299519D01*
X16480950Y-119369163D02*
X16433573Y-119330444D01*
X16533636Y-119414359D02*
X16480950Y-119369163D01*
X16698174Y-119552127D02*
X16533636Y-119414359D01*
X16843791Y-119660502D02*
X16698174Y-119552127D01*
X17012714Y-119769733D02*
X16843791Y-119660502D01*
X17257522Y-119914069D02*
X17012714Y-119769733D01*
X19571306Y-119506615D02*
X19547577Y-119615220D01*
X19494593Y-119906118D02*
X19492916Y-119920277D01*
X19286280Y-122220659D02*
X19246362Y-122142777D01*
X19400735Y-122449065D02*
X19286280Y-122220659D01*
X19593793Y-119422863D02*
X19590420Y-119435871D01*
X19609796Y-122390277D02*
X19612223Y-122399554D01*
X17980696Y-120396196D02*
X17949731Y-120371569D01*
X18034121Y-120440261D02*
X17980696Y-120396196D01*
X19655296Y-119199293D02*
X19640717Y-119248596D01*
X19041545Y-121760738D02*
X19027657Y-121734784D01*
X19058037Y-121791194D02*
X19041545Y-121760738D01*
X19607389Y-122380966D02*
X19609796Y-122390277D01*
X19530667Y-122712450D02*
G75*
G02X19530022Y-122709625I5867J2825D01*
G01*
X19570128Y-122794375D02*
X19530666Y-122712451D01*
X19493686Y-121728002D02*
X19499812Y-121775277D01*
X19590420Y-119435871D02*
X19587276Y-119447511D01*
X19610559Y-119357297D02*
X19602925Y-119386256D01*
X19622102Y-122443678D02*
X19625424Y-122458215D01*
X19619792Y-122432777D02*
X19622102Y-122443678D01*
X19617434Y-122892202D02*
X19570128Y-122794375D01*
X19680900Y-123022769D02*
X19617434Y-122892202D01*
X19994836Y-117595277D02*
X19983743Y-117688355D01*
X18390510Y-120769449D02*
X18307249Y-120684817D01*
X18457941Y-120843323D02*
X18390510Y-120769449D01*
X19015378Y-121711643D02*
G75*
G02X19015022Y-121710212I2699J1431D01*
G01*
X19027657Y-121734784D02*
X19015377Y-121711643D01*
X19457431Y-121334943D02*
X19460146Y-121374262D01*
X19436197Y-120790776D02*
X19441200Y-121010800D01*
X17312323Y-119945700D02*
X17257522Y-119914069D01*
X17365350Y-119976582D02*
X17312323Y-119945700D01*
X17410594Y-120003170D02*
X17365350Y-119976582D01*
X19462884Y-121410118D02*
X19465155Y-121435277D01*
X20064571Y-117113376D02*
G75*
G02X20082574Y-117069496I122645J-24684D01*
G01*
X19983743Y-117688355D02*
X19966692Y-117818323D01*
X19966692Y-117818323D02*
X19948247Y-117952128D01*
X19948247Y-117952128D02*
X19932296Y-118060277D01*
X19594799Y-122321609D02*
X19597913Y-122336189D01*
X19672754Y-119140648D02*
X19655296Y-119199293D01*
X19665004Y-122616641D02*
X19688021Y-122705658D01*
X19652687Y-122567777D02*
X19665004Y-122616641D01*
X19439221Y-120585430D02*
X19436197Y-120790776D01*
X19497211Y-119888074D02*
X19494593Y-119906118D01*
X19596912Y-119410277D02*
X19593793Y-119422863D01*
X18091890Y-120488546D02*
X18034121Y-120440261D01*
X18142522Y-120531589D02*
X18091890Y-120488546D01*
X19640717Y-119248596D02*
X19634498Y-119270277D01*
X19546332Y-122082567D02*
X19569739Y-122208706D01*
X19472649Y-121517124D02*
X19474772Y-121542777D01*
X19602098Y-122357528D02*
X19604678Y-122369391D01*
X19620636Y-119320269D02*
X19610559Y-119357297D01*
X19612223Y-122399554D02*
X19614997Y-122411012D01*
X19774298Y-118790004D02*
X19691595Y-119077777D01*
X19524401Y-121953232D02*
X19546332Y-122082567D01*
X19486414Y-121663404D02*
X19493686Y-121728002D01*
X17435022Y-120017924D02*
X17410594Y-120003170D01*
X17452943Y-120028971D02*
X17435022Y-120017924D01*
X17471647Y-120040441D02*
X17452943Y-120028971D01*
X17488524Y-120050743D02*
X17471647Y-120040441D01*
X17500022Y-120057694D02*
X17488524Y-120050743D01*
X19597913Y-122336189D02*
X19600081Y-122347260D01*
X19455160Y-121297777D02*
X19457431Y-121334943D01*
X19891058Y-118296192D02*
X19839522Y-118534580D01*
X19602925Y-119386256D02*
X19596912Y-119410277D01*
X19932296Y-118060277D02*
X19891058Y-118296192D01*
X19614997Y-122411012D02*
X19617668Y-122422709D01*
X19465155Y-121435277D02*
X19467410Y-121458549D01*
X19510387Y-121855277D02*
X19524401Y-121953232D01*
X19647592Y-122547213D02*
X19652687Y-122567777D01*
X19641964Y-122524684D02*
X19647592Y-122547213D01*
X17838770Y-120288408D02*
X17712111Y-120198124D01*
X17949731Y-120371569D02*
X17838770Y-120288408D01*
X19466010Y-120160768D02*
X19456089Y-120270173D01*
X19585002Y-119455277D02*
X19571306Y-119506615D01*
X18990348Y-121665352D02*
X18980163Y-121647052D01*
X18998277Y-121679295D02*
X18990348Y-121665352D01*
X19175179Y-122007925D02*
X19157627Y-121975277D01*
X19196050Y-122047166D02*
X19175179Y-122007925D01*
X19793771Y-123203775D02*
G75*
G02X19778450Y-123204191I-7814J5438D01*
G01*
X19801642Y-123177617D02*
G75*
G02X19793772Y-123203776I-43965J-1036D01*
G01*
X19591336Y-122306189D02*
X19594799Y-122321609D01*
X19504965Y-121813215D02*
X19507876Y-121835494D01*
X19500258Y-119869324D02*
X19497211Y-119888074D01*
X19492916Y-119920277D02*
X19491414Y-119934273D01*
X19474772Y-121542777D02*
X19479586Y-121596968D01*
X19219842Y-122092235D02*
X19196050Y-122047166D01*
X19246362Y-122142777D02*
X19219842Y-122092235D01*
X19476782Y-120053128D02*
X19466010Y-120160768D01*
X19839522Y-118534580D02*
X19774298Y-118790004D01*
X19547577Y-119615220D02*
X19525096Y-119724104D01*
X19529044Y-122705488D02*
X19400735Y-122449065D01*
X19529045Y-122705488D02*
G75*
G02X19530022Y-122709625I-8269J-4137D01*
G01*
X17590998Y-120115371D02*
X17500022Y-120057694D01*
X17712111Y-120198124D02*
X17590998Y-120115371D01*
X18576981Y-120992044D02*
X18457941Y-120843323D01*
X18702584Y-121173051D02*
X18576981Y-120992044D01*
X19525096Y-119724104D02*
X19514785Y-119785277D01*
X19691595Y-119077777D02*
X19672754Y-119140648D01*
X19467410Y-121458549D02*
X19470054Y-121487481D01*
X19503300Y-119852777D02*
X19500258Y-119869324D01*
X19512686Y-119799437D02*
X19509713Y-119817481D01*
X19485041Y-119985277D02*
X19476782Y-120053128D01*
X19762789Y-122990486D02*
X19784316Y-123078882D01*
X19729915Y-122865277D02*
X19762789Y-122990486D01*
X19629114Y-122473688D02*
X19632635Y-122487777D01*
X19625424Y-122458215D02*
X19629114Y-122473688D01*
X19588031Y-122292260D02*
X19591336Y-122306189D01*
X19506422Y-119836231D02*
X19503300Y-119852777D01*
X20042634Y-117232589D02*
X20019274Y-117390793D01*
X19489359Y-119951746D02*
X19487122Y-119969693D01*
X19604678Y-122369391D02*
X19607389Y-122380966D01*
X19569739Y-122208706D02*
X19588031Y-122292260D01*
X19450432Y-120347777D02*
X19439221Y-120585430D01*
X20064571Y-117113377D02*
X20042634Y-117232589D01*
X19514785Y-119785277D02*
X19512686Y-119799437D01*
X19711965Y-122797481D02*
X19729915Y-122865277D01*
X19688021Y-122705658D02*
X19711965Y-122797481D01*
X19507876Y-121835494D02*
X19510387Y-121855277D01*
X19636652Y-122503561D02*
X19641964Y-122524684D01*
X19632635Y-122487777D02*
X19636652Y-122503561D01*
X19460146Y-121374262D02*
X19462884Y-121410118D01*
X19797789Y-123142241D02*
G75*
G02X19801641Y-123177617I-205937J-40320D01*
G01*
X19784316Y-123078882D02*
X19797790Y-123142241D01*
X19149971Y-121961116D02*
X19140235Y-121943074D01*
X19157627Y-121975277D02*
X19149971Y-121961116D01*
X19617668Y-122422709D02*
X19619792Y-122432777D01*
X19509713Y-119817481D02*
X19506422Y-119836231D01*
X18220584Y-120601527D02*
X18142522Y-120531589D01*
X18307249Y-120684817D02*
X18220584Y-120601527D01*
X19502112Y-121791881D02*
X19504965Y-121813215D01*
X19487122Y-119969693D02*
X19485041Y-119985277D01*
X19587276Y-119447511D02*
X19585002Y-119455277D01*
X20019274Y-117390793D02*
X19994836Y-117595277D01*
X18969544Y-121627713D02*
X18960123Y-121610277D01*
X18980163Y-121647052D02*
X18969544Y-121627713D01*
X19745824Y-123152971D02*
X19680900Y-123022769D01*
X19778449Y-123204191D02*
G75*
G02X19745824Y-123152971I252153J196613D01*
G01*
X19441200Y-121010800D02*
X19455160Y-121297777D01*
D11*
G36*
X35604975Y-94458585D02*
G01*
X35904528Y-94518170D01*
X36468874Y-94751930D01*
X36976772Y-95091296D01*
X37408704Y-95523228D01*
X37748070Y-96031126D01*
X37981830Y-96595472D01*
X38101000Y-97194578D01*
X38101000Y-97805422D01*
X37981830Y-98404528D01*
X37748070Y-98968874D01*
X37408704Y-99476772D01*
X36976772Y-99908704D01*
X36468874Y-100248070D01*
X35904528Y-100481830D01*
X35604975Y-100541415D01*
X35305423Y-100601000D01*
X34694577Y-100601000D01*
X34395025Y-100541415D01*
X34095472Y-100481830D01*
X33531126Y-100248070D01*
X33023228Y-99908704D01*
X32591296Y-99476772D01*
X32251930Y-98968874D01*
X32018170Y-98404528D01*
X31899000Y-97805422D01*
X31899000Y-97194578D01*
X32018170Y-96595472D01*
X32251930Y-96031126D01*
X32591296Y-95523228D01*
X33023228Y-95091296D01*
X33531126Y-94751930D01*
X34095472Y-94518170D01*
X34395025Y-94458585D01*
X34694577Y-94399000D01*
X35305423Y-94399000D01*
X35604975Y-94458585D01*
G37*
G36*
X25604975Y-94458585D02*
G01*
X25904528Y-94518170D01*
X26468874Y-94751930D01*
X26976772Y-95091296D01*
X27408704Y-95523228D01*
X27748070Y-96031126D01*
X27981830Y-96595472D01*
X28101000Y-97194578D01*
X28101000Y-97805422D01*
X27981830Y-98404528D01*
X27748070Y-98968874D01*
X27408704Y-99476772D01*
X26976772Y-99908704D01*
X26468874Y-100248070D01*
X25904528Y-100481830D01*
X25604975Y-100541415D01*
X25305423Y-100601000D01*
X24694577Y-100601000D01*
X24395025Y-100541415D01*
X24095472Y-100481830D01*
X23531126Y-100248070D01*
X23023228Y-99908704D01*
X22591296Y-99476772D01*
X22251930Y-98968874D01*
X22018170Y-98404528D01*
X21899000Y-97805422D01*
X21899000Y-97194578D01*
X22018170Y-96595472D01*
X22251930Y-96031126D01*
X22591296Y-95523228D01*
X23023228Y-95091296D01*
X23531126Y-94751930D01*
X24095472Y-94518170D01*
X24395025Y-94458585D01*
X24694577Y-94399000D01*
X25305423Y-94399000D01*
X25604975Y-94458585D01*
G37*
G36*
X15604975Y-94458585D02*
G01*
X15904528Y-94518170D01*
X16468874Y-94751930D01*
X16976772Y-95091296D01*
X17408704Y-95523228D01*
X17748070Y-96031126D01*
X17981830Y-96595472D01*
X18101000Y-97194578D01*
X18101000Y-97805422D01*
X17981830Y-98404528D01*
X17748070Y-98968874D01*
X17408704Y-99476772D01*
X16976772Y-99908704D01*
X16468874Y-100248070D01*
X15904528Y-100481830D01*
X15604975Y-100541415D01*
X15305423Y-100601000D01*
X14694577Y-100601000D01*
X14395025Y-100541415D01*
X14095472Y-100481830D01*
X13531126Y-100248070D01*
X13023228Y-99908704D01*
X12591296Y-99476772D01*
X12251930Y-98968874D01*
X12018170Y-98404528D01*
X11899000Y-97805422D01*
X11899000Y-97194578D01*
X12018170Y-96595472D01*
X12251930Y-96031126D01*
X12591296Y-95523228D01*
X13023228Y-95091296D01*
X13531126Y-94751930D01*
X14095472Y-94518170D01*
X14395025Y-94458585D01*
X14694577Y-94399000D01*
X15305423Y-94399000D01*
X15604975Y-94458585D01*
G37*
G36*
X5604975Y-94458585D02*
G01*
X5904528Y-94518170D01*
X6468874Y-94751930D01*
X6976772Y-95091296D01*
X7408704Y-95523228D01*
X7748070Y-96031126D01*
X7981830Y-96595472D01*
X8101000Y-97194578D01*
X8101000Y-97805422D01*
X7981830Y-98404528D01*
X7748070Y-98968874D01*
X7408704Y-99476772D01*
X6976772Y-99908704D01*
X6468874Y-100248070D01*
X5904528Y-100481830D01*
X5604975Y-100541415D01*
X5305423Y-100601000D01*
X4694577Y-100601000D01*
X4395025Y-100541415D01*
X4095472Y-100481830D01*
X3531126Y-100248070D01*
X3023228Y-99908704D01*
X2591296Y-99476772D01*
X2251930Y-98968874D01*
X2018170Y-98404528D01*
X1899000Y-97805422D01*
X1899000Y-97194578D01*
X2018170Y-96595472D01*
X2251930Y-96031126D01*
X2591296Y-95523228D01*
X3023228Y-95091296D01*
X3531126Y-94751930D01*
X4095472Y-94518170D01*
X4395025Y-94458585D01*
X4694577Y-94399000D01*
X5305423Y-94399000D01*
X5604975Y-94458585D01*
G37*
M02*
