G04 #@! TF.GenerationSoftware,KiCad,Pcbnew,(5.1.5-0)*
G04 #@! TF.CreationDate,2021-01-14T18:28:11-08:00*
G04 #@! TF.ProjectId,duallpg,6475616c-6c70-4672-9e6b-696361645f70,rev?*
G04 #@! TF.SameCoordinates,Original*
G04 #@! TF.FileFunction,Copper,L1,Top*
G04 #@! TF.FilePolarity,Positive*
%FSLAX46Y46*%
G04 Gerber Fmt 4.6, Leading zero omitted, Abs format (unit mm)*
G04 Created by KiCad (PCBNEW (5.1.5-0)) date 2021-01-14 18:28:11*
%MOMM*%
%LPD*%
G04 APERTURE LIST*
%ADD10C,2.000000*%
%ADD11C,0.100000*%
%ADD12C,6.400000*%
%ADD13C,6.100000*%
G04 APERTURE END LIST*
D10*
X145250000Y11000000D02*
X105250000Y11000000D01*
X145250000Y-5000000D02*
X105250000Y-5000000D01*
D11*
G36*
X122096400Y-19274900D02*
G01*
X122413900Y-19516200D01*
X122979050Y-19833700D01*
X123575950Y-20265500D01*
X123950600Y-20646500D01*
X124350650Y-21211650D01*
X124947550Y-22392750D01*
X125246000Y-22957900D01*
X125258700Y-22970600D01*
X124928500Y-22996000D01*
X124826900Y-22945200D01*
X124471300Y-22697550D01*
X124064900Y-22329250D01*
X123734700Y-21980000D01*
X123379100Y-21548200D01*
X123099700Y-21129100D01*
X122909200Y-20875100D01*
X122655200Y-20417900D01*
X122401200Y-20049600D01*
X122159900Y-19630500D01*
X121880500Y-19071700D01*
X122096400Y-19274900D01*
G37*
X122096400Y-19274900D02*
X122413900Y-19516200D01*
X122979050Y-19833700D01*
X123575950Y-20265500D01*
X123950600Y-20646500D01*
X124350650Y-21211650D01*
X124947550Y-22392750D01*
X125246000Y-22957900D01*
X125258700Y-22970600D01*
X124928500Y-22996000D01*
X124826900Y-22945200D01*
X124471300Y-22697550D01*
X124064900Y-22329250D01*
X123734700Y-21980000D01*
X123379100Y-21548200D01*
X123099700Y-21129100D01*
X122909200Y-20875100D01*
X122655200Y-20417900D01*
X122401200Y-20049600D01*
X122159900Y-19630500D01*
X121880500Y-19071700D01*
X122096400Y-19274900D01*
G36*
X123502925Y-22453075D02*
G01*
X123839475Y-22548325D01*
X124103000Y-22640400D01*
X124801500Y-23046800D01*
X124831980Y-23074740D01*
X124839600Y-23059500D01*
X124839600Y-23072200D01*
X124831980Y-23074740D01*
X124750700Y-23237300D01*
X125144400Y-23377000D01*
X124934850Y-23402400D01*
X124541150Y-23427800D01*
X124064900Y-23427800D01*
X123620400Y-23364300D01*
X123137800Y-23250000D01*
X122744100Y-23135700D01*
X122337700Y-22907100D01*
X122020200Y-22678500D01*
X121613800Y-22551500D01*
X122261500Y-22500700D01*
X122794900Y-22462600D01*
X123258450Y-22456250D01*
X123502925Y-22453075D01*
G37*
X123502925Y-22453075D02*
X123839475Y-22548325D01*
X124103000Y-22640400D01*
X124801500Y-23046800D01*
X124831980Y-23074740D01*
X124839600Y-23059500D01*
X124839600Y-23072200D01*
X124831980Y-23074740D01*
X124750700Y-23237300D01*
X125144400Y-23377000D01*
X124934850Y-23402400D01*
X124541150Y-23427800D01*
X124064900Y-23427800D01*
X123620400Y-23364300D01*
X123137800Y-23250000D01*
X122744100Y-23135700D01*
X122337700Y-22907100D01*
X122020200Y-22678500D01*
X121613800Y-22551500D01*
X122261500Y-22500700D01*
X122794900Y-22462600D01*
X123258450Y-22456250D01*
X123502925Y-22453075D01*
G36*
X125366650Y-23516700D02*
G01*
X124998350Y-23948500D01*
X124560200Y-24221550D01*
X124179200Y-24361250D01*
X123429900Y-24526350D01*
X123912500Y-23999300D01*
X124306200Y-23732600D01*
X124674500Y-23529400D01*
X125144400Y-23453200D01*
X125169800Y-23453200D01*
X125366650Y-23516700D01*
G37*
X125366650Y-23516700D02*
X124998350Y-23948500D01*
X124560200Y-24221550D01*
X124179200Y-24361250D01*
X123429900Y-24526350D01*
X123912500Y-23999300D01*
X124306200Y-23732600D01*
X124674500Y-23529400D01*
X125144400Y-23453200D01*
X125169800Y-23453200D01*
X125366650Y-23516700D01*
G36*
X125500000Y-23034100D02*
G01*
X125288862Y-23227775D01*
X125507937Y-23323025D01*
X126258825Y-23865950D01*
X126077850Y-23961200D01*
X125500000Y-23504000D01*
X125512700Y-24596200D01*
X125398400Y-24456500D01*
X125392050Y-23567500D01*
X125436500Y-23567500D01*
X125055500Y-23351600D01*
X124769750Y-23199200D01*
X124934850Y-22919800D01*
X125500000Y-23034100D01*
G37*
X125500000Y-23034100D02*
X125288862Y-23227775D01*
X125507937Y-23323025D01*
X126258825Y-23865950D01*
X126077850Y-23961200D01*
X125500000Y-23504000D01*
X125512700Y-24596200D01*
X125398400Y-24456500D01*
X125392050Y-23567500D01*
X125436500Y-23567500D01*
X125055500Y-23351600D01*
X124769750Y-23199200D01*
X124934850Y-22919800D01*
X125500000Y-23034100D01*
G36*
X126141350Y-23491300D02*
G01*
X126693800Y-23770700D01*
X127020825Y-24097725D01*
X127155763Y-24327913D01*
X127387538Y-24597788D01*
X127081150Y-24513650D01*
X126827150Y-24437450D01*
X126649350Y-24373950D01*
X126274700Y-24240600D01*
X125915925Y-24046925D01*
X125655575Y-23761175D01*
X125531750Y-23599250D01*
X125595250Y-23637350D01*
X125569850Y-23573850D01*
X125633350Y-23402400D01*
X126141350Y-23491300D01*
G37*
X126141350Y-23491300D02*
X126693800Y-23770700D01*
X127020825Y-24097725D01*
X127155763Y-24327913D01*
X127387538Y-24597788D01*
X127081150Y-24513650D01*
X126827150Y-24437450D01*
X126649350Y-24373950D01*
X126274700Y-24240600D01*
X125915925Y-24046925D01*
X125655575Y-23761175D01*
X125531750Y-23599250D01*
X125595250Y-23637350D01*
X125569850Y-23573850D01*
X125633350Y-23402400D01*
X126141350Y-23491300D01*
G36*
X128573400Y-22488000D02*
G01*
X129005200Y-22513400D01*
X129583207Y-22523943D01*
X128903600Y-22678500D01*
X128471800Y-22869000D01*
X128128900Y-23084900D01*
X127709800Y-23250000D01*
X127176400Y-23338900D01*
X126731900Y-23364300D01*
X126154050Y-23345250D01*
X125576200Y-23326200D01*
X125512700Y-23250000D01*
X125728600Y-23186500D01*
X125735585Y-23135700D01*
X126051815Y-23008700D01*
X126585850Y-22780100D01*
X127138300Y-22576900D01*
X127532000Y-22462600D01*
X127976500Y-22462600D01*
X128573400Y-22488000D01*
G37*
X128573400Y-22488000D02*
X129005200Y-22513400D01*
X129583207Y-22523943D01*
X128903600Y-22678500D01*
X128471800Y-22869000D01*
X128128900Y-23084900D01*
X127709800Y-23250000D01*
X127176400Y-23338900D01*
X126731900Y-23364300D01*
X126154050Y-23345250D01*
X125576200Y-23326200D01*
X125512700Y-23250000D01*
X125728600Y-23186500D01*
X125735585Y-23135700D01*
X126051815Y-23008700D01*
X126585850Y-22780100D01*
X127138300Y-22576900D01*
X127532000Y-22462600D01*
X127976500Y-22462600D01*
X128573400Y-22488000D01*
G36*
X128560700Y-19833700D02*
G01*
X128319400Y-20329000D01*
X128116200Y-20786200D01*
X127855850Y-21306900D01*
X127582800Y-21662500D01*
X127271650Y-22075250D01*
X126801750Y-22468950D01*
X126300100Y-22805500D01*
X125195200Y-23402400D01*
X125220600Y-23072200D01*
X125525400Y-23021400D01*
X125773050Y-22583250D01*
X125988950Y-22119700D01*
X126154050Y-21789500D01*
X126338200Y-21497400D01*
X126503300Y-21179900D01*
X126782700Y-20824300D01*
X127062100Y-20506800D01*
X127392300Y-20214700D01*
X127735200Y-19986100D01*
X128116200Y-19732100D01*
X128509900Y-19465400D01*
X129043300Y-19071700D01*
X128560700Y-19833700D01*
G37*
X128560700Y-19833700D02*
X128319400Y-20329000D01*
X128116200Y-20786200D01*
X127855850Y-21306900D01*
X127582800Y-21662500D01*
X127271650Y-22075250D01*
X126801750Y-22468950D01*
X126300100Y-22805500D01*
X125195200Y-23402400D01*
X125220600Y-23072200D01*
X125525400Y-23021400D01*
X125773050Y-22583250D01*
X125988950Y-22119700D01*
X126154050Y-21789500D01*
X126338200Y-21497400D01*
X126503300Y-21179900D01*
X126782700Y-20824300D01*
X127062100Y-20506800D01*
X127392300Y-20214700D01*
X127735200Y-19986100D01*
X128116200Y-19732100D01*
X128509900Y-19465400D01*
X129043300Y-19071700D01*
X128560700Y-19833700D01*
G36*
X125715900Y-17700100D02*
G01*
X125817500Y-18182700D01*
X125931800Y-18639900D01*
X126014350Y-18970100D01*
X126077850Y-19351100D01*
X126122300Y-19871800D01*
X126122300Y-20405200D01*
X126071500Y-20989400D01*
X126008000Y-21510100D01*
X125865125Y-22005400D01*
X125566675Y-23021400D01*
X125353950Y-22970600D01*
X125119000Y-22056200D01*
X124945962Y-21192600D01*
X124961837Y-20405200D01*
X125014225Y-19744800D01*
X125176150Y-18970100D01*
X125411100Y-18157300D01*
X125538100Y-17382600D01*
X125601600Y-16861900D01*
X125715900Y-17700100D01*
G37*
X125715900Y-17700100D02*
X125817500Y-18182700D01*
X125931800Y-18639900D01*
X126014350Y-18970100D01*
X126077850Y-19351100D01*
X126122300Y-19871800D01*
X126122300Y-20405200D01*
X126071500Y-20989400D01*
X126008000Y-21510100D01*
X125865125Y-22005400D01*
X125566675Y-23021400D01*
X125353950Y-22970600D01*
X125119000Y-22056200D01*
X124945962Y-21192600D01*
X124961837Y-20405200D01*
X125014225Y-19744800D01*
X125176150Y-18970100D01*
X125411100Y-18157300D01*
X125538100Y-17382600D01*
X125601600Y-16861900D01*
X125715900Y-17700100D01*
D12*
X143200000Y-5000000D03*
X143200000Y11000000D03*
D13*
X131250000Y-5000000D03*
X119250000Y-5000000D03*
X107250000Y-5000000D03*
X107250000Y11000000D03*
X119250000Y11000000D03*
X131250000Y11000000D03*
M02*
