G04 #@! TF.GenerationSoftware,KiCad,Pcbnew,(5.1.5-0)*
G04 #@! TF.CreationDate,2021-01-12T22:21:23-08:00*
G04 #@! TF.ProjectId,duallpg,6475616c-6c70-4672-9e6b-696361645f70,rev?*
G04 #@! TF.SameCoordinates,Original*
G04 #@! TF.FileFunction,Copper,L2,Bot*
G04 #@! TF.FilePolarity,Positive*
%FSLAX46Y46*%
G04 Gerber Fmt 4.6, Leading zero omitted, Abs format (unit mm)*
G04 Created by KiCad (PCBNEW (5.1.5-0)) date 2021-01-12 22:21:23*
%MOMM*%
%LPD*%
G04 APERTURE LIST*
%ADD10C,6.100000*%
%ADD11C,0.254000*%
G04 APERTURE END LIST*
D10*
X143250000Y-5000000D03*
X131250000Y-5000000D03*
X119250000Y-5000000D03*
X107250000Y-5000000D03*
X107250000Y11000000D03*
X119250000Y11000000D03*
X131250000Y11000000D03*
X143250000Y11000000D03*
D11*
G36*
X149740001Y-27840000D02*
G01*
X100660000Y-27840000D01*
X100660000Y-25451353D01*
X104242755Y-25451353D01*
X104243173Y-25511171D01*
X104242755Y-25570988D01*
X104243655Y-25580160D01*
X104276296Y-25890715D01*
X104288320Y-25949291D01*
X104299532Y-26008070D01*
X104302196Y-26016892D01*
X104394535Y-26315192D01*
X104417715Y-26370335D01*
X104440124Y-26425800D01*
X104444451Y-26433937D01*
X104592972Y-26708621D01*
X104626417Y-26758205D01*
X104659177Y-26808268D01*
X104665001Y-26815409D01*
X104864047Y-27056013D01*
X104906482Y-27098154D01*
X104948346Y-27140903D01*
X104955446Y-27146777D01*
X105197435Y-27344138D01*
X105247259Y-27377241D01*
X105296615Y-27411036D01*
X105304721Y-27415419D01*
X105580435Y-27562019D01*
X105635704Y-27584799D01*
X105690724Y-27608381D01*
X105699527Y-27611105D01*
X105998465Y-27701359D01*
X106057138Y-27712976D01*
X106115655Y-27725415D01*
X106124820Y-27726378D01*
X106435594Y-27756850D01*
X106435598Y-27756850D01*
X106467581Y-27760000D01*
X108532419Y-27760000D01*
X108565986Y-27756694D01*
X108586744Y-27756694D01*
X108595909Y-27755731D01*
X108906228Y-27720923D01*
X108964731Y-27708487D01*
X109023419Y-27696867D01*
X109032222Y-27694142D01*
X109329870Y-27599723D01*
X109384792Y-27576183D01*
X109440159Y-27553363D01*
X109448265Y-27548979D01*
X109721904Y-27398544D01*
X109771217Y-27364779D01*
X109821088Y-27331645D01*
X109828188Y-27325770D01*
X110067397Y-27125049D01*
X110109241Y-27082320D01*
X110151694Y-27040162D01*
X110157519Y-27033020D01*
X110353185Y-26789660D01*
X110385938Y-26739608D01*
X110419391Y-26690013D01*
X110423714Y-26681881D01*
X110423717Y-26681877D01*
X110423719Y-26681873D01*
X110568388Y-26405146D01*
X110590785Y-26349711D01*
X110613978Y-26294539D01*
X110616641Y-26285717D01*
X110704807Y-25986156D01*
X110716007Y-25927440D01*
X110728045Y-25868798D01*
X110728944Y-25859627D01*
X110757245Y-25548647D01*
X110756827Y-25488830D01*
X110757088Y-25451353D01*
X139242755Y-25451353D01*
X139243173Y-25511171D01*
X139242755Y-25570988D01*
X139243655Y-25580160D01*
X139276296Y-25890715D01*
X139288320Y-25949291D01*
X139299532Y-26008070D01*
X139302196Y-26016892D01*
X139394535Y-26315192D01*
X139417715Y-26370335D01*
X139440124Y-26425800D01*
X139444451Y-26433937D01*
X139592972Y-26708621D01*
X139626417Y-26758205D01*
X139659177Y-26808268D01*
X139665001Y-26815409D01*
X139864047Y-27056013D01*
X139906482Y-27098154D01*
X139948346Y-27140903D01*
X139955446Y-27146777D01*
X140197435Y-27344138D01*
X140247259Y-27377241D01*
X140296615Y-27411036D01*
X140304721Y-27415419D01*
X140580435Y-27562019D01*
X140635704Y-27584799D01*
X140690724Y-27608381D01*
X140699527Y-27611105D01*
X140998465Y-27701359D01*
X141057138Y-27712976D01*
X141115655Y-27725415D01*
X141124820Y-27726378D01*
X141435594Y-27756850D01*
X141435598Y-27756850D01*
X141467581Y-27760000D01*
X143532419Y-27760000D01*
X143565986Y-27756694D01*
X143586744Y-27756694D01*
X143595909Y-27755731D01*
X143906228Y-27720923D01*
X143964731Y-27708487D01*
X144023419Y-27696867D01*
X144032222Y-27694142D01*
X144329870Y-27599723D01*
X144384792Y-27576183D01*
X144440159Y-27553363D01*
X144448265Y-27548979D01*
X144721904Y-27398544D01*
X144771217Y-27364779D01*
X144821088Y-27331645D01*
X144828188Y-27325770D01*
X145067397Y-27125049D01*
X145109241Y-27082320D01*
X145151694Y-27040162D01*
X145157519Y-27033020D01*
X145353185Y-26789660D01*
X145385938Y-26739608D01*
X145419391Y-26690013D01*
X145423714Y-26681881D01*
X145423717Y-26681877D01*
X145423719Y-26681873D01*
X145568388Y-26405146D01*
X145590785Y-26349711D01*
X145613978Y-26294539D01*
X145616641Y-26285717D01*
X145704807Y-25986156D01*
X145716007Y-25927440D01*
X145728045Y-25868798D01*
X145728944Y-25859627D01*
X145757245Y-25548647D01*
X145756827Y-25488830D01*
X145757245Y-25429012D01*
X145756345Y-25419841D01*
X145723704Y-25109285D01*
X145711680Y-25050709D01*
X145700468Y-24991930D01*
X145697804Y-24983108D01*
X145605465Y-24684808D01*
X145582280Y-24629653D01*
X145559876Y-24574200D01*
X145555549Y-24566064D01*
X145555549Y-24566063D01*
X145555546Y-24566059D01*
X145407028Y-24291379D01*
X145373583Y-24241795D01*
X145340823Y-24191732D01*
X145334999Y-24184591D01*
X145135954Y-23943987D01*
X145093535Y-23901863D01*
X145051655Y-23859097D01*
X145044554Y-23853223D01*
X144802565Y-23655862D01*
X144752741Y-23622759D01*
X144703385Y-23588964D01*
X144695279Y-23584581D01*
X144419566Y-23437981D01*
X144364269Y-23415189D01*
X144309275Y-23391619D01*
X144300472Y-23388895D01*
X144001535Y-23298641D01*
X143942862Y-23287024D01*
X143884345Y-23274585D01*
X143875180Y-23273622D01*
X143564405Y-23243150D01*
X143564402Y-23243150D01*
X143532419Y-23240000D01*
X141467581Y-23240000D01*
X141434014Y-23243306D01*
X141413256Y-23243306D01*
X141404091Y-23244269D01*
X141093771Y-23279077D01*
X141035298Y-23291506D01*
X140976581Y-23303132D01*
X140967778Y-23305858D01*
X140670130Y-23400277D01*
X140615147Y-23423843D01*
X140559841Y-23446638D01*
X140551735Y-23451021D01*
X140278095Y-23601456D01*
X140228748Y-23635245D01*
X140178913Y-23668355D01*
X140171812Y-23674229D01*
X139932603Y-23874951D01*
X139890759Y-23917681D01*
X139848305Y-23959839D01*
X139842481Y-23966980D01*
X139646814Y-24210340D01*
X139614055Y-24260400D01*
X139580609Y-24309986D01*
X139576283Y-24318123D01*
X139431612Y-24594854D01*
X139409215Y-24650289D01*
X139386022Y-24705461D01*
X139383359Y-24714283D01*
X139295193Y-25013844D01*
X139283993Y-25072560D01*
X139271955Y-25131202D01*
X139271056Y-25140373D01*
X139242755Y-25451353D01*
X110757088Y-25451353D01*
X110757245Y-25429012D01*
X110756345Y-25419841D01*
X110723704Y-25109285D01*
X110711680Y-25050709D01*
X110700468Y-24991930D01*
X110697804Y-24983108D01*
X110605465Y-24684808D01*
X110582280Y-24629653D01*
X110559876Y-24574200D01*
X110555549Y-24566064D01*
X110555549Y-24566063D01*
X110555546Y-24566059D01*
X110407028Y-24291379D01*
X110373583Y-24241795D01*
X110340823Y-24191732D01*
X110334999Y-24184591D01*
X110135954Y-23943987D01*
X110093535Y-23901863D01*
X110051655Y-23859097D01*
X110044554Y-23853223D01*
X109802565Y-23655862D01*
X109752741Y-23622759D01*
X109703385Y-23588964D01*
X109695279Y-23584581D01*
X109419566Y-23437981D01*
X109364269Y-23415189D01*
X109309275Y-23391619D01*
X109300472Y-23388895D01*
X109001535Y-23298641D01*
X108942862Y-23287024D01*
X108884345Y-23274585D01*
X108875180Y-23273622D01*
X108564405Y-23243150D01*
X108564402Y-23243150D01*
X108532419Y-23240000D01*
X106467581Y-23240000D01*
X106434014Y-23243306D01*
X106413256Y-23243306D01*
X106404091Y-23244269D01*
X106093771Y-23279077D01*
X106035298Y-23291506D01*
X105976581Y-23303132D01*
X105967778Y-23305858D01*
X105670130Y-23400277D01*
X105615147Y-23423843D01*
X105559841Y-23446638D01*
X105551735Y-23451021D01*
X105278095Y-23601456D01*
X105228748Y-23635245D01*
X105178913Y-23668355D01*
X105171812Y-23674229D01*
X104932603Y-23874951D01*
X104890759Y-23917681D01*
X104848305Y-23959839D01*
X104842481Y-23966980D01*
X104646814Y-24210340D01*
X104614055Y-24260400D01*
X104580609Y-24309986D01*
X104576283Y-24318123D01*
X104431612Y-24594854D01*
X104409215Y-24650289D01*
X104386022Y-24705461D01*
X104383359Y-24714283D01*
X104295193Y-25013844D01*
X104283993Y-25072560D01*
X104271955Y-25131202D01*
X104271056Y-25140373D01*
X104242755Y-25451353D01*
X100660000Y-25451353D01*
X100660000Y53434216D01*
X105341332Y53434216D01*
X105341332Y52565784D01*
X105510754Y51714039D01*
X105843089Y50911712D01*
X106325564Y50189638D01*
X106939638Y49575564D01*
X107661712Y49093089D01*
X108464039Y48760754D01*
X109315784Y48591332D01*
X110184216Y48591332D01*
X111035961Y48760754D01*
X111838288Y49093089D01*
X112560362Y49575564D01*
X113174436Y50189638D01*
X113656911Y50911712D01*
X113989246Y51714039D01*
X114158668Y52565784D01*
X114158668Y53434216D01*
X121091332Y53434216D01*
X121091332Y52565784D01*
X121260754Y51714039D01*
X121593089Y50911712D01*
X122075564Y50189638D01*
X122689638Y49575564D01*
X123411712Y49093089D01*
X124214039Y48760754D01*
X125065784Y48591332D01*
X125934216Y48591332D01*
X126785961Y48760754D01*
X127588288Y49093089D01*
X128310362Y49575564D01*
X128924436Y50189638D01*
X129406911Y50911712D01*
X129739246Y51714039D01*
X129908668Y52565784D01*
X129908668Y53434216D01*
X137091332Y53434216D01*
X137091332Y52565784D01*
X137260754Y51714039D01*
X137593089Y50911712D01*
X138075564Y50189638D01*
X138689638Y49575564D01*
X139411712Y49093089D01*
X140214039Y48760754D01*
X141065784Y48591332D01*
X141934216Y48591332D01*
X142785961Y48760754D01*
X143588288Y49093089D01*
X144310362Y49575564D01*
X144924436Y50189638D01*
X145406911Y50911712D01*
X145739246Y51714039D01*
X145908668Y52565784D01*
X145908668Y53434216D01*
X145739246Y54285961D01*
X145406911Y55088288D01*
X144924436Y55810362D01*
X144310362Y56424436D01*
X143588288Y56906911D01*
X142785961Y57239246D01*
X141934216Y57408668D01*
X141065784Y57408668D01*
X140214039Y57239246D01*
X139411712Y56906911D01*
X138689638Y56424436D01*
X138075564Y55810362D01*
X137593089Y55088288D01*
X137260754Y54285961D01*
X137091332Y53434216D01*
X129908668Y53434216D01*
X129739246Y54285961D01*
X129406911Y55088288D01*
X128924436Y55810362D01*
X128310362Y56424436D01*
X127588288Y56906911D01*
X126785961Y57239246D01*
X125934216Y57408668D01*
X125065784Y57408668D01*
X124214039Y57239246D01*
X123411712Y56906911D01*
X122689638Y56424436D01*
X122075564Y55810362D01*
X121593089Y55088288D01*
X121260754Y54285961D01*
X121091332Y53434216D01*
X114158668Y53434216D01*
X113989246Y54285961D01*
X113656911Y55088288D01*
X113174436Y55810362D01*
X112560362Y56424436D01*
X111838288Y56906911D01*
X111035961Y57239246D01*
X110184216Y57408668D01*
X109315784Y57408668D01*
X108464039Y57239246D01*
X107661712Y56906911D01*
X106939638Y56424436D01*
X106325564Y55810362D01*
X105843089Y55088288D01*
X105510754Y54285961D01*
X105341332Y53434216D01*
X100660000Y53434216D01*
X100660000Y75434216D01*
X105341332Y75434216D01*
X105341332Y74565784D01*
X105510754Y73714039D01*
X105843089Y72911712D01*
X106325564Y72189638D01*
X106939638Y71575564D01*
X107661712Y71093089D01*
X108464039Y70760754D01*
X109315784Y70591332D01*
X110184216Y70591332D01*
X111035961Y70760754D01*
X111838288Y71093089D01*
X112560362Y71575564D01*
X113174436Y72189638D01*
X113656911Y72911712D01*
X113989246Y73714039D01*
X114158668Y74565784D01*
X114158668Y75434216D01*
X121091332Y75434216D01*
X121091332Y74565784D01*
X121260754Y73714039D01*
X121593089Y72911712D01*
X122075564Y72189638D01*
X122689638Y71575564D01*
X123411712Y71093089D01*
X124214039Y70760754D01*
X125065784Y70591332D01*
X125934216Y70591332D01*
X126785961Y70760754D01*
X127588288Y71093089D01*
X128310362Y71575564D01*
X128924436Y72189638D01*
X129406911Y72911712D01*
X129739246Y73714039D01*
X129908668Y74565784D01*
X129908668Y75434216D01*
X137091332Y75434216D01*
X137091332Y74565784D01*
X137260754Y73714039D01*
X137593089Y72911712D01*
X138075564Y72189638D01*
X138689638Y71575564D01*
X139411712Y71093089D01*
X140214039Y70760754D01*
X141065784Y70591332D01*
X141934216Y70591332D01*
X142785961Y70760754D01*
X143588288Y71093089D01*
X144310362Y71575564D01*
X144924436Y72189638D01*
X145406911Y72911712D01*
X145739246Y73714039D01*
X145908668Y74565784D01*
X145908668Y75434216D01*
X145739246Y76285961D01*
X145406911Y77088288D01*
X144924436Y77810362D01*
X144310362Y78424436D01*
X143588288Y78906911D01*
X142785961Y79239246D01*
X141934216Y79408668D01*
X141065784Y79408668D01*
X140214039Y79239246D01*
X139411712Y78906911D01*
X138689638Y78424436D01*
X138075564Y77810362D01*
X137593089Y77088288D01*
X137260754Y76285961D01*
X137091332Y75434216D01*
X129908668Y75434216D01*
X129739246Y76285961D01*
X129406911Y77088288D01*
X128924436Y77810362D01*
X128310362Y78424436D01*
X127588288Y78906911D01*
X126785961Y79239246D01*
X125934216Y79408668D01*
X125065784Y79408668D01*
X124214039Y79239246D01*
X123411712Y78906911D01*
X122689638Y78424436D01*
X122075564Y77810362D01*
X121593089Y77088288D01*
X121260754Y76285961D01*
X121091332Y75434216D01*
X114158668Y75434216D01*
X113989246Y76285961D01*
X113656911Y77088288D01*
X113174436Y77810362D01*
X112560362Y78424436D01*
X111838288Y78906911D01*
X111035961Y79239246D01*
X110184216Y79408668D01*
X109315784Y79408668D01*
X108464039Y79239246D01*
X107661712Y78906911D01*
X106939638Y78424436D01*
X106325564Y77810362D01*
X105843089Y77088288D01*
X105510754Y76285961D01*
X105341332Y75434216D01*
X100660000Y75434216D01*
X100660000Y96948647D01*
X104242755Y96948647D01*
X104243173Y96888829D01*
X104242755Y96829012D01*
X104243655Y96819840D01*
X104276296Y96509285D01*
X104288320Y96450709D01*
X104299532Y96391930D01*
X104302196Y96383108D01*
X104394535Y96084808D01*
X104417715Y96029665D01*
X104440124Y95974200D01*
X104444451Y95966063D01*
X104592972Y95691379D01*
X104626417Y95641795D01*
X104659177Y95591732D01*
X104665001Y95584591D01*
X104864047Y95343987D01*
X104906482Y95301846D01*
X104948346Y95259097D01*
X104955446Y95253223D01*
X105197435Y95055862D01*
X105247259Y95022759D01*
X105296615Y94988964D01*
X105304721Y94984581D01*
X105580435Y94837981D01*
X105635704Y94815201D01*
X105690724Y94791619D01*
X105699527Y94788895D01*
X105998465Y94698641D01*
X106057138Y94687024D01*
X106115655Y94674585D01*
X106124820Y94673622D01*
X106435594Y94643150D01*
X106435598Y94643150D01*
X106467581Y94640000D01*
X108532419Y94640000D01*
X108565986Y94643306D01*
X108586744Y94643306D01*
X108595909Y94644269D01*
X108906228Y94679077D01*
X108964731Y94691513D01*
X109023419Y94703133D01*
X109032222Y94705858D01*
X109329870Y94800277D01*
X109384792Y94823817D01*
X109440159Y94846637D01*
X109448265Y94851021D01*
X109721904Y95001456D01*
X109771217Y95035221D01*
X109821088Y95068355D01*
X109828188Y95074230D01*
X110067397Y95274951D01*
X110109241Y95317680D01*
X110151694Y95359838D01*
X110157519Y95366980D01*
X110353185Y95610340D01*
X110385938Y95660392D01*
X110419391Y95709987D01*
X110423714Y95718119D01*
X110423717Y95718123D01*
X110423719Y95718127D01*
X110568388Y95994854D01*
X110590785Y96050289D01*
X110613978Y96105461D01*
X110616641Y96114283D01*
X110704807Y96413844D01*
X110716007Y96472560D01*
X110728045Y96531202D01*
X110728944Y96540373D01*
X110757245Y96851353D01*
X110756827Y96911171D01*
X110757088Y96948647D01*
X139242755Y96948647D01*
X139243173Y96888829D01*
X139242755Y96829012D01*
X139243655Y96819840D01*
X139276296Y96509285D01*
X139288320Y96450709D01*
X139299532Y96391930D01*
X139302196Y96383108D01*
X139394535Y96084808D01*
X139417715Y96029665D01*
X139440124Y95974200D01*
X139444451Y95966063D01*
X139592972Y95691379D01*
X139626417Y95641795D01*
X139659177Y95591732D01*
X139665001Y95584591D01*
X139864047Y95343987D01*
X139906482Y95301846D01*
X139948346Y95259097D01*
X139955446Y95253223D01*
X140197435Y95055862D01*
X140247259Y95022759D01*
X140296615Y94988964D01*
X140304721Y94984581D01*
X140580435Y94837981D01*
X140635704Y94815201D01*
X140690724Y94791619D01*
X140699527Y94788895D01*
X140998465Y94698641D01*
X141057138Y94687024D01*
X141115655Y94674585D01*
X141124820Y94673622D01*
X141435594Y94643150D01*
X141435598Y94643150D01*
X141467581Y94640000D01*
X143532419Y94640000D01*
X143565986Y94643306D01*
X143586744Y94643306D01*
X143595909Y94644269D01*
X143906228Y94679077D01*
X143964731Y94691513D01*
X144023419Y94703133D01*
X144032222Y94705858D01*
X144329870Y94800277D01*
X144384792Y94823817D01*
X144440159Y94846637D01*
X144448265Y94851021D01*
X144721904Y95001456D01*
X144771217Y95035221D01*
X144821088Y95068355D01*
X144828188Y95074230D01*
X145067397Y95274951D01*
X145109241Y95317680D01*
X145151694Y95359838D01*
X145157519Y95366980D01*
X145353185Y95610340D01*
X145385938Y95660392D01*
X145419391Y95709987D01*
X145423714Y95718119D01*
X145423717Y95718123D01*
X145423719Y95718127D01*
X145568388Y95994854D01*
X145590785Y96050289D01*
X145613978Y96105461D01*
X145616641Y96114283D01*
X145704807Y96413844D01*
X145716007Y96472560D01*
X145728045Y96531202D01*
X145728944Y96540373D01*
X145757245Y96851353D01*
X145756827Y96911170D01*
X145757245Y96970988D01*
X145756345Y96980159D01*
X145723704Y97290715D01*
X145711680Y97349291D01*
X145700468Y97408070D01*
X145697804Y97416892D01*
X145605465Y97715192D01*
X145582280Y97770347D01*
X145559876Y97825800D01*
X145555549Y97833936D01*
X145555549Y97833937D01*
X145555546Y97833941D01*
X145407028Y98108621D01*
X145373583Y98158205D01*
X145340823Y98208268D01*
X145334999Y98215409D01*
X145135954Y98456013D01*
X145093535Y98498137D01*
X145051655Y98540903D01*
X145044554Y98546777D01*
X144802565Y98744138D01*
X144752741Y98777241D01*
X144703385Y98811036D01*
X144695279Y98815419D01*
X144419566Y98962019D01*
X144364269Y98984811D01*
X144309275Y99008381D01*
X144300472Y99011105D01*
X144001535Y99101359D01*
X143942862Y99112976D01*
X143884345Y99125415D01*
X143875180Y99126378D01*
X143564405Y99156850D01*
X143564402Y99156850D01*
X143532419Y99160000D01*
X141467581Y99160000D01*
X141434014Y99156694D01*
X141413256Y99156694D01*
X141404091Y99155731D01*
X141093771Y99120923D01*
X141035298Y99108494D01*
X140976581Y99096868D01*
X140967778Y99094142D01*
X140670130Y98999723D01*
X140615147Y98976157D01*
X140559841Y98953362D01*
X140551735Y98948979D01*
X140278095Y98798544D01*
X140228748Y98764755D01*
X140178913Y98731645D01*
X140171812Y98725771D01*
X139932603Y98525049D01*
X139890759Y98482319D01*
X139848305Y98440161D01*
X139842481Y98433020D01*
X139646814Y98189660D01*
X139614055Y98139600D01*
X139580609Y98090014D01*
X139576283Y98081877D01*
X139431612Y97805146D01*
X139409215Y97749711D01*
X139386022Y97694539D01*
X139383359Y97685717D01*
X139295193Y97386156D01*
X139283993Y97327440D01*
X139271955Y97268798D01*
X139271056Y97259627D01*
X139242755Y96948647D01*
X110757088Y96948647D01*
X110757245Y96970988D01*
X110756345Y96980159D01*
X110723704Y97290715D01*
X110711680Y97349291D01*
X110700468Y97408070D01*
X110697804Y97416892D01*
X110605465Y97715192D01*
X110582280Y97770347D01*
X110559876Y97825800D01*
X110555549Y97833936D01*
X110555549Y97833937D01*
X110555546Y97833941D01*
X110407028Y98108621D01*
X110373583Y98158205D01*
X110340823Y98208268D01*
X110334999Y98215409D01*
X110135954Y98456013D01*
X110093535Y98498137D01*
X110051655Y98540903D01*
X110044554Y98546777D01*
X109802565Y98744138D01*
X109752741Y98777241D01*
X109703385Y98811036D01*
X109695279Y98815419D01*
X109419566Y98962019D01*
X109364269Y98984811D01*
X109309275Y99008381D01*
X109300472Y99011105D01*
X109001535Y99101359D01*
X108942862Y99112976D01*
X108884345Y99125415D01*
X108875180Y99126378D01*
X108564405Y99156850D01*
X108564402Y99156850D01*
X108532419Y99160000D01*
X106467581Y99160000D01*
X106434014Y99156694D01*
X106413256Y99156694D01*
X106404091Y99155731D01*
X106093771Y99120923D01*
X106035298Y99108494D01*
X105976581Y99096868D01*
X105967778Y99094142D01*
X105670130Y98999723D01*
X105615147Y98976157D01*
X105559841Y98953362D01*
X105551735Y98948979D01*
X105278095Y98798544D01*
X105228748Y98764755D01*
X105178913Y98731645D01*
X105171812Y98725771D01*
X104932603Y98525049D01*
X104890759Y98482319D01*
X104848305Y98440161D01*
X104842481Y98433020D01*
X104646814Y98189660D01*
X104614055Y98139600D01*
X104580609Y98090014D01*
X104576283Y98081877D01*
X104431612Y97805146D01*
X104409215Y97749711D01*
X104386022Y97694539D01*
X104383359Y97685717D01*
X104295193Y97386156D01*
X104283993Y97327440D01*
X104271955Y97268798D01*
X104271056Y97259627D01*
X104242755Y96948647D01*
X100660000Y96948647D01*
X100660000Y99340000D01*
X149740000Y99340000D01*
X149740001Y-27840000D01*
G37*
X149740001Y-27840000D02*
X100660000Y-27840000D01*
X100660000Y-25451353D01*
X104242755Y-25451353D01*
X104243173Y-25511171D01*
X104242755Y-25570988D01*
X104243655Y-25580160D01*
X104276296Y-25890715D01*
X104288320Y-25949291D01*
X104299532Y-26008070D01*
X104302196Y-26016892D01*
X104394535Y-26315192D01*
X104417715Y-26370335D01*
X104440124Y-26425800D01*
X104444451Y-26433937D01*
X104592972Y-26708621D01*
X104626417Y-26758205D01*
X104659177Y-26808268D01*
X104665001Y-26815409D01*
X104864047Y-27056013D01*
X104906482Y-27098154D01*
X104948346Y-27140903D01*
X104955446Y-27146777D01*
X105197435Y-27344138D01*
X105247259Y-27377241D01*
X105296615Y-27411036D01*
X105304721Y-27415419D01*
X105580435Y-27562019D01*
X105635704Y-27584799D01*
X105690724Y-27608381D01*
X105699527Y-27611105D01*
X105998465Y-27701359D01*
X106057138Y-27712976D01*
X106115655Y-27725415D01*
X106124820Y-27726378D01*
X106435594Y-27756850D01*
X106435598Y-27756850D01*
X106467581Y-27760000D01*
X108532419Y-27760000D01*
X108565986Y-27756694D01*
X108586744Y-27756694D01*
X108595909Y-27755731D01*
X108906228Y-27720923D01*
X108964731Y-27708487D01*
X109023419Y-27696867D01*
X109032222Y-27694142D01*
X109329870Y-27599723D01*
X109384792Y-27576183D01*
X109440159Y-27553363D01*
X109448265Y-27548979D01*
X109721904Y-27398544D01*
X109771217Y-27364779D01*
X109821088Y-27331645D01*
X109828188Y-27325770D01*
X110067397Y-27125049D01*
X110109241Y-27082320D01*
X110151694Y-27040162D01*
X110157519Y-27033020D01*
X110353185Y-26789660D01*
X110385938Y-26739608D01*
X110419391Y-26690013D01*
X110423714Y-26681881D01*
X110423717Y-26681877D01*
X110423719Y-26681873D01*
X110568388Y-26405146D01*
X110590785Y-26349711D01*
X110613978Y-26294539D01*
X110616641Y-26285717D01*
X110704807Y-25986156D01*
X110716007Y-25927440D01*
X110728045Y-25868798D01*
X110728944Y-25859627D01*
X110757245Y-25548647D01*
X110756827Y-25488830D01*
X110757088Y-25451353D01*
X139242755Y-25451353D01*
X139243173Y-25511171D01*
X139242755Y-25570988D01*
X139243655Y-25580160D01*
X139276296Y-25890715D01*
X139288320Y-25949291D01*
X139299532Y-26008070D01*
X139302196Y-26016892D01*
X139394535Y-26315192D01*
X139417715Y-26370335D01*
X139440124Y-26425800D01*
X139444451Y-26433937D01*
X139592972Y-26708621D01*
X139626417Y-26758205D01*
X139659177Y-26808268D01*
X139665001Y-26815409D01*
X139864047Y-27056013D01*
X139906482Y-27098154D01*
X139948346Y-27140903D01*
X139955446Y-27146777D01*
X140197435Y-27344138D01*
X140247259Y-27377241D01*
X140296615Y-27411036D01*
X140304721Y-27415419D01*
X140580435Y-27562019D01*
X140635704Y-27584799D01*
X140690724Y-27608381D01*
X140699527Y-27611105D01*
X140998465Y-27701359D01*
X141057138Y-27712976D01*
X141115655Y-27725415D01*
X141124820Y-27726378D01*
X141435594Y-27756850D01*
X141435598Y-27756850D01*
X141467581Y-27760000D01*
X143532419Y-27760000D01*
X143565986Y-27756694D01*
X143586744Y-27756694D01*
X143595909Y-27755731D01*
X143906228Y-27720923D01*
X143964731Y-27708487D01*
X144023419Y-27696867D01*
X144032222Y-27694142D01*
X144329870Y-27599723D01*
X144384792Y-27576183D01*
X144440159Y-27553363D01*
X144448265Y-27548979D01*
X144721904Y-27398544D01*
X144771217Y-27364779D01*
X144821088Y-27331645D01*
X144828188Y-27325770D01*
X145067397Y-27125049D01*
X145109241Y-27082320D01*
X145151694Y-27040162D01*
X145157519Y-27033020D01*
X145353185Y-26789660D01*
X145385938Y-26739608D01*
X145419391Y-26690013D01*
X145423714Y-26681881D01*
X145423717Y-26681877D01*
X145423719Y-26681873D01*
X145568388Y-26405146D01*
X145590785Y-26349711D01*
X145613978Y-26294539D01*
X145616641Y-26285717D01*
X145704807Y-25986156D01*
X145716007Y-25927440D01*
X145728045Y-25868798D01*
X145728944Y-25859627D01*
X145757245Y-25548647D01*
X145756827Y-25488830D01*
X145757245Y-25429012D01*
X145756345Y-25419841D01*
X145723704Y-25109285D01*
X145711680Y-25050709D01*
X145700468Y-24991930D01*
X145697804Y-24983108D01*
X145605465Y-24684808D01*
X145582280Y-24629653D01*
X145559876Y-24574200D01*
X145555549Y-24566064D01*
X145555549Y-24566063D01*
X145555546Y-24566059D01*
X145407028Y-24291379D01*
X145373583Y-24241795D01*
X145340823Y-24191732D01*
X145334999Y-24184591D01*
X145135954Y-23943987D01*
X145093535Y-23901863D01*
X145051655Y-23859097D01*
X145044554Y-23853223D01*
X144802565Y-23655862D01*
X144752741Y-23622759D01*
X144703385Y-23588964D01*
X144695279Y-23584581D01*
X144419566Y-23437981D01*
X144364269Y-23415189D01*
X144309275Y-23391619D01*
X144300472Y-23388895D01*
X144001535Y-23298641D01*
X143942862Y-23287024D01*
X143884345Y-23274585D01*
X143875180Y-23273622D01*
X143564405Y-23243150D01*
X143564402Y-23243150D01*
X143532419Y-23240000D01*
X141467581Y-23240000D01*
X141434014Y-23243306D01*
X141413256Y-23243306D01*
X141404091Y-23244269D01*
X141093771Y-23279077D01*
X141035298Y-23291506D01*
X140976581Y-23303132D01*
X140967778Y-23305858D01*
X140670130Y-23400277D01*
X140615147Y-23423843D01*
X140559841Y-23446638D01*
X140551735Y-23451021D01*
X140278095Y-23601456D01*
X140228748Y-23635245D01*
X140178913Y-23668355D01*
X140171812Y-23674229D01*
X139932603Y-23874951D01*
X139890759Y-23917681D01*
X139848305Y-23959839D01*
X139842481Y-23966980D01*
X139646814Y-24210340D01*
X139614055Y-24260400D01*
X139580609Y-24309986D01*
X139576283Y-24318123D01*
X139431612Y-24594854D01*
X139409215Y-24650289D01*
X139386022Y-24705461D01*
X139383359Y-24714283D01*
X139295193Y-25013844D01*
X139283993Y-25072560D01*
X139271955Y-25131202D01*
X139271056Y-25140373D01*
X139242755Y-25451353D01*
X110757088Y-25451353D01*
X110757245Y-25429012D01*
X110756345Y-25419841D01*
X110723704Y-25109285D01*
X110711680Y-25050709D01*
X110700468Y-24991930D01*
X110697804Y-24983108D01*
X110605465Y-24684808D01*
X110582280Y-24629653D01*
X110559876Y-24574200D01*
X110555549Y-24566064D01*
X110555549Y-24566063D01*
X110555546Y-24566059D01*
X110407028Y-24291379D01*
X110373583Y-24241795D01*
X110340823Y-24191732D01*
X110334999Y-24184591D01*
X110135954Y-23943987D01*
X110093535Y-23901863D01*
X110051655Y-23859097D01*
X110044554Y-23853223D01*
X109802565Y-23655862D01*
X109752741Y-23622759D01*
X109703385Y-23588964D01*
X109695279Y-23584581D01*
X109419566Y-23437981D01*
X109364269Y-23415189D01*
X109309275Y-23391619D01*
X109300472Y-23388895D01*
X109001535Y-23298641D01*
X108942862Y-23287024D01*
X108884345Y-23274585D01*
X108875180Y-23273622D01*
X108564405Y-23243150D01*
X108564402Y-23243150D01*
X108532419Y-23240000D01*
X106467581Y-23240000D01*
X106434014Y-23243306D01*
X106413256Y-23243306D01*
X106404091Y-23244269D01*
X106093771Y-23279077D01*
X106035298Y-23291506D01*
X105976581Y-23303132D01*
X105967778Y-23305858D01*
X105670130Y-23400277D01*
X105615147Y-23423843D01*
X105559841Y-23446638D01*
X105551735Y-23451021D01*
X105278095Y-23601456D01*
X105228748Y-23635245D01*
X105178913Y-23668355D01*
X105171812Y-23674229D01*
X104932603Y-23874951D01*
X104890759Y-23917681D01*
X104848305Y-23959839D01*
X104842481Y-23966980D01*
X104646814Y-24210340D01*
X104614055Y-24260400D01*
X104580609Y-24309986D01*
X104576283Y-24318123D01*
X104431612Y-24594854D01*
X104409215Y-24650289D01*
X104386022Y-24705461D01*
X104383359Y-24714283D01*
X104295193Y-25013844D01*
X104283993Y-25072560D01*
X104271955Y-25131202D01*
X104271056Y-25140373D01*
X104242755Y-25451353D01*
X100660000Y-25451353D01*
X100660000Y53434216D01*
X105341332Y53434216D01*
X105341332Y52565784D01*
X105510754Y51714039D01*
X105843089Y50911712D01*
X106325564Y50189638D01*
X106939638Y49575564D01*
X107661712Y49093089D01*
X108464039Y48760754D01*
X109315784Y48591332D01*
X110184216Y48591332D01*
X111035961Y48760754D01*
X111838288Y49093089D01*
X112560362Y49575564D01*
X113174436Y50189638D01*
X113656911Y50911712D01*
X113989246Y51714039D01*
X114158668Y52565784D01*
X114158668Y53434216D01*
X121091332Y53434216D01*
X121091332Y52565784D01*
X121260754Y51714039D01*
X121593089Y50911712D01*
X122075564Y50189638D01*
X122689638Y49575564D01*
X123411712Y49093089D01*
X124214039Y48760754D01*
X125065784Y48591332D01*
X125934216Y48591332D01*
X126785961Y48760754D01*
X127588288Y49093089D01*
X128310362Y49575564D01*
X128924436Y50189638D01*
X129406911Y50911712D01*
X129739246Y51714039D01*
X129908668Y52565784D01*
X129908668Y53434216D01*
X137091332Y53434216D01*
X137091332Y52565784D01*
X137260754Y51714039D01*
X137593089Y50911712D01*
X138075564Y50189638D01*
X138689638Y49575564D01*
X139411712Y49093089D01*
X140214039Y48760754D01*
X141065784Y48591332D01*
X141934216Y48591332D01*
X142785961Y48760754D01*
X143588288Y49093089D01*
X144310362Y49575564D01*
X144924436Y50189638D01*
X145406911Y50911712D01*
X145739246Y51714039D01*
X145908668Y52565784D01*
X145908668Y53434216D01*
X145739246Y54285961D01*
X145406911Y55088288D01*
X144924436Y55810362D01*
X144310362Y56424436D01*
X143588288Y56906911D01*
X142785961Y57239246D01*
X141934216Y57408668D01*
X141065784Y57408668D01*
X140214039Y57239246D01*
X139411712Y56906911D01*
X138689638Y56424436D01*
X138075564Y55810362D01*
X137593089Y55088288D01*
X137260754Y54285961D01*
X137091332Y53434216D01*
X129908668Y53434216D01*
X129739246Y54285961D01*
X129406911Y55088288D01*
X128924436Y55810362D01*
X128310362Y56424436D01*
X127588288Y56906911D01*
X126785961Y57239246D01*
X125934216Y57408668D01*
X125065784Y57408668D01*
X124214039Y57239246D01*
X123411712Y56906911D01*
X122689638Y56424436D01*
X122075564Y55810362D01*
X121593089Y55088288D01*
X121260754Y54285961D01*
X121091332Y53434216D01*
X114158668Y53434216D01*
X113989246Y54285961D01*
X113656911Y55088288D01*
X113174436Y55810362D01*
X112560362Y56424436D01*
X111838288Y56906911D01*
X111035961Y57239246D01*
X110184216Y57408668D01*
X109315784Y57408668D01*
X108464039Y57239246D01*
X107661712Y56906911D01*
X106939638Y56424436D01*
X106325564Y55810362D01*
X105843089Y55088288D01*
X105510754Y54285961D01*
X105341332Y53434216D01*
X100660000Y53434216D01*
X100660000Y75434216D01*
X105341332Y75434216D01*
X105341332Y74565784D01*
X105510754Y73714039D01*
X105843089Y72911712D01*
X106325564Y72189638D01*
X106939638Y71575564D01*
X107661712Y71093089D01*
X108464039Y70760754D01*
X109315784Y70591332D01*
X110184216Y70591332D01*
X111035961Y70760754D01*
X111838288Y71093089D01*
X112560362Y71575564D01*
X113174436Y72189638D01*
X113656911Y72911712D01*
X113989246Y73714039D01*
X114158668Y74565784D01*
X114158668Y75434216D01*
X121091332Y75434216D01*
X121091332Y74565784D01*
X121260754Y73714039D01*
X121593089Y72911712D01*
X122075564Y72189638D01*
X122689638Y71575564D01*
X123411712Y71093089D01*
X124214039Y70760754D01*
X125065784Y70591332D01*
X125934216Y70591332D01*
X126785961Y70760754D01*
X127588288Y71093089D01*
X128310362Y71575564D01*
X128924436Y72189638D01*
X129406911Y72911712D01*
X129739246Y73714039D01*
X129908668Y74565784D01*
X129908668Y75434216D01*
X137091332Y75434216D01*
X137091332Y74565784D01*
X137260754Y73714039D01*
X137593089Y72911712D01*
X138075564Y72189638D01*
X138689638Y71575564D01*
X139411712Y71093089D01*
X140214039Y70760754D01*
X141065784Y70591332D01*
X141934216Y70591332D01*
X142785961Y70760754D01*
X143588288Y71093089D01*
X144310362Y71575564D01*
X144924436Y72189638D01*
X145406911Y72911712D01*
X145739246Y73714039D01*
X145908668Y74565784D01*
X145908668Y75434216D01*
X145739246Y76285961D01*
X145406911Y77088288D01*
X144924436Y77810362D01*
X144310362Y78424436D01*
X143588288Y78906911D01*
X142785961Y79239246D01*
X141934216Y79408668D01*
X141065784Y79408668D01*
X140214039Y79239246D01*
X139411712Y78906911D01*
X138689638Y78424436D01*
X138075564Y77810362D01*
X137593089Y77088288D01*
X137260754Y76285961D01*
X137091332Y75434216D01*
X129908668Y75434216D01*
X129739246Y76285961D01*
X129406911Y77088288D01*
X128924436Y77810362D01*
X128310362Y78424436D01*
X127588288Y78906911D01*
X126785961Y79239246D01*
X125934216Y79408668D01*
X125065784Y79408668D01*
X124214039Y79239246D01*
X123411712Y78906911D01*
X122689638Y78424436D01*
X122075564Y77810362D01*
X121593089Y77088288D01*
X121260754Y76285961D01*
X121091332Y75434216D01*
X114158668Y75434216D01*
X113989246Y76285961D01*
X113656911Y77088288D01*
X113174436Y77810362D01*
X112560362Y78424436D01*
X111838288Y78906911D01*
X111035961Y79239246D01*
X110184216Y79408668D01*
X109315784Y79408668D01*
X108464039Y79239246D01*
X107661712Y78906911D01*
X106939638Y78424436D01*
X106325564Y77810362D01*
X105843089Y77088288D01*
X105510754Y76285961D01*
X105341332Y75434216D01*
X100660000Y75434216D01*
X100660000Y96948647D01*
X104242755Y96948647D01*
X104243173Y96888829D01*
X104242755Y96829012D01*
X104243655Y96819840D01*
X104276296Y96509285D01*
X104288320Y96450709D01*
X104299532Y96391930D01*
X104302196Y96383108D01*
X104394535Y96084808D01*
X104417715Y96029665D01*
X104440124Y95974200D01*
X104444451Y95966063D01*
X104592972Y95691379D01*
X104626417Y95641795D01*
X104659177Y95591732D01*
X104665001Y95584591D01*
X104864047Y95343987D01*
X104906482Y95301846D01*
X104948346Y95259097D01*
X104955446Y95253223D01*
X105197435Y95055862D01*
X105247259Y95022759D01*
X105296615Y94988964D01*
X105304721Y94984581D01*
X105580435Y94837981D01*
X105635704Y94815201D01*
X105690724Y94791619D01*
X105699527Y94788895D01*
X105998465Y94698641D01*
X106057138Y94687024D01*
X106115655Y94674585D01*
X106124820Y94673622D01*
X106435594Y94643150D01*
X106435598Y94643150D01*
X106467581Y94640000D01*
X108532419Y94640000D01*
X108565986Y94643306D01*
X108586744Y94643306D01*
X108595909Y94644269D01*
X108906228Y94679077D01*
X108964731Y94691513D01*
X109023419Y94703133D01*
X109032222Y94705858D01*
X109329870Y94800277D01*
X109384792Y94823817D01*
X109440159Y94846637D01*
X109448265Y94851021D01*
X109721904Y95001456D01*
X109771217Y95035221D01*
X109821088Y95068355D01*
X109828188Y95074230D01*
X110067397Y95274951D01*
X110109241Y95317680D01*
X110151694Y95359838D01*
X110157519Y95366980D01*
X110353185Y95610340D01*
X110385938Y95660392D01*
X110419391Y95709987D01*
X110423714Y95718119D01*
X110423717Y95718123D01*
X110423719Y95718127D01*
X110568388Y95994854D01*
X110590785Y96050289D01*
X110613978Y96105461D01*
X110616641Y96114283D01*
X110704807Y96413844D01*
X110716007Y96472560D01*
X110728045Y96531202D01*
X110728944Y96540373D01*
X110757245Y96851353D01*
X110756827Y96911171D01*
X110757088Y96948647D01*
X139242755Y96948647D01*
X139243173Y96888829D01*
X139242755Y96829012D01*
X139243655Y96819840D01*
X139276296Y96509285D01*
X139288320Y96450709D01*
X139299532Y96391930D01*
X139302196Y96383108D01*
X139394535Y96084808D01*
X139417715Y96029665D01*
X139440124Y95974200D01*
X139444451Y95966063D01*
X139592972Y95691379D01*
X139626417Y95641795D01*
X139659177Y95591732D01*
X139665001Y95584591D01*
X139864047Y95343987D01*
X139906482Y95301846D01*
X139948346Y95259097D01*
X139955446Y95253223D01*
X140197435Y95055862D01*
X140247259Y95022759D01*
X140296615Y94988964D01*
X140304721Y94984581D01*
X140580435Y94837981D01*
X140635704Y94815201D01*
X140690724Y94791619D01*
X140699527Y94788895D01*
X140998465Y94698641D01*
X141057138Y94687024D01*
X141115655Y94674585D01*
X141124820Y94673622D01*
X141435594Y94643150D01*
X141435598Y94643150D01*
X141467581Y94640000D01*
X143532419Y94640000D01*
X143565986Y94643306D01*
X143586744Y94643306D01*
X143595909Y94644269D01*
X143906228Y94679077D01*
X143964731Y94691513D01*
X144023419Y94703133D01*
X144032222Y94705858D01*
X144329870Y94800277D01*
X144384792Y94823817D01*
X144440159Y94846637D01*
X144448265Y94851021D01*
X144721904Y95001456D01*
X144771217Y95035221D01*
X144821088Y95068355D01*
X144828188Y95074230D01*
X145067397Y95274951D01*
X145109241Y95317680D01*
X145151694Y95359838D01*
X145157519Y95366980D01*
X145353185Y95610340D01*
X145385938Y95660392D01*
X145419391Y95709987D01*
X145423714Y95718119D01*
X145423717Y95718123D01*
X145423719Y95718127D01*
X145568388Y95994854D01*
X145590785Y96050289D01*
X145613978Y96105461D01*
X145616641Y96114283D01*
X145704807Y96413844D01*
X145716007Y96472560D01*
X145728045Y96531202D01*
X145728944Y96540373D01*
X145757245Y96851353D01*
X145756827Y96911170D01*
X145757245Y96970988D01*
X145756345Y96980159D01*
X145723704Y97290715D01*
X145711680Y97349291D01*
X145700468Y97408070D01*
X145697804Y97416892D01*
X145605465Y97715192D01*
X145582280Y97770347D01*
X145559876Y97825800D01*
X145555549Y97833936D01*
X145555549Y97833937D01*
X145555546Y97833941D01*
X145407028Y98108621D01*
X145373583Y98158205D01*
X145340823Y98208268D01*
X145334999Y98215409D01*
X145135954Y98456013D01*
X145093535Y98498137D01*
X145051655Y98540903D01*
X145044554Y98546777D01*
X144802565Y98744138D01*
X144752741Y98777241D01*
X144703385Y98811036D01*
X144695279Y98815419D01*
X144419566Y98962019D01*
X144364269Y98984811D01*
X144309275Y99008381D01*
X144300472Y99011105D01*
X144001535Y99101359D01*
X143942862Y99112976D01*
X143884345Y99125415D01*
X143875180Y99126378D01*
X143564405Y99156850D01*
X143564402Y99156850D01*
X143532419Y99160000D01*
X141467581Y99160000D01*
X141434014Y99156694D01*
X141413256Y99156694D01*
X141404091Y99155731D01*
X141093771Y99120923D01*
X141035298Y99108494D01*
X140976581Y99096868D01*
X140967778Y99094142D01*
X140670130Y98999723D01*
X140615147Y98976157D01*
X140559841Y98953362D01*
X140551735Y98948979D01*
X140278095Y98798544D01*
X140228748Y98764755D01*
X140178913Y98731645D01*
X140171812Y98725771D01*
X139932603Y98525049D01*
X139890759Y98482319D01*
X139848305Y98440161D01*
X139842481Y98433020D01*
X139646814Y98189660D01*
X139614055Y98139600D01*
X139580609Y98090014D01*
X139576283Y98081877D01*
X139431612Y97805146D01*
X139409215Y97749711D01*
X139386022Y97694539D01*
X139383359Y97685717D01*
X139295193Y97386156D01*
X139283993Y97327440D01*
X139271955Y97268798D01*
X139271056Y97259627D01*
X139242755Y96948647D01*
X110757088Y96948647D01*
X110757245Y96970988D01*
X110756345Y96980159D01*
X110723704Y97290715D01*
X110711680Y97349291D01*
X110700468Y97408070D01*
X110697804Y97416892D01*
X110605465Y97715192D01*
X110582280Y97770347D01*
X110559876Y97825800D01*
X110555549Y97833936D01*
X110555549Y97833937D01*
X110555546Y97833941D01*
X110407028Y98108621D01*
X110373583Y98158205D01*
X110340823Y98208268D01*
X110334999Y98215409D01*
X110135954Y98456013D01*
X110093535Y98498137D01*
X110051655Y98540903D01*
X110044554Y98546777D01*
X109802565Y98744138D01*
X109752741Y98777241D01*
X109703385Y98811036D01*
X109695279Y98815419D01*
X109419566Y98962019D01*
X109364269Y98984811D01*
X109309275Y99008381D01*
X109300472Y99011105D01*
X109001535Y99101359D01*
X108942862Y99112976D01*
X108884345Y99125415D01*
X108875180Y99126378D01*
X108564405Y99156850D01*
X108564402Y99156850D01*
X108532419Y99160000D01*
X106467581Y99160000D01*
X106434014Y99156694D01*
X106413256Y99156694D01*
X106404091Y99155731D01*
X106093771Y99120923D01*
X106035298Y99108494D01*
X105976581Y99096868D01*
X105967778Y99094142D01*
X105670130Y98999723D01*
X105615147Y98976157D01*
X105559841Y98953362D01*
X105551735Y98948979D01*
X105278095Y98798544D01*
X105228748Y98764755D01*
X105178913Y98731645D01*
X105171812Y98725771D01*
X104932603Y98525049D01*
X104890759Y98482319D01*
X104848305Y98440161D01*
X104842481Y98433020D01*
X104646814Y98189660D01*
X104614055Y98139600D01*
X104580609Y98090014D01*
X104576283Y98081877D01*
X104431612Y97805146D01*
X104409215Y97749711D01*
X104386022Y97694539D01*
X104383359Y97685717D01*
X104295193Y97386156D01*
X104283993Y97327440D01*
X104271955Y97268798D01*
X104271056Y97259627D01*
X104242755Y96948647D01*
X100660000Y96948647D01*
X100660000Y99340000D01*
X149740000Y99340000D01*
X149740001Y-27840000D01*
M02*
