G04 #@! TF.GenerationSoftware,KiCad,Pcbnew,(5.1.5-0)*
G04 #@! TF.CreationDate,2021-01-14T18:28:11-08:00*
G04 #@! TF.ProjectId,duallpg,6475616c-6c70-4672-9e6b-696361645f70,rev?*
G04 #@! TF.SameCoordinates,Original*
G04 #@! TF.FileFunction,Legend,Top*
G04 #@! TF.FilePolarity,Positive*
%FSLAX46Y46*%
G04 Gerber Fmt 4.6, Leading zero omitted, Abs format (unit mm)*
G04 Created by KiCad (PCBNEW (5.1.5-0)) date 2021-01-14 18:28:11*
%MOMM*%
%LPD*%
G04 APERTURE LIST*
%ADD10C,0.300000*%
%ADD11C,0.500000*%
G04 APERTURE END LIST*
D10*
X112892857Y91464285D02*
X112821428Y91392857D01*
X112607142Y91321428D01*
X112464285Y91321428D01*
X112250000Y91392857D01*
X112107142Y91535714D01*
X112035714Y91678571D01*
X111964285Y91964285D01*
X111964285Y92178571D01*
X112035714Y92464285D01*
X112107142Y92607142D01*
X112250000Y92750000D01*
X112464285Y92821428D01*
X112607142Y92821428D01*
X112821428Y92750000D01*
X112892857Y92678571D01*
X114250000Y91321428D02*
X113535714Y91321428D01*
X113535714Y92821428D01*
X115035714Y92821428D02*
X115321428Y92821428D01*
X115464285Y92750000D01*
X115607142Y92607142D01*
X115678571Y92321428D01*
X115678571Y91821428D01*
X115607142Y91535714D01*
X115464285Y91392857D01*
X115321428Y91321428D01*
X115035714Y91321428D01*
X114892857Y91392857D01*
X114750000Y91535714D01*
X114678571Y91821428D01*
X114678571Y92321428D01*
X114750000Y92607142D01*
X114892857Y92750000D01*
X115035714Y92821428D01*
X116321428Y91321428D02*
X116321428Y92821428D01*
X117178571Y91321428D01*
X117178571Y92821428D01*
X117892857Y92107142D02*
X118392857Y92107142D01*
X118607142Y91321428D02*
X117892857Y91321428D01*
X117892857Y92821428D01*
X118607142Y92821428D01*
X120321428Y92321428D02*
X121392857Y92321428D01*
X120750000Y92964285D02*
X120321428Y91035714D01*
X121250000Y91678571D02*
X120178571Y91678571D01*
X120821428Y91035714D02*
X121250000Y92964285D01*
X122178571Y92821428D02*
X122321428Y92821428D01*
X122464285Y92750000D01*
X122535714Y92678571D01*
X122607142Y92535714D01*
X122678571Y92250000D01*
X122678571Y91892857D01*
X122607142Y91607142D01*
X122535714Y91464285D01*
X122464285Y91392857D01*
X122321428Y91321428D01*
X122178571Y91321428D01*
X122035714Y91392857D01*
X121964285Y91464285D01*
X121892857Y91607142D01*
X121821428Y91892857D01*
X121821428Y92250000D01*
X121892857Y92535714D01*
X121964285Y92678571D01*
X122035714Y92750000D01*
X122178571Y92821428D01*
X123964285Y92321428D02*
X123964285Y91321428D01*
X123607142Y92892857D02*
X123250000Y91821428D01*
X124178571Y91821428D01*
X124678571Y92678571D02*
X124750000Y92750000D01*
X124892857Y92821428D01*
X125250000Y92821428D01*
X125392857Y92750000D01*
X125464285Y92678571D01*
X125535714Y92535714D01*
X125535714Y92392857D01*
X125464285Y92178571D01*
X124607142Y91321428D01*
X125535714Y91321428D01*
D11*
X112061904Y94780952D02*
X112061904Y98580952D01*
X112966666Y98580952D01*
X113509523Y98400000D01*
X113871428Y98038095D01*
X114052380Y97676190D01*
X114233333Y96952380D01*
X114233333Y96409523D01*
X114052380Y95685714D01*
X113871428Y95323809D01*
X113509523Y94961904D01*
X112966666Y94780952D01*
X112061904Y94780952D01*
X115861904Y98580952D02*
X115861904Y95504761D01*
X116042857Y95142857D01*
X116223809Y94961904D01*
X116585714Y94780952D01*
X117309523Y94780952D01*
X117671428Y94961904D01*
X117852380Y95142857D01*
X118033333Y95504761D01*
X118033333Y98580952D01*
X119661904Y95866666D02*
X121471428Y95866666D01*
X119300000Y94780952D02*
X120566666Y98580952D01*
X121833333Y94780952D01*
X124909523Y94780952D02*
X123100000Y94780952D01*
X123100000Y98580952D01*
X130880952Y94780952D02*
X129071428Y94780952D01*
X129071428Y98580952D01*
X132147619Y94780952D02*
X132147619Y98580952D01*
X133595238Y98580952D01*
X133957142Y98400000D01*
X134138095Y98219047D01*
X134319047Y97857142D01*
X134319047Y97314285D01*
X134138095Y96952380D01*
X133957142Y96771428D01*
X133595238Y96590476D01*
X132147619Y96590476D01*
X137938095Y98400000D02*
X137576190Y98580952D01*
X137033333Y98580952D01*
X136490476Y98400000D01*
X136128571Y98038095D01*
X135947619Y97676190D01*
X135766666Y96952380D01*
X135766666Y96409523D01*
X135947619Y95685714D01*
X136128571Y95323809D01*
X136490476Y94961904D01*
X137033333Y94780952D01*
X137395238Y94780952D01*
X137938095Y94961904D01*
X138119047Y95142857D01*
X138119047Y96409523D01*
X137395238Y96409523D01*
D10*
X122130952Y84642857D02*
X121464285Y84642857D01*
X121464285Y83595238D02*
X121464285Y85595238D01*
X122416666Y85595238D01*
X124321428Y83595238D02*
X123654761Y84547619D01*
X123178571Y83595238D02*
X123178571Y85595238D01*
X123940476Y85595238D01*
X124130952Y85500000D01*
X124226190Y85404761D01*
X124321428Y85214285D01*
X124321428Y84928571D01*
X124226190Y84738095D01*
X124130952Y84642857D01*
X123940476Y84547619D01*
X123178571Y84547619D01*
X125178571Y84642857D02*
X125845238Y84642857D01*
X126130952Y83595238D02*
X125178571Y83595238D01*
X125178571Y85595238D01*
X126130952Y85595238D01*
X128321428Y83404761D02*
X128130952Y83500000D01*
X127940476Y83690476D01*
X127654761Y83976190D01*
X127464285Y84071428D01*
X127273809Y84071428D01*
X127369047Y83595238D02*
X127178571Y83690476D01*
X126988095Y83880952D01*
X126892857Y84261904D01*
X126892857Y84928571D01*
X126988095Y85309523D01*
X127178571Y85500000D01*
X127369047Y85595238D01*
X127750000Y85595238D01*
X127940476Y85500000D01*
X128130952Y85309523D01*
X128226190Y84928571D01*
X128226190Y84261904D01*
X128130952Y83880952D01*
X127940476Y83690476D01*
X127750000Y83595238D01*
X127369047Y83595238D01*
X130130952Y83595238D02*
X128988095Y83595238D01*
X129559523Y83595238D02*
X129559523Y85595238D01*
X129369047Y85309523D01*
X129178571Y85119047D01*
X128988095Y85023809D01*
X108459523Y83785714D02*
X108364285Y83690476D01*
X108078571Y83595238D01*
X107888095Y83595238D01*
X107602380Y83690476D01*
X107411904Y83880952D01*
X107316666Y84071428D01*
X107221428Y84452380D01*
X107221428Y84738095D01*
X107316666Y85119047D01*
X107411904Y85309523D01*
X107602380Y85500000D01*
X107888095Y85595238D01*
X108078571Y85595238D01*
X108364285Y85500000D01*
X108459523Y85404761D01*
X109030952Y85595238D02*
X109697619Y83595238D01*
X110364285Y85595238D01*
X112078571Y83595238D02*
X110935714Y83595238D01*
X111507142Y83595238D02*
X111507142Y85595238D01*
X111316666Y85309523D01*
X111126190Y85119047D01*
X110935714Y85023809D01*
X139559523Y83595238D02*
X138892857Y84547619D01*
X138416666Y83595238D02*
X138416666Y85595238D01*
X139178571Y85595238D01*
X139369047Y85500000D01*
X139464285Y85404761D01*
X139559523Y85214285D01*
X139559523Y84928571D01*
X139464285Y84738095D01*
X139369047Y84642857D01*
X139178571Y84547619D01*
X138416666Y84547619D01*
X140416666Y84642857D02*
X141083333Y84642857D01*
X141369047Y83595238D02*
X140416666Y83595238D01*
X140416666Y85595238D01*
X141369047Y85595238D01*
X142130952Y83690476D02*
X142416666Y83595238D01*
X142892857Y83595238D01*
X143083333Y83690476D01*
X143178571Y83785714D01*
X143273809Y83976190D01*
X143273809Y84166666D01*
X143178571Y84357142D01*
X143083333Y84452380D01*
X142892857Y84547619D01*
X142511904Y84642857D01*
X142321428Y84738095D01*
X142226190Y84833333D01*
X142130952Y85023809D01*
X142130952Y85214285D01*
X142226190Y85404761D01*
X142321428Y85500000D01*
X142511904Y85595238D01*
X142988095Y85595238D01*
X143273809Y85500000D01*
X145178571Y83595238D02*
X144035714Y83595238D01*
X144607142Y83595238D02*
X144607142Y85595238D01*
X144416666Y85309523D01*
X144226190Y85119047D01*
X144035714Y85023809D01*
X139559523Y61595238D02*
X138892857Y62547619D01*
X138416666Y61595238D02*
X138416666Y63595238D01*
X139178571Y63595238D01*
X139369047Y63500000D01*
X139464285Y63404761D01*
X139559523Y63214285D01*
X139559523Y62928571D01*
X139464285Y62738095D01*
X139369047Y62642857D01*
X139178571Y62547619D01*
X138416666Y62547619D01*
X140416666Y62642857D02*
X141083333Y62642857D01*
X141369047Y61595238D02*
X140416666Y61595238D01*
X140416666Y63595238D01*
X141369047Y63595238D01*
X142130952Y61690476D02*
X142416666Y61595238D01*
X142892857Y61595238D01*
X143083333Y61690476D01*
X143178571Y61785714D01*
X143273809Y61976190D01*
X143273809Y62166666D01*
X143178571Y62357142D01*
X143083333Y62452380D01*
X142892857Y62547619D01*
X142511904Y62642857D01*
X142321428Y62738095D01*
X142226190Y62833333D01*
X142130952Y63023809D01*
X142130952Y63214285D01*
X142226190Y63404761D01*
X142321428Y63500000D01*
X142511904Y63595238D01*
X142988095Y63595238D01*
X143273809Y63500000D01*
X144035714Y63404761D02*
X144130952Y63500000D01*
X144321428Y63595238D01*
X144797619Y63595238D01*
X144988095Y63500000D01*
X145083333Y63404761D01*
X145178571Y63214285D01*
X145178571Y63023809D01*
X145083333Y62738095D01*
X143940476Y61595238D01*
X145178571Y61595238D01*
X122130952Y62642857D02*
X121464285Y62642857D01*
X121464285Y61595238D02*
X121464285Y63595238D01*
X122416666Y63595238D01*
X124321428Y61595238D02*
X123654761Y62547619D01*
X123178571Y61595238D02*
X123178571Y63595238D01*
X123940476Y63595238D01*
X124130952Y63500000D01*
X124226190Y63404761D01*
X124321428Y63214285D01*
X124321428Y62928571D01*
X124226190Y62738095D01*
X124130952Y62642857D01*
X123940476Y62547619D01*
X123178571Y62547619D01*
X125178571Y62642857D02*
X125845238Y62642857D01*
X126130952Y61595238D02*
X125178571Y61595238D01*
X125178571Y63595238D01*
X126130952Y63595238D01*
X128321428Y61404761D02*
X128130952Y61500000D01*
X127940476Y61690476D01*
X127654761Y61976190D01*
X127464285Y62071428D01*
X127273809Y62071428D01*
X127369047Y61595238D02*
X127178571Y61690476D01*
X126988095Y61880952D01*
X126892857Y62261904D01*
X126892857Y62928571D01*
X126988095Y63309523D01*
X127178571Y63500000D01*
X127369047Y63595238D01*
X127750000Y63595238D01*
X127940476Y63500000D01*
X128130952Y63309523D01*
X128226190Y62928571D01*
X128226190Y62261904D01*
X128130952Y61880952D01*
X127940476Y61690476D01*
X127750000Y61595238D01*
X127369047Y61595238D01*
X128988095Y63404761D02*
X129083333Y63500000D01*
X129273809Y63595238D01*
X129750000Y63595238D01*
X129940476Y63500000D01*
X130035714Y63404761D01*
X130130952Y63214285D01*
X130130952Y63023809D01*
X130035714Y62738095D01*
X128892857Y61595238D01*
X130130952Y61595238D01*
X108559523Y61785714D02*
X108464285Y61690476D01*
X108178571Y61595238D01*
X107988095Y61595238D01*
X107702380Y61690476D01*
X107511904Y61880952D01*
X107416666Y62071428D01*
X107321428Y62452380D01*
X107321428Y62738095D01*
X107416666Y63119047D01*
X107511904Y63309523D01*
X107702380Y63500000D01*
X107988095Y63595238D01*
X108178571Y63595238D01*
X108464285Y63500000D01*
X108559523Y63404761D01*
X109130952Y63595238D02*
X109797619Y61595238D01*
X110464285Y63595238D01*
X111035714Y63404761D02*
X111130952Y63500000D01*
X111321428Y63595238D01*
X111797619Y63595238D01*
X111988095Y63500000D01*
X112083333Y63404761D01*
X112178571Y63214285D01*
X112178571Y63023809D01*
X112083333Y62738095D01*
X110940476Y61595238D01*
X112178571Y61595238D01*
X105250000Y1095238D02*
X105250000Y3095238D01*
X106202380Y1095238D02*
X106202380Y3095238D01*
X107345238Y1095238D01*
X107345238Y3095238D01*
X108202380Y2904761D02*
X108297619Y3000000D01*
X108488095Y3095238D01*
X108964285Y3095238D01*
X109154761Y3000000D01*
X109250000Y2904761D01*
X109345238Y2714285D01*
X109345238Y2523809D01*
X109250000Y2238095D01*
X108107142Y1095238D01*
X109345238Y1095238D01*
X118059523Y1285714D02*
X117964285Y1190476D01*
X117678571Y1095238D01*
X117488095Y1095238D01*
X117202380Y1190476D01*
X117011904Y1380952D01*
X116916666Y1571428D01*
X116821428Y1952380D01*
X116821428Y2238095D01*
X116916666Y2619047D01*
X117011904Y2809523D01*
X117202380Y3000000D01*
X117488095Y3095238D01*
X117678571Y3095238D01*
X117964285Y3000000D01*
X118059523Y2904761D01*
X118630952Y3095238D02*
X119297619Y1095238D01*
X119964285Y3095238D01*
X120535714Y2904761D02*
X120630952Y3000000D01*
X120821428Y3095238D01*
X121297619Y3095238D01*
X121488095Y3000000D01*
X121583333Y2904761D01*
X121678571Y2714285D01*
X121678571Y2523809D01*
X121583333Y2238095D01*
X120440476Y1095238D01*
X121678571Y1095238D01*
X128297619Y3095238D02*
X128678571Y3095238D01*
X128869047Y3000000D01*
X129059523Y2809523D01*
X129154761Y2428571D01*
X129154761Y1761904D01*
X129059523Y1380952D01*
X128869047Y1190476D01*
X128678571Y1095238D01*
X128297619Y1095238D01*
X128107142Y1190476D01*
X127916666Y1380952D01*
X127821428Y1761904D01*
X127821428Y2428571D01*
X127916666Y2809523D01*
X128107142Y3000000D01*
X128297619Y3095238D01*
X130011904Y3095238D02*
X130011904Y1476190D01*
X130107142Y1285714D01*
X130202380Y1190476D01*
X130392857Y1095238D01*
X130773809Y1095238D01*
X130964285Y1190476D01*
X131059523Y1285714D01*
X131154761Y1476190D01*
X131154761Y3095238D01*
X131821428Y3095238D02*
X132964285Y3095238D01*
X132392857Y1095238D02*
X132392857Y3095238D01*
X133535714Y2904761D02*
X133630952Y3000000D01*
X133821428Y3095238D01*
X134297619Y3095238D01*
X134488095Y3000000D01*
X134583333Y2904761D01*
X134678571Y2714285D01*
X134678571Y2523809D01*
X134583333Y2238095D01*
X133440476Y1095238D01*
X134678571Y1095238D01*
X140500000Y2107142D02*
X140000000Y2107142D01*
X140000000Y1321428D02*
X140000000Y2821428D01*
X140714285Y2821428D01*
X141285714Y1321428D02*
X141285714Y2821428D01*
X142714285Y1321428D02*
X142000000Y1321428D01*
X142000000Y2821428D01*
X143000000Y2821428D02*
X143857142Y2821428D01*
X143428571Y1321428D02*
X143428571Y2821428D01*
X144357142Y2107142D02*
X144857142Y2107142D01*
X145071428Y1321428D02*
X144357142Y1321428D01*
X144357142Y2821428D01*
X145071428Y2821428D01*
X146571428Y1321428D02*
X146071428Y2035714D01*
X145714285Y1321428D02*
X145714285Y2821428D01*
X146285714Y2821428D01*
X146428571Y2750000D01*
X146500000Y2678571D01*
X146571428Y2535714D01*
X146571428Y2321428D01*
X146500000Y2178571D01*
X146428571Y2107142D01*
X146285714Y2035714D01*
X145714285Y2035714D01*
X141750000Y-10750000D02*
X141607142Y-10678571D01*
X141392857Y-10678571D01*
X141178571Y-10750000D01*
X141035714Y-10892857D01*
X140964285Y-11035714D01*
X140892857Y-11321428D01*
X140892857Y-11535714D01*
X140964285Y-11821428D01*
X141035714Y-11964285D01*
X141178571Y-12107142D01*
X141392857Y-12178571D01*
X141535714Y-12178571D01*
X141750000Y-12107142D01*
X141821428Y-12035714D01*
X141821428Y-11535714D01*
X141535714Y-11535714D01*
X142392857Y-11750000D02*
X143107142Y-11750000D01*
X142250000Y-12178571D02*
X142750000Y-10678571D01*
X143250000Y-12178571D01*
X143535714Y-10678571D02*
X144392857Y-10678571D01*
X143964285Y-12178571D02*
X143964285Y-10678571D01*
X144892857Y-11392857D02*
X145392857Y-11392857D01*
X145607142Y-12178571D02*
X144892857Y-12178571D01*
X144892857Y-10678571D01*
X145607142Y-10678571D01*
X141750000Y5250000D02*
X141607142Y5321428D01*
X141392857Y5321428D01*
X141178571Y5250000D01*
X141035714Y5107142D01*
X140964285Y4964285D01*
X140892857Y4678571D01*
X140892857Y4464285D01*
X140964285Y4178571D01*
X141035714Y4035714D01*
X141178571Y3892857D01*
X141392857Y3821428D01*
X141535714Y3821428D01*
X141750000Y3892857D01*
X141821428Y3964285D01*
X141821428Y4464285D01*
X141535714Y4464285D01*
X142392857Y4250000D02*
X143107142Y4250000D01*
X142250000Y3821428D02*
X142750000Y5321428D01*
X143250000Y3821428D01*
X143535714Y5321428D02*
X144392857Y5321428D01*
X143964285Y3821428D02*
X143964285Y5321428D01*
X144892857Y4607142D02*
X145392857Y4607142D01*
X145607142Y3821428D02*
X144892857Y3821428D01*
X144892857Y5321428D01*
X145607142Y5321428D01*
X140500000Y18107142D02*
X140000000Y18107142D01*
X140000000Y17321428D02*
X140000000Y18821428D01*
X140714285Y18821428D01*
X141285714Y17321428D02*
X141285714Y18821428D01*
X142714285Y17321428D02*
X142000000Y17321428D01*
X142000000Y18821428D01*
X143000000Y18821428D02*
X143857142Y18821428D01*
X143428571Y17321428D02*
X143428571Y18821428D01*
X144357142Y18107142D02*
X144857142Y18107142D01*
X145071428Y17321428D02*
X144357142Y17321428D01*
X144357142Y18821428D01*
X145071428Y18821428D01*
X146571428Y17321428D02*
X146071428Y18035714D01*
X145714285Y17321428D02*
X145714285Y18821428D01*
X146285714Y18821428D01*
X146428571Y18750000D01*
X146500000Y18678571D01*
X146571428Y18535714D01*
X146571428Y18321428D01*
X146500000Y18178571D01*
X146428571Y18107142D01*
X146285714Y18035714D01*
X145714285Y18035714D01*
X128297619Y19095238D02*
X128678571Y19095238D01*
X128869047Y19000000D01*
X129059523Y18809523D01*
X129154761Y18428571D01*
X129154761Y17761904D01*
X129059523Y17380952D01*
X128869047Y17190476D01*
X128678571Y17095238D01*
X128297619Y17095238D01*
X128107142Y17190476D01*
X127916666Y17380952D01*
X127821428Y17761904D01*
X127821428Y18428571D01*
X127916666Y18809523D01*
X128107142Y19000000D01*
X128297619Y19095238D01*
X130011904Y19095238D02*
X130011904Y17476190D01*
X130107142Y17285714D01*
X130202380Y17190476D01*
X130392857Y17095238D01*
X130773809Y17095238D01*
X130964285Y17190476D01*
X131059523Y17285714D01*
X131154761Y17476190D01*
X131154761Y19095238D01*
X131821428Y19095238D02*
X132964285Y19095238D01*
X132392857Y17095238D02*
X132392857Y19095238D01*
X134678571Y17095238D02*
X133535714Y17095238D01*
X134107142Y17095238D02*
X134107142Y19095238D01*
X133916666Y18809523D01*
X133726190Y18619047D01*
X133535714Y18523809D01*
X118059523Y17285714D02*
X117964285Y17190476D01*
X117678571Y17095238D01*
X117488095Y17095238D01*
X117202380Y17190476D01*
X117011904Y17380952D01*
X116916666Y17571428D01*
X116821428Y17952380D01*
X116821428Y18238095D01*
X116916666Y18619047D01*
X117011904Y18809523D01*
X117202380Y19000000D01*
X117488095Y19095238D01*
X117678571Y19095238D01*
X117964285Y19000000D01*
X118059523Y18904761D01*
X118630952Y19095238D02*
X119297619Y17095238D01*
X119964285Y19095238D01*
X121678571Y17095238D02*
X120535714Y17095238D01*
X121107142Y17095238D02*
X121107142Y19095238D01*
X120916666Y18809523D01*
X120726190Y18619047D01*
X120535714Y18523809D01*
X105250000Y17095238D02*
X105250000Y19095238D01*
X106202380Y17095238D02*
X106202380Y19095238D01*
X107345238Y17095238D01*
X107345238Y19095238D01*
X109345238Y17095238D02*
X108202380Y17095238D01*
X108773809Y17095238D02*
X108773809Y19095238D01*
X108583333Y18809523D01*
X108392857Y18619047D01*
X108202380Y18523809D01*
M02*
