G04 #@! TF.GenerationSoftware,KiCad,Pcbnew,(5.1.5-0)*
G04 #@! TF.CreationDate,2021-01-14T18:28:11-08:00*
G04 #@! TF.ProjectId,duallpg,6475616c-6c70-4672-9e6b-696361645f70,rev?*
G04 #@! TF.SameCoordinates,Original*
G04 #@! TF.FileFunction,Soldermask,Bot*
G04 #@! TF.FilePolarity,Negative*
%FSLAX46Y46*%
G04 Gerber Fmt 4.6, Leading zero omitted, Abs format (unit mm)*
G04 Created by KiCad (PCBNEW (5.1.5-0)) date 2021-01-14 18:28:11*
%MOMM*%
%LPD*%
G04 APERTURE LIST*
%ADD10C,1.000000*%
%ADD11C,0.150000*%
%ADD12C,0.100000*%
G04 APERTURE END LIST*
D10*
X146950000Y-5000000D02*
G75*
G03X146950000Y-5000000I-3700000J0D01*
G01*
D11*
X144726190Y-21202380D02*
X144726190Y-20535714D01*
X144726190Y-20726190D02*
X144678571Y-20630952D01*
X144630952Y-20583333D01*
X144535714Y-20535714D01*
X144440476Y-20535714D01*
X143726190Y-21154761D02*
X143821428Y-21202380D01*
X144011904Y-21202380D01*
X144107142Y-21154761D01*
X144154761Y-21059523D01*
X144154761Y-20678571D01*
X144107142Y-20583333D01*
X144011904Y-20535714D01*
X143821428Y-20535714D01*
X143726190Y-20583333D01*
X143678571Y-20678571D01*
X143678571Y-20773809D01*
X144154761Y-20869047D01*
X143250000Y-20535714D02*
X143250000Y-21535714D01*
X143250000Y-20583333D02*
X143154761Y-20535714D01*
X142964285Y-20535714D01*
X142869047Y-20583333D01*
X142821428Y-20630952D01*
X142773809Y-20726190D01*
X142773809Y-21011904D01*
X142821428Y-21107142D01*
X142869047Y-21154761D01*
X142964285Y-21202380D01*
X143154761Y-21202380D01*
X143250000Y-21154761D01*
X141916666Y-21202380D02*
X141916666Y-20678571D01*
X141964285Y-20583333D01*
X142059523Y-20535714D01*
X142250000Y-20535714D01*
X142345238Y-20583333D01*
X141916666Y-21154761D02*
X142011904Y-21202380D01*
X142250000Y-21202380D01*
X142345238Y-21154761D01*
X142392857Y-21059523D01*
X142392857Y-20964285D01*
X142345238Y-20869047D01*
X142250000Y-20821428D01*
X142011904Y-20821428D01*
X141916666Y-20773809D01*
X141440476Y-20535714D02*
X141440476Y-21202380D01*
X141440476Y-20630952D02*
X141392857Y-20583333D01*
X141297619Y-20535714D01*
X141154761Y-20535714D01*
X141059523Y-20583333D01*
X141011904Y-20678571D01*
X141011904Y-21202380D01*
X140154761Y-21154761D02*
X140250000Y-21202380D01*
X140440476Y-21202380D01*
X140535714Y-21154761D01*
X140583333Y-21059523D01*
X140583333Y-20678571D01*
X140535714Y-20583333D01*
X140440476Y-20535714D01*
X140250000Y-20535714D01*
X140154761Y-20583333D01*
X140107142Y-20678571D01*
X140107142Y-20773809D01*
X140583333Y-20869047D01*
X139535714Y-21202380D02*
X139630952Y-21154761D01*
X139678571Y-21059523D01*
X139678571Y-20202380D01*
X138392857Y-21202380D02*
X138392857Y-20202380D01*
X138392857Y-20583333D02*
X138297619Y-20535714D01*
X138107142Y-20535714D01*
X138011904Y-20583333D01*
X137964285Y-20630952D01*
X137916666Y-20726190D01*
X137916666Y-21011904D01*
X137964285Y-21107142D01*
X138011904Y-21154761D01*
X138107142Y-21202380D01*
X138297619Y-21202380D01*
X138392857Y-21154761D01*
X137583333Y-20535714D02*
X137345238Y-21202380D01*
X137107142Y-20535714D02*
X137345238Y-21202380D01*
X137440476Y-21440476D01*
X137488095Y-21488095D01*
X137583333Y-21535714D01*
X135964285Y-20535714D02*
X135964285Y-21392857D01*
X136011904Y-21488095D01*
X136107142Y-21535714D01*
X136154761Y-21535714D01*
X135964285Y-20202380D02*
X136011904Y-20250000D01*
X135964285Y-20297619D01*
X135916666Y-20250000D01*
X135964285Y-20202380D01*
X135964285Y-20297619D01*
X135059523Y-21202380D02*
X135059523Y-20678571D01*
X135107142Y-20583333D01*
X135202380Y-20535714D01*
X135392857Y-20535714D01*
X135488095Y-20583333D01*
X135059523Y-21154761D02*
X135154761Y-21202380D01*
X135392857Y-21202380D01*
X135488095Y-21154761D01*
X135535714Y-21059523D01*
X135535714Y-20964285D01*
X135488095Y-20869047D01*
X135392857Y-20821428D01*
X135154761Y-20821428D01*
X135059523Y-20773809D01*
X134154761Y-21154761D02*
X134250000Y-21202380D01*
X134440476Y-21202380D01*
X134535714Y-21154761D01*
X134583333Y-21107142D01*
X134630952Y-21011904D01*
X134630952Y-20726190D01*
X134583333Y-20630952D01*
X134535714Y-20583333D01*
X134440476Y-20535714D01*
X134250000Y-20535714D01*
X134154761Y-20583333D01*
X133726190Y-21202380D02*
X133726190Y-20202380D01*
X133630952Y-20821428D02*
X133345238Y-21202380D01*
X133345238Y-20535714D02*
X133726190Y-20916666D01*
X132202380Y-21154761D02*
X132107142Y-21202380D01*
X131916666Y-21202380D01*
X131821428Y-21154761D01*
X131773809Y-21059523D01*
X131773809Y-21011904D01*
X131821428Y-20916666D01*
X131916666Y-20869047D01*
X132059523Y-20869047D01*
X132154761Y-20821428D01*
X132202380Y-20726190D01*
X132202380Y-20678571D01*
X132154761Y-20583333D01*
X132059523Y-20535714D01*
X131916666Y-20535714D01*
X131821428Y-20583333D01*
X131345238Y-21107142D02*
X131297619Y-21154761D01*
X131345238Y-21202380D01*
X131392857Y-21154761D01*
X131345238Y-21107142D01*
X131345238Y-21202380D01*
X130154761Y-20297619D02*
X130107142Y-20250000D01*
X130011904Y-20202380D01*
X129773809Y-20202380D01*
X129678571Y-20250000D01*
X129630952Y-20297619D01*
X129583333Y-20392857D01*
X129583333Y-20488095D01*
X129630952Y-20630952D01*
X130202380Y-21202380D01*
X129583333Y-21202380D01*
X128964285Y-20202380D02*
X128869047Y-20202380D01*
X128773809Y-20250000D01*
X128726190Y-20297619D01*
X128678571Y-20392857D01*
X128630952Y-20583333D01*
X128630952Y-20821428D01*
X128678571Y-21011904D01*
X128726190Y-21107142D01*
X128773809Y-21154761D01*
X128869047Y-21202380D01*
X128964285Y-21202380D01*
X129059523Y-21154761D01*
X129107142Y-21107142D01*
X129154761Y-21011904D01*
X129202380Y-20821428D01*
X129202380Y-20583333D01*
X129154761Y-20392857D01*
X129107142Y-20297619D01*
X129059523Y-20250000D01*
X128964285Y-20202380D01*
X128250000Y-20297619D02*
X128202380Y-20250000D01*
X128107142Y-20202380D01*
X127869047Y-20202380D01*
X127773809Y-20250000D01*
X127726190Y-20297619D01*
X127678571Y-20392857D01*
X127678571Y-20488095D01*
X127726190Y-20630952D01*
X128297619Y-21202380D01*
X127678571Y-21202380D01*
X126726190Y-21202380D02*
X127297619Y-21202380D01*
X127011904Y-21202380D02*
X127011904Y-20202380D01*
X127107142Y-20345238D01*
X127202380Y-20440476D01*
X127297619Y-20488095D01*
D10*
X146950000Y11000000D02*
G75*
G03X146950000Y11000000I-3700000J0D01*
G01*
X134800000Y11000000D02*
G75*
G03X134800000Y11000000I-3550000J0D01*
G01*
X134750000Y-5000000D02*
G75*
G03X134750000Y-5000000I-3550000J0D01*
G01*
X122800000Y-4950000D02*
G75*
G03X122800000Y-4950000I-3550000J0D01*
G01*
X122800000Y11000000D02*
G75*
G03X122800000Y11000000I-3550000J0D01*
G01*
X111000000Y11000000D02*
G75*
G03X111000000Y11000000I-3550000J0D01*
G01*
X110750000Y-5000000D02*
G75*
G03X110750000Y-5000000I-3550000J0D01*
G01*
D12*
G36*
X143834239Y-1811467D02*
G01*
X144148282Y-1873934D01*
X144739926Y-2119001D01*
X145272392Y-2474784D01*
X145725216Y-2927608D01*
X146080999Y-3460074D01*
X146326066Y-4051718D01*
X146451000Y-4679804D01*
X146451000Y-5320196D01*
X146326066Y-5948282D01*
X146080999Y-6539926D01*
X145725216Y-7072392D01*
X145272392Y-7525216D01*
X144739926Y-7880999D01*
X144148282Y-8126066D01*
X143834239Y-8188533D01*
X143520197Y-8251000D01*
X142879803Y-8251000D01*
X142565761Y-8188533D01*
X142251718Y-8126066D01*
X141660074Y-7880999D01*
X141127608Y-7525216D01*
X140674784Y-7072392D01*
X140319001Y-6539926D01*
X140073934Y-5948282D01*
X139949000Y-5320196D01*
X139949000Y-4679804D01*
X140073934Y-4051718D01*
X140319001Y-3460074D01*
X140674784Y-2927608D01*
X141127608Y-2474784D01*
X141660074Y-2119001D01*
X142251718Y-1873934D01*
X142565761Y-1811467D01*
X142879803Y-1749000D01*
X143520197Y-1749000D01*
X143834239Y-1811467D01*
G37*
G36*
X131854975Y-1958585D02*
G01*
X132154528Y-2018170D01*
X132718874Y-2251930D01*
X133226772Y-2591296D01*
X133658704Y-3023228D01*
X133998070Y-3531126D01*
X134231830Y-4095472D01*
X134351000Y-4694578D01*
X134351000Y-5305422D01*
X134231830Y-5904528D01*
X133998070Y-6468874D01*
X133658704Y-6976772D01*
X133226772Y-7408704D01*
X132718874Y-7748070D01*
X132154528Y-7981830D01*
X131854975Y-8041415D01*
X131555423Y-8101000D01*
X130944577Y-8101000D01*
X130645025Y-8041415D01*
X130345472Y-7981830D01*
X129781126Y-7748070D01*
X129273228Y-7408704D01*
X128841296Y-6976772D01*
X128501930Y-6468874D01*
X128268170Y-5904528D01*
X128149000Y-5305422D01*
X128149000Y-4694578D01*
X128268170Y-4095472D01*
X128501930Y-3531126D01*
X128841296Y-3023228D01*
X129273228Y-2591296D01*
X129781126Y-2251930D01*
X130345472Y-2018170D01*
X130645025Y-1958585D01*
X130944577Y-1899000D01*
X131555423Y-1899000D01*
X131854975Y-1958585D01*
G37*
G36*
X119854975Y-1958585D02*
G01*
X120154528Y-2018170D01*
X120718874Y-2251930D01*
X121226772Y-2591296D01*
X121658704Y-3023228D01*
X121998070Y-3531126D01*
X122231830Y-4095472D01*
X122351000Y-4694578D01*
X122351000Y-5305422D01*
X122231830Y-5904528D01*
X121998070Y-6468874D01*
X121658704Y-6976772D01*
X121226772Y-7408704D01*
X120718874Y-7748070D01*
X120154528Y-7981830D01*
X119854975Y-8041415D01*
X119555423Y-8101000D01*
X118944577Y-8101000D01*
X118645025Y-8041415D01*
X118345472Y-7981830D01*
X117781126Y-7748070D01*
X117273228Y-7408704D01*
X116841296Y-6976772D01*
X116501930Y-6468874D01*
X116268170Y-5904528D01*
X116149000Y-5305422D01*
X116149000Y-4694578D01*
X116268170Y-4095472D01*
X116501930Y-3531126D01*
X116841296Y-3023228D01*
X117273228Y-2591296D01*
X117781126Y-2251930D01*
X118345472Y-2018170D01*
X118645025Y-1958585D01*
X118944577Y-1899000D01*
X119555423Y-1899000D01*
X119854975Y-1958585D01*
G37*
G36*
X107854975Y-1958585D02*
G01*
X108154528Y-2018170D01*
X108718874Y-2251930D01*
X109226772Y-2591296D01*
X109658704Y-3023228D01*
X109998070Y-3531126D01*
X110231830Y-4095472D01*
X110351000Y-4694578D01*
X110351000Y-5305422D01*
X110231830Y-5904528D01*
X109998070Y-6468874D01*
X109658704Y-6976772D01*
X109226772Y-7408704D01*
X108718874Y-7748070D01*
X108154528Y-7981830D01*
X107854975Y-8041415D01*
X107555423Y-8101000D01*
X106944577Y-8101000D01*
X106645025Y-8041415D01*
X106345472Y-7981830D01*
X105781126Y-7748070D01*
X105273228Y-7408704D01*
X104841296Y-6976772D01*
X104501930Y-6468874D01*
X104268170Y-5904528D01*
X104149000Y-5305422D01*
X104149000Y-4694578D01*
X104268170Y-4095472D01*
X104501930Y-3531126D01*
X104841296Y-3023228D01*
X105273228Y-2591296D01*
X105781126Y-2251930D01*
X106345472Y-2018170D01*
X106645025Y-1958585D01*
X106944577Y-1899000D01*
X107555423Y-1899000D01*
X107854975Y-1958585D01*
G37*
G36*
X143834239Y14188533D02*
G01*
X144148282Y14126066D01*
X144739926Y13880999D01*
X145272392Y13525216D01*
X145725216Y13072392D01*
X146080999Y12539926D01*
X146326066Y11948282D01*
X146451000Y11320196D01*
X146451000Y10679804D01*
X146326066Y10051718D01*
X146080999Y9460074D01*
X145725216Y8927608D01*
X145272392Y8474784D01*
X144739926Y8119001D01*
X144148282Y7873934D01*
X143834239Y7811467D01*
X143520197Y7749000D01*
X142879803Y7749000D01*
X142565761Y7811467D01*
X142251718Y7873934D01*
X141660074Y8119001D01*
X141127608Y8474784D01*
X140674784Y8927608D01*
X140319001Y9460074D01*
X140073934Y10051718D01*
X139949000Y10679804D01*
X139949000Y11320196D01*
X140073934Y11948282D01*
X140319001Y12539926D01*
X140674784Y13072392D01*
X141127608Y13525216D01*
X141660074Y13880999D01*
X142251718Y14126066D01*
X142565761Y14188533D01*
X142879803Y14251000D01*
X143520197Y14251000D01*
X143834239Y14188533D01*
G37*
G36*
X131854975Y14041415D02*
G01*
X132154528Y13981830D01*
X132718874Y13748070D01*
X133226772Y13408704D01*
X133658704Y12976772D01*
X133998070Y12468874D01*
X134231830Y11904528D01*
X134351000Y11305422D01*
X134351000Y10694578D01*
X134231830Y10095472D01*
X133998070Y9531126D01*
X133658704Y9023228D01*
X133226772Y8591296D01*
X132718874Y8251930D01*
X132154528Y8018170D01*
X131854975Y7958585D01*
X131555423Y7899000D01*
X130944577Y7899000D01*
X130645025Y7958585D01*
X130345472Y8018170D01*
X129781126Y8251930D01*
X129273228Y8591296D01*
X128841296Y9023228D01*
X128501930Y9531126D01*
X128268170Y10095472D01*
X128149000Y10694578D01*
X128149000Y11305422D01*
X128268170Y11904528D01*
X128501930Y12468874D01*
X128841296Y12976772D01*
X129273228Y13408704D01*
X129781126Y13748070D01*
X130345472Y13981830D01*
X130645025Y14041415D01*
X130944577Y14101000D01*
X131555423Y14101000D01*
X131854975Y14041415D01*
G37*
G36*
X119854975Y14041415D02*
G01*
X120154528Y13981830D01*
X120718874Y13748070D01*
X121226772Y13408704D01*
X121658704Y12976772D01*
X121998070Y12468874D01*
X122231830Y11904528D01*
X122351000Y11305422D01*
X122351000Y10694578D01*
X122231830Y10095472D01*
X121998070Y9531126D01*
X121658704Y9023228D01*
X121226772Y8591296D01*
X120718874Y8251930D01*
X120154528Y8018170D01*
X119854975Y7958585D01*
X119555423Y7899000D01*
X118944577Y7899000D01*
X118645025Y7958585D01*
X118345472Y8018170D01*
X117781126Y8251930D01*
X117273228Y8591296D01*
X116841296Y9023228D01*
X116501930Y9531126D01*
X116268170Y10095472D01*
X116149000Y10694578D01*
X116149000Y11305422D01*
X116268170Y11904528D01*
X116501930Y12468874D01*
X116841296Y12976772D01*
X117273228Y13408704D01*
X117781126Y13748070D01*
X118345472Y13981830D01*
X118645025Y14041415D01*
X118944577Y14101000D01*
X119555423Y14101000D01*
X119854975Y14041415D01*
G37*
G36*
X107854975Y14041415D02*
G01*
X108154528Y13981830D01*
X108718874Y13748070D01*
X109226772Y13408704D01*
X109658704Y12976772D01*
X109998070Y12468874D01*
X110231830Y11904528D01*
X110351000Y11305422D01*
X110351000Y10694578D01*
X110231830Y10095472D01*
X109998070Y9531126D01*
X109658704Y9023228D01*
X109226772Y8591296D01*
X108718874Y8251930D01*
X108154528Y8018170D01*
X107854975Y7958585D01*
X107555423Y7899000D01*
X106944577Y7899000D01*
X106645025Y7958585D01*
X106345472Y8018170D01*
X105781126Y8251930D01*
X105273228Y8591296D01*
X104841296Y9023228D01*
X104501930Y9531126D01*
X104268170Y10095472D01*
X104149000Y10694578D01*
X104149000Y11305422D01*
X104268170Y11904528D01*
X104501930Y12468874D01*
X104841296Y12976772D01*
X105273228Y13408704D01*
X105781126Y13748070D01*
X106345472Y13981830D01*
X106645025Y14041415D01*
X106944577Y14101000D01*
X107555423Y14101000D01*
X107854975Y14041415D01*
G37*
M02*
