G04 #@! TF.GenerationSoftware,KiCad,Pcbnew,(5.1.5-0)*
G04 #@! TF.CreationDate,2021-01-12T22:21:23-08:00*
G04 #@! TF.ProjectId,duallpg,6475616c-6c70-4672-9e6b-696361645f70,rev?*
G04 #@! TF.SameCoordinates,Original*
G04 #@! TF.FileFunction,Soldermask,Top*
G04 #@! TF.FilePolarity,Negative*
%FSLAX46Y46*%
G04 Gerber Fmt 4.6, Leading zero omitted, Abs format (unit mm)*
G04 Created by KiCad (PCBNEW (5.1.5-0)) date 2021-01-12 22:21:23*
%MOMM*%
%LPD*%
G04 APERTURE LIST*
%ADD10C,2.000000*%
%ADD11C,0.100000*%
%ADD12C,0.000002*%
%ADD13C,0.001000*%
G04 APERTURE END LIST*
D10*
X145250000Y-5000000D02*
X105250000Y-5000000D01*
X145250000Y11000000D02*
X105250000Y11000000D01*
D11*
G36*
X126160400Y-23497650D02*
G01*
X126712850Y-23777050D01*
X127039875Y-24104075D01*
X127174813Y-24334263D01*
X127406588Y-24604138D01*
X127100200Y-24520000D01*
X126846200Y-24443800D01*
X126668400Y-24380300D01*
X126293750Y-24246950D01*
X125934975Y-24053275D01*
X125674625Y-23767525D01*
X125550800Y-23605600D01*
X125614300Y-23643700D01*
X125588900Y-23580200D01*
X125652400Y-23408750D01*
X126160400Y-23497650D01*
G37*
X126160400Y-23497650D02*
X126712850Y-23777050D01*
X127039875Y-24104075D01*
X127174813Y-24334263D01*
X127406588Y-24604138D01*
X127100200Y-24520000D01*
X126846200Y-24443800D01*
X126668400Y-24380300D01*
X126293750Y-24246950D01*
X125934975Y-24053275D01*
X125674625Y-23767525D01*
X125550800Y-23605600D01*
X125614300Y-23643700D01*
X125588900Y-23580200D01*
X125652400Y-23408750D01*
X126160400Y-23497650D01*
G36*
X125366650Y-23516700D02*
G01*
X124998350Y-23948500D01*
X124560200Y-24221550D01*
X124179200Y-24361250D01*
X123429900Y-24526350D01*
X123912500Y-23999300D01*
X124306200Y-23732600D01*
X124674500Y-23529400D01*
X125144400Y-23453200D01*
X125169800Y-23453200D01*
X125366650Y-23516700D01*
G37*
X125366650Y-23516700D02*
X124998350Y-23948500D01*
X124560200Y-24221550D01*
X124179200Y-24361250D01*
X123429900Y-24526350D01*
X123912500Y-23999300D01*
X124306200Y-23732600D01*
X124674500Y-23529400D01*
X125144400Y-23453200D01*
X125169800Y-23453200D01*
X125366650Y-23516700D01*
G36*
X128573400Y-22488000D02*
G01*
X129005200Y-22513400D01*
X129583207Y-22523943D01*
X128903600Y-22678500D01*
X128471800Y-22869000D01*
X128128900Y-23084900D01*
X127709800Y-23250000D01*
X127176400Y-23338900D01*
X126731900Y-23364300D01*
X126154050Y-23345250D01*
X125576200Y-23326200D01*
X125512700Y-23250000D01*
X125728600Y-23186500D01*
X125735585Y-23135700D01*
X126051815Y-23008700D01*
X126585850Y-22780100D01*
X127138300Y-22576900D01*
X127532000Y-22462600D01*
X127976500Y-22462600D01*
X128573400Y-22488000D01*
G37*
X128573400Y-22488000D02*
X129005200Y-22513400D01*
X129583207Y-22523943D01*
X128903600Y-22678500D01*
X128471800Y-22869000D01*
X128128900Y-23084900D01*
X127709800Y-23250000D01*
X127176400Y-23338900D01*
X126731900Y-23364300D01*
X126154050Y-23345250D01*
X125576200Y-23326200D01*
X125512700Y-23250000D01*
X125728600Y-23186500D01*
X125735585Y-23135700D01*
X126051815Y-23008700D01*
X126585850Y-22780100D01*
X127138300Y-22576900D01*
X127532000Y-22462600D01*
X127976500Y-22462600D01*
X128573400Y-22488000D01*
G36*
X128560700Y-19833700D02*
G01*
X128319400Y-20329000D01*
X128116200Y-20786200D01*
X127855850Y-21306900D01*
X127582800Y-21662500D01*
X127271650Y-22075250D01*
X126801750Y-22468950D01*
X126300100Y-22805500D01*
X125195200Y-23402400D01*
X125220600Y-23072200D01*
X125525400Y-23021400D01*
X125773050Y-22583250D01*
X125988950Y-22119700D01*
X126154050Y-21789500D01*
X126338200Y-21497400D01*
X126503300Y-21179900D01*
X126782700Y-20824300D01*
X127062100Y-20506800D01*
X127392300Y-20214700D01*
X127735200Y-19986100D01*
X128116200Y-19732100D01*
X128509900Y-19465400D01*
X129043300Y-19071700D01*
X128560700Y-19833700D01*
G37*
X128560700Y-19833700D02*
X128319400Y-20329000D01*
X128116200Y-20786200D01*
X127855850Y-21306900D01*
X127582800Y-21662500D01*
X127271650Y-22075250D01*
X126801750Y-22468950D01*
X126300100Y-22805500D01*
X125195200Y-23402400D01*
X125220600Y-23072200D01*
X125525400Y-23021400D01*
X125773050Y-22583250D01*
X125988950Y-22119700D01*
X126154050Y-21789500D01*
X126338200Y-21497400D01*
X126503300Y-21179900D01*
X126782700Y-20824300D01*
X127062100Y-20506800D01*
X127392300Y-20214700D01*
X127735200Y-19986100D01*
X128116200Y-19732100D01*
X128509900Y-19465400D01*
X129043300Y-19071700D01*
X128560700Y-19833700D01*
G36*
X125715900Y-17700100D02*
G01*
X125817500Y-18182700D01*
X125931800Y-18639900D01*
X126014350Y-18970100D01*
X126077850Y-19351100D01*
X126122300Y-19871800D01*
X126122300Y-20405200D01*
X126071500Y-20989400D01*
X126008000Y-21510100D01*
X125865125Y-22005400D01*
X125566675Y-23021400D01*
X125353950Y-22970600D01*
X125119000Y-22056200D01*
X124945962Y-21192600D01*
X124961837Y-20405200D01*
X125014225Y-19744800D01*
X125176150Y-18970100D01*
X125411100Y-18157300D01*
X125538100Y-17382600D01*
X125601600Y-16861900D01*
X125715900Y-17700100D01*
G37*
X125715900Y-17700100D02*
X125817500Y-18182700D01*
X125931800Y-18639900D01*
X126014350Y-18970100D01*
X126077850Y-19351100D01*
X126122300Y-19871800D01*
X126122300Y-20405200D01*
X126071500Y-20989400D01*
X126008000Y-21510100D01*
X125865125Y-22005400D01*
X125566675Y-23021400D01*
X125353950Y-22970600D01*
X125119000Y-22056200D01*
X124945962Y-21192600D01*
X124961837Y-20405200D01*
X125014225Y-19744800D01*
X125176150Y-18970100D01*
X125411100Y-18157300D01*
X125538100Y-17382600D01*
X125601600Y-16861900D01*
X125715900Y-17700100D01*
G36*
X122096400Y-19274900D02*
G01*
X122413900Y-19516200D01*
X122979050Y-19833700D01*
X123575950Y-20265500D01*
X123950600Y-20646500D01*
X124350650Y-21211650D01*
X124947550Y-22392750D01*
X125246000Y-22957900D01*
X125258700Y-22970600D01*
X124928500Y-22996000D01*
X124826900Y-22945200D01*
X124471300Y-22697550D01*
X124064900Y-22329250D01*
X123734700Y-21980000D01*
X123379100Y-21548200D01*
X123099700Y-21129100D01*
X122909200Y-20875100D01*
X122655200Y-20417900D01*
X122401200Y-20049600D01*
X122159900Y-19630500D01*
X121880500Y-19071700D01*
X122096400Y-19274900D01*
G37*
X122096400Y-19274900D02*
X122413900Y-19516200D01*
X122979050Y-19833700D01*
X123575950Y-20265500D01*
X123950600Y-20646500D01*
X124350650Y-21211650D01*
X124947550Y-22392750D01*
X125246000Y-22957900D01*
X125258700Y-22970600D01*
X124928500Y-22996000D01*
X124826900Y-22945200D01*
X124471300Y-22697550D01*
X124064900Y-22329250D01*
X123734700Y-21980000D01*
X123379100Y-21548200D01*
X123099700Y-21129100D01*
X122909200Y-20875100D01*
X122655200Y-20417900D01*
X122401200Y-20049600D01*
X122159900Y-19630500D01*
X121880500Y-19071700D01*
X122096400Y-19274900D01*
G36*
X123502925Y-22453075D02*
G01*
X123839475Y-22548325D01*
X124103000Y-22640400D01*
X124801500Y-23046800D01*
X124831980Y-23074740D01*
X124839600Y-23059500D01*
X124839600Y-23072200D01*
X124831980Y-23074740D01*
X124750700Y-23237300D01*
X125144400Y-23377000D01*
X124934850Y-23402400D01*
X124541150Y-23427800D01*
X124064900Y-23427800D01*
X123620400Y-23364300D01*
X123137800Y-23250000D01*
X122744100Y-23135700D01*
X122337700Y-22907100D01*
X122020200Y-22678500D01*
X121613800Y-22551500D01*
X122261500Y-22500700D01*
X122794900Y-22462600D01*
X123258450Y-22456250D01*
X123502925Y-22453075D01*
G37*
X123502925Y-22453075D02*
X123839475Y-22548325D01*
X124103000Y-22640400D01*
X124801500Y-23046800D01*
X124831980Y-23074740D01*
X124839600Y-23059500D01*
X124839600Y-23072200D01*
X124831980Y-23074740D01*
X124750700Y-23237300D01*
X125144400Y-23377000D01*
X124934850Y-23402400D01*
X124541150Y-23427800D01*
X124064900Y-23427800D01*
X123620400Y-23364300D01*
X123137800Y-23250000D01*
X122744100Y-23135700D01*
X122337700Y-22907100D01*
X122020200Y-22678500D01*
X121613800Y-22551500D01*
X122261500Y-22500700D01*
X122794900Y-22462600D01*
X123258450Y-22456250D01*
X123502925Y-22453075D01*
G36*
X125500000Y-23034100D02*
G01*
X125288862Y-23227775D01*
X125507937Y-23323025D01*
X126258825Y-23865950D01*
X126077850Y-23961200D01*
X125500000Y-23504000D01*
X125512700Y-24596200D01*
X125398400Y-24456500D01*
X125392050Y-23567500D01*
X125436500Y-23567500D01*
X125055500Y-23351600D01*
X124769750Y-23199200D01*
X124934850Y-22919800D01*
X125500000Y-23034100D01*
G37*
X125500000Y-23034100D02*
X125288862Y-23227775D01*
X125507937Y-23323025D01*
X126258825Y-23865950D01*
X126077850Y-23961200D01*
X125500000Y-23504000D01*
X125512700Y-24596200D01*
X125398400Y-24456500D01*
X125392050Y-23567500D01*
X125436500Y-23567500D01*
X125055500Y-23351600D01*
X124769750Y-23199200D01*
X124934850Y-22919800D01*
X125500000Y-23034100D01*
D12*
X124979586Y-21346968D02*
X124986414Y-21413404D01*
X121560628Y-22535206D02*
G75*
G02X121562745Y-22530474I8833J-1112D01*
G01*
X121562745Y-22530475D02*
G75*
G02X121567170Y-22527659I6961J-6056D01*
G01*
X121567171Y-22527659D02*
G75*
G02X121576272Y-22525641I21302J-74534D01*
G01*
X121619176Y-22519928D02*
X121576272Y-22525641D01*
X121675382Y-22514579D02*
X121619176Y-22519928D01*
X121749523Y-22509059D02*
X121675382Y-22514579D01*
X121850810Y-22502773D02*
X121749523Y-22509059D01*
X121964250Y-22495535D02*
X121850810Y-22502773D01*
X122055159Y-22488329D02*
X121964250Y-22495535D01*
X122135946Y-22480142D02*
X122055159Y-22488329D01*
X122217522Y-22469967D02*
X122135946Y-22480142D01*
X122295588Y-22460763D02*
X122217522Y-22469967D01*
X122394548Y-22451810D02*
X122295588Y-22460763D01*
X122502731Y-22443949D02*
X122394548Y-22451810D01*
X122610022Y-22438039D02*
X122502731Y-22443949D01*
X122658893Y-22435783D02*
X122610022Y-22438039D01*
X122728084Y-22432592D02*
X122658893Y-22435783D01*
X122803746Y-22429104D02*
X122728084Y-22432592D01*
X122875022Y-22425821D02*
X122803746Y-22429104D01*
X123042892Y-22418843D02*
X122875022Y-22425821D01*
X123217753Y-22413052D02*
X123042892Y-22418843D01*
X123391324Y-22408069D02*
X123217753Y-22413052D01*
X123391324Y-22408069D02*
G75*
G02X123400393Y-22410507I462J-16364D01*
G01*
X123403889Y-22411762D02*
G75*
G02X123400393Y-22410507I1209J8867D01*
G01*
X123419388Y-22413775D02*
X123403889Y-22411762D01*
X123437771Y-22415819D02*
X123419388Y-22413775D01*
X123458715Y-22417713D02*
X123437771Y-22415819D01*
X124970054Y-21237481D02*
X124972649Y-21267124D01*
X126112378Y-23397086D02*
X126157522Y-23400622D01*
X126063537Y-23393388D02*
X126112378Y-23397086D01*
X126018194Y-23390058D02*
X126063537Y-23393388D01*
X125985022Y-23387755D02*
X126018194Y-23390058D01*
X125953615Y-23385486D02*
X125985022Y-23387755D01*
X125914584Y-23382326D02*
X125953615Y-23385486D01*
X125874606Y-23378849D02*
X125914584Y-23382326D01*
X125840022Y-23375579D02*
X125874606Y-23378849D01*
X125778512Y-23370402D02*
X125840022Y-23375579D01*
X125726901Y-23368134D02*
X125778512Y-23370402D01*
X124331364Y-21130665D02*
X124202584Y-20923051D01*
X124460123Y-21360277D02*
X124331364Y-21130665D01*
X125763811Y-23394985D02*
X125725611Y-23387712D01*
X125801820Y-23401668D02*
X125763811Y-23394985D01*
X125827522Y-23405429D02*
X125801820Y-23401668D01*
X125827522Y-23405429D02*
G75*
G02X125915850Y-23421576I-96572J-777952D01*
G01*
X126042223Y-23454860D02*
X125915850Y-23421576D01*
X126181550Y-23497366D02*
X126042223Y-23454860D01*
X126315022Y-23544009D02*
X126181550Y-23497366D01*
X126358649Y-23561046D02*
X126315022Y-23544009D01*
X126404637Y-23580487D02*
X126358649Y-23561046D01*
X126452079Y-23601930D02*
X126404637Y-23580487D01*
X126500085Y-23624987D02*
X126452079Y-23601930D01*
X126500085Y-23624988D02*
G75*
G02X126652408Y-23712179I-639105J-1293158D01*
G01*
X125100081Y-22097260D02*
X125102098Y-22107528D01*
X128120021Y-20765299D02*
G75*
G02X128119743Y-20766562I-3003J0D01*
G01*
X128111209Y-20784952D02*
X128119743Y-20766562D01*
X128101523Y-20805632D02*
X128111209Y-20784952D01*
X128090022Y-20829870D02*
X128101523Y-20805632D01*
X128078521Y-20854146D02*
X128090022Y-20829870D01*
X128068834Y-20874951D02*
X128078521Y-20854146D01*
X128060385Y-20893329D02*
X128068834Y-20874951D01*
X128060021Y-20894995D02*
G75*
G02X128060385Y-20893329I3995J0D01*
G01*
X128060021Y-20894995D02*
G75*
G02X128059292Y-20898297I-7840J0D01*
G01*
X128020677Y-20981421D02*
X128059292Y-20898297D01*
X127977758Y-21073339D02*
X128020677Y-20981421D01*
X127927442Y-21180277D02*
X127977758Y-21073339D01*
X127904537Y-21228174D02*
X127927442Y-21180277D01*
X127876801Y-21284980D02*
X127904537Y-21228174D01*
X127847730Y-21343998D02*
X127876801Y-21284980D01*
X127847731Y-21343997D02*
G75*
G02X127845022Y-21347777I-12801J6311D01*
G01*
X127843589Y-21349614D02*
G75*
G02X127845022Y-21347777I8150J-4881D01*
G01*
X127840177Y-21355418D02*
X127843588Y-21349615D01*
X127836238Y-21362435D02*
X127840177Y-21355418D01*
X127832041Y-21370277D02*
X127836238Y-21362435D01*
X127823008Y-21387116D02*
X127832041Y-21370277D01*
X127812309Y-21406309D02*
X127823008Y-21387116D01*
X127801117Y-21425799D02*
X127812309Y-21406309D01*
X127790563Y-21443576D02*
X127801117Y-21425799D01*
X127786359Y-21450601D02*
X127790563Y-21443576D01*
X127779895Y-21461546D02*
X127786359Y-21450601D01*
X127772630Y-21473921D02*
X127779895Y-21461546D01*
X127765538Y-21486076D02*
X127772630Y-21473921D01*
X127765539Y-21486076D02*
G75*
G02X127676513Y-21624537I-1594117J927112D01*
G01*
X127560765Y-21778716D02*
X127676513Y-21624537D01*
X127429379Y-21935115D02*
X127560765Y-21778716D01*
X127292561Y-22080767D02*
X127429379Y-21935115D01*
X127292561Y-22080767D02*
G75*
G02X127012462Y-22338051I-2992746J2977019D01*
G01*
X126702444Y-22576945D02*
X127012462Y-22338051D01*
X126346530Y-22808868D02*
X126702444Y-22576945D01*
X125927522Y-23045384D02*
X126346530Y-22808868D01*
X125907210Y-23056206D02*
X125927522Y-23045384D01*
X125883256Y-23069049D02*
X125907210Y-23056206D01*
X125859541Y-23081825D02*
X125883256Y-23069049D01*
X125840022Y-23092411D02*
X125859541Y-23081825D01*
X125822766Y-23101769D02*
X125840022Y-23092411D01*
X125806062Y-23110749D02*
X125822766Y-23101769D01*
X125791782Y-23118359D02*
X125806062Y-23110749D01*
X125784097Y-23122337D02*
X125791782Y-23118359D01*
X125767847Y-23132144D02*
G75*
G02X125784097Y-23122337I73169J-102870D01*
G01*
X125751467Y-23145234D02*
G75*
G02X125767847Y-23132145I125077J-139731D01*
G01*
X125738112Y-23158375D02*
G75*
G02X125751467Y-23145234I145858J-134885D01*
G01*
X125735021Y-23166267D02*
G75*
G02X125738111Y-23158375I11624J0D01*
G01*
X125735871Y-23169781D02*
G75*
G02X125735022Y-23166267I6849J3514D01*
G01*
X125738155Y-23171737D02*
G75*
G02X125735870Y-23169780I1247J3768D01*
G01*
X125742397Y-23172198D02*
G75*
G02X125738155Y-23171737I-1044J10127D01*
G01*
X125749641Y-23171103D02*
G75*
G02X125742398Y-23172199I-15184J75919D01*
G01*
X125768149Y-23165366D02*
G75*
G02X125749641Y-23171104I-36945J86448D01*
G01*
X125828992Y-23139023D02*
X125768149Y-23165366D01*
X125896972Y-23108528D02*
X125828992Y-23139023D01*
X125965022Y-23076643D02*
X125896972Y-23108528D01*
X125988044Y-23065656D02*
X125965022Y-23076643D01*
X126013850Y-23053400D02*
X125988044Y-23065656D01*
X126038478Y-23041750D02*
X126013850Y-23053400D01*
X126057522Y-23032798D02*
X126038478Y-23041750D01*
X126077497Y-23023393D02*
X126057522Y-23032798D01*
X126105600Y-23010054D02*
X126077497Y-23023393D01*
X126136247Y-22995444D02*
X126105600Y-23010054D01*
X126165022Y-22981661D02*
X126136247Y-22995444D01*
X126219936Y-22955361D02*
X126165022Y-22981661D01*
X126261702Y-22935535D02*
X126219936Y-22955361D01*
X126296707Y-22919148D02*
X126261702Y-22935535D01*
X126330022Y-22903816D02*
X126296707Y-22919148D01*
X126365354Y-22887574D02*
X126330022Y-22903816D01*
X126431774Y-22856749D02*
X126365354Y-22887574D01*
X126499694Y-22825132D02*
X126431774Y-22856749D01*
X126547522Y-22802733D02*
X126499694Y-22825132D01*
X126694502Y-22734657D02*
X126547522Y-22802733D01*
X126845333Y-22666903D02*
X126694502Y-22734657D01*
X126983653Y-22606658D02*
X126845333Y-22666903D01*
X127090022Y-22562680D02*
X126983653Y-22606658D01*
X127143337Y-22541611D02*
X127090022Y-22562680D01*
X127178135Y-22528359D02*
X127143337Y-22541611D01*
X127207932Y-22517769D02*
X127178135Y-22528359D01*
X127242522Y-22506289D02*
X127207932Y-22517769D01*
X127301620Y-22488467D02*
X127242522Y-22506289D01*
X127363071Y-22472384D02*
X127301620Y-22488467D01*
X127424574Y-22458597D02*
X127363071Y-22472384D01*
X127483822Y-22447669D02*
X127424574Y-22458597D01*
X127525789Y-22441782D02*
X127483822Y-22447669D01*
X127561324Y-22438975D02*
X127525789Y-22441782D01*
X127605896Y-22438261D02*
X127561324Y-22438975D01*
X127686322Y-22439370D02*
X127605896Y-22438261D01*
X127743234Y-22440735D02*
X127686322Y-22439370D01*
X127801607Y-22442737D02*
X127743234Y-22440735D01*
X127853546Y-22445032D02*
X127801607Y-22442737D01*
X127887522Y-22447267D02*
X127853546Y-22445032D01*
X127918287Y-22449702D02*
X127887522Y-22447267D01*
X127957662Y-22452627D02*
X127918287Y-22449702D01*
X127998691Y-22455545D02*
X127957662Y-22452627D01*
X128035022Y-22457990D02*
X127998691Y-22455545D01*
X128072057Y-22460418D02*
X128035022Y-22457990D01*
X128115318Y-22463293D02*
X128072057Y-22460418D01*
X128157867Y-22466150D02*
X128115318Y-22463293D01*
X128192522Y-22468510D02*
X128157867Y-22466150D01*
X128245145Y-22470680D02*
X128192522Y-22468510D01*
X128437897Y-22473130D02*
X128245145Y-22470680D01*
X128666132Y-22475346D02*
X128437897Y-22473130D01*
X128922522Y-22476997D02*
X128666132Y-22475346D01*
X129260194Y-22478974D02*
X128922522Y-22476997D01*
X129446598Y-22480953D02*
X129260194Y-22478974D01*
X129575267Y-22483028D02*
X129446598Y-22480953D01*
X129575267Y-22483028D02*
G75*
G02X129588772Y-22486729I-500J-28318D01*
G01*
X129588772Y-22486728D02*
G75*
G02X129597766Y-22495160I-13045J-22929D01*
G01*
X129597766Y-22495160D02*
G75*
G02X129600023Y-22505412I-12281J-8079D01*
G01*
X129600023Y-22505413D02*
G75*
G02X129594871Y-22515674I-18220J2725D01*
G01*
X129594870Y-22515673D02*
G75*
G02X129583207Y-22523943I-29662J29474D01*
G01*
X129583208Y-22523944D02*
G75*
G02X129565174Y-22531131I-63623J133418D01*
G01*
X129500776Y-22551805D02*
X129565174Y-22531131D01*
X129438093Y-22571392D02*
X129500776Y-22551805D01*
X129402522Y-22581377D02*
X129438093Y-22571392D01*
X129273171Y-22618169D02*
X129402522Y-22581377D01*
X129098786Y-22675203D02*
X129273171Y-22618169D01*
X128919767Y-22738251D02*
X129098786Y-22675203D01*
X128772522Y-22795274D02*
X128919767Y-22738251D01*
X128649199Y-22848078D02*
X128772522Y-22795274D01*
X128503927Y-22914591D02*
X128649199Y-22848078D01*
X128362600Y-22982490D02*
X128503927Y-22914591D01*
X128252522Y-23039199D02*
X128362600Y-22982490D01*
X128118504Y-23110433D02*
X128252522Y-23039199D01*
X128033440Y-23152696D02*
X128118504Y-23110433D01*
X127958987Y-23185131D02*
X128033440Y-23152696D01*
X127867522Y-23220178D02*
X127958987Y-23185131D01*
X127792423Y-23247307D02*
X127867522Y-23220178D01*
X127752851Y-23260723D02*
X127792423Y-23247307D01*
X127713400Y-23272598D02*
X127752851Y-23260723D01*
X127640022Y-23293034D02*
X127713400Y-23272598D01*
X127520804Y-23322545D02*
X127640022Y-23293034D01*
X127383620Y-23350279D02*
X127520804Y-23322545D01*
X127245884Y-23373156D02*
X127383620Y-23350279D01*
X127125022Y-23387838D02*
X127245884Y-23373156D01*
X127101013Y-23390138D02*
X127125022Y-23387838D01*
X127066506Y-23393487D02*
X127101013Y-23390138D01*
X127028547Y-23397195D02*
X127066506Y-23393487D01*
X126992522Y-23400739D02*
X127028547Y-23397195D01*
X126858935Y-23408145D02*
X126992522Y-23400739D01*
X126586190Y-23409806D02*
X126858935Y-23408145D01*
X126313070Y-23407895D02*
X126586190Y-23409806D01*
X126157522Y-23400622D02*
X126313070Y-23407895D01*
X125684700Y-23367876D02*
X125726901Y-23368134D01*
X125680021Y-23372584D02*
G75*
G02X125684700Y-23367876I4709J-1D01*
G01*
X125681145Y-23374719D02*
G75*
G02X125680022Y-23372585I1466J2134D01*
G01*
X125685529Y-23377293D02*
G75*
G02X125681144Y-23374719I15819J31971D01*
G01*
X124610636Y-21638155D02*
X124594341Y-21608062D01*
X124621221Y-21657777D02*
X124610636Y-21638155D01*
X126011249Y-22033226D02*
X125964982Y-22130277D01*
X126096807Y-21862328D02*
X126011249Y-22033226D01*
X126183548Y-21691636D02*
X126096807Y-21862328D01*
X126224269Y-21616527D02*
X126183548Y-21691636D01*
X126238678Y-21591366D02*
X126224269Y-21616527D01*
X126249929Y-21571636D02*
X126238678Y-21591366D01*
X126259609Y-21554555D02*
X126249929Y-21571636D01*
X126269048Y-21537777D02*
X126259609Y-21554555D01*
X126275983Y-21525624D02*
X126269048Y-21537777D01*
X126287590Y-21505731D02*
X126275983Y-21525624D01*
X126300976Y-21482985D02*
X126287590Y-21505731D01*
X126314458Y-21460277D02*
X126300976Y-21482985D01*
X126327575Y-21438268D02*
X126314458Y-21460277D01*
X126339864Y-21417624D02*
X126327575Y-21438268D01*
X126350197Y-21400243D02*
X126339864Y-21417624D01*
X126354889Y-21392307D02*
X126350197Y-21400243D01*
X126399259Y-21320233D02*
X126354889Y-21392307D01*
X126462393Y-21223837D02*
X126399259Y-21320233D01*
X126529939Y-21124271D02*
X126462393Y-21223837D01*
X126589543Y-21040277D02*
X126529939Y-21124271D01*
X126646819Y-20963641D02*
X126589543Y-21040277D01*
X126717177Y-20873061D02*
X126646819Y-20963641D01*
X126784639Y-20788542D02*
X126717177Y-20873061D01*
X126827847Y-20737777D02*
X126784639Y-20788542D01*
X128135064Y-20731889D02*
X128144416Y-20711958D01*
X128127187Y-20748945D02*
X128135064Y-20731889D01*
X128120294Y-20764044D02*
X128127187Y-20748945D01*
X128120022Y-20765299D02*
G75*
G02X128120294Y-20764044I3026J0D01*
G01*
X124575985Y-21574222D02*
X124558037Y-21541194D01*
X124594341Y-21608062D02*
X124575985Y-21574222D01*
X127412904Y-24632618D02*
G75*
G02X127412962Y-24640934I-10582J-4233D01*
G01*
X127412961Y-24640934D02*
G75*
G02X127410571Y-24643771I-5287J2029D01*
G01*
X127410571Y-24643771D02*
G75*
G02X127405675Y-24645933I-11328J19028D01*
G01*
X127405675Y-24645934D02*
G75*
G02X127398837Y-24647326I-10822J35655D01*
G01*
X127398838Y-24647325D02*
G75*
G02X127390414Y-24647777I-8424J78322D01*
G01*
X125893609Y-22291378D02*
X125885721Y-22310277D01*
X125920843Y-22229384D02*
X125893609Y-22291378D01*
X125947720Y-22168594D02*
X125920843Y-22229384D01*
X125964982Y-22130277D02*
X125947720Y-22168594D01*
X127390414Y-24647778D02*
G75*
G02X127375921Y-24646825I0J110737D01*
G01*
X127375921Y-24646825D02*
G75*
G02X127363016Y-24643965I9971J75534D01*
G01*
X127363016Y-24643965D02*
G75*
G02X127346281Y-24637761I53575J170197D01*
G01*
X127315022Y-24624046D02*
X127346281Y-24637761D01*
X127251838Y-24597762D02*
X127315022Y-24624046D01*
X127185736Y-24574319D02*
X127251838Y-24597762D01*
X127114120Y-24552862D02*
X127185736Y-24574319D01*
X127034294Y-24532548D02*
X127114120Y-24552862D01*
X126897606Y-24499292D02*
X127034294Y-24532548D01*
X124630128Y-21674323D02*
X124621221Y-21657777D01*
X124640235Y-21693074D02*
X124630128Y-21674323D01*
X125753305Y-22636243D02*
X125744490Y-22656661D01*
X125763179Y-22612378D02*
X125753305Y-22636243D01*
X125774497Y-22584151D02*
X125763179Y-22612378D01*
X125787768Y-22550277D02*
X125774497Y-22584151D01*
X125793655Y-22535324D02*
X125787768Y-22550277D01*
X125800109Y-22519333D02*
X125793655Y-22535324D01*
X125806173Y-22504627D02*
X125800109Y-22519333D01*
X126652408Y-23712178D02*
G75*
G02X126790509Y-23815987I-743206J-1132487D01*
G01*
X126790509Y-23815987D02*
G75*
G02X126908604Y-23931641I-808447J-943632D01*
G01*
X126908604Y-23931641D02*
G75*
G02X127001099Y-24054225I-691614J-618042D01*
G01*
X127093113Y-24197827D02*
X127001099Y-24054225D01*
X127158325Y-24294131D02*
X127093113Y-24197827D01*
X127219278Y-24376381D02*
X127158325Y-24294131D01*
X127294380Y-24470045D02*
X127219278Y-24376381D01*
X127337947Y-24522822D02*
X127294380Y-24470045D01*
X127351771Y-24539809D02*
X127337947Y-24522822D01*
X127362079Y-24553035D02*
X127351771Y-24539809D01*
X125134498Y-19020277D02*
X125120636Y-19070269D01*
X125810691Y-22494082D02*
X125806173Y-22504627D01*
X125814264Y-22485606D02*
X125810691Y-22494082D01*
X125817281Y-22477667D02*
X125814264Y-22485606D01*
X125819553Y-22470959D02*
X125817281Y-22477667D01*
X125820021Y-22467966D02*
G75*
G02X125819553Y-22470959I-9805J0D01*
G01*
X125820021Y-22467965D02*
G75*
G02X125820501Y-22464968I9600J-1D01*
G01*
X125822848Y-22458209D02*
X125820501Y-22464968D01*
X125825958Y-22450210D02*
X125822848Y-22458209D01*
X125829642Y-22441661D02*
X125825958Y-22450210D01*
X125843866Y-22409784D02*
X125829642Y-22441661D01*
X125852969Y-22388632D02*
X125843866Y-22409784D01*
X125859166Y-22373491D02*
X125852969Y-22388632D01*
X125860007Y-22369082D02*
G75*
G02X125859166Y-22373491I-11749J-43D01*
G01*
X125860007Y-22369082D02*
G75*
G02X125860459Y-22366632I6738J25D01*
G01*
X125863194Y-22359786D02*
X125860459Y-22366632D01*
X125866707Y-22351673D02*
X125863194Y-22359786D01*
X125870874Y-22342777D02*
X125866707Y-22351673D01*
X125875330Y-22333430D02*
X125870874Y-22342777D01*
X125879723Y-22323949D02*
X125875330Y-22333430D01*
X125883495Y-22315577D02*
X125879723Y-22323949D01*
X125885721Y-22310277D02*
X125883495Y-22315577D01*
X127377281Y-24573316D02*
X127362079Y-24553035D01*
X127393683Y-24596689D02*
X127377281Y-24573316D01*
X127393683Y-24596690D02*
G75*
G02X127405528Y-24616666I-194982J-129113D01*
G01*
X127405528Y-24616666D02*
G75*
G02X127412903Y-24632618I-148143J-78170D01*
G01*
X126837272Y-20727192D02*
X126827847Y-20737777D01*
X126857031Y-20704856D02*
X126837272Y-20727192D01*
X126880430Y-20678361D02*
X126857031Y-20704856D01*
X126905193Y-20650277D02*
X126880430Y-20678361D01*
X127013704Y-20533304D02*
X126905193Y-20650277D01*
X127146053Y-20402079D02*
X127013704Y-20533304D01*
X127277297Y-20280085D02*
X127146053Y-20402079D01*
X127380250Y-20194220D02*
X127277297Y-20280085D01*
X127467428Y-20128727D02*
X127380250Y-20194220D01*
X127546415Y-20073278D02*
X127467428Y-20128727D01*
X127648457Y-20006351D02*
X127546415Y-20073278D01*
X127827522Y-19892769D02*
X127648457Y-20006351D01*
X127889629Y-19853344D02*
X127827522Y-19892769D01*
X127956365Y-19810469D02*
X127889629Y-19853344D01*
X128017965Y-19770471D02*
X127956365Y-19810469D01*
X128062522Y-19740991D02*
X128017965Y-19770471D01*
X128197222Y-19649298D02*
X128062522Y-19740991D01*
X128320866Y-19562251D02*
X128197222Y-19649298D01*
X128468690Y-19454774D02*
X128320866Y-19562251D01*
X128690022Y-19290957D02*
X128468690Y-19454774D01*
X128733928Y-19258350D02*
X128690022Y-19290957D01*
X128776959Y-19226446D02*
X128733928Y-19258350D01*
X128814011Y-19199020D02*
X128776959Y-19226446D01*
X128835022Y-19183543D02*
X128814011Y-19199020D01*
X128851209Y-19171646D02*
X128835022Y-19183543D01*
X128868850Y-19158643D02*
X128851209Y-19171646D01*
X128885320Y-19146471D02*
X128868850Y-19158643D01*
X128897522Y-19137414D02*
X128885320Y-19146471D01*
X128937477Y-19109270D02*
X128897522Y-19137414D01*
X128992952Y-19073208D02*
X128937477Y-19109270D01*
X129049438Y-19037759D02*
X128992952Y-19073208D01*
X129049438Y-19037760D02*
G75*
G02X129064761Y-19031269I28471J-45884D01*
G01*
X129064761Y-19031268D02*
G75*
G02X129077504Y-19029947I10974J-43717D01*
G01*
X129077504Y-19029947D02*
G75*
G02X129084070Y-19034069I-305J-7776D01*
G01*
X129084070Y-19034070D02*
G75*
G02X129084527Y-19042656I-8997J-4784D01*
G01*
X129084527Y-19042655D02*
G75*
G02X129077667Y-19055539I-63438J25510D01*
G01*
X129065329Y-19072507D02*
X129077667Y-19055539D01*
X129045976Y-19096851D02*
X129065329Y-19072507D01*
X129026429Y-19120518D02*
X129045976Y-19096851D01*
X129026429Y-19120517D02*
G75*
G02X129016963Y-19130277I-72727J61071D01*
G01*
X128999895Y-19148072D02*
G75*
G02X129016963Y-19130277I123500J-101373D01*
G01*
X128945948Y-19214257D02*
X128999895Y-19148072D01*
X128891922Y-19281904D02*
X128945948Y-19214257D01*
X128851038Y-19335277D02*
X128891922Y-19281904D01*
X128774034Y-19443698D02*
X128851038Y-19335277D01*
X128713980Y-19539678D02*
X128774034Y-19443698D01*
X128648409Y-19660452D02*
X128713980Y-19539678D01*
X128545463Y-19865277D02*
X128648409Y-19660452D01*
X128512314Y-19932396D02*
X128545463Y-19865277D01*
X128482337Y-19993418D02*
X128512314Y-19932396D01*
X128457300Y-20044652D02*
X128482337Y-19993418D01*
X128448740Y-20062777D02*
X128457300Y-20044652D01*
X128433870Y-20094997D02*
X128448740Y-20062777D01*
X128398656Y-20170485D02*
X128433870Y-20094997D01*
X128363434Y-20245815D02*
X128398656Y-20170485D01*
X128342505Y-20290277D02*
X128363434Y-20245815D01*
X128336270Y-20303483D02*
X128342505Y-20290277D01*
X128326572Y-20324090D02*
X128336270Y-20303483D01*
X128315623Y-20347387D02*
X128326572Y-20324090D01*
X128304881Y-20370277D02*
X128315623Y-20347387D01*
X128252656Y-20481614D02*
X128304881Y-20370277D01*
X128205466Y-20582138D02*
X128252656Y-20481614D01*
X128166565Y-20664935D02*
X128205466Y-20582138D01*
X128144416Y-20711958D02*
X128166565Y-20664935D01*
X124956089Y-20020173D02*
X124950432Y-20097777D01*
X124991414Y-19684273D02*
X124989359Y-19701746D01*
X124999812Y-21525277D02*
X125002112Y-21541881D01*
X122720022Y-23154199D02*
X122785345Y-23181444D01*
X122672193Y-23132386D02*
X122720022Y-23154199D01*
X122596008Y-23095116D02*
X122672193Y-23132386D01*
X122513874Y-23054229D02*
X122596008Y-23095116D01*
X123458715Y-22417712D02*
G75*
G02X123537077Y-22427867I-68767J-838110D01*
G01*
X123634167Y-22447547D02*
X123537077Y-22427867D01*
X123738541Y-22473880D02*
X123634167Y-22447547D01*
X123840022Y-22504629D02*
X123738541Y-22473880D01*
X123911345Y-22528648D02*
X123840022Y-22504629D01*
X123962918Y-22547344D02*
X123911345Y-22528648D01*
X124014767Y-22568060D02*
X123962918Y-22547344D01*
X124087522Y-22598978D02*
X124014767Y-22568060D01*
X124136095Y-22621297D02*
X124087522Y-22598978D01*
X124222054Y-22663707D02*
X124136095Y-22621297D01*
X124307800Y-22707003D02*
X124222054Y-22663707D01*
X124357522Y-22733724D02*
X124307800Y-22707003D01*
X124374485Y-22743290D02*
X124357522Y-22733724D01*
X124392381Y-22753359D02*
X124374485Y-22743290D01*
X124408665Y-22762503D02*
X124392381Y-22753359D01*
X124420022Y-22768855D02*
X124408665Y-22762503D01*
X124467579Y-22796350D02*
X124420022Y-22768855D01*
X124529264Y-22833880D02*
X124467579Y-22796350D01*
X124594127Y-22874579D02*
X124529264Y-22833880D01*
X124652522Y-22912529D02*
X124594127Y-22874579D01*
X124769621Y-22989782D02*
X124652522Y-22912529D01*
X124784217Y-22992895D02*
G75*
G02X124769621Y-22989782I-3296J20324D01*
G01*
X124785880Y-22986626D02*
G75*
G02X124784217Y-22992894I-2231J-2763D01*
G01*
X124686635Y-22906997D02*
X124785879Y-22986626D01*
X124576355Y-22818615D02*
X124686635Y-22906997D01*
X124455655Y-22721064D02*
X124576355Y-22818615D01*
X124346190Y-22632022D02*
X124455655Y-22721064D01*
X124297522Y-22591366D02*
X124346190Y-22632022D01*
X124060218Y-22378564D02*
X124297522Y-22591366D01*
X123831976Y-22153889D02*
X124060218Y-22378564D01*
X123626302Y-21931368D02*
X123831976Y-22153889D01*
X123457522Y-21725413D02*
X123626302Y-21931368D01*
X123447035Y-21711730D02*
X123457522Y-21725413D01*
X123430933Y-21690881D02*
X123447035Y-21711730D01*
X123412804Y-21667489D02*
X123430933Y-21690881D01*
X123395094Y-21644720D02*
X123412804Y-21667489D01*
X123350771Y-21586679D02*
X123395094Y-21644720D01*
X123298022Y-21515362D02*
X123350771Y-21586679D01*
X123243294Y-21439659D02*
X123298022Y-21515362D01*
X123192611Y-21367777D02*
X123243294Y-21439659D01*
X123115794Y-21255183D02*
X123192611Y-21367777D01*
X123003314Y-21086047D02*
X123115794Y-21255183D01*
X122892960Y-20918079D02*
X123003314Y-21086047D01*
X122827810Y-20815811D02*
X122892960Y-20918079D01*
X122812852Y-20791839D02*
X122827810Y-20815811D01*
X122793501Y-20761028D02*
X122812852Y-20791839D01*
X122773210Y-20728853D02*
X122793501Y-20761028D01*
X122755098Y-20700277D02*
X122773210Y-20728853D01*
X122732466Y-20664465D02*
X122755098Y-20700277D01*
X122694344Y-20603699D02*
X122732466Y-20664465D01*
X122650478Y-20533586D02*
X122694344Y-20603699D01*
X122606299Y-20462777D02*
X122650478Y-20533586D01*
X122563762Y-20394522D02*
X122606299Y-20462777D01*
X122524866Y-20332137D02*
X122563762Y-20394522D01*
X122492249Y-20279846D02*
X122524866Y-20332137D01*
X122480010Y-20260277D02*
X122492249Y-20279846D01*
X122437630Y-20191590D02*
X122480010Y-20260277D01*
X122367790Y-20076106D02*
X122437630Y-20191590D01*
X122297729Y-19959490D02*
X122367790Y-20076106D01*
X122272165Y-19915277D02*
X122297729Y-19959490D01*
X122269328Y-19910248D02*
X122272165Y-19915277D01*
X122265217Y-19903074D02*
X122269328Y-19910248D01*
X122260674Y-19895211D02*
X122265217Y-19903074D01*
X122256342Y-19887777D02*
X122260674Y-19895211D01*
X122227044Y-19837083D02*
X122256342Y-19887777D01*
X122168968Y-19735057D02*
X122227044Y-19837083D01*
X122110346Y-19631702D02*
X122168968Y-19735057D01*
X122088754Y-19592777D02*
X122110346Y-19631702D01*
X122079351Y-19575536D02*
X122088754Y-19592777D01*
X122067835Y-19554543D02*
X122079351Y-19575536D01*
X122056140Y-19533314D02*
X122067835Y-19554543D01*
X122046150Y-19515277D02*
X122056140Y-19533314D01*
X122017394Y-19460797D02*
X122046150Y-19515277D01*
X121962647Y-19350518D02*
X122017394Y-19460797D01*
X121902078Y-19227345D02*
X121962647Y-19350518D01*
X121902079Y-19227345D02*
G75*
G02X121900022Y-19218491I18028J8854D01*
G01*
X121899530Y-19215636D02*
G75*
G02X121900022Y-19218491I-8045J-2855D01*
G01*
X121897209Y-19209477D02*
X121899530Y-19215636D01*
X121894113Y-19202210D02*
X121897209Y-19209477D01*
X121890446Y-19194500D02*
X121894113Y-19202210D01*
X121890446Y-19194500D02*
G75*
G02X121875567Y-19160779I353949J176315D01*
G01*
X121862376Y-19122674D02*
X121875567Y-19160779D01*
X121852797Y-19087022D02*
X121862376Y-19122674D01*
X121852798Y-19087021D02*
G75*
G02X121850022Y-19062709I105091J24312D01*
G01*
X121850022Y-19062709D02*
G75*
G02X121852313Y-19051889I26694J0D01*
G01*
X121852313Y-19051889D02*
G75*
G02X121858734Y-19043767I19006J-8428D01*
G01*
X121858734Y-19043767D02*
G75*
G02X121868045Y-19039963I11741J-15439D01*
G01*
X121868045Y-19039963D02*
G75*
G02X121878409Y-19041121I2783J-22042D01*
G01*
X124799378Y-22999505D02*
G75*
G02X124807816Y-23005118I-42084J-72409D01*
G01*
X124793690Y-22998010D02*
G75*
G02X124799378Y-22999505I137J-11046D01*
G01*
X124792163Y-23000169D02*
G75*
G02X124793690Y-22998010I1547J525D01*
G01*
X124795021Y-23005277D02*
G75*
G02X124792163Y-23000169I12406J10295D01*
G01*
X124798004Y-23008135D02*
G75*
G02X124795022Y-23005277I10995J14458D01*
G01*
X124801808Y-23010528D02*
G75*
G02X124798004Y-23008136I11528J22553D01*
G01*
X124805813Y-23012133D02*
G75*
G02X124801808Y-23010528I6762J22671D01*
G01*
X124809384Y-23012619D02*
G75*
G02X124805813Y-23012133I-229J11691D01*
G01*
X124813439Y-23012263D02*
G75*
G02X124809384Y-23012618I-4642J29680D01*
G01*
X124814221Y-23011131D02*
G75*
G02X124813438Y-23012263I-929J-194D01*
G01*
X124813100Y-23009282D02*
G75*
G02X124814221Y-23011131I-2062J-2515D01*
G01*
X124807816Y-23005118D02*
X124813100Y-23009282D01*
X125582574Y-16819496D02*
G75*
G02X125591771Y-16810571I24520J-16067D01*
G01*
X125591771Y-16810571D02*
G75*
G02X125602879Y-16807745I10107J-16484D01*
G01*
X125602879Y-16807745D02*
G75*
G02X125613607Y-16811707I-996J-19203D01*
G01*
X125613606Y-16811707D02*
G75*
G02X125621759Y-16821527I-17650J-22947D01*
G01*
X125621760Y-16821527D02*
G75*
G02X125633695Y-16854885I-124673J-63421D01*
G01*
X125649153Y-16930779D02*
X125633695Y-16854885D01*
X125666249Y-17030893D02*
X125649153Y-16930779D01*
X125684771Y-17157777D02*
X125666249Y-17030893D01*
X125689195Y-17189649D02*
X125684771Y-17157777D01*
X125693664Y-17221324D02*
X125689195Y-17189649D01*
X125697609Y-17248853D02*
X125693664Y-17221324D01*
X125700058Y-17265277D02*
X125697609Y-17248853D01*
X125702198Y-17279274D02*
X125700058Y-17265277D01*
X125704846Y-17296746D02*
X125702198Y-17279274D01*
X125707550Y-17314693D02*
X125704846Y-17296746D01*
X125709879Y-17330277D02*
X125707550Y-17314693D01*
X125750474Y-17595675D02*
X125709879Y-17330277D01*
X125782146Y-17783530D02*
X125750474Y-17595675D01*
X125812899Y-17941341D02*
X125782146Y-17783530D01*
X125849454Y-18105379D02*
X125812899Y-17941341D01*
X125874492Y-18208731D02*
X125849454Y-18105379D01*
X125906786Y-18336990D02*
X125874492Y-18208731D01*
X125938947Y-18462230D02*
X125906786Y-18336990D01*
X125949546Y-18497777D02*
X125938947Y-18462230D01*
X125951577Y-18504390D02*
X125949546Y-18497777D01*
X125954324Y-18514684D02*
X125951577Y-18504390D01*
X125957226Y-18526332D02*
X125954324Y-18514684D01*
X125959866Y-18537777D02*
X125957226Y-18526332D01*
X125962509Y-18549406D02*
X125959866Y-18537777D01*
X125965418Y-18561606D02*
X125962509Y-18549406D01*
X125968167Y-18572654D02*
X125965418Y-18561606D01*
X125970219Y-18580277D02*
X125968167Y-18572654D01*
X125991211Y-18661306D02*
X125970219Y-18580277D01*
X126020319Y-18789530D02*
X125991211Y-18661306D01*
X126047583Y-18917148D02*
X126020319Y-18789530D01*
X126060471Y-18990277D02*
X126047583Y-18917148D01*
X126062659Y-19004272D02*
X126060471Y-18990277D01*
X126065675Y-19021746D02*
X126062659Y-19004272D01*
X126068972Y-19039692D02*
X126065675Y-19021746D01*
X126072053Y-19055277D02*
X126068972Y-19039692D01*
X126083969Y-19121401D02*
X126072053Y-19055277D01*
X126098521Y-19220705D02*
X126083969Y-19121401D01*
X126113047Y-19332002D02*
X126098521Y-19220705D01*
X126125375Y-19440277D02*
X126113047Y-19332002D01*
X126133692Y-19527355D02*
X126125375Y-19440277D01*
X126141238Y-19623355D02*
X126133692Y-19527355D01*
X126149412Y-19746795D02*
X126141238Y-19623355D01*
X126159993Y-19925277D02*
X126149412Y-19746795D01*
X126164428Y-20061801D02*
X126159993Y-19925277D01*
X126163207Y-20223699D02*
X126164428Y-20061801D01*
D13*
X126156205Y-20430188D02*
X126163207Y-20223699D01*
X126142243Y-20710277D02*
X126156205Y-20430188D01*
D12*
X126138309Y-20763260D02*
X126142243Y-20710277D01*
X126129073Y-20857488D02*
X126138309Y-20763260D01*
X126118702Y-20954897D02*
X126129073Y-20857488D01*
X126109856Y-21027777D02*
X126118702Y-20954897D01*
X126107613Y-21045020D02*
X126109856Y-21027777D01*
X126104937Y-21066012D02*
X126107613Y-21045020D01*
X126102271Y-21087241D02*
X126104937Y-21066012D01*
X126100050Y-21105277D02*
X126102271Y-21087241D01*
X126097806Y-21122962D02*
X126100050Y-21105277D01*
X126095075Y-21143074D02*
X126097806Y-21122962D01*
X126092299Y-21162476D02*
X126095075Y-21143074D01*
X126089942Y-21177777D02*
X126092299Y-21162476D01*
X126087622Y-21192744D02*
X126089942Y-21177777D01*
X126084972Y-21211012D02*
X126087622Y-21192744D01*
X126082418Y-21229518D02*
X126084972Y-21211012D01*
X126080389Y-21245277D02*
X126082418Y-21229518D01*
X126061335Y-21367675D02*
X126080389Y-21245277D01*
X126021650Y-21569623D02*
X126061335Y-21367675D01*
X125978766Y-21771371D02*
X126021650Y-21569623D01*
X125947485Y-21895277D02*
X125978766Y-21771371D01*
X125944512Y-21905948D02*
X125947485Y-21895277D01*
X125941467Y-21917340D02*
X125944512Y-21905948D01*
X125938776Y-21927807D02*
X125941467Y-21917340D01*
X125936995Y-21935277D02*
X125938776Y-21927807D01*
X125927390Y-21973770D02*
X125936995Y-21935277D01*
X125897648Y-22081388D02*
X125927390Y-21973770D01*
X125867938Y-22187284D02*
X125897648Y-22081388D01*
X125850778Y-22245277D02*
X125867938Y-22187284D01*
X125846460Y-22259274D02*
X125850778Y-22245277D01*
X125841080Y-22276746D02*
X125846460Y-22259274D01*
X125835561Y-22294693D02*
X125841080Y-22276746D01*
X125830776Y-22310277D02*
X125835561Y-22294693D01*
X125813681Y-22364093D02*
X125830776Y-22310277D01*
X125782504Y-22458295D02*
X125813681Y-22364093D01*
X125749871Y-22555470D02*
X125782504Y-22458295D01*
X125724966Y-22627777D02*
X125749871Y-22555470D01*
X125714918Y-22656638D02*
X125724966Y-22627777D01*
X125705745Y-22683387D02*
X125714918Y-22656638D01*
X125698156Y-22705862D02*
X125705745Y-22683387D01*
X125695217Y-22715277D02*
X125698156Y-22705862D01*
X125692515Y-22724002D02*
X125695217Y-22715277D01*
X125686887Y-22740861D02*
X125692515Y-22724002D01*
X125680133Y-22760670D02*
X125686887Y-22740861D01*
X125672951Y-22781307D02*
X125680133Y-22760670D01*
X125655426Y-22834707D02*
X125672951Y-22781307D01*
X125655298Y-22854677D02*
G75*
G02X125655426Y-22834707I33535J9771D01*
G01*
X125662456Y-22855327D02*
G75*
G02X125655299Y-22854677I-3451J1730D01*
G01*
X125682120Y-22812777D02*
X125662455Y-22855327D01*
X125688098Y-22798783D02*
X125682120Y-22812777D01*
X125694664Y-22783598D02*
X125688098Y-22798783D01*
X125700839Y-22769472D02*
X125694664Y-22783598D01*
X125705464Y-22759082D02*
X125700839Y-22769472D01*
X125709124Y-22750664D02*
X125705464Y-22759082D01*
X125712214Y-22742904D02*
X125709124Y-22750664D01*
X125714584Y-22736362D02*
X125712214Y-22742904D01*
X125715021Y-22733771D02*
G75*
G02X125714584Y-22736362I-7897J0D01*
G01*
X125715021Y-22733771D02*
G75*
G02X125715482Y-22731197I7424J0D01*
G01*
X125717959Y-22724785D02*
X125715482Y-22731197D01*
X125721191Y-22717186D02*
X125717959Y-22724785D01*
X125725022Y-22708958D02*
X125721191Y-22717186D01*
X125728851Y-22700659D02*
X125725022Y-22708958D01*
X125732084Y-22692840D02*
X125728851Y-22700659D01*
X125734508Y-22686216D02*
X125732084Y-22692840D01*
X125735021Y-22683153D02*
G75*
G02X125734508Y-22686216I-9398J0D01*
G01*
X125735022Y-22683153D02*
G75*
G02X125735503Y-22680064I10154J0D01*
G01*
X125737803Y-22673264D02*
X125735503Y-22680064D01*
X125740864Y-22665223D02*
X125737803Y-22673264D01*
X125744490Y-22656661D02*
X125740864Y-22665223D01*
X124514682Y-21458855D02*
X124510103Y-21450347D01*
X124514682Y-21458855D02*
G75*
G02X124515022Y-21460212I-2538J-1357D01*
G01*
X124504695Y-21440555D02*
X124498277Y-21429295D01*
X124510103Y-21450347D02*
X124504695Y-21440555D01*
X122513874Y-23054228D02*
G75*
G02X122505022Y-23047537I13556J27135D01*
G01*
X122503092Y-23045897D02*
G75*
G02X122505022Y-23047537I-5453J-8377D01*
G01*
X122495912Y-23041285D02*
X122503091Y-23045898D01*
X122487281Y-23035930D02*
X122495912Y-23041285D01*
X122477522Y-23030101D02*
X122487281Y-23035930D01*
X122467356Y-23024103D02*
X122477522Y-23030101D01*
X122457487Y-23018234D02*
X122467356Y-23024103D01*
X122449047Y-23013177D02*
X122457487Y-23018234D01*
X122444424Y-23010341D02*
X122449047Y-23013177D01*
X122440259Y-23007797D02*
X122444424Y-23010341D01*
X122434094Y-23004150D02*
X122440259Y-23007797D01*
X122427233Y-23000155D02*
X122434094Y-23004150D01*
X122420629Y-22996375D02*
X122427233Y-23000155D01*
X122420629Y-22996375D02*
G75*
G02X122410474Y-22989975I63669J112281D01*
G01*
X122382016Y-22970005D02*
X122410474Y-22989975D01*
X122348261Y-22945940D02*
X122382016Y-22970005D01*
X122311226Y-22919103D02*
X122348261Y-22945940D01*
X122133114Y-22796773D02*
X122311226Y-22919103D01*
X121986099Y-22713678D02*
G75*
G02X122133114Y-22796773I-631554J-1288984D01*
G01*
X121826951Y-22646610D02*
G75*
G02X121986098Y-22713679I-510715J-1434241D01*
G01*
X121608826Y-22574954D02*
X121826951Y-22646611D01*
X121576926Y-22565042D02*
X121608826Y-22574954D01*
X121576927Y-22565042D02*
G75*
G02X121566329Y-22560106I14167J44263D01*
G01*
X121566329Y-22560106D02*
G75*
G02X121561681Y-22554159I5938J9430D01*
G01*
X121561681Y-22554159D02*
G75*
G02X121560076Y-22544254I30438J10015D01*
G01*
X121560076Y-22544254D02*
G75*
G02X121560628Y-22535206I70514J241D01*
G01*
X126785632Y-24469595D02*
X126897606Y-24499292D01*
X126698054Y-24443690D02*
X126785632Y-24469595D01*
X126698055Y-24443690D02*
G75*
G02X126642522Y-24423101I169046J541143D01*
G01*
X126637486Y-24421027D02*
X126642522Y-24423101D01*
X126630318Y-24418265D02*
X126637486Y-24421027D01*
X126622455Y-24415344D02*
X126630318Y-24418265D01*
X126615022Y-24412696D02*
X126622455Y-24415344D01*
X126607177Y-24409863D02*
X126615022Y-24412696D01*
X126598034Y-24406363D02*
X126607177Y-24409863D01*
X126589059Y-24402778D02*
X126598034Y-24406363D01*
X126581766Y-24399691D02*
X126589059Y-24402778D01*
X126575511Y-24397043D02*
X126581766Y-24399691D01*
X126569752Y-24394808D02*
X126575511Y-24397043D01*
X126564899Y-24393092D02*
X126569752Y-24394808D01*
X126562993Y-24392777D02*
G75*
G02X126564899Y-24393092I0J-5933D01*
G01*
X126562993Y-24392778D02*
G75*
G02X126559189Y-24392029I0J10037D01*
G01*
X126464667Y-24353305D02*
X126559189Y-24392029D01*
X126381032Y-24318860D02*
X126464667Y-24353305D01*
X126335022Y-24299343D02*
X126381032Y-24318860D01*
X126284226Y-24276283D02*
X126335022Y-24299343D01*
X126214035Y-24242512D02*
X126284226Y-24276283D01*
X126146005Y-24208811D02*
X126214035Y-24242512D01*
X126110022Y-24189386D02*
X126146005Y-24208811D01*
X126084250Y-24174488D02*
X126110022Y-24189386D01*
X126065712Y-24163819D02*
X126084250Y-24174488D01*
X126052040Y-24156010D02*
X126065712Y-24163819D01*
X126042522Y-24150665D02*
X126052040Y-24156010D01*
X126002423Y-24126144D02*
X126042522Y-24150665D01*
X125952352Y-24091071D02*
X126002423Y-24126144D01*
X125899465Y-24050893D02*
X125952352Y-24091071D01*
X125850022Y-24010105D02*
X125899465Y-24050893D01*
X125850022Y-24010106D02*
G75*
G02X125770238Y-23933873I695822J808099D01*
G01*
X125770238Y-23933873D02*
G75*
G02X125698595Y-23849661I781638J737557D01*
G01*
X125698596Y-23849661D02*
G75*
G02X125635002Y-23757259I878955J673003D01*
G01*
X125635001Y-23757258D02*
G75*
G02X125579292Y-23656527I1044989J643704D01*
G01*
X125566672Y-23632136D02*
X125579292Y-23656527D01*
X125558836Y-23621479D02*
G75*
G02X125566672Y-23632136I-34612J-33661D01*
G01*
X125552757Y-23619559D02*
G75*
G02X125558835Y-23621478I1254J-6611D01*
G01*
X125547112Y-23623439D02*
G75*
G02X125552758Y-23619558I7228J-4468D01*
G01*
X125545653Y-23628424D02*
G75*
G02X125547112Y-23623440I9773J-154D01*
G01*
X125543420Y-23771549D02*
X125545654Y-23628424D01*
X125541301Y-23931187D02*
X125543420Y-23771549D01*
X125539456Y-24119690D02*
X125541301Y-23931187D01*
X125537665Y-24308576D02*
X125539456Y-24119690D01*
X125535717Y-24469472D02*
X125537665Y-24308576D01*
X125533721Y-24612425D02*
X125535717Y-24469472D01*
X125533721Y-24612424D02*
G75*
G02X125532565Y-24621527I-41009J581D01*
G01*
X125532565Y-24621527D02*
G75*
G02X125531012Y-24625830I-20606J5007D01*
G01*
X125531011Y-24625830D02*
G75*
G02X125528627Y-24629473I-15676J7660D01*
G01*
X125528628Y-24629473D02*
G75*
G02X125525815Y-24631944I-9855J8380D01*
G01*
X125525814Y-24631943D02*
G75*
G02X125522998Y-24632777I-2816J4339D01*
G01*
X125522998Y-24632778D02*
G75*
G02X125518527Y-24631046I0J6637D01*
G01*
X125495478Y-24609837D02*
X125518527Y-24631046D01*
X125469013Y-24584616D02*
X125495478Y-24609837D01*
X125438906Y-24554683D02*
X125469013Y-24584616D01*
X125361648Y-24476588D02*
X125438906Y-24554683D01*
X125358335Y-24176359D02*
X125361648Y-24476588D01*
X125357066Y-24051023D02*
X125358335Y-24176359D01*
X125355995Y-23922704D02*
X125357066Y-24051023D01*
X125355237Y-23808674D02*
X125355995Y-23922704D01*
X125355022Y-23734454D02*
X125355237Y-23808674D01*
X125354720Y-23673849D02*
X125355022Y-23734454D01*
X125353728Y-23629717D02*
X125354720Y-23673849D01*
X125352369Y-23594990D02*
X125353728Y-23629717D01*
X125350060Y-23592777D02*
G75*
G02X125352369Y-23594990I-1J-2312D01*
G01*
X125347054Y-23594088D02*
G75*
G02X125350059Y-23592777I3005J-2787D01*
G01*
X125336630Y-23605560D02*
X125347055Y-23594089D01*
X125324618Y-23619615D02*
X125336630Y-23605560D01*
X125311309Y-23636292D02*
X125324618Y-23619615D01*
X125219679Y-23746929D02*
X125311309Y-23636292D01*
X125121336Y-23851497D02*
X125219679Y-23746929D01*
X125022618Y-23943723D02*
X125121336Y-23851497D01*
X125022618Y-23943723D02*
G75*
G02X124930022Y-24016907I-785138J898227D01*
G01*
X124793872Y-24107727D02*
X124930022Y-24016907D01*
X124660543Y-24184003D02*
X124793872Y-24107727D01*
X124520115Y-24250989D02*
X124660543Y-24184003D01*
X124362522Y-24313854D02*
X124520115Y-24250989D01*
X124306592Y-24333017D02*
X124362522Y-24313854D01*
X124214001Y-24362067D02*
X124306592Y-24333017D01*
X124120530Y-24390489D02*
X124214001Y-24362067D01*
X124120531Y-24390489D02*
G75*
G02X124085022Y-24399348I-111894J372905D01*
G01*
X124075788Y-24401427D02*
X124085022Y-24399348D01*
X124026256Y-24413853D02*
X124075788Y-24401427D01*
X123968574Y-24428414D02*
X124026256Y-24413853D01*
X123902522Y-24445214D02*
X123968574Y-24428414D01*
X123835223Y-24462309D02*
X123902522Y-24445214D01*
X123773647Y-24477802D02*
X123835223Y-24462309D01*
X123722000Y-24490673D02*
X123773647Y-24477802D01*
X123702522Y-24495258D02*
X123722000Y-24490673D01*
X123689392Y-24498201D02*
X123702522Y-24495258D01*
X123674725Y-24501527D02*
X123689392Y-24498201D01*
X123660765Y-24504724D02*
X123674725Y-24501527D01*
X123650022Y-24507222D02*
X123660765Y-24504724D01*
X123626495Y-24512411D02*
X123650022Y-24507222D01*
X123569890Y-24524006D02*
X123626495Y-24512411D01*
X123506655Y-24536751D02*
X123569890Y-24524006D01*
X123446570Y-24548613D02*
X123506655Y-24536751D01*
X123430754Y-24551291D02*
X123446570Y-24548613D01*
X123430754Y-24551291D02*
G75*
G02X123419488Y-24552124I-11660J81132D01*
G01*
X123419487Y-24552124D02*
G75*
G02X123410662Y-24551315I-221J46104D01*
G01*
X123410662Y-24551315D02*
G75*
G02X123402820Y-24548823I6419J33790D01*
G01*
X123402820Y-24548822D02*
G75*
G02X123393799Y-24535506I6402J14050D01*
G01*
X123393799Y-24535506D02*
G75*
G02X123399252Y-24516313I31269J1487D01*
G01*
X123399252Y-24516313D02*
G75*
G02X123427331Y-24481110I257590J-176662D01*
G01*
X123509998Y-24392550D02*
X123427331Y-24481110D01*
X123547172Y-24353045D02*
X123509998Y-24392550D01*
X123586499Y-24311019D02*
X123547172Y-24353045D01*
X123622351Y-24272510D02*
X123586499Y-24311019D01*
X123647522Y-24245213D02*
X123622351Y-24272510D01*
X123690178Y-24199392D02*
X123647522Y-24245213D01*
X123726361Y-24162256D02*
X123690178Y-24199392D01*
X123763224Y-24126564D02*
X123726361Y-24162256D01*
X123807926Y-24085277D02*
X123763224Y-24126564D01*
X123827115Y-24067823D02*
X123807926Y-24085277D01*
X123843687Y-24052653D02*
X123827115Y-24067823D01*
X123858008Y-24039477D02*
X123843687Y-24052653D01*
X123860021Y-24037406D02*
G75*
G02X123858008Y-24039477I-19819J17259D01*
G01*
X123860021Y-24037407D02*
G75*
G02X123862103Y-24035349I14795J-12883D01*
G01*
X123880147Y-24020015D02*
X123862103Y-24035349D01*
X123900885Y-24002487D02*
X123880147Y-24020015D01*
X123925022Y-23982231D02*
X123900885Y-24002487D01*
X124030470Y-23897248D02*
X123925022Y-23982231D01*
X124130076Y-23823754D02*
X124030470Y-23897248D01*
X124230113Y-23757287D02*
X124130076Y-23823754D01*
X124336795Y-23693515D02*
X124230113Y-23757287D01*
X124370714Y-23675268D02*
X124336795Y-23693515D01*
X124426262Y-23647389D02*
X124370714Y-23675268D01*
X124482493Y-23619994D02*
X124426262Y-23647389D01*
X124520022Y-23602890D02*
X124482493Y-23619994D01*
X124559757Y-23585775D02*
X124520022Y-23602890D01*
X124579737Y-23577382D02*
X124559757Y-23585775D01*
X124595779Y-23571025D02*
X124579737Y-23577382D01*
X124616272Y-23563347D02*
X124595779Y-23571025D01*
X124629186Y-23558599D02*
X124616272Y-23563347D01*
X124644287Y-23553046D02*
X124629186Y-23558599D01*
X124659151Y-23547580D02*
X124644287Y-23553046D01*
X124671272Y-23543122D02*
X124659151Y-23547580D01*
X124706104Y-23531114D02*
X124671272Y-23543122D01*
X124763274Y-23513030D02*
X124706104Y-23531114D01*
X124820340Y-23495577D02*
X124763274Y-23513030D01*
X124847522Y-23488372D02*
X124820340Y-23495577D01*
X124903341Y-23474277D02*
X124847522Y-23488372D01*
X124968904Y-23455292D02*
X124903341Y-23474277D01*
X125030034Y-23436296D02*
X124968904Y-23455292D01*
X125029691Y-23433050D02*
G75*
G02X125030034Y-23436296I-161J-1658D01*
G01*
X125027681Y-23433099D02*
G75*
G02X125029690Y-23433051I1204J-8298D01*
G01*
X125019709Y-23434287D02*
X125027681Y-23433099D01*
X125010305Y-23435799D02*
X125019709Y-23434287D01*
X124999690Y-23437644D02*
X125010305Y-23435799D01*
X124974754Y-23441359D02*
X124999690Y-23437644D01*
X124930359Y-23446376D02*
X124974754Y-23441359D01*
X124865074Y-23453070D02*
X124930359Y-23446376D01*
X124763645Y-23462894D02*
X124865074Y-23453070D01*
X124735352Y-23465035D02*
X124763645Y-23462894D01*
X124681795Y-23467839D02*
X124735352Y-23465035D01*
X124618915Y-23470681D02*
X124681795Y-23467839D01*
X124553645Y-23473169D02*
X124618915Y-23470681D01*
X124408340Y-23476041D02*
X124553645Y-23473169D01*
X124281748Y-23473781D02*
X124408340Y-23476041D01*
X124136661Y-23465269D02*
X124281748Y-23473781D01*
X123925022Y-23447707D02*
X124136661Y-23465269D01*
X123864771Y-23441119D02*
X123925022Y-23447707D01*
X123781738Y-23429690D02*
X123864771Y-23441119D01*
X123684250Y-23414788D02*
X123781738Y-23429690D01*
X123577522Y-23397109D02*
X123684250Y-23414788D01*
X123471857Y-23377377D02*
X123577522Y-23397109D01*
X123354034Y-23352215D02*
X123471857Y-23377377D01*
X123237305Y-23324654D02*
X123354034Y-23352215D01*
X123135022Y-23297637D02*
X123237305Y-23324654D01*
X123119381Y-23293300D02*
X123135022Y-23297637D01*
X123103397Y-23288981D02*
X123119381Y-23293300D01*
X123089207Y-23285245D02*
X123103397Y-23288981D01*
X123080022Y-23282966D02*
X123089207Y-23285245D01*
X123071722Y-23280851D02*
X123080022Y-23282966D01*
X123061053Y-23277839D02*
X123071722Y-23280851D01*
X123049914Y-23274499D02*
X123061053Y-23277839D01*
X123040022Y-23271321D02*
X123049914Y-23274499D01*
X123028663Y-23267567D02*
X123040022Y-23271321D01*
X123012381Y-23262256D02*
X123028663Y-23267567D01*
X122994485Y-23256458D02*
X123012381Y-23262256D01*
X122977522Y-23251004D02*
X122994485Y-23256458D01*
X122913400Y-23229584D02*
X122977522Y-23251004D01*
X122849573Y-23206485D02*
X122913400Y-23229584D01*
X122785345Y-23181444D02*
X122849573Y-23206485D01*
X125691588Y-23379800D02*
G75*
G02X125685529Y-23377293I15601J46284D01*
G01*
X125698772Y-23381862D02*
G75*
G02X125691589Y-23379800I19033J79840D01*
G01*
X125725611Y-23387712D02*
X125698772Y-23381862D01*
X121878409Y-19041121D02*
G75*
G02X121893800Y-19049519I-19851J-54684D01*
G01*
X121933573Y-19080444D02*
X121893800Y-19049519D01*
X121980950Y-19119163D02*
X121933573Y-19080444D01*
X122033636Y-19164359D02*
X121980950Y-19119163D01*
X122198174Y-19302127D02*
X122033636Y-19164359D01*
X122343791Y-19410502D02*
X122198174Y-19302127D01*
X122512714Y-19519733D02*
X122343791Y-19410502D01*
X122757522Y-19664069D02*
X122512714Y-19519733D01*
X125071306Y-19256615D02*
X125047577Y-19365220D01*
X124994593Y-19656118D02*
X124992916Y-19670277D01*
X124786280Y-21970659D02*
X124746362Y-21892777D01*
X124900735Y-22199065D02*
X124786280Y-21970659D01*
X125093793Y-19172863D02*
X125090420Y-19185871D01*
X125109796Y-22140277D02*
X125112223Y-22149554D01*
X123480696Y-20146196D02*
X123449731Y-20121569D01*
X123534121Y-20190261D02*
X123480696Y-20146196D01*
X125155296Y-18949293D02*
X125140717Y-18998596D01*
X124541545Y-21510738D02*
X124527657Y-21484784D01*
X124558037Y-21541194D02*
X124541545Y-21510738D01*
X125107389Y-22130966D02*
X125109796Y-22140277D01*
X125030667Y-22462450D02*
G75*
G02X125030022Y-22459625I5867J2825D01*
G01*
X125070128Y-22544375D02*
X125030666Y-22462451D01*
X124993686Y-21478002D02*
X124999812Y-21525277D01*
X125090420Y-19185871D02*
X125087276Y-19197511D01*
X125110559Y-19107297D02*
X125102925Y-19136256D01*
X125122102Y-22193678D02*
X125125424Y-22208215D01*
X125119792Y-22182777D02*
X125122102Y-22193678D01*
X125117434Y-22642202D02*
X125070128Y-22544375D01*
X125180900Y-22772769D02*
X125117434Y-22642202D01*
X125494836Y-17345277D02*
X125483743Y-17438355D01*
X123890510Y-20519449D02*
X123807249Y-20434817D01*
X123957941Y-20593323D02*
X123890510Y-20519449D01*
X124515378Y-21461643D02*
G75*
G02X124515022Y-21460212I2699J1431D01*
G01*
X124527657Y-21484784D02*
X124515377Y-21461643D01*
X124957431Y-21084943D02*
X124960146Y-21124262D01*
X124936197Y-20540776D02*
X124941200Y-20760800D01*
X122812323Y-19695700D02*
X122757522Y-19664069D01*
X122865350Y-19726582D02*
X122812323Y-19695700D01*
X122910594Y-19753170D02*
X122865350Y-19726582D01*
X124962884Y-21160118D02*
X124965155Y-21185277D01*
X125564571Y-16863376D02*
G75*
G02X125582574Y-16819496I122645J-24684D01*
G01*
X125483743Y-17438355D02*
X125466692Y-17568323D01*
X125466692Y-17568323D02*
X125448247Y-17702128D01*
X125448247Y-17702128D02*
X125432296Y-17810277D01*
X125094799Y-22071609D02*
X125097913Y-22086189D01*
X125172754Y-18890648D02*
X125155296Y-18949293D01*
X125165004Y-22366641D02*
X125188021Y-22455658D01*
X125152687Y-22317777D02*
X125165004Y-22366641D01*
X124939221Y-20335430D02*
X124936197Y-20540776D01*
X124997211Y-19638074D02*
X124994593Y-19656118D01*
X125096912Y-19160277D02*
X125093793Y-19172863D01*
X123591890Y-20238546D02*
X123534121Y-20190261D01*
X123642522Y-20281589D02*
X123591890Y-20238546D01*
X125140717Y-18998596D02*
X125134498Y-19020277D01*
X125046332Y-21832567D02*
X125069739Y-21958706D01*
X124972649Y-21267124D02*
X124974772Y-21292777D01*
X125102098Y-22107528D02*
X125104678Y-22119391D01*
X125120636Y-19070269D02*
X125110559Y-19107297D01*
X125112223Y-22149554D02*
X125114997Y-22161012D01*
X125274298Y-18540004D02*
X125191595Y-18827777D01*
X125024401Y-21703232D02*
X125046332Y-21832567D01*
X124986414Y-21413404D02*
X124993686Y-21478002D01*
X122935022Y-19767924D02*
X122910594Y-19753170D01*
X122952943Y-19778971D02*
X122935022Y-19767924D01*
X122971647Y-19790441D02*
X122952943Y-19778971D01*
X122988524Y-19800743D02*
X122971647Y-19790441D01*
X123000022Y-19807694D02*
X122988524Y-19800743D01*
X125097913Y-22086189D02*
X125100081Y-22097260D01*
X124955160Y-21047777D02*
X124957431Y-21084943D01*
X125391058Y-18046192D02*
X125339522Y-18284580D01*
X125102925Y-19136256D02*
X125096912Y-19160277D01*
X125432296Y-17810277D02*
X125391058Y-18046192D01*
X125114997Y-22161012D02*
X125117668Y-22172709D01*
X124965155Y-21185277D02*
X124967410Y-21208549D01*
X125010387Y-21605277D02*
X125024401Y-21703232D01*
X125147592Y-22297213D02*
X125152687Y-22317777D01*
X125141964Y-22274684D02*
X125147592Y-22297213D01*
X123338770Y-20038408D02*
X123212111Y-19948124D01*
X123449731Y-20121569D02*
X123338770Y-20038408D01*
X124966010Y-19910768D02*
X124956089Y-20020173D01*
X125085002Y-19205277D02*
X125071306Y-19256615D01*
X124490348Y-21415352D02*
X124480163Y-21397052D01*
X124498277Y-21429295D02*
X124490348Y-21415352D01*
X124675179Y-21757925D02*
X124657627Y-21725277D01*
X124696050Y-21797166D02*
X124675179Y-21757925D01*
X125293771Y-22953775D02*
G75*
G02X125278450Y-22954191I-7814J5438D01*
G01*
X125301642Y-22927617D02*
G75*
G02X125293772Y-22953776I-43965J-1036D01*
G01*
X125091336Y-22056189D02*
X125094799Y-22071609D01*
X125004965Y-21563215D02*
X125007876Y-21585494D01*
X125000258Y-19619324D02*
X124997211Y-19638074D01*
X124992916Y-19670277D02*
X124991414Y-19684273D01*
X124974772Y-21292777D02*
X124979586Y-21346968D01*
X124719842Y-21842235D02*
X124696050Y-21797166D01*
X124746362Y-21892777D02*
X124719842Y-21842235D01*
X124976782Y-19803128D02*
X124966010Y-19910768D01*
X125339522Y-18284580D02*
X125274298Y-18540004D01*
X125047577Y-19365220D02*
X125025096Y-19474104D01*
X125029044Y-22455488D02*
X124900735Y-22199065D01*
X125029045Y-22455488D02*
G75*
G02X125030022Y-22459625I-8269J-4137D01*
G01*
X123090998Y-19865371D02*
X123000022Y-19807694D01*
X123212111Y-19948124D02*
X123090998Y-19865371D01*
X124076981Y-20742044D02*
X123957941Y-20593323D01*
X124202584Y-20923051D02*
X124076981Y-20742044D01*
X125025096Y-19474104D02*
X125014785Y-19535277D01*
X125191595Y-18827777D02*
X125172754Y-18890648D01*
X124967410Y-21208549D02*
X124970054Y-21237481D01*
X125003300Y-19602777D02*
X125000258Y-19619324D01*
X125012686Y-19549437D02*
X125009713Y-19567481D01*
X124985041Y-19735277D02*
X124976782Y-19803128D01*
X125262789Y-22740486D02*
X125284316Y-22828882D01*
X125229915Y-22615277D02*
X125262789Y-22740486D01*
X125129114Y-22223688D02*
X125132635Y-22237777D01*
X125125424Y-22208215D02*
X125129114Y-22223688D01*
X125088031Y-22042260D02*
X125091336Y-22056189D01*
X125006422Y-19586231D02*
X125003300Y-19602777D01*
X125542634Y-16982589D02*
X125519274Y-17140793D01*
X124989359Y-19701746D02*
X124987122Y-19719693D01*
X125104678Y-22119391D02*
X125107389Y-22130966D01*
X125069739Y-21958706D02*
X125088031Y-22042260D01*
X124950432Y-20097777D02*
X124939221Y-20335430D01*
X125564571Y-16863377D02*
X125542634Y-16982589D01*
X125014785Y-19535277D02*
X125012686Y-19549437D01*
X125211965Y-22547481D02*
X125229915Y-22615277D01*
X125188021Y-22455658D02*
X125211965Y-22547481D01*
X125007876Y-21585494D02*
X125010387Y-21605277D01*
X125136652Y-22253561D02*
X125141964Y-22274684D01*
X125132635Y-22237777D02*
X125136652Y-22253561D01*
X124960146Y-21124262D02*
X124962884Y-21160118D01*
X125297789Y-22892241D02*
G75*
G02X125301641Y-22927617I-205937J-40320D01*
G01*
X125284316Y-22828882D02*
X125297790Y-22892241D01*
X124649971Y-21711116D02*
X124640235Y-21693074D01*
X124657627Y-21725277D02*
X124649971Y-21711116D01*
X125117668Y-22172709D02*
X125119792Y-22182777D01*
X125009713Y-19567481D02*
X125006422Y-19586231D01*
X123720584Y-20351527D02*
X123642522Y-20281589D01*
X123807249Y-20434817D02*
X123720584Y-20351527D01*
X125002112Y-21541881D02*
X125004965Y-21563215D01*
X124987122Y-19719693D02*
X124985041Y-19735277D01*
X125087276Y-19197511D02*
X125085002Y-19205277D01*
X125519274Y-17140793D02*
X125494836Y-17345277D01*
X124469544Y-21377713D02*
X124460123Y-21360277D01*
X124480163Y-21397052D02*
X124469544Y-21377713D01*
X125245824Y-22902971D02*
X125180900Y-22772769D01*
X125278449Y-22954191D02*
G75*
G02X125245824Y-22902971I252153J196613D01*
G01*
X124941200Y-20760800D02*
X124955160Y-21047777D01*
D11*
G36*
X143854975Y-1958585D02*
G01*
X144154528Y-2018170D01*
X144718874Y-2251930D01*
X145226772Y-2591296D01*
X145658704Y-3023228D01*
X145998070Y-3531126D01*
X146231830Y-4095472D01*
X146351000Y-4694578D01*
X146351000Y-5305422D01*
X146231830Y-5904528D01*
X145998070Y-6468874D01*
X145658704Y-6976772D01*
X145226772Y-7408704D01*
X144718874Y-7748070D01*
X144154528Y-7981830D01*
X143854975Y-8041415D01*
X143555423Y-8101000D01*
X142944577Y-8101000D01*
X142645025Y-8041415D01*
X142345472Y-7981830D01*
X141781126Y-7748070D01*
X141273228Y-7408704D01*
X140841296Y-6976772D01*
X140501930Y-6468874D01*
X140268170Y-5904528D01*
X140149000Y-5305422D01*
X140149000Y-4694578D01*
X140268170Y-4095472D01*
X140501930Y-3531126D01*
X140841296Y-3023228D01*
X141273228Y-2591296D01*
X141781126Y-2251930D01*
X142345472Y-2018170D01*
X142645025Y-1958585D01*
X142944577Y-1899000D01*
X143555423Y-1899000D01*
X143854975Y-1958585D01*
G37*
G36*
X131854975Y-1958585D02*
G01*
X132154528Y-2018170D01*
X132718874Y-2251930D01*
X133226772Y-2591296D01*
X133658704Y-3023228D01*
X133998070Y-3531126D01*
X134231830Y-4095472D01*
X134351000Y-4694578D01*
X134351000Y-5305422D01*
X134231830Y-5904528D01*
X133998070Y-6468874D01*
X133658704Y-6976772D01*
X133226772Y-7408704D01*
X132718874Y-7748070D01*
X132154528Y-7981830D01*
X131854975Y-8041415D01*
X131555423Y-8101000D01*
X130944577Y-8101000D01*
X130645025Y-8041415D01*
X130345472Y-7981830D01*
X129781126Y-7748070D01*
X129273228Y-7408704D01*
X128841296Y-6976772D01*
X128501930Y-6468874D01*
X128268170Y-5904528D01*
X128149000Y-5305422D01*
X128149000Y-4694578D01*
X128268170Y-4095472D01*
X128501930Y-3531126D01*
X128841296Y-3023228D01*
X129273228Y-2591296D01*
X129781126Y-2251930D01*
X130345472Y-2018170D01*
X130645025Y-1958585D01*
X130944577Y-1899000D01*
X131555423Y-1899000D01*
X131854975Y-1958585D01*
G37*
G36*
X119854975Y-1958585D02*
G01*
X120154528Y-2018170D01*
X120718874Y-2251930D01*
X121226772Y-2591296D01*
X121658704Y-3023228D01*
X121998070Y-3531126D01*
X122231830Y-4095472D01*
X122351000Y-4694578D01*
X122351000Y-5305422D01*
X122231830Y-5904528D01*
X121998070Y-6468874D01*
X121658704Y-6976772D01*
X121226772Y-7408704D01*
X120718874Y-7748070D01*
X120154528Y-7981830D01*
X119854975Y-8041415D01*
X119555423Y-8101000D01*
X118944577Y-8101000D01*
X118645025Y-8041415D01*
X118345472Y-7981830D01*
X117781126Y-7748070D01*
X117273228Y-7408704D01*
X116841296Y-6976772D01*
X116501930Y-6468874D01*
X116268170Y-5904528D01*
X116149000Y-5305422D01*
X116149000Y-4694578D01*
X116268170Y-4095472D01*
X116501930Y-3531126D01*
X116841296Y-3023228D01*
X117273228Y-2591296D01*
X117781126Y-2251930D01*
X118345472Y-2018170D01*
X118645025Y-1958585D01*
X118944577Y-1899000D01*
X119555423Y-1899000D01*
X119854975Y-1958585D01*
G37*
G36*
X107854975Y-1958585D02*
G01*
X108154528Y-2018170D01*
X108718874Y-2251930D01*
X109226772Y-2591296D01*
X109658704Y-3023228D01*
X109998070Y-3531126D01*
X110231830Y-4095472D01*
X110351000Y-4694578D01*
X110351000Y-5305422D01*
X110231830Y-5904528D01*
X109998070Y-6468874D01*
X109658704Y-6976772D01*
X109226772Y-7408704D01*
X108718874Y-7748070D01*
X108154528Y-7981830D01*
X107854975Y-8041415D01*
X107555423Y-8101000D01*
X106944577Y-8101000D01*
X106645025Y-8041415D01*
X106345472Y-7981830D01*
X105781126Y-7748070D01*
X105273228Y-7408704D01*
X104841296Y-6976772D01*
X104501930Y-6468874D01*
X104268170Y-5904528D01*
X104149000Y-5305422D01*
X104149000Y-4694578D01*
X104268170Y-4095472D01*
X104501930Y-3531126D01*
X104841296Y-3023228D01*
X105273228Y-2591296D01*
X105781126Y-2251930D01*
X106345472Y-2018170D01*
X106645025Y-1958585D01*
X106944577Y-1899000D01*
X107555423Y-1899000D01*
X107854975Y-1958585D01*
G37*
G36*
X143854975Y14041415D02*
G01*
X144154528Y13981830D01*
X144718874Y13748070D01*
X145226772Y13408704D01*
X145658704Y12976772D01*
X145998070Y12468874D01*
X146231830Y11904528D01*
X146351000Y11305422D01*
X146351000Y10694578D01*
X146231830Y10095472D01*
X145998070Y9531126D01*
X145658704Y9023228D01*
X145226772Y8591296D01*
X144718874Y8251930D01*
X144154528Y8018170D01*
X143854975Y7958585D01*
X143555423Y7899000D01*
X142944577Y7899000D01*
X142645025Y7958585D01*
X142345472Y8018170D01*
X141781126Y8251930D01*
X141273228Y8591296D01*
X140841296Y9023228D01*
X140501930Y9531126D01*
X140268170Y10095472D01*
X140149000Y10694578D01*
X140149000Y11305422D01*
X140268170Y11904528D01*
X140501930Y12468874D01*
X140841296Y12976772D01*
X141273228Y13408704D01*
X141781126Y13748070D01*
X142345472Y13981830D01*
X142645025Y14041415D01*
X142944577Y14101000D01*
X143555423Y14101000D01*
X143854975Y14041415D01*
G37*
G36*
X131854975Y14041415D02*
G01*
X132154528Y13981830D01*
X132718874Y13748070D01*
X133226772Y13408704D01*
X133658704Y12976772D01*
X133998070Y12468874D01*
X134231830Y11904528D01*
X134351000Y11305422D01*
X134351000Y10694578D01*
X134231830Y10095472D01*
X133998070Y9531126D01*
X133658704Y9023228D01*
X133226772Y8591296D01*
X132718874Y8251930D01*
X132154528Y8018170D01*
X131854975Y7958585D01*
X131555423Y7899000D01*
X130944577Y7899000D01*
X130645025Y7958585D01*
X130345472Y8018170D01*
X129781126Y8251930D01*
X129273228Y8591296D01*
X128841296Y9023228D01*
X128501930Y9531126D01*
X128268170Y10095472D01*
X128149000Y10694578D01*
X128149000Y11305422D01*
X128268170Y11904528D01*
X128501930Y12468874D01*
X128841296Y12976772D01*
X129273228Y13408704D01*
X129781126Y13748070D01*
X130345472Y13981830D01*
X130645025Y14041415D01*
X130944577Y14101000D01*
X131555423Y14101000D01*
X131854975Y14041415D01*
G37*
G36*
X119854975Y14041415D02*
G01*
X120154528Y13981830D01*
X120718874Y13748070D01*
X121226772Y13408704D01*
X121658704Y12976772D01*
X121998070Y12468874D01*
X122231830Y11904528D01*
X122351000Y11305422D01*
X122351000Y10694578D01*
X122231830Y10095472D01*
X121998070Y9531126D01*
X121658704Y9023228D01*
X121226772Y8591296D01*
X120718874Y8251930D01*
X120154528Y8018170D01*
X119854975Y7958585D01*
X119555423Y7899000D01*
X118944577Y7899000D01*
X118645025Y7958585D01*
X118345472Y8018170D01*
X117781126Y8251930D01*
X117273228Y8591296D01*
X116841296Y9023228D01*
X116501930Y9531126D01*
X116268170Y10095472D01*
X116149000Y10694578D01*
X116149000Y11305422D01*
X116268170Y11904528D01*
X116501930Y12468874D01*
X116841296Y12976772D01*
X117273228Y13408704D01*
X117781126Y13748070D01*
X118345472Y13981830D01*
X118645025Y14041415D01*
X118944577Y14101000D01*
X119555423Y14101000D01*
X119854975Y14041415D01*
G37*
G36*
X107854975Y14041415D02*
G01*
X108154528Y13981830D01*
X108718874Y13748070D01*
X109226772Y13408704D01*
X109658704Y12976772D01*
X109998070Y12468874D01*
X110231830Y11904528D01*
X110351000Y11305422D01*
X110351000Y10694578D01*
X110231830Y10095472D01*
X109998070Y9531126D01*
X109658704Y9023228D01*
X109226772Y8591296D01*
X108718874Y8251930D01*
X108154528Y8018170D01*
X107854975Y7958585D01*
X107555423Y7899000D01*
X106944577Y7899000D01*
X106645025Y7958585D01*
X106345472Y8018170D01*
X105781126Y8251930D01*
X105273228Y8591296D01*
X104841296Y9023228D01*
X104501930Y9531126D01*
X104268170Y10095472D01*
X104149000Y10694578D01*
X104149000Y11305422D01*
X104268170Y11904528D01*
X104501930Y12468874D01*
X104841296Y12976772D01*
X105273228Y13408704D01*
X105781126Y13748070D01*
X106345472Y13981830D01*
X106645025Y14041415D01*
X106944577Y14101000D01*
X107555423Y14101000D01*
X107854975Y14041415D01*
G37*
M02*
