G04 #@! TF.GenerationSoftware,KiCad,Pcbnew,(5.1.5-0)*
G04 #@! TF.CreationDate,2021-01-08T11:50:31-08:00*
G04 #@! TF.ProjectId,duallpg,6475616c-6c70-4672-9e6b-696361645f70,rev?*
G04 #@! TF.SameCoordinates,Original*
G04 #@! TF.FileFunction,Profile,NP*
%FSLAX46Y46*%
G04 Gerber Fmt 4.6, Leading zero omitted, Abs format (unit mm)*
G04 Created by KiCad (PCBNEW (5.1.5-0)) date 2021-01-08 11:50:31*
%MOMM*%
%LPD*%
G04 APERTURE LIST*
%ADD10C,0.050000*%
G04 APERTURE END LIST*
D10*
X143500000Y98500000D02*
G75*
G02X143500000Y95300000I0J-1600000D01*
G01*
X141500000Y95300000D02*
G75*
G02X141500000Y98500000I0J1600000D01*
G01*
X143500000Y95300000D02*
X141500000Y95300000D01*
X143500000Y98500000D02*
X141500000Y98500000D01*
X141500000Y-27100000D02*
G75*
G02X141500000Y-23900000I0J1600000D01*
G01*
X143500000Y-23900000D02*
X141500000Y-23900000D01*
X143500000Y-23900000D02*
G75*
G02X143500000Y-27100000I0J-1600000D01*
G01*
X143500000Y-27100000D02*
X141500000Y-27100000D01*
X108500000Y-23900000D02*
G75*
G02X108500000Y-27100000I0J-1600000D01*
G01*
X106500000Y-27100000D02*
G75*
G02X106500000Y-23900000I0J1600000D01*
G01*
X108500000Y-23900000D02*
X106500000Y-23900000D01*
X108500000Y-27100000D02*
X106500000Y-27100000D01*
X108500000Y95300000D02*
X106500000Y95300000D01*
X108500000Y98500000D02*
X106500000Y98500000D01*
X108500000Y98500000D02*
G75*
G02X108500000Y95300000I0J-1600000D01*
G01*
X106500000Y95300000D02*
G75*
G02X106500000Y98500000I0J1600000D01*
G01*
X113500000Y75000000D02*
G75*
G03X113500000Y75000000I-3750000J0D01*
G01*
X129250000Y75000000D02*
G75*
G03X129250000Y75000000I-3750000J0D01*
G01*
X145250000Y75000000D02*
G75*
G03X145250000Y75000000I-3750000J0D01*
G01*
X145250000Y53000000D02*
G75*
G03X145250000Y53000000I-3750000J0D01*
G01*
X129250000Y53000000D02*
G75*
G03X129250000Y53000000I-3750000J0D01*
G01*
X113500000Y53000000D02*
G75*
G03X113500000Y53000000I-3750000J0D01*
G01*
X100000000Y-28500000D02*
X100000000Y100000000D01*
X150400000Y-28500000D02*
X100000000Y-28500000D01*
X150400000Y100000000D02*
X150400000Y-28500000D01*
X100000000Y100000000D02*
X150400000Y100000000D01*
M02*
