G04 #@! TF.GenerationSoftware,KiCad,Pcbnew,(5.1.5-0)*
G04 #@! TF.CreationDate,2021-01-08T11:31:28-08:00*
G04 #@! TF.ProjectId,trackydacks,74726163-6b79-4646-9163-6b732e6b6963,rev?*
G04 #@! TF.SameCoordinates,Original*
G04 #@! TF.FileFunction,Legend,Top*
G04 #@! TF.FilePolarity,Positive*
%FSLAX46Y46*%
G04 Gerber Fmt 4.6, Leading zero omitted, Abs format (unit mm)*
G04 Created by KiCad (PCBNEW (5.1.5-0)) date 2021-01-08 11:31:28*
%MOMM*%
%LPD*%
G04 APERTURE LIST*
%ADD10C,0.400000*%
%ADD11C,0.300000*%
G04 APERTURE END LIST*
D10*
X112321428Y98842857D02*
X114035714Y98842857D01*
X113178571Y95842857D02*
X113178571Y98842857D01*
X116750000Y95842857D02*
X115750000Y97271428D01*
X115035714Y95842857D02*
X115035714Y98842857D01*
X116178571Y98842857D01*
X116464285Y98700000D01*
X116607142Y98557142D01*
X116750000Y98271428D01*
X116750000Y97842857D01*
X116607142Y97557142D01*
X116464285Y97414285D01*
X116178571Y97271428D01*
X115035714Y97271428D01*
X117892857Y96700000D02*
X119321428Y96700000D01*
X117607142Y95842857D02*
X118607142Y98842857D01*
X119607142Y95842857D01*
X122321428Y96128571D02*
X122178571Y95985714D01*
X121750000Y95842857D01*
X121464285Y95842857D01*
X121035714Y95985714D01*
X120750000Y96271428D01*
X120607142Y96557142D01*
X120464285Y97128571D01*
X120464285Y97557142D01*
X120607142Y98128571D01*
X120750000Y98414285D01*
X121035714Y98700000D01*
X121464285Y98842857D01*
X121750000Y98842857D01*
X122178571Y98700000D01*
X122321428Y98557142D01*
X123607142Y95842857D02*
X123607142Y98842857D01*
X125321428Y95842857D02*
X124035714Y97557142D01*
X125321428Y98842857D02*
X123607142Y97128571D01*
X127178571Y97271428D02*
X127178571Y95842857D01*
X126178571Y98842857D02*
X127178571Y97271428D01*
X128178571Y98842857D01*
X113750000Y90942857D02*
X113750000Y93942857D01*
X114464285Y93942857D01*
X114892857Y93800000D01*
X115178571Y93514285D01*
X115321428Y93228571D01*
X115464285Y92657142D01*
X115464285Y92228571D01*
X115321428Y91657142D01*
X115178571Y91371428D01*
X114892857Y91085714D01*
X114464285Y90942857D01*
X113750000Y90942857D01*
X116607142Y91800000D02*
X118035714Y91800000D01*
X116321428Y90942857D02*
X117321428Y93942857D01*
X118321428Y90942857D01*
X121035714Y91228571D02*
X120892857Y91085714D01*
X120464285Y90942857D01*
X120178571Y90942857D01*
X119750000Y91085714D01*
X119464285Y91371428D01*
X119321428Y91657142D01*
X119178571Y92228571D01*
X119178571Y92657142D01*
X119321428Y93228571D01*
X119464285Y93514285D01*
X119750000Y93800000D01*
X120178571Y93942857D01*
X120464285Y93942857D01*
X120892857Y93800000D01*
X121035714Y93657142D01*
X122321428Y90942857D02*
X122321428Y93942857D01*
X124035714Y90942857D02*
X122750000Y92657142D01*
X124035714Y93942857D02*
X122321428Y92228571D01*
X125178571Y91085714D02*
X125607142Y90942857D01*
X126321428Y90942857D01*
X126607142Y91085714D01*
X126750000Y91228571D01*
X126892857Y91514285D01*
X126892857Y91800000D01*
X126750000Y92085714D01*
X126607142Y92228571D01*
X126321428Y92371428D01*
X125750000Y92514285D01*
X125464285Y92657142D01*
X125321428Y92800000D01*
X125178571Y93085714D01*
X125178571Y93371428D01*
X125321428Y93657142D01*
X125464285Y93800000D01*
X125750000Y93942857D01*
X126464285Y93942857D01*
X126892857Y93800000D01*
D11*
X126488095Y83095238D02*
X126488095Y85095238D01*
X126964285Y85095238D01*
X127250000Y85000000D01*
X127440476Y84809523D01*
X127535714Y84619047D01*
X127630952Y84238095D01*
X127630952Y83952380D01*
X127535714Y83571428D01*
X127440476Y83380952D01*
X127250000Y83190476D01*
X126964285Y83095238D01*
X126488095Y83095238D01*
X128869047Y85095238D02*
X129250000Y85095238D01*
X129440476Y85000000D01*
X129630952Y84809523D01*
X129726190Y84428571D01*
X129726190Y83761904D01*
X129630952Y83380952D01*
X129440476Y83190476D01*
X129250000Y83095238D01*
X128869047Y83095238D01*
X128678571Y83190476D01*
X128488095Y83380952D01*
X128392857Y83761904D01*
X128392857Y84428571D01*
X128488095Y84809523D01*
X128678571Y85000000D01*
X128869047Y85095238D01*
X130392857Y85095238D02*
X130869047Y83095238D01*
X131250000Y84523809D01*
X131630952Y83095238D01*
X132107142Y85095238D01*
X132869047Y83095238D02*
X132869047Y85095238D01*
X134011904Y83095238D01*
X134011904Y85095238D01*
X108178571Y84845238D02*
X108178571Y83226190D01*
X108273809Y83035714D01*
X108369047Y82940476D01*
X108559523Y82845238D01*
X108940476Y82845238D01*
X109130952Y82940476D01*
X109226190Y83035714D01*
X109321428Y83226190D01*
X109321428Y84845238D01*
X110273809Y82845238D02*
X110273809Y84845238D01*
X111035714Y84845238D01*
X111226190Y84750000D01*
X111321428Y84654761D01*
X111416666Y84464285D01*
X111416666Y84178571D01*
X111321428Y83988095D01*
X111226190Y83892857D01*
X111035714Y83797619D01*
X110273809Y83797619D01*
X106702380Y63285714D02*
X106607142Y63190476D01*
X106321428Y63095238D01*
X106130952Y63095238D01*
X105845238Y63190476D01*
X105654761Y63380952D01*
X105559523Y63571428D01*
X105464285Y63952380D01*
X105464285Y64238095D01*
X105559523Y64619047D01*
X105654761Y64809523D01*
X105845238Y65000000D01*
X106130952Y65095238D01*
X106321428Y65095238D01*
X106607142Y65000000D01*
X106702380Y64904761D01*
X107273809Y65095238D02*
X107940476Y63095238D01*
X108607142Y65095238D01*
X110797619Y65095238D02*
X110797619Y63476190D01*
X110892857Y63285714D01*
X110988095Y63190476D01*
X111178571Y63095238D01*
X111559523Y63095238D01*
X111750000Y63190476D01*
X111845238Y63285714D01*
X111940476Y63476190D01*
X111940476Y65095238D01*
X112892857Y63095238D02*
X112892857Y65095238D01*
X113654761Y65095238D01*
X113845238Y65000000D01*
X113940476Y64904761D01*
X114035714Y64714285D01*
X114035714Y64428571D01*
X113940476Y64238095D01*
X113845238Y64142857D01*
X113654761Y64047619D01*
X112892857Y64047619D01*
X125011904Y63285714D02*
X124916666Y63190476D01*
X124630952Y63095238D01*
X124440476Y63095238D01*
X124154761Y63190476D01*
X123964285Y63380952D01*
X123869047Y63571428D01*
X123773809Y63952380D01*
X123773809Y64238095D01*
X123869047Y64619047D01*
X123964285Y64809523D01*
X124154761Y65000000D01*
X124440476Y65095238D01*
X124630952Y65095238D01*
X124916666Y65000000D01*
X125011904Y64904761D01*
X125583333Y65095238D02*
X126250000Y63095238D01*
X126916666Y65095238D01*
X129107142Y63095238D02*
X129107142Y65095238D01*
X129583333Y65095238D01*
X129869047Y65000000D01*
X130059523Y64809523D01*
X130154761Y64619047D01*
X130250000Y64238095D01*
X130250000Y63952380D01*
X130154761Y63571428D01*
X130059523Y63380952D01*
X129869047Y63190476D01*
X129583333Y63095238D01*
X129107142Y63095238D01*
X131488095Y65095238D02*
X131869047Y65095238D01*
X132059523Y65000000D01*
X132250000Y64809523D01*
X132345238Y64428571D01*
X132345238Y63761904D01*
X132250000Y63380952D01*
X132059523Y63190476D01*
X131869047Y63095238D01*
X131488095Y63095238D01*
X131297619Y63190476D01*
X131107142Y63380952D01*
X131011904Y63761904D01*
X131011904Y64428571D01*
X131107142Y64809523D01*
X131297619Y65000000D01*
X131488095Y65095238D01*
X133011904Y65095238D02*
X133488095Y63095238D01*
X133869047Y64523809D01*
X134250000Y63095238D01*
X134726190Y65095238D01*
X135488095Y63095238D02*
X135488095Y65095238D01*
X136630952Y63095238D01*
X136630952Y65095238D01*
X133345238Y21595238D02*
X132678571Y22547619D01*
X132202380Y21595238D02*
X132202380Y23595238D01*
X132964285Y23595238D01*
X133154761Y23500000D01*
X133250000Y23404761D01*
X133345238Y23214285D01*
X133345238Y22928571D01*
X133250000Y22738095D01*
X133154761Y22642857D01*
X132964285Y22547619D01*
X132202380Y22547619D01*
X134107142Y22166666D02*
X135059523Y22166666D01*
X133916666Y21595238D02*
X134583333Y23595238D01*
X135250000Y21595238D01*
X135630952Y23595238D02*
X136773809Y23595238D01*
X136202380Y21595238D02*
X136202380Y23595238D01*
X137440476Y22642857D02*
X138107142Y22642857D01*
X138392857Y21595238D02*
X137440476Y21595238D01*
X137440476Y23595238D01*
X138392857Y23595238D01*
X125011904Y24935714D02*
X124916666Y24840476D01*
X124630952Y24745238D01*
X124440476Y24745238D01*
X124154761Y24840476D01*
X123964285Y25030952D01*
X123869047Y25221428D01*
X123773809Y25602380D01*
X123773809Y25888095D01*
X123869047Y26269047D01*
X123964285Y26459523D01*
X124154761Y26650000D01*
X124440476Y26745238D01*
X124630952Y26745238D01*
X124916666Y26650000D01*
X125011904Y26554761D01*
X125583333Y26745238D02*
X126250000Y24745238D01*
X126916666Y26745238D01*
X121488095Y21445238D02*
X121488095Y23445238D01*
X121964285Y23445238D01*
X122250000Y23350000D01*
X122440476Y23159523D01*
X122535714Y22969047D01*
X122630952Y22588095D01*
X122630952Y22302380D01*
X122535714Y21921428D01*
X122440476Y21730952D01*
X122250000Y21540476D01*
X121964285Y21445238D01*
X121488095Y21445238D01*
X123869047Y23445238D02*
X124250000Y23445238D01*
X124440476Y23350000D01*
X124630952Y23159523D01*
X124726190Y22778571D01*
X124726190Y22111904D01*
X124630952Y21730952D01*
X124440476Y21540476D01*
X124250000Y21445238D01*
X123869047Y21445238D01*
X123678571Y21540476D01*
X123488095Y21730952D01*
X123392857Y22111904D01*
X123392857Y22778571D01*
X123488095Y23159523D01*
X123678571Y23350000D01*
X123869047Y23445238D01*
X125392857Y23445238D02*
X125869047Y21445238D01*
X126250000Y22873809D01*
X126630952Y21445238D01*
X127107142Y23445238D01*
X127869047Y21445238D02*
X127869047Y23445238D01*
X129011904Y21445238D01*
X129011904Y23445238D01*
X115011904Y24935714D02*
X114916666Y24840476D01*
X114630952Y24745238D01*
X114440476Y24745238D01*
X114154761Y24840476D01*
X113964285Y25030952D01*
X113869047Y25221428D01*
X113773809Y25602380D01*
X113773809Y25888095D01*
X113869047Y26269047D01*
X113964285Y26459523D01*
X114154761Y26650000D01*
X114440476Y26745238D01*
X114630952Y26745238D01*
X114916666Y26650000D01*
X115011904Y26554761D01*
X115583333Y26745238D02*
X116250000Y24745238D01*
X116916666Y26745238D01*
X113678571Y23445238D02*
X113678571Y21826190D01*
X113773809Y21635714D01*
X113869047Y21540476D01*
X114059523Y21445238D01*
X114440476Y21445238D01*
X114630952Y21540476D01*
X114726190Y21635714D01*
X114821428Y21826190D01*
X114821428Y23445238D01*
X115773809Y21445238D02*
X115773809Y23445238D01*
X116535714Y23445238D01*
X116726190Y23350000D01*
X116821428Y23254761D01*
X116916666Y23064285D01*
X116916666Y22778571D01*
X116821428Y22588095D01*
X116726190Y22492857D01*
X116535714Y22397619D01*
X115773809Y22397619D01*
X103678571Y24745238D02*
X103678571Y26745238D01*
X104154761Y26745238D01*
X104440476Y26650000D01*
X104630952Y26459523D01*
X104726190Y26269047D01*
X104821428Y25888095D01*
X104821428Y25602380D01*
X104726190Y25221428D01*
X104630952Y25030952D01*
X104440476Y24840476D01*
X104154761Y24745238D01*
X103678571Y24745238D01*
X106059523Y26745238D02*
X106440476Y26745238D01*
X106630952Y26650000D01*
X106821428Y26459523D01*
X106916666Y26078571D01*
X106916666Y25411904D01*
X106821428Y25030952D01*
X106630952Y24840476D01*
X106440476Y24745238D01*
X106059523Y24745238D01*
X105869047Y24840476D01*
X105678571Y25030952D01*
X105583333Y25411904D01*
X105583333Y26078571D01*
X105678571Y26459523D01*
X105869047Y26650000D01*
X106059523Y26745238D01*
X104488095Y21445238D02*
X104488095Y23445238D01*
X105154761Y23445238D02*
X106297619Y23445238D01*
X105726190Y21445238D02*
X105726190Y23445238D01*
X121154761Y6595238D02*
X121154761Y8595238D01*
X121630952Y8595238D01*
X121916666Y8500000D01*
X122107142Y8309523D01*
X122202380Y8119047D01*
X122297619Y7738095D01*
X122297619Y7452380D01*
X122202380Y7071428D01*
X122107142Y6880952D01*
X121916666Y6690476D01*
X121630952Y6595238D01*
X121154761Y6595238D01*
X123535714Y8595238D02*
X123916666Y8595238D01*
X124107142Y8500000D01*
X124297619Y8309523D01*
X124392857Y7928571D01*
X124392857Y7261904D01*
X124297619Y6880952D01*
X124107142Y6690476D01*
X123916666Y6595238D01*
X123535714Y6595238D01*
X123345238Y6690476D01*
X123154761Y6880952D01*
X123059523Y7261904D01*
X123059523Y7928571D01*
X123154761Y8309523D01*
X123345238Y8500000D01*
X123535714Y8595238D01*
X125250000Y6595238D02*
X125250000Y8595238D01*
X126202380Y6595238D02*
X126202380Y8595238D01*
X127345238Y6595238D01*
X127345238Y8595238D01*
X129345238Y8500000D02*
X129154761Y8595238D01*
X128869047Y8595238D01*
X128583333Y8500000D01*
X128392857Y8309523D01*
X128297619Y8119047D01*
X128202380Y7738095D01*
X128202380Y7452380D01*
X128297619Y7071428D01*
X128392857Y6880952D01*
X128583333Y6690476D01*
X128869047Y6595238D01*
X129059523Y6595238D01*
X129345238Y6690476D01*
X129440476Y6785714D01*
X129440476Y7452380D01*
X129059523Y7452380D01*
X101726190Y6595238D02*
X101726190Y8595238D01*
X102202380Y8595238D01*
X102488095Y8500000D01*
X102678571Y8309523D01*
X102773809Y8119047D01*
X102869047Y7738095D01*
X102869047Y7452380D01*
X102773809Y7071428D01*
X102678571Y6880952D01*
X102488095Y6690476D01*
X102202380Y6595238D01*
X101726190Y6595238D01*
X104107142Y8595238D02*
X104488095Y8595238D01*
X104678571Y8500000D01*
X104869047Y8309523D01*
X104964285Y7928571D01*
X104964285Y7261904D01*
X104869047Y6880952D01*
X104678571Y6690476D01*
X104488095Y6595238D01*
X104107142Y6595238D01*
X103916666Y6690476D01*
X103726190Y6880952D01*
X103630952Y7261904D01*
X103630952Y7928571D01*
X103726190Y8309523D01*
X103916666Y8500000D01*
X104107142Y8595238D01*
X105821428Y6595238D02*
X105821428Y8595238D01*
X106964285Y6595238D01*
X106964285Y8595238D01*
X107916666Y7642857D02*
X108583333Y7642857D01*
X108869047Y6595238D02*
X107916666Y6595238D01*
X107916666Y8595238D01*
X108869047Y8595238D01*
M02*
