G04 #@! TF.GenerationSoftware,KiCad,Pcbnew,(5.1.5-0)*
G04 #@! TF.CreationDate,2021-01-08T11:31:28-08:00*
G04 #@! TF.ProjectId,trackydacks,74726163-6b79-4646-9163-6b732e6b6963,rev?*
G04 #@! TF.SameCoordinates,Original*
G04 #@! TF.FileFunction,Profile,NP*
%FSLAX46Y46*%
G04 Gerber Fmt 4.6, Leading zero omitted, Abs format (unit mm)*
G04 Created by KiCad (PCBNEW (5.1.5-0)) date 2021-01-08 11:31:28*
%MOMM*%
%LPD*%
G04 APERTURE LIST*
%ADD10C,0.050000*%
G04 APERTURE END LIST*
D10*
X133700000Y98500000D02*
G75*
G02X133700000Y95300000I0J-1600000D01*
G01*
X131700000Y95300000D02*
G75*
G02X131700000Y98500000I0J1600000D01*
G01*
X133700000Y95300000D02*
X131700000Y95300000D01*
X133700000Y98500000D02*
X131700000Y98500000D01*
X131700000Y-27100000D02*
G75*
G02X131700000Y-23900000I0J1600000D01*
G01*
X133700000Y-23900000D02*
X131700000Y-23900000D01*
X133700000Y-23900000D02*
G75*
G02X133700000Y-27100000I0J-1600000D01*
G01*
X133700000Y-27100000D02*
X131700000Y-27100000D01*
X108500000Y-23900000D02*
G75*
G02X108500000Y-27100000I0J-1600000D01*
G01*
X106500000Y-27100000D02*
G75*
G02X106500000Y-23900000I0J1600000D01*
G01*
X108500000Y-23900000D02*
X106500000Y-23900000D01*
X108500000Y-27100000D02*
X106500000Y-27100000D01*
X108500000Y95300000D02*
X106500000Y95300000D01*
X108500000Y98500000D02*
X106500000Y98500000D01*
X108500000Y98500000D02*
G75*
G02X108500000Y95300000I0J-1600000D01*
G01*
X106500000Y95300000D02*
G75*
G02X106500000Y98500000I0J1600000D01*
G01*
X113500000Y55500000D02*
G75*
G03X113500000Y55500000I-3750000J0D01*
G01*
X113250000Y75250000D02*
G75*
G03X113250000Y75250000I-3750000J0D01*
G01*
X133750000Y75250000D02*
G75*
G03X133750000Y75250000I-3750000J0D01*
G01*
X133750000Y55500000D02*
G75*
G03X133750000Y55500000I-3750000J0D01*
G01*
X100000000Y-28500000D02*
X100000000Y100000000D01*
X140200000Y-28500000D02*
X100000000Y-28500000D01*
X140200000Y100000000D02*
X140200000Y-28500000D01*
X100000000Y100000000D02*
X140200000Y100000000D01*
M02*
