G04 #@! TF.GenerationSoftware,KiCad,Pcbnew,(5.1.9-0-10_14)*
G04 #@! TF.CreationDate,2021-02-15T21:42:47-08:00*
G04 #@! TF.ProjectId,bigroom,62696772-6f6f-46d2-9e6b-696361645f70,rev?*
G04 #@! TF.SameCoordinates,Original*
G04 #@! TF.FileFunction,Legend,Top*
G04 #@! TF.FilePolarity,Positive*
%FSLAX46Y46*%
G04 Gerber Fmt 4.6, Leading zero omitted, Abs format (unit mm)*
G04 Created by KiCad (PCBNEW (5.1.9-0-10_14)) date 2021-02-15 21:42:47*
%MOMM*%
%LPD*%
G01*
G04 APERTURE LIST*
%ADD10C,0.200000*%
%ADD11C,0.400000*%
%ADD12C,0.300000*%
G04 APERTURE END LIST*
D10*
X42321428Y-80560714D02*
X42250000Y-80632142D01*
X42035714Y-80703571D01*
X41892857Y-80703571D01*
X41678571Y-80632142D01*
X41535714Y-80489285D01*
X41464285Y-80346428D01*
X41392857Y-80060714D01*
X41392857Y-79846428D01*
X41464285Y-79560714D01*
X41535714Y-79417857D01*
X41678571Y-79275000D01*
X41892857Y-79203571D01*
X42035714Y-79203571D01*
X42250000Y-79275000D01*
X42321428Y-79346428D01*
X42750000Y-79203571D02*
X43250000Y-80703571D01*
X43750000Y-79203571D01*
X41964285Y-82367857D02*
X41464285Y-82367857D01*
X41464285Y-83153571D02*
X41464285Y-81653571D01*
X42178571Y-81653571D01*
X43250000Y-82367857D02*
X43464285Y-82439285D01*
X43535714Y-82510714D01*
X43607142Y-82653571D01*
X43607142Y-82867857D01*
X43535714Y-83010714D01*
X43464285Y-83082142D01*
X43321428Y-83153571D01*
X42750000Y-83153571D01*
X42750000Y-81653571D01*
X43250000Y-81653571D01*
X43392857Y-81725000D01*
X43464285Y-81796428D01*
X43535714Y-81939285D01*
X43535714Y-82082142D01*
X43464285Y-82225000D01*
X43392857Y-82296428D01*
X43250000Y-82367857D01*
X42750000Y-82367857D01*
X30571428Y-80560714D02*
X30500000Y-80632142D01*
X30285714Y-80703571D01*
X30142857Y-80703571D01*
X29928571Y-80632142D01*
X29785714Y-80489285D01*
X29714285Y-80346428D01*
X29642857Y-80060714D01*
X29642857Y-79846428D01*
X29714285Y-79560714D01*
X29785714Y-79417857D01*
X29928571Y-79275000D01*
X30142857Y-79203571D01*
X30285714Y-79203571D01*
X30500000Y-79275000D01*
X30571428Y-79346428D01*
X31000000Y-79203571D02*
X31500000Y-80703571D01*
X32000000Y-79203571D01*
X28928571Y-83153571D02*
X28928571Y-81653571D01*
X29500000Y-81653571D01*
X29642857Y-81725000D01*
X29714285Y-81796428D01*
X29785714Y-81939285D01*
X29785714Y-82153571D01*
X29714285Y-82296428D01*
X29642857Y-82367857D01*
X29500000Y-82439285D01*
X28928571Y-82439285D01*
X30357142Y-82725000D02*
X31071428Y-82725000D01*
X30214285Y-83153571D02*
X30714285Y-81653571D01*
X31214285Y-83153571D01*
X31714285Y-83153571D02*
X31714285Y-81653571D01*
X32571428Y-83153571D01*
X32571428Y-81653571D01*
X17964285Y-80703571D02*
X17964285Y-79203571D01*
X18678571Y-80703571D02*
X18678571Y-79203571D01*
X19535714Y-80703571D01*
X19535714Y-79203571D01*
X16857142Y-81653571D02*
X17214285Y-83153571D01*
X17500000Y-82082142D01*
X17785714Y-83153571D01*
X18142857Y-81653571D01*
X18714285Y-82367857D02*
X19214285Y-82367857D01*
X19428571Y-83153571D02*
X18714285Y-83153571D01*
X18714285Y-81653571D01*
X19428571Y-81653571D01*
X19857142Y-81653571D02*
X20714285Y-81653571D01*
X20285714Y-83153571D02*
X20285714Y-81653571D01*
X5964285Y-80703571D02*
X5964285Y-79203571D01*
X6678571Y-80703571D02*
X6678571Y-79203571D01*
X7535714Y-80703571D01*
X7535714Y-79203571D01*
X1928571Y-81653571D02*
X2285714Y-83153571D01*
X2571428Y-82082142D01*
X2857142Y-83153571D01*
X3214285Y-81653571D01*
X3785714Y-82367857D02*
X4285714Y-82367857D01*
X4500000Y-83153571D02*
X3785714Y-83153571D01*
X3785714Y-81653571D01*
X4500000Y-81653571D01*
X4928571Y-81653571D02*
X5785714Y-81653571D01*
X5357142Y-83153571D02*
X5357142Y-81653571D01*
X7357142Y-81582142D02*
X6071428Y-83510714D01*
X7857142Y-83153571D02*
X7857142Y-81653571D01*
X8214285Y-81653571D01*
X8428571Y-81725000D01*
X8571428Y-81867857D01*
X8642857Y-82010714D01*
X8714285Y-82296428D01*
X8714285Y-82510714D01*
X8642857Y-82796428D01*
X8571428Y-82939285D01*
X8428571Y-83082142D01*
X8214285Y-83153571D01*
X7857142Y-83153571D01*
X10214285Y-83153571D02*
X9714285Y-82439285D01*
X9357142Y-83153571D02*
X9357142Y-81653571D01*
X9928571Y-81653571D01*
X10071428Y-81725000D01*
X10142857Y-81796428D01*
X10214285Y-81939285D01*
X10214285Y-82153571D01*
X10142857Y-82296428D01*
X10071428Y-82367857D01*
X9928571Y-82439285D01*
X9357142Y-82439285D01*
X11142857Y-82439285D02*
X11142857Y-83153571D01*
X10642857Y-81653571D02*
X11142857Y-82439285D01*
X11642857Y-81653571D01*
X28535714Y-96928571D02*
X28821428Y-96928571D01*
X28964285Y-97000000D01*
X29107142Y-97142857D01*
X29178571Y-97428571D01*
X29178571Y-97928571D01*
X29107142Y-98214285D01*
X28964285Y-98357142D01*
X28821428Y-98428571D01*
X28535714Y-98428571D01*
X28392857Y-98357142D01*
X28250000Y-98214285D01*
X28178571Y-97928571D01*
X28178571Y-97428571D01*
X28250000Y-97142857D01*
X28392857Y-97000000D01*
X28535714Y-96928571D01*
X29821428Y-96928571D02*
X29821428Y-98142857D01*
X29892857Y-98285714D01*
X29964285Y-98357142D01*
X30107142Y-98428571D01*
X30392857Y-98428571D01*
X30535714Y-98357142D01*
X30607142Y-98285714D01*
X30678571Y-98142857D01*
X30678571Y-96928571D01*
X31178571Y-96928571D02*
X32035714Y-96928571D01*
X31607142Y-98428571D02*
X31607142Y-96928571D01*
X32464285Y-97071428D02*
X32535714Y-97000000D01*
X32678571Y-96928571D01*
X33035714Y-96928571D01*
X33178571Y-97000000D01*
X33250000Y-97071428D01*
X33321428Y-97214285D01*
X33321428Y-97357142D01*
X33250000Y-97571428D01*
X32392857Y-98428571D01*
X33321428Y-98428571D01*
X16285714Y-96928571D02*
X16571428Y-96928571D01*
X16714285Y-97000000D01*
X16857142Y-97142857D01*
X16928571Y-97428571D01*
X16928571Y-97928571D01*
X16857142Y-98214285D01*
X16714285Y-98357142D01*
X16571428Y-98428571D01*
X16285714Y-98428571D01*
X16142857Y-98357142D01*
X16000000Y-98214285D01*
X15928571Y-97928571D01*
X15928571Y-97428571D01*
X16000000Y-97142857D01*
X16142857Y-97000000D01*
X16285714Y-96928571D01*
X17571428Y-96928571D02*
X17571428Y-98142857D01*
X17642857Y-98285714D01*
X17714285Y-98357142D01*
X17857142Y-98428571D01*
X18142857Y-98428571D01*
X18285714Y-98357142D01*
X18357142Y-98285714D01*
X18428571Y-98142857D01*
X18428571Y-96928571D01*
X18928571Y-96928571D02*
X19785714Y-96928571D01*
X19357142Y-98428571D02*
X19357142Y-96928571D01*
X21071428Y-98428571D02*
X20214285Y-98428571D01*
X20642857Y-98428571D02*
X20642857Y-96928571D01*
X20500000Y-97142857D01*
X20357142Y-97285714D01*
X20214285Y-97357142D01*
D11*
X13726190Y-1359523D02*
X16011904Y-1359523D01*
X14869047Y-5359523D02*
X14869047Y-1359523D01*
X17345238Y-5359523D02*
X17345238Y-1359523D01*
X17345238Y-3264285D02*
X19630952Y-3264285D01*
X19630952Y-5359523D02*
X19630952Y-1359523D01*
X21535714Y-3264285D02*
X22869047Y-3264285D01*
X23440476Y-5359523D02*
X21535714Y-5359523D01*
X21535714Y-1359523D01*
X23440476Y-1359523D01*
X29535714Y-3264285D02*
X30107142Y-3454761D01*
X30297619Y-3645238D01*
X30488095Y-4026190D01*
X30488095Y-4597619D01*
X30297619Y-4978571D01*
X30107142Y-5169047D01*
X29726190Y-5359523D01*
X28202380Y-5359523D01*
X28202380Y-1359523D01*
X29535714Y-1359523D01*
X29916666Y-1550000D01*
X30107142Y-1740476D01*
X30297619Y-2121428D01*
X30297619Y-2502380D01*
X30107142Y-2883333D01*
X29916666Y-3073809D01*
X29535714Y-3264285D01*
X28202380Y-3264285D01*
X32202380Y-5359523D02*
X32202380Y-1359523D01*
X36202380Y-1550000D02*
X35821428Y-1359523D01*
X35250000Y-1359523D01*
X34678571Y-1550000D01*
X34297619Y-1930952D01*
X34107142Y-2311904D01*
X33916666Y-3073809D01*
X33916666Y-3645238D01*
X34107142Y-4407142D01*
X34297619Y-4788095D01*
X34678571Y-5169047D01*
X35250000Y-5359523D01*
X35630952Y-5359523D01*
X36202380Y-5169047D01*
X36392857Y-4978571D01*
X36392857Y-3645238D01*
X35630952Y-3645238D01*
X20011904Y-11759523D02*
X18678571Y-9854761D01*
X17726190Y-11759523D02*
X17726190Y-7759523D01*
X19250000Y-7759523D01*
X19630952Y-7950000D01*
X19821428Y-8140476D01*
X20011904Y-8521428D01*
X20011904Y-9092857D01*
X19821428Y-9473809D01*
X19630952Y-9664285D01*
X19250000Y-9854761D01*
X17726190Y-9854761D01*
X22488095Y-7759523D02*
X23250000Y-7759523D01*
X23630952Y-7950000D01*
X24011904Y-8330952D01*
X24202380Y-9092857D01*
X24202380Y-10426190D01*
X24011904Y-11188095D01*
X23630952Y-11569047D01*
X23250000Y-11759523D01*
X22488095Y-11759523D01*
X22107142Y-11569047D01*
X21726190Y-11188095D01*
X21535714Y-10426190D01*
X21535714Y-9092857D01*
X21726190Y-8330952D01*
X22107142Y-7950000D01*
X22488095Y-7759523D01*
X26678571Y-7759523D02*
X27440476Y-7759523D01*
X27821428Y-7950000D01*
X28202380Y-8330952D01*
X28392857Y-9092857D01*
X28392857Y-10426190D01*
X28202380Y-11188095D01*
X27821428Y-11569047D01*
X27440476Y-11759523D01*
X26678571Y-11759523D01*
X26297619Y-11569047D01*
X25916666Y-11188095D01*
X25726190Y-10426190D01*
X25726190Y-9092857D01*
X25916666Y-8330952D01*
X26297619Y-7950000D01*
X26678571Y-7759523D01*
X30107142Y-11759523D02*
X30107142Y-7759523D01*
X31440476Y-10616666D01*
X32773809Y-7759523D01*
X32773809Y-11759523D01*
D12*
X4499999Y-16154761D02*
X4499999Y-14154761D01*
X5452380Y-16154761D02*
X5452380Y-14154761D01*
X6595238Y-16154761D01*
X6595238Y-14154761D01*
X8880952Y-14154761D02*
X9357142Y-16154761D01*
X9738095Y-14726190D01*
X10119047Y-16154761D01*
X10595238Y-14154761D01*
X12785714Y-14059523D02*
X11071428Y-16630952D01*
X13452380Y-16154761D02*
X13452380Y-14154761D01*
X13928571Y-14154761D01*
X14214285Y-14250000D01*
X14404761Y-14440476D01*
X14500000Y-14630952D01*
X14595238Y-15011904D01*
X14595238Y-15297619D01*
X14500000Y-15678571D01*
X14404761Y-15869047D01*
X14214285Y-16059523D01*
X13928571Y-16154761D01*
X13452380Y-16154761D01*
X19952380Y-15904761D02*
X19952380Y-13904761D01*
X20714285Y-13904761D01*
X20904761Y-14000000D01*
X21000000Y-14095238D01*
X21095238Y-14285714D01*
X21095238Y-14571428D01*
X21000000Y-14761904D01*
X20904761Y-14857142D01*
X20714285Y-14952380D01*
X19952380Y-14952380D01*
X21857142Y-15333333D02*
X22809523Y-15333333D01*
X21666666Y-15904761D02*
X22333333Y-13904761D01*
X23000000Y-15904761D01*
X23666666Y-15904761D02*
X23666666Y-13904761D01*
X24809523Y-15904761D01*
X24809523Y-13904761D01*
X28428571Y-15714285D02*
X28333333Y-15809523D01*
X28047619Y-15904761D01*
X27857142Y-15904761D01*
X27571428Y-15809523D01*
X27380952Y-15619047D01*
X27285714Y-15428571D01*
X27190476Y-15047619D01*
X27190476Y-14761904D01*
X27285714Y-14380952D01*
X27380952Y-14190476D01*
X27571428Y-14000000D01*
X27857142Y-13904761D01*
X28047619Y-13904761D01*
X28333333Y-14000000D01*
X28428571Y-14095238D01*
X29000000Y-13904761D02*
X29666666Y-15904761D01*
X30333333Y-13904761D01*
X37916666Y-14857142D02*
X37250000Y-14857142D01*
X37250000Y-15904761D02*
X37250000Y-13904761D01*
X38202380Y-13904761D01*
X39630952Y-14857142D02*
X39916666Y-14952380D01*
X40011904Y-15047619D01*
X40107142Y-15238095D01*
X40107142Y-15523809D01*
X40011904Y-15714285D01*
X39916666Y-15809523D01*
X39726190Y-15904761D01*
X38964285Y-15904761D01*
X38964285Y-13904761D01*
X39630952Y-13904761D01*
X39821428Y-14000000D01*
X39916666Y-14095238D01*
X40011904Y-14285714D01*
X40011904Y-14476190D01*
X39916666Y-14666666D01*
X39821428Y-14761904D01*
X39630952Y-14857142D01*
X38964285Y-14857142D01*
X43630952Y-15714285D02*
X43535714Y-15809523D01*
X43250000Y-15904761D01*
X43059523Y-15904761D01*
X42773809Y-15809523D01*
X42583333Y-15619047D01*
X42488095Y-15428571D01*
X42392857Y-15047619D01*
X42392857Y-14761904D01*
X42488095Y-14380952D01*
X42583333Y-14190476D01*
X42773809Y-14000000D01*
X43059523Y-13904761D01*
X43250000Y-13904761D01*
X43535714Y-14000000D01*
X43630952Y-14095238D01*
X44202380Y-13904761D02*
X44869047Y-15904761D01*
X45535714Y-13904761D01*
X34869047Y-36857142D02*
X34202380Y-36857142D01*
X34202380Y-37904761D02*
X34202380Y-35904761D01*
X35154761Y-35904761D01*
X35916666Y-36857142D02*
X36583333Y-36857142D01*
X36869047Y-37904761D02*
X35916666Y-37904761D01*
X35916666Y-35904761D01*
X36869047Y-35904761D01*
X37726190Y-36857142D02*
X38392857Y-36857142D01*
X38678571Y-37904761D02*
X37726190Y-37904761D01*
X37726190Y-35904761D01*
X38678571Y-35904761D01*
X39535714Y-37904761D02*
X39535714Y-35904761D01*
X40011904Y-35904761D01*
X40297619Y-36000000D01*
X40488095Y-36190476D01*
X40583333Y-36380952D01*
X40678571Y-36761904D01*
X40678571Y-37047619D01*
X40583333Y-37428571D01*
X40488095Y-37619047D01*
X40297619Y-37809523D01*
X40011904Y-37904761D01*
X39535714Y-37904761D01*
X42202380Y-36857142D02*
X42488095Y-36952380D01*
X42583333Y-37047619D01*
X42678571Y-37238095D01*
X42678571Y-37523809D01*
X42583333Y-37714285D01*
X42488095Y-37809523D01*
X42297619Y-37904761D01*
X41535714Y-37904761D01*
X41535714Y-35904761D01*
X42202380Y-35904761D01*
X42392857Y-36000000D01*
X42488095Y-36095238D01*
X42583333Y-36285714D01*
X42583333Y-36476190D01*
X42488095Y-36666666D01*
X42392857Y-36761904D01*
X42202380Y-36857142D01*
X41535714Y-36857142D01*
X43440476Y-37333333D02*
X44392857Y-37333333D01*
X43250000Y-37904761D02*
X43916666Y-35904761D01*
X44583333Y-37904761D01*
X46392857Y-37714285D02*
X46297619Y-37809523D01*
X46011904Y-37904761D01*
X45821428Y-37904761D01*
X45535714Y-37809523D01*
X45345238Y-37619047D01*
X45250000Y-37428571D01*
X45154761Y-37047619D01*
X45154761Y-36761904D01*
X45250000Y-36380952D01*
X45345238Y-36190476D01*
X45535714Y-36000000D01*
X45821428Y-35904761D01*
X46011904Y-35904761D01*
X46297619Y-36000000D01*
X46392857Y-36095238D01*
X47250000Y-37904761D02*
X47250000Y-35904761D01*
X48392857Y-37904761D02*
X47535714Y-36761904D01*
X48392857Y-35904761D02*
X47250000Y-37047619D01*
X22821428Y-37904761D02*
X22821428Y-35904761D01*
X23583333Y-35904761D01*
X23773809Y-36000000D01*
X23869047Y-36095238D01*
X23964285Y-36285714D01*
X23964285Y-36571428D01*
X23869047Y-36761904D01*
X23773809Y-36857142D01*
X23583333Y-36952380D01*
X22821428Y-36952380D01*
X24726190Y-37333333D02*
X25678571Y-37333333D01*
X24535714Y-37904761D02*
X25202380Y-35904761D01*
X25869047Y-37904761D01*
X26535714Y-37904761D02*
X26535714Y-35904761D01*
X27678571Y-37904761D01*
X27678571Y-35904761D01*
D10*
X5000000Y-94953571D02*
X5285714Y-94953571D01*
X5428571Y-95025000D01*
X5571428Y-95167857D01*
X5642857Y-95453571D01*
X5642857Y-95953571D01*
X5571428Y-96239285D01*
X5428571Y-96382142D01*
X5285714Y-96453571D01*
X5000000Y-96453571D01*
X4857142Y-96382142D01*
X4714285Y-96239285D01*
X4642857Y-95953571D01*
X4642857Y-95453571D01*
X4714285Y-95167857D01*
X4857142Y-95025000D01*
X5000000Y-94953571D01*
X6285714Y-94953571D02*
X6285714Y-96167857D01*
X6357142Y-96310714D01*
X6428571Y-96382142D01*
X6571428Y-96453571D01*
X6857142Y-96453571D01*
X7000000Y-96382142D01*
X7071428Y-96310714D01*
X7142857Y-96167857D01*
X7142857Y-94953571D01*
X7642857Y-94953571D02*
X8500000Y-94953571D01*
X8071428Y-96453571D02*
X8071428Y-94953571D01*
X4607142Y-97403571D02*
X4964285Y-98903571D01*
X5250000Y-97832142D01*
X5535714Y-98903571D01*
X5892857Y-97403571D01*
X6464285Y-98117857D02*
X6964285Y-98117857D01*
X7178571Y-98903571D02*
X6464285Y-98903571D01*
X6464285Y-97403571D01*
X7178571Y-97403571D01*
X7607142Y-97403571D02*
X8464285Y-97403571D01*
X8035714Y-98903571D02*
X8035714Y-97403571D01*
D12*
X4880952Y-37904761D02*
X4880952Y-35904761D01*
X5833333Y-37904761D02*
X5833333Y-35904761D01*
X6976190Y-37904761D01*
X6976190Y-35904761D01*
X9261904Y-35904761D02*
X9738095Y-37904761D01*
X10119047Y-36476190D01*
X10500000Y-37904761D01*
X10976190Y-35904761D01*
X11738095Y-36857142D02*
X12404761Y-36857142D01*
X12690476Y-37904761D02*
X11738095Y-37904761D01*
X11738095Y-35904761D01*
X12690476Y-35904761D01*
X13261904Y-35904761D02*
X14404761Y-35904761D01*
X13833333Y-37904761D02*
X13833333Y-35904761D01*
M02*
