G04 #@! TF.GenerationSoftware,KiCad,Pcbnew,(5.1.9-0-10_14)*
G04 #@! TF.CreationDate,2021-02-15T21:42:47-08:00*
G04 #@! TF.ProjectId,bigroom,62696772-6f6f-46d2-9e6b-696361645f70,rev?*
G04 #@! TF.SameCoordinates,Original*
G04 #@! TF.FileFunction,Copper,L1,Top*
G04 #@! TF.FilePolarity,Positive*
%FSLAX46Y46*%
G04 Gerber Fmt 4.6, Leading zero omitted, Abs format (unit mm)*
G04 Created by KiCad (PCBNEW (5.1.9-0-10_14)) date 2021-02-15 21:42:47*
%MOMM*%
%LPD*%
G01*
G04 APERTURE LIST*
G04 #@! TA.AperFunction,NonConductor*
%ADD10C,2.000000*%
G04 #@! TD*
G04 #@! TA.AperFunction,EtchedComponent*
%ADD11C,0.100000*%
G04 #@! TD*
G04 #@! TA.AperFunction,ComponentPad*
%ADD12C,5.100000*%
G04 #@! TD*
G04 #@! TA.AperFunction,ComponentPad*
%ADD13C,6.100000*%
G04 #@! TD*
G04 APERTURE END LIST*
D10*
X30750000Y-104750000D02*
X9500000Y-104750000D01*
X17750000Y-88750000D02*
X7750000Y-88750000D01*
X42000000Y-88750000D02*
X32000000Y-88750000D01*
D11*
G36*
X21346400Y-119524900D02*
G01*
X21663900Y-119766200D01*
X22229050Y-120083700D01*
X22825950Y-120515500D01*
X23200600Y-120896500D01*
X23600650Y-121461650D01*
X24197550Y-122642750D01*
X24496000Y-123207900D01*
X24508700Y-123220600D01*
X24178500Y-123246000D01*
X24076900Y-123195200D01*
X23721300Y-122947550D01*
X23314900Y-122579250D01*
X22984700Y-122230000D01*
X22629100Y-121798200D01*
X22349700Y-121379100D01*
X22159200Y-121125100D01*
X21905200Y-120667900D01*
X21651200Y-120299600D01*
X21409900Y-119880500D01*
X21130500Y-119321700D01*
X21346400Y-119524900D01*
G37*
X21346400Y-119524900D02*
X21663900Y-119766200D01*
X22229050Y-120083700D01*
X22825950Y-120515500D01*
X23200600Y-120896500D01*
X23600650Y-121461650D01*
X24197550Y-122642750D01*
X24496000Y-123207900D01*
X24508700Y-123220600D01*
X24178500Y-123246000D01*
X24076900Y-123195200D01*
X23721300Y-122947550D01*
X23314900Y-122579250D01*
X22984700Y-122230000D01*
X22629100Y-121798200D01*
X22349700Y-121379100D01*
X22159200Y-121125100D01*
X21905200Y-120667900D01*
X21651200Y-120299600D01*
X21409900Y-119880500D01*
X21130500Y-119321700D01*
X21346400Y-119524900D01*
G36*
X22752925Y-122703075D02*
G01*
X23089475Y-122798325D01*
X23353000Y-122890400D01*
X24051500Y-123296800D01*
X24081980Y-123324740D01*
X24089600Y-123309500D01*
X24089600Y-123322200D01*
X24081980Y-123324740D01*
X24000700Y-123487300D01*
X24394400Y-123627000D01*
X24184850Y-123652400D01*
X23791150Y-123677800D01*
X23314900Y-123677800D01*
X22870400Y-123614300D01*
X22387800Y-123500000D01*
X21994100Y-123385700D01*
X21587700Y-123157100D01*
X21270200Y-122928500D01*
X20863800Y-122801500D01*
X21511500Y-122750700D01*
X22044900Y-122712600D01*
X22508450Y-122706250D01*
X22752925Y-122703075D01*
G37*
X22752925Y-122703075D02*
X23089475Y-122798325D01*
X23353000Y-122890400D01*
X24051500Y-123296800D01*
X24081980Y-123324740D01*
X24089600Y-123309500D01*
X24089600Y-123322200D01*
X24081980Y-123324740D01*
X24000700Y-123487300D01*
X24394400Y-123627000D01*
X24184850Y-123652400D01*
X23791150Y-123677800D01*
X23314900Y-123677800D01*
X22870400Y-123614300D01*
X22387800Y-123500000D01*
X21994100Y-123385700D01*
X21587700Y-123157100D01*
X21270200Y-122928500D01*
X20863800Y-122801500D01*
X21511500Y-122750700D01*
X22044900Y-122712600D01*
X22508450Y-122706250D01*
X22752925Y-122703075D01*
G36*
X24616650Y-123766700D02*
G01*
X24248350Y-124198500D01*
X23810200Y-124471550D01*
X23429200Y-124611250D01*
X22679900Y-124776350D01*
X23162500Y-124249300D01*
X23556200Y-123982600D01*
X23924500Y-123779400D01*
X24394400Y-123703200D01*
X24419800Y-123703200D01*
X24616650Y-123766700D01*
G37*
X24616650Y-123766700D02*
X24248350Y-124198500D01*
X23810200Y-124471550D01*
X23429200Y-124611250D01*
X22679900Y-124776350D01*
X23162500Y-124249300D01*
X23556200Y-123982600D01*
X23924500Y-123779400D01*
X24394400Y-123703200D01*
X24419800Y-123703200D01*
X24616650Y-123766700D01*
G36*
X24750000Y-123284100D02*
G01*
X24538862Y-123477775D01*
X24757937Y-123573025D01*
X25508825Y-124115950D01*
X25327850Y-124211200D01*
X24750000Y-123754000D01*
X24762700Y-124846200D01*
X24648400Y-124706500D01*
X24642050Y-123817500D01*
X24686500Y-123817500D01*
X24305500Y-123601600D01*
X24019750Y-123449200D01*
X24184850Y-123169800D01*
X24750000Y-123284100D01*
G37*
X24750000Y-123284100D02*
X24538862Y-123477775D01*
X24757937Y-123573025D01*
X25508825Y-124115950D01*
X25327850Y-124211200D01*
X24750000Y-123754000D01*
X24762700Y-124846200D01*
X24648400Y-124706500D01*
X24642050Y-123817500D01*
X24686500Y-123817500D01*
X24305500Y-123601600D01*
X24019750Y-123449200D01*
X24184850Y-123169800D01*
X24750000Y-123284100D01*
G36*
X25391350Y-123741300D02*
G01*
X25943800Y-124020700D01*
X26270825Y-124347725D01*
X26405763Y-124577913D01*
X26637538Y-124847788D01*
X26331150Y-124763650D01*
X26077150Y-124687450D01*
X25899350Y-124623950D01*
X25524700Y-124490600D01*
X25165925Y-124296925D01*
X24905575Y-124011175D01*
X24781750Y-123849250D01*
X24845250Y-123887350D01*
X24819850Y-123823850D01*
X24883350Y-123652400D01*
X25391350Y-123741300D01*
G37*
X25391350Y-123741300D02*
X25943800Y-124020700D01*
X26270825Y-124347725D01*
X26405763Y-124577913D01*
X26637538Y-124847788D01*
X26331150Y-124763650D01*
X26077150Y-124687450D01*
X25899350Y-124623950D01*
X25524700Y-124490600D01*
X25165925Y-124296925D01*
X24905575Y-124011175D01*
X24781750Y-123849250D01*
X24845250Y-123887350D01*
X24819850Y-123823850D01*
X24883350Y-123652400D01*
X25391350Y-123741300D01*
G36*
X27823400Y-122738000D02*
G01*
X28255200Y-122763400D01*
X28833207Y-122773943D01*
X28153600Y-122928500D01*
X27721800Y-123119000D01*
X27378900Y-123334900D01*
X26959800Y-123500000D01*
X26426400Y-123588900D01*
X25981900Y-123614300D01*
X25404050Y-123595250D01*
X24826200Y-123576200D01*
X24762700Y-123500000D01*
X24978600Y-123436500D01*
X24985585Y-123385700D01*
X25301815Y-123258700D01*
X25835850Y-123030100D01*
X26388300Y-122826900D01*
X26782000Y-122712600D01*
X27226500Y-122712600D01*
X27823400Y-122738000D01*
G37*
X27823400Y-122738000D02*
X28255200Y-122763400D01*
X28833207Y-122773943D01*
X28153600Y-122928500D01*
X27721800Y-123119000D01*
X27378900Y-123334900D01*
X26959800Y-123500000D01*
X26426400Y-123588900D01*
X25981900Y-123614300D01*
X25404050Y-123595250D01*
X24826200Y-123576200D01*
X24762700Y-123500000D01*
X24978600Y-123436500D01*
X24985585Y-123385700D01*
X25301815Y-123258700D01*
X25835850Y-123030100D01*
X26388300Y-122826900D01*
X26782000Y-122712600D01*
X27226500Y-122712600D01*
X27823400Y-122738000D01*
G36*
X27810700Y-120083700D02*
G01*
X27569400Y-120579000D01*
X27366200Y-121036200D01*
X27105850Y-121556900D01*
X26832800Y-121912500D01*
X26521650Y-122325250D01*
X26051750Y-122718950D01*
X25550100Y-123055500D01*
X24445200Y-123652400D01*
X24470600Y-123322200D01*
X24775400Y-123271400D01*
X25023050Y-122833250D01*
X25238950Y-122369700D01*
X25404050Y-122039500D01*
X25588200Y-121747400D01*
X25753300Y-121429900D01*
X26032700Y-121074300D01*
X26312100Y-120756800D01*
X26642300Y-120464700D01*
X26985200Y-120236100D01*
X27366200Y-119982100D01*
X27759900Y-119715400D01*
X28293300Y-119321700D01*
X27810700Y-120083700D01*
G37*
X27810700Y-120083700D02*
X27569400Y-120579000D01*
X27366200Y-121036200D01*
X27105850Y-121556900D01*
X26832800Y-121912500D01*
X26521650Y-122325250D01*
X26051750Y-122718950D01*
X25550100Y-123055500D01*
X24445200Y-123652400D01*
X24470600Y-123322200D01*
X24775400Y-123271400D01*
X25023050Y-122833250D01*
X25238950Y-122369700D01*
X25404050Y-122039500D01*
X25588200Y-121747400D01*
X25753300Y-121429900D01*
X26032700Y-121074300D01*
X26312100Y-120756800D01*
X26642300Y-120464700D01*
X26985200Y-120236100D01*
X27366200Y-119982100D01*
X27759900Y-119715400D01*
X28293300Y-119321700D01*
X27810700Y-120083700D01*
G36*
X24965900Y-117950100D02*
G01*
X25067500Y-118432700D01*
X25181800Y-118889900D01*
X25264350Y-119220100D01*
X25327850Y-119601100D01*
X25372300Y-120121800D01*
X25372300Y-120655200D01*
X25321500Y-121239400D01*
X25258000Y-121760100D01*
X25115125Y-122255400D01*
X24816675Y-123271400D01*
X24603950Y-123220600D01*
X24369000Y-122306200D01*
X24195962Y-121442600D01*
X24211837Y-120655200D01*
X24264225Y-119994800D01*
X24426150Y-119220100D01*
X24661100Y-118407300D01*
X24788100Y-117632600D01*
X24851600Y-117111900D01*
X24965900Y-117950100D01*
G37*
X24965900Y-117950100D02*
X25067500Y-118432700D01*
X25181800Y-118889900D01*
X25264350Y-119220100D01*
X25327850Y-119601100D01*
X25372300Y-120121800D01*
X25372300Y-120655200D01*
X25321500Y-121239400D01*
X25258000Y-121760100D01*
X25115125Y-122255400D01*
X24816675Y-123271400D01*
X24603950Y-123220600D01*
X24369000Y-122306200D01*
X24195962Y-121442600D01*
X24211837Y-120655200D01*
X24264225Y-119994800D01*
X24426150Y-119220100D01*
X24661100Y-118407300D01*
X24788100Y-117632600D01*
X24851600Y-117111900D01*
X24965900Y-117950100D01*
D12*
X42750000Y-104750000D03*
D13*
X6750000Y-88750000D03*
X42750000Y-88750000D03*
X30750000Y-88750000D03*
X18750000Y-88750000D03*
X6750000Y-104750000D03*
X30750000Y-104750000D03*
X18750000Y-104750000D03*
M02*
