G04 #@! TF.GenerationSoftware,KiCad,Pcbnew,(5.1.5-0)*
G04 #@! TF.CreationDate,2021-01-12T22:30:33-08:00*
G04 #@! TF.ProjectId,helveticascenario,68656c76-6574-4696-9361-7363656e6172,rev?*
G04 #@! TF.SameCoordinates,Original*
G04 #@! TF.FileFunction,Legend,Top*
G04 #@! TF.FilePolarity,Positive*
%FSLAX46Y46*%
G04 Gerber Fmt 4.6, Leading zero omitted, Abs format (unit mm)*
G04 Created by KiCad (PCBNEW (5.1.5-0)) date 2021-01-12 22:30:33*
%MOMM*%
%LPD*%
G04 APERTURE LIST*
%ADD10C,0.250000*%
%ADD11C,0.400000*%
%ADD12C,0.500000*%
G04 APERTURE END LIST*
D10*
X2857142Y-346857142D02*
X3071428Y-346928571D01*
X3428571Y-346928571D01*
X3571428Y-346857142D01*
X3642857Y-346785714D01*
X3714285Y-346642857D01*
X3714285Y-346500000D01*
X3642857Y-346357142D01*
X3571428Y-346285714D01*
X3428571Y-346214285D01*
X3142857Y-346142857D01*
X3000000Y-346071428D01*
X2928571Y-346000000D01*
X2857142Y-345857142D01*
X2857142Y-345714285D01*
X2928571Y-345571428D01*
X3000000Y-345500000D01*
X3142857Y-345428571D01*
X3500000Y-345428571D01*
X3714285Y-345500000D01*
X5571428Y-346928571D02*
X5500000Y-346928571D01*
X5357142Y-346857142D01*
X5142857Y-346642857D01*
X4785714Y-346214285D01*
X4642857Y-346000000D01*
X4571428Y-345785714D01*
X4571428Y-345642857D01*
X4642857Y-345500000D01*
X4785714Y-345428571D01*
X4857142Y-345428571D01*
X5000000Y-345500000D01*
X5071428Y-345642857D01*
X5071428Y-345714285D01*
X5000000Y-345857142D01*
X4928571Y-345928571D01*
X4500000Y-346214285D01*
X4428571Y-346285714D01*
X4357142Y-346428571D01*
X4357142Y-346642857D01*
X4428571Y-346785714D01*
X4500000Y-346857142D01*
X4642857Y-346928571D01*
X4857142Y-346928571D01*
X5000000Y-346857142D01*
X5071428Y-346785714D01*
X5285714Y-346500000D01*
X5357142Y-346285714D01*
X5357142Y-346142857D01*
X6214285Y-346928571D02*
X6214285Y-345428571D01*
X6214285Y-346142857D02*
X7071428Y-346142857D01*
X7071428Y-346928571D02*
X7071428Y-345428571D01*
X22857142Y-346857142D02*
X23071428Y-346928571D01*
X23428571Y-346928571D01*
X23571428Y-346857142D01*
X23642857Y-346785714D01*
X23714285Y-346642857D01*
X23714285Y-346500000D01*
X23642857Y-346357142D01*
X23571428Y-346285714D01*
X23428571Y-346214285D01*
X23142857Y-346142857D01*
X23000000Y-346071428D01*
X22928571Y-346000000D01*
X22857142Y-345857142D01*
X22857142Y-345714285D01*
X22928571Y-345571428D01*
X23000000Y-345500000D01*
X23142857Y-345428571D01*
X23500000Y-345428571D01*
X23714285Y-345500000D01*
X25571428Y-346928571D02*
X25500000Y-346928571D01*
X25357142Y-346857142D01*
X25142857Y-346642857D01*
X24785714Y-346214285D01*
X24642857Y-346000000D01*
X24571428Y-345785714D01*
X24571428Y-345642857D01*
X24642857Y-345500000D01*
X24785714Y-345428571D01*
X24857142Y-345428571D01*
X25000000Y-345500000D01*
X25071428Y-345642857D01*
X25071428Y-345714285D01*
X25000000Y-345857142D01*
X24928571Y-345928571D01*
X24500000Y-346214285D01*
X24428571Y-346285714D01*
X24357142Y-346428571D01*
X24357142Y-346642857D01*
X24428571Y-346785714D01*
X24500000Y-346857142D01*
X24642857Y-346928571D01*
X24857142Y-346928571D01*
X25000000Y-346857142D01*
X25071428Y-346785714D01*
X25285714Y-346500000D01*
X25357142Y-346285714D01*
X25357142Y-346142857D01*
X26214285Y-346928571D02*
X26214285Y-345428571D01*
X26214285Y-346142857D02*
X27071428Y-346142857D01*
X27071428Y-346928571D02*
X27071428Y-345428571D01*
X29642857Y-343857142D02*
X29857142Y-343928571D01*
X30214285Y-343928571D01*
X30357142Y-343857142D01*
X30428571Y-343785714D01*
X30500000Y-343642857D01*
X30500000Y-343500000D01*
X30428571Y-343357142D01*
X30357142Y-343285714D01*
X30214285Y-343214285D01*
X29928571Y-343142857D01*
X29785714Y-343071428D01*
X29714285Y-343000000D01*
X29642857Y-342857142D01*
X29642857Y-342714285D01*
X29714285Y-342571428D01*
X29785714Y-342500000D01*
X29928571Y-342428571D01*
X30285714Y-342428571D01*
X30500000Y-342500000D01*
X30928571Y-342428571D02*
X31785714Y-342428571D01*
X31357142Y-343928571D02*
X31357142Y-342428571D01*
X32285714Y-343142857D02*
X32785714Y-343142857D01*
X33000000Y-343928571D02*
X32285714Y-343928571D01*
X32285714Y-342428571D01*
X33000000Y-342428571D01*
X33642857Y-343928571D02*
X33642857Y-342428571D01*
X34214285Y-342428571D01*
X34357142Y-342500000D01*
X34428571Y-342571428D01*
X34500000Y-342714285D01*
X34500000Y-342928571D01*
X34428571Y-343071428D01*
X34357142Y-343142857D01*
X34214285Y-343214285D01*
X33642857Y-343214285D01*
X35142857Y-343928571D02*
X35142857Y-342428571D01*
X35714285Y-342428571D01*
X35857142Y-342500000D01*
X35928571Y-342571428D01*
X36000000Y-342714285D01*
X36000000Y-342928571D01*
X35928571Y-343071428D01*
X35857142Y-343142857D01*
X35714285Y-343214285D01*
X35142857Y-343214285D01*
X36642857Y-343142857D02*
X37142857Y-343142857D01*
X37357142Y-343928571D02*
X36642857Y-343928571D01*
X36642857Y-342428571D01*
X37357142Y-342428571D01*
X38000000Y-343928571D02*
X38000000Y-342428571D01*
X38357142Y-342428571D01*
X38571428Y-342500000D01*
X38714285Y-342642857D01*
X38785714Y-342785714D01*
X38857142Y-343071428D01*
X38857142Y-343285714D01*
X38785714Y-343571428D01*
X38714285Y-343714285D01*
X38571428Y-343857142D01*
X38357142Y-343928571D01*
X38000000Y-343928571D01*
X32750000Y-344928571D02*
X33035714Y-344928571D01*
X33178571Y-345000000D01*
X33321428Y-345142857D01*
X33392857Y-345428571D01*
X33392857Y-345928571D01*
X33321428Y-346214285D01*
X33178571Y-346357142D01*
X33035714Y-346428571D01*
X32750000Y-346428571D01*
X32607142Y-346357142D01*
X32464285Y-346214285D01*
X32392857Y-345928571D01*
X32392857Y-345428571D01*
X32464285Y-345142857D01*
X32607142Y-345000000D01*
X32750000Y-344928571D01*
X34035714Y-344928571D02*
X34035714Y-346142857D01*
X34107142Y-346285714D01*
X34178571Y-346357142D01*
X34321428Y-346428571D01*
X34607142Y-346428571D01*
X34750000Y-346357142D01*
X34821428Y-346285714D01*
X34892857Y-346142857D01*
X34892857Y-344928571D01*
X35392857Y-344928571D02*
X36250000Y-344928571D01*
X35821428Y-346428571D02*
X35821428Y-344928571D01*
X9642857Y-343857142D02*
X9857142Y-343928571D01*
X10214285Y-343928571D01*
X10357142Y-343857142D01*
X10428571Y-343785714D01*
X10500000Y-343642857D01*
X10500000Y-343500000D01*
X10428571Y-343357142D01*
X10357142Y-343285714D01*
X10214285Y-343214285D01*
X9928571Y-343142857D01*
X9785714Y-343071428D01*
X9714285Y-343000000D01*
X9642857Y-342857142D01*
X9642857Y-342714285D01*
X9714285Y-342571428D01*
X9785714Y-342500000D01*
X9928571Y-342428571D01*
X10285714Y-342428571D01*
X10500000Y-342500000D01*
X10928571Y-342428571D02*
X11785714Y-342428571D01*
X11357142Y-343928571D02*
X11357142Y-342428571D01*
X12285714Y-343142857D02*
X12785714Y-343142857D01*
X13000000Y-343928571D02*
X12285714Y-343928571D01*
X12285714Y-342428571D01*
X13000000Y-342428571D01*
X13642857Y-343928571D02*
X13642857Y-342428571D01*
X14214285Y-342428571D01*
X14357142Y-342500000D01*
X14428571Y-342571428D01*
X14500000Y-342714285D01*
X14500000Y-342928571D01*
X14428571Y-343071428D01*
X14357142Y-343142857D01*
X14214285Y-343214285D01*
X13642857Y-343214285D01*
X15142857Y-343928571D02*
X15142857Y-342428571D01*
X15714285Y-342428571D01*
X15857142Y-342500000D01*
X15928571Y-342571428D01*
X16000000Y-342714285D01*
X16000000Y-342928571D01*
X15928571Y-343071428D01*
X15857142Y-343142857D01*
X15714285Y-343214285D01*
X15142857Y-343214285D01*
X16642857Y-343142857D02*
X17142857Y-343142857D01*
X17357142Y-343928571D02*
X16642857Y-343928571D01*
X16642857Y-342428571D01*
X17357142Y-342428571D01*
X18000000Y-343928571D02*
X18000000Y-342428571D01*
X18357142Y-342428571D01*
X18571428Y-342500000D01*
X18714285Y-342642857D01*
X18785714Y-342785714D01*
X18857142Y-343071428D01*
X18857142Y-343285714D01*
X18785714Y-343571428D01*
X18714285Y-343714285D01*
X18571428Y-343857142D01*
X18357142Y-343928571D01*
X18000000Y-343928571D01*
X12750000Y-344928571D02*
X13035714Y-344928571D01*
X13178571Y-345000000D01*
X13321428Y-345142857D01*
X13392857Y-345428571D01*
X13392857Y-345928571D01*
X13321428Y-346214285D01*
X13178571Y-346357142D01*
X13035714Y-346428571D01*
X12750000Y-346428571D01*
X12607142Y-346357142D01*
X12464285Y-346214285D01*
X12392857Y-345928571D01*
X12392857Y-345428571D01*
X12464285Y-345142857D01*
X12607142Y-345000000D01*
X12750000Y-344928571D01*
X14035714Y-344928571D02*
X14035714Y-346142857D01*
X14107142Y-346285714D01*
X14178571Y-346357142D01*
X14321428Y-346428571D01*
X14607142Y-346428571D01*
X14750000Y-346357142D01*
X14821428Y-346285714D01*
X14892857Y-346142857D01*
X14892857Y-344928571D01*
X15392857Y-344928571D02*
X16250000Y-344928571D01*
X15821428Y-346428571D02*
X15821428Y-344928571D01*
X30785714Y-326857142D02*
X31000000Y-326928571D01*
X31357142Y-326928571D01*
X31500000Y-326857142D01*
X31571428Y-326785714D01*
X31642857Y-326642857D01*
X31642857Y-326500000D01*
X31571428Y-326357142D01*
X31500000Y-326285714D01*
X31357142Y-326214285D01*
X31071428Y-326142857D01*
X30928571Y-326071428D01*
X30857142Y-326000000D01*
X30785714Y-325857142D01*
X30785714Y-325714285D01*
X30857142Y-325571428D01*
X30928571Y-325500000D01*
X31071428Y-325428571D01*
X31428571Y-325428571D01*
X31642857Y-325500000D01*
X32285714Y-326928571D02*
X32285714Y-325428571D01*
X32785714Y-326500000D01*
X33285714Y-325428571D01*
X33285714Y-326928571D01*
X34285714Y-325428571D02*
X34571428Y-325428571D01*
X34714285Y-325500000D01*
X34857142Y-325642857D01*
X34928571Y-325928571D01*
X34928571Y-326428571D01*
X34857142Y-326714285D01*
X34714285Y-326857142D01*
X34571428Y-326928571D01*
X34285714Y-326928571D01*
X34142857Y-326857142D01*
X34000000Y-326714285D01*
X33928571Y-326428571D01*
X33928571Y-325928571D01*
X34000000Y-325642857D01*
X34142857Y-325500000D01*
X34285714Y-325428571D01*
X35857142Y-325428571D02*
X36142857Y-325428571D01*
X36285714Y-325500000D01*
X36428571Y-325642857D01*
X36500000Y-325928571D01*
X36500000Y-326428571D01*
X36428571Y-326714285D01*
X36285714Y-326857142D01*
X36142857Y-326928571D01*
X35857142Y-326928571D01*
X35714285Y-326857142D01*
X35571428Y-326714285D01*
X35500000Y-326428571D01*
X35500000Y-325928571D01*
X35571428Y-325642857D01*
X35714285Y-325500000D01*
X35857142Y-325428571D01*
X36928571Y-325428571D02*
X37785714Y-325428571D01*
X37357142Y-326928571D02*
X37357142Y-325428571D01*
X38285714Y-326928571D02*
X38285714Y-325428571D01*
X38285714Y-326142857D02*
X39142857Y-326142857D01*
X39142857Y-326928571D02*
X39142857Y-325428571D01*
X33500000Y-327928571D02*
X33785714Y-327928571D01*
X33928571Y-328000000D01*
X34071428Y-328142857D01*
X34142857Y-328428571D01*
X34142857Y-328928571D01*
X34071428Y-329214285D01*
X33928571Y-329357142D01*
X33785714Y-329428571D01*
X33500000Y-329428571D01*
X33357142Y-329357142D01*
X33214285Y-329214285D01*
X33142857Y-328928571D01*
X33142857Y-328428571D01*
X33214285Y-328142857D01*
X33357142Y-328000000D01*
X33500000Y-327928571D01*
X34785714Y-327928571D02*
X34785714Y-329142857D01*
X34857142Y-329285714D01*
X34928571Y-329357142D01*
X35071428Y-329428571D01*
X35357142Y-329428571D01*
X35500000Y-329357142D01*
X35571428Y-329285714D01*
X35642857Y-329142857D01*
X35642857Y-327928571D01*
X36142857Y-327928571D02*
X37000000Y-327928571D01*
X36571428Y-329428571D02*
X36571428Y-327928571D01*
X22821428Y-329785714D02*
X22750000Y-329857142D01*
X22535714Y-329928571D01*
X22392857Y-329928571D01*
X22178571Y-329857142D01*
X22035714Y-329714285D01*
X21964285Y-329571428D01*
X21892857Y-329285714D01*
X21892857Y-329071428D01*
X21964285Y-328785714D01*
X22035714Y-328642857D01*
X22178571Y-328500000D01*
X22392857Y-328428571D01*
X22535714Y-328428571D01*
X22750000Y-328500000D01*
X22821428Y-328571428D01*
X24178571Y-329928571D02*
X23464285Y-329928571D01*
X23464285Y-328428571D01*
X24964285Y-328428571D02*
X25250000Y-328428571D01*
X25392857Y-328500000D01*
X25535714Y-328642857D01*
X25607142Y-328928571D01*
X25607142Y-329428571D01*
X25535714Y-329714285D01*
X25392857Y-329857142D01*
X25250000Y-329928571D01*
X24964285Y-329928571D01*
X24821428Y-329857142D01*
X24678571Y-329714285D01*
X24607142Y-329428571D01*
X24607142Y-328928571D01*
X24678571Y-328642857D01*
X24821428Y-328500000D01*
X24964285Y-328428571D01*
X27107142Y-329785714D02*
X27035714Y-329857142D01*
X26821428Y-329928571D01*
X26678571Y-329928571D01*
X26464285Y-329857142D01*
X26321428Y-329714285D01*
X26250000Y-329571428D01*
X26178571Y-329285714D01*
X26178571Y-329071428D01*
X26250000Y-328785714D01*
X26321428Y-328642857D01*
X26464285Y-328500000D01*
X26678571Y-328428571D01*
X26821428Y-328428571D01*
X27035714Y-328500000D01*
X27107142Y-328571428D01*
X27750000Y-329928571D02*
X27750000Y-328428571D01*
X28607142Y-329928571D02*
X27964285Y-329071428D01*
X28607142Y-328428571D02*
X27750000Y-329285714D01*
X10785714Y-327107142D02*
X11000000Y-327178571D01*
X11357142Y-327178571D01*
X11500000Y-327107142D01*
X11571428Y-327035714D01*
X11642857Y-326892857D01*
X11642857Y-326750000D01*
X11571428Y-326607142D01*
X11500000Y-326535714D01*
X11357142Y-326464285D01*
X11071428Y-326392857D01*
X10928571Y-326321428D01*
X10857142Y-326250000D01*
X10785714Y-326107142D01*
X10785714Y-325964285D01*
X10857142Y-325821428D01*
X10928571Y-325750000D01*
X11071428Y-325678571D01*
X11428571Y-325678571D01*
X11642857Y-325750000D01*
X12285714Y-327178571D02*
X12285714Y-325678571D01*
X12785714Y-326750000D01*
X13285714Y-325678571D01*
X13285714Y-327178571D01*
X14285714Y-325678571D02*
X14571428Y-325678571D01*
X14714285Y-325750000D01*
X14857142Y-325892857D01*
X14928571Y-326178571D01*
X14928571Y-326678571D01*
X14857142Y-326964285D01*
X14714285Y-327107142D01*
X14571428Y-327178571D01*
X14285714Y-327178571D01*
X14142857Y-327107142D01*
X14000000Y-326964285D01*
X13928571Y-326678571D01*
X13928571Y-326178571D01*
X14000000Y-325892857D01*
X14142857Y-325750000D01*
X14285714Y-325678571D01*
X15857142Y-325678571D02*
X16142857Y-325678571D01*
X16285714Y-325750000D01*
X16428571Y-325892857D01*
X16500000Y-326178571D01*
X16500000Y-326678571D01*
X16428571Y-326964285D01*
X16285714Y-327107142D01*
X16142857Y-327178571D01*
X15857142Y-327178571D01*
X15714285Y-327107142D01*
X15571428Y-326964285D01*
X15500000Y-326678571D01*
X15500000Y-326178571D01*
X15571428Y-325892857D01*
X15714285Y-325750000D01*
X15857142Y-325678571D01*
X16928571Y-325678571D02*
X17785714Y-325678571D01*
X17357142Y-327178571D02*
X17357142Y-325678571D01*
X18285714Y-327178571D02*
X18285714Y-325678571D01*
X18285714Y-326392857D02*
X19142857Y-326392857D01*
X19142857Y-327178571D02*
X19142857Y-325678571D01*
X13500000Y-328178571D02*
X13785714Y-328178571D01*
X13928571Y-328250000D01*
X14071428Y-328392857D01*
X14142857Y-328678571D01*
X14142857Y-329178571D01*
X14071428Y-329464285D01*
X13928571Y-329607142D01*
X13785714Y-329678571D01*
X13500000Y-329678571D01*
X13357142Y-329607142D01*
X13214285Y-329464285D01*
X13142857Y-329178571D01*
X13142857Y-328678571D01*
X13214285Y-328392857D01*
X13357142Y-328250000D01*
X13500000Y-328178571D01*
X14785714Y-328178571D02*
X14785714Y-329392857D01*
X14857142Y-329535714D01*
X14928571Y-329607142D01*
X15071428Y-329678571D01*
X15357142Y-329678571D01*
X15500000Y-329607142D01*
X15571428Y-329535714D01*
X15642857Y-329392857D01*
X15642857Y-328178571D01*
X16142857Y-328178571D02*
X17000000Y-328178571D01*
X16571428Y-329678571D02*
X16571428Y-328178571D01*
X2571428Y-329785714D02*
X2500000Y-329857142D01*
X2285714Y-329928571D01*
X2142857Y-329928571D01*
X1928571Y-329857142D01*
X1785714Y-329714285D01*
X1714285Y-329571428D01*
X1642857Y-329285714D01*
X1642857Y-329071428D01*
X1714285Y-328785714D01*
X1785714Y-328642857D01*
X1928571Y-328500000D01*
X2142857Y-328428571D01*
X2285714Y-328428571D01*
X2500000Y-328500000D01*
X2571428Y-328571428D01*
X3928571Y-329928571D02*
X3214285Y-329928571D01*
X3214285Y-328428571D01*
X4714285Y-328428571D02*
X5000000Y-328428571D01*
X5142857Y-328500000D01*
X5285714Y-328642857D01*
X5357142Y-328928571D01*
X5357142Y-329428571D01*
X5285714Y-329714285D01*
X5142857Y-329857142D01*
X5000000Y-329928571D01*
X4714285Y-329928571D01*
X4571428Y-329857142D01*
X4428571Y-329714285D01*
X4357142Y-329428571D01*
X4357142Y-328928571D01*
X4428571Y-328642857D01*
X4571428Y-328500000D01*
X4714285Y-328428571D01*
X6857142Y-329785714D02*
X6785714Y-329857142D01*
X6571428Y-329928571D01*
X6428571Y-329928571D01*
X6214285Y-329857142D01*
X6071428Y-329714285D01*
X6000000Y-329571428D01*
X5928571Y-329285714D01*
X5928571Y-329071428D01*
X6000000Y-328785714D01*
X6071428Y-328642857D01*
X6214285Y-328500000D01*
X6428571Y-328428571D01*
X6571428Y-328428571D01*
X6785714Y-328500000D01*
X6857142Y-328571428D01*
X7500000Y-329928571D02*
X7500000Y-328428571D01*
X8357142Y-329928571D02*
X7714285Y-329071428D01*
X8357142Y-328428571D02*
X7500000Y-329285714D01*
X4214285Y-312928571D02*
X4214285Y-311428571D01*
X4928571Y-312928571D02*
X4928571Y-311428571D01*
X5785714Y-312928571D01*
X5785714Y-311428571D01*
X24464285Y-312928571D02*
X24464285Y-311428571D01*
X25178571Y-312928571D02*
X25178571Y-311428571D01*
X26035714Y-312928571D01*
X26035714Y-311428571D01*
X30785714Y-310357142D02*
X31000000Y-310428571D01*
X31357142Y-310428571D01*
X31500000Y-310357142D01*
X31571428Y-310285714D01*
X31642857Y-310142857D01*
X31642857Y-310000000D01*
X31571428Y-309857142D01*
X31500000Y-309785714D01*
X31357142Y-309714285D01*
X31071428Y-309642857D01*
X30928571Y-309571428D01*
X30857142Y-309500000D01*
X30785714Y-309357142D01*
X30785714Y-309214285D01*
X30857142Y-309071428D01*
X30928571Y-309000000D01*
X31071428Y-308928571D01*
X31428571Y-308928571D01*
X31642857Y-309000000D01*
X32285714Y-310428571D02*
X32285714Y-308928571D01*
X32785714Y-310000000D01*
X33285714Y-308928571D01*
X33285714Y-310428571D01*
X34285714Y-308928571D02*
X34571428Y-308928571D01*
X34714285Y-309000000D01*
X34857142Y-309142857D01*
X34928571Y-309428571D01*
X34928571Y-309928571D01*
X34857142Y-310214285D01*
X34714285Y-310357142D01*
X34571428Y-310428571D01*
X34285714Y-310428571D01*
X34142857Y-310357142D01*
X34000000Y-310214285D01*
X33928571Y-309928571D01*
X33928571Y-309428571D01*
X34000000Y-309142857D01*
X34142857Y-309000000D01*
X34285714Y-308928571D01*
X35857142Y-308928571D02*
X36142857Y-308928571D01*
X36285714Y-309000000D01*
X36428571Y-309142857D01*
X36500000Y-309428571D01*
X36500000Y-309928571D01*
X36428571Y-310214285D01*
X36285714Y-310357142D01*
X36142857Y-310428571D01*
X35857142Y-310428571D01*
X35714285Y-310357142D01*
X35571428Y-310214285D01*
X35500000Y-309928571D01*
X35500000Y-309428571D01*
X35571428Y-309142857D01*
X35714285Y-309000000D01*
X35857142Y-308928571D01*
X36928571Y-308928571D02*
X37785714Y-308928571D01*
X37357142Y-310428571D02*
X37357142Y-308928571D01*
X38285714Y-310428571D02*
X38285714Y-308928571D01*
X38285714Y-309642857D02*
X39142857Y-309642857D01*
X39142857Y-310428571D02*
X39142857Y-308928571D01*
X34821428Y-312785714D02*
X34750000Y-312857142D01*
X34535714Y-312928571D01*
X34392857Y-312928571D01*
X34178571Y-312857142D01*
X34035714Y-312714285D01*
X33964285Y-312571428D01*
X33892857Y-312285714D01*
X33892857Y-312071428D01*
X33964285Y-311785714D01*
X34035714Y-311642857D01*
X34178571Y-311500000D01*
X34392857Y-311428571D01*
X34535714Y-311428571D01*
X34750000Y-311500000D01*
X34821428Y-311571428D01*
X35250000Y-311428571D02*
X35750000Y-312928571D01*
X36250000Y-311428571D01*
X10785714Y-309857142D02*
X11000000Y-309928571D01*
X11357142Y-309928571D01*
X11500000Y-309857142D01*
X11571428Y-309785714D01*
X11642857Y-309642857D01*
X11642857Y-309500000D01*
X11571428Y-309357142D01*
X11500000Y-309285714D01*
X11357142Y-309214285D01*
X11071428Y-309142857D01*
X10928571Y-309071428D01*
X10857142Y-309000000D01*
X10785714Y-308857142D01*
X10785714Y-308714285D01*
X10857142Y-308571428D01*
X10928571Y-308500000D01*
X11071428Y-308428571D01*
X11428571Y-308428571D01*
X11642857Y-308500000D01*
X12285714Y-309928571D02*
X12285714Y-308428571D01*
X12785714Y-309500000D01*
X13285714Y-308428571D01*
X13285714Y-309928571D01*
X14285714Y-308428571D02*
X14571428Y-308428571D01*
X14714285Y-308500000D01*
X14857142Y-308642857D01*
X14928571Y-308928571D01*
X14928571Y-309428571D01*
X14857142Y-309714285D01*
X14714285Y-309857142D01*
X14571428Y-309928571D01*
X14285714Y-309928571D01*
X14142857Y-309857142D01*
X14000000Y-309714285D01*
X13928571Y-309428571D01*
X13928571Y-308928571D01*
X14000000Y-308642857D01*
X14142857Y-308500000D01*
X14285714Y-308428571D01*
X15857142Y-308428571D02*
X16142857Y-308428571D01*
X16285714Y-308500000D01*
X16428571Y-308642857D01*
X16500000Y-308928571D01*
X16500000Y-309428571D01*
X16428571Y-309714285D01*
X16285714Y-309857142D01*
X16142857Y-309928571D01*
X15857142Y-309928571D01*
X15714285Y-309857142D01*
X15571428Y-309714285D01*
X15500000Y-309428571D01*
X15500000Y-308928571D01*
X15571428Y-308642857D01*
X15714285Y-308500000D01*
X15857142Y-308428571D01*
X16928571Y-308428571D02*
X17785714Y-308428571D01*
X17357142Y-309928571D02*
X17357142Y-308428571D01*
X18285714Y-309928571D02*
X18285714Y-308428571D01*
X18285714Y-309142857D02*
X19142857Y-309142857D01*
X19142857Y-309928571D02*
X19142857Y-308428571D01*
X14821428Y-312285714D02*
X14750000Y-312357142D01*
X14535714Y-312428571D01*
X14392857Y-312428571D01*
X14178571Y-312357142D01*
X14035714Y-312214285D01*
X13964285Y-312071428D01*
X13892857Y-311785714D01*
X13892857Y-311571428D01*
X13964285Y-311285714D01*
X14035714Y-311142857D01*
X14178571Y-311000000D01*
X14392857Y-310928571D01*
X14535714Y-310928571D01*
X14750000Y-311000000D01*
X14821428Y-311071428D01*
X15250000Y-310928571D02*
X15750000Y-312428571D01*
X16250000Y-310928571D01*
D11*
X29047619Y-286714285D02*
X28952380Y-286809523D01*
X28666666Y-286904761D01*
X28476190Y-286904761D01*
X28190476Y-286809523D01*
X28000000Y-286619047D01*
X27904761Y-286428571D01*
X27809523Y-286047619D01*
X27809523Y-285761904D01*
X27904761Y-285380952D01*
X28000000Y-285190476D01*
X28190476Y-285000000D01*
X28476190Y-284904761D01*
X28666666Y-284904761D01*
X28952380Y-285000000D01*
X29047619Y-285095238D01*
X29619047Y-284904761D02*
X30285714Y-286904761D01*
X30952380Y-284904761D01*
X33047619Y-285095238D02*
X33142857Y-285000000D01*
X33333333Y-284904761D01*
X33809523Y-284904761D01*
X34000000Y-285000000D01*
X34095238Y-285095238D01*
X34190476Y-285285714D01*
X34190476Y-285476190D01*
X34095238Y-285761904D01*
X32952380Y-286904761D01*
X34190476Y-286904761D01*
X6797619Y-286714285D02*
X6702380Y-286809523D01*
X6416666Y-286904761D01*
X6226190Y-286904761D01*
X5940476Y-286809523D01*
X5750000Y-286619047D01*
X5654761Y-286428571D01*
X5559523Y-286047619D01*
X5559523Y-285761904D01*
X5654761Y-285380952D01*
X5750000Y-285190476D01*
X5940476Y-285000000D01*
X6226190Y-284904761D01*
X6416666Y-284904761D01*
X6702380Y-285000000D01*
X6797619Y-285095238D01*
X7369047Y-284904761D02*
X8035714Y-286904761D01*
X8702380Y-284904761D01*
X11940476Y-286904761D02*
X10797619Y-286904761D01*
X11369047Y-286904761D02*
X11369047Y-284904761D01*
X11178571Y-285190476D01*
X10988095Y-285380952D01*
X10797619Y-285476190D01*
X22666666Y-266559523D02*
X22952380Y-266654761D01*
X23428571Y-266654761D01*
X23619047Y-266559523D01*
X23714285Y-266464285D01*
X23809523Y-266273809D01*
X23809523Y-266083333D01*
X23714285Y-265892857D01*
X23619047Y-265797619D01*
X23428571Y-265702380D01*
X23047619Y-265607142D01*
X22857142Y-265511904D01*
X22761904Y-265416666D01*
X22666666Y-265226190D01*
X22666666Y-265035714D01*
X22761904Y-264845238D01*
X22857142Y-264750000D01*
X23047619Y-264654761D01*
X23523809Y-264654761D01*
X23809523Y-264750000D01*
X24666666Y-266654761D02*
X24666666Y-264654761D01*
X25333333Y-266083333D01*
X26000000Y-264654761D01*
X26000000Y-266654761D01*
X27333333Y-264654761D02*
X27714285Y-264654761D01*
X27904761Y-264750000D01*
X28095238Y-264940476D01*
X28190476Y-265321428D01*
X28190476Y-265988095D01*
X28095238Y-266369047D01*
X27904761Y-266559523D01*
X27714285Y-266654761D01*
X27333333Y-266654761D01*
X27142857Y-266559523D01*
X26952380Y-266369047D01*
X26857142Y-265988095D01*
X26857142Y-265321428D01*
X26952380Y-264940476D01*
X27142857Y-264750000D01*
X27333333Y-264654761D01*
X29428571Y-264654761D02*
X29809523Y-264654761D01*
X30000000Y-264750000D01*
X30190476Y-264940476D01*
X30285714Y-265321428D01*
X30285714Y-265988095D01*
X30190476Y-266369047D01*
X30000000Y-266559523D01*
X29809523Y-266654761D01*
X29428571Y-266654761D01*
X29238095Y-266559523D01*
X29047619Y-266369047D01*
X28952380Y-265988095D01*
X28952380Y-265321428D01*
X29047619Y-264940476D01*
X29238095Y-264750000D01*
X29428571Y-264654761D01*
X30857142Y-264654761D02*
X32000000Y-264654761D01*
X31428571Y-266654761D02*
X31428571Y-264654761D01*
X32666666Y-266654761D02*
X32666666Y-264654761D01*
X32666666Y-265607142D02*
X33809523Y-265607142D01*
X33809523Y-266654761D02*
X33809523Y-264654761D01*
X36190476Y-264845238D02*
X36285714Y-264750000D01*
X36476190Y-264654761D01*
X36952380Y-264654761D01*
X37142857Y-264750000D01*
X37238095Y-264845238D01*
X37333333Y-265035714D01*
X37333333Y-265226190D01*
X37238095Y-265511904D01*
X36095238Y-266654761D01*
X37333333Y-266654761D01*
X2166666Y-266559523D02*
X2452380Y-266654761D01*
X2928571Y-266654761D01*
X3119047Y-266559523D01*
X3214285Y-266464285D01*
X3309523Y-266273809D01*
X3309523Y-266083333D01*
X3214285Y-265892857D01*
X3119047Y-265797619D01*
X2928571Y-265702380D01*
X2547619Y-265607142D01*
X2357142Y-265511904D01*
X2261904Y-265416666D01*
X2166666Y-265226190D01*
X2166666Y-265035714D01*
X2261904Y-264845238D01*
X2357142Y-264750000D01*
X2547619Y-264654761D01*
X3023809Y-264654761D01*
X3309523Y-264750000D01*
X4166666Y-266654761D02*
X4166666Y-264654761D01*
X4833333Y-266083333D01*
X5500000Y-264654761D01*
X5500000Y-266654761D01*
X6833333Y-264654761D02*
X7214285Y-264654761D01*
X7404761Y-264750000D01*
X7595238Y-264940476D01*
X7690476Y-265321428D01*
X7690476Y-265988095D01*
X7595238Y-266369047D01*
X7404761Y-266559523D01*
X7214285Y-266654761D01*
X6833333Y-266654761D01*
X6642857Y-266559523D01*
X6452380Y-266369047D01*
X6357142Y-265988095D01*
X6357142Y-265321428D01*
X6452380Y-264940476D01*
X6642857Y-264750000D01*
X6833333Y-264654761D01*
X8928571Y-264654761D02*
X9309523Y-264654761D01*
X9500000Y-264750000D01*
X9690476Y-264940476D01*
X9785714Y-265321428D01*
X9785714Y-265988095D01*
X9690476Y-266369047D01*
X9500000Y-266559523D01*
X9309523Y-266654761D01*
X8928571Y-266654761D01*
X8738095Y-266559523D01*
X8547619Y-266369047D01*
X8452380Y-265988095D01*
X8452380Y-265321428D01*
X8547619Y-264940476D01*
X8738095Y-264750000D01*
X8928571Y-264654761D01*
X10357142Y-264654761D02*
X11500000Y-264654761D01*
X10928571Y-266654761D02*
X10928571Y-264654761D01*
X12166666Y-266654761D02*
X12166666Y-264654761D01*
X12166666Y-265607142D02*
X13309523Y-265607142D01*
X13309523Y-266654761D02*
X13309523Y-264654761D01*
X16833333Y-266654761D02*
X15690476Y-266654761D01*
X16261904Y-266654761D02*
X16261904Y-264654761D01*
X16071428Y-264940476D01*
X15880952Y-265130952D01*
X15690476Y-265226190D01*
D12*
X11071428Y-253505952D02*
X11071428Y-251005952D01*
X11071428Y-252196428D02*
X12500000Y-252196428D01*
X12500000Y-253505952D02*
X12500000Y-251005952D01*
X13690476Y-252196428D02*
X14523809Y-252196428D01*
X14880952Y-253505952D02*
X13690476Y-253505952D01*
X13690476Y-251005952D01*
X14880952Y-251005952D01*
X17142857Y-253505952D02*
X15952380Y-253505952D01*
X15952380Y-251005952D01*
X17619047Y-251005952D02*
X18452380Y-253505952D01*
X19285714Y-251005952D01*
X20119047Y-252196428D02*
X20952380Y-252196428D01*
X21309523Y-253505952D02*
X20119047Y-253505952D01*
X20119047Y-251005952D01*
X21309523Y-251005952D01*
X22023809Y-251005952D02*
X23452380Y-251005952D01*
X22738095Y-253505952D02*
X22738095Y-251005952D01*
X24285714Y-253505952D02*
X24285714Y-251005952D01*
X26904761Y-253267857D02*
X26785714Y-253386904D01*
X26428571Y-253505952D01*
X26190476Y-253505952D01*
X25833333Y-253386904D01*
X25595238Y-253148809D01*
X25476190Y-252910714D01*
X25357142Y-252434523D01*
X25357142Y-252077380D01*
X25476190Y-251601190D01*
X25595238Y-251363095D01*
X25833333Y-251125000D01*
X26190476Y-251005952D01*
X26428571Y-251005952D01*
X26785714Y-251125000D01*
X26904761Y-251244047D01*
X27857142Y-252791666D02*
X29047619Y-252791666D01*
X27619047Y-253505952D02*
X28452380Y-251005952D01*
X29285714Y-253505952D01*
X11369047Y-257636904D02*
X11726190Y-257755952D01*
X12321428Y-257755952D01*
X12559523Y-257636904D01*
X12678571Y-257517857D01*
X12797619Y-257279761D01*
X12797619Y-257041666D01*
X12678571Y-256803571D01*
X12559523Y-256684523D01*
X12321428Y-256565476D01*
X11845238Y-256446428D01*
X11607142Y-256327380D01*
X11488095Y-256208333D01*
X11369047Y-255970238D01*
X11369047Y-255732142D01*
X11488095Y-255494047D01*
X11607142Y-255375000D01*
X11845238Y-255255952D01*
X12440476Y-255255952D01*
X12797619Y-255375000D01*
X15297619Y-257517857D02*
X15178571Y-257636904D01*
X14821428Y-257755952D01*
X14583333Y-257755952D01*
X14226190Y-257636904D01*
X13988095Y-257398809D01*
X13869047Y-257160714D01*
X13750000Y-256684523D01*
X13750000Y-256327380D01*
X13869047Y-255851190D01*
X13988095Y-255613095D01*
X14226190Y-255375000D01*
X14583333Y-255255952D01*
X14821428Y-255255952D01*
X15178571Y-255375000D01*
X15297619Y-255494047D01*
X16369047Y-256446428D02*
X17202380Y-256446428D01*
X17559523Y-257755952D02*
X16369047Y-257755952D01*
X16369047Y-255255952D01*
X17559523Y-255255952D01*
X18630952Y-257755952D02*
X18630952Y-255255952D01*
X20059523Y-257755952D01*
X20059523Y-255255952D01*
X21130952Y-257041666D02*
X22321428Y-257041666D01*
X20892857Y-257755952D02*
X21726190Y-255255952D01*
X22559523Y-257755952D01*
X24821428Y-257755952D02*
X23988095Y-256565476D01*
X23392857Y-257755952D02*
X23392857Y-255255952D01*
X24345238Y-255255952D01*
X24583333Y-255375000D01*
X24702380Y-255494047D01*
X24821428Y-255732142D01*
X24821428Y-256089285D01*
X24702380Y-256327380D01*
X24583333Y-256446428D01*
X24345238Y-256565476D01*
X23392857Y-256565476D01*
X25892857Y-257755952D02*
X25892857Y-255255952D01*
X27559523Y-255255952D02*
X28035714Y-255255952D01*
X28273809Y-255375000D01*
X28511904Y-255613095D01*
X28630952Y-256089285D01*
X28630952Y-256922619D01*
X28511904Y-257398809D01*
X28273809Y-257636904D01*
X28035714Y-257755952D01*
X27559523Y-257755952D01*
X27321428Y-257636904D01*
X27083333Y-257398809D01*
X26964285Y-256922619D01*
X26964285Y-256089285D01*
X27083333Y-255613095D01*
X27321428Y-255375000D01*
X27559523Y-255255952D01*
M02*
