G04 #@! TF.GenerationSoftware,KiCad,Pcbnew,(5.1.5-0)*
G04 #@! TF.CreationDate,2021-01-12T22:30:33-08:00*
G04 #@! TF.ProjectId,helveticascenario,68656c76-6574-4696-9361-7363656e6172,rev?*
G04 #@! TF.SameCoordinates,Original*
G04 #@! TF.FileFunction,Soldermask,Bot*
G04 #@! TF.FilePolarity,Negative*
%FSLAX46Y46*%
G04 Gerber Fmt 4.6, Leading zero omitted, Abs format (unit mm)*
G04 Created by KiCad (PCBNEW (5.1.5-0)) date 2021-01-12 22:30:33*
%MOMM*%
%LPD*%
G04 APERTURE LIST*
%ADD10C,0.150000*%
%ADD11C,1.000000*%
%ADD12C,0.100000*%
G04 APERTURE END LIST*
D10*
X23226190Y-371702380D02*
X23226190Y-371035714D01*
X23226190Y-371226190D02*
X23178571Y-371130952D01*
X23130952Y-371083333D01*
X23035714Y-371035714D01*
X22940476Y-371035714D01*
X22226190Y-371654761D02*
X22321428Y-371702380D01*
X22511904Y-371702380D01*
X22607142Y-371654761D01*
X22654761Y-371559523D01*
X22654761Y-371178571D01*
X22607142Y-371083333D01*
X22511904Y-371035714D01*
X22321428Y-371035714D01*
X22226190Y-371083333D01*
X22178571Y-371178571D01*
X22178571Y-371273809D01*
X22654761Y-371369047D01*
X21750000Y-371035714D02*
X21750000Y-372035714D01*
X21750000Y-371083333D02*
X21654761Y-371035714D01*
X21464285Y-371035714D01*
X21369047Y-371083333D01*
X21321428Y-371130952D01*
X21273809Y-371226190D01*
X21273809Y-371511904D01*
X21321428Y-371607142D01*
X21369047Y-371654761D01*
X21464285Y-371702380D01*
X21654761Y-371702380D01*
X21750000Y-371654761D01*
X20416666Y-371702380D02*
X20416666Y-371178571D01*
X20464285Y-371083333D01*
X20559523Y-371035714D01*
X20750000Y-371035714D01*
X20845238Y-371083333D01*
X20416666Y-371654761D02*
X20511904Y-371702380D01*
X20750000Y-371702380D01*
X20845238Y-371654761D01*
X20892857Y-371559523D01*
X20892857Y-371464285D01*
X20845238Y-371369047D01*
X20750000Y-371321428D01*
X20511904Y-371321428D01*
X20416666Y-371273809D01*
X19940476Y-371035714D02*
X19940476Y-371702380D01*
X19940476Y-371130952D02*
X19892857Y-371083333D01*
X19797619Y-371035714D01*
X19654761Y-371035714D01*
X19559523Y-371083333D01*
X19511904Y-371178571D01*
X19511904Y-371702380D01*
X18654761Y-371654761D02*
X18750000Y-371702380D01*
X18940476Y-371702380D01*
X19035714Y-371654761D01*
X19083333Y-371559523D01*
X19083333Y-371178571D01*
X19035714Y-371083333D01*
X18940476Y-371035714D01*
X18750000Y-371035714D01*
X18654761Y-371083333D01*
X18607142Y-371178571D01*
X18607142Y-371273809D01*
X19083333Y-371369047D01*
X18035714Y-371702380D02*
X18130952Y-371654761D01*
X18178571Y-371559523D01*
X18178571Y-370702380D01*
X16892857Y-371702380D02*
X16892857Y-370702380D01*
X16892857Y-371083333D02*
X16797619Y-371035714D01*
X16607142Y-371035714D01*
X16511904Y-371083333D01*
X16464285Y-371130952D01*
X16416666Y-371226190D01*
X16416666Y-371511904D01*
X16464285Y-371607142D01*
X16511904Y-371654761D01*
X16607142Y-371702380D01*
X16797619Y-371702380D01*
X16892857Y-371654761D01*
X16083333Y-371035714D02*
X15845238Y-371702380D01*
X15607142Y-371035714D02*
X15845238Y-371702380D01*
X15940476Y-371940476D01*
X15988095Y-371988095D01*
X16083333Y-372035714D01*
X14464285Y-371035714D02*
X14464285Y-371892857D01*
X14511904Y-371988095D01*
X14607142Y-372035714D01*
X14654761Y-372035714D01*
X14464285Y-370702380D02*
X14511904Y-370750000D01*
X14464285Y-370797619D01*
X14416666Y-370750000D01*
X14464285Y-370702380D01*
X14464285Y-370797619D01*
X13559523Y-371702380D02*
X13559523Y-371178571D01*
X13607142Y-371083333D01*
X13702380Y-371035714D01*
X13892857Y-371035714D01*
X13988095Y-371083333D01*
X13559523Y-371654761D02*
X13654761Y-371702380D01*
X13892857Y-371702380D01*
X13988095Y-371654761D01*
X14035714Y-371559523D01*
X14035714Y-371464285D01*
X13988095Y-371369047D01*
X13892857Y-371321428D01*
X13654761Y-371321428D01*
X13559523Y-371273809D01*
X12654761Y-371654761D02*
X12750000Y-371702380D01*
X12940476Y-371702380D01*
X13035714Y-371654761D01*
X13083333Y-371607142D01*
X13130952Y-371511904D01*
X13130952Y-371226190D01*
X13083333Y-371130952D01*
X13035714Y-371083333D01*
X12940476Y-371035714D01*
X12750000Y-371035714D01*
X12654761Y-371083333D01*
X12226190Y-371702380D02*
X12226190Y-370702380D01*
X12130952Y-371321428D02*
X11845238Y-371702380D01*
X11845238Y-371035714D02*
X12226190Y-371416666D01*
X10702380Y-371654761D02*
X10607142Y-371702380D01*
X10416666Y-371702380D01*
X10321428Y-371654761D01*
X10273809Y-371559523D01*
X10273809Y-371511904D01*
X10321428Y-371416666D01*
X10416666Y-371369047D01*
X10559523Y-371369047D01*
X10654761Y-371321428D01*
X10702380Y-371226190D01*
X10702380Y-371178571D01*
X10654761Y-371083333D01*
X10559523Y-371035714D01*
X10416666Y-371035714D01*
X10321428Y-371083333D01*
X9845238Y-371607142D02*
X9797619Y-371654761D01*
X9845238Y-371702380D01*
X9892857Y-371654761D01*
X9845238Y-371607142D01*
X9845238Y-371702380D01*
X8654761Y-370797619D02*
X8607142Y-370750000D01*
X8511904Y-370702380D01*
X8273809Y-370702380D01*
X8178571Y-370750000D01*
X8130952Y-370797619D01*
X8083333Y-370892857D01*
X8083333Y-370988095D01*
X8130952Y-371130952D01*
X8702380Y-371702380D01*
X8083333Y-371702380D01*
X7464285Y-370702380D02*
X7369047Y-370702380D01*
X7273809Y-370750000D01*
X7226190Y-370797619D01*
X7178571Y-370892857D01*
X7130952Y-371083333D01*
X7130952Y-371321428D01*
X7178571Y-371511904D01*
X7226190Y-371607142D01*
X7273809Y-371654761D01*
X7369047Y-371702380D01*
X7464285Y-371702380D01*
X7559523Y-371654761D01*
X7607142Y-371607142D01*
X7654761Y-371511904D01*
X7702380Y-371321428D01*
X7702380Y-371083333D01*
X7654761Y-370892857D01*
X7607142Y-370797619D01*
X7559523Y-370750000D01*
X7464285Y-370702380D01*
X6750000Y-370797619D02*
X6702380Y-370750000D01*
X6607142Y-370702380D01*
X6369047Y-370702380D01*
X6273809Y-370750000D01*
X6226190Y-370797619D01*
X6178571Y-370892857D01*
X6178571Y-370988095D01*
X6226190Y-371130952D01*
X6797619Y-371702380D01*
X6178571Y-371702380D01*
X5226190Y-371702380D02*
X5797619Y-371702380D01*
X5511904Y-371702380D02*
X5511904Y-370702380D01*
X5607142Y-370845238D01*
X5702380Y-370940476D01*
X5797619Y-370988095D01*
D11*
X8550000Y-353250000D02*
G75*
G03X8550000Y-353250000I-3550000J0D01*
G01*
X18550000Y-353250000D02*
G75*
G03X18550000Y-353250000I-3550000J0D01*
G01*
X28800000Y-353250000D02*
G75*
G03X28800000Y-353250000I-3550000J0D01*
G01*
X38550000Y-353250000D02*
G75*
G03X38550000Y-353250000I-3550000J0D01*
G01*
X38550000Y-336250000D02*
G75*
G03X38550000Y-336250000I-3550000J0D01*
G01*
X18500000Y-336250000D02*
G75*
G03X18500000Y-336250000I-3550000J0D01*
G01*
X28800000Y-336250000D02*
G75*
G03X28800000Y-336250000I-3550000J0D01*
G01*
X8600000Y-336250000D02*
G75*
G03X8600000Y-336250000I-3550000J0D01*
G01*
X38550000Y-319500000D02*
G75*
G03X38550000Y-319500000I-3550000J0D01*
G01*
X28750000Y-319500000D02*
G75*
G03X28750000Y-319500000I-3550000J0D01*
G01*
X18500000Y-319500000D02*
G75*
G03X18500000Y-319500000I-3550000J0D01*
G01*
X8550000Y-319500000D02*
G75*
G03X8550000Y-319500000I-3550000J0D01*
G01*
D12*
G36*
X35604975Y-350208585D02*
G01*
X35904528Y-350268170D01*
X36468874Y-350501930D01*
X36976772Y-350841296D01*
X37408704Y-351273228D01*
X37748070Y-351781126D01*
X37981830Y-352345472D01*
X38101000Y-352944578D01*
X38101000Y-353555422D01*
X37981830Y-354154528D01*
X37748070Y-354718874D01*
X37408704Y-355226772D01*
X36976772Y-355658704D01*
X36468874Y-355998070D01*
X35904528Y-356231830D01*
X35604975Y-356291415D01*
X35305423Y-356351000D01*
X34694577Y-356351000D01*
X34395025Y-356291415D01*
X34095472Y-356231830D01*
X33531126Y-355998070D01*
X33023228Y-355658704D01*
X32591296Y-355226772D01*
X32251930Y-354718874D01*
X32018170Y-354154528D01*
X31899000Y-353555422D01*
X31899000Y-352944578D01*
X32018170Y-352345472D01*
X32251930Y-351781126D01*
X32591296Y-351273228D01*
X33023228Y-350841296D01*
X33531126Y-350501930D01*
X34095472Y-350268170D01*
X34395025Y-350208585D01*
X34694577Y-350149000D01*
X35305423Y-350149000D01*
X35604975Y-350208585D01*
G37*
G36*
X25854975Y-350208585D02*
G01*
X26154528Y-350268170D01*
X26718874Y-350501930D01*
X27226772Y-350841296D01*
X27658704Y-351273228D01*
X27998070Y-351781126D01*
X28231830Y-352345472D01*
X28351000Y-352944578D01*
X28351000Y-353555422D01*
X28231830Y-354154528D01*
X27998070Y-354718874D01*
X27658704Y-355226772D01*
X27226772Y-355658704D01*
X26718874Y-355998070D01*
X26154528Y-356231830D01*
X25854975Y-356291415D01*
X25555423Y-356351000D01*
X24944577Y-356351000D01*
X24645025Y-356291415D01*
X24345472Y-356231830D01*
X23781126Y-355998070D01*
X23273228Y-355658704D01*
X22841296Y-355226772D01*
X22501930Y-354718874D01*
X22268170Y-354154528D01*
X22149000Y-353555422D01*
X22149000Y-352944578D01*
X22268170Y-352345472D01*
X22501930Y-351781126D01*
X22841296Y-351273228D01*
X23273228Y-350841296D01*
X23781126Y-350501930D01*
X24345472Y-350268170D01*
X24645025Y-350208585D01*
X24944577Y-350149000D01*
X25555423Y-350149000D01*
X25854975Y-350208585D01*
G37*
G36*
X15604975Y-350208585D02*
G01*
X15904528Y-350268170D01*
X16468874Y-350501930D01*
X16976772Y-350841296D01*
X17408704Y-351273228D01*
X17748070Y-351781126D01*
X17981830Y-352345472D01*
X18101000Y-352944578D01*
X18101000Y-353555422D01*
X17981830Y-354154528D01*
X17748070Y-354718874D01*
X17408704Y-355226772D01*
X16976772Y-355658704D01*
X16468874Y-355998070D01*
X15904528Y-356231830D01*
X15604975Y-356291415D01*
X15305423Y-356351000D01*
X14694577Y-356351000D01*
X14395025Y-356291415D01*
X14095472Y-356231830D01*
X13531126Y-355998070D01*
X13023228Y-355658704D01*
X12591296Y-355226772D01*
X12251930Y-354718874D01*
X12018170Y-354154528D01*
X11899000Y-353555422D01*
X11899000Y-352944578D01*
X12018170Y-352345472D01*
X12251930Y-351781126D01*
X12591296Y-351273228D01*
X13023228Y-350841296D01*
X13531126Y-350501930D01*
X14095472Y-350268170D01*
X14395025Y-350208585D01*
X14694577Y-350149000D01*
X15305423Y-350149000D01*
X15604975Y-350208585D01*
G37*
G36*
X5604975Y-350208585D02*
G01*
X5904528Y-350268170D01*
X6468874Y-350501930D01*
X6976772Y-350841296D01*
X7408704Y-351273228D01*
X7748070Y-351781126D01*
X7981830Y-352345472D01*
X8101000Y-352944578D01*
X8101000Y-353555422D01*
X7981830Y-354154528D01*
X7748070Y-354718874D01*
X7408704Y-355226772D01*
X6976772Y-355658704D01*
X6468874Y-355998070D01*
X5904528Y-356231830D01*
X5604975Y-356291415D01*
X5305423Y-356351000D01*
X4694577Y-356351000D01*
X4395025Y-356291415D01*
X4095472Y-356231830D01*
X3531126Y-355998070D01*
X3023228Y-355658704D01*
X2591296Y-355226772D01*
X2251930Y-354718874D01*
X2018170Y-354154528D01*
X1899000Y-353555422D01*
X1899000Y-352944578D01*
X2018170Y-352345472D01*
X2251930Y-351781126D01*
X2591296Y-351273228D01*
X3023228Y-350841296D01*
X3531126Y-350501930D01*
X4095472Y-350268170D01*
X4395025Y-350208585D01*
X4694577Y-350149000D01*
X5305423Y-350149000D01*
X5604975Y-350208585D01*
G37*
G36*
X35604975Y-333208585D02*
G01*
X35904528Y-333268170D01*
X36468874Y-333501930D01*
X36976772Y-333841296D01*
X37408704Y-334273228D01*
X37748070Y-334781126D01*
X37981830Y-335345472D01*
X38101000Y-335944578D01*
X38101000Y-336555422D01*
X37981830Y-337154528D01*
X37748070Y-337718874D01*
X37408704Y-338226772D01*
X36976772Y-338658704D01*
X36468874Y-338998070D01*
X35904528Y-339231830D01*
X35604975Y-339291415D01*
X35305423Y-339351000D01*
X34694577Y-339351000D01*
X34395025Y-339291415D01*
X34095472Y-339231830D01*
X33531126Y-338998070D01*
X33023228Y-338658704D01*
X32591296Y-338226772D01*
X32251930Y-337718874D01*
X32018170Y-337154528D01*
X31899000Y-336555422D01*
X31899000Y-335944578D01*
X32018170Y-335345472D01*
X32251930Y-334781126D01*
X32591296Y-334273228D01*
X33023228Y-333841296D01*
X33531126Y-333501930D01*
X34095472Y-333268170D01*
X34395025Y-333208585D01*
X34694577Y-333149000D01*
X35305423Y-333149000D01*
X35604975Y-333208585D01*
G37*
G36*
X25854975Y-333208585D02*
G01*
X26154528Y-333268170D01*
X26718874Y-333501930D01*
X27226772Y-333841296D01*
X27658704Y-334273228D01*
X27998070Y-334781126D01*
X28231830Y-335345472D01*
X28351000Y-335944578D01*
X28351000Y-336555422D01*
X28231830Y-337154528D01*
X27998070Y-337718874D01*
X27658704Y-338226772D01*
X27226772Y-338658704D01*
X26718874Y-338998070D01*
X26154528Y-339231830D01*
X25854975Y-339291415D01*
X25555423Y-339351000D01*
X24944577Y-339351000D01*
X24645025Y-339291415D01*
X24345472Y-339231830D01*
X23781126Y-338998070D01*
X23273228Y-338658704D01*
X22841296Y-338226772D01*
X22501930Y-337718874D01*
X22268170Y-337154528D01*
X22149000Y-336555422D01*
X22149000Y-335944578D01*
X22268170Y-335345472D01*
X22501930Y-334781126D01*
X22841296Y-334273228D01*
X23273228Y-333841296D01*
X23781126Y-333501930D01*
X24345472Y-333268170D01*
X24645025Y-333208585D01*
X24944577Y-333149000D01*
X25555423Y-333149000D01*
X25854975Y-333208585D01*
G37*
G36*
X15604975Y-333208585D02*
G01*
X15904528Y-333268170D01*
X16468874Y-333501930D01*
X16976772Y-333841296D01*
X17408704Y-334273228D01*
X17748070Y-334781126D01*
X17981830Y-335345472D01*
X18101000Y-335944578D01*
X18101000Y-336555422D01*
X17981830Y-337154528D01*
X17748070Y-337718874D01*
X17408704Y-338226772D01*
X16976772Y-338658704D01*
X16468874Y-338998070D01*
X15904528Y-339231830D01*
X15604975Y-339291415D01*
X15305423Y-339351000D01*
X14694577Y-339351000D01*
X14395025Y-339291415D01*
X14095472Y-339231830D01*
X13531126Y-338998070D01*
X13023228Y-338658704D01*
X12591296Y-338226772D01*
X12251930Y-337718874D01*
X12018170Y-337154528D01*
X11899000Y-336555422D01*
X11899000Y-335944578D01*
X12018170Y-335345472D01*
X12251930Y-334781126D01*
X12591296Y-334273228D01*
X13023228Y-333841296D01*
X13531126Y-333501930D01*
X14095472Y-333268170D01*
X14395025Y-333208585D01*
X14694577Y-333149000D01*
X15305423Y-333149000D01*
X15604975Y-333208585D01*
G37*
G36*
X5604975Y-333208585D02*
G01*
X5904528Y-333268170D01*
X6468874Y-333501930D01*
X6976772Y-333841296D01*
X7408704Y-334273228D01*
X7748070Y-334781126D01*
X7981830Y-335345472D01*
X8101000Y-335944578D01*
X8101000Y-336555422D01*
X7981830Y-337154528D01*
X7748070Y-337718874D01*
X7408704Y-338226772D01*
X6976772Y-338658704D01*
X6468874Y-338998070D01*
X5904528Y-339231830D01*
X5604975Y-339291415D01*
X5305423Y-339351000D01*
X4694577Y-339351000D01*
X4395025Y-339291415D01*
X4095472Y-339231830D01*
X3531126Y-338998070D01*
X3023228Y-338658704D01*
X2591296Y-338226772D01*
X2251930Y-337718874D01*
X2018170Y-337154528D01*
X1899000Y-336555422D01*
X1899000Y-335944578D01*
X2018170Y-335345472D01*
X2251930Y-334781126D01*
X2591296Y-334273228D01*
X3023228Y-333841296D01*
X3531126Y-333501930D01*
X4095472Y-333268170D01*
X4395025Y-333208585D01*
X4694577Y-333149000D01*
X5305423Y-333149000D01*
X5604975Y-333208585D01*
G37*
G36*
X35604975Y-316458585D02*
G01*
X35904528Y-316518170D01*
X36468874Y-316751930D01*
X36976772Y-317091296D01*
X37408704Y-317523228D01*
X37748070Y-318031126D01*
X37981830Y-318595472D01*
X38101000Y-319194578D01*
X38101000Y-319805422D01*
X37981830Y-320404528D01*
X37748070Y-320968874D01*
X37408704Y-321476772D01*
X36976772Y-321908704D01*
X36468874Y-322248070D01*
X35904528Y-322481830D01*
X35604975Y-322541415D01*
X35305423Y-322601000D01*
X34694577Y-322601000D01*
X34395025Y-322541415D01*
X34095472Y-322481830D01*
X33531126Y-322248070D01*
X33023228Y-321908704D01*
X32591296Y-321476772D01*
X32251930Y-320968874D01*
X32018170Y-320404528D01*
X31899000Y-319805422D01*
X31899000Y-319194578D01*
X32018170Y-318595472D01*
X32251930Y-318031126D01*
X32591296Y-317523228D01*
X33023228Y-317091296D01*
X33531126Y-316751930D01*
X34095472Y-316518170D01*
X34395025Y-316458585D01*
X34694577Y-316399000D01*
X35305423Y-316399000D01*
X35604975Y-316458585D01*
G37*
G36*
X25854975Y-316458585D02*
G01*
X26154528Y-316518170D01*
X26718874Y-316751930D01*
X27226772Y-317091296D01*
X27658704Y-317523228D01*
X27998070Y-318031126D01*
X28231830Y-318595472D01*
X28351000Y-319194578D01*
X28351000Y-319805422D01*
X28231830Y-320404528D01*
X27998070Y-320968874D01*
X27658704Y-321476772D01*
X27226772Y-321908704D01*
X26718874Y-322248070D01*
X26154528Y-322481830D01*
X25854975Y-322541415D01*
X25555423Y-322601000D01*
X24944577Y-322601000D01*
X24645025Y-322541415D01*
X24345472Y-322481830D01*
X23781126Y-322248070D01*
X23273228Y-321908704D01*
X22841296Y-321476772D01*
X22501930Y-320968874D01*
X22268170Y-320404528D01*
X22149000Y-319805422D01*
X22149000Y-319194578D01*
X22268170Y-318595472D01*
X22501930Y-318031126D01*
X22841296Y-317523228D01*
X23273228Y-317091296D01*
X23781126Y-316751930D01*
X24345472Y-316518170D01*
X24645025Y-316458585D01*
X24944577Y-316399000D01*
X25555423Y-316399000D01*
X25854975Y-316458585D01*
G37*
G36*
X15604975Y-316458585D02*
G01*
X15904528Y-316518170D01*
X16468874Y-316751930D01*
X16976772Y-317091296D01*
X17408704Y-317523228D01*
X17748070Y-318031126D01*
X17981830Y-318595472D01*
X18101000Y-319194578D01*
X18101000Y-319805422D01*
X17981830Y-320404528D01*
X17748070Y-320968874D01*
X17408704Y-321476772D01*
X16976772Y-321908704D01*
X16468874Y-322248070D01*
X15904528Y-322481830D01*
X15604975Y-322541415D01*
X15305423Y-322601000D01*
X14694577Y-322601000D01*
X14395025Y-322541415D01*
X14095472Y-322481830D01*
X13531126Y-322248070D01*
X13023228Y-321908704D01*
X12591296Y-321476772D01*
X12251930Y-320968874D01*
X12018170Y-320404528D01*
X11899000Y-319805422D01*
X11899000Y-319194578D01*
X12018170Y-318595472D01*
X12251930Y-318031126D01*
X12591296Y-317523228D01*
X13023228Y-317091296D01*
X13531126Y-316751930D01*
X14095472Y-316518170D01*
X14395025Y-316458585D01*
X14694577Y-316399000D01*
X15305423Y-316399000D01*
X15604975Y-316458585D01*
G37*
G36*
X5604975Y-316458585D02*
G01*
X5904528Y-316518170D01*
X6468874Y-316751930D01*
X6976772Y-317091296D01*
X7408704Y-317523228D01*
X7748070Y-318031126D01*
X7981830Y-318595472D01*
X8101000Y-319194578D01*
X8101000Y-319805422D01*
X7981830Y-320404528D01*
X7748070Y-320968874D01*
X7408704Y-321476772D01*
X6976772Y-321908704D01*
X6468874Y-322248070D01*
X5904528Y-322481830D01*
X5604975Y-322541415D01*
X5305423Y-322601000D01*
X4694577Y-322601000D01*
X4395025Y-322541415D01*
X4095472Y-322481830D01*
X3531126Y-322248070D01*
X3023228Y-321908704D01*
X2591296Y-321476772D01*
X2251930Y-320968874D01*
X2018170Y-320404528D01*
X1899000Y-319805422D01*
X1899000Y-319194578D01*
X2018170Y-318595472D01*
X2251930Y-318031126D01*
X2591296Y-317523228D01*
X3023228Y-317091296D01*
X3531126Y-316751930D01*
X4095472Y-316518170D01*
X4395025Y-316458585D01*
X4694577Y-316399000D01*
X5305423Y-316399000D01*
X5604975Y-316458585D01*
G37*
M02*
