G04 #@! TF.GenerationSoftware,KiCad,Pcbnew,(5.1.5-0)*
G04 #@! TF.CreationDate,2021-01-12T22:30:33-08:00*
G04 #@! TF.ProjectId,helveticascenario,68656c76-6574-4696-9361-7363656e6172,rev?*
G04 #@! TF.SameCoordinates,Original*
G04 #@! TF.FileFunction,Soldermask,Top*
G04 #@! TF.FilePolarity,Negative*
%FSLAX46Y46*%
G04 Gerber Fmt 4.6, Leading zero omitted, Abs format (unit mm)*
G04 Created by KiCad (PCBNEW (5.1.5-0)) date 2021-01-12 22:30:33*
%MOMM*%
%LPD*%
G04 APERTURE LIST*
%ADD10C,0.100000*%
%ADD11C,0.500000*%
%ADD12C,0.000002*%
%ADD13C,0.001000*%
G04 APERTURE END LIST*
D10*
G36*
X8500000Y-356500000D02*
G01*
X1500000Y-356500000D01*
X1500000Y-350000000D01*
X8500000Y-350000000D01*
X8500000Y-356500000D01*
G37*
X8500000Y-356500000D02*
X1500000Y-356500000D01*
X1500000Y-350000000D01*
X8500000Y-350000000D01*
X8500000Y-356500000D01*
G36*
X18500000Y-356500000D02*
G01*
X11500000Y-356500000D01*
X11500000Y-350000000D01*
X18500000Y-350000000D01*
X18500000Y-356500000D01*
G37*
X18500000Y-356500000D02*
X11500000Y-356500000D01*
X11500000Y-350000000D01*
X18500000Y-350000000D01*
X18500000Y-356500000D01*
G36*
X29000000Y-356750000D02*
G01*
X21750000Y-356750000D01*
X21750000Y-350000000D01*
X29000000Y-350000000D01*
X29000000Y-356750000D01*
G37*
X29000000Y-356750000D02*
X21750000Y-356750000D01*
X21750000Y-350000000D01*
X29000000Y-350000000D01*
X29000000Y-356750000D01*
G36*
X38500000Y-356500000D02*
G01*
X31500000Y-356500000D01*
X31500000Y-350000000D01*
X38500000Y-350000000D01*
X38500000Y-356500000D01*
G37*
X38500000Y-356500000D02*
X31500000Y-356500000D01*
X31500000Y-350000000D01*
X38500000Y-350000000D01*
X38500000Y-356500000D01*
G36*
X38500000Y-339500000D02*
G01*
X31500000Y-339500000D01*
X31500000Y-333000000D01*
X38500000Y-333000000D01*
X38500000Y-339500000D01*
G37*
X38500000Y-339500000D02*
X31500000Y-339500000D01*
X31500000Y-333000000D01*
X38500000Y-333000000D01*
X38500000Y-339500000D01*
G36*
X18500000Y-339500000D02*
G01*
X11500000Y-339500000D01*
X11500000Y-333000000D01*
X18500000Y-333000000D01*
X18500000Y-339500000D01*
G37*
X18500000Y-339500000D02*
X11500000Y-339500000D01*
X11500000Y-333000000D01*
X18500000Y-333000000D01*
X18500000Y-339500000D01*
D11*
X20250000Y-269500000D02*
X20250000Y-360000000D01*
D10*
G36*
X20910400Y-373997650D02*
G01*
X21462850Y-374277050D01*
X21789875Y-374604075D01*
X21924813Y-374834263D01*
X22156588Y-375104138D01*
X21850200Y-375020000D01*
X21596200Y-374943800D01*
X21418400Y-374880300D01*
X21043750Y-374746950D01*
X20684975Y-374553275D01*
X20424625Y-374267525D01*
X20300800Y-374105600D01*
X20364300Y-374143700D01*
X20338900Y-374080200D01*
X20402400Y-373908750D01*
X20910400Y-373997650D01*
G37*
X20910400Y-373997650D02*
X21462850Y-374277050D01*
X21789875Y-374604075D01*
X21924813Y-374834263D01*
X22156588Y-375104138D01*
X21850200Y-375020000D01*
X21596200Y-374943800D01*
X21418400Y-374880300D01*
X21043750Y-374746950D01*
X20684975Y-374553275D01*
X20424625Y-374267525D01*
X20300800Y-374105600D01*
X20364300Y-374143700D01*
X20338900Y-374080200D01*
X20402400Y-373908750D01*
X20910400Y-373997650D01*
G36*
X20116650Y-374016700D02*
G01*
X19748350Y-374448500D01*
X19310200Y-374721550D01*
X18929200Y-374861250D01*
X18179900Y-375026350D01*
X18662500Y-374499300D01*
X19056200Y-374232600D01*
X19424500Y-374029400D01*
X19894400Y-373953200D01*
X19919800Y-373953200D01*
X20116650Y-374016700D01*
G37*
X20116650Y-374016700D02*
X19748350Y-374448500D01*
X19310200Y-374721550D01*
X18929200Y-374861250D01*
X18179900Y-375026350D01*
X18662500Y-374499300D01*
X19056200Y-374232600D01*
X19424500Y-374029400D01*
X19894400Y-373953200D01*
X19919800Y-373953200D01*
X20116650Y-374016700D01*
G36*
X23323400Y-372988000D02*
G01*
X23755200Y-373013400D01*
X24333207Y-373023943D01*
X23653600Y-373178500D01*
X23221800Y-373369000D01*
X22878900Y-373584900D01*
X22459800Y-373750000D01*
X21926400Y-373838900D01*
X21481900Y-373864300D01*
X20904050Y-373845250D01*
X20326200Y-373826200D01*
X20262700Y-373750000D01*
X20478600Y-373686500D01*
X20485585Y-373635700D01*
X20801815Y-373508700D01*
X21335850Y-373280100D01*
X21888300Y-373076900D01*
X22282000Y-372962600D01*
X22726500Y-372962600D01*
X23323400Y-372988000D01*
G37*
X23323400Y-372988000D02*
X23755200Y-373013400D01*
X24333207Y-373023943D01*
X23653600Y-373178500D01*
X23221800Y-373369000D01*
X22878900Y-373584900D01*
X22459800Y-373750000D01*
X21926400Y-373838900D01*
X21481900Y-373864300D01*
X20904050Y-373845250D01*
X20326200Y-373826200D01*
X20262700Y-373750000D01*
X20478600Y-373686500D01*
X20485585Y-373635700D01*
X20801815Y-373508700D01*
X21335850Y-373280100D01*
X21888300Y-373076900D01*
X22282000Y-372962600D01*
X22726500Y-372962600D01*
X23323400Y-372988000D01*
G36*
X23310700Y-370333700D02*
G01*
X23069400Y-370829000D01*
X22866200Y-371286200D01*
X22605850Y-371806900D01*
X22332800Y-372162500D01*
X22021650Y-372575250D01*
X21551750Y-372968950D01*
X21050100Y-373305500D01*
X19945200Y-373902400D01*
X19970600Y-373572200D01*
X20275400Y-373521400D01*
X20523050Y-373083250D01*
X20738950Y-372619700D01*
X20904050Y-372289500D01*
X21088200Y-371997400D01*
X21253300Y-371679900D01*
X21532700Y-371324300D01*
X21812100Y-371006800D01*
X22142300Y-370714700D01*
X22485200Y-370486100D01*
X22866200Y-370232100D01*
X23259900Y-369965400D01*
X23793300Y-369571700D01*
X23310700Y-370333700D01*
G37*
X23310700Y-370333700D02*
X23069400Y-370829000D01*
X22866200Y-371286200D01*
X22605850Y-371806900D01*
X22332800Y-372162500D01*
X22021650Y-372575250D01*
X21551750Y-372968950D01*
X21050100Y-373305500D01*
X19945200Y-373902400D01*
X19970600Y-373572200D01*
X20275400Y-373521400D01*
X20523050Y-373083250D01*
X20738950Y-372619700D01*
X20904050Y-372289500D01*
X21088200Y-371997400D01*
X21253300Y-371679900D01*
X21532700Y-371324300D01*
X21812100Y-371006800D01*
X22142300Y-370714700D01*
X22485200Y-370486100D01*
X22866200Y-370232100D01*
X23259900Y-369965400D01*
X23793300Y-369571700D01*
X23310700Y-370333700D01*
G36*
X20465900Y-368200100D02*
G01*
X20567500Y-368682700D01*
X20681800Y-369139900D01*
X20764350Y-369470100D01*
X20827850Y-369851100D01*
X20872300Y-370371800D01*
X20872300Y-370905200D01*
X20821500Y-371489400D01*
X20758000Y-372010100D01*
X20615125Y-372505400D01*
X20316675Y-373521400D01*
X20103950Y-373470600D01*
X19869000Y-372556200D01*
X19695962Y-371692600D01*
X19711837Y-370905200D01*
X19764225Y-370244800D01*
X19926150Y-369470100D01*
X20161100Y-368657300D01*
X20288100Y-367882600D01*
X20351600Y-367361900D01*
X20465900Y-368200100D01*
G37*
X20465900Y-368200100D02*
X20567500Y-368682700D01*
X20681800Y-369139900D01*
X20764350Y-369470100D01*
X20827850Y-369851100D01*
X20872300Y-370371800D01*
X20872300Y-370905200D01*
X20821500Y-371489400D01*
X20758000Y-372010100D01*
X20615125Y-372505400D01*
X20316675Y-373521400D01*
X20103950Y-373470600D01*
X19869000Y-372556200D01*
X19695962Y-371692600D01*
X19711837Y-370905200D01*
X19764225Y-370244800D01*
X19926150Y-369470100D01*
X20161100Y-368657300D01*
X20288100Y-367882600D01*
X20351600Y-367361900D01*
X20465900Y-368200100D01*
G36*
X16846400Y-369774900D02*
G01*
X17163900Y-370016200D01*
X17729050Y-370333700D01*
X18325950Y-370765500D01*
X18700600Y-371146500D01*
X19100650Y-371711650D01*
X19697550Y-372892750D01*
X19996000Y-373457900D01*
X20008700Y-373470600D01*
X19678500Y-373496000D01*
X19576900Y-373445200D01*
X19221300Y-373197550D01*
X18814900Y-372829250D01*
X18484700Y-372480000D01*
X18129100Y-372048200D01*
X17849700Y-371629100D01*
X17659200Y-371375100D01*
X17405200Y-370917900D01*
X17151200Y-370549600D01*
X16909900Y-370130500D01*
X16630500Y-369571700D01*
X16846400Y-369774900D01*
G37*
X16846400Y-369774900D02*
X17163900Y-370016200D01*
X17729050Y-370333700D01*
X18325950Y-370765500D01*
X18700600Y-371146500D01*
X19100650Y-371711650D01*
X19697550Y-372892750D01*
X19996000Y-373457900D01*
X20008700Y-373470600D01*
X19678500Y-373496000D01*
X19576900Y-373445200D01*
X19221300Y-373197550D01*
X18814900Y-372829250D01*
X18484700Y-372480000D01*
X18129100Y-372048200D01*
X17849700Y-371629100D01*
X17659200Y-371375100D01*
X17405200Y-370917900D01*
X17151200Y-370549600D01*
X16909900Y-370130500D01*
X16630500Y-369571700D01*
X16846400Y-369774900D01*
G36*
X18252925Y-372953075D02*
G01*
X18589475Y-373048325D01*
X18853000Y-373140400D01*
X19551500Y-373546800D01*
X19581980Y-373574740D01*
X19589600Y-373559500D01*
X19589600Y-373572200D01*
X19581980Y-373574740D01*
X19500700Y-373737300D01*
X19894400Y-373877000D01*
X19684850Y-373902400D01*
X19291150Y-373927800D01*
X18814900Y-373927800D01*
X18370400Y-373864300D01*
X17887800Y-373750000D01*
X17494100Y-373635700D01*
X17087700Y-373407100D01*
X16770200Y-373178500D01*
X16363800Y-373051500D01*
X17011500Y-373000700D01*
X17544900Y-372962600D01*
X18008450Y-372956250D01*
X18252925Y-372953075D01*
G37*
X18252925Y-372953075D02*
X18589475Y-373048325D01*
X18853000Y-373140400D01*
X19551500Y-373546800D01*
X19581980Y-373574740D01*
X19589600Y-373559500D01*
X19589600Y-373572200D01*
X19581980Y-373574740D01*
X19500700Y-373737300D01*
X19894400Y-373877000D01*
X19684850Y-373902400D01*
X19291150Y-373927800D01*
X18814900Y-373927800D01*
X18370400Y-373864300D01*
X17887800Y-373750000D01*
X17494100Y-373635700D01*
X17087700Y-373407100D01*
X16770200Y-373178500D01*
X16363800Y-373051500D01*
X17011500Y-373000700D01*
X17544900Y-372962600D01*
X18008450Y-372956250D01*
X18252925Y-372953075D01*
G36*
X20250000Y-373534100D02*
G01*
X20038862Y-373727775D01*
X20257937Y-373823025D01*
X21008825Y-374365950D01*
X20827850Y-374461200D01*
X20250000Y-374004000D01*
X20262700Y-375096200D01*
X20148400Y-374956500D01*
X20142050Y-374067500D01*
X20186500Y-374067500D01*
X19805500Y-373851600D01*
X19519750Y-373699200D01*
X19684850Y-373419800D01*
X20250000Y-373534100D01*
G37*
X20250000Y-373534100D02*
X20038862Y-373727775D01*
X20257937Y-373823025D01*
X21008825Y-374365950D01*
X20827850Y-374461200D01*
X20250000Y-374004000D01*
X20262700Y-375096200D01*
X20148400Y-374956500D01*
X20142050Y-374067500D01*
X20186500Y-374067500D01*
X19805500Y-373851600D01*
X19519750Y-373699200D01*
X19684850Y-373419800D01*
X20250000Y-373534100D01*
D12*
X19729586Y-371846968D02*
X19736414Y-371913404D01*
X16310628Y-373035206D02*
G75*
G02X16312745Y-373030474I8833J-1112D01*
G01*
X16312745Y-373030475D02*
G75*
G02X16317170Y-373027659I6961J-6056D01*
G01*
X16317171Y-373027659D02*
G75*
G02X16326272Y-373025641I21302J-74534D01*
G01*
X16369176Y-373019928D02*
X16326272Y-373025641D01*
X16425382Y-373014579D02*
X16369176Y-373019928D01*
X16499523Y-373009059D02*
X16425382Y-373014579D01*
X16600810Y-373002773D02*
X16499523Y-373009059D01*
X16714250Y-372995535D02*
X16600810Y-373002773D01*
X16805159Y-372988329D02*
X16714250Y-372995535D01*
X16885946Y-372980142D02*
X16805159Y-372988329D01*
X16967522Y-372969967D02*
X16885946Y-372980142D01*
X17045588Y-372960763D02*
X16967522Y-372969967D01*
X17144548Y-372951810D02*
X17045588Y-372960763D01*
X17252731Y-372943949D02*
X17144548Y-372951810D01*
X17360022Y-372938039D02*
X17252731Y-372943949D01*
X17408893Y-372935783D02*
X17360022Y-372938039D01*
X17478084Y-372932592D02*
X17408893Y-372935783D01*
X17553746Y-372929104D02*
X17478084Y-372932592D01*
X17625022Y-372925821D02*
X17553746Y-372929104D01*
X17792892Y-372918843D02*
X17625022Y-372925821D01*
X17967753Y-372913052D02*
X17792892Y-372918843D01*
X18141324Y-372908069D02*
X17967753Y-372913052D01*
X18141324Y-372908069D02*
G75*
G02X18150393Y-372910507I462J-16364D01*
G01*
X18153889Y-372911762D02*
G75*
G02X18150393Y-372910507I1209J8867D01*
G01*
X18169388Y-372913775D02*
X18153889Y-372911762D01*
X18187771Y-372915819D02*
X18169388Y-372913775D01*
X18208715Y-372917713D02*
X18187771Y-372915819D01*
X19720054Y-371737481D02*
X19722649Y-371767124D01*
X20862378Y-373897086D02*
X20907522Y-373900622D01*
X20813537Y-373893388D02*
X20862378Y-373897086D01*
X20768194Y-373890058D02*
X20813537Y-373893388D01*
X20735022Y-373887755D02*
X20768194Y-373890058D01*
X20703615Y-373885486D02*
X20735022Y-373887755D01*
X20664584Y-373882326D02*
X20703615Y-373885486D01*
X20624606Y-373878849D02*
X20664584Y-373882326D01*
X20590022Y-373875579D02*
X20624606Y-373878849D01*
X20528512Y-373870402D02*
X20590022Y-373875579D01*
X20476901Y-373868134D02*
X20528512Y-373870402D01*
X19081364Y-371630665D02*
X18952584Y-371423051D01*
X19210123Y-371860277D02*
X19081364Y-371630665D01*
X20513811Y-373894985D02*
X20475611Y-373887712D01*
X20551820Y-373901668D02*
X20513811Y-373894985D01*
X20577522Y-373905429D02*
X20551820Y-373901668D01*
X20577522Y-373905429D02*
G75*
G02X20665850Y-373921576I-96572J-777952D01*
G01*
X20792223Y-373954860D02*
X20665850Y-373921576D01*
X20931550Y-373997366D02*
X20792223Y-373954860D01*
X21065022Y-374044009D02*
X20931550Y-373997366D01*
X21108649Y-374061046D02*
X21065022Y-374044009D01*
X21154637Y-374080487D02*
X21108649Y-374061046D01*
X21202079Y-374101930D02*
X21154637Y-374080487D01*
X21250085Y-374124987D02*
X21202079Y-374101930D01*
X21250085Y-374124988D02*
G75*
G02X21402408Y-374212179I-639105J-1293158D01*
G01*
X19850081Y-372597260D02*
X19852098Y-372607528D01*
X22870021Y-371265299D02*
G75*
G02X22869743Y-371266562I-3003J0D01*
G01*
X22861209Y-371284952D02*
X22869743Y-371266562D01*
X22851523Y-371305632D02*
X22861209Y-371284952D01*
X22840022Y-371329870D02*
X22851523Y-371305632D01*
X22828521Y-371354146D02*
X22840022Y-371329870D01*
X22818834Y-371374951D02*
X22828521Y-371354146D01*
X22810385Y-371393329D02*
X22818834Y-371374951D01*
X22810021Y-371394995D02*
G75*
G02X22810385Y-371393329I3995J0D01*
G01*
X22810021Y-371394995D02*
G75*
G02X22809292Y-371398297I-7840J0D01*
G01*
X22770677Y-371481421D02*
X22809292Y-371398297D01*
X22727758Y-371573339D02*
X22770677Y-371481421D01*
X22677442Y-371680277D02*
X22727758Y-371573339D01*
X22654537Y-371728174D02*
X22677442Y-371680277D01*
X22626801Y-371784980D02*
X22654537Y-371728174D01*
X22597730Y-371843998D02*
X22626801Y-371784980D01*
X22597731Y-371843997D02*
G75*
G02X22595022Y-371847777I-12801J6311D01*
G01*
X22593589Y-371849614D02*
G75*
G02X22595022Y-371847777I8150J-4881D01*
G01*
X22590177Y-371855418D02*
X22593588Y-371849615D01*
X22586238Y-371862435D02*
X22590177Y-371855418D01*
X22582041Y-371870277D02*
X22586238Y-371862435D01*
X22573008Y-371887116D02*
X22582041Y-371870277D01*
X22562309Y-371906309D02*
X22573008Y-371887116D01*
X22551117Y-371925799D02*
X22562309Y-371906309D01*
X22540563Y-371943576D02*
X22551117Y-371925799D01*
X22536359Y-371950601D02*
X22540563Y-371943576D01*
X22529895Y-371961546D02*
X22536359Y-371950601D01*
X22522630Y-371973921D02*
X22529895Y-371961546D01*
X22515538Y-371986076D02*
X22522630Y-371973921D01*
X22515539Y-371986076D02*
G75*
G02X22426513Y-372124537I-1594117J927112D01*
G01*
X22310765Y-372278716D02*
X22426513Y-372124537D01*
X22179379Y-372435115D02*
X22310765Y-372278716D01*
X22042561Y-372580767D02*
X22179379Y-372435115D01*
X22042561Y-372580767D02*
G75*
G02X21762462Y-372838051I-2992746J2977019D01*
G01*
X21452444Y-373076945D02*
X21762462Y-372838051D01*
X21096530Y-373308868D02*
X21452444Y-373076945D01*
X20677522Y-373545384D02*
X21096530Y-373308868D01*
X20657210Y-373556206D02*
X20677522Y-373545384D01*
X20633256Y-373569049D02*
X20657210Y-373556206D01*
X20609541Y-373581825D02*
X20633256Y-373569049D01*
X20590022Y-373592411D02*
X20609541Y-373581825D01*
X20572766Y-373601769D02*
X20590022Y-373592411D01*
X20556062Y-373610749D02*
X20572766Y-373601769D01*
X20541782Y-373618359D02*
X20556062Y-373610749D01*
X20534097Y-373622337D02*
X20541782Y-373618359D01*
X20517847Y-373632144D02*
G75*
G02X20534097Y-373622337I73169J-102870D01*
G01*
X20501467Y-373645234D02*
G75*
G02X20517847Y-373632145I125077J-139731D01*
G01*
X20488112Y-373658375D02*
G75*
G02X20501467Y-373645234I145858J-134885D01*
G01*
X20485021Y-373666267D02*
G75*
G02X20488111Y-373658375I11624J0D01*
G01*
X20485871Y-373669781D02*
G75*
G02X20485022Y-373666267I6849J3514D01*
G01*
X20488155Y-373671737D02*
G75*
G02X20485870Y-373669780I1247J3768D01*
G01*
X20492397Y-373672198D02*
G75*
G02X20488155Y-373671737I-1044J10127D01*
G01*
X20499641Y-373671103D02*
G75*
G02X20492398Y-373672199I-15184J75919D01*
G01*
X20518149Y-373665366D02*
G75*
G02X20499641Y-373671104I-36945J86448D01*
G01*
X20578992Y-373639023D02*
X20518149Y-373665366D01*
X20646972Y-373608528D02*
X20578992Y-373639023D01*
X20715022Y-373576643D02*
X20646972Y-373608528D01*
X20738044Y-373565656D02*
X20715022Y-373576643D01*
X20763850Y-373553400D02*
X20738044Y-373565656D01*
X20788478Y-373541750D02*
X20763850Y-373553400D01*
X20807522Y-373532798D02*
X20788478Y-373541750D01*
X20827497Y-373523393D02*
X20807522Y-373532798D01*
X20855600Y-373510054D02*
X20827497Y-373523393D01*
X20886247Y-373495444D02*
X20855600Y-373510054D01*
X20915022Y-373481661D02*
X20886247Y-373495444D01*
X20969936Y-373455361D02*
X20915022Y-373481661D01*
X21011702Y-373435535D02*
X20969936Y-373455361D01*
X21046707Y-373419148D02*
X21011702Y-373435535D01*
X21080022Y-373403816D02*
X21046707Y-373419148D01*
X21115354Y-373387574D02*
X21080022Y-373403816D01*
X21181774Y-373356749D02*
X21115354Y-373387574D01*
X21249694Y-373325132D02*
X21181774Y-373356749D01*
X21297522Y-373302733D02*
X21249694Y-373325132D01*
X21444502Y-373234657D02*
X21297522Y-373302733D01*
X21595333Y-373166903D02*
X21444502Y-373234657D01*
X21733653Y-373106658D02*
X21595333Y-373166903D01*
X21840022Y-373062680D02*
X21733653Y-373106658D01*
X21893337Y-373041611D02*
X21840022Y-373062680D01*
X21928135Y-373028359D02*
X21893337Y-373041611D01*
X21957932Y-373017769D02*
X21928135Y-373028359D01*
X21992522Y-373006289D02*
X21957932Y-373017769D01*
X22051620Y-372988467D02*
X21992522Y-373006289D01*
X22113071Y-372972384D02*
X22051620Y-372988467D01*
X22174574Y-372958597D02*
X22113071Y-372972384D01*
X22233822Y-372947669D02*
X22174574Y-372958597D01*
X22275789Y-372941782D02*
X22233822Y-372947669D01*
X22311324Y-372938975D02*
X22275789Y-372941782D01*
X22355896Y-372938261D02*
X22311324Y-372938975D01*
X22436322Y-372939370D02*
X22355896Y-372938261D01*
X22493234Y-372940735D02*
X22436322Y-372939370D01*
X22551607Y-372942737D02*
X22493234Y-372940735D01*
X22603546Y-372945032D02*
X22551607Y-372942737D01*
X22637522Y-372947267D02*
X22603546Y-372945032D01*
X22668287Y-372949702D02*
X22637522Y-372947267D01*
X22707662Y-372952627D02*
X22668287Y-372949702D01*
X22748691Y-372955545D02*
X22707662Y-372952627D01*
X22785022Y-372957990D02*
X22748691Y-372955545D01*
X22822057Y-372960418D02*
X22785022Y-372957990D01*
X22865318Y-372963293D02*
X22822057Y-372960418D01*
X22907867Y-372966150D02*
X22865318Y-372963293D01*
X22942522Y-372968510D02*
X22907867Y-372966150D01*
X22995145Y-372970680D02*
X22942522Y-372968510D01*
X23187897Y-372973130D02*
X22995145Y-372970680D01*
X23416132Y-372975346D02*
X23187897Y-372973130D01*
X23672522Y-372976997D02*
X23416132Y-372975346D01*
X24010194Y-372978974D02*
X23672522Y-372976997D01*
X24196598Y-372980953D02*
X24010194Y-372978974D01*
X24325267Y-372983028D02*
X24196598Y-372980953D01*
X24325267Y-372983028D02*
G75*
G02X24338772Y-372986729I-500J-28318D01*
G01*
X24338772Y-372986728D02*
G75*
G02X24347766Y-372995160I-13045J-22929D01*
G01*
X24347766Y-372995160D02*
G75*
G02X24350023Y-373005412I-12281J-8079D01*
G01*
X24350023Y-373005413D02*
G75*
G02X24344871Y-373015674I-18220J2725D01*
G01*
X24344870Y-373015673D02*
G75*
G02X24333207Y-373023943I-29662J29474D01*
G01*
X24333208Y-373023944D02*
G75*
G02X24315174Y-373031131I-63623J133418D01*
G01*
X24250776Y-373051805D02*
X24315174Y-373031131D01*
X24188093Y-373071392D02*
X24250776Y-373051805D01*
X24152522Y-373081377D02*
X24188093Y-373071392D01*
X24023171Y-373118169D02*
X24152522Y-373081377D01*
X23848786Y-373175203D02*
X24023171Y-373118169D01*
X23669767Y-373238251D02*
X23848786Y-373175203D01*
X23522522Y-373295274D02*
X23669767Y-373238251D01*
X23399199Y-373348078D02*
X23522522Y-373295274D01*
X23253927Y-373414591D02*
X23399199Y-373348078D01*
X23112600Y-373482490D02*
X23253927Y-373414591D01*
X23002522Y-373539199D02*
X23112600Y-373482490D01*
X22868504Y-373610433D02*
X23002522Y-373539199D01*
X22783440Y-373652696D02*
X22868504Y-373610433D01*
X22708987Y-373685131D02*
X22783440Y-373652696D01*
X22617522Y-373720178D02*
X22708987Y-373685131D01*
X22542423Y-373747307D02*
X22617522Y-373720178D01*
X22502851Y-373760723D02*
X22542423Y-373747307D01*
X22463400Y-373772598D02*
X22502851Y-373760723D01*
X22390022Y-373793034D02*
X22463400Y-373772598D01*
X22270804Y-373822545D02*
X22390022Y-373793034D01*
X22133620Y-373850279D02*
X22270804Y-373822545D01*
X21995884Y-373873156D02*
X22133620Y-373850279D01*
X21875022Y-373887838D02*
X21995884Y-373873156D01*
X21851013Y-373890138D02*
X21875022Y-373887838D01*
X21816506Y-373893487D02*
X21851013Y-373890138D01*
X21778547Y-373897195D02*
X21816506Y-373893487D01*
X21742522Y-373900739D02*
X21778547Y-373897195D01*
X21608935Y-373908145D02*
X21742522Y-373900739D01*
X21336190Y-373909806D02*
X21608935Y-373908145D01*
X21063070Y-373907895D02*
X21336190Y-373909806D01*
X20907522Y-373900622D02*
X21063070Y-373907895D01*
X20434700Y-373867876D02*
X20476901Y-373868134D01*
X20430021Y-373872584D02*
G75*
G02X20434700Y-373867876I4709J-1D01*
G01*
X20431145Y-373874719D02*
G75*
G02X20430022Y-373872585I1466J2134D01*
G01*
X20435529Y-373877293D02*
G75*
G02X20431144Y-373874719I15819J31971D01*
G01*
X19360636Y-372138155D02*
X19344341Y-372108062D01*
X19371221Y-372157777D02*
X19360636Y-372138155D01*
X20761249Y-372533226D02*
X20714982Y-372630277D01*
X20846807Y-372362328D02*
X20761249Y-372533226D01*
X20933548Y-372191636D02*
X20846807Y-372362328D01*
X20974269Y-372116527D02*
X20933548Y-372191636D01*
X20988678Y-372091366D02*
X20974269Y-372116527D01*
X20999929Y-372071636D02*
X20988678Y-372091366D01*
X21009609Y-372054555D02*
X20999929Y-372071636D01*
X21019048Y-372037777D02*
X21009609Y-372054555D01*
X21025983Y-372025624D02*
X21019048Y-372037777D01*
X21037590Y-372005731D02*
X21025983Y-372025624D01*
X21050976Y-371982985D02*
X21037590Y-372005731D01*
X21064458Y-371960277D02*
X21050976Y-371982985D01*
X21077575Y-371938268D02*
X21064458Y-371960277D01*
X21089864Y-371917624D02*
X21077575Y-371938268D01*
X21100197Y-371900243D02*
X21089864Y-371917624D01*
X21104889Y-371892307D02*
X21100197Y-371900243D01*
X21149259Y-371820233D02*
X21104889Y-371892307D01*
X21212393Y-371723837D02*
X21149259Y-371820233D01*
X21279939Y-371624271D02*
X21212393Y-371723837D01*
X21339543Y-371540277D02*
X21279939Y-371624271D01*
X21396819Y-371463641D02*
X21339543Y-371540277D01*
X21467177Y-371373061D02*
X21396819Y-371463641D01*
X21534639Y-371288542D02*
X21467177Y-371373061D01*
X21577847Y-371237777D02*
X21534639Y-371288542D01*
X22885064Y-371231889D02*
X22894416Y-371211958D01*
X22877187Y-371248945D02*
X22885064Y-371231889D01*
X22870294Y-371264044D02*
X22877187Y-371248945D01*
X22870022Y-371265299D02*
G75*
G02X22870294Y-371264044I3026J0D01*
G01*
X19325985Y-372074222D02*
X19308037Y-372041194D01*
X19344341Y-372108062D02*
X19325985Y-372074222D01*
X22162904Y-375132618D02*
G75*
G02X22162962Y-375140934I-10582J-4233D01*
G01*
X22162961Y-375140934D02*
G75*
G02X22160571Y-375143771I-5287J2029D01*
G01*
X22160571Y-375143771D02*
G75*
G02X22155675Y-375145933I-11328J19028D01*
G01*
X22155675Y-375145934D02*
G75*
G02X22148837Y-375147326I-10822J35655D01*
G01*
X22148838Y-375147325D02*
G75*
G02X22140414Y-375147777I-8424J78322D01*
G01*
X20643609Y-372791378D02*
X20635721Y-372810277D01*
X20670843Y-372729384D02*
X20643609Y-372791378D01*
X20697720Y-372668594D02*
X20670843Y-372729384D01*
X20714982Y-372630277D02*
X20697720Y-372668594D01*
X22140414Y-375147778D02*
G75*
G02X22125921Y-375146825I0J110737D01*
G01*
X22125921Y-375146825D02*
G75*
G02X22113016Y-375143965I9971J75534D01*
G01*
X22113016Y-375143965D02*
G75*
G02X22096281Y-375137761I53575J170197D01*
G01*
X22065022Y-375124046D02*
X22096281Y-375137761D01*
X22001838Y-375097762D02*
X22065022Y-375124046D01*
X21935736Y-375074319D02*
X22001838Y-375097762D01*
X21864120Y-375052862D02*
X21935736Y-375074319D01*
X21784294Y-375032548D02*
X21864120Y-375052862D01*
X21647606Y-374999292D02*
X21784294Y-375032548D01*
X19380128Y-372174323D02*
X19371221Y-372157777D01*
X19390235Y-372193074D02*
X19380128Y-372174323D01*
X20503305Y-373136243D02*
X20494490Y-373156661D01*
X20513179Y-373112378D02*
X20503305Y-373136243D01*
X20524497Y-373084151D02*
X20513179Y-373112378D01*
X20537768Y-373050277D02*
X20524497Y-373084151D01*
X20543655Y-373035324D02*
X20537768Y-373050277D01*
X20550109Y-373019333D02*
X20543655Y-373035324D01*
X20556173Y-373004627D02*
X20550109Y-373019333D01*
X21402408Y-374212178D02*
G75*
G02X21540509Y-374315987I-743206J-1132487D01*
G01*
X21540509Y-374315987D02*
G75*
G02X21658604Y-374431641I-808447J-943632D01*
G01*
X21658604Y-374431641D02*
G75*
G02X21751099Y-374554225I-691614J-618042D01*
G01*
X21843113Y-374697827D02*
X21751099Y-374554225D01*
X21908325Y-374794131D02*
X21843113Y-374697827D01*
X21969278Y-374876381D02*
X21908325Y-374794131D01*
X22044380Y-374970045D02*
X21969278Y-374876381D01*
X22087947Y-375022822D02*
X22044380Y-374970045D01*
X22101771Y-375039809D02*
X22087947Y-375022822D01*
X22112079Y-375053035D02*
X22101771Y-375039809D01*
X19884498Y-369520277D02*
X19870636Y-369570269D01*
X20560691Y-372994082D02*
X20556173Y-373004627D01*
X20564264Y-372985606D02*
X20560691Y-372994082D01*
X20567281Y-372977667D02*
X20564264Y-372985606D01*
X20569553Y-372970959D02*
X20567281Y-372977667D01*
X20570021Y-372967966D02*
G75*
G02X20569553Y-372970959I-9805J0D01*
G01*
X20570021Y-372967965D02*
G75*
G02X20570501Y-372964968I9600J-1D01*
G01*
X20572848Y-372958209D02*
X20570501Y-372964968D01*
X20575958Y-372950210D02*
X20572848Y-372958209D01*
X20579642Y-372941661D02*
X20575958Y-372950210D01*
X20593866Y-372909784D02*
X20579642Y-372941661D01*
X20602969Y-372888632D02*
X20593866Y-372909784D01*
X20609166Y-372873491D02*
X20602969Y-372888632D01*
X20610007Y-372869082D02*
G75*
G02X20609166Y-372873491I-11749J-43D01*
G01*
X20610007Y-372869082D02*
G75*
G02X20610459Y-372866632I6738J25D01*
G01*
X20613194Y-372859786D02*
X20610459Y-372866632D01*
X20616707Y-372851673D02*
X20613194Y-372859786D01*
X20620874Y-372842777D02*
X20616707Y-372851673D01*
X20625330Y-372833430D02*
X20620874Y-372842777D01*
X20629723Y-372823949D02*
X20625330Y-372833430D01*
X20633495Y-372815577D02*
X20629723Y-372823949D01*
X20635721Y-372810277D02*
X20633495Y-372815577D01*
X22127281Y-375073316D02*
X22112079Y-375053035D01*
X22143683Y-375096689D02*
X22127281Y-375073316D01*
X22143683Y-375096690D02*
G75*
G02X22155528Y-375116666I-194982J-129113D01*
G01*
X22155528Y-375116666D02*
G75*
G02X22162903Y-375132618I-148143J-78170D01*
G01*
X21587272Y-371227192D02*
X21577847Y-371237777D01*
X21607031Y-371204856D02*
X21587272Y-371227192D01*
X21630430Y-371178361D02*
X21607031Y-371204856D01*
X21655193Y-371150277D02*
X21630430Y-371178361D01*
X21763704Y-371033304D02*
X21655193Y-371150277D01*
X21896053Y-370902079D02*
X21763704Y-371033304D01*
X22027297Y-370780085D02*
X21896053Y-370902079D01*
X22130250Y-370694220D02*
X22027297Y-370780085D01*
X22217428Y-370628727D02*
X22130250Y-370694220D01*
X22296415Y-370573278D02*
X22217428Y-370628727D01*
X22398457Y-370506351D02*
X22296415Y-370573278D01*
X22577522Y-370392769D02*
X22398457Y-370506351D01*
X22639629Y-370353344D02*
X22577522Y-370392769D01*
X22706365Y-370310469D02*
X22639629Y-370353344D01*
X22767965Y-370270471D02*
X22706365Y-370310469D01*
X22812522Y-370240991D02*
X22767965Y-370270471D01*
X22947222Y-370149298D02*
X22812522Y-370240991D01*
X23070866Y-370062251D02*
X22947222Y-370149298D01*
X23218690Y-369954774D02*
X23070866Y-370062251D01*
X23440022Y-369790957D02*
X23218690Y-369954774D01*
X23483928Y-369758350D02*
X23440022Y-369790957D01*
X23526959Y-369726446D02*
X23483928Y-369758350D01*
X23564011Y-369699020D02*
X23526959Y-369726446D01*
X23585022Y-369683543D02*
X23564011Y-369699020D01*
X23601209Y-369671646D02*
X23585022Y-369683543D01*
X23618850Y-369658643D02*
X23601209Y-369671646D01*
X23635320Y-369646471D02*
X23618850Y-369658643D01*
X23647522Y-369637414D02*
X23635320Y-369646471D01*
X23687477Y-369609270D02*
X23647522Y-369637414D01*
X23742952Y-369573208D02*
X23687477Y-369609270D01*
X23799438Y-369537759D02*
X23742952Y-369573208D01*
X23799438Y-369537760D02*
G75*
G02X23814761Y-369531269I28471J-45884D01*
G01*
X23814761Y-369531268D02*
G75*
G02X23827504Y-369529947I10974J-43717D01*
G01*
X23827504Y-369529947D02*
G75*
G02X23834070Y-369534069I-305J-7776D01*
G01*
X23834070Y-369534070D02*
G75*
G02X23834527Y-369542656I-8997J-4784D01*
G01*
X23834527Y-369542655D02*
G75*
G02X23827667Y-369555539I-63438J25510D01*
G01*
X23815329Y-369572507D02*
X23827667Y-369555539D01*
X23795976Y-369596851D02*
X23815329Y-369572507D01*
X23776429Y-369620518D02*
X23795976Y-369596851D01*
X23776429Y-369620517D02*
G75*
G02X23766963Y-369630277I-72727J61071D01*
G01*
X23749895Y-369648072D02*
G75*
G02X23766963Y-369630277I123500J-101373D01*
G01*
X23695948Y-369714257D02*
X23749895Y-369648072D01*
X23641922Y-369781904D02*
X23695948Y-369714257D01*
X23601038Y-369835277D02*
X23641922Y-369781904D01*
X23524034Y-369943698D02*
X23601038Y-369835277D01*
X23463980Y-370039678D02*
X23524034Y-369943698D01*
X23398409Y-370160452D02*
X23463980Y-370039678D01*
X23295463Y-370365277D02*
X23398409Y-370160452D01*
X23262314Y-370432396D02*
X23295463Y-370365277D01*
X23232337Y-370493418D02*
X23262314Y-370432396D01*
X23207300Y-370544652D02*
X23232337Y-370493418D01*
X23198740Y-370562777D02*
X23207300Y-370544652D01*
X23183870Y-370594997D02*
X23198740Y-370562777D01*
X23148656Y-370670485D02*
X23183870Y-370594997D01*
X23113434Y-370745815D02*
X23148656Y-370670485D01*
X23092505Y-370790277D02*
X23113434Y-370745815D01*
X23086270Y-370803483D02*
X23092505Y-370790277D01*
X23076572Y-370824090D02*
X23086270Y-370803483D01*
X23065623Y-370847387D02*
X23076572Y-370824090D01*
X23054881Y-370870277D02*
X23065623Y-370847387D01*
X23002656Y-370981614D02*
X23054881Y-370870277D01*
X22955466Y-371082138D02*
X23002656Y-370981614D01*
X22916565Y-371164935D02*
X22955466Y-371082138D01*
X22894416Y-371211958D02*
X22916565Y-371164935D01*
X19706089Y-370520173D02*
X19700432Y-370597777D01*
X19741414Y-370184273D02*
X19739359Y-370201746D01*
X19749812Y-372025277D02*
X19752112Y-372041881D01*
X17470022Y-373654199D02*
X17535345Y-373681444D01*
X17422193Y-373632386D02*
X17470022Y-373654199D01*
X17346008Y-373595116D02*
X17422193Y-373632386D01*
X17263874Y-373554229D02*
X17346008Y-373595116D01*
X18208715Y-372917712D02*
G75*
G02X18287077Y-372927867I-68767J-838110D01*
G01*
X18384167Y-372947547D02*
X18287077Y-372927867D01*
X18488541Y-372973880D02*
X18384167Y-372947547D01*
X18590022Y-373004629D02*
X18488541Y-372973880D01*
X18661345Y-373028648D02*
X18590022Y-373004629D01*
X18712918Y-373047344D02*
X18661345Y-373028648D01*
X18764767Y-373068060D02*
X18712918Y-373047344D01*
X18837522Y-373098978D02*
X18764767Y-373068060D01*
X18886095Y-373121297D02*
X18837522Y-373098978D01*
X18972054Y-373163707D02*
X18886095Y-373121297D01*
X19057800Y-373207003D02*
X18972054Y-373163707D01*
X19107522Y-373233724D02*
X19057800Y-373207003D01*
X19124485Y-373243290D02*
X19107522Y-373233724D01*
X19142381Y-373253359D02*
X19124485Y-373243290D01*
X19158665Y-373262503D02*
X19142381Y-373253359D01*
X19170022Y-373268855D02*
X19158665Y-373262503D01*
X19217579Y-373296350D02*
X19170022Y-373268855D01*
X19279264Y-373333880D02*
X19217579Y-373296350D01*
X19344127Y-373374579D02*
X19279264Y-373333880D01*
X19402522Y-373412529D02*
X19344127Y-373374579D01*
X19519621Y-373489782D02*
X19402522Y-373412529D01*
X19534217Y-373492895D02*
G75*
G02X19519621Y-373489782I-3296J20324D01*
G01*
X19535880Y-373486626D02*
G75*
G02X19534217Y-373492894I-2231J-2763D01*
G01*
X19436635Y-373406997D02*
X19535879Y-373486626D01*
X19326355Y-373318615D02*
X19436635Y-373406997D01*
X19205655Y-373221064D02*
X19326355Y-373318615D01*
X19096190Y-373132022D02*
X19205655Y-373221064D01*
X19047522Y-373091366D02*
X19096190Y-373132022D01*
X18810218Y-372878564D02*
X19047522Y-373091366D01*
X18581976Y-372653889D02*
X18810218Y-372878564D01*
X18376302Y-372431368D02*
X18581976Y-372653889D01*
X18207522Y-372225413D02*
X18376302Y-372431368D01*
X18197035Y-372211730D02*
X18207522Y-372225413D01*
X18180933Y-372190881D02*
X18197035Y-372211730D01*
X18162804Y-372167489D02*
X18180933Y-372190881D01*
X18145094Y-372144720D02*
X18162804Y-372167489D01*
X18100771Y-372086679D02*
X18145094Y-372144720D01*
X18048022Y-372015362D02*
X18100771Y-372086679D01*
X17993294Y-371939659D02*
X18048022Y-372015362D01*
X17942611Y-371867777D02*
X17993294Y-371939659D01*
X17865794Y-371755183D02*
X17942611Y-371867777D01*
X17753314Y-371586047D02*
X17865794Y-371755183D01*
X17642960Y-371418079D02*
X17753314Y-371586047D01*
X17577810Y-371315811D02*
X17642960Y-371418079D01*
X17562852Y-371291839D02*
X17577810Y-371315811D01*
X17543501Y-371261028D02*
X17562852Y-371291839D01*
X17523210Y-371228853D02*
X17543501Y-371261028D01*
X17505098Y-371200277D02*
X17523210Y-371228853D01*
X17482466Y-371164465D02*
X17505098Y-371200277D01*
X17444344Y-371103699D02*
X17482466Y-371164465D01*
X17400478Y-371033586D02*
X17444344Y-371103699D01*
X17356299Y-370962777D02*
X17400478Y-371033586D01*
X17313762Y-370894522D02*
X17356299Y-370962777D01*
X17274866Y-370832137D02*
X17313762Y-370894522D01*
X17242249Y-370779846D02*
X17274866Y-370832137D01*
X17230010Y-370760277D02*
X17242249Y-370779846D01*
X17187630Y-370691590D02*
X17230010Y-370760277D01*
X17117790Y-370576106D02*
X17187630Y-370691590D01*
X17047729Y-370459490D02*
X17117790Y-370576106D01*
X17022165Y-370415277D02*
X17047729Y-370459490D01*
X17019328Y-370410248D02*
X17022165Y-370415277D01*
X17015217Y-370403074D02*
X17019328Y-370410248D01*
X17010674Y-370395211D02*
X17015217Y-370403074D01*
X17006342Y-370387777D02*
X17010674Y-370395211D01*
X16977044Y-370337083D02*
X17006342Y-370387777D01*
X16918968Y-370235057D02*
X16977044Y-370337083D01*
X16860346Y-370131702D02*
X16918968Y-370235057D01*
X16838754Y-370092777D02*
X16860346Y-370131702D01*
X16829351Y-370075536D02*
X16838754Y-370092777D01*
X16817835Y-370054543D02*
X16829351Y-370075536D01*
X16806140Y-370033314D02*
X16817835Y-370054543D01*
X16796150Y-370015277D02*
X16806140Y-370033314D01*
X16767394Y-369960797D02*
X16796150Y-370015277D01*
X16712647Y-369850518D02*
X16767394Y-369960797D01*
X16652078Y-369727345D02*
X16712647Y-369850518D01*
X16652079Y-369727345D02*
G75*
G02X16650022Y-369718491I18028J8854D01*
G01*
X16649530Y-369715636D02*
G75*
G02X16650022Y-369718491I-8045J-2855D01*
G01*
X16647209Y-369709477D02*
X16649530Y-369715636D01*
X16644113Y-369702210D02*
X16647209Y-369709477D01*
X16640446Y-369694500D02*
X16644113Y-369702210D01*
X16640446Y-369694500D02*
G75*
G02X16625567Y-369660779I353949J176315D01*
G01*
X16612376Y-369622674D02*
X16625567Y-369660779D01*
X16602797Y-369587022D02*
X16612376Y-369622674D01*
X16602798Y-369587021D02*
G75*
G02X16600022Y-369562709I105091J24312D01*
G01*
X16600022Y-369562709D02*
G75*
G02X16602313Y-369551889I26694J0D01*
G01*
X16602313Y-369551889D02*
G75*
G02X16608734Y-369543767I19006J-8428D01*
G01*
X16608734Y-369543767D02*
G75*
G02X16618045Y-369539963I11741J-15439D01*
G01*
X16618045Y-369539963D02*
G75*
G02X16628409Y-369541121I2783J-22042D01*
G01*
X19549378Y-373499505D02*
G75*
G02X19557816Y-373505118I-42084J-72409D01*
G01*
X19543690Y-373498010D02*
G75*
G02X19549378Y-373499505I137J-11046D01*
G01*
X19542163Y-373500169D02*
G75*
G02X19543690Y-373498010I1547J525D01*
G01*
X19545021Y-373505277D02*
G75*
G02X19542163Y-373500169I12406J10295D01*
G01*
X19548004Y-373508135D02*
G75*
G02X19545022Y-373505277I10995J14458D01*
G01*
X19551808Y-373510528D02*
G75*
G02X19548004Y-373508136I11528J22553D01*
G01*
X19555813Y-373512133D02*
G75*
G02X19551808Y-373510528I6762J22671D01*
G01*
X19559384Y-373512619D02*
G75*
G02X19555813Y-373512133I-229J11691D01*
G01*
X19563439Y-373512263D02*
G75*
G02X19559384Y-373512618I-4642J29680D01*
G01*
X19564221Y-373511131D02*
G75*
G02X19563438Y-373512263I-929J-194D01*
G01*
X19563100Y-373509282D02*
G75*
G02X19564221Y-373511131I-2062J-2515D01*
G01*
X19557816Y-373505118D02*
X19563100Y-373509282D01*
X20332574Y-367319496D02*
G75*
G02X20341771Y-367310571I24520J-16067D01*
G01*
X20341771Y-367310571D02*
G75*
G02X20352879Y-367307745I10107J-16484D01*
G01*
X20352879Y-367307745D02*
G75*
G02X20363607Y-367311707I-996J-19203D01*
G01*
X20363606Y-367311707D02*
G75*
G02X20371759Y-367321527I-17650J-22947D01*
G01*
X20371760Y-367321527D02*
G75*
G02X20383695Y-367354885I-124673J-63421D01*
G01*
X20399153Y-367430779D02*
X20383695Y-367354885D01*
X20416249Y-367530893D02*
X20399153Y-367430779D01*
X20434771Y-367657777D02*
X20416249Y-367530893D01*
X20439195Y-367689649D02*
X20434771Y-367657777D01*
X20443664Y-367721324D02*
X20439195Y-367689649D01*
X20447609Y-367748853D02*
X20443664Y-367721324D01*
X20450058Y-367765277D02*
X20447609Y-367748853D01*
X20452198Y-367779274D02*
X20450058Y-367765277D01*
X20454846Y-367796746D02*
X20452198Y-367779274D01*
X20457550Y-367814693D02*
X20454846Y-367796746D01*
X20459879Y-367830277D02*
X20457550Y-367814693D01*
X20500474Y-368095675D02*
X20459879Y-367830277D01*
X20532146Y-368283530D02*
X20500474Y-368095675D01*
X20562899Y-368441341D02*
X20532146Y-368283530D01*
X20599454Y-368605379D02*
X20562899Y-368441341D01*
X20624492Y-368708731D02*
X20599454Y-368605379D01*
X20656786Y-368836990D02*
X20624492Y-368708731D01*
X20688947Y-368962230D02*
X20656786Y-368836990D01*
X20699546Y-368997777D02*
X20688947Y-368962230D01*
X20701577Y-369004390D02*
X20699546Y-368997777D01*
X20704324Y-369014684D02*
X20701577Y-369004390D01*
X20707226Y-369026332D02*
X20704324Y-369014684D01*
X20709866Y-369037777D02*
X20707226Y-369026332D01*
X20712509Y-369049406D02*
X20709866Y-369037777D01*
X20715418Y-369061606D02*
X20712509Y-369049406D01*
X20718167Y-369072654D02*
X20715418Y-369061606D01*
X20720219Y-369080277D02*
X20718167Y-369072654D01*
X20741211Y-369161306D02*
X20720219Y-369080277D01*
X20770319Y-369289530D02*
X20741211Y-369161306D01*
X20797583Y-369417148D02*
X20770319Y-369289530D01*
X20810471Y-369490277D02*
X20797583Y-369417148D01*
X20812659Y-369504272D02*
X20810471Y-369490277D01*
X20815675Y-369521746D02*
X20812659Y-369504272D01*
X20818972Y-369539692D02*
X20815675Y-369521746D01*
X20822053Y-369555277D02*
X20818972Y-369539692D01*
X20833969Y-369621401D02*
X20822053Y-369555277D01*
X20848521Y-369720705D02*
X20833969Y-369621401D01*
X20863047Y-369832002D02*
X20848521Y-369720705D01*
X20875375Y-369940277D02*
X20863047Y-369832002D01*
X20883692Y-370027355D02*
X20875375Y-369940277D01*
X20891238Y-370123355D02*
X20883692Y-370027355D01*
X20899412Y-370246795D02*
X20891238Y-370123355D01*
X20909993Y-370425277D02*
X20899412Y-370246795D01*
X20914428Y-370561801D02*
X20909993Y-370425277D01*
X20913207Y-370723699D02*
X20914428Y-370561801D01*
D13*
X20906205Y-370930188D02*
X20913207Y-370723699D01*
X20892243Y-371210277D02*
X20906205Y-370930188D01*
D12*
X20888309Y-371263260D02*
X20892243Y-371210277D01*
X20879073Y-371357488D02*
X20888309Y-371263260D01*
X20868702Y-371454897D02*
X20879073Y-371357488D01*
X20859856Y-371527777D02*
X20868702Y-371454897D01*
X20857613Y-371545020D02*
X20859856Y-371527777D01*
X20854937Y-371566012D02*
X20857613Y-371545020D01*
X20852271Y-371587241D02*
X20854937Y-371566012D01*
X20850050Y-371605277D02*
X20852271Y-371587241D01*
X20847806Y-371622962D02*
X20850050Y-371605277D01*
X20845075Y-371643074D02*
X20847806Y-371622962D01*
X20842299Y-371662476D02*
X20845075Y-371643074D01*
X20839942Y-371677777D02*
X20842299Y-371662476D01*
X20837622Y-371692744D02*
X20839942Y-371677777D01*
X20834972Y-371711012D02*
X20837622Y-371692744D01*
X20832418Y-371729518D02*
X20834972Y-371711012D01*
X20830389Y-371745277D02*
X20832418Y-371729518D01*
X20811335Y-371867675D02*
X20830389Y-371745277D01*
X20771650Y-372069623D02*
X20811335Y-371867675D01*
X20728766Y-372271371D02*
X20771650Y-372069623D01*
X20697485Y-372395277D02*
X20728766Y-372271371D01*
X20694512Y-372405948D02*
X20697485Y-372395277D01*
X20691467Y-372417340D02*
X20694512Y-372405948D01*
X20688776Y-372427807D02*
X20691467Y-372417340D01*
X20686995Y-372435277D02*
X20688776Y-372427807D01*
X20677390Y-372473770D02*
X20686995Y-372435277D01*
X20647648Y-372581388D02*
X20677390Y-372473770D01*
X20617938Y-372687284D02*
X20647648Y-372581388D01*
X20600778Y-372745277D02*
X20617938Y-372687284D01*
X20596460Y-372759274D02*
X20600778Y-372745277D01*
X20591080Y-372776746D02*
X20596460Y-372759274D01*
X20585561Y-372794693D02*
X20591080Y-372776746D01*
X20580776Y-372810277D02*
X20585561Y-372794693D01*
X20563681Y-372864093D02*
X20580776Y-372810277D01*
X20532504Y-372958295D02*
X20563681Y-372864093D01*
X20499871Y-373055470D02*
X20532504Y-372958295D01*
X20474966Y-373127777D02*
X20499871Y-373055470D01*
X20464918Y-373156638D02*
X20474966Y-373127777D01*
X20455745Y-373183387D02*
X20464918Y-373156638D01*
X20448156Y-373205862D02*
X20455745Y-373183387D01*
X20445217Y-373215277D02*
X20448156Y-373205862D01*
X20442515Y-373224002D02*
X20445217Y-373215277D01*
X20436887Y-373240861D02*
X20442515Y-373224002D01*
X20430133Y-373260670D02*
X20436887Y-373240861D01*
X20422951Y-373281307D02*
X20430133Y-373260670D01*
X20405426Y-373334707D02*
X20422951Y-373281307D01*
X20405298Y-373354677D02*
G75*
G02X20405426Y-373334707I33535J9771D01*
G01*
X20412456Y-373355327D02*
G75*
G02X20405299Y-373354677I-3451J1730D01*
G01*
X20432120Y-373312777D02*
X20412455Y-373355327D01*
X20438098Y-373298783D02*
X20432120Y-373312777D01*
X20444664Y-373283598D02*
X20438098Y-373298783D01*
X20450839Y-373269472D02*
X20444664Y-373283598D01*
X20455464Y-373259082D02*
X20450839Y-373269472D01*
X20459124Y-373250664D02*
X20455464Y-373259082D01*
X20462214Y-373242904D02*
X20459124Y-373250664D01*
X20464584Y-373236362D02*
X20462214Y-373242904D01*
X20465021Y-373233771D02*
G75*
G02X20464584Y-373236362I-7897J0D01*
G01*
X20465021Y-373233771D02*
G75*
G02X20465482Y-373231197I7424J0D01*
G01*
X20467959Y-373224785D02*
X20465482Y-373231197D01*
X20471191Y-373217186D02*
X20467959Y-373224785D01*
X20475022Y-373208958D02*
X20471191Y-373217186D01*
X20478851Y-373200659D02*
X20475022Y-373208958D01*
X20482084Y-373192840D02*
X20478851Y-373200659D01*
X20484508Y-373186216D02*
X20482084Y-373192840D01*
X20485021Y-373183153D02*
G75*
G02X20484508Y-373186216I-9398J0D01*
G01*
X20485022Y-373183153D02*
G75*
G02X20485503Y-373180064I10154J0D01*
G01*
X20487803Y-373173264D02*
X20485503Y-373180064D01*
X20490864Y-373165223D02*
X20487803Y-373173264D01*
X20494490Y-373156661D02*
X20490864Y-373165223D01*
X19264682Y-371958855D02*
X19260103Y-371950347D01*
X19264682Y-371958855D02*
G75*
G02X19265022Y-371960212I-2538J-1357D01*
G01*
X19254695Y-371940555D02*
X19248277Y-371929295D01*
X19260103Y-371950347D02*
X19254695Y-371940555D01*
X17263874Y-373554228D02*
G75*
G02X17255022Y-373547537I13556J27135D01*
G01*
X17253092Y-373545897D02*
G75*
G02X17255022Y-373547537I-5453J-8377D01*
G01*
X17245912Y-373541285D02*
X17253091Y-373545898D01*
X17237281Y-373535930D02*
X17245912Y-373541285D01*
X17227522Y-373530101D02*
X17237281Y-373535930D01*
X17217356Y-373524103D02*
X17227522Y-373530101D01*
X17207487Y-373518234D02*
X17217356Y-373524103D01*
X17199047Y-373513177D02*
X17207487Y-373518234D01*
X17194424Y-373510341D02*
X17199047Y-373513177D01*
X17190259Y-373507797D02*
X17194424Y-373510341D01*
X17184094Y-373504150D02*
X17190259Y-373507797D01*
X17177233Y-373500155D02*
X17184094Y-373504150D01*
X17170629Y-373496375D02*
X17177233Y-373500155D01*
X17170629Y-373496375D02*
G75*
G02X17160474Y-373489975I63669J112281D01*
G01*
X17132016Y-373470005D02*
X17160474Y-373489975D01*
X17098261Y-373445940D02*
X17132016Y-373470005D01*
X17061226Y-373419103D02*
X17098261Y-373445940D01*
X16883114Y-373296773D02*
X17061226Y-373419103D01*
X16736099Y-373213678D02*
G75*
G02X16883114Y-373296773I-631554J-1288984D01*
G01*
X16576951Y-373146610D02*
G75*
G02X16736098Y-373213679I-510715J-1434241D01*
G01*
X16358826Y-373074954D02*
X16576951Y-373146611D01*
X16326926Y-373065042D02*
X16358826Y-373074954D01*
X16326927Y-373065042D02*
G75*
G02X16316329Y-373060106I14167J44263D01*
G01*
X16316329Y-373060106D02*
G75*
G02X16311681Y-373054159I5938J9430D01*
G01*
X16311681Y-373054159D02*
G75*
G02X16310076Y-373044254I30438J10015D01*
G01*
X16310076Y-373044254D02*
G75*
G02X16310628Y-373035206I70514J241D01*
G01*
X21535632Y-374969595D02*
X21647606Y-374999292D01*
X21448054Y-374943690D02*
X21535632Y-374969595D01*
X21448055Y-374943690D02*
G75*
G02X21392522Y-374923101I169046J541143D01*
G01*
X21387486Y-374921027D02*
X21392522Y-374923101D01*
X21380318Y-374918265D02*
X21387486Y-374921027D01*
X21372455Y-374915344D02*
X21380318Y-374918265D01*
X21365022Y-374912696D02*
X21372455Y-374915344D01*
X21357177Y-374909863D02*
X21365022Y-374912696D01*
X21348034Y-374906363D02*
X21357177Y-374909863D01*
X21339059Y-374902778D02*
X21348034Y-374906363D01*
X21331766Y-374899691D02*
X21339059Y-374902778D01*
X21325511Y-374897043D02*
X21331766Y-374899691D01*
X21319752Y-374894808D02*
X21325511Y-374897043D01*
X21314899Y-374893092D02*
X21319752Y-374894808D01*
X21312993Y-374892777D02*
G75*
G02X21314899Y-374893092I0J-5933D01*
G01*
X21312993Y-374892778D02*
G75*
G02X21309189Y-374892029I0J10037D01*
G01*
X21214667Y-374853305D02*
X21309189Y-374892029D01*
X21131032Y-374818860D02*
X21214667Y-374853305D01*
X21085022Y-374799343D02*
X21131032Y-374818860D01*
X21034226Y-374776283D02*
X21085022Y-374799343D01*
X20964035Y-374742512D02*
X21034226Y-374776283D01*
X20896005Y-374708811D02*
X20964035Y-374742512D01*
X20860022Y-374689386D02*
X20896005Y-374708811D01*
X20834250Y-374674488D02*
X20860022Y-374689386D01*
X20815712Y-374663819D02*
X20834250Y-374674488D01*
X20802040Y-374656010D02*
X20815712Y-374663819D01*
X20792522Y-374650665D02*
X20802040Y-374656010D01*
X20752423Y-374626144D02*
X20792522Y-374650665D01*
X20702352Y-374591071D02*
X20752423Y-374626144D01*
X20649465Y-374550893D02*
X20702352Y-374591071D01*
X20600022Y-374510105D02*
X20649465Y-374550893D01*
X20600022Y-374510106D02*
G75*
G02X20520238Y-374433873I695822J808099D01*
G01*
X20520238Y-374433873D02*
G75*
G02X20448595Y-374349661I781638J737557D01*
G01*
X20448596Y-374349661D02*
G75*
G02X20385002Y-374257259I878955J673003D01*
G01*
X20385001Y-374257258D02*
G75*
G02X20329292Y-374156527I1044989J643704D01*
G01*
X20316672Y-374132136D02*
X20329292Y-374156527D01*
X20308836Y-374121479D02*
G75*
G02X20316672Y-374132136I-34612J-33661D01*
G01*
X20302757Y-374119559D02*
G75*
G02X20308835Y-374121478I1254J-6611D01*
G01*
X20297112Y-374123439D02*
G75*
G02X20302758Y-374119558I7228J-4468D01*
G01*
X20295653Y-374128424D02*
G75*
G02X20297112Y-374123440I9773J-154D01*
G01*
X20293420Y-374271549D02*
X20295654Y-374128424D01*
X20291301Y-374431187D02*
X20293420Y-374271549D01*
X20289456Y-374619690D02*
X20291301Y-374431187D01*
X20287665Y-374808576D02*
X20289456Y-374619690D01*
X20285717Y-374969472D02*
X20287665Y-374808576D01*
X20283721Y-375112425D02*
X20285717Y-374969472D01*
X20283721Y-375112424D02*
G75*
G02X20282565Y-375121527I-41009J581D01*
G01*
X20282565Y-375121527D02*
G75*
G02X20281012Y-375125830I-20606J5007D01*
G01*
X20281011Y-375125830D02*
G75*
G02X20278627Y-375129473I-15676J7660D01*
G01*
X20278628Y-375129473D02*
G75*
G02X20275815Y-375131944I-9855J8380D01*
G01*
X20275814Y-375131943D02*
G75*
G02X20272998Y-375132777I-2816J4339D01*
G01*
X20272998Y-375132778D02*
G75*
G02X20268527Y-375131046I0J6637D01*
G01*
X20245478Y-375109837D02*
X20268527Y-375131046D01*
X20219013Y-375084616D02*
X20245478Y-375109837D01*
X20188906Y-375054683D02*
X20219013Y-375084616D01*
X20111648Y-374976588D02*
X20188906Y-375054683D01*
X20108335Y-374676359D02*
X20111648Y-374976588D01*
X20107066Y-374551023D02*
X20108335Y-374676359D01*
X20105995Y-374422704D02*
X20107066Y-374551023D01*
X20105237Y-374308674D02*
X20105995Y-374422704D01*
X20105022Y-374234454D02*
X20105237Y-374308674D01*
X20104720Y-374173849D02*
X20105022Y-374234454D01*
X20103728Y-374129717D02*
X20104720Y-374173849D01*
X20102369Y-374094990D02*
X20103728Y-374129717D01*
X20100060Y-374092777D02*
G75*
G02X20102369Y-374094990I-1J-2312D01*
G01*
X20097054Y-374094088D02*
G75*
G02X20100059Y-374092777I3005J-2787D01*
G01*
X20086630Y-374105560D02*
X20097055Y-374094089D01*
X20074618Y-374119615D02*
X20086630Y-374105560D01*
X20061309Y-374136292D02*
X20074618Y-374119615D01*
X19969679Y-374246929D02*
X20061309Y-374136292D01*
X19871336Y-374351497D02*
X19969679Y-374246929D01*
X19772618Y-374443723D02*
X19871336Y-374351497D01*
X19772618Y-374443723D02*
G75*
G02X19680022Y-374516907I-785138J898227D01*
G01*
X19543872Y-374607727D02*
X19680022Y-374516907D01*
X19410543Y-374684003D02*
X19543872Y-374607727D01*
X19270115Y-374750989D02*
X19410543Y-374684003D01*
X19112522Y-374813854D02*
X19270115Y-374750989D01*
X19056592Y-374833017D02*
X19112522Y-374813854D01*
X18964001Y-374862067D02*
X19056592Y-374833017D01*
X18870530Y-374890489D02*
X18964001Y-374862067D01*
X18870531Y-374890489D02*
G75*
G02X18835022Y-374899348I-111894J372905D01*
G01*
X18825788Y-374901427D02*
X18835022Y-374899348D01*
X18776256Y-374913853D02*
X18825788Y-374901427D01*
X18718574Y-374928414D02*
X18776256Y-374913853D01*
X18652522Y-374945214D02*
X18718574Y-374928414D01*
X18585223Y-374962309D02*
X18652522Y-374945214D01*
X18523647Y-374977802D02*
X18585223Y-374962309D01*
X18472000Y-374990673D02*
X18523647Y-374977802D01*
X18452522Y-374995258D02*
X18472000Y-374990673D01*
X18439392Y-374998201D02*
X18452522Y-374995258D01*
X18424725Y-375001527D02*
X18439392Y-374998201D01*
X18410765Y-375004724D02*
X18424725Y-375001527D01*
X18400022Y-375007222D02*
X18410765Y-375004724D01*
X18376495Y-375012411D02*
X18400022Y-375007222D01*
X18319890Y-375024006D02*
X18376495Y-375012411D01*
X18256655Y-375036751D02*
X18319890Y-375024006D01*
X18196570Y-375048613D02*
X18256655Y-375036751D01*
X18180754Y-375051291D02*
X18196570Y-375048613D01*
X18180754Y-375051291D02*
G75*
G02X18169488Y-375052124I-11660J81132D01*
G01*
X18169487Y-375052124D02*
G75*
G02X18160662Y-375051315I-221J46104D01*
G01*
X18160662Y-375051315D02*
G75*
G02X18152820Y-375048823I6419J33790D01*
G01*
X18152820Y-375048822D02*
G75*
G02X18143799Y-375035506I6402J14050D01*
G01*
X18143799Y-375035506D02*
G75*
G02X18149252Y-375016313I31269J1487D01*
G01*
X18149252Y-375016313D02*
G75*
G02X18177331Y-374981110I257590J-176662D01*
G01*
X18259998Y-374892550D02*
X18177331Y-374981110D01*
X18297172Y-374853045D02*
X18259998Y-374892550D01*
X18336499Y-374811019D02*
X18297172Y-374853045D01*
X18372351Y-374772510D02*
X18336499Y-374811019D01*
X18397522Y-374745213D02*
X18372351Y-374772510D01*
X18440178Y-374699392D02*
X18397522Y-374745213D01*
X18476361Y-374662256D02*
X18440178Y-374699392D01*
X18513224Y-374626564D02*
X18476361Y-374662256D01*
X18557926Y-374585277D02*
X18513224Y-374626564D01*
X18577115Y-374567823D02*
X18557926Y-374585277D01*
X18593687Y-374552653D02*
X18577115Y-374567823D01*
X18608008Y-374539477D02*
X18593687Y-374552653D01*
X18610021Y-374537406D02*
G75*
G02X18608008Y-374539477I-19819J17259D01*
G01*
X18610021Y-374537407D02*
G75*
G02X18612103Y-374535349I14795J-12883D01*
G01*
X18630147Y-374520015D02*
X18612103Y-374535349D01*
X18650885Y-374502487D02*
X18630147Y-374520015D01*
X18675022Y-374482231D02*
X18650885Y-374502487D01*
X18780470Y-374397248D02*
X18675022Y-374482231D01*
X18880076Y-374323754D02*
X18780470Y-374397248D01*
X18980113Y-374257287D02*
X18880076Y-374323754D01*
X19086795Y-374193515D02*
X18980113Y-374257287D01*
X19120714Y-374175268D02*
X19086795Y-374193515D01*
X19176262Y-374147389D02*
X19120714Y-374175268D01*
X19232493Y-374119994D02*
X19176262Y-374147389D01*
X19270022Y-374102890D02*
X19232493Y-374119994D01*
X19309757Y-374085775D02*
X19270022Y-374102890D01*
X19329737Y-374077382D02*
X19309757Y-374085775D01*
X19345779Y-374071025D02*
X19329737Y-374077382D01*
X19366272Y-374063347D02*
X19345779Y-374071025D01*
X19379186Y-374058599D02*
X19366272Y-374063347D01*
X19394287Y-374053046D02*
X19379186Y-374058599D01*
X19409151Y-374047580D02*
X19394287Y-374053046D01*
X19421272Y-374043122D02*
X19409151Y-374047580D01*
X19456104Y-374031114D02*
X19421272Y-374043122D01*
X19513274Y-374013030D02*
X19456104Y-374031114D01*
X19570340Y-373995577D02*
X19513274Y-374013030D01*
X19597522Y-373988372D02*
X19570340Y-373995577D01*
X19653341Y-373974277D02*
X19597522Y-373988372D01*
X19718904Y-373955292D02*
X19653341Y-373974277D01*
X19780034Y-373936296D02*
X19718904Y-373955292D01*
X19779691Y-373933050D02*
G75*
G02X19780034Y-373936296I-161J-1658D01*
G01*
X19777681Y-373933099D02*
G75*
G02X19779690Y-373933051I1204J-8298D01*
G01*
X19769709Y-373934287D02*
X19777681Y-373933099D01*
X19760305Y-373935799D02*
X19769709Y-373934287D01*
X19749690Y-373937644D02*
X19760305Y-373935799D01*
X19724754Y-373941359D02*
X19749690Y-373937644D01*
X19680359Y-373946376D02*
X19724754Y-373941359D01*
X19615074Y-373953070D02*
X19680359Y-373946376D01*
X19513645Y-373962894D02*
X19615074Y-373953070D01*
X19485352Y-373965035D02*
X19513645Y-373962894D01*
X19431795Y-373967839D02*
X19485352Y-373965035D01*
X19368915Y-373970681D02*
X19431795Y-373967839D01*
X19303645Y-373973169D02*
X19368915Y-373970681D01*
X19158340Y-373976041D02*
X19303645Y-373973169D01*
X19031748Y-373973781D02*
X19158340Y-373976041D01*
X18886661Y-373965269D02*
X19031748Y-373973781D01*
X18675022Y-373947707D02*
X18886661Y-373965269D01*
X18614771Y-373941119D02*
X18675022Y-373947707D01*
X18531738Y-373929690D02*
X18614771Y-373941119D01*
X18434250Y-373914788D02*
X18531738Y-373929690D01*
X18327522Y-373897109D02*
X18434250Y-373914788D01*
X18221857Y-373877377D02*
X18327522Y-373897109D01*
X18104034Y-373852215D02*
X18221857Y-373877377D01*
X17987305Y-373824654D02*
X18104034Y-373852215D01*
X17885022Y-373797637D02*
X17987305Y-373824654D01*
X17869381Y-373793300D02*
X17885022Y-373797637D01*
X17853397Y-373788981D02*
X17869381Y-373793300D01*
X17839207Y-373785245D02*
X17853397Y-373788981D01*
X17830022Y-373782966D02*
X17839207Y-373785245D01*
X17821722Y-373780851D02*
X17830022Y-373782966D01*
X17811053Y-373777839D02*
X17821722Y-373780851D01*
X17799914Y-373774499D02*
X17811053Y-373777839D01*
X17790022Y-373771321D02*
X17799914Y-373774499D01*
X17778663Y-373767567D02*
X17790022Y-373771321D01*
X17762381Y-373762256D02*
X17778663Y-373767567D01*
X17744485Y-373756458D02*
X17762381Y-373762256D01*
X17727522Y-373751004D02*
X17744485Y-373756458D01*
X17663400Y-373729584D02*
X17727522Y-373751004D01*
X17599573Y-373706485D02*
X17663400Y-373729584D01*
X17535345Y-373681444D02*
X17599573Y-373706485D01*
X20441588Y-373879800D02*
G75*
G02X20435529Y-373877293I15601J46284D01*
G01*
X20448772Y-373881862D02*
G75*
G02X20441589Y-373879800I19033J79840D01*
G01*
X20475611Y-373887712D02*
X20448772Y-373881862D01*
X16628409Y-369541121D02*
G75*
G02X16643800Y-369549519I-19851J-54684D01*
G01*
X16683573Y-369580444D02*
X16643800Y-369549519D01*
X16730950Y-369619163D02*
X16683573Y-369580444D01*
X16783636Y-369664359D02*
X16730950Y-369619163D01*
X16948174Y-369802127D02*
X16783636Y-369664359D01*
X17093791Y-369910502D02*
X16948174Y-369802127D01*
X17262714Y-370019733D02*
X17093791Y-369910502D01*
X17507522Y-370164069D02*
X17262714Y-370019733D01*
X19821306Y-369756615D02*
X19797577Y-369865220D01*
X19744593Y-370156118D02*
X19742916Y-370170277D01*
X19536280Y-372470659D02*
X19496362Y-372392777D01*
X19650735Y-372699065D02*
X19536280Y-372470659D01*
X19843793Y-369672863D02*
X19840420Y-369685871D01*
X19859796Y-372640277D02*
X19862223Y-372649554D01*
X18230696Y-370646196D02*
X18199731Y-370621569D01*
X18284121Y-370690261D02*
X18230696Y-370646196D01*
X19905296Y-369449293D02*
X19890717Y-369498596D01*
X19291545Y-372010738D02*
X19277657Y-371984784D01*
X19308037Y-372041194D02*
X19291545Y-372010738D01*
X19857389Y-372630966D02*
X19859796Y-372640277D01*
X19780667Y-372962450D02*
G75*
G02X19780022Y-372959625I5867J2825D01*
G01*
X19820128Y-373044375D02*
X19780666Y-372962451D01*
X19743686Y-371978002D02*
X19749812Y-372025277D01*
X19840420Y-369685871D02*
X19837276Y-369697511D01*
X19860559Y-369607297D02*
X19852925Y-369636256D01*
X19872102Y-372693678D02*
X19875424Y-372708215D01*
X19869792Y-372682777D02*
X19872102Y-372693678D01*
X19867434Y-373142202D02*
X19820128Y-373044375D01*
X19930900Y-373272769D02*
X19867434Y-373142202D01*
X20244836Y-367845277D02*
X20233743Y-367938355D01*
X18640510Y-371019449D02*
X18557249Y-370934817D01*
X18707941Y-371093323D02*
X18640510Y-371019449D01*
X19265378Y-371961643D02*
G75*
G02X19265022Y-371960212I2699J1431D01*
G01*
X19277657Y-371984784D02*
X19265377Y-371961643D01*
X19707431Y-371584943D02*
X19710146Y-371624262D01*
X19686197Y-371040776D02*
X19691200Y-371260800D01*
X17562323Y-370195700D02*
X17507522Y-370164069D01*
X17615350Y-370226582D02*
X17562323Y-370195700D01*
X17660594Y-370253170D02*
X17615350Y-370226582D01*
X19712884Y-371660118D02*
X19715155Y-371685277D01*
X20314571Y-367363376D02*
G75*
G02X20332574Y-367319496I122645J-24684D01*
G01*
X20233743Y-367938355D02*
X20216692Y-368068323D01*
X20216692Y-368068323D02*
X20198247Y-368202128D01*
X20198247Y-368202128D02*
X20182296Y-368310277D01*
X19844799Y-372571609D02*
X19847913Y-372586189D01*
X19922754Y-369390648D02*
X19905296Y-369449293D01*
X19915004Y-372866641D02*
X19938021Y-372955658D01*
X19902687Y-372817777D02*
X19915004Y-372866641D01*
X19689221Y-370835430D02*
X19686197Y-371040776D01*
X19747211Y-370138074D02*
X19744593Y-370156118D01*
X19846912Y-369660277D02*
X19843793Y-369672863D01*
X18341890Y-370738546D02*
X18284121Y-370690261D01*
X18392522Y-370781589D02*
X18341890Y-370738546D01*
X19890717Y-369498596D02*
X19884498Y-369520277D01*
X19796332Y-372332567D02*
X19819739Y-372458706D01*
X19722649Y-371767124D02*
X19724772Y-371792777D01*
X19852098Y-372607528D02*
X19854678Y-372619391D01*
X19870636Y-369570269D02*
X19860559Y-369607297D01*
X19862223Y-372649554D02*
X19864997Y-372661012D01*
X20024298Y-369040004D02*
X19941595Y-369327777D01*
X19774401Y-372203232D02*
X19796332Y-372332567D01*
X19736414Y-371913404D02*
X19743686Y-371978002D01*
X17685022Y-370267924D02*
X17660594Y-370253170D01*
X17702943Y-370278971D02*
X17685022Y-370267924D01*
X17721647Y-370290441D02*
X17702943Y-370278971D01*
X17738524Y-370300743D02*
X17721647Y-370290441D01*
X17750022Y-370307694D02*
X17738524Y-370300743D01*
X19847913Y-372586189D02*
X19850081Y-372597260D01*
X19705160Y-371547777D02*
X19707431Y-371584943D01*
X20141058Y-368546192D02*
X20089522Y-368784580D01*
X19852925Y-369636256D02*
X19846912Y-369660277D01*
X20182296Y-368310277D02*
X20141058Y-368546192D01*
X19864997Y-372661012D02*
X19867668Y-372672709D01*
X19715155Y-371685277D02*
X19717410Y-371708549D01*
X19760387Y-372105277D02*
X19774401Y-372203232D01*
X19897592Y-372797213D02*
X19902687Y-372817777D01*
X19891964Y-372774684D02*
X19897592Y-372797213D01*
X18088770Y-370538408D02*
X17962111Y-370448124D01*
X18199731Y-370621569D02*
X18088770Y-370538408D01*
X19716010Y-370410768D02*
X19706089Y-370520173D01*
X19835002Y-369705277D02*
X19821306Y-369756615D01*
X19240348Y-371915352D02*
X19230163Y-371897052D01*
X19248277Y-371929295D02*
X19240348Y-371915352D01*
X19425179Y-372257925D02*
X19407627Y-372225277D01*
X19446050Y-372297166D02*
X19425179Y-372257925D01*
X20043771Y-373453775D02*
G75*
G02X20028450Y-373454191I-7814J5438D01*
G01*
X20051642Y-373427617D02*
G75*
G02X20043772Y-373453776I-43965J-1036D01*
G01*
X19841336Y-372556189D02*
X19844799Y-372571609D01*
X19754965Y-372063215D02*
X19757876Y-372085494D01*
X19750258Y-370119324D02*
X19747211Y-370138074D01*
X19742916Y-370170277D02*
X19741414Y-370184273D01*
X19724772Y-371792777D02*
X19729586Y-371846968D01*
X19469842Y-372342235D02*
X19446050Y-372297166D01*
X19496362Y-372392777D02*
X19469842Y-372342235D01*
X19726782Y-370303128D02*
X19716010Y-370410768D01*
X20089522Y-368784580D02*
X20024298Y-369040004D01*
X19797577Y-369865220D02*
X19775096Y-369974104D01*
X19779044Y-372955488D02*
X19650735Y-372699065D01*
X19779045Y-372955488D02*
G75*
G02X19780022Y-372959625I-8269J-4137D01*
G01*
X17840998Y-370365371D02*
X17750022Y-370307694D01*
X17962111Y-370448124D02*
X17840998Y-370365371D01*
X18826981Y-371242044D02*
X18707941Y-371093323D01*
X18952584Y-371423051D02*
X18826981Y-371242044D01*
X19775096Y-369974104D02*
X19764785Y-370035277D01*
X19941595Y-369327777D02*
X19922754Y-369390648D01*
X19717410Y-371708549D02*
X19720054Y-371737481D01*
X19753300Y-370102777D02*
X19750258Y-370119324D01*
X19762686Y-370049437D02*
X19759713Y-370067481D01*
X19735041Y-370235277D02*
X19726782Y-370303128D01*
X20012789Y-373240486D02*
X20034316Y-373328882D01*
X19979915Y-373115277D02*
X20012789Y-373240486D01*
X19879114Y-372723688D02*
X19882635Y-372737777D01*
X19875424Y-372708215D02*
X19879114Y-372723688D01*
X19838031Y-372542260D02*
X19841336Y-372556189D01*
X19756422Y-370086231D02*
X19753300Y-370102777D01*
X20292634Y-367482589D02*
X20269274Y-367640793D01*
X19739359Y-370201746D02*
X19737122Y-370219693D01*
X19854678Y-372619391D02*
X19857389Y-372630966D01*
X19819739Y-372458706D02*
X19838031Y-372542260D01*
X19700432Y-370597777D02*
X19689221Y-370835430D01*
X20314571Y-367363377D02*
X20292634Y-367482589D01*
X19764785Y-370035277D02*
X19762686Y-370049437D01*
X19961965Y-373047481D02*
X19979915Y-373115277D01*
X19938021Y-372955658D02*
X19961965Y-373047481D01*
X19757876Y-372085494D02*
X19760387Y-372105277D01*
X19886652Y-372753561D02*
X19891964Y-372774684D01*
X19882635Y-372737777D02*
X19886652Y-372753561D01*
X19710146Y-371624262D02*
X19712884Y-371660118D01*
X20047789Y-373392241D02*
G75*
G02X20051641Y-373427617I-205937J-40320D01*
G01*
X20034316Y-373328882D02*
X20047790Y-373392241D01*
X19399971Y-372211116D02*
X19390235Y-372193074D01*
X19407627Y-372225277D02*
X19399971Y-372211116D01*
X19867668Y-372672709D02*
X19869792Y-372682777D01*
X19759713Y-370067481D02*
X19756422Y-370086231D01*
X18470584Y-370851527D02*
X18392522Y-370781589D01*
X18557249Y-370934817D02*
X18470584Y-370851527D01*
X19752112Y-372041881D02*
X19754965Y-372063215D01*
X19737122Y-370219693D02*
X19735041Y-370235277D01*
X19837276Y-369697511D02*
X19835002Y-369705277D01*
X20269274Y-367640793D02*
X20244836Y-367845277D01*
X19219544Y-371877713D02*
X19210123Y-371860277D01*
X19230163Y-371897052D02*
X19219544Y-371877713D01*
X19995824Y-373402971D02*
X19930900Y-373272769D01*
X20028449Y-373454191D02*
G75*
G02X19995824Y-373402971I252153J196613D01*
G01*
X19691200Y-371260800D02*
X19705160Y-371547777D01*
D10*
G36*
X35604975Y-350208585D02*
G01*
X35904528Y-350268170D01*
X36468874Y-350501930D01*
X36976772Y-350841296D01*
X37408704Y-351273228D01*
X37748070Y-351781126D01*
X37981830Y-352345472D01*
X38101000Y-352944578D01*
X38101000Y-353555422D01*
X37981830Y-354154528D01*
X37748070Y-354718874D01*
X37408704Y-355226772D01*
X36976772Y-355658704D01*
X36468874Y-355998070D01*
X35904528Y-356231830D01*
X35604975Y-356291415D01*
X35305423Y-356351000D01*
X34694577Y-356351000D01*
X34395025Y-356291415D01*
X34095472Y-356231830D01*
X33531126Y-355998070D01*
X33023228Y-355658704D01*
X32591296Y-355226772D01*
X32251930Y-354718874D01*
X32018170Y-354154528D01*
X31899000Y-353555422D01*
X31899000Y-352944578D01*
X32018170Y-352345472D01*
X32251930Y-351781126D01*
X32591296Y-351273228D01*
X33023228Y-350841296D01*
X33531126Y-350501930D01*
X34095472Y-350268170D01*
X34395025Y-350208585D01*
X34694577Y-350149000D01*
X35305423Y-350149000D01*
X35604975Y-350208585D01*
G37*
G36*
X25854975Y-350208585D02*
G01*
X26154528Y-350268170D01*
X26718874Y-350501930D01*
X27226772Y-350841296D01*
X27658704Y-351273228D01*
X27998070Y-351781126D01*
X28231830Y-352345472D01*
X28351000Y-352944578D01*
X28351000Y-353555422D01*
X28231830Y-354154528D01*
X27998070Y-354718874D01*
X27658704Y-355226772D01*
X27226772Y-355658704D01*
X26718874Y-355998070D01*
X26154528Y-356231830D01*
X25854975Y-356291415D01*
X25555423Y-356351000D01*
X24944577Y-356351000D01*
X24645025Y-356291415D01*
X24345472Y-356231830D01*
X23781126Y-355998070D01*
X23273228Y-355658704D01*
X22841296Y-355226772D01*
X22501930Y-354718874D01*
X22268170Y-354154528D01*
X22149000Y-353555422D01*
X22149000Y-352944578D01*
X22268170Y-352345472D01*
X22501930Y-351781126D01*
X22841296Y-351273228D01*
X23273228Y-350841296D01*
X23781126Y-350501930D01*
X24345472Y-350268170D01*
X24645025Y-350208585D01*
X24944577Y-350149000D01*
X25555423Y-350149000D01*
X25854975Y-350208585D01*
G37*
G36*
X15604975Y-350208585D02*
G01*
X15904528Y-350268170D01*
X16468874Y-350501930D01*
X16976772Y-350841296D01*
X17408704Y-351273228D01*
X17748070Y-351781126D01*
X17981830Y-352345472D01*
X18101000Y-352944578D01*
X18101000Y-353555422D01*
X17981830Y-354154528D01*
X17748070Y-354718874D01*
X17408704Y-355226772D01*
X16976772Y-355658704D01*
X16468874Y-355998070D01*
X15904528Y-356231830D01*
X15604975Y-356291415D01*
X15305423Y-356351000D01*
X14694577Y-356351000D01*
X14395025Y-356291415D01*
X14095472Y-356231830D01*
X13531126Y-355998070D01*
X13023228Y-355658704D01*
X12591296Y-355226772D01*
X12251930Y-354718874D01*
X12018170Y-354154528D01*
X11899000Y-353555422D01*
X11899000Y-352944578D01*
X12018170Y-352345472D01*
X12251930Y-351781126D01*
X12591296Y-351273228D01*
X13023228Y-350841296D01*
X13531126Y-350501930D01*
X14095472Y-350268170D01*
X14395025Y-350208585D01*
X14694577Y-350149000D01*
X15305423Y-350149000D01*
X15604975Y-350208585D01*
G37*
G36*
X5604975Y-350208585D02*
G01*
X5904528Y-350268170D01*
X6468874Y-350501930D01*
X6976772Y-350841296D01*
X7408704Y-351273228D01*
X7748070Y-351781126D01*
X7981830Y-352345472D01*
X8101000Y-352944578D01*
X8101000Y-353555422D01*
X7981830Y-354154528D01*
X7748070Y-354718874D01*
X7408704Y-355226772D01*
X6976772Y-355658704D01*
X6468874Y-355998070D01*
X5904528Y-356231830D01*
X5604975Y-356291415D01*
X5305423Y-356351000D01*
X4694577Y-356351000D01*
X4395025Y-356291415D01*
X4095472Y-356231830D01*
X3531126Y-355998070D01*
X3023228Y-355658704D01*
X2591296Y-355226772D01*
X2251930Y-354718874D01*
X2018170Y-354154528D01*
X1899000Y-353555422D01*
X1899000Y-352944578D01*
X2018170Y-352345472D01*
X2251930Y-351781126D01*
X2591296Y-351273228D01*
X3023228Y-350841296D01*
X3531126Y-350501930D01*
X4095472Y-350268170D01*
X4395025Y-350208585D01*
X4694577Y-350149000D01*
X5305423Y-350149000D01*
X5604975Y-350208585D01*
G37*
G36*
X35604975Y-333208585D02*
G01*
X35904528Y-333268170D01*
X36468874Y-333501930D01*
X36976772Y-333841296D01*
X37408704Y-334273228D01*
X37748070Y-334781126D01*
X37981830Y-335345472D01*
X38101000Y-335944578D01*
X38101000Y-336555422D01*
X37981830Y-337154528D01*
X37748070Y-337718874D01*
X37408704Y-338226772D01*
X36976772Y-338658704D01*
X36468874Y-338998070D01*
X35904528Y-339231830D01*
X35604975Y-339291415D01*
X35305423Y-339351000D01*
X34694577Y-339351000D01*
X34395025Y-339291415D01*
X34095472Y-339231830D01*
X33531126Y-338998070D01*
X33023228Y-338658704D01*
X32591296Y-338226772D01*
X32251930Y-337718874D01*
X32018170Y-337154528D01*
X31899000Y-336555422D01*
X31899000Y-335944578D01*
X32018170Y-335345472D01*
X32251930Y-334781126D01*
X32591296Y-334273228D01*
X33023228Y-333841296D01*
X33531126Y-333501930D01*
X34095472Y-333268170D01*
X34395025Y-333208585D01*
X34694577Y-333149000D01*
X35305423Y-333149000D01*
X35604975Y-333208585D01*
G37*
G36*
X25854975Y-333208585D02*
G01*
X26154528Y-333268170D01*
X26718874Y-333501930D01*
X27226772Y-333841296D01*
X27658704Y-334273228D01*
X27998070Y-334781126D01*
X28231830Y-335345472D01*
X28351000Y-335944578D01*
X28351000Y-336555422D01*
X28231830Y-337154528D01*
X27998070Y-337718874D01*
X27658704Y-338226772D01*
X27226772Y-338658704D01*
X26718874Y-338998070D01*
X26154528Y-339231830D01*
X25854975Y-339291415D01*
X25555423Y-339351000D01*
X24944577Y-339351000D01*
X24645025Y-339291415D01*
X24345472Y-339231830D01*
X23781126Y-338998070D01*
X23273228Y-338658704D01*
X22841296Y-338226772D01*
X22501930Y-337718874D01*
X22268170Y-337154528D01*
X22149000Y-336555422D01*
X22149000Y-335944578D01*
X22268170Y-335345472D01*
X22501930Y-334781126D01*
X22841296Y-334273228D01*
X23273228Y-333841296D01*
X23781126Y-333501930D01*
X24345472Y-333268170D01*
X24645025Y-333208585D01*
X24944577Y-333149000D01*
X25555423Y-333149000D01*
X25854975Y-333208585D01*
G37*
G36*
X15604975Y-333208585D02*
G01*
X15904528Y-333268170D01*
X16468874Y-333501930D01*
X16976772Y-333841296D01*
X17408704Y-334273228D01*
X17748070Y-334781126D01*
X17981830Y-335345472D01*
X18101000Y-335944578D01*
X18101000Y-336555422D01*
X17981830Y-337154528D01*
X17748070Y-337718874D01*
X17408704Y-338226772D01*
X16976772Y-338658704D01*
X16468874Y-338998070D01*
X15904528Y-339231830D01*
X15604975Y-339291415D01*
X15305423Y-339351000D01*
X14694577Y-339351000D01*
X14395025Y-339291415D01*
X14095472Y-339231830D01*
X13531126Y-338998070D01*
X13023228Y-338658704D01*
X12591296Y-338226772D01*
X12251930Y-337718874D01*
X12018170Y-337154528D01*
X11899000Y-336555422D01*
X11899000Y-335944578D01*
X12018170Y-335345472D01*
X12251930Y-334781126D01*
X12591296Y-334273228D01*
X13023228Y-333841296D01*
X13531126Y-333501930D01*
X14095472Y-333268170D01*
X14395025Y-333208585D01*
X14694577Y-333149000D01*
X15305423Y-333149000D01*
X15604975Y-333208585D01*
G37*
G36*
X5604975Y-333208585D02*
G01*
X5904528Y-333268170D01*
X6468874Y-333501930D01*
X6976772Y-333841296D01*
X7408704Y-334273228D01*
X7748070Y-334781126D01*
X7981830Y-335345472D01*
X8101000Y-335944578D01*
X8101000Y-336555422D01*
X7981830Y-337154528D01*
X7748070Y-337718874D01*
X7408704Y-338226772D01*
X6976772Y-338658704D01*
X6468874Y-338998070D01*
X5904528Y-339231830D01*
X5604975Y-339291415D01*
X5305423Y-339351000D01*
X4694577Y-339351000D01*
X4395025Y-339291415D01*
X4095472Y-339231830D01*
X3531126Y-338998070D01*
X3023228Y-338658704D01*
X2591296Y-338226772D01*
X2251930Y-337718874D01*
X2018170Y-337154528D01*
X1899000Y-336555422D01*
X1899000Y-335944578D01*
X2018170Y-335345472D01*
X2251930Y-334781126D01*
X2591296Y-334273228D01*
X3023228Y-333841296D01*
X3531126Y-333501930D01*
X4095472Y-333268170D01*
X4395025Y-333208585D01*
X4694577Y-333149000D01*
X5305423Y-333149000D01*
X5604975Y-333208585D01*
G37*
G36*
X35604975Y-316458585D02*
G01*
X35904528Y-316518170D01*
X36468874Y-316751930D01*
X36976772Y-317091296D01*
X37408704Y-317523228D01*
X37748070Y-318031126D01*
X37981830Y-318595472D01*
X38101000Y-319194578D01*
X38101000Y-319805422D01*
X37981830Y-320404528D01*
X37748070Y-320968874D01*
X37408704Y-321476772D01*
X36976772Y-321908704D01*
X36468874Y-322248070D01*
X35904528Y-322481830D01*
X35604975Y-322541415D01*
X35305423Y-322601000D01*
X34694577Y-322601000D01*
X34395025Y-322541415D01*
X34095472Y-322481830D01*
X33531126Y-322248070D01*
X33023228Y-321908704D01*
X32591296Y-321476772D01*
X32251930Y-320968874D01*
X32018170Y-320404528D01*
X31899000Y-319805422D01*
X31899000Y-319194578D01*
X32018170Y-318595472D01*
X32251930Y-318031126D01*
X32591296Y-317523228D01*
X33023228Y-317091296D01*
X33531126Y-316751930D01*
X34095472Y-316518170D01*
X34395025Y-316458585D01*
X34694577Y-316399000D01*
X35305423Y-316399000D01*
X35604975Y-316458585D01*
G37*
G36*
X25854975Y-316458585D02*
G01*
X26154528Y-316518170D01*
X26718874Y-316751930D01*
X27226772Y-317091296D01*
X27658704Y-317523228D01*
X27998070Y-318031126D01*
X28231830Y-318595472D01*
X28351000Y-319194578D01*
X28351000Y-319805422D01*
X28231830Y-320404528D01*
X27998070Y-320968874D01*
X27658704Y-321476772D01*
X27226772Y-321908704D01*
X26718874Y-322248070D01*
X26154528Y-322481830D01*
X25854975Y-322541415D01*
X25555423Y-322601000D01*
X24944577Y-322601000D01*
X24645025Y-322541415D01*
X24345472Y-322481830D01*
X23781126Y-322248070D01*
X23273228Y-321908704D01*
X22841296Y-321476772D01*
X22501930Y-320968874D01*
X22268170Y-320404528D01*
X22149000Y-319805422D01*
X22149000Y-319194578D01*
X22268170Y-318595472D01*
X22501930Y-318031126D01*
X22841296Y-317523228D01*
X23273228Y-317091296D01*
X23781126Y-316751930D01*
X24345472Y-316518170D01*
X24645025Y-316458585D01*
X24944577Y-316399000D01*
X25555423Y-316399000D01*
X25854975Y-316458585D01*
G37*
G36*
X15604975Y-316458585D02*
G01*
X15904528Y-316518170D01*
X16468874Y-316751930D01*
X16976772Y-317091296D01*
X17408704Y-317523228D01*
X17748070Y-318031126D01*
X17981830Y-318595472D01*
X18101000Y-319194578D01*
X18101000Y-319805422D01*
X17981830Y-320404528D01*
X17748070Y-320968874D01*
X17408704Y-321476772D01*
X16976772Y-321908704D01*
X16468874Y-322248070D01*
X15904528Y-322481830D01*
X15604975Y-322541415D01*
X15305423Y-322601000D01*
X14694577Y-322601000D01*
X14395025Y-322541415D01*
X14095472Y-322481830D01*
X13531126Y-322248070D01*
X13023228Y-321908704D01*
X12591296Y-321476772D01*
X12251930Y-320968874D01*
X12018170Y-320404528D01*
X11899000Y-319805422D01*
X11899000Y-319194578D01*
X12018170Y-318595472D01*
X12251930Y-318031126D01*
X12591296Y-317523228D01*
X13023228Y-317091296D01*
X13531126Y-316751930D01*
X14095472Y-316518170D01*
X14395025Y-316458585D01*
X14694577Y-316399000D01*
X15305423Y-316399000D01*
X15604975Y-316458585D01*
G37*
G36*
X5604975Y-316458585D02*
G01*
X5904528Y-316518170D01*
X6468874Y-316751930D01*
X6976772Y-317091296D01*
X7408704Y-317523228D01*
X7748070Y-318031126D01*
X7981830Y-318595472D01*
X8101000Y-319194578D01*
X8101000Y-319805422D01*
X7981830Y-320404528D01*
X7748070Y-320968874D01*
X7408704Y-321476772D01*
X6976772Y-321908704D01*
X6468874Y-322248070D01*
X5904528Y-322481830D01*
X5604975Y-322541415D01*
X5305423Y-322601000D01*
X4694577Y-322601000D01*
X4395025Y-322541415D01*
X4095472Y-322481830D01*
X3531126Y-322248070D01*
X3023228Y-321908704D01*
X2591296Y-321476772D01*
X2251930Y-320968874D01*
X2018170Y-320404528D01*
X1899000Y-319805422D01*
X1899000Y-319194578D01*
X2018170Y-318595472D01*
X2251930Y-318031126D01*
X2591296Y-317523228D01*
X3023228Y-317091296D01*
X3531126Y-316751930D01*
X4095472Y-316518170D01*
X4395025Y-316458585D01*
X4694577Y-316399000D01*
X5305423Y-316399000D01*
X5604975Y-316458585D01*
G37*
M02*
