G04 #@! TF.GenerationSoftware,KiCad,Pcbnew,(5.1.5-0)*
G04 #@! TF.CreationDate,2021-01-12T22:43:41-08:00*
G04 #@! TF.ProjectId,sauceofunce,73617563-656f-4667-956e-63652e6b6963,rev?*
G04 #@! TF.SameCoordinates,Original*
G04 #@! TF.FileFunction,Copper,L1,Top*
G04 #@! TF.FilePolarity,Positive*
%FSLAX46Y46*%
G04 Gerber Fmt 4.6, Leading zero omitted, Abs format (unit mm)*
G04 Created by KiCad (PCBNEW (5.1.5-0)) date 2021-01-12 22:43:41*
%MOMM*%
%LPD*%
G04 APERTURE LIST*
%ADD10C,2.000000*%
%ADD11C,0.100000*%
%ADD12C,5.100000*%
%ADD13C,6.100000*%
G04 APERTURE END LIST*
D10*
X140750000Y69800000D02*
X110750000Y69800000D01*
D11*
G36*
X121596400Y-19224900D02*
G01*
X121913900Y-19466200D01*
X122479050Y-19783700D01*
X123075950Y-20215500D01*
X123450600Y-20596500D01*
X123850650Y-21161650D01*
X124447550Y-22342750D01*
X124746000Y-22907900D01*
X124758700Y-22920600D01*
X124428500Y-22946000D01*
X124326900Y-22895200D01*
X123971300Y-22647550D01*
X123564900Y-22279250D01*
X123234700Y-21930000D01*
X122879100Y-21498200D01*
X122599700Y-21079100D01*
X122409200Y-20825100D01*
X122155200Y-20367900D01*
X121901200Y-19999600D01*
X121659900Y-19580500D01*
X121380500Y-19021700D01*
X121596400Y-19224900D01*
G37*
X121596400Y-19224900D02*
X121913900Y-19466200D01*
X122479050Y-19783700D01*
X123075950Y-20215500D01*
X123450600Y-20596500D01*
X123850650Y-21161650D01*
X124447550Y-22342750D01*
X124746000Y-22907900D01*
X124758700Y-22920600D01*
X124428500Y-22946000D01*
X124326900Y-22895200D01*
X123971300Y-22647550D01*
X123564900Y-22279250D01*
X123234700Y-21930000D01*
X122879100Y-21498200D01*
X122599700Y-21079100D01*
X122409200Y-20825100D01*
X122155200Y-20367900D01*
X121901200Y-19999600D01*
X121659900Y-19580500D01*
X121380500Y-19021700D01*
X121596400Y-19224900D01*
G36*
X123002925Y-22403075D02*
G01*
X123339475Y-22498325D01*
X123603000Y-22590400D01*
X124301500Y-22996800D01*
X124331980Y-23024740D01*
X124339600Y-23009500D01*
X124339600Y-23022200D01*
X124331980Y-23024740D01*
X124250700Y-23187300D01*
X124644400Y-23327000D01*
X124434850Y-23352400D01*
X124041150Y-23377800D01*
X123564900Y-23377800D01*
X123120400Y-23314300D01*
X122637800Y-23200000D01*
X122244100Y-23085700D01*
X121837700Y-22857100D01*
X121520200Y-22628500D01*
X121113800Y-22501500D01*
X121761500Y-22450700D01*
X122294900Y-22412600D01*
X122758450Y-22406250D01*
X123002925Y-22403075D01*
G37*
X123002925Y-22403075D02*
X123339475Y-22498325D01*
X123603000Y-22590400D01*
X124301500Y-22996800D01*
X124331980Y-23024740D01*
X124339600Y-23009500D01*
X124339600Y-23022200D01*
X124331980Y-23024740D01*
X124250700Y-23187300D01*
X124644400Y-23327000D01*
X124434850Y-23352400D01*
X124041150Y-23377800D01*
X123564900Y-23377800D01*
X123120400Y-23314300D01*
X122637800Y-23200000D01*
X122244100Y-23085700D01*
X121837700Y-22857100D01*
X121520200Y-22628500D01*
X121113800Y-22501500D01*
X121761500Y-22450700D01*
X122294900Y-22412600D01*
X122758450Y-22406250D01*
X123002925Y-22403075D01*
G36*
X124866650Y-23466700D02*
G01*
X124498350Y-23898500D01*
X124060200Y-24171550D01*
X123679200Y-24311250D01*
X122929900Y-24476350D01*
X123412500Y-23949300D01*
X123806200Y-23682600D01*
X124174500Y-23479400D01*
X124644400Y-23403200D01*
X124669800Y-23403200D01*
X124866650Y-23466700D01*
G37*
X124866650Y-23466700D02*
X124498350Y-23898500D01*
X124060200Y-24171550D01*
X123679200Y-24311250D01*
X122929900Y-24476350D01*
X123412500Y-23949300D01*
X123806200Y-23682600D01*
X124174500Y-23479400D01*
X124644400Y-23403200D01*
X124669800Y-23403200D01*
X124866650Y-23466700D01*
G36*
X125000000Y-22984100D02*
G01*
X124788862Y-23177775D01*
X125007937Y-23273025D01*
X125758825Y-23815950D01*
X125577850Y-23911200D01*
X125000000Y-23454000D01*
X125012700Y-24546200D01*
X124898400Y-24406500D01*
X124892050Y-23517500D01*
X124936500Y-23517500D01*
X124555500Y-23301600D01*
X124269750Y-23149200D01*
X124434850Y-22869800D01*
X125000000Y-22984100D01*
G37*
X125000000Y-22984100D02*
X124788862Y-23177775D01*
X125007937Y-23273025D01*
X125758825Y-23815950D01*
X125577850Y-23911200D01*
X125000000Y-23454000D01*
X125012700Y-24546200D01*
X124898400Y-24406500D01*
X124892050Y-23517500D01*
X124936500Y-23517500D01*
X124555500Y-23301600D01*
X124269750Y-23149200D01*
X124434850Y-22869800D01*
X125000000Y-22984100D01*
G36*
X125641350Y-23441300D02*
G01*
X126193800Y-23720700D01*
X126520825Y-24047725D01*
X126655763Y-24277913D01*
X126887538Y-24547788D01*
X126581150Y-24463650D01*
X126327150Y-24387450D01*
X126149350Y-24323950D01*
X125774700Y-24190600D01*
X125415925Y-23996925D01*
X125155575Y-23711175D01*
X125031750Y-23549250D01*
X125095250Y-23587350D01*
X125069850Y-23523850D01*
X125133350Y-23352400D01*
X125641350Y-23441300D01*
G37*
X125641350Y-23441300D02*
X126193800Y-23720700D01*
X126520825Y-24047725D01*
X126655763Y-24277913D01*
X126887538Y-24547788D01*
X126581150Y-24463650D01*
X126327150Y-24387450D01*
X126149350Y-24323950D01*
X125774700Y-24190600D01*
X125415925Y-23996925D01*
X125155575Y-23711175D01*
X125031750Y-23549250D01*
X125095250Y-23587350D01*
X125069850Y-23523850D01*
X125133350Y-23352400D01*
X125641350Y-23441300D01*
G36*
X128073400Y-22438000D02*
G01*
X128505200Y-22463400D01*
X129083207Y-22473943D01*
X128403600Y-22628500D01*
X127971800Y-22819000D01*
X127628900Y-23034900D01*
X127209800Y-23200000D01*
X126676400Y-23288900D01*
X126231900Y-23314300D01*
X125654050Y-23295250D01*
X125076200Y-23276200D01*
X125012700Y-23200000D01*
X125228600Y-23136500D01*
X125235585Y-23085700D01*
X125551815Y-22958700D01*
X126085850Y-22730100D01*
X126638300Y-22526900D01*
X127032000Y-22412600D01*
X127476500Y-22412600D01*
X128073400Y-22438000D01*
G37*
X128073400Y-22438000D02*
X128505200Y-22463400D01*
X129083207Y-22473943D01*
X128403600Y-22628500D01*
X127971800Y-22819000D01*
X127628900Y-23034900D01*
X127209800Y-23200000D01*
X126676400Y-23288900D01*
X126231900Y-23314300D01*
X125654050Y-23295250D01*
X125076200Y-23276200D01*
X125012700Y-23200000D01*
X125228600Y-23136500D01*
X125235585Y-23085700D01*
X125551815Y-22958700D01*
X126085850Y-22730100D01*
X126638300Y-22526900D01*
X127032000Y-22412600D01*
X127476500Y-22412600D01*
X128073400Y-22438000D01*
G36*
X128060700Y-19783700D02*
G01*
X127819400Y-20279000D01*
X127616200Y-20736200D01*
X127355850Y-21256900D01*
X127082800Y-21612500D01*
X126771650Y-22025250D01*
X126301750Y-22418950D01*
X125800100Y-22755500D01*
X124695200Y-23352400D01*
X124720600Y-23022200D01*
X125025400Y-22971400D01*
X125273050Y-22533250D01*
X125488950Y-22069700D01*
X125654050Y-21739500D01*
X125838200Y-21447400D01*
X126003300Y-21129900D01*
X126282700Y-20774300D01*
X126562100Y-20456800D01*
X126892300Y-20164700D01*
X127235200Y-19936100D01*
X127616200Y-19682100D01*
X128009900Y-19415400D01*
X128543300Y-19021700D01*
X128060700Y-19783700D01*
G37*
X128060700Y-19783700D02*
X127819400Y-20279000D01*
X127616200Y-20736200D01*
X127355850Y-21256900D01*
X127082800Y-21612500D01*
X126771650Y-22025250D01*
X126301750Y-22418950D01*
X125800100Y-22755500D01*
X124695200Y-23352400D01*
X124720600Y-23022200D01*
X125025400Y-22971400D01*
X125273050Y-22533250D01*
X125488950Y-22069700D01*
X125654050Y-21739500D01*
X125838200Y-21447400D01*
X126003300Y-21129900D01*
X126282700Y-20774300D01*
X126562100Y-20456800D01*
X126892300Y-20164700D01*
X127235200Y-19936100D01*
X127616200Y-19682100D01*
X128009900Y-19415400D01*
X128543300Y-19021700D01*
X128060700Y-19783700D01*
G36*
X125215900Y-17650100D02*
G01*
X125317500Y-18132700D01*
X125431800Y-18589900D01*
X125514350Y-18920100D01*
X125577850Y-19301100D01*
X125622300Y-19821800D01*
X125622300Y-20355200D01*
X125571500Y-20939400D01*
X125508000Y-21460100D01*
X125365125Y-21955400D01*
X125066675Y-22971400D01*
X124853950Y-22920600D01*
X124619000Y-22006200D01*
X124445962Y-21142600D01*
X124461837Y-20355200D01*
X124514225Y-19694800D01*
X124676150Y-18920100D01*
X124911100Y-18107300D01*
X125038100Y-17332600D01*
X125101600Y-16811900D01*
X125215900Y-17650100D01*
G37*
X125215900Y-17650100D02*
X125317500Y-18132700D01*
X125431800Y-18589900D01*
X125514350Y-18920100D01*
X125577850Y-19301100D01*
X125622300Y-19821800D01*
X125622300Y-20355200D01*
X125571500Y-20939400D01*
X125508000Y-21460100D01*
X125365125Y-21955400D01*
X125066675Y-22971400D01*
X124853950Y-22920600D01*
X124619000Y-22006200D01*
X124445962Y-21142600D01*
X124461837Y-20355200D01*
X124514225Y-19694800D01*
X124676150Y-18920100D01*
X124911100Y-18107300D01*
X125038100Y-17332600D01*
X125101600Y-16811900D01*
X125215900Y-17650100D01*
D12*
X125250000Y52500000D03*
X125250000Y15000000D03*
D13*
X141250000Y70000000D03*
X125250000Y70000000D03*
X109250000Y70000000D03*
X109250000Y38000000D03*
X141250000Y38000000D03*
X109250000Y500000D03*
X141250000Y500000D03*
M02*
