G04 #@! TF.GenerationSoftware,KiCad,Pcbnew,(5.1.5-0)*
G04 #@! TF.CreationDate,2021-01-12T22:43:41-08:00*
G04 #@! TF.ProjectId,sauceofunce,73617563-656f-4667-956e-63652e6b6963,rev?*
G04 #@! TF.SameCoordinates,Original*
G04 #@! TF.FileFunction,Legend,Top*
G04 #@! TF.FilePolarity,Positive*
%FSLAX46Y46*%
G04 Gerber Fmt 4.6, Leading zero omitted, Abs format (unit mm)*
G04 Created by KiCad (PCBNEW (5.1.5-0)) date 2021-01-12 22:43:41*
%MOMM*%
%LPD*%
G04 APERTURE LIST*
%ADD10C,0.300000*%
%ADD11C,0.500000*%
G04 APERTURE END LIST*
D10*
X102464285Y10642857D02*
X103607142Y10642857D01*
X102892857Y11642857D02*
X102892857Y9071428D01*
X103035714Y8785714D01*
X103321428Y8642857D01*
X103607142Y8642857D01*
X104607142Y8642857D02*
X104607142Y10642857D01*
X104607142Y10071428D02*
X104750000Y10357142D01*
X104892857Y10500000D01*
X105178571Y10642857D01*
X105464285Y10642857D01*
X106464285Y8642857D02*
X106464285Y10642857D01*
X106464285Y11642857D02*
X106321428Y11500000D01*
X106464285Y11357142D01*
X106607142Y11500000D01*
X106464285Y11642857D01*
X106464285Y11357142D01*
X109178571Y10642857D02*
X109178571Y8214285D01*
X109035714Y7928571D01*
X108892857Y7785714D01*
X108607142Y7642857D01*
X108178571Y7642857D01*
X107892857Y7785714D01*
X109178571Y8785714D02*
X108892857Y8642857D01*
X108321428Y8642857D01*
X108035714Y8785714D01*
X107892857Y8928571D01*
X107750000Y9214285D01*
X107750000Y10071428D01*
X107892857Y10357142D01*
X108035714Y10500000D01*
X108321428Y10642857D01*
X108892857Y10642857D01*
X109178571Y10500000D01*
X112892857Y8642857D02*
X112892857Y10642857D01*
X112892857Y11642857D02*
X112750000Y11500000D01*
X112892857Y11357142D01*
X113035714Y11500000D01*
X112892857Y11642857D01*
X112892857Y11357142D01*
X114321428Y10642857D02*
X114321428Y8642857D01*
X114321428Y10357142D02*
X114464285Y10500000D01*
X114750000Y10642857D01*
X115178571Y10642857D01*
X115464285Y10500000D01*
X115607142Y10214285D01*
X115607142Y8642857D01*
X135892857Y15038095D02*
X136130952Y14919047D01*
X136607142Y14919047D01*
X136845238Y15038095D01*
X136964285Y15276190D01*
X136964285Y15395238D01*
X136845238Y15633333D01*
X136607142Y15752380D01*
X136250000Y15752380D01*
X136011904Y15871428D01*
X135892857Y16109523D01*
X135892857Y16228571D01*
X136011904Y16466666D01*
X136250000Y16585714D01*
X136607142Y16585714D01*
X136845238Y16466666D01*
X137678571Y16585714D02*
X138630952Y16585714D01*
X138035714Y17419047D02*
X138035714Y15276190D01*
X138154761Y15038095D01*
X138392857Y14919047D01*
X138630952Y14919047D01*
X139821428Y14919047D02*
X139583333Y15038095D01*
X139464285Y15157142D01*
X139345238Y15395238D01*
X139345238Y16109523D01*
X139464285Y16347619D01*
X139583333Y16466666D01*
X139821428Y16585714D01*
X140178571Y16585714D01*
X140416666Y16466666D01*
X140535714Y16347619D01*
X140654761Y16109523D01*
X140654761Y15395238D01*
X140535714Y15157142D01*
X140416666Y15038095D01*
X140178571Y14919047D01*
X139821428Y14919047D01*
X141726190Y14919047D02*
X141726190Y16585714D01*
X141726190Y16109523D02*
X141845238Y16347619D01*
X141964285Y16466666D01*
X142202380Y16585714D01*
X142440476Y16585714D01*
X144226190Y15038095D02*
X143988095Y14919047D01*
X143511904Y14919047D01*
X143273809Y15038095D01*
X143154761Y15276190D01*
X143154761Y16228571D01*
X143273809Y16466666D01*
X143511904Y16585714D01*
X143988095Y16585714D01*
X144226190Y16466666D01*
X144345238Y16228571D01*
X144345238Y15990476D01*
X143154761Y15752380D01*
X146488095Y14919047D02*
X146488095Y17419047D01*
X146488095Y15038095D02*
X146250000Y14919047D01*
X145773809Y14919047D01*
X145535714Y15038095D01*
X145416666Y15157142D01*
X145297619Y15395238D01*
X145297619Y16109523D01*
X145416666Y16347619D01*
X145535714Y16466666D01*
X145773809Y16585714D01*
X146250000Y16585714D01*
X146488095Y16466666D01*
X134880952Y10869047D02*
X134880952Y12535714D01*
X134880952Y12059523D02*
X135000000Y12297619D01*
X135119047Y12416666D01*
X135357142Y12535714D01*
X135595238Y12535714D01*
X137500000Y10869047D02*
X137500000Y12178571D01*
X137380952Y12416666D01*
X137142857Y12535714D01*
X136666666Y12535714D01*
X136428571Y12416666D01*
X137500000Y10988095D02*
X137261904Y10869047D01*
X136666666Y10869047D01*
X136428571Y10988095D01*
X136309523Y11226190D01*
X136309523Y11464285D01*
X136428571Y11702380D01*
X136666666Y11821428D01*
X137261904Y11821428D01*
X137500000Y11940476D01*
X138690476Y12535714D02*
X138690476Y10869047D01*
X138690476Y12297619D02*
X138809523Y12416666D01*
X139047619Y12535714D01*
X139404761Y12535714D01*
X139642857Y12416666D01*
X139761904Y12178571D01*
X139761904Y10869047D01*
X142023809Y10869047D02*
X142023809Y13369047D01*
X142023809Y10988095D02*
X141785714Y10869047D01*
X141309523Y10869047D01*
X141071428Y10988095D01*
X140952380Y11107142D01*
X140833333Y11345238D01*
X140833333Y12059523D01*
X140952380Y12297619D01*
X141071428Y12416666D01*
X141309523Y12535714D01*
X141785714Y12535714D01*
X142023809Y12416666D01*
X143571428Y10869047D02*
X143333333Y10988095D01*
X143214285Y11107142D01*
X143095238Y11345238D01*
X143095238Y12059523D01*
X143214285Y12297619D01*
X143333333Y12416666D01*
X143571428Y12535714D01*
X143928571Y12535714D01*
X144166666Y12416666D01*
X144285714Y12297619D01*
X144404761Y12059523D01*
X144404761Y11345238D01*
X144285714Y11107142D01*
X144166666Y10988095D01*
X143928571Y10869047D01*
X143571428Y10869047D01*
X145476190Y10869047D02*
X145476190Y12535714D01*
X145476190Y12297619D02*
X145595238Y12416666D01*
X145833333Y12535714D01*
X146190476Y12535714D01*
X146428571Y12416666D01*
X146547619Y12178571D01*
X146547619Y10869047D01*
X146547619Y12178571D02*
X146666666Y12416666D01*
X146904761Y12535714D01*
X147261904Y12535714D01*
X147500000Y12416666D01*
X147619047Y12178571D01*
X147619047Y10869047D01*
X139226190Y6819047D02*
X138988095Y6938095D01*
X138869047Y7057142D01*
X138750000Y7295238D01*
X138750000Y8009523D01*
X138869047Y8247619D01*
X138988095Y8366666D01*
X139226190Y8485714D01*
X139583333Y8485714D01*
X139821428Y8366666D01*
X139940476Y8247619D01*
X140059523Y8009523D01*
X140059523Y7295238D01*
X139940476Y7057142D01*
X139821428Y6938095D01*
X139583333Y6819047D01*
X139226190Y6819047D01*
X142202380Y8485714D02*
X142202380Y6819047D01*
X141130952Y8485714D02*
X141130952Y7176190D01*
X141250000Y6938095D01*
X141488095Y6819047D01*
X141845238Y6819047D01*
X142083333Y6938095D01*
X142202380Y7057142D01*
X143035714Y8485714D02*
X143988095Y8485714D01*
X143392857Y9319047D02*
X143392857Y7176190D01*
X143511904Y6938095D01*
X143750000Y6819047D01*
X143988095Y6819047D01*
X106214285Y45488095D02*
X105976190Y45369047D01*
X105500000Y45369047D01*
X105261904Y45488095D01*
X105142857Y45607142D01*
X105023809Y45845238D01*
X105023809Y46559523D01*
X105142857Y46797619D01*
X105261904Y46916666D01*
X105500000Y47035714D01*
X105976190Y47035714D01*
X106214285Y46916666D01*
X107047619Y47035714D02*
X107642857Y45369047D01*
X108238095Y47035714D01*
X111095238Y45369047D02*
X111095238Y47035714D01*
X111095238Y47869047D02*
X110976190Y47750000D01*
X111095238Y47630952D01*
X111214285Y47750000D01*
X111095238Y47869047D01*
X111095238Y47630952D01*
X112285714Y47035714D02*
X112285714Y45369047D01*
X112285714Y46797619D02*
X112404761Y46916666D01*
X112642857Y47035714D01*
X113000000Y47035714D01*
X113238095Y46916666D01*
X113357142Y46678571D01*
X113357142Y45369047D01*
X134880952Y49144047D02*
X134880952Y50810714D01*
X134880952Y50334523D02*
X135000000Y50572619D01*
X135119047Y50691666D01*
X135357142Y50810714D01*
X135595238Y50810714D01*
X137500000Y49144047D02*
X137500000Y50453571D01*
X137380952Y50691666D01*
X137142857Y50810714D01*
X136666666Y50810714D01*
X136428571Y50691666D01*
X137500000Y49263095D02*
X137261904Y49144047D01*
X136666666Y49144047D01*
X136428571Y49263095D01*
X136309523Y49501190D01*
X136309523Y49739285D01*
X136428571Y49977380D01*
X136666666Y50096428D01*
X137261904Y50096428D01*
X137500000Y50215476D01*
X138690476Y50810714D02*
X138690476Y49144047D01*
X138690476Y50572619D02*
X138809523Y50691666D01*
X139047619Y50810714D01*
X139404761Y50810714D01*
X139642857Y50691666D01*
X139761904Y50453571D01*
X139761904Y49144047D01*
X142023809Y49144047D02*
X142023809Y51644047D01*
X142023809Y49263095D02*
X141785714Y49144047D01*
X141309523Y49144047D01*
X141071428Y49263095D01*
X140952380Y49382142D01*
X140833333Y49620238D01*
X140833333Y50334523D01*
X140952380Y50572619D01*
X141071428Y50691666D01*
X141309523Y50810714D01*
X141785714Y50810714D01*
X142023809Y50691666D01*
X143571428Y49144047D02*
X143333333Y49263095D01*
X143214285Y49382142D01*
X143095238Y49620238D01*
X143095238Y50334523D01*
X143214285Y50572619D01*
X143333333Y50691666D01*
X143571428Y50810714D01*
X143928571Y50810714D01*
X144166666Y50691666D01*
X144285714Y50572619D01*
X144404761Y50334523D01*
X144404761Y49620238D01*
X144285714Y49382142D01*
X144166666Y49263095D01*
X143928571Y49144047D01*
X143571428Y49144047D01*
X145476190Y49144047D02*
X145476190Y50810714D01*
X145476190Y50572619D02*
X145595238Y50691666D01*
X145833333Y50810714D01*
X146190476Y50810714D01*
X146428571Y50691666D01*
X146547619Y50453571D01*
X146547619Y49144047D01*
X146547619Y50453571D02*
X146666666Y50691666D01*
X146904761Y50810714D01*
X147261904Y50810714D01*
X147500000Y50691666D01*
X147619047Y50453571D01*
X147619047Y49144047D01*
X139226190Y45094047D02*
X138988095Y45213095D01*
X138869047Y45332142D01*
X138750000Y45570238D01*
X138750000Y46284523D01*
X138869047Y46522619D01*
X138988095Y46641666D01*
X139226190Y46760714D01*
X139583333Y46760714D01*
X139821428Y46641666D01*
X139940476Y46522619D01*
X140059523Y46284523D01*
X140059523Y45570238D01*
X139940476Y45332142D01*
X139821428Y45213095D01*
X139583333Y45094047D01*
X139226190Y45094047D01*
X142202380Y46760714D02*
X142202380Y45094047D01*
X141130952Y46760714D02*
X141130952Y45451190D01*
X141250000Y45213095D01*
X141488095Y45094047D01*
X141845238Y45094047D01*
X142083333Y45213095D01*
X142202380Y45332142D01*
X143035714Y46760714D02*
X143988095Y46760714D01*
X143392857Y47594047D02*
X143392857Y45451190D01*
X143511904Y45213095D01*
X143750000Y45094047D01*
X143988095Y45094047D01*
X138357142Y76869047D02*
X138357142Y79369047D01*
X139428571Y76869047D02*
X139428571Y78178571D01*
X139309523Y78416666D01*
X139071428Y78535714D01*
X138714285Y78535714D01*
X138476190Y78416666D01*
X138357142Y78297619D01*
X140619047Y76869047D02*
X140619047Y78535714D01*
X140619047Y79369047D02*
X140500000Y79250000D01*
X140619047Y79130952D01*
X140738095Y79250000D01*
X140619047Y79369047D01*
X140619047Y79130952D01*
X142880952Y78535714D02*
X142880952Y76511904D01*
X142761904Y76273809D01*
X142642857Y76154761D01*
X142404761Y76035714D01*
X142047619Y76035714D01*
X141809523Y76154761D01*
X142880952Y76988095D02*
X142642857Y76869047D01*
X142166666Y76869047D01*
X141928571Y76988095D01*
X141809523Y77107142D01*
X141690476Y77345238D01*
X141690476Y78059523D01*
X141809523Y78297619D01*
X141928571Y78416666D01*
X142166666Y78535714D01*
X142642857Y78535714D01*
X142880952Y78416666D01*
X144071428Y76869047D02*
X144071428Y79369047D01*
X145142857Y76869047D02*
X145142857Y78178571D01*
X145023809Y78416666D01*
X144785714Y78535714D01*
X144428571Y78535714D01*
X144190476Y78416666D01*
X144071428Y78297619D01*
X122273809Y78535714D02*
X123226190Y78535714D01*
X122630952Y76869047D02*
X122630952Y79011904D01*
X122750000Y79250000D01*
X122988095Y79369047D01*
X123226190Y79369047D01*
X124416666Y76869047D02*
X124178571Y76988095D01*
X124059523Y77226190D01*
X124059523Y79369047D01*
X126440476Y76869047D02*
X126440476Y78178571D01*
X126321428Y78416666D01*
X126083333Y78535714D01*
X125607142Y78535714D01*
X125369047Y78416666D01*
X126440476Y76988095D02*
X126202380Y76869047D01*
X125607142Y76869047D01*
X125369047Y76988095D01*
X125250000Y77226190D01*
X125250000Y77464285D01*
X125369047Y77702380D01*
X125607142Y77821428D01*
X126202380Y77821428D01*
X126440476Y77940476D01*
X127273809Y78535714D02*
X128226190Y78535714D01*
X127630952Y79369047D02*
X127630952Y77226190D01*
X127750000Y76988095D01*
X127988095Y76869047D01*
X128226190Y76869047D01*
X107107142Y76869047D02*
X106869047Y76988095D01*
X106750000Y77226190D01*
X106750000Y79369047D01*
X108416666Y76869047D02*
X108178571Y76988095D01*
X108059523Y77107142D01*
X107940476Y77345238D01*
X107940476Y78059523D01*
X108059523Y78297619D01*
X108178571Y78416666D01*
X108416666Y78535714D01*
X108773809Y78535714D01*
X109011904Y78416666D01*
X109130952Y78297619D01*
X109250000Y78059523D01*
X109250000Y77345238D01*
X109130952Y77107142D01*
X109011904Y76988095D01*
X108773809Y76869047D01*
X108416666Y76869047D01*
X110083333Y78535714D02*
X110559523Y76869047D01*
X111035714Y78059523D01*
X111511904Y76869047D01*
X111988095Y78535714D01*
D11*
X104547619Y88880952D02*
X104928571Y88690476D01*
X105690476Y88690476D01*
X106071428Y88880952D01*
X106261904Y89261904D01*
X106261904Y89452380D01*
X106071428Y89833333D01*
X105690476Y90023809D01*
X105119047Y90023809D01*
X104738095Y90214285D01*
X104547619Y90595238D01*
X104547619Y90785714D01*
X104738095Y91166666D01*
X105119047Y91357142D01*
X105690476Y91357142D01*
X106071428Y91166666D01*
X109690476Y88690476D02*
X109690476Y90785714D01*
X109500000Y91166666D01*
X109119047Y91357142D01*
X108357142Y91357142D01*
X107976190Y91166666D01*
X109690476Y88880952D02*
X109309523Y88690476D01*
X108357142Y88690476D01*
X107976190Y88880952D01*
X107785714Y89261904D01*
X107785714Y89642857D01*
X107976190Y90023809D01*
X108357142Y90214285D01*
X109309523Y90214285D01*
X109690476Y90404761D01*
X113309523Y91357142D02*
X113309523Y88690476D01*
X111595238Y91357142D02*
X111595238Y89261904D01*
X111785714Y88880952D01*
X112166666Y88690476D01*
X112738095Y88690476D01*
X113119047Y88880952D01*
X113309523Y89071428D01*
X116928571Y88880952D02*
X116547619Y88690476D01*
X115785714Y88690476D01*
X115404761Y88880952D01*
X115214285Y89071428D01*
X115023809Y89452380D01*
X115023809Y90595238D01*
X115214285Y90976190D01*
X115404761Y91166666D01*
X115785714Y91357142D01*
X116547619Y91357142D01*
X116928571Y91166666D01*
X120166666Y88880952D02*
X119785714Y88690476D01*
X119023809Y88690476D01*
X118642857Y88880952D01*
X118452380Y89261904D01*
X118452380Y90785714D01*
X118642857Y91166666D01*
X119023809Y91357142D01*
X119785714Y91357142D01*
X120166666Y91166666D01*
X120357142Y90785714D01*
X120357142Y90404761D01*
X118452380Y90023809D01*
X125690476Y88690476D02*
X125309523Y88880952D01*
X125119047Y89071428D01*
X124928571Y89452380D01*
X124928571Y90595238D01*
X125119047Y90976190D01*
X125309523Y91166666D01*
X125690476Y91357142D01*
X126261904Y91357142D01*
X126642857Y91166666D01*
X126833333Y90976190D01*
X127023809Y90595238D01*
X127023809Y89452380D01*
X126833333Y89071428D01*
X126642857Y88880952D01*
X126261904Y88690476D01*
X125690476Y88690476D01*
X128166666Y91357142D02*
X129690476Y91357142D01*
X128738095Y88690476D02*
X128738095Y92119047D01*
X128928571Y92500000D01*
X129309523Y92690476D01*
X129690476Y92690476D01*
X135785714Y91357142D02*
X135785714Y88690476D01*
X134071428Y91357142D02*
X134071428Y89261904D01*
X134261904Y88880952D01*
X134642857Y88690476D01*
X135214285Y88690476D01*
X135595238Y88880952D01*
X135785714Y89071428D01*
X137690476Y91357142D02*
X137690476Y88690476D01*
X137690476Y90976190D02*
X137880952Y91166666D01*
X138261904Y91357142D01*
X138833333Y91357142D01*
X139214285Y91166666D01*
X139404761Y90785714D01*
X139404761Y88690476D01*
X143023809Y88880952D02*
X142642857Y88690476D01*
X141880952Y88690476D01*
X141500000Y88880952D01*
X141309523Y89071428D01*
X141119047Y89452380D01*
X141119047Y90595238D01*
X141309523Y90976190D01*
X141500000Y91166666D01*
X141880952Y91357142D01*
X142642857Y91357142D01*
X143023809Y91166666D01*
X146261904Y88880952D02*
X145880952Y88690476D01*
X145119047Y88690476D01*
X144738095Y88880952D01*
X144547619Y89261904D01*
X144547619Y90785714D01*
X144738095Y91166666D01*
X145119047Y91357142D01*
X145880952Y91357142D01*
X146261904Y91166666D01*
X146452380Y90785714D01*
X146452380Y90404761D01*
X144547619Y90023809D01*
M02*
