G04 #@! TF.GenerationSoftware,KiCad,Pcbnew,(5.1.5-0)*
G04 #@! TF.CreationDate,2021-01-12T22:43:41-08:00*
G04 #@! TF.ProjectId,sauceofunce,73617563-656f-4667-956e-63652e6b6963,rev?*
G04 #@! TF.SameCoordinates,Original*
G04 #@! TF.FileFunction,Soldermask,Bot*
G04 #@! TF.FilePolarity,Negative*
%FSLAX46Y46*%
G04 Gerber Fmt 4.6, Leading zero omitted, Abs format (unit mm)*
G04 Created by KiCad (PCBNEW (5.1.5-0)) date 2021-01-12 22:43:41*
%MOMM*%
%LPD*%
G04 APERTURE LIST*
%ADD10C,0.150000*%
%ADD11C,1.000000*%
%ADD12C,0.100000*%
G04 APERTURE END LIST*
D10*
X146464285Y-19928571D02*
X146464285Y-18928571D01*
X146464285Y-19214285D02*
X146392857Y-19071428D01*
X146321428Y-19000000D01*
X146178571Y-18928571D01*
X146035714Y-18928571D01*
X144964285Y-19857142D02*
X145107142Y-19928571D01*
X145392857Y-19928571D01*
X145535714Y-19857142D01*
X145607142Y-19714285D01*
X145607142Y-19142857D01*
X145535714Y-19000000D01*
X145392857Y-18928571D01*
X145107142Y-18928571D01*
X144964285Y-19000000D01*
X144892857Y-19142857D01*
X144892857Y-19285714D01*
X145607142Y-19428571D01*
X144250000Y-18928571D02*
X144250000Y-20428571D01*
X144250000Y-19000000D02*
X144107142Y-18928571D01*
X143821428Y-18928571D01*
X143678571Y-19000000D01*
X143607142Y-19071428D01*
X143535714Y-19214285D01*
X143535714Y-19642857D01*
X143607142Y-19785714D01*
X143678571Y-19857142D01*
X143821428Y-19928571D01*
X144107142Y-19928571D01*
X144250000Y-19857142D01*
X142250000Y-19928571D02*
X142250000Y-19142857D01*
X142321428Y-19000000D01*
X142464285Y-18928571D01*
X142750000Y-18928571D01*
X142892857Y-19000000D01*
X142250000Y-19857142D02*
X142392857Y-19928571D01*
X142750000Y-19928571D01*
X142892857Y-19857142D01*
X142964285Y-19714285D01*
X142964285Y-19571428D01*
X142892857Y-19428571D01*
X142750000Y-19357142D01*
X142392857Y-19357142D01*
X142250000Y-19285714D01*
X141535714Y-18928571D02*
X141535714Y-19928571D01*
X141535714Y-19071428D02*
X141464285Y-19000000D01*
X141321428Y-18928571D01*
X141107142Y-18928571D01*
X140964285Y-19000000D01*
X140892857Y-19142857D01*
X140892857Y-19928571D01*
X139607142Y-19857142D02*
X139750000Y-19928571D01*
X140035714Y-19928571D01*
X140178571Y-19857142D01*
X140250000Y-19714285D01*
X140250000Y-19142857D01*
X140178571Y-19000000D01*
X140035714Y-18928571D01*
X139750000Y-18928571D01*
X139607142Y-19000000D01*
X139535714Y-19142857D01*
X139535714Y-19285714D01*
X140250000Y-19428571D01*
X138678571Y-19928571D02*
X138821428Y-19857142D01*
X138892857Y-19714285D01*
X138892857Y-18428571D01*
X136964285Y-19928571D02*
X136964285Y-18428571D01*
X136964285Y-19000000D02*
X136821428Y-18928571D01*
X136535714Y-18928571D01*
X136392857Y-19000000D01*
X136321428Y-19071428D01*
X136250000Y-19214285D01*
X136250000Y-19642857D01*
X136321428Y-19785714D01*
X136392857Y-19857142D01*
X136535714Y-19928571D01*
X136821428Y-19928571D01*
X136964285Y-19857142D01*
X135750000Y-18928571D02*
X135392857Y-19928571D01*
X135035714Y-18928571D02*
X135392857Y-19928571D01*
X135535714Y-20285714D01*
X135607142Y-20357142D01*
X135750000Y-20428571D01*
X133321428Y-18928571D02*
X133321428Y-20214285D01*
X133392857Y-20357142D01*
X133535714Y-20428571D01*
X133607142Y-20428571D01*
X133321428Y-18428571D02*
X133392857Y-18500000D01*
X133321428Y-18571428D01*
X133250000Y-18500000D01*
X133321428Y-18428571D01*
X133321428Y-18571428D01*
X131964285Y-19928571D02*
X131964285Y-19142857D01*
X132035714Y-19000000D01*
X132178571Y-18928571D01*
X132464285Y-18928571D01*
X132607142Y-19000000D01*
X131964285Y-19857142D02*
X132107142Y-19928571D01*
X132464285Y-19928571D01*
X132607142Y-19857142D01*
X132678571Y-19714285D01*
X132678571Y-19571428D01*
X132607142Y-19428571D01*
X132464285Y-19357142D01*
X132107142Y-19357142D01*
X131964285Y-19285714D01*
X130607142Y-19857142D02*
X130750000Y-19928571D01*
X131035714Y-19928571D01*
X131178571Y-19857142D01*
X131250000Y-19785714D01*
X131321428Y-19642857D01*
X131321428Y-19214285D01*
X131250000Y-19071428D01*
X131178571Y-19000000D01*
X131035714Y-18928571D01*
X130750000Y-18928571D01*
X130607142Y-19000000D01*
X129964285Y-19928571D02*
X129964285Y-18428571D01*
X129821428Y-19357142D02*
X129392857Y-19928571D01*
X129392857Y-18928571D02*
X129964285Y-19500000D01*
X127678571Y-19857142D02*
X127535714Y-19928571D01*
X127250000Y-19928571D01*
X127107142Y-19857142D01*
X127035714Y-19714285D01*
X127035714Y-19642857D01*
X127107142Y-19500000D01*
X127250000Y-19428571D01*
X127464285Y-19428571D01*
X127607142Y-19357142D01*
X127678571Y-19214285D01*
X127678571Y-19142857D01*
X127607142Y-19000000D01*
X127464285Y-18928571D01*
X127250000Y-18928571D01*
X127107142Y-19000000D01*
X126392857Y-19785714D02*
X126321428Y-19857142D01*
X126392857Y-19928571D01*
X126464285Y-19857142D01*
X126392857Y-19785714D01*
X126392857Y-19928571D01*
X124607142Y-18571428D02*
X124535714Y-18500000D01*
X124392857Y-18428571D01*
X124035714Y-18428571D01*
X123892857Y-18500000D01*
X123821428Y-18571428D01*
X123750000Y-18714285D01*
X123750000Y-18857142D01*
X123821428Y-19071428D01*
X124678571Y-19928571D01*
X123750000Y-19928571D01*
X122821428Y-18428571D02*
X122678571Y-18428571D01*
X122535714Y-18500000D01*
X122464285Y-18571428D01*
X122392857Y-18714285D01*
X122321428Y-19000000D01*
X122321428Y-19357142D01*
X122392857Y-19642857D01*
X122464285Y-19785714D01*
X122535714Y-19857142D01*
X122678571Y-19928571D01*
X122821428Y-19928571D01*
X122964285Y-19857142D01*
X123035714Y-19785714D01*
X123107142Y-19642857D01*
X123178571Y-19357142D01*
X123178571Y-19000000D01*
X123107142Y-18714285D01*
X123035714Y-18571428D01*
X122964285Y-18500000D01*
X122821428Y-18428571D01*
X121750000Y-18571428D02*
X121678571Y-18500000D01*
X121535714Y-18428571D01*
X121178571Y-18428571D01*
X121035714Y-18500000D01*
X120964285Y-18571428D01*
X120892857Y-18714285D01*
X120892857Y-18857142D01*
X120964285Y-19071428D01*
X121821428Y-19928571D01*
X120892857Y-19928571D01*
X119464285Y-19928571D02*
X120321428Y-19928571D01*
X119892857Y-19928571D02*
X119892857Y-18428571D01*
X120035714Y-18642857D01*
X120178571Y-18785714D01*
X120321428Y-18857142D01*
D11*
X112800000Y38000000D02*
G75*
G03X112800000Y38000000I-3550000J0D01*
G01*
X144800000Y38000000D02*
G75*
G03X144800000Y38000000I-3550000J0D01*
G01*
X113050000Y70000000D02*
G75*
G03X113050000Y70000000I-3550000J0D01*
G01*
X128800000Y70000000D02*
G75*
G03X128800000Y70000000I-3550000J0D01*
G01*
X144800000Y70000000D02*
G75*
G03X144800000Y70000000I-3550000J0D01*
G01*
X144800000Y500000D02*
G75*
G03X144800000Y500000I-3550000J0D01*
G01*
X112800000Y500000D02*
G75*
G03X112800000Y500000I-3550000J0D01*
G01*
D12*
G36*
X141854975Y3541415D02*
G01*
X142154528Y3481830D01*
X142718874Y3248070D01*
X143226772Y2908704D01*
X143658704Y2476772D01*
X143998070Y1968874D01*
X144231830Y1404528D01*
X144351000Y805422D01*
X144351000Y194578D01*
X144231830Y-404528D01*
X143998070Y-968874D01*
X143658704Y-1476772D01*
X143226772Y-1908704D01*
X142718874Y-2248070D01*
X142154528Y-2481830D01*
X141854975Y-2541415D01*
X141555423Y-2601000D01*
X140944577Y-2601000D01*
X140645025Y-2541415D01*
X140345472Y-2481830D01*
X139781126Y-2248070D01*
X139273228Y-1908704D01*
X138841296Y-1476772D01*
X138501930Y-968874D01*
X138268170Y-404528D01*
X138149000Y194578D01*
X138149000Y805422D01*
X138268170Y1404528D01*
X138501930Y1968874D01*
X138841296Y2476772D01*
X139273228Y2908704D01*
X139781126Y3248070D01*
X140345472Y3481830D01*
X140645025Y3541415D01*
X140944577Y3601000D01*
X141555423Y3601000D01*
X141854975Y3541415D01*
G37*
G36*
X109854975Y3541415D02*
G01*
X110154528Y3481830D01*
X110718874Y3248070D01*
X111226772Y2908704D01*
X111658704Y2476772D01*
X111998070Y1968874D01*
X112231830Y1404528D01*
X112351000Y805422D01*
X112351000Y194578D01*
X112231830Y-404528D01*
X111998070Y-968874D01*
X111658704Y-1476772D01*
X111226772Y-1908704D01*
X110718874Y-2248070D01*
X110154528Y-2481830D01*
X109854975Y-2541415D01*
X109555423Y-2601000D01*
X108944577Y-2601000D01*
X108645025Y-2541415D01*
X108345472Y-2481830D01*
X107781126Y-2248070D01*
X107273228Y-1908704D01*
X106841296Y-1476772D01*
X106501930Y-968874D01*
X106268170Y-404528D01*
X106149000Y194578D01*
X106149000Y805422D01*
X106268170Y1404528D01*
X106501930Y1968874D01*
X106841296Y2476772D01*
X107273228Y2908704D01*
X107781126Y3248070D01*
X108345472Y3481830D01*
X108645025Y3541415D01*
X108944577Y3601000D01*
X109555423Y3601000D01*
X109854975Y3541415D01*
G37*
G36*
X125757430Y17551022D02*
G01*
X126008684Y17501045D01*
X126204752Y17419831D01*
X126482034Y17304977D01*
X126482035Y17304976D01*
X126908041Y17020329D01*
X127270329Y16658041D01*
X127460524Y16373393D01*
X127554977Y16232034D01*
X127751045Y15758683D01*
X127851000Y15256177D01*
X127851000Y14743823D01*
X127751045Y14241317D01*
X127554977Y13767966D01*
X127554976Y13767965D01*
X127270329Y13341959D01*
X126908041Y12979671D01*
X126623393Y12789476D01*
X126482034Y12695023D01*
X126204752Y12580169D01*
X126008684Y12498955D01*
X125757430Y12448978D01*
X125506177Y12399000D01*
X124993823Y12399000D01*
X124742570Y12448977D01*
X124491316Y12498955D01*
X124295248Y12580169D01*
X124017966Y12695023D01*
X123876607Y12789476D01*
X123591959Y12979671D01*
X123229671Y13341959D01*
X122945024Y13767965D01*
X122945023Y13767966D01*
X122748955Y14241317D01*
X122649000Y14743823D01*
X122649000Y15256177D01*
X122748955Y15758683D01*
X122945023Y16232034D01*
X123039476Y16373393D01*
X123229671Y16658041D01*
X123591959Y17020329D01*
X124017965Y17304976D01*
X124017966Y17304977D01*
X124295248Y17419831D01*
X124491316Y17501045D01*
X124742570Y17551022D01*
X124993823Y17601000D01*
X125506177Y17601000D01*
X125757430Y17551022D01*
G37*
G36*
X141854975Y41041415D02*
G01*
X142154528Y40981830D01*
X142718874Y40748070D01*
X143226772Y40408704D01*
X143658704Y39976772D01*
X143998070Y39468874D01*
X144231830Y38904528D01*
X144351000Y38305422D01*
X144351000Y37694578D01*
X144231830Y37095472D01*
X143998070Y36531126D01*
X143658704Y36023228D01*
X143226772Y35591296D01*
X142718874Y35251930D01*
X142154528Y35018170D01*
X141854975Y34958585D01*
X141555423Y34899000D01*
X140944577Y34899000D01*
X140645025Y34958585D01*
X140345472Y35018170D01*
X139781126Y35251930D01*
X139273228Y35591296D01*
X138841296Y36023228D01*
X138501930Y36531126D01*
X138268170Y37095472D01*
X138149000Y37694578D01*
X138149000Y38305422D01*
X138268170Y38904528D01*
X138501930Y39468874D01*
X138841296Y39976772D01*
X139273228Y40408704D01*
X139781126Y40748070D01*
X140345472Y40981830D01*
X140645025Y41041415D01*
X140944577Y41101000D01*
X141555423Y41101000D01*
X141854975Y41041415D01*
G37*
G36*
X109854975Y41041415D02*
G01*
X110154528Y40981830D01*
X110718874Y40748070D01*
X111226772Y40408704D01*
X111658704Y39976772D01*
X111998070Y39468874D01*
X112231830Y38904528D01*
X112351000Y38305422D01*
X112351000Y37694578D01*
X112231830Y37095472D01*
X111998070Y36531126D01*
X111658704Y36023228D01*
X111226772Y35591296D01*
X110718874Y35251930D01*
X110154528Y35018170D01*
X109854975Y34958585D01*
X109555423Y34899000D01*
X108944577Y34899000D01*
X108645025Y34958585D01*
X108345472Y35018170D01*
X107781126Y35251930D01*
X107273228Y35591296D01*
X106841296Y36023228D01*
X106501930Y36531126D01*
X106268170Y37095472D01*
X106149000Y37694578D01*
X106149000Y38305422D01*
X106268170Y38904528D01*
X106501930Y39468874D01*
X106841296Y39976772D01*
X107273228Y40408704D01*
X107781126Y40748070D01*
X108345472Y40981830D01*
X108645025Y41041415D01*
X108944577Y41101000D01*
X109555423Y41101000D01*
X109854975Y41041415D01*
G37*
G36*
X125757430Y55051023D02*
G01*
X126008684Y55001045D01*
X126204752Y54919831D01*
X126482034Y54804977D01*
X126482035Y54804976D01*
X126908041Y54520329D01*
X127270329Y54158041D01*
X127460524Y53873393D01*
X127554977Y53732034D01*
X127751045Y53258683D01*
X127851000Y52756177D01*
X127851000Y52243823D01*
X127751045Y51741317D01*
X127554977Y51267966D01*
X127554976Y51267965D01*
X127270329Y50841959D01*
X126908041Y50479671D01*
X126623393Y50289476D01*
X126482034Y50195023D01*
X126204752Y50080169D01*
X126008684Y49998955D01*
X125757430Y49948977D01*
X125506177Y49899000D01*
X124993823Y49899000D01*
X124742570Y49948978D01*
X124491316Y49998955D01*
X124295248Y50080169D01*
X124017966Y50195023D01*
X123876607Y50289476D01*
X123591959Y50479671D01*
X123229671Y50841959D01*
X122945024Y51267965D01*
X122945023Y51267966D01*
X122748955Y51741317D01*
X122649000Y52243823D01*
X122649000Y52756177D01*
X122748955Y53258683D01*
X122945023Y53732034D01*
X123039476Y53873393D01*
X123229671Y54158041D01*
X123591959Y54520329D01*
X124017965Y54804976D01*
X124017966Y54804977D01*
X124295248Y54919831D01*
X124491316Y55001045D01*
X124742570Y55051023D01*
X124993823Y55101000D01*
X125506177Y55101000D01*
X125757430Y55051023D01*
G37*
G36*
X141854975Y73041415D02*
G01*
X142154528Y72981830D01*
X142718874Y72748070D01*
X143226772Y72408704D01*
X143658704Y71976772D01*
X143998070Y71468874D01*
X144231830Y70904528D01*
X144351000Y70305422D01*
X144351000Y69694578D01*
X144231830Y69095472D01*
X143998070Y68531126D01*
X143658704Y68023228D01*
X143226772Y67591296D01*
X142718874Y67251930D01*
X142154528Y67018170D01*
X141854975Y66958585D01*
X141555423Y66899000D01*
X140944577Y66899000D01*
X140645025Y66958585D01*
X140345472Y67018170D01*
X139781126Y67251930D01*
X139273228Y67591296D01*
X138841296Y68023228D01*
X138501930Y68531126D01*
X138268170Y69095472D01*
X138149000Y69694578D01*
X138149000Y70305422D01*
X138268170Y70904528D01*
X138501930Y71468874D01*
X138841296Y71976772D01*
X139273228Y72408704D01*
X139781126Y72748070D01*
X140345472Y72981830D01*
X140645025Y73041415D01*
X140944577Y73101000D01*
X141555423Y73101000D01*
X141854975Y73041415D01*
G37*
G36*
X125854975Y73041415D02*
G01*
X126154528Y72981830D01*
X126718874Y72748070D01*
X127226772Y72408704D01*
X127658704Y71976772D01*
X127998070Y71468874D01*
X128231830Y70904528D01*
X128351000Y70305422D01*
X128351000Y69694578D01*
X128231830Y69095472D01*
X127998070Y68531126D01*
X127658704Y68023228D01*
X127226772Y67591296D01*
X126718874Y67251930D01*
X126154528Y67018170D01*
X125854975Y66958585D01*
X125555423Y66899000D01*
X124944577Y66899000D01*
X124645025Y66958585D01*
X124345472Y67018170D01*
X123781126Y67251930D01*
X123273228Y67591296D01*
X122841296Y68023228D01*
X122501930Y68531126D01*
X122268170Y69095472D01*
X122149000Y69694578D01*
X122149000Y70305422D01*
X122268170Y70904528D01*
X122501930Y71468874D01*
X122841296Y71976772D01*
X123273228Y72408704D01*
X123781126Y72748070D01*
X124345472Y72981830D01*
X124645025Y73041415D01*
X124944577Y73101000D01*
X125555423Y73101000D01*
X125854975Y73041415D01*
G37*
G36*
X109854975Y73041415D02*
G01*
X110154528Y72981830D01*
X110718874Y72748070D01*
X111226772Y72408704D01*
X111658704Y71976772D01*
X111998070Y71468874D01*
X112231830Y70904528D01*
X112351000Y70305422D01*
X112351000Y69694578D01*
X112231830Y69095472D01*
X111998070Y68531126D01*
X111658704Y68023228D01*
X111226772Y67591296D01*
X110718874Y67251930D01*
X110154528Y67018170D01*
X109854975Y66958585D01*
X109555423Y66899000D01*
X108944577Y66899000D01*
X108645025Y66958585D01*
X108345472Y67018170D01*
X107781126Y67251930D01*
X107273228Y67591296D01*
X106841296Y68023228D01*
X106501930Y68531126D01*
X106268170Y69095472D01*
X106149000Y69694578D01*
X106149000Y70305422D01*
X106268170Y70904528D01*
X106501930Y71468874D01*
X106841296Y71976772D01*
X107273228Y72408704D01*
X107781126Y72748070D01*
X108345472Y72981830D01*
X108645025Y73041415D01*
X108944577Y73101000D01*
X109555423Y73101000D01*
X109854975Y73041415D01*
G37*
M02*
