G04 #@! TF.GenerationSoftware,KiCad,Pcbnew,(5.1.5-0)*
G04 #@! TF.CreationDate,2021-01-12T22:43:41-08:00*
G04 #@! TF.ProjectId,sauceofunce,73617563-656f-4667-956e-63652e6b6963,rev?*
G04 #@! TF.SameCoordinates,Original*
G04 #@! TF.FileFunction,Profile,NP*
%FSLAX46Y46*%
G04 Gerber Fmt 4.6, Leading zero omitted, Abs format (unit mm)*
G04 Created by KiCad (PCBNEW (5.1.5-0)) date 2021-01-12 22:43:41*
%MOMM*%
%LPD*%
G04 APERTURE LIST*
%ADD10C,0.050000*%
G04 APERTURE END LIST*
D10*
X143750000Y98500000D02*
G75*
G02X143750000Y95300000I0J-1600000D01*
G01*
X141750000Y95300000D02*
G75*
G02X141750000Y98500000I0J1600000D01*
G01*
X143750000Y95300000D02*
X141750000Y95300000D01*
X143750000Y98500000D02*
X141750000Y98500000D01*
X141750000Y-27100000D02*
G75*
G02X141750000Y-23900000I0J1600000D01*
G01*
X143750000Y-23900000D02*
X141750000Y-23900000D01*
X143750000Y-23900000D02*
G75*
G02X143750000Y-27100000I0J-1600000D01*
G01*
X143750000Y-27100000D02*
X141750000Y-27100000D01*
X108500000Y-23900000D02*
G75*
G02X108500000Y-27100000I0J-1600000D01*
G01*
X106500000Y-27100000D02*
G75*
G02X106500000Y-23900000I0J1600000D01*
G01*
X108500000Y-23900000D02*
X106500000Y-23900000D01*
X108500000Y-27100000D02*
X106500000Y-27100000D01*
X108500000Y95300000D02*
X106500000Y95300000D01*
X108500000Y98500000D02*
X106500000Y98500000D01*
X108500000Y98500000D02*
G75*
G02X108500000Y95300000I0J-1600000D01*
G01*
X106500000Y95300000D02*
G75*
G02X106500000Y98500000I0J1600000D01*
G01*
X128500000Y500000D02*
G75*
G03X128500000Y500000I-3750000J0D01*
G01*
X128500000Y37500000D02*
G75*
G03X128500000Y37500000I-3750000J0D01*
G01*
X100000000Y-28500000D02*
X100000000Y100000000D01*
X150400000Y-28500000D02*
X100000000Y-28500000D01*
X150400000Y100000000D02*
X150400000Y-28500000D01*
X100000000Y100000000D02*
X150400000Y100000000D01*
M02*
