G04 #@! TF.GenerationSoftware,KiCad,Pcbnew,(5.1.5-0)*
G04 #@! TF.CreationDate,2021-01-12T22:43:41-08:00*
G04 #@! TF.ProjectId,sauceofunce,73617563-656f-4667-956e-63652e6b6963,rev?*
G04 #@! TF.SameCoordinates,Original*
G04 #@! TF.FileFunction,Soldermask,Top*
G04 #@! TF.FilePolarity,Negative*
%FSLAX46Y46*%
G04 Gerber Fmt 4.6, Leading zero omitted, Abs format (unit mm)*
G04 Created by KiCad (PCBNEW (5.1.5-0)) date 2021-01-12 22:43:41*
%MOMM*%
%LPD*%
G04 APERTURE LIST*
%ADD10C,2.000000*%
%ADD11C,0.100000*%
%ADD12C,0.000002*%
%ADD13C,0.001000*%
G04 APERTURE END LIST*
D10*
X140750000Y69800000D02*
X110750000Y69800000D01*
D11*
G36*
X125660400Y-23447650D02*
G01*
X126212850Y-23727050D01*
X126539875Y-24054075D01*
X126674813Y-24284263D01*
X126906588Y-24554138D01*
X126600200Y-24470000D01*
X126346200Y-24393800D01*
X126168400Y-24330300D01*
X125793750Y-24196950D01*
X125434975Y-24003275D01*
X125174625Y-23717525D01*
X125050800Y-23555600D01*
X125114300Y-23593700D01*
X125088900Y-23530200D01*
X125152400Y-23358750D01*
X125660400Y-23447650D01*
G37*
X125660400Y-23447650D02*
X126212850Y-23727050D01*
X126539875Y-24054075D01*
X126674813Y-24284263D01*
X126906588Y-24554138D01*
X126600200Y-24470000D01*
X126346200Y-24393800D01*
X126168400Y-24330300D01*
X125793750Y-24196950D01*
X125434975Y-24003275D01*
X125174625Y-23717525D01*
X125050800Y-23555600D01*
X125114300Y-23593700D01*
X125088900Y-23530200D01*
X125152400Y-23358750D01*
X125660400Y-23447650D01*
G36*
X124866650Y-23466700D02*
G01*
X124498350Y-23898500D01*
X124060200Y-24171550D01*
X123679200Y-24311250D01*
X122929900Y-24476350D01*
X123412500Y-23949300D01*
X123806200Y-23682600D01*
X124174500Y-23479400D01*
X124644400Y-23403200D01*
X124669800Y-23403200D01*
X124866650Y-23466700D01*
G37*
X124866650Y-23466700D02*
X124498350Y-23898500D01*
X124060200Y-24171550D01*
X123679200Y-24311250D01*
X122929900Y-24476350D01*
X123412500Y-23949300D01*
X123806200Y-23682600D01*
X124174500Y-23479400D01*
X124644400Y-23403200D01*
X124669800Y-23403200D01*
X124866650Y-23466700D01*
G36*
X128073400Y-22438000D02*
G01*
X128505200Y-22463400D01*
X129083207Y-22473943D01*
X128403600Y-22628500D01*
X127971800Y-22819000D01*
X127628900Y-23034900D01*
X127209800Y-23200000D01*
X126676400Y-23288900D01*
X126231900Y-23314300D01*
X125654050Y-23295250D01*
X125076200Y-23276200D01*
X125012700Y-23200000D01*
X125228600Y-23136500D01*
X125235585Y-23085700D01*
X125551815Y-22958700D01*
X126085850Y-22730100D01*
X126638300Y-22526900D01*
X127032000Y-22412600D01*
X127476500Y-22412600D01*
X128073400Y-22438000D01*
G37*
X128073400Y-22438000D02*
X128505200Y-22463400D01*
X129083207Y-22473943D01*
X128403600Y-22628500D01*
X127971800Y-22819000D01*
X127628900Y-23034900D01*
X127209800Y-23200000D01*
X126676400Y-23288900D01*
X126231900Y-23314300D01*
X125654050Y-23295250D01*
X125076200Y-23276200D01*
X125012700Y-23200000D01*
X125228600Y-23136500D01*
X125235585Y-23085700D01*
X125551815Y-22958700D01*
X126085850Y-22730100D01*
X126638300Y-22526900D01*
X127032000Y-22412600D01*
X127476500Y-22412600D01*
X128073400Y-22438000D01*
G36*
X128060700Y-19783700D02*
G01*
X127819400Y-20279000D01*
X127616200Y-20736200D01*
X127355850Y-21256900D01*
X127082800Y-21612500D01*
X126771650Y-22025250D01*
X126301750Y-22418950D01*
X125800100Y-22755500D01*
X124695200Y-23352400D01*
X124720600Y-23022200D01*
X125025400Y-22971400D01*
X125273050Y-22533250D01*
X125488950Y-22069700D01*
X125654050Y-21739500D01*
X125838200Y-21447400D01*
X126003300Y-21129900D01*
X126282700Y-20774300D01*
X126562100Y-20456800D01*
X126892300Y-20164700D01*
X127235200Y-19936100D01*
X127616200Y-19682100D01*
X128009900Y-19415400D01*
X128543300Y-19021700D01*
X128060700Y-19783700D01*
G37*
X128060700Y-19783700D02*
X127819400Y-20279000D01*
X127616200Y-20736200D01*
X127355850Y-21256900D01*
X127082800Y-21612500D01*
X126771650Y-22025250D01*
X126301750Y-22418950D01*
X125800100Y-22755500D01*
X124695200Y-23352400D01*
X124720600Y-23022200D01*
X125025400Y-22971400D01*
X125273050Y-22533250D01*
X125488950Y-22069700D01*
X125654050Y-21739500D01*
X125838200Y-21447400D01*
X126003300Y-21129900D01*
X126282700Y-20774300D01*
X126562100Y-20456800D01*
X126892300Y-20164700D01*
X127235200Y-19936100D01*
X127616200Y-19682100D01*
X128009900Y-19415400D01*
X128543300Y-19021700D01*
X128060700Y-19783700D01*
G36*
X125215900Y-17650100D02*
G01*
X125317500Y-18132700D01*
X125431800Y-18589900D01*
X125514350Y-18920100D01*
X125577850Y-19301100D01*
X125622300Y-19821800D01*
X125622300Y-20355200D01*
X125571500Y-20939400D01*
X125508000Y-21460100D01*
X125365125Y-21955400D01*
X125066675Y-22971400D01*
X124853950Y-22920600D01*
X124619000Y-22006200D01*
X124445962Y-21142600D01*
X124461837Y-20355200D01*
X124514225Y-19694800D01*
X124676150Y-18920100D01*
X124911100Y-18107300D01*
X125038100Y-17332600D01*
X125101600Y-16811900D01*
X125215900Y-17650100D01*
G37*
X125215900Y-17650100D02*
X125317500Y-18132700D01*
X125431800Y-18589900D01*
X125514350Y-18920100D01*
X125577850Y-19301100D01*
X125622300Y-19821800D01*
X125622300Y-20355200D01*
X125571500Y-20939400D01*
X125508000Y-21460100D01*
X125365125Y-21955400D01*
X125066675Y-22971400D01*
X124853950Y-22920600D01*
X124619000Y-22006200D01*
X124445962Y-21142600D01*
X124461837Y-20355200D01*
X124514225Y-19694800D01*
X124676150Y-18920100D01*
X124911100Y-18107300D01*
X125038100Y-17332600D01*
X125101600Y-16811900D01*
X125215900Y-17650100D01*
G36*
X121596400Y-19224900D02*
G01*
X121913900Y-19466200D01*
X122479050Y-19783700D01*
X123075950Y-20215500D01*
X123450600Y-20596500D01*
X123850650Y-21161650D01*
X124447550Y-22342750D01*
X124746000Y-22907900D01*
X124758700Y-22920600D01*
X124428500Y-22946000D01*
X124326900Y-22895200D01*
X123971300Y-22647550D01*
X123564900Y-22279250D01*
X123234700Y-21930000D01*
X122879100Y-21498200D01*
X122599700Y-21079100D01*
X122409200Y-20825100D01*
X122155200Y-20367900D01*
X121901200Y-19999600D01*
X121659900Y-19580500D01*
X121380500Y-19021700D01*
X121596400Y-19224900D01*
G37*
X121596400Y-19224900D02*
X121913900Y-19466200D01*
X122479050Y-19783700D01*
X123075950Y-20215500D01*
X123450600Y-20596500D01*
X123850650Y-21161650D01*
X124447550Y-22342750D01*
X124746000Y-22907900D01*
X124758700Y-22920600D01*
X124428500Y-22946000D01*
X124326900Y-22895200D01*
X123971300Y-22647550D01*
X123564900Y-22279250D01*
X123234700Y-21930000D01*
X122879100Y-21498200D01*
X122599700Y-21079100D01*
X122409200Y-20825100D01*
X122155200Y-20367900D01*
X121901200Y-19999600D01*
X121659900Y-19580500D01*
X121380500Y-19021700D01*
X121596400Y-19224900D01*
G36*
X123002925Y-22403075D02*
G01*
X123339475Y-22498325D01*
X123603000Y-22590400D01*
X124301500Y-22996800D01*
X124331980Y-23024740D01*
X124339600Y-23009500D01*
X124339600Y-23022200D01*
X124331980Y-23024740D01*
X124250700Y-23187300D01*
X124644400Y-23327000D01*
X124434850Y-23352400D01*
X124041150Y-23377800D01*
X123564900Y-23377800D01*
X123120400Y-23314300D01*
X122637800Y-23200000D01*
X122244100Y-23085700D01*
X121837700Y-22857100D01*
X121520200Y-22628500D01*
X121113800Y-22501500D01*
X121761500Y-22450700D01*
X122294900Y-22412600D01*
X122758450Y-22406250D01*
X123002925Y-22403075D01*
G37*
X123002925Y-22403075D02*
X123339475Y-22498325D01*
X123603000Y-22590400D01*
X124301500Y-22996800D01*
X124331980Y-23024740D01*
X124339600Y-23009500D01*
X124339600Y-23022200D01*
X124331980Y-23024740D01*
X124250700Y-23187300D01*
X124644400Y-23327000D01*
X124434850Y-23352400D01*
X124041150Y-23377800D01*
X123564900Y-23377800D01*
X123120400Y-23314300D01*
X122637800Y-23200000D01*
X122244100Y-23085700D01*
X121837700Y-22857100D01*
X121520200Y-22628500D01*
X121113800Y-22501500D01*
X121761500Y-22450700D01*
X122294900Y-22412600D01*
X122758450Y-22406250D01*
X123002925Y-22403075D01*
G36*
X125000000Y-22984100D02*
G01*
X124788862Y-23177775D01*
X125007937Y-23273025D01*
X125758825Y-23815950D01*
X125577850Y-23911200D01*
X125000000Y-23454000D01*
X125012700Y-24546200D01*
X124898400Y-24406500D01*
X124892050Y-23517500D01*
X124936500Y-23517500D01*
X124555500Y-23301600D01*
X124269750Y-23149200D01*
X124434850Y-22869800D01*
X125000000Y-22984100D01*
G37*
X125000000Y-22984100D02*
X124788862Y-23177775D01*
X125007937Y-23273025D01*
X125758825Y-23815950D01*
X125577850Y-23911200D01*
X125000000Y-23454000D01*
X125012700Y-24546200D01*
X124898400Y-24406500D01*
X124892050Y-23517500D01*
X124936500Y-23517500D01*
X124555500Y-23301600D01*
X124269750Y-23149200D01*
X124434850Y-22869800D01*
X125000000Y-22984100D01*
D12*
X124479586Y-21296968D02*
X124486414Y-21363404D01*
X121060628Y-22485206D02*
G75*
G02X121062745Y-22480474I8833J-1112D01*
G01*
X121062745Y-22480475D02*
G75*
G02X121067170Y-22477659I6961J-6056D01*
G01*
X121067171Y-22477659D02*
G75*
G02X121076272Y-22475641I21302J-74534D01*
G01*
X121119176Y-22469928D02*
X121076272Y-22475641D01*
X121175382Y-22464579D02*
X121119176Y-22469928D01*
X121249523Y-22459059D02*
X121175382Y-22464579D01*
X121350810Y-22452773D02*
X121249523Y-22459059D01*
X121464250Y-22445535D02*
X121350810Y-22452773D01*
X121555159Y-22438329D02*
X121464250Y-22445535D01*
X121635946Y-22430142D02*
X121555159Y-22438329D01*
X121717522Y-22419967D02*
X121635946Y-22430142D01*
X121795588Y-22410763D02*
X121717522Y-22419967D01*
X121894548Y-22401810D02*
X121795588Y-22410763D01*
X122002731Y-22393949D02*
X121894548Y-22401810D01*
X122110022Y-22388039D02*
X122002731Y-22393949D01*
X122158893Y-22385783D02*
X122110022Y-22388039D01*
X122228084Y-22382592D02*
X122158893Y-22385783D01*
X122303746Y-22379104D02*
X122228084Y-22382592D01*
X122375022Y-22375821D02*
X122303746Y-22379104D01*
X122542892Y-22368843D02*
X122375022Y-22375821D01*
X122717753Y-22363052D02*
X122542892Y-22368843D01*
X122891324Y-22358069D02*
X122717753Y-22363052D01*
X122891324Y-22358069D02*
G75*
G02X122900393Y-22360507I462J-16364D01*
G01*
X122903889Y-22361762D02*
G75*
G02X122900393Y-22360507I1209J8867D01*
G01*
X122919388Y-22363775D02*
X122903889Y-22361762D01*
X122937771Y-22365819D02*
X122919388Y-22363775D01*
X122958715Y-22367713D02*
X122937771Y-22365819D01*
X124470054Y-21187481D02*
X124472649Y-21217124D01*
X125612378Y-23347086D02*
X125657522Y-23350622D01*
X125563537Y-23343388D02*
X125612378Y-23347086D01*
X125518194Y-23340058D02*
X125563537Y-23343388D01*
X125485022Y-23337755D02*
X125518194Y-23340058D01*
X125453615Y-23335486D02*
X125485022Y-23337755D01*
X125414584Y-23332326D02*
X125453615Y-23335486D01*
X125374606Y-23328849D02*
X125414584Y-23332326D01*
X125340022Y-23325579D02*
X125374606Y-23328849D01*
X125278512Y-23320402D02*
X125340022Y-23325579D01*
X125226901Y-23318134D02*
X125278512Y-23320402D01*
X123831364Y-21080665D02*
X123702584Y-20873051D01*
X123960123Y-21310277D02*
X123831364Y-21080665D01*
X125263811Y-23344985D02*
X125225611Y-23337712D01*
X125301820Y-23351668D02*
X125263811Y-23344985D01*
X125327522Y-23355429D02*
X125301820Y-23351668D01*
X125327522Y-23355429D02*
G75*
G02X125415850Y-23371576I-96572J-777952D01*
G01*
X125542223Y-23404860D02*
X125415850Y-23371576D01*
X125681550Y-23447366D02*
X125542223Y-23404860D01*
X125815022Y-23494009D02*
X125681550Y-23447366D01*
X125858649Y-23511046D02*
X125815022Y-23494009D01*
X125904637Y-23530487D02*
X125858649Y-23511046D01*
X125952079Y-23551930D02*
X125904637Y-23530487D01*
X126000085Y-23574987D02*
X125952079Y-23551930D01*
X126000085Y-23574988D02*
G75*
G02X126152408Y-23662179I-639105J-1293158D01*
G01*
X124600081Y-22047260D02*
X124602098Y-22057528D01*
X127620021Y-20715299D02*
G75*
G02X127619743Y-20716562I-3003J0D01*
G01*
X127611209Y-20734952D02*
X127619743Y-20716562D01*
X127601523Y-20755632D02*
X127611209Y-20734952D01*
X127590022Y-20779870D02*
X127601523Y-20755632D01*
X127578521Y-20804146D02*
X127590022Y-20779870D01*
X127568834Y-20824951D02*
X127578521Y-20804146D01*
X127560385Y-20843329D02*
X127568834Y-20824951D01*
X127560021Y-20844995D02*
G75*
G02X127560385Y-20843329I3995J0D01*
G01*
X127560021Y-20844995D02*
G75*
G02X127559292Y-20848297I-7840J0D01*
G01*
X127520677Y-20931421D02*
X127559292Y-20848297D01*
X127477758Y-21023339D02*
X127520677Y-20931421D01*
X127427442Y-21130277D02*
X127477758Y-21023339D01*
X127404537Y-21178174D02*
X127427442Y-21130277D01*
X127376801Y-21234980D02*
X127404537Y-21178174D01*
X127347730Y-21293998D02*
X127376801Y-21234980D01*
X127347731Y-21293997D02*
G75*
G02X127345022Y-21297777I-12801J6311D01*
G01*
X127343589Y-21299614D02*
G75*
G02X127345022Y-21297777I8150J-4881D01*
G01*
X127340177Y-21305418D02*
X127343588Y-21299615D01*
X127336238Y-21312435D02*
X127340177Y-21305418D01*
X127332041Y-21320277D02*
X127336238Y-21312435D01*
X127323008Y-21337116D02*
X127332041Y-21320277D01*
X127312309Y-21356309D02*
X127323008Y-21337116D01*
X127301117Y-21375799D02*
X127312309Y-21356309D01*
X127290563Y-21393576D02*
X127301117Y-21375799D01*
X127286359Y-21400601D02*
X127290563Y-21393576D01*
X127279895Y-21411546D02*
X127286359Y-21400601D01*
X127272630Y-21423921D02*
X127279895Y-21411546D01*
X127265538Y-21436076D02*
X127272630Y-21423921D01*
X127265539Y-21436076D02*
G75*
G02X127176513Y-21574537I-1594117J927112D01*
G01*
X127060765Y-21728716D02*
X127176513Y-21574537D01*
X126929379Y-21885115D02*
X127060765Y-21728716D01*
X126792561Y-22030767D02*
X126929379Y-21885115D01*
X126792561Y-22030767D02*
G75*
G02X126512462Y-22288051I-2992746J2977019D01*
G01*
X126202444Y-22526945D02*
X126512462Y-22288051D01*
X125846530Y-22758868D02*
X126202444Y-22526945D01*
X125427522Y-22995384D02*
X125846530Y-22758868D01*
X125407210Y-23006206D02*
X125427522Y-22995384D01*
X125383256Y-23019049D02*
X125407210Y-23006206D01*
X125359541Y-23031825D02*
X125383256Y-23019049D01*
X125340022Y-23042411D02*
X125359541Y-23031825D01*
X125322766Y-23051769D02*
X125340022Y-23042411D01*
X125306062Y-23060749D02*
X125322766Y-23051769D01*
X125291782Y-23068359D02*
X125306062Y-23060749D01*
X125284097Y-23072337D02*
X125291782Y-23068359D01*
X125267847Y-23082144D02*
G75*
G02X125284097Y-23072337I73169J-102870D01*
G01*
X125251467Y-23095234D02*
G75*
G02X125267847Y-23082145I125077J-139731D01*
G01*
X125238112Y-23108375D02*
G75*
G02X125251467Y-23095234I145858J-134885D01*
G01*
X125235021Y-23116267D02*
G75*
G02X125238111Y-23108375I11624J0D01*
G01*
X125235871Y-23119781D02*
G75*
G02X125235022Y-23116267I6849J3514D01*
G01*
X125238155Y-23121737D02*
G75*
G02X125235870Y-23119780I1247J3768D01*
G01*
X125242397Y-23122198D02*
G75*
G02X125238155Y-23121737I-1044J10127D01*
G01*
X125249641Y-23121103D02*
G75*
G02X125242398Y-23122199I-15184J75919D01*
G01*
X125268149Y-23115366D02*
G75*
G02X125249641Y-23121104I-36945J86448D01*
G01*
X125328992Y-23089023D02*
X125268149Y-23115366D01*
X125396972Y-23058528D02*
X125328992Y-23089023D01*
X125465022Y-23026643D02*
X125396972Y-23058528D01*
X125488044Y-23015656D02*
X125465022Y-23026643D01*
X125513850Y-23003400D02*
X125488044Y-23015656D01*
X125538478Y-22991750D02*
X125513850Y-23003400D01*
X125557522Y-22982798D02*
X125538478Y-22991750D01*
X125577497Y-22973393D02*
X125557522Y-22982798D01*
X125605600Y-22960054D02*
X125577497Y-22973393D01*
X125636247Y-22945444D02*
X125605600Y-22960054D01*
X125665022Y-22931661D02*
X125636247Y-22945444D01*
X125719936Y-22905361D02*
X125665022Y-22931661D01*
X125761702Y-22885535D02*
X125719936Y-22905361D01*
X125796707Y-22869148D02*
X125761702Y-22885535D01*
X125830022Y-22853816D02*
X125796707Y-22869148D01*
X125865354Y-22837574D02*
X125830022Y-22853816D01*
X125931774Y-22806749D02*
X125865354Y-22837574D01*
X125999694Y-22775132D02*
X125931774Y-22806749D01*
X126047522Y-22752733D02*
X125999694Y-22775132D01*
X126194502Y-22684657D02*
X126047522Y-22752733D01*
X126345333Y-22616903D02*
X126194502Y-22684657D01*
X126483653Y-22556658D02*
X126345333Y-22616903D01*
X126590022Y-22512680D02*
X126483653Y-22556658D01*
X126643337Y-22491611D02*
X126590022Y-22512680D01*
X126678135Y-22478359D02*
X126643337Y-22491611D01*
X126707932Y-22467769D02*
X126678135Y-22478359D01*
X126742522Y-22456289D02*
X126707932Y-22467769D01*
X126801620Y-22438467D02*
X126742522Y-22456289D01*
X126863071Y-22422384D02*
X126801620Y-22438467D01*
X126924574Y-22408597D02*
X126863071Y-22422384D01*
X126983822Y-22397669D02*
X126924574Y-22408597D01*
X127025789Y-22391782D02*
X126983822Y-22397669D01*
X127061324Y-22388975D02*
X127025789Y-22391782D01*
X127105896Y-22388261D02*
X127061324Y-22388975D01*
X127186322Y-22389370D02*
X127105896Y-22388261D01*
X127243234Y-22390735D02*
X127186322Y-22389370D01*
X127301607Y-22392737D02*
X127243234Y-22390735D01*
X127353546Y-22395032D02*
X127301607Y-22392737D01*
X127387522Y-22397267D02*
X127353546Y-22395032D01*
X127418287Y-22399702D02*
X127387522Y-22397267D01*
X127457662Y-22402627D02*
X127418287Y-22399702D01*
X127498691Y-22405545D02*
X127457662Y-22402627D01*
X127535022Y-22407990D02*
X127498691Y-22405545D01*
X127572057Y-22410418D02*
X127535022Y-22407990D01*
X127615318Y-22413293D02*
X127572057Y-22410418D01*
X127657867Y-22416150D02*
X127615318Y-22413293D01*
X127692522Y-22418510D02*
X127657867Y-22416150D01*
X127745145Y-22420680D02*
X127692522Y-22418510D01*
X127937897Y-22423130D02*
X127745145Y-22420680D01*
X128166132Y-22425346D02*
X127937897Y-22423130D01*
X128422522Y-22426997D02*
X128166132Y-22425346D01*
X128760194Y-22428974D02*
X128422522Y-22426997D01*
X128946598Y-22430953D02*
X128760194Y-22428974D01*
X129075267Y-22433028D02*
X128946598Y-22430953D01*
X129075267Y-22433028D02*
G75*
G02X129088772Y-22436729I-500J-28318D01*
G01*
X129088772Y-22436728D02*
G75*
G02X129097766Y-22445160I-13045J-22929D01*
G01*
X129097766Y-22445160D02*
G75*
G02X129100023Y-22455412I-12281J-8079D01*
G01*
X129100023Y-22455413D02*
G75*
G02X129094871Y-22465674I-18220J2725D01*
G01*
X129094870Y-22465673D02*
G75*
G02X129083207Y-22473943I-29662J29474D01*
G01*
X129083208Y-22473944D02*
G75*
G02X129065174Y-22481131I-63623J133418D01*
G01*
X129000776Y-22501805D02*
X129065174Y-22481131D01*
X128938093Y-22521392D02*
X129000776Y-22501805D01*
X128902522Y-22531377D02*
X128938093Y-22521392D01*
X128773171Y-22568169D02*
X128902522Y-22531377D01*
X128598786Y-22625203D02*
X128773171Y-22568169D01*
X128419767Y-22688251D02*
X128598786Y-22625203D01*
X128272522Y-22745274D02*
X128419767Y-22688251D01*
X128149199Y-22798078D02*
X128272522Y-22745274D01*
X128003927Y-22864591D02*
X128149199Y-22798078D01*
X127862600Y-22932490D02*
X128003927Y-22864591D01*
X127752522Y-22989199D02*
X127862600Y-22932490D01*
X127618504Y-23060433D02*
X127752522Y-22989199D01*
X127533440Y-23102696D02*
X127618504Y-23060433D01*
X127458987Y-23135131D02*
X127533440Y-23102696D01*
X127367522Y-23170178D02*
X127458987Y-23135131D01*
X127292423Y-23197307D02*
X127367522Y-23170178D01*
X127252851Y-23210723D02*
X127292423Y-23197307D01*
X127213400Y-23222598D02*
X127252851Y-23210723D01*
X127140022Y-23243034D02*
X127213400Y-23222598D01*
X127020804Y-23272545D02*
X127140022Y-23243034D01*
X126883620Y-23300279D02*
X127020804Y-23272545D01*
X126745884Y-23323156D02*
X126883620Y-23300279D01*
X126625022Y-23337838D02*
X126745884Y-23323156D01*
X126601013Y-23340138D02*
X126625022Y-23337838D01*
X126566506Y-23343487D02*
X126601013Y-23340138D01*
X126528547Y-23347195D02*
X126566506Y-23343487D01*
X126492522Y-23350739D02*
X126528547Y-23347195D01*
X126358935Y-23358145D02*
X126492522Y-23350739D01*
X126086190Y-23359806D02*
X126358935Y-23358145D01*
X125813070Y-23357895D02*
X126086190Y-23359806D01*
X125657522Y-23350622D02*
X125813070Y-23357895D01*
X125184700Y-23317876D02*
X125226901Y-23318134D01*
X125180021Y-23322584D02*
G75*
G02X125184700Y-23317876I4709J-1D01*
G01*
X125181145Y-23324719D02*
G75*
G02X125180022Y-23322585I1466J2134D01*
G01*
X125185529Y-23327293D02*
G75*
G02X125181144Y-23324719I15819J31971D01*
G01*
X124110636Y-21588155D02*
X124094341Y-21558062D01*
X124121221Y-21607777D02*
X124110636Y-21588155D01*
X125511249Y-21983226D02*
X125464982Y-22080277D01*
X125596807Y-21812328D02*
X125511249Y-21983226D01*
X125683548Y-21641636D02*
X125596807Y-21812328D01*
X125724269Y-21566527D02*
X125683548Y-21641636D01*
X125738678Y-21541366D02*
X125724269Y-21566527D01*
X125749929Y-21521636D02*
X125738678Y-21541366D01*
X125759609Y-21504555D02*
X125749929Y-21521636D01*
X125769048Y-21487777D02*
X125759609Y-21504555D01*
X125775983Y-21475624D02*
X125769048Y-21487777D01*
X125787590Y-21455731D02*
X125775983Y-21475624D01*
X125800976Y-21432985D02*
X125787590Y-21455731D01*
X125814458Y-21410277D02*
X125800976Y-21432985D01*
X125827575Y-21388268D02*
X125814458Y-21410277D01*
X125839864Y-21367624D02*
X125827575Y-21388268D01*
X125850197Y-21350243D02*
X125839864Y-21367624D01*
X125854889Y-21342307D02*
X125850197Y-21350243D01*
X125899259Y-21270233D02*
X125854889Y-21342307D01*
X125962393Y-21173837D02*
X125899259Y-21270233D01*
X126029939Y-21074271D02*
X125962393Y-21173837D01*
X126089543Y-20990277D02*
X126029939Y-21074271D01*
X126146819Y-20913641D02*
X126089543Y-20990277D01*
X126217177Y-20823061D02*
X126146819Y-20913641D01*
X126284639Y-20738542D02*
X126217177Y-20823061D01*
X126327847Y-20687777D02*
X126284639Y-20738542D01*
X127635064Y-20681889D02*
X127644416Y-20661958D01*
X127627187Y-20698945D02*
X127635064Y-20681889D01*
X127620294Y-20714044D02*
X127627187Y-20698945D01*
X127620022Y-20715299D02*
G75*
G02X127620294Y-20714044I3026J0D01*
G01*
X124075985Y-21524222D02*
X124058037Y-21491194D01*
X124094341Y-21558062D02*
X124075985Y-21524222D01*
X126912904Y-24582618D02*
G75*
G02X126912962Y-24590934I-10582J-4233D01*
G01*
X126912961Y-24590934D02*
G75*
G02X126910571Y-24593771I-5287J2029D01*
G01*
X126910571Y-24593771D02*
G75*
G02X126905675Y-24595933I-11328J19028D01*
G01*
X126905675Y-24595934D02*
G75*
G02X126898837Y-24597326I-10822J35655D01*
G01*
X126898838Y-24597325D02*
G75*
G02X126890414Y-24597777I-8424J78322D01*
G01*
X125393609Y-22241378D02*
X125385721Y-22260277D01*
X125420843Y-22179384D02*
X125393609Y-22241378D01*
X125447720Y-22118594D02*
X125420843Y-22179384D01*
X125464982Y-22080277D02*
X125447720Y-22118594D01*
X126890414Y-24597778D02*
G75*
G02X126875921Y-24596825I0J110737D01*
G01*
X126875921Y-24596825D02*
G75*
G02X126863016Y-24593965I9971J75534D01*
G01*
X126863016Y-24593965D02*
G75*
G02X126846281Y-24587761I53575J170197D01*
G01*
X126815022Y-24574046D02*
X126846281Y-24587761D01*
X126751838Y-24547762D02*
X126815022Y-24574046D01*
X126685736Y-24524319D02*
X126751838Y-24547762D01*
X126614120Y-24502862D02*
X126685736Y-24524319D01*
X126534294Y-24482548D02*
X126614120Y-24502862D01*
X126397606Y-24449292D02*
X126534294Y-24482548D01*
X124130128Y-21624323D02*
X124121221Y-21607777D01*
X124140235Y-21643074D02*
X124130128Y-21624323D01*
X125253305Y-22586243D02*
X125244490Y-22606661D01*
X125263179Y-22562378D02*
X125253305Y-22586243D01*
X125274497Y-22534151D02*
X125263179Y-22562378D01*
X125287768Y-22500277D02*
X125274497Y-22534151D01*
X125293655Y-22485324D02*
X125287768Y-22500277D01*
X125300109Y-22469333D02*
X125293655Y-22485324D01*
X125306173Y-22454627D02*
X125300109Y-22469333D01*
X126152408Y-23662178D02*
G75*
G02X126290509Y-23765987I-743206J-1132487D01*
G01*
X126290509Y-23765987D02*
G75*
G02X126408604Y-23881641I-808447J-943632D01*
G01*
X126408604Y-23881641D02*
G75*
G02X126501099Y-24004225I-691614J-618042D01*
G01*
X126593113Y-24147827D02*
X126501099Y-24004225D01*
X126658325Y-24244131D02*
X126593113Y-24147827D01*
X126719278Y-24326381D02*
X126658325Y-24244131D01*
X126794380Y-24420045D02*
X126719278Y-24326381D01*
X126837947Y-24472822D02*
X126794380Y-24420045D01*
X126851771Y-24489809D02*
X126837947Y-24472822D01*
X126862079Y-24503035D02*
X126851771Y-24489809D01*
X124634498Y-18970277D02*
X124620636Y-19020269D01*
X125310691Y-22444082D02*
X125306173Y-22454627D01*
X125314264Y-22435606D02*
X125310691Y-22444082D01*
X125317281Y-22427667D02*
X125314264Y-22435606D01*
X125319553Y-22420959D02*
X125317281Y-22427667D01*
X125320021Y-22417966D02*
G75*
G02X125319553Y-22420959I-9805J0D01*
G01*
X125320021Y-22417965D02*
G75*
G02X125320501Y-22414968I9600J-1D01*
G01*
X125322848Y-22408209D02*
X125320501Y-22414968D01*
X125325958Y-22400210D02*
X125322848Y-22408209D01*
X125329642Y-22391661D02*
X125325958Y-22400210D01*
X125343866Y-22359784D02*
X125329642Y-22391661D01*
X125352969Y-22338632D02*
X125343866Y-22359784D01*
X125359166Y-22323491D02*
X125352969Y-22338632D01*
X125360007Y-22319082D02*
G75*
G02X125359166Y-22323491I-11749J-43D01*
G01*
X125360007Y-22319082D02*
G75*
G02X125360459Y-22316632I6738J25D01*
G01*
X125363194Y-22309786D02*
X125360459Y-22316632D01*
X125366707Y-22301673D02*
X125363194Y-22309786D01*
X125370874Y-22292777D02*
X125366707Y-22301673D01*
X125375330Y-22283430D02*
X125370874Y-22292777D01*
X125379723Y-22273949D02*
X125375330Y-22283430D01*
X125383495Y-22265577D02*
X125379723Y-22273949D01*
X125385721Y-22260277D02*
X125383495Y-22265577D01*
X126877281Y-24523316D02*
X126862079Y-24503035D01*
X126893683Y-24546689D02*
X126877281Y-24523316D01*
X126893683Y-24546690D02*
G75*
G02X126905528Y-24566666I-194982J-129113D01*
G01*
X126905528Y-24566666D02*
G75*
G02X126912903Y-24582618I-148143J-78170D01*
G01*
X126337272Y-20677192D02*
X126327847Y-20687777D01*
X126357031Y-20654856D02*
X126337272Y-20677192D01*
X126380430Y-20628361D02*
X126357031Y-20654856D01*
X126405193Y-20600277D02*
X126380430Y-20628361D01*
X126513704Y-20483304D02*
X126405193Y-20600277D01*
X126646053Y-20352079D02*
X126513704Y-20483304D01*
X126777297Y-20230085D02*
X126646053Y-20352079D01*
X126880250Y-20144220D02*
X126777297Y-20230085D01*
X126967428Y-20078727D02*
X126880250Y-20144220D01*
X127046415Y-20023278D02*
X126967428Y-20078727D01*
X127148457Y-19956351D02*
X127046415Y-20023278D01*
X127327522Y-19842769D02*
X127148457Y-19956351D01*
X127389629Y-19803344D02*
X127327522Y-19842769D01*
X127456365Y-19760469D02*
X127389629Y-19803344D01*
X127517965Y-19720471D02*
X127456365Y-19760469D01*
X127562522Y-19690991D02*
X127517965Y-19720471D01*
X127697222Y-19599298D02*
X127562522Y-19690991D01*
X127820866Y-19512251D02*
X127697222Y-19599298D01*
X127968690Y-19404774D02*
X127820866Y-19512251D01*
X128190022Y-19240957D02*
X127968690Y-19404774D01*
X128233928Y-19208350D02*
X128190022Y-19240957D01*
X128276959Y-19176446D02*
X128233928Y-19208350D01*
X128314011Y-19149020D02*
X128276959Y-19176446D01*
X128335022Y-19133543D02*
X128314011Y-19149020D01*
X128351209Y-19121646D02*
X128335022Y-19133543D01*
X128368850Y-19108643D02*
X128351209Y-19121646D01*
X128385320Y-19096471D02*
X128368850Y-19108643D01*
X128397522Y-19087414D02*
X128385320Y-19096471D01*
X128437477Y-19059270D02*
X128397522Y-19087414D01*
X128492952Y-19023208D02*
X128437477Y-19059270D01*
X128549438Y-18987759D02*
X128492952Y-19023208D01*
X128549438Y-18987760D02*
G75*
G02X128564761Y-18981269I28471J-45884D01*
G01*
X128564761Y-18981268D02*
G75*
G02X128577504Y-18979947I10974J-43717D01*
G01*
X128577504Y-18979947D02*
G75*
G02X128584070Y-18984069I-305J-7776D01*
G01*
X128584070Y-18984070D02*
G75*
G02X128584527Y-18992656I-8997J-4784D01*
G01*
X128584527Y-18992655D02*
G75*
G02X128577667Y-19005539I-63438J25510D01*
G01*
X128565329Y-19022507D02*
X128577667Y-19005539D01*
X128545976Y-19046851D02*
X128565329Y-19022507D01*
X128526429Y-19070518D02*
X128545976Y-19046851D01*
X128526429Y-19070517D02*
G75*
G02X128516963Y-19080277I-72727J61071D01*
G01*
X128499895Y-19098072D02*
G75*
G02X128516963Y-19080277I123500J-101373D01*
G01*
X128445948Y-19164257D02*
X128499895Y-19098072D01*
X128391922Y-19231904D02*
X128445948Y-19164257D01*
X128351038Y-19285277D02*
X128391922Y-19231904D01*
X128274034Y-19393698D02*
X128351038Y-19285277D01*
X128213980Y-19489678D02*
X128274034Y-19393698D01*
X128148409Y-19610452D02*
X128213980Y-19489678D01*
X128045463Y-19815277D02*
X128148409Y-19610452D01*
X128012314Y-19882396D02*
X128045463Y-19815277D01*
X127982337Y-19943418D02*
X128012314Y-19882396D01*
X127957300Y-19994652D02*
X127982337Y-19943418D01*
X127948740Y-20012777D02*
X127957300Y-19994652D01*
X127933870Y-20044997D02*
X127948740Y-20012777D01*
X127898656Y-20120485D02*
X127933870Y-20044997D01*
X127863434Y-20195815D02*
X127898656Y-20120485D01*
X127842505Y-20240277D02*
X127863434Y-20195815D01*
X127836270Y-20253483D02*
X127842505Y-20240277D01*
X127826572Y-20274090D02*
X127836270Y-20253483D01*
X127815623Y-20297387D02*
X127826572Y-20274090D01*
X127804881Y-20320277D02*
X127815623Y-20297387D01*
X127752656Y-20431614D02*
X127804881Y-20320277D01*
X127705466Y-20532138D02*
X127752656Y-20431614D01*
X127666565Y-20614935D02*
X127705466Y-20532138D01*
X127644416Y-20661958D02*
X127666565Y-20614935D01*
X124456089Y-19970173D02*
X124450432Y-20047777D01*
X124491414Y-19634273D02*
X124489359Y-19651746D01*
X124499812Y-21475277D02*
X124502112Y-21491881D01*
X122220022Y-23104199D02*
X122285345Y-23131444D01*
X122172193Y-23082386D02*
X122220022Y-23104199D01*
X122096008Y-23045116D02*
X122172193Y-23082386D01*
X122013874Y-23004229D02*
X122096008Y-23045116D01*
X122958715Y-22367712D02*
G75*
G02X123037077Y-22377867I-68767J-838110D01*
G01*
X123134167Y-22397547D02*
X123037077Y-22377867D01*
X123238541Y-22423880D02*
X123134167Y-22397547D01*
X123340022Y-22454629D02*
X123238541Y-22423880D01*
X123411345Y-22478648D02*
X123340022Y-22454629D01*
X123462918Y-22497344D02*
X123411345Y-22478648D01*
X123514767Y-22518060D02*
X123462918Y-22497344D01*
X123587522Y-22548978D02*
X123514767Y-22518060D01*
X123636095Y-22571297D02*
X123587522Y-22548978D01*
X123722054Y-22613707D02*
X123636095Y-22571297D01*
X123807800Y-22657003D02*
X123722054Y-22613707D01*
X123857522Y-22683724D02*
X123807800Y-22657003D01*
X123874485Y-22693290D02*
X123857522Y-22683724D01*
X123892381Y-22703359D02*
X123874485Y-22693290D01*
X123908665Y-22712503D02*
X123892381Y-22703359D01*
X123920022Y-22718855D02*
X123908665Y-22712503D01*
X123967579Y-22746350D02*
X123920022Y-22718855D01*
X124029264Y-22783880D02*
X123967579Y-22746350D01*
X124094127Y-22824579D02*
X124029264Y-22783880D01*
X124152522Y-22862529D02*
X124094127Y-22824579D01*
X124269621Y-22939782D02*
X124152522Y-22862529D01*
X124284217Y-22942895D02*
G75*
G02X124269621Y-22939782I-3296J20324D01*
G01*
X124285880Y-22936626D02*
G75*
G02X124284217Y-22942894I-2231J-2763D01*
G01*
X124186635Y-22856997D02*
X124285879Y-22936626D01*
X124076355Y-22768615D02*
X124186635Y-22856997D01*
X123955655Y-22671064D02*
X124076355Y-22768615D01*
X123846190Y-22582022D02*
X123955655Y-22671064D01*
X123797522Y-22541366D02*
X123846190Y-22582022D01*
X123560218Y-22328564D02*
X123797522Y-22541366D01*
X123331976Y-22103889D02*
X123560218Y-22328564D01*
X123126302Y-21881368D02*
X123331976Y-22103889D01*
X122957522Y-21675413D02*
X123126302Y-21881368D01*
X122947035Y-21661730D02*
X122957522Y-21675413D01*
X122930933Y-21640881D02*
X122947035Y-21661730D01*
X122912804Y-21617489D02*
X122930933Y-21640881D01*
X122895094Y-21594720D02*
X122912804Y-21617489D01*
X122850771Y-21536679D02*
X122895094Y-21594720D01*
X122798022Y-21465362D02*
X122850771Y-21536679D01*
X122743294Y-21389659D02*
X122798022Y-21465362D01*
X122692611Y-21317777D02*
X122743294Y-21389659D01*
X122615794Y-21205183D02*
X122692611Y-21317777D01*
X122503314Y-21036047D02*
X122615794Y-21205183D01*
X122392960Y-20868079D02*
X122503314Y-21036047D01*
X122327810Y-20765811D02*
X122392960Y-20868079D01*
X122312852Y-20741839D02*
X122327810Y-20765811D01*
X122293501Y-20711028D02*
X122312852Y-20741839D01*
X122273210Y-20678853D02*
X122293501Y-20711028D01*
X122255098Y-20650277D02*
X122273210Y-20678853D01*
X122232466Y-20614465D02*
X122255098Y-20650277D01*
X122194344Y-20553699D02*
X122232466Y-20614465D01*
X122150478Y-20483586D02*
X122194344Y-20553699D01*
X122106299Y-20412777D02*
X122150478Y-20483586D01*
X122063762Y-20344522D02*
X122106299Y-20412777D01*
X122024866Y-20282137D02*
X122063762Y-20344522D01*
X121992249Y-20229846D02*
X122024866Y-20282137D01*
X121980010Y-20210277D02*
X121992249Y-20229846D01*
X121937630Y-20141590D02*
X121980010Y-20210277D01*
X121867790Y-20026106D02*
X121937630Y-20141590D01*
X121797729Y-19909490D02*
X121867790Y-20026106D01*
X121772165Y-19865277D02*
X121797729Y-19909490D01*
X121769328Y-19860248D02*
X121772165Y-19865277D01*
X121765217Y-19853074D02*
X121769328Y-19860248D01*
X121760674Y-19845211D02*
X121765217Y-19853074D01*
X121756342Y-19837777D02*
X121760674Y-19845211D01*
X121727044Y-19787083D02*
X121756342Y-19837777D01*
X121668968Y-19685057D02*
X121727044Y-19787083D01*
X121610346Y-19581702D02*
X121668968Y-19685057D01*
X121588754Y-19542777D02*
X121610346Y-19581702D01*
X121579351Y-19525536D02*
X121588754Y-19542777D01*
X121567835Y-19504543D02*
X121579351Y-19525536D01*
X121556140Y-19483314D02*
X121567835Y-19504543D01*
X121546150Y-19465277D02*
X121556140Y-19483314D01*
X121517394Y-19410797D02*
X121546150Y-19465277D01*
X121462647Y-19300518D02*
X121517394Y-19410797D01*
X121402078Y-19177345D02*
X121462647Y-19300518D01*
X121402079Y-19177345D02*
G75*
G02X121400022Y-19168491I18028J8854D01*
G01*
X121399530Y-19165636D02*
G75*
G02X121400022Y-19168491I-8045J-2855D01*
G01*
X121397209Y-19159477D02*
X121399530Y-19165636D01*
X121394113Y-19152210D02*
X121397209Y-19159477D01*
X121390446Y-19144500D02*
X121394113Y-19152210D01*
X121390446Y-19144500D02*
G75*
G02X121375567Y-19110779I353949J176315D01*
G01*
X121362376Y-19072674D02*
X121375567Y-19110779D01*
X121352797Y-19037022D02*
X121362376Y-19072674D01*
X121352798Y-19037021D02*
G75*
G02X121350022Y-19012709I105091J24312D01*
G01*
X121350022Y-19012709D02*
G75*
G02X121352313Y-19001889I26694J0D01*
G01*
X121352313Y-19001889D02*
G75*
G02X121358734Y-18993767I19006J-8428D01*
G01*
X121358734Y-18993767D02*
G75*
G02X121368045Y-18989963I11741J-15439D01*
G01*
X121368045Y-18989963D02*
G75*
G02X121378409Y-18991121I2783J-22042D01*
G01*
X124299378Y-22949505D02*
G75*
G02X124307816Y-22955118I-42084J-72409D01*
G01*
X124293690Y-22948010D02*
G75*
G02X124299378Y-22949505I137J-11046D01*
G01*
X124292163Y-22950169D02*
G75*
G02X124293690Y-22948010I1547J525D01*
G01*
X124295021Y-22955277D02*
G75*
G02X124292163Y-22950169I12406J10295D01*
G01*
X124298004Y-22958135D02*
G75*
G02X124295022Y-22955277I10995J14458D01*
G01*
X124301808Y-22960528D02*
G75*
G02X124298004Y-22958136I11528J22553D01*
G01*
X124305813Y-22962133D02*
G75*
G02X124301808Y-22960528I6762J22671D01*
G01*
X124309384Y-22962619D02*
G75*
G02X124305813Y-22962133I-229J11691D01*
G01*
X124313439Y-22962263D02*
G75*
G02X124309384Y-22962618I-4642J29680D01*
G01*
X124314221Y-22961131D02*
G75*
G02X124313438Y-22962263I-929J-194D01*
G01*
X124313100Y-22959282D02*
G75*
G02X124314221Y-22961131I-2062J-2515D01*
G01*
X124307816Y-22955118D02*
X124313100Y-22959282D01*
X125082574Y-16769496D02*
G75*
G02X125091771Y-16760571I24520J-16067D01*
G01*
X125091771Y-16760571D02*
G75*
G02X125102879Y-16757745I10107J-16484D01*
G01*
X125102879Y-16757745D02*
G75*
G02X125113607Y-16761707I-996J-19203D01*
G01*
X125113606Y-16761707D02*
G75*
G02X125121759Y-16771527I-17650J-22947D01*
G01*
X125121760Y-16771527D02*
G75*
G02X125133695Y-16804885I-124673J-63421D01*
G01*
X125149153Y-16880779D02*
X125133695Y-16804885D01*
X125166249Y-16980893D02*
X125149153Y-16880779D01*
X125184771Y-17107777D02*
X125166249Y-16980893D01*
X125189195Y-17139649D02*
X125184771Y-17107777D01*
X125193664Y-17171324D02*
X125189195Y-17139649D01*
X125197609Y-17198853D02*
X125193664Y-17171324D01*
X125200058Y-17215277D02*
X125197609Y-17198853D01*
X125202198Y-17229274D02*
X125200058Y-17215277D01*
X125204846Y-17246746D02*
X125202198Y-17229274D01*
X125207550Y-17264693D02*
X125204846Y-17246746D01*
X125209879Y-17280277D02*
X125207550Y-17264693D01*
X125250474Y-17545675D02*
X125209879Y-17280277D01*
X125282146Y-17733530D02*
X125250474Y-17545675D01*
X125312899Y-17891341D02*
X125282146Y-17733530D01*
X125349454Y-18055379D02*
X125312899Y-17891341D01*
X125374492Y-18158731D02*
X125349454Y-18055379D01*
X125406786Y-18286990D02*
X125374492Y-18158731D01*
X125438947Y-18412230D02*
X125406786Y-18286990D01*
X125449546Y-18447777D02*
X125438947Y-18412230D01*
X125451577Y-18454390D02*
X125449546Y-18447777D01*
X125454324Y-18464684D02*
X125451577Y-18454390D01*
X125457226Y-18476332D02*
X125454324Y-18464684D01*
X125459866Y-18487777D02*
X125457226Y-18476332D01*
X125462509Y-18499406D02*
X125459866Y-18487777D01*
X125465418Y-18511606D02*
X125462509Y-18499406D01*
X125468167Y-18522654D02*
X125465418Y-18511606D01*
X125470219Y-18530277D02*
X125468167Y-18522654D01*
X125491211Y-18611306D02*
X125470219Y-18530277D01*
X125520319Y-18739530D02*
X125491211Y-18611306D01*
X125547583Y-18867148D02*
X125520319Y-18739530D01*
X125560471Y-18940277D02*
X125547583Y-18867148D01*
X125562659Y-18954272D02*
X125560471Y-18940277D01*
X125565675Y-18971746D02*
X125562659Y-18954272D01*
X125568972Y-18989692D02*
X125565675Y-18971746D01*
X125572053Y-19005277D02*
X125568972Y-18989692D01*
X125583969Y-19071401D02*
X125572053Y-19005277D01*
X125598521Y-19170705D02*
X125583969Y-19071401D01*
X125613047Y-19282002D02*
X125598521Y-19170705D01*
X125625375Y-19390277D02*
X125613047Y-19282002D01*
X125633692Y-19477355D02*
X125625375Y-19390277D01*
X125641238Y-19573355D02*
X125633692Y-19477355D01*
X125649412Y-19696795D02*
X125641238Y-19573355D01*
X125659993Y-19875277D02*
X125649412Y-19696795D01*
X125664428Y-20011801D02*
X125659993Y-19875277D01*
X125663207Y-20173699D02*
X125664428Y-20011801D01*
D13*
X125656205Y-20380188D02*
X125663207Y-20173699D01*
X125642243Y-20660277D02*
X125656205Y-20380188D01*
D12*
X125638309Y-20713260D02*
X125642243Y-20660277D01*
X125629073Y-20807488D02*
X125638309Y-20713260D01*
X125618702Y-20904897D02*
X125629073Y-20807488D01*
X125609856Y-20977777D02*
X125618702Y-20904897D01*
X125607613Y-20995020D02*
X125609856Y-20977777D01*
X125604937Y-21016012D02*
X125607613Y-20995020D01*
X125602271Y-21037241D02*
X125604937Y-21016012D01*
X125600050Y-21055277D02*
X125602271Y-21037241D01*
X125597806Y-21072962D02*
X125600050Y-21055277D01*
X125595075Y-21093074D02*
X125597806Y-21072962D01*
X125592299Y-21112476D02*
X125595075Y-21093074D01*
X125589942Y-21127777D02*
X125592299Y-21112476D01*
X125587622Y-21142744D02*
X125589942Y-21127777D01*
X125584972Y-21161012D02*
X125587622Y-21142744D01*
X125582418Y-21179518D02*
X125584972Y-21161012D01*
X125580389Y-21195277D02*
X125582418Y-21179518D01*
X125561335Y-21317675D02*
X125580389Y-21195277D01*
X125521650Y-21519623D02*
X125561335Y-21317675D01*
X125478766Y-21721371D02*
X125521650Y-21519623D01*
X125447485Y-21845277D02*
X125478766Y-21721371D01*
X125444512Y-21855948D02*
X125447485Y-21845277D01*
X125441467Y-21867340D02*
X125444512Y-21855948D01*
X125438776Y-21877807D02*
X125441467Y-21867340D01*
X125436995Y-21885277D02*
X125438776Y-21877807D01*
X125427390Y-21923770D02*
X125436995Y-21885277D01*
X125397648Y-22031388D02*
X125427390Y-21923770D01*
X125367938Y-22137284D02*
X125397648Y-22031388D01*
X125350778Y-22195277D02*
X125367938Y-22137284D01*
X125346460Y-22209274D02*
X125350778Y-22195277D01*
X125341080Y-22226746D02*
X125346460Y-22209274D01*
X125335561Y-22244693D02*
X125341080Y-22226746D01*
X125330776Y-22260277D02*
X125335561Y-22244693D01*
X125313681Y-22314093D02*
X125330776Y-22260277D01*
X125282504Y-22408295D02*
X125313681Y-22314093D01*
X125249871Y-22505470D02*
X125282504Y-22408295D01*
X125224966Y-22577777D02*
X125249871Y-22505470D01*
X125214918Y-22606638D02*
X125224966Y-22577777D01*
X125205745Y-22633387D02*
X125214918Y-22606638D01*
X125198156Y-22655862D02*
X125205745Y-22633387D01*
X125195217Y-22665277D02*
X125198156Y-22655862D01*
X125192515Y-22674002D02*
X125195217Y-22665277D01*
X125186887Y-22690861D02*
X125192515Y-22674002D01*
X125180133Y-22710670D02*
X125186887Y-22690861D01*
X125172951Y-22731307D02*
X125180133Y-22710670D01*
X125155426Y-22784707D02*
X125172951Y-22731307D01*
X125155298Y-22804677D02*
G75*
G02X125155426Y-22784707I33535J9771D01*
G01*
X125162456Y-22805327D02*
G75*
G02X125155299Y-22804677I-3451J1730D01*
G01*
X125182120Y-22762777D02*
X125162455Y-22805327D01*
X125188098Y-22748783D02*
X125182120Y-22762777D01*
X125194664Y-22733598D02*
X125188098Y-22748783D01*
X125200839Y-22719472D02*
X125194664Y-22733598D01*
X125205464Y-22709082D02*
X125200839Y-22719472D01*
X125209124Y-22700664D02*
X125205464Y-22709082D01*
X125212214Y-22692904D02*
X125209124Y-22700664D01*
X125214584Y-22686362D02*
X125212214Y-22692904D01*
X125215021Y-22683771D02*
G75*
G02X125214584Y-22686362I-7897J0D01*
G01*
X125215021Y-22683771D02*
G75*
G02X125215482Y-22681197I7424J0D01*
G01*
X125217959Y-22674785D02*
X125215482Y-22681197D01*
X125221191Y-22667186D02*
X125217959Y-22674785D01*
X125225022Y-22658958D02*
X125221191Y-22667186D01*
X125228851Y-22650659D02*
X125225022Y-22658958D01*
X125232084Y-22642840D02*
X125228851Y-22650659D01*
X125234508Y-22636216D02*
X125232084Y-22642840D01*
X125235021Y-22633153D02*
G75*
G02X125234508Y-22636216I-9398J0D01*
G01*
X125235022Y-22633153D02*
G75*
G02X125235503Y-22630064I10154J0D01*
G01*
X125237803Y-22623264D02*
X125235503Y-22630064D01*
X125240864Y-22615223D02*
X125237803Y-22623264D01*
X125244490Y-22606661D02*
X125240864Y-22615223D01*
X124014682Y-21408855D02*
X124010103Y-21400347D01*
X124014682Y-21408855D02*
G75*
G02X124015022Y-21410212I-2538J-1357D01*
G01*
X124004695Y-21390555D02*
X123998277Y-21379295D01*
X124010103Y-21400347D02*
X124004695Y-21390555D01*
X122013874Y-23004228D02*
G75*
G02X122005022Y-22997537I13556J27135D01*
G01*
X122003092Y-22995897D02*
G75*
G02X122005022Y-22997537I-5453J-8377D01*
G01*
X121995912Y-22991285D02*
X122003091Y-22995898D01*
X121987281Y-22985930D02*
X121995912Y-22991285D01*
X121977522Y-22980101D02*
X121987281Y-22985930D01*
X121967356Y-22974103D02*
X121977522Y-22980101D01*
X121957487Y-22968234D02*
X121967356Y-22974103D01*
X121949047Y-22963177D02*
X121957487Y-22968234D01*
X121944424Y-22960341D02*
X121949047Y-22963177D01*
X121940259Y-22957797D02*
X121944424Y-22960341D01*
X121934094Y-22954150D02*
X121940259Y-22957797D01*
X121927233Y-22950155D02*
X121934094Y-22954150D01*
X121920629Y-22946375D02*
X121927233Y-22950155D01*
X121920629Y-22946375D02*
G75*
G02X121910474Y-22939975I63669J112281D01*
G01*
X121882016Y-22920005D02*
X121910474Y-22939975D01*
X121848261Y-22895940D02*
X121882016Y-22920005D01*
X121811226Y-22869103D02*
X121848261Y-22895940D01*
X121633114Y-22746773D02*
X121811226Y-22869103D01*
X121486099Y-22663678D02*
G75*
G02X121633114Y-22746773I-631554J-1288984D01*
G01*
X121326951Y-22596610D02*
G75*
G02X121486098Y-22663679I-510715J-1434241D01*
G01*
X121108826Y-22524954D02*
X121326951Y-22596611D01*
X121076926Y-22515042D02*
X121108826Y-22524954D01*
X121076927Y-22515042D02*
G75*
G02X121066329Y-22510106I14167J44263D01*
G01*
X121066329Y-22510106D02*
G75*
G02X121061681Y-22504159I5938J9430D01*
G01*
X121061681Y-22504159D02*
G75*
G02X121060076Y-22494254I30438J10015D01*
G01*
X121060076Y-22494254D02*
G75*
G02X121060628Y-22485206I70514J241D01*
G01*
X126285632Y-24419595D02*
X126397606Y-24449292D01*
X126198054Y-24393690D02*
X126285632Y-24419595D01*
X126198055Y-24393690D02*
G75*
G02X126142522Y-24373101I169046J541143D01*
G01*
X126137486Y-24371027D02*
X126142522Y-24373101D01*
X126130318Y-24368265D02*
X126137486Y-24371027D01*
X126122455Y-24365344D02*
X126130318Y-24368265D01*
X126115022Y-24362696D02*
X126122455Y-24365344D01*
X126107177Y-24359863D02*
X126115022Y-24362696D01*
X126098034Y-24356363D02*
X126107177Y-24359863D01*
X126089059Y-24352778D02*
X126098034Y-24356363D01*
X126081766Y-24349691D02*
X126089059Y-24352778D01*
X126075511Y-24347043D02*
X126081766Y-24349691D01*
X126069752Y-24344808D02*
X126075511Y-24347043D01*
X126064899Y-24343092D02*
X126069752Y-24344808D01*
X126062993Y-24342777D02*
G75*
G02X126064899Y-24343092I0J-5933D01*
G01*
X126062993Y-24342778D02*
G75*
G02X126059189Y-24342029I0J10037D01*
G01*
X125964667Y-24303305D02*
X126059189Y-24342029D01*
X125881032Y-24268860D02*
X125964667Y-24303305D01*
X125835022Y-24249343D02*
X125881032Y-24268860D01*
X125784226Y-24226283D02*
X125835022Y-24249343D01*
X125714035Y-24192512D02*
X125784226Y-24226283D01*
X125646005Y-24158811D02*
X125714035Y-24192512D01*
X125610022Y-24139386D02*
X125646005Y-24158811D01*
X125584250Y-24124488D02*
X125610022Y-24139386D01*
X125565712Y-24113819D02*
X125584250Y-24124488D01*
X125552040Y-24106010D02*
X125565712Y-24113819D01*
X125542522Y-24100665D02*
X125552040Y-24106010D01*
X125502423Y-24076144D02*
X125542522Y-24100665D01*
X125452352Y-24041071D02*
X125502423Y-24076144D01*
X125399465Y-24000893D02*
X125452352Y-24041071D01*
X125350022Y-23960105D02*
X125399465Y-24000893D01*
X125350022Y-23960106D02*
G75*
G02X125270238Y-23883873I695822J808099D01*
G01*
X125270238Y-23883873D02*
G75*
G02X125198595Y-23799661I781638J737557D01*
G01*
X125198596Y-23799661D02*
G75*
G02X125135002Y-23707259I878955J673003D01*
G01*
X125135001Y-23707258D02*
G75*
G02X125079292Y-23606527I1044989J643704D01*
G01*
X125066672Y-23582136D02*
X125079292Y-23606527D01*
X125058836Y-23571479D02*
G75*
G02X125066672Y-23582136I-34612J-33661D01*
G01*
X125052757Y-23569559D02*
G75*
G02X125058835Y-23571478I1254J-6611D01*
G01*
X125047112Y-23573439D02*
G75*
G02X125052758Y-23569558I7228J-4468D01*
G01*
X125045653Y-23578424D02*
G75*
G02X125047112Y-23573440I9773J-154D01*
G01*
X125043420Y-23721549D02*
X125045654Y-23578424D01*
X125041301Y-23881187D02*
X125043420Y-23721549D01*
X125039456Y-24069690D02*
X125041301Y-23881187D01*
X125037665Y-24258576D02*
X125039456Y-24069690D01*
X125035717Y-24419472D02*
X125037665Y-24258576D01*
X125033721Y-24562425D02*
X125035717Y-24419472D01*
X125033721Y-24562424D02*
G75*
G02X125032565Y-24571527I-41009J581D01*
G01*
X125032565Y-24571527D02*
G75*
G02X125031012Y-24575830I-20606J5007D01*
G01*
X125031011Y-24575830D02*
G75*
G02X125028627Y-24579473I-15676J7660D01*
G01*
X125028628Y-24579473D02*
G75*
G02X125025815Y-24581944I-9855J8380D01*
G01*
X125025814Y-24581943D02*
G75*
G02X125022998Y-24582777I-2816J4339D01*
G01*
X125022998Y-24582778D02*
G75*
G02X125018527Y-24581046I0J6637D01*
G01*
X124995478Y-24559837D02*
X125018527Y-24581046D01*
X124969013Y-24534616D02*
X124995478Y-24559837D01*
X124938906Y-24504683D02*
X124969013Y-24534616D01*
X124861648Y-24426588D02*
X124938906Y-24504683D01*
X124858335Y-24126359D02*
X124861648Y-24426588D01*
X124857066Y-24001023D02*
X124858335Y-24126359D01*
X124855995Y-23872704D02*
X124857066Y-24001023D01*
X124855237Y-23758674D02*
X124855995Y-23872704D01*
X124855022Y-23684454D02*
X124855237Y-23758674D01*
X124854720Y-23623849D02*
X124855022Y-23684454D01*
X124853728Y-23579717D02*
X124854720Y-23623849D01*
X124852369Y-23544990D02*
X124853728Y-23579717D01*
X124850060Y-23542777D02*
G75*
G02X124852369Y-23544990I-1J-2312D01*
G01*
X124847054Y-23544088D02*
G75*
G02X124850059Y-23542777I3005J-2787D01*
G01*
X124836630Y-23555560D02*
X124847055Y-23544089D01*
X124824618Y-23569615D02*
X124836630Y-23555560D01*
X124811309Y-23586292D02*
X124824618Y-23569615D01*
X124719679Y-23696929D02*
X124811309Y-23586292D01*
X124621336Y-23801497D02*
X124719679Y-23696929D01*
X124522618Y-23893723D02*
X124621336Y-23801497D01*
X124522618Y-23893723D02*
G75*
G02X124430022Y-23966907I-785138J898227D01*
G01*
X124293872Y-24057727D02*
X124430022Y-23966907D01*
X124160543Y-24134003D02*
X124293872Y-24057727D01*
X124020115Y-24200989D02*
X124160543Y-24134003D01*
X123862522Y-24263854D02*
X124020115Y-24200989D01*
X123806592Y-24283017D02*
X123862522Y-24263854D01*
X123714001Y-24312067D02*
X123806592Y-24283017D01*
X123620530Y-24340489D02*
X123714001Y-24312067D01*
X123620531Y-24340489D02*
G75*
G02X123585022Y-24349348I-111894J372905D01*
G01*
X123575788Y-24351427D02*
X123585022Y-24349348D01*
X123526256Y-24363853D02*
X123575788Y-24351427D01*
X123468574Y-24378414D02*
X123526256Y-24363853D01*
X123402522Y-24395214D02*
X123468574Y-24378414D01*
X123335223Y-24412309D02*
X123402522Y-24395214D01*
X123273647Y-24427802D02*
X123335223Y-24412309D01*
X123222000Y-24440673D02*
X123273647Y-24427802D01*
X123202522Y-24445258D02*
X123222000Y-24440673D01*
X123189392Y-24448201D02*
X123202522Y-24445258D01*
X123174725Y-24451527D02*
X123189392Y-24448201D01*
X123160765Y-24454724D02*
X123174725Y-24451527D01*
X123150022Y-24457222D02*
X123160765Y-24454724D01*
X123126495Y-24462411D02*
X123150022Y-24457222D01*
X123069890Y-24474006D02*
X123126495Y-24462411D01*
X123006655Y-24486751D02*
X123069890Y-24474006D01*
X122946570Y-24498613D02*
X123006655Y-24486751D01*
X122930754Y-24501291D02*
X122946570Y-24498613D01*
X122930754Y-24501291D02*
G75*
G02X122919488Y-24502124I-11660J81132D01*
G01*
X122919487Y-24502124D02*
G75*
G02X122910662Y-24501315I-221J46104D01*
G01*
X122910662Y-24501315D02*
G75*
G02X122902820Y-24498823I6419J33790D01*
G01*
X122902820Y-24498822D02*
G75*
G02X122893799Y-24485506I6402J14050D01*
G01*
X122893799Y-24485506D02*
G75*
G02X122899252Y-24466313I31269J1487D01*
G01*
X122899252Y-24466313D02*
G75*
G02X122927331Y-24431110I257590J-176662D01*
G01*
X123009998Y-24342550D02*
X122927331Y-24431110D01*
X123047172Y-24303045D02*
X123009998Y-24342550D01*
X123086499Y-24261019D02*
X123047172Y-24303045D01*
X123122351Y-24222510D02*
X123086499Y-24261019D01*
X123147522Y-24195213D02*
X123122351Y-24222510D01*
X123190178Y-24149392D02*
X123147522Y-24195213D01*
X123226361Y-24112256D02*
X123190178Y-24149392D01*
X123263224Y-24076564D02*
X123226361Y-24112256D01*
X123307926Y-24035277D02*
X123263224Y-24076564D01*
X123327115Y-24017823D02*
X123307926Y-24035277D01*
X123343687Y-24002653D02*
X123327115Y-24017823D01*
X123358008Y-23989477D02*
X123343687Y-24002653D01*
X123360021Y-23987406D02*
G75*
G02X123358008Y-23989477I-19819J17259D01*
G01*
X123360021Y-23987407D02*
G75*
G02X123362103Y-23985349I14795J-12883D01*
G01*
X123380147Y-23970015D02*
X123362103Y-23985349D01*
X123400885Y-23952487D02*
X123380147Y-23970015D01*
X123425022Y-23932231D02*
X123400885Y-23952487D01*
X123530470Y-23847248D02*
X123425022Y-23932231D01*
X123630076Y-23773754D02*
X123530470Y-23847248D01*
X123730113Y-23707287D02*
X123630076Y-23773754D01*
X123836795Y-23643515D02*
X123730113Y-23707287D01*
X123870714Y-23625268D02*
X123836795Y-23643515D01*
X123926262Y-23597389D02*
X123870714Y-23625268D01*
X123982493Y-23569994D02*
X123926262Y-23597389D01*
X124020022Y-23552890D02*
X123982493Y-23569994D01*
X124059757Y-23535775D02*
X124020022Y-23552890D01*
X124079737Y-23527382D02*
X124059757Y-23535775D01*
X124095779Y-23521025D02*
X124079737Y-23527382D01*
X124116272Y-23513347D02*
X124095779Y-23521025D01*
X124129186Y-23508599D02*
X124116272Y-23513347D01*
X124144287Y-23503046D02*
X124129186Y-23508599D01*
X124159151Y-23497580D02*
X124144287Y-23503046D01*
X124171272Y-23493122D02*
X124159151Y-23497580D01*
X124206104Y-23481114D02*
X124171272Y-23493122D01*
X124263274Y-23463030D02*
X124206104Y-23481114D01*
X124320340Y-23445577D02*
X124263274Y-23463030D01*
X124347522Y-23438372D02*
X124320340Y-23445577D01*
X124403341Y-23424277D02*
X124347522Y-23438372D01*
X124468904Y-23405292D02*
X124403341Y-23424277D01*
X124530034Y-23386296D02*
X124468904Y-23405292D01*
X124529691Y-23383050D02*
G75*
G02X124530034Y-23386296I-161J-1658D01*
G01*
X124527681Y-23383099D02*
G75*
G02X124529690Y-23383051I1204J-8298D01*
G01*
X124519709Y-23384287D02*
X124527681Y-23383099D01*
X124510305Y-23385799D02*
X124519709Y-23384287D01*
X124499690Y-23387644D02*
X124510305Y-23385799D01*
X124474754Y-23391359D02*
X124499690Y-23387644D01*
X124430359Y-23396376D02*
X124474754Y-23391359D01*
X124365074Y-23403070D02*
X124430359Y-23396376D01*
X124263645Y-23412894D02*
X124365074Y-23403070D01*
X124235352Y-23415035D02*
X124263645Y-23412894D01*
X124181795Y-23417839D02*
X124235352Y-23415035D01*
X124118915Y-23420681D02*
X124181795Y-23417839D01*
X124053645Y-23423169D02*
X124118915Y-23420681D01*
X123908340Y-23426041D02*
X124053645Y-23423169D01*
X123781748Y-23423781D02*
X123908340Y-23426041D01*
X123636661Y-23415269D02*
X123781748Y-23423781D01*
X123425022Y-23397707D02*
X123636661Y-23415269D01*
X123364771Y-23391119D02*
X123425022Y-23397707D01*
X123281738Y-23379690D02*
X123364771Y-23391119D01*
X123184250Y-23364788D02*
X123281738Y-23379690D01*
X123077522Y-23347109D02*
X123184250Y-23364788D01*
X122971857Y-23327377D02*
X123077522Y-23347109D01*
X122854034Y-23302215D02*
X122971857Y-23327377D01*
X122737305Y-23274654D02*
X122854034Y-23302215D01*
X122635022Y-23247637D02*
X122737305Y-23274654D01*
X122619381Y-23243300D02*
X122635022Y-23247637D01*
X122603397Y-23238981D02*
X122619381Y-23243300D01*
X122589207Y-23235245D02*
X122603397Y-23238981D01*
X122580022Y-23232966D02*
X122589207Y-23235245D01*
X122571722Y-23230851D02*
X122580022Y-23232966D01*
X122561053Y-23227839D02*
X122571722Y-23230851D01*
X122549914Y-23224499D02*
X122561053Y-23227839D01*
X122540022Y-23221321D02*
X122549914Y-23224499D01*
X122528663Y-23217567D02*
X122540022Y-23221321D01*
X122512381Y-23212256D02*
X122528663Y-23217567D01*
X122494485Y-23206458D02*
X122512381Y-23212256D01*
X122477522Y-23201004D02*
X122494485Y-23206458D01*
X122413400Y-23179584D02*
X122477522Y-23201004D01*
X122349573Y-23156485D02*
X122413400Y-23179584D01*
X122285345Y-23131444D02*
X122349573Y-23156485D01*
X125191588Y-23329800D02*
G75*
G02X125185529Y-23327293I15601J46284D01*
G01*
X125198772Y-23331862D02*
G75*
G02X125191589Y-23329800I19033J79840D01*
G01*
X125225611Y-23337712D02*
X125198772Y-23331862D01*
X121378409Y-18991121D02*
G75*
G02X121393800Y-18999519I-19851J-54684D01*
G01*
X121433573Y-19030444D02*
X121393800Y-18999519D01*
X121480950Y-19069163D02*
X121433573Y-19030444D01*
X121533636Y-19114359D02*
X121480950Y-19069163D01*
X121698174Y-19252127D02*
X121533636Y-19114359D01*
X121843791Y-19360502D02*
X121698174Y-19252127D01*
X122012714Y-19469733D02*
X121843791Y-19360502D01*
X122257522Y-19614069D02*
X122012714Y-19469733D01*
X124571306Y-19206615D02*
X124547577Y-19315220D01*
X124494593Y-19606118D02*
X124492916Y-19620277D01*
X124286280Y-21920659D02*
X124246362Y-21842777D01*
X124400735Y-22149065D02*
X124286280Y-21920659D01*
X124593793Y-19122863D02*
X124590420Y-19135871D01*
X124609796Y-22090277D02*
X124612223Y-22099554D01*
X122980696Y-20096196D02*
X122949731Y-20071569D01*
X123034121Y-20140261D02*
X122980696Y-20096196D01*
X124655296Y-18899293D02*
X124640717Y-18948596D01*
X124041545Y-21460738D02*
X124027657Y-21434784D01*
X124058037Y-21491194D02*
X124041545Y-21460738D01*
X124607389Y-22080966D02*
X124609796Y-22090277D01*
X124530667Y-22412450D02*
G75*
G02X124530022Y-22409625I5867J2825D01*
G01*
X124570128Y-22494375D02*
X124530666Y-22412451D01*
X124493686Y-21428002D02*
X124499812Y-21475277D01*
X124590420Y-19135871D02*
X124587276Y-19147511D01*
X124610559Y-19057297D02*
X124602925Y-19086256D01*
X124622102Y-22143678D02*
X124625424Y-22158215D01*
X124619792Y-22132777D02*
X124622102Y-22143678D01*
X124617434Y-22592202D02*
X124570128Y-22494375D01*
X124680900Y-22722769D02*
X124617434Y-22592202D01*
X124994836Y-17295277D02*
X124983743Y-17388355D01*
X123390510Y-20469449D02*
X123307249Y-20384817D01*
X123457941Y-20543323D02*
X123390510Y-20469449D01*
X124015378Y-21411643D02*
G75*
G02X124015022Y-21410212I2699J1431D01*
G01*
X124027657Y-21434784D02*
X124015377Y-21411643D01*
X124457431Y-21034943D02*
X124460146Y-21074262D01*
X124436197Y-20490776D02*
X124441200Y-20710800D01*
X122312323Y-19645700D02*
X122257522Y-19614069D01*
X122365350Y-19676582D02*
X122312323Y-19645700D01*
X122410594Y-19703170D02*
X122365350Y-19676582D01*
X124462884Y-21110118D02*
X124465155Y-21135277D01*
X125064571Y-16813376D02*
G75*
G02X125082574Y-16769496I122645J-24684D01*
G01*
X124983743Y-17388355D02*
X124966692Y-17518323D01*
X124966692Y-17518323D02*
X124948247Y-17652128D01*
X124948247Y-17652128D02*
X124932296Y-17760277D01*
X124594799Y-22021609D02*
X124597913Y-22036189D01*
X124672754Y-18840648D02*
X124655296Y-18899293D01*
X124665004Y-22316641D02*
X124688021Y-22405658D01*
X124652687Y-22267777D02*
X124665004Y-22316641D01*
X124439221Y-20285430D02*
X124436197Y-20490776D01*
X124497211Y-19588074D02*
X124494593Y-19606118D01*
X124596912Y-19110277D02*
X124593793Y-19122863D01*
X123091890Y-20188546D02*
X123034121Y-20140261D01*
X123142522Y-20231589D02*
X123091890Y-20188546D01*
X124640717Y-18948596D02*
X124634498Y-18970277D01*
X124546332Y-21782567D02*
X124569739Y-21908706D01*
X124472649Y-21217124D02*
X124474772Y-21242777D01*
X124602098Y-22057528D02*
X124604678Y-22069391D01*
X124620636Y-19020269D02*
X124610559Y-19057297D01*
X124612223Y-22099554D02*
X124614997Y-22111012D01*
X124774298Y-18490004D02*
X124691595Y-18777777D01*
X124524401Y-21653232D02*
X124546332Y-21782567D01*
X124486414Y-21363404D02*
X124493686Y-21428002D01*
X122435022Y-19717924D02*
X122410594Y-19703170D01*
X122452943Y-19728971D02*
X122435022Y-19717924D01*
X122471647Y-19740441D02*
X122452943Y-19728971D01*
X122488524Y-19750743D02*
X122471647Y-19740441D01*
X122500022Y-19757694D02*
X122488524Y-19750743D01*
X124597913Y-22036189D02*
X124600081Y-22047260D01*
X124455160Y-20997777D02*
X124457431Y-21034943D01*
X124891058Y-17996192D02*
X124839522Y-18234580D01*
X124602925Y-19086256D02*
X124596912Y-19110277D01*
X124932296Y-17760277D02*
X124891058Y-17996192D01*
X124614997Y-22111012D02*
X124617668Y-22122709D01*
X124465155Y-21135277D02*
X124467410Y-21158549D01*
X124510387Y-21555277D02*
X124524401Y-21653232D01*
X124647592Y-22247213D02*
X124652687Y-22267777D01*
X124641964Y-22224684D02*
X124647592Y-22247213D01*
X122838770Y-19988408D02*
X122712111Y-19898124D01*
X122949731Y-20071569D02*
X122838770Y-19988408D01*
X124466010Y-19860768D02*
X124456089Y-19970173D01*
X124585002Y-19155277D02*
X124571306Y-19206615D01*
X123990348Y-21365352D02*
X123980163Y-21347052D01*
X123998277Y-21379295D02*
X123990348Y-21365352D01*
X124175179Y-21707925D02*
X124157627Y-21675277D01*
X124196050Y-21747166D02*
X124175179Y-21707925D01*
X124793771Y-22903775D02*
G75*
G02X124778450Y-22904191I-7814J5438D01*
G01*
X124801642Y-22877617D02*
G75*
G02X124793772Y-22903776I-43965J-1036D01*
G01*
X124591336Y-22006189D02*
X124594799Y-22021609D01*
X124504965Y-21513215D02*
X124507876Y-21535494D01*
X124500258Y-19569324D02*
X124497211Y-19588074D01*
X124492916Y-19620277D02*
X124491414Y-19634273D01*
X124474772Y-21242777D02*
X124479586Y-21296968D01*
X124219842Y-21792235D02*
X124196050Y-21747166D01*
X124246362Y-21842777D02*
X124219842Y-21792235D01*
X124476782Y-19753128D02*
X124466010Y-19860768D01*
X124839522Y-18234580D02*
X124774298Y-18490004D01*
X124547577Y-19315220D02*
X124525096Y-19424104D01*
X124529044Y-22405488D02*
X124400735Y-22149065D01*
X124529045Y-22405488D02*
G75*
G02X124530022Y-22409625I-8269J-4137D01*
G01*
X122590998Y-19815371D02*
X122500022Y-19757694D01*
X122712111Y-19898124D02*
X122590998Y-19815371D01*
X123576981Y-20692044D02*
X123457941Y-20543323D01*
X123702584Y-20873051D02*
X123576981Y-20692044D01*
X124525096Y-19424104D02*
X124514785Y-19485277D01*
X124691595Y-18777777D02*
X124672754Y-18840648D01*
X124467410Y-21158549D02*
X124470054Y-21187481D01*
X124503300Y-19552777D02*
X124500258Y-19569324D01*
X124512686Y-19499437D02*
X124509713Y-19517481D01*
X124485041Y-19685277D02*
X124476782Y-19753128D01*
X124762789Y-22690486D02*
X124784316Y-22778882D01*
X124729915Y-22565277D02*
X124762789Y-22690486D01*
X124629114Y-22173688D02*
X124632635Y-22187777D01*
X124625424Y-22158215D02*
X124629114Y-22173688D01*
X124588031Y-21992260D02*
X124591336Y-22006189D01*
X124506422Y-19536231D02*
X124503300Y-19552777D01*
X125042634Y-16932589D02*
X125019274Y-17090793D01*
X124489359Y-19651746D02*
X124487122Y-19669693D01*
X124604678Y-22069391D02*
X124607389Y-22080966D01*
X124569739Y-21908706D02*
X124588031Y-21992260D01*
X124450432Y-20047777D02*
X124439221Y-20285430D01*
X125064571Y-16813377D02*
X125042634Y-16932589D01*
X124514785Y-19485277D02*
X124512686Y-19499437D01*
X124711965Y-22497481D02*
X124729915Y-22565277D01*
X124688021Y-22405658D02*
X124711965Y-22497481D01*
X124507876Y-21535494D02*
X124510387Y-21555277D01*
X124636652Y-22203561D02*
X124641964Y-22224684D01*
X124632635Y-22187777D02*
X124636652Y-22203561D01*
X124460146Y-21074262D02*
X124462884Y-21110118D01*
X124797789Y-22842241D02*
G75*
G02X124801641Y-22877617I-205937J-40320D01*
G01*
X124784316Y-22778882D02*
X124797790Y-22842241D01*
X124149971Y-21661116D02*
X124140235Y-21643074D01*
X124157627Y-21675277D02*
X124149971Y-21661116D01*
X124617668Y-22122709D02*
X124619792Y-22132777D01*
X124509713Y-19517481D02*
X124506422Y-19536231D01*
X123220584Y-20301527D02*
X123142522Y-20231589D01*
X123307249Y-20384817D02*
X123220584Y-20301527D01*
X124502112Y-21491881D02*
X124504965Y-21513215D01*
X124487122Y-19669693D02*
X124485041Y-19685277D01*
X124587276Y-19147511D02*
X124585002Y-19155277D01*
X125019274Y-17090793D02*
X124994836Y-17295277D01*
X123969544Y-21327713D02*
X123960123Y-21310277D01*
X123980163Y-21347052D02*
X123969544Y-21327713D01*
X124745824Y-22852971D02*
X124680900Y-22722769D01*
X124778449Y-22904191D02*
G75*
G02X124745824Y-22852971I252153J196613D01*
G01*
X124441200Y-20710800D02*
X124455160Y-20997777D01*
D11*
G36*
X141854975Y3541415D02*
G01*
X142154528Y3481830D01*
X142718874Y3248070D01*
X143226772Y2908704D01*
X143658704Y2476772D01*
X143998070Y1968874D01*
X144231830Y1404528D01*
X144351000Y805422D01*
X144351000Y194578D01*
X144231830Y-404528D01*
X143998070Y-968874D01*
X143658704Y-1476772D01*
X143226772Y-1908704D01*
X142718874Y-2248070D01*
X142154528Y-2481830D01*
X141854975Y-2541415D01*
X141555423Y-2601000D01*
X140944577Y-2601000D01*
X140645025Y-2541415D01*
X140345472Y-2481830D01*
X139781126Y-2248070D01*
X139273228Y-1908704D01*
X138841296Y-1476772D01*
X138501930Y-968874D01*
X138268170Y-404528D01*
X138149000Y194578D01*
X138149000Y805422D01*
X138268170Y1404528D01*
X138501930Y1968874D01*
X138841296Y2476772D01*
X139273228Y2908704D01*
X139781126Y3248070D01*
X140345472Y3481830D01*
X140645025Y3541415D01*
X140944577Y3601000D01*
X141555423Y3601000D01*
X141854975Y3541415D01*
G37*
G36*
X109854975Y3541415D02*
G01*
X110154528Y3481830D01*
X110718874Y3248070D01*
X111226772Y2908704D01*
X111658704Y2476772D01*
X111998070Y1968874D01*
X112231830Y1404528D01*
X112351000Y805422D01*
X112351000Y194578D01*
X112231830Y-404528D01*
X111998070Y-968874D01*
X111658704Y-1476772D01*
X111226772Y-1908704D01*
X110718874Y-2248070D01*
X110154528Y-2481830D01*
X109854975Y-2541415D01*
X109555423Y-2601000D01*
X108944577Y-2601000D01*
X108645025Y-2541415D01*
X108345472Y-2481830D01*
X107781126Y-2248070D01*
X107273228Y-1908704D01*
X106841296Y-1476772D01*
X106501930Y-968874D01*
X106268170Y-404528D01*
X106149000Y194578D01*
X106149000Y805422D01*
X106268170Y1404528D01*
X106501930Y1968874D01*
X106841296Y2476772D01*
X107273228Y2908704D01*
X107781126Y3248070D01*
X108345472Y3481830D01*
X108645025Y3541415D01*
X108944577Y3601000D01*
X109555423Y3601000D01*
X109854975Y3541415D01*
G37*
G36*
X125757430Y17551022D02*
G01*
X126008684Y17501045D01*
X126204752Y17419831D01*
X126482034Y17304977D01*
X126482035Y17304976D01*
X126908041Y17020329D01*
X127270329Y16658041D01*
X127460524Y16373393D01*
X127554977Y16232034D01*
X127751045Y15758683D01*
X127851000Y15256177D01*
X127851000Y14743823D01*
X127751045Y14241317D01*
X127554977Y13767966D01*
X127554976Y13767965D01*
X127270329Y13341959D01*
X126908041Y12979671D01*
X126623393Y12789476D01*
X126482034Y12695023D01*
X126204752Y12580169D01*
X126008684Y12498955D01*
X125757430Y12448978D01*
X125506177Y12399000D01*
X124993823Y12399000D01*
X124742570Y12448977D01*
X124491316Y12498955D01*
X124295248Y12580169D01*
X124017966Y12695023D01*
X123876607Y12789476D01*
X123591959Y12979671D01*
X123229671Y13341959D01*
X122945024Y13767965D01*
X122945023Y13767966D01*
X122748955Y14241317D01*
X122649000Y14743823D01*
X122649000Y15256177D01*
X122748955Y15758683D01*
X122945023Y16232034D01*
X123039476Y16373393D01*
X123229671Y16658041D01*
X123591959Y17020329D01*
X124017965Y17304976D01*
X124017966Y17304977D01*
X124295248Y17419831D01*
X124491316Y17501045D01*
X124742570Y17551022D01*
X124993823Y17601000D01*
X125506177Y17601000D01*
X125757430Y17551022D01*
G37*
G36*
X141854975Y41041415D02*
G01*
X142154528Y40981830D01*
X142718874Y40748070D01*
X143226772Y40408704D01*
X143658704Y39976772D01*
X143998070Y39468874D01*
X144231830Y38904528D01*
X144351000Y38305422D01*
X144351000Y37694578D01*
X144231830Y37095472D01*
X143998070Y36531126D01*
X143658704Y36023228D01*
X143226772Y35591296D01*
X142718874Y35251930D01*
X142154528Y35018170D01*
X141854975Y34958585D01*
X141555423Y34899000D01*
X140944577Y34899000D01*
X140645025Y34958585D01*
X140345472Y35018170D01*
X139781126Y35251930D01*
X139273228Y35591296D01*
X138841296Y36023228D01*
X138501930Y36531126D01*
X138268170Y37095472D01*
X138149000Y37694578D01*
X138149000Y38305422D01*
X138268170Y38904528D01*
X138501930Y39468874D01*
X138841296Y39976772D01*
X139273228Y40408704D01*
X139781126Y40748070D01*
X140345472Y40981830D01*
X140645025Y41041415D01*
X140944577Y41101000D01*
X141555423Y41101000D01*
X141854975Y41041415D01*
G37*
G36*
X109854975Y41041415D02*
G01*
X110154528Y40981830D01*
X110718874Y40748070D01*
X111226772Y40408704D01*
X111658704Y39976772D01*
X111998070Y39468874D01*
X112231830Y38904528D01*
X112351000Y38305422D01*
X112351000Y37694578D01*
X112231830Y37095472D01*
X111998070Y36531126D01*
X111658704Y36023228D01*
X111226772Y35591296D01*
X110718874Y35251930D01*
X110154528Y35018170D01*
X109854975Y34958585D01*
X109555423Y34899000D01*
X108944577Y34899000D01*
X108645025Y34958585D01*
X108345472Y35018170D01*
X107781126Y35251930D01*
X107273228Y35591296D01*
X106841296Y36023228D01*
X106501930Y36531126D01*
X106268170Y37095472D01*
X106149000Y37694578D01*
X106149000Y38305422D01*
X106268170Y38904528D01*
X106501930Y39468874D01*
X106841296Y39976772D01*
X107273228Y40408704D01*
X107781126Y40748070D01*
X108345472Y40981830D01*
X108645025Y41041415D01*
X108944577Y41101000D01*
X109555423Y41101000D01*
X109854975Y41041415D01*
G37*
G36*
X125757430Y55051023D02*
G01*
X126008684Y55001045D01*
X126204752Y54919831D01*
X126482034Y54804977D01*
X126482035Y54804976D01*
X126908041Y54520329D01*
X127270329Y54158041D01*
X127460524Y53873393D01*
X127554977Y53732034D01*
X127751045Y53258683D01*
X127851000Y52756177D01*
X127851000Y52243823D01*
X127751045Y51741317D01*
X127554977Y51267966D01*
X127554976Y51267965D01*
X127270329Y50841959D01*
X126908041Y50479671D01*
X126623393Y50289476D01*
X126482034Y50195023D01*
X126204752Y50080169D01*
X126008684Y49998955D01*
X125757430Y49948977D01*
X125506177Y49899000D01*
X124993823Y49899000D01*
X124742570Y49948978D01*
X124491316Y49998955D01*
X124295248Y50080169D01*
X124017966Y50195023D01*
X123876607Y50289476D01*
X123591959Y50479671D01*
X123229671Y50841959D01*
X122945024Y51267965D01*
X122945023Y51267966D01*
X122748955Y51741317D01*
X122649000Y52243823D01*
X122649000Y52756177D01*
X122748955Y53258683D01*
X122945023Y53732034D01*
X123039476Y53873393D01*
X123229671Y54158041D01*
X123591959Y54520329D01*
X124017965Y54804976D01*
X124017966Y54804977D01*
X124295248Y54919831D01*
X124491316Y55001045D01*
X124742570Y55051023D01*
X124993823Y55101000D01*
X125506177Y55101000D01*
X125757430Y55051023D01*
G37*
G36*
X141854975Y73041415D02*
G01*
X142154528Y72981830D01*
X142718874Y72748070D01*
X143226772Y72408704D01*
X143658704Y71976772D01*
X143998070Y71468874D01*
X144231830Y70904528D01*
X144351000Y70305422D01*
X144351000Y69694578D01*
X144231830Y69095472D01*
X143998070Y68531126D01*
X143658704Y68023228D01*
X143226772Y67591296D01*
X142718874Y67251930D01*
X142154528Y67018170D01*
X141854975Y66958585D01*
X141555423Y66899000D01*
X140944577Y66899000D01*
X140645025Y66958585D01*
X140345472Y67018170D01*
X139781126Y67251930D01*
X139273228Y67591296D01*
X138841296Y68023228D01*
X138501930Y68531126D01*
X138268170Y69095472D01*
X138149000Y69694578D01*
X138149000Y70305422D01*
X138268170Y70904528D01*
X138501930Y71468874D01*
X138841296Y71976772D01*
X139273228Y72408704D01*
X139781126Y72748070D01*
X140345472Y72981830D01*
X140645025Y73041415D01*
X140944577Y73101000D01*
X141555423Y73101000D01*
X141854975Y73041415D01*
G37*
G36*
X125854975Y73041415D02*
G01*
X126154528Y72981830D01*
X126718874Y72748070D01*
X127226772Y72408704D01*
X127658704Y71976772D01*
X127998070Y71468874D01*
X128231830Y70904528D01*
X128351000Y70305422D01*
X128351000Y69694578D01*
X128231830Y69095472D01*
X127998070Y68531126D01*
X127658704Y68023228D01*
X127226772Y67591296D01*
X126718874Y67251930D01*
X126154528Y67018170D01*
X125854975Y66958585D01*
X125555423Y66899000D01*
X124944577Y66899000D01*
X124645025Y66958585D01*
X124345472Y67018170D01*
X123781126Y67251930D01*
X123273228Y67591296D01*
X122841296Y68023228D01*
X122501930Y68531126D01*
X122268170Y69095472D01*
X122149000Y69694578D01*
X122149000Y70305422D01*
X122268170Y70904528D01*
X122501930Y71468874D01*
X122841296Y71976772D01*
X123273228Y72408704D01*
X123781126Y72748070D01*
X124345472Y72981830D01*
X124645025Y73041415D01*
X124944577Y73101000D01*
X125555423Y73101000D01*
X125854975Y73041415D01*
G37*
G36*
X109854975Y73041415D02*
G01*
X110154528Y72981830D01*
X110718874Y72748070D01*
X111226772Y72408704D01*
X111658704Y71976772D01*
X111998070Y71468874D01*
X112231830Y70904528D01*
X112351000Y70305422D01*
X112351000Y69694578D01*
X112231830Y69095472D01*
X111998070Y68531126D01*
X111658704Y68023228D01*
X111226772Y67591296D01*
X110718874Y67251930D01*
X110154528Y67018170D01*
X109854975Y66958585D01*
X109555423Y66899000D01*
X108944577Y66899000D01*
X108645025Y66958585D01*
X108345472Y67018170D01*
X107781126Y67251930D01*
X107273228Y67591296D01*
X106841296Y68023228D01*
X106501930Y68531126D01*
X106268170Y69095472D01*
X106149000Y69694578D01*
X106149000Y70305422D01*
X106268170Y70904528D01*
X106501930Y71468874D01*
X106841296Y71976772D01*
X107273228Y72408704D01*
X107781126Y72748070D01*
X108345472Y72981830D01*
X108645025Y73041415D01*
X108944577Y73101000D01*
X109555423Y73101000D01*
X109854975Y73041415D01*
G37*
M02*
