G04 #@! TF.GenerationSoftware,KiCad,Pcbnew,(5.1.5-0)*
G04 #@! TF.CreationDate,2021-01-08T11:41:48-08:00*
G04 #@! TF.ProjectId,hypster,68797073-7465-4722-9e6b-696361645f70,rev?*
G04 #@! TF.SameCoordinates,Original*
G04 #@! TF.FileFunction,Legend,Top*
G04 #@! TF.FilePolarity,Positive*
%FSLAX46Y46*%
G04 Gerber Fmt 4.6, Leading zero omitted, Abs format (unit mm)*
G04 Created by KiCad (PCBNEW (5.1.5-0)) date 2021-01-08 11:41:48*
%MOMM*%
%LPD*%
G04 APERTURE LIST*
%ADD10C,0.200000*%
%ADD11C,0.300000*%
%ADD12C,0.600000*%
%ADD13C,0.400000*%
G04 APERTURE END LIST*
D10*
X8714285Y-363107142D02*
X9857142Y-363107142D01*
X10428571Y-362178571D02*
X11428571Y-363678571D01*
X11428571Y-362178571D02*
X10428571Y-363678571D01*
X22035714Y-363107142D02*
X23178571Y-363107142D01*
X24178571Y-362964285D02*
X24178571Y-363678571D01*
X23678571Y-362178571D02*
X24178571Y-362964285D01*
X24678571Y-362178571D01*
X35464285Y-363107142D02*
X36607142Y-363107142D01*
X37178571Y-362178571D02*
X38178571Y-362178571D01*
X37178571Y-363678571D01*
X38178571Y-363678571D01*
X48642857Y-363107142D02*
X49785714Y-363107142D01*
X50500000Y-362178571D02*
X50500000Y-363392857D01*
X50571428Y-363535714D01*
X50642857Y-363607142D01*
X50785714Y-363678571D01*
X51071428Y-363678571D01*
X51214285Y-363607142D01*
X51285714Y-363535714D01*
X51357142Y-363392857D01*
X51357142Y-362178571D01*
X49821428Y-346428571D02*
X49821428Y-347642857D01*
X49892857Y-347785714D01*
X49964285Y-347857142D01*
X50107142Y-347928571D01*
X50392857Y-347928571D01*
X50535714Y-347857142D01*
X50607142Y-347785714D01*
X50678571Y-347642857D01*
X50678571Y-346428571D01*
X36500000Y-346178571D02*
X37500000Y-346178571D01*
X36500000Y-347678571D01*
X37500000Y-347678571D01*
X23250000Y-346964285D02*
X23250000Y-347678571D01*
X22750000Y-346178571D02*
X23250000Y-346964285D01*
X23750000Y-346178571D01*
X9500000Y-346178571D02*
X10500000Y-347678571D01*
X10500000Y-346178571D02*
X9500000Y-347678571D01*
D11*
X47297619Y-332154761D02*
X47297619Y-330154761D01*
X47964285Y-331583333D01*
X48630952Y-330154761D01*
X48630952Y-332154761D01*
X49583333Y-332154761D02*
X49583333Y-330154761D01*
X51488095Y-332154761D02*
X50535714Y-332154761D01*
X50535714Y-330154761D01*
X52154761Y-332154761D02*
X52154761Y-330154761D01*
X52630952Y-330154761D01*
X52916666Y-330250000D01*
X53107142Y-330440476D01*
X53202380Y-330630952D01*
X53297619Y-331011904D01*
X53297619Y-331297619D01*
X53202380Y-331678571D01*
X53107142Y-331869047D01*
X52916666Y-332059523D01*
X52630952Y-332154761D01*
X52154761Y-332154761D01*
X7154761Y-331964285D02*
X7059523Y-332059523D01*
X6773809Y-332154761D01*
X6583333Y-332154761D01*
X6297619Y-332059523D01*
X6107142Y-331869047D01*
X6011904Y-331678571D01*
X5916666Y-331297619D01*
X5916666Y-331011904D01*
X6011904Y-330630952D01*
X6107142Y-330440476D01*
X6297619Y-330250000D01*
X6583333Y-330154761D01*
X6773809Y-330154761D01*
X7059523Y-330250000D01*
X7154761Y-330345238D01*
X8011904Y-330154761D02*
X8011904Y-331773809D01*
X8107142Y-331964285D01*
X8202380Y-332059523D01*
X8392857Y-332154761D01*
X8773809Y-332154761D01*
X8964285Y-332059523D01*
X9059523Y-331964285D01*
X9154761Y-331773809D01*
X9154761Y-330154761D01*
X11250000Y-332154761D02*
X10583333Y-331202380D01*
X10107142Y-332154761D02*
X10107142Y-330154761D01*
X10869047Y-330154761D01*
X11059523Y-330250000D01*
X11154761Y-330345238D01*
X11250000Y-330535714D01*
X11250000Y-330821428D01*
X11154761Y-331011904D01*
X11059523Y-331107142D01*
X10869047Y-331202380D01*
X10107142Y-331202380D01*
X13059523Y-332154761D02*
X12107142Y-332154761D01*
X12107142Y-330154761D01*
X14107142Y-331202380D02*
X14107142Y-332154761D01*
X13440476Y-330154761D02*
X14107142Y-331202380D01*
X14773809Y-330154761D01*
X2535714Y-317809523D02*
X2821428Y-317904761D01*
X3297619Y-317904761D01*
X3488095Y-317809523D01*
X3583333Y-317714285D01*
X3678571Y-317523809D01*
X3678571Y-317333333D01*
X3583333Y-317142857D01*
X3488095Y-317047619D01*
X3297619Y-316952380D01*
X2916666Y-316857142D01*
X2726190Y-316761904D01*
X2630952Y-316666666D01*
X2535714Y-316476190D01*
X2535714Y-316285714D01*
X2630952Y-316095238D01*
X2726190Y-316000000D01*
X2916666Y-315904761D01*
X3392857Y-315904761D01*
X3678571Y-316000000D01*
X5869047Y-318095238D02*
X5678571Y-318000000D01*
X5488095Y-317809523D01*
X5202380Y-317523809D01*
X5011904Y-317428571D01*
X4821428Y-317428571D01*
X4916666Y-317904761D02*
X4726190Y-317809523D01*
X4535714Y-317619047D01*
X4440476Y-317238095D01*
X4440476Y-316571428D01*
X4535714Y-316190476D01*
X4726190Y-316000000D01*
X4916666Y-315904761D01*
X5297619Y-315904761D01*
X5488095Y-316000000D01*
X5678571Y-316190476D01*
X5773809Y-316571428D01*
X5773809Y-317238095D01*
X5678571Y-317619047D01*
X5488095Y-317809523D01*
X5297619Y-317904761D01*
X4916666Y-317904761D01*
X6630952Y-315904761D02*
X6630952Y-317523809D01*
X6726190Y-317714285D01*
X6821428Y-317809523D01*
X7011904Y-317904761D01*
X7392857Y-317904761D01*
X7583333Y-317809523D01*
X7678571Y-317714285D01*
X7773809Y-317523809D01*
X7773809Y-315904761D01*
X8726190Y-317904761D02*
X8726190Y-315904761D01*
X10821428Y-317904761D02*
X10154761Y-316952380D01*
X9678571Y-317904761D02*
X9678571Y-315904761D01*
X10440476Y-315904761D01*
X10630952Y-316000000D01*
X10726190Y-316095238D01*
X10821428Y-316285714D01*
X10821428Y-316571428D01*
X10726190Y-316761904D01*
X10630952Y-316857142D01*
X10440476Y-316952380D01*
X9678571Y-316952380D01*
X12821428Y-317904761D02*
X12154761Y-316952380D01*
X11678571Y-317904761D02*
X11678571Y-315904761D01*
X12440476Y-315904761D01*
X12630952Y-316000000D01*
X12726190Y-316095238D01*
X12821428Y-316285714D01*
X12821428Y-316571428D01*
X12726190Y-316761904D01*
X12630952Y-316857142D01*
X12440476Y-316952380D01*
X11678571Y-316952380D01*
X13678571Y-316857142D02*
X14345238Y-316857142D01*
X14630952Y-317904761D02*
X13678571Y-317904761D01*
X13678571Y-315904761D01*
X14630952Y-315904761D01*
X16440476Y-317904761D02*
X15488095Y-317904761D01*
X15488095Y-315904761D01*
X17488095Y-316952380D02*
X17488095Y-317904761D01*
X16821428Y-315904761D02*
X17488095Y-316952380D01*
X18154761Y-315904761D01*
X19583333Y-293904761D02*
X20916666Y-293904761D01*
X19583333Y-295904761D01*
X20916666Y-295904761D01*
X19583333Y-273904761D02*
X20916666Y-275904761D01*
X20916666Y-273904761D02*
X19583333Y-275904761D01*
X40000000Y-274952380D02*
X40000000Y-275904761D01*
X39333333Y-273904761D02*
X40000000Y-274952380D01*
X40666666Y-273904761D01*
X39678571Y-294154761D02*
X39678571Y-295773809D01*
X39773809Y-295964285D01*
X39869047Y-296059523D01*
X40059523Y-296154761D01*
X40440476Y-296154761D01*
X40630952Y-296059523D01*
X40726190Y-295964285D01*
X40821428Y-295773809D01*
X40821428Y-294154761D01*
X47107142Y-315904761D02*
X47583333Y-317904761D01*
X47964285Y-316476190D01*
X48345238Y-317904761D01*
X48821428Y-315904761D01*
X49583333Y-317904761D02*
X49583333Y-315904761D01*
X51488095Y-317904761D02*
X50535714Y-317904761D01*
X50535714Y-315904761D01*
X52154761Y-317904761D02*
X52154761Y-315904761D01*
X52630952Y-315904761D01*
X52916666Y-316000000D01*
X53107142Y-316190476D01*
X53202380Y-316380952D01*
X53297619Y-316761904D01*
X53297619Y-317047619D01*
X53202380Y-317428571D01*
X53107142Y-317619047D01*
X52916666Y-317809523D01*
X52630952Y-317904761D01*
X52154761Y-317904761D01*
X24285714Y-258904761D02*
X24285714Y-256904761D01*
X25142857Y-258333333D02*
X26095238Y-258333333D01*
X24952380Y-258904761D02*
X25619047Y-256904761D01*
X26285714Y-258904761D01*
X26952380Y-258904761D02*
X26952380Y-256904761D01*
X28095238Y-258904761D01*
X28095238Y-256904761D01*
X31238095Y-257857142D02*
X30571428Y-257857142D01*
X30571428Y-258904761D02*
X30571428Y-256904761D01*
X31523809Y-256904761D01*
X33428571Y-258904761D02*
X32761904Y-257952380D01*
X32285714Y-258904761D02*
X32285714Y-256904761D01*
X33047619Y-256904761D01*
X33238095Y-257000000D01*
X33333333Y-257095238D01*
X33428571Y-257285714D01*
X33428571Y-257571428D01*
X33333333Y-257761904D01*
X33238095Y-257857142D01*
X33047619Y-257952380D01*
X32285714Y-257952380D01*
X34285714Y-258904761D02*
X34285714Y-256904761D01*
X34952380Y-256904761D02*
X36095238Y-256904761D01*
X35523809Y-258904761D02*
X35523809Y-256904761D01*
X36571428Y-256904761D02*
X37904761Y-256904761D01*
X36571428Y-258904761D01*
X37904761Y-258904761D01*
D12*
X12833333Y-251583333D02*
X14833333Y-251583333D01*
X13833333Y-255083333D02*
X13833333Y-251583333D01*
X16000000Y-255083333D02*
X16000000Y-251583333D01*
X16000000Y-253250000D02*
X18000000Y-253250000D01*
X18000000Y-255083333D02*
X18000000Y-251583333D01*
X19666666Y-253250000D02*
X20833333Y-253250000D01*
X21333333Y-255083333D02*
X19666666Y-255083333D01*
X19666666Y-251583333D01*
X21333333Y-251583333D01*
X25500000Y-255083333D02*
X25500000Y-251583333D01*
X25500000Y-253250000D02*
X27499999Y-253250000D01*
X27499999Y-255083333D02*
X27499999Y-251583333D01*
X29833333Y-253416666D02*
X29833333Y-255083333D01*
X28666666Y-251583333D02*
X29833333Y-253416666D01*
X30999999Y-251583333D01*
X32166666Y-255083333D02*
X32166666Y-251583333D01*
X33499999Y-251583333D01*
X33833333Y-251750000D01*
X34000000Y-251916666D01*
X34166666Y-252250000D01*
X34166666Y-252750000D01*
X34000000Y-253083333D01*
X33833333Y-253250000D01*
X33499999Y-253416666D01*
X32166666Y-253416666D01*
X35500000Y-254916666D02*
X36000000Y-255083333D01*
X36833333Y-255083333D01*
X37166666Y-254916666D01*
X37333333Y-254750000D01*
X37500000Y-254416666D01*
X37500000Y-254083333D01*
X37333333Y-253750000D01*
X37166666Y-253583333D01*
X36833333Y-253416666D01*
X36166666Y-253250000D01*
X35833333Y-253083333D01*
X35666666Y-252916666D01*
X35500000Y-252583333D01*
X35500000Y-252250000D01*
X35666666Y-251916666D01*
X35833333Y-251750000D01*
X36166666Y-251583333D01*
X37000000Y-251583333D01*
X37500000Y-251750000D01*
X38499999Y-251583333D02*
X40499999Y-251583333D01*
X39499999Y-255083333D02*
X39499999Y-251583333D01*
X41666666Y-253250000D02*
X42833333Y-253250000D01*
X43333333Y-255083333D02*
X41666666Y-255083333D01*
X41666666Y-251583333D01*
X43333333Y-251583333D01*
X46833333Y-255083333D02*
X45666666Y-253416666D01*
X44833333Y-255083333D02*
X44833333Y-251583333D01*
X46166666Y-251583333D01*
X46499999Y-251750000D01*
X46666666Y-251916666D01*
X46833333Y-252250000D01*
X46833333Y-252750000D01*
X46666666Y-253083333D01*
X46499999Y-253250000D01*
X46166666Y-253416666D01*
X44833333Y-253416666D01*
D13*
X27571428Y-315321428D02*
X26738095Y-315321428D01*
X26738095Y-316630952D02*
X26738095Y-314130952D01*
X27928571Y-314130952D01*
X28880952Y-316630952D02*
X28880952Y-314130952D01*
X30071428Y-316630952D02*
X30071428Y-314130952D01*
X31500000Y-316630952D01*
X31500000Y-314130952D01*
X32690476Y-315321428D02*
X33523809Y-315321428D01*
X33880952Y-316630952D02*
X32690476Y-316630952D01*
X32690476Y-314130952D01*
X33880952Y-314130952D01*
X45845238Y-264630952D02*
X45845238Y-262130952D01*
X46440476Y-262130952D01*
X46797619Y-262250000D01*
X47035714Y-262488095D01*
X47154761Y-262726190D01*
X47273809Y-263202380D01*
X47273809Y-263559523D01*
X47154761Y-264035714D01*
X47035714Y-264273809D01*
X46797619Y-264511904D01*
X46440476Y-264630952D01*
X45845238Y-264630952D01*
X48226190Y-263916666D02*
X49416666Y-263916666D01*
X47988095Y-264630952D02*
X48821428Y-262130952D01*
X49654761Y-264630952D01*
X50488095Y-264630952D02*
X50488095Y-262130952D01*
X51321428Y-263916666D01*
X52154761Y-262130952D01*
X52154761Y-264630952D01*
X53345238Y-264630952D02*
X53345238Y-262130952D01*
X54297619Y-262130952D01*
X54535714Y-262250000D01*
X54654761Y-262369047D01*
X54773809Y-262607142D01*
X54773809Y-262964285D01*
X54654761Y-263202380D01*
X54535714Y-263321428D01*
X54297619Y-263440476D01*
X53345238Y-263440476D01*
X27928571Y-262250000D02*
X27690476Y-262130952D01*
X27333333Y-262130952D01*
X26976190Y-262250000D01*
X26738095Y-262488095D01*
X26619047Y-262726190D01*
X26500000Y-263202380D01*
X26500000Y-263559523D01*
X26619047Y-264035714D01*
X26738095Y-264273809D01*
X26976190Y-264511904D01*
X27333333Y-264630952D01*
X27571428Y-264630952D01*
X27928571Y-264511904D01*
X28047619Y-264392857D01*
X28047619Y-263559523D01*
X27571428Y-263559523D01*
X29000000Y-263916666D02*
X30190476Y-263916666D01*
X28761904Y-264630952D02*
X29595238Y-262130952D01*
X30428571Y-264630952D01*
X31261904Y-264630952D02*
X31261904Y-262130952D01*
X32452380Y-264630952D02*
X32452380Y-262130952D01*
X33880952Y-264630952D01*
X33880952Y-262130952D01*
X7869047Y-264380952D02*
X7035714Y-263190476D01*
X6440476Y-264380952D02*
X6440476Y-261880952D01*
X7392857Y-261880952D01*
X7630952Y-262000000D01*
X7750000Y-262119047D01*
X7869047Y-262357142D01*
X7869047Y-262714285D01*
X7750000Y-262952380D01*
X7630952Y-263071428D01*
X7392857Y-263190476D01*
X6440476Y-263190476D01*
X8821428Y-263666666D02*
X10011904Y-263666666D01*
X8583333Y-264380952D02*
X9416666Y-261880952D01*
X10250000Y-264380952D01*
X10726190Y-261880952D02*
X12154761Y-261880952D01*
X11440476Y-264380952D02*
X11440476Y-261880952D01*
X12988095Y-263071428D02*
X13821428Y-263071428D01*
X14178571Y-264380952D02*
X12988095Y-264380952D01*
X12988095Y-261880952D01*
X14178571Y-261880952D01*
M02*
