G04 #@! TF.GenerationSoftware,KiCad,Pcbnew,(5.1.5-0)*
G04 #@! TF.CreationDate,2021-01-08T11:41:48-08:00*
G04 #@! TF.ProjectId,hypster,68797073-7465-4722-9e6b-696361645f70,rev?*
G04 #@! TF.SameCoordinates,Original*
G04 #@! TF.FileFunction,Soldermask,Bot*
G04 #@! TF.FilePolarity,Negative*
%FSLAX46Y46*%
G04 Gerber Fmt 4.6, Leading zero omitted, Abs format (unit mm)*
G04 Created by KiCad (PCBNEW (5.1.5-0)) date 2021-01-08 11:41:48*
%MOMM*%
%LPD*%
G04 APERTURE LIST*
%ADD10C,0.150000*%
%ADD11C,1.000000*%
%ADD12C,0.100000*%
G04 APERTURE END LIST*
D10*
X23226190Y-371702380D02*
X23226190Y-371035714D01*
X23226190Y-371226190D02*
X23178571Y-371130952D01*
X23130952Y-371083333D01*
X23035714Y-371035714D01*
X22940476Y-371035714D01*
X22226190Y-371654761D02*
X22321428Y-371702380D01*
X22511904Y-371702380D01*
X22607142Y-371654761D01*
X22654761Y-371559523D01*
X22654761Y-371178571D01*
X22607142Y-371083333D01*
X22511904Y-371035714D01*
X22321428Y-371035714D01*
X22226190Y-371083333D01*
X22178571Y-371178571D01*
X22178571Y-371273809D01*
X22654761Y-371369047D01*
X21750000Y-371035714D02*
X21750000Y-372035714D01*
X21750000Y-371083333D02*
X21654761Y-371035714D01*
X21464285Y-371035714D01*
X21369047Y-371083333D01*
X21321428Y-371130952D01*
X21273809Y-371226190D01*
X21273809Y-371511904D01*
X21321428Y-371607142D01*
X21369047Y-371654761D01*
X21464285Y-371702380D01*
X21654761Y-371702380D01*
X21750000Y-371654761D01*
X20416666Y-371702380D02*
X20416666Y-371178571D01*
X20464285Y-371083333D01*
X20559523Y-371035714D01*
X20750000Y-371035714D01*
X20845238Y-371083333D01*
X20416666Y-371654761D02*
X20511904Y-371702380D01*
X20750000Y-371702380D01*
X20845238Y-371654761D01*
X20892857Y-371559523D01*
X20892857Y-371464285D01*
X20845238Y-371369047D01*
X20750000Y-371321428D01*
X20511904Y-371321428D01*
X20416666Y-371273809D01*
X19940476Y-371035714D02*
X19940476Y-371702380D01*
X19940476Y-371130952D02*
X19892857Y-371083333D01*
X19797619Y-371035714D01*
X19654761Y-371035714D01*
X19559523Y-371083333D01*
X19511904Y-371178571D01*
X19511904Y-371702380D01*
X18654761Y-371654761D02*
X18750000Y-371702380D01*
X18940476Y-371702380D01*
X19035714Y-371654761D01*
X19083333Y-371559523D01*
X19083333Y-371178571D01*
X19035714Y-371083333D01*
X18940476Y-371035714D01*
X18750000Y-371035714D01*
X18654761Y-371083333D01*
X18607142Y-371178571D01*
X18607142Y-371273809D01*
X19083333Y-371369047D01*
X18035714Y-371702380D02*
X18130952Y-371654761D01*
X18178571Y-371559523D01*
X18178571Y-370702380D01*
X16892857Y-371702380D02*
X16892857Y-370702380D01*
X16892857Y-371083333D02*
X16797619Y-371035714D01*
X16607142Y-371035714D01*
X16511904Y-371083333D01*
X16464285Y-371130952D01*
X16416666Y-371226190D01*
X16416666Y-371511904D01*
X16464285Y-371607142D01*
X16511904Y-371654761D01*
X16607142Y-371702380D01*
X16797619Y-371702380D01*
X16892857Y-371654761D01*
X16083333Y-371035714D02*
X15845238Y-371702380D01*
X15607142Y-371035714D02*
X15845238Y-371702380D01*
X15940476Y-371940476D01*
X15988095Y-371988095D01*
X16083333Y-372035714D01*
X14464285Y-371035714D02*
X14464285Y-371892857D01*
X14511904Y-371988095D01*
X14607142Y-372035714D01*
X14654761Y-372035714D01*
X14464285Y-370702380D02*
X14511904Y-370750000D01*
X14464285Y-370797619D01*
X14416666Y-370750000D01*
X14464285Y-370702380D01*
X14464285Y-370797619D01*
X13559523Y-371702380D02*
X13559523Y-371178571D01*
X13607142Y-371083333D01*
X13702380Y-371035714D01*
X13892857Y-371035714D01*
X13988095Y-371083333D01*
X13559523Y-371654761D02*
X13654761Y-371702380D01*
X13892857Y-371702380D01*
X13988095Y-371654761D01*
X14035714Y-371559523D01*
X14035714Y-371464285D01*
X13988095Y-371369047D01*
X13892857Y-371321428D01*
X13654761Y-371321428D01*
X13559523Y-371273809D01*
X12654761Y-371654761D02*
X12750000Y-371702380D01*
X12940476Y-371702380D01*
X13035714Y-371654761D01*
X13083333Y-371607142D01*
X13130952Y-371511904D01*
X13130952Y-371226190D01*
X13083333Y-371130952D01*
X13035714Y-371083333D01*
X12940476Y-371035714D01*
X12750000Y-371035714D01*
X12654761Y-371083333D01*
X12226190Y-371702380D02*
X12226190Y-370702380D01*
X12130952Y-371321428D02*
X11845238Y-371702380D01*
X11845238Y-371035714D02*
X12226190Y-371416666D01*
X10702380Y-371654761D02*
X10607142Y-371702380D01*
X10416666Y-371702380D01*
X10321428Y-371654761D01*
X10273809Y-371559523D01*
X10273809Y-371511904D01*
X10321428Y-371416666D01*
X10416666Y-371369047D01*
X10559523Y-371369047D01*
X10654761Y-371321428D01*
X10702380Y-371226190D01*
X10702380Y-371178571D01*
X10654761Y-371083333D01*
X10559523Y-371035714D01*
X10416666Y-371035714D01*
X10321428Y-371083333D01*
X9845238Y-371607142D02*
X9797619Y-371654761D01*
X9845238Y-371702380D01*
X9892857Y-371654761D01*
X9845238Y-371607142D01*
X9845238Y-371702380D01*
X8654761Y-370797619D02*
X8607142Y-370750000D01*
X8511904Y-370702380D01*
X8273809Y-370702380D01*
X8178571Y-370750000D01*
X8130952Y-370797619D01*
X8083333Y-370892857D01*
X8083333Y-370988095D01*
X8130952Y-371130952D01*
X8702380Y-371702380D01*
X8083333Y-371702380D01*
X7464285Y-370702380D02*
X7369047Y-370702380D01*
X7273809Y-370750000D01*
X7226190Y-370797619D01*
X7178571Y-370892857D01*
X7130952Y-371083333D01*
X7130952Y-371321428D01*
X7178571Y-371511904D01*
X7226190Y-371607142D01*
X7273809Y-371654761D01*
X7369047Y-371702380D01*
X7464285Y-371702380D01*
X7559523Y-371654761D01*
X7607142Y-371607142D01*
X7654761Y-371511904D01*
X7702380Y-371321428D01*
X7702380Y-371083333D01*
X7654761Y-370892857D01*
X7607142Y-370797619D01*
X7559523Y-370750000D01*
X7464285Y-370702380D01*
X6750000Y-370797619D02*
X6702380Y-370750000D01*
X6607142Y-370702380D01*
X6369047Y-370702380D01*
X6273809Y-370750000D01*
X6226190Y-370797619D01*
X6178571Y-370892857D01*
X6178571Y-370988095D01*
X6226190Y-371130952D01*
X6797619Y-371702380D01*
X6178571Y-371702380D01*
X5226190Y-371702380D02*
X5797619Y-371702380D01*
X5511904Y-371702380D02*
X5511904Y-370702380D01*
X5607142Y-370845238D01*
X5702380Y-370940476D01*
X5797619Y-370988095D01*
D11*
X40300000Y-340000000D02*
G75*
G03X40300000Y-340000000I-3550000J0D01*
G01*
X26800000Y-340000000D02*
G75*
G03X26800000Y-340000000I-3550000J0D01*
G01*
X13800000Y-340000000D02*
G75*
G03X13800000Y-340000000I-3550000J0D01*
G01*
X13800000Y-356000000D02*
G75*
G03X13800000Y-356000000I-3550000J0D01*
G01*
X26800000Y-356000000D02*
G75*
G03X26800000Y-356000000I-3550000J0D01*
G01*
X40300000Y-356000000D02*
G75*
G03X40300000Y-356000000I-3550000J0D01*
G01*
X53800000Y-356000000D02*
G75*
G03X53800000Y-356000000I-3550000J0D01*
G01*
X53800000Y-340000000D02*
G75*
G03X53800000Y-340000000I-3550000J0D01*
G01*
X53800000Y-308000000D02*
G75*
G03X53800000Y-308000000I-3550000J0D01*
G01*
X33800000Y-308000000D02*
G75*
G03X33800000Y-308000000I-3550000J0D01*
G01*
X13800000Y-308000000D02*
G75*
G03X13800000Y-308000000I-3550000J0D01*
G01*
D12*
G36*
X50854975Y-352958585D02*
G01*
X51154528Y-353018170D01*
X51718874Y-353251930D01*
X52226772Y-353591296D01*
X52658704Y-354023228D01*
X52998070Y-354531126D01*
X53231830Y-355095472D01*
X53351000Y-355694578D01*
X53351000Y-356305422D01*
X53231830Y-356904528D01*
X52998070Y-357468874D01*
X52658704Y-357976772D01*
X52226772Y-358408704D01*
X51718874Y-358748070D01*
X51154528Y-358981830D01*
X50854975Y-359041415D01*
X50555423Y-359101000D01*
X49944577Y-359101000D01*
X49645025Y-359041415D01*
X49345472Y-358981830D01*
X48781126Y-358748070D01*
X48273228Y-358408704D01*
X47841296Y-357976772D01*
X47501930Y-357468874D01*
X47268170Y-356904528D01*
X47149000Y-356305422D01*
X47149000Y-355694578D01*
X47268170Y-355095472D01*
X47501930Y-354531126D01*
X47841296Y-354023228D01*
X48273228Y-353591296D01*
X48781126Y-353251930D01*
X49345472Y-353018170D01*
X49645025Y-352958585D01*
X49944577Y-352899000D01*
X50555423Y-352899000D01*
X50854975Y-352958585D01*
G37*
G36*
X37354975Y-352958585D02*
G01*
X37654528Y-353018170D01*
X38218874Y-353251930D01*
X38726772Y-353591296D01*
X39158704Y-354023228D01*
X39498070Y-354531126D01*
X39731830Y-355095472D01*
X39851000Y-355694578D01*
X39851000Y-356305422D01*
X39731830Y-356904528D01*
X39498070Y-357468874D01*
X39158704Y-357976772D01*
X38726772Y-358408704D01*
X38218874Y-358748070D01*
X37654528Y-358981830D01*
X37354975Y-359041415D01*
X37055423Y-359101000D01*
X36444577Y-359101000D01*
X36145025Y-359041415D01*
X35845472Y-358981830D01*
X35281126Y-358748070D01*
X34773228Y-358408704D01*
X34341296Y-357976772D01*
X34001930Y-357468874D01*
X33768170Y-356904528D01*
X33649000Y-356305422D01*
X33649000Y-355694578D01*
X33768170Y-355095472D01*
X34001930Y-354531126D01*
X34341296Y-354023228D01*
X34773228Y-353591296D01*
X35281126Y-353251930D01*
X35845472Y-353018170D01*
X36145025Y-352958585D01*
X36444577Y-352899000D01*
X37055423Y-352899000D01*
X37354975Y-352958585D01*
G37*
G36*
X23854975Y-352958585D02*
G01*
X24154528Y-353018170D01*
X24718874Y-353251930D01*
X25226772Y-353591296D01*
X25658704Y-354023228D01*
X25998070Y-354531126D01*
X26231830Y-355095472D01*
X26351000Y-355694578D01*
X26351000Y-356305422D01*
X26231830Y-356904528D01*
X25998070Y-357468874D01*
X25658704Y-357976772D01*
X25226772Y-358408704D01*
X24718874Y-358748070D01*
X24154528Y-358981830D01*
X23854975Y-359041415D01*
X23555423Y-359101000D01*
X22944577Y-359101000D01*
X22645025Y-359041415D01*
X22345472Y-358981830D01*
X21781126Y-358748070D01*
X21273228Y-358408704D01*
X20841296Y-357976772D01*
X20501930Y-357468874D01*
X20268170Y-356904528D01*
X20149000Y-356305422D01*
X20149000Y-355694578D01*
X20268170Y-355095472D01*
X20501930Y-354531126D01*
X20841296Y-354023228D01*
X21273228Y-353591296D01*
X21781126Y-353251930D01*
X22345472Y-353018170D01*
X22645025Y-352958585D01*
X22944577Y-352899000D01*
X23555423Y-352899000D01*
X23854975Y-352958585D01*
G37*
G36*
X10854975Y-352958585D02*
G01*
X11154528Y-353018170D01*
X11718874Y-353251930D01*
X12226772Y-353591296D01*
X12658704Y-354023228D01*
X12998070Y-354531126D01*
X13231830Y-355095472D01*
X13351000Y-355694578D01*
X13351000Y-356305422D01*
X13231830Y-356904528D01*
X12998070Y-357468874D01*
X12658704Y-357976772D01*
X12226772Y-358408704D01*
X11718874Y-358748070D01*
X11154528Y-358981830D01*
X10854975Y-359041415D01*
X10555423Y-359101000D01*
X9944577Y-359101000D01*
X9645025Y-359041415D01*
X9345472Y-358981830D01*
X8781126Y-358748070D01*
X8273228Y-358408704D01*
X7841296Y-357976772D01*
X7501930Y-357468874D01*
X7268170Y-356904528D01*
X7149000Y-356305422D01*
X7149000Y-355694578D01*
X7268170Y-355095472D01*
X7501930Y-354531126D01*
X7841296Y-354023228D01*
X8273228Y-353591296D01*
X8781126Y-353251930D01*
X9345472Y-353018170D01*
X9645025Y-352958585D01*
X9944577Y-352899000D01*
X10555423Y-352899000D01*
X10854975Y-352958585D01*
G37*
G36*
X10854975Y-336958585D02*
G01*
X11154528Y-337018170D01*
X11718874Y-337251930D01*
X12226772Y-337591296D01*
X12658704Y-338023228D01*
X12998070Y-338531126D01*
X13231830Y-339095472D01*
X13351000Y-339694578D01*
X13351000Y-340305422D01*
X13231830Y-340904528D01*
X12998070Y-341468874D01*
X12658704Y-341976772D01*
X12226772Y-342408704D01*
X11718874Y-342748070D01*
X11154528Y-342981830D01*
X10854975Y-343041415D01*
X10555423Y-343101000D01*
X9944577Y-343101000D01*
X9645025Y-343041415D01*
X9345472Y-342981830D01*
X8781126Y-342748070D01*
X8273228Y-342408704D01*
X7841296Y-341976772D01*
X7501930Y-341468874D01*
X7268170Y-340904528D01*
X7149000Y-340305422D01*
X7149000Y-339694578D01*
X7268170Y-339095472D01*
X7501930Y-338531126D01*
X7841296Y-338023228D01*
X8273228Y-337591296D01*
X8781126Y-337251930D01*
X9345472Y-337018170D01*
X9645025Y-336958585D01*
X9944577Y-336899000D01*
X10555423Y-336899000D01*
X10854975Y-336958585D01*
G37*
G36*
X50854975Y-336958585D02*
G01*
X51154528Y-337018170D01*
X51718874Y-337251930D01*
X52226772Y-337591296D01*
X52658704Y-338023228D01*
X52998070Y-338531126D01*
X53231830Y-339095472D01*
X53351000Y-339694578D01*
X53351000Y-340305422D01*
X53231830Y-340904528D01*
X52998070Y-341468874D01*
X52658704Y-341976772D01*
X52226772Y-342408704D01*
X51718874Y-342748070D01*
X51154528Y-342981830D01*
X50854975Y-343041415D01*
X50555423Y-343101000D01*
X49944577Y-343101000D01*
X49645025Y-343041415D01*
X49345472Y-342981830D01*
X48781126Y-342748070D01*
X48273228Y-342408704D01*
X47841296Y-341976772D01*
X47501930Y-341468874D01*
X47268170Y-340904528D01*
X47149000Y-340305422D01*
X47149000Y-339694578D01*
X47268170Y-339095472D01*
X47501930Y-338531126D01*
X47841296Y-338023228D01*
X48273228Y-337591296D01*
X48781126Y-337251930D01*
X49345472Y-337018170D01*
X49645025Y-336958585D01*
X49944577Y-336899000D01*
X50555423Y-336899000D01*
X50854975Y-336958585D01*
G37*
G36*
X37354975Y-336958585D02*
G01*
X37654528Y-337018170D01*
X38218874Y-337251930D01*
X38726772Y-337591296D01*
X39158704Y-338023228D01*
X39498070Y-338531126D01*
X39731830Y-339095472D01*
X39851000Y-339694578D01*
X39851000Y-340305422D01*
X39731830Y-340904528D01*
X39498070Y-341468874D01*
X39158704Y-341976772D01*
X38726772Y-342408704D01*
X38218874Y-342748070D01*
X37654528Y-342981830D01*
X37354975Y-343041415D01*
X37055423Y-343101000D01*
X36444577Y-343101000D01*
X36145025Y-343041415D01*
X35845472Y-342981830D01*
X35281126Y-342748070D01*
X34773228Y-342408704D01*
X34341296Y-341976772D01*
X34001930Y-341468874D01*
X33768170Y-340904528D01*
X33649000Y-340305422D01*
X33649000Y-339694578D01*
X33768170Y-339095472D01*
X34001930Y-338531126D01*
X34341296Y-338023228D01*
X34773228Y-337591296D01*
X35281126Y-337251930D01*
X35845472Y-337018170D01*
X36145025Y-336958585D01*
X36444577Y-336899000D01*
X37055423Y-336899000D01*
X37354975Y-336958585D01*
G37*
G36*
X23854975Y-336958585D02*
G01*
X24154528Y-337018170D01*
X24718874Y-337251930D01*
X25226772Y-337591296D01*
X25658704Y-338023228D01*
X25998070Y-338531126D01*
X26231830Y-339095472D01*
X26351000Y-339694578D01*
X26351000Y-340305422D01*
X26231830Y-340904528D01*
X25998070Y-341468874D01*
X25658704Y-341976772D01*
X25226772Y-342408704D01*
X24718874Y-342748070D01*
X24154528Y-342981830D01*
X23854975Y-343041415D01*
X23555423Y-343101000D01*
X22944577Y-343101000D01*
X22645025Y-343041415D01*
X22345472Y-342981830D01*
X21781126Y-342748070D01*
X21273228Y-342408704D01*
X20841296Y-341976772D01*
X20501930Y-341468874D01*
X20268170Y-340904528D01*
X20149000Y-340305422D01*
X20149000Y-339694578D01*
X20268170Y-339095472D01*
X20501930Y-338531126D01*
X20841296Y-338023228D01*
X21273228Y-337591296D01*
X21781126Y-337251930D01*
X22345472Y-337018170D01*
X22645025Y-336958585D01*
X22944577Y-336899000D01*
X23555423Y-336899000D01*
X23854975Y-336958585D01*
G37*
G36*
X50854975Y-321208585D02*
G01*
X51154528Y-321268170D01*
X51718874Y-321501930D01*
X52226772Y-321841296D01*
X52658704Y-322273228D01*
X52998070Y-322781126D01*
X53231830Y-323345472D01*
X53351000Y-323944578D01*
X53351000Y-324555422D01*
X53231830Y-325154528D01*
X52998070Y-325718874D01*
X52658704Y-326226772D01*
X52226772Y-326658704D01*
X51718874Y-326998070D01*
X51154528Y-327231830D01*
X50854975Y-327291415D01*
X50555423Y-327351000D01*
X49944577Y-327351000D01*
X49645025Y-327291415D01*
X49345472Y-327231830D01*
X48781126Y-326998070D01*
X48273228Y-326658704D01*
X47841296Y-326226772D01*
X47501930Y-325718874D01*
X47268170Y-325154528D01*
X47149000Y-324555422D01*
X47149000Y-323944578D01*
X47268170Y-323345472D01*
X47501930Y-322781126D01*
X47841296Y-322273228D01*
X48273228Y-321841296D01*
X48781126Y-321501930D01*
X49345472Y-321268170D01*
X49645025Y-321208585D01*
X49944577Y-321149000D01*
X50555423Y-321149000D01*
X50854975Y-321208585D01*
G37*
G36*
X10854975Y-321208585D02*
G01*
X11154528Y-321268170D01*
X11718874Y-321501930D01*
X12226772Y-321841296D01*
X12658704Y-322273228D01*
X12998070Y-322781126D01*
X13231830Y-323345472D01*
X13351000Y-323944578D01*
X13351000Y-324555422D01*
X13231830Y-325154528D01*
X12998070Y-325718874D01*
X12658704Y-326226772D01*
X12226772Y-326658704D01*
X11718874Y-326998070D01*
X11154528Y-327231830D01*
X10854975Y-327291415D01*
X10555423Y-327351000D01*
X9944577Y-327351000D01*
X9645025Y-327291415D01*
X9345472Y-327231830D01*
X8781126Y-326998070D01*
X8273228Y-326658704D01*
X7841296Y-326226772D01*
X7501930Y-325718874D01*
X7268170Y-325154528D01*
X7149000Y-324555422D01*
X7149000Y-323944578D01*
X7268170Y-323345472D01*
X7501930Y-322781126D01*
X7841296Y-322273228D01*
X8273228Y-321841296D01*
X8781126Y-321501930D01*
X9345472Y-321268170D01*
X9645025Y-321208585D01*
X9944577Y-321149000D01*
X10555423Y-321149000D01*
X10854975Y-321208585D01*
G37*
G36*
X50854975Y-304958585D02*
G01*
X51154528Y-305018170D01*
X51718874Y-305251930D01*
X52226772Y-305591296D01*
X52658704Y-306023228D01*
X52998070Y-306531126D01*
X53231830Y-307095472D01*
X53351000Y-307694578D01*
X53351000Y-308305422D01*
X53231830Y-308904528D01*
X52998070Y-309468874D01*
X52658704Y-309976772D01*
X52226772Y-310408704D01*
X51718874Y-310748070D01*
X51154528Y-310981830D01*
X50854975Y-311041415D01*
X50555423Y-311101000D01*
X49944577Y-311101000D01*
X49645025Y-311041415D01*
X49345472Y-310981830D01*
X48781126Y-310748070D01*
X48273228Y-310408704D01*
X47841296Y-309976772D01*
X47501930Y-309468874D01*
X47268170Y-308904528D01*
X47149000Y-308305422D01*
X47149000Y-307694578D01*
X47268170Y-307095472D01*
X47501930Y-306531126D01*
X47841296Y-306023228D01*
X48273228Y-305591296D01*
X48781126Y-305251930D01*
X49345472Y-305018170D01*
X49645025Y-304958585D01*
X49944577Y-304899000D01*
X50555423Y-304899000D01*
X50854975Y-304958585D01*
G37*
G36*
X30854975Y-304958585D02*
G01*
X31154528Y-305018170D01*
X31718874Y-305251930D01*
X32226772Y-305591296D01*
X32658704Y-306023228D01*
X32998070Y-306531126D01*
X33231830Y-307095472D01*
X33351000Y-307694578D01*
X33351000Y-308305422D01*
X33231830Y-308904528D01*
X32998070Y-309468874D01*
X32658704Y-309976772D01*
X32226772Y-310408704D01*
X31718874Y-310748070D01*
X31154528Y-310981830D01*
X30854975Y-311041415D01*
X30555423Y-311101000D01*
X29944577Y-311101000D01*
X29645025Y-311041415D01*
X29345472Y-310981830D01*
X28781126Y-310748070D01*
X28273228Y-310408704D01*
X27841296Y-309976772D01*
X27501930Y-309468874D01*
X27268170Y-308904528D01*
X27149000Y-308305422D01*
X27149000Y-307694578D01*
X27268170Y-307095472D01*
X27501930Y-306531126D01*
X27841296Y-306023228D01*
X28273228Y-305591296D01*
X28781126Y-305251930D01*
X29345472Y-305018170D01*
X29645025Y-304958585D01*
X29944577Y-304899000D01*
X30555423Y-304899000D01*
X30854975Y-304958585D01*
G37*
G36*
X10854975Y-304958585D02*
G01*
X11154528Y-305018170D01*
X11718874Y-305251930D01*
X12226772Y-305591296D01*
X12658704Y-306023228D01*
X12998070Y-306531126D01*
X13231830Y-307095472D01*
X13351000Y-307694578D01*
X13351000Y-308305422D01*
X13231830Y-308904528D01*
X12998070Y-309468874D01*
X12658704Y-309976772D01*
X12226772Y-310408704D01*
X11718874Y-310748070D01*
X11154528Y-310981830D01*
X10854975Y-311041415D01*
X10555423Y-311101000D01*
X9944577Y-311101000D01*
X9645025Y-311041415D01*
X9345472Y-310981830D01*
X8781126Y-310748070D01*
X8273228Y-310408704D01*
X7841296Y-309976772D01*
X7501930Y-309468874D01*
X7268170Y-308904528D01*
X7149000Y-308305422D01*
X7149000Y-307694578D01*
X7268170Y-307095472D01*
X7501930Y-306531126D01*
X7841296Y-306023228D01*
X8273228Y-305591296D01*
X8781126Y-305251930D01*
X9345472Y-305018170D01*
X9645025Y-304958585D01*
X9944577Y-304899000D01*
X10555423Y-304899000D01*
X10854975Y-304958585D01*
G37*
G36*
X40757430Y-297448977D02*
G01*
X41008684Y-297498955D01*
X41204752Y-297580169D01*
X41482034Y-297695023D01*
X41482035Y-297695024D01*
X41908041Y-297979671D01*
X42270329Y-298341959D01*
X42460524Y-298626607D01*
X42554977Y-298767966D01*
X42751045Y-299241317D01*
X42851000Y-299743823D01*
X42851000Y-300256177D01*
X42751045Y-300758683D01*
X42554977Y-301232034D01*
X42554976Y-301232035D01*
X42270329Y-301658041D01*
X41908041Y-302020329D01*
X41623393Y-302210524D01*
X41482034Y-302304977D01*
X41204752Y-302419831D01*
X41008684Y-302501045D01*
X40757430Y-302551023D01*
X40506177Y-302601000D01*
X39993823Y-302601000D01*
X39742570Y-302551023D01*
X39491316Y-302501045D01*
X39295248Y-302419831D01*
X39017966Y-302304977D01*
X38876607Y-302210524D01*
X38591959Y-302020329D01*
X38229671Y-301658041D01*
X37945024Y-301232035D01*
X37945023Y-301232034D01*
X37748955Y-300758683D01*
X37649000Y-300256177D01*
X37649000Y-299743823D01*
X37748955Y-299241317D01*
X37945023Y-298767966D01*
X38039476Y-298626607D01*
X38229671Y-298341959D01*
X38591959Y-297979671D01*
X39017965Y-297695024D01*
X39017966Y-297695023D01*
X39295248Y-297580169D01*
X39491316Y-297498955D01*
X39742570Y-297448977D01*
X39993823Y-297399000D01*
X40506177Y-297399000D01*
X40757430Y-297448977D01*
G37*
G36*
X20757430Y-297448977D02*
G01*
X21008684Y-297498955D01*
X21204752Y-297580169D01*
X21482034Y-297695023D01*
X21482035Y-297695024D01*
X21908041Y-297979671D01*
X22270329Y-298341959D01*
X22460524Y-298626607D01*
X22554977Y-298767966D01*
X22751045Y-299241317D01*
X22851000Y-299743823D01*
X22851000Y-300256177D01*
X22751045Y-300758683D01*
X22554977Y-301232034D01*
X22554976Y-301232035D01*
X22270329Y-301658041D01*
X21908041Y-302020329D01*
X21623393Y-302210524D01*
X21482034Y-302304977D01*
X21204752Y-302419831D01*
X21008684Y-302501045D01*
X20757430Y-302551023D01*
X20506177Y-302601000D01*
X19993823Y-302601000D01*
X19742570Y-302551023D01*
X19491316Y-302501045D01*
X19295248Y-302419831D01*
X19017966Y-302304977D01*
X18876607Y-302210524D01*
X18591959Y-302020329D01*
X18229671Y-301658041D01*
X17945024Y-301232035D01*
X17945023Y-301232034D01*
X17748955Y-300758683D01*
X17649000Y-300256177D01*
X17649000Y-299743823D01*
X17748955Y-299241317D01*
X17945023Y-298767966D01*
X18039476Y-298626607D01*
X18229671Y-298341959D01*
X18591959Y-297979671D01*
X19017965Y-297695024D01*
X19017966Y-297695023D01*
X19295248Y-297580169D01*
X19491316Y-297498955D01*
X19742570Y-297448977D01*
X19993823Y-297399000D01*
X20506177Y-297399000D01*
X20757430Y-297448977D01*
G37*
G36*
X40757430Y-277448978D02*
G01*
X41008684Y-277498955D01*
X41204752Y-277580169D01*
X41482034Y-277695023D01*
X41482035Y-277695024D01*
X41908041Y-277979671D01*
X42270329Y-278341959D01*
X42460524Y-278626607D01*
X42554977Y-278767966D01*
X42751045Y-279241317D01*
X42851000Y-279743823D01*
X42851000Y-280256177D01*
X42751045Y-280758683D01*
X42554977Y-281232034D01*
X42554976Y-281232035D01*
X42270329Y-281658041D01*
X41908041Y-282020329D01*
X41623393Y-282210524D01*
X41482034Y-282304977D01*
X41204752Y-282419831D01*
X41008684Y-282501045D01*
X40757430Y-282551022D01*
X40506177Y-282601000D01*
X39993823Y-282601000D01*
X39742570Y-282551022D01*
X39491316Y-282501045D01*
X39295248Y-282419831D01*
X39017966Y-282304977D01*
X38876607Y-282210524D01*
X38591959Y-282020329D01*
X38229671Y-281658041D01*
X37945024Y-281232035D01*
X37945023Y-281232034D01*
X37748955Y-280758683D01*
X37649000Y-280256177D01*
X37649000Y-279743823D01*
X37748955Y-279241317D01*
X37945023Y-278767966D01*
X38039476Y-278626607D01*
X38229671Y-278341959D01*
X38591959Y-277979671D01*
X39017965Y-277695024D01*
X39017966Y-277695023D01*
X39295248Y-277580169D01*
X39491316Y-277498955D01*
X39742570Y-277448978D01*
X39993823Y-277399000D01*
X40506177Y-277399000D01*
X40757430Y-277448978D01*
G37*
G36*
X20757430Y-277448978D02*
G01*
X21008684Y-277498955D01*
X21204752Y-277580169D01*
X21482034Y-277695023D01*
X21482035Y-277695024D01*
X21908041Y-277979671D01*
X22270329Y-278341959D01*
X22460524Y-278626607D01*
X22554977Y-278767966D01*
X22751045Y-279241317D01*
X22851000Y-279743823D01*
X22851000Y-280256177D01*
X22751045Y-280758683D01*
X22554977Y-281232034D01*
X22554976Y-281232035D01*
X22270329Y-281658041D01*
X21908041Y-282020329D01*
X21623393Y-282210524D01*
X21482034Y-282304977D01*
X21204752Y-282419831D01*
X21008684Y-282501045D01*
X20757430Y-282551022D01*
X20506177Y-282601000D01*
X19993823Y-282601000D01*
X19742570Y-282551022D01*
X19491316Y-282501045D01*
X19295248Y-282419831D01*
X19017966Y-282304977D01*
X18876607Y-282210524D01*
X18591959Y-282020329D01*
X18229671Y-281658041D01*
X17945024Y-281232035D01*
X17945023Y-281232034D01*
X17748955Y-280758683D01*
X17649000Y-280256177D01*
X17649000Y-279743823D01*
X17748955Y-279241317D01*
X17945023Y-278767966D01*
X18039476Y-278626607D01*
X18229671Y-278341959D01*
X18591959Y-277979671D01*
X19017965Y-277695024D01*
X19017966Y-277695023D01*
X19295248Y-277580169D01*
X19491316Y-277498955D01*
X19742570Y-277448978D01*
X19993823Y-277399000D01*
X20506177Y-277399000D01*
X20757430Y-277448978D01*
G37*
M02*
