G04 #@! TF.GenerationSoftware,KiCad,Pcbnew,(5.1.5-0)*
G04 #@! TF.CreationDate,2021-01-12T22:37:55-08:00*
G04 #@! TF.ProjectId,hypster,68797073-7465-4722-9e6b-696361645f70,rev?*
G04 #@! TF.SameCoordinates,Original*
G04 #@! TF.FileFunction,Copper,L1,Top*
G04 #@! TF.FilePolarity,Positive*
%FSLAX46Y46*%
G04 Gerber Fmt 4.6, Leading zero omitted, Abs format (unit mm)*
G04 Created by KiCad (PCBNEW (5.1.5-0)) date 2021-01-12 22:37:55*
%MOMM*%
%LPD*%
G04 APERTURE LIST*
%ADD10C,1.000000*%
%ADD11C,0.100000*%
%ADD12C,6.100000*%
%ADD13C,5.100000*%
G04 APERTURE END LIST*
D10*
X9750000Y-356250000D02*
X49750000Y-356250000D01*
X10250000Y-340250000D02*
X50250000Y-340250000D01*
D11*
G36*
X26596400Y-369774900D02*
G01*
X26913900Y-370016200D01*
X27479050Y-370333700D01*
X28075950Y-370765500D01*
X28450600Y-371146500D01*
X28850650Y-371711650D01*
X29447550Y-372892750D01*
X29746000Y-373457900D01*
X29758700Y-373470600D01*
X29428500Y-373496000D01*
X29326900Y-373445200D01*
X28971300Y-373197550D01*
X28564900Y-372829250D01*
X28234700Y-372480000D01*
X27879100Y-372048200D01*
X27599700Y-371629100D01*
X27409200Y-371375100D01*
X27155200Y-370917900D01*
X26901200Y-370549600D01*
X26659900Y-370130500D01*
X26380500Y-369571700D01*
X26596400Y-369774900D01*
G37*
X26596400Y-369774900D02*
X26913900Y-370016200D01*
X27479050Y-370333700D01*
X28075950Y-370765500D01*
X28450600Y-371146500D01*
X28850650Y-371711650D01*
X29447550Y-372892750D01*
X29746000Y-373457900D01*
X29758700Y-373470600D01*
X29428500Y-373496000D01*
X29326900Y-373445200D01*
X28971300Y-373197550D01*
X28564900Y-372829250D01*
X28234700Y-372480000D01*
X27879100Y-372048200D01*
X27599700Y-371629100D01*
X27409200Y-371375100D01*
X27155200Y-370917900D01*
X26901200Y-370549600D01*
X26659900Y-370130500D01*
X26380500Y-369571700D01*
X26596400Y-369774900D01*
G36*
X28002925Y-372953075D02*
G01*
X28339475Y-373048325D01*
X28603000Y-373140400D01*
X29301500Y-373546800D01*
X29331980Y-373574740D01*
X29339600Y-373559500D01*
X29339600Y-373572200D01*
X29331980Y-373574740D01*
X29250700Y-373737300D01*
X29644400Y-373877000D01*
X29434850Y-373902400D01*
X29041150Y-373927800D01*
X28564900Y-373927800D01*
X28120400Y-373864300D01*
X27637800Y-373750000D01*
X27244100Y-373635700D01*
X26837700Y-373407100D01*
X26520200Y-373178500D01*
X26113800Y-373051500D01*
X26761500Y-373000700D01*
X27294900Y-372962600D01*
X27758450Y-372956250D01*
X28002925Y-372953075D01*
G37*
X28002925Y-372953075D02*
X28339475Y-373048325D01*
X28603000Y-373140400D01*
X29301500Y-373546800D01*
X29331980Y-373574740D01*
X29339600Y-373559500D01*
X29339600Y-373572200D01*
X29331980Y-373574740D01*
X29250700Y-373737300D01*
X29644400Y-373877000D01*
X29434850Y-373902400D01*
X29041150Y-373927800D01*
X28564900Y-373927800D01*
X28120400Y-373864300D01*
X27637800Y-373750000D01*
X27244100Y-373635700D01*
X26837700Y-373407100D01*
X26520200Y-373178500D01*
X26113800Y-373051500D01*
X26761500Y-373000700D01*
X27294900Y-372962600D01*
X27758450Y-372956250D01*
X28002925Y-372953075D01*
G36*
X29866650Y-374016700D02*
G01*
X29498350Y-374448500D01*
X29060200Y-374721550D01*
X28679200Y-374861250D01*
X27929900Y-375026350D01*
X28412500Y-374499300D01*
X28806200Y-374232600D01*
X29174500Y-374029400D01*
X29644400Y-373953200D01*
X29669800Y-373953200D01*
X29866650Y-374016700D01*
G37*
X29866650Y-374016700D02*
X29498350Y-374448500D01*
X29060200Y-374721550D01*
X28679200Y-374861250D01*
X27929900Y-375026350D01*
X28412500Y-374499300D01*
X28806200Y-374232600D01*
X29174500Y-374029400D01*
X29644400Y-373953200D01*
X29669800Y-373953200D01*
X29866650Y-374016700D01*
G36*
X30000000Y-373534100D02*
G01*
X29788862Y-373727775D01*
X30007937Y-373823025D01*
X30758825Y-374365950D01*
X30577850Y-374461200D01*
X30000000Y-374004000D01*
X30012700Y-375096200D01*
X29898400Y-374956500D01*
X29892050Y-374067500D01*
X29936500Y-374067500D01*
X29555500Y-373851600D01*
X29269750Y-373699200D01*
X29434850Y-373419800D01*
X30000000Y-373534100D01*
G37*
X30000000Y-373534100D02*
X29788862Y-373727775D01*
X30007937Y-373823025D01*
X30758825Y-374365950D01*
X30577850Y-374461200D01*
X30000000Y-374004000D01*
X30012700Y-375096200D01*
X29898400Y-374956500D01*
X29892050Y-374067500D01*
X29936500Y-374067500D01*
X29555500Y-373851600D01*
X29269750Y-373699200D01*
X29434850Y-373419800D01*
X30000000Y-373534100D01*
G36*
X30641350Y-373991300D02*
G01*
X31193800Y-374270700D01*
X31520825Y-374597725D01*
X31655763Y-374827913D01*
X31887538Y-375097788D01*
X31581150Y-375013650D01*
X31327150Y-374937450D01*
X31149350Y-374873950D01*
X30774700Y-374740600D01*
X30415925Y-374546925D01*
X30155575Y-374261175D01*
X30031750Y-374099250D01*
X30095250Y-374137350D01*
X30069850Y-374073850D01*
X30133350Y-373902400D01*
X30641350Y-373991300D01*
G37*
X30641350Y-373991300D02*
X31193800Y-374270700D01*
X31520825Y-374597725D01*
X31655763Y-374827913D01*
X31887538Y-375097788D01*
X31581150Y-375013650D01*
X31327150Y-374937450D01*
X31149350Y-374873950D01*
X30774700Y-374740600D01*
X30415925Y-374546925D01*
X30155575Y-374261175D01*
X30031750Y-374099250D01*
X30095250Y-374137350D01*
X30069850Y-374073850D01*
X30133350Y-373902400D01*
X30641350Y-373991300D01*
G36*
X33073400Y-372988000D02*
G01*
X33505200Y-373013400D01*
X34083207Y-373023943D01*
X33403600Y-373178500D01*
X32971800Y-373369000D01*
X32628900Y-373584900D01*
X32209800Y-373750000D01*
X31676400Y-373838900D01*
X31231900Y-373864300D01*
X30654050Y-373845250D01*
X30076200Y-373826200D01*
X30012700Y-373750000D01*
X30228600Y-373686500D01*
X30235585Y-373635700D01*
X30551815Y-373508700D01*
X31085850Y-373280100D01*
X31638300Y-373076900D01*
X32032000Y-372962600D01*
X32476500Y-372962600D01*
X33073400Y-372988000D01*
G37*
X33073400Y-372988000D02*
X33505200Y-373013400D01*
X34083207Y-373023943D01*
X33403600Y-373178500D01*
X32971800Y-373369000D01*
X32628900Y-373584900D01*
X32209800Y-373750000D01*
X31676400Y-373838900D01*
X31231900Y-373864300D01*
X30654050Y-373845250D01*
X30076200Y-373826200D01*
X30012700Y-373750000D01*
X30228600Y-373686500D01*
X30235585Y-373635700D01*
X30551815Y-373508700D01*
X31085850Y-373280100D01*
X31638300Y-373076900D01*
X32032000Y-372962600D01*
X32476500Y-372962600D01*
X33073400Y-372988000D01*
G36*
X33060700Y-370333700D02*
G01*
X32819400Y-370829000D01*
X32616200Y-371286200D01*
X32355850Y-371806900D01*
X32082800Y-372162500D01*
X31771650Y-372575250D01*
X31301750Y-372968950D01*
X30800100Y-373305500D01*
X29695200Y-373902400D01*
X29720600Y-373572200D01*
X30025400Y-373521400D01*
X30273050Y-373083250D01*
X30488950Y-372619700D01*
X30654050Y-372289500D01*
X30838200Y-371997400D01*
X31003300Y-371679900D01*
X31282700Y-371324300D01*
X31562100Y-371006800D01*
X31892300Y-370714700D01*
X32235200Y-370486100D01*
X32616200Y-370232100D01*
X33009900Y-369965400D01*
X33543300Y-369571700D01*
X33060700Y-370333700D01*
G37*
X33060700Y-370333700D02*
X32819400Y-370829000D01*
X32616200Y-371286200D01*
X32355850Y-371806900D01*
X32082800Y-372162500D01*
X31771650Y-372575250D01*
X31301750Y-372968950D01*
X30800100Y-373305500D01*
X29695200Y-373902400D01*
X29720600Y-373572200D01*
X30025400Y-373521400D01*
X30273050Y-373083250D01*
X30488950Y-372619700D01*
X30654050Y-372289500D01*
X30838200Y-371997400D01*
X31003300Y-371679900D01*
X31282700Y-371324300D01*
X31562100Y-371006800D01*
X31892300Y-370714700D01*
X32235200Y-370486100D01*
X32616200Y-370232100D01*
X33009900Y-369965400D01*
X33543300Y-369571700D01*
X33060700Y-370333700D01*
G36*
X30215900Y-368200100D02*
G01*
X30317500Y-368682700D01*
X30431800Y-369139900D01*
X30514350Y-369470100D01*
X30577850Y-369851100D01*
X30622300Y-370371800D01*
X30622300Y-370905200D01*
X30571500Y-371489400D01*
X30508000Y-372010100D01*
X30365125Y-372505400D01*
X30066675Y-373521400D01*
X29853950Y-373470600D01*
X29619000Y-372556200D01*
X29445962Y-371692600D01*
X29461837Y-370905200D01*
X29514225Y-370244800D01*
X29676150Y-369470100D01*
X29911100Y-368657300D01*
X30038100Y-367882600D01*
X30101600Y-367361900D01*
X30215900Y-368200100D01*
G37*
X30215900Y-368200100D02*
X30317500Y-368682700D01*
X30431800Y-369139900D01*
X30514350Y-369470100D01*
X30577850Y-369851100D01*
X30622300Y-370371800D01*
X30622300Y-370905200D01*
X30571500Y-371489400D01*
X30508000Y-372010100D01*
X30365125Y-372505400D01*
X30066675Y-373521400D01*
X29853950Y-373470600D01*
X29619000Y-372556200D01*
X29445962Y-371692600D01*
X29461837Y-370905200D01*
X29514225Y-370244800D01*
X29676150Y-369470100D01*
X29911100Y-368657300D01*
X30038100Y-367882600D01*
X30101600Y-367361900D01*
X30215900Y-368200100D01*
D12*
X10250000Y-324250000D03*
X50250000Y-324250000D03*
D13*
X20250000Y-300000000D03*
X40250000Y-300000000D03*
X40250000Y-280000000D03*
X20250000Y-280000000D03*
D12*
X10250000Y-308000000D03*
X30250000Y-308000000D03*
X50250000Y-308000000D03*
X50250000Y-340000000D03*
X36750000Y-340000000D03*
X23250000Y-340000000D03*
X10250000Y-340000000D03*
X10250000Y-356000000D03*
X23250000Y-356000000D03*
X36750000Y-356000000D03*
X50250000Y-356000000D03*
M02*
