G04 #@! TF.GenerationSoftware,KiCad,Pcbnew,(5.1.5-0)*
G04 #@! TF.CreationDate,2021-01-12T22:37:55-08:00*
G04 #@! TF.ProjectId,hypster,68797073-7465-4722-9e6b-696361645f70,rev?*
G04 #@! TF.SameCoordinates,Original*
G04 #@! TF.FileFunction,Profile,NP*
%FSLAX46Y46*%
G04 Gerber Fmt 4.6, Leading zero omitted, Abs format (unit mm)*
G04 Created by KiCad (PCBNEW (5.1.5-0)) date 2021-01-12 22:37:55*
%MOMM*%
%LPD*%
G04 APERTURE LIST*
%ADD10C,0.050000*%
G04 APERTURE END LIST*
D10*
X34000000Y-324000000D02*
G75*
G03X34000000Y-324000000I-3750000J0D01*
G01*
X54000000Y-290000000D02*
G75*
G03X54000000Y-290000000I-3750000J0D01*
G01*
X34000000Y-290000000D02*
G75*
G03X34000000Y-290000000I-3750000J0D01*
G01*
X14000000Y-290000000D02*
G75*
G03X14000000Y-290000000I-3750000J0D01*
G01*
X54000000Y-272000000D02*
G75*
G03X54000000Y-272000000I-3750000J0D01*
G01*
X34250000Y-272000000D02*
G75*
G03X34250000Y-272000000I-3750000J0D01*
G01*
X13750000Y-272000000D02*
G75*
G03X13750000Y-272000000I-3750000J0D01*
G01*
X8500000Y-373900000D02*
X6500000Y-373900000D01*
X6500000Y-377100000D02*
G75*
G02X6500000Y-373900000I0J1600000D01*
G01*
X8500000Y-377100000D02*
X6500000Y-377100000D01*
X8500000Y-373900000D02*
G75*
G02X8500000Y-377100000I0J-1600000D01*
G01*
X53500000Y-373900000D02*
X51500000Y-373900000D01*
X53500000Y-377100000D02*
X51500000Y-377100000D01*
X53500000Y-373900000D02*
G75*
G02X53500000Y-377100000I0J-1600000D01*
G01*
X51500000Y-377100000D02*
G75*
G02X51500000Y-373900000I0J1600000D01*
G01*
X53500000Y-251500000D02*
X51500000Y-251500000D01*
X51500000Y-254700000D02*
G75*
G02X51500000Y-251500000I0J1600000D01*
G01*
X53500000Y-254700000D02*
X51500000Y-254700000D01*
X53500000Y-251500000D02*
G75*
G02X53500000Y-254700000I0J-1600000D01*
G01*
X6500000Y-254700000D02*
G75*
G02X6500000Y-251500000I0J1600000D01*
G01*
X8500000Y-251500000D02*
X6500000Y-251500000D01*
X8500000Y-251500000D02*
G75*
G02X8500000Y-254700000I0J-1600000D01*
G01*
X8500000Y-254700000D02*
X6500000Y-254700000D01*
X0Y-378500000D02*
X0Y-250000000D01*
X60500000Y-378500000D02*
X0Y-378500000D01*
X60500000Y-250000000D02*
X60500000Y-378500000D01*
X0Y-250000000D02*
X60500000Y-250000000D01*
M02*
