G04 #@! TF.GenerationSoftware,KiCad,Pcbnew,(5.1.5-0)*
G04 #@! TF.CreationDate,2021-01-12T22:37:55-08:00*
G04 #@! TF.ProjectId,hypster,68797073-7465-4722-9e6b-696361645f70,rev?*
G04 #@! TF.SameCoordinates,Original*
G04 #@! TF.FileFunction,Soldermask,Top*
G04 #@! TF.FilePolarity,Negative*
%FSLAX46Y46*%
G04 Gerber Fmt 4.6, Leading zero omitted, Abs format (unit mm)*
G04 Created by KiCad (PCBNEW (5.1.5-0)) date 2021-01-12 22:37:55*
%MOMM*%
%LPD*%
G04 APERTURE LIST*
%ADD10C,1.000000*%
%ADD11C,0.100000*%
%ADD12C,0.000002*%
%ADD13C,0.001000*%
G04 APERTURE END LIST*
D10*
X9750000Y-356250000D02*
X49750000Y-356250000D01*
X10250000Y-340250000D02*
X50250000Y-340250000D01*
D11*
G36*
X30660400Y-373997650D02*
G01*
X31212850Y-374277050D01*
X31539875Y-374604075D01*
X31674813Y-374834263D01*
X31906588Y-375104138D01*
X31600200Y-375020000D01*
X31346200Y-374943800D01*
X31168400Y-374880300D01*
X30793750Y-374746950D01*
X30434975Y-374553275D01*
X30174625Y-374267525D01*
X30050800Y-374105600D01*
X30114300Y-374143700D01*
X30088900Y-374080200D01*
X30152400Y-373908750D01*
X30660400Y-373997650D01*
G37*
X30660400Y-373997650D02*
X31212850Y-374277050D01*
X31539875Y-374604075D01*
X31674813Y-374834263D01*
X31906588Y-375104138D01*
X31600200Y-375020000D01*
X31346200Y-374943800D01*
X31168400Y-374880300D01*
X30793750Y-374746950D01*
X30434975Y-374553275D01*
X30174625Y-374267525D01*
X30050800Y-374105600D01*
X30114300Y-374143700D01*
X30088900Y-374080200D01*
X30152400Y-373908750D01*
X30660400Y-373997650D01*
G36*
X29866650Y-374016700D02*
G01*
X29498350Y-374448500D01*
X29060200Y-374721550D01*
X28679200Y-374861250D01*
X27929900Y-375026350D01*
X28412500Y-374499300D01*
X28806200Y-374232600D01*
X29174500Y-374029400D01*
X29644400Y-373953200D01*
X29669800Y-373953200D01*
X29866650Y-374016700D01*
G37*
X29866650Y-374016700D02*
X29498350Y-374448500D01*
X29060200Y-374721550D01*
X28679200Y-374861250D01*
X27929900Y-375026350D01*
X28412500Y-374499300D01*
X28806200Y-374232600D01*
X29174500Y-374029400D01*
X29644400Y-373953200D01*
X29669800Y-373953200D01*
X29866650Y-374016700D01*
G36*
X33073400Y-372988000D02*
G01*
X33505200Y-373013400D01*
X34083207Y-373023943D01*
X33403600Y-373178500D01*
X32971800Y-373369000D01*
X32628900Y-373584900D01*
X32209800Y-373750000D01*
X31676400Y-373838900D01*
X31231900Y-373864300D01*
X30654050Y-373845250D01*
X30076200Y-373826200D01*
X30012700Y-373750000D01*
X30228600Y-373686500D01*
X30235585Y-373635700D01*
X30551815Y-373508700D01*
X31085850Y-373280100D01*
X31638300Y-373076900D01*
X32032000Y-372962600D01*
X32476500Y-372962600D01*
X33073400Y-372988000D01*
G37*
X33073400Y-372988000D02*
X33505200Y-373013400D01*
X34083207Y-373023943D01*
X33403600Y-373178500D01*
X32971800Y-373369000D01*
X32628900Y-373584900D01*
X32209800Y-373750000D01*
X31676400Y-373838900D01*
X31231900Y-373864300D01*
X30654050Y-373845250D01*
X30076200Y-373826200D01*
X30012700Y-373750000D01*
X30228600Y-373686500D01*
X30235585Y-373635700D01*
X30551815Y-373508700D01*
X31085850Y-373280100D01*
X31638300Y-373076900D01*
X32032000Y-372962600D01*
X32476500Y-372962600D01*
X33073400Y-372988000D01*
G36*
X33060700Y-370333700D02*
G01*
X32819400Y-370829000D01*
X32616200Y-371286200D01*
X32355850Y-371806900D01*
X32082800Y-372162500D01*
X31771650Y-372575250D01*
X31301750Y-372968950D01*
X30800100Y-373305500D01*
X29695200Y-373902400D01*
X29720600Y-373572200D01*
X30025400Y-373521400D01*
X30273050Y-373083250D01*
X30488950Y-372619700D01*
X30654050Y-372289500D01*
X30838200Y-371997400D01*
X31003300Y-371679900D01*
X31282700Y-371324300D01*
X31562100Y-371006800D01*
X31892300Y-370714700D01*
X32235200Y-370486100D01*
X32616200Y-370232100D01*
X33009900Y-369965400D01*
X33543300Y-369571700D01*
X33060700Y-370333700D01*
G37*
X33060700Y-370333700D02*
X32819400Y-370829000D01*
X32616200Y-371286200D01*
X32355850Y-371806900D01*
X32082800Y-372162500D01*
X31771650Y-372575250D01*
X31301750Y-372968950D01*
X30800100Y-373305500D01*
X29695200Y-373902400D01*
X29720600Y-373572200D01*
X30025400Y-373521400D01*
X30273050Y-373083250D01*
X30488950Y-372619700D01*
X30654050Y-372289500D01*
X30838200Y-371997400D01*
X31003300Y-371679900D01*
X31282700Y-371324300D01*
X31562100Y-371006800D01*
X31892300Y-370714700D01*
X32235200Y-370486100D01*
X32616200Y-370232100D01*
X33009900Y-369965400D01*
X33543300Y-369571700D01*
X33060700Y-370333700D01*
G36*
X30215900Y-368200100D02*
G01*
X30317500Y-368682700D01*
X30431800Y-369139900D01*
X30514350Y-369470100D01*
X30577850Y-369851100D01*
X30622300Y-370371800D01*
X30622300Y-370905200D01*
X30571500Y-371489400D01*
X30508000Y-372010100D01*
X30365125Y-372505400D01*
X30066675Y-373521400D01*
X29853950Y-373470600D01*
X29619000Y-372556200D01*
X29445962Y-371692600D01*
X29461837Y-370905200D01*
X29514225Y-370244800D01*
X29676150Y-369470100D01*
X29911100Y-368657300D01*
X30038100Y-367882600D01*
X30101600Y-367361900D01*
X30215900Y-368200100D01*
G37*
X30215900Y-368200100D02*
X30317500Y-368682700D01*
X30431800Y-369139900D01*
X30514350Y-369470100D01*
X30577850Y-369851100D01*
X30622300Y-370371800D01*
X30622300Y-370905200D01*
X30571500Y-371489400D01*
X30508000Y-372010100D01*
X30365125Y-372505400D01*
X30066675Y-373521400D01*
X29853950Y-373470600D01*
X29619000Y-372556200D01*
X29445962Y-371692600D01*
X29461837Y-370905200D01*
X29514225Y-370244800D01*
X29676150Y-369470100D01*
X29911100Y-368657300D01*
X30038100Y-367882600D01*
X30101600Y-367361900D01*
X30215900Y-368200100D01*
G36*
X26596400Y-369774900D02*
G01*
X26913900Y-370016200D01*
X27479050Y-370333700D01*
X28075950Y-370765500D01*
X28450600Y-371146500D01*
X28850650Y-371711650D01*
X29447550Y-372892750D01*
X29746000Y-373457900D01*
X29758700Y-373470600D01*
X29428500Y-373496000D01*
X29326900Y-373445200D01*
X28971300Y-373197550D01*
X28564900Y-372829250D01*
X28234700Y-372480000D01*
X27879100Y-372048200D01*
X27599700Y-371629100D01*
X27409200Y-371375100D01*
X27155200Y-370917900D01*
X26901200Y-370549600D01*
X26659900Y-370130500D01*
X26380500Y-369571700D01*
X26596400Y-369774900D01*
G37*
X26596400Y-369774900D02*
X26913900Y-370016200D01*
X27479050Y-370333700D01*
X28075950Y-370765500D01*
X28450600Y-371146500D01*
X28850650Y-371711650D01*
X29447550Y-372892750D01*
X29746000Y-373457900D01*
X29758700Y-373470600D01*
X29428500Y-373496000D01*
X29326900Y-373445200D01*
X28971300Y-373197550D01*
X28564900Y-372829250D01*
X28234700Y-372480000D01*
X27879100Y-372048200D01*
X27599700Y-371629100D01*
X27409200Y-371375100D01*
X27155200Y-370917900D01*
X26901200Y-370549600D01*
X26659900Y-370130500D01*
X26380500Y-369571700D01*
X26596400Y-369774900D01*
G36*
X28002925Y-372953075D02*
G01*
X28339475Y-373048325D01*
X28603000Y-373140400D01*
X29301500Y-373546800D01*
X29331980Y-373574740D01*
X29339600Y-373559500D01*
X29339600Y-373572200D01*
X29331980Y-373574740D01*
X29250700Y-373737300D01*
X29644400Y-373877000D01*
X29434850Y-373902400D01*
X29041150Y-373927800D01*
X28564900Y-373927800D01*
X28120400Y-373864300D01*
X27637800Y-373750000D01*
X27244100Y-373635700D01*
X26837700Y-373407100D01*
X26520200Y-373178500D01*
X26113800Y-373051500D01*
X26761500Y-373000700D01*
X27294900Y-372962600D01*
X27758450Y-372956250D01*
X28002925Y-372953075D01*
G37*
X28002925Y-372953075D02*
X28339475Y-373048325D01*
X28603000Y-373140400D01*
X29301500Y-373546800D01*
X29331980Y-373574740D01*
X29339600Y-373559500D01*
X29339600Y-373572200D01*
X29331980Y-373574740D01*
X29250700Y-373737300D01*
X29644400Y-373877000D01*
X29434850Y-373902400D01*
X29041150Y-373927800D01*
X28564900Y-373927800D01*
X28120400Y-373864300D01*
X27637800Y-373750000D01*
X27244100Y-373635700D01*
X26837700Y-373407100D01*
X26520200Y-373178500D01*
X26113800Y-373051500D01*
X26761500Y-373000700D01*
X27294900Y-372962600D01*
X27758450Y-372956250D01*
X28002925Y-372953075D01*
G36*
X30000000Y-373534100D02*
G01*
X29788862Y-373727775D01*
X30007937Y-373823025D01*
X30758825Y-374365950D01*
X30577850Y-374461200D01*
X30000000Y-374004000D01*
X30012700Y-375096200D01*
X29898400Y-374956500D01*
X29892050Y-374067500D01*
X29936500Y-374067500D01*
X29555500Y-373851600D01*
X29269750Y-373699200D01*
X29434850Y-373419800D01*
X30000000Y-373534100D01*
G37*
X30000000Y-373534100D02*
X29788862Y-373727775D01*
X30007937Y-373823025D01*
X30758825Y-374365950D01*
X30577850Y-374461200D01*
X30000000Y-374004000D01*
X30012700Y-375096200D01*
X29898400Y-374956500D01*
X29892050Y-374067500D01*
X29936500Y-374067500D01*
X29555500Y-373851600D01*
X29269750Y-373699200D01*
X29434850Y-373419800D01*
X30000000Y-373534100D01*
D12*
X29479586Y-371846968D02*
X29486414Y-371913404D01*
X26060628Y-373035206D02*
G75*
G02X26062745Y-373030474I8833J-1112D01*
G01*
X26062745Y-373030475D02*
G75*
G02X26067170Y-373027659I6961J-6056D01*
G01*
X26067171Y-373027659D02*
G75*
G02X26076272Y-373025641I21302J-74534D01*
G01*
X26119176Y-373019928D02*
X26076272Y-373025641D01*
X26175382Y-373014579D02*
X26119176Y-373019928D01*
X26249523Y-373009059D02*
X26175382Y-373014579D01*
X26350810Y-373002773D02*
X26249523Y-373009059D01*
X26464250Y-372995535D02*
X26350810Y-373002773D01*
X26555159Y-372988329D02*
X26464250Y-372995535D01*
X26635946Y-372980142D02*
X26555159Y-372988329D01*
X26717522Y-372969967D02*
X26635946Y-372980142D01*
X26795588Y-372960763D02*
X26717522Y-372969967D01*
X26894548Y-372951810D02*
X26795588Y-372960763D01*
X27002731Y-372943949D02*
X26894548Y-372951810D01*
X27110022Y-372938039D02*
X27002731Y-372943949D01*
X27158893Y-372935783D02*
X27110022Y-372938039D01*
X27228084Y-372932592D02*
X27158893Y-372935783D01*
X27303746Y-372929104D02*
X27228084Y-372932592D01*
X27375022Y-372925821D02*
X27303746Y-372929104D01*
X27542892Y-372918843D02*
X27375022Y-372925821D01*
X27717753Y-372913052D02*
X27542892Y-372918843D01*
X27891324Y-372908069D02*
X27717753Y-372913052D01*
X27891324Y-372908069D02*
G75*
G02X27900393Y-372910507I462J-16364D01*
G01*
X27903889Y-372911762D02*
G75*
G02X27900393Y-372910507I1209J8867D01*
G01*
X27919388Y-372913775D02*
X27903889Y-372911762D01*
X27937771Y-372915819D02*
X27919388Y-372913775D01*
X27958715Y-372917713D02*
X27937771Y-372915819D01*
X29470054Y-371737481D02*
X29472649Y-371767124D01*
X30612378Y-373897086D02*
X30657522Y-373900622D01*
X30563537Y-373893388D02*
X30612378Y-373897086D01*
X30518194Y-373890058D02*
X30563537Y-373893388D01*
X30485022Y-373887755D02*
X30518194Y-373890058D01*
X30453615Y-373885486D02*
X30485022Y-373887755D01*
X30414584Y-373882326D02*
X30453615Y-373885486D01*
X30374606Y-373878849D02*
X30414584Y-373882326D01*
X30340022Y-373875579D02*
X30374606Y-373878849D01*
X30278512Y-373870402D02*
X30340022Y-373875579D01*
X30226901Y-373868134D02*
X30278512Y-373870402D01*
X28831364Y-371630665D02*
X28702584Y-371423051D01*
X28960123Y-371860277D02*
X28831364Y-371630665D01*
X30263811Y-373894985D02*
X30225611Y-373887712D01*
X30301820Y-373901668D02*
X30263811Y-373894985D01*
X30327522Y-373905429D02*
X30301820Y-373901668D01*
X30327522Y-373905429D02*
G75*
G02X30415850Y-373921576I-96572J-777952D01*
G01*
X30542223Y-373954860D02*
X30415850Y-373921576D01*
X30681550Y-373997366D02*
X30542223Y-373954860D01*
X30815022Y-374044009D02*
X30681550Y-373997366D01*
X30858649Y-374061046D02*
X30815022Y-374044009D01*
X30904637Y-374080487D02*
X30858649Y-374061046D01*
X30952079Y-374101930D02*
X30904637Y-374080487D01*
X31000085Y-374124987D02*
X30952079Y-374101930D01*
X31000085Y-374124988D02*
G75*
G02X31152408Y-374212179I-639105J-1293158D01*
G01*
X29600081Y-372597260D02*
X29602098Y-372607528D01*
X32620021Y-371265299D02*
G75*
G02X32619743Y-371266562I-3003J0D01*
G01*
X32611209Y-371284952D02*
X32619743Y-371266562D01*
X32601523Y-371305632D02*
X32611209Y-371284952D01*
X32590022Y-371329870D02*
X32601523Y-371305632D01*
X32578521Y-371354146D02*
X32590022Y-371329870D01*
X32568834Y-371374951D02*
X32578521Y-371354146D01*
X32560385Y-371393329D02*
X32568834Y-371374951D01*
X32560021Y-371394995D02*
G75*
G02X32560385Y-371393329I3995J0D01*
G01*
X32560021Y-371394995D02*
G75*
G02X32559292Y-371398297I-7840J0D01*
G01*
X32520677Y-371481421D02*
X32559292Y-371398297D01*
X32477758Y-371573339D02*
X32520677Y-371481421D01*
X32427442Y-371680277D02*
X32477758Y-371573339D01*
X32404537Y-371728174D02*
X32427442Y-371680277D01*
X32376801Y-371784980D02*
X32404537Y-371728174D01*
X32347730Y-371843998D02*
X32376801Y-371784980D01*
X32347731Y-371843997D02*
G75*
G02X32345022Y-371847777I-12801J6311D01*
G01*
X32343589Y-371849614D02*
G75*
G02X32345022Y-371847777I8150J-4881D01*
G01*
X32340177Y-371855418D02*
X32343588Y-371849615D01*
X32336238Y-371862435D02*
X32340177Y-371855418D01*
X32332041Y-371870277D02*
X32336238Y-371862435D01*
X32323008Y-371887116D02*
X32332041Y-371870277D01*
X32312309Y-371906309D02*
X32323008Y-371887116D01*
X32301117Y-371925799D02*
X32312309Y-371906309D01*
X32290563Y-371943576D02*
X32301117Y-371925799D01*
X32286359Y-371950601D02*
X32290563Y-371943576D01*
X32279895Y-371961546D02*
X32286359Y-371950601D01*
X32272630Y-371973921D02*
X32279895Y-371961546D01*
X32265538Y-371986076D02*
X32272630Y-371973921D01*
X32265539Y-371986076D02*
G75*
G02X32176513Y-372124537I-1594117J927112D01*
G01*
X32060765Y-372278716D02*
X32176513Y-372124537D01*
X31929379Y-372435115D02*
X32060765Y-372278716D01*
X31792561Y-372580767D02*
X31929379Y-372435115D01*
X31792561Y-372580767D02*
G75*
G02X31512462Y-372838051I-2992746J2977019D01*
G01*
X31202444Y-373076945D02*
X31512462Y-372838051D01*
X30846530Y-373308868D02*
X31202444Y-373076945D01*
X30427522Y-373545384D02*
X30846530Y-373308868D01*
X30407210Y-373556206D02*
X30427522Y-373545384D01*
X30383256Y-373569049D02*
X30407210Y-373556206D01*
X30359541Y-373581825D02*
X30383256Y-373569049D01*
X30340022Y-373592411D02*
X30359541Y-373581825D01*
X30322766Y-373601769D02*
X30340022Y-373592411D01*
X30306062Y-373610749D02*
X30322766Y-373601769D01*
X30291782Y-373618359D02*
X30306062Y-373610749D01*
X30284097Y-373622337D02*
X30291782Y-373618359D01*
X30267847Y-373632144D02*
G75*
G02X30284097Y-373622337I73169J-102870D01*
G01*
X30251467Y-373645234D02*
G75*
G02X30267847Y-373632145I125077J-139731D01*
G01*
X30238112Y-373658375D02*
G75*
G02X30251467Y-373645234I145858J-134885D01*
G01*
X30235021Y-373666267D02*
G75*
G02X30238111Y-373658375I11624J0D01*
G01*
X30235871Y-373669781D02*
G75*
G02X30235022Y-373666267I6849J3514D01*
G01*
X30238155Y-373671737D02*
G75*
G02X30235870Y-373669780I1247J3768D01*
G01*
X30242397Y-373672198D02*
G75*
G02X30238155Y-373671737I-1044J10127D01*
G01*
X30249641Y-373671103D02*
G75*
G02X30242398Y-373672199I-15184J75919D01*
G01*
X30268149Y-373665366D02*
G75*
G02X30249641Y-373671104I-36945J86448D01*
G01*
X30328992Y-373639023D02*
X30268149Y-373665366D01*
X30396972Y-373608528D02*
X30328992Y-373639023D01*
X30465022Y-373576643D02*
X30396972Y-373608528D01*
X30488044Y-373565656D02*
X30465022Y-373576643D01*
X30513850Y-373553400D02*
X30488044Y-373565656D01*
X30538478Y-373541750D02*
X30513850Y-373553400D01*
X30557522Y-373532798D02*
X30538478Y-373541750D01*
X30577497Y-373523393D02*
X30557522Y-373532798D01*
X30605600Y-373510054D02*
X30577497Y-373523393D01*
X30636247Y-373495444D02*
X30605600Y-373510054D01*
X30665022Y-373481661D02*
X30636247Y-373495444D01*
X30719936Y-373455361D02*
X30665022Y-373481661D01*
X30761702Y-373435535D02*
X30719936Y-373455361D01*
X30796707Y-373419148D02*
X30761702Y-373435535D01*
X30830022Y-373403816D02*
X30796707Y-373419148D01*
X30865354Y-373387574D02*
X30830022Y-373403816D01*
X30931774Y-373356749D02*
X30865354Y-373387574D01*
X30999694Y-373325132D02*
X30931774Y-373356749D01*
X31047522Y-373302733D02*
X30999694Y-373325132D01*
X31194502Y-373234657D02*
X31047522Y-373302733D01*
X31345333Y-373166903D02*
X31194502Y-373234657D01*
X31483653Y-373106658D02*
X31345333Y-373166903D01*
X31590022Y-373062680D02*
X31483653Y-373106658D01*
X31643337Y-373041611D02*
X31590022Y-373062680D01*
X31678135Y-373028359D02*
X31643337Y-373041611D01*
X31707932Y-373017769D02*
X31678135Y-373028359D01*
X31742522Y-373006289D02*
X31707932Y-373017769D01*
X31801620Y-372988467D02*
X31742522Y-373006289D01*
X31863071Y-372972384D02*
X31801620Y-372988467D01*
X31924574Y-372958597D02*
X31863071Y-372972384D01*
X31983822Y-372947669D02*
X31924574Y-372958597D01*
X32025789Y-372941782D02*
X31983822Y-372947669D01*
X32061324Y-372938975D02*
X32025789Y-372941782D01*
X32105896Y-372938261D02*
X32061324Y-372938975D01*
X32186322Y-372939370D02*
X32105896Y-372938261D01*
X32243234Y-372940735D02*
X32186322Y-372939370D01*
X32301607Y-372942737D02*
X32243234Y-372940735D01*
X32353546Y-372945032D02*
X32301607Y-372942737D01*
X32387522Y-372947267D02*
X32353546Y-372945032D01*
X32418287Y-372949702D02*
X32387522Y-372947267D01*
X32457662Y-372952627D02*
X32418287Y-372949702D01*
X32498691Y-372955545D02*
X32457662Y-372952627D01*
X32535022Y-372957990D02*
X32498691Y-372955545D01*
X32572057Y-372960418D02*
X32535022Y-372957990D01*
X32615318Y-372963293D02*
X32572057Y-372960418D01*
X32657867Y-372966150D02*
X32615318Y-372963293D01*
X32692522Y-372968510D02*
X32657867Y-372966150D01*
X32745145Y-372970680D02*
X32692522Y-372968510D01*
X32937897Y-372973130D02*
X32745145Y-372970680D01*
X33166132Y-372975346D02*
X32937897Y-372973130D01*
X33422522Y-372976997D02*
X33166132Y-372975346D01*
X33760194Y-372978974D02*
X33422522Y-372976997D01*
X33946598Y-372980953D02*
X33760194Y-372978974D01*
X34075267Y-372983028D02*
X33946598Y-372980953D01*
X34075267Y-372983028D02*
G75*
G02X34088772Y-372986729I-500J-28318D01*
G01*
X34088772Y-372986728D02*
G75*
G02X34097766Y-372995160I-13045J-22929D01*
G01*
X34097766Y-372995160D02*
G75*
G02X34100023Y-373005412I-12281J-8079D01*
G01*
X34100023Y-373005413D02*
G75*
G02X34094871Y-373015674I-18220J2725D01*
G01*
X34094870Y-373015673D02*
G75*
G02X34083207Y-373023943I-29662J29474D01*
G01*
X34083208Y-373023944D02*
G75*
G02X34065174Y-373031131I-63623J133418D01*
G01*
X34000776Y-373051805D02*
X34065174Y-373031131D01*
X33938093Y-373071392D02*
X34000776Y-373051805D01*
X33902522Y-373081377D02*
X33938093Y-373071392D01*
X33773171Y-373118169D02*
X33902522Y-373081377D01*
X33598786Y-373175203D02*
X33773171Y-373118169D01*
X33419767Y-373238251D02*
X33598786Y-373175203D01*
X33272522Y-373295274D02*
X33419767Y-373238251D01*
X33149199Y-373348078D02*
X33272522Y-373295274D01*
X33003927Y-373414591D02*
X33149199Y-373348078D01*
X32862600Y-373482490D02*
X33003927Y-373414591D01*
X32752522Y-373539199D02*
X32862600Y-373482490D01*
X32618504Y-373610433D02*
X32752522Y-373539199D01*
X32533440Y-373652696D02*
X32618504Y-373610433D01*
X32458987Y-373685131D02*
X32533440Y-373652696D01*
X32367522Y-373720178D02*
X32458987Y-373685131D01*
X32292423Y-373747307D02*
X32367522Y-373720178D01*
X32252851Y-373760723D02*
X32292423Y-373747307D01*
X32213400Y-373772598D02*
X32252851Y-373760723D01*
X32140022Y-373793034D02*
X32213400Y-373772598D01*
X32020804Y-373822545D02*
X32140022Y-373793034D01*
X31883620Y-373850279D02*
X32020804Y-373822545D01*
X31745884Y-373873156D02*
X31883620Y-373850279D01*
X31625022Y-373887838D02*
X31745884Y-373873156D01*
X31601013Y-373890138D02*
X31625022Y-373887838D01*
X31566506Y-373893487D02*
X31601013Y-373890138D01*
X31528547Y-373897195D02*
X31566506Y-373893487D01*
X31492522Y-373900739D02*
X31528547Y-373897195D01*
X31358935Y-373908145D02*
X31492522Y-373900739D01*
X31086190Y-373909806D02*
X31358935Y-373908145D01*
X30813070Y-373907895D02*
X31086190Y-373909806D01*
X30657522Y-373900622D02*
X30813070Y-373907895D01*
X30184700Y-373867876D02*
X30226901Y-373868134D01*
X30180021Y-373872584D02*
G75*
G02X30184700Y-373867876I4709J-1D01*
G01*
X30181145Y-373874719D02*
G75*
G02X30180022Y-373872585I1466J2134D01*
G01*
X30185529Y-373877293D02*
G75*
G02X30181144Y-373874719I15819J31971D01*
G01*
X29110636Y-372138155D02*
X29094341Y-372108062D01*
X29121221Y-372157777D02*
X29110636Y-372138155D01*
X30511249Y-372533226D02*
X30464982Y-372630277D01*
X30596807Y-372362328D02*
X30511249Y-372533226D01*
X30683548Y-372191636D02*
X30596807Y-372362328D01*
X30724269Y-372116527D02*
X30683548Y-372191636D01*
X30738678Y-372091366D02*
X30724269Y-372116527D01*
X30749929Y-372071636D02*
X30738678Y-372091366D01*
X30759609Y-372054555D02*
X30749929Y-372071636D01*
X30769048Y-372037777D02*
X30759609Y-372054555D01*
X30775983Y-372025624D02*
X30769048Y-372037777D01*
X30787590Y-372005731D02*
X30775983Y-372025624D01*
X30800976Y-371982985D02*
X30787590Y-372005731D01*
X30814458Y-371960277D02*
X30800976Y-371982985D01*
X30827575Y-371938268D02*
X30814458Y-371960277D01*
X30839864Y-371917624D02*
X30827575Y-371938268D01*
X30850197Y-371900243D02*
X30839864Y-371917624D01*
X30854889Y-371892307D02*
X30850197Y-371900243D01*
X30899259Y-371820233D02*
X30854889Y-371892307D01*
X30962393Y-371723837D02*
X30899259Y-371820233D01*
X31029939Y-371624271D02*
X30962393Y-371723837D01*
X31089543Y-371540277D02*
X31029939Y-371624271D01*
X31146819Y-371463641D02*
X31089543Y-371540277D01*
X31217177Y-371373061D02*
X31146819Y-371463641D01*
X31284639Y-371288542D02*
X31217177Y-371373061D01*
X31327847Y-371237777D02*
X31284639Y-371288542D01*
X32635064Y-371231889D02*
X32644416Y-371211958D01*
X32627187Y-371248945D02*
X32635064Y-371231889D01*
X32620294Y-371264044D02*
X32627187Y-371248945D01*
X32620022Y-371265299D02*
G75*
G02X32620294Y-371264044I3026J0D01*
G01*
X29075985Y-372074222D02*
X29058037Y-372041194D01*
X29094341Y-372108062D02*
X29075985Y-372074222D01*
X31912904Y-375132618D02*
G75*
G02X31912962Y-375140934I-10582J-4233D01*
G01*
X31912961Y-375140934D02*
G75*
G02X31910571Y-375143771I-5287J2029D01*
G01*
X31910571Y-375143771D02*
G75*
G02X31905675Y-375145933I-11328J19028D01*
G01*
X31905675Y-375145934D02*
G75*
G02X31898837Y-375147326I-10822J35655D01*
G01*
X31898838Y-375147325D02*
G75*
G02X31890414Y-375147777I-8424J78322D01*
G01*
X30393609Y-372791378D02*
X30385721Y-372810277D01*
X30420843Y-372729384D02*
X30393609Y-372791378D01*
X30447720Y-372668594D02*
X30420843Y-372729384D01*
X30464982Y-372630277D02*
X30447720Y-372668594D01*
X31890414Y-375147778D02*
G75*
G02X31875921Y-375146825I0J110737D01*
G01*
X31875921Y-375146825D02*
G75*
G02X31863016Y-375143965I9971J75534D01*
G01*
X31863016Y-375143965D02*
G75*
G02X31846281Y-375137761I53575J170197D01*
G01*
X31815022Y-375124046D02*
X31846281Y-375137761D01*
X31751838Y-375097762D02*
X31815022Y-375124046D01*
X31685736Y-375074319D02*
X31751838Y-375097762D01*
X31614120Y-375052862D02*
X31685736Y-375074319D01*
X31534294Y-375032548D02*
X31614120Y-375052862D01*
X31397606Y-374999292D02*
X31534294Y-375032548D01*
X29130128Y-372174323D02*
X29121221Y-372157777D01*
X29140235Y-372193074D02*
X29130128Y-372174323D01*
X30253305Y-373136243D02*
X30244490Y-373156661D01*
X30263179Y-373112378D02*
X30253305Y-373136243D01*
X30274497Y-373084151D02*
X30263179Y-373112378D01*
X30287768Y-373050277D02*
X30274497Y-373084151D01*
X30293655Y-373035324D02*
X30287768Y-373050277D01*
X30300109Y-373019333D02*
X30293655Y-373035324D01*
X30306173Y-373004627D02*
X30300109Y-373019333D01*
X31152408Y-374212178D02*
G75*
G02X31290509Y-374315987I-743206J-1132487D01*
G01*
X31290509Y-374315987D02*
G75*
G02X31408604Y-374431641I-808447J-943632D01*
G01*
X31408604Y-374431641D02*
G75*
G02X31501099Y-374554225I-691614J-618042D01*
G01*
X31593113Y-374697827D02*
X31501099Y-374554225D01*
X31658325Y-374794131D02*
X31593113Y-374697827D01*
X31719278Y-374876381D02*
X31658325Y-374794131D01*
X31794380Y-374970045D02*
X31719278Y-374876381D01*
X31837947Y-375022822D02*
X31794380Y-374970045D01*
X31851771Y-375039809D02*
X31837947Y-375022822D01*
X31862079Y-375053035D02*
X31851771Y-375039809D01*
X29634498Y-369520277D02*
X29620636Y-369570269D01*
X30310691Y-372994082D02*
X30306173Y-373004627D01*
X30314264Y-372985606D02*
X30310691Y-372994082D01*
X30317281Y-372977667D02*
X30314264Y-372985606D01*
X30319553Y-372970959D02*
X30317281Y-372977667D01*
X30320021Y-372967966D02*
G75*
G02X30319553Y-372970959I-9805J0D01*
G01*
X30320021Y-372967965D02*
G75*
G02X30320501Y-372964968I9600J-1D01*
G01*
X30322848Y-372958209D02*
X30320501Y-372964968D01*
X30325958Y-372950210D02*
X30322848Y-372958209D01*
X30329642Y-372941661D02*
X30325958Y-372950210D01*
X30343866Y-372909784D02*
X30329642Y-372941661D01*
X30352969Y-372888632D02*
X30343866Y-372909784D01*
X30359166Y-372873491D02*
X30352969Y-372888632D01*
X30360007Y-372869082D02*
G75*
G02X30359166Y-372873491I-11749J-43D01*
G01*
X30360007Y-372869082D02*
G75*
G02X30360459Y-372866632I6738J25D01*
G01*
X30363194Y-372859786D02*
X30360459Y-372866632D01*
X30366707Y-372851673D02*
X30363194Y-372859786D01*
X30370874Y-372842777D02*
X30366707Y-372851673D01*
X30375330Y-372833430D02*
X30370874Y-372842777D01*
X30379723Y-372823949D02*
X30375330Y-372833430D01*
X30383495Y-372815577D02*
X30379723Y-372823949D01*
X30385721Y-372810277D02*
X30383495Y-372815577D01*
X31877281Y-375073316D02*
X31862079Y-375053035D01*
X31893683Y-375096689D02*
X31877281Y-375073316D01*
X31893683Y-375096690D02*
G75*
G02X31905528Y-375116666I-194982J-129113D01*
G01*
X31905528Y-375116666D02*
G75*
G02X31912903Y-375132618I-148143J-78170D01*
G01*
X31337272Y-371227192D02*
X31327847Y-371237777D01*
X31357031Y-371204856D02*
X31337272Y-371227192D01*
X31380430Y-371178361D02*
X31357031Y-371204856D01*
X31405193Y-371150277D02*
X31380430Y-371178361D01*
X31513704Y-371033304D02*
X31405193Y-371150277D01*
X31646053Y-370902079D02*
X31513704Y-371033304D01*
X31777297Y-370780085D02*
X31646053Y-370902079D01*
X31880250Y-370694220D02*
X31777297Y-370780085D01*
X31967428Y-370628727D02*
X31880250Y-370694220D01*
X32046415Y-370573278D02*
X31967428Y-370628727D01*
X32148457Y-370506351D02*
X32046415Y-370573278D01*
X32327522Y-370392769D02*
X32148457Y-370506351D01*
X32389629Y-370353344D02*
X32327522Y-370392769D01*
X32456365Y-370310469D02*
X32389629Y-370353344D01*
X32517965Y-370270471D02*
X32456365Y-370310469D01*
X32562522Y-370240991D02*
X32517965Y-370270471D01*
X32697222Y-370149298D02*
X32562522Y-370240991D01*
X32820866Y-370062251D02*
X32697222Y-370149298D01*
X32968690Y-369954774D02*
X32820866Y-370062251D01*
X33190022Y-369790957D02*
X32968690Y-369954774D01*
X33233928Y-369758350D02*
X33190022Y-369790957D01*
X33276959Y-369726446D02*
X33233928Y-369758350D01*
X33314011Y-369699020D02*
X33276959Y-369726446D01*
X33335022Y-369683543D02*
X33314011Y-369699020D01*
X33351209Y-369671646D02*
X33335022Y-369683543D01*
X33368850Y-369658643D02*
X33351209Y-369671646D01*
X33385320Y-369646471D02*
X33368850Y-369658643D01*
X33397522Y-369637414D02*
X33385320Y-369646471D01*
X33437477Y-369609270D02*
X33397522Y-369637414D01*
X33492952Y-369573208D02*
X33437477Y-369609270D01*
X33549438Y-369537759D02*
X33492952Y-369573208D01*
X33549438Y-369537760D02*
G75*
G02X33564761Y-369531269I28471J-45884D01*
G01*
X33564761Y-369531268D02*
G75*
G02X33577504Y-369529947I10974J-43717D01*
G01*
X33577504Y-369529947D02*
G75*
G02X33584070Y-369534069I-305J-7776D01*
G01*
X33584070Y-369534070D02*
G75*
G02X33584527Y-369542656I-8997J-4784D01*
G01*
X33584527Y-369542655D02*
G75*
G02X33577667Y-369555539I-63438J25510D01*
G01*
X33565329Y-369572507D02*
X33577667Y-369555539D01*
X33545976Y-369596851D02*
X33565329Y-369572507D01*
X33526429Y-369620518D02*
X33545976Y-369596851D01*
X33526429Y-369620517D02*
G75*
G02X33516963Y-369630277I-72727J61071D01*
G01*
X33499895Y-369648072D02*
G75*
G02X33516963Y-369630277I123500J-101373D01*
G01*
X33445948Y-369714257D02*
X33499895Y-369648072D01*
X33391922Y-369781904D02*
X33445948Y-369714257D01*
X33351038Y-369835277D02*
X33391922Y-369781904D01*
X33274034Y-369943698D02*
X33351038Y-369835277D01*
X33213980Y-370039678D02*
X33274034Y-369943698D01*
X33148409Y-370160452D02*
X33213980Y-370039678D01*
X33045463Y-370365277D02*
X33148409Y-370160452D01*
X33012314Y-370432396D02*
X33045463Y-370365277D01*
X32982337Y-370493418D02*
X33012314Y-370432396D01*
X32957300Y-370544652D02*
X32982337Y-370493418D01*
X32948740Y-370562777D02*
X32957300Y-370544652D01*
X32933870Y-370594997D02*
X32948740Y-370562777D01*
X32898656Y-370670485D02*
X32933870Y-370594997D01*
X32863434Y-370745815D02*
X32898656Y-370670485D01*
X32842505Y-370790277D02*
X32863434Y-370745815D01*
X32836270Y-370803483D02*
X32842505Y-370790277D01*
X32826572Y-370824090D02*
X32836270Y-370803483D01*
X32815623Y-370847387D02*
X32826572Y-370824090D01*
X32804881Y-370870277D02*
X32815623Y-370847387D01*
X32752656Y-370981614D02*
X32804881Y-370870277D01*
X32705466Y-371082138D02*
X32752656Y-370981614D01*
X32666565Y-371164935D02*
X32705466Y-371082138D01*
X32644416Y-371211958D02*
X32666565Y-371164935D01*
X29456089Y-370520173D02*
X29450432Y-370597777D01*
X29491414Y-370184273D02*
X29489359Y-370201746D01*
X29499812Y-372025277D02*
X29502112Y-372041881D01*
X27220022Y-373654199D02*
X27285345Y-373681444D01*
X27172193Y-373632386D02*
X27220022Y-373654199D01*
X27096008Y-373595116D02*
X27172193Y-373632386D01*
X27013874Y-373554229D02*
X27096008Y-373595116D01*
X27958715Y-372917712D02*
G75*
G02X28037077Y-372927867I-68767J-838110D01*
G01*
X28134167Y-372947547D02*
X28037077Y-372927867D01*
X28238541Y-372973880D02*
X28134167Y-372947547D01*
X28340022Y-373004629D02*
X28238541Y-372973880D01*
X28411345Y-373028648D02*
X28340022Y-373004629D01*
X28462918Y-373047344D02*
X28411345Y-373028648D01*
X28514767Y-373068060D02*
X28462918Y-373047344D01*
X28587522Y-373098978D02*
X28514767Y-373068060D01*
X28636095Y-373121297D02*
X28587522Y-373098978D01*
X28722054Y-373163707D02*
X28636095Y-373121297D01*
X28807800Y-373207003D02*
X28722054Y-373163707D01*
X28857522Y-373233724D02*
X28807800Y-373207003D01*
X28874485Y-373243290D02*
X28857522Y-373233724D01*
X28892381Y-373253359D02*
X28874485Y-373243290D01*
X28908665Y-373262503D02*
X28892381Y-373253359D01*
X28920022Y-373268855D02*
X28908665Y-373262503D01*
X28967579Y-373296350D02*
X28920022Y-373268855D01*
X29029264Y-373333880D02*
X28967579Y-373296350D01*
X29094127Y-373374579D02*
X29029264Y-373333880D01*
X29152522Y-373412529D02*
X29094127Y-373374579D01*
X29269621Y-373489782D02*
X29152522Y-373412529D01*
X29284217Y-373492895D02*
G75*
G02X29269621Y-373489782I-3296J20324D01*
G01*
X29285880Y-373486626D02*
G75*
G02X29284217Y-373492894I-2231J-2763D01*
G01*
X29186635Y-373406997D02*
X29285879Y-373486626D01*
X29076355Y-373318615D02*
X29186635Y-373406997D01*
X28955655Y-373221064D02*
X29076355Y-373318615D01*
X28846190Y-373132022D02*
X28955655Y-373221064D01*
X28797522Y-373091366D02*
X28846190Y-373132022D01*
X28560218Y-372878564D02*
X28797522Y-373091366D01*
X28331976Y-372653889D02*
X28560218Y-372878564D01*
X28126302Y-372431368D02*
X28331976Y-372653889D01*
X27957522Y-372225413D02*
X28126302Y-372431368D01*
X27947035Y-372211730D02*
X27957522Y-372225413D01*
X27930933Y-372190881D02*
X27947035Y-372211730D01*
X27912804Y-372167489D02*
X27930933Y-372190881D01*
X27895094Y-372144720D02*
X27912804Y-372167489D01*
X27850771Y-372086679D02*
X27895094Y-372144720D01*
X27798022Y-372015362D02*
X27850771Y-372086679D01*
X27743294Y-371939659D02*
X27798022Y-372015362D01*
X27692611Y-371867777D02*
X27743294Y-371939659D01*
X27615794Y-371755183D02*
X27692611Y-371867777D01*
X27503314Y-371586047D02*
X27615794Y-371755183D01*
X27392960Y-371418079D02*
X27503314Y-371586047D01*
X27327810Y-371315811D02*
X27392960Y-371418079D01*
X27312852Y-371291839D02*
X27327810Y-371315811D01*
X27293501Y-371261028D02*
X27312852Y-371291839D01*
X27273210Y-371228853D02*
X27293501Y-371261028D01*
X27255098Y-371200277D02*
X27273210Y-371228853D01*
X27232466Y-371164465D02*
X27255098Y-371200277D01*
X27194344Y-371103699D02*
X27232466Y-371164465D01*
X27150478Y-371033586D02*
X27194344Y-371103699D01*
X27106299Y-370962777D02*
X27150478Y-371033586D01*
X27063762Y-370894522D02*
X27106299Y-370962777D01*
X27024866Y-370832137D02*
X27063762Y-370894522D01*
X26992249Y-370779846D02*
X27024866Y-370832137D01*
X26980010Y-370760277D02*
X26992249Y-370779846D01*
X26937630Y-370691590D02*
X26980010Y-370760277D01*
X26867790Y-370576106D02*
X26937630Y-370691590D01*
X26797729Y-370459490D02*
X26867790Y-370576106D01*
X26772165Y-370415277D02*
X26797729Y-370459490D01*
X26769328Y-370410248D02*
X26772165Y-370415277D01*
X26765217Y-370403074D02*
X26769328Y-370410248D01*
X26760674Y-370395211D02*
X26765217Y-370403074D01*
X26756342Y-370387777D02*
X26760674Y-370395211D01*
X26727044Y-370337083D02*
X26756342Y-370387777D01*
X26668968Y-370235057D02*
X26727044Y-370337083D01*
X26610346Y-370131702D02*
X26668968Y-370235057D01*
X26588754Y-370092777D02*
X26610346Y-370131702D01*
X26579351Y-370075536D02*
X26588754Y-370092777D01*
X26567835Y-370054543D02*
X26579351Y-370075536D01*
X26556140Y-370033314D02*
X26567835Y-370054543D01*
X26546150Y-370015277D02*
X26556140Y-370033314D01*
X26517394Y-369960797D02*
X26546150Y-370015277D01*
X26462647Y-369850518D02*
X26517394Y-369960797D01*
X26402078Y-369727345D02*
X26462647Y-369850518D01*
X26402079Y-369727345D02*
G75*
G02X26400022Y-369718491I18028J8854D01*
G01*
X26399530Y-369715636D02*
G75*
G02X26400022Y-369718491I-8045J-2855D01*
G01*
X26397209Y-369709477D02*
X26399530Y-369715636D01*
X26394113Y-369702210D02*
X26397209Y-369709477D01*
X26390446Y-369694500D02*
X26394113Y-369702210D01*
X26390446Y-369694500D02*
G75*
G02X26375567Y-369660779I353949J176315D01*
G01*
X26362376Y-369622674D02*
X26375567Y-369660779D01*
X26352797Y-369587022D02*
X26362376Y-369622674D01*
X26352798Y-369587021D02*
G75*
G02X26350022Y-369562709I105091J24312D01*
G01*
X26350022Y-369562709D02*
G75*
G02X26352313Y-369551889I26694J0D01*
G01*
X26352313Y-369551889D02*
G75*
G02X26358734Y-369543767I19006J-8428D01*
G01*
X26358734Y-369543767D02*
G75*
G02X26368045Y-369539963I11741J-15439D01*
G01*
X26368045Y-369539963D02*
G75*
G02X26378409Y-369541121I2783J-22042D01*
G01*
X29299378Y-373499505D02*
G75*
G02X29307816Y-373505118I-42084J-72409D01*
G01*
X29293690Y-373498010D02*
G75*
G02X29299378Y-373499505I137J-11046D01*
G01*
X29292163Y-373500169D02*
G75*
G02X29293690Y-373498010I1547J525D01*
G01*
X29295021Y-373505277D02*
G75*
G02X29292163Y-373500169I12406J10295D01*
G01*
X29298004Y-373508135D02*
G75*
G02X29295022Y-373505277I10995J14458D01*
G01*
X29301808Y-373510528D02*
G75*
G02X29298004Y-373508136I11528J22553D01*
G01*
X29305813Y-373512133D02*
G75*
G02X29301808Y-373510528I6762J22671D01*
G01*
X29309384Y-373512619D02*
G75*
G02X29305813Y-373512133I-229J11691D01*
G01*
X29313439Y-373512263D02*
G75*
G02X29309384Y-373512618I-4642J29680D01*
G01*
X29314221Y-373511131D02*
G75*
G02X29313438Y-373512263I-929J-194D01*
G01*
X29313100Y-373509282D02*
G75*
G02X29314221Y-373511131I-2062J-2515D01*
G01*
X29307816Y-373505118D02*
X29313100Y-373509282D01*
X30082574Y-367319496D02*
G75*
G02X30091771Y-367310571I24520J-16067D01*
G01*
X30091771Y-367310571D02*
G75*
G02X30102879Y-367307745I10107J-16484D01*
G01*
X30102879Y-367307745D02*
G75*
G02X30113607Y-367311707I-996J-19203D01*
G01*
X30113606Y-367311707D02*
G75*
G02X30121759Y-367321527I-17650J-22947D01*
G01*
X30121760Y-367321527D02*
G75*
G02X30133695Y-367354885I-124673J-63421D01*
G01*
X30149153Y-367430779D02*
X30133695Y-367354885D01*
X30166249Y-367530893D02*
X30149153Y-367430779D01*
X30184771Y-367657777D02*
X30166249Y-367530893D01*
X30189195Y-367689649D02*
X30184771Y-367657777D01*
X30193664Y-367721324D02*
X30189195Y-367689649D01*
X30197609Y-367748853D02*
X30193664Y-367721324D01*
X30200058Y-367765277D02*
X30197609Y-367748853D01*
X30202198Y-367779274D02*
X30200058Y-367765277D01*
X30204846Y-367796746D02*
X30202198Y-367779274D01*
X30207550Y-367814693D02*
X30204846Y-367796746D01*
X30209879Y-367830277D02*
X30207550Y-367814693D01*
X30250474Y-368095675D02*
X30209879Y-367830277D01*
X30282146Y-368283530D02*
X30250474Y-368095675D01*
X30312899Y-368441341D02*
X30282146Y-368283530D01*
X30349454Y-368605379D02*
X30312899Y-368441341D01*
X30374492Y-368708731D02*
X30349454Y-368605379D01*
X30406786Y-368836990D02*
X30374492Y-368708731D01*
X30438947Y-368962230D02*
X30406786Y-368836990D01*
X30449546Y-368997777D02*
X30438947Y-368962230D01*
X30451577Y-369004390D02*
X30449546Y-368997777D01*
X30454324Y-369014684D02*
X30451577Y-369004390D01*
X30457226Y-369026332D02*
X30454324Y-369014684D01*
X30459866Y-369037777D02*
X30457226Y-369026332D01*
X30462509Y-369049406D02*
X30459866Y-369037777D01*
X30465418Y-369061606D02*
X30462509Y-369049406D01*
X30468167Y-369072654D02*
X30465418Y-369061606D01*
X30470219Y-369080277D02*
X30468167Y-369072654D01*
X30491211Y-369161306D02*
X30470219Y-369080277D01*
X30520319Y-369289530D02*
X30491211Y-369161306D01*
X30547583Y-369417148D02*
X30520319Y-369289530D01*
X30560471Y-369490277D02*
X30547583Y-369417148D01*
X30562659Y-369504272D02*
X30560471Y-369490277D01*
X30565675Y-369521746D02*
X30562659Y-369504272D01*
X30568972Y-369539692D02*
X30565675Y-369521746D01*
X30572053Y-369555277D02*
X30568972Y-369539692D01*
X30583969Y-369621401D02*
X30572053Y-369555277D01*
X30598521Y-369720705D02*
X30583969Y-369621401D01*
X30613047Y-369832002D02*
X30598521Y-369720705D01*
X30625375Y-369940277D02*
X30613047Y-369832002D01*
X30633692Y-370027355D02*
X30625375Y-369940277D01*
X30641238Y-370123355D02*
X30633692Y-370027355D01*
X30649412Y-370246795D02*
X30641238Y-370123355D01*
X30659993Y-370425277D02*
X30649412Y-370246795D01*
X30664428Y-370561801D02*
X30659993Y-370425277D01*
X30663207Y-370723699D02*
X30664428Y-370561801D01*
D13*
X30656205Y-370930188D02*
X30663207Y-370723699D01*
X30642243Y-371210277D02*
X30656205Y-370930188D01*
D12*
X30638309Y-371263260D02*
X30642243Y-371210277D01*
X30629073Y-371357488D02*
X30638309Y-371263260D01*
X30618702Y-371454897D02*
X30629073Y-371357488D01*
X30609856Y-371527777D02*
X30618702Y-371454897D01*
X30607613Y-371545020D02*
X30609856Y-371527777D01*
X30604937Y-371566012D02*
X30607613Y-371545020D01*
X30602271Y-371587241D02*
X30604937Y-371566012D01*
X30600050Y-371605277D02*
X30602271Y-371587241D01*
X30597806Y-371622962D02*
X30600050Y-371605277D01*
X30595075Y-371643074D02*
X30597806Y-371622962D01*
X30592299Y-371662476D02*
X30595075Y-371643074D01*
X30589942Y-371677777D02*
X30592299Y-371662476D01*
X30587622Y-371692744D02*
X30589942Y-371677777D01*
X30584972Y-371711012D02*
X30587622Y-371692744D01*
X30582418Y-371729518D02*
X30584972Y-371711012D01*
X30580389Y-371745277D02*
X30582418Y-371729518D01*
X30561335Y-371867675D02*
X30580389Y-371745277D01*
X30521650Y-372069623D02*
X30561335Y-371867675D01*
X30478766Y-372271371D02*
X30521650Y-372069623D01*
X30447485Y-372395277D02*
X30478766Y-372271371D01*
X30444512Y-372405948D02*
X30447485Y-372395277D01*
X30441467Y-372417340D02*
X30444512Y-372405948D01*
X30438776Y-372427807D02*
X30441467Y-372417340D01*
X30436995Y-372435277D02*
X30438776Y-372427807D01*
X30427390Y-372473770D02*
X30436995Y-372435277D01*
X30397648Y-372581388D02*
X30427390Y-372473770D01*
X30367938Y-372687284D02*
X30397648Y-372581388D01*
X30350778Y-372745277D02*
X30367938Y-372687284D01*
X30346460Y-372759274D02*
X30350778Y-372745277D01*
X30341080Y-372776746D02*
X30346460Y-372759274D01*
X30335561Y-372794693D02*
X30341080Y-372776746D01*
X30330776Y-372810277D02*
X30335561Y-372794693D01*
X30313681Y-372864093D02*
X30330776Y-372810277D01*
X30282504Y-372958295D02*
X30313681Y-372864093D01*
X30249871Y-373055470D02*
X30282504Y-372958295D01*
X30224966Y-373127777D02*
X30249871Y-373055470D01*
X30214918Y-373156638D02*
X30224966Y-373127777D01*
X30205745Y-373183387D02*
X30214918Y-373156638D01*
X30198156Y-373205862D02*
X30205745Y-373183387D01*
X30195217Y-373215277D02*
X30198156Y-373205862D01*
X30192515Y-373224002D02*
X30195217Y-373215277D01*
X30186887Y-373240861D02*
X30192515Y-373224002D01*
X30180133Y-373260670D02*
X30186887Y-373240861D01*
X30172951Y-373281307D02*
X30180133Y-373260670D01*
X30155426Y-373334707D02*
X30172951Y-373281307D01*
X30155298Y-373354677D02*
G75*
G02X30155426Y-373334707I33535J9771D01*
G01*
X30162456Y-373355327D02*
G75*
G02X30155299Y-373354677I-3451J1730D01*
G01*
X30182120Y-373312777D02*
X30162455Y-373355327D01*
X30188098Y-373298783D02*
X30182120Y-373312777D01*
X30194664Y-373283598D02*
X30188098Y-373298783D01*
X30200839Y-373269472D02*
X30194664Y-373283598D01*
X30205464Y-373259082D02*
X30200839Y-373269472D01*
X30209124Y-373250664D02*
X30205464Y-373259082D01*
X30212214Y-373242904D02*
X30209124Y-373250664D01*
X30214584Y-373236362D02*
X30212214Y-373242904D01*
X30215021Y-373233771D02*
G75*
G02X30214584Y-373236362I-7897J0D01*
G01*
X30215021Y-373233771D02*
G75*
G02X30215482Y-373231197I7424J0D01*
G01*
X30217959Y-373224785D02*
X30215482Y-373231197D01*
X30221191Y-373217186D02*
X30217959Y-373224785D01*
X30225022Y-373208958D02*
X30221191Y-373217186D01*
X30228851Y-373200659D02*
X30225022Y-373208958D01*
X30232084Y-373192840D02*
X30228851Y-373200659D01*
X30234508Y-373186216D02*
X30232084Y-373192840D01*
X30235021Y-373183153D02*
G75*
G02X30234508Y-373186216I-9398J0D01*
G01*
X30235022Y-373183153D02*
G75*
G02X30235503Y-373180064I10154J0D01*
G01*
X30237803Y-373173264D02*
X30235503Y-373180064D01*
X30240864Y-373165223D02*
X30237803Y-373173264D01*
X30244490Y-373156661D02*
X30240864Y-373165223D01*
X29014682Y-371958855D02*
X29010103Y-371950347D01*
X29014682Y-371958855D02*
G75*
G02X29015022Y-371960212I-2538J-1357D01*
G01*
X29004695Y-371940555D02*
X28998277Y-371929295D01*
X29010103Y-371950347D02*
X29004695Y-371940555D01*
X27013874Y-373554228D02*
G75*
G02X27005022Y-373547537I13556J27135D01*
G01*
X27003092Y-373545897D02*
G75*
G02X27005022Y-373547537I-5453J-8377D01*
G01*
X26995912Y-373541285D02*
X27003091Y-373545898D01*
X26987281Y-373535930D02*
X26995912Y-373541285D01*
X26977522Y-373530101D02*
X26987281Y-373535930D01*
X26967356Y-373524103D02*
X26977522Y-373530101D01*
X26957487Y-373518234D02*
X26967356Y-373524103D01*
X26949047Y-373513177D02*
X26957487Y-373518234D01*
X26944424Y-373510341D02*
X26949047Y-373513177D01*
X26940259Y-373507797D02*
X26944424Y-373510341D01*
X26934094Y-373504150D02*
X26940259Y-373507797D01*
X26927233Y-373500155D02*
X26934094Y-373504150D01*
X26920629Y-373496375D02*
X26927233Y-373500155D01*
X26920629Y-373496375D02*
G75*
G02X26910474Y-373489975I63669J112281D01*
G01*
X26882016Y-373470005D02*
X26910474Y-373489975D01*
X26848261Y-373445940D02*
X26882016Y-373470005D01*
X26811226Y-373419103D02*
X26848261Y-373445940D01*
X26633114Y-373296773D02*
X26811226Y-373419103D01*
X26486099Y-373213678D02*
G75*
G02X26633114Y-373296773I-631554J-1288984D01*
G01*
X26326951Y-373146610D02*
G75*
G02X26486098Y-373213679I-510715J-1434241D01*
G01*
X26108826Y-373074954D02*
X26326951Y-373146611D01*
X26076926Y-373065042D02*
X26108826Y-373074954D01*
X26076927Y-373065042D02*
G75*
G02X26066329Y-373060106I14167J44263D01*
G01*
X26066329Y-373060106D02*
G75*
G02X26061681Y-373054159I5938J9430D01*
G01*
X26061681Y-373054159D02*
G75*
G02X26060076Y-373044254I30438J10015D01*
G01*
X26060076Y-373044254D02*
G75*
G02X26060628Y-373035206I70514J241D01*
G01*
X31285632Y-374969595D02*
X31397606Y-374999292D01*
X31198054Y-374943690D02*
X31285632Y-374969595D01*
X31198055Y-374943690D02*
G75*
G02X31142522Y-374923101I169046J541143D01*
G01*
X31137486Y-374921027D02*
X31142522Y-374923101D01*
X31130318Y-374918265D02*
X31137486Y-374921027D01*
X31122455Y-374915344D02*
X31130318Y-374918265D01*
X31115022Y-374912696D02*
X31122455Y-374915344D01*
X31107177Y-374909863D02*
X31115022Y-374912696D01*
X31098034Y-374906363D02*
X31107177Y-374909863D01*
X31089059Y-374902778D02*
X31098034Y-374906363D01*
X31081766Y-374899691D02*
X31089059Y-374902778D01*
X31075511Y-374897043D02*
X31081766Y-374899691D01*
X31069752Y-374894808D02*
X31075511Y-374897043D01*
X31064899Y-374893092D02*
X31069752Y-374894808D01*
X31062993Y-374892777D02*
G75*
G02X31064899Y-374893092I0J-5933D01*
G01*
X31062993Y-374892778D02*
G75*
G02X31059189Y-374892029I0J10037D01*
G01*
X30964667Y-374853305D02*
X31059189Y-374892029D01*
X30881032Y-374818860D02*
X30964667Y-374853305D01*
X30835022Y-374799343D02*
X30881032Y-374818860D01*
X30784226Y-374776283D02*
X30835022Y-374799343D01*
X30714035Y-374742512D02*
X30784226Y-374776283D01*
X30646005Y-374708811D02*
X30714035Y-374742512D01*
X30610022Y-374689386D02*
X30646005Y-374708811D01*
X30584250Y-374674488D02*
X30610022Y-374689386D01*
X30565712Y-374663819D02*
X30584250Y-374674488D01*
X30552040Y-374656010D02*
X30565712Y-374663819D01*
X30542522Y-374650665D02*
X30552040Y-374656010D01*
X30502423Y-374626144D02*
X30542522Y-374650665D01*
X30452352Y-374591071D02*
X30502423Y-374626144D01*
X30399465Y-374550893D02*
X30452352Y-374591071D01*
X30350022Y-374510105D02*
X30399465Y-374550893D01*
X30350022Y-374510106D02*
G75*
G02X30270238Y-374433873I695822J808099D01*
G01*
X30270238Y-374433873D02*
G75*
G02X30198595Y-374349661I781638J737557D01*
G01*
X30198596Y-374349661D02*
G75*
G02X30135002Y-374257259I878955J673003D01*
G01*
X30135001Y-374257258D02*
G75*
G02X30079292Y-374156527I1044989J643704D01*
G01*
X30066672Y-374132136D02*
X30079292Y-374156527D01*
X30058836Y-374121479D02*
G75*
G02X30066672Y-374132136I-34612J-33661D01*
G01*
X30052757Y-374119559D02*
G75*
G02X30058835Y-374121478I1254J-6611D01*
G01*
X30047112Y-374123439D02*
G75*
G02X30052758Y-374119558I7228J-4468D01*
G01*
X30045653Y-374128424D02*
G75*
G02X30047112Y-374123440I9773J-154D01*
G01*
X30043420Y-374271549D02*
X30045654Y-374128424D01*
X30041301Y-374431187D02*
X30043420Y-374271549D01*
X30039456Y-374619690D02*
X30041301Y-374431187D01*
X30037665Y-374808576D02*
X30039456Y-374619690D01*
X30035717Y-374969472D02*
X30037665Y-374808576D01*
X30033721Y-375112425D02*
X30035717Y-374969472D01*
X30033721Y-375112424D02*
G75*
G02X30032565Y-375121527I-41009J581D01*
G01*
X30032565Y-375121527D02*
G75*
G02X30031012Y-375125830I-20606J5007D01*
G01*
X30031011Y-375125830D02*
G75*
G02X30028627Y-375129473I-15676J7660D01*
G01*
X30028628Y-375129473D02*
G75*
G02X30025815Y-375131944I-9855J8380D01*
G01*
X30025814Y-375131943D02*
G75*
G02X30022998Y-375132777I-2816J4339D01*
G01*
X30022998Y-375132778D02*
G75*
G02X30018527Y-375131046I0J6637D01*
G01*
X29995478Y-375109837D02*
X30018527Y-375131046D01*
X29969013Y-375084616D02*
X29995478Y-375109837D01*
X29938906Y-375054683D02*
X29969013Y-375084616D01*
X29861648Y-374976588D02*
X29938906Y-375054683D01*
X29858335Y-374676359D02*
X29861648Y-374976588D01*
X29857066Y-374551023D02*
X29858335Y-374676359D01*
X29855995Y-374422704D02*
X29857066Y-374551023D01*
X29855237Y-374308674D02*
X29855995Y-374422704D01*
X29855022Y-374234454D02*
X29855237Y-374308674D01*
X29854720Y-374173849D02*
X29855022Y-374234454D01*
X29853728Y-374129717D02*
X29854720Y-374173849D01*
X29852369Y-374094990D02*
X29853728Y-374129717D01*
X29850060Y-374092777D02*
G75*
G02X29852369Y-374094990I-1J-2312D01*
G01*
X29847054Y-374094088D02*
G75*
G02X29850059Y-374092777I3005J-2787D01*
G01*
X29836630Y-374105560D02*
X29847055Y-374094089D01*
X29824618Y-374119615D02*
X29836630Y-374105560D01*
X29811309Y-374136292D02*
X29824618Y-374119615D01*
X29719679Y-374246929D02*
X29811309Y-374136292D01*
X29621336Y-374351497D02*
X29719679Y-374246929D01*
X29522618Y-374443723D02*
X29621336Y-374351497D01*
X29522618Y-374443723D02*
G75*
G02X29430022Y-374516907I-785138J898227D01*
G01*
X29293872Y-374607727D02*
X29430022Y-374516907D01*
X29160543Y-374684003D02*
X29293872Y-374607727D01*
X29020115Y-374750989D02*
X29160543Y-374684003D01*
X28862522Y-374813854D02*
X29020115Y-374750989D01*
X28806592Y-374833017D02*
X28862522Y-374813854D01*
X28714001Y-374862067D02*
X28806592Y-374833017D01*
X28620530Y-374890489D02*
X28714001Y-374862067D01*
X28620531Y-374890489D02*
G75*
G02X28585022Y-374899348I-111894J372905D01*
G01*
X28575788Y-374901427D02*
X28585022Y-374899348D01*
X28526256Y-374913853D02*
X28575788Y-374901427D01*
X28468574Y-374928414D02*
X28526256Y-374913853D01*
X28402522Y-374945214D02*
X28468574Y-374928414D01*
X28335223Y-374962309D02*
X28402522Y-374945214D01*
X28273647Y-374977802D02*
X28335223Y-374962309D01*
X28222000Y-374990673D02*
X28273647Y-374977802D01*
X28202522Y-374995258D02*
X28222000Y-374990673D01*
X28189392Y-374998201D02*
X28202522Y-374995258D01*
X28174725Y-375001527D02*
X28189392Y-374998201D01*
X28160765Y-375004724D02*
X28174725Y-375001527D01*
X28150022Y-375007222D02*
X28160765Y-375004724D01*
X28126495Y-375012411D02*
X28150022Y-375007222D01*
X28069890Y-375024006D02*
X28126495Y-375012411D01*
X28006655Y-375036751D02*
X28069890Y-375024006D01*
X27946570Y-375048613D02*
X28006655Y-375036751D01*
X27930754Y-375051291D02*
X27946570Y-375048613D01*
X27930754Y-375051291D02*
G75*
G02X27919488Y-375052124I-11660J81132D01*
G01*
X27919487Y-375052124D02*
G75*
G02X27910662Y-375051315I-221J46104D01*
G01*
X27910662Y-375051315D02*
G75*
G02X27902820Y-375048823I6419J33790D01*
G01*
X27902820Y-375048822D02*
G75*
G02X27893799Y-375035506I6402J14050D01*
G01*
X27893799Y-375035506D02*
G75*
G02X27899252Y-375016313I31269J1487D01*
G01*
X27899252Y-375016313D02*
G75*
G02X27927331Y-374981110I257590J-176662D01*
G01*
X28009998Y-374892550D02*
X27927331Y-374981110D01*
X28047172Y-374853045D02*
X28009998Y-374892550D01*
X28086499Y-374811019D02*
X28047172Y-374853045D01*
X28122351Y-374772510D02*
X28086499Y-374811019D01*
X28147522Y-374745213D02*
X28122351Y-374772510D01*
X28190178Y-374699392D02*
X28147522Y-374745213D01*
X28226361Y-374662256D02*
X28190178Y-374699392D01*
X28263224Y-374626564D02*
X28226361Y-374662256D01*
X28307926Y-374585277D02*
X28263224Y-374626564D01*
X28327115Y-374567823D02*
X28307926Y-374585277D01*
X28343687Y-374552653D02*
X28327115Y-374567823D01*
X28358008Y-374539477D02*
X28343687Y-374552653D01*
X28360021Y-374537406D02*
G75*
G02X28358008Y-374539477I-19819J17259D01*
G01*
X28360021Y-374537407D02*
G75*
G02X28362103Y-374535349I14795J-12883D01*
G01*
X28380147Y-374520015D02*
X28362103Y-374535349D01*
X28400885Y-374502487D02*
X28380147Y-374520015D01*
X28425022Y-374482231D02*
X28400885Y-374502487D01*
X28530470Y-374397248D02*
X28425022Y-374482231D01*
X28630076Y-374323754D02*
X28530470Y-374397248D01*
X28730113Y-374257287D02*
X28630076Y-374323754D01*
X28836795Y-374193515D02*
X28730113Y-374257287D01*
X28870714Y-374175268D02*
X28836795Y-374193515D01*
X28926262Y-374147389D02*
X28870714Y-374175268D01*
X28982493Y-374119994D02*
X28926262Y-374147389D01*
X29020022Y-374102890D02*
X28982493Y-374119994D01*
X29059757Y-374085775D02*
X29020022Y-374102890D01*
X29079737Y-374077382D02*
X29059757Y-374085775D01*
X29095779Y-374071025D02*
X29079737Y-374077382D01*
X29116272Y-374063347D02*
X29095779Y-374071025D01*
X29129186Y-374058599D02*
X29116272Y-374063347D01*
X29144287Y-374053046D02*
X29129186Y-374058599D01*
X29159151Y-374047580D02*
X29144287Y-374053046D01*
X29171272Y-374043122D02*
X29159151Y-374047580D01*
X29206104Y-374031114D02*
X29171272Y-374043122D01*
X29263274Y-374013030D02*
X29206104Y-374031114D01*
X29320340Y-373995577D02*
X29263274Y-374013030D01*
X29347522Y-373988372D02*
X29320340Y-373995577D01*
X29403341Y-373974277D02*
X29347522Y-373988372D01*
X29468904Y-373955292D02*
X29403341Y-373974277D01*
X29530034Y-373936296D02*
X29468904Y-373955292D01*
X29529691Y-373933050D02*
G75*
G02X29530034Y-373936296I-161J-1658D01*
G01*
X29527681Y-373933099D02*
G75*
G02X29529690Y-373933051I1204J-8298D01*
G01*
X29519709Y-373934287D02*
X29527681Y-373933099D01*
X29510305Y-373935799D02*
X29519709Y-373934287D01*
X29499690Y-373937644D02*
X29510305Y-373935799D01*
X29474754Y-373941359D02*
X29499690Y-373937644D01*
X29430359Y-373946376D02*
X29474754Y-373941359D01*
X29365074Y-373953070D02*
X29430359Y-373946376D01*
X29263645Y-373962894D02*
X29365074Y-373953070D01*
X29235352Y-373965035D02*
X29263645Y-373962894D01*
X29181795Y-373967839D02*
X29235352Y-373965035D01*
X29118915Y-373970681D02*
X29181795Y-373967839D01*
X29053645Y-373973169D02*
X29118915Y-373970681D01*
X28908340Y-373976041D02*
X29053645Y-373973169D01*
X28781748Y-373973781D02*
X28908340Y-373976041D01*
X28636661Y-373965269D02*
X28781748Y-373973781D01*
X28425022Y-373947707D02*
X28636661Y-373965269D01*
X28364771Y-373941119D02*
X28425022Y-373947707D01*
X28281738Y-373929690D02*
X28364771Y-373941119D01*
X28184250Y-373914788D02*
X28281738Y-373929690D01*
X28077522Y-373897109D02*
X28184250Y-373914788D01*
X27971857Y-373877377D02*
X28077522Y-373897109D01*
X27854034Y-373852215D02*
X27971857Y-373877377D01*
X27737305Y-373824654D02*
X27854034Y-373852215D01*
X27635022Y-373797637D02*
X27737305Y-373824654D01*
X27619381Y-373793300D02*
X27635022Y-373797637D01*
X27603397Y-373788981D02*
X27619381Y-373793300D01*
X27589207Y-373785245D02*
X27603397Y-373788981D01*
X27580022Y-373782966D02*
X27589207Y-373785245D01*
X27571722Y-373780851D02*
X27580022Y-373782966D01*
X27561053Y-373777839D02*
X27571722Y-373780851D01*
X27549914Y-373774499D02*
X27561053Y-373777839D01*
X27540022Y-373771321D02*
X27549914Y-373774499D01*
X27528663Y-373767567D02*
X27540022Y-373771321D01*
X27512381Y-373762256D02*
X27528663Y-373767567D01*
X27494485Y-373756458D02*
X27512381Y-373762256D01*
X27477522Y-373751004D02*
X27494485Y-373756458D01*
X27413400Y-373729584D02*
X27477522Y-373751004D01*
X27349573Y-373706485D02*
X27413400Y-373729584D01*
X27285345Y-373681444D02*
X27349573Y-373706485D01*
X30191588Y-373879800D02*
G75*
G02X30185529Y-373877293I15601J46284D01*
G01*
X30198772Y-373881862D02*
G75*
G02X30191589Y-373879800I19033J79840D01*
G01*
X30225611Y-373887712D02*
X30198772Y-373881862D01*
X26378409Y-369541121D02*
G75*
G02X26393800Y-369549519I-19851J-54684D01*
G01*
X26433573Y-369580444D02*
X26393800Y-369549519D01*
X26480950Y-369619163D02*
X26433573Y-369580444D01*
X26533636Y-369664359D02*
X26480950Y-369619163D01*
X26698174Y-369802127D02*
X26533636Y-369664359D01*
X26843791Y-369910502D02*
X26698174Y-369802127D01*
X27012714Y-370019733D02*
X26843791Y-369910502D01*
X27257522Y-370164069D02*
X27012714Y-370019733D01*
X29571306Y-369756615D02*
X29547577Y-369865220D01*
X29494593Y-370156118D02*
X29492916Y-370170277D01*
X29286280Y-372470659D02*
X29246362Y-372392777D01*
X29400735Y-372699065D02*
X29286280Y-372470659D01*
X29593793Y-369672863D02*
X29590420Y-369685871D01*
X29609796Y-372640277D02*
X29612223Y-372649554D01*
X27980696Y-370646196D02*
X27949731Y-370621569D01*
X28034121Y-370690261D02*
X27980696Y-370646196D01*
X29655296Y-369449293D02*
X29640717Y-369498596D01*
X29041545Y-372010738D02*
X29027657Y-371984784D01*
X29058037Y-372041194D02*
X29041545Y-372010738D01*
X29607389Y-372630966D02*
X29609796Y-372640277D01*
X29530667Y-372962450D02*
G75*
G02X29530022Y-372959625I5867J2825D01*
G01*
X29570128Y-373044375D02*
X29530666Y-372962451D01*
X29493686Y-371978002D02*
X29499812Y-372025277D01*
X29590420Y-369685871D02*
X29587276Y-369697511D01*
X29610559Y-369607297D02*
X29602925Y-369636256D01*
X29622102Y-372693678D02*
X29625424Y-372708215D01*
X29619792Y-372682777D02*
X29622102Y-372693678D01*
X29617434Y-373142202D02*
X29570128Y-373044375D01*
X29680900Y-373272769D02*
X29617434Y-373142202D01*
X29994836Y-367845277D02*
X29983743Y-367938355D01*
X28390510Y-371019449D02*
X28307249Y-370934817D01*
X28457941Y-371093323D02*
X28390510Y-371019449D01*
X29015378Y-371961643D02*
G75*
G02X29015022Y-371960212I2699J1431D01*
G01*
X29027657Y-371984784D02*
X29015377Y-371961643D01*
X29457431Y-371584943D02*
X29460146Y-371624262D01*
X29436197Y-371040776D02*
X29441200Y-371260800D01*
X27312323Y-370195700D02*
X27257522Y-370164069D01*
X27365350Y-370226582D02*
X27312323Y-370195700D01*
X27410594Y-370253170D02*
X27365350Y-370226582D01*
X29462884Y-371660118D02*
X29465155Y-371685277D01*
X30064571Y-367363376D02*
G75*
G02X30082574Y-367319496I122645J-24684D01*
G01*
X29983743Y-367938355D02*
X29966692Y-368068323D01*
X29966692Y-368068323D02*
X29948247Y-368202128D01*
X29948247Y-368202128D02*
X29932296Y-368310277D01*
X29594799Y-372571609D02*
X29597913Y-372586189D01*
X29672754Y-369390648D02*
X29655296Y-369449293D01*
X29665004Y-372866641D02*
X29688021Y-372955658D01*
X29652687Y-372817777D02*
X29665004Y-372866641D01*
X29439221Y-370835430D02*
X29436197Y-371040776D01*
X29497211Y-370138074D02*
X29494593Y-370156118D01*
X29596912Y-369660277D02*
X29593793Y-369672863D01*
X28091890Y-370738546D02*
X28034121Y-370690261D01*
X28142522Y-370781589D02*
X28091890Y-370738546D01*
X29640717Y-369498596D02*
X29634498Y-369520277D01*
X29546332Y-372332567D02*
X29569739Y-372458706D01*
X29472649Y-371767124D02*
X29474772Y-371792777D01*
X29602098Y-372607528D02*
X29604678Y-372619391D01*
X29620636Y-369570269D02*
X29610559Y-369607297D01*
X29612223Y-372649554D02*
X29614997Y-372661012D01*
X29774298Y-369040004D02*
X29691595Y-369327777D01*
X29524401Y-372203232D02*
X29546332Y-372332567D01*
X29486414Y-371913404D02*
X29493686Y-371978002D01*
X27435022Y-370267924D02*
X27410594Y-370253170D01*
X27452943Y-370278971D02*
X27435022Y-370267924D01*
X27471647Y-370290441D02*
X27452943Y-370278971D01*
X27488524Y-370300743D02*
X27471647Y-370290441D01*
X27500022Y-370307694D02*
X27488524Y-370300743D01*
X29597913Y-372586189D02*
X29600081Y-372597260D01*
X29455160Y-371547777D02*
X29457431Y-371584943D01*
X29891058Y-368546192D02*
X29839522Y-368784580D01*
X29602925Y-369636256D02*
X29596912Y-369660277D01*
X29932296Y-368310277D02*
X29891058Y-368546192D01*
X29614997Y-372661012D02*
X29617668Y-372672709D01*
X29465155Y-371685277D02*
X29467410Y-371708549D01*
X29510387Y-372105277D02*
X29524401Y-372203232D01*
X29647592Y-372797213D02*
X29652687Y-372817777D01*
X29641964Y-372774684D02*
X29647592Y-372797213D01*
X27838770Y-370538408D02*
X27712111Y-370448124D01*
X27949731Y-370621569D02*
X27838770Y-370538408D01*
X29466010Y-370410768D02*
X29456089Y-370520173D01*
X29585002Y-369705277D02*
X29571306Y-369756615D01*
X28990348Y-371915352D02*
X28980163Y-371897052D01*
X28998277Y-371929295D02*
X28990348Y-371915352D01*
X29175179Y-372257925D02*
X29157627Y-372225277D01*
X29196050Y-372297166D02*
X29175179Y-372257925D01*
X29793771Y-373453775D02*
G75*
G02X29778450Y-373454191I-7814J5438D01*
G01*
X29801642Y-373427617D02*
G75*
G02X29793772Y-373453776I-43965J-1036D01*
G01*
X29591336Y-372556189D02*
X29594799Y-372571609D01*
X29504965Y-372063215D02*
X29507876Y-372085494D01*
X29500258Y-370119324D02*
X29497211Y-370138074D01*
X29492916Y-370170277D02*
X29491414Y-370184273D01*
X29474772Y-371792777D02*
X29479586Y-371846968D01*
X29219842Y-372342235D02*
X29196050Y-372297166D01*
X29246362Y-372392777D02*
X29219842Y-372342235D01*
X29476782Y-370303128D02*
X29466010Y-370410768D01*
X29839522Y-368784580D02*
X29774298Y-369040004D01*
X29547577Y-369865220D02*
X29525096Y-369974104D01*
X29529044Y-372955488D02*
X29400735Y-372699065D01*
X29529045Y-372955488D02*
G75*
G02X29530022Y-372959625I-8269J-4137D01*
G01*
X27590998Y-370365371D02*
X27500022Y-370307694D01*
X27712111Y-370448124D02*
X27590998Y-370365371D01*
X28576981Y-371242044D02*
X28457941Y-371093323D01*
X28702584Y-371423051D02*
X28576981Y-371242044D01*
X29525096Y-369974104D02*
X29514785Y-370035277D01*
X29691595Y-369327777D02*
X29672754Y-369390648D01*
X29467410Y-371708549D02*
X29470054Y-371737481D01*
X29503300Y-370102777D02*
X29500258Y-370119324D01*
X29512686Y-370049437D02*
X29509713Y-370067481D01*
X29485041Y-370235277D02*
X29476782Y-370303128D01*
X29762789Y-373240486D02*
X29784316Y-373328882D01*
X29729915Y-373115277D02*
X29762789Y-373240486D01*
X29629114Y-372723688D02*
X29632635Y-372737777D01*
X29625424Y-372708215D02*
X29629114Y-372723688D01*
X29588031Y-372542260D02*
X29591336Y-372556189D01*
X29506422Y-370086231D02*
X29503300Y-370102777D01*
X30042634Y-367482589D02*
X30019274Y-367640793D01*
X29489359Y-370201746D02*
X29487122Y-370219693D01*
X29604678Y-372619391D02*
X29607389Y-372630966D01*
X29569739Y-372458706D02*
X29588031Y-372542260D01*
X29450432Y-370597777D02*
X29439221Y-370835430D01*
X30064571Y-367363377D02*
X30042634Y-367482589D01*
X29514785Y-370035277D02*
X29512686Y-370049437D01*
X29711965Y-373047481D02*
X29729915Y-373115277D01*
X29688021Y-372955658D02*
X29711965Y-373047481D01*
X29507876Y-372085494D02*
X29510387Y-372105277D01*
X29636652Y-372753561D02*
X29641964Y-372774684D01*
X29632635Y-372737777D02*
X29636652Y-372753561D01*
X29460146Y-371624262D02*
X29462884Y-371660118D01*
X29797789Y-373392241D02*
G75*
G02X29801641Y-373427617I-205937J-40320D01*
G01*
X29784316Y-373328882D02*
X29797790Y-373392241D01*
X29149971Y-372211116D02*
X29140235Y-372193074D01*
X29157627Y-372225277D02*
X29149971Y-372211116D01*
X29617668Y-372672709D02*
X29619792Y-372682777D01*
X29509713Y-370067481D02*
X29506422Y-370086231D01*
X28220584Y-370851527D02*
X28142522Y-370781589D01*
X28307249Y-370934817D02*
X28220584Y-370851527D01*
X29502112Y-372041881D02*
X29504965Y-372063215D01*
X29487122Y-370219693D02*
X29485041Y-370235277D01*
X29587276Y-369697511D02*
X29585002Y-369705277D01*
X30019274Y-367640793D02*
X29994836Y-367845277D01*
X28969544Y-371877713D02*
X28960123Y-371860277D01*
X28980163Y-371897052D02*
X28969544Y-371877713D01*
X29745824Y-373402971D02*
X29680900Y-373272769D01*
X29778449Y-373454191D02*
G75*
G02X29745824Y-373402971I252153J196613D01*
G01*
X29441200Y-371260800D02*
X29455160Y-371547777D01*
D11*
G36*
X50854975Y-352958585D02*
G01*
X51154528Y-353018170D01*
X51718874Y-353251930D01*
X52226772Y-353591296D01*
X52658704Y-354023228D01*
X52998070Y-354531126D01*
X53231830Y-355095472D01*
X53351000Y-355694578D01*
X53351000Y-356305422D01*
X53231830Y-356904528D01*
X52998070Y-357468874D01*
X52658704Y-357976772D01*
X52226772Y-358408704D01*
X51718874Y-358748070D01*
X51154528Y-358981830D01*
X50854975Y-359041415D01*
X50555423Y-359101000D01*
X49944577Y-359101000D01*
X49645025Y-359041415D01*
X49345472Y-358981830D01*
X48781126Y-358748070D01*
X48273228Y-358408704D01*
X47841296Y-357976772D01*
X47501930Y-357468874D01*
X47268170Y-356904528D01*
X47149000Y-356305422D01*
X47149000Y-355694578D01*
X47268170Y-355095472D01*
X47501930Y-354531126D01*
X47841296Y-354023228D01*
X48273228Y-353591296D01*
X48781126Y-353251930D01*
X49345472Y-353018170D01*
X49645025Y-352958585D01*
X49944577Y-352899000D01*
X50555423Y-352899000D01*
X50854975Y-352958585D01*
G37*
G36*
X37354975Y-352958585D02*
G01*
X37654528Y-353018170D01*
X38218874Y-353251930D01*
X38726772Y-353591296D01*
X39158704Y-354023228D01*
X39498070Y-354531126D01*
X39731830Y-355095472D01*
X39851000Y-355694578D01*
X39851000Y-356305422D01*
X39731830Y-356904528D01*
X39498070Y-357468874D01*
X39158704Y-357976772D01*
X38726772Y-358408704D01*
X38218874Y-358748070D01*
X37654528Y-358981830D01*
X37354975Y-359041415D01*
X37055423Y-359101000D01*
X36444577Y-359101000D01*
X36145025Y-359041415D01*
X35845472Y-358981830D01*
X35281126Y-358748070D01*
X34773228Y-358408704D01*
X34341296Y-357976772D01*
X34001930Y-357468874D01*
X33768170Y-356904528D01*
X33649000Y-356305422D01*
X33649000Y-355694578D01*
X33768170Y-355095472D01*
X34001930Y-354531126D01*
X34341296Y-354023228D01*
X34773228Y-353591296D01*
X35281126Y-353251930D01*
X35845472Y-353018170D01*
X36145025Y-352958585D01*
X36444577Y-352899000D01*
X37055423Y-352899000D01*
X37354975Y-352958585D01*
G37*
G36*
X23854975Y-352958585D02*
G01*
X24154528Y-353018170D01*
X24718874Y-353251930D01*
X25226772Y-353591296D01*
X25658704Y-354023228D01*
X25998070Y-354531126D01*
X26231830Y-355095472D01*
X26351000Y-355694578D01*
X26351000Y-356305422D01*
X26231830Y-356904528D01*
X25998070Y-357468874D01*
X25658704Y-357976772D01*
X25226772Y-358408704D01*
X24718874Y-358748070D01*
X24154528Y-358981830D01*
X23854975Y-359041415D01*
X23555423Y-359101000D01*
X22944577Y-359101000D01*
X22645025Y-359041415D01*
X22345472Y-358981830D01*
X21781126Y-358748070D01*
X21273228Y-358408704D01*
X20841296Y-357976772D01*
X20501930Y-357468874D01*
X20268170Y-356904528D01*
X20149000Y-356305422D01*
X20149000Y-355694578D01*
X20268170Y-355095472D01*
X20501930Y-354531126D01*
X20841296Y-354023228D01*
X21273228Y-353591296D01*
X21781126Y-353251930D01*
X22345472Y-353018170D01*
X22645025Y-352958585D01*
X22944577Y-352899000D01*
X23555423Y-352899000D01*
X23854975Y-352958585D01*
G37*
G36*
X10854975Y-352958585D02*
G01*
X11154528Y-353018170D01*
X11718874Y-353251930D01*
X12226772Y-353591296D01*
X12658704Y-354023228D01*
X12998070Y-354531126D01*
X13231830Y-355095472D01*
X13351000Y-355694578D01*
X13351000Y-356305422D01*
X13231830Y-356904528D01*
X12998070Y-357468874D01*
X12658704Y-357976772D01*
X12226772Y-358408704D01*
X11718874Y-358748070D01*
X11154528Y-358981830D01*
X10854975Y-359041415D01*
X10555423Y-359101000D01*
X9944577Y-359101000D01*
X9645025Y-359041415D01*
X9345472Y-358981830D01*
X8781126Y-358748070D01*
X8273228Y-358408704D01*
X7841296Y-357976772D01*
X7501930Y-357468874D01*
X7268170Y-356904528D01*
X7149000Y-356305422D01*
X7149000Y-355694578D01*
X7268170Y-355095472D01*
X7501930Y-354531126D01*
X7841296Y-354023228D01*
X8273228Y-353591296D01*
X8781126Y-353251930D01*
X9345472Y-353018170D01*
X9645025Y-352958585D01*
X9944577Y-352899000D01*
X10555423Y-352899000D01*
X10854975Y-352958585D01*
G37*
G36*
X10854975Y-336958585D02*
G01*
X11154528Y-337018170D01*
X11718874Y-337251930D01*
X12226772Y-337591296D01*
X12658704Y-338023228D01*
X12998070Y-338531126D01*
X13231830Y-339095472D01*
X13351000Y-339694578D01*
X13351000Y-340305422D01*
X13231830Y-340904528D01*
X12998070Y-341468874D01*
X12658704Y-341976772D01*
X12226772Y-342408704D01*
X11718874Y-342748070D01*
X11154528Y-342981830D01*
X10854975Y-343041415D01*
X10555423Y-343101000D01*
X9944577Y-343101000D01*
X9645025Y-343041415D01*
X9345472Y-342981830D01*
X8781126Y-342748070D01*
X8273228Y-342408704D01*
X7841296Y-341976772D01*
X7501930Y-341468874D01*
X7268170Y-340904528D01*
X7149000Y-340305422D01*
X7149000Y-339694578D01*
X7268170Y-339095472D01*
X7501930Y-338531126D01*
X7841296Y-338023228D01*
X8273228Y-337591296D01*
X8781126Y-337251930D01*
X9345472Y-337018170D01*
X9645025Y-336958585D01*
X9944577Y-336899000D01*
X10555423Y-336899000D01*
X10854975Y-336958585D01*
G37*
G36*
X50854975Y-336958585D02*
G01*
X51154528Y-337018170D01*
X51718874Y-337251930D01*
X52226772Y-337591296D01*
X52658704Y-338023228D01*
X52998070Y-338531126D01*
X53231830Y-339095472D01*
X53351000Y-339694578D01*
X53351000Y-340305422D01*
X53231830Y-340904528D01*
X52998070Y-341468874D01*
X52658704Y-341976772D01*
X52226772Y-342408704D01*
X51718874Y-342748070D01*
X51154528Y-342981830D01*
X50854975Y-343041415D01*
X50555423Y-343101000D01*
X49944577Y-343101000D01*
X49645025Y-343041415D01*
X49345472Y-342981830D01*
X48781126Y-342748070D01*
X48273228Y-342408704D01*
X47841296Y-341976772D01*
X47501930Y-341468874D01*
X47268170Y-340904528D01*
X47149000Y-340305422D01*
X47149000Y-339694578D01*
X47268170Y-339095472D01*
X47501930Y-338531126D01*
X47841296Y-338023228D01*
X48273228Y-337591296D01*
X48781126Y-337251930D01*
X49345472Y-337018170D01*
X49645025Y-336958585D01*
X49944577Y-336899000D01*
X50555423Y-336899000D01*
X50854975Y-336958585D01*
G37*
G36*
X37354975Y-336958585D02*
G01*
X37654528Y-337018170D01*
X38218874Y-337251930D01*
X38726772Y-337591296D01*
X39158704Y-338023228D01*
X39498070Y-338531126D01*
X39731830Y-339095472D01*
X39851000Y-339694578D01*
X39851000Y-340305422D01*
X39731830Y-340904528D01*
X39498070Y-341468874D01*
X39158704Y-341976772D01*
X38726772Y-342408704D01*
X38218874Y-342748070D01*
X37654528Y-342981830D01*
X37354975Y-343041415D01*
X37055423Y-343101000D01*
X36444577Y-343101000D01*
X36145025Y-343041415D01*
X35845472Y-342981830D01*
X35281126Y-342748070D01*
X34773228Y-342408704D01*
X34341296Y-341976772D01*
X34001930Y-341468874D01*
X33768170Y-340904528D01*
X33649000Y-340305422D01*
X33649000Y-339694578D01*
X33768170Y-339095472D01*
X34001930Y-338531126D01*
X34341296Y-338023228D01*
X34773228Y-337591296D01*
X35281126Y-337251930D01*
X35845472Y-337018170D01*
X36145025Y-336958585D01*
X36444577Y-336899000D01*
X37055423Y-336899000D01*
X37354975Y-336958585D01*
G37*
G36*
X23854975Y-336958585D02*
G01*
X24154528Y-337018170D01*
X24718874Y-337251930D01*
X25226772Y-337591296D01*
X25658704Y-338023228D01*
X25998070Y-338531126D01*
X26231830Y-339095472D01*
X26351000Y-339694578D01*
X26351000Y-340305422D01*
X26231830Y-340904528D01*
X25998070Y-341468874D01*
X25658704Y-341976772D01*
X25226772Y-342408704D01*
X24718874Y-342748070D01*
X24154528Y-342981830D01*
X23854975Y-343041415D01*
X23555423Y-343101000D01*
X22944577Y-343101000D01*
X22645025Y-343041415D01*
X22345472Y-342981830D01*
X21781126Y-342748070D01*
X21273228Y-342408704D01*
X20841296Y-341976772D01*
X20501930Y-341468874D01*
X20268170Y-340904528D01*
X20149000Y-340305422D01*
X20149000Y-339694578D01*
X20268170Y-339095472D01*
X20501930Y-338531126D01*
X20841296Y-338023228D01*
X21273228Y-337591296D01*
X21781126Y-337251930D01*
X22345472Y-337018170D01*
X22645025Y-336958585D01*
X22944577Y-336899000D01*
X23555423Y-336899000D01*
X23854975Y-336958585D01*
G37*
G36*
X50854975Y-321208585D02*
G01*
X51154528Y-321268170D01*
X51718874Y-321501930D01*
X52226772Y-321841296D01*
X52658704Y-322273228D01*
X52998070Y-322781126D01*
X53231830Y-323345472D01*
X53351000Y-323944578D01*
X53351000Y-324555422D01*
X53231830Y-325154528D01*
X52998070Y-325718874D01*
X52658704Y-326226772D01*
X52226772Y-326658704D01*
X51718874Y-326998070D01*
X51154528Y-327231830D01*
X50854975Y-327291415D01*
X50555423Y-327351000D01*
X49944577Y-327351000D01*
X49645025Y-327291415D01*
X49345472Y-327231830D01*
X48781126Y-326998070D01*
X48273228Y-326658704D01*
X47841296Y-326226772D01*
X47501930Y-325718874D01*
X47268170Y-325154528D01*
X47149000Y-324555422D01*
X47149000Y-323944578D01*
X47268170Y-323345472D01*
X47501930Y-322781126D01*
X47841296Y-322273228D01*
X48273228Y-321841296D01*
X48781126Y-321501930D01*
X49345472Y-321268170D01*
X49645025Y-321208585D01*
X49944577Y-321149000D01*
X50555423Y-321149000D01*
X50854975Y-321208585D01*
G37*
G36*
X10854975Y-321208585D02*
G01*
X11154528Y-321268170D01*
X11718874Y-321501930D01*
X12226772Y-321841296D01*
X12658704Y-322273228D01*
X12998070Y-322781126D01*
X13231830Y-323345472D01*
X13351000Y-323944578D01*
X13351000Y-324555422D01*
X13231830Y-325154528D01*
X12998070Y-325718874D01*
X12658704Y-326226772D01*
X12226772Y-326658704D01*
X11718874Y-326998070D01*
X11154528Y-327231830D01*
X10854975Y-327291415D01*
X10555423Y-327351000D01*
X9944577Y-327351000D01*
X9645025Y-327291415D01*
X9345472Y-327231830D01*
X8781126Y-326998070D01*
X8273228Y-326658704D01*
X7841296Y-326226772D01*
X7501930Y-325718874D01*
X7268170Y-325154528D01*
X7149000Y-324555422D01*
X7149000Y-323944578D01*
X7268170Y-323345472D01*
X7501930Y-322781126D01*
X7841296Y-322273228D01*
X8273228Y-321841296D01*
X8781126Y-321501930D01*
X9345472Y-321268170D01*
X9645025Y-321208585D01*
X9944577Y-321149000D01*
X10555423Y-321149000D01*
X10854975Y-321208585D01*
G37*
G36*
X50854975Y-304958585D02*
G01*
X51154528Y-305018170D01*
X51718874Y-305251930D01*
X52226772Y-305591296D01*
X52658704Y-306023228D01*
X52998070Y-306531126D01*
X53231830Y-307095472D01*
X53351000Y-307694578D01*
X53351000Y-308305422D01*
X53231830Y-308904528D01*
X52998070Y-309468874D01*
X52658704Y-309976772D01*
X52226772Y-310408704D01*
X51718874Y-310748070D01*
X51154528Y-310981830D01*
X50854975Y-311041415D01*
X50555423Y-311101000D01*
X49944577Y-311101000D01*
X49645025Y-311041415D01*
X49345472Y-310981830D01*
X48781126Y-310748070D01*
X48273228Y-310408704D01*
X47841296Y-309976772D01*
X47501930Y-309468874D01*
X47268170Y-308904528D01*
X47149000Y-308305422D01*
X47149000Y-307694578D01*
X47268170Y-307095472D01*
X47501930Y-306531126D01*
X47841296Y-306023228D01*
X48273228Y-305591296D01*
X48781126Y-305251930D01*
X49345472Y-305018170D01*
X49645025Y-304958585D01*
X49944577Y-304899000D01*
X50555423Y-304899000D01*
X50854975Y-304958585D01*
G37*
G36*
X30854975Y-304958585D02*
G01*
X31154528Y-305018170D01*
X31718874Y-305251930D01*
X32226772Y-305591296D01*
X32658704Y-306023228D01*
X32998070Y-306531126D01*
X33231830Y-307095472D01*
X33351000Y-307694578D01*
X33351000Y-308305422D01*
X33231830Y-308904528D01*
X32998070Y-309468874D01*
X32658704Y-309976772D01*
X32226772Y-310408704D01*
X31718874Y-310748070D01*
X31154528Y-310981830D01*
X30854975Y-311041415D01*
X30555423Y-311101000D01*
X29944577Y-311101000D01*
X29645025Y-311041415D01*
X29345472Y-310981830D01*
X28781126Y-310748070D01*
X28273228Y-310408704D01*
X27841296Y-309976772D01*
X27501930Y-309468874D01*
X27268170Y-308904528D01*
X27149000Y-308305422D01*
X27149000Y-307694578D01*
X27268170Y-307095472D01*
X27501930Y-306531126D01*
X27841296Y-306023228D01*
X28273228Y-305591296D01*
X28781126Y-305251930D01*
X29345472Y-305018170D01*
X29645025Y-304958585D01*
X29944577Y-304899000D01*
X30555423Y-304899000D01*
X30854975Y-304958585D01*
G37*
G36*
X10854975Y-304958585D02*
G01*
X11154528Y-305018170D01*
X11718874Y-305251930D01*
X12226772Y-305591296D01*
X12658704Y-306023228D01*
X12998070Y-306531126D01*
X13231830Y-307095472D01*
X13351000Y-307694578D01*
X13351000Y-308305422D01*
X13231830Y-308904528D01*
X12998070Y-309468874D01*
X12658704Y-309976772D01*
X12226772Y-310408704D01*
X11718874Y-310748070D01*
X11154528Y-310981830D01*
X10854975Y-311041415D01*
X10555423Y-311101000D01*
X9944577Y-311101000D01*
X9645025Y-311041415D01*
X9345472Y-310981830D01*
X8781126Y-310748070D01*
X8273228Y-310408704D01*
X7841296Y-309976772D01*
X7501930Y-309468874D01*
X7268170Y-308904528D01*
X7149000Y-308305422D01*
X7149000Y-307694578D01*
X7268170Y-307095472D01*
X7501930Y-306531126D01*
X7841296Y-306023228D01*
X8273228Y-305591296D01*
X8781126Y-305251930D01*
X9345472Y-305018170D01*
X9645025Y-304958585D01*
X9944577Y-304899000D01*
X10555423Y-304899000D01*
X10854975Y-304958585D01*
G37*
G36*
X40757430Y-297448977D02*
G01*
X41008684Y-297498955D01*
X41204752Y-297580169D01*
X41482034Y-297695023D01*
X41482035Y-297695024D01*
X41908041Y-297979671D01*
X42270329Y-298341959D01*
X42460524Y-298626607D01*
X42554977Y-298767966D01*
X42751045Y-299241317D01*
X42851000Y-299743823D01*
X42851000Y-300256177D01*
X42751045Y-300758683D01*
X42554977Y-301232034D01*
X42554976Y-301232035D01*
X42270329Y-301658041D01*
X41908041Y-302020329D01*
X41623393Y-302210524D01*
X41482034Y-302304977D01*
X41204752Y-302419831D01*
X41008684Y-302501045D01*
X40757430Y-302551023D01*
X40506177Y-302601000D01*
X39993823Y-302601000D01*
X39742570Y-302551023D01*
X39491316Y-302501045D01*
X39295248Y-302419831D01*
X39017966Y-302304977D01*
X38876607Y-302210524D01*
X38591959Y-302020329D01*
X38229671Y-301658041D01*
X37945024Y-301232035D01*
X37945023Y-301232034D01*
X37748955Y-300758683D01*
X37649000Y-300256177D01*
X37649000Y-299743823D01*
X37748955Y-299241317D01*
X37945023Y-298767966D01*
X38039476Y-298626607D01*
X38229671Y-298341959D01*
X38591959Y-297979671D01*
X39017965Y-297695024D01*
X39017966Y-297695023D01*
X39295248Y-297580169D01*
X39491316Y-297498955D01*
X39742570Y-297448977D01*
X39993823Y-297399000D01*
X40506177Y-297399000D01*
X40757430Y-297448977D01*
G37*
G36*
X20757430Y-297448977D02*
G01*
X21008684Y-297498955D01*
X21204752Y-297580169D01*
X21482034Y-297695023D01*
X21482035Y-297695024D01*
X21908041Y-297979671D01*
X22270329Y-298341959D01*
X22460524Y-298626607D01*
X22554977Y-298767966D01*
X22751045Y-299241317D01*
X22851000Y-299743823D01*
X22851000Y-300256177D01*
X22751045Y-300758683D01*
X22554977Y-301232034D01*
X22554976Y-301232035D01*
X22270329Y-301658041D01*
X21908041Y-302020329D01*
X21623393Y-302210524D01*
X21482034Y-302304977D01*
X21204752Y-302419831D01*
X21008684Y-302501045D01*
X20757430Y-302551023D01*
X20506177Y-302601000D01*
X19993823Y-302601000D01*
X19742570Y-302551023D01*
X19491316Y-302501045D01*
X19295248Y-302419831D01*
X19017966Y-302304977D01*
X18876607Y-302210524D01*
X18591959Y-302020329D01*
X18229671Y-301658041D01*
X17945024Y-301232035D01*
X17945023Y-301232034D01*
X17748955Y-300758683D01*
X17649000Y-300256177D01*
X17649000Y-299743823D01*
X17748955Y-299241317D01*
X17945023Y-298767966D01*
X18039476Y-298626607D01*
X18229671Y-298341959D01*
X18591959Y-297979671D01*
X19017965Y-297695024D01*
X19017966Y-297695023D01*
X19295248Y-297580169D01*
X19491316Y-297498955D01*
X19742570Y-297448977D01*
X19993823Y-297399000D01*
X20506177Y-297399000D01*
X20757430Y-297448977D01*
G37*
G36*
X40757430Y-277448978D02*
G01*
X41008684Y-277498955D01*
X41204752Y-277580169D01*
X41482034Y-277695023D01*
X41482035Y-277695024D01*
X41908041Y-277979671D01*
X42270329Y-278341959D01*
X42460524Y-278626607D01*
X42554977Y-278767966D01*
X42751045Y-279241317D01*
X42851000Y-279743823D01*
X42851000Y-280256177D01*
X42751045Y-280758683D01*
X42554977Y-281232034D01*
X42554976Y-281232035D01*
X42270329Y-281658041D01*
X41908041Y-282020329D01*
X41623393Y-282210524D01*
X41482034Y-282304977D01*
X41204752Y-282419831D01*
X41008684Y-282501045D01*
X40757430Y-282551022D01*
X40506177Y-282601000D01*
X39993823Y-282601000D01*
X39742570Y-282551022D01*
X39491316Y-282501045D01*
X39295248Y-282419831D01*
X39017966Y-282304977D01*
X38876607Y-282210524D01*
X38591959Y-282020329D01*
X38229671Y-281658041D01*
X37945024Y-281232035D01*
X37945023Y-281232034D01*
X37748955Y-280758683D01*
X37649000Y-280256177D01*
X37649000Y-279743823D01*
X37748955Y-279241317D01*
X37945023Y-278767966D01*
X38039476Y-278626607D01*
X38229671Y-278341959D01*
X38591959Y-277979671D01*
X39017965Y-277695024D01*
X39017966Y-277695023D01*
X39295248Y-277580169D01*
X39491316Y-277498955D01*
X39742570Y-277448978D01*
X39993823Y-277399000D01*
X40506177Y-277399000D01*
X40757430Y-277448978D01*
G37*
G36*
X20757430Y-277448978D02*
G01*
X21008684Y-277498955D01*
X21204752Y-277580169D01*
X21482034Y-277695023D01*
X21482035Y-277695024D01*
X21908041Y-277979671D01*
X22270329Y-278341959D01*
X22460524Y-278626607D01*
X22554977Y-278767966D01*
X22751045Y-279241317D01*
X22851000Y-279743823D01*
X22851000Y-280256177D01*
X22751045Y-280758683D01*
X22554977Y-281232034D01*
X22554976Y-281232035D01*
X22270329Y-281658041D01*
X21908041Y-282020329D01*
X21623393Y-282210524D01*
X21482034Y-282304977D01*
X21204752Y-282419831D01*
X21008684Y-282501045D01*
X20757430Y-282551022D01*
X20506177Y-282601000D01*
X19993823Y-282601000D01*
X19742570Y-282551022D01*
X19491316Y-282501045D01*
X19295248Y-282419831D01*
X19017966Y-282304977D01*
X18876607Y-282210524D01*
X18591959Y-282020329D01*
X18229671Y-281658041D01*
X17945024Y-281232035D01*
X17945023Y-281232034D01*
X17748955Y-280758683D01*
X17649000Y-280256177D01*
X17649000Y-279743823D01*
X17748955Y-279241317D01*
X17945023Y-278767966D01*
X18039476Y-278626607D01*
X18229671Y-278341959D01*
X18591959Y-277979671D01*
X19017965Y-277695024D01*
X19017966Y-277695023D01*
X19295248Y-277580169D01*
X19491316Y-277498955D01*
X19742570Y-277448978D01*
X19993823Y-277399000D01*
X20506177Y-277399000D01*
X20757430Y-277448978D01*
G37*
M02*
