G04 #@! TF.GenerationSoftware,KiCad,Pcbnew,(5.1.5-0)*
G04 #@! TF.CreationDate,2021-01-11T19:00:08-08:00*
G04 #@! TF.ProjectId,duallfovco,6475616c-6c66-46f7-9663-6f2e6b696361,rev?*
G04 #@! TF.SameCoordinates,Original*
G04 #@! TF.FileFunction,Soldermask,Bot*
G04 #@! TF.FilePolarity,Negative*
%FSLAX46Y46*%
G04 Gerber Fmt 4.6, Leading zero omitted, Abs format (unit mm)*
G04 Created by KiCad (PCBNEW (5.1.5-0)) date 2021-01-11 19:00:08*
%MOMM*%
%LPD*%
G04 APERTURE LIST*
%ADD10C,1.000000*%
%ADD11C,0.150000*%
%ADD12C,0.100000*%
G04 APERTURE END LIST*
D10*
X18450000Y-109200000D02*
G75*
G03X18450000Y-109200000I-3500000J0D01*
G01*
X28450000Y-109200000D02*
G75*
G03X28450000Y-109200000I-3500000J0D01*
G01*
X38450000Y-109200000D02*
G75*
G03X38450000Y-109200000I-3500000J0D01*
G01*
X8450000Y-109200000D02*
G75*
G03X8450000Y-109200000I-3500000J0D01*
G01*
X38450000Y-94700000D02*
G75*
G03X38450000Y-94700000I-3500000J0D01*
G01*
X8450000Y-79200000D02*
G75*
G03X8450000Y-79200000I-3500000J0D01*
G01*
X38450000Y-79200000D02*
G75*
G03X38450000Y-79200000I-3500000J0D01*
G01*
X28450000Y-79200000D02*
G75*
G03X28450000Y-79200000I-3500000J0D01*
G01*
D11*
X22726190Y-121452380D02*
X22726190Y-120785714D01*
X22726190Y-120976190D02*
X22678571Y-120880952D01*
X22630952Y-120833333D01*
X22535714Y-120785714D01*
X22440476Y-120785714D01*
X21726190Y-121404761D02*
X21821428Y-121452380D01*
X22011904Y-121452380D01*
X22107142Y-121404761D01*
X22154761Y-121309523D01*
X22154761Y-120928571D01*
X22107142Y-120833333D01*
X22011904Y-120785714D01*
X21821428Y-120785714D01*
X21726190Y-120833333D01*
X21678571Y-120928571D01*
X21678571Y-121023809D01*
X22154761Y-121119047D01*
X21250000Y-120785714D02*
X21250000Y-121785714D01*
X21250000Y-120833333D02*
X21154761Y-120785714D01*
X20964285Y-120785714D01*
X20869047Y-120833333D01*
X20821428Y-120880952D01*
X20773809Y-120976190D01*
X20773809Y-121261904D01*
X20821428Y-121357142D01*
X20869047Y-121404761D01*
X20964285Y-121452380D01*
X21154761Y-121452380D01*
X21250000Y-121404761D01*
X19916666Y-121452380D02*
X19916666Y-120928571D01*
X19964285Y-120833333D01*
X20059523Y-120785714D01*
X20250000Y-120785714D01*
X20345238Y-120833333D01*
X19916666Y-121404761D02*
X20011904Y-121452380D01*
X20250000Y-121452380D01*
X20345238Y-121404761D01*
X20392857Y-121309523D01*
X20392857Y-121214285D01*
X20345238Y-121119047D01*
X20250000Y-121071428D01*
X20011904Y-121071428D01*
X19916666Y-121023809D01*
X19440476Y-120785714D02*
X19440476Y-121452380D01*
X19440476Y-120880952D02*
X19392857Y-120833333D01*
X19297619Y-120785714D01*
X19154761Y-120785714D01*
X19059523Y-120833333D01*
X19011904Y-120928571D01*
X19011904Y-121452380D01*
X18154761Y-121404761D02*
X18250000Y-121452380D01*
X18440476Y-121452380D01*
X18535714Y-121404761D01*
X18583333Y-121309523D01*
X18583333Y-120928571D01*
X18535714Y-120833333D01*
X18440476Y-120785714D01*
X18250000Y-120785714D01*
X18154761Y-120833333D01*
X18107142Y-120928571D01*
X18107142Y-121023809D01*
X18583333Y-121119047D01*
X17535714Y-121452380D02*
X17630952Y-121404761D01*
X17678571Y-121309523D01*
X17678571Y-120452380D01*
X16392857Y-121452380D02*
X16392857Y-120452380D01*
X16392857Y-120833333D02*
X16297619Y-120785714D01*
X16107142Y-120785714D01*
X16011904Y-120833333D01*
X15964285Y-120880952D01*
X15916666Y-120976190D01*
X15916666Y-121261904D01*
X15964285Y-121357142D01*
X16011904Y-121404761D01*
X16107142Y-121452380D01*
X16297619Y-121452380D01*
X16392857Y-121404761D01*
X15583333Y-120785714D02*
X15345238Y-121452380D01*
X15107142Y-120785714D02*
X15345238Y-121452380D01*
X15440476Y-121690476D01*
X15488095Y-121738095D01*
X15583333Y-121785714D01*
X13964285Y-120785714D02*
X13964285Y-121642857D01*
X14011904Y-121738095D01*
X14107142Y-121785714D01*
X14154761Y-121785714D01*
X13964285Y-120452380D02*
X14011904Y-120500000D01*
X13964285Y-120547619D01*
X13916666Y-120500000D01*
X13964285Y-120452380D01*
X13964285Y-120547619D01*
X13059523Y-121452380D02*
X13059523Y-120928571D01*
X13107142Y-120833333D01*
X13202380Y-120785714D01*
X13392857Y-120785714D01*
X13488095Y-120833333D01*
X13059523Y-121404761D02*
X13154761Y-121452380D01*
X13392857Y-121452380D01*
X13488095Y-121404761D01*
X13535714Y-121309523D01*
X13535714Y-121214285D01*
X13488095Y-121119047D01*
X13392857Y-121071428D01*
X13154761Y-121071428D01*
X13059523Y-121023809D01*
X12154761Y-121404761D02*
X12250000Y-121452380D01*
X12440476Y-121452380D01*
X12535714Y-121404761D01*
X12583333Y-121357142D01*
X12630952Y-121261904D01*
X12630952Y-120976190D01*
X12583333Y-120880952D01*
X12535714Y-120833333D01*
X12440476Y-120785714D01*
X12250000Y-120785714D01*
X12154761Y-120833333D01*
X11726190Y-121452380D02*
X11726190Y-120452380D01*
X11630952Y-121071428D02*
X11345238Y-121452380D01*
X11345238Y-120785714D02*
X11726190Y-121166666D01*
X10202380Y-121404761D02*
X10107142Y-121452380D01*
X9916666Y-121452380D01*
X9821428Y-121404761D01*
X9773809Y-121309523D01*
X9773809Y-121261904D01*
X9821428Y-121166666D01*
X9916666Y-121119047D01*
X10059523Y-121119047D01*
X10154761Y-121071428D01*
X10202380Y-120976190D01*
X10202380Y-120928571D01*
X10154761Y-120833333D01*
X10059523Y-120785714D01*
X9916666Y-120785714D01*
X9821428Y-120833333D01*
X9345238Y-121357142D02*
X9297619Y-121404761D01*
X9345238Y-121452380D01*
X9392857Y-121404761D01*
X9345238Y-121357142D01*
X9345238Y-121452380D01*
X8154761Y-120547619D02*
X8107142Y-120500000D01*
X8011904Y-120452380D01*
X7773809Y-120452380D01*
X7678571Y-120500000D01*
X7630952Y-120547619D01*
X7583333Y-120642857D01*
X7583333Y-120738095D01*
X7630952Y-120880952D01*
X8202380Y-121452380D01*
X7583333Y-121452380D01*
X6964285Y-120452380D02*
X6869047Y-120452380D01*
X6773809Y-120500000D01*
X6726190Y-120547619D01*
X6678571Y-120642857D01*
X6630952Y-120833333D01*
X6630952Y-121071428D01*
X6678571Y-121261904D01*
X6726190Y-121357142D01*
X6773809Y-121404761D01*
X6869047Y-121452380D01*
X6964285Y-121452380D01*
X7059523Y-121404761D01*
X7107142Y-121357142D01*
X7154761Y-121261904D01*
X7202380Y-121071428D01*
X7202380Y-120833333D01*
X7154761Y-120642857D01*
X7107142Y-120547619D01*
X7059523Y-120500000D01*
X6964285Y-120452380D01*
X6250000Y-120547619D02*
X6202380Y-120500000D01*
X6107142Y-120452380D01*
X5869047Y-120452380D01*
X5773809Y-120500000D01*
X5726190Y-120547619D01*
X5678571Y-120642857D01*
X5678571Y-120738095D01*
X5726190Y-120880952D01*
X6297619Y-121452380D01*
X5678571Y-121452380D01*
X4726190Y-121452380D02*
X5297619Y-121452380D01*
X5011904Y-121452380D02*
X5011904Y-120452380D01*
X5107142Y-120595238D01*
X5202380Y-120690476D01*
X5297619Y-120738095D01*
D10*
X18450000Y-79200000D02*
G75*
G03X18450000Y-79200000I-3500000J0D01*
G01*
X8450000Y-94700000D02*
G75*
G03X8450000Y-94700000I-3500000J0D01*
G01*
X18450000Y-94700000D02*
G75*
G03X18450000Y-94700000I-3500000J0D01*
G01*
X28450000Y-94700000D02*
G75*
G03X28450000Y-94700000I-3500000J0D01*
G01*
D12*
G36*
X35554975Y-106158585D02*
G01*
X35854528Y-106218170D01*
X36418874Y-106451930D01*
X36926772Y-106791296D01*
X37358704Y-107223228D01*
X37698070Y-107731126D01*
X37931830Y-108295472D01*
X38051000Y-108894578D01*
X38051000Y-109505422D01*
X37931830Y-110104528D01*
X37698070Y-110668874D01*
X37358704Y-111176772D01*
X36926772Y-111608704D01*
X36418874Y-111948070D01*
X35854528Y-112181830D01*
X35554975Y-112241415D01*
X35255423Y-112301000D01*
X34644577Y-112301000D01*
X34345025Y-112241415D01*
X34045472Y-112181830D01*
X33481126Y-111948070D01*
X32973228Y-111608704D01*
X32541296Y-111176772D01*
X32201930Y-110668874D01*
X31968170Y-110104528D01*
X31849000Y-109505422D01*
X31849000Y-108894578D01*
X31968170Y-108295472D01*
X32201930Y-107731126D01*
X32541296Y-107223228D01*
X32973228Y-106791296D01*
X33481126Y-106451930D01*
X34045472Y-106218170D01*
X34345025Y-106158585D01*
X34644577Y-106099000D01*
X35255423Y-106099000D01*
X35554975Y-106158585D01*
G37*
G36*
X25554975Y-106158585D02*
G01*
X25854528Y-106218170D01*
X26418874Y-106451930D01*
X26926772Y-106791296D01*
X27358704Y-107223228D01*
X27698070Y-107731126D01*
X27931830Y-108295472D01*
X28051000Y-108894578D01*
X28051000Y-109505422D01*
X27931830Y-110104528D01*
X27698070Y-110668874D01*
X27358704Y-111176772D01*
X26926772Y-111608704D01*
X26418874Y-111948070D01*
X25854528Y-112181830D01*
X25554975Y-112241415D01*
X25255423Y-112301000D01*
X24644577Y-112301000D01*
X24345025Y-112241415D01*
X24045472Y-112181830D01*
X23481126Y-111948070D01*
X22973228Y-111608704D01*
X22541296Y-111176772D01*
X22201930Y-110668874D01*
X21968170Y-110104528D01*
X21849000Y-109505422D01*
X21849000Y-108894578D01*
X21968170Y-108295472D01*
X22201930Y-107731126D01*
X22541296Y-107223228D01*
X22973228Y-106791296D01*
X23481126Y-106451930D01*
X24045472Y-106218170D01*
X24345025Y-106158585D01*
X24644577Y-106099000D01*
X25255423Y-106099000D01*
X25554975Y-106158585D01*
G37*
G36*
X15554975Y-106158585D02*
G01*
X15854528Y-106218170D01*
X16418874Y-106451930D01*
X16926772Y-106791296D01*
X17358704Y-107223228D01*
X17698070Y-107731126D01*
X17931830Y-108295472D01*
X18051000Y-108894578D01*
X18051000Y-109505422D01*
X17931830Y-110104528D01*
X17698070Y-110668874D01*
X17358704Y-111176772D01*
X16926772Y-111608704D01*
X16418874Y-111948070D01*
X15854528Y-112181830D01*
X15554975Y-112241415D01*
X15255423Y-112301000D01*
X14644577Y-112301000D01*
X14345025Y-112241415D01*
X14045472Y-112181830D01*
X13481126Y-111948070D01*
X12973228Y-111608704D01*
X12541296Y-111176772D01*
X12201930Y-110668874D01*
X11968170Y-110104528D01*
X11849000Y-109505422D01*
X11849000Y-108894578D01*
X11968170Y-108295472D01*
X12201930Y-107731126D01*
X12541296Y-107223228D01*
X12973228Y-106791296D01*
X13481126Y-106451930D01*
X14045472Y-106218170D01*
X14345025Y-106158585D01*
X14644577Y-106099000D01*
X15255423Y-106099000D01*
X15554975Y-106158585D01*
G37*
G36*
X5554975Y-106158585D02*
G01*
X5854528Y-106218170D01*
X6418874Y-106451930D01*
X6926772Y-106791296D01*
X7358704Y-107223228D01*
X7698070Y-107731126D01*
X7931830Y-108295472D01*
X8051000Y-108894578D01*
X8051000Y-109505422D01*
X7931830Y-110104528D01*
X7698070Y-110668874D01*
X7358704Y-111176772D01*
X6926772Y-111608704D01*
X6418874Y-111948070D01*
X5854528Y-112181830D01*
X5554975Y-112241415D01*
X5255423Y-112301000D01*
X4644577Y-112301000D01*
X4345025Y-112241415D01*
X4045472Y-112181830D01*
X3481126Y-111948070D01*
X2973228Y-111608704D01*
X2541296Y-111176772D01*
X2201930Y-110668874D01*
X1968170Y-110104528D01*
X1849000Y-109505422D01*
X1849000Y-108894578D01*
X1968170Y-108295472D01*
X2201930Y-107731126D01*
X2541296Y-107223228D01*
X2973228Y-106791296D01*
X3481126Y-106451930D01*
X4045472Y-106218170D01*
X4345025Y-106158585D01*
X4644577Y-106099000D01*
X5255423Y-106099000D01*
X5554975Y-106158585D01*
G37*
G36*
X5554975Y-91658585D02*
G01*
X5854528Y-91718170D01*
X6418874Y-91951930D01*
X6926772Y-92291296D01*
X7358704Y-92723228D01*
X7698070Y-93231126D01*
X7931830Y-93795472D01*
X8051000Y-94394578D01*
X8051000Y-95005422D01*
X7931830Y-95604528D01*
X7698070Y-96168874D01*
X7358704Y-96676772D01*
X6926772Y-97108704D01*
X6418874Y-97448070D01*
X5854528Y-97681830D01*
X5554975Y-97741415D01*
X5255423Y-97801000D01*
X4644577Y-97801000D01*
X4345025Y-97741415D01*
X4045472Y-97681830D01*
X3481126Y-97448070D01*
X2973228Y-97108704D01*
X2541296Y-96676772D01*
X2201930Y-96168874D01*
X1968170Y-95604528D01*
X1849000Y-95005422D01*
X1849000Y-94394578D01*
X1968170Y-93795472D01*
X2201930Y-93231126D01*
X2541296Y-92723228D01*
X2973228Y-92291296D01*
X3481126Y-91951930D01*
X4045472Y-91718170D01*
X4345025Y-91658585D01*
X4644577Y-91599000D01*
X5255423Y-91599000D01*
X5554975Y-91658585D01*
G37*
G36*
X15554975Y-91658585D02*
G01*
X15854528Y-91718170D01*
X16418874Y-91951930D01*
X16926772Y-92291296D01*
X17358704Y-92723228D01*
X17698070Y-93231126D01*
X17931830Y-93795472D01*
X18051000Y-94394578D01*
X18051000Y-95005422D01*
X17931830Y-95604528D01*
X17698070Y-96168874D01*
X17358704Y-96676772D01*
X16926772Y-97108704D01*
X16418874Y-97448070D01*
X15854528Y-97681830D01*
X15554975Y-97741415D01*
X15255423Y-97801000D01*
X14644577Y-97801000D01*
X14345025Y-97741415D01*
X14045472Y-97681830D01*
X13481126Y-97448070D01*
X12973228Y-97108704D01*
X12541296Y-96676772D01*
X12201930Y-96168874D01*
X11968170Y-95604528D01*
X11849000Y-95005422D01*
X11849000Y-94394578D01*
X11968170Y-93795472D01*
X12201930Y-93231126D01*
X12541296Y-92723228D01*
X12973228Y-92291296D01*
X13481126Y-91951930D01*
X14045472Y-91718170D01*
X14345025Y-91658585D01*
X14644577Y-91599000D01*
X15255423Y-91599000D01*
X15554975Y-91658585D01*
G37*
G36*
X25554975Y-91658585D02*
G01*
X25854528Y-91718170D01*
X26418874Y-91951930D01*
X26926772Y-92291296D01*
X27358704Y-92723228D01*
X27698070Y-93231126D01*
X27931830Y-93795472D01*
X28051000Y-94394578D01*
X28051000Y-95005422D01*
X27931830Y-95604528D01*
X27698070Y-96168874D01*
X27358704Y-96676772D01*
X26926772Y-97108704D01*
X26418874Y-97448070D01*
X25854528Y-97681830D01*
X25554975Y-97741415D01*
X25255423Y-97801000D01*
X24644577Y-97801000D01*
X24345025Y-97741415D01*
X24045472Y-97681830D01*
X23481126Y-97448070D01*
X22973228Y-97108704D01*
X22541296Y-96676772D01*
X22201930Y-96168874D01*
X21968170Y-95604528D01*
X21849000Y-95005422D01*
X21849000Y-94394578D01*
X21968170Y-93795472D01*
X22201930Y-93231126D01*
X22541296Y-92723228D01*
X22973228Y-92291296D01*
X23481126Y-91951930D01*
X24045472Y-91718170D01*
X24345025Y-91658585D01*
X24644577Y-91599000D01*
X25255423Y-91599000D01*
X25554975Y-91658585D01*
G37*
G36*
X35554975Y-91658585D02*
G01*
X35854528Y-91718170D01*
X36418874Y-91951930D01*
X36926772Y-92291296D01*
X37358704Y-92723228D01*
X37698070Y-93231126D01*
X37931830Y-93795472D01*
X38051000Y-94394578D01*
X38051000Y-95005422D01*
X37931830Y-95604528D01*
X37698070Y-96168874D01*
X37358704Y-96676772D01*
X36926772Y-97108704D01*
X36418874Y-97448070D01*
X35854528Y-97681830D01*
X35554975Y-97741415D01*
X35255423Y-97801000D01*
X34644577Y-97801000D01*
X34345025Y-97741415D01*
X34045472Y-97681830D01*
X33481126Y-97448070D01*
X32973228Y-97108704D01*
X32541296Y-96676772D01*
X32201930Y-96168874D01*
X31968170Y-95604528D01*
X31849000Y-95005422D01*
X31849000Y-94394578D01*
X31968170Y-93795472D01*
X32201930Y-93231126D01*
X32541296Y-92723228D01*
X32973228Y-92291296D01*
X33481126Y-91951930D01*
X34045472Y-91718170D01*
X34345025Y-91658585D01*
X34644577Y-91599000D01*
X35255423Y-91599000D01*
X35554975Y-91658585D01*
G37*
G36*
X35554975Y-76158585D02*
G01*
X35854528Y-76218170D01*
X36418874Y-76451930D01*
X36926772Y-76791296D01*
X37358704Y-77223228D01*
X37698070Y-77731126D01*
X37931830Y-78295472D01*
X38051000Y-78894578D01*
X38051000Y-79505422D01*
X37931830Y-80104528D01*
X37698070Y-80668874D01*
X37358704Y-81176772D01*
X36926772Y-81608704D01*
X36418874Y-81948070D01*
X35854528Y-82181830D01*
X35554975Y-82241415D01*
X35255423Y-82301000D01*
X34644577Y-82301000D01*
X34345025Y-82241415D01*
X34045472Y-82181830D01*
X33481126Y-81948070D01*
X32973228Y-81608704D01*
X32541296Y-81176772D01*
X32201930Y-80668874D01*
X31968170Y-80104528D01*
X31849000Y-79505422D01*
X31849000Y-78894578D01*
X31968170Y-78295472D01*
X32201930Y-77731126D01*
X32541296Y-77223228D01*
X32973228Y-76791296D01*
X33481126Y-76451930D01*
X34045472Y-76218170D01*
X34345025Y-76158585D01*
X34644577Y-76099000D01*
X35255423Y-76099000D01*
X35554975Y-76158585D01*
G37*
G36*
X25554975Y-76158585D02*
G01*
X25854528Y-76218170D01*
X26418874Y-76451930D01*
X26926772Y-76791296D01*
X27358704Y-77223228D01*
X27698070Y-77731126D01*
X27931830Y-78295472D01*
X28051000Y-78894578D01*
X28051000Y-79505422D01*
X27931830Y-80104528D01*
X27698070Y-80668874D01*
X27358704Y-81176772D01*
X26926772Y-81608704D01*
X26418874Y-81948070D01*
X25854528Y-82181830D01*
X25554975Y-82241415D01*
X25255423Y-82301000D01*
X24644577Y-82301000D01*
X24345025Y-82241415D01*
X24045472Y-82181830D01*
X23481126Y-81948070D01*
X22973228Y-81608704D01*
X22541296Y-81176772D01*
X22201930Y-80668874D01*
X21968170Y-80104528D01*
X21849000Y-79505422D01*
X21849000Y-78894578D01*
X21968170Y-78295472D01*
X22201930Y-77731126D01*
X22541296Y-77223228D01*
X22973228Y-76791296D01*
X23481126Y-76451930D01*
X24045472Y-76218170D01*
X24345025Y-76158585D01*
X24644577Y-76099000D01*
X25255423Y-76099000D01*
X25554975Y-76158585D01*
G37*
G36*
X15554975Y-76158585D02*
G01*
X15854528Y-76218170D01*
X16418874Y-76451930D01*
X16926772Y-76791296D01*
X17358704Y-77223228D01*
X17698070Y-77731126D01*
X17931830Y-78295472D01*
X18051000Y-78894578D01*
X18051000Y-79505422D01*
X17931830Y-80104528D01*
X17698070Y-80668874D01*
X17358704Y-81176772D01*
X16926772Y-81608704D01*
X16418874Y-81948070D01*
X15854528Y-82181830D01*
X15554975Y-82241415D01*
X15255423Y-82301000D01*
X14644577Y-82301000D01*
X14345025Y-82241415D01*
X14045472Y-82181830D01*
X13481126Y-81948070D01*
X12973228Y-81608704D01*
X12541296Y-81176772D01*
X12201930Y-80668874D01*
X11968170Y-80104528D01*
X11849000Y-79505422D01*
X11849000Y-78894578D01*
X11968170Y-78295472D01*
X12201930Y-77731126D01*
X12541296Y-77223228D01*
X12973228Y-76791296D01*
X13481126Y-76451930D01*
X14045472Y-76218170D01*
X14345025Y-76158585D01*
X14644577Y-76099000D01*
X15255423Y-76099000D01*
X15554975Y-76158585D01*
G37*
G36*
X5554975Y-76158585D02*
G01*
X5854528Y-76218170D01*
X6418874Y-76451930D01*
X6926772Y-76791296D01*
X7358704Y-77223228D01*
X7698070Y-77731126D01*
X7931830Y-78295472D01*
X8051000Y-78894578D01*
X8051000Y-79505422D01*
X7931830Y-80104528D01*
X7698070Y-80668874D01*
X7358704Y-81176772D01*
X6926772Y-81608704D01*
X6418874Y-81948070D01*
X5854528Y-82181830D01*
X5554975Y-82241415D01*
X5255423Y-82301000D01*
X4644577Y-82301000D01*
X4345025Y-82241415D01*
X4045472Y-82181830D01*
X3481126Y-81948070D01*
X2973228Y-81608704D01*
X2541296Y-81176772D01*
X2201930Y-80668874D01*
X1968170Y-80104528D01*
X1849000Y-79505422D01*
X1849000Y-78894578D01*
X1968170Y-78295472D01*
X2201930Y-77731126D01*
X2541296Y-77223228D01*
X2973228Y-76791296D01*
X3481126Y-76451930D01*
X4045472Y-76218170D01*
X4345025Y-76158585D01*
X4644577Y-76099000D01*
X5255423Y-76099000D01*
X5554975Y-76158585D01*
G37*
G36*
X35196217Y-64406665D02*
G01*
X35466995Y-64460525D01*
X35758358Y-64581212D01*
X36020578Y-64756422D01*
X36243578Y-64979422D01*
X36418788Y-65241642D01*
X36539475Y-65533005D01*
X36601000Y-65842315D01*
X36601000Y-66157685D01*
X36539475Y-66466995D01*
X36418788Y-66758358D01*
X36243578Y-67020578D01*
X36020578Y-67243578D01*
X35758358Y-67418788D01*
X35466995Y-67539475D01*
X35196217Y-67593335D01*
X35157686Y-67601000D01*
X34842314Y-67601000D01*
X34803783Y-67593335D01*
X34533005Y-67539475D01*
X34241642Y-67418788D01*
X33979422Y-67243578D01*
X33756422Y-67020578D01*
X33581212Y-66758358D01*
X33460525Y-66466995D01*
X33399000Y-66157685D01*
X33399000Y-65842315D01*
X33460525Y-65533005D01*
X33581212Y-65241642D01*
X33756422Y-64979422D01*
X33979422Y-64756422D01*
X34241642Y-64581212D01*
X34533005Y-64460525D01*
X34803783Y-64406665D01*
X34842314Y-64399000D01*
X35157686Y-64399000D01*
X35196217Y-64406665D01*
G37*
G36*
X5196217Y-64406665D02*
G01*
X5466995Y-64460525D01*
X5758358Y-64581212D01*
X6020578Y-64756422D01*
X6243578Y-64979422D01*
X6418788Y-65241642D01*
X6539475Y-65533005D01*
X6601000Y-65842315D01*
X6601000Y-66157685D01*
X6539475Y-66466995D01*
X6418788Y-66758358D01*
X6243578Y-67020578D01*
X6020578Y-67243578D01*
X5758358Y-67418788D01*
X5466995Y-67539475D01*
X5196217Y-67593335D01*
X5157686Y-67601000D01*
X4842314Y-67601000D01*
X4803783Y-67593335D01*
X4533005Y-67539475D01*
X4241642Y-67418788D01*
X3979422Y-67243578D01*
X3756422Y-67020578D01*
X3581212Y-66758358D01*
X3460525Y-66466995D01*
X3399000Y-66157685D01*
X3399000Y-65842315D01*
X3460525Y-65533005D01*
X3581212Y-65241642D01*
X3756422Y-64979422D01*
X3979422Y-64756422D01*
X4241642Y-64581212D01*
X4533005Y-64460525D01*
X4803783Y-64406665D01*
X4842314Y-64399000D01*
X5157686Y-64399000D01*
X5196217Y-64406665D01*
G37*
G36*
X35384239Y-51311467D02*
G01*
X35698282Y-51373934D01*
X36289926Y-51619001D01*
X36822392Y-51974784D01*
X37275216Y-52427608D01*
X37630999Y-52960074D01*
X37876066Y-53551718D01*
X38001000Y-54179804D01*
X38001000Y-54820196D01*
X37876066Y-55448282D01*
X37630999Y-56039926D01*
X37275216Y-56572392D01*
X36822392Y-57025216D01*
X36289926Y-57380999D01*
X35698282Y-57626066D01*
X35384239Y-57688533D01*
X35070197Y-57751000D01*
X34429803Y-57751000D01*
X34115761Y-57688533D01*
X33801718Y-57626066D01*
X33210074Y-57380999D01*
X32677608Y-57025216D01*
X32224784Y-56572392D01*
X31869001Y-56039926D01*
X31623934Y-55448282D01*
X31499000Y-54820196D01*
X31499000Y-54179804D01*
X31623934Y-53551718D01*
X31869001Y-52960074D01*
X32224784Y-52427608D01*
X32677608Y-51974784D01*
X33210074Y-51619001D01*
X33801718Y-51373934D01*
X34115761Y-51311467D01*
X34429803Y-51249000D01*
X35070197Y-51249000D01*
X35384239Y-51311467D01*
G37*
G36*
X5634239Y-51311467D02*
G01*
X5948282Y-51373934D01*
X6539926Y-51619001D01*
X7072392Y-51974784D01*
X7525216Y-52427608D01*
X7880999Y-52960074D01*
X8126066Y-53551718D01*
X8251000Y-54179804D01*
X8251000Y-54820196D01*
X8126066Y-55448282D01*
X7880999Y-56039926D01*
X7525216Y-56572392D01*
X7072392Y-57025216D01*
X6539926Y-57380999D01*
X5948282Y-57626066D01*
X5634239Y-57688533D01*
X5320197Y-57751000D01*
X4679803Y-57751000D01*
X4365761Y-57688533D01*
X4051718Y-57626066D01*
X3460074Y-57380999D01*
X2927608Y-57025216D01*
X2474784Y-56572392D01*
X2119001Y-56039926D01*
X1873934Y-55448282D01*
X1749000Y-54820196D01*
X1749000Y-54179804D01*
X1873934Y-53551718D01*
X2119001Y-52960074D01*
X2474784Y-52427608D01*
X2927608Y-51974784D01*
X3460074Y-51619001D01*
X4051718Y-51373934D01*
X4365761Y-51311467D01*
X4679803Y-51249000D01*
X5320197Y-51249000D01*
X5634239Y-51311467D01*
G37*
M02*
