G04 #@! TF.GenerationSoftware,KiCad,Pcbnew,(5.1.5-0)*
G04 #@! TF.CreationDate,2021-01-12T21:58:13-08:00*
G04 #@! TF.ProjectId,delaynomore,64656c61-796e-46f6-9d6f-72652e6b6963,rev?*
G04 #@! TF.SameCoordinates,Original*
G04 #@! TF.FileFunction,Legend,Top*
G04 #@! TF.FilePolarity,Positive*
%FSLAX46Y46*%
G04 Gerber Fmt 4.6, Leading zero omitted, Abs format (unit mm)*
G04 Created by KiCad (PCBNEW (5.1.5-0)) date 2021-01-12 21:58:13*
%MOMM*%
%LPD*%
G04 APERTURE LIST*
%ADD10C,0.250000*%
%ADD11C,0.400000*%
G04 APERTURE END LIST*
D10*
X31250000Y-89154761D02*
X31630952Y-89154761D01*
X31821428Y-89250000D01*
X32011904Y-89440476D01*
X32107142Y-89821428D01*
X32107142Y-90488095D01*
X32011904Y-90869047D01*
X31821428Y-91059523D01*
X31630952Y-91154761D01*
X31250000Y-91154761D01*
X31059523Y-91059523D01*
X30869047Y-90869047D01*
X30773809Y-90488095D01*
X30773809Y-89821428D01*
X30869047Y-89440476D01*
X31059523Y-89250000D01*
X31250000Y-89154761D01*
X32964285Y-89154761D02*
X32964285Y-90773809D01*
X33059523Y-90964285D01*
X33154761Y-91059523D01*
X33345238Y-91154761D01*
X33726190Y-91154761D01*
X33916666Y-91059523D01*
X34011904Y-90964285D01*
X34107142Y-90773809D01*
X34107142Y-89154761D01*
X34773809Y-89154761D02*
X35916666Y-89154761D01*
X35345238Y-91154761D02*
X35345238Y-89154761D01*
X6702380Y-91404761D02*
X6702380Y-89404761D01*
X7654761Y-91404761D02*
X7654761Y-89404761D01*
X8797619Y-91404761D01*
X8797619Y-89404761D01*
X17476190Y-90964285D02*
X17380952Y-91059523D01*
X17095238Y-91154761D01*
X16904761Y-91154761D01*
X16619047Y-91059523D01*
X16428571Y-90869047D01*
X16333333Y-90678571D01*
X16238095Y-90297619D01*
X16238095Y-90011904D01*
X16333333Y-89630952D01*
X16428571Y-89440476D01*
X16619047Y-89250000D01*
X16904761Y-89154761D01*
X17095238Y-89154761D01*
X17380952Y-89250000D01*
X17476190Y-89345238D01*
X22619047Y-89154761D02*
X23285714Y-91154761D01*
X23952380Y-89154761D01*
X26071428Y-70404761D02*
X26547619Y-72404761D01*
X26928571Y-70976190D01*
X27309523Y-72404761D01*
X27785714Y-70404761D01*
X28547619Y-71357142D02*
X29214285Y-71357142D01*
X29500000Y-72404761D02*
X28547619Y-72404761D01*
X28547619Y-70404761D01*
X29500000Y-70404761D01*
X30071428Y-70404761D02*
X31214285Y-70404761D01*
X30642857Y-72404761D02*
X30642857Y-70404761D01*
X33309523Y-70309523D02*
X31595238Y-72880952D01*
X33976190Y-72404761D02*
X33976190Y-70404761D01*
X34452380Y-70404761D01*
X34738095Y-70500000D01*
X34928571Y-70690476D01*
X35023809Y-70880952D01*
X35119047Y-71261904D01*
X35119047Y-71547619D01*
X35023809Y-71928571D01*
X34928571Y-72119047D01*
X34738095Y-72309523D01*
X34452380Y-72404761D01*
X33976190Y-72404761D01*
X37119047Y-72404761D02*
X36452380Y-71452380D01*
X35976190Y-72404761D02*
X35976190Y-70404761D01*
X36738095Y-70404761D01*
X36928571Y-70500000D01*
X37023809Y-70595238D01*
X37119047Y-70785714D01*
X37119047Y-71071428D01*
X37023809Y-71261904D01*
X36928571Y-71357142D01*
X36738095Y-71452380D01*
X35976190Y-71452380D01*
X38357142Y-71452380D02*
X38357142Y-72404761D01*
X37690476Y-70404761D02*
X38357142Y-71452380D01*
X39023809Y-70404761D01*
X6964285Y-70821428D02*
X7726190Y-70821428D01*
X7250000Y-72154761D02*
X7250000Y-70440476D01*
X7345238Y-70250000D01*
X7535714Y-70154761D01*
X7726190Y-70154761D01*
X8392857Y-72154761D02*
X8392857Y-70154761D01*
X8392857Y-70916666D02*
X8583333Y-70821428D01*
X8964285Y-70821428D01*
X9154761Y-70916666D01*
X9250000Y-71011904D01*
X9345238Y-71202380D01*
X9345238Y-71773809D01*
X9250000Y-71964285D01*
X9154761Y-72059523D01*
X8964285Y-72154761D01*
X8583333Y-72154761D01*
X8392857Y-72059523D01*
X10869047Y-71107142D02*
X11154761Y-71202380D01*
X11250000Y-71297619D01*
X11345238Y-71488095D01*
X11345238Y-71773809D01*
X11250000Y-71964285D01*
X11154761Y-72059523D01*
X10964285Y-72154761D01*
X10202380Y-72154761D01*
X10202380Y-70154761D01*
X10869047Y-70154761D01*
X11059523Y-70250000D01*
X11154761Y-70345238D01*
X11250000Y-70535714D01*
X11250000Y-70726190D01*
X11154761Y-70916666D01*
X11059523Y-71011904D01*
X10869047Y-71107142D01*
X10202380Y-71107142D01*
X26285714Y-54154761D02*
X26285714Y-52154761D01*
X26761904Y-52154761D01*
X27047619Y-52250000D01*
X27238095Y-52440476D01*
X27333333Y-52630952D01*
X27428571Y-53011904D01*
X27428571Y-53297619D01*
X27333333Y-53678571D01*
X27238095Y-53869047D01*
X27047619Y-54059523D01*
X26761904Y-54154761D01*
X26285714Y-54154761D01*
X28285714Y-53107142D02*
X28952380Y-53107142D01*
X29238095Y-54154761D02*
X28285714Y-54154761D01*
X28285714Y-52154761D01*
X29238095Y-52154761D01*
X31047619Y-54154761D02*
X30095238Y-54154761D01*
X30095238Y-52154761D01*
X31619047Y-53583333D02*
X32571428Y-53583333D01*
X31428571Y-54154761D02*
X32095238Y-52154761D01*
X32761904Y-54154761D01*
X33809523Y-53202380D02*
X33809523Y-54154761D01*
X33142857Y-52154761D02*
X33809523Y-53202380D01*
X34476190Y-52154761D01*
X37333333Y-53107142D02*
X37619047Y-53202380D01*
X37714285Y-53297619D01*
X37809523Y-53488095D01*
X37809523Y-53773809D01*
X37714285Y-53964285D01*
X37619047Y-54059523D01*
X37428571Y-54154761D01*
X36666666Y-54154761D01*
X36666666Y-52154761D01*
X37333333Y-52154761D01*
X37523809Y-52250000D01*
X37619047Y-52345238D01*
X37714285Y-52535714D01*
X37714285Y-52726190D01*
X37619047Y-52916666D01*
X37523809Y-53011904D01*
X37333333Y-53107142D01*
X36666666Y-53107142D01*
X5619047Y-52571428D02*
X6380952Y-52571428D01*
X5904761Y-53904761D02*
X5904761Y-52190476D01*
X6000000Y-52000000D01*
X6190476Y-51904761D01*
X6380952Y-51904761D01*
X7047619Y-53904761D02*
X7047619Y-51904761D01*
X7047619Y-52666666D02*
X7238095Y-52571428D01*
X7619047Y-52571428D01*
X7809523Y-52666666D01*
X7904761Y-52761904D01*
X8000000Y-52952380D01*
X8000000Y-53523809D01*
X7904761Y-53714285D01*
X7809523Y-53809523D01*
X7619047Y-53904761D01*
X7238095Y-53904761D01*
X7047619Y-53809523D01*
X9523809Y-52857142D02*
X9809523Y-52952380D01*
X9904761Y-53047619D01*
X10000000Y-53238095D01*
X10000000Y-53523809D01*
X9904761Y-53714285D01*
X9809523Y-53809523D01*
X9619047Y-53904761D01*
X8857142Y-53904761D01*
X8857142Y-51904761D01*
X9523809Y-51904761D01*
X9714285Y-52000000D01*
X9809523Y-52095238D01*
X9904761Y-52285714D01*
X9904761Y-52476190D01*
X9809523Y-52666666D01*
X9714285Y-52761904D01*
X9523809Y-52857142D01*
X8857142Y-52857142D01*
X10857142Y-52571428D02*
X12380952Y-53142857D01*
X10857142Y-53714285D01*
X13238095Y-53333333D02*
X14190476Y-53333333D01*
X13047619Y-53904761D02*
X13714285Y-51904761D01*
X14380952Y-53904761D01*
X5952380Y-34821428D02*
X6714285Y-34821428D01*
X6238095Y-36154761D02*
X6238095Y-34440476D01*
X6333333Y-34250000D01*
X6523809Y-34154761D01*
X6714285Y-34154761D01*
X7095238Y-34821428D02*
X7857142Y-34821428D01*
X7380952Y-36154761D02*
X7380952Y-34440476D01*
X7476190Y-34250000D01*
X7666666Y-34154761D01*
X7857142Y-34154761D01*
X8428571Y-35583333D02*
X9380952Y-35583333D01*
X8238095Y-36154761D02*
X8904761Y-34154761D01*
X9571428Y-36154761D01*
X10238095Y-34821428D02*
X11761904Y-35392857D01*
X10238095Y-35964285D01*
X13380952Y-35107142D02*
X13666666Y-35202380D01*
X13761904Y-35297619D01*
X13857142Y-35488095D01*
X13857142Y-35773809D01*
X13761904Y-35964285D01*
X13666666Y-36059523D01*
X13476190Y-36154761D01*
X12714285Y-36154761D01*
X12714285Y-34154761D01*
X13380952Y-34154761D01*
X13571428Y-34250000D01*
X13666666Y-34345238D01*
X13761904Y-34535714D01*
X13761904Y-34726190D01*
X13666666Y-34916666D01*
X13571428Y-35011904D01*
X13380952Y-35107142D01*
X12714285Y-35107142D01*
X29607142Y-34857142D02*
X28940476Y-34857142D01*
X28940476Y-35904761D02*
X28940476Y-33904761D01*
X29892857Y-33904761D01*
X30654761Y-35904761D02*
X30654761Y-33904761D01*
X31607142Y-35904761D02*
X31607142Y-33904761D01*
X32750000Y-35904761D01*
X32750000Y-33904761D01*
X33702380Y-34857142D02*
X34369047Y-34857142D01*
X34654761Y-35904761D02*
X33702380Y-35904761D01*
X33702380Y-33904761D01*
X34654761Y-33904761D01*
X28107142Y-17964285D02*
X28011904Y-18059523D01*
X27726190Y-18154761D01*
X27535714Y-18154761D01*
X27250000Y-18059523D01*
X27059523Y-17869047D01*
X26964285Y-17678571D01*
X26869047Y-17297619D01*
X26869047Y-17011904D01*
X26964285Y-16630952D01*
X27059523Y-16440476D01*
X27250000Y-16250000D01*
X27535714Y-16154761D01*
X27726190Y-16154761D01*
X28011904Y-16250000D01*
X28107142Y-16345238D01*
X29345238Y-16154761D02*
X29726190Y-16154761D01*
X29916666Y-16250000D01*
X30107142Y-16440476D01*
X30202380Y-16821428D01*
X30202380Y-17488095D01*
X30107142Y-17869047D01*
X29916666Y-18059523D01*
X29726190Y-18154761D01*
X29345238Y-18154761D01*
X29154761Y-18059523D01*
X28964285Y-17869047D01*
X28869047Y-17488095D01*
X28869047Y-16821428D01*
X28964285Y-16440476D01*
X29154761Y-16250000D01*
X29345238Y-16154761D01*
X30964285Y-17583333D02*
X31916666Y-17583333D01*
X30773809Y-18154761D02*
X31440476Y-16154761D01*
X32107142Y-18154761D01*
X33916666Y-18154761D02*
X33250000Y-17202380D01*
X32773809Y-18154761D02*
X32773809Y-16154761D01*
X33535714Y-16154761D01*
X33726190Y-16250000D01*
X33821428Y-16345238D01*
X33916666Y-16535714D01*
X33916666Y-16821428D01*
X33821428Y-17011904D01*
X33726190Y-17107142D01*
X33535714Y-17202380D01*
X32773809Y-17202380D01*
X34678571Y-18059523D02*
X34964285Y-18154761D01*
X35440476Y-18154761D01*
X35630952Y-18059523D01*
X35726190Y-17964285D01*
X35821428Y-17773809D01*
X35821428Y-17583333D01*
X35726190Y-17392857D01*
X35630952Y-17297619D01*
X35440476Y-17202380D01*
X35059523Y-17107142D01*
X34869047Y-17011904D01*
X34773809Y-16916666D01*
X34678571Y-16726190D01*
X34678571Y-16535714D01*
X34773809Y-16345238D01*
X34869047Y-16250000D01*
X35059523Y-16154761D01*
X35535714Y-16154761D01*
X35821428Y-16250000D01*
X36678571Y-17107142D02*
X37345238Y-17107142D01*
X37630952Y-18154761D02*
X36678571Y-18154761D01*
X36678571Y-16154761D01*
X37630952Y-16154761D01*
D11*
X14150000Y-4958333D02*
X14150000Y-1458333D01*
X14983333Y-1458333D01*
X15483333Y-1625000D01*
X15816666Y-1958333D01*
X15983333Y-2291666D01*
X16150000Y-2958333D01*
X16150000Y-3458333D01*
X15983333Y-4125000D01*
X15816666Y-4458333D01*
X15483333Y-4791666D01*
X14983333Y-4958333D01*
X14150000Y-4958333D01*
X18983333Y-4791666D02*
X18650000Y-4958333D01*
X17983333Y-4958333D01*
X17650000Y-4791666D01*
X17483333Y-4458333D01*
X17483333Y-3125000D01*
X17650000Y-2791666D01*
X17983333Y-2625000D01*
X18650000Y-2625000D01*
X18983333Y-2791666D01*
X19150000Y-3125000D01*
X19150000Y-3458333D01*
X17483333Y-3791666D01*
X21150000Y-4958333D02*
X20816666Y-4791666D01*
X20650000Y-4458333D01*
X20650000Y-1458333D01*
X23983333Y-4958333D02*
X23983333Y-3125000D01*
X23816666Y-2791666D01*
X23483333Y-2625000D01*
X22816666Y-2625000D01*
X22483333Y-2791666D01*
X23983333Y-4791666D02*
X23650000Y-4958333D01*
X22816666Y-4958333D01*
X22483333Y-4791666D01*
X22316666Y-4458333D01*
X22316666Y-4125000D01*
X22483333Y-3791666D01*
X22816666Y-3625000D01*
X23650000Y-3625000D01*
X23983333Y-3458333D01*
X25316666Y-2625000D02*
X26150000Y-4958333D01*
X26983333Y-2625000D02*
X26150000Y-4958333D01*
X25816666Y-5791666D01*
X25650000Y-5958333D01*
X25316666Y-6125000D01*
X10316666Y-10608333D02*
X10316666Y-7108333D01*
X12316666Y-10608333D01*
X12316666Y-7108333D01*
X14483333Y-10608333D02*
X14150000Y-10441666D01*
X13983333Y-10275000D01*
X13816666Y-9941666D01*
X13816666Y-8941666D01*
X13983333Y-8608333D01*
X14150000Y-8441666D01*
X14483333Y-8275000D01*
X14983333Y-8275000D01*
X15316666Y-8441666D01*
X15483333Y-8608333D01*
X15650000Y-8941666D01*
X15650000Y-9941666D01*
X15483333Y-10275000D01*
X15316666Y-10441666D01*
X14983333Y-10608333D01*
X14483333Y-10608333D01*
X19816666Y-10608333D02*
X19816666Y-7108333D01*
X20983333Y-9608333D01*
X22150000Y-7108333D01*
X22150000Y-10608333D01*
X24316666Y-10608333D02*
X23983333Y-10441666D01*
X23816666Y-10275000D01*
X23650000Y-9941666D01*
X23650000Y-8941666D01*
X23816666Y-8608333D01*
X23983333Y-8441666D01*
X24316666Y-8275000D01*
X24816666Y-8275000D01*
X25150000Y-8441666D01*
X25316666Y-8608333D01*
X25483333Y-8941666D01*
X25483333Y-9941666D01*
X25316666Y-10275000D01*
X25150000Y-10441666D01*
X24816666Y-10608333D01*
X24316666Y-10608333D01*
X26983333Y-10608333D02*
X26983333Y-8275000D01*
X26983333Y-8941666D02*
X27150000Y-8608333D01*
X27316666Y-8441666D01*
X27650000Y-8275000D01*
X27983333Y-8275000D01*
X30483333Y-10441666D02*
X30150000Y-10608333D01*
X29483333Y-10608333D01*
X29150000Y-10441666D01*
X28983333Y-10108333D01*
X28983333Y-8775000D01*
X29150000Y-8441666D01*
X29483333Y-8275000D01*
X30150000Y-8275000D01*
X30483333Y-8441666D01*
X30650000Y-8775000D01*
X30650000Y-9108333D01*
X28983333Y-9441666D01*
D10*
X7107142Y-16571428D02*
X7869047Y-16571428D01*
X7392857Y-17904761D02*
X7392857Y-16190476D01*
X7488095Y-16000000D01*
X7678571Y-15904761D01*
X7869047Y-15904761D01*
X8535714Y-17904761D02*
X8535714Y-15904761D01*
X8535714Y-16666666D02*
X8726190Y-16571428D01*
X9107142Y-16571428D01*
X9297619Y-16666666D01*
X9392857Y-16761904D01*
X9488095Y-16952380D01*
X9488095Y-17523809D01*
X9392857Y-17714285D01*
X9297619Y-17809523D01*
X9107142Y-17904761D01*
X8726190Y-17904761D01*
X8535714Y-17809523D01*
X10250000Y-17333333D02*
X11202380Y-17333333D01*
X10059523Y-17904761D02*
X10726190Y-15904761D01*
X11392857Y-17904761D01*
M02*
