G04 #@! TF.GenerationSoftware,KiCad,Pcbnew,(5.1.5-0)*
G04 #@! TF.CreationDate,2021-01-20T17:48:20-08:00*
G04 #@! TF.ProjectId,vcadsr,76636164-7372-42e6-9b69-6361645f7063,rev?*
G04 #@! TF.SameCoordinates,Original*
G04 #@! TF.FileFunction,Soldermask,Bot*
G04 #@! TF.FilePolarity,Negative*
%FSLAX46Y46*%
G04 Gerber Fmt 4.6, Leading zero omitted, Abs format (unit mm)*
G04 Created by KiCad (PCBNEW (5.1.5-0)) date 2021-01-20 17:48:20*
%MOMM*%
%LPD*%
G04 APERTURE LIST*
%ADD10C,1.000000*%
%ADD11C,0.150000*%
%ADD12C,0.100000*%
G04 APERTURE END LIST*
D10*
X16750000Y-65750000D02*
G75*
G03X16750000Y-65750000I-1250000J0D01*
G01*
X12000000Y-86750000D02*
G75*
G03X12000000Y-86750000I-3500000J0D01*
G01*
X12000000Y-23500000D02*
G75*
G03X12000000Y-23500000I-3500000J0D01*
G01*
X12000000Y-44750000D02*
G75*
G03X12000000Y-44750000I-3500000J0D01*
G01*
X47000000Y-104000000D02*
G75*
G03X47000000Y-104000000I-3500000J0D01*
G01*
D11*
X22726190Y-121452380D02*
X22726190Y-120785714D01*
X22726190Y-120976190D02*
X22678571Y-120880952D01*
X22630952Y-120833333D01*
X22535714Y-120785714D01*
X22440476Y-120785714D01*
X21726190Y-121404761D02*
X21821428Y-121452380D01*
X22011904Y-121452380D01*
X22107142Y-121404761D01*
X22154761Y-121309523D01*
X22154761Y-120928571D01*
X22107142Y-120833333D01*
X22011904Y-120785714D01*
X21821428Y-120785714D01*
X21726190Y-120833333D01*
X21678571Y-120928571D01*
X21678571Y-121023809D01*
X22154761Y-121119047D01*
X21250000Y-120785714D02*
X21250000Y-121785714D01*
X21250000Y-120833333D02*
X21154761Y-120785714D01*
X20964285Y-120785714D01*
X20869047Y-120833333D01*
X20821428Y-120880952D01*
X20773809Y-120976190D01*
X20773809Y-121261904D01*
X20821428Y-121357142D01*
X20869047Y-121404761D01*
X20964285Y-121452380D01*
X21154761Y-121452380D01*
X21250000Y-121404761D01*
X19916666Y-121452380D02*
X19916666Y-120928571D01*
X19964285Y-120833333D01*
X20059523Y-120785714D01*
X20250000Y-120785714D01*
X20345238Y-120833333D01*
X19916666Y-121404761D02*
X20011904Y-121452380D01*
X20250000Y-121452380D01*
X20345238Y-121404761D01*
X20392857Y-121309523D01*
X20392857Y-121214285D01*
X20345238Y-121119047D01*
X20250000Y-121071428D01*
X20011904Y-121071428D01*
X19916666Y-121023809D01*
X19440476Y-120785714D02*
X19440476Y-121452380D01*
X19440476Y-120880952D02*
X19392857Y-120833333D01*
X19297619Y-120785714D01*
X19154761Y-120785714D01*
X19059523Y-120833333D01*
X19011904Y-120928571D01*
X19011904Y-121452380D01*
X18154761Y-121404761D02*
X18250000Y-121452380D01*
X18440476Y-121452380D01*
X18535714Y-121404761D01*
X18583333Y-121309523D01*
X18583333Y-120928571D01*
X18535714Y-120833333D01*
X18440476Y-120785714D01*
X18250000Y-120785714D01*
X18154761Y-120833333D01*
X18107142Y-120928571D01*
X18107142Y-121023809D01*
X18583333Y-121119047D01*
X17535714Y-121452380D02*
X17630952Y-121404761D01*
X17678571Y-121309523D01*
X17678571Y-120452380D01*
X16392857Y-121452380D02*
X16392857Y-120452380D01*
X16392857Y-120833333D02*
X16297619Y-120785714D01*
X16107142Y-120785714D01*
X16011904Y-120833333D01*
X15964285Y-120880952D01*
X15916666Y-120976190D01*
X15916666Y-121261904D01*
X15964285Y-121357142D01*
X16011904Y-121404761D01*
X16107142Y-121452380D01*
X16297619Y-121452380D01*
X16392857Y-121404761D01*
X15583333Y-120785714D02*
X15345238Y-121452380D01*
X15107142Y-120785714D02*
X15345238Y-121452380D01*
X15440476Y-121690476D01*
X15488095Y-121738095D01*
X15583333Y-121785714D01*
X13964285Y-120785714D02*
X13964285Y-121642857D01*
X14011904Y-121738095D01*
X14107142Y-121785714D01*
X14154761Y-121785714D01*
X13964285Y-120452380D02*
X14011904Y-120500000D01*
X13964285Y-120547619D01*
X13916666Y-120500000D01*
X13964285Y-120452380D01*
X13964285Y-120547619D01*
X13059523Y-121452380D02*
X13059523Y-120928571D01*
X13107142Y-120833333D01*
X13202380Y-120785714D01*
X13392857Y-120785714D01*
X13488095Y-120833333D01*
X13059523Y-121404761D02*
X13154761Y-121452380D01*
X13392857Y-121452380D01*
X13488095Y-121404761D01*
X13535714Y-121309523D01*
X13535714Y-121214285D01*
X13488095Y-121119047D01*
X13392857Y-121071428D01*
X13154761Y-121071428D01*
X13059523Y-121023809D01*
X12154761Y-121404761D02*
X12250000Y-121452380D01*
X12440476Y-121452380D01*
X12535714Y-121404761D01*
X12583333Y-121357142D01*
X12630952Y-121261904D01*
X12630952Y-120976190D01*
X12583333Y-120880952D01*
X12535714Y-120833333D01*
X12440476Y-120785714D01*
X12250000Y-120785714D01*
X12154761Y-120833333D01*
X11726190Y-121452380D02*
X11726190Y-120452380D01*
X11630952Y-121071428D02*
X11345238Y-121452380D01*
X11345238Y-120785714D02*
X11726190Y-121166666D01*
X10202380Y-121404761D02*
X10107142Y-121452380D01*
X9916666Y-121452380D01*
X9821428Y-121404761D01*
X9773809Y-121309523D01*
X9773809Y-121261904D01*
X9821428Y-121166666D01*
X9916666Y-121119047D01*
X10059523Y-121119047D01*
X10154761Y-121071428D01*
X10202380Y-120976190D01*
X10202380Y-120928571D01*
X10154761Y-120833333D01*
X10059523Y-120785714D01*
X9916666Y-120785714D01*
X9821428Y-120833333D01*
X9345238Y-121357142D02*
X9297619Y-121404761D01*
X9345238Y-121452380D01*
X9392857Y-121404761D01*
X9345238Y-121357142D01*
X9345238Y-121452380D01*
X8154761Y-120547619D02*
X8107142Y-120500000D01*
X8011904Y-120452380D01*
X7773809Y-120452380D01*
X7678571Y-120500000D01*
X7630952Y-120547619D01*
X7583333Y-120642857D01*
X7583333Y-120738095D01*
X7630952Y-120880952D01*
X8202380Y-121452380D01*
X7583333Y-121452380D01*
X6964285Y-120452380D02*
X6869047Y-120452380D01*
X6773809Y-120500000D01*
X6726190Y-120547619D01*
X6678571Y-120642857D01*
X6630952Y-120833333D01*
X6630952Y-121071428D01*
X6678571Y-121261904D01*
X6726190Y-121357142D01*
X6773809Y-121404761D01*
X6869047Y-121452380D01*
X6964285Y-121452380D01*
X7059523Y-121404761D01*
X7107142Y-121357142D01*
X7154761Y-121261904D01*
X7202380Y-121071428D01*
X7202380Y-120833333D01*
X7154761Y-120642857D01*
X7107142Y-120547619D01*
X7059523Y-120500000D01*
X6964285Y-120452380D01*
X6250000Y-120547619D02*
X6202380Y-120500000D01*
X6107142Y-120452380D01*
X5869047Y-120452380D01*
X5773809Y-120500000D01*
X5726190Y-120547619D01*
X5678571Y-120642857D01*
X5678571Y-120738095D01*
X5726190Y-120880952D01*
X6297619Y-121452380D01*
X5678571Y-121452380D01*
X4726190Y-121452380D02*
X5297619Y-121452380D01*
X5011904Y-121452380D02*
X5011904Y-120452380D01*
X5107142Y-120595238D01*
X5202380Y-120690476D01*
X5297619Y-120738095D01*
D10*
X11000000Y-104000000D02*
G75*
G03X11000000Y-104000000I-3500000J0D01*
G01*
X23000000Y-104000000D02*
G75*
G03X23000000Y-104000000I-3500000J0D01*
G01*
X35000000Y-104000000D02*
G75*
G03X35000000Y-104000000I-3500000J0D01*
G01*
D12*
G36*
X44104975Y-100958585D02*
G01*
X44404528Y-101018170D01*
X44968874Y-101251930D01*
X45476772Y-101591296D01*
X45908704Y-102023228D01*
X46248070Y-102531126D01*
X46481830Y-103095472D01*
X46601000Y-103694578D01*
X46601000Y-104305422D01*
X46481830Y-104904528D01*
X46248070Y-105468874D01*
X45908704Y-105976772D01*
X45476772Y-106408704D01*
X44968874Y-106748070D01*
X44404528Y-106981830D01*
X44104975Y-107041415D01*
X43805423Y-107101000D01*
X43194577Y-107101000D01*
X42895025Y-107041415D01*
X42595472Y-106981830D01*
X42031126Y-106748070D01*
X41523228Y-106408704D01*
X41091296Y-105976772D01*
X40751930Y-105468874D01*
X40518170Y-104904528D01*
X40399000Y-104305422D01*
X40399000Y-103694578D01*
X40518170Y-103095472D01*
X40751930Y-102531126D01*
X41091296Y-102023228D01*
X41523228Y-101591296D01*
X42031126Y-101251930D01*
X42595472Y-101018170D01*
X42895025Y-100958585D01*
X43194577Y-100899000D01*
X43805423Y-100899000D01*
X44104975Y-100958585D01*
G37*
G36*
X32104975Y-100958585D02*
G01*
X32404528Y-101018170D01*
X32968874Y-101251930D01*
X33476772Y-101591296D01*
X33908704Y-102023228D01*
X34248070Y-102531126D01*
X34481830Y-103095472D01*
X34601000Y-103694578D01*
X34601000Y-104305422D01*
X34481830Y-104904528D01*
X34248070Y-105468874D01*
X33908704Y-105976772D01*
X33476772Y-106408704D01*
X32968874Y-106748070D01*
X32404528Y-106981830D01*
X32104975Y-107041415D01*
X31805423Y-107101000D01*
X31194577Y-107101000D01*
X30895025Y-107041415D01*
X30595472Y-106981830D01*
X30031126Y-106748070D01*
X29523228Y-106408704D01*
X29091296Y-105976772D01*
X28751930Y-105468874D01*
X28518170Y-104904528D01*
X28399000Y-104305422D01*
X28399000Y-103694578D01*
X28518170Y-103095472D01*
X28751930Y-102531126D01*
X29091296Y-102023228D01*
X29523228Y-101591296D01*
X30031126Y-101251930D01*
X30595472Y-101018170D01*
X30895025Y-100958585D01*
X31194577Y-100899000D01*
X31805423Y-100899000D01*
X32104975Y-100958585D01*
G37*
G36*
X20104975Y-100958585D02*
G01*
X20404528Y-101018170D01*
X20968874Y-101251930D01*
X21476772Y-101591296D01*
X21908704Y-102023228D01*
X22248070Y-102531126D01*
X22481830Y-103095472D01*
X22601000Y-103694578D01*
X22601000Y-104305422D01*
X22481830Y-104904528D01*
X22248070Y-105468874D01*
X21908704Y-105976772D01*
X21476772Y-106408704D01*
X20968874Y-106748070D01*
X20404528Y-106981830D01*
X20104975Y-107041415D01*
X19805423Y-107101000D01*
X19194577Y-107101000D01*
X18895025Y-107041415D01*
X18595472Y-106981830D01*
X18031126Y-106748070D01*
X17523228Y-106408704D01*
X17091296Y-105976772D01*
X16751930Y-105468874D01*
X16518170Y-104904528D01*
X16399000Y-104305422D01*
X16399000Y-103694578D01*
X16518170Y-103095472D01*
X16751930Y-102531126D01*
X17091296Y-102023228D01*
X17523228Y-101591296D01*
X18031126Y-101251930D01*
X18595472Y-101018170D01*
X18895025Y-100958585D01*
X19194577Y-100899000D01*
X19805423Y-100899000D01*
X20104975Y-100958585D01*
G37*
G36*
X8104975Y-100958585D02*
G01*
X8404528Y-101018170D01*
X8968874Y-101251930D01*
X9476772Y-101591296D01*
X9908704Y-102023228D01*
X10248070Y-102531126D01*
X10481830Y-103095472D01*
X10601000Y-103694578D01*
X10601000Y-104305422D01*
X10481830Y-104904528D01*
X10248070Y-105468874D01*
X9908704Y-105976772D01*
X9476772Y-106408704D01*
X8968874Y-106748070D01*
X8404528Y-106981830D01*
X8104975Y-107041415D01*
X7805423Y-107101000D01*
X7194577Y-107101000D01*
X6895025Y-107041415D01*
X6595472Y-106981830D01*
X6031126Y-106748070D01*
X5523228Y-106408704D01*
X5091296Y-105976772D01*
X4751930Y-105468874D01*
X4518170Y-104904528D01*
X4399000Y-104305422D01*
X4399000Y-103694578D01*
X4518170Y-103095472D01*
X4751930Y-102531126D01*
X5091296Y-102023228D01*
X5523228Y-101591296D01*
X6031126Y-101251930D01*
X6595472Y-101018170D01*
X6895025Y-100958585D01*
X7194577Y-100899000D01*
X7805423Y-100899000D01*
X8104975Y-100958585D01*
G37*
G36*
X9104975Y-83708585D02*
G01*
X9404528Y-83768170D01*
X9968874Y-84001930D01*
X10476772Y-84341296D01*
X10908704Y-84773228D01*
X11248070Y-85281126D01*
X11481830Y-85845472D01*
X11601000Y-86444578D01*
X11601000Y-87055422D01*
X11481830Y-87654528D01*
X11248070Y-88218874D01*
X10908704Y-88726772D01*
X10476772Y-89158704D01*
X9968874Y-89498070D01*
X9404528Y-89731830D01*
X9104975Y-89791415D01*
X8805423Y-89851000D01*
X8194577Y-89851000D01*
X7895025Y-89791415D01*
X7595472Y-89731830D01*
X7031126Y-89498070D01*
X6523228Y-89158704D01*
X6091296Y-88726772D01*
X5751930Y-88218874D01*
X5518170Y-87654528D01*
X5399000Y-87055422D01*
X5399000Y-86444578D01*
X5518170Y-85845472D01*
X5751930Y-85281126D01*
X6091296Y-84773228D01*
X6523228Y-84341296D01*
X7031126Y-84001930D01*
X7595472Y-83768170D01*
X7895025Y-83708585D01*
X8194577Y-83649000D01*
X8805423Y-83649000D01*
X9104975Y-83708585D01*
G37*
G36*
X9104975Y-41708585D02*
G01*
X9404528Y-41768170D01*
X9968874Y-42001930D01*
X10476772Y-42341296D01*
X10908704Y-42773228D01*
X11248070Y-43281126D01*
X11481830Y-43845472D01*
X11601000Y-44444578D01*
X11601000Y-45055422D01*
X11481830Y-45654528D01*
X11248070Y-46218874D01*
X10908704Y-46726772D01*
X10476772Y-47158704D01*
X9968874Y-47498070D01*
X9404528Y-47731830D01*
X9104975Y-47791415D01*
X8805423Y-47851000D01*
X8194577Y-47851000D01*
X7895025Y-47791415D01*
X7595472Y-47731830D01*
X7031126Y-47498070D01*
X6523228Y-47158704D01*
X6091296Y-46726772D01*
X5751930Y-46218874D01*
X5518170Y-45654528D01*
X5399000Y-45055422D01*
X5399000Y-44444578D01*
X5518170Y-43845472D01*
X5751930Y-43281126D01*
X6091296Y-42773228D01*
X6523228Y-42341296D01*
X7031126Y-42001930D01*
X7595472Y-41768170D01*
X7895025Y-41708585D01*
X8194577Y-41649000D01*
X8805423Y-41649000D01*
X9104975Y-41708585D01*
G37*
G36*
X9104975Y-20458585D02*
G01*
X9404528Y-20518170D01*
X9968874Y-20751930D01*
X10476772Y-21091296D01*
X10908704Y-21523228D01*
X11248070Y-22031126D01*
X11481830Y-22595472D01*
X11601000Y-23194578D01*
X11601000Y-23805422D01*
X11481830Y-24404528D01*
X11248070Y-24968874D01*
X10908704Y-25476772D01*
X10476772Y-25908704D01*
X9968874Y-26248070D01*
X9404528Y-26481830D01*
X9104975Y-26541415D01*
X8805423Y-26601000D01*
X8194577Y-26601000D01*
X7895025Y-26541415D01*
X7595472Y-26481830D01*
X7031126Y-26248070D01*
X6523228Y-25908704D01*
X6091296Y-25476772D01*
X5751930Y-24968874D01*
X5518170Y-24404528D01*
X5399000Y-23805422D01*
X5399000Y-23194578D01*
X5518170Y-22595472D01*
X5751930Y-22031126D01*
X6091296Y-21523228D01*
X6523228Y-21091296D01*
X7031126Y-20751930D01*
X7595472Y-20518170D01*
X7895025Y-20458585D01*
X8194577Y-20399000D01*
X8805423Y-20399000D01*
X9104975Y-20458585D01*
G37*
M02*
