G04 #@! TF.GenerationSoftware,KiCad,Pcbnew,(5.1.5-0)*
G04 #@! TF.CreationDate,2021-01-20T17:48:20-08:00*
G04 #@! TF.ProjectId,vcadsr,76636164-7372-42e6-9b69-6361645f7063,rev?*
G04 #@! TF.SameCoordinates,Original*
G04 #@! TF.FileFunction,Legend,Top*
G04 #@! TF.FilePolarity,Positive*
%FSLAX46Y46*%
G04 Gerber Fmt 4.6, Leading zero omitted, Abs format (unit mm)*
G04 Created by KiCad (PCBNEW (5.1.5-0)) date 2021-01-20 17:48:20*
%MOMM*%
%LPD*%
G04 APERTURE LIST*
%ADD10C,0.300000*%
G04 APERTURE END LIST*
D10*
X3880952Y-18083333D02*
X4833333Y-18083333D01*
X3690476Y-18654761D02*
X4357142Y-16654761D01*
X5023809Y-18654761D01*
X5404761Y-16654761D02*
X6547619Y-16654761D01*
X5976190Y-18654761D02*
X5976190Y-16654761D01*
X6928571Y-16654761D02*
X8071428Y-16654761D01*
X7500000Y-18654761D02*
X7500000Y-16654761D01*
X11404761Y-18464285D02*
X11309523Y-18559523D01*
X11023809Y-18654761D01*
X10833333Y-18654761D01*
X10547619Y-18559523D01*
X10357142Y-18369047D01*
X10261904Y-18178571D01*
X10166666Y-17797619D01*
X10166666Y-17511904D01*
X10261904Y-17130952D01*
X10357142Y-16940476D01*
X10547619Y-16750000D01*
X10833333Y-16654761D01*
X11023809Y-16654761D01*
X11309523Y-16750000D01*
X11404761Y-16845238D01*
X11976190Y-16654761D02*
X12642857Y-18654761D01*
X13309523Y-16654761D01*
X20630952Y-15083333D02*
X21583333Y-15083333D01*
X20440476Y-15654761D02*
X21107142Y-13654761D01*
X21773809Y-15654761D01*
X22154761Y-13654761D02*
X23297619Y-13654761D01*
X22726190Y-15654761D02*
X22726190Y-13654761D01*
X23678571Y-13654761D02*
X24821428Y-13654761D01*
X24250000Y-15654761D02*
X24250000Y-13654761D01*
X28154761Y-15464285D02*
X28059523Y-15559523D01*
X27773809Y-15654761D01*
X27583333Y-15654761D01*
X27297619Y-15559523D01*
X27107142Y-15369047D01*
X27011904Y-15178571D01*
X26916666Y-14797619D01*
X26916666Y-14511904D01*
X27011904Y-14130952D01*
X27107142Y-13940476D01*
X27297619Y-13750000D01*
X27583333Y-13654761D01*
X27773809Y-13654761D01*
X28059523Y-13750000D01*
X28154761Y-13845238D01*
X28726190Y-13654761D02*
X29392857Y-15654761D01*
X30059523Y-13654761D01*
X36142857Y-15083333D02*
X37095238Y-15083333D01*
X35952380Y-15654761D02*
X36619047Y-13654761D01*
X37285714Y-15654761D01*
X37666666Y-13654761D02*
X38809523Y-13654761D01*
X38238095Y-15654761D02*
X38238095Y-13654761D01*
X39190476Y-13654761D02*
X40333333Y-13654761D01*
X39761904Y-15654761D02*
X39761904Y-13654761D01*
X40904761Y-15083333D02*
X41857142Y-15083333D01*
X40714285Y-15654761D02*
X41380952Y-13654761D01*
X42047619Y-15654761D01*
X43857142Y-15464285D02*
X43761904Y-15559523D01*
X43476190Y-15654761D01*
X43285714Y-15654761D01*
X43000000Y-15559523D01*
X42809523Y-15369047D01*
X42714285Y-15178571D01*
X42619047Y-14797619D01*
X42619047Y-14511904D01*
X42714285Y-14130952D01*
X42809523Y-13940476D01*
X43000000Y-13750000D01*
X43285714Y-13654761D01*
X43476190Y-13654761D01*
X43761904Y-13750000D01*
X43857142Y-13845238D01*
X44714285Y-15654761D02*
X44714285Y-13654761D01*
X45857142Y-15654761D02*
X45000000Y-14511904D01*
X45857142Y-13654761D02*
X44714285Y-14797619D01*
X3202380Y-39654761D02*
X3202380Y-37654761D01*
X3678571Y-37654761D01*
X3964285Y-37750000D01*
X4154761Y-37940476D01*
X4250000Y-38130952D01*
X4345238Y-38511904D01*
X4345238Y-38797619D01*
X4250000Y-39178571D01*
X4154761Y-39369047D01*
X3964285Y-39559523D01*
X3678571Y-39654761D01*
X3202380Y-39654761D01*
X5202380Y-38607142D02*
X5869047Y-38607142D01*
X6154761Y-39654761D02*
X5202380Y-39654761D01*
X5202380Y-37654761D01*
X6154761Y-37654761D01*
X8154761Y-39464285D02*
X8059523Y-39559523D01*
X7773809Y-39654761D01*
X7583333Y-39654761D01*
X7297619Y-39559523D01*
X7107142Y-39369047D01*
X7011904Y-39178571D01*
X6916666Y-38797619D01*
X6916666Y-38511904D01*
X7011904Y-38130952D01*
X7107142Y-37940476D01*
X7297619Y-37750000D01*
X7583333Y-37654761D01*
X7773809Y-37654761D01*
X8059523Y-37750000D01*
X8154761Y-37845238D01*
X11678571Y-39464285D02*
X11583333Y-39559523D01*
X11297619Y-39654761D01*
X11107142Y-39654761D01*
X10821428Y-39559523D01*
X10630952Y-39369047D01*
X10535714Y-39178571D01*
X10440476Y-38797619D01*
X10440476Y-38511904D01*
X10535714Y-38130952D01*
X10630952Y-37940476D01*
X10821428Y-37750000D01*
X11107142Y-37654761D01*
X11297619Y-37654761D01*
X11583333Y-37750000D01*
X11678571Y-37845238D01*
X12250000Y-37654761D02*
X12916666Y-39654761D01*
X13583333Y-37654761D01*
X20202380Y-36904761D02*
X20202380Y-34904761D01*
X20678571Y-34904761D01*
X20964285Y-35000000D01*
X21154761Y-35190476D01*
X21250000Y-35380952D01*
X21345238Y-35761904D01*
X21345238Y-36047619D01*
X21250000Y-36428571D01*
X21154761Y-36619047D01*
X20964285Y-36809523D01*
X20678571Y-36904761D01*
X20202380Y-36904761D01*
X22202380Y-35857142D02*
X22869047Y-35857142D01*
X23154761Y-36904761D02*
X22202380Y-36904761D01*
X22202380Y-34904761D01*
X23154761Y-34904761D01*
X25154761Y-36714285D02*
X25059523Y-36809523D01*
X24773809Y-36904761D01*
X24583333Y-36904761D01*
X24297619Y-36809523D01*
X24107142Y-36619047D01*
X24011904Y-36428571D01*
X23916666Y-36047619D01*
X23916666Y-35761904D01*
X24011904Y-35380952D01*
X24107142Y-35190476D01*
X24297619Y-35000000D01*
X24583333Y-34904761D01*
X24773809Y-34904761D01*
X25059523Y-35000000D01*
X25154761Y-35095238D01*
X28678571Y-36714285D02*
X28583333Y-36809523D01*
X28297619Y-36904761D01*
X28107142Y-36904761D01*
X27821428Y-36809523D01*
X27630952Y-36619047D01*
X27535714Y-36428571D01*
X27440476Y-36047619D01*
X27440476Y-35761904D01*
X27535714Y-35380952D01*
X27630952Y-35190476D01*
X27821428Y-35000000D01*
X28107142Y-34904761D01*
X28297619Y-34904761D01*
X28583333Y-35000000D01*
X28678571Y-35095238D01*
X29250000Y-34904761D02*
X29916666Y-36904761D01*
X30583333Y-34904761D01*
X36857142Y-36904761D02*
X36857142Y-34904761D01*
X37333333Y-34904761D01*
X37619047Y-35000000D01*
X37809523Y-35190476D01*
X37904761Y-35380952D01*
X38000000Y-35761904D01*
X38000000Y-36047619D01*
X37904761Y-36428571D01*
X37809523Y-36619047D01*
X37619047Y-36809523D01*
X37333333Y-36904761D01*
X36857142Y-36904761D01*
X38857142Y-35857142D02*
X39523809Y-35857142D01*
X39809523Y-36904761D02*
X38857142Y-36904761D01*
X38857142Y-34904761D01*
X39809523Y-34904761D01*
X41809523Y-36714285D02*
X41714285Y-36809523D01*
X41428571Y-36904761D01*
X41238095Y-36904761D01*
X40952380Y-36809523D01*
X40761904Y-36619047D01*
X40666666Y-36428571D01*
X40571428Y-36047619D01*
X40571428Y-35761904D01*
X40666666Y-35380952D01*
X40761904Y-35190476D01*
X40952380Y-35000000D01*
X41238095Y-34904761D01*
X41428571Y-34904761D01*
X41714285Y-35000000D01*
X41809523Y-35095238D01*
X42571428Y-36333333D02*
X43523809Y-36333333D01*
X42380952Y-36904761D02*
X43047619Y-34904761D01*
X43714285Y-36904761D01*
X44761904Y-35952380D02*
X44761904Y-36904761D01*
X44095238Y-34904761D02*
X44761904Y-35952380D01*
X45428571Y-34904761D01*
X35285714Y-57809523D02*
X35571428Y-57904761D01*
X36047619Y-57904761D01*
X36238095Y-57809523D01*
X36333333Y-57714285D01*
X36428571Y-57523809D01*
X36428571Y-57333333D01*
X36333333Y-57142857D01*
X36238095Y-57047619D01*
X36047619Y-56952380D01*
X35666666Y-56857142D01*
X35476190Y-56761904D01*
X35380952Y-56666666D01*
X35285714Y-56476190D01*
X35285714Y-56285714D01*
X35380952Y-56095238D01*
X35476190Y-56000000D01*
X35666666Y-55904761D01*
X36142857Y-55904761D01*
X36428571Y-56000000D01*
X37285714Y-55904761D02*
X37285714Y-57523809D01*
X37380952Y-57714285D01*
X37476190Y-57809523D01*
X37666666Y-57904761D01*
X38047619Y-57904761D01*
X38238095Y-57809523D01*
X38333333Y-57714285D01*
X38428571Y-57523809D01*
X38428571Y-55904761D01*
X39285714Y-57809523D02*
X39571428Y-57904761D01*
X40047619Y-57904761D01*
X40238095Y-57809523D01*
X40333333Y-57714285D01*
X40428571Y-57523809D01*
X40428571Y-57333333D01*
X40333333Y-57142857D01*
X40238095Y-57047619D01*
X40047619Y-56952380D01*
X39666666Y-56857142D01*
X39476190Y-56761904D01*
X39380952Y-56666666D01*
X39285714Y-56476190D01*
X39285714Y-56285714D01*
X39380952Y-56095238D01*
X39476190Y-56000000D01*
X39666666Y-55904761D01*
X40142857Y-55904761D01*
X40428571Y-56000000D01*
X41000000Y-55904761D02*
X42142857Y-55904761D01*
X41571428Y-57904761D02*
X41571428Y-55904761D01*
X42714285Y-57333333D02*
X43666666Y-57333333D01*
X42523809Y-57904761D02*
X43190476Y-55904761D01*
X43857142Y-57904761D01*
X44523809Y-57904761D02*
X44523809Y-55904761D01*
X45476190Y-57904761D02*
X45476190Y-55904761D01*
X46619047Y-57904761D01*
X46619047Y-55904761D01*
X41250000Y-96904761D02*
X41630952Y-96904761D01*
X41821428Y-97000000D01*
X42011904Y-97190476D01*
X42107142Y-97571428D01*
X42107142Y-98238095D01*
X42011904Y-98619047D01*
X41821428Y-98809523D01*
X41630952Y-98904761D01*
X41250000Y-98904761D01*
X41059523Y-98809523D01*
X40869047Y-98619047D01*
X40773809Y-98238095D01*
X40773809Y-97571428D01*
X40869047Y-97190476D01*
X41059523Y-97000000D01*
X41250000Y-96904761D01*
X42964285Y-96904761D02*
X42964285Y-98523809D01*
X43059523Y-98714285D01*
X43154761Y-98809523D01*
X43345238Y-98904761D01*
X43726190Y-98904761D01*
X43916666Y-98809523D01*
X44011904Y-98714285D01*
X44107142Y-98523809D01*
X44107142Y-96904761D01*
X44773809Y-96904761D02*
X45916666Y-96904761D01*
X45345238Y-98904761D02*
X45345238Y-96904761D01*
X29595238Y-95754761D02*
X29595238Y-93754761D01*
X30547619Y-95754761D02*
X30547619Y-93754761D01*
X31690476Y-95754761D01*
X31690476Y-93754761D01*
X32357142Y-93754761D02*
X33023809Y-95754761D01*
X33690476Y-93754761D01*
X29500000Y-97054761D02*
X29880952Y-97054761D01*
X30071428Y-97150000D01*
X30261904Y-97340476D01*
X30357142Y-97721428D01*
X30357142Y-98388095D01*
X30261904Y-98769047D01*
X30071428Y-98959523D01*
X29880952Y-99054761D01*
X29500000Y-99054761D01*
X29309523Y-98959523D01*
X29119047Y-98769047D01*
X29023809Y-98388095D01*
X29023809Y-97721428D01*
X29119047Y-97340476D01*
X29309523Y-97150000D01*
X29500000Y-97054761D01*
X31214285Y-97054761D02*
X31214285Y-98673809D01*
X31309523Y-98864285D01*
X31404761Y-98959523D01*
X31595238Y-99054761D01*
X31976190Y-99054761D01*
X32166666Y-98959523D01*
X32261904Y-98864285D01*
X32357142Y-98673809D01*
X32357142Y-97054761D01*
X33023809Y-97054761D02*
X34166666Y-97054761D01*
X33595238Y-99054761D02*
X33595238Y-97054761D01*
X16702380Y-96904761D02*
X17845238Y-96904761D01*
X17273809Y-98904761D02*
X17273809Y-96904761D01*
X19654761Y-98904761D02*
X18988095Y-97952380D01*
X18511904Y-98904761D02*
X18511904Y-96904761D01*
X19273809Y-96904761D01*
X19464285Y-97000000D01*
X19559523Y-97095238D01*
X19654761Y-97285714D01*
X19654761Y-97571428D01*
X19559523Y-97761904D01*
X19464285Y-97857142D01*
X19273809Y-97952380D01*
X18511904Y-97952380D01*
X20511904Y-98904761D02*
X20511904Y-96904761D01*
X22511904Y-97000000D02*
X22321428Y-96904761D01*
X22035714Y-96904761D01*
X21750000Y-97000000D01*
X21559523Y-97190476D01*
X21464285Y-97380952D01*
X21369047Y-97761904D01*
X21369047Y-98047619D01*
X21464285Y-98428571D01*
X21559523Y-98619047D01*
X21750000Y-98809523D01*
X22035714Y-98904761D01*
X22226190Y-98904761D01*
X22511904Y-98809523D01*
X22607142Y-98714285D01*
X22607142Y-98047619D01*
X22226190Y-98047619D01*
X5250000Y-97000000D02*
X5059523Y-96904761D01*
X4773809Y-96904761D01*
X4488095Y-97000000D01*
X4297619Y-97190476D01*
X4202380Y-97380952D01*
X4107142Y-97761904D01*
X4107142Y-98047619D01*
X4202380Y-98428571D01*
X4297619Y-98619047D01*
X4488095Y-98809523D01*
X4773809Y-98904761D01*
X4964285Y-98904761D01*
X5250000Y-98809523D01*
X5345238Y-98714285D01*
X5345238Y-98047619D01*
X4964285Y-98047619D01*
X6107142Y-98333333D02*
X7059523Y-98333333D01*
X5916666Y-98904761D02*
X6583333Y-96904761D01*
X7250000Y-98904761D01*
X7630952Y-96904761D02*
X8773809Y-96904761D01*
X8202380Y-98904761D02*
X8202380Y-96904761D01*
X9440476Y-97857142D02*
X10107142Y-97857142D01*
X10392857Y-98904761D02*
X9440476Y-98904761D01*
X9440476Y-96904761D01*
X10392857Y-96904761D01*
X36535714Y-78904761D02*
X35869047Y-77952380D01*
X35392857Y-78904761D02*
X35392857Y-76904761D01*
X36154761Y-76904761D01*
X36345238Y-77000000D01*
X36440476Y-77095238D01*
X36535714Y-77285714D01*
X36535714Y-77571428D01*
X36440476Y-77761904D01*
X36345238Y-77857142D01*
X36154761Y-77952380D01*
X35392857Y-77952380D01*
X37392857Y-77857142D02*
X38059523Y-77857142D01*
X38345238Y-78904761D02*
X37392857Y-78904761D01*
X37392857Y-76904761D01*
X38345238Y-76904761D01*
X40154761Y-78904761D02*
X39202380Y-78904761D01*
X39202380Y-76904761D01*
X40821428Y-77857142D02*
X41488095Y-77857142D01*
X41773809Y-78904761D02*
X40821428Y-78904761D01*
X40821428Y-76904761D01*
X41773809Y-76904761D01*
X42535714Y-78333333D02*
X43488095Y-78333333D01*
X42345238Y-78904761D02*
X43011904Y-76904761D01*
X43678571Y-78904761D01*
X44250000Y-78809523D02*
X44535714Y-78904761D01*
X45011904Y-78904761D01*
X45202380Y-78809523D01*
X45297619Y-78714285D01*
X45392857Y-78523809D01*
X45392857Y-78333333D01*
X45297619Y-78142857D01*
X45202380Y-78047619D01*
X45011904Y-77952380D01*
X44630952Y-77857142D01*
X44440476Y-77761904D01*
X44345238Y-77666666D01*
X44250000Y-77476190D01*
X44250000Y-77285714D01*
X44345238Y-77095238D01*
X44440476Y-77000000D01*
X44630952Y-76904761D01*
X45107142Y-76904761D01*
X45392857Y-77000000D01*
X46250000Y-77857142D02*
X46916666Y-77857142D01*
X47202380Y-78904761D02*
X46250000Y-78904761D01*
X46250000Y-76904761D01*
X47202380Y-76904761D01*
X21285714Y-78904761D02*
X20619047Y-77952380D01*
X20142857Y-78904761D02*
X20142857Y-76904761D01*
X20904761Y-76904761D01*
X21095238Y-77000000D01*
X21190476Y-77095238D01*
X21285714Y-77285714D01*
X21285714Y-77571428D01*
X21190476Y-77761904D01*
X21095238Y-77857142D01*
X20904761Y-77952380D01*
X20142857Y-77952380D01*
X22142857Y-77857142D02*
X22809523Y-77857142D01*
X23095238Y-78904761D02*
X22142857Y-78904761D01*
X22142857Y-76904761D01*
X23095238Y-76904761D01*
X24904761Y-78904761D02*
X23952380Y-78904761D01*
X23952380Y-76904761D01*
X28238095Y-78714285D02*
X28142857Y-78809523D01*
X27857142Y-78904761D01*
X27666666Y-78904761D01*
X27380952Y-78809523D01*
X27190476Y-78619047D01*
X27095238Y-78428571D01*
X27000000Y-78047619D01*
X27000000Y-77761904D01*
X27095238Y-77380952D01*
X27190476Y-77190476D01*
X27380952Y-77000000D01*
X27666666Y-76904761D01*
X27857142Y-76904761D01*
X28142857Y-77000000D01*
X28238095Y-77095238D01*
X28809523Y-76904761D02*
X29476190Y-78904761D01*
X30142857Y-76904761D01*
X4035714Y-81654761D02*
X3369047Y-80702380D01*
X2892857Y-81654761D02*
X2892857Y-79654761D01*
X3654761Y-79654761D01*
X3845238Y-79750000D01*
X3940476Y-79845238D01*
X4035714Y-80035714D01*
X4035714Y-80321428D01*
X3940476Y-80511904D01*
X3845238Y-80607142D01*
X3654761Y-80702380D01*
X2892857Y-80702380D01*
X4892857Y-80607142D02*
X5559523Y-80607142D01*
X5845238Y-81654761D02*
X4892857Y-81654761D01*
X4892857Y-79654761D01*
X5845238Y-79654761D01*
X7654761Y-81654761D02*
X6702380Y-81654761D01*
X6702380Y-79654761D01*
X10988095Y-81464285D02*
X10892857Y-81559523D01*
X10607142Y-81654761D01*
X10416666Y-81654761D01*
X10130952Y-81559523D01*
X9940476Y-81369047D01*
X9845238Y-81178571D01*
X9750000Y-80797619D01*
X9750000Y-80511904D01*
X9845238Y-80130952D01*
X9940476Y-79940476D01*
X10130952Y-79750000D01*
X10416666Y-79654761D01*
X10607142Y-79654761D01*
X10892857Y-79750000D01*
X10988095Y-79845238D01*
X11559523Y-79654761D02*
X12226190Y-81654761D01*
X12892857Y-79654761D01*
X12773809Y-1309523D02*
X14107142Y-5309523D01*
X15440476Y-1309523D01*
X19059523Y-4928571D02*
X18869047Y-5119047D01*
X18297619Y-5309523D01*
X17916666Y-5309523D01*
X17345238Y-5119047D01*
X16964285Y-4738095D01*
X16773809Y-4357142D01*
X16583333Y-3595238D01*
X16583333Y-3023809D01*
X16773809Y-2261904D01*
X16964285Y-1880952D01*
X17345238Y-1500000D01*
X17916666Y-1309523D01*
X18297619Y-1309523D01*
X18869047Y-1500000D01*
X19059523Y-1690476D01*
X23630952Y-4166666D02*
X25535714Y-4166666D01*
X23250000Y-5309523D02*
X24583333Y-1309523D01*
X25916666Y-5309523D01*
X27249999Y-5309523D02*
X27249999Y-1309523D01*
X28202380Y-1309523D01*
X28773809Y-1500000D01*
X29154761Y-1880952D01*
X29345238Y-2261904D01*
X29535714Y-3023809D01*
X29535714Y-3595238D01*
X29345238Y-4357142D01*
X29154761Y-4738095D01*
X28773809Y-5119047D01*
X28202380Y-5309523D01*
X27249999Y-5309523D01*
X31059523Y-5119047D02*
X31630952Y-5309523D01*
X32583333Y-5309523D01*
X32964285Y-5119047D01*
X33154761Y-4928571D01*
X33345238Y-4547619D01*
X33345238Y-4166666D01*
X33154761Y-3785714D01*
X32964285Y-3595238D01*
X32583333Y-3404761D01*
X31821428Y-3214285D01*
X31440476Y-3023809D01*
X31249999Y-2833333D01*
X31059523Y-2452380D01*
X31059523Y-2071428D01*
X31249999Y-1690476D01*
X31440476Y-1500000D01*
X31821428Y-1309523D01*
X32773809Y-1309523D01*
X33345238Y-1500000D01*
X37345238Y-5309523D02*
X36011904Y-3404761D01*
X35059523Y-5309523D02*
X35059523Y-1309523D01*
X36583333Y-1309523D01*
X36964285Y-1500000D01*
X37154761Y-1690476D01*
X37345238Y-2071428D01*
X37345238Y-2642857D01*
X37154761Y-3023809D01*
X36964285Y-3214285D01*
X36583333Y-3404761D01*
X35059523Y-3404761D01*
M02*
