G04 #@! TF.GenerationSoftware,KiCad,Pcbnew,(5.1.5-0)*
G04 #@! TF.CreationDate,2021-01-12T22:55:02-08:00*
G04 #@! TF.ProjectId,statues,73746174-7565-4732-9e6b-696361645f70,rev?*
G04 #@! TF.SameCoordinates,Original*
G04 #@! TF.FileFunction,Soldermask,Top*
G04 #@! TF.FilePolarity,Negative*
%FSLAX46Y46*%
G04 Gerber Fmt 4.6, Leading zero omitted, Abs format (unit mm)*
G04 Created by KiCad (PCBNEW (5.1.5-0)) date 2021-01-12 22:55:02*
%MOMM*%
%LPD*%
G04 APERTURE LIST*
%ADD10C,1.000000*%
%ADD11C,0.100000*%
%ADD12C,0.000002*%
%ADD13C,0.001000*%
G04 APERTURE END LIST*
D10*
X20750000Y-205500000D02*
X28500000Y-211000000D01*
X20750000Y-193500000D02*
X28250000Y-199250000D01*
X20750000Y-181500000D02*
X28500000Y-187250000D01*
X20750000Y-169500000D02*
X28500000Y-175250000D01*
X20750000Y-157500000D02*
X28500000Y-163500000D01*
X20500000Y-145500000D02*
X28500000Y-151500000D01*
X20750000Y-133250000D02*
X28500000Y-139250000D01*
X28500000Y-127500000D02*
X21000000Y-121750000D01*
X12500000Y-115500000D02*
X12250000Y-139500000D01*
X28500000Y-127500000D02*
X28500000Y-211250000D01*
X22500000Y-121250000D02*
G75*
G03X22500000Y-121250000I-2000000J0D01*
G01*
X22500000Y-133250000D02*
G75*
G03X22500000Y-133250000I-2000000J0D01*
G01*
X22500000Y-145250000D02*
G75*
G03X22500000Y-145250000I-2000000J0D01*
G01*
X22500000Y-157250000D02*
G75*
G03X22500000Y-157250000I-2000000J0D01*
G01*
X22500000Y-169250000D02*
G75*
G03X22500000Y-169250000I-2000000J0D01*
G01*
X22500000Y-181250000D02*
G75*
G03X22500000Y-181250000I-2000000J0D01*
G01*
X22500000Y-193000000D02*
G75*
G03X22500000Y-193000000I-2000000J0D01*
G01*
X22500000Y-205250000D02*
G75*
G03X22500000Y-205250000I-2000000J0D01*
G01*
D11*
G36*
X20660400Y-223547650D02*
G01*
X21212850Y-223827050D01*
X21539875Y-224154075D01*
X21674813Y-224384263D01*
X21906588Y-224654138D01*
X21600200Y-224570000D01*
X21346200Y-224493800D01*
X21168400Y-224430300D01*
X20793750Y-224296950D01*
X20434975Y-224103275D01*
X20174625Y-223817525D01*
X20050800Y-223655600D01*
X20114300Y-223693700D01*
X20088900Y-223630200D01*
X20152400Y-223458750D01*
X20660400Y-223547650D01*
G37*
X20660400Y-223547650D02*
X21212850Y-223827050D01*
X21539875Y-224154075D01*
X21674813Y-224384263D01*
X21906588Y-224654138D01*
X21600200Y-224570000D01*
X21346200Y-224493800D01*
X21168400Y-224430300D01*
X20793750Y-224296950D01*
X20434975Y-224103275D01*
X20174625Y-223817525D01*
X20050800Y-223655600D01*
X20114300Y-223693700D01*
X20088900Y-223630200D01*
X20152400Y-223458750D01*
X20660400Y-223547650D01*
G36*
X19866650Y-223566700D02*
G01*
X19498350Y-223998500D01*
X19060200Y-224271550D01*
X18679200Y-224411250D01*
X17929900Y-224576350D01*
X18412500Y-224049300D01*
X18806200Y-223782600D01*
X19174500Y-223579400D01*
X19644400Y-223503200D01*
X19669800Y-223503200D01*
X19866650Y-223566700D01*
G37*
X19866650Y-223566700D02*
X19498350Y-223998500D01*
X19060200Y-224271550D01*
X18679200Y-224411250D01*
X17929900Y-224576350D01*
X18412500Y-224049300D01*
X18806200Y-223782600D01*
X19174500Y-223579400D01*
X19644400Y-223503200D01*
X19669800Y-223503200D01*
X19866650Y-223566700D01*
G36*
X23073400Y-222538000D02*
G01*
X23505200Y-222563400D01*
X24083207Y-222573943D01*
X23403600Y-222728500D01*
X22971800Y-222919000D01*
X22628900Y-223134900D01*
X22209800Y-223300000D01*
X21676400Y-223388900D01*
X21231900Y-223414300D01*
X20654050Y-223395250D01*
X20076200Y-223376200D01*
X20012700Y-223300000D01*
X20228600Y-223236500D01*
X20235585Y-223185700D01*
X20551815Y-223058700D01*
X21085850Y-222830100D01*
X21638300Y-222626900D01*
X22032000Y-222512600D01*
X22476500Y-222512600D01*
X23073400Y-222538000D01*
G37*
X23073400Y-222538000D02*
X23505200Y-222563400D01*
X24083207Y-222573943D01*
X23403600Y-222728500D01*
X22971800Y-222919000D01*
X22628900Y-223134900D01*
X22209800Y-223300000D01*
X21676400Y-223388900D01*
X21231900Y-223414300D01*
X20654050Y-223395250D01*
X20076200Y-223376200D01*
X20012700Y-223300000D01*
X20228600Y-223236500D01*
X20235585Y-223185700D01*
X20551815Y-223058700D01*
X21085850Y-222830100D01*
X21638300Y-222626900D01*
X22032000Y-222512600D01*
X22476500Y-222512600D01*
X23073400Y-222538000D01*
G36*
X23060700Y-219883700D02*
G01*
X22819400Y-220379000D01*
X22616200Y-220836200D01*
X22355850Y-221356900D01*
X22082800Y-221712500D01*
X21771650Y-222125250D01*
X21301750Y-222518950D01*
X20800100Y-222855500D01*
X19695200Y-223452400D01*
X19720600Y-223122200D01*
X20025400Y-223071400D01*
X20273050Y-222633250D01*
X20488950Y-222169700D01*
X20654050Y-221839500D01*
X20838200Y-221547400D01*
X21003300Y-221229900D01*
X21282700Y-220874300D01*
X21562100Y-220556800D01*
X21892300Y-220264700D01*
X22235200Y-220036100D01*
X22616200Y-219782100D01*
X23009900Y-219515400D01*
X23543300Y-219121700D01*
X23060700Y-219883700D01*
G37*
X23060700Y-219883700D02*
X22819400Y-220379000D01*
X22616200Y-220836200D01*
X22355850Y-221356900D01*
X22082800Y-221712500D01*
X21771650Y-222125250D01*
X21301750Y-222518950D01*
X20800100Y-222855500D01*
X19695200Y-223452400D01*
X19720600Y-223122200D01*
X20025400Y-223071400D01*
X20273050Y-222633250D01*
X20488950Y-222169700D01*
X20654050Y-221839500D01*
X20838200Y-221547400D01*
X21003300Y-221229900D01*
X21282700Y-220874300D01*
X21562100Y-220556800D01*
X21892300Y-220264700D01*
X22235200Y-220036100D01*
X22616200Y-219782100D01*
X23009900Y-219515400D01*
X23543300Y-219121700D01*
X23060700Y-219883700D01*
G36*
X20215900Y-217750100D02*
G01*
X20317500Y-218232700D01*
X20431800Y-218689900D01*
X20514350Y-219020100D01*
X20577850Y-219401100D01*
X20622300Y-219921800D01*
X20622300Y-220455200D01*
X20571500Y-221039400D01*
X20508000Y-221560100D01*
X20365125Y-222055400D01*
X20066675Y-223071400D01*
X19853950Y-223020600D01*
X19619000Y-222106200D01*
X19445962Y-221242600D01*
X19461837Y-220455200D01*
X19514225Y-219794800D01*
X19676150Y-219020100D01*
X19911100Y-218207300D01*
X20038100Y-217432600D01*
X20101600Y-216911900D01*
X20215900Y-217750100D01*
G37*
X20215900Y-217750100D02*
X20317500Y-218232700D01*
X20431800Y-218689900D01*
X20514350Y-219020100D01*
X20577850Y-219401100D01*
X20622300Y-219921800D01*
X20622300Y-220455200D01*
X20571500Y-221039400D01*
X20508000Y-221560100D01*
X20365125Y-222055400D01*
X20066675Y-223071400D01*
X19853950Y-223020600D01*
X19619000Y-222106200D01*
X19445962Y-221242600D01*
X19461837Y-220455200D01*
X19514225Y-219794800D01*
X19676150Y-219020100D01*
X19911100Y-218207300D01*
X20038100Y-217432600D01*
X20101600Y-216911900D01*
X20215900Y-217750100D01*
G36*
X16596400Y-219324900D02*
G01*
X16913900Y-219566200D01*
X17479050Y-219883700D01*
X18075950Y-220315500D01*
X18450600Y-220696500D01*
X18850650Y-221261650D01*
X19447550Y-222442750D01*
X19746000Y-223007900D01*
X19758700Y-223020600D01*
X19428500Y-223046000D01*
X19326900Y-222995200D01*
X18971300Y-222747550D01*
X18564900Y-222379250D01*
X18234700Y-222030000D01*
X17879100Y-221598200D01*
X17599700Y-221179100D01*
X17409200Y-220925100D01*
X17155200Y-220467900D01*
X16901200Y-220099600D01*
X16659900Y-219680500D01*
X16380500Y-219121700D01*
X16596400Y-219324900D01*
G37*
X16596400Y-219324900D02*
X16913900Y-219566200D01*
X17479050Y-219883700D01*
X18075950Y-220315500D01*
X18450600Y-220696500D01*
X18850650Y-221261650D01*
X19447550Y-222442750D01*
X19746000Y-223007900D01*
X19758700Y-223020600D01*
X19428500Y-223046000D01*
X19326900Y-222995200D01*
X18971300Y-222747550D01*
X18564900Y-222379250D01*
X18234700Y-222030000D01*
X17879100Y-221598200D01*
X17599700Y-221179100D01*
X17409200Y-220925100D01*
X17155200Y-220467900D01*
X16901200Y-220099600D01*
X16659900Y-219680500D01*
X16380500Y-219121700D01*
X16596400Y-219324900D01*
G36*
X18002925Y-222503075D02*
G01*
X18339475Y-222598325D01*
X18603000Y-222690400D01*
X19301500Y-223096800D01*
X19331980Y-223124740D01*
X19339600Y-223109500D01*
X19339600Y-223122200D01*
X19331980Y-223124740D01*
X19250700Y-223287300D01*
X19644400Y-223427000D01*
X19434850Y-223452400D01*
X19041150Y-223477800D01*
X18564900Y-223477800D01*
X18120400Y-223414300D01*
X17637800Y-223300000D01*
X17244100Y-223185700D01*
X16837700Y-222957100D01*
X16520200Y-222728500D01*
X16113800Y-222601500D01*
X16761500Y-222550700D01*
X17294900Y-222512600D01*
X17758450Y-222506250D01*
X18002925Y-222503075D01*
G37*
X18002925Y-222503075D02*
X18339475Y-222598325D01*
X18603000Y-222690400D01*
X19301500Y-223096800D01*
X19331980Y-223124740D01*
X19339600Y-223109500D01*
X19339600Y-223122200D01*
X19331980Y-223124740D01*
X19250700Y-223287300D01*
X19644400Y-223427000D01*
X19434850Y-223452400D01*
X19041150Y-223477800D01*
X18564900Y-223477800D01*
X18120400Y-223414300D01*
X17637800Y-223300000D01*
X17244100Y-223185700D01*
X16837700Y-222957100D01*
X16520200Y-222728500D01*
X16113800Y-222601500D01*
X16761500Y-222550700D01*
X17294900Y-222512600D01*
X17758450Y-222506250D01*
X18002925Y-222503075D01*
G36*
X20000000Y-223084100D02*
G01*
X19788862Y-223277775D01*
X20007937Y-223373025D01*
X20758825Y-223915950D01*
X20577850Y-224011200D01*
X20000000Y-223554000D01*
X20012700Y-224646200D01*
X19898400Y-224506500D01*
X19892050Y-223617500D01*
X19936500Y-223617500D01*
X19555500Y-223401600D01*
X19269750Y-223249200D01*
X19434850Y-222969800D01*
X20000000Y-223084100D01*
G37*
X20000000Y-223084100D02*
X19788862Y-223277775D01*
X20007937Y-223373025D01*
X20758825Y-223915950D01*
X20577850Y-224011200D01*
X20000000Y-223554000D01*
X20012700Y-224646200D01*
X19898400Y-224506500D01*
X19892050Y-223617500D01*
X19936500Y-223617500D01*
X19555500Y-223401600D01*
X19269750Y-223249200D01*
X19434850Y-222969800D01*
X20000000Y-223084100D01*
D12*
X19479586Y-221396968D02*
X19486414Y-221463404D01*
X16060628Y-222585206D02*
G75*
G02X16062745Y-222580474I8833J-1112D01*
G01*
X16062745Y-222580475D02*
G75*
G02X16067170Y-222577659I6961J-6056D01*
G01*
X16067171Y-222577659D02*
G75*
G02X16076272Y-222575641I21302J-74534D01*
G01*
X16119176Y-222569928D02*
X16076272Y-222575641D01*
X16175382Y-222564579D02*
X16119176Y-222569928D01*
X16249523Y-222559059D02*
X16175382Y-222564579D01*
X16350810Y-222552773D02*
X16249523Y-222559059D01*
X16464250Y-222545535D02*
X16350810Y-222552773D01*
X16555159Y-222538329D02*
X16464250Y-222545535D01*
X16635946Y-222530142D02*
X16555159Y-222538329D01*
X16717522Y-222519967D02*
X16635946Y-222530142D01*
X16795588Y-222510763D02*
X16717522Y-222519967D01*
X16894548Y-222501810D02*
X16795588Y-222510763D01*
X17002731Y-222493949D02*
X16894548Y-222501810D01*
X17110022Y-222488039D02*
X17002731Y-222493949D01*
X17158893Y-222485783D02*
X17110022Y-222488039D01*
X17228084Y-222482592D02*
X17158893Y-222485783D01*
X17303746Y-222479104D02*
X17228084Y-222482592D01*
X17375022Y-222475821D02*
X17303746Y-222479104D01*
X17542892Y-222468843D02*
X17375022Y-222475821D01*
X17717753Y-222463052D02*
X17542892Y-222468843D01*
X17891324Y-222458069D02*
X17717753Y-222463052D01*
X17891324Y-222458069D02*
G75*
G02X17900393Y-222460507I462J-16364D01*
G01*
X17903889Y-222461762D02*
G75*
G02X17900393Y-222460507I1209J8867D01*
G01*
X17919388Y-222463775D02*
X17903889Y-222461762D01*
X17937771Y-222465819D02*
X17919388Y-222463775D01*
X17958715Y-222467713D02*
X17937771Y-222465819D01*
X19470054Y-221287481D02*
X19472649Y-221317124D01*
X20612378Y-223447086D02*
X20657522Y-223450622D01*
X20563537Y-223443388D02*
X20612378Y-223447086D01*
X20518194Y-223440058D02*
X20563537Y-223443388D01*
X20485022Y-223437755D02*
X20518194Y-223440058D01*
X20453615Y-223435486D02*
X20485022Y-223437755D01*
X20414584Y-223432326D02*
X20453615Y-223435486D01*
X20374606Y-223428849D02*
X20414584Y-223432326D01*
X20340022Y-223425579D02*
X20374606Y-223428849D01*
X20278512Y-223420402D02*
X20340022Y-223425579D01*
X20226901Y-223418134D02*
X20278512Y-223420402D01*
X18831364Y-221180665D02*
X18702584Y-220973051D01*
X18960123Y-221410277D02*
X18831364Y-221180665D01*
X20263811Y-223444985D02*
X20225611Y-223437712D01*
X20301820Y-223451668D02*
X20263811Y-223444985D01*
X20327522Y-223455429D02*
X20301820Y-223451668D01*
X20327522Y-223455429D02*
G75*
G02X20415850Y-223471576I-96572J-777952D01*
G01*
X20542223Y-223504860D02*
X20415850Y-223471576D01*
X20681550Y-223547366D02*
X20542223Y-223504860D01*
X20815022Y-223594009D02*
X20681550Y-223547366D01*
X20858649Y-223611046D02*
X20815022Y-223594009D01*
X20904637Y-223630487D02*
X20858649Y-223611046D01*
X20952079Y-223651930D02*
X20904637Y-223630487D01*
X21000085Y-223674987D02*
X20952079Y-223651930D01*
X21000085Y-223674988D02*
G75*
G02X21152408Y-223762179I-639105J-1293158D01*
G01*
X19600081Y-222147260D02*
X19602098Y-222157528D01*
X22620021Y-220815299D02*
G75*
G02X22619743Y-220816562I-3003J0D01*
G01*
X22611209Y-220834952D02*
X22619743Y-220816562D01*
X22601523Y-220855632D02*
X22611209Y-220834952D01*
X22590022Y-220879870D02*
X22601523Y-220855632D01*
X22578521Y-220904146D02*
X22590022Y-220879870D01*
X22568834Y-220924951D02*
X22578521Y-220904146D01*
X22560385Y-220943329D02*
X22568834Y-220924951D01*
X22560021Y-220944995D02*
G75*
G02X22560385Y-220943329I3995J0D01*
G01*
X22560021Y-220944995D02*
G75*
G02X22559292Y-220948297I-7840J0D01*
G01*
X22520677Y-221031421D02*
X22559292Y-220948297D01*
X22477758Y-221123339D02*
X22520677Y-221031421D01*
X22427442Y-221230277D02*
X22477758Y-221123339D01*
X22404537Y-221278174D02*
X22427442Y-221230277D01*
X22376801Y-221334980D02*
X22404537Y-221278174D01*
X22347730Y-221393998D02*
X22376801Y-221334980D01*
X22347731Y-221393997D02*
G75*
G02X22345022Y-221397777I-12801J6311D01*
G01*
X22343589Y-221399614D02*
G75*
G02X22345022Y-221397777I8150J-4881D01*
G01*
X22340177Y-221405418D02*
X22343588Y-221399615D01*
X22336238Y-221412435D02*
X22340177Y-221405418D01*
X22332041Y-221420277D02*
X22336238Y-221412435D01*
X22323008Y-221437116D02*
X22332041Y-221420277D01*
X22312309Y-221456309D02*
X22323008Y-221437116D01*
X22301117Y-221475799D02*
X22312309Y-221456309D01*
X22290563Y-221493576D02*
X22301117Y-221475799D01*
X22286359Y-221500601D02*
X22290563Y-221493576D01*
X22279895Y-221511546D02*
X22286359Y-221500601D01*
X22272630Y-221523921D02*
X22279895Y-221511546D01*
X22265538Y-221536076D02*
X22272630Y-221523921D01*
X22265539Y-221536076D02*
G75*
G02X22176513Y-221674537I-1594117J927112D01*
G01*
X22060765Y-221828716D02*
X22176513Y-221674537D01*
X21929379Y-221985115D02*
X22060765Y-221828716D01*
X21792561Y-222130767D02*
X21929379Y-221985115D01*
X21792561Y-222130767D02*
G75*
G02X21512462Y-222388051I-2992746J2977019D01*
G01*
X21202444Y-222626945D02*
X21512462Y-222388051D01*
X20846530Y-222858868D02*
X21202444Y-222626945D01*
X20427522Y-223095384D02*
X20846530Y-222858868D01*
X20407210Y-223106206D02*
X20427522Y-223095384D01*
X20383256Y-223119049D02*
X20407210Y-223106206D01*
X20359541Y-223131825D02*
X20383256Y-223119049D01*
X20340022Y-223142411D02*
X20359541Y-223131825D01*
X20322766Y-223151769D02*
X20340022Y-223142411D01*
X20306062Y-223160749D02*
X20322766Y-223151769D01*
X20291782Y-223168359D02*
X20306062Y-223160749D01*
X20284097Y-223172337D02*
X20291782Y-223168359D01*
X20267847Y-223182144D02*
G75*
G02X20284097Y-223172337I73169J-102870D01*
G01*
X20251467Y-223195234D02*
G75*
G02X20267847Y-223182145I125077J-139731D01*
G01*
X20238112Y-223208375D02*
G75*
G02X20251467Y-223195234I145858J-134885D01*
G01*
X20235021Y-223216267D02*
G75*
G02X20238111Y-223208375I11624J0D01*
G01*
X20235871Y-223219781D02*
G75*
G02X20235022Y-223216267I6849J3514D01*
G01*
X20238155Y-223221737D02*
G75*
G02X20235870Y-223219780I1247J3768D01*
G01*
X20242397Y-223222198D02*
G75*
G02X20238155Y-223221737I-1044J10127D01*
G01*
X20249641Y-223221103D02*
G75*
G02X20242398Y-223222199I-15184J75919D01*
G01*
X20268149Y-223215366D02*
G75*
G02X20249641Y-223221104I-36945J86448D01*
G01*
X20328992Y-223189023D02*
X20268149Y-223215366D01*
X20396972Y-223158528D02*
X20328992Y-223189023D01*
X20465022Y-223126643D02*
X20396972Y-223158528D01*
X20488044Y-223115656D02*
X20465022Y-223126643D01*
X20513850Y-223103400D02*
X20488044Y-223115656D01*
X20538478Y-223091750D02*
X20513850Y-223103400D01*
X20557522Y-223082798D02*
X20538478Y-223091750D01*
X20577497Y-223073393D02*
X20557522Y-223082798D01*
X20605600Y-223060054D02*
X20577497Y-223073393D01*
X20636247Y-223045444D02*
X20605600Y-223060054D01*
X20665022Y-223031661D02*
X20636247Y-223045444D01*
X20719936Y-223005361D02*
X20665022Y-223031661D01*
X20761702Y-222985535D02*
X20719936Y-223005361D01*
X20796707Y-222969148D02*
X20761702Y-222985535D01*
X20830022Y-222953816D02*
X20796707Y-222969148D01*
X20865354Y-222937574D02*
X20830022Y-222953816D01*
X20931774Y-222906749D02*
X20865354Y-222937574D01*
X20999694Y-222875132D02*
X20931774Y-222906749D01*
X21047522Y-222852733D02*
X20999694Y-222875132D01*
X21194502Y-222784657D02*
X21047522Y-222852733D01*
X21345333Y-222716903D02*
X21194502Y-222784657D01*
X21483653Y-222656658D02*
X21345333Y-222716903D01*
X21590022Y-222612680D02*
X21483653Y-222656658D01*
X21643337Y-222591611D02*
X21590022Y-222612680D01*
X21678135Y-222578359D02*
X21643337Y-222591611D01*
X21707932Y-222567769D02*
X21678135Y-222578359D01*
X21742522Y-222556289D02*
X21707932Y-222567769D01*
X21801620Y-222538467D02*
X21742522Y-222556289D01*
X21863071Y-222522384D02*
X21801620Y-222538467D01*
X21924574Y-222508597D02*
X21863071Y-222522384D01*
X21983822Y-222497669D02*
X21924574Y-222508597D01*
X22025789Y-222491782D02*
X21983822Y-222497669D01*
X22061324Y-222488975D02*
X22025789Y-222491782D01*
X22105896Y-222488261D02*
X22061324Y-222488975D01*
X22186322Y-222489370D02*
X22105896Y-222488261D01*
X22243234Y-222490735D02*
X22186322Y-222489370D01*
X22301607Y-222492737D02*
X22243234Y-222490735D01*
X22353546Y-222495032D02*
X22301607Y-222492737D01*
X22387522Y-222497267D02*
X22353546Y-222495032D01*
X22418287Y-222499702D02*
X22387522Y-222497267D01*
X22457662Y-222502627D02*
X22418287Y-222499702D01*
X22498691Y-222505545D02*
X22457662Y-222502627D01*
X22535022Y-222507990D02*
X22498691Y-222505545D01*
X22572057Y-222510418D02*
X22535022Y-222507990D01*
X22615318Y-222513293D02*
X22572057Y-222510418D01*
X22657867Y-222516150D02*
X22615318Y-222513293D01*
X22692522Y-222518510D02*
X22657867Y-222516150D01*
X22745145Y-222520680D02*
X22692522Y-222518510D01*
X22937897Y-222523130D02*
X22745145Y-222520680D01*
X23166132Y-222525346D02*
X22937897Y-222523130D01*
X23422522Y-222526997D02*
X23166132Y-222525346D01*
X23760194Y-222528974D02*
X23422522Y-222526997D01*
X23946598Y-222530953D02*
X23760194Y-222528974D01*
X24075267Y-222533028D02*
X23946598Y-222530953D01*
X24075267Y-222533028D02*
G75*
G02X24088772Y-222536729I-500J-28318D01*
G01*
X24088772Y-222536728D02*
G75*
G02X24097766Y-222545160I-13045J-22929D01*
G01*
X24097766Y-222545160D02*
G75*
G02X24100023Y-222555412I-12281J-8079D01*
G01*
X24100023Y-222555413D02*
G75*
G02X24094871Y-222565674I-18220J2725D01*
G01*
X24094870Y-222565673D02*
G75*
G02X24083207Y-222573943I-29662J29474D01*
G01*
X24083208Y-222573944D02*
G75*
G02X24065174Y-222581131I-63623J133418D01*
G01*
X24000776Y-222601805D02*
X24065174Y-222581131D01*
X23938093Y-222621392D02*
X24000776Y-222601805D01*
X23902522Y-222631377D02*
X23938093Y-222621392D01*
X23773171Y-222668169D02*
X23902522Y-222631377D01*
X23598786Y-222725203D02*
X23773171Y-222668169D01*
X23419767Y-222788251D02*
X23598786Y-222725203D01*
X23272522Y-222845274D02*
X23419767Y-222788251D01*
X23149199Y-222898078D02*
X23272522Y-222845274D01*
X23003927Y-222964591D02*
X23149199Y-222898078D01*
X22862600Y-223032490D02*
X23003927Y-222964591D01*
X22752522Y-223089199D02*
X22862600Y-223032490D01*
X22618504Y-223160433D02*
X22752522Y-223089199D01*
X22533440Y-223202696D02*
X22618504Y-223160433D01*
X22458987Y-223235131D02*
X22533440Y-223202696D01*
X22367522Y-223270178D02*
X22458987Y-223235131D01*
X22292423Y-223297307D02*
X22367522Y-223270178D01*
X22252851Y-223310723D02*
X22292423Y-223297307D01*
X22213400Y-223322598D02*
X22252851Y-223310723D01*
X22140022Y-223343034D02*
X22213400Y-223322598D01*
X22020804Y-223372545D02*
X22140022Y-223343034D01*
X21883620Y-223400279D02*
X22020804Y-223372545D01*
X21745884Y-223423156D02*
X21883620Y-223400279D01*
X21625022Y-223437838D02*
X21745884Y-223423156D01*
X21601013Y-223440138D02*
X21625022Y-223437838D01*
X21566506Y-223443487D02*
X21601013Y-223440138D01*
X21528547Y-223447195D02*
X21566506Y-223443487D01*
X21492522Y-223450739D02*
X21528547Y-223447195D01*
X21358935Y-223458145D02*
X21492522Y-223450739D01*
X21086190Y-223459806D02*
X21358935Y-223458145D01*
X20813070Y-223457895D02*
X21086190Y-223459806D01*
X20657522Y-223450622D02*
X20813070Y-223457895D01*
X20184700Y-223417876D02*
X20226901Y-223418134D01*
X20180021Y-223422584D02*
G75*
G02X20184700Y-223417876I4709J-1D01*
G01*
X20181145Y-223424719D02*
G75*
G02X20180022Y-223422585I1466J2134D01*
G01*
X20185529Y-223427293D02*
G75*
G02X20181144Y-223424719I15819J31971D01*
G01*
X19110636Y-221688155D02*
X19094341Y-221658062D01*
X19121221Y-221707777D02*
X19110636Y-221688155D01*
X20511249Y-222083226D02*
X20464982Y-222180277D01*
X20596807Y-221912328D02*
X20511249Y-222083226D01*
X20683548Y-221741636D02*
X20596807Y-221912328D01*
X20724269Y-221666527D02*
X20683548Y-221741636D01*
X20738678Y-221641366D02*
X20724269Y-221666527D01*
X20749929Y-221621636D02*
X20738678Y-221641366D01*
X20759609Y-221604555D02*
X20749929Y-221621636D01*
X20769048Y-221587777D02*
X20759609Y-221604555D01*
X20775983Y-221575624D02*
X20769048Y-221587777D01*
X20787590Y-221555731D02*
X20775983Y-221575624D01*
X20800976Y-221532985D02*
X20787590Y-221555731D01*
X20814458Y-221510277D02*
X20800976Y-221532985D01*
X20827575Y-221488268D02*
X20814458Y-221510277D01*
X20839864Y-221467624D02*
X20827575Y-221488268D01*
X20850197Y-221450243D02*
X20839864Y-221467624D01*
X20854889Y-221442307D02*
X20850197Y-221450243D01*
X20899259Y-221370233D02*
X20854889Y-221442307D01*
X20962393Y-221273837D02*
X20899259Y-221370233D01*
X21029939Y-221174271D02*
X20962393Y-221273837D01*
X21089543Y-221090277D02*
X21029939Y-221174271D01*
X21146819Y-221013641D02*
X21089543Y-221090277D01*
X21217177Y-220923061D02*
X21146819Y-221013641D01*
X21284639Y-220838542D02*
X21217177Y-220923061D01*
X21327847Y-220787777D02*
X21284639Y-220838542D01*
X22635064Y-220781889D02*
X22644416Y-220761958D01*
X22627187Y-220798945D02*
X22635064Y-220781889D01*
X22620294Y-220814044D02*
X22627187Y-220798945D01*
X22620022Y-220815299D02*
G75*
G02X22620294Y-220814044I3026J0D01*
G01*
X19075985Y-221624222D02*
X19058037Y-221591194D01*
X19094341Y-221658062D02*
X19075985Y-221624222D01*
X21912904Y-224682618D02*
G75*
G02X21912962Y-224690934I-10582J-4233D01*
G01*
X21912961Y-224690934D02*
G75*
G02X21910571Y-224693771I-5287J2029D01*
G01*
X21910571Y-224693771D02*
G75*
G02X21905675Y-224695933I-11328J19028D01*
G01*
X21905675Y-224695934D02*
G75*
G02X21898837Y-224697326I-10822J35655D01*
G01*
X21898838Y-224697325D02*
G75*
G02X21890414Y-224697777I-8424J78322D01*
G01*
X20393609Y-222341378D02*
X20385721Y-222360277D01*
X20420843Y-222279384D02*
X20393609Y-222341378D01*
X20447720Y-222218594D02*
X20420843Y-222279384D01*
X20464982Y-222180277D02*
X20447720Y-222218594D01*
X21890414Y-224697778D02*
G75*
G02X21875921Y-224696825I0J110737D01*
G01*
X21875921Y-224696825D02*
G75*
G02X21863016Y-224693965I9971J75534D01*
G01*
X21863016Y-224693965D02*
G75*
G02X21846281Y-224687761I53575J170197D01*
G01*
X21815022Y-224674046D02*
X21846281Y-224687761D01*
X21751838Y-224647762D02*
X21815022Y-224674046D01*
X21685736Y-224624319D02*
X21751838Y-224647762D01*
X21614120Y-224602862D02*
X21685736Y-224624319D01*
X21534294Y-224582548D02*
X21614120Y-224602862D01*
X21397606Y-224549292D02*
X21534294Y-224582548D01*
X19130128Y-221724323D02*
X19121221Y-221707777D01*
X19140235Y-221743074D02*
X19130128Y-221724323D01*
X20253305Y-222686243D02*
X20244490Y-222706661D01*
X20263179Y-222662378D02*
X20253305Y-222686243D01*
X20274497Y-222634151D02*
X20263179Y-222662378D01*
X20287768Y-222600277D02*
X20274497Y-222634151D01*
X20293655Y-222585324D02*
X20287768Y-222600277D01*
X20300109Y-222569333D02*
X20293655Y-222585324D01*
X20306173Y-222554627D02*
X20300109Y-222569333D01*
X21152408Y-223762178D02*
G75*
G02X21290509Y-223865987I-743206J-1132487D01*
G01*
X21290509Y-223865987D02*
G75*
G02X21408604Y-223981641I-808447J-943632D01*
G01*
X21408604Y-223981641D02*
G75*
G02X21501099Y-224104225I-691614J-618042D01*
G01*
X21593113Y-224247827D02*
X21501099Y-224104225D01*
X21658325Y-224344131D02*
X21593113Y-224247827D01*
X21719278Y-224426381D02*
X21658325Y-224344131D01*
X21794380Y-224520045D02*
X21719278Y-224426381D01*
X21837947Y-224572822D02*
X21794380Y-224520045D01*
X21851771Y-224589809D02*
X21837947Y-224572822D01*
X21862079Y-224603035D02*
X21851771Y-224589809D01*
X19634498Y-219070277D02*
X19620636Y-219120269D01*
X20310691Y-222544082D02*
X20306173Y-222554627D01*
X20314264Y-222535606D02*
X20310691Y-222544082D01*
X20317281Y-222527667D02*
X20314264Y-222535606D01*
X20319553Y-222520959D02*
X20317281Y-222527667D01*
X20320021Y-222517966D02*
G75*
G02X20319553Y-222520959I-9805J0D01*
G01*
X20320021Y-222517965D02*
G75*
G02X20320501Y-222514968I9600J-1D01*
G01*
X20322848Y-222508209D02*
X20320501Y-222514968D01*
X20325958Y-222500210D02*
X20322848Y-222508209D01*
X20329642Y-222491661D02*
X20325958Y-222500210D01*
X20343866Y-222459784D02*
X20329642Y-222491661D01*
X20352969Y-222438632D02*
X20343866Y-222459784D01*
X20359166Y-222423491D02*
X20352969Y-222438632D01*
X20360007Y-222419082D02*
G75*
G02X20359166Y-222423491I-11749J-43D01*
G01*
X20360007Y-222419082D02*
G75*
G02X20360459Y-222416632I6738J25D01*
G01*
X20363194Y-222409786D02*
X20360459Y-222416632D01*
X20366707Y-222401673D02*
X20363194Y-222409786D01*
X20370874Y-222392777D02*
X20366707Y-222401673D01*
X20375330Y-222383430D02*
X20370874Y-222392777D01*
X20379723Y-222373949D02*
X20375330Y-222383430D01*
X20383495Y-222365577D02*
X20379723Y-222373949D01*
X20385721Y-222360277D02*
X20383495Y-222365577D01*
X21877281Y-224623316D02*
X21862079Y-224603035D01*
X21893683Y-224646689D02*
X21877281Y-224623316D01*
X21893683Y-224646690D02*
G75*
G02X21905528Y-224666666I-194982J-129113D01*
G01*
X21905528Y-224666666D02*
G75*
G02X21912903Y-224682618I-148143J-78170D01*
G01*
X21337272Y-220777192D02*
X21327847Y-220787777D01*
X21357031Y-220754856D02*
X21337272Y-220777192D01*
X21380430Y-220728361D02*
X21357031Y-220754856D01*
X21405193Y-220700277D02*
X21380430Y-220728361D01*
X21513704Y-220583304D02*
X21405193Y-220700277D01*
X21646053Y-220452079D02*
X21513704Y-220583304D01*
X21777297Y-220330085D02*
X21646053Y-220452079D01*
X21880250Y-220244220D02*
X21777297Y-220330085D01*
X21967428Y-220178727D02*
X21880250Y-220244220D01*
X22046415Y-220123278D02*
X21967428Y-220178727D01*
X22148457Y-220056351D02*
X22046415Y-220123278D01*
X22327522Y-219942769D02*
X22148457Y-220056351D01*
X22389629Y-219903344D02*
X22327522Y-219942769D01*
X22456365Y-219860469D02*
X22389629Y-219903344D01*
X22517965Y-219820471D02*
X22456365Y-219860469D01*
X22562522Y-219790991D02*
X22517965Y-219820471D01*
X22697222Y-219699298D02*
X22562522Y-219790991D01*
X22820866Y-219612251D02*
X22697222Y-219699298D01*
X22968690Y-219504774D02*
X22820866Y-219612251D01*
X23190022Y-219340957D02*
X22968690Y-219504774D01*
X23233928Y-219308350D02*
X23190022Y-219340957D01*
X23276959Y-219276446D02*
X23233928Y-219308350D01*
X23314011Y-219249020D02*
X23276959Y-219276446D01*
X23335022Y-219233543D02*
X23314011Y-219249020D01*
X23351209Y-219221646D02*
X23335022Y-219233543D01*
X23368850Y-219208643D02*
X23351209Y-219221646D01*
X23385320Y-219196471D02*
X23368850Y-219208643D01*
X23397522Y-219187414D02*
X23385320Y-219196471D01*
X23437477Y-219159270D02*
X23397522Y-219187414D01*
X23492952Y-219123208D02*
X23437477Y-219159270D01*
X23549438Y-219087759D02*
X23492952Y-219123208D01*
X23549438Y-219087760D02*
G75*
G02X23564761Y-219081269I28471J-45884D01*
G01*
X23564761Y-219081268D02*
G75*
G02X23577504Y-219079947I10974J-43717D01*
G01*
X23577504Y-219079947D02*
G75*
G02X23584070Y-219084069I-305J-7776D01*
G01*
X23584070Y-219084070D02*
G75*
G02X23584527Y-219092656I-8997J-4784D01*
G01*
X23584527Y-219092655D02*
G75*
G02X23577667Y-219105539I-63438J25510D01*
G01*
X23565329Y-219122507D02*
X23577667Y-219105539D01*
X23545976Y-219146851D02*
X23565329Y-219122507D01*
X23526429Y-219170518D02*
X23545976Y-219146851D01*
X23526429Y-219170517D02*
G75*
G02X23516963Y-219180277I-72727J61071D01*
G01*
X23499895Y-219198072D02*
G75*
G02X23516963Y-219180277I123500J-101373D01*
G01*
X23445948Y-219264257D02*
X23499895Y-219198072D01*
X23391922Y-219331904D02*
X23445948Y-219264257D01*
X23351038Y-219385277D02*
X23391922Y-219331904D01*
X23274034Y-219493698D02*
X23351038Y-219385277D01*
X23213980Y-219589678D02*
X23274034Y-219493698D01*
X23148409Y-219710452D02*
X23213980Y-219589678D01*
X23045463Y-219915277D02*
X23148409Y-219710452D01*
X23012314Y-219982396D02*
X23045463Y-219915277D01*
X22982337Y-220043418D02*
X23012314Y-219982396D01*
X22957300Y-220094652D02*
X22982337Y-220043418D01*
X22948740Y-220112777D02*
X22957300Y-220094652D01*
X22933870Y-220144997D02*
X22948740Y-220112777D01*
X22898656Y-220220485D02*
X22933870Y-220144997D01*
X22863434Y-220295815D02*
X22898656Y-220220485D01*
X22842505Y-220340277D02*
X22863434Y-220295815D01*
X22836270Y-220353483D02*
X22842505Y-220340277D01*
X22826572Y-220374090D02*
X22836270Y-220353483D01*
X22815623Y-220397387D02*
X22826572Y-220374090D01*
X22804881Y-220420277D02*
X22815623Y-220397387D01*
X22752656Y-220531614D02*
X22804881Y-220420277D01*
X22705466Y-220632138D02*
X22752656Y-220531614D01*
X22666565Y-220714935D02*
X22705466Y-220632138D01*
X22644416Y-220761958D02*
X22666565Y-220714935D01*
X19456089Y-220070173D02*
X19450432Y-220147777D01*
X19491414Y-219734273D02*
X19489359Y-219751746D01*
X19499812Y-221575277D02*
X19502112Y-221591881D01*
X17220022Y-223204199D02*
X17285345Y-223231444D01*
X17172193Y-223182386D02*
X17220022Y-223204199D01*
X17096008Y-223145116D02*
X17172193Y-223182386D01*
X17013874Y-223104229D02*
X17096008Y-223145116D01*
X17958715Y-222467712D02*
G75*
G02X18037077Y-222477867I-68767J-838110D01*
G01*
X18134167Y-222497547D02*
X18037077Y-222477867D01*
X18238541Y-222523880D02*
X18134167Y-222497547D01*
X18340022Y-222554629D02*
X18238541Y-222523880D01*
X18411345Y-222578648D02*
X18340022Y-222554629D01*
X18462918Y-222597344D02*
X18411345Y-222578648D01*
X18514767Y-222618060D02*
X18462918Y-222597344D01*
X18587522Y-222648978D02*
X18514767Y-222618060D01*
X18636095Y-222671297D02*
X18587522Y-222648978D01*
X18722054Y-222713707D02*
X18636095Y-222671297D01*
X18807800Y-222757003D02*
X18722054Y-222713707D01*
X18857522Y-222783724D02*
X18807800Y-222757003D01*
X18874485Y-222793290D02*
X18857522Y-222783724D01*
X18892381Y-222803359D02*
X18874485Y-222793290D01*
X18908665Y-222812503D02*
X18892381Y-222803359D01*
X18920022Y-222818855D02*
X18908665Y-222812503D01*
X18967579Y-222846350D02*
X18920022Y-222818855D01*
X19029264Y-222883880D02*
X18967579Y-222846350D01*
X19094127Y-222924579D02*
X19029264Y-222883880D01*
X19152522Y-222962529D02*
X19094127Y-222924579D01*
X19269621Y-223039782D02*
X19152522Y-222962529D01*
X19284217Y-223042895D02*
G75*
G02X19269621Y-223039782I-3296J20324D01*
G01*
X19285880Y-223036626D02*
G75*
G02X19284217Y-223042894I-2231J-2763D01*
G01*
X19186635Y-222956997D02*
X19285879Y-223036626D01*
X19076355Y-222868615D02*
X19186635Y-222956997D01*
X18955655Y-222771064D02*
X19076355Y-222868615D01*
X18846190Y-222682022D02*
X18955655Y-222771064D01*
X18797522Y-222641366D02*
X18846190Y-222682022D01*
X18560218Y-222428564D02*
X18797522Y-222641366D01*
X18331976Y-222203889D02*
X18560218Y-222428564D01*
X18126302Y-221981368D02*
X18331976Y-222203889D01*
X17957522Y-221775413D02*
X18126302Y-221981368D01*
X17947035Y-221761730D02*
X17957522Y-221775413D01*
X17930933Y-221740881D02*
X17947035Y-221761730D01*
X17912804Y-221717489D02*
X17930933Y-221740881D01*
X17895094Y-221694720D02*
X17912804Y-221717489D01*
X17850771Y-221636679D02*
X17895094Y-221694720D01*
X17798022Y-221565362D02*
X17850771Y-221636679D01*
X17743294Y-221489659D02*
X17798022Y-221565362D01*
X17692611Y-221417777D02*
X17743294Y-221489659D01*
X17615794Y-221305183D02*
X17692611Y-221417777D01*
X17503314Y-221136047D02*
X17615794Y-221305183D01*
X17392960Y-220968079D02*
X17503314Y-221136047D01*
X17327810Y-220865811D02*
X17392960Y-220968079D01*
X17312852Y-220841839D02*
X17327810Y-220865811D01*
X17293501Y-220811028D02*
X17312852Y-220841839D01*
X17273210Y-220778853D02*
X17293501Y-220811028D01*
X17255098Y-220750277D02*
X17273210Y-220778853D01*
X17232466Y-220714465D02*
X17255098Y-220750277D01*
X17194344Y-220653699D02*
X17232466Y-220714465D01*
X17150478Y-220583586D02*
X17194344Y-220653699D01*
X17106299Y-220512777D02*
X17150478Y-220583586D01*
X17063762Y-220444522D02*
X17106299Y-220512777D01*
X17024866Y-220382137D02*
X17063762Y-220444522D01*
X16992249Y-220329846D02*
X17024866Y-220382137D01*
X16980010Y-220310277D02*
X16992249Y-220329846D01*
X16937630Y-220241590D02*
X16980010Y-220310277D01*
X16867790Y-220126106D02*
X16937630Y-220241590D01*
X16797729Y-220009490D02*
X16867790Y-220126106D01*
X16772165Y-219965277D02*
X16797729Y-220009490D01*
X16769328Y-219960248D02*
X16772165Y-219965277D01*
X16765217Y-219953074D02*
X16769328Y-219960248D01*
X16760674Y-219945211D02*
X16765217Y-219953074D01*
X16756342Y-219937777D02*
X16760674Y-219945211D01*
X16727044Y-219887083D02*
X16756342Y-219937777D01*
X16668968Y-219785057D02*
X16727044Y-219887083D01*
X16610346Y-219681702D02*
X16668968Y-219785057D01*
X16588754Y-219642777D02*
X16610346Y-219681702D01*
X16579351Y-219625536D02*
X16588754Y-219642777D01*
X16567835Y-219604543D02*
X16579351Y-219625536D01*
X16556140Y-219583314D02*
X16567835Y-219604543D01*
X16546150Y-219565277D02*
X16556140Y-219583314D01*
X16517394Y-219510797D02*
X16546150Y-219565277D01*
X16462647Y-219400518D02*
X16517394Y-219510797D01*
X16402078Y-219277345D02*
X16462647Y-219400518D01*
X16402079Y-219277345D02*
G75*
G02X16400022Y-219268491I18028J8854D01*
G01*
X16399530Y-219265636D02*
G75*
G02X16400022Y-219268491I-8045J-2855D01*
G01*
X16397209Y-219259477D02*
X16399530Y-219265636D01*
X16394113Y-219252210D02*
X16397209Y-219259477D01*
X16390446Y-219244500D02*
X16394113Y-219252210D01*
X16390446Y-219244500D02*
G75*
G02X16375567Y-219210779I353949J176315D01*
G01*
X16362376Y-219172674D02*
X16375567Y-219210779D01*
X16352797Y-219137022D02*
X16362376Y-219172674D01*
X16352798Y-219137021D02*
G75*
G02X16350022Y-219112709I105091J24312D01*
G01*
X16350022Y-219112709D02*
G75*
G02X16352313Y-219101889I26694J0D01*
G01*
X16352313Y-219101889D02*
G75*
G02X16358734Y-219093767I19006J-8428D01*
G01*
X16358734Y-219093767D02*
G75*
G02X16368045Y-219089963I11741J-15439D01*
G01*
X16368045Y-219089963D02*
G75*
G02X16378409Y-219091121I2783J-22042D01*
G01*
X19299378Y-223049505D02*
G75*
G02X19307816Y-223055118I-42084J-72409D01*
G01*
X19293690Y-223048010D02*
G75*
G02X19299378Y-223049505I137J-11046D01*
G01*
X19292163Y-223050169D02*
G75*
G02X19293690Y-223048010I1547J525D01*
G01*
X19295021Y-223055277D02*
G75*
G02X19292163Y-223050169I12406J10295D01*
G01*
X19298004Y-223058135D02*
G75*
G02X19295022Y-223055277I10995J14458D01*
G01*
X19301808Y-223060528D02*
G75*
G02X19298004Y-223058136I11528J22553D01*
G01*
X19305813Y-223062133D02*
G75*
G02X19301808Y-223060528I6762J22671D01*
G01*
X19309384Y-223062619D02*
G75*
G02X19305813Y-223062133I-229J11691D01*
G01*
X19313439Y-223062263D02*
G75*
G02X19309384Y-223062618I-4642J29680D01*
G01*
X19314221Y-223061131D02*
G75*
G02X19313438Y-223062263I-929J-194D01*
G01*
X19313100Y-223059282D02*
G75*
G02X19314221Y-223061131I-2062J-2515D01*
G01*
X19307816Y-223055118D02*
X19313100Y-223059282D01*
X20082574Y-216869496D02*
G75*
G02X20091771Y-216860571I24520J-16067D01*
G01*
X20091771Y-216860571D02*
G75*
G02X20102879Y-216857745I10107J-16484D01*
G01*
X20102879Y-216857745D02*
G75*
G02X20113607Y-216861707I-996J-19203D01*
G01*
X20113606Y-216861707D02*
G75*
G02X20121759Y-216871527I-17650J-22947D01*
G01*
X20121760Y-216871527D02*
G75*
G02X20133695Y-216904885I-124673J-63421D01*
G01*
X20149153Y-216980779D02*
X20133695Y-216904885D01*
X20166249Y-217080893D02*
X20149153Y-216980779D01*
X20184771Y-217207777D02*
X20166249Y-217080893D01*
X20189195Y-217239649D02*
X20184771Y-217207777D01*
X20193664Y-217271324D02*
X20189195Y-217239649D01*
X20197609Y-217298853D02*
X20193664Y-217271324D01*
X20200058Y-217315277D02*
X20197609Y-217298853D01*
X20202198Y-217329274D02*
X20200058Y-217315277D01*
X20204846Y-217346746D02*
X20202198Y-217329274D01*
X20207550Y-217364693D02*
X20204846Y-217346746D01*
X20209879Y-217380277D02*
X20207550Y-217364693D01*
X20250474Y-217645675D02*
X20209879Y-217380277D01*
X20282146Y-217833530D02*
X20250474Y-217645675D01*
X20312899Y-217991341D02*
X20282146Y-217833530D01*
X20349454Y-218155379D02*
X20312899Y-217991341D01*
X20374492Y-218258731D02*
X20349454Y-218155379D01*
X20406786Y-218386990D02*
X20374492Y-218258731D01*
X20438947Y-218512230D02*
X20406786Y-218386990D01*
X20449546Y-218547777D02*
X20438947Y-218512230D01*
X20451577Y-218554390D02*
X20449546Y-218547777D01*
X20454324Y-218564684D02*
X20451577Y-218554390D01*
X20457226Y-218576332D02*
X20454324Y-218564684D01*
X20459866Y-218587777D02*
X20457226Y-218576332D01*
X20462509Y-218599406D02*
X20459866Y-218587777D01*
X20465418Y-218611606D02*
X20462509Y-218599406D01*
X20468167Y-218622654D02*
X20465418Y-218611606D01*
X20470219Y-218630277D02*
X20468167Y-218622654D01*
X20491211Y-218711306D02*
X20470219Y-218630277D01*
X20520319Y-218839530D02*
X20491211Y-218711306D01*
X20547583Y-218967148D02*
X20520319Y-218839530D01*
X20560471Y-219040277D02*
X20547583Y-218967148D01*
X20562659Y-219054272D02*
X20560471Y-219040277D01*
X20565675Y-219071746D02*
X20562659Y-219054272D01*
X20568972Y-219089692D02*
X20565675Y-219071746D01*
X20572053Y-219105277D02*
X20568972Y-219089692D01*
X20583969Y-219171401D02*
X20572053Y-219105277D01*
X20598521Y-219270705D02*
X20583969Y-219171401D01*
X20613047Y-219382002D02*
X20598521Y-219270705D01*
X20625375Y-219490277D02*
X20613047Y-219382002D01*
X20633692Y-219577355D02*
X20625375Y-219490277D01*
X20641238Y-219673355D02*
X20633692Y-219577355D01*
X20649412Y-219796795D02*
X20641238Y-219673355D01*
X20659993Y-219975277D02*
X20649412Y-219796795D01*
X20664428Y-220111801D02*
X20659993Y-219975277D01*
X20663207Y-220273699D02*
X20664428Y-220111801D01*
D13*
X20656205Y-220480188D02*
X20663207Y-220273699D01*
X20642243Y-220760277D02*
X20656205Y-220480188D01*
D12*
X20638309Y-220813260D02*
X20642243Y-220760277D01*
X20629073Y-220907488D02*
X20638309Y-220813260D01*
X20618702Y-221004897D02*
X20629073Y-220907488D01*
X20609856Y-221077777D02*
X20618702Y-221004897D01*
X20607613Y-221095020D02*
X20609856Y-221077777D01*
X20604937Y-221116012D02*
X20607613Y-221095020D01*
X20602271Y-221137241D02*
X20604937Y-221116012D01*
X20600050Y-221155277D02*
X20602271Y-221137241D01*
X20597806Y-221172962D02*
X20600050Y-221155277D01*
X20595075Y-221193074D02*
X20597806Y-221172962D01*
X20592299Y-221212476D02*
X20595075Y-221193074D01*
X20589942Y-221227777D02*
X20592299Y-221212476D01*
X20587622Y-221242744D02*
X20589942Y-221227777D01*
X20584972Y-221261012D02*
X20587622Y-221242744D01*
X20582418Y-221279518D02*
X20584972Y-221261012D01*
X20580389Y-221295277D02*
X20582418Y-221279518D01*
X20561335Y-221417675D02*
X20580389Y-221295277D01*
X20521650Y-221619623D02*
X20561335Y-221417675D01*
X20478766Y-221821371D02*
X20521650Y-221619623D01*
X20447485Y-221945277D02*
X20478766Y-221821371D01*
X20444512Y-221955948D02*
X20447485Y-221945277D01*
X20441467Y-221967340D02*
X20444512Y-221955948D01*
X20438776Y-221977807D02*
X20441467Y-221967340D01*
X20436995Y-221985277D02*
X20438776Y-221977807D01*
X20427390Y-222023770D02*
X20436995Y-221985277D01*
X20397648Y-222131388D02*
X20427390Y-222023770D01*
X20367938Y-222237284D02*
X20397648Y-222131388D01*
X20350778Y-222295277D02*
X20367938Y-222237284D01*
X20346460Y-222309274D02*
X20350778Y-222295277D01*
X20341080Y-222326746D02*
X20346460Y-222309274D01*
X20335561Y-222344693D02*
X20341080Y-222326746D01*
X20330776Y-222360277D02*
X20335561Y-222344693D01*
X20313681Y-222414093D02*
X20330776Y-222360277D01*
X20282504Y-222508295D02*
X20313681Y-222414093D01*
X20249871Y-222605470D02*
X20282504Y-222508295D01*
X20224966Y-222677777D02*
X20249871Y-222605470D01*
X20214918Y-222706638D02*
X20224966Y-222677777D01*
X20205745Y-222733387D02*
X20214918Y-222706638D01*
X20198156Y-222755862D02*
X20205745Y-222733387D01*
X20195217Y-222765277D02*
X20198156Y-222755862D01*
X20192515Y-222774002D02*
X20195217Y-222765277D01*
X20186887Y-222790861D02*
X20192515Y-222774002D01*
X20180133Y-222810670D02*
X20186887Y-222790861D01*
X20172951Y-222831307D02*
X20180133Y-222810670D01*
X20155426Y-222884707D02*
X20172951Y-222831307D01*
X20155298Y-222904677D02*
G75*
G02X20155426Y-222884707I33535J9771D01*
G01*
X20162456Y-222905327D02*
G75*
G02X20155299Y-222904677I-3451J1730D01*
G01*
X20182120Y-222862777D02*
X20162455Y-222905327D01*
X20188098Y-222848783D02*
X20182120Y-222862777D01*
X20194664Y-222833598D02*
X20188098Y-222848783D01*
X20200839Y-222819472D02*
X20194664Y-222833598D01*
X20205464Y-222809082D02*
X20200839Y-222819472D01*
X20209124Y-222800664D02*
X20205464Y-222809082D01*
X20212214Y-222792904D02*
X20209124Y-222800664D01*
X20214584Y-222786362D02*
X20212214Y-222792904D01*
X20215021Y-222783771D02*
G75*
G02X20214584Y-222786362I-7897J0D01*
G01*
X20215021Y-222783771D02*
G75*
G02X20215482Y-222781197I7424J0D01*
G01*
X20217959Y-222774785D02*
X20215482Y-222781197D01*
X20221191Y-222767186D02*
X20217959Y-222774785D01*
X20225022Y-222758958D02*
X20221191Y-222767186D01*
X20228851Y-222750659D02*
X20225022Y-222758958D01*
X20232084Y-222742840D02*
X20228851Y-222750659D01*
X20234508Y-222736216D02*
X20232084Y-222742840D01*
X20235021Y-222733153D02*
G75*
G02X20234508Y-222736216I-9398J0D01*
G01*
X20235022Y-222733153D02*
G75*
G02X20235503Y-222730064I10154J0D01*
G01*
X20237803Y-222723264D02*
X20235503Y-222730064D01*
X20240864Y-222715223D02*
X20237803Y-222723264D01*
X20244490Y-222706661D02*
X20240864Y-222715223D01*
X19014682Y-221508855D02*
X19010103Y-221500347D01*
X19014682Y-221508855D02*
G75*
G02X19015022Y-221510212I-2538J-1357D01*
G01*
X19004695Y-221490555D02*
X18998277Y-221479295D01*
X19010103Y-221500347D02*
X19004695Y-221490555D01*
X17013874Y-223104228D02*
G75*
G02X17005022Y-223097537I13556J27135D01*
G01*
X17003092Y-223095897D02*
G75*
G02X17005022Y-223097537I-5453J-8377D01*
G01*
X16995912Y-223091285D02*
X17003091Y-223095898D01*
X16987281Y-223085930D02*
X16995912Y-223091285D01*
X16977522Y-223080101D02*
X16987281Y-223085930D01*
X16967356Y-223074103D02*
X16977522Y-223080101D01*
X16957487Y-223068234D02*
X16967356Y-223074103D01*
X16949047Y-223063177D02*
X16957487Y-223068234D01*
X16944424Y-223060341D02*
X16949047Y-223063177D01*
X16940259Y-223057797D02*
X16944424Y-223060341D01*
X16934094Y-223054150D02*
X16940259Y-223057797D01*
X16927233Y-223050155D02*
X16934094Y-223054150D01*
X16920629Y-223046375D02*
X16927233Y-223050155D01*
X16920629Y-223046375D02*
G75*
G02X16910474Y-223039975I63669J112281D01*
G01*
X16882016Y-223020005D02*
X16910474Y-223039975D01*
X16848261Y-222995940D02*
X16882016Y-223020005D01*
X16811226Y-222969103D02*
X16848261Y-222995940D01*
X16633114Y-222846773D02*
X16811226Y-222969103D01*
X16486099Y-222763678D02*
G75*
G02X16633114Y-222846773I-631554J-1288984D01*
G01*
X16326951Y-222696610D02*
G75*
G02X16486098Y-222763679I-510715J-1434241D01*
G01*
X16108826Y-222624954D02*
X16326951Y-222696611D01*
X16076926Y-222615042D02*
X16108826Y-222624954D01*
X16076927Y-222615042D02*
G75*
G02X16066329Y-222610106I14167J44263D01*
G01*
X16066329Y-222610106D02*
G75*
G02X16061681Y-222604159I5938J9430D01*
G01*
X16061681Y-222604159D02*
G75*
G02X16060076Y-222594254I30438J10015D01*
G01*
X16060076Y-222594254D02*
G75*
G02X16060628Y-222585206I70514J241D01*
G01*
X21285632Y-224519595D02*
X21397606Y-224549292D01*
X21198054Y-224493690D02*
X21285632Y-224519595D01*
X21198055Y-224493690D02*
G75*
G02X21142522Y-224473101I169046J541143D01*
G01*
X21137486Y-224471027D02*
X21142522Y-224473101D01*
X21130318Y-224468265D02*
X21137486Y-224471027D01*
X21122455Y-224465344D02*
X21130318Y-224468265D01*
X21115022Y-224462696D02*
X21122455Y-224465344D01*
X21107177Y-224459863D02*
X21115022Y-224462696D01*
X21098034Y-224456363D02*
X21107177Y-224459863D01*
X21089059Y-224452778D02*
X21098034Y-224456363D01*
X21081766Y-224449691D02*
X21089059Y-224452778D01*
X21075511Y-224447043D02*
X21081766Y-224449691D01*
X21069752Y-224444808D02*
X21075511Y-224447043D01*
X21064899Y-224443092D02*
X21069752Y-224444808D01*
X21062993Y-224442777D02*
G75*
G02X21064899Y-224443092I0J-5933D01*
G01*
X21062993Y-224442778D02*
G75*
G02X21059189Y-224442029I0J10037D01*
G01*
X20964667Y-224403305D02*
X21059189Y-224442029D01*
X20881032Y-224368860D02*
X20964667Y-224403305D01*
X20835022Y-224349343D02*
X20881032Y-224368860D01*
X20784226Y-224326283D02*
X20835022Y-224349343D01*
X20714035Y-224292512D02*
X20784226Y-224326283D01*
X20646005Y-224258811D02*
X20714035Y-224292512D01*
X20610022Y-224239386D02*
X20646005Y-224258811D01*
X20584250Y-224224488D02*
X20610022Y-224239386D01*
X20565712Y-224213819D02*
X20584250Y-224224488D01*
X20552040Y-224206010D02*
X20565712Y-224213819D01*
X20542522Y-224200665D02*
X20552040Y-224206010D01*
X20502423Y-224176144D02*
X20542522Y-224200665D01*
X20452352Y-224141071D02*
X20502423Y-224176144D01*
X20399465Y-224100893D02*
X20452352Y-224141071D01*
X20350022Y-224060105D02*
X20399465Y-224100893D01*
X20350022Y-224060106D02*
G75*
G02X20270238Y-223983873I695822J808099D01*
G01*
X20270238Y-223983873D02*
G75*
G02X20198595Y-223899661I781638J737557D01*
G01*
X20198596Y-223899661D02*
G75*
G02X20135002Y-223807259I878955J673003D01*
G01*
X20135001Y-223807258D02*
G75*
G02X20079292Y-223706527I1044989J643704D01*
G01*
X20066672Y-223682136D02*
X20079292Y-223706527D01*
X20058836Y-223671479D02*
G75*
G02X20066672Y-223682136I-34612J-33661D01*
G01*
X20052757Y-223669559D02*
G75*
G02X20058835Y-223671478I1254J-6611D01*
G01*
X20047112Y-223673439D02*
G75*
G02X20052758Y-223669558I7228J-4468D01*
G01*
X20045653Y-223678424D02*
G75*
G02X20047112Y-223673440I9773J-154D01*
G01*
X20043420Y-223821549D02*
X20045654Y-223678424D01*
X20041301Y-223981187D02*
X20043420Y-223821549D01*
X20039456Y-224169690D02*
X20041301Y-223981187D01*
X20037665Y-224358576D02*
X20039456Y-224169690D01*
X20035717Y-224519472D02*
X20037665Y-224358576D01*
X20033721Y-224662425D02*
X20035717Y-224519472D01*
X20033721Y-224662424D02*
G75*
G02X20032565Y-224671527I-41009J581D01*
G01*
X20032565Y-224671527D02*
G75*
G02X20031012Y-224675830I-20606J5007D01*
G01*
X20031011Y-224675830D02*
G75*
G02X20028627Y-224679473I-15676J7660D01*
G01*
X20028628Y-224679473D02*
G75*
G02X20025815Y-224681944I-9855J8380D01*
G01*
X20025814Y-224681943D02*
G75*
G02X20022998Y-224682777I-2816J4339D01*
G01*
X20022998Y-224682778D02*
G75*
G02X20018527Y-224681046I0J6637D01*
G01*
X19995478Y-224659837D02*
X20018527Y-224681046D01*
X19969013Y-224634616D02*
X19995478Y-224659837D01*
X19938906Y-224604683D02*
X19969013Y-224634616D01*
X19861648Y-224526588D02*
X19938906Y-224604683D01*
X19858335Y-224226359D02*
X19861648Y-224526588D01*
X19857066Y-224101023D02*
X19858335Y-224226359D01*
X19855995Y-223972704D02*
X19857066Y-224101023D01*
X19855237Y-223858674D02*
X19855995Y-223972704D01*
X19855022Y-223784454D02*
X19855237Y-223858674D01*
X19854720Y-223723849D02*
X19855022Y-223784454D01*
X19853728Y-223679717D02*
X19854720Y-223723849D01*
X19852369Y-223644990D02*
X19853728Y-223679717D01*
X19850060Y-223642777D02*
G75*
G02X19852369Y-223644990I-1J-2312D01*
G01*
X19847054Y-223644088D02*
G75*
G02X19850059Y-223642777I3005J-2787D01*
G01*
X19836630Y-223655560D02*
X19847055Y-223644089D01*
X19824618Y-223669615D02*
X19836630Y-223655560D01*
X19811309Y-223686292D02*
X19824618Y-223669615D01*
X19719679Y-223796929D02*
X19811309Y-223686292D01*
X19621336Y-223901497D02*
X19719679Y-223796929D01*
X19522618Y-223993723D02*
X19621336Y-223901497D01*
X19522618Y-223993723D02*
G75*
G02X19430022Y-224066907I-785138J898227D01*
G01*
X19293872Y-224157727D02*
X19430022Y-224066907D01*
X19160543Y-224234003D02*
X19293872Y-224157727D01*
X19020115Y-224300989D02*
X19160543Y-224234003D01*
X18862522Y-224363854D02*
X19020115Y-224300989D01*
X18806592Y-224383017D02*
X18862522Y-224363854D01*
X18714001Y-224412067D02*
X18806592Y-224383017D01*
X18620530Y-224440489D02*
X18714001Y-224412067D01*
X18620531Y-224440489D02*
G75*
G02X18585022Y-224449348I-111894J372905D01*
G01*
X18575788Y-224451427D02*
X18585022Y-224449348D01*
X18526256Y-224463853D02*
X18575788Y-224451427D01*
X18468574Y-224478414D02*
X18526256Y-224463853D01*
X18402522Y-224495214D02*
X18468574Y-224478414D01*
X18335223Y-224512309D02*
X18402522Y-224495214D01*
X18273647Y-224527802D02*
X18335223Y-224512309D01*
X18222000Y-224540673D02*
X18273647Y-224527802D01*
X18202522Y-224545258D02*
X18222000Y-224540673D01*
X18189392Y-224548201D02*
X18202522Y-224545258D01*
X18174725Y-224551527D02*
X18189392Y-224548201D01*
X18160765Y-224554724D02*
X18174725Y-224551527D01*
X18150022Y-224557222D02*
X18160765Y-224554724D01*
X18126495Y-224562411D02*
X18150022Y-224557222D01*
X18069890Y-224574006D02*
X18126495Y-224562411D01*
X18006655Y-224586751D02*
X18069890Y-224574006D01*
X17946570Y-224598613D02*
X18006655Y-224586751D01*
X17930754Y-224601291D02*
X17946570Y-224598613D01*
X17930754Y-224601291D02*
G75*
G02X17919488Y-224602124I-11660J81132D01*
G01*
X17919487Y-224602124D02*
G75*
G02X17910662Y-224601315I-221J46104D01*
G01*
X17910662Y-224601315D02*
G75*
G02X17902820Y-224598823I6419J33790D01*
G01*
X17902820Y-224598822D02*
G75*
G02X17893799Y-224585506I6402J14050D01*
G01*
X17893799Y-224585506D02*
G75*
G02X17899252Y-224566313I31269J1487D01*
G01*
X17899252Y-224566313D02*
G75*
G02X17927331Y-224531110I257590J-176662D01*
G01*
X18009998Y-224442550D02*
X17927331Y-224531110D01*
X18047172Y-224403045D02*
X18009998Y-224442550D01*
X18086499Y-224361019D02*
X18047172Y-224403045D01*
X18122351Y-224322510D02*
X18086499Y-224361019D01*
X18147522Y-224295213D02*
X18122351Y-224322510D01*
X18190178Y-224249392D02*
X18147522Y-224295213D01*
X18226361Y-224212256D02*
X18190178Y-224249392D01*
X18263224Y-224176564D02*
X18226361Y-224212256D01*
X18307926Y-224135277D02*
X18263224Y-224176564D01*
X18327115Y-224117823D02*
X18307926Y-224135277D01*
X18343687Y-224102653D02*
X18327115Y-224117823D01*
X18358008Y-224089477D02*
X18343687Y-224102653D01*
X18360021Y-224087406D02*
G75*
G02X18358008Y-224089477I-19819J17259D01*
G01*
X18360021Y-224087407D02*
G75*
G02X18362103Y-224085349I14795J-12883D01*
G01*
X18380147Y-224070015D02*
X18362103Y-224085349D01*
X18400885Y-224052487D02*
X18380147Y-224070015D01*
X18425022Y-224032231D02*
X18400885Y-224052487D01*
X18530470Y-223947248D02*
X18425022Y-224032231D01*
X18630076Y-223873754D02*
X18530470Y-223947248D01*
X18730113Y-223807287D02*
X18630076Y-223873754D01*
X18836795Y-223743515D02*
X18730113Y-223807287D01*
X18870714Y-223725268D02*
X18836795Y-223743515D01*
X18926262Y-223697389D02*
X18870714Y-223725268D01*
X18982493Y-223669994D02*
X18926262Y-223697389D01*
X19020022Y-223652890D02*
X18982493Y-223669994D01*
X19059757Y-223635775D02*
X19020022Y-223652890D01*
X19079737Y-223627382D02*
X19059757Y-223635775D01*
X19095779Y-223621025D02*
X19079737Y-223627382D01*
X19116272Y-223613347D02*
X19095779Y-223621025D01*
X19129186Y-223608599D02*
X19116272Y-223613347D01*
X19144287Y-223603046D02*
X19129186Y-223608599D01*
X19159151Y-223597580D02*
X19144287Y-223603046D01*
X19171272Y-223593122D02*
X19159151Y-223597580D01*
X19206104Y-223581114D02*
X19171272Y-223593122D01*
X19263274Y-223563030D02*
X19206104Y-223581114D01*
X19320340Y-223545577D02*
X19263274Y-223563030D01*
X19347522Y-223538372D02*
X19320340Y-223545577D01*
X19403341Y-223524277D02*
X19347522Y-223538372D01*
X19468904Y-223505292D02*
X19403341Y-223524277D01*
X19530034Y-223486296D02*
X19468904Y-223505292D01*
X19529691Y-223483050D02*
G75*
G02X19530034Y-223486296I-161J-1658D01*
G01*
X19527681Y-223483099D02*
G75*
G02X19529690Y-223483051I1204J-8298D01*
G01*
X19519709Y-223484287D02*
X19527681Y-223483099D01*
X19510305Y-223485799D02*
X19519709Y-223484287D01*
X19499690Y-223487644D02*
X19510305Y-223485799D01*
X19474754Y-223491359D02*
X19499690Y-223487644D01*
X19430359Y-223496376D02*
X19474754Y-223491359D01*
X19365074Y-223503070D02*
X19430359Y-223496376D01*
X19263645Y-223512894D02*
X19365074Y-223503070D01*
X19235352Y-223515035D02*
X19263645Y-223512894D01*
X19181795Y-223517839D02*
X19235352Y-223515035D01*
X19118915Y-223520681D02*
X19181795Y-223517839D01*
X19053645Y-223523169D02*
X19118915Y-223520681D01*
X18908340Y-223526041D02*
X19053645Y-223523169D01*
X18781748Y-223523781D02*
X18908340Y-223526041D01*
X18636661Y-223515269D02*
X18781748Y-223523781D01*
X18425022Y-223497707D02*
X18636661Y-223515269D01*
X18364771Y-223491119D02*
X18425022Y-223497707D01*
X18281738Y-223479690D02*
X18364771Y-223491119D01*
X18184250Y-223464788D02*
X18281738Y-223479690D01*
X18077522Y-223447109D02*
X18184250Y-223464788D01*
X17971857Y-223427377D02*
X18077522Y-223447109D01*
X17854034Y-223402215D02*
X17971857Y-223427377D01*
X17737305Y-223374654D02*
X17854034Y-223402215D01*
X17635022Y-223347637D02*
X17737305Y-223374654D01*
X17619381Y-223343300D02*
X17635022Y-223347637D01*
X17603397Y-223338981D02*
X17619381Y-223343300D01*
X17589207Y-223335245D02*
X17603397Y-223338981D01*
X17580022Y-223332966D02*
X17589207Y-223335245D01*
X17571722Y-223330851D02*
X17580022Y-223332966D01*
X17561053Y-223327839D02*
X17571722Y-223330851D01*
X17549914Y-223324499D02*
X17561053Y-223327839D01*
X17540022Y-223321321D02*
X17549914Y-223324499D01*
X17528663Y-223317567D02*
X17540022Y-223321321D01*
X17512381Y-223312256D02*
X17528663Y-223317567D01*
X17494485Y-223306458D02*
X17512381Y-223312256D01*
X17477522Y-223301004D02*
X17494485Y-223306458D01*
X17413400Y-223279584D02*
X17477522Y-223301004D01*
X17349573Y-223256485D02*
X17413400Y-223279584D01*
X17285345Y-223231444D02*
X17349573Y-223256485D01*
X20191588Y-223429800D02*
G75*
G02X20185529Y-223427293I15601J46284D01*
G01*
X20198772Y-223431862D02*
G75*
G02X20191589Y-223429800I19033J79840D01*
G01*
X20225611Y-223437712D02*
X20198772Y-223431862D01*
X16378409Y-219091121D02*
G75*
G02X16393800Y-219099519I-19851J-54684D01*
G01*
X16433573Y-219130444D02*
X16393800Y-219099519D01*
X16480950Y-219169163D02*
X16433573Y-219130444D01*
X16533636Y-219214359D02*
X16480950Y-219169163D01*
X16698174Y-219352127D02*
X16533636Y-219214359D01*
X16843791Y-219460502D02*
X16698174Y-219352127D01*
X17012714Y-219569733D02*
X16843791Y-219460502D01*
X17257522Y-219714069D02*
X17012714Y-219569733D01*
X19571306Y-219306615D02*
X19547577Y-219415220D01*
X19494593Y-219706118D02*
X19492916Y-219720277D01*
X19286280Y-222020659D02*
X19246362Y-221942777D01*
X19400735Y-222249065D02*
X19286280Y-222020659D01*
X19593793Y-219222863D02*
X19590420Y-219235871D01*
X19609796Y-222190277D02*
X19612223Y-222199554D01*
X17980696Y-220196196D02*
X17949731Y-220171569D01*
X18034121Y-220240261D02*
X17980696Y-220196196D01*
X19655296Y-218999293D02*
X19640717Y-219048596D01*
X19041545Y-221560738D02*
X19027657Y-221534784D01*
X19058037Y-221591194D02*
X19041545Y-221560738D01*
X19607389Y-222180966D02*
X19609796Y-222190277D01*
X19530667Y-222512450D02*
G75*
G02X19530022Y-222509625I5867J2825D01*
G01*
X19570128Y-222594375D02*
X19530666Y-222512451D01*
X19493686Y-221528002D02*
X19499812Y-221575277D01*
X19590420Y-219235871D02*
X19587276Y-219247511D01*
X19610559Y-219157297D02*
X19602925Y-219186256D01*
X19622102Y-222243678D02*
X19625424Y-222258215D01*
X19619792Y-222232777D02*
X19622102Y-222243678D01*
X19617434Y-222692202D02*
X19570128Y-222594375D01*
X19680900Y-222822769D02*
X19617434Y-222692202D01*
X19994836Y-217395277D02*
X19983743Y-217488355D01*
X18390510Y-220569449D02*
X18307249Y-220484817D01*
X18457941Y-220643323D02*
X18390510Y-220569449D01*
X19015378Y-221511643D02*
G75*
G02X19015022Y-221510212I2699J1431D01*
G01*
X19027657Y-221534784D02*
X19015377Y-221511643D01*
X19457431Y-221134943D02*
X19460146Y-221174262D01*
X19436197Y-220590776D02*
X19441200Y-220810800D01*
X17312323Y-219745700D02*
X17257522Y-219714069D01*
X17365350Y-219776582D02*
X17312323Y-219745700D01*
X17410594Y-219803170D02*
X17365350Y-219776582D01*
X19462884Y-221210118D02*
X19465155Y-221235277D01*
X20064571Y-216913376D02*
G75*
G02X20082574Y-216869496I122645J-24684D01*
G01*
X19983743Y-217488355D02*
X19966692Y-217618323D01*
X19966692Y-217618323D02*
X19948247Y-217752128D01*
X19948247Y-217752128D02*
X19932296Y-217860277D01*
X19594799Y-222121609D02*
X19597913Y-222136189D01*
X19672754Y-218940648D02*
X19655296Y-218999293D01*
X19665004Y-222416641D02*
X19688021Y-222505658D01*
X19652687Y-222367777D02*
X19665004Y-222416641D01*
X19439221Y-220385430D02*
X19436197Y-220590776D01*
X19497211Y-219688074D02*
X19494593Y-219706118D01*
X19596912Y-219210277D02*
X19593793Y-219222863D01*
X18091890Y-220288546D02*
X18034121Y-220240261D01*
X18142522Y-220331589D02*
X18091890Y-220288546D01*
X19640717Y-219048596D02*
X19634498Y-219070277D01*
X19546332Y-221882567D02*
X19569739Y-222008706D01*
X19472649Y-221317124D02*
X19474772Y-221342777D01*
X19602098Y-222157528D02*
X19604678Y-222169391D01*
X19620636Y-219120269D02*
X19610559Y-219157297D01*
X19612223Y-222199554D02*
X19614997Y-222211012D01*
X19774298Y-218590004D02*
X19691595Y-218877777D01*
X19524401Y-221753232D02*
X19546332Y-221882567D01*
X19486414Y-221463404D02*
X19493686Y-221528002D01*
X17435022Y-219817924D02*
X17410594Y-219803170D01*
X17452943Y-219828971D02*
X17435022Y-219817924D01*
X17471647Y-219840441D02*
X17452943Y-219828971D01*
X17488524Y-219850743D02*
X17471647Y-219840441D01*
X17500022Y-219857694D02*
X17488524Y-219850743D01*
X19597913Y-222136189D02*
X19600081Y-222147260D01*
X19455160Y-221097777D02*
X19457431Y-221134943D01*
X19891058Y-218096192D02*
X19839522Y-218334580D01*
X19602925Y-219186256D02*
X19596912Y-219210277D01*
X19932296Y-217860277D02*
X19891058Y-218096192D01*
X19614997Y-222211012D02*
X19617668Y-222222709D01*
X19465155Y-221235277D02*
X19467410Y-221258549D01*
X19510387Y-221655277D02*
X19524401Y-221753232D01*
X19647592Y-222347213D02*
X19652687Y-222367777D01*
X19641964Y-222324684D02*
X19647592Y-222347213D01*
X17838770Y-220088408D02*
X17712111Y-219998124D01*
X17949731Y-220171569D02*
X17838770Y-220088408D01*
X19466010Y-219960768D02*
X19456089Y-220070173D01*
X19585002Y-219255277D02*
X19571306Y-219306615D01*
X18990348Y-221465352D02*
X18980163Y-221447052D01*
X18998277Y-221479295D02*
X18990348Y-221465352D01*
X19175179Y-221807925D02*
X19157627Y-221775277D01*
X19196050Y-221847166D02*
X19175179Y-221807925D01*
X19793771Y-223003775D02*
G75*
G02X19778450Y-223004191I-7814J5438D01*
G01*
X19801642Y-222977617D02*
G75*
G02X19793772Y-223003776I-43965J-1036D01*
G01*
X19591336Y-222106189D02*
X19594799Y-222121609D01*
X19504965Y-221613215D02*
X19507876Y-221635494D01*
X19500258Y-219669324D02*
X19497211Y-219688074D01*
X19492916Y-219720277D02*
X19491414Y-219734273D01*
X19474772Y-221342777D02*
X19479586Y-221396968D01*
X19219842Y-221892235D02*
X19196050Y-221847166D01*
X19246362Y-221942777D02*
X19219842Y-221892235D01*
X19476782Y-219853128D02*
X19466010Y-219960768D01*
X19839522Y-218334580D02*
X19774298Y-218590004D01*
X19547577Y-219415220D02*
X19525096Y-219524104D01*
X19529044Y-222505488D02*
X19400735Y-222249065D01*
X19529045Y-222505488D02*
G75*
G02X19530022Y-222509625I-8269J-4137D01*
G01*
X17590998Y-219915371D02*
X17500022Y-219857694D01*
X17712111Y-219998124D02*
X17590998Y-219915371D01*
X18576981Y-220792044D02*
X18457941Y-220643323D01*
X18702584Y-220973051D02*
X18576981Y-220792044D01*
X19525096Y-219524104D02*
X19514785Y-219585277D01*
X19691595Y-218877777D02*
X19672754Y-218940648D01*
X19467410Y-221258549D02*
X19470054Y-221287481D01*
X19503300Y-219652777D02*
X19500258Y-219669324D01*
X19512686Y-219599437D02*
X19509713Y-219617481D01*
X19485041Y-219785277D02*
X19476782Y-219853128D01*
X19762789Y-222790486D02*
X19784316Y-222878882D01*
X19729915Y-222665277D02*
X19762789Y-222790486D01*
X19629114Y-222273688D02*
X19632635Y-222287777D01*
X19625424Y-222258215D02*
X19629114Y-222273688D01*
X19588031Y-222092260D02*
X19591336Y-222106189D01*
X19506422Y-219636231D02*
X19503300Y-219652777D01*
X20042634Y-217032589D02*
X20019274Y-217190793D01*
X19489359Y-219751746D02*
X19487122Y-219769693D01*
X19604678Y-222169391D02*
X19607389Y-222180966D01*
X19569739Y-222008706D02*
X19588031Y-222092260D01*
X19450432Y-220147777D02*
X19439221Y-220385430D01*
X20064571Y-216913377D02*
X20042634Y-217032589D01*
X19514785Y-219585277D02*
X19512686Y-219599437D01*
X19711965Y-222597481D02*
X19729915Y-222665277D01*
X19688021Y-222505658D02*
X19711965Y-222597481D01*
X19507876Y-221635494D02*
X19510387Y-221655277D01*
X19636652Y-222303561D02*
X19641964Y-222324684D01*
X19632635Y-222287777D02*
X19636652Y-222303561D01*
X19460146Y-221174262D02*
X19462884Y-221210118D01*
X19797789Y-222942241D02*
G75*
G02X19801641Y-222977617I-205937J-40320D01*
G01*
X19784316Y-222878882D02*
X19797790Y-222942241D01*
X19149971Y-221761116D02*
X19140235Y-221743074D01*
X19157627Y-221775277D02*
X19149971Y-221761116D01*
X19617668Y-222222709D02*
X19619792Y-222232777D01*
X19509713Y-219617481D02*
X19506422Y-219636231D01*
X18220584Y-220401527D02*
X18142522Y-220331589D01*
X18307249Y-220484817D02*
X18220584Y-220401527D01*
X19502112Y-221591881D02*
X19504965Y-221613215D01*
X19487122Y-219769693D02*
X19485041Y-219785277D01*
X19587276Y-219247511D02*
X19585002Y-219255277D01*
X20019274Y-217190793D02*
X19994836Y-217395277D01*
X18969544Y-221427713D02*
X18960123Y-221410277D01*
X18980163Y-221447052D02*
X18969544Y-221427713D01*
X19745824Y-222952971D02*
X19680900Y-222822769D01*
X19778449Y-223004191D02*
G75*
G02X19745824Y-222952971I252153J196613D01*
G01*
X19441200Y-220810800D02*
X19455160Y-221097777D01*
D11*
G36*
X29104975Y-207958585D02*
G01*
X29404528Y-208018170D01*
X29968874Y-208251930D01*
X30476772Y-208591296D01*
X30908704Y-209023228D01*
X31248070Y-209531126D01*
X31481830Y-210095472D01*
X31601000Y-210694578D01*
X31601000Y-211305422D01*
X31481830Y-211904528D01*
X31248070Y-212468874D01*
X30908704Y-212976772D01*
X30476772Y-213408704D01*
X29968874Y-213748070D01*
X29404528Y-213981830D01*
X29104975Y-214041415D01*
X28805423Y-214101000D01*
X28194577Y-214101000D01*
X27895025Y-214041415D01*
X27595472Y-213981830D01*
X27031126Y-213748070D01*
X26523228Y-213408704D01*
X26091296Y-212976772D01*
X25751930Y-212468874D01*
X25518170Y-211904528D01*
X25399000Y-211305422D01*
X25399000Y-210694578D01*
X25518170Y-210095472D01*
X25751930Y-209531126D01*
X26091296Y-209023228D01*
X26523228Y-208591296D01*
X27031126Y-208251930D01*
X27595472Y-208018170D01*
X27895025Y-207958585D01*
X28194577Y-207899000D01*
X28805423Y-207899000D01*
X29104975Y-207958585D01*
G37*
G36*
X20696217Y-203656665D02*
G01*
X20966995Y-203710525D01*
X21258358Y-203831212D01*
X21520578Y-204006422D01*
X21743578Y-204229422D01*
X21918788Y-204491642D01*
X22039475Y-204783005D01*
X22101000Y-205092315D01*
X22101000Y-205407685D01*
X22039475Y-205716995D01*
X21918788Y-206008358D01*
X21743578Y-206270578D01*
X21520578Y-206493578D01*
X21258358Y-206668788D01*
X20966995Y-206789475D01*
X20696217Y-206843335D01*
X20657686Y-206851000D01*
X20342314Y-206851000D01*
X20303783Y-206843335D01*
X20033005Y-206789475D01*
X19741642Y-206668788D01*
X19479422Y-206493578D01*
X19256422Y-206270578D01*
X19081212Y-206008358D01*
X18960525Y-205716995D01*
X18899000Y-205407685D01*
X18899000Y-205092315D01*
X18960525Y-204783005D01*
X19081212Y-204491642D01*
X19256422Y-204229422D01*
X19479422Y-204006422D01*
X19741642Y-203831212D01*
X20033005Y-203710525D01*
X20303783Y-203656665D01*
X20342314Y-203649000D01*
X20657686Y-203649000D01*
X20696217Y-203656665D01*
G37*
G36*
X29104975Y-195958585D02*
G01*
X29404528Y-196018170D01*
X29968874Y-196251930D01*
X30476772Y-196591296D01*
X30908704Y-197023228D01*
X31248070Y-197531126D01*
X31481830Y-198095472D01*
X31601000Y-198694578D01*
X31601000Y-199305422D01*
X31481830Y-199904528D01*
X31248070Y-200468874D01*
X30908704Y-200976772D01*
X30476772Y-201408704D01*
X29968874Y-201748070D01*
X29404528Y-201981830D01*
X29104975Y-202041415D01*
X28805423Y-202101000D01*
X28194577Y-202101000D01*
X27895025Y-202041415D01*
X27595472Y-201981830D01*
X27031126Y-201748070D01*
X26523228Y-201408704D01*
X26091296Y-200976772D01*
X25751930Y-200468874D01*
X25518170Y-199904528D01*
X25399000Y-199305422D01*
X25399000Y-198694578D01*
X25518170Y-198095472D01*
X25751930Y-197531126D01*
X26091296Y-197023228D01*
X26523228Y-196591296D01*
X27031126Y-196251930D01*
X27595472Y-196018170D01*
X27895025Y-195958585D01*
X28194577Y-195899000D01*
X28805423Y-195899000D01*
X29104975Y-195958585D01*
G37*
G36*
X20696217Y-191406665D02*
G01*
X20966995Y-191460525D01*
X21258358Y-191581212D01*
X21520578Y-191756422D01*
X21743578Y-191979422D01*
X21918788Y-192241642D01*
X22039475Y-192533005D01*
X22101000Y-192842315D01*
X22101000Y-193157685D01*
X22039475Y-193466995D01*
X21918788Y-193758358D01*
X21743578Y-194020578D01*
X21520578Y-194243578D01*
X21258358Y-194418788D01*
X20966995Y-194539475D01*
X20696217Y-194593335D01*
X20657686Y-194601000D01*
X20342314Y-194601000D01*
X20303783Y-194593335D01*
X20033005Y-194539475D01*
X19741642Y-194418788D01*
X19479422Y-194243578D01*
X19256422Y-194020578D01*
X19081212Y-193758358D01*
X18960525Y-193466995D01*
X18899000Y-193157685D01*
X18899000Y-192842315D01*
X18960525Y-192533005D01*
X19081212Y-192241642D01*
X19256422Y-191979422D01*
X19479422Y-191756422D01*
X19741642Y-191581212D01*
X20033005Y-191460525D01*
X20303783Y-191406665D01*
X20342314Y-191399000D01*
X20657686Y-191399000D01*
X20696217Y-191406665D01*
G37*
G36*
X29104975Y-183708585D02*
G01*
X29404528Y-183768170D01*
X29968874Y-184001930D01*
X30476772Y-184341296D01*
X30908704Y-184773228D01*
X31248070Y-185281126D01*
X31481830Y-185845472D01*
X31601000Y-186444578D01*
X31601000Y-187055422D01*
X31481830Y-187654528D01*
X31248070Y-188218874D01*
X30908704Y-188726772D01*
X30476772Y-189158704D01*
X29968874Y-189498070D01*
X29404528Y-189731830D01*
X29104975Y-189791415D01*
X28805423Y-189851000D01*
X28194577Y-189851000D01*
X27895025Y-189791415D01*
X27595472Y-189731830D01*
X27031126Y-189498070D01*
X26523228Y-189158704D01*
X26091296Y-188726772D01*
X25751930Y-188218874D01*
X25518170Y-187654528D01*
X25399000Y-187055422D01*
X25399000Y-186444578D01*
X25518170Y-185845472D01*
X25751930Y-185281126D01*
X26091296Y-184773228D01*
X26523228Y-184341296D01*
X27031126Y-184001930D01*
X27595472Y-183768170D01*
X27895025Y-183708585D01*
X28194577Y-183649000D01*
X28805423Y-183649000D01*
X29104975Y-183708585D01*
G37*
G36*
X20696217Y-179656665D02*
G01*
X20966995Y-179710525D01*
X21258358Y-179831212D01*
X21520578Y-180006422D01*
X21743578Y-180229422D01*
X21918788Y-180491642D01*
X22039475Y-180783005D01*
X22101000Y-181092315D01*
X22101000Y-181407685D01*
X22039475Y-181716995D01*
X21918788Y-182008358D01*
X21743578Y-182270578D01*
X21520578Y-182493578D01*
X21258358Y-182668788D01*
X20966995Y-182789475D01*
X20696217Y-182843335D01*
X20657686Y-182851000D01*
X20342314Y-182851000D01*
X20303783Y-182843335D01*
X20033005Y-182789475D01*
X19741642Y-182668788D01*
X19479422Y-182493578D01*
X19256422Y-182270578D01*
X19081212Y-182008358D01*
X18960525Y-181716995D01*
X18899000Y-181407685D01*
X18899000Y-181092315D01*
X18960525Y-180783005D01*
X19081212Y-180491642D01*
X19256422Y-180229422D01*
X19479422Y-180006422D01*
X19741642Y-179831212D01*
X20033005Y-179710525D01*
X20303783Y-179656665D01*
X20342314Y-179649000D01*
X20657686Y-179649000D01*
X20696217Y-179656665D01*
G37*
G36*
X29104975Y-172208585D02*
G01*
X29404528Y-172268170D01*
X29968874Y-172501930D01*
X30476772Y-172841296D01*
X30908704Y-173273228D01*
X31248070Y-173781126D01*
X31481830Y-174345472D01*
X31601000Y-174944578D01*
X31601000Y-175555422D01*
X31481830Y-176154528D01*
X31248070Y-176718874D01*
X30908704Y-177226772D01*
X30476772Y-177658704D01*
X29968874Y-177998070D01*
X29404528Y-178231830D01*
X29104975Y-178291415D01*
X28805423Y-178351000D01*
X28194577Y-178351000D01*
X27895025Y-178291415D01*
X27595472Y-178231830D01*
X27031126Y-177998070D01*
X26523228Y-177658704D01*
X26091296Y-177226772D01*
X25751930Y-176718874D01*
X25518170Y-176154528D01*
X25399000Y-175555422D01*
X25399000Y-174944578D01*
X25518170Y-174345472D01*
X25751930Y-173781126D01*
X26091296Y-173273228D01*
X26523228Y-172841296D01*
X27031126Y-172501930D01*
X27595472Y-172268170D01*
X27895025Y-172208585D01*
X28194577Y-172149000D01*
X28805423Y-172149000D01*
X29104975Y-172208585D01*
G37*
G36*
X20696217Y-167656665D02*
G01*
X20966995Y-167710525D01*
X21258358Y-167831212D01*
X21520578Y-168006422D01*
X21743578Y-168229422D01*
X21918788Y-168491642D01*
X22039475Y-168783005D01*
X22101000Y-169092315D01*
X22101000Y-169407685D01*
X22039475Y-169716995D01*
X21918788Y-170008358D01*
X21743578Y-170270578D01*
X21520578Y-170493578D01*
X21258358Y-170668788D01*
X20966995Y-170789475D01*
X20696217Y-170843335D01*
X20657686Y-170851000D01*
X20342314Y-170851000D01*
X20303783Y-170843335D01*
X20033005Y-170789475D01*
X19741642Y-170668788D01*
X19479422Y-170493578D01*
X19256422Y-170270578D01*
X19081212Y-170008358D01*
X18960525Y-169716995D01*
X18899000Y-169407685D01*
X18899000Y-169092315D01*
X18960525Y-168783005D01*
X19081212Y-168491642D01*
X19256422Y-168229422D01*
X19479422Y-168006422D01*
X19741642Y-167831212D01*
X20033005Y-167710525D01*
X20303783Y-167656665D01*
X20342314Y-167649000D01*
X20657686Y-167649000D01*
X20696217Y-167656665D01*
G37*
G36*
X29104975Y-160458585D02*
G01*
X29404528Y-160518170D01*
X29968874Y-160751930D01*
X30476772Y-161091296D01*
X30908704Y-161523228D01*
X31248070Y-162031126D01*
X31481830Y-162595472D01*
X31601000Y-163194578D01*
X31601000Y-163805422D01*
X31481830Y-164404528D01*
X31248070Y-164968874D01*
X30908704Y-165476772D01*
X30476772Y-165908704D01*
X29968874Y-166248070D01*
X29404528Y-166481830D01*
X29104975Y-166541415D01*
X28805423Y-166601000D01*
X28194577Y-166601000D01*
X27895025Y-166541415D01*
X27595472Y-166481830D01*
X27031126Y-166248070D01*
X26523228Y-165908704D01*
X26091296Y-165476772D01*
X25751930Y-164968874D01*
X25518170Y-164404528D01*
X25399000Y-163805422D01*
X25399000Y-163194578D01*
X25518170Y-162595472D01*
X25751930Y-162031126D01*
X26091296Y-161523228D01*
X26523228Y-161091296D01*
X27031126Y-160751930D01*
X27595472Y-160518170D01*
X27895025Y-160458585D01*
X28194577Y-160399000D01*
X28805423Y-160399000D01*
X29104975Y-160458585D01*
G37*
G36*
X20696217Y-155656665D02*
G01*
X20966995Y-155710525D01*
X21258358Y-155831212D01*
X21520578Y-156006422D01*
X21743578Y-156229422D01*
X21918788Y-156491642D01*
X22039475Y-156783005D01*
X22101000Y-157092315D01*
X22101000Y-157407685D01*
X22039475Y-157716995D01*
X21918788Y-158008358D01*
X21743578Y-158270578D01*
X21520578Y-158493578D01*
X21258358Y-158668788D01*
X20966995Y-158789475D01*
X20696217Y-158843335D01*
X20657686Y-158851000D01*
X20342314Y-158851000D01*
X20303783Y-158843335D01*
X20033005Y-158789475D01*
X19741642Y-158668788D01*
X19479422Y-158493578D01*
X19256422Y-158270578D01*
X19081212Y-158008358D01*
X18960525Y-157716995D01*
X18899000Y-157407685D01*
X18899000Y-157092315D01*
X18960525Y-156783005D01*
X19081212Y-156491642D01*
X19256422Y-156229422D01*
X19479422Y-156006422D01*
X19741642Y-155831212D01*
X20033005Y-155710525D01*
X20303783Y-155656665D01*
X20342314Y-155649000D01*
X20657686Y-155649000D01*
X20696217Y-155656665D01*
G37*
G36*
X13104975Y-148458585D02*
G01*
X13404528Y-148518170D01*
X13968874Y-148751930D01*
X14476772Y-149091296D01*
X14908704Y-149523228D01*
X15248070Y-150031126D01*
X15481830Y-150595472D01*
X15601000Y-151194578D01*
X15601000Y-151805422D01*
X15481830Y-152404528D01*
X15248070Y-152968874D01*
X14908704Y-153476772D01*
X14476772Y-153908704D01*
X13968874Y-154248070D01*
X13404528Y-154481830D01*
X13104975Y-154541415D01*
X12805423Y-154601000D01*
X12194577Y-154601000D01*
X11895025Y-154541415D01*
X11595472Y-154481830D01*
X11031126Y-154248070D01*
X10523228Y-153908704D01*
X10091296Y-153476772D01*
X9751930Y-152968874D01*
X9518170Y-152404528D01*
X9399000Y-151805422D01*
X9399000Y-151194578D01*
X9518170Y-150595472D01*
X9751930Y-150031126D01*
X10091296Y-149523228D01*
X10523228Y-149091296D01*
X11031126Y-148751930D01*
X11595472Y-148518170D01*
X11895025Y-148458585D01*
X12194577Y-148399000D01*
X12805423Y-148399000D01*
X13104975Y-148458585D01*
G37*
G36*
X29104975Y-148458585D02*
G01*
X29404528Y-148518170D01*
X29968874Y-148751930D01*
X30476772Y-149091296D01*
X30908704Y-149523228D01*
X31248070Y-150031126D01*
X31481830Y-150595472D01*
X31601000Y-151194578D01*
X31601000Y-151805422D01*
X31481830Y-152404528D01*
X31248070Y-152968874D01*
X30908704Y-153476772D01*
X30476772Y-153908704D01*
X29968874Y-154248070D01*
X29404528Y-154481830D01*
X29104975Y-154541415D01*
X28805423Y-154601000D01*
X28194577Y-154601000D01*
X27895025Y-154541415D01*
X27595472Y-154481830D01*
X27031126Y-154248070D01*
X26523228Y-153908704D01*
X26091296Y-153476772D01*
X25751930Y-152968874D01*
X25518170Y-152404528D01*
X25399000Y-151805422D01*
X25399000Y-151194578D01*
X25518170Y-150595472D01*
X25751930Y-150031126D01*
X26091296Y-149523228D01*
X26523228Y-149091296D01*
X27031126Y-148751930D01*
X27595472Y-148518170D01*
X27895025Y-148458585D01*
X28194577Y-148399000D01*
X28805423Y-148399000D01*
X29104975Y-148458585D01*
G37*
G36*
X20696217Y-143656665D02*
G01*
X20966995Y-143710525D01*
X21258358Y-143831212D01*
X21520578Y-144006422D01*
X21743578Y-144229422D01*
X21918788Y-144491642D01*
X22039475Y-144783005D01*
X22101000Y-145092315D01*
X22101000Y-145407685D01*
X22039475Y-145716995D01*
X21918788Y-146008358D01*
X21743578Y-146270578D01*
X21520578Y-146493578D01*
X21258358Y-146668788D01*
X20966995Y-146789475D01*
X20696217Y-146843335D01*
X20657686Y-146851000D01*
X20342314Y-146851000D01*
X20303783Y-146843335D01*
X20033005Y-146789475D01*
X19741642Y-146668788D01*
X19479422Y-146493578D01*
X19256422Y-146270578D01*
X19081212Y-146008358D01*
X18960525Y-145716995D01*
X18899000Y-145407685D01*
X18899000Y-145092315D01*
X18960525Y-144783005D01*
X19081212Y-144491642D01*
X19256422Y-144229422D01*
X19479422Y-144006422D01*
X19741642Y-143831212D01*
X20033005Y-143710525D01*
X20303783Y-143656665D01*
X20342314Y-143649000D01*
X20657686Y-143649000D01*
X20696217Y-143656665D01*
G37*
G36*
X29104975Y-136458585D02*
G01*
X29404528Y-136518170D01*
X29968874Y-136751930D01*
X30476772Y-137091296D01*
X30908704Y-137523228D01*
X31248070Y-138031126D01*
X31481830Y-138595472D01*
X31601000Y-139194578D01*
X31601000Y-139805422D01*
X31481830Y-140404528D01*
X31248070Y-140968874D01*
X30908704Y-141476772D01*
X30476772Y-141908704D01*
X29968874Y-142248070D01*
X29404528Y-142481830D01*
X29104975Y-142541415D01*
X28805423Y-142601000D01*
X28194577Y-142601000D01*
X27895025Y-142541415D01*
X27595472Y-142481830D01*
X27031126Y-142248070D01*
X26523228Y-141908704D01*
X26091296Y-141476772D01*
X25751930Y-140968874D01*
X25518170Y-140404528D01*
X25399000Y-139805422D01*
X25399000Y-139194578D01*
X25518170Y-138595472D01*
X25751930Y-138031126D01*
X26091296Y-137523228D01*
X26523228Y-137091296D01*
X27031126Y-136751930D01*
X27595472Y-136518170D01*
X27895025Y-136458585D01*
X28194577Y-136399000D01*
X28805423Y-136399000D01*
X29104975Y-136458585D01*
G37*
G36*
X13104975Y-136458585D02*
G01*
X13404528Y-136518170D01*
X13968874Y-136751930D01*
X14476772Y-137091296D01*
X14908704Y-137523228D01*
X15248070Y-138031126D01*
X15481830Y-138595472D01*
X15601000Y-139194578D01*
X15601000Y-139805422D01*
X15481830Y-140404528D01*
X15248070Y-140968874D01*
X14908704Y-141476772D01*
X14476772Y-141908704D01*
X13968874Y-142248070D01*
X13404528Y-142481830D01*
X13104975Y-142541415D01*
X12805423Y-142601000D01*
X12194577Y-142601000D01*
X11895025Y-142541415D01*
X11595472Y-142481830D01*
X11031126Y-142248070D01*
X10523228Y-141908704D01*
X10091296Y-141476772D01*
X9751930Y-140968874D01*
X9518170Y-140404528D01*
X9399000Y-139805422D01*
X9399000Y-139194578D01*
X9518170Y-138595472D01*
X9751930Y-138031126D01*
X10091296Y-137523228D01*
X10523228Y-137091296D01*
X11031126Y-136751930D01*
X11595472Y-136518170D01*
X11895025Y-136458585D01*
X12194577Y-136399000D01*
X12805423Y-136399000D01*
X13104975Y-136458585D01*
G37*
G36*
X20696217Y-131656665D02*
G01*
X20966995Y-131710525D01*
X21258358Y-131831212D01*
X21520578Y-132006422D01*
X21743578Y-132229422D01*
X21918788Y-132491642D01*
X22039475Y-132783005D01*
X22101000Y-133092315D01*
X22101000Y-133407685D01*
X22039475Y-133716995D01*
X21918788Y-134008358D01*
X21743578Y-134270578D01*
X21520578Y-134493578D01*
X21258358Y-134668788D01*
X20966995Y-134789475D01*
X20696217Y-134843335D01*
X20657686Y-134851000D01*
X20342314Y-134851000D01*
X20303783Y-134843335D01*
X20033005Y-134789475D01*
X19741642Y-134668788D01*
X19479422Y-134493578D01*
X19256422Y-134270578D01*
X19081212Y-134008358D01*
X18960525Y-133716995D01*
X18899000Y-133407685D01*
X18899000Y-133092315D01*
X18960525Y-132783005D01*
X19081212Y-132491642D01*
X19256422Y-132229422D01*
X19479422Y-132006422D01*
X19741642Y-131831212D01*
X20033005Y-131710525D01*
X20303783Y-131656665D01*
X20342314Y-131649000D01*
X20657686Y-131649000D01*
X20696217Y-131656665D01*
G37*
G36*
X13104975Y-124458585D02*
G01*
X13404528Y-124518170D01*
X13968874Y-124751930D01*
X14476772Y-125091296D01*
X14908704Y-125523228D01*
X15248070Y-126031126D01*
X15481830Y-126595472D01*
X15601000Y-127194578D01*
X15601000Y-127805422D01*
X15481830Y-128404528D01*
X15248070Y-128968874D01*
X14908704Y-129476772D01*
X14476772Y-129908704D01*
X13968874Y-130248070D01*
X13404528Y-130481830D01*
X13104975Y-130541415D01*
X12805423Y-130601000D01*
X12194577Y-130601000D01*
X11895025Y-130541415D01*
X11595472Y-130481830D01*
X11031126Y-130248070D01*
X10523228Y-129908704D01*
X10091296Y-129476772D01*
X9751930Y-128968874D01*
X9518170Y-128404528D01*
X9399000Y-127805422D01*
X9399000Y-127194578D01*
X9518170Y-126595472D01*
X9751930Y-126031126D01*
X10091296Y-125523228D01*
X10523228Y-125091296D01*
X11031126Y-124751930D01*
X11595472Y-124518170D01*
X11895025Y-124458585D01*
X12194577Y-124399000D01*
X12805423Y-124399000D01*
X13104975Y-124458585D01*
G37*
G36*
X29104975Y-124208585D02*
G01*
X29404528Y-124268170D01*
X29968874Y-124501930D01*
X30476772Y-124841296D01*
X30908704Y-125273228D01*
X31248070Y-125781126D01*
X31481830Y-126345472D01*
X31601000Y-126944578D01*
X31601000Y-127555422D01*
X31481830Y-128154528D01*
X31248070Y-128718874D01*
X30908704Y-129226772D01*
X30476772Y-129658704D01*
X29968874Y-129998070D01*
X29404528Y-130231830D01*
X29322884Y-130248070D01*
X28805423Y-130351000D01*
X28194577Y-130351000D01*
X27677116Y-130248070D01*
X27595472Y-130231830D01*
X27031126Y-129998070D01*
X26523228Y-129658704D01*
X26091296Y-129226772D01*
X25751930Y-128718874D01*
X25518170Y-128154528D01*
X25399000Y-127555422D01*
X25399000Y-126944578D01*
X25518170Y-126345472D01*
X25751930Y-125781126D01*
X26091296Y-125273228D01*
X26523228Y-124841296D01*
X27031126Y-124501930D01*
X27595472Y-124268170D01*
X27895025Y-124208585D01*
X28194577Y-124149000D01*
X28805423Y-124149000D01*
X29104975Y-124208585D01*
G37*
G36*
X20696217Y-119656665D02*
G01*
X20966995Y-119710525D01*
X21258358Y-119831212D01*
X21520578Y-120006422D01*
X21743578Y-120229422D01*
X21918788Y-120491642D01*
X22039475Y-120783005D01*
X22101000Y-121092315D01*
X22101000Y-121407685D01*
X22039475Y-121716995D01*
X21918788Y-122008358D01*
X21743578Y-122270578D01*
X21520578Y-122493578D01*
X21258358Y-122668788D01*
X20966995Y-122789475D01*
X20696217Y-122843335D01*
X20657686Y-122851000D01*
X20342314Y-122851000D01*
X20303783Y-122843335D01*
X20033005Y-122789475D01*
X19741642Y-122668788D01*
X19479422Y-122493578D01*
X19256422Y-122270578D01*
X19081212Y-122008358D01*
X18960525Y-121716995D01*
X18899000Y-121407685D01*
X18899000Y-121092315D01*
X18960525Y-120783005D01*
X19081212Y-120491642D01*
X19256422Y-120229422D01*
X19479422Y-120006422D01*
X19741642Y-119831212D01*
X20033005Y-119710525D01*
X20303783Y-119656665D01*
X20342314Y-119649000D01*
X20657686Y-119649000D01*
X20696217Y-119656665D01*
G37*
G36*
X13104975Y-112458585D02*
G01*
X13404528Y-112518170D01*
X13968874Y-112751930D01*
X14476772Y-113091296D01*
X14908704Y-113523228D01*
X15248070Y-114031126D01*
X15481830Y-114595472D01*
X15601000Y-115194578D01*
X15601000Y-115805422D01*
X15481830Y-116404528D01*
X15248070Y-116968874D01*
X14908704Y-117476772D01*
X14476772Y-117908704D01*
X13968874Y-118248070D01*
X13404528Y-118481830D01*
X13104975Y-118541415D01*
X12805423Y-118601000D01*
X12194577Y-118601000D01*
X11895025Y-118541415D01*
X11595472Y-118481830D01*
X11031126Y-118248070D01*
X10523228Y-117908704D01*
X10091296Y-117476772D01*
X9751930Y-116968874D01*
X9518170Y-116404528D01*
X9399000Y-115805422D01*
X9399000Y-115194578D01*
X9518170Y-114595472D01*
X9751930Y-114031126D01*
X10091296Y-113523228D01*
X10523228Y-113091296D01*
X11031126Y-112751930D01*
X11595472Y-112518170D01*
X11895025Y-112458585D01*
X12194577Y-112399000D01*
X12805423Y-112399000D01*
X13104975Y-112458585D01*
G37*
M02*
