G04 #@! TF.GenerationSoftware,KiCad,Pcbnew,(5.1.5-0)*
G04 #@! TF.CreationDate,2021-01-12T22:55:02-08:00*
G04 #@! TF.ProjectId,statues,73746174-7565-4732-9e6b-696361645f70,rev?*
G04 #@! TF.SameCoordinates,Original*
G04 #@! TF.FileFunction,Copper,L1,Top*
G04 #@! TF.FilePolarity,Positive*
%FSLAX46Y46*%
G04 Gerber Fmt 4.6, Leading zero omitted, Abs format (unit mm)*
G04 Created by KiCad (PCBNEW (5.1.5-0)) date 2021-01-12 22:55:02*
%MOMM*%
%LPD*%
G04 APERTURE LIST*
%ADD10C,1.000000*%
%ADD11C,0.100000*%
%ADD12C,3.100000*%
%ADD13C,6.100000*%
G04 APERTURE END LIST*
D10*
X20750000Y-133250000D02*
X28500000Y-139250000D01*
X22500000Y-205250000D02*
G75*
G03X22500000Y-205250000I-2000000J0D01*
G01*
X20750000Y-205500000D02*
X28500000Y-211000000D01*
X22500000Y-193000000D02*
G75*
G03X22500000Y-193000000I-2000000J0D01*
G01*
X20750000Y-193500000D02*
X28250000Y-199250000D01*
X22500000Y-181250000D02*
G75*
G03X22500000Y-181250000I-2000000J0D01*
G01*
X20750000Y-181500000D02*
X28500000Y-187250000D01*
X22500000Y-169250000D02*
G75*
G03X22500000Y-169250000I-2000000J0D01*
G01*
X20750000Y-169500000D02*
X28500000Y-175250000D01*
X20750000Y-157500000D02*
X28500000Y-163500000D01*
X22200000Y-156900000D02*
G75*
G03X22200000Y-156900000I-2000000J0D01*
G01*
X22500000Y-145250000D02*
G75*
G03X22500000Y-145250000I-2000000J0D01*
G01*
X20500000Y-145500000D02*
X28500000Y-151500000D01*
X22500000Y-133250000D02*
G75*
G03X22500000Y-133250000I-2000000J0D01*
G01*
X22500000Y-121250000D02*
G75*
G03X22500000Y-121250000I-2000000J0D01*
G01*
X28500000Y-127500000D02*
X21000000Y-121750000D01*
X28500000Y-127500000D02*
X28500000Y-211250000D01*
X12500000Y-115500000D02*
X12250000Y-139500000D01*
D11*
G36*
X16596400Y-219324900D02*
G01*
X16913900Y-219566200D01*
X17479050Y-219883700D01*
X18075950Y-220315500D01*
X18450600Y-220696500D01*
X18850650Y-221261650D01*
X19447550Y-222442750D01*
X19746000Y-223007900D01*
X19758700Y-223020600D01*
X19428500Y-223046000D01*
X19326900Y-222995200D01*
X18971300Y-222747550D01*
X18564900Y-222379250D01*
X18234700Y-222030000D01*
X17879100Y-221598200D01*
X17599700Y-221179100D01*
X17409200Y-220925100D01*
X17155200Y-220467900D01*
X16901200Y-220099600D01*
X16659900Y-219680500D01*
X16380500Y-219121700D01*
X16596400Y-219324900D01*
G37*
X16596400Y-219324900D02*
X16913900Y-219566200D01*
X17479050Y-219883700D01*
X18075950Y-220315500D01*
X18450600Y-220696500D01*
X18850650Y-221261650D01*
X19447550Y-222442750D01*
X19746000Y-223007900D01*
X19758700Y-223020600D01*
X19428500Y-223046000D01*
X19326900Y-222995200D01*
X18971300Y-222747550D01*
X18564900Y-222379250D01*
X18234700Y-222030000D01*
X17879100Y-221598200D01*
X17599700Y-221179100D01*
X17409200Y-220925100D01*
X17155200Y-220467900D01*
X16901200Y-220099600D01*
X16659900Y-219680500D01*
X16380500Y-219121700D01*
X16596400Y-219324900D01*
G36*
X18002925Y-222503075D02*
G01*
X18339475Y-222598325D01*
X18603000Y-222690400D01*
X19301500Y-223096800D01*
X19331980Y-223124740D01*
X19339600Y-223109500D01*
X19339600Y-223122200D01*
X19331980Y-223124740D01*
X19250700Y-223287300D01*
X19644400Y-223427000D01*
X19434850Y-223452400D01*
X19041150Y-223477800D01*
X18564900Y-223477800D01*
X18120400Y-223414300D01*
X17637800Y-223300000D01*
X17244100Y-223185700D01*
X16837700Y-222957100D01*
X16520200Y-222728500D01*
X16113800Y-222601500D01*
X16761500Y-222550700D01*
X17294900Y-222512600D01*
X17758450Y-222506250D01*
X18002925Y-222503075D01*
G37*
X18002925Y-222503075D02*
X18339475Y-222598325D01*
X18603000Y-222690400D01*
X19301500Y-223096800D01*
X19331980Y-223124740D01*
X19339600Y-223109500D01*
X19339600Y-223122200D01*
X19331980Y-223124740D01*
X19250700Y-223287300D01*
X19644400Y-223427000D01*
X19434850Y-223452400D01*
X19041150Y-223477800D01*
X18564900Y-223477800D01*
X18120400Y-223414300D01*
X17637800Y-223300000D01*
X17244100Y-223185700D01*
X16837700Y-222957100D01*
X16520200Y-222728500D01*
X16113800Y-222601500D01*
X16761500Y-222550700D01*
X17294900Y-222512600D01*
X17758450Y-222506250D01*
X18002925Y-222503075D01*
G36*
X19866650Y-223566700D02*
G01*
X19498350Y-223998500D01*
X19060200Y-224271550D01*
X18679200Y-224411250D01*
X17929900Y-224576350D01*
X18412500Y-224049300D01*
X18806200Y-223782600D01*
X19174500Y-223579400D01*
X19644400Y-223503200D01*
X19669800Y-223503200D01*
X19866650Y-223566700D01*
G37*
X19866650Y-223566700D02*
X19498350Y-223998500D01*
X19060200Y-224271550D01*
X18679200Y-224411250D01*
X17929900Y-224576350D01*
X18412500Y-224049300D01*
X18806200Y-223782600D01*
X19174500Y-223579400D01*
X19644400Y-223503200D01*
X19669800Y-223503200D01*
X19866650Y-223566700D01*
G36*
X20000000Y-223084100D02*
G01*
X19788862Y-223277775D01*
X20007937Y-223373025D01*
X20758825Y-223915950D01*
X20577850Y-224011200D01*
X20000000Y-223554000D01*
X20012700Y-224646200D01*
X19898400Y-224506500D01*
X19892050Y-223617500D01*
X19936500Y-223617500D01*
X19555500Y-223401600D01*
X19269750Y-223249200D01*
X19434850Y-222969800D01*
X20000000Y-223084100D01*
G37*
X20000000Y-223084100D02*
X19788862Y-223277775D01*
X20007937Y-223373025D01*
X20758825Y-223915950D01*
X20577850Y-224011200D01*
X20000000Y-223554000D01*
X20012700Y-224646200D01*
X19898400Y-224506500D01*
X19892050Y-223617500D01*
X19936500Y-223617500D01*
X19555500Y-223401600D01*
X19269750Y-223249200D01*
X19434850Y-222969800D01*
X20000000Y-223084100D01*
G36*
X20641350Y-223541300D02*
G01*
X21193800Y-223820700D01*
X21520825Y-224147725D01*
X21655763Y-224377913D01*
X21887538Y-224647788D01*
X21581150Y-224563650D01*
X21327150Y-224487450D01*
X21149350Y-224423950D01*
X20774700Y-224290600D01*
X20415925Y-224096925D01*
X20155575Y-223811175D01*
X20031750Y-223649250D01*
X20095250Y-223687350D01*
X20069850Y-223623850D01*
X20133350Y-223452400D01*
X20641350Y-223541300D01*
G37*
X20641350Y-223541300D02*
X21193800Y-223820700D01*
X21520825Y-224147725D01*
X21655763Y-224377913D01*
X21887538Y-224647788D01*
X21581150Y-224563650D01*
X21327150Y-224487450D01*
X21149350Y-224423950D01*
X20774700Y-224290600D01*
X20415925Y-224096925D01*
X20155575Y-223811175D01*
X20031750Y-223649250D01*
X20095250Y-223687350D01*
X20069850Y-223623850D01*
X20133350Y-223452400D01*
X20641350Y-223541300D01*
G36*
X23073400Y-222538000D02*
G01*
X23505200Y-222563400D01*
X24083207Y-222573943D01*
X23403600Y-222728500D01*
X22971800Y-222919000D01*
X22628900Y-223134900D01*
X22209800Y-223300000D01*
X21676400Y-223388900D01*
X21231900Y-223414300D01*
X20654050Y-223395250D01*
X20076200Y-223376200D01*
X20012700Y-223300000D01*
X20228600Y-223236500D01*
X20235585Y-223185700D01*
X20551815Y-223058700D01*
X21085850Y-222830100D01*
X21638300Y-222626900D01*
X22032000Y-222512600D01*
X22476500Y-222512600D01*
X23073400Y-222538000D01*
G37*
X23073400Y-222538000D02*
X23505200Y-222563400D01*
X24083207Y-222573943D01*
X23403600Y-222728500D01*
X22971800Y-222919000D01*
X22628900Y-223134900D01*
X22209800Y-223300000D01*
X21676400Y-223388900D01*
X21231900Y-223414300D01*
X20654050Y-223395250D01*
X20076200Y-223376200D01*
X20012700Y-223300000D01*
X20228600Y-223236500D01*
X20235585Y-223185700D01*
X20551815Y-223058700D01*
X21085850Y-222830100D01*
X21638300Y-222626900D01*
X22032000Y-222512600D01*
X22476500Y-222512600D01*
X23073400Y-222538000D01*
G36*
X23060700Y-219883700D02*
G01*
X22819400Y-220379000D01*
X22616200Y-220836200D01*
X22355850Y-221356900D01*
X22082800Y-221712500D01*
X21771650Y-222125250D01*
X21301750Y-222518950D01*
X20800100Y-222855500D01*
X19695200Y-223452400D01*
X19720600Y-223122200D01*
X20025400Y-223071400D01*
X20273050Y-222633250D01*
X20488950Y-222169700D01*
X20654050Y-221839500D01*
X20838200Y-221547400D01*
X21003300Y-221229900D01*
X21282700Y-220874300D01*
X21562100Y-220556800D01*
X21892300Y-220264700D01*
X22235200Y-220036100D01*
X22616200Y-219782100D01*
X23009900Y-219515400D01*
X23543300Y-219121700D01*
X23060700Y-219883700D01*
G37*
X23060700Y-219883700D02*
X22819400Y-220379000D01*
X22616200Y-220836200D01*
X22355850Y-221356900D01*
X22082800Y-221712500D01*
X21771650Y-222125250D01*
X21301750Y-222518950D01*
X20800100Y-222855500D01*
X19695200Y-223452400D01*
X19720600Y-223122200D01*
X20025400Y-223071400D01*
X20273050Y-222633250D01*
X20488950Y-222169700D01*
X20654050Y-221839500D01*
X20838200Y-221547400D01*
X21003300Y-221229900D01*
X21282700Y-220874300D01*
X21562100Y-220556800D01*
X21892300Y-220264700D01*
X22235200Y-220036100D01*
X22616200Y-219782100D01*
X23009900Y-219515400D01*
X23543300Y-219121700D01*
X23060700Y-219883700D01*
G36*
X20215900Y-217750100D02*
G01*
X20317500Y-218232700D01*
X20431800Y-218689900D01*
X20514350Y-219020100D01*
X20577850Y-219401100D01*
X20622300Y-219921800D01*
X20622300Y-220455200D01*
X20571500Y-221039400D01*
X20508000Y-221560100D01*
X20365125Y-222055400D01*
X20066675Y-223071400D01*
X19853950Y-223020600D01*
X19619000Y-222106200D01*
X19445962Y-221242600D01*
X19461837Y-220455200D01*
X19514225Y-219794800D01*
X19676150Y-219020100D01*
X19911100Y-218207300D01*
X20038100Y-217432600D01*
X20101600Y-216911900D01*
X20215900Y-217750100D01*
G37*
X20215900Y-217750100D02*
X20317500Y-218232700D01*
X20431800Y-218689900D01*
X20514350Y-219020100D01*
X20577850Y-219401100D01*
X20622300Y-219921800D01*
X20622300Y-220455200D01*
X20571500Y-221039400D01*
X20508000Y-221560100D01*
X20365125Y-222055400D01*
X20066675Y-223071400D01*
X19853950Y-223020600D01*
X19619000Y-222106200D01*
X19445962Y-221242600D01*
X19461837Y-220455200D01*
X19514225Y-219794800D01*
X19676150Y-219020100D01*
X19911100Y-218207300D01*
X20038100Y-217432600D01*
X20101600Y-216911900D01*
X20215900Y-217750100D01*
D12*
X20500000Y-205250000D03*
X20500000Y-193000000D03*
X20500000Y-181250000D03*
X20500000Y-169250000D03*
X20500000Y-157250000D03*
X20500000Y-145250000D03*
X20500000Y-133250000D03*
X20500000Y-121250000D03*
D13*
X28500000Y-175250000D03*
X28500000Y-163500000D03*
X12500000Y-151500000D03*
X28500000Y-151500000D03*
X12500000Y-139500000D03*
X28500000Y-139500000D03*
X12500000Y-127500000D03*
X28500000Y-127250000D03*
X12500000Y-115500000D03*
X28500000Y-186750000D03*
X28500000Y-199000000D03*
X28500000Y-211000000D03*
M02*
