M48
; DRILL file {KiCad (5.1.5-0)} date Tuesday, January 12, 2021 at 10:55:04 PM
; FORMAT={2:4/ absolute / inch / keep zeros}
; #@! TF.CreationDate,2021-01-12T22:55:04-08:00
; #@! TF.GenerationSoftware,Kicad,Pcbnew,(5.1.5-0)
FMAT,2
INCH
T1C0.1181
T2C0.2362
%
G90
G05
T1
X008071Y-080807
X008071Y-075984
X008071Y-066634
X008071Y-071358
X008071Y-052461
X008071Y-057185
X008071Y-061909
X008071Y-047736
T2
X011220Y-064370
X011220Y-059646
X011220Y-068996
X004921Y-059646
X004921Y-054921
X011220Y-054921
X011220Y-050098
X004921Y-050197
X011220Y-073524
X004921Y-045472
X011220Y-083071
X011220Y-078346
T0
M30
