G04 #@! TF.GenerationSoftware,KiCad,Pcbnew,(5.1.5-0)*
G04 #@! TF.CreationDate,2021-01-08T11:34:20-08:00*
G04 #@! TF.ProjectId,statues,73746174-7565-4732-9e6b-696361645f70,rev?*
G04 #@! TF.SameCoordinates,Original*
G04 #@! TF.FileFunction,Legend,Top*
G04 #@! TF.FilePolarity,Positive*
%FSLAX46Y46*%
G04 Gerber Fmt 4.6, Leading zero omitted, Abs format (unit mm)*
G04 Created by KiCad (PCBNEW (5.1.5-0)) date 2021-01-08 11:34:20*
%MOMM*%
%LPD*%
G04 APERTURE LIST*
%ADD10C,0.200000*%
%ADD11C,0.300000*%
G04 APERTURE END LIST*
D10*
X36309523Y-210761904D02*
X36119047Y-210666666D01*
X36023809Y-210571428D01*
X35928571Y-210380952D01*
X35928571Y-210285714D01*
X36023809Y-210095238D01*
X36119047Y-210000000D01*
X36309523Y-209904761D01*
X36690476Y-209904761D01*
X36880952Y-210000000D01*
X36976190Y-210095238D01*
X37071428Y-210285714D01*
X37071428Y-210380952D01*
X36976190Y-210571428D01*
X36880952Y-210666666D01*
X36690476Y-210761904D01*
X36309523Y-210761904D01*
X36119047Y-210857142D01*
X36023809Y-210952380D01*
X35928571Y-211142857D01*
X35928571Y-211523809D01*
X36023809Y-211714285D01*
X36119047Y-211809523D01*
X36309523Y-211904761D01*
X36690476Y-211904761D01*
X36880952Y-211809523D01*
X36976190Y-211714285D01*
X37071428Y-211523809D01*
X37071428Y-211142857D01*
X36976190Y-210952380D01*
X36880952Y-210857142D01*
X36690476Y-210761904D01*
X35833333Y-198154761D02*
X37166666Y-198154761D01*
X36309523Y-200154761D01*
X36880952Y-185904761D02*
X36500000Y-185904761D01*
X36309523Y-186000000D01*
X36214285Y-186095238D01*
X36023809Y-186380952D01*
X35928571Y-186761904D01*
X35928571Y-187523809D01*
X36023809Y-187714285D01*
X36119047Y-187809523D01*
X36309523Y-187904761D01*
X36690476Y-187904761D01*
X36880952Y-187809523D01*
X36976190Y-187714285D01*
X37071428Y-187523809D01*
X37071428Y-187047619D01*
X36976190Y-186857142D01*
X36880952Y-186761904D01*
X36690476Y-186666666D01*
X36309523Y-186666666D01*
X36119047Y-186761904D01*
X36023809Y-186857142D01*
X35928571Y-187047619D01*
X36976190Y-174154761D02*
X36023809Y-174154761D01*
X35928571Y-175107142D01*
X36023809Y-175011904D01*
X36214285Y-174916666D01*
X36690476Y-174916666D01*
X36880952Y-175011904D01*
X36976190Y-175107142D01*
X37071428Y-175297619D01*
X37071428Y-175773809D01*
X36976190Y-175964285D01*
X36880952Y-176059523D01*
X36690476Y-176154761D01*
X36214285Y-176154761D01*
X36023809Y-176059523D01*
X35928571Y-175964285D01*
X36880952Y-162821428D02*
X36880952Y-164154761D01*
X36404761Y-162059523D02*
X35928571Y-163488095D01*
X37166666Y-163488095D01*
X36083333Y-150404761D02*
X37321428Y-150404761D01*
X36654761Y-151166666D01*
X36940476Y-151166666D01*
X37130952Y-151261904D01*
X37226190Y-151357142D01*
X37321428Y-151547619D01*
X37321428Y-152023809D01*
X37226190Y-152214285D01*
X37130952Y-152309523D01*
X36940476Y-152404761D01*
X36369047Y-152404761D01*
X36178571Y-152309523D01*
X36083333Y-152214285D01*
X36178571Y-138095238D02*
X36273809Y-138000000D01*
X36464285Y-137904761D01*
X36940476Y-137904761D01*
X37130952Y-138000000D01*
X37226190Y-138095238D01*
X37321428Y-138285714D01*
X37321428Y-138476190D01*
X37226190Y-138761904D01*
X36083333Y-139904761D01*
X37321428Y-139904761D01*
X37321428Y-127654761D02*
X36178571Y-127654761D01*
X36750000Y-127654761D02*
X36750000Y-125654761D01*
X36559523Y-125940476D01*
X36369047Y-126130952D01*
X36178571Y-126226190D01*
X3202380Y-152404761D02*
X3202380Y-150404761D01*
X4154761Y-152404761D02*
X4154761Y-150404761D01*
X5297619Y-152404761D01*
X5297619Y-150404761D01*
X2392857Y-137904761D02*
X2583333Y-137904761D01*
X2773809Y-138000000D01*
X2869047Y-138095238D01*
X2964285Y-138285714D01*
X3059523Y-138666666D01*
X3059523Y-139142857D01*
X2964285Y-139523809D01*
X2869047Y-139714285D01*
X2773809Y-139809523D01*
X2583333Y-139904761D01*
X2392857Y-139904761D01*
X2202380Y-139809523D01*
X2107142Y-139714285D01*
X2011904Y-139523809D01*
X1916666Y-139142857D01*
X1916666Y-138666666D01*
X2011904Y-138285714D01*
X2107142Y-138095238D01*
X2202380Y-138000000D01*
X2392857Y-137904761D01*
X4297619Y-137904761D02*
X4488095Y-137904761D01*
X4678571Y-138000000D01*
X4773809Y-138095238D01*
X4869047Y-138285714D01*
X4964285Y-138666666D01*
X4964285Y-139142857D01*
X4869047Y-139523809D01*
X4773809Y-139714285D01*
X4678571Y-139809523D01*
X4488095Y-139904761D01*
X4297619Y-139904761D01*
X4107142Y-139809523D01*
X4011904Y-139714285D01*
X3916666Y-139523809D01*
X3821428Y-139142857D01*
X3821428Y-138666666D01*
X3916666Y-138285714D01*
X4011904Y-138095238D01*
X4107142Y-138000000D01*
X4297619Y-137904761D01*
X5630952Y-139904761D02*
X6678571Y-138571428D01*
X5630952Y-138571428D02*
X6678571Y-139904761D01*
X2642857Y-125904761D02*
X2833333Y-125904761D01*
X3023809Y-126000000D01*
X3119047Y-126095238D01*
X3214285Y-126285714D01*
X3309523Y-126666666D01*
X3309523Y-127142857D01*
X3214285Y-127523809D01*
X3119047Y-127714285D01*
X3023809Y-127809523D01*
X2833333Y-127904761D01*
X2642857Y-127904761D01*
X2452380Y-127809523D01*
X2357142Y-127714285D01*
X2261904Y-127523809D01*
X2166666Y-127142857D01*
X2166666Y-126666666D01*
X2261904Y-126285714D01*
X2357142Y-126095238D01*
X2452380Y-126000000D01*
X2642857Y-125904761D01*
X3976190Y-127904761D02*
X5023809Y-126571428D01*
X3976190Y-126571428D02*
X5023809Y-127904761D01*
X6166666Y-125904761D02*
X6357142Y-125904761D01*
X6547619Y-126000000D01*
X6642857Y-126095238D01*
X6738095Y-126285714D01*
X6833333Y-126666666D01*
X6833333Y-127142857D01*
X6738095Y-127523809D01*
X6642857Y-127714285D01*
X6547619Y-127809523D01*
X6357142Y-127904761D01*
X6166666Y-127904761D01*
X5976190Y-127809523D01*
X5880952Y-127714285D01*
X5785714Y-127523809D01*
X5690476Y-127142857D01*
X5690476Y-126666666D01*
X5785714Y-126285714D01*
X5880952Y-126095238D01*
X5976190Y-126000000D01*
X6166666Y-125904761D01*
X2071428Y-115904761D02*
X3119047Y-114571428D01*
X2071428Y-114571428D02*
X3119047Y-115904761D01*
X4261904Y-113904761D02*
X4452380Y-113904761D01*
X4642857Y-114000000D01*
X4738095Y-114095238D01*
X4833333Y-114285714D01*
X4928571Y-114666666D01*
X4928571Y-115142857D01*
X4833333Y-115523809D01*
X4738095Y-115714285D01*
X4642857Y-115809523D01*
X4452380Y-115904761D01*
X4261904Y-115904761D01*
X4071428Y-115809523D01*
X3976190Y-115714285D01*
X3880952Y-115523809D01*
X3785714Y-115142857D01*
X3785714Y-114666666D01*
X3880952Y-114285714D01*
X3976190Y-114095238D01*
X4071428Y-114000000D01*
X4261904Y-113904761D01*
X6166666Y-113904761D02*
X6357142Y-113904761D01*
X6547619Y-114000000D01*
X6642857Y-114095238D01*
X6738095Y-114285714D01*
X6833333Y-114666666D01*
X6833333Y-115142857D01*
X6738095Y-115523809D01*
X6642857Y-115714285D01*
X6547619Y-115809523D01*
X6357142Y-115904761D01*
X6166666Y-115904761D01*
X5976190Y-115809523D01*
X5880952Y-115714285D01*
X5785714Y-115523809D01*
X5690476Y-115142857D01*
X5690476Y-114666666D01*
X5785714Y-114285714D01*
X5880952Y-114095238D01*
X5976190Y-114000000D01*
X6166666Y-113904761D01*
D11*
X12678571Y-104261904D02*
X13035714Y-104380952D01*
X13630952Y-104380952D01*
X13869047Y-104261904D01*
X13988095Y-104142857D01*
X14107142Y-103904761D01*
X14107142Y-103666666D01*
X13988095Y-103428571D01*
X13869047Y-103309523D01*
X13630952Y-103190476D01*
X13154761Y-103071428D01*
X12916666Y-102952380D01*
X12797619Y-102833333D01*
X12678571Y-102595238D01*
X12678571Y-102357142D01*
X12797619Y-102119047D01*
X12916666Y-102000000D01*
X13154761Y-101880952D01*
X13750000Y-101880952D01*
X14107142Y-102000000D01*
X14821428Y-101880952D02*
X16250000Y-101880952D01*
X15535714Y-104380952D02*
X15535714Y-101880952D01*
X16964285Y-103666666D02*
X18154761Y-103666666D01*
X16726190Y-104380952D02*
X17559523Y-101880952D01*
X18392857Y-104380952D01*
X18869047Y-101880952D02*
X20297619Y-101880952D01*
X19583333Y-104380952D02*
X19583333Y-101880952D01*
X21130952Y-101880952D02*
X21130952Y-103904761D01*
X21250000Y-104142857D01*
X21369047Y-104261904D01*
X21607142Y-104380952D01*
X22083333Y-104380952D01*
X22321428Y-104261904D01*
X22440476Y-104142857D01*
X22559523Y-103904761D01*
X22559523Y-101880952D01*
X23750000Y-103071428D02*
X24583333Y-103071428D01*
X24940476Y-104380952D02*
X23750000Y-104380952D01*
X23750000Y-101880952D01*
X24940476Y-101880952D01*
X25892857Y-104261904D02*
X26250000Y-104380952D01*
X26845238Y-104380952D01*
X27083333Y-104261904D01*
X27202380Y-104142857D01*
X27321428Y-103904761D01*
X27321428Y-103666666D01*
X27202380Y-103428571D01*
X27083333Y-103309523D01*
X26845238Y-103190476D01*
X26369047Y-103071428D01*
X26130952Y-102952380D01*
X26011904Y-102833333D01*
X25892857Y-102595238D01*
X25892857Y-102357142D01*
X26011904Y-102119047D01*
X26130952Y-102000000D01*
X26369047Y-101880952D01*
X26964285Y-101880952D01*
X27321428Y-102000000D01*
M02*
