G04 #@! TF.GenerationSoftware,KiCad,Pcbnew,(5.1.5-0)*
G04 #@! TF.CreationDate,2021-01-19T23:08:31-08:00*
G04 #@! TF.ProjectId,badumtiss,62616475-6d74-4697-9373-2e6b69636164,rev?*
G04 #@! TF.SameCoordinates,Original*
G04 #@! TF.FileFunction,Copper,L1,Top*
G04 #@! TF.FilePolarity,Positive*
%FSLAX46Y46*%
G04 Gerber Fmt 4.6, Leading zero omitted, Abs format (unit mm)*
G04 Created by KiCad (PCBNEW (5.1.5-0)) date 2021-01-19 23:08:31*
%MOMM*%
%LPD*%
G04 APERTURE LIST*
%ADD10C,1.000000*%
%ADD11C,2.000000*%
%ADD12C,0.100000*%
%ADD13C,3.100000*%
%ADD14C,6.100000*%
G04 APERTURE END LIST*
D10*
X32000000Y-104000000D02*
G75*
G03X32000000Y-104000000I-2000000J0D01*
G01*
D11*
X25000000Y-97500000D02*
X5000000Y-97500000D01*
D12*
G36*
X16596400Y-119524900D02*
G01*
X16913900Y-119766200D01*
X17479050Y-120083700D01*
X18075950Y-120515500D01*
X18450600Y-120896500D01*
X18850650Y-121461650D01*
X19447550Y-122642750D01*
X19746000Y-123207900D01*
X19758700Y-123220600D01*
X19428500Y-123246000D01*
X19326900Y-123195200D01*
X18971300Y-122947550D01*
X18564900Y-122579250D01*
X18234700Y-122230000D01*
X17879100Y-121798200D01*
X17599700Y-121379100D01*
X17409200Y-121125100D01*
X17155200Y-120667900D01*
X16901200Y-120299600D01*
X16659900Y-119880500D01*
X16380500Y-119321700D01*
X16596400Y-119524900D01*
G37*
X16596400Y-119524900D02*
X16913900Y-119766200D01*
X17479050Y-120083700D01*
X18075950Y-120515500D01*
X18450600Y-120896500D01*
X18850650Y-121461650D01*
X19447550Y-122642750D01*
X19746000Y-123207900D01*
X19758700Y-123220600D01*
X19428500Y-123246000D01*
X19326900Y-123195200D01*
X18971300Y-122947550D01*
X18564900Y-122579250D01*
X18234700Y-122230000D01*
X17879100Y-121798200D01*
X17599700Y-121379100D01*
X17409200Y-121125100D01*
X17155200Y-120667900D01*
X16901200Y-120299600D01*
X16659900Y-119880500D01*
X16380500Y-119321700D01*
X16596400Y-119524900D01*
G36*
X18002925Y-122703075D02*
G01*
X18339475Y-122798325D01*
X18603000Y-122890400D01*
X19301500Y-123296800D01*
X19331980Y-123324740D01*
X19339600Y-123309500D01*
X19339600Y-123322200D01*
X19331980Y-123324740D01*
X19250700Y-123487300D01*
X19644400Y-123627000D01*
X19434850Y-123652400D01*
X19041150Y-123677800D01*
X18564900Y-123677800D01*
X18120400Y-123614300D01*
X17637800Y-123500000D01*
X17244100Y-123385700D01*
X16837700Y-123157100D01*
X16520200Y-122928500D01*
X16113800Y-122801500D01*
X16761500Y-122750700D01*
X17294900Y-122712600D01*
X17758450Y-122706250D01*
X18002925Y-122703075D01*
G37*
X18002925Y-122703075D02*
X18339475Y-122798325D01*
X18603000Y-122890400D01*
X19301500Y-123296800D01*
X19331980Y-123324740D01*
X19339600Y-123309500D01*
X19339600Y-123322200D01*
X19331980Y-123324740D01*
X19250700Y-123487300D01*
X19644400Y-123627000D01*
X19434850Y-123652400D01*
X19041150Y-123677800D01*
X18564900Y-123677800D01*
X18120400Y-123614300D01*
X17637800Y-123500000D01*
X17244100Y-123385700D01*
X16837700Y-123157100D01*
X16520200Y-122928500D01*
X16113800Y-122801500D01*
X16761500Y-122750700D01*
X17294900Y-122712600D01*
X17758450Y-122706250D01*
X18002925Y-122703075D01*
G36*
X19866650Y-123766700D02*
G01*
X19498350Y-124198500D01*
X19060200Y-124471550D01*
X18679200Y-124611250D01*
X17929900Y-124776350D01*
X18412500Y-124249300D01*
X18806200Y-123982600D01*
X19174500Y-123779400D01*
X19644400Y-123703200D01*
X19669800Y-123703200D01*
X19866650Y-123766700D01*
G37*
X19866650Y-123766700D02*
X19498350Y-124198500D01*
X19060200Y-124471550D01*
X18679200Y-124611250D01*
X17929900Y-124776350D01*
X18412500Y-124249300D01*
X18806200Y-123982600D01*
X19174500Y-123779400D01*
X19644400Y-123703200D01*
X19669800Y-123703200D01*
X19866650Y-123766700D01*
G36*
X20000000Y-123284100D02*
G01*
X19788862Y-123477775D01*
X20007937Y-123573025D01*
X20758825Y-124115950D01*
X20577850Y-124211200D01*
X20000000Y-123754000D01*
X20012700Y-124846200D01*
X19898400Y-124706500D01*
X19892050Y-123817500D01*
X19936500Y-123817500D01*
X19555500Y-123601600D01*
X19269750Y-123449200D01*
X19434850Y-123169800D01*
X20000000Y-123284100D01*
G37*
X20000000Y-123284100D02*
X19788862Y-123477775D01*
X20007937Y-123573025D01*
X20758825Y-124115950D01*
X20577850Y-124211200D01*
X20000000Y-123754000D01*
X20012700Y-124846200D01*
X19898400Y-124706500D01*
X19892050Y-123817500D01*
X19936500Y-123817500D01*
X19555500Y-123601600D01*
X19269750Y-123449200D01*
X19434850Y-123169800D01*
X20000000Y-123284100D01*
G36*
X20641350Y-123741300D02*
G01*
X21193800Y-124020700D01*
X21520825Y-124347725D01*
X21655763Y-124577913D01*
X21887538Y-124847788D01*
X21581150Y-124763650D01*
X21327150Y-124687450D01*
X21149350Y-124623950D01*
X20774700Y-124490600D01*
X20415925Y-124296925D01*
X20155575Y-124011175D01*
X20031750Y-123849250D01*
X20095250Y-123887350D01*
X20069850Y-123823850D01*
X20133350Y-123652400D01*
X20641350Y-123741300D01*
G37*
X20641350Y-123741300D02*
X21193800Y-124020700D01*
X21520825Y-124347725D01*
X21655763Y-124577913D01*
X21887538Y-124847788D01*
X21581150Y-124763650D01*
X21327150Y-124687450D01*
X21149350Y-124623950D01*
X20774700Y-124490600D01*
X20415925Y-124296925D01*
X20155575Y-124011175D01*
X20031750Y-123849250D01*
X20095250Y-123887350D01*
X20069850Y-123823850D01*
X20133350Y-123652400D01*
X20641350Y-123741300D01*
G36*
X23073400Y-122738000D02*
G01*
X23505200Y-122763400D01*
X24083207Y-122773943D01*
X23403600Y-122928500D01*
X22971800Y-123119000D01*
X22628900Y-123334900D01*
X22209800Y-123500000D01*
X21676400Y-123588900D01*
X21231900Y-123614300D01*
X20654050Y-123595250D01*
X20076200Y-123576200D01*
X20012700Y-123500000D01*
X20228600Y-123436500D01*
X20235585Y-123385700D01*
X20551815Y-123258700D01*
X21085850Y-123030100D01*
X21638300Y-122826900D01*
X22032000Y-122712600D01*
X22476500Y-122712600D01*
X23073400Y-122738000D01*
G37*
X23073400Y-122738000D02*
X23505200Y-122763400D01*
X24083207Y-122773943D01*
X23403600Y-122928500D01*
X22971800Y-123119000D01*
X22628900Y-123334900D01*
X22209800Y-123500000D01*
X21676400Y-123588900D01*
X21231900Y-123614300D01*
X20654050Y-123595250D01*
X20076200Y-123576200D01*
X20012700Y-123500000D01*
X20228600Y-123436500D01*
X20235585Y-123385700D01*
X20551815Y-123258700D01*
X21085850Y-123030100D01*
X21638300Y-122826900D01*
X22032000Y-122712600D01*
X22476500Y-122712600D01*
X23073400Y-122738000D01*
G36*
X23060700Y-120083700D02*
G01*
X22819400Y-120579000D01*
X22616200Y-121036200D01*
X22355850Y-121556900D01*
X22082800Y-121912500D01*
X21771650Y-122325250D01*
X21301750Y-122718950D01*
X20800100Y-123055500D01*
X19695200Y-123652400D01*
X19720600Y-123322200D01*
X20025400Y-123271400D01*
X20273050Y-122833250D01*
X20488950Y-122369700D01*
X20654050Y-122039500D01*
X20838200Y-121747400D01*
X21003300Y-121429900D01*
X21282700Y-121074300D01*
X21562100Y-120756800D01*
X21892300Y-120464700D01*
X22235200Y-120236100D01*
X22616200Y-119982100D01*
X23009900Y-119715400D01*
X23543300Y-119321700D01*
X23060700Y-120083700D01*
G37*
X23060700Y-120083700D02*
X22819400Y-120579000D01*
X22616200Y-121036200D01*
X22355850Y-121556900D01*
X22082800Y-121912500D01*
X21771650Y-122325250D01*
X21301750Y-122718950D01*
X20800100Y-123055500D01*
X19695200Y-123652400D01*
X19720600Y-123322200D01*
X20025400Y-123271400D01*
X20273050Y-122833250D01*
X20488950Y-122369700D01*
X20654050Y-122039500D01*
X20838200Y-121747400D01*
X21003300Y-121429900D01*
X21282700Y-121074300D01*
X21562100Y-120756800D01*
X21892300Y-120464700D01*
X22235200Y-120236100D01*
X22616200Y-119982100D01*
X23009900Y-119715400D01*
X23543300Y-119321700D01*
X23060700Y-120083700D01*
G36*
X20215900Y-117950100D02*
G01*
X20317500Y-118432700D01*
X20431800Y-118889900D01*
X20514350Y-119220100D01*
X20577850Y-119601100D01*
X20622300Y-120121800D01*
X20622300Y-120655200D01*
X20571500Y-121239400D01*
X20508000Y-121760100D01*
X20365125Y-122255400D01*
X20066675Y-123271400D01*
X19853950Y-123220600D01*
X19619000Y-122306200D01*
X19445962Y-121442600D01*
X19461837Y-120655200D01*
X19514225Y-119994800D01*
X19676150Y-119220100D01*
X19911100Y-118407300D01*
X20038100Y-117632600D01*
X20101600Y-117111900D01*
X20215900Y-117950100D01*
G37*
X20215900Y-117950100D02*
X20317500Y-118432700D01*
X20431800Y-118889900D01*
X20514350Y-119220100D01*
X20577850Y-119601100D01*
X20622300Y-120121800D01*
X20622300Y-120655200D01*
X20571500Y-121239400D01*
X20508000Y-121760100D01*
X20365125Y-122255400D01*
X20066675Y-123271400D01*
X19853950Y-123220600D01*
X19619000Y-122306200D01*
X19445962Y-121442600D01*
X19461837Y-120655200D01*
X19514225Y-119994800D01*
X19676150Y-119220100D01*
X19911100Y-118407300D01*
X20038100Y-117632600D01*
X20101600Y-117111900D01*
X20215900Y-117950100D01*
D13*
X30000000Y-104000000D03*
D14*
X35000000Y-97500000D03*
X5000000Y-82000000D03*
X5000000Y-97500000D03*
X25000000Y-97500000D03*
X15000000Y-97500000D03*
M02*
