G04 #@! TF.GenerationSoftware,KiCad,Pcbnew,(5.1.5-0)*
G04 #@! TF.CreationDate,2021-01-19T23:08:31-08:00*
G04 #@! TF.ProjectId,badumtiss,62616475-6d74-4697-9373-2e6b69636164,rev?*
G04 #@! TF.SameCoordinates,Original*
G04 #@! TF.FileFunction,Legend,Top*
G04 #@! TF.FilePolarity,Positive*
%FSLAX46Y46*%
G04 Gerber Fmt 4.6, Leading zero omitted, Abs format (unit mm)*
G04 Created by KiCad (PCBNEW (5.1.5-0)) date 2021-01-19 23:08:31*
%MOMM*%
%LPD*%
G04 APERTURE LIST*
%ADD10C,0.200000*%
%ADD11C,0.400000*%
G04 APERTURE END LIST*
D10*
X24761904Y-87364285D02*
X24666666Y-87459523D01*
X24380952Y-87554761D01*
X24190476Y-87554761D01*
X23904761Y-87459523D01*
X23714285Y-87269047D01*
X23619047Y-87078571D01*
X23523809Y-86697619D01*
X23523809Y-86411904D01*
X23619047Y-86030952D01*
X23714285Y-85840476D01*
X23904761Y-85650000D01*
X24190476Y-85554761D01*
X24380952Y-85554761D01*
X24666666Y-85650000D01*
X24761904Y-85745238D01*
X25333333Y-85554761D02*
X26000000Y-87554761D01*
X26666666Y-85554761D01*
X22333333Y-89707142D02*
X21666666Y-89707142D01*
X21666666Y-90754761D02*
X21666666Y-88754761D01*
X22619047Y-88754761D01*
X24523809Y-90754761D02*
X23857142Y-89802380D01*
X23380952Y-90754761D02*
X23380952Y-88754761D01*
X24142857Y-88754761D01*
X24333333Y-88850000D01*
X24428571Y-88945238D01*
X24523809Y-89135714D01*
X24523809Y-89421428D01*
X24428571Y-89611904D01*
X24333333Y-89707142D01*
X24142857Y-89802380D01*
X23380952Y-89802380D01*
X25380952Y-89707142D02*
X26047619Y-89707142D01*
X26333333Y-90754761D02*
X25380952Y-90754761D01*
X25380952Y-88754761D01*
X26333333Y-88754761D01*
X28523809Y-90945238D02*
X28333333Y-90850000D01*
X28142857Y-90659523D01*
X27857142Y-90373809D01*
X27666666Y-90278571D01*
X27476190Y-90278571D01*
X27571428Y-90754761D02*
X27380952Y-90659523D01*
X27190476Y-90469047D01*
X27095238Y-90088095D01*
X27095238Y-89421428D01*
X27190476Y-89040476D01*
X27380952Y-88850000D01*
X27571428Y-88754761D01*
X27952380Y-88754761D01*
X28142857Y-88850000D01*
X28333333Y-89040476D01*
X28428571Y-89421428D01*
X28428571Y-90088095D01*
X28333333Y-90469047D01*
X28142857Y-90659523D01*
X27952380Y-90754761D01*
X27571428Y-90754761D01*
X3952380Y-91154761D02*
X3952380Y-89154761D01*
X4904761Y-91154761D02*
X4904761Y-89154761D01*
X6047619Y-91154761D01*
X6047619Y-89154761D01*
D11*
X13566666Y-2925000D02*
X14066666Y-3091666D01*
X14233333Y-3258333D01*
X14400000Y-3591666D01*
X14400000Y-4091666D01*
X14233333Y-4425000D01*
X14066666Y-4591666D01*
X13733333Y-4758333D01*
X12400000Y-4758333D01*
X12400000Y-1258333D01*
X13566666Y-1258333D01*
X13900000Y-1425000D01*
X14066666Y-1591666D01*
X14233333Y-1925000D01*
X14233333Y-2258333D01*
X14066666Y-2591666D01*
X13900000Y-2758333D01*
X13566666Y-2925000D01*
X12400000Y-2925000D01*
X15733333Y-3758333D02*
X17400000Y-3758333D01*
X15400000Y-4758333D02*
X16566666Y-1258333D01*
X17733333Y-4758333D01*
X18900000Y-4758333D02*
X18900000Y-1258333D01*
X19733333Y-1258333D01*
X20233333Y-1425000D01*
X20566666Y-1758333D01*
X20733333Y-2091666D01*
X20900000Y-2758333D01*
X20900000Y-3258333D01*
X20733333Y-3925000D01*
X20566666Y-4258333D01*
X20233333Y-4591666D01*
X19733333Y-4758333D01*
X18900000Y-4758333D01*
X22400000Y-1258333D02*
X22400000Y-4091666D01*
X22566666Y-4425000D01*
X22733333Y-4591666D01*
X23066666Y-4758333D01*
X23733333Y-4758333D01*
X24066666Y-4591666D01*
X24233333Y-4425000D01*
X24400000Y-4091666D01*
X24400000Y-1258333D01*
X26066666Y-4758333D02*
X26066666Y-1258333D01*
X27233333Y-3758333D01*
X28400000Y-1258333D01*
X28400000Y-4758333D01*
X13566666Y-6908333D02*
X15566666Y-6908333D01*
X14566666Y-10408333D02*
X14566666Y-6908333D01*
X16733333Y-10408333D02*
X16733333Y-6908333D01*
X18233333Y-10241666D02*
X18733333Y-10408333D01*
X19566666Y-10408333D01*
X19900000Y-10241666D01*
X20066666Y-10075000D01*
X20233333Y-9741666D01*
X20233333Y-9408333D01*
X20066666Y-9075000D01*
X19900000Y-8908333D01*
X19566666Y-8741666D01*
X18900000Y-8575000D01*
X18566666Y-8408333D01*
X18400000Y-8241666D01*
X18233333Y-7908333D01*
X18233333Y-7575000D01*
X18400000Y-7241666D01*
X18566666Y-7075000D01*
X18900000Y-6908333D01*
X19733333Y-6908333D01*
X20233333Y-7075000D01*
X21566666Y-10241666D02*
X22066666Y-10408333D01*
X22900000Y-10408333D01*
X23233333Y-10241666D01*
X23400000Y-10075000D01*
X23566666Y-9741666D01*
X23566666Y-9408333D01*
X23400000Y-9075000D01*
X23233333Y-8908333D01*
X22900000Y-8741666D01*
X22233333Y-8575000D01*
X21900000Y-8408333D01*
X21733333Y-8241666D01*
X21566666Y-7908333D01*
X21566666Y-7575000D01*
X21733333Y-7241666D01*
X21900000Y-7075000D01*
X22233333Y-6908333D01*
X23066666Y-6908333D01*
X23566666Y-7075000D01*
X24900000Y-10241666D02*
X25400000Y-10408333D01*
X26233333Y-10408333D01*
X26566666Y-10241666D01*
X26733333Y-10075000D01*
X26900000Y-9741666D01*
X26900000Y-9408333D01*
X26733333Y-9075000D01*
X26566666Y-8908333D01*
X26233333Y-8741666D01*
X25566666Y-8575000D01*
X25233333Y-8408333D01*
X25066666Y-8241666D01*
X24900000Y-7908333D01*
X24900000Y-7575000D01*
X25066666Y-7241666D01*
X25233333Y-7075000D01*
X25566666Y-6908333D01*
X26400000Y-6908333D01*
X26900000Y-7075000D01*
D10*
X27333333Y-32857142D02*
X26666666Y-32857142D01*
X26666666Y-33904761D02*
X26666666Y-31904761D01*
X27619047Y-31904761D01*
X29523809Y-33904761D02*
X28857142Y-32952380D01*
X28380952Y-33904761D02*
X28380952Y-31904761D01*
X29142857Y-31904761D01*
X29333333Y-32000000D01*
X29428571Y-32095238D01*
X29523809Y-32285714D01*
X29523809Y-32571428D01*
X29428571Y-32761904D01*
X29333333Y-32857142D01*
X29142857Y-32952380D01*
X28380952Y-32952380D01*
X30380952Y-32857142D02*
X31047619Y-32857142D01*
X31333333Y-33904761D02*
X30380952Y-33904761D01*
X30380952Y-31904761D01*
X31333333Y-31904761D01*
X33523809Y-34095238D02*
X33333333Y-34000000D01*
X33142857Y-33809523D01*
X32857142Y-33523809D01*
X32666666Y-33428571D01*
X32476190Y-33428571D01*
X32571428Y-33904761D02*
X32380952Y-33809523D01*
X32190476Y-33619047D01*
X32095238Y-33238095D01*
X32095238Y-32571428D01*
X32190476Y-32190476D01*
X32380952Y-32000000D01*
X32571428Y-31904761D01*
X32952380Y-31904761D01*
X33142857Y-32000000D01*
X33333333Y-32190476D01*
X33428571Y-32571428D01*
X33428571Y-33238095D01*
X33333333Y-33619047D01*
X33142857Y-33809523D01*
X32952380Y-33904761D01*
X32571428Y-33904761D01*
X26297619Y-17904761D02*
X26297619Y-15904761D01*
X27440476Y-17904761D01*
X27440476Y-15904761D01*
X28773809Y-15904761D02*
X29154761Y-15904761D01*
X29345238Y-16000000D01*
X29535714Y-16190476D01*
X29630952Y-16571428D01*
X29630952Y-17238095D01*
X29535714Y-17619047D01*
X29345238Y-17809523D01*
X29154761Y-17904761D01*
X28773809Y-17904761D01*
X28583333Y-17809523D01*
X28392857Y-17619047D01*
X28297619Y-17238095D01*
X28297619Y-16571428D01*
X28392857Y-16190476D01*
X28583333Y-16000000D01*
X28773809Y-15904761D01*
X30488095Y-17904761D02*
X30488095Y-15904761D01*
X31345238Y-17809523D02*
X31630952Y-17904761D01*
X32107142Y-17904761D01*
X32297619Y-17809523D01*
X32392857Y-17714285D01*
X32488095Y-17523809D01*
X32488095Y-17333333D01*
X32392857Y-17142857D01*
X32297619Y-17047619D01*
X32107142Y-16952380D01*
X31726190Y-16857142D01*
X31535714Y-16761904D01*
X31440476Y-16666666D01*
X31345238Y-16476190D01*
X31345238Y-16285714D01*
X31440476Y-16095238D01*
X31535714Y-16000000D01*
X31726190Y-15904761D01*
X32202380Y-15904761D01*
X32488095Y-16000000D01*
X33345238Y-16857142D02*
X34011904Y-16857142D01*
X34297619Y-17904761D02*
X33345238Y-17904761D01*
X33345238Y-15904761D01*
X34297619Y-15904761D01*
X3940476Y-16857142D02*
X4607142Y-16857142D01*
X4892857Y-17904761D02*
X3940476Y-17904761D01*
X3940476Y-15904761D01*
X4892857Y-15904761D01*
X5750000Y-17904761D02*
X5750000Y-15904761D01*
X6892857Y-17904761D01*
X6892857Y-15904761D01*
X7559523Y-15904761D02*
X8226190Y-17904761D01*
X8892857Y-15904761D01*
X11750000Y-16857142D02*
X11083333Y-16857142D01*
X11083333Y-17904761D02*
X11083333Y-15904761D01*
X12035714Y-15904761D01*
X13178571Y-15904761D02*
X13559523Y-15904761D01*
X13750000Y-16000000D01*
X13940476Y-16190476D01*
X14035714Y-16571428D01*
X14035714Y-17238095D01*
X13940476Y-17619047D01*
X13750000Y-17809523D01*
X13559523Y-17904761D01*
X13178571Y-17904761D01*
X12988095Y-17809523D01*
X12797619Y-17619047D01*
X12702380Y-17238095D01*
X12702380Y-16571428D01*
X12797619Y-16190476D01*
X12988095Y-16000000D01*
X13178571Y-15904761D01*
X15845238Y-17904761D02*
X14892857Y-17904761D01*
X14892857Y-15904761D01*
X4130952Y-33714285D02*
X4035714Y-33809523D01*
X3750000Y-33904761D01*
X3559523Y-33904761D01*
X3273809Y-33809523D01*
X3083333Y-33619047D01*
X2988095Y-33428571D01*
X2892857Y-33047619D01*
X2892857Y-32761904D01*
X2988095Y-32380952D01*
X3083333Y-32190476D01*
X3273809Y-32000000D01*
X3559523Y-31904761D01*
X3750000Y-31904761D01*
X4035714Y-32000000D01*
X4130952Y-32095238D01*
X4702380Y-31904761D02*
X5369047Y-33904761D01*
X6035714Y-31904761D01*
X8226190Y-33904761D02*
X8226190Y-31904761D01*
X8702380Y-31904761D01*
X8988095Y-32000000D01*
X9178571Y-32190476D01*
X9273809Y-32380952D01*
X9369047Y-32761904D01*
X9369047Y-33047619D01*
X9273809Y-33428571D01*
X9178571Y-33619047D01*
X8988095Y-33809523D01*
X8702380Y-33904761D01*
X8226190Y-33904761D01*
X10226190Y-32857142D02*
X10892857Y-32857142D01*
X11178571Y-33904761D02*
X10226190Y-33904761D01*
X10226190Y-31904761D01*
X11178571Y-31904761D01*
X13178571Y-33714285D02*
X13083333Y-33809523D01*
X12797619Y-33904761D01*
X12607142Y-33904761D01*
X12321428Y-33809523D01*
X12130952Y-33619047D01*
X12035714Y-33428571D01*
X11940476Y-33047619D01*
X11940476Y-32761904D01*
X12035714Y-32380952D01*
X12130952Y-32190476D01*
X12321428Y-32000000D01*
X12607142Y-31904761D01*
X12797619Y-31904761D01*
X13083333Y-32000000D01*
X13178571Y-32095238D01*
X13940476Y-33333333D02*
X14892857Y-33333333D01*
X13750000Y-33904761D02*
X14416666Y-31904761D01*
X15083333Y-33904761D01*
X16130952Y-32952380D02*
X16130952Y-33904761D01*
X15464285Y-31904761D02*
X16130952Y-32952380D01*
X16797619Y-31904761D01*
X5607142Y-49904761D02*
X5607142Y-47904761D01*
X6083333Y-47904761D01*
X6369047Y-48000000D01*
X6559523Y-48190476D01*
X6654761Y-48380952D01*
X6750000Y-48761904D01*
X6750000Y-49047619D01*
X6654761Y-49428571D01*
X6559523Y-49619047D01*
X6369047Y-49809523D01*
X6083333Y-49904761D01*
X5607142Y-49904761D01*
X7607142Y-48857142D02*
X8273809Y-48857142D01*
X8559523Y-49904761D02*
X7607142Y-49904761D01*
X7607142Y-47904761D01*
X8559523Y-47904761D01*
X10559523Y-49714285D02*
X10464285Y-49809523D01*
X10178571Y-49904761D01*
X9988095Y-49904761D01*
X9702380Y-49809523D01*
X9511904Y-49619047D01*
X9416666Y-49428571D01*
X9321428Y-49047619D01*
X9321428Y-48761904D01*
X9416666Y-48380952D01*
X9511904Y-48190476D01*
X9702380Y-48000000D01*
X9988095Y-47904761D01*
X10178571Y-47904761D01*
X10464285Y-48000000D01*
X10559523Y-48095238D01*
X11321428Y-49333333D02*
X12273809Y-49333333D01*
X11130952Y-49904761D02*
X11797619Y-47904761D01*
X12464285Y-49904761D01*
X13511904Y-48952380D02*
X13511904Y-49904761D01*
X12845238Y-47904761D02*
X13511904Y-48952380D01*
X14178571Y-47904761D01*
X33000000Y-88904761D02*
X33380952Y-88904761D01*
X33571428Y-89000000D01*
X33761904Y-89190476D01*
X33857142Y-89571428D01*
X33857142Y-90238095D01*
X33761904Y-90619047D01*
X33571428Y-90809523D01*
X33380952Y-90904761D01*
X33000000Y-90904761D01*
X32809523Y-90809523D01*
X32619047Y-90619047D01*
X32523809Y-90238095D01*
X32523809Y-89571428D01*
X32619047Y-89190476D01*
X32809523Y-89000000D01*
X33000000Y-88904761D01*
X34714285Y-88904761D02*
X34714285Y-90523809D01*
X34809523Y-90714285D01*
X34904761Y-90809523D01*
X35095238Y-90904761D01*
X35476190Y-90904761D01*
X35666666Y-90809523D01*
X35761904Y-90714285D01*
X35857142Y-90523809D01*
X35857142Y-88904761D01*
X36523809Y-88904761D02*
X37666666Y-88904761D01*
X37095238Y-90904761D02*
X37095238Y-88904761D01*
X14511904Y-87614285D02*
X14416666Y-87709523D01*
X14130952Y-87804761D01*
X13940476Y-87804761D01*
X13654761Y-87709523D01*
X13464285Y-87519047D01*
X13369047Y-87328571D01*
X13273809Y-86947619D01*
X13273809Y-86661904D01*
X13369047Y-86280952D01*
X13464285Y-86090476D01*
X13654761Y-85900000D01*
X13940476Y-85804761D01*
X14130952Y-85804761D01*
X14416666Y-85900000D01*
X14511904Y-85995238D01*
X15083333Y-85804761D02*
X15750000Y-87804761D01*
X16416666Y-85804761D01*
X10607142Y-91004761D02*
X10607142Y-89004761D01*
X11083333Y-89004761D01*
X11369047Y-89100000D01*
X11559523Y-89290476D01*
X11654761Y-89480952D01*
X11750000Y-89861904D01*
X11750000Y-90147619D01*
X11654761Y-90528571D01*
X11559523Y-90719047D01*
X11369047Y-90909523D01*
X11083333Y-91004761D01*
X10607142Y-91004761D01*
X12607142Y-89957142D02*
X13273809Y-89957142D01*
X13559523Y-91004761D02*
X12607142Y-91004761D01*
X12607142Y-89004761D01*
X13559523Y-89004761D01*
X15559523Y-90814285D02*
X15464285Y-90909523D01*
X15178571Y-91004761D01*
X14988095Y-91004761D01*
X14702380Y-90909523D01*
X14511904Y-90719047D01*
X14416666Y-90528571D01*
X14321428Y-90147619D01*
X14321428Y-89861904D01*
X14416666Y-89480952D01*
X14511904Y-89290476D01*
X14702380Y-89100000D01*
X14988095Y-89004761D01*
X15178571Y-89004761D01*
X15464285Y-89100000D01*
X15559523Y-89195238D01*
X16321428Y-90433333D02*
X17273809Y-90433333D01*
X16130952Y-91004761D02*
X16797619Y-89004761D01*
X17464285Y-91004761D01*
X18511904Y-90052380D02*
X18511904Y-91004761D01*
X17845238Y-89004761D02*
X18511904Y-90052380D01*
X19178571Y-89004761D01*
X2202380Y-73154761D02*
X3345238Y-73154761D01*
X2773809Y-75154761D02*
X2773809Y-73154761D01*
X5154761Y-75154761D02*
X4488095Y-74202380D01*
X4011904Y-75154761D02*
X4011904Y-73154761D01*
X4773809Y-73154761D01*
X4964285Y-73250000D01*
X5059523Y-73345238D01*
X5154761Y-73535714D01*
X5154761Y-73821428D01*
X5059523Y-74011904D01*
X4964285Y-74107142D01*
X4773809Y-74202380D01*
X4011904Y-74202380D01*
X6011904Y-75154761D02*
X6011904Y-73154761D01*
X8011904Y-73250000D02*
X7821428Y-73154761D01*
X7535714Y-73154761D01*
X7250000Y-73250000D01*
X7059523Y-73440476D01*
X6964285Y-73630952D01*
X6869047Y-74011904D01*
X6869047Y-74297619D01*
X6964285Y-74678571D01*
X7059523Y-74869047D01*
X7250000Y-75059523D01*
X7535714Y-75154761D01*
X7726190Y-75154761D01*
X8011904Y-75059523D01*
X8107142Y-74964285D01*
X8107142Y-74297619D01*
X7726190Y-74297619D01*
M02*
