G04 #@! TF.GenerationSoftware,KiCad,Pcbnew,(5.1.9-0-10_14)*
G04 #@! TF.CreationDate,2021-02-15T22:11:41-08:00*
G04 #@! TF.ProjectId,resonate,7265736f-6e61-4746-952e-6b696361645f,rev?*
G04 #@! TF.SameCoordinates,Original*
G04 #@! TF.FileFunction,Soldermask,Bot*
G04 #@! TF.FilePolarity,Negative*
%FSLAX46Y46*%
G04 Gerber Fmt 4.6, Leading zero omitted, Abs format (unit mm)*
G04 Created by KiCad (PCBNEW (5.1.9-0-10_14)) date 2021-02-15 22:11:41*
%MOMM*%
%LPD*%
G01*
G04 APERTURE LIST*
%ADD10C,0.200000*%
%ADD11C,1.000000*%
%ADD12C,6.202000*%
G04 APERTURE END LIST*
D10*
X137226190Y-21202380D02*
X137226190Y-20535714D01*
X137226190Y-20726190D02*
X137178571Y-20630952D01*
X137130952Y-20583333D01*
X137035714Y-20535714D01*
X136940476Y-20535714D01*
X136226190Y-21154761D02*
X136321428Y-21202380D01*
X136511904Y-21202380D01*
X136607142Y-21154761D01*
X136654761Y-21059523D01*
X136654761Y-20678571D01*
X136607142Y-20583333D01*
X136511904Y-20535714D01*
X136321428Y-20535714D01*
X136226190Y-20583333D01*
X136178571Y-20678571D01*
X136178571Y-20773809D01*
X136654761Y-20869047D01*
X135750000Y-20535714D02*
X135750000Y-21535714D01*
X135750000Y-20583333D02*
X135654761Y-20535714D01*
X135464285Y-20535714D01*
X135369047Y-20583333D01*
X135321428Y-20630952D01*
X135273809Y-20726190D01*
X135273809Y-21011904D01*
X135321428Y-21107142D01*
X135369047Y-21154761D01*
X135464285Y-21202380D01*
X135654761Y-21202380D01*
X135750000Y-21154761D01*
X134416666Y-21202380D02*
X134416666Y-20678571D01*
X134464285Y-20583333D01*
X134559523Y-20535714D01*
X134750000Y-20535714D01*
X134845238Y-20583333D01*
X134416666Y-21154761D02*
X134511904Y-21202380D01*
X134750000Y-21202380D01*
X134845238Y-21154761D01*
X134892857Y-21059523D01*
X134892857Y-20964285D01*
X134845238Y-20869047D01*
X134750000Y-20821428D01*
X134511904Y-20821428D01*
X134416666Y-20773809D01*
X133940476Y-20535714D02*
X133940476Y-21202380D01*
X133940476Y-20630952D02*
X133892857Y-20583333D01*
X133797619Y-20535714D01*
X133654761Y-20535714D01*
X133559523Y-20583333D01*
X133511904Y-20678571D01*
X133511904Y-21202380D01*
X132654761Y-21154761D02*
X132750000Y-21202380D01*
X132940476Y-21202380D01*
X133035714Y-21154761D01*
X133083333Y-21059523D01*
X133083333Y-20678571D01*
X133035714Y-20583333D01*
X132940476Y-20535714D01*
X132750000Y-20535714D01*
X132654761Y-20583333D01*
X132607142Y-20678571D01*
X132607142Y-20773809D01*
X133083333Y-20869047D01*
X132035714Y-21202380D02*
X132130952Y-21154761D01*
X132178571Y-21059523D01*
X132178571Y-20202380D01*
X130892857Y-21202380D02*
X130892857Y-20202380D01*
X130892857Y-20583333D02*
X130797619Y-20535714D01*
X130607142Y-20535714D01*
X130511904Y-20583333D01*
X130464285Y-20630952D01*
X130416666Y-20726190D01*
X130416666Y-21011904D01*
X130464285Y-21107142D01*
X130511904Y-21154761D01*
X130607142Y-21202380D01*
X130797619Y-21202380D01*
X130892857Y-21154761D01*
X130083333Y-20535714D02*
X129845238Y-21202380D01*
X129607142Y-20535714D02*
X129845238Y-21202380D01*
X129940476Y-21440476D01*
X129988095Y-21488095D01*
X130083333Y-21535714D01*
X128464285Y-20535714D02*
X128464285Y-21392857D01*
X128511904Y-21488095D01*
X128607142Y-21535714D01*
X128654761Y-21535714D01*
X128464285Y-20202380D02*
X128511904Y-20250000D01*
X128464285Y-20297619D01*
X128416666Y-20250000D01*
X128464285Y-20202380D01*
X128464285Y-20297619D01*
X127559523Y-21202380D02*
X127559523Y-20678571D01*
X127607142Y-20583333D01*
X127702380Y-20535714D01*
X127892857Y-20535714D01*
X127988095Y-20583333D01*
X127559523Y-21154761D02*
X127654761Y-21202380D01*
X127892857Y-21202380D01*
X127988095Y-21154761D01*
X128035714Y-21059523D01*
X128035714Y-20964285D01*
X127988095Y-20869047D01*
X127892857Y-20821428D01*
X127654761Y-20821428D01*
X127559523Y-20773809D01*
X126654761Y-21154761D02*
X126750000Y-21202380D01*
X126940476Y-21202380D01*
X127035714Y-21154761D01*
X127083333Y-21107142D01*
X127130952Y-21011904D01*
X127130952Y-20726190D01*
X127083333Y-20630952D01*
X127035714Y-20583333D01*
X126940476Y-20535714D01*
X126750000Y-20535714D01*
X126654761Y-20583333D01*
X126226190Y-21202380D02*
X126226190Y-20202380D01*
X126130952Y-20821428D02*
X125845238Y-21202380D01*
X125845238Y-20535714D02*
X126226190Y-20916666D01*
X124702380Y-21154761D02*
X124607142Y-21202380D01*
X124416666Y-21202380D01*
X124321428Y-21154761D01*
X124273809Y-21059523D01*
X124273809Y-21011904D01*
X124321428Y-20916666D01*
X124416666Y-20869047D01*
X124559523Y-20869047D01*
X124654761Y-20821428D01*
X124702380Y-20726190D01*
X124702380Y-20678571D01*
X124654761Y-20583333D01*
X124559523Y-20535714D01*
X124416666Y-20535714D01*
X124321428Y-20583333D01*
X123845238Y-21107142D02*
X123797619Y-21154761D01*
X123845238Y-21202380D01*
X123892857Y-21154761D01*
X123845238Y-21107142D01*
X123845238Y-21202380D01*
X122654761Y-20297619D02*
X122607142Y-20250000D01*
X122511904Y-20202380D01*
X122273809Y-20202380D01*
X122178571Y-20250000D01*
X122130952Y-20297619D01*
X122083333Y-20392857D01*
X122083333Y-20488095D01*
X122130952Y-20630952D01*
X122702380Y-21202380D01*
X122083333Y-21202380D01*
X121464285Y-20202380D02*
X121369047Y-20202380D01*
X121273809Y-20250000D01*
X121226190Y-20297619D01*
X121178571Y-20392857D01*
X121130952Y-20583333D01*
X121130952Y-20821428D01*
X121178571Y-21011904D01*
X121226190Y-21107142D01*
X121273809Y-21154761D01*
X121369047Y-21202380D01*
X121464285Y-21202380D01*
X121559523Y-21154761D01*
X121607142Y-21107142D01*
X121654761Y-21011904D01*
X121702380Y-20821428D01*
X121702380Y-20583333D01*
X121654761Y-20392857D01*
X121607142Y-20297619D01*
X121559523Y-20250000D01*
X121464285Y-20202380D01*
X120750000Y-20297619D02*
X120702380Y-20250000D01*
X120607142Y-20202380D01*
X120369047Y-20202380D01*
X120273809Y-20250000D01*
X120226190Y-20297619D01*
X120178571Y-20392857D01*
X120178571Y-20488095D01*
X120226190Y-20630952D01*
X120797619Y-21202380D01*
X120178571Y-21202380D01*
X119226190Y-21202380D02*
X119797619Y-21202380D01*
X119511904Y-21202380D02*
X119511904Y-20202380D01*
X119607142Y-20345238D01*
X119702380Y-20440476D01*
X119797619Y-20488095D01*
D11*
X108800000Y15500000D02*
G75*
G03*
X108800000Y15500000I-3550000J0D01*
G01*
X118800000Y15500000D02*
G75*
G03*
X118800000Y15500000I-3550000J0D01*
G01*
X128800000Y15500000D02*
G75*
G03*
X128800000Y15500000I-3550000J0D01*
G01*
X138800000Y15500000D02*
G75*
G03*
X138800000Y15500000I-3550000J0D01*
G01*
D10*
X137226190Y-21202380D02*
X137226190Y-20535714D01*
X137226190Y-20726190D02*
X137178571Y-20630952D01*
X137130952Y-20583333D01*
X137035714Y-20535714D01*
X136940476Y-20535714D01*
X136226190Y-21154761D02*
X136321428Y-21202380D01*
X136511904Y-21202380D01*
X136607142Y-21154761D01*
X136654761Y-21059523D01*
X136654761Y-20678571D01*
X136607142Y-20583333D01*
X136511904Y-20535714D01*
X136321428Y-20535714D01*
X136226190Y-20583333D01*
X136178571Y-20678571D01*
X136178571Y-20773809D01*
X136654761Y-20869047D01*
X135750000Y-20535714D02*
X135750000Y-21535714D01*
X135750000Y-20583333D02*
X135654761Y-20535714D01*
X135464285Y-20535714D01*
X135369047Y-20583333D01*
X135321428Y-20630952D01*
X135273809Y-20726190D01*
X135273809Y-21011904D01*
X135321428Y-21107142D01*
X135369047Y-21154761D01*
X135464285Y-21202380D01*
X135654761Y-21202380D01*
X135750000Y-21154761D01*
X134416666Y-21202380D02*
X134416666Y-20678571D01*
X134464285Y-20583333D01*
X134559523Y-20535714D01*
X134750000Y-20535714D01*
X134845238Y-20583333D01*
X134416666Y-21154761D02*
X134511904Y-21202380D01*
X134750000Y-21202380D01*
X134845238Y-21154761D01*
X134892857Y-21059523D01*
X134892857Y-20964285D01*
X134845238Y-20869047D01*
X134750000Y-20821428D01*
X134511904Y-20821428D01*
X134416666Y-20773809D01*
X133940476Y-20535714D02*
X133940476Y-21202380D01*
X133940476Y-20630952D02*
X133892857Y-20583333D01*
X133797619Y-20535714D01*
X133654761Y-20535714D01*
X133559523Y-20583333D01*
X133511904Y-20678571D01*
X133511904Y-21202380D01*
X132654761Y-21154761D02*
X132750000Y-21202380D01*
X132940476Y-21202380D01*
X133035714Y-21154761D01*
X133083333Y-21059523D01*
X133083333Y-20678571D01*
X133035714Y-20583333D01*
X132940476Y-20535714D01*
X132750000Y-20535714D01*
X132654761Y-20583333D01*
X132607142Y-20678571D01*
X132607142Y-20773809D01*
X133083333Y-20869047D01*
X132035714Y-21202380D02*
X132130952Y-21154761D01*
X132178571Y-21059523D01*
X132178571Y-20202380D01*
X130892857Y-21202380D02*
X130892857Y-20202380D01*
X130892857Y-20583333D02*
X130797619Y-20535714D01*
X130607142Y-20535714D01*
X130511904Y-20583333D01*
X130464285Y-20630952D01*
X130416666Y-20726190D01*
X130416666Y-21011904D01*
X130464285Y-21107142D01*
X130511904Y-21154761D01*
X130607142Y-21202380D01*
X130797619Y-21202380D01*
X130892857Y-21154761D01*
X130083333Y-20535714D02*
X129845238Y-21202380D01*
X129607142Y-20535714D02*
X129845238Y-21202380D01*
X129940476Y-21440476D01*
X129988095Y-21488095D01*
X130083333Y-21535714D01*
X128464285Y-20535714D02*
X128464285Y-21392857D01*
X128511904Y-21488095D01*
X128607142Y-21535714D01*
X128654761Y-21535714D01*
X128464285Y-20202380D02*
X128511904Y-20250000D01*
X128464285Y-20297619D01*
X128416666Y-20250000D01*
X128464285Y-20202380D01*
X128464285Y-20297619D01*
X127559523Y-21202380D02*
X127559523Y-20678571D01*
X127607142Y-20583333D01*
X127702380Y-20535714D01*
X127892857Y-20535714D01*
X127988095Y-20583333D01*
X127559523Y-21154761D02*
X127654761Y-21202380D01*
X127892857Y-21202380D01*
X127988095Y-21154761D01*
X128035714Y-21059523D01*
X128035714Y-20964285D01*
X127988095Y-20869047D01*
X127892857Y-20821428D01*
X127654761Y-20821428D01*
X127559523Y-20773809D01*
X126654761Y-21154761D02*
X126750000Y-21202380D01*
X126940476Y-21202380D01*
X127035714Y-21154761D01*
X127083333Y-21107142D01*
X127130952Y-21011904D01*
X127130952Y-20726190D01*
X127083333Y-20630952D01*
X127035714Y-20583333D01*
X126940476Y-20535714D01*
X126750000Y-20535714D01*
X126654761Y-20583333D01*
X126226190Y-21202380D02*
X126226190Y-20202380D01*
X126130952Y-20821428D02*
X125845238Y-21202380D01*
X125845238Y-20535714D02*
X126226190Y-20916666D01*
X124702380Y-21154761D02*
X124607142Y-21202380D01*
X124416666Y-21202380D01*
X124321428Y-21154761D01*
X124273809Y-21059523D01*
X124273809Y-21011904D01*
X124321428Y-20916666D01*
X124416666Y-20869047D01*
X124559523Y-20869047D01*
X124654761Y-20821428D01*
X124702380Y-20726190D01*
X124702380Y-20678571D01*
X124654761Y-20583333D01*
X124559523Y-20535714D01*
X124416666Y-20535714D01*
X124321428Y-20583333D01*
X123845238Y-21107142D02*
X123797619Y-21154761D01*
X123845238Y-21202380D01*
X123892857Y-21154761D01*
X123845238Y-21107142D01*
X123845238Y-21202380D01*
X122654761Y-20297619D02*
X122607142Y-20250000D01*
X122511904Y-20202380D01*
X122273809Y-20202380D01*
X122178571Y-20250000D01*
X122130952Y-20297619D01*
X122083333Y-20392857D01*
X122083333Y-20488095D01*
X122130952Y-20630952D01*
X122702380Y-21202380D01*
X122083333Y-21202380D01*
X121464285Y-20202380D02*
X121369047Y-20202380D01*
X121273809Y-20250000D01*
X121226190Y-20297619D01*
X121178571Y-20392857D01*
X121130952Y-20583333D01*
X121130952Y-20821428D01*
X121178571Y-21011904D01*
X121226190Y-21107142D01*
X121273809Y-21154761D01*
X121369047Y-21202380D01*
X121464285Y-21202380D01*
X121559523Y-21154761D01*
X121607142Y-21107142D01*
X121654761Y-21011904D01*
X121702380Y-20821428D01*
X121702380Y-20583333D01*
X121654761Y-20392857D01*
X121607142Y-20297619D01*
X121559523Y-20250000D01*
X121464285Y-20202380D01*
X120750000Y-20297619D02*
X120702380Y-20250000D01*
X120607142Y-20202380D01*
X120369047Y-20202380D01*
X120273809Y-20250000D01*
X120226190Y-20297619D01*
X120178571Y-20392857D01*
X120178571Y-20488095D01*
X120226190Y-20630952D01*
X120797619Y-21202380D01*
X120178571Y-21202380D01*
X119226190Y-21202380D02*
X119797619Y-21202380D01*
X119511904Y-21202380D02*
X119511904Y-20202380D01*
X119607142Y-20345238D01*
X119702380Y-20440476D01*
X119797619Y-20488095D01*
D11*
X108800000Y15500000D02*
G75*
G03*
X108800000Y15500000I-3550000J0D01*
G01*
X118800000Y15500000D02*
G75*
G03*
X118800000Y15500000I-3550000J0D01*
G01*
X128800000Y15500000D02*
G75*
G03*
X128800000Y15500000I-3550000J0D01*
G01*
X138800000Y15500000D02*
G75*
G03*
X138800000Y15500000I-3550000J0D01*
G01*
D12*
X135000000Y2500000D03*
X125000000Y2500000D03*
X115000000Y2500000D03*
X105000000Y2500000D03*
X105000000Y18000000D03*
X115000000Y18000000D03*
X125000000Y18000000D03*
X135000000Y18000000D03*
M02*
