G04 #@! TF.GenerationSoftware,KiCad,Pcbnew,(5.1.9-0-10_14)*
G04 #@! TF.CreationDate,2021-02-15T22:11:41-08:00*
G04 #@! TF.ProjectId,resonate,7265736f-6e61-4746-952e-6b696361645f,rev?*
G04 #@! TF.SameCoordinates,Original*
G04 #@! TF.FileFunction,Soldermask,Top*
G04 #@! TF.FilePolarity,Negative*
%FSLAX46Y46*%
G04 Gerber Fmt 4.6, Leading zero omitted, Abs format (unit mm)*
G04 Created by KiCad (PCBNEW (5.1.9-0-10_14)) date 2021-02-15 22:11:41*
%MOMM*%
%LPD*%
G01*
G04 APERTURE LIST*
%ADD10C,1.000000*%
%ADD11C,0.000002*%
%ADD12C,0.001000*%
%ADD13C,0.100000*%
%ADD14C,6.202000*%
G04 APERTURE END LIST*
D10*
X135000000Y2500000D02*
X125000000Y2500000D01*
X135000000Y18000000D02*
X105000000Y18000000D01*
X115000000Y2500000D02*
X105000000Y2500000D01*
D11*
X119441200Y-21210800D02*
X119455160Y-21497777D01*
X119745824Y-23352971D02*
X119680900Y-23222769D01*
X118980163Y-21847052D02*
X118969544Y-21827713D01*
X118969544Y-21827713D02*
X118960123Y-21810277D01*
X120019274Y-17590793D02*
X119994836Y-17795277D01*
X119587276Y-19647511D02*
X119585002Y-19655277D01*
X119487122Y-20169693D02*
X119485041Y-20185277D01*
X119502112Y-21991881D02*
X119504965Y-22013215D01*
X118307249Y-20884817D02*
X118220584Y-20801527D01*
X118220584Y-20801527D02*
X118142522Y-20731589D01*
X119509713Y-20017481D02*
X119506422Y-20036231D01*
X119617668Y-22622709D02*
X119619792Y-22632777D01*
X119157627Y-22175277D02*
X119149971Y-22161116D01*
X119149971Y-22161116D02*
X119140235Y-22143074D01*
X119784316Y-23278882D02*
X119797790Y-23342241D01*
X119460146Y-21574262D02*
X119462884Y-21610118D01*
X119632635Y-22687777D02*
X119636652Y-22703561D01*
X119636652Y-22703561D02*
X119641964Y-22724684D01*
X119507876Y-22035494D02*
X119510387Y-22055277D01*
X119688021Y-22905658D02*
X119711965Y-22997481D01*
X119711965Y-22997481D02*
X119729915Y-23065277D01*
X119514785Y-19985277D02*
X119512686Y-19999437D01*
X120064571Y-17313377D02*
X120042634Y-17432589D01*
X119450432Y-20547777D02*
X119439221Y-20785430D01*
X119569739Y-22408706D02*
X119588031Y-22492260D01*
X119604678Y-22569391D02*
X119607389Y-22580966D01*
X119489359Y-20151746D02*
X119487122Y-20169693D01*
X120042634Y-17432589D02*
X120019274Y-17590793D01*
X119506422Y-20036231D02*
X119503300Y-20052777D01*
X119588031Y-22492260D02*
X119591336Y-22506189D01*
X119625424Y-22658215D02*
X119629114Y-22673688D01*
X119629114Y-22673688D02*
X119632635Y-22687777D01*
X119729915Y-23065277D02*
X119762789Y-23190486D01*
X119762789Y-23190486D02*
X119784316Y-23278882D01*
X119485041Y-20185277D02*
X119476782Y-20253128D01*
X119512686Y-19999437D02*
X119509713Y-20017481D01*
X119503300Y-20052777D02*
X119500258Y-20069324D01*
X119467410Y-21658549D02*
X119470054Y-21687481D01*
X119691595Y-19277777D02*
X119672754Y-19340648D01*
X119525096Y-19924104D02*
X119514785Y-19985277D01*
X118702584Y-21373051D02*
X118576981Y-21192044D01*
X118576981Y-21192044D02*
X118457941Y-21043323D01*
X117712111Y-20398124D02*
X117590998Y-20315371D01*
X117590998Y-20315371D02*
X117500022Y-20257694D01*
X119529044Y-22905488D02*
X119400735Y-22649065D01*
X119547577Y-19815220D02*
X119525096Y-19924104D01*
X119839522Y-18734580D02*
X119774298Y-18990004D01*
X119476782Y-20253128D02*
X119466010Y-20360768D01*
X119246362Y-22342777D02*
X119219842Y-22292235D01*
X119219842Y-22292235D02*
X119196050Y-22247166D01*
X119474772Y-21742777D02*
X119479586Y-21796968D01*
X119492916Y-20120277D02*
X119491414Y-20134273D01*
X119500258Y-20069324D02*
X119497211Y-20088074D01*
X119504965Y-22013215D02*
X119507876Y-22035494D01*
X119591336Y-22506189D02*
X119594799Y-22521609D01*
X119196050Y-22247166D02*
X119175179Y-22207925D01*
X119175179Y-22207925D02*
X119157627Y-22175277D01*
X118998277Y-21879295D02*
X118990348Y-21865352D01*
X118990348Y-21865352D02*
X118980163Y-21847052D01*
X119585002Y-19655277D02*
X119571306Y-19706615D01*
X119466010Y-20360768D02*
X119456089Y-20470173D01*
X117949731Y-20571569D02*
X117838770Y-20488408D01*
X117838770Y-20488408D02*
X117712111Y-20398124D01*
X119641964Y-22724684D02*
X119647592Y-22747213D01*
X119647592Y-22747213D02*
X119652687Y-22767777D01*
X119510387Y-22055277D02*
X119524401Y-22153232D01*
X119465155Y-21635277D02*
X119467410Y-21658549D01*
X119614997Y-22611012D02*
X119617668Y-22622709D01*
X119932296Y-18260277D02*
X119891058Y-18496192D01*
X119602925Y-19586256D02*
X119596912Y-19610277D01*
X119891058Y-18496192D02*
X119839522Y-18734580D01*
X119455160Y-21497777D02*
X119457431Y-21534943D01*
X119597913Y-22536189D02*
X119600081Y-22547260D01*
X117500022Y-20257694D02*
X117488524Y-20250743D01*
X117488524Y-20250743D02*
X117471647Y-20240441D01*
X117471647Y-20240441D02*
X117452943Y-20228971D01*
X117452943Y-20228971D02*
X117435022Y-20217924D01*
X117435022Y-20217924D02*
X117410594Y-20203170D01*
X119486414Y-21863404D02*
X119493686Y-21928002D01*
X119524401Y-22153232D02*
X119546332Y-22282567D01*
X119774298Y-18990004D02*
X119691595Y-19277777D01*
X119612223Y-22599554D02*
X119614997Y-22611012D01*
X119620636Y-19520269D02*
X119610559Y-19557297D01*
X119602098Y-22557528D02*
X119604678Y-22569391D01*
X119472649Y-21717124D02*
X119474772Y-21742777D01*
X119546332Y-22282567D02*
X119569739Y-22408706D01*
X119640717Y-19448596D02*
X119634498Y-19470277D01*
X118142522Y-20731589D02*
X118091890Y-20688546D01*
X118091890Y-20688546D02*
X118034121Y-20640261D01*
X119596912Y-19610277D02*
X119593793Y-19622863D01*
X119497211Y-20088074D02*
X119494593Y-20106118D01*
X119439221Y-20785430D02*
X119436197Y-20990776D01*
X119652687Y-22767777D02*
X119665004Y-22816641D01*
X119665004Y-22816641D02*
X119688021Y-22905658D01*
X119672754Y-19340648D02*
X119655296Y-19399293D01*
X119594799Y-22521609D02*
X119597913Y-22536189D01*
X119948247Y-18152128D02*
X119932296Y-18260277D01*
X119966692Y-18018323D02*
X119948247Y-18152128D01*
X119983743Y-17888355D02*
X119966692Y-18018323D01*
X119462884Y-21610118D02*
X119465155Y-21635277D01*
X117410594Y-20203170D02*
X117365350Y-20176582D01*
X117365350Y-20176582D02*
X117312323Y-20145700D01*
X117312323Y-20145700D02*
X117257522Y-20114069D01*
X119436197Y-20990776D02*
X119441200Y-21210800D01*
X119457431Y-21534943D02*
X119460146Y-21574262D01*
X119027657Y-21934784D02*
X119015377Y-21911643D01*
X118457941Y-21043323D02*
X118390510Y-20969449D01*
X118390510Y-20969449D02*
X118307249Y-20884817D01*
X119994836Y-17795277D02*
X119983743Y-17888355D01*
X119680900Y-23222769D02*
X119617434Y-23092202D01*
X119617434Y-23092202D02*
X119570128Y-22994375D01*
X119619792Y-22632777D02*
X119622102Y-22643678D01*
X119622102Y-22643678D02*
X119625424Y-22658215D01*
X119610559Y-19557297D02*
X119602925Y-19586256D01*
X119590420Y-19635871D02*
X119587276Y-19647511D01*
X119493686Y-21928002D02*
X119499812Y-21975277D01*
X119570128Y-22994375D02*
X119530666Y-22912451D01*
X119607389Y-22580966D02*
X119609796Y-22590277D01*
X119058037Y-21991194D02*
X119041545Y-21960738D01*
X119041545Y-21960738D02*
X119027657Y-21934784D01*
X119655296Y-19399293D02*
X119640717Y-19448596D01*
X118034121Y-20640261D02*
X117980696Y-20596196D01*
X117980696Y-20596196D02*
X117949731Y-20571569D01*
X119609796Y-22590277D02*
X119612223Y-22599554D01*
X119593793Y-19622863D02*
X119590420Y-19635871D01*
X119400735Y-22649065D02*
X119286280Y-22420659D01*
X119286280Y-22420659D02*
X119246362Y-22342777D01*
X119494593Y-20106118D02*
X119492916Y-20120277D01*
X119571306Y-19706615D02*
X119547577Y-19815220D01*
X117257522Y-20114069D02*
X117012714Y-19969733D01*
X117012714Y-19969733D02*
X116843791Y-19860502D01*
X116843791Y-19860502D02*
X116698174Y-19752127D01*
X116698174Y-19752127D02*
X116533636Y-19614359D01*
X116533636Y-19614359D02*
X116480950Y-19569163D01*
X116480950Y-19569163D02*
X116433573Y-19530444D01*
X116433573Y-19530444D02*
X116393800Y-19499519D01*
X120225611Y-23837712D02*
X120198772Y-23831862D01*
X117285345Y-23631444D02*
X117349573Y-23656485D01*
X117349573Y-23656485D02*
X117413400Y-23679584D01*
X117413400Y-23679584D02*
X117477522Y-23701004D01*
X117477522Y-23701004D02*
X117494485Y-23706458D01*
X117494485Y-23706458D02*
X117512381Y-23712256D01*
X117512381Y-23712256D02*
X117528663Y-23717567D01*
X117528663Y-23717567D02*
X117540022Y-23721321D01*
X117540022Y-23721321D02*
X117549914Y-23724499D01*
X117549914Y-23724499D02*
X117561053Y-23727839D01*
X117561053Y-23727839D02*
X117571722Y-23730851D01*
X117571722Y-23730851D02*
X117580022Y-23732966D01*
X117580022Y-23732966D02*
X117589207Y-23735245D01*
X117589207Y-23735245D02*
X117603397Y-23738981D01*
X117603397Y-23738981D02*
X117619381Y-23743300D01*
X117619381Y-23743300D02*
X117635022Y-23747637D01*
X117635022Y-23747637D02*
X117737305Y-23774654D01*
X117737305Y-23774654D02*
X117854034Y-23802215D01*
X117854034Y-23802215D02*
X117971857Y-23827377D01*
X117971857Y-23827377D02*
X118077522Y-23847109D01*
X118077522Y-23847109D02*
X118184250Y-23864788D01*
X118184250Y-23864788D02*
X118281738Y-23879690D01*
X118281738Y-23879690D02*
X118364771Y-23891119D01*
X118364771Y-23891119D02*
X118425022Y-23897707D01*
X118425022Y-23897707D02*
X118636661Y-23915269D01*
X118636661Y-23915269D02*
X118781748Y-23923781D01*
X118781748Y-23923781D02*
X118908340Y-23926041D01*
X118908340Y-23926041D02*
X119053645Y-23923169D01*
X119053645Y-23923169D02*
X119118915Y-23920681D01*
X119118915Y-23920681D02*
X119181795Y-23917839D01*
X119181795Y-23917839D02*
X119235352Y-23915035D01*
X119235352Y-23915035D02*
X119263645Y-23912894D01*
X119263645Y-23912894D02*
X119365074Y-23903070D01*
X119365074Y-23903070D02*
X119430359Y-23896376D01*
X119430359Y-23896376D02*
X119474754Y-23891359D01*
X119474754Y-23891359D02*
X119499690Y-23887644D01*
X119499690Y-23887644D02*
X119510305Y-23885799D01*
X119510305Y-23885799D02*
X119519709Y-23884287D01*
X119519709Y-23884287D02*
X119527681Y-23883099D01*
X119530034Y-23886296D02*
X119468904Y-23905292D01*
X119468904Y-23905292D02*
X119403341Y-23924277D01*
X119403341Y-23924277D02*
X119347522Y-23938372D01*
X119347522Y-23938372D02*
X119320340Y-23945577D01*
X119320340Y-23945577D02*
X119263274Y-23963030D01*
X119263274Y-23963030D02*
X119206104Y-23981114D01*
X119206104Y-23981114D02*
X119171272Y-23993122D01*
X119171272Y-23993122D02*
X119159151Y-23997580D01*
X119159151Y-23997580D02*
X119144287Y-24003046D01*
X119144287Y-24003046D02*
X119129186Y-24008599D01*
X119129186Y-24008599D02*
X119116272Y-24013347D01*
X119116272Y-24013347D02*
X119095779Y-24021025D01*
X119095779Y-24021025D02*
X119079737Y-24027382D01*
X119079737Y-24027382D02*
X119059757Y-24035775D01*
X119059757Y-24035775D02*
X119020022Y-24052890D01*
X119020022Y-24052890D02*
X118982493Y-24069994D01*
X118982493Y-24069994D02*
X118926262Y-24097389D01*
X118926262Y-24097389D02*
X118870714Y-24125268D01*
X118870714Y-24125268D02*
X118836795Y-24143515D01*
X118836795Y-24143515D02*
X118730113Y-24207287D01*
X118730113Y-24207287D02*
X118630076Y-24273754D01*
X118630076Y-24273754D02*
X118530470Y-24347248D01*
X118530470Y-24347248D02*
X118425022Y-24432231D01*
X118425022Y-24432231D02*
X118400885Y-24452487D01*
X118400885Y-24452487D02*
X118380147Y-24470015D01*
X118380147Y-24470015D02*
X118362103Y-24485349D01*
X118358008Y-24489477D02*
X118343687Y-24502653D01*
X118343687Y-24502653D02*
X118327115Y-24517823D01*
X118327115Y-24517823D02*
X118307926Y-24535277D01*
X118307926Y-24535277D02*
X118263224Y-24576564D01*
X118263224Y-24576564D02*
X118226361Y-24612256D01*
X118226361Y-24612256D02*
X118190178Y-24649392D01*
X118190178Y-24649392D02*
X118147522Y-24695213D01*
X118147522Y-24695213D02*
X118122351Y-24722510D01*
X118122351Y-24722510D02*
X118086499Y-24761019D01*
X118086499Y-24761019D02*
X118047172Y-24803045D01*
X118047172Y-24803045D02*
X118009998Y-24842550D01*
X118009998Y-24842550D02*
X117927331Y-24931110D01*
X117930754Y-25001291D02*
X117946570Y-24998613D01*
X117946570Y-24998613D02*
X118006655Y-24986751D01*
X118006655Y-24986751D02*
X118069890Y-24974006D01*
X118069890Y-24974006D02*
X118126495Y-24962411D01*
X118126495Y-24962411D02*
X118150022Y-24957222D01*
X118150022Y-24957222D02*
X118160765Y-24954724D01*
X118160765Y-24954724D02*
X118174725Y-24951527D01*
X118174725Y-24951527D02*
X118189392Y-24948201D01*
X118189392Y-24948201D02*
X118202522Y-24945258D01*
X118202522Y-24945258D02*
X118222000Y-24940673D01*
X118222000Y-24940673D02*
X118273647Y-24927802D01*
X118273647Y-24927802D02*
X118335223Y-24912309D01*
X118335223Y-24912309D02*
X118402522Y-24895214D01*
X118402522Y-24895214D02*
X118468574Y-24878414D01*
X118468574Y-24878414D02*
X118526256Y-24863853D01*
X118526256Y-24863853D02*
X118575788Y-24851427D01*
X118575788Y-24851427D02*
X118585022Y-24849348D01*
X118620530Y-24840489D02*
X118714001Y-24812067D01*
X118714001Y-24812067D02*
X118806592Y-24783017D01*
X118806592Y-24783017D02*
X118862522Y-24763854D01*
X118862522Y-24763854D02*
X119020115Y-24700989D01*
X119020115Y-24700989D02*
X119160543Y-24634003D01*
X119160543Y-24634003D02*
X119293872Y-24557727D01*
X119293872Y-24557727D02*
X119430022Y-24466907D01*
X119522618Y-24393723D02*
X119621336Y-24301497D01*
X119621336Y-24301497D02*
X119719679Y-24196929D01*
X119719679Y-24196929D02*
X119811309Y-24086292D01*
X119811309Y-24086292D02*
X119824618Y-24069615D01*
X119824618Y-24069615D02*
X119836630Y-24055560D01*
X119836630Y-24055560D02*
X119847055Y-24044089D01*
X119852369Y-24044990D02*
X119853728Y-24079717D01*
X119853728Y-24079717D02*
X119854720Y-24123849D01*
X119854720Y-24123849D02*
X119855022Y-24184454D01*
X119855022Y-24184454D02*
X119855237Y-24258674D01*
X119855237Y-24258674D02*
X119855995Y-24372704D01*
X119855995Y-24372704D02*
X119857066Y-24501023D01*
X119857066Y-24501023D02*
X119858335Y-24626359D01*
X119858335Y-24626359D02*
X119861648Y-24926588D01*
X119861648Y-24926588D02*
X119938906Y-25004683D01*
X119938906Y-25004683D02*
X119969013Y-25034616D01*
X119969013Y-25034616D02*
X119995478Y-25059837D01*
X119995478Y-25059837D02*
X120018527Y-25081046D01*
X120033721Y-25062425D02*
X120035717Y-24919472D01*
X120035717Y-24919472D02*
X120037665Y-24758576D01*
X120037665Y-24758576D02*
X120039456Y-24569690D01*
X120039456Y-24569690D02*
X120041301Y-24381187D01*
X120041301Y-24381187D02*
X120043420Y-24221549D01*
X120043420Y-24221549D02*
X120045654Y-24078424D01*
X120066672Y-24082136D02*
X120079292Y-24106527D01*
X120350022Y-24460105D02*
X120399465Y-24500893D01*
X120399465Y-24500893D02*
X120452352Y-24541071D01*
X120452352Y-24541071D02*
X120502423Y-24576144D01*
X120502423Y-24576144D02*
X120542522Y-24600665D01*
X120542522Y-24600665D02*
X120552040Y-24606010D01*
X120552040Y-24606010D02*
X120565712Y-24613819D01*
X120565712Y-24613819D02*
X120584250Y-24624488D01*
X120584250Y-24624488D02*
X120610022Y-24639386D01*
X120610022Y-24639386D02*
X120646005Y-24658811D01*
X120646005Y-24658811D02*
X120714035Y-24692512D01*
X120714035Y-24692512D02*
X120784226Y-24726283D01*
X120784226Y-24726283D02*
X120835022Y-24749343D01*
X120835022Y-24749343D02*
X120881032Y-24768860D01*
X120881032Y-24768860D02*
X120964667Y-24803305D01*
X120964667Y-24803305D02*
X121059189Y-24842029D01*
X121064899Y-24843092D02*
X121069752Y-24844808D01*
X121069752Y-24844808D02*
X121075511Y-24847043D01*
X121075511Y-24847043D02*
X121081766Y-24849691D01*
X121081766Y-24849691D02*
X121089059Y-24852778D01*
X121089059Y-24852778D02*
X121098034Y-24856363D01*
X121098034Y-24856363D02*
X121107177Y-24859863D01*
X121107177Y-24859863D02*
X121115022Y-24862696D01*
X121115022Y-24862696D02*
X121122455Y-24865344D01*
X121122455Y-24865344D02*
X121130318Y-24868265D01*
X121130318Y-24868265D02*
X121137486Y-24871027D01*
X121137486Y-24871027D02*
X121142522Y-24873101D01*
X121198054Y-24893690D02*
X121285632Y-24919595D01*
X121285632Y-24919595D02*
X121397606Y-24949292D01*
X116076926Y-23015042D02*
X116108826Y-23024954D01*
X116108826Y-23024954D02*
X116326951Y-23096611D01*
X116633114Y-23246773D02*
X116811226Y-23369103D01*
X116811226Y-23369103D02*
X116848261Y-23395940D01*
X116848261Y-23395940D02*
X116882016Y-23420005D01*
X116882016Y-23420005D02*
X116910474Y-23439975D01*
X116920629Y-23446375D02*
X116927233Y-23450155D01*
X116927233Y-23450155D02*
X116934094Y-23454150D01*
X116934094Y-23454150D02*
X116940259Y-23457797D01*
X116940259Y-23457797D02*
X116944424Y-23460341D01*
X116944424Y-23460341D02*
X116949047Y-23463177D01*
X116949047Y-23463177D02*
X116957487Y-23468234D01*
X116957487Y-23468234D02*
X116967356Y-23474103D01*
X116967356Y-23474103D02*
X116977522Y-23480101D01*
X116977522Y-23480101D02*
X116987281Y-23485930D01*
X116987281Y-23485930D02*
X116995912Y-23491285D01*
X116995912Y-23491285D02*
X117003091Y-23495898D01*
X119010103Y-21900347D02*
X119004695Y-21890555D01*
X119004695Y-21890555D02*
X118998277Y-21879295D01*
X119014682Y-21908855D02*
X119010103Y-21900347D01*
X120244490Y-23106661D02*
X120240864Y-23115223D01*
X120240864Y-23115223D02*
X120237803Y-23123264D01*
X120237803Y-23123264D02*
X120235503Y-23130064D01*
X120234508Y-23136216D02*
X120232084Y-23142840D01*
X120232084Y-23142840D02*
X120228851Y-23150659D01*
X120228851Y-23150659D02*
X120225022Y-23158958D01*
X120225022Y-23158958D02*
X120221191Y-23167186D01*
X120221191Y-23167186D02*
X120217959Y-23174785D01*
X120217959Y-23174785D02*
X120215482Y-23181197D01*
X120214584Y-23186362D02*
X120212214Y-23192904D01*
X120212214Y-23192904D02*
X120209124Y-23200664D01*
X120209124Y-23200664D02*
X120205464Y-23209082D01*
X120205464Y-23209082D02*
X120200839Y-23219472D01*
X120200839Y-23219472D02*
X120194664Y-23233598D01*
X120194664Y-23233598D02*
X120188098Y-23248783D01*
X120188098Y-23248783D02*
X120182120Y-23262777D01*
X120182120Y-23262777D02*
X120162455Y-23305327D01*
X120155426Y-23284707D02*
X120172951Y-23231307D01*
X120172951Y-23231307D02*
X120180133Y-23210670D01*
X120180133Y-23210670D02*
X120186887Y-23190861D01*
X120186887Y-23190861D02*
X120192515Y-23174002D01*
X120192515Y-23174002D02*
X120195217Y-23165277D01*
X120195217Y-23165277D02*
X120198156Y-23155862D01*
X120198156Y-23155862D02*
X120205745Y-23133387D01*
X120205745Y-23133387D02*
X120214918Y-23106638D01*
X120214918Y-23106638D02*
X120224966Y-23077777D01*
X120224966Y-23077777D02*
X120249871Y-23005470D01*
X120249871Y-23005470D02*
X120282504Y-22908295D01*
X120282504Y-22908295D02*
X120313681Y-22814093D01*
X120313681Y-22814093D02*
X120330776Y-22760277D01*
X120330776Y-22760277D02*
X120335561Y-22744693D01*
X120335561Y-22744693D02*
X120341080Y-22726746D01*
X120341080Y-22726746D02*
X120346460Y-22709274D01*
X120346460Y-22709274D02*
X120350778Y-22695277D01*
X120350778Y-22695277D02*
X120367938Y-22637284D01*
X120367938Y-22637284D02*
X120397648Y-22531388D01*
X120397648Y-22531388D02*
X120427390Y-22423770D01*
X120427390Y-22423770D02*
X120436995Y-22385277D01*
X120436995Y-22385277D02*
X120438776Y-22377807D01*
X120438776Y-22377807D02*
X120441467Y-22367340D01*
X120441467Y-22367340D02*
X120444512Y-22355948D01*
X120444512Y-22355948D02*
X120447485Y-22345277D01*
X120447485Y-22345277D02*
X120478766Y-22221371D01*
X120478766Y-22221371D02*
X120521650Y-22019623D01*
X120521650Y-22019623D02*
X120561335Y-21817675D01*
X120561335Y-21817675D02*
X120580389Y-21695277D01*
X120580389Y-21695277D02*
X120582418Y-21679518D01*
X120582418Y-21679518D02*
X120584972Y-21661012D01*
X120584972Y-21661012D02*
X120587622Y-21642744D01*
X120587622Y-21642744D02*
X120589942Y-21627777D01*
X120589942Y-21627777D02*
X120592299Y-21612476D01*
X120592299Y-21612476D02*
X120595075Y-21593074D01*
X120595075Y-21593074D02*
X120597806Y-21572962D01*
X120597806Y-21572962D02*
X120600050Y-21555277D01*
X120600050Y-21555277D02*
X120602271Y-21537241D01*
X120602271Y-21537241D02*
X120604937Y-21516012D01*
X120604937Y-21516012D02*
X120607613Y-21495020D01*
X120607613Y-21495020D02*
X120609856Y-21477777D01*
X120609856Y-21477777D02*
X120618702Y-21404897D01*
X120618702Y-21404897D02*
X120629073Y-21307488D01*
X120629073Y-21307488D02*
X120638309Y-21213260D01*
X120638309Y-21213260D02*
X120642243Y-21160277D01*
D12*
X120642243Y-21160277D02*
X120656205Y-20880188D01*
X120656205Y-20880188D02*
X120663207Y-20673699D01*
D11*
X120663207Y-20673699D02*
X120664428Y-20511801D01*
X120664428Y-20511801D02*
X120659993Y-20375277D01*
X120659993Y-20375277D02*
X120649412Y-20196795D01*
X120649412Y-20196795D02*
X120641238Y-20073355D01*
X120641238Y-20073355D02*
X120633692Y-19977355D01*
X120633692Y-19977355D02*
X120625375Y-19890277D01*
X120625375Y-19890277D02*
X120613047Y-19782002D01*
X120613047Y-19782002D02*
X120598521Y-19670705D01*
X120598521Y-19670705D02*
X120583969Y-19571401D01*
X120583969Y-19571401D02*
X120572053Y-19505277D01*
X120572053Y-19505277D02*
X120568972Y-19489692D01*
X120568972Y-19489692D02*
X120565675Y-19471746D01*
X120565675Y-19471746D02*
X120562659Y-19454272D01*
X120562659Y-19454272D02*
X120560471Y-19440277D01*
X120560471Y-19440277D02*
X120547583Y-19367148D01*
X120547583Y-19367148D02*
X120520319Y-19239530D01*
X120520319Y-19239530D02*
X120491211Y-19111306D01*
X120491211Y-19111306D02*
X120470219Y-19030277D01*
X120470219Y-19030277D02*
X120468167Y-19022654D01*
X120468167Y-19022654D02*
X120465418Y-19011606D01*
X120465418Y-19011606D02*
X120462509Y-18999406D01*
X120462509Y-18999406D02*
X120459866Y-18987777D01*
X120459866Y-18987777D02*
X120457226Y-18976332D01*
X120457226Y-18976332D02*
X120454324Y-18964684D01*
X120454324Y-18964684D02*
X120451577Y-18954390D01*
X120451577Y-18954390D02*
X120449546Y-18947777D01*
X120449546Y-18947777D02*
X120438947Y-18912230D01*
X120438947Y-18912230D02*
X120406786Y-18786990D01*
X120406786Y-18786990D02*
X120374492Y-18658731D01*
X120374492Y-18658731D02*
X120349454Y-18555379D01*
X120349454Y-18555379D02*
X120312899Y-18391341D01*
X120312899Y-18391341D02*
X120282146Y-18233530D01*
X120282146Y-18233530D02*
X120250474Y-18045675D01*
X120250474Y-18045675D02*
X120209879Y-17780277D01*
X120209879Y-17780277D02*
X120207550Y-17764693D01*
X120207550Y-17764693D02*
X120204846Y-17746746D01*
X120204846Y-17746746D02*
X120202198Y-17729274D01*
X120202198Y-17729274D02*
X120200058Y-17715277D01*
X120200058Y-17715277D02*
X120197609Y-17698853D01*
X120197609Y-17698853D02*
X120193664Y-17671324D01*
X120193664Y-17671324D02*
X120189195Y-17639649D01*
X120189195Y-17639649D02*
X120184771Y-17607777D01*
X120184771Y-17607777D02*
X120166249Y-17480893D01*
X120166249Y-17480893D02*
X120149153Y-17380779D01*
X120149153Y-17380779D02*
X120133695Y-17304885D01*
X119307816Y-23455118D02*
X119313100Y-23459282D01*
X116352797Y-19537022D02*
X116362376Y-19572674D01*
X116362376Y-19572674D02*
X116375567Y-19610779D01*
X116390446Y-19644500D02*
X116394113Y-19652210D01*
X116394113Y-19652210D02*
X116397209Y-19659477D01*
X116397209Y-19659477D02*
X116399530Y-19665636D01*
X116402078Y-19677345D02*
X116462647Y-19800518D01*
X116462647Y-19800518D02*
X116517394Y-19910797D01*
X116517394Y-19910797D02*
X116546150Y-19965277D01*
X116546150Y-19965277D02*
X116556140Y-19983314D01*
X116556140Y-19983314D02*
X116567835Y-20004543D01*
X116567835Y-20004543D02*
X116579351Y-20025536D01*
X116579351Y-20025536D02*
X116588754Y-20042777D01*
X116588754Y-20042777D02*
X116610346Y-20081702D01*
X116610346Y-20081702D02*
X116668968Y-20185057D01*
X116668968Y-20185057D02*
X116727044Y-20287083D01*
X116727044Y-20287083D02*
X116756342Y-20337777D01*
X116756342Y-20337777D02*
X116760674Y-20345211D01*
X116760674Y-20345211D02*
X116765217Y-20353074D01*
X116765217Y-20353074D02*
X116769328Y-20360248D01*
X116769328Y-20360248D02*
X116772165Y-20365277D01*
X116772165Y-20365277D02*
X116797729Y-20409490D01*
X116797729Y-20409490D02*
X116867790Y-20526106D01*
X116867790Y-20526106D02*
X116937630Y-20641590D01*
X116937630Y-20641590D02*
X116980010Y-20710277D01*
X116980010Y-20710277D02*
X116992249Y-20729846D01*
X116992249Y-20729846D02*
X117024866Y-20782137D01*
X117024866Y-20782137D02*
X117063762Y-20844522D01*
X117063762Y-20844522D02*
X117106299Y-20912777D01*
X117106299Y-20912777D02*
X117150478Y-20983586D01*
X117150478Y-20983586D02*
X117194344Y-21053699D01*
X117194344Y-21053699D02*
X117232466Y-21114465D01*
X117232466Y-21114465D02*
X117255098Y-21150277D01*
X117255098Y-21150277D02*
X117273210Y-21178853D01*
X117273210Y-21178853D02*
X117293501Y-21211028D01*
X117293501Y-21211028D02*
X117312852Y-21241839D01*
X117312852Y-21241839D02*
X117327810Y-21265811D01*
X117327810Y-21265811D02*
X117392960Y-21368079D01*
X117392960Y-21368079D02*
X117503314Y-21536047D01*
X117503314Y-21536047D02*
X117615794Y-21705183D01*
X117615794Y-21705183D02*
X117692611Y-21817777D01*
X117692611Y-21817777D02*
X117743294Y-21889659D01*
X117743294Y-21889659D02*
X117798022Y-21965362D01*
X117798022Y-21965362D02*
X117850771Y-22036679D01*
X117850771Y-22036679D02*
X117895094Y-22094720D01*
X117895094Y-22094720D02*
X117912804Y-22117489D01*
X117912804Y-22117489D02*
X117930933Y-22140881D01*
X117930933Y-22140881D02*
X117947035Y-22161730D01*
X117947035Y-22161730D02*
X117957522Y-22175413D01*
X117957522Y-22175413D02*
X118126302Y-22381368D01*
X118126302Y-22381368D02*
X118331976Y-22603889D01*
X118331976Y-22603889D02*
X118560218Y-22828564D01*
X118560218Y-22828564D02*
X118797522Y-23041366D01*
X118797522Y-23041366D02*
X118846190Y-23082022D01*
X118846190Y-23082022D02*
X118955655Y-23171064D01*
X118955655Y-23171064D02*
X119076355Y-23268615D01*
X119076355Y-23268615D02*
X119186635Y-23356997D01*
X119186635Y-23356997D02*
X119285879Y-23436626D01*
X119269621Y-23439782D02*
X119152522Y-23362529D01*
X119152522Y-23362529D02*
X119094127Y-23324579D01*
X119094127Y-23324579D02*
X119029264Y-23283880D01*
X119029264Y-23283880D02*
X118967579Y-23246350D01*
X118967579Y-23246350D02*
X118920022Y-23218855D01*
X118920022Y-23218855D02*
X118908665Y-23212503D01*
X118908665Y-23212503D02*
X118892381Y-23203359D01*
X118892381Y-23203359D02*
X118874485Y-23193290D01*
X118874485Y-23193290D02*
X118857522Y-23183724D01*
X118857522Y-23183724D02*
X118807800Y-23157003D01*
X118807800Y-23157003D02*
X118722054Y-23113707D01*
X118722054Y-23113707D02*
X118636095Y-23071297D01*
X118636095Y-23071297D02*
X118587522Y-23048978D01*
X118587522Y-23048978D02*
X118514767Y-23018060D01*
X118514767Y-23018060D02*
X118462918Y-22997344D01*
X118462918Y-22997344D02*
X118411345Y-22978648D01*
X118411345Y-22978648D02*
X118340022Y-22954629D01*
X118340022Y-22954629D02*
X118238541Y-22923880D01*
X118238541Y-22923880D02*
X118134167Y-22897547D01*
X118134167Y-22897547D02*
X118037077Y-22877867D01*
X117013874Y-23504229D02*
X117096008Y-23545116D01*
X117096008Y-23545116D02*
X117172193Y-23582386D01*
X117172193Y-23582386D02*
X117220022Y-23604199D01*
X117220022Y-23604199D02*
X117285345Y-23631444D01*
X119499812Y-21975277D02*
X119502112Y-21991881D01*
X119491414Y-20134273D02*
X119489359Y-20151746D01*
X119456089Y-20470173D02*
X119450432Y-20547777D01*
X122644416Y-21161958D02*
X122666565Y-21114935D01*
X122666565Y-21114935D02*
X122705466Y-21032138D01*
X122705466Y-21032138D02*
X122752656Y-20931614D01*
X122752656Y-20931614D02*
X122804881Y-20820277D01*
X122804881Y-20820277D02*
X122815623Y-20797387D01*
X122815623Y-20797387D02*
X122826572Y-20774090D01*
X122826572Y-20774090D02*
X122836270Y-20753483D01*
X122836270Y-20753483D02*
X122842505Y-20740277D01*
X122842505Y-20740277D02*
X122863434Y-20695815D01*
X122863434Y-20695815D02*
X122898656Y-20620485D01*
X122898656Y-20620485D02*
X122933870Y-20544997D01*
X122933870Y-20544997D02*
X122948740Y-20512777D01*
X122948740Y-20512777D02*
X122957300Y-20494652D01*
X122957300Y-20494652D02*
X122982337Y-20443418D01*
X122982337Y-20443418D02*
X123012314Y-20382396D01*
X123012314Y-20382396D02*
X123045463Y-20315277D01*
X123045463Y-20315277D02*
X123148409Y-20110452D01*
X123148409Y-20110452D02*
X123213980Y-19989678D01*
X123213980Y-19989678D02*
X123274034Y-19893698D01*
X123274034Y-19893698D02*
X123351038Y-19785277D01*
X123351038Y-19785277D02*
X123391922Y-19731904D01*
X123391922Y-19731904D02*
X123445948Y-19664257D01*
X123445948Y-19664257D02*
X123499895Y-19598072D01*
X123526429Y-19570518D02*
X123545976Y-19546851D01*
X123545976Y-19546851D02*
X123565329Y-19522507D01*
X123565329Y-19522507D02*
X123577667Y-19505539D01*
X123549438Y-19487759D02*
X123492952Y-19523208D01*
X123492952Y-19523208D02*
X123437477Y-19559270D01*
X123437477Y-19559270D02*
X123397522Y-19587414D01*
X123397522Y-19587414D02*
X123385320Y-19596471D01*
X123385320Y-19596471D02*
X123368850Y-19608643D01*
X123368850Y-19608643D02*
X123351209Y-19621646D01*
X123351209Y-19621646D02*
X123335022Y-19633543D01*
X123335022Y-19633543D02*
X123314011Y-19649020D01*
X123314011Y-19649020D02*
X123276959Y-19676446D01*
X123276959Y-19676446D02*
X123233928Y-19708350D01*
X123233928Y-19708350D02*
X123190022Y-19740957D01*
X123190022Y-19740957D02*
X122968690Y-19904774D01*
X122968690Y-19904774D02*
X122820866Y-20012251D01*
X122820866Y-20012251D02*
X122697222Y-20099298D01*
X122697222Y-20099298D02*
X122562522Y-20190991D01*
X122562522Y-20190991D02*
X122517965Y-20220471D01*
X122517965Y-20220471D02*
X122456365Y-20260469D01*
X122456365Y-20260469D02*
X122389629Y-20303344D01*
X122389629Y-20303344D02*
X122327522Y-20342769D01*
X122327522Y-20342769D02*
X122148457Y-20456351D01*
X122148457Y-20456351D02*
X122046415Y-20523278D01*
X122046415Y-20523278D02*
X121967428Y-20578727D01*
X121967428Y-20578727D02*
X121880250Y-20644220D01*
X121880250Y-20644220D02*
X121777297Y-20730085D01*
X121777297Y-20730085D02*
X121646053Y-20852079D01*
X121646053Y-20852079D02*
X121513704Y-20983304D01*
X121513704Y-20983304D02*
X121405193Y-21100277D01*
X121405193Y-21100277D02*
X121380430Y-21128361D01*
X121380430Y-21128361D02*
X121357031Y-21154856D01*
X121357031Y-21154856D02*
X121337272Y-21177192D01*
X121337272Y-21177192D02*
X121327847Y-21187777D01*
X121893683Y-25046689D02*
X121877281Y-25023316D01*
X121877281Y-25023316D02*
X121862079Y-25003035D01*
X120385721Y-22760277D02*
X120383495Y-22765577D01*
X120383495Y-22765577D02*
X120379723Y-22773949D01*
X120379723Y-22773949D02*
X120375330Y-22783430D01*
X120375330Y-22783430D02*
X120370874Y-22792777D01*
X120370874Y-22792777D02*
X120366707Y-22801673D01*
X120366707Y-22801673D02*
X120363194Y-22809786D01*
X120363194Y-22809786D02*
X120360459Y-22816632D01*
X120359166Y-22823491D02*
X120352969Y-22838632D01*
X120352969Y-22838632D02*
X120343866Y-22859784D01*
X120343866Y-22859784D02*
X120329642Y-22891661D01*
X120329642Y-22891661D02*
X120325958Y-22900210D01*
X120325958Y-22900210D02*
X120322848Y-22908209D01*
X120322848Y-22908209D02*
X120320501Y-22914968D01*
X120319553Y-22920959D02*
X120317281Y-22927667D01*
X120317281Y-22927667D02*
X120314264Y-22935606D01*
X120314264Y-22935606D02*
X120310691Y-22944082D01*
X120310691Y-22944082D02*
X120306173Y-22954627D01*
X119634498Y-19470277D02*
X119620636Y-19520269D01*
X121862079Y-25003035D02*
X121851771Y-24989809D01*
X121851771Y-24989809D02*
X121837947Y-24972822D01*
X121837947Y-24972822D02*
X121794380Y-24920045D01*
X121794380Y-24920045D02*
X121719278Y-24826381D01*
X121719278Y-24826381D02*
X121658325Y-24744131D01*
X121658325Y-24744131D02*
X121593113Y-24647827D01*
X121593113Y-24647827D02*
X121501099Y-24504225D01*
X120306173Y-22954627D02*
X120300109Y-22969333D01*
X120300109Y-22969333D02*
X120293655Y-22985324D01*
X120293655Y-22985324D02*
X120287768Y-23000277D01*
X120287768Y-23000277D02*
X120274497Y-23034151D01*
X120274497Y-23034151D02*
X120263179Y-23062378D01*
X120263179Y-23062378D02*
X120253305Y-23086243D01*
X120253305Y-23086243D02*
X120244490Y-23106661D01*
X119140235Y-22143074D02*
X119130128Y-22124323D01*
X119130128Y-22124323D02*
X119121221Y-22107777D01*
X121397606Y-24949292D02*
X121534294Y-24982548D01*
X121534294Y-24982548D02*
X121614120Y-25002862D01*
X121614120Y-25002862D02*
X121685736Y-25024319D01*
X121685736Y-25024319D02*
X121751838Y-25047762D01*
X121751838Y-25047762D02*
X121815022Y-25074046D01*
X121815022Y-25074046D02*
X121846281Y-25087761D01*
X120464982Y-22580277D02*
X120447720Y-22618594D01*
X120447720Y-22618594D02*
X120420843Y-22679384D01*
X120420843Y-22679384D02*
X120393609Y-22741378D01*
X120393609Y-22741378D02*
X120385721Y-22760277D01*
X119094341Y-22058062D02*
X119075985Y-22024222D01*
X119075985Y-22024222D02*
X119058037Y-21991194D01*
X122620294Y-21214044D02*
X122627187Y-21198945D01*
X122627187Y-21198945D02*
X122635064Y-21181889D01*
X122635064Y-21181889D02*
X122644416Y-21161958D01*
X121327847Y-21187777D02*
X121284639Y-21238542D01*
X121284639Y-21238542D02*
X121217177Y-21323061D01*
X121217177Y-21323061D02*
X121146819Y-21413641D01*
X121146819Y-21413641D02*
X121089543Y-21490277D01*
X121089543Y-21490277D02*
X121029939Y-21574271D01*
X121029939Y-21574271D02*
X120962393Y-21673837D01*
X120962393Y-21673837D02*
X120899259Y-21770233D01*
X120899259Y-21770233D02*
X120854889Y-21842307D01*
X120854889Y-21842307D02*
X120850197Y-21850243D01*
X120850197Y-21850243D02*
X120839864Y-21867624D01*
X120839864Y-21867624D02*
X120827575Y-21888268D01*
X120827575Y-21888268D02*
X120814458Y-21910277D01*
X120814458Y-21910277D02*
X120800976Y-21932985D01*
X120800976Y-21932985D02*
X120787590Y-21955731D01*
X120787590Y-21955731D02*
X120775983Y-21975624D01*
X120775983Y-21975624D02*
X120769048Y-21987777D01*
X120769048Y-21987777D02*
X120759609Y-22004555D01*
X120759609Y-22004555D02*
X120749929Y-22021636D01*
X120749929Y-22021636D02*
X120738678Y-22041366D01*
X120738678Y-22041366D02*
X120724269Y-22066527D01*
X120724269Y-22066527D02*
X120683548Y-22141636D01*
X120683548Y-22141636D02*
X120596807Y-22312328D01*
X120596807Y-22312328D02*
X120511249Y-22483226D01*
X120511249Y-22483226D02*
X120464982Y-22580277D01*
X119121221Y-22107777D02*
X119110636Y-22088155D01*
X119110636Y-22088155D02*
X119094341Y-22058062D01*
X120184700Y-23817876D02*
X120226901Y-23818134D01*
X120657522Y-23850622D02*
X120813070Y-23857895D01*
X120813070Y-23857895D02*
X121086190Y-23859806D01*
X121086190Y-23859806D02*
X121358935Y-23858145D01*
X121358935Y-23858145D02*
X121492522Y-23850739D01*
X121492522Y-23850739D02*
X121528547Y-23847195D01*
X121528547Y-23847195D02*
X121566506Y-23843487D01*
X121566506Y-23843487D02*
X121601013Y-23840138D01*
X121601013Y-23840138D02*
X121625022Y-23837838D01*
X121625022Y-23837838D02*
X121745884Y-23823156D01*
X121745884Y-23823156D02*
X121883620Y-23800279D01*
X121883620Y-23800279D02*
X122020804Y-23772545D01*
X122020804Y-23772545D02*
X122140022Y-23743034D01*
X122140022Y-23743034D02*
X122213400Y-23722598D01*
X122213400Y-23722598D02*
X122252851Y-23710723D01*
X122252851Y-23710723D02*
X122292423Y-23697307D01*
X122292423Y-23697307D02*
X122367522Y-23670178D01*
X122367522Y-23670178D02*
X122458987Y-23635131D01*
X122458987Y-23635131D02*
X122533440Y-23602696D01*
X122533440Y-23602696D02*
X122618504Y-23560433D01*
X122618504Y-23560433D02*
X122752522Y-23489199D01*
X122752522Y-23489199D02*
X122862600Y-23432490D01*
X122862600Y-23432490D02*
X123003927Y-23364591D01*
X123003927Y-23364591D02*
X123149199Y-23298078D01*
X123149199Y-23298078D02*
X123272522Y-23245274D01*
X123272522Y-23245274D02*
X123419767Y-23188251D01*
X123419767Y-23188251D02*
X123598786Y-23125203D01*
X123598786Y-23125203D02*
X123773171Y-23068169D01*
X123773171Y-23068169D02*
X123902522Y-23031377D01*
X123902522Y-23031377D02*
X123938093Y-23021392D01*
X123938093Y-23021392D02*
X124000776Y-23001805D01*
X124000776Y-23001805D02*
X124065174Y-22981131D01*
X124075267Y-22933028D02*
X123946598Y-22930953D01*
X123946598Y-22930953D02*
X123760194Y-22928974D01*
X123760194Y-22928974D02*
X123422522Y-22926997D01*
X123422522Y-22926997D02*
X123166132Y-22925346D01*
X123166132Y-22925346D02*
X122937897Y-22923130D01*
X122937897Y-22923130D02*
X122745145Y-22920680D01*
X122745145Y-22920680D02*
X122692522Y-22918510D01*
X122692522Y-22918510D02*
X122657867Y-22916150D01*
X122657867Y-22916150D02*
X122615318Y-22913293D01*
X122615318Y-22913293D02*
X122572057Y-22910418D01*
X122572057Y-22910418D02*
X122535022Y-22907990D01*
X122535022Y-22907990D02*
X122498691Y-22905545D01*
X122498691Y-22905545D02*
X122457662Y-22902627D01*
X122457662Y-22902627D02*
X122418287Y-22899702D01*
X122418287Y-22899702D02*
X122387522Y-22897267D01*
X122387522Y-22897267D02*
X122353546Y-22895032D01*
X122353546Y-22895032D02*
X122301607Y-22892737D01*
X122301607Y-22892737D02*
X122243234Y-22890735D01*
X122243234Y-22890735D02*
X122186322Y-22889370D01*
X122186322Y-22889370D02*
X122105896Y-22888261D01*
X122105896Y-22888261D02*
X122061324Y-22888975D01*
X122061324Y-22888975D02*
X122025789Y-22891782D01*
X122025789Y-22891782D02*
X121983822Y-22897669D01*
X121983822Y-22897669D02*
X121924574Y-22908597D01*
X121924574Y-22908597D02*
X121863071Y-22922384D01*
X121863071Y-22922384D02*
X121801620Y-22938467D01*
X121801620Y-22938467D02*
X121742522Y-22956289D01*
X121742522Y-22956289D02*
X121707932Y-22967769D01*
X121707932Y-22967769D02*
X121678135Y-22978359D01*
X121678135Y-22978359D02*
X121643337Y-22991611D01*
X121643337Y-22991611D02*
X121590022Y-23012680D01*
X121590022Y-23012680D02*
X121483653Y-23056658D01*
X121483653Y-23056658D02*
X121345333Y-23116903D01*
X121345333Y-23116903D02*
X121194502Y-23184657D01*
X121194502Y-23184657D02*
X121047522Y-23252733D01*
X121047522Y-23252733D02*
X120999694Y-23275132D01*
X120999694Y-23275132D02*
X120931774Y-23306749D01*
X120931774Y-23306749D02*
X120865354Y-23337574D01*
X120865354Y-23337574D02*
X120830022Y-23353816D01*
X120830022Y-23353816D02*
X120796707Y-23369148D01*
X120796707Y-23369148D02*
X120761702Y-23385535D01*
X120761702Y-23385535D02*
X120719936Y-23405361D01*
X120719936Y-23405361D02*
X120665022Y-23431661D01*
X120665022Y-23431661D02*
X120636247Y-23445444D01*
X120636247Y-23445444D02*
X120605600Y-23460054D01*
X120605600Y-23460054D02*
X120577497Y-23473393D01*
X120577497Y-23473393D02*
X120557522Y-23482798D01*
X120557522Y-23482798D02*
X120538478Y-23491750D01*
X120538478Y-23491750D02*
X120513850Y-23503400D01*
X120513850Y-23503400D02*
X120488044Y-23515656D01*
X120488044Y-23515656D02*
X120465022Y-23526643D01*
X120465022Y-23526643D02*
X120396972Y-23558528D01*
X120396972Y-23558528D02*
X120328992Y-23589023D01*
X120328992Y-23589023D02*
X120268149Y-23615366D01*
X120284097Y-23572337D02*
X120291782Y-23568359D01*
X120291782Y-23568359D02*
X120306062Y-23560749D01*
X120306062Y-23560749D02*
X120322766Y-23551769D01*
X120322766Y-23551769D02*
X120340022Y-23542411D01*
X120340022Y-23542411D02*
X120359541Y-23531825D01*
X120359541Y-23531825D02*
X120383256Y-23519049D01*
X120383256Y-23519049D02*
X120407210Y-23506206D01*
X120407210Y-23506206D02*
X120427522Y-23495384D01*
X120427522Y-23495384D02*
X120846530Y-23258868D01*
X120846530Y-23258868D02*
X121202444Y-23026945D01*
X121202444Y-23026945D02*
X121512462Y-22788051D01*
X121792561Y-22530767D02*
X121929379Y-22385115D01*
X121929379Y-22385115D02*
X122060765Y-22228716D01*
X122060765Y-22228716D02*
X122176513Y-22074537D01*
X122265538Y-21936076D02*
X122272630Y-21923921D01*
X122272630Y-21923921D02*
X122279895Y-21911546D01*
X122279895Y-21911546D02*
X122286359Y-21900601D01*
X122286359Y-21900601D02*
X122290563Y-21893576D01*
X122290563Y-21893576D02*
X122301117Y-21875799D01*
X122301117Y-21875799D02*
X122312309Y-21856309D01*
X122312309Y-21856309D02*
X122323008Y-21837116D01*
X122323008Y-21837116D02*
X122332041Y-21820277D01*
X122332041Y-21820277D02*
X122336238Y-21812435D01*
X122336238Y-21812435D02*
X122340177Y-21805418D01*
X122340177Y-21805418D02*
X122343588Y-21799615D01*
X122347730Y-21793998D02*
X122376801Y-21734980D01*
X122376801Y-21734980D02*
X122404537Y-21678174D01*
X122404537Y-21678174D02*
X122427442Y-21630277D01*
X122427442Y-21630277D02*
X122477758Y-21523339D01*
X122477758Y-21523339D02*
X122520677Y-21431421D01*
X122520677Y-21431421D02*
X122559292Y-21348297D01*
X122560385Y-21343329D02*
X122568834Y-21324951D01*
X122568834Y-21324951D02*
X122578521Y-21304146D01*
X122578521Y-21304146D02*
X122590022Y-21279870D01*
X122590022Y-21279870D02*
X122601523Y-21255632D01*
X122601523Y-21255632D02*
X122611209Y-21234952D01*
X122611209Y-21234952D02*
X122619743Y-21216562D01*
X119600081Y-22547260D02*
X119602098Y-22557528D01*
X121000085Y-24074987D02*
X120952079Y-24051930D01*
X120952079Y-24051930D02*
X120904637Y-24030487D01*
X120904637Y-24030487D02*
X120858649Y-24011046D01*
X120858649Y-24011046D02*
X120815022Y-23994009D01*
X120815022Y-23994009D02*
X120681550Y-23947366D01*
X120681550Y-23947366D02*
X120542223Y-23904860D01*
X120542223Y-23904860D02*
X120415850Y-23871576D01*
X120327522Y-23855429D02*
X120301820Y-23851668D01*
X120301820Y-23851668D02*
X120263811Y-23844985D01*
X120263811Y-23844985D02*
X120225611Y-23837712D01*
X118960123Y-21810277D02*
X118831364Y-21580665D01*
X118831364Y-21580665D02*
X118702584Y-21373051D01*
X120226901Y-23818134D02*
X120278512Y-23820402D01*
X120278512Y-23820402D02*
X120340022Y-23825579D01*
X120340022Y-23825579D02*
X120374606Y-23828849D01*
X120374606Y-23828849D02*
X120414584Y-23832326D01*
X120414584Y-23832326D02*
X120453615Y-23835486D01*
X120453615Y-23835486D02*
X120485022Y-23837755D01*
X120485022Y-23837755D02*
X120518194Y-23840058D01*
X120518194Y-23840058D02*
X120563537Y-23843388D01*
X120563537Y-23843388D02*
X120612378Y-23847086D01*
X120612378Y-23847086D02*
X120657522Y-23850622D01*
X119470054Y-21687481D02*
X119472649Y-21717124D01*
X117958715Y-22867713D02*
X117937771Y-22865819D01*
X117937771Y-22865819D02*
X117919388Y-22863775D01*
X117919388Y-22863775D02*
X117903889Y-22861762D01*
X117891324Y-22858069D02*
X117717753Y-22863052D01*
X117717753Y-22863052D02*
X117542892Y-22868843D01*
X117542892Y-22868843D02*
X117375022Y-22875821D01*
X117375022Y-22875821D02*
X117303746Y-22879104D01*
X117303746Y-22879104D02*
X117228084Y-22882592D01*
X117228084Y-22882592D02*
X117158893Y-22885783D01*
X117158893Y-22885783D02*
X117110022Y-22888039D01*
X117110022Y-22888039D02*
X117002731Y-22893949D01*
X117002731Y-22893949D02*
X116894548Y-22901810D01*
X116894548Y-22901810D02*
X116795588Y-22910763D01*
X116795588Y-22910763D02*
X116717522Y-22919967D01*
X116717522Y-22919967D02*
X116635946Y-22930142D01*
X116635946Y-22930142D02*
X116555159Y-22938329D01*
X116555159Y-22938329D02*
X116464250Y-22945535D01*
X116464250Y-22945535D02*
X116350810Y-22952773D01*
X116350810Y-22952773D02*
X116249523Y-22959059D01*
X116249523Y-22959059D02*
X116175382Y-22964579D01*
X116175382Y-22964579D02*
X116119176Y-22969928D01*
X116119176Y-22969928D02*
X116076272Y-22975641D01*
X119479586Y-21796968D02*
X119486414Y-21863404D01*
D13*
G36*
X120000000Y-23484100D02*
G01*
X119788862Y-23677775D01*
X120007937Y-23773025D01*
X120758825Y-24315950D01*
X120577850Y-24411200D01*
X120000000Y-23954000D01*
X120012700Y-25046200D01*
X119898400Y-24906500D01*
X119892050Y-24017500D01*
X119936500Y-24017500D01*
X119555500Y-23801600D01*
X119269750Y-23649200D01*
X119434850Y-23369800D01*
X120000000Y-23484100D01*
G37*
X120000000Y-23484100D02*
X119788862Y-23677775D01*
X120007937Y-23773025D01*
X120758825Y-24315950D01*
X120577850Y-24411200D01*
X120000000Y-23954000D01*
X120012700Y-25046200D01*
X119898400Y-24906500D01*
X119892050Y-24017500D01*
X119936500Y-24017500D01*
X119555500Y-23801600D01*
X119269750Y-23649200D01*
X119434850Y-23369800D01*
X120000000Y-23484100D01*
G36*
X118002925Y-22903075D02*
G01*
X118339475Y-22998325D01*
X118603000Y-23090400D01*
X119301500Y-23496800D01*
X119331980Y-23524740D01*
X119339600Y-23509500D01*
X119339600Y-23522200D01*
X119331980Y-23524740D01*
X119250700Y-23687300D01*
X119644400Y-23827000D01*
X119434850Y-23852400D01*
X119041150Y-23877800D01*
X118564900Y-23877800D01*
X118120400Y-23814300D01*
X117637800Y-23700000D01*
X117244100Y-23585700D01*
X116837700Y-23357100D01*
X116520200Y-23128500D01*
X116113800Y-23001500D01*
X116761500Y-22950700D01*
X117294900Y-22912600D01*
X117758450Y-22906250D01*
X118002925Y-22903075D01*
G37*
X118002925Y-22903075D02*
X118339475Y-22998325D01*
X118603000Y-23090400D01*
X119301500Y-23496800D01*
X119331980Y-23524740D01*
X119339600Y-23509500D01*
X119339600Y-23522200D01*
X119331980Y-23524740D01*
X119250700Y-23687300D01*
X119644400Y-23827000D01*
X119434850Y-23852400D01*
X119041150Y-23877800D01*
X118564900Y-23877800D01*
X118120400Y-23814300D01*
X117637800Y-23700000D01*
X117244100Y-23585700D01*
X116837700Y-23357100D01*
X116520200Y-23128500D01*
X116113800Y-23001500D01*
X116761500Y-22950700D01*
X117294900Y-22912600D01*
X117758450Y-22906250D01*
X118002925Y-22903075D01*
G36*
X116596400Y-19724900D02*
G01*
X116913900Y-19966200D01*
X117479050Y-20283700D01*
X118075950Y-20715500D01*
X118450600Y-21096500D01*
X118850650Y-21661650D01*
X119447550Y-22842750D01*
X119746000Y-23407900D01*
X119758700Y-23420600D01*
X119428500Y-23446000D01*
X119326900Y-23395200D01*
X118971300Y-23147550D01*
X118564900Y-22779250D01*
X118234700Y-22430000D01*
X117879100Y-21998200D01*
X117599700Y-21579100D01*
X117409200Y-21325100D01*
X117155200Y-20867900D01*
X116901200Y-20499600D01*
X116659900Y-20080500D01*
X116380500Y-19521700D01*
X116596400Y-19724900D01*
G37*
X116596400Y-19724900D02*
X116913900Y-19966200D01*
X117479050Y-20283700D01*
X118075950Y-20715500D01*
X118450600Y-21096500D01*
X118850650Y-21661650D01*
X119447550Y-22842750D01*
X119746000Y-23407900D01*
X119758700Y-23420600D01*
X119428500Y-23446000D01*
X119326900Y-23395200D01*
X118971300Y-23147550D01*
X118564900Y-22779250D01*
X118234700Y-22430000D01*
X117879100Y-21998200D01*
X117599700Y-21579100D01*
X117409200Y-21325100D01*
X117155200Y-20867900D01*
X116901200Y-20499600D01*
X116659900Y-20080500D01*
X116380500Y-19521700D01*
X116596400Y-19724900D01*
G36*
X120215900Y-18150100D02*
G01*
X120317500Y-18632700D01*
X120431800Y-19089900D01*
X120514350Y-19420100D01*
X120577850Y-19801100D01*
X120622300Y-20321800D01*
X120622300Y-20855200D01*
X120571500Y-21439400D01*
X120508000Y-21960100D01*
X120365125Y-22455400D01*
X120066675Y-23471400D01*
X119853950Y-23420600D01*
X119619000Y-22506200D01*
X119445962Y-21642600D01*
X119461837Y-20855200D01*
X119514225Y-20194800D01*
X119676150Y-19420100D01*
X119911100Y-18607300D01*
X120038100Y-17832600D01*
X120101600Y-17311900D01*
X120215900Y-18150100D01*
G37*
X120215900Y-18150100D02*
X120317500Y-18632700D01*
X120431800Y-19089900D01*
X120514350Y-19420100D01*
X120577850Y-19801100D01*
X120622300Y-20321800D01*
X120622300Y-20855200D01*
X120571500Y-21439400D01*
X120508000Y-21960100D01*
X120365125Y-22455400D01*
X120066675Y-23471400D01*
X119853950Y-23420600D01*
X119619000Y-22506200D01*
X119445962Y-21642600D01*
X119461837Y-20855200D01*
X119514225Y-20194800D01*
X119676150Y-19420100D01*
X119911100Y-18607300D01*
X120038100Y-17832600D01*
X120101600Y-17311900D01*
X120215900Y-18150100D01*
G36*
X123060700Y-20283700D02*
G01*
X122819400Y-20779000D01*
X122616200Y-21236200D01*
X122355850Y-21756900D01*
X122082800Y-22112500D01*
X121771650Y-22525250D01*
X121301750Y-22918950D01*
X120800100Y-23255500D01*
X119695200Y-23852400D01*
X119720600Y-23522200D01*
X120025400Y-23471400D01*
X120273050Y-23033250D01*
X120488950Y-22569700D01*
X120654050Y-22239500D01*
X120838200Y-21947400D01*
X121003300Y-21629900D01*
X121282700Y-21274300D01*
X121562100Y-20956800D01*
X121892300Y-20664700D01*
X122235200Y-20436100D01*
X122616200Y-20182100D01*
X123009900Y-19915400D01*
X123543300Y-19521700D01*
X123060700Y-20283700D01*
G37*
X123060700Y-20283700D02*
X122819400Y-20779000D01*
X122616200Y-21236200D01*
X122355850Y-21756900D01*
X122082800Y-22112500D01*
X121771650Y-22525250D01*
X121301750Y-22918950D01*
X120800100Y-23255500D01*
X119695200Y-23852400D01*
X119720600Y-23522200D01*
X120025400Y-23471400D01*
X120273050Y-23033250D01*
X120488950Y-22569700D01*
X120654050Y-22239500D01*
X120838200Y-21947400D01*
X121003300Y-21629900D01*
X121282700Y-21274300D01*
X121562100Y-20956800D01*
X121892300Y-20664700D01*
X122235200Y-20436100D01*
X122616200Y-20182100D01*
X123009900Y-19915400D01*
X123543300Y-19521700D01*
X123060700Y-20283700D01*
G36*
X123073400Y-22938000D02*
G01*
X123505200Y-22963400D01*
X124083207Y-22973943D01*
X123403600Y-23128500D01*
X122971800Y-23319000D01*
X122628900Y-23534900D01*
X122209800Y-23700000D01*
X121676400Y-23788900D01*
X121231900Y-23814300D01*
X120654050Y-23795250D01*
X120076200Y-23776200D01*
X120012700Y-23700000D01*
X120228600Y-23636500D01*
X120235585Y-23585700D01*
X120551815Y-23458700D01*
X121085850Y-23230100D01*
X121638300Y-23026900D01*
X122032000Y-22912600D01*
X122476500Y-22912600D01*
X123073400Y-22938000D01*
G37*
X123073400Y-22938000D02*
X123505200Y-22963400D01*
X124083207Y-22973943D01*
X123403600Y-23128500D01*
X122971800Y-23319000D01*
X122628900Y-23534900D01*
X122209800Y-23700000D01*
X121676400Y-23788900D01*
X121231900Y-23814300D01*
X120654050Y-23795250D01*
X120076200Y-23776200D01*
X120012700Y-23700000D01*
X120228600Y-23636500D01*
X120235585Y-23585700D01*
X120551815Y-23458700D01*
X121085850Y-23230100D01*
X121638300Y-23026900D01*
X122032000Y-22912600D01*
X122476500Y-22912600D01*
X123073400Y-22938000D01*
G36*
X119866650Y-23966700D02*
G01*
X119498350Y-24398500D01*
X119060200Y-24671550D01*
X118679200Y-24811250D01*
X117929900Y-24976350D01*
X118412500Y-24449300D01*
X118806200Y-24182600D01*
X119174500Y-23979400D01*
X119644400Y-23903200D01*
X119669800Y-23903200D01*
X119866650Y-23966700D01*
G37*
X119866650Y-23966700D02*
X119498350Y-24398500D01*
X119060200Y-24671550D01*
X118679200Y-24811250D01*
X117929900Y-24976350D01*
X118412500Y-24449300D01*
X118806200Y-24182600D01*
X119174500Y-23979400D01*
X119644400Y-23903200D01*
X119669800Y-23903200D01*
X119866650Y-23966700D01*
G36*
X120660400Y-23947650D02*
G01*
X121212850Y-24227050D01*
X121539875Y-24554075D01*
X121674813Y-24784263D01*
X121906588Y-25054138D01*
X121600200Y-24970000D01*
X121346200Y-24893800D01*
X121168400Y-24830300D01*
X120793750Y-24696950D01*
X120434975Y-24503275D01*
X120174625Y-24217525D01*
X120050800Y-24055600D01*
X120114300Y-24093700D01*
X120088900Y-24030200D01*
X120152400Y-23858750D01*
X120660400Y-23947650D01*
G37*
X120660400Y-23947650D02*
X121212850Y-24227050D01*
X121539875Y-24554075D01*
X121674813Y-24784263D01*
X121906588Y-25054138D01*
X121600200Y-24970000D01*
X121346200Y-24893800D01*
X121168400Y-24830300D01*
X120793750Y-24696950D01*
X120434975Y-24503275D01*
X120174625Y-24217525D01*
X120050800Y-24055600D01*
X120114300Y-24093700D01*
X120088900Y-24030200D01*
X120152400Y-23858750D01*
X120660400Y-23947650D01*
D11*
X116060628Y-22985206D02*
G75*
G02*
X116062745Y-22980474I8833J-1112D01*
G01*
X116062745Y-22980475D02*
G75*
G02*
X116067170Y-22977659I6961J-6056D01*
G01*
X116067171Y-22977659D02*
G75*
G02*
X116076272Y-22975641I21302J-74534D01*
G01*
X117891324Y-22858069D02*
G75*
G02*
X117900393Y-22860507I462J-16364D01*
G01*
X117903889Y-22861762D02*
G75*
G02*
X117900393Y-22860507I1209J8867D01*
G01*
X120327522Y-23855429D02*
G75*
G02*
X120415850Y-23871576I-96572J-777952D01*
G01*
X121000085Y-24074988D02*
G75*
G02*
X121152408Y-24162179I-639105J-1293158D01*
G01*
X122620021Y-21215299D02*
G75*
G02*
X122619743Y-21216562I-3003J0D01*
G01*
X122560021Y-21344995D02*
G75*
G02*
X122560385Y-21343329I3995J0D01*
G01*
X122560021Y-21344995D02*
G75*
G02*
X122559292Y-21348297I-7840J0D01*
G01*
X122347731Y-21793997D02*
G75*
G02*
X122345022Y-21797777I-12801J6311D01*
G01*
X122343589Y-21799614D02*
G75*
G02*
X122345022Y-21797777I8150J-4881D01*
G01*
X122265539Y-21936076D02*
G75*
G02*
X122176513Y-22074537I-1594117J927112D01*
G01*
X121792561Y-22530767D02*
G75*
G02*
X121512462Y-22788051I-2992746J2977019D01*
G01*
X120267847Y-23582144D02*
G75*
G02*
X120284097Y-23572337I73169J-102870D01*
G01*
X120251467Y-23595234D02*
G75*
G02*
X120267847Y-23582145I125077J-139731D01*
G01*
X120238112Y-23608375D02*
G75*
G02*
X120251467Y-23595234I145858J-134885D01*
G01*
X120235021Y-23616267D02*
G75*
G02*
X120238111Y-23608375I11624J0D01*
G01*
X120235871Y-23619781D02*
G75*
G02*
X120235022Y-23616267I6849J3514D01*
G01*
X120238155Y-23621737D02*
G75*
G02*
X120235870Y-23619780I1247J3768D01*
G01*
X120242397Y-23622198D02*
G75*
G02*
X120238155Y-23621737I-1044J10127D01*
G01*
X120249641Y-23621103D02*
G75*
G02*
X120242398Y-23622199I-15184J75919D01*
G01*
X120268149Y-23615366D02*
G75*
G02*
X120249641Y-23621104I-36945J86448D01*
G01*
X124075267Y-22933028D02*
G75*
G02*
X124088772Y-22936729I-500J-28318D01*
G01*
X124088772Y-22936728D02*
G75*
G02*
X124097766Y-22945160I-13045J-22929D01*
G01*
X124097766Y-22945160D02*
G75*
G02*
X124100023Y-22955412I-12281J-8079D01*
G01*
X124100023Y-22955413D02*
G75*
G02*
X124094871Y-22965674I-18220J2725D01*
G01*
X124094870Y-22965673D02*
G75*
G02*
X124083207Y-22973943I-29662J29474D01*
G01*
X124083208Y-22973944D02*
G75*
G02*
X124065174Y-22981131I-63623J133418D01*
G01*
X120180021Y-23822584D02*
G75*
G02*
X120184700Y-23817876I4709J-1D01*
G01*
X120181145Y-23824719D02*
G75*
G02*
X120180022Y-23822585I1466J2134D01*
G01*
X120185529Y-23827293D02*
G75*
G02*
X120181144Y-23824719I15819J31971D01*
G01*
X122620022Y-21215299D02*
G75*
G02*
X122620294Y-21214044I3026J0D01*
G01*
X121912904Y-25082618D02*
G75*
G02*
X121912962Y-25090934I-10582J-4233D01*
G01*
X121912961Y-25090934D02*
G75*
G02*
X121910571Y-25093771I-5287J2029D01*
G01*
X121910571Y-25093771D02*
G75*
G02*
X121905675Y-25095933I-11328J19028D01*
G01*
X121905675Y-25095934D02*
G75*
G02*
X121898837Y-25097326I-10822J35655D01*
G01*
X121898838Y-25097325D02*
G75*
G02*
X121890414Y-25097777I-8424J78322D01*
G01*
X121890414Y-25097778D02*
G75*
G02*
X121875921Y-25096825I0J110737D01*
G01*
X121875921Y-25096825D02*
G75*
G02*
X121863016Y-25093965I9971J75534D01*
G01*
X121863016Y-25093965D02*
G75*
G02*
X121846281Y-25087761I53575J170197D01*
G01*
X121152408Y-24162178D02*
G75*
G02*
X121290509Y-24265987I-743206J-1132487D01*
G01*
X121290509Y-24265987D02*
G75*
G02*
X121408604Y-24381641I-808447J-943632D01*
G01*
X121408604Y-24381641D02*
G75*
G02*
X121501099Y-24504225I-691614J-618042D01*
G01*
X120320021Y-22917966D02*
G75*
G02*
X120319553Y-22920959I-9805J0D01*
G01*
X120320021Y-22917965D02*
G75*
G02*
X120320501Y-22914968I9600J-1D01*
G01*
X120360007Y-22819082D02*
G75*
G02*
X120359166Y-22823491I-11749J-43D01*
G01*
X120360007Y-22819082D02*
G75*
G02*
X120360459Y-22816632I6738J25D01*
G01*
X121893683Y-25046690D02*
G75*
G02*
X121905528Y-25066666I-194982J-129113D01*
G01*
X121905528Y-25066666D02*
G75*
G02*
X121912903Y-25082618I-148143J-78170D01*
G01*
X123549438Y-19487760D02*
G75*
G02*
X123564761Y-19481269I28471J-45884D01*
G01*
X123564761Y-19481268D02*
G75*
G02*
X123577504Y-19479947I10974J-43717D01*
G01*
X123577504Y-19479947D02*
G75*
G02*
X123584070Y-19484069I-305J-7776D01*
G01*
X123584070Y-19484070D02*
G75*
G02*
X123584527Y-19492656I-8997J-4784D01*
G01*
X123584527Y-19492655D02*
G75*
G02*
X123577667Y-19505539I-63438J25510D01*
G01*
X123526429Y-19570517D02*
G75*
G02*
X123516963Y-19580277I-72727J61071D01*
G01*
X123499895Y-19598072D02*
G75*
G02*
X123516963Y-19580277I123500J-101373D01*
G01*
X117958715Y-22867712D02*
G75*
G02*
X118037077Y-22877867I-68767J-838110D01*
G01*
X119284217Y-23442895D02*
G75*
G02*
X119269621Y-23439782I-3296J20324D01*
G01*
X119285880Y-23436626D02*
G75*
G02*
X119284217Y-23442894I-2231J-2763D01*
G01*
X116402079Y-19677345D02*
G75*
G02*
X116400022Y-19668491I18028J8854D01*
G01*
X116399530Y-19665636D02*
G75*
G02*
X116400022Y-19668491I-8045J-2855D01*
G01*
X116390446Y-19644500D02*
G75*
G02*
X116375567Y-19610779I353949J176315D01*
G01*
X116352798Y-19537021D02*
G75*
G02*
X116350022Y-19512709I105091J24312D01*
G01*
X116350022Y-19512709D02*
G75*
G02*
X116352313Y-19501889I26694J0D01*
G01*
X116352313Y-19501889D02*
G75*
G02*
X116358734Y-19493767I19006J-8428D01*
G01*
X116358734Y-19493767D02*
G75*
G02*
X116368045Y-19489963I11741J-15439D01*
G01*
X116368045Y-19489963D02*
G75*
G02*
X116378409Y-19491121I2783J-22042D01*
G01*
X119299378Y-23449505D02*
G75*
G02*
X119307816Y-23455118I-42084J-72409D01*
G01*
X119293690Y-23448010D02*
G75*
G02*
X119299378Y-23449505I137J-11046D01*
G01*
X119292163Y-23450169D02*
G75*
G02*
X119293690Y-23448010I1547J525D01*
G01*
X119295021Y-23455277D02*
G75*
G02*
X119292163Y-23450169I12406J10295D01*
G01*
X119298004Y-23458135D02*
G75*
G02*
X119295022Y-23455277I10995J14458D01*
G01*
X119301808Y-23460528D02*
G75*
G02*
X119298004Y-23458136I11528J22553D01*
G01*
X119305813Y-23462133D02*
G75*
G02*
X119301808Y-23460528I6762J22671D01*
G01*
X119309384Y-23462619D02*
G75*
G02*
X119305813Y-23462133I-229J11691D01*
G01*
X119313439Y-23462263D02*
G75*
G02*
X119309384Y-23462618I-4642J29680D01*
G01*
X119314221Y-23461131D02*
G75*
G02*
X119313438Y-23462263I-929J-194D01*
G01*
X119313100Y-23459282D02*
G75*
G02*
X119314221Y-23461131I-2062J-2515D01*
G01*
X120082574Y-17269496D02*
G75*
G02*
X120091771Y-17260571I24520J-16067D01*
G01*
X120091771Y-17260571D02*
G75*
G02*
X120102879Y-17257745I10107J-16484D01*
G01*
X120102879Y-17257745D02*
G75*
G02*
X120113607Y-17261707I-996J-19203D01*
G01*
X120113606Y-17261707D02*
G75*
G02*
X120121759Y-17271527I-17650J-22947D01*
G01*
X120121760Y-17271527D02*
G75*
G02*
X120133695Y-17304885I-124673J-63421D01*
G01*
X120155298Y-23304677D02*
G75*
G02*
X120155426Y-23284707I33535J9771D01*
G01*
X120162456Y-23305327D02*
G75*
G02*
X120155299Y-23304677I-3451J1730D01*
G01*
X120215021Y-23183771D02*
G75*
G02*
X120214584Y-23186362I-7897J0D01*
G01*
X120215021Y-23183771D02*
G75*
G02*
X120215482Y-23181197I7424J0D01*
G01*
X120235021Y-23133153D02*
G75*
G02*
X120234508Y-23136216I-9398J0D01*
G01*
X120235022Y-23133153D02*
G75*
G02*
X120235503Y-23130064I10154J0D01*
G01*
X119014682Y-21908855D02*
G75*
G02*
X119015022Y-21910212I-2538J-1357D01*
G01*
X117013874Y-23504228D02*
G75*
G02*
X117005022Y-23497537I13556J27135D01*
G01*
X117003092Y-23495897D02*
G75*
G02*
X117005022Y-23497537I-5453J-8377D01*
G01*
X116920629Y-23446375D02*
G75*
G02*
X116910474Y-23439975I63669J112281D01*
G01*
X116486099Y-23163678D02*
G75*
G02*
X116633114Y-23246773I-631554J-1288984D01*
G01*
X116326951Y-23096610D02*
G75*
G02*
X116486098Y-23163679I-510715J-1434241D01*
G01*
X116076927Y-23015042D02*
G75*
G02*
X116066329Y-23010106I14167J44263D01*
G01*
X116066329Y-23010106D02*
G75*
G02*
X116061681Y-23004159I5938J9430D01*
G01*
X116061681Y-23004159D02*
G75*
G02*
X116060076Y-22994254I30438J10015D01*
G01*
X116060076Y-22994254D02*
G75*
G02*
X116060628Y-22985206I70514J241D01*
G01*
X121198055Y-24893690D02*
G75*
G02*
X121142522Y-24873101I169046J541143D01*
G01*
X121062993Y-24842777D02*
G75*
G02*
X121064899Y-24843092I0J-5933D01*
G01*
X121062993Y-24842778D02*
G75*
G02*
X121059189Y-24842029I0J10037D01*
G01*
X120350022Y-24460106D02*
G75*
G02*
X120270238Y-24383873I695822J808099D01*
G01*
X120270238Y-24383873D02*
G75*
G02*
X120198595Y-24299661I781638J737557D01*
G01*
X120198596Y-24299661D02*
G75*
G02*
X120135002Y-24207259I878955J673003D01*
G01*
X120135001Y-24207258D02*
G75*
G02*
X120079292Y-24106527I1044989J643704D01*
G01*
X120058836Y-24071479D02*
G75*
G02*
X120066672Y-24082136I-34612J-33661D01*
G01*
X120052757Y-24069559D02*
G75*
G02*
X120058835Y-24071478I1254J-6611D01*
G01*
X120047112Y-24073439D02*
G75*
G02*
X120052758Y-24069558I7228J-4468D01*
G01*
X120045653Y-24078424D02*
G75*
G02*
X120047112Y-24073440I9773J-154D01*
G01*
X120033721Y-25062424D02*
G75*
G02*
X120032565Y-25071527I-41009J581D01*
G01*
X120032565Y-25071527D02*
G75*
G02*
X120031012Y-25075830I-20606J5007D01*
G01*
X120031011Y-25075830D02*
G75*
G02*
X120028627Y-25079473I-15676J7660D01*
G01*
X120028628Y-25079473D02*
G75*
G02*
X120025815Y-25081944I-9855J8380D01*
G01*
X120025814Y-25081943D02*
G75*
G02*
X120022998Y-25082777I-2816J4339D01*
G01*
X120022998Y-25082778D02*
G75*
G02*
X120018527Y-25081046I0J6637D01*
G01*
X119850060Y-24042777D02*
G75*
G02*
X119852369Y-24044990I-1J-2312D01*
G01*
X119847054Y-24044088D02*
G75*
G02*
X119850059Y-24042777I3005J-2787D01*
G01*
X119522618Y-24393723D02*
G75*
G02*
X119430022Y-24466907I-785138J898227D01*
G01*
X118620531Y-24840489D02*
G75*
G02*
X118585022Y-24849348I-111894J372905D01*
G01*
X117930754Y-25001291D02*
G75*
G02*
X117919488Y-25002124I-11660J81132D01*
G01*
X117919487Y-25002124D02*
G75*
G02*
X117910662Y-25001315I-221J46104D01*
G01*
X117910662Y-25001315D02*
G75*
G02*
X117902820Y-24998823I6419J33790D01*
G01*
X117902820Y-24998822D02*
G75*
G02*
X117893799Y-24985506I6402J14050D01*
G01*
X117893799Y-24985506D02*
G75*
G02*
X117899252Y-24966313I31269J1487D01*
G01*
X117899252Y-24966313D02*
G75*
G02*
X117927331Y-24931110I257590J-176662D01*
G01*
X118360021Y-24487406D02*
G75*
G02*
X118358008Y-24489477I-19819J17259D01*
G01*
X118360021Y-24487407D02*
G75*
G02*
X118362103Y-24485349I14795J-12883D01*
G01*
X119529691Y-23883050D02*
G75*
G02*
X119530034Y-23886296I-161J-1658D01*
G01*
X119527681Y-23883099D02*
G75*
G02*
X119529690Y-23883051I1204J-8298D01*
G01*
X120191588Y-23829800D02*
G75*
G02*
X120185529Y-23827293I15601J46284D01*
G01*
X120198772Y-23831862D02*
G75*
G02*
X120191589Y-23829800I19033J79840D01*
G01*
X116378409Y-19491121D02*
G75*
G02*
X116393800Y-19499519I-19851J-54684D01*
G01*
X119530667Y-22912450D02*
G75*
G02*
X119530022Y-22909625I5867J2825D01*
G01*
X119015378Y-21911643D02*
G75*
G02*
X119015022Y-21910212I2699J1431D01*
G01*
X120064571Y-17313376D02*
G75*
G02*
X120082574Y-17269496I122645J-24684D01*
G01*
X119793771Y-23403775D02*
G75*
G02*
X119778450Y-23404191I-7814J5438D01*
G01*
X119801642Y-23377617D02*
G75*
G02*
X119793772Y-23403776I-43965J-1036D01*
G01*
X119529045Y-22905488D02*
G75*
G02*
X119530022Y-22909625I-8269J-4137D01*
G01*
X119797789Y-23342241D02*
G75*
G02*
X119801641Y-23377617I-205937J-40320D01*
G01*
X119778449Y-23404191D02*
G75*
G02*
X119745824Y-23352971I252153J196613D01*
G01*
D10*
X135000000Y2500000D02*
X125000000Y2500000D01*
X135000000Y18000000D02*
X105000000Y18000000D01*
X115000000Y2500000D02*
X105000000Y2500000D01*
D11*
X119441200Y-21210800D02*
X119455160Y-21497777D01*
X119745824Y-23352971D02*
X119680900Y-23222769D01*
X118980163Y-21847052D02*
X118969544Y-21827713D01*
X118969544Y-21827713D02*
X118960123Y-21810277D01*
X120019274Y-17590793D02*
X119994836Y-17795277D01*
X119587276Y-19647511D02*
X119585002Y-19655277D01*
X119487122Y-20169693D02*
X119485041Y-20185277D01*
X119502112Y-21991881D02*
X119504965Y-22013215D01*
X118307249Y-20884817D02*
X118220584Y-20801527D01*
X118220584Y-20801527D02*
X118142522Y-20731589D01*
X119509713Y-20017481D02*
X119506422Y-20036231D01*
X119617668Y-22622709D02*
X119619792Y-22632777D01*
X119157627Y-22175277D02*
X119149971Y-22161116D01*
X119149971Y-22161116D02*
X119140235Y-22143074D01*
X119784316Y-23278882D02*
X119797790Y-23342241D01*
X119460146Y-21574262D02*
X119462884Y-21610118D01*
X119632635Y-22687777D02*
X119636652Y-22703561D01*
X119636652Y-22703561D02*
X119641964Y-22724684D01*
X119507876Y-22035494D02*
X119510387Y-22055277D01*
X119688021Y-22905658D02*
X119711965Y-22997481D01*
X119711965Y-22997481D02*
X119729915Y-23065277D01*
X119514785Y-19985277D02*
X119512686Y-19999437D01*
X120064571Y-17313377D02*
X120042634Y-17432589D01*
X119450432Y-20547777D02*
X119439221Y-20785430D01*
X119569739Y-22408706D02*
X119588031Y-22492260D01*
X119604678Y-22569391D02*
X119607389Y-22580966D01*
X119489359Y-20151746D02*
X119487122Y-20169693D01*
X120042634Y-17432589D02*
X120019274Y-17590793D01*
X119506422Y-20036231D02*
X119503300Y-20052777D01*
X119588031Y-22492260D02*
X119591336Y-22506189D01*
X119625424Y-22658215D02*
X119629114Y-22673688D01*
X119629114Y-22673688D02*
X119632635Y-22687777D01*
X119729915Y-23065277D02*
X119762789Y-23190486D01*
X119762789Y-23190486D02*
X119784316Y-23278882D01*
X119485041Y-20185277D02*
X119476782Y-20253128D01*
X119512686Y-19999437D02*
X119509713Y-20017481D01*
X119503300Y-20052777D02*
X119500258Y-20069324D01*
X119467410Y-21658549D02*
X119470054Y-21687481D01*
X119691595Y-19277777D02*
X119672754Y-19340648D01*
X119525096Y-19924104D02*
X119514785Y-19985277D01*
X118702584Y-21373051D02*
X118576981Y-21192044D01*
X118576981Y-21192044D02*
X118457941Y-21043323D01*
X117712111Y-20398124D02*
X117590998Y-20315371D01*
X117590998Y-20315371D02*
X117500022Y-20257694D01*
X119529044Y-22905488D02*
X119400735Y-22649065D01*
X119547577Y-19815220D02*
X119525096Y-19924104D01*
X119839522Y-18734580D02*
X119774298Y-18990004D01*
X119476782Y-20253128D02*
X119466010Y-20360768D01*
X119246362Y-22342777D02*
X119219842Y-22292235D01*
X119219842Y-22292235D02*
X119196050Y-22247166D01*
X119474772Y-21742777D02*
X119479586Y-21796968D01*
X119492916Y-20120277D02*
X119491414Y-20134273D01*
X119500258Y-20069324D02*
X119497211Y-20088074D01*
X119504965Y-22013215D02*
X119507876Y-22035494D01*
X119591336Y-22506189D02*
X119594799Y-22521609D01*
X119196050Y-22247166D02*
X119175179Y-22207925D01*
X119175179Y-22207925D02*
X119157627Y-22175277D01*
X118998277Y-21879295D02*
X118990348Y-21865352D01*
X118990348Y-21865352D02*
X118980163Y-21847052D01*
X119585002Y-19655277D02*
X119571306Y-19706615D01*
X119466010Y-20360768D02*
X119456089Y-20470173D01*
X117949731Y-20571569D02*
X117838770Y-20488408D01*
X117838770Y-20488408D02*
X117712111Y-20398124D01*
X119641964Y-22724684D02*
X119647592Y-22747213D01*
X119647592Y-22747213D02*
X119652687Y-22767777D01*
X119510387Y-22055277D02*
X119524401Y-22153232D01*
X119465155Y-21635277D02*
X119467410Y-21658549D01*
X119614997Y-22611012D02*
X119617668Y-22622709D01*
X119932296Y-18260277D02*
X119891058Y-18496192D01*
X119602925Y-19586256D02*
X119596912Y-19610277D01*
X119891058Y-18496192D02*
X119839522Y-18734580D01*
X119455160Y-21497777D02*
X119457431Y-21534943D01*
X119597913Y-22536189D02*
X119600081Y-22547260D01*
X117500022Y-20257694D02*
X117488524Y-20250743D01*
X117488524Y-20250743D02*
X117471647Y-20240441D01*
X117471647Y-20240441D02*
X117452943Y-20228971D01*
X117452943Y-20228971D02*
X117435022Y-20217924D01*
X117435022Y-20217924D02*
X117410594Y-20203170D01*
X119486414Y-21863404D02*
X119493686Y-21928002D01*
X119524401Y-22153232D02*
X119546332Y-22282567D01*
X119774298Y-18990004D02*
X119691595Y-19277777D01*
X119612223Y-22599554D02*
X119614997Y-22611012D01*
X119620636Y-19520269D02*
X119610559Y-19557297D01*
X119602098Y-22557528D02*
X119604678Y-22569391D01*
X119472649Y-21717124D02*
X119474772Y-21742777D01*
X119546332Y-22282567D02*
X119569739Y-22408706D01*
X119640717Y-19448596D02*
X119634498Y-19470277D01*
X118142522Y-20731589D02*
X118091890Y-20688546D01*
X118091890Y-20688546D02*
X118034121Y-20640261D01*
X119596912Y-19610277D02*
X119593793Y-19622863D01*
X119497211Y-20088074D02*
X119494593Y-20106118D01*
X119439221Y-20785430D02*
X119436197Y-20990776D01*
X119652687Y-22767777D02*
X119665004Y-22816641D01*
X119665004Y-22816641D02*
X119688021Y-22905658D01*
X119672754Y-19340648D02*
X119655296Y-19399293D01*
X119594799Y-22521609D02*
X119597913Y-22536189D01*
X119948247Y-18152128D02*
X119932296Y-18260277D01*
X119966692Y-18018323D02*
X119948247Y-18152128D01*
X119983743Y-17888355D02*
X119966692Y-18018323D01*
X119462884Y-21610118D02*
X119465155Y-21635277D01*
X117410594Y-20203170D02*
X117365350Y-20176582D01*
X117365350Y-20176582D02*
X117312323Y-20145700D01*
X117312323Y-20145700D02*
X117257522Y-20114069D01*
X119436197Y-20990776D02*
X119441200Y-21210800D01*
X119457431Y-21534943D02*
X119460146Y-21574262D01*
X119027657Y-21934784D02*
X119015377Y-21911643D01*
X118457941Y-21043323D02*
X118390510Y-20969449D01*
X118390510Y-20969449D02*
X118307249Y-20884817D01*
X119994836Y-17795277D02*
X119983743Y-17888355D01*
X119680900Y-23222769D02*
X119617434Y-23092202D01*
X119617434Y-23092202D02*
X119570128Y-22994375D01*
X119619792Y-22632777D02*
X119622102Y-22643678D01*
X119622102Y-22643678D02*
X119625424Y-22658215D01*
X119610559Y-19557297D02*
X119602925Y-19586256D01*
X119590420Y-19635871D02*
X119587276Y-19647511D01*
X119493686Y-21928002D02*
X119499812Y-21975277D01*
X119570128Y-22994375D02*
X119530666Y-22912451D01*
X119607389Y-22580966D02*
X119609796Y-22590277D01*
X119058037Y-21991194D02*
X119041545Y-21960738D01*
X119041545Y-21960738D02*
X119027657Y-21934784D01*
X119655296Y-19399293D02*
X119640717Y-19448596D01*
X118034121Y-20640261D02*
X117980696Y-20596196D01*
X117980696Y-20596196D02*
X117949731Y-20571569D01*
X119609796Y-22590277D02*
X119612223Y-22599554D01*
X119593793Y-19622863D02*
X119590420Y-19635871D01*
X119400735Y-22649065D02*
X119286280Y-22420659D01*
X119286280Y-22420659D02*
X119246362Y-22342777D01*
X119494593Y-20106118D02*
X119492916Y-20120277D01*
X119571306Y-19706615D02*
X119547577Y-19815220D01*
X117257522Y-20114069D02*
X117012714Y-19969733D01*
X117012714Y-19969733D02*
X116843791Y-19860502D01*
X116843791Y-19860502D02*
X116698174Y-19752127D01*
X116698174Y-19752127D02*
X116533636Y-19614359D01*
X116533636Y-19614359D02*
X116480950Y-19569163D01*
X116480950Y-19569163D02*
X116433573Y-19530444D01*
X116433573Y-19530444D02*
X116393800Y-19499519D01*
X120225611Y-23837712D02*
X120198772Y-23831862D01*
X117285345Y-23631444D02*
X117349573Y-23656485D01*
X117349573Y-23656485D02*
X117413400Y-23679584D01*
X117413400Y-23679584D02*
X117477522Y-23701004D01*
X117477522Y-23701004D02*
X117494485Y-23706458D01*
X117494485Y-23706458D02*
X117512381Y-23712256D01*
X117512381Y-23712256D02*
X117528663Y-23717567D01*
X117528663Y-23717567D02*
X117540022Y-23721321D01*
X117540022Y-23721321D02*
X117549914Y-23724499D01*
X117549914Y-23724499D02*
X117561053Y-23727839D01*
X117561053Y-23727839D02*
X117571722Y-23730851D01*
X117571722Y-23730851D02*
X117580022Y-23732966D01*
X117580022Y-23732966D02*
X117589207Y-23735245D01*
X117589207Y-23735245D02*
X117603397Y-23738981D01*
X117603397Y-23738981D02*
X117619381Y-23743300D01*
X117619381Y-23743300D02*
X117635022Y-23747637D01*
X117635022Y-23747637D02*
X117737305Y-23774654D01*
X117737305Y-23774654D02*
X117854034Y-23802215D01*
X117854034Y-23802215D02*
X117971857Y-23827377D01*
X117971857Y-23827377D02*
X118077522Y-23847109D01*
X118077522Y-23847109D02*
X118184250Y-23864788D01*
X118184250Y-23864788D02*
X118281738Y-23879690D01*
X118281738Y-23879690D02*
X118364771Y-23891119D01*
X118364771Y-23891119D02*
X118425022Y-23897707D01*
X118425022Y-23897707D02*
X118636661Y-23915269D01*
X118636661Y-23915269D02*
X118781748Y-23923781D01*
X118781748Y-23923781D02*
X118908340Y-23926041D01*
X118908340Y-23926041D02*
X119053645Y-23923169D01*
X119053645Y-23923169D02*
X119118915Y-23920681D01*
X119118915Y-23920681D02*
X119181795Y-23917839D01*
X119181795Y-23917839D02*
X119235352Y-23915035D01*
X119235352Y-23915035D02*
X119263645Y-23912894D01*
X119263645Y-23912894D02*
X119365074Y-23903070D01*
X119365074Y-23903070D02*
X119430359Y-23896376D01*
X119430359Y-23896376D02*
X119474754Y-23891359D01*
X119474754Y-23891359D02*
X119499690Y-23887644D01*
X119499690Y-23887644D02*
X119510305Y-23885799D01*
X119510305Y-23885799D02*
X119519709Y-23884287D01*
X119519709Y-23884287D02*
X119527681Y-23883099D01*
X119530034Y-23886296D02*
X119468904Y-23905292D01*
X119468904Y-23905292D02*
X119403341Y-23924277D01*
X119403341Y-23924277D02*
X119347522Y-23938372D01*
X119347522Y-23938372D02*
X119320340Y-23945577D01*
X119320340Y-23945577D02*
X119263274Y-23963030D01*
X119263274Y-23963030D02*
X119206104Y-23981114D01*
X119206104Y-23981114D02*
X119171272Y-23993122D01*
X119171272Y-23993122D02*
X119159151Y-23997580D01*
X119159151Y-23997580D02*
X119144287Y-24003046D01*
X119144287Y-24003046D02*
X119129186Y-24008599D01*
X119129186Y-24008599D02*
X119116272Y-24013347D01*
X119116272Y-24013347D02*
X119095779Y-24021025D01*
X119095779Y-24021025D02*
X119079737Y-24027382D01*
X119079737Y-24027382D02*
X119059757Y-24035775D01*
X119059757Y-24035775D02*
X119020022Y-24052890D01*
X119020022Y-24052890D02*
X118982493Y-24069994D01*
X118982493Y-24069994D02*
X118926262Y-24097389D01*
X118926262Y-24097389D02*
X118870714Y-24125268D01*
X118870714Y-24125268D02*
X118836795Y-24143515D01*
X118836795Y-24143515D02*
X118730113Y-24207287D01*
X118730113Y-24207287D02*
X118630076Y-24273754D01*
X118630076Y-24273754D02*
X118530470Y-24347248D01*
X118530470Y-24347248D02*
X118425022Y-24432231D01*
X118425022Y-24432231D02*
X118400885Y-24452487D01*
X118400885Y-24452487D02*
X118380147Y-24470015D01*
X118380147Y-24470015D02*
X118362103Y-24485349D01*
X118358008Y-24489477D02*
X118343687Y-24502653D01*
X118343687Y-24502653D02*
X118327115Y-24517823D01*
X118327115Y-24517823D02*
X118307926Y-24535277D01*
X118307926Y-24535277D02*
X118263224Y-24576564D01*
X118263224Y-24576564D02*
X118226361Y-24612256D01*
X118226361Y-24612256D02*
X118190178Y-24649392D01*
X118190178Y-24649392D02*
X118147522Y-24695213D01*
X118147522Y-24695213D02*
X118122351Y-24722510D01*
X118122351Y-24722510D02*
X118086499Y-24761019D01*
X118086499Y-24761019D02*
X118047172Y-24803045D01*
X118047172Y-24803045D02*
X118009998Y-24842550D01*
X118009998Y-24842550D02*
X117927331Y-24931110D01*
X117930754Y-25001291D02*
X117946570Y-24998613D01*
X117946570Y-24998613D02*
X118006655Y-24986751D01*
X118006655Y-24986751D02*
X118069890Y-24974006D01*
X118069890Y-24974006D02*
X118126495Y-24962411D01*
X118126495Y-24962411D02*
X118150022Y-24957222D01*
X118150022Y-24957222D02*
X118160765Y-24954724D01*
X118160765Y-24954724D02*
X118174725Y-24951527D01*
X118174725Y-24951527D02*
X118189392Y-24948201D01*
X118189392Y-24948201D02*
X118202522Y-24945258D01*
X118202522Y-24945258D02*
X118222000Y-24940673D01*
X118222000Y-24940673D02*
X118273647Y-24927802D01*
X118273647Y-24927802D02*
X118335223Y-24912309D01*
X118335223Y-24912309D02*
X118402522Y-24895214D01*
X118402522Y-24895214D02*
X118468574Y-24878414D01*
X118468574Y-24878414D02*
X118526256Y-24863853D01*
X118526256Y-24863853D02*
X118575788Y-24851427D01*
X118575788Y-24851427D02*
X118585022Y-24849348D01*
X118620530Y-24840489D02*
X118714001Y-24812067D01*
X118714001Y-24812067D02*
X118806592Y-24783017D01*
X118806592Y-24783017D02*
X118862522Y-24763854D01*
X118862522Y-24763854D02*
X119020115Y-24700989D01*
X119020115Y-24700989D02*
X119160543Y-24634003D01*
X119160543Y-24634003D02*
X119293872Y-24557727D01*
X119293872Y-24557727D02*
X119430022Y-24466907D01*
X119522618Y-24393723D02*
X119621336Y-24301497D01*
X119621336Y-24301497D02*
X119719679Y-24196929D01*
X119719679Y-24196929D02*
X119811309Y-24086292D01*
X119811309Y-24086292D02*
X119824618Y-24069615D01*
X119824618Y-24069615D02*
X119836630Y-24055560D01*
X119836630Y-24055560D02*
X119847055Y-24044089D01*
X119852369Y-24044990D02*
X119853728Y-24079717D01*
X119853728Y-24079717D02*
X119854720Y-24123849D01*
X119854720Y-24123849D02*
X119855022Y-24184454D01*
X119855022Y-24184454D02*
X119855237Y-24258674D01*
X119855237Y-24258674D02*
X119855995Y-24372704D01*
X119855995Y-24372704D02*
X119857066Y-24501023D01*
X119857066Y-24501023D02*
X119858335Y-24626359D01*
X119858335Y-24626359D02*
X119861648Y-24926588D01*
X119861648Y-24926588D02*
X119938906Y-25004683D01*
X119938906Y-25004683D02*
X119969013Y-25034616D01*
X119969013Y-25034616D02*
X119995478Y-25059837D01*
X119995478Y-25059837D02*
X120018527Y-25081046D01*
X120033721Y-25062425D02*
X120035717Y-24919472D01*
X120035717Y-24919472D02*
X120037665Y-24758576D01*
X120037665Y-24758576D02*
X120039456Y-24569690D01*
X120039456Y-24569690D02*
X120041301Y-24381187D01*
X120041301Y-24381187D02*
X120043420Y-24221549D01*
X120043420Y-24221549D02*
X120045654Y-24078424D01*
X120066672Y-24082136D02*
X120079292Y-24106527D01*
X120350022Y-24460105D02*
X120399465Y-24500893D01*
X120399465Y-24500893D02*
X120452352Y-24541071D01*
X120452352Y-24541071D02*
X120502423Y-24576144D01*
X120502423Y-24576144D02*
X120542522Y-24600665D01*
X120542522Y-24600665D02*
X120552040Y-24606010D01*
X120552040Y-24606010D02*
X120565712Y-24613819D01*
X120565712Y-24613819D02*
X120584250Y-24624488D01*
X120584250Y-24624488D02*
X120610022Y-24639386D01*
X120610022Y-24639386D02*
X120646005Y-24658811D01*
X120646005Y-24658811D02*
X120714035Y-24692512D01*
X120714035Y-24692512D02*
X120784226Y-24726283D01*
X120784226Y-24726283D02*
X120835022Y-24749343D01*
X120835022Y-24749343D02*
X120881032Y-24768860D01*
X120881032Y-24768860D02*
X120964667Y-24803305D01*
X120964667Y-24803305D02*
X121059189Y-24842029D01*
X121064899Y-24843092D02*
X121069752Y-24844808D01*
X121069752Y-24844808D02*
X121075511Y-24847043D01*
X121075511Y-24847043D02*
X121081766Y-24849691D01*
X121081766Y-24849691D02*
X121089059Y-24852778D01*
X121089059Y-24852778D02*
X121098034Y-24856363D01*
X121098034Y-24856363D02*
X121107177Y-24859863D01*
X121107177Y-24859863D02*
X121115022Y-24862696D01*
X121115022Y-24862696D02*
X121122455Y-24865344D01*
X121122455Y-24865344D02*
X121130318Y-24868265D01*
X121130318Y-24868265D02*
X121137486Y-24871027D01*
X121137486Y-24871027D02*
X121142522Y-24873101D01*
X121198054Y-24893690D02*
X121285632Y-24919595D01*
X121285632Y-24919595D02*
X121397606Y-24949292D01*
X116076926Y-23015042D02*
X116108826Y-23024954D01*
X116108826Y-23024954D02*
X116326951Y-23096611D01*
X116633114Y-23246773D02*
X116811226Y-23369103D01*
X116811226Y-23369103D02*
X116848261Y-23395940D01*
X116848261Y-23395940D02*
X116882016Y-23420005D01*
X116882016Y-23420005D02*
X116910474Y-23439975D01*
X116920629Y-23446375D02*
X116927233Y-23450155D01*
X116927233Y-23450155D02*
X116934094Y-23454150D01*
X116934094Y-23454150D02*
X116940259Y-23457797D01*
X116940259Y-23457797D02*
X116944424Y-23460341D01*
X116944424Y-23460341D02*
X116949047Y-23463177D01*
X116949047Y-23463177D02*
X116957487Y-23468234D01*
X116957487Y-23468234D02*
X116967356Y-23474103D01*
X116967356Y-23474103D02*
X116977522Y-23480101D01*
X116977522Y-23480101D02*
X116987281Y-23485930D01*
X116987281Y-23485930D02*
X116995912Y-23491285D01*
X116995912Y-23491285D02*
X117003091Y-23495898D01*
X119010103Y-21900347D02*
X119004695Y-21890555D01*
X119004695Y-21890555D02*
X118998277Y-21879295D01*
X119014682Y-21908855D02*
X119010103Y-21900347D01*
X120244490Y-23106661D02*
X120240864Y-23115223D01*
X120240864Y-23115223D02*
X120237803Y-23123264D01*
X120237803Y-23123264D02*
X120235503Y-23130064D01*
X120234508Y-23136216D02*
X120232084Y-23142840D01*
X120232084Y-23142840D02*
X120228851Y-23150659D01*
X120228851Y-23150659D02*
X120225022Y-23158958D01*
X120225022Y-23158958D02*
X120221191Y-23167186D01*
X120221191Y-23167186D02*
X120217959Y-23174785D01*
X120217959Y-23174785D02*
X120215482Y-23181197D01*
X120214584Y-23186362D02*
X120212214Y-23192904D01*
X120212214Y-23192904D02*
X120209124Y-23200664D01*
X120209124Y-23200664D02*
X120205464Y-23209082D01*
X120205464Y-23209082D02*
X120200839Y-23219472D01*
X120200839Y-23219472D02*
X120194664Y-23233598D01*
X120194664Y-23233598D02*
X120188098Y-23248783D01*
X120188098Y-23248783D02*
X120182120Y-23262777D01*
X120182120Y-23262777D02*
X120162455Y-23305327D01*
X120155426Y-23284707D02*
X120172951Y-23231307D01*
X120172951Y-23231307D02*
X120180133Y-23210670D01*
X120180133Y-23210670D02*
X120186887Y-23190861D01*
X120186887Y-23190861D02*
X120192515Y-23174002D01*
X120192515Y-23174002D02*
X120195217Y-23165277D01*
X120195217Y-23165277D02*
X120198156Y-23155862D01*
X120198156Y-23155862D02*
X120205745Y-23133387D01*
X120205745Y-23133387D02*
X120214918Y-23106638D01*
X120214918Y-23106638D02*
X120224966Y-23077777D01*
X120224966Y-23077777D02*
X120249871Y-23005470D01*
X120249871Y-23005470D02*
X120282504Y-22908295D01*
X120282504Y-22908295D02*
X120313681Y-22814093D01*
X120313681Y-22814093D02*
X120330776Y-22760277D01*
X120330776Y-22760277D02*
X120335561Y-22744693D01*
X120335561Y-22744693D02*
X120341080Y-22726746D01*
X120341080Y-22726746D02*
X120346460Y-22709274D01*
X120346460Y-22709274D02*
X120350778Y-22695277D01*
X120350778Y-22695277D02*
X120367938Y-22637284D01*
X120367938Y-22637284D02*
X120397648Y-22531388D01*
X120397648Y-22531388D02*
X120427390Y-22423770D01*
X120427390Y-22423770D02*
X120436995Y-22385277D01*
X120436995Y-22385277D02*
X120438776Y-22377807D01*
X120438776Y-22377807D02*
X120441467Y-22367340D01*
X120441467Y-22367340D02*
X120444512Y-22355948D01*
X120444512Y-22355948D02*
X120447485Y-22345277D01*
X120447485Y-22345277D02*
X120478766Y-22221371D01*
X120478766Y-22221371D02*
X120521650Y-22019623D01*
X120521650Y-22019623D02*
X120561335Y-21817675D01*
X120561335Y-21817675D02*
X120580389Y-21695277D01*
X120580389Y-21695277D02*
X120582418Y-21679518D01*
X120582418Y-21679518D02*
X120584972Y-21661012D01*
X120584972Y-21661012D02*
X120587622Y-21642744D01*
X120587622Y-21642744D02*
X120589942Y-21627777D01*
X120589942Y-21627777D02*
X120592299Y-21612476D01*
X120592299Y-21612476D02*
X120595075Y-21593074D01*
X120595075Y-21593074D02*
X120597806Y-21572962D01*
X120597806Y-21572962D02*
X120600050Y-21555277D01*
X120600050Y-21555277D02*
X120602271Y-21537241D01*
X120602271Y-21537241D02*
X120604937Y-21516012D01*
X120604937Y-21516012D02*
X120607613Y-21495020D01*
X120607613Y-21495020D02*
X120609856Y-21477777D01*
X120609856Y-21477777D02*
X120618702Y-21404897D01*
X120618702Y-21404897D02*
X120629073Y-21307488D01*
X120629073Y-21307488D02*
X120638309Y-21213260D01*
X120638309Y-21213260D02*
X120642243Y-21160277D01*
D12*
X120642243Y-21160277D02*
X120656205Y-20880188D01*
X120656205Y-20880188D02*
X120663207Y-20673699D01*
D11*
X120663207Y-20673699D02*
X120664428Y-20511801D01*
X120664428Y-20511801D02*
X120659993Y-20375277D01*
X120659993Y-20375277D02*
X120649412Y-20196795D01*
X120649412Y-20196795D02*
X120641238Y-20073355D01*
X120641238Y-20073355D02*
X120633692Y-19977355D01*
X120633692Y-19977355D02*
X120625375Y-19890277D01*
X120625375Y-19890277D02*
X120613047Y-19782002D01*
X120613047Y-19782002D02*
X120598521Y-19670705D01*
X120598521Y-19670705D02*
X120583969Y-19571401D01*
X120583969Y-19571401D02*
X120572053Y-19505277D01*
X120572053Y-19505277D02*
X120568972Y-19489692D01*
X120568972Y-19489692D02*
X120565675Y-19471746D01*
X120565675Y-19471746D02*
X120562659Y-19454272D01*
X120562659Y-19454272D02*
X120560471Y-19440277D01*
X120560471Y-19440277D02*
X120547583Y-19367148D01*
X120547583Y-19367148D02*
X120520319Y-19239530D01*
X120520319Y-19239530D02*
X120491211Y-19111306D01*
X120491211Y-19111306D02*
X120470219Y-19030277D01*
X120470219Y-19030277D02*
X120468167Y-19022654D01*
X120468167Y-19022654D02*
X120465418Y-19011606D01*
X120465418Y-19011606D02*
X120462509Y-18999406D01*
X120462509Y-18999406D02*
X120459866Y-18987777D01*
X120459866Y-18987777D02*
X120457226Y-18976332D01*
X120457226Y-18976332D02*
X120454324Y-18964684D01*
X120454324Y-18964684D02*
X120451577Y-18954390D01*
X120451577Y-18954390D02*
X120449546Y-18947777D01*
X120449546Y-18947777D02*
X120438947Y-18912230D01*
X120438947Y-18912230D02*
X120406786Y-18786990D01*
X120406786Y-18786990D02*
X120374492Y-18658731D01*
X120374492Y-18658731D02*
X120349454Y-18555379D01*
X120349454Y-18555379D02*
X120312899Y-18391341D01*
X120312899Y-18391341D02*
X120282146Y-18233530D01*
X120282146Y-18233530D02*
X120250474Y-18045675D01*
X120250474Y-18045675D02*
X120209879Y-17780277D01*
X120209879Y-17780277D02*
X120207550Y-17764693D01*
X120207550Y-17764693D02*
X120204846Y-17746746D01*
X120204846Y-17746746D02*
X120202198Y-17729274D01*
X120202198Y-17729274D02*
X120200058Y-17715277D01*
X120200058Y-17715277D02*
X120197609Y-17698853D01*
X120197609Y-17698853D02*
X120193664Y-17671324D01*
X120193664Y-17671324D02*
X120189195Y-17639649D01*
X120189195Y-17639649D02*
X120184771Y-17607777D01*
X120184771Y-17607777D02*
X120166249Y-17480893D01*
X120166249Y-17480893D02*
X120149153Y-17380779D01*
X120149153Y-17380779D02*
X120133695Y-17304885D01*
X119307816Y-23455118D02*
X119313100Y-23459282D01*
X116352797Y-19537022D02*
X116362376Y-19572674D01*
X116362376Y-19572674D02*
X116375567Y-19610779D01*
X116390446Y-19644500D02*
X116394113Y-19652210D01*
X116394113Y-19652210D02*
X116397209Y-19659477D01*
X116397209Y-19659477D02*
X116399530Y-19665636D01*
X116402078Y-19677345D02*
X116462647Y-19800518D01*
X116462647Y-19800518D02*
X116517394Y-19910797D01*
X116517394Y-19910797D02*
X116546150Y-19965277D01*
X116546150Y-19965277D02*
X116556140Y-19983314D01*
X116556140Y-19983314D02*
X116567835Y-20004543D01*
X116567835Y-20004543D02*
X116579351Y-20025536D01*
X116579351Y-20025536D02*
X116588754Y-20042777D01*
X116588754Y-20042777D02*
X116610346Y-20081702D01*
X116610346Y-20081702D02*
X116668968Y-20185057D01*
X116668968Y-20185057D02*
X116727044Y-20287083D01*
X116727044Y-20287083D02*
X116756342Y-20337777D01*
X116756342Y-20337777D02*
X116760674Y-20345211D01*
X116760674Y-20345211D02*
X116765217Y-20353074D01*
X116765217Y-20353074D02*
X116769328Y-20360248D01*
X116769328Y-20360248D02*
X116772165Y-20365277D01*
X116772165Y-20365277D02*
X116797729Y-20409490D01*
X116797729Y-20409490D02*
X116867790Y-20526106D01*
X116867790Y-20526106D02*
X116937630Y-20641590D01*
X116937630Y-20641590D02*
X116980010Y-20710277D01*
X116980010Y-20710277D02*
X116992249Y-20729846D01*
X116992249Y-20729846D02*
X117024866Y-20782137D01*
X117024866Y-20782137D02*
X117063762Y-20844522D01*
X117063762Y-20844522D02*
X117106299Y-20912777D01*
X117106299Y-20912777D02*
X117150478Y-20983586D01*
X117150478Y-20983586D02*
X117194344Y-21053699D01*
X117194344Y-21053699D02*
X117232466Y-21114465D01*
X117232466Y-21114465D02*
X117255098Y-21150277D01*
X117255098Y-21150277D02*
X117273210Y-21178853D01*
X117273210Y-21178853D02*
X117293501Y-21211028D01*
X117293501Y-21211028D02*
X117312852Y-21241839D01*
X117312852Y-21241839D02*
X117327810Y-21265811D01*
X117327810Y-21265811D02*
X117392960Y-21368079D01*
X117392960Y-21368079D02*
X117503314Y-21536047D01*
X117503314Y-21536047D02*
X117615794Y-21705183D01*
X117615794Y-21705183D02*
X117692611Y-21817777D01*
X117692611Y-21817777D02*
X117743294Y-21889659D01*
X117743294Y-21889659D02*
X117798022Y-21965362D01*
X117798022Y-21965362D02*
X117850771Y-22036679D01*
X117850771Y-22036679D02*
X117895094Y-22094720D01*
X117895094Y-22094720D02*
X117912804Y-22117489D01*
X117912804Y-22117489D02*
X117930933Y-22140881D01*
X117930933Y-22140881D02*
X117947035Y-22161730D01*
X117947035Y-22161730D02*
X117957522Y-22175413D01*
X117957522Y-22175413D02*
X118126302Y-22381368D01*
X118126302Y-22381368D02*
X118331976Y-22603889D01*
X118331976Y-22603889D02*
X118560218Y-22828564D01*
X118560218Y-22828564D02*
X118797522Y-23041366D01*
X118797522Y-23041366D02*
X118846190Y-23082022D01*
X118846190Y-23082022D02*
X118955655Y-23171064D01*
X118955655Y-23171064D02*
X119076355Y-23268615D01*
X119076355Y-23268615D02*
X119186635Y-23356997D01*
X119186635Y-23356997D02*
X119285879Y-23436626D01*
X119269621Y-23439782D02*
X119152522Y-23362529D01*
X119152522Y-23362529D02*
X119094127Y-23324579D01*
X119094127Y-23324579D02*
X119029264Y-23283880D01*
X119029264Y-23283880D02*
X118967579Y-23246350D01*
X118967579Y-23246350D02*
X118920022Y-23218855D01*
X118920022Y-23218855D02*
X118908665Y-23212503D01*
X118908665Y-23212503D02*
X118892381Y-23203359D01*
X118892381Y-23203359D02*
X118874485Y-23193290D01*
X118874485Y-23193290D02*
X118857522Y-23183724D01*
X118857522Y-23183724D02*
X118807800Y-23157003D01*
X118807800Y-23157003D02*
X118722054Y-23113707D01*
X118722054Y-23113707D02*
X118636095Y-23071297D01*
X118636095Y-23071297D02*
X118587522Y-23048978D01*
X118587522Y-23048978D02*
X118514767Y-23018060D01*
X118514767Y-23018060D02*
X118462918Y-22997344D01*
X118462918Y-22997344D02*
X118411345Y-22978648D01*
X118411345Y-22978648D02*
X118340022Y-22954629D01*
X118340022Y-22954629D02*
X118238541Y-22923880D01*
X118238541Y-22923880D02*
X118134167Y-22897547D01*
X118134167Y-22897547D02*
X118037077Y-22877867D01*
X117013874Y-23504229D02*
X117096008Y-23545116D01*
X117096008Y-23545116D02*
X117172193Y-23582386D01*
X117172193Y-23582386D02*
X117220022Y-23604199D01*
X117220022Y-23604199D02*
X117285345Y-23631444D01*
X119499812Y-21975277D02*
X119502112Y-21991881D01*
X119491414Y-20134273D02*
X119489359Y-20151746D01*
X119456089Y-20470173D02*
X119450432Y-20547777D01*
X122644416Y-21161958D02*
X122666565Y-21114935D01*
X122666565Y-21114935D02*
X122705466Y-21032138D01*
X122705466Y-21032138D02*
X122752656Y-20931614D01*
X122752656Y-20931614D02*
X122804881Y-20820277D01*
X122804881Y-20820277D02*
X122815623Y-20797387D01*
X122815623Y-20797387D02*
X122826572Y-20774090D01*
X122826572Y-20774090D02*
X122836270Y-20753483D01*
X122836270Y-20753483D02*
X122842505Y-20740277D01*
X122842505Y-20740277D02*
X122863434Y-20695815D01*
X122863434Y-20695815D02*
X122898656Y-20620485D01*
X122898656Y-20620485D02*
X122933870Y-20544997D01*
X122933870Y-20544997D02*
X122948740Y-20512777D01*
X122948740Y-20512777D02*
X122957300Y-20494652D01*
X122957300Y-20494652D02*
X122982337Y-20443418D01*
X122982337Y-20443418D02*
X123012314Y-20382396D01*
X123012314Y-20382396D02*
X123045463Y-20315277D01*
X123045463Y-20315277D02*
X123148409Y-20110452D01*
X123148409Y-20110452D02*
X123213980Y-19989678D01*
X123213980Y-19989678D02*
X123274034Y-19893698D01*
X123274034Y-19893698D02*
X123351038Y-19785277D01*
X123351038Y-19785277D02*
X123391922Y-19731904D01*
X123391922Y-19731904D02*
X123445948Y-19664257D01*
X123445948Y-19664257D02*
X123499895Y-19598072D01*
X123526429Y-19570518D02*
X123545976Y-19546851D01*
X123545976Y-19546851D02*
X123565329Y-19522507D01*
X123565329Y-19522507D02*
X123577667Y-19505539D01*
X123549438Y-19487759D02*
X123492952Y-19523208D01*
X123492952Y-19523208D02*
X123437477Y-19559270D01*
X123437477Y-19559270D02*
X123397522Y-19587414D01*
X123397522Y-19587414D02*
X123385320Y-19596471D01*
X123385320Y-19596471D02*
X123368850Y-19608643D01*
X123368850Y-19608643D02*
X123351209Y-19621646D01*
X123351209Y-19621646D02*
X123335022Y-19633543D01*
X123335022Y-19633543D02*
X123314011Y-19649020D01*
X123314011Y-19649020D02*
X123276959Y-19676446D01*
X123276959Y-19676446D02*
X123233928Y-19708350D01*
X123233928Y-19708350D02*
X123190022Y-19740957D01*
X123190022Y-19740957D02*
X122968690Y-19904774D01*
X122968690Y-19904774D02*
X122820866Y-20012251D01*
X122820866Y-20012251D02*
X122697222Y-20099298D01*
X122697222Y-20099298D02*
X122562522Y-20190991D01*
X122562522Y-20190991D02*
X122517965Y-20220471D01*
X122517965Y-20220471D02*
X122456365Y-20260469D01*
X122456365Y-20260469D02*
X122389629Y-20303344D01*
X122389629Y-20303344D02*
X122327522Y-20342769D01*
X122327522Y-20342769D02*
X122148457Y-20456351D01*
X122148457Y-20456351D02*
X122046415Y-20523278D01*
X122046415Y-20523278D02*
X121967428Y-20578727D01*
X121967428Y-20578727D02*
X121880250Y-20644220D01*
X121880250Y-20644220D02*
X121777297Y-20730085D01*
X121777297Y-20730085D02*
X121646053Y-20852079D01*
X121646053Y-20852079D02*
X121513704Y-20983304D01*
X121513704Y-20983304D02*
X121405193Y-21100277D01*
X121405193Y-21100277D02*
X121380430Y-21128361D01*
X121380430Y-21128361D02*
X121357031Y-21154856D01*
X121357031Y-21154856D02*
X121337272Y-21177192D01*
X121337272Y-21177192D02*
X121327847Y-21187777D01*
X121893683Y-25046689D02*
X121877281Y-25023316D01*
X121877281Y-25023316D02*
X121862079Y-25003035D01*
X120385721Y-22760277D02*
X120383495Y-22765577D01*
X120383495Y-22765577D02*
X120379723Y-22773949D01*
X120379723Y-22773949D02*
X120375330Y-22783430D01*
X120375330Y-22783430D02*
X120370874Y-22792777D01*
X120370874Y-22792777D02*
X120366707Y-22801673D01*
X120366707Y-22801673D02*
X120363194Y-22809786D01*
X120363194Y-22809786D02*
X120360459Y-22816632D01*
X120359166Y-22823491D02*
X120352969Y-22838632D01*
X120352969Y-22838632D02*
X120343866Y-22859784D01*
X120343866Y-22859784D02*
X120329642Y-22891661D01*
X120329642Y-22891661D02*
X120325958Y-22900210D01*
X120325958Y-22900210D02*
X120322848Y-22908209D01*
X120322848Y-22908209D02*
X120320501Y-22914968D01*
X120319553Y-22920959D02*
X120317281Y-22927667D01*
X120317281Y-22927667D02*
X120314264Y-22935606D01*
X120314264Y-22935606D02*
X120310691Y-22944082D01*
X120310691Y-22944082D02*
X120306173Y-22954627D01*
X119634498Y-19470277D02*
X119620636Y-19520269D01*
X121862079Y-25003035D02*
X121851771Y-24989809D01*
X121851771Y-24989809D02*
X121837947Y-24972822D01*
X121837947Y-24972822D02*
X121794380Y-24920045D01*
X121794380Y-24920045D02*
X121719278Y-24826381D01*
X121719278Y-24826381D02*
X121658325Y-24744131D01*
X121658325Y-24744131D02*
X121593113Y-24647827D01*
X121593113Y-24647827D02*
X121501099Y-24504225D01*
X120306173Y-22954627D02*
X120300109Y-22969333D01*
X120300109Y-22969333D02*
X120293655Y-22985324D01*
X120293655Y-22985324D02*
X120287768Y-23000277D01*
X120287768Y-23000277D02*
X120274497Y-23034151D01*
X120274497Y-23034151D02*
X120263179Y-23062378D01*
X120263179Y-23062378D02*
X120253305Y-23086243D01*
X120253305Y-23086243D02*
X120244490Y-23106661D01*
X119140235Y-22143074D02*
X119130128Y-22124323D01*
X119130128Y-22124323D02*
X119121221Y-22107777D01*
X121397606Y-24949292D02*
X121534294Y-24982548D01*
X121534294Y-24982548D02*
X121614120Y-25002862D01*
X121614120Y-25002862D02*
X121685736Y-25024319D01*
X121685736Y-25024319D02*
X121751838Y-25047762D01*
X121751838Y-25047762D02*
X121815022Y-25074046D01*
X121815022Y-25074046D02*
X121846281Y-25087761D01*
X120464982Y-22580277D02*
X120447720Y-22618594D01*
X120447720Y-22618594D02*
X120420843Y-22679384D01*
X120420843Y-22679384D02*
X120393609Y-22741378D01*
X120393609Y-22741378D02*
X120385721Y-22760277D01*
X119094341Y-22058062D02*
X119075985Y-22024222D01*
X119075985Y-22024222D02*
X119058037Y-21991194D01*
X122620294Y-21214044D02*
X122627187Y-21198945D01*
X122627187Y-21198945D02*
X122635064Y-21181889D01*
X122635064Y-21181889D02*
X122644416Y-21161958D01*
X121327847Y-21187777D02*
X121284639Y-21238542D01*
X121284639Y-21238542D02*
X121217177Y-21323061D01*
X121217177Y-21323061D02*
X121146819Y-21413641D01*
X121146819Y-21413641D02*
X121089543Y-21490277D01*
X121089543Y-21490277D02*
X121029939Y-21574271D01*
X121029939Y-21574271D02*
X120962393Y-21673837D01*
X120962393Y-21673837D02*
X120899259Y-21770233D01*
X120899259Y-21770233D02*
X120854889Y-21842307D01*
X120854889Y-21842307D02*
X120850197Y-21850243D01*
X120850197Y-21850243D02*
X120839864Y-21867624D01*
X120839864Y-21867624D02*
X120827575Y-21888268D01*
X120827575Y-21888268D02*
X120814458Y-21910277D01*
X120814458Y-21910277D02*
X120800976Y-21932985D01*
X120800976Y-21932985D02*
X120787590Y-21955731D01*
X120787590Y-21955731D02*
X120775983Y-21975624D01*
X120775983Y-21975624D02*
X120769048Y-21987777D01*
X120769048Y-21987777D02*
X120759609Y-22004555D01*
X120759609Y-22004555D02*
X120749929Y-22021636D01*
X120749929Y-22021636D02*
X120738678Y-22041366D01*
X120738678Y-22041366D02*
X120724269Y-22066527D01*
X120724269Y-22066527D02*
X120683548Y-22141636D01*
X120683548Y-22141636D02*
X120596807Y-22312328D01*
X120596807Y-22312328D02*
X120511249Y-22483226D01*
X120511249Y-22483226D02*
X120464982Y-22580277D01*
X119121221Y-22107777D02*
X119110636Y-22088155D01*
X119110636Y-22088155D02*
X119094341Y-22058062D01*
X120184700Y-23817876D02*
X120226901Y-23818134D01*
X120657522Y-23850622D02*
X120813070Y-23857895D01*
X120813070Y-23857895D02*
X121086190Y-23859806D01*
X121086190Y-23859806D02*
X121358935Y-23858145D01*
X121358935Y-23858145D02*
X121492522Y-23850739D01*
X121492522Y-23850739D02*
X121528547Y-23847195D01*
X121528547Y-23847195D02*
X121566506Y-23843487D01*
X121566506Y-23843487D02*
X121601013Y-23840138D01*
X121601013Y-23840138D02*
X121625022Y-23837838D01*
X121625022Y-23837838D02*
X121745884Y-23823156D01*
X121745884Y-23823156D02*
X121883620Y-23800279D01*
X121883620Y-23800279D02*
X122020804Y-23772545D01*
X122020804Y-23772545D02*
X122140022Y-23743034D01*
X122140022Y-23743034D02*
X122213400Y-23722598D01*
X122213400Y-23722598D02*
X122252851Y-23710723D01*
X122252851Y-23710723D02*
X122292423Y-23697307D01*
X122292423Y-23697307D02*
X122367522Y-23670178D01*
X122367522Y-23670178D02*
X122458987Y-23635131D01*
X122458987Y-23635131D02*
X122533440Y-23602696D01*
X122533440Y-23602696D02*
X122618504Y-23560433D01*
X122618504Y-23560433D02*
X122752522Y-23489199D01*
X122752522Y-23489199D02*
X122862600Y-23432490D01*
X122862600Y-23432490D02*
X123003927Y-23364591D01*
X123003927Y-23364591D02*
X123149199Y-23298078D01*
X123149199Y-23298078D02*
X123272522Y-23245274D01*
X123272522Y-23245274D02*
X123419767Y-23188251D01*
X123419767Y-23188251D02*
X123598786Y-23125203D01*
X123598786Y-23125203D02*
X123773171Y-23068169D01*
X123773171Y-23068169D02*
X123902522Y-23031377D01*
X123902522Y-23031377D02*
X123938093Y-23021392D01*
X123938093Y-23021392D02*
X124000776Y-23001805D01*
X124000776Y-23001805D02*
X124065174Y-22981131D01*
X124075267Y-22933028D02*
X123946598Y-22930953D01*
X123946598Y-22930953D02*
X123760194Y-22928974D01*
X123760194Y-22928974D02*
X123422522Y-22926997D01*
X123422522Y-22926997D02*
X123166132Y-22925346D01*
X123166132Y-22925346D02*
X122937897Y-22923130D01*
X122937897Y-22923130D02*
X122745145Y-22920680D01*
X122745145Y-22920680D02*
X122692522Y-22918510D01*
X122692522Y-22918510D02*
X122657867Y-22916150D01*
X122657867Y-22916150D02*
X122615318Y-22913293D01*
X122615318Y-22913293D02*
X122572057Y-22910418D01*
X122572057Y-22910418D02*
X122535022Y-22907990D01*
X122535022Y-22907990D02*
X122498691Y-22905545D01*
X122498691Y-22905545D02*
X122457662Y-22902627D01*
X122457662Y-22902627D02*
X122418287Y-22899702D01*
X122418287Y-22899702D02*
X122387522Y-22897267D01*
X122387522Y-22897267D02*
X122353546Y-22895032D01*
X122353546Y-22895032D02*
X122301607Y-22892737D01*
X122301607Y-22892737D02*
X122243234Y-22890735D01*
X122243234Y-22890735D02*
X122186322Y-22889370D01*
X122186322Y-22889370D02*
X122105896Y-22888261D01*
X122105896Y-22888261D02*
X122061324Y-22888975D01*
X122061324Y-22888975D02*
X122025789Y-22891782D01*
X122025789Y-22891782D02*
X121983822Y-22897669D01*
X121983822Y-22897669D02*
X121924574Y-22908597D01*
X121924574Y-22908597D02*
X121863071Y-22922384D01*
X121863071Y-22922384D02*
X121801620Y-22938467D01*
X121801620Y-22938467D02*
X121742522Y-22956289D01*
X121742522Y-22956289D02*
X121707932Y-22967769D01*
X121707932Y-22967769D02*
X121678135Y-22978359D01*
X121678135Y-22978359D02*
X121643337Y-22991611D01*
X121643337Y-22991611D02*
X121590022Y-23012680D01*
X121590022Y-23012680D02*
X121483653Y-23056658D01*
X121483653Y-23056658D02*
X121345333Y-23116903D01*
X121345333Y-23116903D02*
X121194502Y-23184657D01*
X121194502Y-23184657D02*
X121047522Y-23252733D01*
X121047522Y-23252733D02*
X120999694Y-23275132D01*
X120999694Y-23275132D02*
X120931774Y-23306749D01*
X120931774Y-23306749D02*
X120865354Y-23337574D01*
X120865354Y-23337574D02*
X120830022Y-23353816D01*
X120830022Y-23353816D02*
X120796707Y-23369148D01*
X120796707Y-23369148D02*
X120761702Y-23385535D01*
X120761702Y-23385535D02*
X120719936Y-23405361D01*
X120719936Y-23405361D02*
X120665022Y-23431661D01*
X120665022Y-23431661D02*
X120636247Y-23445444D01*
X120636247Y-23445444D02*
X120605600Y-23460054D01*
X120605600Y-23460054D02*
X120577497Y-23473393D01*
X120577497Y-23473393D02*
X120557522Y-23482798D01*
X120557522Y-23482798D02*
X120538478Y-23491750D01*
X120538478Y-23491750D02*
X120513850Y-23503400D01*
X120513850Y-23503400D02*
X120488044Y-23515656D01*
X120488044Y-23515656D02*
X120465022Y-23526643D01*
X120465022Y-23526643D02*
X120396972Y-23558528D01*
X120396972Y-23558528D02*
X120328992Y-23589023D01*
X120328992Y-23589023D02*
X120268149Y-23615366D01*
X120284097Y-23572337D02*
X120291782Y-23568359D01*
X120291782Y-23568359D02*
X120306062Y-23560749D01*
X120306062Y-23560749D02*
X120322766Y-23551769D01*
X120322766Y-23551769D02*
X120340022Y-23542411D01*
X120340022Y-23542411D02*
X120359541Y-23531825D01*
X120359541Y-23531825D02*
X120383256Y-23519049D01*
X120383256Y-23519049D02*
X120407210Y-23506206D01*
X120407210Y-23506206D02*
X120427522Y-23495384D01*
X120427522Y-23495384D02*
X120846530Y-23258868D01*
X120846530Y-23258868D02*
X121202444Y-23026945D01*
X121202444Y-23026945D02*
X121512462Y-22788051D01*
X121792561Y-22530767D02*
X121929379Y-22385115D01*
X121929379Y-22385115D02*
X122060765Y-22228716D01*
X122060765Y-22228716D02*
X122176513Y-22074537D01*
X122265538Y-21936076D02*
X122272630Y-21923921D01*
X122272630Y-21923921D02*
X122279895Y-21911546D01*
X122279895Y-21911546D02*
X122286359Y-21900601D01*
X122286359Y-21900601D02*
X122290563Y-21893576D01*
X122290563Y-21893576D02*
X122301117Y-21875799D01*
X122301117Y-21875799D02*
X122312309Y-21856309D01*
X122312309Y-21856309D02*
X122323008Y-21837116D01*
X122323008Y-21837116D02*
X122332041Y-21820277D01*
X122332041Y-21820277D02*
X122336238Y-21812435D01*
X122336238Y-21812435D02*
X122340177Y-21805418D01*
X122340177Y-21805418D02*
X122343588Y-21799615D01*
X122347730Y-21793998D02*
X122376801Y-21734980D01*
X122376801Y-21734980D02*
X122404537Y-21678174D01*
X122404537Y-21678174D02*
X122427442Y-21630277D01*
X122427442Y-21630277D02*
X122477758Y-21523339D01*
X122477758Y-21523339D02*
X122520677Y-21431421D01*
X122520677Y-21431421D02*
X122559292Y-21348297D01*
X122560385Y-21343329D02*
X122568834Y-21324951D01*
X122568834Y-21324951D02*
X122578521Y-21304146D01*
X122578521Y-21304146D02*
X122590022Y-21279870D01*
X122590022Y-21279870D02*
X122601523Y-21255632D01*
X122601523Y-21255632D02*
X122611209Y-21234952D01*
X122611209Y-21234952D02*
X122619743Y-21216562D01*
X119600081Y-22547260D02*
X119602098Y-22557528D01*
X121000085Y-24074987D02*
X120952079Y-24051930D01*
X120952079Y-24051930D02*
X120904637Y-24030487D01*
X120904637Y-24030487D02*
X120858649Y-24011046D01*
X120858649Y-24011046D02*
X120815022Y-23994009D01*
X120815022Y-23994009D02*
X120681550Y-23947366D01*
X120681550Y-23947366D02*
X120542223Y-23904860D01*
X120542223Y-23904860D02*
X120415850Y-23871576D01*
X120327522Y-23855429D02*
X120301820Y-23851668D01*
X120301820Y-23851668D02*
X120263811Y-23844985D01*
X120263811Y-23844985D02*
X120225611Y-23837712D01*
X118960123Y-21810277D02*
X118831364Y-21580665D01*
X118831364Y-21580665D02*
X118702584Y-21373051D01*
X120226901Y-23818134D02*
X120278512Y-23820402D01*
X120278512Y-23820402D02*
X120340022Y-23825579D01*
X120340022Y-23825579D02*
X120374606Y-23828849D01*
X120374606Y-23828849D02*
X120414584Y-23832326D01*
X120414584Y-23832326D02*
X120453615Y-23835486D01*
X120453615Y-23835486D02*
X120485022Y-23837755D01*
X120485022Y-23837755D02*
X120518194Y-23840058D01*
X120518194Y-23840058D02*
X120563537Y-23843388D01*
X120563537Y-23843388D02*
X120612378Y-23847086D01*
X120612378Y-23847086D02*
X120657522Y-23850622D01*
X119470054Y-21687481D02*
X119472649Y-21717124D01*
X117958715Y-22867713D02*
X117937771Y-22865819D01*
X117937771Y-22865819D02*
X117919388Y-22863775D01*
X117919388Y-22863775D02*
X117903889Y-22861762D01*
X117891324Y-22858069D02*
X117717753Y-22863052D01*
X117717753Y-22863052D02*
X117542892Y-22868843D01*
X117542892Y-22868843D02*
X117375022Y-22875821D01*
X117375022Y-22875821D02*
X117303746Y-22879104D01*
X117303746Y-22879104D02*
X117228084Y-22882592D01*
X117228084Y-22882592D02*
X117158893Y-22885783D01*
X117158893Y-22885783D02*
X117110022Y-22888039D01*
X117110022Y-22888039D02*
X117002731Y-22893949D01*
X117002731Y-22893949D02*
X116894548Y-22901810D01*
X116894548Y-22901810D02*
X116795588Y-22910763D01*
X116795588Y-22910763D02*
X116717522Y-22919967D01*
X116717522Y-22919967D02*
X116635946Y-22930142D01*
X116635946Y-22930142D02*
X116555159Y-22938329D01*
X116555159Y-22938329D02*
X116464250Y-22945535D01*
X116464250Y-22945535D02*
X116350810Y-22952773D01*
X116350810Y-22952773D02*
X116249523Y-22959059D01*
X116249523Y-22959059D02*
X116175382Y-22964579D01*
X116175382Y-22964579D02*
X116119176Y-22969928D01*
X116119176Y-22969928D02*
X116076272Y-22975641D01*
X119479586Y-21796968D02*
X119486414Y-21863404D01*
D13*
G36*
X120000000Y-23484100D02*
G01*
X119788862Y-23677775D01*
X120007937Y-23773025D01*
X120758825Y-24315950D01*
X120577850Y-24411200D01*
X120000000Y-23954000D01*
X120012700Y-25046200D01*
X119898400Y-24906500D01*
X119892050Y-24017500D01*
X119936500Y-24017500D01*
X119555500Y-23801600D01*
X119269750Y-23649200D01*
X119434850Y-23369800D01*
X120000000Y-23484100D01*
G37*
X120000000Y-23484100D02*
X119788862Y-23677775D01*
X120007937Y-23773025D01*
X120758825Y-24315950D01*
X120577850Y-24411200D01*
X120000000Y-23954000D01*
X120012700Y-25046200D01*
X119898400Y-24906500D01*
X119892050Y-24017500D01*
X119936500Y-24017500D01*
X119555500Y-23801600D01*
X119269750Y-23649200D01*
X119434850Y-23369800D01*
X120000000Y-23484100D01*
G36*
X118002925Y-22903075D02*
G01*
X118339475Y-22998325D01*
X118603000Y-23090400D01*
X119301500Y-23496800D01*
X119331980Y-23524740D01*
X119339600Y-23509500D01*
X119339600Y-23522200D01*
X119331980Y-23524740D01*
X119250700Y-23687300D01*
X119644400Y-23827000D01*
X119434850Y-23852400D01*
X119041150Y-23877800D01*
X118564900Y-23877800D01*
X118120400Y-23814300D01*
X117637800Y-23700000D01*
X117244100Y-23585700D01*
X116837700Y-23357100D01*
X116520200Y-23128500D01*
X116113800Y-23001500D01*
X116761500Y-22950700D01*
X117294900Y-22912600D01*
X117758450Y-22906250D01*
X118002925Y-22903075D01*
G37*
X118002925Y-22903075D02*
X118339475Y-22998325D01*
X118603000Y-23090400D01*
X119301500Y-23496800D01*
X119331980Y-23524740D01*
X119339600Y-23509500D01*
X119339600Y-23522200D01*
X119331980Y-23524740D01*
X119250700Y-23687300D01*
X119644400Y-23827000D01*
X119434850Y-23852400D01*
X119041150Y-23877800D01*
X118564900Y-23877800D01*
X118120400Y-23814300D01*
X117637800Y-23700000D01*
X117244100Y-23585700D01*
X116837700Y-23357100D01*
X116520200Y-23128500D01*
X116113800Y-23001500D01*
X116761500Y-22950700D01*
X117294900Y-22912600D01*
X117758450Y-22906250D01*
X118002925Y-22903075D01*
G36*
X116596400Y-19724900D02*
G01*
X116913900Y-19966200D01*
X117479050Y-20283700D01*
X118075950Y-20715500D01*
X118450600Y-21096500D01*
X118850650Y-21661650D01*
X119447550Y-22842750D01*
X119746000Y-23407900D01*
X119758700Y-23420600D01*
X119428500Y-23446000D01*
X119326900Y-23395200D01*
X118971300Y-23147550D01*
X118564900Y-22779250D01*
X118234700Y-22430000D01*
X117879100Y-21998200D01*
X117599700Y-21579100D01*
X117409200Y-21325100D01*
X117155200Y-20867900D01*
X116901200Y-20499600D01*
X116659900Y-20080500D01*
X116380500Y-19521700D01*
X116596400Y-19724900D01*
G37*
X116596400Y-19724900D02*
X116913900Y-19966200D01*
X117479050Y-20283700D01*
X118075950Y-20715500D01*
X118450600Y-21096500D01*
X118850650Y-21661650D01*
X119447550Y-22842750D01*
X119746000Y-23407900D01*
X119758700Y-23420600D01*
X119428500Y-23446000D01*
X119326900Y-23395200D01*
X118971300Y-23147550D01*
X118564900Y-22779250D01*
X118234700Y-22430000D01*
X117879100Y-21998200D01*
X117599700Y-21579100D01*
X117409200Y-21325100D01*
X117155200Y-20867900D01*
X116901200Y-20499600D01*
X116659900Y-20080500D01*
X116380500Y-19521700D01*
X116596400Y-19724900D01*
G36*
X120215900Y-18150100D02*
G01*
X120317500Y-18632700D01*
X120431800Y-19089900D01*
X120514350Y-19420100D01*
X120577850Y-19801100D01*
X120622300Y-20321800D01*
X120622300Y-20855200D01*
X120571500Y-21439400D01*
X120508000Y-21960100D01*
X120365125Y-22455400D01*
X120066675Y-23471400D01*
X119853950Y-23420600D01*
X119619000Y-22506200D01*
X119445962Y-21642600D01*
X119461837Y-20855200D01*
X119514225Y-20194800D01*
X119676150Y-19420100D01*
X119911100Y-18607300D01*
X120038100Y-17832600D01*
X120101600Y-17311900D01*
X120215900Y-18150100D01*
G37*
X120215900Y-18150100D02*
X120317500Y-18632700D01*
X120431800Y-19089900D01*
X120514350Y-19420100D01*
X120577850Y-19801100D01*
X120622300Y-20321800D01*
X120622300Y-20855200D01*
X120571500Y-21439400D01*
X120508000Y-21960100D01*
X120365125Y-22455400D01*
X120066675Y-23471400D01*
X119853950Y-23420600D01*
X119619000Y-22506200D01*
X119445962Y-21642600D01*
X119461837Y-20855200D01*
X119514225Y-20194800D01*
X119676150Y-19420100D01*
X119911100Y-18607300D01*
X120038100Y-17832600D01*
X120101600Y-17311900D01*
X120215900Y-18150100D01*
G36*
X123060700Y-20283700D02*
G01*
X122819400Y-20779000D01*
X122616200Y-21236200D01*
X122355850Y-21756900D01*
X122082800Y-22112500D01*
X121771650Y-22525250D01*
X121301750Y-22918950D01*
X120800100Y-23255500D01*
X119695200Y-23852400D01*
X119720600Y-23522200D01*
X120025400Y-23471400D01*
X120273050Y-23033250D01*
X120488950Y-22569700D01*
X120654050Y-22239500D01*
X120838200Y-21947400D01*
X121003300Y-21629900D01*
X121282700Y-21274300D01*
X121562100Y-20956800D01*
X121892300Y-20664700D01*
X122235200Y-20436100D01*
X122616200Y-20182100D01*
X123009900Y-19915400D01*
X123543300Y-19521700D01*
X123060700Y-20283700D01*
G37*
X123060700Y-20283700D02*
X122819400Y-20779000D01*
X122616200Y-21236200D01*
X122355850Y-21756900D01*
X122082800Y-22112500D01*
X121771650Y-22525250D01*
X121301750Y-22918950D01*
X120800100Y-23255500D01*
X119695200Y-23852400D01*
X119720600Y-23522200D01*
X120025400Y-23471400D01*
X120273050Y-23033250D01*
X120488950Y-22569700D01*
X120654050Y-22239500D01*
X120838200Y-21947400D01*
X121003300Y-21629900D01*
X121282700Y-21274300D01*
X121562100Y-20956800D01*
X121892300Y-20664700D01*
X122235200Y-20436100D01*
X122616200Y-20182100D01*
X123009900Y-19915400D01*
X123543300Y-19521700D01*
X123060700Y-20283700D01*
G36*
X123073400Y-22938000D02*
G01*
X123505200Y-22963400D01*
X124083207Y-22973943D01*
X123403600Y-23128500D01*
X122971800Y-23319000D01*
X122628900Y-23534900D01*
X122209800Y-23700000D01*
X121676400Y-23788900D01*
X121231900Y-23814300D01*
X120654050Y-23795250D01*
X120076200Y-23776200D01*
X120012700Y-23700000D01*
X120228600Y-23636500D01*
X120235585Y-23585700D01*
X120551815Y-23458700D01*
X121085850Y-23230100D01*
X121638300Y-23026900D01*
X122032000Y-22912600D01*
X122476500Y-22912600D01*
X123073400Y-22938000D01*
G37*
X123073400Y-22938000D02*
X123505200Y-22963400D01*
X124083207Y-22973943D01*
X123403600Y-23128500D01*
X122971800Y-23319000D01*
X122628900Y-23534900D01*
X122209800Y-23700000D01*
X121676400Y-23788900D01*
X121231900Y-23814300D01*
X120654050Y-23795250D01*
X120076200Y-23776200D01*
X120012700Y-23700000D01*
X120228600Y-23636500D01*
X120235585Y-23585700D01*
X120551815Y-23458700D01*
X121085850Y-23230100D01*
X121638300Y-23026900D01*
X122032000Y-22912600D01*
X122476500Y-22912600D01*
X123073400Y-22938000D01*
G36*
X119866650Y-23966700D02*
G01*
X119498350Y-24398500D01*
X119060200Y-24671550D01*
X118679200Y-24811250D01*
X117929900Y-24976350D01*
X118412500Y-24449300D01*
X118806200Y-24182600D01*
X119174500Y-23979400D01*
X119644400Y-23903200D01*
X119669800Y-23903200D01*
X119866650Y-23966700D01*
G37*
X119866650Y-23966700D02*
X119498350Y-24398500D01*
X119060200Y-24671550D01*
X118679200Y-24811250D01*
X117929900Y-24976350D01*
X118412500Y-24449300D01*
X118806200Y-24182600D01*
X119174500Y-23979400D01*
X119644400Y-23903200D01*
X119669800Y-23903200D01*
X119866650Y-23966700D01*
G36*
X120660400Y-23947650D02*
G01*
X121212850Y-24227050D01*
X121539875Y-24554075D01*
X121674813Y-24784263D01*
X121906588Y-25054138D01*
X121600200Y-24970000D01*
X121346200Y-24893800D01*
X121168400Y-24830300D01*
X120793750Y-24696950D01*
X120434975Y-24503275D01*
X120174625Y-24217525D01*
X120050800Y-24055600D01*
X120114300Y-24093700D01*
X120088900Y-24030200D01*
X120152400Y-23858750D01*
X120660400Y-23947650D01*
G37*
X120660400Y-23947650D02*
X121212850Y-24227050D01*
X121539875Y-24554075D01*
X121674813Y-24784263D01*
X121906588Y-25054138D01*
X121600200Y-24970000D01*
X121346200Y-24893800D01*
X121168400Y-24830300D01*
X120793750Y-24696950D01*
X120434975Y-24503275D01*
X120174625Y-24217525D01*
X120050800Y-24055600D01*
X120114300Y-24093700D01*
X120088900Y-24030200D01*
X120152400Y-23858750D01*
X120660400Y-23947650D01*
D11*
X116060628Y-22985206D02*
G75*
G02*
X116062745Y-22980474I8833J-1112D01*
G01*
X116062745Y-22980475D02*
G75*
G02*
X116067170Y-22977659I6961J-6056D01*
G01*
X116067171Y-22977659D02*
G75*
G02*
X116076272Y-22975641I21302J-74534D01*
G01*
X117891324Y-22858069D02*
G75*
G02*
X117900393Y-22860507I462J-16364D01*
G01*
X117903889Y-22861762D02*
G75*
G02*
X117900393Y-22860507I1209J8867D01*
G01*
X120327522Y-23855429D02*
G75*
G02*
X120415850Y-23871576I-96572J-777952D01*
G01*
X121000085Y-24074988D02*
G75*
G02*
X121152408Y-24162179I-639105J-1293158D01*
G01*
X122620021Y-21215299D02*
G75*
G02*
X122619743Y-21216562I-3003J0D01*
G01*
X122560021Y-21344995D02*
G75*
G02*
X122560385Y-21343329I3995J0D01*
G01*
X122560021Y-21344995D02*
G75*
G02*
X122559292Y-21348297I-7840J0D01*
G01*
X122347731Y-21793997D02*
G75*
G02*
X122345022Y-21797777I-12801J6311D01*
G01*
X122343589Y-21799614D02*
G75*
G02*
X122345022Y-21797777I8150J-4881D01*
G01*
X122265539Y-21936076D02*
G75*
G02*
X122176513Y-22074537I-1594117J927112D01*
G01*
X121792561Y-22530767D02*
G75*
G02*
X121512462Y-22788051I-2992746J2977019D01*
G01*
X120267847Y-23582144D02*
G75*
G02*
X120284097Y-23572337I73169J-102870D01*
G01*
X120251467Y-23595234D02*
G75*
G02*
X120267847Y-23582145I125077J-139731D01*
G01*
X120238112Y-23608375D02*
G75*
G02*
X120251467Y-23595234I145858J-134885D01*
G01*
X120235021Y-23616267D02*
G75*
G02*
X120238111Y-23608375I11624J0D01*
G01*
X120235871Y-23619781D02*
G75*
G02*
X120235022Y-23616267I6849J3514D01*
G01*
X120238155Y-23621737D02*
G75*
G02*
X120235870Y-23619780I1247J3768D01*
G01*
X120242397Y-23622198D02*
G75*
G02*
X120238155Y-23621737I-1044J10127D01*
G01*
X120249641Y-23621103D02*
G75*
G02*
X120242398Y-23622199I-15184J75919D01*
G01*
X120268149Y-23615366D02*
G75*
G02*
X120249641Y-23621104I-36945J86448D01*
G01*
X124075267Y-22933028D02*
G75*
G02*
X124088772Y-22936729I-500J-28318D01*
G01*
X124088772Y-22936728D02*
G75*
G02*
X124097766Y-22945160I-13045J-22929D01*
G01*
X124097766Y-22945160D02*
G75*
G02*
X124100023Y-22955412I-12281J-8079D01*
G01*
X124100023Y-22955413D02*
G75*
G02*
X124094871Y-22965674I-18220J2725D01*
G01*
X124094870Y-22965673D02*
G75*
G02*
X124083207Y-22973943I-29662J29474D01*
G01*
X124083208Y-22973944D02*
G75*
G02*
X124065174Y-22981131I-63623J133418D01*
G01*
X120180021Y-23822584D02*
G75*
G02*
X120184700Y-23817876I4709J-1D01*
G01*
X120181145Y-23824719D02*
G75*
G02*
X120180022Y-23822585I1466J2134D01*
G01*
X120185529Y-23827293D02*
G75*
G02*
X120181144Y-23824719I15819J31971D01*
G01*
X122620022Y-21215299D02*
G75*
G02*
X122620294Y-21214044I3026J0D01*
G01*
X121912904Y-25082618D02*
G75*
G02*
X121912962Y-25090934I-10582J-4233D01*
G01*
X121912961Y-25090934D02*
G75*
G02*
X121910571Y-25093771I-5287J2029D01*
G01*
X121910571Y-25093771D02*
G75*
G02*
X121905675Y-25095933I-11328J19028D01*
G01*
X121905675Y-25095934D02*
G75*
G02*
X121898837Y-25097326I-10822J35655D01*
G01*
X121898838Y-25097325D02*
G75*
G02*
X121890414Y-25097777I-8424J78322D01*
G01*
X121890414Y-25097778D02*
G75*
G02*
X121875921Y-25096825I0J110737D01*
G01*
X121875921Y-25096825D02*
G75*
G02*
X121863016Y-25093965I9971J75534D01*
G01*
X121863016Y-25093965D02*
G75*
G02*
X121846281Y-25087761I53575J170197D01*
G01*
X121152408Y-24162178D02*
G75*
G02*
X121290509Y-24265987I-743206J-1132487D01*
G01*
X121290509Y-24265987D02*
G75*
G02*
X121408604Y-24381641I-808447J-943632D01*
G01*
X121408604Y-24381641D02*
G75*
G02*
X121501099Y-24504225I-691614J-618042D01*
G01*
X120320021Y-22917966D02*
G75*
G02*
X120319553Y-22920959I-9805J0D01*
G01*
X120320021Y-22917965D02*
G75*
G02*
X120320501Y-22914968I9600J-1D01*
G01*
X120360007Y-22819082D02*
G75*
G02*
X120359166Y-22823491I-11749J-43D01*
G01*
X120360007Y-22819082D02*
G75*
G02*
X120360459Y-22816632I6738J25D01*
G01*
X121893683Y-25046690D02*
G75*
G02*
X121905528Y-25066666I-194982J-129113D01*
G01*
X121905528Y-25066666D02*
G75*
G02*
X121912903Y-25082618I-148143J-78170D01*
G01*
X123549438Y-19487760D02*
G75*
G02*
X123564761Y-19481269I28471J-45884D01*
G01*
X123564761Y-19481268D02*
G75*
G02*
X123577504Y-19479947I10974J-43717D01*
G01*
X123577504Y-19479947D02*
G75*
G02*
X123584070Y-19484069I-305J-7776D01*
G01*
X123584070Y-19484070D02*
G75*
G02*
X123584527Y-19492656I-8997J-4784D01*
G01*
X123584527Y-19492655D02*
G75*
G02*
X123577667Y-19505539I-63438J25510D01*
G01*
X123526429Y-19570517D02*
G75*
G02*
X123516963Y-19580277I-72727J61071D01*
G01*
X123499895Y-19598072D02*
G75*
G02*
X123516963Y-19580277I123500J-101373D01*
G01*
X117958715Y-22867712D02*
G75*
G02*
X118037077Y-22877867I-68767J-838110D01*
G01*
X119284217Y-23442895D02*
G75*
G02*
X119269621Y-23439782I-3296J20324D01*
G01*
X119285880Y-23436626D02*
G75*
G02*
X119284217Y-23442894I-2231J-2763D01*
G01*
X116402079Y-19677345D02*
G75*
G02*
X116400022Y-19668491I18028J8854D01*
G01*
X116399530Y-19665636D02*
G75*
G02*
X116400022Y-19668491I-8045J-2855D01*
G01*
X116390446Y-19644500D02*
G75*
G02*
X116375567Y-19610779I353949J176315D01*
G01*
X116352798Y-19537021D02*
G75*
G02*
X116350022Y-19512709I105091J24312D01*
G01*
X116350022Y-19512709D02*
G75*
G02*
X116352313Y-19501889I26694J0D01*
G01*
X116352313Y-19501889D02*
G75*
G02*
X116358734Y-19493767I19006J-8428D01*
G01*
X116358734Y-19493767D02*
G75*
G02*
X116368045Y-19489963I11741J-15439D01*
G01*
X116368045Y-19489963D02*
G75*
G02*
X116378409Y-19491121I2783J-22042D01*
G01*
X119299378Y-23449505D02*
G75*
G02*
X119307816Y-23455118I-42084J-72409D01*
G01*
X119293690Y-23448010D02*
G75*
G02*
X119299378Y-23449505I137J-11046D01*
G01*
X119292163Y-23450169D02*
G75*
G02*
X119293690Y-23448010I1547J525D01*
G01*
X119295021Y-23455277D02*
G75*
G02*
X119292163Y-23450169I12406J10295D01*
G01*
X119298004Y-23458135D02*
G75*
G02*
X119295022Y-23455277I10995J14458D01*
G01*
X119301808Y-23460528D02*
G75*
G02*
X119298004Y-23458136I11528J22553D01*
G01*
X119305813Y-23462133D02*
G75*
G02*
X119301808Y-23460528I6762J22671D01*
G01*
X119309384Y-23462619D02*
G75*
G02*
X119305813Y-23462133I-229J11691D01*
G01*
X119313439Y-23462263D02*
G75*
G02*
X119309384Y-23462618I-4642J29680D01*
G01*
X119314221Y-23461131D02*
G75*
G02*
X119313438Y-23462263I-929J-194D01*
G01*
X119313100Y-23459282D02*
G75*
G02*
X119314221Y-23461131I-2062J-2515D01*
G01*
X120082574Y-17269496D02*
G75*
G02*
X120091771Y-17260571I24520J-16067D01*
G01*
X120091771Y-17260571D02*
G75*
G02*
X120102879Y-17257745I10107J-16484D01*
G01*
X120102879Y-17257745D02*
G75*
G02*
X120113607Y-17261707I-996J-19203D01*
G01*
X120113606Y-17261707D02*
G75*
G02*
X120121759Y-17271527I-17650J-22947D01*
G01*
X120121760Y-17271527D02*
G75*
G02*
X120133695Y-17304885I-124673J-63421D01*
G01*
X120155298Y-23304677D02*
G75*
G02*
X120155426Y-23284707I33535J9771D01*
G01*
X120162456Y-23305327D02*
G75*
G02*
X120155299Y-23304677I-3451J1730D01*
G01*
X120215021Y-23183771D02*
G75*
G02*
X120214584Y-23186362I-7897J0D01*
G01*
X120215021Y-23183771D02*
G75*
G02*
X120215482Y-23181197I7424J0D01*
G01*
X120235021Y-23133153D02*
G75*
G02*
X120234508Y-23136216I-9398J0D01*
G01*
X120235022Y-23133153D02*
G75*
G02*
X120235503Y-23130064I10154J0D01*
G01*
X119014682Y-21908855D02*
G75*
G02*
X119015022Y-21910212I-2538J-1357D01*
G01*
X117013874Y-23504228D02*
G75*
G02*
X117005022Y-23497537I13556J27135D01*
G01*
X117003092Y-23495897D02*
G75*
G02*
X117005022Y-23497537I-5453J-8377D01*
G01*
X116920629Y-23446375D02*
G75*
G02*
X116910474Y-23439975I63669J112281D01*
G01*
X116486099Y-23163678D02*
G75*
G02*
X116633114Y-23246773I-631554J-1288984D01*
G01*
X116326951Y-23096610D02*
G75*
G02*
X116486098Y-23163679I-510715J-1434241D01*
G01*
X116076927Y-23015042D02*
G75*
G02*
X116066329Y-23010106I14167J44263D01*
G01*
X116066329Y-23010106D02*
G75*
G02*
X116061681Y-23004159I5938J9430D01*
G01*
X116061681Y-23004159D02*
G75*
G02*
X116060076Y-22994254I30438J10015D01*
G01*
X116060076Y-22994254D02*
G75*
G02*
X116060628Y-22985206I70514J241D01*
G01*
X121198055Y-24893690D02*
G75*
G02*
X121142522Y-24873101I169046J541143D01*
G01*
X121062993Y-24842777D02*
G75*
G02*
X121064899Y-24843092I0J-5933D01*
G01*
X121062993Y-24842778D02*
G75*
G02*
X121059189Y-24842029I0J10037D01*
G01*
X120350022Y-24460106D02*
G75*
G02*
X120270238Y-24383873I695822J808099D01*
G01*
X120270238Y-24383873D02*
G75*
G02*
X120198595Y-24299661I781638J737557D01*
G01*
X120198596Y-24299661D02*
G75*
G02*
X120135002Y-24207259I878955J673003D01*
G01*
X120135001Y-24207258D02*
G75*
G02*
X120079292Y-24106527I1044989J643704D01*
G01*
X120058836Y-24071479D02*
G75*
G02*
X120066672Y-24082136I-34612J-33661D01*
G01*
X120052757Y-24069559D02*
G75*
G02*
X120058835Y-24071478I1254J-6611D01*
G01*
X120047112Y-24073439D02*
G75*
G02*
X120052758Y-24069558I7228J-4468D01*
G01*
X120045653Y-24078424D02*
G75*
G02*
X120047112Y-24073440I9773J-154D01*
G01*
X120033721Y-25062424D02*
G75*
G02*
X120032565Y-25071527I-41009J581D01*
G01*
X120032565Y-25071527D02*
G75*
G02*
X120031012Y-25075830I-20606J5007D01*
G01*
X120031011Y-25075830D02*
G75*
G02*
X120028627Y-25079473I-15676J7660D01*
G01*
X120028628Y-25079473D02*
G75*
G02*
X120025815Y-25081944I-9855J8380D01*
G01*
X120025814Y-25081943D02*
G75*
G02*
X120022998Y-25082777I-2816J4339D01*
G01*
X120022998Y-25082778D02*
G75*
G02*
X120018527Y-25081046I0J6637D01*
G01*
X119850060Y-24042777D02*
G75*
G02*
X119852369Y-24044990I-1J-2312D01*
G01*
X119847054Y-24044088D02*
G75*
G02*
X119850059Y-24042777I3005J-2787D01*
G01*
X119522618Y-24393723D02*
G75*
G02*
X119430022Y-24466907I-785138J898227D01*
G01*
X118620531Y-24840489D02*
G75*
G02*
X118585022Y-24849348I-111894J372905D01*
G01*
X117930754Y-25001291D02*
G75*
G02*
X117919488Y-25002124I-11660J81132D01*
G01*
X117919487Y-25002124D02*
G75*
G02*
X117910662Y-25001315I-221J46104D01*
G01*
X117910662Y-25001315D02*
G75*
G02*
X117902820Y-24998823I6419J33790D01*
G01*
X117902820Y-24998822D02*
G75*
G02*
X117893799Y-24985506I6402J14050D01*
G01*
X117893799Y-24985506D02*
G75*
G02*
X117899252Y-24966313I31269J1487D01*
G01*
X117899252Y-24966313D02*
G75*
G02*
X117927331Y-24931110I257590J-176662D01*
G01*
X118360021Y-24487406D02*
G75*
G02*
X118358008Y-24489477I-19819J17259D01*
G01*
X118360021Y-24487407D02*
G75*
G02*
X118362103Y-24485349I14795J-12883D01*
G01*
X119529691Y-23883050D02*
G75*
G02*
X119530034Y-23886296I-161J-1658D01*
G01*
X119527681Y-23883099D02*
G75*
G02*
X119529690Y-23883051I1204J-8298D01*
G01*
X120191588Y-23829800D02*
G75*
G02*
X120185529Y-23827293I15601J46284D01*
G01*
X120198772Y-23831862D02*
G75*
G02*
X120191589Y-23829800I19033J79840D01*
G01*
X116378409Y-19491121D02*
G75*
G02*
X116393800Y-19499519I-19851J-54684D01*
G01*
X119530667Y-22912450D02*
G75*
G02*
X119530022Y-22909625I5867J2825D01*
G01*
X119015378Y-21911643D02*
G75*
G02*
X119015022Y-21910212I2699J1431D01*
G01*
X120064571Y-17313376D02*
G75*
G02*
X120082574Y-17269496I122645J-24684D01*
G01*
X119793771Y-23403775D02*
G75*
G02*
X119778450Y-23404191I-7814J5438D01*
G01*
X119801642Y-23377617D02*
G75*
G02*
X119793772Y-23403776I-43965J-1036D01*
G01*
X119529045Y-22905488D02*
G75*
G02*
X119530022Y-22909625I-8269J-4137D01*
G01*
X119797789Y-23342241D02*
G75*
G02*
X119801641Y-23377617I-205937J-40320D01*
G01*
X119778449Y-23404191D02*
G75*
G02*
X119745824Y-23352971I252153J196613D01*
G01*
D14*
X135000000Y2500000D03*
X125000000Y2500000D03*
X115000000Y2500000D03*
X105000000Y2500000D03*
X105000000Y18000000D03*
X115000000Y18000000D03*
X125000000Y18000000D03*
X135000000Y18000000D03*
M02*
