G04 #@! TF.GenerationSoftware,KiCad,Pcbnew,(5.1.5-0)*
G04 #@! TF.CreationDate,2021-01-12T22:24:44-08:00*
G04 #@! TF.ProjectId,dualtimbre,6475616c-7469-46d6-9272-652e6b696361,rev?*
G04 #@! TF.SameCoordinates,Original*
G04 #@! TF.FileFunction,Legend,Top*
G04 #@! TF.FilePolarity,Positive*
%FSLAX46Y46*%
G04 Gerber Fmt 4.6, Leading zero omitted, Abs format (unit mm)*
G04 Created by KiCad (PCBNEW (5.1.5-0)) date 2021-01-12 22:24:44*
%MOMM*%
%LPD*%
G04 APERTURE LIST*
%ADD10C,0.400000*%
%ADD11C,0.200000*%
G04 APERTURE END LIST*
D10*
X11333333Y-1008333D02*
X13333333Y-1008333D01*
X12333333Y-4508333D02*
X12333333Y-1008333D01*
X14500000Y-4508333D02*
X14500000Y-1008333D01*
X16166666Y-4508333D02*
X16166666Y-1008333D01*
X17333333Y-3508333D01*
X18500000Y-1008333D01*
X18500000Y-4508333D01*
X21333333Y-2675000D02*
X21833333Y-2841666D01*
X22000000Y-3008333D01*
X22166666Y-3341666D01*
X22166666Y-3841666D01*
X22000000Y-4175000D01*
X21833333Y-4341666D01*
X21500000Y-4508333D01*
X20166666Y-4508333D01*
X20166666Y-1008333D01*
X21333333Y-1008333D01*
X21666666Y-1175000D01*
X21833333Y-1341666D01*
X22000000Y-1675000D01*
X22000000Y-2008333D01*
X21833333Y-2341666D01*
X21666666Y-2508333D01*
X21333333Y-2675000D01*
X20166666Y-2675000D01*
X25666666Y-4508333D02*
X24500000Y-2841666D01*
X23666666Y-4508333D02*
X23666666Y-1008333D01*
X25000000Y-1008333D01*
X25333333Y-1175000D01*
X25500000Y-1341666D01*
X25666666Y-1675000D01*
X25666666Y-2175000D01*
X25500000Y-2508333D01*
X25333333Y-2675000D01*
X25000000Y-2841666D01*
X23666666Y-2841666D01*
X27166666Y-2675000D02*
X28333333Y-2675000D01*
X28833333Y-4508333D02*
X27166666Y-4508333D01*
X27166666Y-1008333D01*
X28833333Y-1008333D01*
X12500000Y-10158333D02*
X12333333Y-10158333D01*
X12000000Y-9991666D01*
X11500000Y-9491666D01*
X10666666Y-8491666D01*
X10333333Y-7991666D01*
X10166666Y-7491666D01*
X10166666Y-7158333D01*
X10333333Y-6825000D01*
X10666666Y-6658333D01*
X10833333Y-6658333D01*
X11166666Y-6825000D01*
X11333333Y-7158333D01*
X11333333Y-7325000D01*
X11166666Y-7658333D01*
X11000000Y-7825000D01*
X10000000Y-8491666D01*
X9833333Y-8658333D01*
X9666666Y-8991666D01*
X9666666Y-9491666D01*
X9833333Y-9825000D01*
X10000000Y-9991666D01*
X10333333Y-10158333D01*
X10833333Y-10158333D01*
X11166666Y-9991666D01*
X11333333Y-9825000D01*
X11833333Y-9158333D01*
X12000000Y-8658333D01*
X12000000Y-8325000D01*
X13500000Y-6658333D02*
X15500000Y-6658333D01*
X14500000Y-10158333D02*
X14500000Y-6658333D01*
X16666666Y-10158333D02*
X16666666Y-6658333D01*
X18333333Y-10158333D02*
X18333333Y-6658333D01*
X19500000Y-9158333D01*
X20666666Y-6658333D01*
X20666666Y-10158333D01*
X23500000Y-8325000D02*
X24000000Y-8491666D01*
X24166666Y-8658333D01*
X24333333Y-8991666D01*
X24333333Y-9491666D01*
X24166666Y-9825000D01*
X24000000Y-9991666D01*
X23666666Y-10158333D01*
X22333333Y-10158333D01*
X22333333Y-6658333D01*
X23500000Y-6658333D01*
X23833333Y-6825000D01*
X24000000Y-6991666D01*
X24166666Y-7325000D01*
X24166666Y-7658333D01*
X24000000Y-7991666D01*
X23833333Y-8158333D01*
X23500000Y-8325000D01*
X22333333Y-8325000D01*
X27833333Y-10158333D02*
X26666666Y-8491666D01*
X25833333Y-10158333D02*
X25833333Y-6658333D01*
X27166666Y-6658333D01*
X27500000Y-6825000D01*
X27666666Y-6991666D01*
X27833333Y-7325000D01*
X27833333Y-7825000D01*
X27666666Y-8158333D01*
X27500000Y-8325000D01*
X27166666Y-8491666D01*
X25833333Y-8491666D01*
X29333333Y-8325000D02*
X30500000Y-8325000D01*
X31000000Y-10158333D02*
X29333333Y-10158333D01*
X29333333Y-6658333D01*
X31000000Y-6658333D01*
D11*
X24654761Y-51904761D02*
X25797619Y-51904761D01*
X25226190Y-53904761D02*
X25226190Y-51904761D01*
X26464285Y-53904761D02*
X26464285Y-51904761D01*
X27416666Y-53904761D02*
X27416666Y-51904761D01*
X28083333Y-53333333D01*
X28750000Y-51904761D01*
X28750000Y-53904761D01*
X30369047Y-52857142D02*
X30654761Y-52952380D01*
X30750000Y-53047619D01*
X30845238Y-53238095D01*
X30845238Y-53523809D01*
X30750000Y-53714285D01*
X30654761Y-53809523D01*
X30464285Y-53904761D01*
X29702380Y-53904761D01*
X29702380Y-51904761D01*
X30369047Y-51904761D01*
X30559523Y-52000000D01*
X30654761Y-52095238D01*
X30750000Y-52285714D01*
X30750000Y-52476190D01*
X30654761Y-52666666D01*
X30559523Y-52761904D01*
X30369047Y-52857142D01*
X29702380Y-52857142D01*
X32845238Y-53904761D02*
X32178571Y-52952380D01*
X31702380Y-53904761D02*
X31702380Y-51904761D01*
X32464285Y-51904761D01*
X32654761Y-52000000D01*
X32750000Y-52095238D01*
X32845238Y-52285714D01*
X32845238Y-52571428D01*
X32750000Y-52761904D01*
X32654761Y-52857142D01*
X32464285Y-52952380D01*
X31702380Y-52952380D01*
X33702380Y-52857142D02*
X34369047Y-52857142D01*
X34654761Y-53904761D02*
X33702380Y-53904761D01*
X33702380Y-51904761D01*
X34654761Y-51904761D01*
X28559523Y-35964285D02*
X28464285Y-36059523D01*
X28178571Y-36154761D01*
X27988095Y-36154761D01*
X27702380Y-36059523D01*
X27511904Y-35869047D01*
X27416666Y-35678571D01*
X27321428Y-35297619D01*
X27321428Y-35011904D01*
X27416666Y-34630952D01*
X27511904Y-34440476D01*
X27702380Y-34250000D01*
X27988095Y-34154761D01*
X28178571Y-34154761D01*
X28464285Y-34250000D01*
X28559523Y-34345238D01*
X29130952Y-34154761D02*
X29797619Y-36154761D01*
X30464285Y-34154761D01*
X31035714Y-34345238D02*
X31130952Y-34250000D01*
X31321428Y-34154761D01*
X31797619Y-34154761D01*
X31988095Y-34250000D01*
X32083333Y-34345238D01*
X32178571Y-34535714D01*
X32178571Y-34726190D01*
X32083333Y-35011904D01*
X30940476Y-36154761D01*
X32178571Y-36154761D01*
X28000000Y-18154761D02*
X28000000Y-16154761D01*
X28952380Y-18154761D02*
X28952380Y-16154761D01*
X30095238Y-18154761D01*
X30095238Y-16154761D01*
X30952380Y-16345238D02*
X31047619Y-16250000D01*
X31238095Y-16154761D01*
X31714285Y-16154761D01*
X31904761Y-16250000D01*
X32000000Y-16345238D01*
X32095238Y-16535714D01*
X32095238Y-16726190D01*
X32000000Y-17011904D01*
X30857142Y-18154761D01*
X32095238Y-18154761D01*
X7500000Y-18154761D02*
X7500000Y-16154761D01*
X8452380Y-18154761D02*
X8452380Y-16154761D01*
X9595238Y-18154761D01*
X9595238Y-16154761D01*
X11595238Y-18154761D02*
X10452380Y-18154761D01*
X11023809Y-18154761D02*
X11023809Y-16154761D01*
X10833333Y-16440476D01*
X10642857Y-16630952D01*
X10452380Y-16726190D01*
X8059523Y-35964285D02*
X7964285Y-36059523D01*
X7678571Y-36154761D01*
X7488095Y-36154761D01*
X7202380Y-36059523D01*
X7011904Y-35869047D01*
X6916666Y-35678571D01*
X6821428Y-35297619D01*
X6821428Y-35011904D01*
X6916666Y-34630952D01*
X7011904Y-34440476D01*
X7202380Y-34250000D01*
X7488095Y-34154761D01*
X7678571Y-34154761D01*
X7964285Y-34250000D01*
X8059523Y-34345238D01*
X8630952Y-34154761D02*
X9297619Y-36154761D01*
X9964285Y-34154761D01*
X11678571Y-36154761D02*
X10535714Y-36154761D01*
X11107142Y-36154761D02*
X11107142Y-34154761D01*
X10916666Y-34440476D01*
X10726190Y-34630952D01*
X10535714Y-34726190D01*
X4154761Y-51904761D02*
X5297619Y-51904761D01*
X4726190Y-53904761D02*
X4726190Y-51904761D01*
X5964285Y-53904761D02*
X5964285Y-51904761D01*
X6916666Y-53904761D02*
X6916666Y-51904761D01*
X7583333Y-53333333D01*
X8250000Y-51904761D01*
X8250000Y-53904761D01*
X9869047Y-52857142D02*
X10154761Y-52952380D01*
X10250000Y-53047619D01*
X10345238Y-53238095D01*
X10345238Y-53523809D01*
X10250000Y-53714285D01*
X10154761Y-53809523D01*
X9964285Y-53904761D01*
X9202380Y-53904761D01*
X9202380Y-51904761D01*
X9869047Y-51904761D01*
X10059523Y-52000000D01*
X10154761Y-52095238D01*
X10250000Y-52285714D01*
X10250000Y-52476190D01*
X10154761Y-52666666D01*
X10059523Y-52761904D01*
X9869047Y-52857142D01*
X9202380Y-52857142D01*
X12345238Y-53904761D02*
X11678571Y-52952380D01*
X11202380Y-53904761D02*
X11202380Y-51904761D01*
X11964285Y-51904761D01*
X12154761Y-52000000D01*
X12250000Y-52095238D01*
X12345238Y-52285714D01*
X12345238Y-52571428D01*
X12250000Y-52761904D01*
X12154761Y-52857142D01*
X11964285Y-52952380D01*
X11202380Y-52952380D01*
X13202380Y-52857142D02*
X13869047Y-52857142D01*
X14154761Y-53904761D02*
X13202380Y-53904761D01*
X13202380Y-51904761D01*
X14154761Y-51904761D01*
X31547619Y-89154761D02*
X31928571Y-89154761D01*
X32119047Y-89250000D01*
X32309523Y-89440476D01*
X32404761Y-89821428D01*
X32404761Y-90488095D01*
X32309523Y-90869047D01*
X32119047Y-91059523D01*
X31928571Y-91154761D01*
X31547619Y-91154761D01*
X31357142Y-91059523D01*
X31166666Y-90869047D01*
X31071428Y-90488095D01*
X31071428Y-89821428D01*
X31166666Y-89440476D01*
X31357142Y-89250000D01*
X31547619Y-89154761D01*
X33261904Y-89154761D02*
X33261904Y-90773809D01*
X33357142Y-90964285D01*
X33452380Y-91059523D01*
X33642857Y-91154761D01*
X34023809Y-91154761D01*
X34214285Y-91059523D01*
X34309523Y-90964285D01*
X34404761Y-90773809D01*
X34404761Y-89154761D01*
X35071428Y-89154761D02*
X36214285Y-89154761D01*
X35642857Y-91154761D02*
X35642857Y-89154761D01*
X36785714Y-89345238D02*
X36880952Y-89250000D01*
X37071428Y-89154761D01*
X37547619Y-89154761D01*
X37738095Y-89250000D01*
X37833333Y-89345238D01*
X37928571Y-89535714D01*
X37928571Y-89726190D01*
X37833333Y-90011904D01*
X36690476Y-91154761D01*
X37928571Y-91154761D01*
X11797619Y-89154761D02*
X12178571Y-89154761D01*
X12369047Y-89250000D01*
X12559523Y-89440476D01*
X12654761Y-89821428D01*
X12654761Y-90488095D01*
X12559523Y-90869047D01*
X12369047Y-91059523D01*
X12178571Y-91154761D01*
X11797619Y-91154761D01*
X11607142Y-91059523D01*
X11416666Y-90869047D01*
X11321428Y-90488095D01*
X11321428Y-89821428D01*
X11416666Y-89440476D01*
X11607142Y-89250000D01*
X11797619Y-89154761D01*
X13511904Y-89154761D02*
X13511904Y-90773809D01*
X13607142Y-90964285D01*
X13702380Y-91059523D01*
X13892857Y-91154761D01*
X14273809Y-91154761D01*
X14464285Y-91059523D01*
X14559523Y-90964285D01*
X14654761Y-90773809D01*
X14654761Y-89154761D01*
X15321428Y-89154761D02*
X16464285Y-89154761D01*
X15892857Y-91154761D02*
X15892857Y-89154761D01*
X18178571Y-91154761D02*
X17035714Y-91154761D01*
X17607142Y-91154761D02*
X17607142Y-89154761D01*
X17416666Y-89440476D01*
X17226190Y-89630952D01*
X17035714Y-89726190D01*
X3000000Y-75154761D02*
X3000000Y-73154761D01*
X3952380Y-75154761D02*
X3952380Y-73154761D01*
X5095238Y-75154761D01*
X5095238Y-73154761D01*
X7095238Y-75154761D02*
X5952380Y-75154761D01*
X6523809Y-75154761D02*
X6523809Y-73154761D01*
X6333333Y-73440476D01*
X6142857Y-73630952D01*
X5952380Y-73726190D01*
X33559523Y-74964285D02*
X33464285Y-75059523D01*
X33178571Y-75154761D01*
X32988095Y-75154761D01*
X32702380Y-75059523D01*
X32511904Y-74869047D01*
X32416666Y-74678571D01*
X32321428Y-74297619D01*
X32321428Y-74011904D01*
X32416666Y-73630952D01*
X32511904Y-73440476D01*
X32702380Y-73250000D01*
X32988095Y-73154761D01*
X33178571Y-73154761D01*
X33464285Y-73250000D01*
X33559523Y-73345238D01*
X34130952Y-73154761D02*
X34797619Y-75154761D01*
X35464285Y-73154761D01*
X36035714Y-73345238D02*
X36130952Y-73250000D01*
X36321428Y-73154761D01*
X36797619Y-73154761D01*
X36988095Y-73250000D01*
X37083333Y-73345238D01*
X37178571Y-73535714D01*
X37178571Y-73726190D01*
X37083333Y-74011904D01*
X35940476Y-75154761D01*
X37178571Y-75154761D01*
X22750000Y-75154761D02*
X22750000Y-73154761D01*
X23702380Y-75154761D02*
X23702380Y-73154761D01*
X24845238Y-75154761D01*
X24845238Y-73154761D01*
X25702380Y-73345238D02*
X25797619Y-73250000D01*
X25988095Y-73154761D01*
X26464285Y-73154761D01*
X26654761Y-73250000D01*
X26750000Y-73345238D01*
X26845238Y-73535714D01*
X26845238Y-73726190D01*
X26750000Y-74011904D01*
X25607142Y-75154761D01*
X26845238Y-75154761D01*
X13559523Y-74964285D02*
X13464285Y-75059523D01*
X13178571Y-75154761D01*
X12988095Y-75154761D01*
X12702380Y-75059523D01*
X12511904Y-74869047D01*
X12416666Y-74678571D01*
X12321428Y-74297619D01*
X12321428Y-74011904D01*
X12416666Y-73630952D01*
X12511904Y-73440476D01*
X12702380Y-73250000D01*
X12988095Y-73154761D01*
X13178571Y-73154761D01*
X13464285Y-73250000D01*
X13559523Y-73345238D01*
X14130952Y-73154761D02*
X14797619Y-75154761D01*
X15464285Y-73154761D01*
X17178571Y-75154761D02*
X16035714Y-75154761D01*
X16607142Y-75154761D02*
X16607142Y-73154761D01*
X16416666Y-73440476D01*
X16226190Y-73630952D01*
X16035714Y-73726190D01*
M02*
